<svg width="221" height="220" viewBox="0 0 221 220" fill="none" xmlns="http://www.w3.org/2000/svg">
<g clip-path="url(#clip0_2_21447)">
<path d="M110.5 220C171.251 220 220.5 170.751 220.5 110C220.5 49.2487 171.251 0 110.5 0C49.7487 0 0.5 49.2487 0.5 110C0.5 170.751 49.7487 220 110.5 220Z" fill="#F5EB16"/>
<path d="M110.053 27.5C64.7263 27.5069 28 64.2606 28 109.587C28.0069 154.907 64.7606 191.648 110.087 191.641C155.407 191.627 192.148 154.88 192.141 109.553C192.139 98.7754 190.014 88.1035 185.888 78.147C181.761 68.1904 175.714 59.1441 168.092 51.5247C160.469 43.9053 151.42 37.8619 141.462 33.7397C131.504 29.6176 120.831 27.4973 110.053 27.5ZM76.73 63.4562C76.7354 63.2332 76.8288 63.0213 76.9897 62.8667C77.1507 62.7122 77.3663 62.6276 77.5894 62.6313H111.779C118.951 62.4968 126.062 63.9722 132.589 66.9488C133.827 67.5538 135.044 68.2275 136.219 68.9563L113.965 81.6956H102.353C102.242 81.6983 102.133 81.7228 102.031 81.7678C101.929 81.8128 101.838 81.8774 101.761 81.9578C101.685 82.0383 101.625 82.133 101.585 82.2367C101.545 82.3403 101.525 82.4508 101.528 82.5619V88.9694L76.73 103.311V63.4562ZM67.5244 135.493L52.6606 120.478L101.611 92.235V110.536C101.616 110.759 101.709 110.971 101.87 111.126C102.031 111.28 102.247 111.365 102.47 111.361H109.462L67.5725 135.493H67.5244ZM140.826 121.536C133.648 127.531 123.796 130.529 111.27 130.529H102.353C102.129 130.529 101.914 130.618 101.755 130.776C101.597 130.935 101.507 131.15 101.507 131.374V149.854L89.0638 157.018L77.445 163.735L76.7094 164.147V133.519L115.23 111.354C118.522 111.254 121.676 110.006 124.147 107.827C125.025 106.956 125.762 105.955 126.333 104.857L150.932 90.6194C151.344 92.8744 151.551 95.1569 151.544 97.4531C151.571 107.511 147.996 115.534 140.819 121.536H140.826ZM127.626 100.781C127.791 99.7288 127.873 98.6562 127.88 97.5906C128.088 93.4035 126.705 89.2925 124.009 86.0819C122.498 84.4051 120.562 83.1676 118.406 82.5L152.596 62.7619L167.597 77.77L127.626 100.781Z" fill="white"/>
</g>
<defs>
<clipPath id="clip0_2_21447">
<rect width="220" height="220" fill="white" transform="translate(0.5)"/>
</clipPath>
</defs>
</svg>
