<svg width="221" height="220" viewBox="0 0 221 220" fill="none" xmlns="http://www.w3.org/2000/svg">
<g clip-path="url(#clip0_2_21477)">
<path d="M110.5 220C171.251 220 220.5 170.751 220.5 110C220.5 49.2487 171.251 0 110.5 0C49.7487 0 0.5 49.2487 0.5 110C0.5 170.751 49.7487 220 110.5 220Z" fill="#FF914D"/>
<path fill-rule="evenodd" clip-rule="evenodd" d="M110.5 187.399C67.7511 187.399 33.1011 152.749 33.1011 110C33.1011 67.2511 67.7511 32.6011 110.5 32.6011C153.249 32.6011 187.899 67.2511 187.899 110C187.899 152.749 153.249 187.399 110.5 187.399ZM110.5 182.847C150.732 182.847 183.347 150.232 183.347 110C183.347 69.7673 150.732 37.1523 110.5 37.1523C70.2673 37.1523 37.6523 69.7673 37.6523 110C37.6523 150.232 70.2673 182.847 110.5 182.847Z" fill="white"/>
<path d="M97.3687 165.907C99.0737 165.206 105.742 160.064 112.184 154.529C120.169 147.738 127.849 140.597 135.202 133.127C142.256 126.074 144.875 123.042 145.308 121.474C146.834 115.967 130.149 55.4331 126.752 54.1337C124.683 53.3362 106.176 68.7293 89.7856 84.8443C80.1743 94.2906 77.5137 97.4324 77.3075 99.4881C77.17 101.076 77.72 105.057 78.7443 109.773C82.8212 128.487 90.2393 154.344 93.9931 162.834C95.5675 166.437 95.7462 166.595 97.3618 165.907H97.3687Z" fill="white"/>
</g>
<defs>
<clipPath id="clip0_2_21477">
<rect width="220" height="220" fill="white" transform="translate(0.5)"/>
</clipPath>
</defs>
</svg>
