<svg width="221" height="220" viewBox="0 0 221 220" fill="none" xmlns="http://www.w3.org/2000/svg">
<g clip-path="url(#clip0_2_21460)">
<circle cx="110.5" cy="110" r="110" fill="white"/>
<path d="M68.5593 124.413L73.1588 89.8552L33.2632 62.1594L69.7153 74.5069L78.3241 61.2985L109.759 41.7935L179.047 79.9673L182.638 138.212L151.769 181.108L127.37 184.847L139.988 161.751V139.516L130.813 122.15L121.491 115.977L107.151 130.759V146.403L95.9599 156.881L81.743 158.603L75.4463 162.169L65.1157 158.873L60.8113 143.377L68.5593 132.481V124.413Z" fill="white"/>
<path d="M132.264 61.8641C124.664 60.2899 116.35 60.708 116.35 60.708C116.35 60.708 113.62 73.3261 96.6978 76.6466C96.8207 76.6466 119.056 84.247 132.264 61.8641Z" fill="#94A6C3"/>
<path d="M139.151 176.361C148.326 169.179 155.213 159.291 158.386 148.1C158.533 147.681 159.812 146.943 160.673 146.378C162.1 145.517 163.551 144.804 163.822 143.648C164.387 140.352 164.683 136.908 164.683 133.465C164.683 132.186 163.379 130.882 162.1 129.603C161.091 128.742 160.083 127.734 160.083 127.02C158.656 113.959 152.63 101.76 143.013 92.8802L142.005 93.8887C151.327 102.645 157.353 114.55 158.656 127.168C158.804 128.324 159.935 129.455 161.091 130.611C162.1 131.472 163.256 132.776 163.256 133.342C163.256 136.638 162.961 139.933 162.395 143.229C162.248 143.795 160.968 144.385 159.96 144.951C158.533 145.664 157.23 146.378 156.959 147.534C153.516 159.734 145.62 170.359 135.142 177.246C137.011 173.237 142.89 160.176 146.038 153.56L145.473 132.333L127.247 114.697L116.916 116.124L105.577 134.498C105.577 134.498 110.89 141.237 103.412 149.133C96.1073 156.88 90.3517 158.602 90.3517 158.602L85.0388 155.724C86.613 153.708 89.786 150.707 92.221 148.69C96.3779 145.246 100.535 144.951 100.535 141.237C100.707 133.465 92.3686 135.604 92.3686 135.604L89.3432 138.482L88.0642 149.108L81.7675 157.003L81.0542 156.856L70.7236 154.568C70.7236 154.568 77.045 151.272 78.0534 147.534C79.0619 143.943 76.0365 132.038 75.8889 131.325C76.0365 131.472 78.9143 133.907 80.1933 137.917C82.4808 131.595 85.5062 125.569 86.3671 125.003C87.2279 124.438 98.8375 118.264 98.8375 118.264L94.9759 128.447L97.8537 126.873L104.741 109.95C104.741 109.95 111.48 106.654 116.498 106.654C125.525 106.507 138.881 95.4628 132.855 75.6626C134.576 76.3759 164.412 91.306 169.577 120.576C173.439 143.082 160.673 164.161 139.151 176.361Z" fill="#94A6C3"/>
<path d="M105.012 65.0123C108.308 61.126 107.029 55.395 107.029 55.395L97.4116 69.6118C97.2641 69.6118 100.831 69.7594 105.012 65.0123Z" fill="#1B314F"/>
<path d="M72.7163 142.639L73.8723 136.908C73.8723 136.908 69.1252 145.222 68.707 146.378C68.2643 147.682 69.0022 149.969 70.8469 149.821C72.7163 149.674 75.0037 146.944 75.0037 144.951C75.0037 142.369 72.7163 142.639 72.7163 142.639Z" fill="#1B314F"/>
<path d="M160.034 48.9605C160.034 48.9605 167.329 49.2604 174.9 50.1352C157.835 36.7126 141.67 32.7883 128.552 32.7883C110.488 32.7883 98.2454 40.237 97.4959 40.6619L103.192 31.6136C103.192 31.6136 80.456 29.4139 72.4357 53.4846C70.387 48.3856 68.5131 40.9369 68.5131 40.9369C68.5131 40.9369 56.6951 51.31 62.2418 68.507C48.6749 63.5578 29.3114 56.6841 28.5618 56.5591C27.5374 56.4091 27.2376 56.859 27.2376 56.859C27.2376 56.859 26.9378 57.284 27.8123 58.0338C29.4363 59.3086 60.0431 81.9296 66.7641 86.3038C65.315 91.5528 65.315 94.0274 66.7641 96.502C68.8129 99.8514 68.9378 101.601 68.663 104.076C68.3632 106.55 65.7397 127.996 65.1651 130.621C64.5904 133.245 58.469 142.569 58.7439 145.343C59.0437 148.118 62.8165 159.916 66.1895 161.24C68.663 162.115 74.7844 164.015 78.8569 164.015C80.3061 164.015 81.6303 163.715 82.2049 163.14C84.6785 160.965 85.403 160.516 87.152 160.516C87.3019 160.516 87.4518 160.516 87.5768 160.516C88.3013 160.516 89.1758 160.665 90.2002 160.665C92.5238 160.665 95.597 160.216 97.7707 158.191C100.969 154.992 106.516 150.617 108.264 148.568C110.463 145.793 111.612 142.019 111.038 138.22C110.588 134.72 112.487 131.646 114.686 128.596C117.459 124.947 122.556 118.398 122.556 118.398C132.625 125.947 138.896 137.47 138.896 150.292C138.896 173.038 119.083 191.41 94.5976 191.41C90.7998 191.41 87.177 190.985 83.5292 190.11C94.7475 194.035 104.217 195.359 111.962 195.359C128.427 195.359 137.172 189.385 137.172 189.385C137.172 189.385 134.124 193.335 129.152 197.834C129.302 197.834 129.302 197.834 129.302 197.834C156.561 194.035 169.828 171.589 169.828 171.589C169.828 171.589 168.803 178.887 167.504 183.836C203.758 156.566 197.636 122.447 197.486 121.298C197.786 121.722 201.434 126.097 203.308 128.446C209.155 68.357 160.034 48.9605 160.034 48.9605ZM104.217 144.918C103.642 145.643 101.169 147.843 99.4197 149.442C97.6708 151.042 95.7719 152.642 94.3227 154.117C93.7481 154.692 92.5738 154.992 90.8248 154.992C90.2502 154.992 89.6505 154.992 89.2258 154.992C88.9259 154.992 88.6511 154.992 88.3513 154.992C88.0515 154.992 87.9016 154.992 87.7766 154.992C87.3269 154.992 86.9022 154.992 86.4524 154.992C88.6511 152.067 95.0473 145.368 97.246 143.918C99.8695 142.169 101.194 140.419 99.5696 137.37C97.9706 134.295 93.7481 135.045 93.7481 135.045C93.7481 135.045 96.2216 134.02 98.4203 134.02C95.647 133.295 92.149 134.02 90.55 135.62C88.801 137.22 89.1008 142.919 88.3763 146.543C87.6517 150.342 85.1782 152.242 81.3804 155.741C79.3316 157.641 77.8825 158.216 76.7082 158.216C74.2347 157.791 71.3114 157.041 69.2626 156.316C67.8135 154.417 65.6148 148.143 65.0401 145.518C65.4649 144.068 67.2139 140.994 68.0883 139.244C69.8373 135.895 70.8617 133.995 71.1615 132.246C71.7362 129.771 73.635 114.449 74.3596 108.05C76.2585 110.524 78.8819 114.624 78.2823 117.248C82.5048 111.274 79.4566 105.425 77.9825 103.101C76.6832 100.776 74.9343 96.102 76.3834 91.1529C77.8325 86.2038 83.0794 72.4812 83.0794 72.4812C83.0794 72.4812 84.8284 75.5557 87.3019 74.9558C89.7754 74.3809 109.739 44.3363 109.739 44.3363C109.739 44.3363 115.135 56.1342 109.439 64.7576C103.617 73.3561 97.9206 74.9558 97.9206 74.9558C97.9206 74.9558 105.941 76.4055 113.361 71.0065C116.41 78.1552 119.333 85.5789 119.483 86.6037C119.033 87.6285 113.212 101.626 112.637 102.501C112.337 102.801 110.313 103.376 108.839 103.676C106.366 104.401 104.916 104.85 104.317 105.275C103.292 106.15 98.6202 118.973 96.4465 125.247C93.823 125.972 91.1996 127.446 89.3007 130.346C90.3251 129.621 93.5232 129.171 95.8718 128.896C97.9206 128.746 104.167 132.096 105.791 138.369C105.791 138.519 105.791 138.519 105.791 138.669C106.116 140.969 105.391 143.169 104.217 144.918ZM90.525 146.668C91.8492 144.768 91.6993 141.569 91.8492 140.544C91.9991 139.519 92.274 137.62 93.4483 137.345C94.6226 137.045 97.3959 137.495 97.3959 139.519C97.3959 141.419 95.3471 141.844 93.898 143.169C92.8486 144.168 90.7998 146.368 90.525 146.668ZM148.665 118.798C150.115 111.374 150.265 104.95 149.84 99.7014C155.511 107.275 159.009 116.473 160.034 125.947C160.184 127.121 161.333 128.271 162.507 129.446C163.532 130.321 164.706 131.496 164.706 132.221C164.706 135.57 164.406 138.919 163.831 142.294C163.682 142.719 162.382 143.469 161.358 144.043C159.909 144.768 158.585 145.493 158.31 146.668C155.112 157.891 148.241 167.814 139.071 174.813C152.613 160.665 159.159 137.32 148.665 118.798ZM139.496 176.113C148.965 168.814 156.261 158.616 159.459 147.093C159.609 146.668 160.908 145.918 161.783 145.343C163.232 144.618 164.706 143.744 164.981 142.569C165.555 139.219 165.855 135.72 165.855 132.221C165.855 130.921 164.531 129.596 163.232 128.296C162.507 127.421 161.333 126.397 161.333 125.672C160.159 115.024 155.936 104.975 149.39 96.6519C146.467 79.1551 134.824 73.756 134.524 73.606C134.824 74.056 142.394 84.979 137.147 97.8017C131.751 110.774 117.909 108.75 116.734 108.875C115.56 108.875 111.063 114.699 105.366 125.497C104.642 125.197 101.568 124.472 98.0705 125.072C100.694 117.773 104.642 107.425 105.366 106.55C105.666 106.25 107.84 105.675 109.314 105.25C112.087 104.526 113.386 104.076 113.836 103.501C114.136 103.051 115.585 99.7014 117.034 96.202C118.358 96.202 121.706 95.9021 121.981 95.7521C122.281 95.4521 125.054 88.3284 125.054 87.4536C125.054 86.7287 119.358 72.5812 117.184 67.1822C118.209 66.0074 119.233 64.5577 120.232 62.958C150.115 66.1824 173.451 91.5528 173.451 122.297C173.451 145.918 159.609 166.489 139.496 176.113Z" fill="#1B314F"/>
<path d="M99.5509 99.0291C102.281 95.8808 100.855 90.0022 95.8122 88.9937C97.1158 85.993 98.9606 79.9668 98.9606 79.9668C98.9606 79.9668 84.3256 102.915 83.0466 103.358C81.743 103.801 80.4639 98.7586 80.4639 98.7586C77.7337 109.237 85.0635 110.663 85.9244 107.367C89.9336 106.334 96.8207 102.03 99.5509 99.0291Z" fill="#1B314F"/>
<path d="M87.0562 104.613L94.5089 91.8472C94.5089 91.8472 98.8133 94.0117 96.6488 97.4552C93.9432 101.464 87.0562 104.613 87.0562 104.613Z" fill="#FFD923"/>
<path d="M179.318 163.743C177.153 166.621 174.718 169.622 171.865 172.5C190.362 136.908 172.726 104.342 172.013 103.063C173.316 104.367 174.595 105.794 175.751 107.073C189.944 122.839 191.665 146.526 179.318 163.743Z" fill="#D82122"/>
<path d="M196.535 117.968C190.066 100.603 180.892 85.8207 160.673 72.4894C141.168 59.5762 120.212 60.5846 119.056 60.7322C118.908 60.7322 118.761 60.7322 118.761 60.7322C119.474 60.437 120.187 60.2895 120.901 60.1665C125.353 58.7399 131.084 57.5838 136.839 56.8705C152.065 54.6815 167.413 59.8467 177.891 70.9152C178.039 71.0628 178.039 71.0628 178.186 71.2103C190.091 83.8284 196.265 99.5948 196.535 117.968Z" fill="#D82122"/>
<path d="M156.074 46.9336C134.699 42.9244 120.925 44.9167 111.013 48.6554C110.718 47.4993 109.709 45.2118 108.848 43.3425C105.872 46.9336 102.699 51.238 100.707 53.9682C95.2465 57.7069 92.959 61.298 92.959 61.298C96.1073 50.5247 105.306 42.5062 116.498 40.4893C119.646 39.9236 123.09 39.6284 126.828 39.6284C136.716 39.776 146.604 42.2111 156.074 46.9336Z" fill="#D82122"/>
<path d="M77.0203 74.4822C60.2455 73.9165 65.8289 54.3868 66.124 53.2554C66.124 53.403 67.2555 68.6036 77.0203 74.4822Z" fill="#D82122"/>
<path d="M93.5252 39.3335C80.612 47.0814 83.1946 65.578 83.1946 65.578C70.8472 46.8109 92.5167 39.7762 93.5252 39.3335Z" fill="#D82122"/>
<path d="M72.2981 79.6474C73.159 80.3607 74.0198 81.6644 73.0114 83.5337C72.4457 84.5422 71.5848 84.3946 70.2812 83.8289C68.5594 82.968 58.2288 76.9418 48.9067 70.7681C59.5325 74.5067 70.2812 78.516 72.0029 79.3769C72.0029 79.3769 72.1505 79.5244 72.2981 79.6474Z" fill="white"/>
</g>
<defs>
<clipPath id="clip0_2_21460">
<rect width="220" height="220" fill="white" transform="translate(0.5)"/>
</clipPath>
</defs>
</svg>
