<svg width="221" height="220" viewBox="0 0 221 220" fill="none" xmlns="http://www.w3.org/2000/svg">
<g clip-path="url(#clip0_2_21451)">
<path d="M110.5 220C171.251 220 220.5 170.751 220.5 110C220.5 49.2487 171.251 0 110.5 0C49.7487 0 0.5 49.2487 0.5 110C0.5 170.751 49.7487 220 110.5 220Z" fill="#F1CB60"/>
<path d="M105.433 170.885V180.943H110.5V165.894H100.442V170.885H105.433ZM54.9912 115.679H50V140.786H54.9912V130.728H60.0581V120.67H54.9912V115.679ZM115.567 145.778H120.558V160.827H115.567V145.778ZM110.5 160.827H115.567V165.894H110.5V160.827ZM60.0581 155.836H75.1831V170.885H60.0581V155.836ZM50 105.621H55.0669V110.612H50V105.621ZM80.25 95.5625H85.3169V100.629H80.25V95.5625ZM110.5 90.4957H115.567V100.554H110.5V90.4957ZM44.9331 75.4463H60.0581V90.4957H44.9331V75.4463ZM90.3081 170.885H95.375V180.943H90.3081V170.885ZM95.375 90.4957H90.3837V100.554H95.375V95.5625H100.442V85.5044H95.375V90.4957ZM100.442 80.5132H105.433V85.5044H100.442V80.5132ZM100.442 95.5625H105.433V100.554H100.442V95.5625ZM75.1831 105.621H90.3081V110.612H75.1831V105.621Z" fill="white"/>
<path d="M95.375 85.504V80.5128H100.366V75.4459H95.375V65.4634H80.25V70.4546H90.3081V75.4459H85.2413V80.4371H80.25V85.4284H75.2587V80.5128H70.1163V75.5215H75.1831V80.4371H80.25V75.4459H75.2587V65.4634H34.875V100.629H75.2587V95.5621H80.25V85.504H85.3169V90.4953H90.3838V85.504H95.375ZM65.125 95.5621H39.9419V70.4546H65.125V95.5621ZM70.1163 95.5621V85.504H75.1831V95.5621H70.1163ZM90.3081 80.4371V75.5215H95.375V80.4371H90.3081ZM130.692 135.719V130.728H120.558V120.67H115.567V125.661H110.576V120.67H115.567V105.545H105.509V110.612H100.366V120.67H95.375V125.661H100.442V120.67H105.433V135.719H95.375V130.728H90.3081V120.67H85.3169V115.678H75.1831V110.687H70.1163V105.696H60.0581V110.687H54.9913V115.678H60.0581V120.67H65.125V115.678H70.1919V120.67H65.125V125.661H70.1919V130.652H75.1831V125.661H80.25V120.67H85.2413V125.661H80.25V130.652H75.2587V140.71H85.3169V145.777H75.1831V140.786H70.1163V145.777H60.0581V140.786H55.0669V145.777H50V180.943H85.3169V150.768H90.3081V165.893H100.442V160.902H105.509V150.768H100.442V145.777H95.375V150.768H90.3838V140.71H105.509V145.702H110.576V135.719H120.558V140.786H125.625V135.719H130.692ZM80.25 175.876H55.0669V150.768H80.25V175.876ZM85.3169 135.719H80.25V130.728H85.3169V135.719ZM95.375 155.835H100.442V160.827H95.375V155.835ZM130.692 65.4634H135.683V75.4459H130.692V65.4634ZM120.558 65.4634H115.567V80.5128H110.5V85.504H115.567V90.4953H120.558V100.553H125.625V90.4953H130.692V100.629H135.683V95.5621H140.75V85.504H130.692V75.4459H120.558V65.4634Z" fill="white"/>
<path fill-rule="evenodd" clip-rule="evenodd" d="M165.933 120.67H155.875V125.661H150.808V130.728H145.817V115.679H150.808V110.612H145.817V115.603H140.75V120.67H135.683V110.612H130.692V120.67H125.625V125.737L130.692 125.661H135.683V135.719H150.808V140.786H135.683V145.777H130.692V150.769H125.625V155.836H130.692V160.827H125.625V165.894H130.692V170.885H135.683V175.876H130.692V180.943H171V150.769H165.933V175.876H140.75V150.769H155.875V130.728H160.942V135.719H171V125.737H166.009V120.67H171V105.621H165.933V120.67Z" fill="white"/>
<path d="M125.625 140.786H130.692V145.778H125.625V140.786ZM150.808 115.679H155.875V120.67H150.808V115.679ZM160.942 140.786H171V145.853H160.942V140.786ZM160.942 75.5219H176.067V90.5713H160.942V75.5219ZM140.75 95.5625H145.817V100.629H140.75V95.5625ZM120.558 105.621H125.625V110.612H120.558V105.621ZM155.875 105.621H160.942V110.612H155.875V105.621ZM145.817 155.836H160.942V170.885H145.817V155.836ZM140.75 105.621H145.817V110.612H140.75V105.621ZM105.433 75.4463H110.5V80.5132H105.433V75.4463Z" fill="white"/>
<path d="M140.75 65.4639V70.4551H150.808V75.4464H145.741V80.4376H140.75V75.4464H135.683V80.5133H140.75V85.4289H145.817V90.4201H150.884V100.478H186.125V65.4639H140.75ZM181.058 95.5626H155.875V70.4551H181.058V95.5626ZM68.2259 56.6157C71.7046 58.9601 75.6371 59.4139 78.7377 59.5651C81.3846 59.7164 85.8465 59.7164 90.5352 59.7164C99.2321 59.7164 109.441 59.8676 110.5 59.8676C113.298 59.9433 121.844 59.9432 129.406 59.9432C134.095 59.9432 138.481 59.8676 141.204 59.792C144.305 59.6407 148.237 59.1114 151.716 56.8426C156.102 53.8932 158.295 49.0532 158.295 42.4739C158.295 37.1801 156.102 34.0039 154.287 32.1889C149.371 27.4245 141.809 27.727 139.313 27.8026H139.011C137.498 27.8026 132.053 28.6345 125.625 32.2645C119.953 35.4407 115.038 39.9782 111.03 45.6501L110.576 46.7845L110.198 46.1795C105.963 39.827 100.442 35.5164 94.3165 32.0376C87.964 28.4076 82.519 27.6514 81.0065 27.6514H80.704C78.2084 27.5757 70.6459 27.2732 65.7302 32.0376C62.4027 35.2139 61.7221 39.3732 61.7221 42.3226C61.6465 48.8264 63.8396 53.6664 68.2259 56.6157ZM129.331 39.6757C134.7 36.5751 138.784 36.1214 139.086 36.1214H139.616C143.926 35.9701 146.951 36.6507 148.54 38.1632C149.523 39.1464 150.052 40.5076 150.052 42.4739C150.052 49.6582 146.649 51.2464 140.826 51.5489C135.91 51.7757 124.491 51.7001 117.08 51.6245C120.129 46.7029 124.335 42.601 129.331 39.6757ZM71.4021 37.9364C72.839 36.5751 75.4102 35.8945 79.1159 35.8945H80.9309C81.2334 35.8945 85.3171 36.3482 90.6865 39.4489C95.5265 42.247 99.6859 46.2551 103.013 51.3976C95.5265 51.4732 84.1071 51.5489 79.1915 51.322C73.3684 51.0195 69.9652 49.4314 69.9652 42.247C69.9652 40.2807 70.419 38.9195 71.4021 37.9364ZM120.558 170.885H115.567V180.943H120.634V170.885H125.625V165.894H120.558V170.885Z" fill="white"/>
</g>
<defs>
<clipPath id="clip0_2_21451">
<rect width="220" height="220" fill="white" transform="translate(0.5)"/>
</clipPath>
</defs>
</svg>
