<svg width="221" height="220" viewBox="0 0 221 220" fill="none" xmlns="http://www.w3.org/2000/svg">
<path d="M110.5 216.7C169.429 216.7 217.2 168.929 217.2 110C217.2 51.071 169.429 3.2998 110.5 3.2998C51.571 3.2998 3.7998 51.071 3.7998 110C3.7998 168.929 51.571 216.7 110.5 216.7Z" fill="url(#paint0_linear_2_21369)"/>
<path d="M157.195 152.515L121.115 65.2847C119.08 60.7747 116.055 58.5747 112.068 58.5747H108.878C104.89 58.5747 101.865 60.7747 99.8302 65.2847L84.1277 103.29H72.2477C68.7002 103.317 65.8127 106.177 65.7852 109.752V109.835C65.8127 113.382 68.7002 116.27 72.2477 116.297H78.6277L63.6402 152.515C63.3652 153.312 63.2002 154.137 63.2002 154.99C63.2002 157.025 63.8327 158.62 64.9602 159.857C66.0877 161.095 67.7102 161.7 69.7452 161.7C71.0927 161.672 72.3852 161.26 73.4577 160.462C74.6127 159.665 75.4102 158.51 76.0427 157.19L92.5427 116.27H103.983C107.53 116.242 110.418 113.382 110.445 109.807V109.642C110.418 106.095 107.53 103.207 103.983 103.18H97.8777L110.473 71.8022L144.793 157.162C145.425 158.482 146.223 159.637 147.378 160.435C148.45 161.232 149.77 161.645 151.09 161.672C153.125 161.672 154.72 161.067 155.875 159.83C157.03 158.592 157.635 156.997 157.635 154.962C157.663 154.137 157.525 153.285 157.195 152.515Z" fill="white"/>
<defs>
<linearGradient id="paint0_linear_2_21369" x1="190.054" y1="43.0611" x2="31.2842" y2="176.649" gradientUnits="userSpaceOnUse">
<stop stop-color="#B6509E"/>
<stop offset="1" stop-color="#2EBAC6"/>
</linearGradient>
</defs>
</svg>
