<svg width="221" height="220" viewBox="0 0 221 220" fill="none" xmlns="http://www.w3.org/2000/svg">
<g clip-path="url(#clip0_2_21365)">
<path d="M110.5 220C171.251 220 220.5 170.751 220.5 110C220.5 49.2487 171.251 0 110.5 0C49.7487 0 0.5 49.2487 0.5 110C0.5 170.751 49.7487 220 110.5 220Z" fill="#3EFFFF"/>
<path d="M45.1875 72.0981L110.5 34.375L175.812 72.0981V147.902L110.5 185.625L45.1875 147.902V72.0981ZM51.4575 140.642L77.6513 125.483L90.9406 102.211L51.4575 79.365V140.642ZM54.5994 146.08L107.551 176.667V147.4L79.7894 131.498L54.5994 146.073V146.08ZM169.542 79.5781L130.41 102.217L143.692 125.469L169.542 140.429V79.5781ZM166.586 74.0231L113.821 43.5463V73.1706L127.296 96.7588L166.586 74.0231ZM125.013 105.339L116.956 110L132.94 119.247L125.013 105.339ZM121.899 99.88L113.821 85.7175V104.555L121.899 99.88ZM88.4587 119.233L104.409 110L96.3719 105.353L88.4656 119.233H88.4587ZM86.08 127.868L107.551 140.161V115.445L86.08 127.868ZM54.5925 73.92L94.055 96.745L107.551 73.1294V43.3331L54.5925 73.92ZM166.586 145.977L141.589 131.512L113.821 147.606V176.454L166.586 145.977ZM135.319 127.882L113.821 115.445V140.346L135.319 127.875V127.882ZM99.4862 99.8937L107.551 104.555V85.7519L99.4862 99.8937Z" fill="white"/>
</g>
<defs>
<clipPath id="clip0_2_21365">
<rect width="220" height="220" fill="white" transform="translate(0.5)"/>
</clipPath>
</defs>
</svg>
