<svg width="221" height="220" viewBox="0 0 221 220" fill="none" xmlns="http://www.w3.org/2000/svg">
<g clip-path="url(#clip0_2_21361)">
<path d="M110.5 220C171.251 220 220.5 170.751 220.5 110C220.5 49.2487 171.251 0 110.5 0C49.7487 0 0.5 49.2487 0.5 110C0.5 170.751 49.7487 220 110.5 220Z" fill="#767DFF"/>
<path fill-rule="evenodd" clip-rule="evenodd" d="M95.1691 44.6875H125.832C126.894 44.687 127.938 44.9695 128.855 45.506C129.772 46.0425 130.529 46.8136 131.05 47.74L178.528 132.433C179.028 133.326 179.291 134.332 179.291 135.355C179.291 136.378 179.028 137.384 178.528 138.277L163.335 165.378C162.816 166.305 162.06 167.077 161.144 167.614C160.228 168.152 159.185 168.436 158.123 168.438H62.8772C61.814 168.437 60.7701 168.154 59.8529 167.616C58.9357 167.078 58.1785 166.306 57.6591 165.378L42.4722 138.277C41.9724 137.384 41.71 136.378 41.71 135.355C41.71 134.332 41.9724 133.326 42.4722 132.433L89.951 47.74C90.4712 46.8136 91.2289 46.0425 92.146 45.506C93.0631 44.9695 94.1066 44.687 95.1691 44.6875ZM110.5 78.3819L78.511 135.355H142.49L110.5 78.3819Z" fill="white"/>
</g>
<defs>
<clipPath id="clip0_2_21361">
<rect width="220" height="220" fill="white" transform="translate(0.5)"/>
</clipPath>
</defs>
</svg>
