<svg width="221" height="220" viewBox="0 0 221 220" fill="none" xmlns="http://www.w3.org/2000/svg">
<g clip-path="url(#clip0_2_21357)">
<path d="M110.5 220C171.251 220 220.5 170.751 220.5 110C220.5 49.2487 171.251 0 110.5 0C49.7487 0 0.5 49.2487 0.5 110C0.5 170.751 49.7487 220 110.5 220Z" fill="#FF0000"/>
<path d="M30.7913 149.263L67.4831 82.4587C69.0025 79.6675 71.5256 78.9112 74.0831 80.4237H74.3512C74.9245 80.7684 75.563 80.9904 76.2264 81.0756C76.8898 81.1607 77.5637 81.1073 78.2054 80.9186C78.847 80.7299 79.4426 80.4101 79.9543 79.9793C80.466 79.5486 80.8827 79.0163 81.1781 78.4162L106.952 38.9263C107.826 37.2625 108.939 35.7294 110.252 34.375C111.408 35.7912 112.267 37.4206 112.776 39.1737L123.913 66.7631C126.436 73.1019 132.507 77.6531 138.846 77.6531H140.86C144.112 77.7769 147.192 79.1312 149.474 81.4481L157.559 90.0419C159.959 92.5856 162.166 95.2875 164.159 98.1475L190.229 135.603C191.206 137.088 192.134 138.607 193 140.154V140.401C191.596 139.309 190.322 138.059 189.205 136.675L154.026 100.176C151.853 97.9836 149.978 95.5148 148.45 92.8331C145.645 86.7625 142.111 84.2187 136.556 84.4869H129.475C125.185 84.4869 124.161 83.7306 122.875 79.42L112.776 47.795C111.009 41.4563 110.748 41.4563 108.981 47.795L102.154 69.245C100.634 73.5281 100.119 80.6231 100.882 80.6231C101.143 80.6231 102.91 77.3231 105.694 71.5138C106.224 70.3312 106.897 69.2244 107.709 68.2137C108.355 70.6337 108.699 73.1225 108.74 75.625C107.998 77.3712 107.152 79.0625 106.196 80.6919L105.949 81.4481C102.91 87.01 102.91 87.2712 106.196 92.5856L109.228 97.6387C110.383 99.1925 111.318 100.897 112.019 102.699C110.585 103.912 109.061 105.015 107.461 105.999L91.7725 116.119C88.9723 117.654 85.854 118.517 82.6631 118.642C77.0875 118.394 72.2819 121.186 67.9781 126.988L61.9075 135.603C59.7213 138.298 57.26 140.759 54.565 142.945L49.0031 147.496C46.1412 149.482 43.0899 151.179 39.8938 152.563L36.8619 153.319C34.6619 154.117 32.3588 154.626 30.0281 154.825C28.99 154.825 28 154.825 28 154.577C28.7906 152.735 29.7188 150.961 30.7913 149.263Z" fill="white"/>
</g>
<defs>
<clipPath id="clip0_2_21357">
<rect width="220" height="220" fill="white" transform="translate(0.5)"/>
</clipPath>
</defs>
</svg>
