<svg width="221" height="220" viewBox="0 0 221 220" fill="none" xmlns="http://www.w3.org/2000/svg">
<g clip-path="url(#clip0_2_21352)">
<path d="M110.5 220C171.251 220 220.5 170.751 220.5 110C220.5 49.2487 171.251 0 110.5 0C49.7487 0 0.5 49.2487 0.5 110C0.5 170.751 49.7487 220 110.5 220Z" fill="#0D1E30"/>
<g filter="url(#filter0_d_2_21352)">
<path d="M108.609 41.6621C111.902 39.964 115.924 43.8896 114.178 47.1277C113.154 49.7677 109.297 50.469 107.33 48.4546C105.247 46.5296 105.928 42.7071 108.609 41.6552V41.6621ZM73.1686 45.4158C75.1692 44.6046 77.7061 46.4058 77.4999 48.5577C77.7061 50.8815 74.8186 52.6002 72.7767 51.4933C70.0749 50.4621 70.3842 46.1446 73.1686 45.4158ZM145.755 51.5552C142.627 51.184 142.132 46.344 145.136 45.3677C147.474 44.254 149.619 46.3508 149.962 48.5302C149.467 50.3865 147.886 52.0915 145.755 51.5552ZM81.233 60.2521C84.5811 58.169 89.3524 61.2696 88.8367 65.099C88.6649 68.9558 83.4536 71.1971 80.5111 68.5846C77.6649 66.5358 78.098 61.8333 81.233 60.2521ZM132.314 62.4658C133.806 58.6846 139.856 58.5608 141.554 62.2458C143.239 65.1127 141.169 68.6671 138.179 69.6433C134.212 70.3721 130.451 66.1508 132.314 62.4658ZM104.34 69.4302C104.305 66.1715 107.317 63.7515 110.459 63.5246C112.549 63.9371 114.817 64.8102 115.711 66.8796C117.382 69.7396 115.897 73.6652 112.892 74.9783C111.517 75.7346 109.881 75.4527 108.382 75.3633C106.093 74.2633 104.161 72.084 104.34 69.4302ZM51.6361 74.1739C54.6955 72.3177 58.8205 75.6864 57.6586 78.959C57.0261 81.7846 53.1624 82.9327 50.9555 81.1314C48.5974 79.4402 48.9686 75.3771 51.643 74.1671L51.6361 74.1739ZM164.812 74.1602C167.404 72.1802 171.687 74.4558 171.371 77.6733C171.55 80.609 167.844 82.8296 165.273 81.3171C162.44 80.059 162.145 75.769 164.812 74.1671V74.1602ZM119.162 80.0108C123.439 78.4983 128.526 80.3064 130.96 84.0671C134.177 88.6527 132.472 95.6377 127.474 98.2708C122.304 101.385 114.749 98.7521 112.83 93.0596C110.665 87.9721 113.827 81.6058 119.156 80.0108H119.162ZM94.048 80.5127C98.7917 78.3127 105.179 80.1552 107.468 84.9264C110.163 89.5739 108.08 96.0433 103.26 98.4427C98.4342 101.145 91.6211 99.0958 89.2905 94.1115C86.6711 89.2852 88.9949 82.7333 94.048 80.5127ZM68.9061 88.9621C69.2705 85.9577 72.1511 83.9983 75.0592 83.7921C76.5759 83.9522 77.9933 84.6222 79.0798 85.6925C80.1663 86.7627 80.8575 88.1699 81.0405 89.684C80.8342 92.7777 78.4074 95.7889 75.0799 95.7752C71.4155 96.0846 68.2049 92.4958 68.9061 88.9621ZM143.17 84.4521C146.93 82.3002 152.149 85.4283 151.984 89.6771C152.238 94.1802 146.463 97.3496 142.723 94.7096C138.832 92.5096 139.134 86.3221 143.17 84.4521ZM83.8386 100.313C88.2249 99.1233 93.2574 101.158 95.4092 105.132C97.7674 109.133 96.8049 114.688 93.1405 117.631C88.4311 121.935 79.7617 120.202 77.2592 114.331C74.3786 108.948 77.878 101.729 83.8317 100.306L83.8386 100.313ZM131.462 100.292C135.731 99.089 140.75 100.705 143.046 104.534C146.085 108.913 144.634 115.451 140.117 118.27C135.374 121.55 128.045 119.831 125.432 114.702C122.27 109.401 125.453 101.908 131.462 100.292ZM55.5617 105.283C59.3567 103.874 63.5642 107.992 62.0243 111.698C61.0893 115.066 56.2561 116.318 53.7605 113.829C50.8386 111.491 51.918 106.301 55.5617 105.283ZM158.474 110.66C158.402 109.146 158.932 107.666 159.946 106.541C160.961 105.415 162.378 104.736 163.891 104.651C166.49 105.063 169.02 107.126 168.814 109.91C169.054 113.588 164.551 116.084 161.361 114.358C159.869 113.609 159.106 112.103 158.474 110.66ZM36.8961 107.112C39.1786 106.129 42.0042 108.075 41.4817 110.57C41.358 113.396 37.1161 114.489 35.5624 112.124C34.1874 110.481 35.0124 107.958 36.8961 107.105V107.112ZM180.92 107.05C182.529 105.93 185.114 106.734 185.747 108.583C186.826 110.605 184.846 113.368 182.536 113.031C179.291 113.32 178.246 108.46 180.92 107.05ZM96.2411 120.615C102.25 119.081 108.712 124.011 108.754 130.102C109.139 136.255 102.772 141.707 96.6261 140.291C91.8686 139.535 88.1355 135.025 88.2936 130.301C88.2799 125.778 91.7449 121.57 96.2411 120.615ZM120.042 120.608C126.14 118.93 132.795 123.949 132.699 130.178C133.022 136.214 126.855 141.487 120.833 140.284C115.161 139.569 110.981 133.443 112.562 128.026C113.36 124.423 116.426 121.495 120.042 120.601V120.608ZM74.1449 124.355C78.3661 123.646 82.3261 128.273 80.6142 132.22C79.363 136.427 73.148 137.561 70.398 134.131C67.1805 130.831 69.5867 124.808 74.1449 124.355ZM143.954 124.54C147.721 122.986 152.341 126.19 152.052 130.212C152.204 134.633 146.497 137.685 142.819 135.1C138.646 132.783 139.409 125.956 143.954 124.54ZM163.465 143.79C161.994 141.088 164.668 137.506 167.727 138.008C169.24 137.981 170.305 139.156 171.275 140.146C171.474 141.748 171.811 143.66 170.457 144.89C168.621 147.18 164.462 146.526 163.465 143.79ZM51.6224 138.758C54.4755 136.895 58.5799 139.679 57.9336 142.951C57.5899 145.86 53.8774 147.516 51.4367 145.866C48.8105 144.375 48.9067 140.119 51.6224 138.758ZM107.949 144.828C111.682 143.213 116.44 146.41 116.082 150.452C116.357 154.921 110.479 158.015 106.829 155.333C102.772 153.03 103.453 146.251 107.949 144.828ZM81.8655 150.816C85.0417 149.173 89.3042 152.013 89.0155 155.519C89.1117 158.393 86.2655 160.84 83.378 160.414C80.9924 160.366 79.4386 158.255 78.6686 156.255C78.7099 154.075 79.6242 151.648 81.8655 150.823V150.816ZM134.707 150.871C137.979 148.878 142.627 151.738 142.317 155.478C142.4 159.396 137.147 161.899 134.102 159.328C131.159 157.313 131.517 152.473 134.707 150.871ZM143.899 173.215C142.441 171.056 144.153 168.451 146.511 167.956C148.415 168.334 150.43 169.743 150.024 171.902C149.749 174.838 145.39 175.731 143.899 173.222V173.215ZM70.948 171.338C71.5255 169.62 72.928 167.921 74.9836 168.368C77.9742 168.575 78.8611 173.016 76.2417 174.384C73.8905 175.945 71.1542 173.806 70.948 171.338ZM106.148 173.311C106.719 170.768 110.053 169.537 112.253 170.885C113.71 171.503 114.137 173.098 114.508 174.46C114.312 175.167 114.128 175.877 113.958 176.591C113.057 177.636 111.895 178.688 110.397 178.653C107.612 178.976 105.096 175.876 106.141 173.311H106.148Z" fill="black"/>
</g>
<path d="M108.609 41.6621C111.902 39.964 115.924 43.8896 114.178 47.1277C113.154 49.7677 109.297 50.469 107.33 48.4546C105.247 46.5296 105.928 42.7071 108.609 41.6552V41.6621ZM73.1686 45.4158C75.1692 44.6046 77.7061 46.4058 77.4999 48.5577C77.7061 50.8815 74.8186 52.6002 72.7767 51.4933C70.0749 50.4621 70.3842 46.1446 73.1686 45.4158ZM145.755 51.5552C142.627 51.184 142.132 46.344 145.136 45.3677C147.474 44.254 149.619 46.3508 149.962 48.5302C149.467 50.3865 147.886 52.0915 145.755 51.5552ZM81.233 60.2521C84.5811 58.169 89.3524 61.2696 88.8367 65.099C88.6649 68.9558 83.4536 71.1971 80.5111 68.5846C77.6649 66.5358 78.098 61.8333 81.233 60.2521ZM132.314 62.4658C133.806 58.6846 139.856 58.5608 141.554 62.2458C143.239 65.1127 141.169 68.6671 138.179 69.6433C134.212 70.3721 130.451 66.1508 132.314 62.4658ZM104.34 69.4302C104.305 66.1715 107.317 63.7515 110.459 63.5246C112.549 63.9371 114.817 64.8102 115.711 66.8796C117.382 69.7396 115.897 73.6652 112.892 74.9783C111.517 75.7346 109.881 75.4527 108.382 75.3633C106.093 74.2633 104.161 72.084 104.34 69.4302ZM51.6361 74.1739C54.6955 72.3177 58.8205 75.6864 57.6586 78.959C57.0261 81.7846 53.1624 82.9327 50.9555 81.1314C48.5974 79.4402 48.9686 75.3771 51.643 74.1671L51.6361 74.1739ZM164.812 74.1602C167.404 72.1802 171.687 74.4558 171.371 77.6733C171.55 80.609 167.844 82.8296 165.273 81.3171C162.44 80.059 162.145 75.769 164.812 74.1671V74.1602ZM119.162 80.0108C123.439 78.4983 128.526 80.3064 130.96 84.0671C134.177 88.6527 132.472 95.6377 127.474 98.2708C122.304 101.385 114.749 98.7521 112.83 93.0596C110.665 87.9721 113.827 81.6058 119.156 80.0108H119.162ZM94.048 80.5127C98.7917 78.3127 105.179 80.1552 107.468 84.9264C110.163 89.5739 108.08 96.0433 103.26 98.4427C98.4342 101.145 91.6211 99.0958 89.2905 94.1115C86.6711 89.2852 88.9949 82.7333 94.048 80.5127ZM68.9061 88.9621C69.2705 85.9577 72.1511 83.9983 75.0592 83.7921C76.5759 83.9522 77.9933 84.6222 79.0798 85.6925C80.1663 86.7627 80.8575 88.1699 81.0405 89.684C80.8342 92.7777 78.4074 95.7889 75.0799 95.7752C71.4155 96.0846 68.2049 92.4958 68.9061 88.9621ZM143.17 84.4521C146.93 82.3002 152.149 85.4283 151.984 89.6771C152.238 94.1802 146.463 97.3496 142.723 94.7096C138.832 92.5096 139.134 86.3221 143.17 84.4521ZM83.8386 100.313C88.2249 99.1233 93.2574 101.158 95.4092 105.132C97.7674 109.133 96.8049 114.688 93.1405 117.631C88.4311 121.935 79.7617 120.202 77.2592 114.331C74.3786 108.948 77.878 101.729 83.8317 100.306L83.8386 100.313ZM131.462 100.292C135.731 99.089 140.75 100.705 143.046 104.534C146.085 108.913 144.634 115.451 140.117 118.27C135.374 121.55 128.045 119.831 125.432 114.702C122.27 109.401 125.453 101.908 131.462 100.292ZM55.5617 105.283C59.3567 103.874 63.5642 107.992 62.0243 111.698C61.0893 115.066 56.2561 116.318 53.7605 113.829C50.8386 111.491 51.918 106.301 55.5617 105.283ZM158.474 110.66C158.402 109.146 158.932 107.666 159.946 106.541C160.961 105.415 162.378 104.736 163.891 104.651C166.49 105.063 169.02 107.126 168.814 109.91C169.054 113.588 164.551 116.084 161.361 114.358C159.869 113.609 159.106 112.103 158.474 110.66ZM36.8961 107.112C39.1786 106.129 42.0042 108.075 41.4817 110.57C41.358 113.396 37.1161 114.489 35.5624 112.124C34.1874 110.481 35.0124 107.958 36.8961 107.105V107.112ZM180.92 107.05C182.529 105.93 185.114 106.734 185.747 108.583C186.826 110.605 184.846 113.368 182.536 113.031C179.291 113.32 178.246 108.46 180.92 107.05ZM96.2411 120.615C102.25 119.081 108.712 124.011 108.754 130.102C109.139 136.255 102.772 141.707 96.6261 140.291C91.8686 139.535 88.1355 135.025 88.2936 130.301C88.2799 125.778 91.7449 121.57 96.2411 120.615ZM120.042 120.608C126.14 118.93 132.795 123.949 132.699 130.178C133.022 136.214 126.855 141.487 120.833 140.284C115.161 139.569 110.981 133.443 112.562 128.026C113.36 124.423 116.426 121.495 120.042 120.601V120.608ZM74.1449 124.355C78.3661 123.646 82.3261 128.273 80.6142 132.22C79.363 136.427 73.148 137.561 70.398 134.131C67.1805 130.831 69.5867 124.808 74.1449 124.355ZM143.954 124.54C147.721 122.986 152.341 126.19 152.052 130.212C152.204 134.633 146.497 137.685 142.819 135.1C138.646 132.783 139.409 125.956 143.954 124.54ZM163.465 143.79C161.994 141.088 164.668 137.506 167.727 138.008C169.24 137.981 170.305 139.156 171.275 140.146C171.474 141.748 171.811 143.66 170.457 144.89C168.621 147.18 164.462 146.526 163.465 143.79ZM51.6224 138.758C54.4755 136.895 58.5799 139.679 57.9336 142.951C57.5899 145.86 53.8774 147.516 51.4367 145.866C48.8105 144.375 48.9067 140.119 51.6224 138.758ZM107.949 144.828C111.682 143.213 116.44 146.41 116.082 150.452C116.357 154.921 110.479 158.015 106.829 155.333C102.772 153.03 103.453 146.251 107.949 144.828ZM81.8655 150.816C85.0417 149.173 89.3042 152.013 89.0155 155.519C89.1117 158.393 86.2655 160.84 83.378 160.414C80.9924 160.366 79.4386 158.255 78.6686 156.255C78.7099 154.075 79.6242 151.648 81.8655 150.823V150.816ZM134.707 150.871C137.979 148.878 142.627 151.738 142.317 155.478C142.4 159.396 137.147 161.899 134.102 159.328C131.159 157.313 131.517 152.473 134.707 150.871ZM143.899 173.215C142.441 171.056 144.153 168.451 146.511 167.956C148.415 168.334 150.43 169.743 150.024 171.902C149.749 174.838 145.39 175.731 143.899 173.222V173.215ZM70.948 171.338C71.5255 169.62 72.928 167.921 74.9836 168.368C77.9742 168.575 78.8611 173.016 76.2417 174.384C73.8905 175.945 71.1542 173.806 70.948 171.338ZM106.148 173.311C106.719 170.768 110.053 169.537 112.253 170.885C113.71 171.503 114.137 173.098 114.508 174.46C114.312 175.167 114.128 175.877 113.958 176.591C113.057 177.636 111.895 178.688 110.397 178.653C107.612 178.976 105.096 175.876 106.141 173.311H106.148Z" fill="white"/>
</g>
<defs>
<filter id="filter0_d_2_21352" x="33.8779" y="40.7524" width="153.172" height="139.424" filterUnits="userSpaceOnUse" color-interpolation-filters="sRGB">
<feFlood flood-opacity="0" result="BackgroundImageFix"/>
<feColorMatrix in="SourceAlpha" type="matrix" values="0 0 0 0 0 0 0 0 0 0 0 0 0 0 0 0 0 0 127 0" result="hardAlpha"/>
<feOffset dy="0.5"/>
<feGaussianBlur stdDeviation="0.5"/>
<feColorMatrix type="matrix" values="0 0 0 0 0 0 0 0 0 0 0 0 0 0 0 0 0 0 0.204257 0"/>
<feBlend mode="normal" in2="BackgroundImageFix" result="effect1_dropShadow_2_21352"/>
<feBlend mode="normal" in="SourceGraphic" in2="effect1_dropShadow_2_21352" result="shape"/>
</filter>
<clipPath id="clip0_2_21352">
<rect width="220" height="220" fill="white" transform="translate(0.5)"/>
</clipPath>
</defs>
</svg>
