<svg width="221" height="220" viewBox="0 0 221 220" fill="none" xmlns="http://www.w3.org/2000/svg">
<g clip-path="url(#clip0_2_21348)">
<path d="M110.5 220C171.251 220 220.5 170.751 220.5 110C220.5 49.2487 171.251 0 110.5 0C49.7487 0 0.5 49.2487 0.5 110C0.5 170.751 49.7487 220 110.5 220Z" fill="#FEC807"/>
<path fill-rule="evenodd" clip-rule="evenodd" d="M172.265 121.213H138.385L132.335 103.063H172.21C173.574 103.063 174.882 102.521 175.846 101.557C176.81 100.593 177.352 99.2845 177.352 97.9206C177.352 96.5567 176.81 95.2487 175.846 94.2843C174.882 93.3199 173.574 92.7781 172.21 92.7781H129.062L111.758 40.0263C111.538 38.2834 110.705 36.6759 109.407 35.4924C108.109 34.3089 106.431 33.6269 104.676 33.569C102.92 33.511 101.201 34.0808 99.8279 35.1761C98.4547 36.2714 97.5168 37.8204 97.1829 39.545L55.7954 165.378C55.6854 166.066 55.6854 166.753 55.7954 167.441C55.8241 169.117 56.4573 170.727 57.5786 171.974C58.6998 173.221 60.2337 174.021 61.8979 174.227C63.5621 174.432 65.2446 174.03 66.6359 173.094C68.0271 172.158 69.0335 170.751 69.4698 169.132L104.195 63.2569L114.116 92.7781H105.522C104.158 92.7781 102.85 93.3199 101.886 94.2843C100.922 95.2487 100.38 96.5567 100.38 97.9206C100.38 99.2845 100.922 100.593 101.886 101.557C102.85 102.521 104.158 103.063 105.522 103.063H117.622L123.672 121.213H105.522C104.847 121.213 104.178 121.346 103.554 121.605C102.93 121.863 102.363 122.242 101.886 122.719C101.408 123.197 101.03 123.764 100.771 124.388C100.513 125.012 100.38 125.68 100.38 126.356C100.38 127.031 100.513 127.7 100.771 128.324C101.03 128.947 101.408 129.514 101.886 129.992C102.363 130.469 102.93 130.848 103.554 131.107C104.178 131.365 104.847 131.498 105.522 131.498H127.247L137.044 160.538H85.076C83.1505 160.538 81.3039 161.303 79.9424 162.665C78.5809 164.026 77.816 165.873 77.816 167.798C77.816 169.724 78.5809 171.57 79.9424 172.932C81.3039 174.293 83.1505 175.058 85.076 175.058H146.545C150.354 175.058 153.441 171.971 153.441 168.162C153.445 167.117 153.217 166.084 152.774 165.137L141.705 131.498H171.955C172.631 131.498 173.299 131.365 173.923 131.107C174.547 130.848 175.114 130.469 175.592 129.992C176.069 129.514 176.448 128.947 176.706 128.324C176.965 127.7 177.098 127.031 177.098 126.356C177.098 125.68 176.965 125.012 176.706 124.388C176.448 123.764 176.069 123.197 175.592 122.719C175.114 122.242 174.547 121.863 173.923 121.605C173.299 121.346 172.631 121.213 171.955 121.213H172.258H172.265Z" fill="white"/>
</g>
<defs>
<clipPath id="clip0_2_21348">
<rect width="220" height="220" fill="white" transform="translate(0.5)"/>
</clipPath>
</defs>
</svg>
