<svg width="221" height="220" viewBox="0 0 221 220" fill="none" xmlns="http://www.w3.org/2000/svg">
<g clip-path="url(#clip0_2_21344)">
<path d="M110.5 220C171.251 220 220.5 170.751 220.5 110C220.5 49.2487 171.251 0 110.5 0C49.7487 0 0.5 49.2487 0.5 110C0.5 170.751 49.7487 220 110.5 220Z" fill="#1B75BC"/>
<path fill-rule="evenodd" clip-rule="evenodd" d="M80.1606 59.1388L110.5 90.805L140.097 59.1388L158.625 78.1L128.403 110L158.625 141.646L140.097 160.848L110.5 129.195L80.1606 160.848L62.375 142.175L92.35 109.821L62.375 78.1L80.1606 59.1456V59.1388ZM82.6013 56.5537L110.376 27.5L138.151 56.5537L123.535 72.1256L110.376 57.5919L97.2175 72.1256L82.6013 56.5537ZM82.6013 163.446L97.2175 147.874L110.376 162.408L123.535 147.874L138.151 163.446L110.376 192.5L82.6013 163.446Z" fill="white"/>
</g>
<defs>
<clipPath id="clip0_2_21344">
<rect width="220" height="220" fill="white" transform="translate(0.5)"/>
</clipPath>
</defs>
</svg>
