<svg width="221" height="220" viewBox="0 0 221 220" fill="none" xmlns="http://www.w3.org/2000/svg">
<g clip-path="url(#clip0_2_21340)">
<path d="M110.5 220C171.251 220 220.5 170.751 220.5 110C220.5 49.2487 171.251 0 110.5 0C49.7487 0 0.5 49.2487 0.5 110C0.5 170.751 49.7487 220 110.5 220Z" fill="#DE3F6B"/>
<path d="M67.545 75.625H73.76C83.4744 76.5463 92.46 81.2694 99.1081 88.0688C112.92 102.087 120.51 121.866 138.089 132.296C150.794 139.838 168.566 133.671 174.809 120.924C177.985 120.869 181.182 120.869 184.358 120.883C179.986 133.829 167.246 143.131 153.318 144.375H148.189C139.616 143.688 131.276 140.498 124.793 134.984C115.374 127.263 109.324 116.669 102.003 107.236C95.705 98.8969 89.2837 89.5194 78.8612 85.7313C65.9844 81.0631 50.2612 88.3644 45.5656 100.767C41.4406 110.983 44.7956 123.647 54.0219 130.192C60.9381 135.362 70.57 137.294 78.875 134.282C88.1012 131.065 94.9487 123.75 100.201 115.995C102.271 118.862 104.285 121.77 106.279 124.699C98.1112 134.647 86.7812 143.192 73.3063 144.375H67.7856C50.8044 143.234 36.0438 129.278 34.875 112.791V107.394C35.975 90.9425 50.55 76.8212 67.545 75.625ZM147.845 75.625H153.001C170.141 76.7044 184.716 90.9425 186.125 107.429V115.885C171.983 116.009 157.827 115.926 143.686 115.94C143.699 113.465 143.699 111.011 143.686 108.536C154.864 108.508 166.029 108.584 177.188 108.508C176.397 104.136 175.372 99.66 172.691 95.9544C166.16 86.3019 152.348 82.3556 141.307 86.5356C132.507 89.6981 125.879 96.6144 120.771 103.998C118.805 101.269 116.853 98.4981 114.962 95.7069C123.026 85.6144 134.281 76.8831 147.845 75.625Z" fill="white"/>
</g>
<defs>
<clipPath id="clip0_2_21340">
<rect width="220" height="220" fill="white" transform="translate(0.5)"/>
</clipPath>
</defs>
</svg>
