<svg width="221" height="220" viewBox="0 0 221 220" fill="none" xmlns="http://www.w3.org/2000/svg">
<g clip-path="url(#clip0_2_21332)">
<path d="M110.5 220C171.251 220 220.5 170.751 220.5 110C220.5 49.2487 171.251 0 110.5 0C49.7487 0 0.5 49.2487 0.5 110C0.5 170.751 49.7487 220 110.5 220Z" fill="#134451"/>
<path d="M96.7435 112.214C93.3266 112.214 90.7416 112.791 88.9541 113.884C87.2354 114.95 86.3691 116.565 86.3691 118.683C86.3691 120.264 86.9054 121.543 87.916 122.45C88.9541 123.365 90.4116 123.819 92.2266 123.819C95.0454 123.819 97.3966 122.939 99.2666 121.206C101.144 119.446 102.415 116.985 103.048 113.829L103.337 112.214H96.7366H96.7435ZM132.934 97.3017C131.895 96.3942 130.438 95.9404 128.63 95.9404C125.804 95.9404 123.453 96.8204 121.583 98.5529C119.713 100.313 118.434 102.774 117.809 105.93L117.513 107.539L124.113 107.511C127.53 107.511 130.115 106.934 131.895 105.84C133.614 104.775 134.48 103.166 134.48 101.042C134.48 99.4604 133.979 98.2161 132.934 97.3017Z" fill="white"/>
<path d="M185.885 101.131C183.63 80.7532 148.004 68.1445 106.341 72.9776C64.6786 77.8038 32.7373 98.2432 34.9923 118.628C37.2542 139.005 72.8529 151.607 114.536 146.781C156.233 141.948 188.147 121.508 185.885 101.131ZM142.297 111.333C138.076 114.344 131.923 115.829 123.845 115.864L116 115.891L115.76 117.012C115.689 117.258 115.649 117.512 115.643 117.768C115.609 117.926 115.609 118.078 115.609 118.201C115.609 119.934 116.413 121.206 117.987 122.051C119.569 122.938 121.906 123.358 124.972 123.358C127.88 123.358 130.679 123.028 133.319 122.423C135.931 121.811 138.461 120.903 140.867 119.686L138.874 130.377C135.876 131.106 132.995 131.683 130.142 132.048C127.396 132.441 124.626 132.646 121.851 132.659C118.049 132.659 114.9 132.199 112.37 131.229C109.758 130.226 106.843 128.039 105.392 124.911C102.702 127.477 99.5844 129.552 96.1798 131.044C93.0224 132.392 89.6237 133.085 86.1904 133.079C81.8592 133.113 78.4354 132.048 76.0017 129.951C73.5336 127.861 72.3167 124.939 72.2892 121.268C72.2548 115.616 74.3654 111.333 78.5592 108.356C82.7735 105.352 88.9267 103.867 97.0117 103.833L104.849 103.805L105.09 102.678C105.163 102.432 105.205 102.178 105.214 101.921C105.241 101.77 105.241 101.619 105.241 101.495C105.241 99.7626 104.437 98.4907 102.862 97.6382C101.288 96.7582 98.9435 96.332 95.8773 96.332C92.9692 96.332 90.171 96.6688 87.531 97.2738C84.9185 97.8788 82.3885 98.7863 79.9823 100.01L81.976 89.3195C84.9735 88.5907 87.8542 88.0132 90.7073 87.6488C93.4538 87.2551 96.224 87.0507 98.9985 87.037C102.807 87.037 105.956 87.4976 108.486 88.467C111.099 89.4707 114.007 91.657 115.464 94.7851C118.154 92.2174 121.272 90.1397 124.677 88.6457C127.832 87.2982 131.228 86.6059 134.659 86.6107C138.997 86.5832 142.414 87.642 144.848 89.7388C147.323 91.8357 148.533 94.7576 148.56 98.4288C148.595 104.046 146.519 108.356 142.297 111.333Z" fill="white"/>
<path d="M114.096 149.208C108.067 149.909 102.093 150.239 96.2969 150.239C82.5057 150.239 69.615 148.3 58.8832 144.499C54.4455 142.972 50.2004 140.935 46.2332 138.428C44.7688 146.114 45.7519 152.886 49.5263 157.925C60.3682 172.411 90.7075 167.798 120.724 148.3C118.524 148.63 116.324 148.933 114.096 149.208ZM107.056 70.8536C127.406 68.4817 147.021 70.1523 162.263 75.5561C166.705 77.0839 170.955 79.1235 174.926 81.6336C176.377 73.9473 175.401 67.1754 171.626 62.1361C160.778 47.6504 130.445 52.2636 100.429 71.7611C102.629 71.3967 104.856 71.0942 107.056 70.8536Z" fill="white"/>
<path d="M84.9184 166.822C80.9492 167.772 76.8966 168.332 72.8184 168.492C75.8846 176.605 80.6696 182.283 86.9946 184.408C102.271 189.543 122.03 172.72 136.027 144.863C132.727 145.777 129.31 146.595 125.866 147.297C112.191 156.956 97.9327 163.79 84.9184 166.822ZM137.155 53.0197C141.125 52.0879 145.178 51.5491 149.255 51.411C146.216 43.2985 141.465 37.5922 135.133 35.4404C119.891 30.2429 100.043 46.9766 85.9565 74.7379C89.2565 73.8304 92.6734 73.0397 96.1452 72.3729C109.82 62.7479 124.113 55.9966 137.155 53.0197Z" fill="white"/>
</g>
<defs>
<clipPath id="clip0_2_21332">
<rect width="220" height="220" fill="white" transform="translate(0.5)"/>
</clipPath>
</defs>
</svg>
