<svg width="221" height="220" viewBox="0 0 221 220" fill="none" xmlns="http://www.w3.org/2000/svg">
<g clip-path="url(#clip0_2_21326)">
<path d="M110.5 220C171.251 220 220.5 170.751 220.5 110C220.5 49.2487 171.251 0 110.5 0C49.7487 0 0.5 49.2487 0.5 110C0.5 170.751 49.7487 220 110.5 220Z" fill="#15073A"/>
<path d="M118.365 44.1649C117.983 43.8892 117.715 43.4829 117.612 43.0229C117.51 42.563 117.579 42.0813 117.808 41.6693C118.128 41.4641 118.5 41.355 118.881 41.355C119.261 41.355 119.633 41.4641 119.953 41.6693C124.798 43.6806 129.184 46.6559 132.844 50.4143C134.927 52.3462 136.673 54.6012 138 57.0831C139.403 59.6131 140.551 62.2599 141.438 65.0031C142.283 67.8424 142.723 70.7918 142.73 73.7481C142.297 76.6699 141.871 90.8324 133.703 97.5012C132.664 98.1262 131.429 98.3443 130.239 98.1132C129.048 97.8822 127.985 97.2184 127.254 96.2499C126.671 95.5655 126.316 94.7155 126.239 93.8193C126.163 92.923 126.369 92.0252 126.828 91.2518C130.301 85.8762 132.219 79.6449 132.37 73.2471C132.522 66.8492 130.901 60.5341 127.688 54.9999C124.938 51.1087 121.816 47.4856 118.365 44.1649ZM105.688 171.916C106.547 172.748 106.547 173.58 106.121 173.999C105.694 174.419 104.828 174.831 104.402 174.412C99.5568 172.4 95.1711 169.425 91.5112 165.667C89.4344 163.745 87.6919 161.492 86.355 158.998C84.9552 156.478 83.8039 153.828 82.9175 151.085C82.0679 148.245 81.6326 145.297 81.625 142.333C82.0581 139.418 82.4844 125.249 90.6519 118.58C91.6908 117.957 92.9234 117.74 94.1126 117.971C95.3018 118.202 96.3636 118.864 97.0938 119.831C97.7194 120.514 98.0664 121.407 98.0664 122.334C98.0664 123.26 97.7194 124.153 97.0938 124.836C93.6227 130.211 91.7054 136.441 91.5537 142.838C91.402 149.234 93.0219 155.548 96.2344 161.081C99.0188 164.979 102.188 168.609 105.688 171.916Z" fill="white"/>
<path d="M142.771 137.542C142.149 129.543 138.986 121.952 133.744 115.878C128.438 110.545 122.353 106.048 115.697 102.541C109.892 99.332 104.422 95.5503 99.3693 91.2523C95.214 87.3467 92.3643 82.2547 91.2087 76.6704C90.1826 70.9047 90.9157 64.9637 93.3125 59.6204C96.1841 53.6758 100.302 48.4189 105.385 44.2066C105.671 43.9516 105.867 43.6116 105.945 43.2365C106.023 42.8615 105.979 42.4713 105.818 42.1235C105.695 41.9043 105.525 41.7156 105.319 41.5718C105.113 41.4279 104.877 41.3326 104.629 41.2929C104.381 41.2532 104.127 41.2702 103.886 41.3426C103.646 41.415 103.425 41.541 103.24 41.711C96.3925 44.6981 90.5667 49.6206 86.4787 55.8735C81.9068 62.4426 79.7652 70.3988 80.4218 78.3754C80.7648 82.4056 81.7827 86.3495 83.4331 90.0423C85.219 93.6974 87.5357 97.0683 90.3081 100.045C95.7716 105.266 102.001 109.62 108.781 112.957C114.611 115.982 120.091 119.619 125.109 123.792C129.524 127.666 132.419 132.982 133.277 138.793C134.487 144.836 133.731 151.099 131.125 156.709C128.2 162.615 123.931 167.753 118.661 171.71C118.486 171.811 118.335 171.946 118.217 172.109C118.099 172.272 118.017 172.458 117.976 172.655C117.935 172.851 117.937 173.055 117.98 173.251C118.023 173.447 118.108 173.632 118.227 173.794C118.468 174.233 118.915 174.55 119.417 174.625C119.919 174.701 120.441 174.557 120.812 174.213C127.201 170.525 132.759 165.558 137.141 159.624C141.403 153.038 143.369 145.297 142.771 137.542Z" fill="white"/>
</g>
<defs>
<clipPath id="clip0_2_21326">
<rect width="220" height="220" fill="white" transform="translate(0.5)"/>
</clipPath>
</defs>
</svg>
