<svg width="221" height="220" viewBox="0 0 221 220" fill="none" xmlns="http://www.w3.org/2000/svg">
<g clip-path="url(#clip0_2_21322)">
<path d="M110.5 220C171.251 220 220.5 170.751 220.5 110C220.5 49.2487 171.251 0 110.5 0C49.7487 0 0.5 49.2487 0.5 110C0.5 170.751 49.7487 220 110.5 220Z" fill="#F49E00"/>
<path d="M136.315 119.171C151.757 94.9781 163.781 55 163.781 55L138.034 60.8369L128.609 94.1806C127.722 69.1831 110.582 60.0325 110.582 60.0325C96.8529 53.3431 84.6154 56.2856 75.7947 60.885C64.8772 66.5637 56.9366 76.4637 53.1347 87.8625C47.731 104.081 48.391 122.279 49.106 130.515C49.3947 134.379 50.2472 138.181 51.6497 141.811C61.1235 166.375 87.3654 164.979 87.3654 164.979C111.407 164.127 126.017 135.816 126.017 135.816L132.905 156.633C139.079 167.076 152.754 163.164 155.565 162.58C156.06 162.47 156.5 162.415 157.002 162.305L172.375 159.961V153.271C138.907 154.179 136.315 119.178 136.315 119.178V119.171ZM103.735 144.334C101.665 146.456 99.0545 147.972 96.186 148.72C89.9504 150.274 85.1585 147.654 81.8516 144.444C78.1572 140.713 75.6275 135.988 74.571 130.845C68.5072 96.5387 76.8879 81.5031 82.4566 74.5938C83.9734 72.6569 85.9289 71.1082 88.1618 70.0755C90.3946 69.0427 92.841 68.5554 95.2991 68.6537C116.914 69.7812 121.768 115.005 121.768 115.005C115.649 131.058 107.764 140.374 103.735 144.334Z" fill="white"/>
</g>
<defs>
<clipPath id="clip0_2_21322">
<rect width="220" height="220" fill="white" transform="translate(0.5)"/>
</clipPath>
</defs>
</svg>
