<svg width="221" height="220" viewBox="0 0 221 220" fill="none" xmlns="http://www.w3.org/2000/svg">
<g clip-path="url(#clip0_2_21316)">
<path d="M110.5 220C171.251 220 220.5 170.751 220.5 110C220.5 49.2487 171.251 0 110.5 0C49.7487 0 0.5 49.2487 0.5 110C0.5 170.751 49.7487 220 110.5 220Z" fill="#00BFEC"/>
<path d="M110.301 159.157C83.0964 159.157 60.9658 137.163 60.9658 110.138C60.9658 83.1053 83.1033 61.1191 110.301 61.1191C137.505 61.1191 159.636 83.1053 159.636 110.138C159.636 137.163 137.505 159.157 110.301 159.157ZM110.301 70.7166C88.4314 70.7166 70.6321 88.3991 70.6321 110.138C70.6321 131.87 88.4314 149.552 110.301 149.552C132.177 149.552 149.97 131.87 149.97 110.138C149.97 88.3991 132.177 70.7166 110.301 70.7166ZM144.848 54.1134C134.44 47.7761 122.486 44.4314 110.301 44.4472C99.0843 44.4425 88.049 47.2759 78.2221 52.6834L73.5196 44.2959C84.785 38.0887 97.4385 34.8343 110.301 34.8359C124.326 34.8359 138.021 38.6722 149.908 45.9322L144.848 54.1134ZM159.251 167.62L153.001 160.284C160.33 154.143 166.223 146.471 170.268 137.807C174.312 129.144 176.409 119.699 176.411 110.138H186.077C186.077 132.317 176.301 153.265 159.251 167.613V167.62ZM110.301 185.426C92.7214 185.426 75.5889 179.307 62.0658 168.204L68.2258 160.807C80.0972 170.519 94.9626 175.826 110.301 175.828C121.026 175.828 131.256 173.353 140.702 168.486L145.15 177.011C134.367 182.544 122.421 185.431 110.301 185.433V185.426Z" fill="white"/>
<path opacity="0.5" d="M174.782 92.2966C172.254 83.231 167.809 74.8141 161.747 67.6154L167.934 62.4866C174.73 70.5573 179.713 79.9944 182.544 90.1585L174.789 92.2966H174.782ZM47.6629 151.085C39.6057 138.95 35.3169 124.703 35.336 110.137C35.336 89.7735 43.4485 70.7573 58.1816 56.5879L63.7779 62.3423C57.3102 68.5057 52.1664 75.9225 48.6605 84.14C45.1546 92.3574 43.3602 101.203 43.3866 110.137C43.3866 123.193 47.1954 135.829 54.3866 146.685L47.6629 151.085Z" fill="white"/>
</g>
<defs>
<clipPath id="clip0_2_21316">
<rect width="220" height="220" fill="white" transform="translate(0.5)"/>
</clipPath>
</defs>
</svg>
