<svg width="221" height="220" viewBox="0 0 221 220" fill="none" xmlns="http://www.w3.org/2000/svg">
<g clip-path="url(#clip0_2_21312)">
<path d="M110.5 220C171.251 220 220.5 170.751 220.5 110C220.5 49.2487 171.251 0 110.5 0C49.7487 0 0.5 49.2487 0.5 110C0.5 170.751 49.7487 220 110.5 220Z" fill="#005B9A"/>
<path d="M103.397 33L74.3946 83.0316C73.8027 82.6392 73.0135 82.6392 72.2243 82.6392H71.8297C71.0405 82.6392 70.0541 82.8354 69.2649 83.2278C68.4757 83.6203 67.6865 84.2089 67.0946 84.7975L39.2757 69.4937L103.397 33ZM117.8 33L181.724 69.4937L153.708 84.7975C153.116 84.0127 152.524 83.424 151.538 83.0316C150.749 82.6392 149.762 82.443 148.973 82.443H148.578C148.184 82.443 147.592 82.443 147.197 82.6392L117.8 33ZM106.554 34.962V106.38L78.5378 91.076C78.9324 89.1139 78.3405 87.1519 77.3541 85.5823L106.554 34.962ZM114.446 34.7658L144.041 84.6013C143.251 85.3861 142.659 86.3671 142.462 87.5443C142.265 88.7215 142.265 89.8987 142.462 90.8797L114.446 106.184V34.7658ZM114.446 110.5L144.435 94.019C145.224 94.6076 146.014 95 147 95.3924V125.411C146.014 125.804 145.224 126.196 144.435 126.981L114.446 110.5ZM106.554 110.5L76.1703 127.177C75.5784 126.589 74.7892 126 73.8027 125.804V95.7848C74.7892 95.5886 75.7757 95 76.5649 94.4114L106.554 110.5ZM70.0541 125.608V97.7468L42.4324 145.424L65.3189 133.063C65.1216 131.494 65.5162 129.924 66.5027 128.551C67.2919 127.177 68.673 126.196 70.0541 125.608ZM155.484 133.063L178.568 145.62L150.946 96.3734V125.608C152.524 126.196 153.708 127.177 154.497 128.551C155.286 129.924 155.681 131.494 155.484 133.063ZM183.5 72.8291V146.601L153.905 93.8228C154.695 93.038 155.089 92.2532 155.484 91.076C155.681 90.0949 155.878 89.1139 155.484 87.9367L183.5 72.8291ZM37.5 72.8291L65.3189 88.1329C65.1216 89.1139 65.1216 90.0949 65.3189 91.076C65.7135 92.4494 66.5027 93.6266 67.6865 94.4114L37.5 146.601V72.8291ZM106.554 114.816V183.291L77.1568 136.595C77.9459 135.81 78.3405 134.633 78.5378 133.652C78.7351 132.475 78.5378 131.494 78.1432 130.513L106.554 114.816ZM114.446 114.816L142.462 130.12C142.068 131.297 142.068 132.278 142.265 133.456C142.462 134.633 143.054 135.614 143.843 136.399L114.446 185.253V114.816ZM180.738 151.114L117.8 187.019L147.197 138.361C148.381 138.753 149.368 138.753 150.551 138.557C151.735 138.361 152.722 137.772 153.511 136.987C153.708 136.791 153.708 136.791 153.905 136.595L180.738 151.114ZM40.2622 151.114L66.8973 136.595C67.8838 137.576 68.8703 138.165 70.2514 138.557C71.4351 138.949 72.8162 138.949 74 138.557L104.976 188L40.2622 151.114Z" fill="white"/>
</g>
<defs>
<clipPath id="clip0_2_21312">
<rect width="220" height="220" fill="white" transform="translate(0.5)"/>
</clipPath>
</defs>
</svg>
