<svg width="221" height="220" viewBox="0 0 221 220" fill="none" xmlns="http://www.w3.org/2000/svg">
<g clip-path="url(#clip0_2_21308)">
<path d="M110.5 220C171.251 220 220.5 170.751 220.5 110C220.5 49.2487 171.251 0 110.5 0C49.7487 0 0.5 49.2487 0.5 110C0.5 170.751 49.7487 220 110.5 220Z" fill="black"/>
<path d="M70.9688 157.548L86.8019 130.144L102.621 102.836L118.351 75.4325L120.964 71.0875L122.112 75.4325L126.938 93.4725L121.534 102.836L105.715 130.144L89.985 157.548H108.891L124.718 130.144L132.919 115.961L136.783 130.144L144.112 157.548H161.093L153.764 130.144L146.429 102.836L144.504 95.7894L156.274 75.4325H139.1L138.516 73.4044L132.534 51.0194L131.764 48.125H115.264L114.879 48.7025L99.4381 75.4325L83.6119 102.836L67.8888 130.144L52.0625 157.548H70.9688Z" fill="white"/>
</g>
<defs>
<clipPath id="clip0_2_21308">
<rect width="220" height="220" fill="white" transform="translate(0.5)"/>
</clipPath>
</defs>
</svg>
