<svg width="221" height="220" viewBox="0 0 221 220" fill="none" xmlns="http://www.w3.org/2000/svg">
<g clip-path="url(#clip0_2_21304)">
<path d="M110.5 220C171.251 220 220.5 170.751 220.5 110C220.5 49.2487 171.251 0 110.5 0C49.7487 0 0.5 49.2487 0.5 110C0.5 170.751 49.7487 220 110.5 220Z" fill="#3C5BE0"/>
<path d="M186.125 110.103V110.158C186.102 110.707 185.954 111.243 185.692 111.726C184.729 113.479 161.691 154.688 110.507 154.688C59.3225 154.688 36.2706 113.479 35.315 111.726C35.0502 111.244 34.8996 110.707 34.875 110.158V109.849L34.8819 109.691C34.9219 109.238 35.0479 108.797 35.2531 108.391L35.2669 108.364L35.3081 108.281C36.2706 106.521 59.3156 65.3125 110.5 65.3125C161.684 65.3125 184.729 106.528 185.685 108.281L185.726 108.364L185.747 108.398C185.949 108.802 186.073 109.241 186.111 109.691V110.007L186.125 110.103ZM178.494 110C174.623 103.991 160.076 83.9231 133.703 75.8519C142.194 81.8007 148.167 90.697 150.458 100.808C152.266 101.221 153.565 102.843 153.599 104.727C153.634 106.611 152.396 108.274 150.595 108.756C148.794 109.237 146.917 108.412 146.023 106.762C145.591 105.958 145.436 105.034 145.584 104.134C145.732 103.233 146.174 102.407 146.841 101.784C143.445 86.5013 130.878 74.6969 115.395 72.6412C115.278 72.6271 115.163 72.6018 115.051 72.5656C112.017 72.4029 108.976 72.4029 105.942 72.5656C105.83 72.6017 105.715 72.6271 105.598 72.6412C99.5649 73.4533 93.8259 75.7442 88.8919 79.31C88.6515 79.4808 88.3742 79.5924 88.0825 79.6356C87.7908 79.6787 87.493 79.6523 87.2135 79.5585C86.9339 79.4646 86.6805 79.306 86.474 79.0955C86.2674 78.8851 86.1136 78.6288 86.025 78.3475C85.9048 77.9663 85.9071 77.5569 86.0316 77.1771C86.1562 76.7972 86.3967 76.466 86.7194 76.23C86.8856 76.1093 87.0529 75.9902 87.2213 75.8725C60.89 83.9644 46.37 103.991 42.5063 110C46.3356 115.961 60.6563 135.712 86.575 143.928C78.0265 137.687 72.1855 128.415 70.2469 118.009C68.5006 117.356 67.4281 115.582 67.6344 113.706C67.8406 111.829 69.2844 110.337 71.1269 110.096C72.9694 109.856 74.7431 110.921 75.4169 112.688C75.7423 113.542 75.7757 114.479 75.512 115.353C75.2483 116.228 74.7023 116.99 73.9594 117.521C76.9156 132.715 88.7269 144.519 103.742 147.29C108.244 147.66 112.769 147.66 117.272 147.29C122.874 146.237 128.156 143.903 132.706 140.47C132.968 140.267 133.28 140.137 133.608 140.095C133.937 140.052 134.271 140.099 134.576 140.229C134.882 140.365 135.147 140.579 135.344 140.849C135.542 141.119 135.665 141.437 135.701 141.77C135.737 142.102 135.685 142.439 135.551 142.745C135.416 143.052 135.203 143.317 134.934 143.516L134.336 143.963C160.309 135.761 174.658 115.967 178.494 110ZM143.637 110.117C143.637 128.659 128.774 143.749 110.5 143.749C92.2262 143.749 77.3625 128.659 77.3625 110.117C77.3625 91.575 92.2262 76.4913 110.5 76.4913C128.774 76.4913 143.637 91.5681 143.637 110.117ZM139.897 110.117C139.897 93.6719 126.711 80.2863 110.5 80.2863C94.2887 80.2863 81.0956 93.665 81.0956 110.124C81.0956 126.582 94.2887 139.948 110.5 139.948C126.711 139.948 139.897 126.569 139.897 110.117ZM121.335 100.884C121.335 104.486 119.554 107.841 116.591 109.821L119.548 127.882C119.615 128.202 119.61 128.533 119.531 128.851C119.452 129.168 119.302 129.464 119.092 129.715C118.882 129.966 118.617 130.166 118.319 130.3C118.02 130.434 117.695 130.498 117.368 130.487H104.168C103.841 130.497 103.516 130.433 103.217 130.299C102.918 130.165 102.654 129.966 102.443 129.715C102.233 129.464 102.082 129.169 102.002 128.851C101.922 128.534 101.915 128.202 101.982 127.882L104.924 109.821C100.717 106.996 99.0669 101.537 100.985 96.8C102.903 92.0631 107.86 89.3681 112.81 90.3581C117.767 91.355 121.335 95.7619 121.335 100.884ZM151.221 114.929C150.261 123.542 146.631 131.638 140.839 138.084C140.621 138.334 140.34 138.521 140.025 138.626C139.71 138.73 139.373 138.748 139.048 138.678C138.724 138.608 138.425 138.452 138.181 138.226C137.937 138.001 137.758 137.715 137.663 137.397C137.563 137.076 137.548 136.735 137.62 136.407C137.693 136.079 137.85 135.775 138.076 135.527C143.337 129.67 146.635 122.314 147.508 114.489C147.563 113.995 147.812 113.543 148.2 113.231C148.588 112.919 149.083 112.774 149.577 112.826C150.609 112.949 151.338 113.891 151.221 114.929ZM83.3644 81.4619C83.7255 81.8103 83.9352 82.2868 83.9481 82.7884C83.9609 83.2901 83.776 83.7767 83.4331 84.1431C78.1594 89.7879 74.7447 96.9148 73.65 104.562C73.5769 105.055 73.3116 105.498 72.9122 105.796C72.5128 106.094 72.0118 106.221 71.5187 106.15C71.0261 106.07 70.5846 105.8 70.2899 105.397C69.9952 104.994 69.8711 104.492 69.9444 103.998C71.1522 95.5852 74.9125 87.7454 80.7175 81.5375C80.8856 81.3573 81.088 81.2124 81.3127 81.1112C81.5375 81.01 81.7801 80.9546 82.0265 80.9482C82.2729 80.9418 82.5181 80.9845 82.7478 81.0739C82.9775 81.1633 83.1871 81.2975 83.3644 81.4688V81.4619Z" fill="white"/>
</g>
<defs>
<clipPath id="clip0_2_21304">
<rect width="220" height="220" fill="white" transform="translate(0.5)"/>
</clipPath>
</defs>
</svg>
