<svg width="221" height="220" viewBox="0 0 221 220" fill="none" xmlns="http://www.w3.org/2000/svg">
<g clip-path="url(#clip0_2_21300)">
<path d="M110.5 220C171.251 220 220.5 170.751 220.5 110C220.5 49.2487 171.251 0 110.5 0C49.7487 0 0.5 49.2487 0.5 110C0.5 170.751 49.7487 220 110.5 220Z" fill="#2DAEE4"/>
<path fill-rule="evenodd" clip-rule="evenodd" d="M57.5831 82.2041H58.3394C64.96 82.0803 70.7144 79.5778 75.5956 74.7035C80.3394 69.5747 82.7181 63.6966 82.7181 57.0691C82.7181 53.6935 83.935 50.7853 86.3756 48.3447C87.5322 47.1589 88.9195 46.2226 90.452 45.5935C91.9844 44.9645 93.6294 44.656 95.2856 44.6872C98.6544 44.6872 101.569 45.9041 104.003 48.3447C106.444 50.7853 107.661 53.6935 107.661 57.0691C107.661 60.4378 106.506 63.3528 104.196 65.7935C103.134 66.9616 101.847 67.9039 100.414 68.5642C98.9796 69.2245 97.4273 69.5892 95.8494 69.6366C88.72 69.3822 82.5944 71.8228 77.4656 76.9516C72.3369 82.0803 69.9031 88.0822 70.1506 94.9641C70.3981 102.087 72.9694 108.027 77.8437 112.777C83.22 117.528 89.2219 119.845 95.8494 119.721C97.4278 119.769 98.9804 120.135 100.414 120.796C101.848 121.458 103.134 122.402 104.196 123.571C106.506 126.005 107.661 128.851 107.661 132.096C107.661 135.602 106.444 138.572 104.003 141.013C102.877 142.185 101.522 143.115 100.023 143.744C98.5236 144.373 96.9114 144.688 95.2856 144.67C91.7794 144.67 88.8162 143.447 86.3756 141.013C85.1898 139.856 84.2535 138.469 83.6244 136.936C82.9954 135.404 82.6869 133.759 82.7181 132.103C82.7711 128.892 82.1659 125.705 80.9397 122.737C79.7136 119.769 77.8925 117.084 75.5887 114.847C73.3639 112.487 70.6933 110.591 67.7313 109.269C64.7694 107.948 61.5749 107.226 58.3325 107.147C55.9606 107.277 53.9325 106.899 52.2412 106.026C50.5798 105.174 49.1608 103.916 48.1162 102.368C47.039 100.776 46.2738 98.9937 45.8612 97.116C45.4288 95.241 45.3357 93.3037 45.5862 91.396C47.2087 85.2703 51.21 82.2041 57.5831 82.2041ZM57.755 119.721C61.0069 119.721 63.8531 120.91 66.2869 123.289C68.7275 125.661 70.0062 128.48 70.1369 131.732C70.0062 138.607 72.385 144.608 77.2594 149.737C82.1406 154.735 88.0119 157.238 94.8937 157.238H95.4575C102.209 157.238 108.018 154.735 112.899 149.737C117.898 144.732 120.338 138.737 120.214 131.725C120.205 128.444 119.517 125.201 118.193 122.199C116.869 119.197 114.938 116.502 112.521 114.283C107.585 109.587 101.844 107.208 95.2856 107.153H94.5156C92.9377 107.106 91.3854 106.741 89.9515 106.081C88.5175 105.421 87.2313 104.478 86.1694 103.31C85.0448 102.156 84.1592 100.792 83.5634 99.2944C82.9676 97.7972 82.6733 96.1971 82.6975 94.586C82.6975 91.2172 83.9212 88.3022 86.355 85.8616C88.4244 83.7991 90.8787 82.6028 93.7112 82.2866L94.5363 82.2041L94.8525 82.211C95.1802 82.2023 95.5081 82.2046 95.8356 82.2178C102.298 82.1353 107.922 79.6947 112.727 74.8891C117.856 69.7603 120.359 63.6966 120.228 56.691C120.228 53.941 121.17 51.4385 123.047 49.1903L123.232 49.0047L123.418 48.8122C123.418 48.6885 123.487 48.6266 123.604 48.6266L123.796 48.441V48.2553H123.982V48.056C124.106 48.056 124.168 47.9941 124.168 47.8703L124.353 47.6847H124.731C124.731 47.5541 124.8 47.4922 124.917 47.4922L125.109 47.3066V47.121H125.481C125.481 46.9903 125.549 46.9285 125.666 46.9285L125.859 46.7428L126.044 46.5572H126.23C126.23 46.4335 126.299 46.3716 126.423 46.3716C126.546 46.3716 126.608 46.3028 126.608 46.1791H126.794L126.979 45.9935H127.357V45.8078H127.543L127.736 45.6153H128.107V45.4435H128.485L128.671 45.2578H129.049L129.234 45.0722H129.798L129.984 44.8797H130.548C130.671 44.8797 130.733 44.8178 130.733 44.6941H134.673L134.769 44.7903C134.831 44.8522 134.92 44.8797 135.044 44.8797H135.422L135.518 44.976C135.58 45.0378 135.669 45.0722 135.793 45.0722H136.171L136.357 45.2578H136.735L136.921 45.4435H137.299C137.423 45.5672 137.546 45.6291 137.67 45.6291L137.862 45.8216H138.234V46.0072H138.426L138.612 46.1928L138.701 46.2891C138.77 46.3578 138.859 46.3853 138.983 46.3853L139.176 46.571H139.361C139.361 46.6947 139.485 46.7566 139.733 46.7566L139.925 46.9422V47.1347H140.111C140.111 47.2585 140.234 47.3203 140.489 47.3203C140.489 47.4441 140.551 47.506 140.674 47.506V47.6985H140.86L141.053 47.8841C141.176 48.0078 141.3 48.0697 141.424 48.0697L141.609 48.2622C141.609 48.386 141.678 48.4478 141.802 48.4478V48.6335H141.988C141.988 48.7572 142.022 48.8535 142.084 48.9085L142.173 49.0116C142.173 49.1353 142.242 49.1972 142.366 49.1972L142.551 49.3828C142.551 49.5066 142.579 49.6028 142.641 49.6647L142.737 49.761L142.923 49.9466L143.115 50.1322V50.5103L143.301 50.696V50.8747H143.486C143.486 51.0053 143.521 51.0947 143.583 51.1566L143.672 51.2528C143.672 51.3766 143.741 51.4385 143.864 51.4385V51.631C143.864 51.7547 143.892 51.8441 143.954 51.906L144.05 52.0022L144.236 52.1878C144.236 52.4422 144.304 52.566 144.428 52.566V52.7516C144.428 52.8822 144.456 52.9716 144.518 53.0335L144.614 53.1297V53.501L144.799 53.6935V54.2572C144.923 54.381 144.985 54.5047 144.985 54.6285V55.1922C145.116 55.316 145.178 55.4397 145.178 55.5703V57.0622C145.178 63.6897 147.549 69.5678 152.3 74.6966C157.181 79.571 162.998 82.0735 169.749 82.1972C173.118 82.0735 176.122 83.2285 178.755 85.6691C181.374 88.1028 182.688 91.0728 182.688 94.5791C182.688 98.0785 181.471 101.042 179.03 103.489C177.903 104.662 176.547 105.592 175.047 106.221C173.546 106.85 171.933 107.165 170.306 107.147C168.696 107.17 167.097 106.875 165.601 106.279C164.105 105.684 162.741 104.798 161.588 103.675C160.405 102.584 159.454 101.265 158.792 99.7981C158.131 98.3308 157.772 96.7451 157.738 95.136C157.869 88.261 155.366 82.1972 150.244 76.9447C145.239 71.9397 139.176 69.506 132.046 69.6297C128.804 69.7084 125.61 70.4288 122.648 71.7493C119.686 73.0698 117.015 74.9641 114.79 77.3228C112.486 79.5596 110.665 82.2448 109.438 85.2127C108.212 88.1806 107.607 91.3683 107.661 94.5791L107.654 95.1566C107.791 101.55 110.163 107.236 114.776 112.207C119.651 117.088 125.467 119.59 132.218 119.714C136.714 119.467 140.159 121.089 142.531 124.595C144.909 127.964 145.659 131.539 144.786 135.286C143.033 141.542 139.031 144.663 132.782 144.663H132.218C125.213 144.911 119.396 147.482 114.776 152.357C110.019 157.107 107.647 162.923 107.647 169.798C107.647 173.174 106.43 176.082 103.989 178.523C102.862 179.696 101.507 180.626 100.006 181.255C98.5055 181.884 96.8919 182.199 95.265 182.18H94.8937C91.5181 182.18 88.6375 180.963 86.2656 178.523C85.1158 177.382 84.2074 176.022 83.5944 174.523C82.9814 173.025 82.6763 171.418 82.6975 169.798C82.6975 162.923 80.3256 157.107 75.575 152.357C73.3495 149.998 70.6787 148.104 67.7168 146.783C64.7549 145.463 61.5607 144.742 58.3187 144.663C56.6157 144.758 54.9115 144.499 53.3139 143.901C51.7163 143.304 50.2601 142.381 49.0375 141.192C47.7894 140.034 46.801 138.624 46.1373 137.057C45.4737 135.489 45.15 133.798 45.1875 132.096C45.1875 128.72 46.4044 125.812 48.845 123.372C50.0016 122.186 51.3889 121.249 52.9213 120.62C54.4538 119.991 56.0988 119.683 57.755 119.714V119.721Z" fill="white"/>
</g>
<defs>
<clipPath id="clip0_2_21300">
<rect width="220" height="220" fill="white" transform="translate(0.5)"/>
</clipPath>
</defs>
</svg>
