<svg width="221" height="220" viewBox="0 0 221 220" fill="none" xmlns="http://www.w3.org/2000/svg">
<g clip-path="url(#clip0_2_21296)">
<path d="M110.5 220C171.251 220 220.5 170.751 220.5 110C220.5 49.2487 171.251 0 110.5 0C49.7487 0 0.5 49.2487 0.5 110C0.5 170.751 49.7487 220 110.5 220Z" fill="black"/>
<path d="M52.1384 159.844C52.042 158.221 52.0374 156.593 52.1247 154.969C52.6747 154.804 53.2384 154.694 53.8159 154.626C55.4797 154.344 57.1228 153.959 58.7453 153.477C59.1853 153.34 59.6253 153.189 60.0515 153.024C62.1828 152.206 64.0665 150.858 65.4965 149.112C66.4865 147.895 67.3528 146.582 68.0953 145.193C69.1403 143.296 70.0684 141.336 70.8865 139.329C72.5434 135.286 74.1934 131.23 75.8365 127.167L92.7422 85.2775C98.084 72.0019 103.33 58.6919 108.465 45.3406C108.568 45.0656 108.685 44.8044 108.802 44.5294C110.7 44.0069 112.57 43.4706 114.508 42.9688C114.618 43.2438 114.728 43.4775 114.818 43.725L121.349 61.6069C128.745 81.9357 136.246 102.226 143.851 122.478C145.941 128.013 148.045 133.547 150.169 139.061C151.008 141.316 151.991 143.516 153.118 145.647C153.614 146.558 154.151 147.445 154.727 148.308C156.494 151.003 159.237 152.948 162.407 153.746C164.112 154.193 165.844 154.529 167.59 154.756L168.835 154.935C169.013 155.478 168.903 156.001 168.917 156.516C168.938 157.039 168.917 157.616 168.917 158.173C168.938 158.709 168.924 159.239 168.89 159.775C168.711 159.802 168.573 159.83 168.436 159.844H124.69C124.644 159.75 124.612 159.651 124.594 159.548V155.155C124.605 155.089 124.624 155.024 124.649 154.963C125.011 154.862 125.382 154.793 125.756 154.756C127.557 154.529 129.331 154.186 131.091 153.739C131.792 153.546 132.487 153.299 133.174 153.051C133.518 152.914 133.848 152.756 134.164 152.57C135.89 151.621 136.584 150.136 136.433 148.239C136.356 147.379 136.202 146.527 135.972 145.695C135.628 144.389 135.147 143.131 134.693 141.866C125.632 117.105 116.67 92.3094 107.805 67.4781C107.709 67.2031 107.682 66.9075 107.4 66.6669C107.31 66.7219 107.193 66.7631 107.125 66.8388C107.053 66.9641 106.997 67.0981 106.96 67.2375C102.628 79.4475 98.0153 91.5612 93.4159 103.675C90.0265 112.654 86.6303 121.619 83.4678 130.673C82.2054 134.305 80.9793 137.948 79.7897 141.604C79.3236 143 78.9786 144.433 78.7584 145.887C78.5901 146.857 78.5623 147.846 78.6759 148.823C78.7506 149.46 78.958 150.074 79.2849 150.626C79.6117 151.178 80.0507 151.655 80.5734 152.027C81.2747 152.515 82.0447 152.907 82.8559 153.175C84.1484 153.622 85.4822 153.959 86.8365 154.179C88.3284 154.447 89.834 154.653 91.3328 154.887L91.6559 154.942C91.692 155.049 91.715 155.16 91.7247 155.272V159.521C91.7143 159.605 91.6959 159.688 91.6697 159.768C91.5358 159.798 91.4004 159.821 91.264 159.837H52.1384V159.844Z" fill="white"/>
</g>
<defs>
<clipPath id="clip0_2_21296">
<rect width="220" height="220" fill="white" transform="translate(0.5)"/>
</clipPath>
</defs>
</svg>
