<svg width="221" height="220" viewBox="0 0 221 220" fill="none" xmlns="http://www.w3.org/2000/svg">
<g clip-path="url(#clip0_2_21292)">
<path d="M110.5 220C171.251 220 220.5 170.751 220.5 110C220.5 49.2487 171.251 0 110.5 0C49.7487 0 0.5 49.2487 0.5 110C0.5 170.751 49.7487 220 110.5 220Z" fill="#2CD3E1"/>
<path d="M55.2594 120.986C55.2147 120.261 55.1917 119.534 55.1906 118.807C55.1906 94.6275 74.0419 74.9719 97.6231 74.1331C98.1869 74.1331 98.7919 74.1331 99.3556 74.1813L93.7319 68.5919C93.7319 68.5919 116.371 64.8106 145.439 82.2869C145.439 82.2869 145.865 83.1738 145.439 85.7794C145.439 85.7794 159.134 91.6506 160.302 103.063C161.471 114.476 154.211 121 148.347 121.928C148.347 121.928 151.393 117.226 146.711 114.709C145.69 114.157 144.535 113.9 143.376 113.967C134.425 113.967 133.394 124.121 133.394 124.121C133.298 124.63 133.298 125.146 133.298 125.654C133.298 125.654 131.991 138.573 153.386 140.092C158.276 133.785 162.559 127.032 166.181 119.921C171.896 108.71 176.176 96.823 178.92 84.5419C166.456 74.3256 151.757 65.5669 135.951 58.2313C130.025 55.4813 124.284 53.0956 118.846 51.0469C116.074 49.9955 113.277 49.0099 110.459 48.0906C108.245 48.8056 105.44 49.7819 102.071 51.0469C96.64 53.0888 90.8925 55.4813 84.9731 58.2313C69.1812 65.56 54.4756 74.3188 42.0113 84.5488C42.685 87.7938 43.7094 91.8431 45.1806 96.5456C47.8044 104.977 51.1775 113.156 55.2594 120.986ZM186.125 81.8263L185.781 83.7513C185.603 85.2431 184.386 90.5919 182.887 95.7137C180.15 105.084 176.538 114.176 172.1 122.87C165.871 135.011 158.309 145.599 149.632 154.316C138.928 165.048 126.539 172.975 112.734 177.911L111.964 178.186L110.5 178.75L109.049 178.241L108.238 177.959C94.3243 172.963 81.715 164.896 71.3469 154.357C62.6294 145.557 55.0738 134.991 48.8794 122.911C43.1054 111.562 38.7418 99.5495 35.8856 87.1406C35.5419 85.6006 35.1638 83.6756 35.2325 83.9506L34.875 81.9706L35.7 81.2831L36.305 80.7675C48.9825 70.0975 63.9769 60.9469 80.1675 53.2537C89.2801 48.8787 98.6657 45.0964 108.266 41.9306L110.452 41.25L111.944 41.6969L112.686 41.9375C120.111 44.3231 129.977 48.125 140.764 53.2537C156.934 60.9331 171.908 70.07 184.571 80.7194L186.125 81.8194V81.8263ZM133.861 86.8038C134.239 86.6181 135.456 86.0131 136.866 84.5694C139.677 84.9406 142.441 85.8275 142.441 85.8275C137.333 82.7544 130.341 80.9325 122.607 80.9806C122.607 80.9806 125.563 85.1744 133.765 86.8931L133.861 86.8038Z" fill="white"/>
</g>
<defs>
<clipPath id="clip0_2_21292">
<rect width="220" height="220" fill="white" transform="translate(0.5)"/>
</clipPath>
</defs>
</svg>
