<svg width="221" height="220" viewBox="0 0 221 220" fill="none" xmlns="http://www.w3.org/2000/svg">
<g clip-path="url(#clip0_2_21288)">
<path d="M110.5 220C171.251 220 220.5 170.751 220.5 110C220.5 49.2487 171.251 0 110.5 0C49.7487 0 0.5 49.2487 0.5 110C0.5 170.751 49.7487 220 110.5 220Z" fill="#1F4C9F"/>
<path fill-rule="evenodd" clip-rule="evenodd" d="M41.75 132.344L110.5 44.6875L179.25 132.344V161.562L110.5 73.9062L41.75 161.562V132.344ZM113.938 140.938C109.379 140.938 105.007 139.127 101.784 135.903C98.5608 132.68 96.75 128.308 96.75 123.75C96.75 119.192 98.5608 114.82 101.784 111.597C105.007 108.373 109.379 106.562 113.938 106.562C118.496 106.562 122.868 108.373 126.091 111.597C129.314 114.82 131.125 119.192 131.125 123.75C131.125 128.308 129.314 132.68 126.091 135.903C122.868 139.127 118.496 140.938 113.938 140.938Z" fill="white"/>
</g>
<defs>
<clipPath id="clip0_2_21288">
<rect width="220" height="220" fill="white" transform="translate(0.5)"/>
</clipPath>
</defs>
</svg>
