<svg width="221" height="220" viewBox="0 0 221 220" fill="none" xmlns="http://www.w3.org/2000/svg">
<g clip-path="url(#clip0_2_21284)">
<path d="M110.5 220C171.251 220 220.5 170.751 220.5 110C220.5 49.2487 171.251 0 110.5 0C49.7487 0 0.5 49.2487 0.5 110C0.5 170.751 49.7487 220 110.5 220Z" fill="#FD875E"/>
<path d="M94.4125 119.529L110.816 70.6335L127.522 119.529H94.4125ZM163.932 150.445L150.368 113.946H158.467C160.001 113.948 161.474 113.346 162.567 112.271C163.661 111.195 164.287 109.732 164.311 108.199C164.311 106.755 163.719 105.359 162.681 104.342C161.643 103.324 160.22 102.74 158.742 102.74H146.092L144.064 97.061H158.467C159.968 97.0746 161.415 96.5028 162.501 95.4669C163.586 94.431 164.226 93.0126 164.283 91.5129C164.29 89.9866 163.678 88.5291 162.578 87.4566C161.478 86.3841 159.993 85.7791 158.439 85.786H139.739L129.613 58.506C128.088 54.5921 125.586 51.134 122.346 48.4616C119.114 45.8681 115.053 44.5301 110.912 44.6941C106.759 44.56 102.692 45.894 99.4244 48.4616C96.1846 51.1365 93.6771 54.5903 92.1369 58.4991L81.5288 86.0266H62.9387C61.4689 86.0138 60.0535 86.5826 59.0013 87.609C57.9491 88.6354 57.3454 90.0363 57.3219 91.506C57.3219 94.6548 59.9275 97.2054 63.145 97.2054H77.2594L75.0869 102.733H62.4369C61.7065 102.725 60.9816 102.861 60.3037 103.132C59.6257 103.404 59.008 103.807 58.4858 104.318C57.9636 104.829 57.5471 105.437 57.2601 106.109C56.9731 106.781 56.8212 107.502 56.8131 108.233C56.8131 111.354 59.3844 113.877 62.5606 113.891H70.68L56.8887 150.439C56.0431 152.501 55.5756 154.687 55.5 156.908C55.6375 160.022 57.0263 162.958 59.35 165.089C61.9221 167.267 65.1924 168.446 68.5625 168.41C71.3778 168.58 74.1667 167.783 76.4673 166.151C78.7678 164.52 80.442 162.151 81.2125 159.438L86.5475 143.839H135.662L141.004 159.809C141.871 162.43 143.583 164.69 145.873 166.233C148.162 167.776 150.899 168.515 153.654 168.334C155.786 168.382 157.882 167.853 159.732 166.822C161.334 165.653 162.757 164.278 163.953 162.71C164.997 160.957 165.533 158.948 165.5 156.908C165.165 154.742 164.641 152.609 163.932 150.535V150.445Z" fill="#FEFEFE"/>
</g>
<defs>
<clipPath id="clip0_2_21284">
<rect width="220" height="220" fill="white" transform="translate(0.5)"/>
</clipPath>
</defs>
</svg>
