<svg width="221" height="220" viewBox="0 0 221 220" fill="none" xmlns="http://www.w3.org/2000/svg">
<g clip-path="url(#clip0_2_21274)">
<path d="M110.5 220C171.251 220 220.5 170.751 220.5 110C220.5 49.2487 171.251 0 110.5 0C49.7487 0 0.5 49.2487 0.5 110C0.5 170.751 49.7487 220 110.5 220Z" fill="#A71435"/>
<path d="M74.4408 36.0666C91.433 27.6388 110.82 25.3576 129.304 29.611C147.789 33.8644 164.229 44.3897 175.829 59.3967C187.428 74.4038 193.471 92.9657 192.929 111.925C192.387 130.885 185.294 149.072 172.856 163.392C168.766 154.482 165.631 145.139 162.125 135.94L140.95 80.4585C138.908 74.8348 135.477 69.431 130.149 66.5091C122.689 62.9124 114.327 61.6154 106.128 62.7829C99.5552 63.5185 92.6939 65.7804 88.2389 70.9641C84.0039 75.8522 82.1064 82.136 79.7002 88.0485L64.4377 126.741C59.3296 139.006 55.0189 151.711 49.4708 163.9C41.4792 155.269 35.6065 144.896 32.3177 133.602C26.6345 114.971 27.7581 94.9254 35.4878 77.0455C43.2175 59.1657 57.0503 44.6149 74.5164 35.991L74.4408 36.0597V36.0666Z" fill="white"/>
<path d="M104.959 91.9875C106.416 87.6082 112.26 86.1438 116.055 88.6325C118.097 90.1657 118.833 92.7919 119.781 95.1294C129.269 119.948 138.619 144.918 148.037 169.819C149.275 173.394 151.097 176.825 151.832 180.544C151.235 181.181 150.544 181.724 149.784 182.153C139.483 187.664 128.127 190.919 116.471 191.7C104.815 192.481 93.1258 190.771 82.1819 186.684C78.0912 184.999 73.8631 183.542 70.2812 180.984C70.6456 177.629 72.3231 174.632 73.5675 171.566C84.0794 145.069 94.3713 118.491 104.959 91.9875Z" fill="white"/>
</g>
<defs>
<clipPath id="clip0_2_21274">
<rect width="220" height="220" fill="white" transform="translate(0.5)"/>
</clipPath>
</defs>
</svg>
