<svg width="221" height="220" viewBox="0 0 221 220" fill="none" xmlns="http://www.w3.org/2000/svg">
<g clip-path="url(#clip0_2_21270)">
<path d="M110.5 220C171.251 220 220.5 170.751 220.5 110C220.5 49.2487 171.251 0 110.5 0C49.7487 0 0.5 49.2487 0.5 110C0.5 170.751 49.7487 220 110.5 220Z" fill="#F70000"/>
<path d="M110.136 91.7606L34.875 171.119L110.473 48.125L186.125 171.875L110.136 91.7606ZM121.053 123.282H97.5269L109.627 109.973L121.053 123.399V123.282ZM75.6781 145.124V144.959L89.0225 131.299V131.237L129.722 131.065L143.459 145.124H75.685H75.6781Z" fill="white"/>
</g>
<defs>
<clipPath id="clip0_2_21270">
<rect width="220" height="220" fill="white" transform="translate(0.5)"/>
</clipPath>
</defs>
</svg>
