<svg width="221" height="220" viewBox="0 0 221 220" fill="none" xmlns="http://www.w3.org/2000/svg">
<g clip-path="url(#clip0_2_21266)">
<path d="M110.5 220C171.251 220 220.5 170.751 220.5 110C220.5 49.2487 171.251 0 110.5 0C49.7487 0 0.5 49.2487 0.5 110C0.5 170.751 49.7487 220 110.5 220Z" fill="#0092B5"/>
<path d="M81.3499 96.9513L110.789 45.1275C110.844 45.0313 110.954 44.9694 111.339 45.1275L139.347 96.0094C138.562 96.6503 137.932 97.4609 137.505 98.3802C137.078 99.2995 136.864 100.304 136.881 101.317C136.898 102.331 137.144 103.328 137.6 104.232C138.057 105.137 138.713 105.927 139.519 106.542L113.649 153.209C112.727 152.767 111.719 152.534 110.697 152.527C109.675 152.519 108.664 152.739 107.736 153.168L81.1093 105.737C82.2054 104.549 82.8332 103.004 82.8762 101.388C82.9192 99.7724 82.3744 98.1959 81.343 96.9513H81.3499ZM78.5312 107.497L105.261 155.107C104.684 155.829 104.263 156.662 104.024 157.554C82.443 152.384 69.0368 149.188 63.7912 147.957C61.5726 144.837 59.6311 141.529 57.9887 138.071L75.1212 107.917C76.2744 108.063 77.446 107.921 78.5312 107.504V107.497ZM74.8255 94.5519L53.6024 56.7394C68.0674 49.06 86.018 45.0312 107.468 44.6875L78.8543 95.0538C77.5916 94.488 76.1884 94.3132 74.8255 94.5519ZM71.938 95.7619C71.056 96.3983 70.3417 97.2395 69.8566 98.213C69.3715 99.1865 69.1301 100.263 69.1531 101.351C69.1761 102.438 69.4628 103.504 69.9886 104.456C70.5144 105.408 71.2636 106.218 72.1718 106.817L56.428 134.523C53.8122 128.045 52.2569 121.187 51.8218 114.214L48.6387 63.4631C48.5794 62.4858 48.7558 61.5085 49.153 60.6136C49.5502 59.7187 50.1566 58.9323 50.9212 58.3206L71.938 95.7619ZM117.313 157.623C117.083 156.736 116.674 155.905 116.11 155.183L142.359 107.834C143.492 108.062 144.663 108.005 145.769 107.669L162.777 138.566C161.334 141.536 159.67 144.396 157.8 147.125L117.313 157.623ZM112.219 165.873C113.464 165.591 114.606 164.966 115.514 164.068C116.421 163.17 117.059 162.035 117.354 160.793L154.864 151.064C150.33 156.701 144.905 161.559 138.804 165.447L113.896 181.356C113.377 181.689 112.812 181.943 112.219 182.112V165.873ZM109.097 165.873V182.188C108.39 182.027 107.715 181.746 107.104 181.356L82.1955 165.447C76.3715 161.735 71.1619 157.138 66.7543 151.821C73.5605 153.436 85.9562 156.393 103.941 160.696C104.491 163.261 106.512 165.289 109.097 165.88V165.873ZM146.016 94.8269C144.768 94.3957 143.423 94.329 142.139 94.6344L114.659 44.7081C135.504 45.1687 153.022 49.1494 167.191 56.6362L146.016 94.8269ZM148.649 96.4838L169.893 58.1762C170.713 58.7815 171.369 59.5822 171.802 60.5055C172.234 61.4288 172.429 62.4455 172.368 63.4631L169.185 114.221C168.736 121.371 167.11 128.398 164.372 135.018L148.464 106.122C149.123 105.51 149.653 104.772 150.021 103.95C150.388 103.129 150.587 102.242 150.604 101.343C150.622 100.443 150.457 99.5489 150.121 98.7141C149.786 97.8793 149.285 97.1207 148.649 96.4838ZM110.5 77.2338C109.527 77.2493 108.597 77.6396 107.904 78.3234C107.211 79.0073 106.809 79.9319 106.781 80.905V94.3388L86.9393 106.562L89.0637 111.148L106.781 105.346V118.779L101.817 122.444V126.108L110.5 123.661L119.183 126.101V122.437L114.219 118.772V105.339L131.634 111.457L134.061 106.562L114.219 94.3388V80.905C114.189 79.9343 113.787 79.0124 113.096 78.3302C112.405 77.6479 111.478 77.2578 110.507 77.2406L110.5 77.2338Z" fill="white"/>
</g>
<defs>
<clipPath id="clip0_2_21266">
<rect width="220" height="220" fill="white" transform="translate(0.5)"/>
</clipPath>
</defs>
</svg>
