<svg width="221" height="220" viewBox="0 0 221 220" fill="none" xmlns="http://www.w3.org/2000/svg">
<g clip-path="url(#clip0_2_21260)">
<path d="M110.5 220C171.251 220 220.5 170.751 220.5 110C220.5 49.2487 171.251 0 110.5 0C49.7487 0 0.5 49.2487 0.5 110C0.5 170.751 49.7487 220 110.5 220Z" fill="#436697"/>
<path d="M131.641 142.422C131.306 142.407 130.981 142.297 130.706 142.106C130.455 141.95 130.244 141.738 130.087 141.487H130.025L114.776 168.266C130.273 164.862 145.714 161.391 161.203 157.981C160.849 157.542 160.519 157.086 160.213 156.612C159.78 155.994 159.409 155.251 158.976 154.447C158.58 153.715 158.208 152.969 157.862 152.212V152.151C157.862 152.089 157.793 152.027 157.793 152.027C157.057 150.461 156.376 148.869 155.751 147.256C155.566 146.822 155.442 146.451 155.256 146.08C154.313 143.745 153.423 141.389 152.589 139.012C149.983 139.507 147.818 139.941 146.333 140.25C146.264 140.25 146.202 140.25 146.14 140.312C143.851 140.807 141.678 141.24 139.574 141.618C138.392 141.859 137.278 141.982 136.226 142.168C135.979 142.237 135.669 142.237 135.298 142.299C135.298 142.299 134.549 142.422 133.559 142.484C132.917 142.533 132.271 142.51 131.634 142.416L131.641 142.422ZM145.893 118.738C145.562 117.554 145.294 116.354 145.088 115.142L133.435 135.602L133.504 135.534C133.992 135.355 134.549 135.169 135.236 134.984C136.845 134.482 138.825 133.987 141.245 133.368C143.665 132.749 146.518 132.062 149.859 131.202C149.179 129.154 148.436 127.05 147.756 124.877C147.058 122.856 146.439 120.808 145.899 118.738H145.893ZM163.871 82.4793H163.623L148.567 108.948C148.622 108.948 148.746 109.01 148.931 109.01C149 109.01 149 109.01 149.055 109.072C149.124 109.072 149.124 109.072 149.179 109.134C149.248 109.134 149.248 109.196 149.303 109.196C149.371 109.196 149.371 109.196 149.426 109.257C149.609 109.355 149.776 109.48 149.921 109.629C150.169 109.876 150.361 110.124 150.423 110.186C150.485 110.254 150.485 110.309 150.547 110.371C150.684 110.569 150.808 110.776 150.918 110.99C151.228 111.547 151.413 111.856 151.413 111.856C152.156 113.286 152.898 114.957 153.641 116.944C154.39 118.924 155.194 121.034 155.937 123.269C156.123 123.764 156.246 124.197 156.432 124.692C156.865 125.998 157.422 127.607 158.048 129.463C160.646 128.968 163.128 128.473 165.541 128.04C167.961 127.607 170.134 127.297 172.114 127.112C174.101 126.919 175.771 126.796 177.201 126.857C178.006 126.857 178.624 126.926 179.181 127.05C179.305 127.05 179.491 127.112 179.614 127.112C178.439 123.826 177.201 120.168 175.771 116.263L163.878 82.4793H163.871ZM178.068 132.626C176.355 133.255 174.616 133.812 172.856 134.296C172.485 134.42 172.114 134.482 171.804 134.612C171.495 134.674 171.186 134.798 170.876 134.86C170.015 135.096 169.146 135.303 168.271 135.479C167.779 135.617 167.284 135.741 166.786 135.85H166.717C165.232 136.221 163.252 136.654 160.956 137.156C161.451 138.889 162.076 140.807 162.812 142.979C163.499 145.145 164.187 147.256 164.737 149.236C164.923 149.854 165.046 150.418 165.232 151.037C165.548 151.965 165.796 152.893 165.981 154.014C166.043 154.199 166.043 154.385 166.105 154.564C166.353 155.561 166.414 156.303 166.353 156.86C166.353 156.86 168.951 156.365 170.258 156.056C175.4 149.431 179.401 141.996 182.096 134.056C181.725 132.935 181.354 131.883 180.983 130.762C180.419 131.512 179.491 132.069 178.068 132.626ZM96.5507 36.5474H96.7982C97.0457 36.5474 97.3619 36.6712 97.7332 36.9187C97.9188 37.0424 98.1663 37.1662 98.3519 37.3518C98.6143 37.5395 98.8625 37.7463 99.0944 37.9705C100.208 38.9605 101.453 40.143 102.876 41.5662C104.237 42.9274 105.667 44.4193 107.152 46.0349C108.575 47.5749 109.881 49.0049 111.057 50.1805C111.614 49.6237 112.171 49.0049 112.734 48.3243C113.415 47.5749 114.096 46.8324 114.776 46.028C115.464 45.2855 116.138 44.4812 116.887 43.7937C117.568 43.0512 118.248 42.3705 118.929 41.6899L119.919 40.6999C120.297 40.3287 120.668 40.0124 120.978 39.703C121.596 39.153 122.153 38.6512 122.71 38.218C123.893 37.228 124.759 36.7949 125.439 36.7949C125.687 36.7949 125.934 36.8568 126.182 36.9187L125.501 36.1074L123.7 35.7362C123.638 35.7362 123.576 35.7362 123.514 35.6743C122.964 35.5505 122.401 35.4887 121.844 35.4268H121.72C121.163 35.3649 120.544 35.2412 119.988 35.1793H119.919C116.825 34.808 113.663 34.5605 110.438 34.5605H108.699C108.149 34.5605 107.647 34.6293 107.152 34.6293H106.966C106.409 34.6293 105.914 34.6843 105.358 34.7462H105.289C102.443 34.9318 99.6513 35.303 96.9219 35.798C96.6744 36.0455 96.4888 36.2999 96.2413 36.6093C96.3651 36.6093 96.4269 36.5405 96.5507 36.5405V36.5474ZM54.0288 71.8162C54.3382 71.5687 54.7163 71.1974 55.3351 70.9499C56.0554 70.619 56.8326 70.43 57.6244 70.393C58.6763 70.3243 59.4807 70.6405 59.9207 70.7643C69.7726 59.668 79.6313 48.6268 89.4832 37.5374L87.0701 38.2799C81.5494 40.1362 74.2344 43.2368 66.6101 48.6955C59.9502 53.5322 54.0942 59.3882 49.2576 66.048C48.7626 66.7974 48.2057 67.478 47.7038 68.2205C49.8144 69.3962 51.9251 70.6405 54.0288 71.8162ZM52.4201 79.193C51.968 78.3544 51.7317 77.4164 51.7326 76.4637V76.0305C51.7326 76.0305 51.8013 75.7212 51.8013 75.5974L45.4076 72.0018C39.1365 82.6682 35.603 94.721 35.1226 107.085V112.296C35.3082 118.119 36.1126 123.764 37.5426 129.154C43.0563 113.162 48.6388 97.233 54.1526 81.2349C53.4339 80.6879 52.8427 79.9912 52.4201 79.193ZM127.674 40.4524C127.531 40.8936 127.322 41.3108 127.055 41.6899C126.637 42.4572 126.18 43.203 125.687 43.9243C125.378 44.3574 125.068 44.8524 124.759 45.3474C123.949 46.5323 123.101 47.6903 122.215 48.8193C121.782 49.3143 121.411 49.8712 120.978 50.428C120.909 50.4968 120.854 50.6137 120.792 50.6755C119.988 51.6724 119.114 52.7243 118.186 53.7762C117.499 54.5805 116.88 55.3299 116.138 56.1343C117.073 57.1862 118.124 58.2999 119.176 59.5443C119.548 59.9155 119.919 60.3487 120.235 60.7818C120.978 61.5862 121.658 62.3905 122.339 63.2018L124.326 65.553C125.563 67.1068 126.615 68.468 127.488 69.7055C128.231 70.8262 128.602 71.6305 128.726 72.2493V72.4968C128.726 73.1155 128.416 73.7343 127.859 74.298H157.491C157.676 73.8109 157.926 73.3507 158.233 72.9299L127.914 38.8987V39.0224C127.933 39.5105 127.851 39.9972 127.674 40.4524ZM145.459 43.1749C145.336 43.113 145.274 43.0512 145.15 43.0512C144.321 42.6016 143.472 42.1887 142.606 41.8137C142.443 41.7692 142.294 41.684 142.173 41.5662C141.353 41.1834 140.528 40.8121 139.698 40.4524C139.513 40.3837 139.389 40.3287 139.203 40.2668C138.308 39.8766 137.398 39.5234 136.474 39.208C136.35 39.1462 136.226 39.1462 136.103 39.0843C135.174 38.713 134.178 38.4037 133.188 38.0943C142.799 48.8812 152.403 59.7299 162.076 70.5168C162.2 70.5168 162.386 70.448 162.509 70.448H163.809C164.118 70.5168 164.675 70.5787 165.363 70.8262C165.424 70.8262 165.486 70.888 165.548 70.9499C165.61 71.0118 165.734 71.0118 165.796 71.0737C166.261 71.3115 166.697 71.6022 167.095 71.9399C167.157 71.9399 167.157 72.0018 167.219 72.0018C167.404 72.1255 167.528 72.3112 167.652 72.4349C169.701 71.2593 171.743 70.1387 173.729 68.963C167.218 59.0073 158.472 50.709 148.189 44.7287H148.127C147.261 44.1718 146.326 43.6699 145.459 43.1749ZM122.215 73.4249C121.906 73.1774 121.658 72.9299 121.349 72.6824L119.424 70.9499L118.434 69.953C117.334 68.8836 116.279 67.7689 115.271 66.6118C114.529 65.8005 113.848 64.9962 113.168 64.2537C112.48 63.4493 111.738 62.6999 111.057 61.9574C108.768 64.3155 106.843 66.3574 105.234 68.0968C104.863 68.468 104.484 68.9012 104.113 69.2724L103.989 69.3962C103.247 70.1387 102.628 70.8262 102.009 71.4449L101.143 72.3112C100.397 73.0387 99.6097 73.7228 98.7851 74.3599H123.267C123.205 74.2912 123.081 74.2362 123.019 74.1743C122.772 73.858 122.469 73.6724 122.215 73.4249ZM63.4544 74.298H94.0757C93.9519 74.1743 93.8282 73.9818 93.7044 73.858C93.5807 73.7343 93.5188 73.5487 93.4501 73.4249C93.3263 73.1155 93.2026 72.8062 93.2026 72.4968C93.2026 72.3112 93.2713 72.0637 93.3263 71.7543C93.3263 71.6855 93.3951 71.6305 93.3951 71.5687C93.4501 71.4449 93.5188 71.2593 93.6426 71.0737C93.8282 70.7024 94.0757 70.2624 94.3851 69.8362C94.4469 69.7674 94.4469 69.7055 94.5088 69.7055C96.3664 67.0945 98.3726 64.5924 100.518 62.2118C100.913 61.7405 101.326 61.2841 101.755 60.8437C102.195 60.4105 102.566 59.9155 102.999 59.4824C103.928 58.4237 104.856 57.3718 105.667 56.3818C105.729 56.313 105.791 56.258 105.791 56.1962C103.528 53.5737 101.316 50.908 99.1563 48.2005C98.5376 47.3893 97.9807 46.5849 97.4238 45.8424C96.5047 44.5458 95.6555 43.201 94.8801 41.8137L94.5088 41.0712C94.3851 40.8237 94.3232 40.5762 94.1994 40.3837C94.0757 39.9505 93.9519 39.5793 93.9519 39.2699L63.2001 73.7343C63.2688 73.9199 63.3926 74.1124 63.4544 74.298ZM113.291 185.316C133.091 184.596 151.806 176.087 165.363 161.638C148.003 165.481 130.644 169.324 113.291 173.106V185.316ZM185.073 121.096C185.135 120.849 185.135 120.663 185.197 120.409C185.259 119.79 185.383 119.24 185.444 118.621V118.552L185.63 116.627C185.63 116.449 185.692 116.263 185.692 116.077C185.692 115.706 185.754 115.39 185.754 115.019C185.878 113.094 185.939 111.306 185.939 109.629C185.884 98.3509 183.3 87.2291 178.377 77.0824L178.191 76.7112C177.944 76.1543 177.634 75.6593 177.387 75.1024L177.016 74.3599C176.706 73.7962 176.397 73.1774 176.081 72.6205C173.791 73.9268 171.557 75.1643 169.268 76.4705C169.268 76.6493 169.268 76.8349 169.199 77.0205C169.144 77.3918 169.075 77.708 169.013 78.0174C168.951 78.203 168.889 78.3268 168.828 78.5124C168.651 78.9701 168.423 79.4061 168.147 79.8118C168.023 79.9355 167.961 80.0593 167.838 80.183C173.234 95.7412 178.624 111.237 184.014 126.796C184.331 125.496 184.578 124.135 184.826 122.829C184.826 122.705 184.888 122.581 184.888 122.396C184.963 121.962 185.025 121.527 185.073 121.089V121.096Z" fill="white"/>
<path d="M157.546 78.6362C157.92 79.604 158.541 80.4571 159.347 81.1112L110.809 166.471L62.0863 80.74C62.6679 80.1289 63.1317 79.4157 63.4544 78.6362H157.546ZM108.513 134.612C107.661 134.612 106.966 135.3 106.966 136.159V136.187C106.966 136.943 107.441 137.541 108.101 137.713L108.513 137.768C108.72 137.771 108.926 137.732 109.118 137.653C109.309 137.574 109.483 137.457 109.628 137.31C109.773 137.162 109.887 136.986 109.962 136.793C110.038 136.6 110.073 136.394 110.067 136.187V136.159C110.067 135.956 110.027 135.754 109.948 135.566C109.87 135.378 109.756 135.207 109.611 135.063C109.467 134.919 109.296 134.806 109.107 134.728C108.919 134.651 108.717 134.612 108.513 134.612ZM95.4438 119.35C95.1349 119.35 94.8329 119.442 94.5768 119.615C94.3207 119.787 94.1222 120.033 94.0069 120.319L93.9519 120.484L93.8969 120.897C93.8969 121.77 94.5775 122.451 95.4438 122.451C96.31 122.451 96.9906 121.77 96.9906 120.904C96.9906 120.037 96.31 119.35 95.4438 119.35ZM120.304 88.8525C117.203 87.7044 115.368 88.9556 114.57 89.7875L114.508 89.8562C114.323 90.0364 114.166 90.2426 114.041 90.4681C114.041 90.53 113.972 90.5919 114.041 90.5919C114.041 90.6537 114.103 90.6537 114.164 90.7156C119.678 93.445 123.838 95.5487 125.632 96.4769L125.818 96.6006C126.003 96.7244 126.56 96.9787 126.622 97.4119C126.698 97.7762 126.464 98.1475 126.154 98.4775L125.886 98.7387L125.57 99.0206L125.295 99.2544C124.587 99.8456 123.638 100.616 118.441 104.665C118.229 104.878 117.977 105.047 117.698 105.16C117.432 105.307 117.136 105.391 116.832 105.407H116.646C116.337 105.407 116.083 105.407 115.031 104.974C114.578 104.8 114.09 104.736 113.608 104.789L112.989 104.974C112.865 105.036 112.803 105.098 112.679 105.16C112.623 105.214 112.563 105.264 112.501 105.311L112.618 105.222C112.458 105.33 112.311 105.454 112.178 105.593C112.116 105.655 112.116 105.717 112.116 105.779C112.212 105.779 112.274 105.779 112.322 105.806L112.343 105.861L112.432 105.902C112.556 105.902 112.618 105.902 112.741 105.964C112.894 105.968 113.043 106.011 113.174 106.088C113.685 106.297 114.17 106.564 114.618 106.886L114.288 106.645C114.551 106.833 114.799 107.04 115.031 107.264C115.255 107.496 115.462 107.744 115.649 108.006L116.213 108.817L116.708 109.498C116.848 109.772 116.952 110.064 117.018 110.364C117.14 110.789 117.203 111.229 117.203 111.671V112.413C117.203 112.475 117.203 112.537 117.265 112.599L117.293 112.612L117.327 112.661H117.513C117.698 112.537 117.884 112.475 118.008 112.351C118.069 112.227 118.193 112.166 118.255 112.104C118.431 111.982 118.562 111.806 118.626 111.602C118.874 111.052 118.874 110.488 118.874 110.179C118.75 109.003 118.874 108.756 118.998 108.508C118.998 108.439 119.066 108.384 119.066 108.322C119.177 108.042 119.343 107.787 119.554 107.573C119.789 107.349 120.039 107.142 120.304 106.954C122.618 105.287 124.977 103.682 127.378 102.142L127.804 101.867C128.354 101.564 129.166 101.007 129.729 101.317C129.804 101.361 129.871 101.417 129.929 101.482C130.094 101.75 130.176 102.128 130.218 102.307L130.286 102.616C130.651 104.789 131.4 109.251 132.328 115.197C132.328 115.266 132.39 115.321 132.39 115.321C132.397 115.362 132.411 115.39 132.452 115.39C132.514 115.445 132.514 115.445 132.576 115.445C132.638 115.445 136.171 114.641 135.924 109.993L135.429 98.8969V98.6219C135.441 98.0441 135.587 97.4769 135.855 96.9651C136.124 96.4533 136.507 96.0108 136.976 95.6725L140.324 93.0119C140.324 93.0119 142.366 91.5819 141.994 89.3544C141.933 89.2856 141.933 89.2306 141.871 89.2306L141.919 89.2581C141.871 89.1825 141.843 89.1619 141.809 89.1619C139.767 88.11 137.842 89.6637 137.842 89.6637L134.246 92.0769C133.755 92.4668 133.168 92.7183 132.547 92.8053C131.925 92.8923 131.292 92.8117 130.713 92.5719L127.364 91.4031L120.304 88.8525ZM92.405 92.5719C91.9941 92.5737 91.6007 92.7382 91.3108 93.0294C91.0209 93.3206 90.8581 93.7147 90.8581 94.1256V94.1531C90.8581 94.9094 91.3325 95.5006 91.9925 95.6794L92.405 95.7344C92.6122 95.7372 92.8178 95.6981 93.0094 95.6193C93.2011 95.5405 93.3747 95.4237 93.52 95.2759C93.6652 95.1281 93.7789 94.9524 93.8544 94.7595C93.9298 94.5665 93.9653 94.3602 93.9588 94.1531V94.1256C93.9588 93.7135 93.7951 93.3183 93.5037 93.0269C93.2123 92.7356 92.8171 92.5719 92.405 92.5719ZM104.12 84.8237C103.709 84.8256 103.316 84.9901 103.026 85.2812C102.736 85.5724 102.573 85.9666 102.573 86.3775V86.405C102.573 87.1612 103.048 87.7525 103.708 87.9312L104.12 87.9862C104.327 87.9891 104.533 87.95 104.724 87.8712C104.916 87.7924 105.09 87.6756 105.235 87.5278C105.38 87.38 105.494 87.2043 105.569 87.0113C105.645 86.8183 105.68 86.6121 105.674 86.405V86.3775C105.674 85.9654 105.51 85.5702 105.219 85.2788C104.927 84.9874 104.532 84.8237 104.12 84.8237ZM75.795 84.8237C75.591 84.8237 75.3889 84.8639 75.2004 84.942C75.0119 85.0201 74.8406 85.1345 74.6964 85.2788C74.5521 85.4231 74.4376 85.5944 74.3595 85.7829C74.2815 85.9714 74.2413 86.1734 74.2413 86.3775L74.2481 86.405C74.2481 87.1612 74.7156 87.7525 75.3756 87.9312L75.7881 87.9862C75.9953 87.9891 76.2009 87.95 76.3926 87.8712C76.5842 87.7924 76.7579 87.6756 76.9031 87.5278C77.0483 87.38 77.1621 87.2043 77.2375 87.0113C77.3129 86.8183 77.3484 86.6121 77.3419 86.405V86.3775C77.3419 85.5181 76.6544 84.8237 75.795 84.8237ZM55.7063 154.632C55.9538 153.45 56.2563 152.212 56.6344 150.782L57.0056 149.297C57.5625 147.317 58.1813 145.207 58.9306 143.041C59.1094 142.484 59.295 141.982 59.4188 141.487C59.735 140.497 60.0375 139.507 60.3538 138.579C60.4691 138.135 60.6138 137.698 60.7869 137.273C59.1094 136.902 57.1294 136.407 55.0188 135.967C52.9416 135.502 50.8761 134.987 48.8244 134.42C47.3325 133.987 45.9713 133.616 44.7956 133.182C44.3625 133.059 43.9844 132.873 43.6131 132.749C43.1707 132.586 42.737 132.4 42.3138 132.192C41.9886 132.035 41.678 131.848 41.3856 131.636C40.8288 133.182 40.3269 134.729 39.77 136.283C42.4375 143.412 46.095 149.985 50.6806 155.932C52.2963 156.303 53.8431 156.619 55.4519 156.984C55.4322 156.192 55.5177 155.402 55.7063 154.632ZM42.9325 127.05C43.4275 126.981 43.9225 126.919 44.5481 126.919C45.9713 126.919 47.6419 126.988 49.5669 127.174C51.5469 127.359 53.7194 127.669 56.0775 128.102C58.4906 128.535 60.9725 128.968 63.5163 129.525C64.1969 127.6 64.8775 125.558 65.62 123.331C66.6525 120.295 67.7899 117.295 69.03 114.338C69.3772 113.543 69.7486 112.759 70.1438 111.987C70.3913 111.423 70.6388 110.99 70.8931 110.619C71.0932 110.31 71.321 110.02 71.5738 109.752C71.7028 109.629 71.8486 109.525 72.0069 109.443C72.2871 109.275 72.6086 109.19 72.935 109.196L58.25 82.9744L42.9394 127.043L42.9325 127.05ZM81.9206 141.673C81.4256 141.549 80.8688 141.487 80.3738 141.364C79.2736 141.16 78.1779 140.933 77.0875 140.683L75.4169 140.312C73.1206 139.817 71.0169 139.384 69.03 139.006C68.5969 140.25 68.1638 141.426 67.6688 142.67C67.2503 143.842 66.794 145 66.3006 146.142C65.8675 147.256 65.4344 148.307 65.0013 149.359C64.5894 150.321 64.1538 151.272 63.695 152.212C62.9739 153.746 62.1683 155.237 61.2819 156.681C61.0329 157.154 60.7207 157.592 60.3538 157.981L106.719 168.204L91.2844 141.735L91.0369 141.982C90.9289 142.088 90.8032 142.174 90.6656 142.237C90.1088 142.546 89.05 142.608 87.4344 142.484C86.1085 142.34 84.7878 142.152 83.4744 141.921C82.9175 141.859 82.4225 141.735 81.9206 141.673ZM76.0975 116.82C75.9738 117.439 75.7881 118.126 75.6025 118.862L75.2313 120.354C74.7981 121.839 74.3581 123.392 73.8013 125.001C73.4227 126.067 73.0719 127.142 72.7494 128.226C72.3781 129.277 72.0619 130.329 71.6975 131.319C73.3681 131.759 74.9838 132.131 76.4069 132.502C77.1494 132.687 77.83 132.873 78.5175 132.997C79.1981 133.182 79.8169 133.306 80.4356 133.492C80.745 133.561 81.0544 133.616 81.3019 133.739L82.175 133.925C82.725 134.049 83.2269 134.172 83.7219 134.358C84.7119 134.612 85.6469 134.86 86.3894 135.107C87.1319 135.293 87.7506 135.541 88.3144 135.726L76.5306 115.019C76.3428 115.608 76.198 116.21 76.0975 116.82ZM68.5969 172.672C69.8344 173.477 71.1406 174.281 72.5638 175.086C76.4069 177.32 80.0644 178.991 83.3506 180.297C84.2788 180.668 85.2069 181.039 86.2656 181.411C93.5418 183.871 101.15 185.209 108.829 185.377V173.167C90.975 169.262 73.1825 165.296 55.3281 161.391C59.3404 165.607 63.7881 169.387 68.5969 172.666V172.672Z" fill="white"/>
</g>
<defs>
<clipPath id="clip0_2_21260">
<rect width="220" height="220" fill="white" transform="translate(0.5)"/>
</clipPath>
</defs>
</svg>
