<svg width="221" height="220" viewBox="0 0 221 220" fill="none" xmlns="http://www.w3.org/2000/svg">
<g clip-path="url(#clip0_2_21256)">
<path d="M110.5 220C171.251 220 220.5 170.751 220.5 110C220.5 49.2487 171.251 0 110.5 0C49.7487 0 0.5 49.2487 0.5 110C0.5 170.751 49.7487 220 110.5 220Z" fill="#343434"/>
<path d="M164.929 145.131C166.142 144.714 167.183 143.909 167.891 142.84C168.6 141.771 168.936 140.498 168.848 139.219V146.781C168.857 148.068 168.469 149.326 167.737 150.384C167.005 151.442 165.964 152.249 164.757 152.694L112.59 171.483C111.274 172.007 109.808 172.007 108.492 171.483L56.3247 152.701C55.112 152.264 54.0659 151.46 53.3325 150.4C52.5992 149.34 52.2151 148.077 52.2341 146.788V139.226C52.2341 141.831 53.8497 144.265 56.3247 145.138L108.664 163.921C109.978 164.442 111.441 164.442 112.755 163.921L164.929 145.131ZM164.929 131.739C166.129 131.303 167.158 130.493 167.864 129.429C168.569 128.365 168.914 127.102 168.848 125.826V133.389C168.857 134.675 168.469 135.933 167.737 136.991C167.005 138.049 165.964 138.856 164.757 139.301L112.59 158.091C111.274 158.614 109.808 158.614 108.492 158.091L56.3247 139.308C55.112 138.872 54.0659 138.067 53.3325 137.007C52.5992 135.947 52.2151 134.685 52.2341 133.396V125.744C52.2341 128.439 53.8497 130.783 56.3247 131.739L108.664 150.528C109.978 151.05 111.441 151.05 112.755 150.528L164.929 131.739ZM164.929 118.264C166.124 117.836 167.155 117.042 167.874 115.996C168.594 114.949 168.965 113.703 168.937 112.434V119.996C168.946 121.284 168.556 122.542 167.823 123.6C167.09 124.659 166.048 125.465 164.84 125.909L112.672 144.698C111.359 145.22 109.895 145.22 108.582 144.698L56.3247 125.826C55.112 125.39 54.0659 124.585 53.3325 123.525C52.5992 122.465 52.2151 121.203 52.2341 119.914V112.351C52.2341 114.957 53.8497 117.391 56.3247 118.264L108.664 137.046C109.978 137.568 111.441 137.568 112.755 137.046L164.929 118.264ZM52.0622 73.3014C52.0433 72.0126 52.4273 70.75 53.1606 69.6901C53.894 68.6301 54.9401 67.8256 56.1528 67.3889L108.41 48.517C109.723 47.9953 111.187 47.9953 112.5 48.517L164.757 67.3889C165.97 67.8256 167.016 68.6301 167.749 69.6901C168.483 70.75 168.867 72.0126 168.848 73.3014V106.521C168.857 107.808 168.469 109.066 167.737 110.124C167.005 111.182 165.964 111.989 164.757 112.434L112.418 131.216C111.104 131.738 109.641 131.738 108.327 131.216L56.1528 112.434C54.9401 111.997 53.894 111.193 53.1606 110.133C52.4273 109.073 52.0433 107.81 52.0622 106.521V73.3014Z" fill="white"/>
</g>
<defs>
<clipPath id="clip0_2_21256">
<rect width="220" height="220" fill="white" transform="translate(0.5)"/>
</clipPath>
</defs>
</svg>
