<svg width="221" height="220" viewBox="0 0 221 220" fill="none" xmlns="http://www.w3.org/2000/svg">
<g clip-path="url(#clip0_2_21252)">
<path d="M110.5 220C171.251 220 220.5 170.751 220.5 110C220.5 49.2487 171.251 0 110.5 0C49.7487 0 0.5 49.2487 0.5 110C0.5 170.751 49.7487 220 110.5 220Z" fill="#0061FF"/>
<path d="M110.569 41.25L179.25 110.962L176.672 113.3C175.5 114.407 174.279 115.463 173.014 116.463C170.773 118.257 168.408 120.044 166.029 121.632C156.411 128.145 145.712 132.899 134.432 135.671C126.622 137.596 118.606 138.559 110.569 138.559C100.394 138.559 90.2875 137.046 80.5937 133.952C70.6766 130.837 61.3176 126.166 52.8669 120.113C49.9448 117.97 47.1188 115.699 44.3969 113.307L41.75 110.962L49.2781 103.317L110.569 41.25ZM170.643 113.231C171.66 112.406 172.671 111.581 173.558 110.688L110.5 46.8187L47.4494 110.688L48.735 111.787C50.8387 113.506 52.9356 115.225 55.1081 116.737C71.2651 128.347 90.6736 134.561 110.569 134.496C118.315 134.487 126.033 133.54 133.552 131.677C144.39 128.999 154.672 124.433 163.926 118.188C166.249 116.662 168.491 115.005 170.643 113.238V113.231ZM67.3113 109.931C80.5877 104.016 94.9481 100.923 109.482 100.849C126.574 100.849 143.383 105.387 158.096 114.063L159.051 114.613L158.096 115.232C148.374 121.473 137.526 125.751 126.161 127.827L125.893 127.896L125.687 127.758C108.373 116.971 88.3843 111.248 67.985 111.238H64.2588L67.3113 109.931ZM126.704 123.695C135.312 122.045 143.521 119.089 151.111 114.819C138.198 108.237 123.907 104.816 109.414 104.837C100.682 104.837 91.9994 106.006 83.5844 108.343C98.8469 110.406 113.518 115.631 126.704 123.695ZM149.419 137.253C146.357 141.419 143.099 145.438 139.657 149.298L110.569 178.75L90.095 158.036L94.4262 157.761C108.91 156.864 122.993 152.648 135.587 145.441C139.382 143.584 149.419 137.253 149.419 137.253ZM98.9088 161.343L110.569 173.174L131.18 152.254C121.025 157.115 110.108 160.189 98.9088 161.343Z" fill="white"/>
</g>
<defs>
<clipPath id="clip0_2_21252">
<rect width="220" height="220" fill="white" transform="translate(0.5)"/>
</clipPath>
</defs>
</svg>
