<svg width="221" height="220" viewBox="0 0 221 220" fill="none" xmlns="http://www.w3.org/2000/svg">
<g clip-path="url(#clip0_2_21248)">
<path d="M110.5 220C171.251 220 220.5 170.751 220.5 110C220.5 49.2487 171.251 0 110.5 0C49.7487 0 0.5 49.2487 0.5 110C0.5 170.751 49.7487 220 110.5 220Z" fill="#346FCE"/>
<path fill-rule="evenodd" clip-rule="evenodd" d="M139.1 128.604L145.672 140.958C149.411 147.991 150.203 156.221 147.875 163.838C145.546 171.455 140.288 177.835 133.256 181.576L132.404 182.03C128.921 183.882 125.107 185.03 121.181 185.408C117.255 185.787 113.292 185.388 109.52 184.235C105.747 183.082 102.239 181.198 99.1952 178.689C96.1512 176.18 93.6312 173.096 91.7791 169.613L69.621 127.937C66.0184 121.162 65.1452 113.266 67.1804 105.867C69.2157 98.4691 74.0051 92.1302 80.566 88.1514L73.9935 75.797C70.2554 68.7633 69.4642 60.5327 71.7939 52.9157C74.1237 45.2986 79.3835 38.9189 86.4166 35.1795L87.2691 34.7258C94.3021 30.9872 102.532 30.1949 110.149 32.5233C117.766 34.8517 124.146 40.1101 127.887 47.142L150.045 88.8183C153.648 95.5923 154.522 103.488 152.488 110.886C150.454 118.285 145.666 124.624 139.107 128.604H139.1ZM139.1 128.604L123.514 99.282C119.774 92.2501 113.393 86.9917 105.776 84.6633C98.1594 82.3349 89.9296 83.1272 82.8966 86.8658L82.0441 87.3127C81.5423 87.5877 81.0473 87.8627 80.566 88.1514L96.1585 117.473C99.899 124.505 106.279 129.764 113.896 132.092C121.513 134.42 129.743 133.628 136.776 129.89L137.628 129.443C138.13 129.168 138.625 128.893 139.107 128.604H139.1Z" fill="white"/>
</g>
<defs>
<clipPath id="clip0_2_21248">
<rect width="220" height="220" fill="white" transform="translate(0.5)"/>
</clipPath>
</defs>
</svg>
