<svg width="221" height="220" viewBox="0 0 221 220" fill="none" xmlns="http://www.w3.org/2000/svg">
<g clip-path="url(#clip0_2_21237)">
<path d="M110.5 220C171.251 220 220.5 170.751 220.5 110C220.5 49.2487 171.251 0 110.5 0C49.7487 0 0.5 49.2487 0.5 110C0.5 170.751 49.7487 220 110.5 220Z" fill="#2E3148"/>
<path d="M110.637 38.019C101.734 38.019 94.5156 70.3109 94.5156 110.138C94.5156 149.965 101.734 182.257 110.637 182.257C119.534 182.257 126.752 149.965 126.752 110.138C126.752 70.3109 119.534 38.019 110.637 38.019ZM111.751 178.18C110.734 179.541 109.709 178.523 109.709 178.523C105.612 173.766 103.563 164.945 103.563 164.945C96.3925 141.866 98.0975 92.3178 98.0975 92.3178C101.466 52.9859 107.599 43.6909 109.682 41.6284C109.895 41.4169 110.177 41.2877 110.476 41.2638C110.776 41.2399 111.074 41.3228 111.318 41.4978C114.343 43.6497 116.887 52.6147 116.887 52.6147C124.381 80.4447 123.7 106.57 123.7 106.57C124.381 129.312 119.946 154.763 119.946 154.763C116.529 174.11 111.751 178.18 111.751 178.18Z" fill="white"/>
<path d="M173.186 74.2505C168.752 66.523 137.161 76.3337 102.601 96.1543C68.0402 115.975 43.6615 138.298 48.0821 146.026C52.5165 153.753 84.114 143.942 118.675 124.122C153.235 104.301 177.621 81.9712 173.193 74.2505H173.186ZM52.1659 144.96C50.4746 144.754 50.8596 143.351 50.8596 143.351C52.9359 137.439 59.5634 131.265 59.5634 131.265C76.0152 113.562 119.85 90.3862 119.85 90.3862C155.641 73.7349 166.758 74.4362 169.577 75.2062C169.868 75.286 170.121 75.4668 170.291 75.7162C170.461 75.9656 170.537 76.2673 170.505 76.5674C170.161 80.2593 163.63 86.928 163.63 86.928C143.239 107.285 120.235 119.708 120.235 119.708C100.848 131.616 76.5584 140.422 76.5584 140.422C58.0784 147.077 52.1659 144.96 52.1659 144.96Z" fill="white"/>
<path d="M173.028 146.279C177.497 138.579 153.18 116.146 118.73 96.1745C84.2858 76.2095 52.7021 66.282 48.2402 73.9957C43.7714 81.7163 68.0952 104.129 102.553 124.101C137.017 144.066 168.566 153.993 173.028 146.279ZM51.2033 76.9726C50.5364 75.4051 51.9321 75.027 51.9321 75.027C58.0989 73.8582 66.7614 76.5188 66.7614 76.5188C90.3221 81.8813 132.335 108.199 132.335 108.199C164.682 130.831 169.646 140.807 170.388 143.633C170.463 143.923 170.434 144.23 170.304 144.501C170.175 144.771 169.954 144.987 169.68 145.111C166.311 146.658 157.271 144.354 157.271 144.354C129.427 136.888 107.159 123.214 107.159 123.214C87.1527 112.42 67.3664 95.817 67.3664 95.817C52.3308 83.1532 51.2102 76.9795 51.2102 76.9795L51.1964 76.9726H51.2033Z" fill="white"/>
<path d="M110.466 118.449C115.152 118.449 118.95 114.651 118.95 109.966C118.95 105.28 115.152 101.482 110.466 101.482C105.781 101.482 101.982 105.28 101.982 109.966C101.982 114.651 105.781 118.449 110.466 118.449Z" fill="white"/>
<path d="M145.253 84.2607C149.05 84.2607 152.128 81.1827 152.128 77.3857C152.128 73.5888 149.05 70.5107 145.253 70.5107C141.456 70.5107 138.378 73.5888 138.378 77.3857C138.378 81.1827 141.456 84.2607 145.253 84.2607Z" fill="white"/>
<path d="M64.4785 101.571C68.2755 101.571 71.3535 98.4928 71.3535 94.6958C71.3535 90.8988 68.2755 87.8208 64.4785 87.8208C60.6816 87.8208 57.6035 90.8988 57.6035 94.6958C57.6035 98.4928 60.6816 101.571 64.4785 101.571Z" fill="white"/>
<path d="M100.456 164.01C104.253 164.01 107.331 160.932 107.331 157.135C107.331 153.338 104.253 150.26 100.456 150.26C96.6591 150.26 93.5811 153.338 93.5811 157.135C93.5811 160.932 96.6591 164.01 100.456 164.01Z" fill="white"/>
</g>
<defs>
<clipPath id="clip0_2_21237">
<rect width="220" height="220" fill="white" transform="translate(0.5)"/>
</clipPath>
</defs>
</svg>
