<svg width="221" height="220" viewBox="0 0 221 220" fill="none" xmlns="http://www.w3.org/2000/svg">
<g clip-path="url(#clip0_2_21233)">
<path d="M220.5 110C220.5 131.756 214.049 153.023 201.962 171.113C189.875 189.202 172.695 203.301 152.595 211.627C132.495 219.952 110.378 222.131 89.0401 217.886C67.7022 213.642 48.1021 203.166 32.7183 187.782C17.3345 172.398 6.85804 152.798 2.61367 131.46C-1.63071 110.122 0.547661 88.0047 8.8733 67.9048C17.1989 47.805 31.2979 30.6253 49.3873 18.5383C67.4767 6.45139 88.7441 0 110.5 0C139.674 0 167.653 11.5893 188.282 32.2183C208.911 52.8473 220.5 80.8262 220.5 110Z" fill="#001B69"/>
<path d="M105.91 152.46L96.59 125.65H64.87L55.44 152.46H44.5L75.76 65.5901H85.65L116.96 152.46H105.91ZM93.16 115.89L84.5 90.8001C84.2667 90.0934 83.9767 89.2234 83.63 88.1901C83.32 87.1901 82.99 86.0601 82.63 84.8801C82.27 83.7001 81.93 82.4701 81.58 81.2101C81.23 79.9501 80.91 78.6501 80.58 77.4201C80.3 78.6501 79.99 79.9101 79.64 81.2101C79.29 82.5101 78.95 83.7801 78.64 85.0001C78.33 86.2201 77.94 87.2901 77.64 88.3101C77.34 89.3301 77.06 90.1301 76.82 90.8001L68.38 115.89H93.16Z" fill="white"/>
<path d="M176.5 126.07C176.534 128.647 176.037 131.203 175.04 133.58C174.084 135.813 172.654 137.813 170.85 139.44C168.92 141.195 166.696 142.597 164.28 143.58C161.479 144.715 158.546 145.491 155.55 145.89V159.5H147.55V146.42C145.61 146.42 143.653 146.343 141.68 146.19C139.707 146.037 137.783 145.76 135.91 145.36C134.139 145.026 132.39 144.589 130.67 144.05C129.184 143.597 127.744 143.004 126.37 142.28V132.1C127.65 132.727 129.123 133.393 130.79 134.1C132.5 134.74 134.28 135.31 136.15 135.82C138.02 136.33 139.91 136.77 141.85 137.12C143.734 137.432 145.64 137.593 147.55 137.6V111.86C144.468 110.83 141.461 109.587 138.55 108.14C136.246 106.983 134.129 105.486 132.27 103.7C130.619 102.054 129.334 100.077 128.5 97.9C127.643 95.4496 127.229 92.8657 127.28 90.27C127.245 87.7926 127.722 85.3347 128.68 83.05C129.622 80.8738 131.008 78.9185 132.75 77.31C134.629 75.6067 136.796 74.2521 139.15 73.31C141.819 72.2036 144.63 71.4765 147.5 71.15V60.5H155.5V70.91C159.112 71.0694 162.7 71.5852 166.21 72.45C169.248 73.1927 172.208 74.2241 175.05 75.53L171.21 84.11C168.834 83.0492 166.384 82.1603 163.88 81.45C161.152 80.6194 158.342 80.0831 155.5 79.85V104.85C158.571 105.938 161.576 107.204 164.5 108.64C166.904 109.781 169.123 111.278 171.08 113.08C172.812 114.635 174.178 116.554 175.08 118.7C176.044 121.036 176.527 123.543 176.5 126.07ZM166.26 126.07C166.275 124.861 166.075 123.659 165.67 122.52C165.292 121.389 164.655 120.361 163.81 119.52C162.872 118.512 161.769 117.67 160.55 117.03C158.943 116.172 157.271 115.439 155.55 114.84V137C159.16 136.45 161.83 135.21 163.55 133.28C165.362 131.324 166.335 128.735 166.26 126.07ZM137.5 90.38C137.486 91.6784 137.644 92.973 137.97 94.23C138.331 95.3553 138.905 96.4009 139.66 97.31C140.543 98.3013 141.583 99.1393 142.74 99.79C144.26 100.648 145.857 101.361 147.51 101.92V80.09C144.063 80.7167 141.523 81.92 139.89 83.7C138.26 85.5339 137.403 87.9281 137.5 90.38Z" fill="white"/>
</g>
<defs>
<clipPath id="clip0_2_21233">
<rect width="220" height="220" fill="white" transform="translate(0.5)"/>
</clipPath>
</defs>
</svg>
