<svg width="221" height="220" viewBox="0 0 221 220" fill="none" xmlns="http://www.w3.org/2000/svg">
<g clip-path="url(#clip0_2_21229)">
<path d="M110.5 220C171.251 220 220.5 170.751 220.5 110C220.5 49.2487 171.251 0 110.5 0C49.7487 0 0.5 49.2487 0.5 110C0.5 170.751 49.7487 220 110.5 220Z" fill="#34318A"/>
<path d="M75.1213 91.1896L99.94 104.39L113.14 97.7896L81.5906 80.6983V50.5996L142.249 82.0871L155.449 75.4871L77.7613 34.7596C76.8754 34.2942 75.8843 34.0655 74.8841 34.0957C73.8839 34.1259 72.9084 34.4139 72.0522 34.9319C71.196 35.4499 70.4882 36.1803 69.9972 37.0523C69.5063 37.9242 69.2489 38.9083 69.25 39.9089V81.6196C69.2706 85.6552 71.5325 89.3471 75.1213 91.1896ZM169.701 84.1908C168.843 83.3573 167.748 82.809 166.567 82.6208C165.386 82.4325 164.175 82.6135 163.101 83.1389L75.1213 128.81C71.5119 130.666 69.2431 134.385 69.25 138.448V180.09C69.2489 181.091 69.5063 182.075 69.9972 182.947C70.4882 183.819 71.196 184.549 72.0522 185.067C72.9084 185.585 73.8839 185.873 74.8841 185.903C75.8843 185.934 76.8754 185.705 77.7613 185.24L165.541 139.7C169.206 137.802 171.481 133.993 171.419 129.868V88.2883C171.42 87.5254 171.268 86.7701 170.973 86.0665C170.677 85.363 170.245 84.7253 169.701 84.1908ZM159.141 129.14L81.5906 169.4V139.301L159.141 99.0408V129.14Z" fill="white"/>
</g>
<defs>
<clipPath id="clip0_2_21229">
<rect width="220" height="220" fill="white" transform="translate(0.5)"/>
</clipPath>
</defs>
</svg>
