<svg width="221" height="220" viewBox="0 0 221 220" fill="none" xmlns="http://www.w3.org/2000/svg">
<g clip-path="url(#clip0_2_21225)">
<path d="M110.5 220C171.251 220 220.5 170.751 220.5 110C220.5 49.2487 171.251 0 110.5 0C49.7487 0 0.5 49.2487 0.5 110C0.5 170.751 49.7487 220 110.5 220Z" fill="#FAB431"/>
<path fill-rule="evenodd" clip-rule="evenodd" d="M168.938 132.461L140.166 115.198L143.466 101.523L155.751 108.776V83.8062L116.289 60.28V114.592L106.904 119.783L158.728 150.514L110.5 178.75L52.0625 144.526V76.0856L110.5 41.25L168.938 76.0856V132.461ZM65.2488 83.8062V128.342L103.185 106.343V61.1875L65.2488 83.7994V83.8062ZM93.4156 127.421L71.8419 140.614L110.5 163.247L132.328 150.459L93.4156 127.414V127.421Z" fill="white"/>
</g>
<defs>
<clipPath id="clip0_2_21225">
<rect width="220" height="220" fill="white" transform="translate(0.5)"/>
</clipPath>
</defs>
</svg>
