<svg width="221" height="220" viewBox="0 0 221 220" fill="none" xmlns="http://www.w3.org/2000/svg">
<g clip-path="url(#clip0_2_21218)">
<path d="M110.5 220C171.251 220 220.5 170.751 220.5 110C220.5 49.2487 171.251 0 110.5 0C49.7487 0 0.5 49.2487 0.5 110C0.5 170.751 49.7487 220 110.5 220Z" fill="#3355B5"/>
<path d="M110.5 27.5C64.9394 27.5 28 64.4394 28 110C28 155.561 64.9394 192.5 110.5 192.5C156.061 192.5 193 155.561 193 110C193 88.1196 184.308 67.1354 168.836 51.6637C153.365 36.1919 132.38 27.5 110.5 27.5ZM110.5 190.919C65.8125 190.919 29.5813 154.688 29.5813 110C29.5813 65.3125 65.8125 29.0813 110.5 29.0813C155.188 29.0813 191.419 65.3125 191.419 110C191.419 131.461 182.893 152.043 167.718 167.218C152.543 182.393 131.961 190.919 110.5 190.919Z" fill="white"/>
<path fill-rule="evenodd" clip-rule="evenodd" d="M133.118 92.8122L132.912 92.056L132.706 91.2997L132.5 90.4747L132.225 89.7872L132.018 89.031L131.743 88.3435L131.4 87.5872L131.125 86.8997L130.781 86.281L130.437 85.5935L130.093 84.9747L129.681 84.356L129.337 83.806L128.925 83.1872L128.512 82.706L128.031 82.156L127.618 81.6747L127.206 81.1935L126.725 80.781L126.243 80.3685L125.762 79.956L125.281 79.6122L124.731 79.2685L124.25 78.9935L123.7 78.6497L123.218 78.4435L122.668 78.1685L122.118 77.9622L121.568 77.756L120.95 77.6185L120.4 77.481L119.85 77.3435L119.231 77.2747L118.612 77.206L118.062 77.1372H116.206L115.587 77.206L114.968 77.2747L114.281 77.3435L113.662 77.481L113.043 77.6185L112.425 77.756L111.737 77.9622L111.118 78.1685L110.431 78.3747L109.743 78.6497L109.125 78.9247L108.437 79.2685L107.818 79.5435L107.131 79.8872L106.443 80.2997L105.825 80.6435L105.137 81.056L104.45 81.5372L103.831 81.9497L103.143 82.431L102.456 82.981L101.768 83.4622L101.15 84.0122L100.462 84.5622L99.8434 85.181L99.1559 85.7997L98.4684 86.4185L97.8496 87.106L97.1621 87.7935L96.5434 88.481L95.9246 89.1685L95.2371 89.9247L94.6184 90.681L93.9996 91.4372L93.3809 92.2622L92.7621 93.0872L92.1434 93.981L91.3184 95.1497L90.4934 96.3872L89.6684 97.6935L88.9121 98.931L88.1559 100.306L87.3996 101.612L86.7121 102.918L86.0246 104.293L85.4059 105.668L84.7871 107.043L84.2371 108.418L83.7559 109.518L133.187 93.3622L133.118 92.8122ZM88.4996 116.943L132.293 116.6L132.5 115.637L132.706 114.675L132.912 113.712L133.118 112.681L133.256 111.718L133.462 110.756L133.6 109.793L133.668 108.831L133.806 107.868L133.875 106.906L133.943 106.012L134.012 105.05L134.081 104.087V102.093L88.4996 116.943Z" fill="white"/>
<path d="M110.5 31.3506C67.0634 31.3506 31.8496 66.5643 31.8496 110.001C31.8496 153.437 67.0634 188.651 110.5 188.651C153.936 188.651 189.15 153.437 189.15 110.001C189.15 99.6721 187.115 89.4448 183.163 79.9025C179.21 70.3603 173.417 61.69 166.114 54.3866C158.81 47.0833 150.14 41.29 140.598 37.3375C131.055 33.3849 120.828 31.3506 110.5 31.3506ZM155.05 116.326L153.675 124.438H141.368L140.956 125.813L140.2 127.876L139.443 129.938L138.618 132.001L138 134.063L137.106 136.057L136.143 138.051L135.181 140.044L134.15 141.969L133.118 143.894L132.018 145.751L130.918 147.607L129.75 149.463L128.375 151.251L127.756 152.144L127.137 153.038L120.743 142.313L121.362 141.419L121.981 140.526L122.531 139.632L123.081 138.738L123.631 137.844L124.181 136.951L124.731 136.057L125.212 135.163L125.693 134.201L126.175 133.238L126.656 132.276L127.137 131.313L127.55 130.351L127.962 129.388L128.375 128.426L128.787 127.463L129.2 126.501L129.543 125.538V124.713L79.5621 125.126V137.844L66.7746 146.713V125.126H63.0621L61.6871 125.607L59.3496 117.426L70.8996 113.644V112.751L71.3809 111.307L72.0684 110.001L72.5496 108.626L73.0996 107.251L73.6496 105.876L74.1996 104.501L74.7496 103.126L75.3684 101.751L75.9871 100.376L76.6059 99.0006L77.2246 97.6943L77.9121 96.3881L78.5996 95.0818L79.2871 93.7756L79.9746 92.4693L80.7309 91.1631L81.4871 89.9256L82.2434 88.6881L82.9996 87.3818L83.7559 86.1443L84.5809 84.9756L85.4059 83.8068L86.1621 82.5006L86.9871 81.3318L87.8121 80.2318L88.7059 79.1318L89.8746 78.1693L90.7684 77.1381L91.6621 76.1068L92.5559 75.0756L93.5184 74.1131L94.4809 73.1506L95.4434 72.1881L96.4059 71.2943L97.3684 70.4006L98.3309 69.5068L99.0871 68.7506L100.118 67.9256L101.15 67.1693L102.181 66.4131L103.212 65.6568L104.243 64.9693L105.275 64.3506L106.306 63.7318L107.337 63.1818L108.368 62.6318L109.262 61.8756L110.5 61.5318L111.462 61.1193L112.425 60.7068L113.387 60.3631H129.956L130.712 60.7068L131.468 61.0506L132.225 61.4631L132.981 61.8756L133.668 62.3568L134.356 62.8381L135.043 63.3881L135.731 63.9381L136.35 64.5568L136.968 65.1756L137.587 65.8631L138.206 66.5506L138.756 67.3068L139.306 68.0631L139.856 68.8193L140.406 69.6443L140.887 70.4693L141.368 71.3631L141.85 72.2568L142.262 73.2193L142.675 74.1818L143.087 75.1443L143.5 76.1756L143.843 77.2068V89.3756L150.718 87.1756L153.056 95.3568L144.256 98.2443V109.451L143.912 111.513L143.5 113.576L143.018 115.638V116.532L155.05 116.326Z" fill="white"/>
</g>
<defs>
<clipPath id="clip0_2_21218">
<rect width="220" height="220" fill="white" transform="translate(0.5)"/>
</clipPath>
</defs>
</svg>
