<svg width="221" height="220" viewBox="0 0 221 220" fill="none" xmlns="http://www.w3.org/2000/svg">
<g clip-path="url(#clip0_2_21214)">
<path d="M110.5 220C171.251 220 220.5 170.751 220.5 110C220.5 49.2487 171.251 0 110.5 0C49.7487 0 0.5 49.2487 0.5 110C0.5 170.751 49.7487 220 110.5 220Z" fill="#F19F13"/>
<path d="M157.044 95.906H190.525L193 82.156H160.619C154.235 82.3546 148.047 84.4092 142.813 88.0685C140.888 81.1935 122.188 82.156 122.188 82.156L124.662 68.406H117.375L114.9 82.156H107.269L109.4 68.406H101.494L98.6063 82.156H90.425L86.2313 103.606L80.6625 82.5685H62.375L28 133.1H56.325L59.2125 119.694H53.4375L69.9375 95.5623L76.125 119.831H69.9375L67.2562 133.1H88.2938L86.575 142.312H94.825L96.75 133.1H103.625L101.906 142.312H110.5L112.219 133.1H122.944C127.875 132.54 132.44 130.222 135.8 126.569C139.805 130.622 145.228 132.964 150.925 133.1H183.306L185.438 119.694H156.356C136.35 119.35 144.875 95.7685 157.044 95.906ZM120.675 119.35H99.225L100.944 112.819H121.569C126.794 113.162 125.075 119.35 120.675 119.35ZM123.906 101.75H102.456L104.175 95.2185H124.8C130.025 95.5623 128.1 102.025 123.906 102.025V101.75Z" fill="white"/>
</g>
<defs>
<clipPath id="clip0_2_21214">
<rect width="220" height="220" fill="white" transform="translate(0.5)"/>
</clipPath>
</defs>
</svg>
