<svg width="221" height="220" viewBox="0 0 221 220" fill="none" xmlns="http://www.w3.org/2000/svg">
<g clip-path="url(#clip0_2_21207)">
<path d="M110.5 220C171.251 220 220.5 170.751 220.5 110C220.5 49.2487 171.251 0 110.5 0C49.7487 0 0.5 49.2487 0.5 110C0.5 170.751 49.7487 220 110.5 220Z" fill="#1E1E1E"/>
<path d="M111.132 159.472C72.8112 159.472 41.75 148.403 41.75 133.567C41.75 125.826 50.2062 118.855 63.75 113.932C74.3237 120.718 92.0544 124.197 112.164 124.197C131.799 124.197 149.151 119.955 159.807 113.458C172.588 118.318 180.522 125.104 180.522 132.584C180.522 147.441 149.461 159.472 111.132 159.472Z" fill="white"/>
<path d="M111.545 120.863C82.4913 120.863 58.9375 111.754 58.9375 100.513C58.9375 94.2843 66.1975 88.7018 77.5825 84.9824C85.7087 89.2243 97.8844 91.933 111.545 91.933C125.206 91.933 137.381 89.2243 145.507 84.9893C156.913 88.7224 164.152 94.2843 164.152 100.513C164.173 111.754 140.612 120.863 111.545 120.863Z" fill="white"/>
<path d="M111.352 88.55C88.8916 88.55 70.6797 81.0287 70.6797 71.775C70.6797 62.5281 88.8984 55 111.352 55C133.806 55 152.025 62.5281 152.025 71.775C152.025 81.0287 133.806 88.55 111.352 88.55Z" fill="white"/>
</g>
<defs>
<clipPath id="clip0_2_21207">
<rect width="220" height="220" fill="white" transform="translate(0.5)"/>
</clipPath>
</defs>
</svg>
