<svg width="221" height="220" viewBox="0 0 221 220" fill="none" xmlns="http://www.w3.org/2000/svg">
<g clip-path="url(#clip0_2_21201)">
<path d="M110.5 220C171.251 220 220.5 170.751 220.5 110C220.5 49.2487 171.251 0 110.5 0C49.7487 0 0.5 49.2487 0.5 110C0.5 170.751 49.7487 220 110.5 220Z" fill="#516AFF"/>
<path d="M126.216 85.7931L141.341 94.435V51.2187L111.091 36.0938L64.0938 62.5625V156.551L111.091 183.562L157.546 156.014V109.56L112.707 82.5481L97.5819 90.1106L142.421 116.579L142.957 148.452L111.091 166.279L78.6756 147.909V70.125L111.091 52.2981L126.216 60.4037V85.7931Z" fill="white"/>
<path d="M109.469 111.72L119.733 106.316L131.077 113.342L97.582 132.248V93.3564L109.469 100.376" fill="white"/>
</g>
<defs>
<clipPath id="clip0_2_21201">
<rect width="220" height="220" fill="white" transform="translate(0.5)"/>
</clipPath>
</defs>
</svg>
