<svg width="221" height="220" viewBox="0 0 221 220" fill="none" xmlns="http://www.w3.org/2000/svg">
<g clip-path="url(#clip0_2_21186)">
<path d="M110.5 220C171.251 220 220.5 170.751 220.5 110C220.5 49.2487 171.251 0 110.5 0C49.7487 0 0.5 49.2487 0.5 110C0.5 170.751 49.7487 220 110.5 220Z" fill="#6356AB"/>
<path d="M157.14 109.821C157.539 109.374 157.986 108.927 158.433 108.474C159.876 106.92 161.457 105.263 162.949 103.661C168.926 97.4305 172.268 89.1335 172.279 80.4994C172.279 79.9012 172.375 77.44 172.375 77.0894C171.681 57.3444 155.057 41.25 135.408 41.25H73.5331V66.2131H48.625V178.75H136.398C155.903 178.75 172.375 161.404 172.375 140.855C172.423 126.163 163.341 115.789 157.14 109.821ZM85.9356 78.7463L135.209 78.7944L104.251 110.179L134.865 141.254H85.9356V78.7463ZM136.398 166.169H61.0275V78.6981H73.54V153.739H134.865C139.925 153.739 144.442 150.679 146.374 145.97C147.325 143.678 147.578 141.156 147.101 138.721C146.624 136.286 145.438 134.046 143.692 132.282L121.816 110.124L144.043 87.615C147.618 84.0056 148.656 78.6431 146.724 73.9337C145.796 71.6396 144.205 69.6747 142.153 68.2906C140.102 66.9066 137.684 66.1664 135.209 66.165H85.9837V53.735H135.456C148.56 53.735 159.574 64.4119 160.021 77.3919C160.021 77.9419 159.917 80.1006 159.917 80.1488V80.3963C159.917 85.84 157.802 91.0706 154.019 94.985C152.479 96.5938 150.891 98.2919 149.454 99.7975C147.02 102.355 144.937 104.562 143.94 105.566L139.471 109.973L143.892 114.441C144.49 115.039 145.232 115.741 146.126 116.593C151.282 121.406 159.972 129.422 159.972 140.752C160.021 154.289 149.007 166.169 136.398 166.169Z" fill="white"/>
</g>
<defs>
<clipPath id="clip0_2_21186">
<rect width="220" height="220" fill="white" transform="translate(0.5)"/>
</clipPath>
</defs>
</svg>
