<svg width="221" height="220" viewBox="0 0 221 220" fill="none" xmlns="http://www.w3.org/2000/svg">
<g clip-path="url(#clip0_2_21182)">
<path d="M110.5 220C171.251 220 220.5 170.751 220.5 110C220.5 49.2487 171.251 0 110.5 0C49.7487 0 0.5 49.2487 0.5 110C0.5 170.751 49.7487 220 110.5 220Z" fill="#004AB5"/>
<path d="M86.3207 53.5771C77.248 56.9957 69.1355 62.5554 62.6733 69.7832C56.211 77.0109 51.5904 85.6927 49.2046 95.0899C46.8187 104.487 46.7382 114.322 48.9699 123.757C51.2016 133.192 55.6795 141.948 62.0225 149.28C68.3655 156.613 76.386 162.305 85.4014 165.871C94.4169 169.438 104.161 170.774 113.803 169.766C123.446 168.758 132.703 165.435 140.785 160.081C148.868 154.726 155.538 147.499 160.227 139.013L107.551 109.897L128.925 53.6252C115.206 48.4173 100.058 48.4002 86.3276 53.5771H86.3207ZM90.0744 64.3915C101.194 60.1986 113.463 60.2133 124.573 64.4327L107.269 109.993L149.921 133.575C146.124 140.444 140.723 146.295 134.178 150.629C127.633 154.963 120.139 157.652 112.332 158.468C104.524 159.283 96.6359 158.201 89.3369 155.313C82.0379 152.425 75.5445 147.816 70.409 141.88C65.2736 135.943 61.648 128.854 59.8408 121.215C58.0336 113.577 58.0982 105.614 60.0291 98.006C61.96 90.3976 65.7001 83.3682 70.9311 77.5156C76.1622 71.6631 82.7296 67.1607 90.0744 64.3915ZM110.259 34.2377C118.448 34.5608 126.526 36.2108 134.184 39.119L107.269 109.993L173.619 146.671C167.091 158.483 157.528 168.338 145.918 175.219C134.308 182.1 121.072 185.757 107.576 185.813C94.08 185.869 80.814 182.321 69.1475 175.536C57.481 168.751 47.837 158.976 41.2113 147.218C34.5856 135.461 31.2183 122.148 31.4572 108.654C31.6961 95.1601 35.5325 81.9746 42.5703 70.459C49.6081 58.9434 59.5921 49.5151 71.4914 43.1476C83.3908 36.7801 96.7741 33.7043 110.259 34.2377ZM162.021 60.4452C163.836 60.4452 165.528 60.6583 167.081 61.0983C171.66 62.3565 174.754 65.2027 176.363 69.6302C177.346 72.3183 177.559 74.9583 177.009 77.5502C176.514 80.1215 175.324 82.4315 173.441 84.494C176.974 84.3358 180.061 85.1265 182.722 86.8452C185.355 88.509 187.301 91.0596 188.545 94.4833C190.312 99.3371 189.783 103.771 186.943 107.786C184.138 111.733 179.126 115.026 171.901 117.652L143.273 128.075L123.123 72.7102L150.169 62.8652C154.596 61.2565 158.549 60.4452 162.021 60.4452ZM157.828 71.899C156.178 71.899 154.273 72.2977 152.101 73.0883L139.368 77.7221L144.112 90.7777L156.851 86.1371C160.014 84.989 162.214 83.5658 163.438 81.8608C164.675 80.1558 164.895 78.224 164.104 76.0652C163.321 73.9065 161.918 72.5933 159.897 72.1327C159.22 71.9692 158.524 71.8907 157.828 71.899ZM168.566 93.3627C166.834 93.3833 164.799 93.8165 162.461 94.669L147.515 100.107L152.493 113.788L167.439 108.35C170.808 107.12 173.145 105.648 174.424 103.923C175.764 102.183 176.005 100.155 175.166 97.8315C174.066 94.8271 171.866 93.3352 168.566 93.3627Z" fill="white"/>
</g>
<defs>
<clipPath id="clip0_2_21182">
<rect width="220" height="220" fill="white" transform="translate(0.5)"/>
</clipPath>
</defs>
</svg>
