<svg width="221" height="220" viewBox="0 0 221 220" fill="none" xmlns="http://www.w3.org/2000/svg">
<g clip-path="url(#clip0_2_21178)">
<path d="M110.5 220C171.251 220 220.5 170.751 220.5 110C220.5 49.2487 171.251 0 110.5 0C49.7487 0 0.5 49.2487 0.5 110C0.5 170.751 49.7487 220 110.5 220Z" fill="#F7931C"/>
<path d="M51.0382 132.825C50.9832 112.118 65.5651 94.7376 86.4239 90.8257C88.2114 90.4957 88.7201 89.8976 88.672 88.1514C88.5587 83.5023 88.5587 78.8511 88.672 74.202C88.7064 72.5314 88.177 71.5345 86.7401 70.5995C81.7282 67.3339 79.6795 61.3939 81.5151 56.052C82.3977 53.3492 84.1491 51.014 86.4967 49.41C88.8443 47.8059 91.6564 47.0231 94.4951 47.1832C99.7889 47.4307 104.636 51.3701 106.066 56.602C107.509 61.8545 105.502 67.5676 100.841 70.5307C99.1907 71.5757 98.6751 72.6276 98.7301 74.4976C98.8676 79.1451 98.8195 83.7926 98.7576 88.447C98.737 89.7945 98.9364 90.5164 100.538 90.7226C103.584 91.1282 106.561 91.9464 109.379 93.1564C110.438 93.6101 111.009 93.3351 111.717 92.5514C121.583 81.682 131.483 70.8332 141.403 60.012C142.428 58.8982 142.132 58.1351 141.665 56.987C139.245 51.0195 140.661 44.5776 145.226 40.3151C149.392 36.4307 156.281 35.3239 161.258 37.737C167.116 40.5764 170.333 46.0214 169.935 52.4151C169.398 60.9676 161.079 67.4095 152.637 65.6564C150.925 65.2989 149.935 65.7114 148.828 66.9351C139.645 77.0855 130.423 87.201 121.163 97.2814C120.043 98.4982 119.885 99.1514 121.28 100.361C136.433 113.575 140.558 133.485 131.923 151.621C131.269 152.996 131.414 153.78 132.473 154.784C134.996 157.183 137.436 159.665 139.856 162.174C140.819 163.171 141.72 163.433 143.15 163.068C148.718 161.666 154.493 164.168 157.271 169.001C158.647 171.393 159.215 174.165 158.892 176.906C158.569 179.646 157.371 182.21 155.476 184.216C151.668 188.265 145.446 189.441 140.613 187.021C135.333 184.381 132.418 178.736 133.669 172.941C134.033 171.277 133.648 170.328 132.535 169.276C130.484 167.338 128.496 165.334 126.574 163.268C125.453 162.058 124.759 162.037 123.48 163.24C110.425 175.409 95.2857 178.558 78.5795 172.618C61.9695 166.726 51.0864 150.576 51.0382 132.832" fill="#FEFDFC"/>
</g>
<defs>
<clipPath id="clip0_2_21178">
<rect width="220" height="220" fill="white" transform="translate(0.5)"/>
</clipPath>
</defs>
</svg>
