<svg width="221" height="220" viewBox="0 0 221 220" fill="none" xmlns="http://www.w3.org/2000/svg">
<g clip-path="url(#clip0_2_21174)">
<path d="M110.5 220C171.251 220 220.5 170.751 220.5 110C220.5 49.2487 171.251 0 110.5 0C49.7487 0 0.5 49.2487 0.5 110C0.5 170.751 49.7487 220 110.5 220Z" fill="#FCC339"/>
<path d="M155.772 66.6463L156.301 67.8219L135.305 77.4606L144.751 108.742L175.833 93.0463L176.246 93.8644L176.369 93.7131L156.233 66.8594L155.772 66.6463ZM154.637 66.1169L135.573 57.2481H86.2725L65.9087 66.5981L87.0837 75.5081H134.178L154.637 66.1169ZM64.2037 68.3169L45.1394 93.0737L76.1731 108.749L85.6606 77.3438L64.2037 68.3169ZM87.8538 77.7563L78.0569 110.206L110.459 167.489L142.868 110.206L133.064 77.7563H87.8538ZM173.874 96.5456L144.875 111.196L115.966 162.298L173.874 96.5456ZM104.801 162.023L76.0494 111.196L47.2019 96.6281L104.801 162.023ZM44.7131 93.7956L44.94 93.335L44.6444 93.72L44.7131 93.7956ZM63.9013 65.0512L85.7844 55H136.054L157.669 65.0512L179.25 93.83L110.5 171.875L41.75 93.8162L63.9013 65.0512ZM127.158 101.984C127.564 106.157 125.838 108.666 123.074 110.089C127.619 111.189 130.465 113.926 129.901 120.058C129.214 127.662 123.611 129.697 115.608 130.164V138.16H110.851V130.274C109.613 130.274 108.355 130.261 107.049 130.233V138.16H102.298V130.144C101.184 130.137 100.05 130.116 98.895 130.116H92.7075L93.6494 124.362C93.6494 124.362 97.1694 124.417 97.1075 124.362C98.455 124.362 98.8125 123.379 98.895 122.767V110.138H99.4037C99.2351 110.115 99.0652 110.103 98.895 110.103V101.09C98.7163 100.107 98.0906 98.9794 96.1587 98.9725C96.2206 98.9037 92.7075 98.9725 92.7075 98.9725V93.83H99.2663V93.8575C100.256 93.8575 101.26 93.8369 102.291 93.8162V85.9031H107.056V93.665C108.321 93.6375 109.599 93.61 110.851 93.61V85.91L115.608 85.9031V93.8162C121.754 94.3662 126.615 96.2775 127.158 101.984ZM120.503 119.102C120.503 112.86 110.39 113.802 107.166 113.802V124.41C110.39 124.41 120.503 125.084 120.503 119.102ZM118.289 104.136C118.289 98.4569 109.847 99.3231 107.166 99.3231V108.948C109.847 108.948 118.289 109.581 118.289 104.136Z" fill="white"/>
</g>
<defs>
<clipPath id="clip0_2_21174">
<rect width="220" height="220" fill="white" transform="translate(0.5)"/>
</clipPath>
</defs>
</svg>
