<svg width="221" height="220" viewBox="0 0 221 220" fill="none" xmlns="http://www.w3.org/2000/svg">
<g clip-path="url(#clip0_2_21167)">
<path d="M110.5 220C171.251 220 220.5 170.751 220.5 110C220.5 49.2487 171.251 0 110.5 0C49.7487 0 0.5 49.2487 0.5 110C0.5 170.751 49.7487 220 110.5 220Z" fill="#8DC351"/>
<path d="M146.298 72.4211C140.963 58.8636 127.584 57.6398 112.006 60.6648L106.457 41.3254L94.6874 44.7011L100.091 63.5386C96.9974 64.4186 93.8487 65.3948 90.7206 66.3573L85.2893 47.3961L73.5262 50.7648L79.0605 70.1042C76.5305 70.8879 74.0418 71.6579 71.6012 72.3592L71.5805 72.2904L55.3418 76.9448L58.9512 89.5261C58.9512 89.5261 67.5999 86.8586 67.4968 87.0648C72.268 85.6967 74.6124 88.0204 75.7468 90.2823L82.0718 112.31C82.3949 112.22 82.828 112.11 83.3368 112.035L82.0924 112.392L90.9405 143.261C91.1605 144.822 90.9681 147.469 87.6406 148.431C87.8262 148.52 79.0743 150.879 79.0743 150.879L80.7724 165.612L96.0899 161.212C98.9431 160.407 101.762 159.651 104.519 158.874L110.136 178.434L121.892 175.065L116.344 155.712C119.497 154.875 122.642 154.004 125.776 153.099L131.29 172.37L143.067 168.994L137.471 149.469C156.934 142.656 169.357 133.698 165.747 114.613C162.846 99.2542 153.895 94.5929 141.884 95.1154C147.714 89.6842 150.224 82.3417 146.298 72.4279V72.4211ZM141.829 118.965C146.023 133.588 120.517 139.102 112.542 141.398L105.11 115.479C113.085 113.19 137.45 103.723 141.822 118.972L141.829 118.965ZM125.866 83.9711C129.674 97.2742 108.355 101.709 101.707 103.613L94.9693 80.1073C101.611 78.2029 121.885 70.1042 125.866 83.9779V83.9711Z" fill="white"/>
</g>
<defs>
<clipPath id="clip0_2_21167">
<rect width="220" height="220" fill="white" transform="translate(0.5)"/>
</clipPath>
</defs>
</svg>
