<svg width="221" height="220" viewBox="0 0 221 220" fill="none" xmlns="http://www.w3.org/2000/svg">
<g clip-path="url(#clip0_2_21171)">
<path d="M220.97 110C220.97 131.756 214.518 153.023 202.431 171.113C190.344 189.202 173.165 203.301 153.065 211.627C132.965 219.952 110.848 222.131 89.5098 217.886C68.1719 213.642 48.5718 203.166 33.188 187.782C17.8043 172.398 7.32777 152.798 3.0834 131.46C-1.16098 110.122 1.01739 88.0047 9.34303 67.9048C17.6687 47.805 31.7676 30.6253 49.857 18.5383C67.9465 6.45139 89.2138 0 110.97 0C140.144 0 168.123 11.5893 188.752 32.2183C209.381 52.8473 220.97 80.8262 220.97 110Z" fill="#43A047"/>
<path fill-rule="evenodd" clip-rule="evenodd" d="M79.0595 50.2302L104.34 57.0002L110 35.9302L122.64 39.3602L117.2 59.5502L127.5 62.3202L132.93 41.9202L145.79 45.3502L140.25 65.8702C140.25 65.8702 161.25 70.5202 166.2 87.6002C171.15 104.68 155.35 113.66 150.5 114C150.5 114 168.91 124.09 162.59 143.94C156.27 163.79 136.86 167.34 116.46 162.79L110.91 184.08L98.0495 180.65L103.71 159.65L93.4995 156.91L87.8195 178L75.0695 174.57L80.7195 153.57L54.7695 146.57L61.3195 132.05C61.3195 132.05 68.6295 134.05 71.4095 134.71C74.1895 135.37 75.9495 132.49 76.7295 129.61C77.5095 126.73 89.2595 79.0002 90.3695 75.0702C91.4795 71.1402 91.0295 68.0702 86.3695 66.8602C81.7095 65.6502 75.3695 63.7602 75.3695 63.7602L79.0595 50.2302ZM104.56 113.44L97.5595 141.27C97.5595 141.27 132.26 153.8 136.7 136.17C141.14 118.54 104.56 113.44 104.56 113.44ZM107.78 100.24L114.65 74.7402C114.65 74.7402 144.37 80.0602 140.71 94.2502C137.05 108.44 119.5 103 107.78 100.24Z" fill="white"/>
</g>
<defs>
<clipPath id="clip0_2_21171">
<rect width="220" height="220" fill="white" transform="translate(0.5)"/>
</clipPath>
</defs>
</svg>
