<svg width="221" height="220" viewBox="0 0 221 220" fill="none" xmlns="http://www.w3.org/2000/svg">
<g clip-path="url(#clip0_2_21163)">
<path d="M110.5 220C171.251 220 220.5 170.751 220.5 110C220.5 49.2487 171.251 0 110.5 0C49.7487 0 0.5 49.2487 0.5 110C0.5 170.751 49.7487 220 110.5 220Z" fill="#3F43AD"/>
<path d="M82.5874 51.123C81.052 51.2129 79.609 51.8862 78.5536 53.0051C77.4983 54.1241 76.9105 55.604 76.9105 57.1421C76.9105 58.6801 77.4983 60.1601 78.5536 61.279C79.609 62.3979 81.052 63.0712 82.5874 63.1611C84.1229 63.0712 85.5659 62.3979 86.6212 61.279C87.6765 60.1601 88.2643 58.6801 88.2643 57.1421C88.2643 55.604 87.6765 54.1241 86.6212 53.0051C85.5659 51.8862 84.1229 51.2129 82.5874 51.123ZM110.431 34.4167C108.884 34.4907 107.424 35.1575 106.355 36.2788C105.286 37.4002 104.69 38.89 104.69 40.4392C104.69 41.9885 105.286 43.4783 106.355 44.5996C107.424 45.721 108.884 46.3878 110.431 46.4617C111.979 46.3878 113.438 45.721 114.507 44.5996C115.576 43.4783 116.173 41.9885 116.173 40.4392C116.173 38.89 115.576 37.4002 114.507 36.2788C113.438 35.1575 111.979 34.4907 110.431 34.4167ZM110.431 101.235C108.896 101.325 107.453 101.998 106.397 103.117C105.342 104.236 104.754 105.716 104.754 107.254C104.754 108.792 105.342 110.272 106.397 111.391C107.453 112.51 108.896 113.183 110.431 113.273C111.967 113.183 113.41 112.51 114.465 111.391C115.52 110.272 116.108 108.792 116.108 107.254C116.108 105.716 115.52 104.236 114.465 103.117C113.41 101.998 111.967 101.325 110.431 101.235ZM138.268 84.5286C137.477 84.5295 136.693 84.6863 135.963 84.9899C135.232 85.2936 134.568 85.7382 134.009 86.2984C133.45 86.8586 133.007 87.5234 132.705 88.2549C132.403 88.9863 132.248 89.7701 132.249 90.5614C132.25 91.3528 132.407 92.1362 132.71 92.8669C133.014 93.5977 133.459 94.2615 134.019 94.8204C134.579 95.3793 135.244 95.8224 135.975 96.1244C136.707 96.4264 137.49 96.5814 138.282 96.5805C139.88 96.5787 141.412 95.9421 142.541 94.8107C143.67 93.6793 144.303 92.1459 144.301 90.5477C144.299 88.9495 143.662 87.4175 142.531 86.2887C141.4 85.1599 139.866 84.5268 138.268 84.5286ZM166.105 67.8292C165.296 67.8029 164.491 67.9395 163.736 68.2309C162.982 68.5223 162.293 68.9625 161.713 69.5255C161.132 70.0884 160.67 70.7624 160.355 71.5075C160.04 72.2525 159.878 73.0534 159.879 73.8623C159.88 74.6712 160.044 75.4717 160.36 76.216C160.677 76.9603 161.14 77.6333 161.722 78.1949C162.305 78.7565 162.994 79.1952 163.749 79.4849C164.504 79.7746 165.31 79.9093 166.119 79.8811C167.682 79.8266 169.162 79.1669 170.248 78.0413C171.334 76.9158 171.94 75.4124 171.938 73.8485C171.936 72.2847 171.327 70.7827 170.238 69.6596C169.15 68.5365 167.668 67.8802 166.105 67.8292ZM82.5874 117.941C81.052 118.031 79.609 118.704 78.5536 119.823C77.4983 120.942 76.9105 122.422 76.9105 123.96C76.9105 125.498 77.4983 126.978 78.5536 128.097C79.609 129.216 81.052 129.889 82.5874 129.979C84.1229 129.889 85.5659 129.216 86.6212 128.097C87.6765 126.978 88.2643 125.498 88.2643 123.96C88.2643 122.422 87.6765 120.942 86.6212 119.823C85.5659 118.704 84.1229 118.031 82.5874 117.941ZM54.7437 67.8292C53.9528 67.8302 53.1698 67.9868 52.4395 68.2903C51.7091 68.5938 51.0457 69.0382 50.4871 69.5981C49.9285 70.1579 49.4857 70.8224 49.1839 71.5534C48.882 72.2844 48.7271 73.0677 48.728 73.8586C48.729 74.6495 48.8856 75.4325 49.1891 76.1628C49.4926 76.8931 49.937 77.5566 50.4969 78.1152C51.0567 78.6738 51.7212 79.1166 52.4522 79.4184C53.1832 79.7203 53.9665 79.8751 54.7574 79.8742C56.3547 79.8724 57.8858 79.2362 59.014 78.1054C60.1421 76.9747 60.7749 75.4421 60.7731 73.8449C60.7712 72.2476 60.135 70.7165 59.0042 69.5883C57.8735 68.4602 56.3409 67.8274 54.7437 67.8292ZM54.7437 134.64C53.9523 134.641 53.1689 134.798 52.4382 135.102C51.7074 135.405 51.0436 135.85 50.4847 136.41C49.3559 137.542 48.7228 139.075 48.7246 140.673C48.7264 142.271 49.3631 143.803 50.4944 144.932C51.6258 146.061 53.1592 146.694 54.7574 146.692C56.3556 146.691 57.8876 146.054 59.0164 144.923C60.1452 143.791 60.7783 142.258 60.7765 140.66C60.7747 139.061 60.138 137.529 59.0067 136.401C57.8753 135.272 56.3419 134.639 54.7437 134.64ZM54.7437 101.235C53.2082 101.325 51.7652 101.998 50.7099 103.117C49.6546 104.236 49.0668 105.716 49.0668 107.254C49.0668 108.792 49.6546 110.272 50.7099 111.391C51.7652 112.51 53.2082 113.183 54.7437 113.273C56.2791 113.183 57.7221 112.51 58.7775 111.391C59.8328 110.272 60.4206 108.792 60.4206 107.254C60.4206 105.716 59.8328 104.236 58.7775 103.117C57.7221 101.998 56.2791 101.325 54.7437 101.235ZM110.431 67.8292C109.623 67.8019 108.817 67.9376 108.062 68.2281C107.307 68.5187 106.618 68.9581 106.037 69.5204C105.455 70.0826 104.993 70.7562 104.677 71.5009C104.361 72.2456 104.198 73.0463 104.198 73.8552C104.198 74.6641 104.361 75.4648 104.677 76.2095C104.993 76.9542 105.455 77.6277 106.037 78.19C106.618 78.7522 107.307 79.1917 108.062 79.4822C108.817 79.7728 109.623 79.9084 110.431 79.8811C111.994 79.8283 113.475 79.1703 114.562 78.046C115.649 76.9217 116.257 75.419 116.257 73.8552C116.257 72.2913 115.649 70.7887 114.562 69.6644C113.475 68.54 111.994 67.882 110.431 67.8292ZM138.268 51.123C137.46 51.0966 136.654 51.2332 135.899 51.5246C135.145 51.816 134.457 52.2563 133.876 52.8192C133.295 53.3821 132.833 54.0562 132.518 54.8012C132.203 55.5463 132.041 56.3471 132.042 57.156C132.043 57.965 132.207 58.7654 132.523 59.5098C132.84 60.2541 133.303 60.9271 133.886 61.4887C134.468 62.0503 135.157 62.489 135.912 62.7787C136.668 63.0683 137.473 63.2031 138.282 63.1749C139.845 63.1203 141.325 62.4606 142.411 61.3351C143.497 60.2095 144.103 58.7061 144.101 57.1423C144.099 55.5784 143.49 54.0764 142.401 52.9534C141.313 51.8303 139.831 51.174 138.268 51.123ZM138.268 117.941C137.477 117.942 136.694 118.098 135.964 118.401C135.233 118.704 134.569 119.148 134.011 119.707C133.452 120.267 133.008 120.931 132.706 121.662C132.404 122.393 132.249 123.176 132.249 123.967C132.249 124.758 132.406 125.541 132.709 126.272C133.012 127.002 133.456 127.666 134.015 128.225C134.575 128.784 135.239 129.227 135.97 129.529C136.701 129.831 137.484 129.987 138.275 129.986C139.872 129.985 141.404 129.35 142.532 128.22C143.661 127.09 144.295 125.557 144.294 123.96C144.293 122.363 143.658 120.831 142.528 119.703C141.398 118.574 139.865 117.94 138.268 117.941ZM166.105 101.235C164.569 101.325 163.126 101.998 162.071 103.117C161.016 104.236 160.428 105.716 160.428 107.254C160.428 108.792 161.016 110.272 162.071 111.391C163.126 112.51 164.569 113.183 166.105 113.273C167.64 113.183 169.083 112.51 170.139 111.391C171.194 110.272 171.782 108.792 171.782 107.254C171.782 105.716 171.194 104.236 170.139 103.117C169.083 101.998 167.64 101.325 166.105 101.235ZM138.268 151.347C137.477 151.347 136.693 151.504 135.962 151.807C135.231 152.11 134.567 152.554 134.008 153.114C133.449 153.674 133.005 154.339 132.703 155.07C132.401 155.801 132.245 156.585 132.246 157.376C132.246 158.167 132.402 158.951 132.706 159.682C133.009 160.413 133.453 161.077 134.013 161.636C134.573 162.195 135.237 162.639 135.969 162.941C136.7 163.244 137.484 163.399 138.275 163.399C139.873 163.398 141.405 162.762 142.535 161.631C143.664 160.5 144.298 158.967 144.297 157.369C144.297 155.771 143.661 154.239 142.53 153.109C141.399 151.98 139.866 151.346 138.268 151.347ZM166.105 134.64C164.557 134.714 163.098 135.381 162.029 136.503C160.96 137.624 160.363 139.114 160.363 140.663C160.363 142.212 160.96 143.702 162.029 144.823C163.098 145.945 164.557 146.612 166.105 146.685C167.652 146.612 169.112 145.945 170.181 144.823C171.25 143.702 171.846 142.212 171.846 140.663C171.846 139.114 171.25 137.624 170.181 136.503C169.112 135.381 167.652 134.714 166.105 134.64ZM110.431 168.053C108.896 168.143 107.453 168.816 106.397 169.935C105.342 171.054 104.754 172.534 104.754 174.072C104.754 175.61 105.342 177.09 106.397 178.209C107.453 179.328 108.896 180.001 110.431 180.091C112.027 180.089 113.556 179.455 114.685 178.328C115.814 177.2 116.45 175.671 116.454 174.075C116.452 172.479 115.817 170.948 114.688 169.819C113.559 168.69 112.028 168.055 110.431 168.053ZM110.431 134.64C109.639 134.641 108.855 134.797 108.124 135.101C107.393 135.404 106.728 135.849 106.169 136.409C105.609 136.969 105.165 137.634 104.863 138.366C104.56 139.097 104.405 139.882 104.405 140.673C104.406 141.465 104.562 142.249 104.866 142.98C105.169 143.712 105.613 144.376 106.174 144.936C106.734 145.495 107.399 145.939 108.13 146.242C108.862 146.544 109.646 146.7 110.438 146.699C112.037 146.698 113.57 146.062 114.7 144.931C115.831 143.799 116.465 142.266 116.464 140.666C116.463 139.067 115.827 137.534 114.696 136.404C113.564 135.274 112.03 134.64 110.431 134.64ZM82.5874 84.5286C81.052 84.6185 79.609 85.2919 78.5536 86.4108C77.4983 87.5297 76.9105 89.0096 76.9105 90.5477C76.9105 92.0857 77.4983 93.5657 78.5536 94.6846C79.609 95.8035 81.052 96.4768 82.5874 96.5667C84.1126 96.4636 85.5416 95.7849 86.5854 94.6681C87.6292 93.5513 88.2098 92.0798 88.2098 90.5511C88.2098 89.0225 87.6292 87.5509 86.5854 86.4341C85.5416 85.3173 84.1126 84.6387 82.5874 84.5355V84.5286ZM82.5874 151.347C81.052 151.437 79.609 152.11 78.5536 153.229C77.4983 154.348 76.9105 155.828 76.9105 157.366C76.9105 158.904 77.4983 160.384 78.5536 161.503C79.609 162.622 81.052 163.295 82.5874 163.385C84.1229 163.295 85.5659 162.622 86.6212 161.503C87.6765 160.384 88.2643 158.904 88.2643 157.366C88.2643 155.828 87.6765 154.348 86.6212 153.229C85.5659 152.11 84.1229 151.437 82.5874 151.347Z" fill="white"/>
</g>
<defs>
<clipPath id="clip0_2_21163">
<rect width="220" height="220" fill="white" transform="translate(0.5)"/>
</clipPath>
</defs>
</svg>
