<svg width="221" height="220" viewBox="0 0 221 220" fill="none" xmlns="http://www.w3.org/2000/svg">
<g clip-path="url(#clip0_2_21159)">
<path d="M110.493 219.986C171.241 219.986 220.486 170.741 220.486 109.993C220.486 49.2456 171.241 0 110.493 0C49.7456 0 0.5 49.2456 0.5 109.993C0.5 170.741 49.7456 219.986 110.493 219.986Z" fill="#F04086"/>
<path d="M161.63 115.183C157.298 110.398 151.069 107.428 142.929 106.273V106.101C150.059 104.946 155.662 102.024 159.471 97.3494C163.336 92.7131 165.436 86.8581 165.397 80.8219C165.397 70.7775 162.166 63.9507 155.47 58.5813C148.773 53.2188 138.722 51.4519 125.103 51.4519H73.6707V99.3225H44.1357V117.658H124.759C131.104 117.658 135.869 118.105 139.018 120.642C142.166 123.179 143.775 126.458 143.775 131.305C143.775 136.152 142.187 140.291 139.018 142.889C135.855 145.481 131.084 147.193 124.759 147.193H97.0939V132.934H73.6707V165.529H126.794C140.303 165.529 150.629 162.002 157.793 156.523C164.95 151.043 168.312 142.951 168.312 133.017C168.401 126.444 166.016 120.079 161.63 115.183ZM121.803 99.2744H97.0939V69.7394H121.803C134.508 69.7394 140.846 74.6963 140.846 84.5069C140.846 94.3175 134.508 99.2744 121.803 99.2744Z" fill="white"/>
</g>
<defs>
<clipPath id="clip0_2_21159">
<rect width="220" height="220" fill="white" transform="translate(0.5)"/>
</clipPath>
</defs>
</svg>
