<svg width="221" height="220" viewBox="0 0 221 220" fill="none" xmlns="http://www.w3.org/2000/svg">
<g clip-path="url(#clip0_2_21155)">
<path d="M110.5 220C171.251 220 220.5 170.751 220.5 110C220.5 49.2487 171.251 0 110.5 0C49.7487 0 0.5 49.2487 0.5 110C0.5 170.751 49.7487 220 110.5 220Z" fill="#2C76B7"/>
<path d="M97.5887 143.179L87.235 137.349C84.6225 140.889 80.3738 143.192 75.5613 143.192C70.7488 143.192 66.4862 140.882 63.8806 137.328L60.5187 139.233C60.8186 139.951 60.9729 140.722 60.9725 141.501C60.9626 142.302 60.7951 143.093 60.4795 143.829C60.1639 144.565 59.7064 145.232 59.1331 145.791C58.5598 146.351 57.8819 146.791 57.1382 147.089C56.3945 147.386 55.5996 147.534 54.7987 147.524C51.3887 147.524 48.625 144.829 48.625 141.501C48.625 138.174 51.3887 135.472 54.7987 135.472C56.7856 135.472 58.5456 136.386 59.68 137.809L62.98 135.939C61.8108 133.877 61.1973 131.545 61.1994 129.174C61.1994 121.612 67.3319 115.452 75.0044 115.163V104.479C67.5312 104.191 61.5706 98.1888 61.5706 90.8256C61.5706 88.4881 62.1756 86.2744 63.2413 84.3494L59.735 82.3969C59.1515 83.1493 58.4029 83.7576 57.5471 84.1748C56.6912 84.592 55.7509 84.807 54.7987 84.8031C51.3887 84.8031 48.625 82.1012 48.625 78.7738C48.625 75.4463 51.3887 72.7512 54.7987 72.7512C58.2087 72.7512 60.9725 75.4463 60.9725 78.7738C60.9725 79.5438 60.8212 80.2863 60.5531 80.96L64.1281 82.9538C66.6581 79.4475 70.8381 77.165 75.5613 77.165C80.3875 77.165 84.6362 79.5438 87.1525 83.1669L97.6919 77.33C96.7294 75.46 96.1794 73.3425 96.1794 71.1081C96.1794 63.7381 102.078 57.7156 109.517 57.2894V53.2469C108.056 53.0654 106.71 52.3597 105.73 51.2608C104.75 50.162 104.203 48.7448 104.189 47.2725C104.189 43.945 106.952 41.25 110.362 41.25C113.772 41.25 116.536 43.945 116.536 47.2725C116.536 50.325 114.212 52.8412 111.201 53.2469V57.2894C118.64 57.7156 124.539 63.7381 124.539 71.1081C124.539 73.3494 123.989 75.4738 123.019 77.3506L133.538 83.27C134.83 81.3402 136.58 79.7602 138.632 78.671C140.683 77.5817 142.972 77.0171 145.294 77.0275C150.169 77.0275 154.452 79.4544 156.961 83.1394L160.433 80.9325C160.164 80.2448 160.026 79.5124 160.028 78.7738C160.028 75.4463 162.791 72.7512 166.201 72.7512C169.611 72.7512 172.375 75.4463 172.375 78.7738C172.375 82.1012 169.611 84.8031 166.201 84.8031C165.245 84.8066 164.301 84.5895 163.442 84.1686C162.584 83.7476 161.834 83.1343 161.251 82.3763L157.814 84.5625C158.756 86.405 159.292 88.4813 159.292 90.6881C159.292 98.1888 153.104 104.28 145.439 104.349V115.472C153.208 115.541 159.478 121.715 159.478 129.312C159.478 131.615 158.9 133.787 157.876 135.706L161.409 137.699C161.996 136.999 162.729 136.437 163.557 136.052C164.385 135.667 165.288 135.469 166.201 135.472C169.611 135.472 172.375 138.174 172.375 141.501C172.375 144.829 169.611 147.524 166.201 147.524C165.4 147.534 164.605 147.386 163.862 147.089C163.118 146.791 162.44 146.351 161.867 145.791C161.294 145.232 160.836 144.565 160.521 143.829C160.205 143.093 160.037 142.302 160.028 141.501C160.025 140.674 160.199 139.857 160.536 139.102L157.009 137.108C154.459 140.752 150.162 143.151 145.294 143.151C140.475 143.151 136.219 140.8 133.655 137.211L123.109 143.144C124.257 145.172 124.91 147.51 124.91 149.992C124.91 157.465 118.997 163.591 111.483 164.154V166.794C112.888 167.033 114.164 167.758 115.087 168.843C116.011 169.928 116.524 171.303 116.536 172.728C116.526 173.528 116.359 174.319 116.043 175.055C115.728 175.792 115.27 176.458 114.697 177.018C114.124 177.577 113.446 178.018 112.702 178.315C111.958 178.612 111.163 178.76 110.362 178.75C109.562 178.76 108.767 178.612 108.023 178.315C107.279 178.018 106.601 177.577 106.028 177.018C105.455 176.458 104.997 175.792 104.682 175.055C104.366 174.319 104.199 173.528 104.189 172.728C104.189 169.579 106.65 167.001 109.799 166.726V164.182C102.03 163.893 95.815 157.651 95.815 149.992C95.815 147.517 96.4544 145.2 97.5887 143.179ZM98.4825 141.783C99.8485 139.917 101.637 138.4 103.702 137.358C105.767 136.316 108.05 135.778 110.362 135.788C115.244 135.788 119.575 138.146 122.215 141.756L132.775 135.809C131.686 133.817 131.116 131.582 131.118 129.312C131.118 122.176 136.646 116.304 143.754 115.548V104.273C136.749 103.517 131.304 97.7281 131.304 90.6881C131.304 88.5431 131.806 86.5081 132.713 84.7069L122.167 78.7669C119.623 82.4931 115.292 84.9475 110.362 84.9475C105.426 84.9475 101.081 82.4863 98.5375 78.76L88.0187 84.5831C89.0019 86.4531 89.5588 88.5706 89.5588 90.8256C89.5588 98.0031 83.8937 103.888 76.6887 104.438V115.198C84.0931 115.748 89.93 121.798 89.93 129.174C89.93 131.636 89.2769 133.946 88.1356 135.96L98.4825 141.783ZM75.5613 136.517C79.7206 136.517 83.0894 133.231 83.0894 129.174C83.0894 125.118 79.7206 121.832 75.5613 121.832C71.4088 121.832 68.04 125.118 68.04 129.174C68.04 133.231 71.4088 136.517 75.5613 136.517ZM75.5613 97.9825C79.6175 97.9825 82.8969 94.7787 82.8969 90.8325C82.8969 86.8862 79.6106 83.6688 75.5613 83.6688C71.5119 83.6688 68.2325 86.8725 68.2325 90.8256C68.2325 94.7788 71.5119 97.9825 75.5613 97.9825ZM110.362 78.3544C114.46 78.3544 117.787 75.1094 117.787 71.1081C117.787 67.1 114.46 63.855 110.362 63.855C106.258 63.855 102.937 67.1 102.937 71.1081C102.937 75.1094 106.258 78.3544 110.362 78.3544ZM145.294 97.845C149.351 97.845 152.63 94.6413 152.63 90.695C152.63 86.735 149.344 83.5312 145.294 83.5312C141.245 83.5312 137.966 86.735 137.966 90.6881C137.966 94.6413 141.245 97.845 145.294 97.845ZM145.294 136.558C149.399 136.558 152.719 133.313 152.719 129.312C152.719 125.304 149.399 122.059 145.294 122.059C141.197 122.059 137.869 125.304 137.869 129.312C137.869 133.313 141.197 136.558 145.294 136.558ZM110.362 157.438C114.57 157.438 117.98 154.103 117.98 149.999C117.98 145.894 114.57 142.56 110.362 142.56C106.148 142.56 102.738 145.888 102.738 149.999C102.738 154.11 106.148 157.438 110.362 157.438ZM110.362 130.075C99.005 130.075 89.7994 121.089 89.7994 110.007C89.7994 98.9244 99.005 89.9319 110.356 89.9319C121.72 89.9319 130.926 98.9244 130.926 110.007C130.926 121.089 121.713 130.082 110.362 130.082V130.075ZM110.362 117.872C114.811 117.872 118.42 114.352 118.42 110.007C118.42 105.662 114.811 102.142 110.362 102.142C105.907 102.142 102.298 105.662 102.298 110.007C102.298 114.352 105.907 117.872 110.362 117.872Z" fill="white"/>
</g>
<defs>
<clipPath id="clip0_2_21155">
<rect width="220" height="220" fill="white" transform="translate(0.5)"/>
</clipPath>
</defs>
</svg>
