<svg width="221" height="220" viewBox="0 0 221 220" fill="none" xmlns="http://www.w3.org/2000/svg">
<g clip-path="url(#clip0_2_21151)">
<path d="M110.5 220C171.251 220 220.5 170.751 220.5 110C220.5 49.2487 171.251 0 110.5 0C49.7487 0 0.5 49.2487 0.5 110C0.5 170.751 49.7487 220 110.5 220Z" fill="#404040"/>
<path d="M110.5 185.625C68.7344 185.625 34.875 151.766 34.875 110C34.875 68.2344 68.7344 34.375 110.5 34.375C152.266 34.375 186.125 68.2344 186.125 110C186.125 151.766 152.266 185.625 110.5 185.625ZM110.5 178.049C148.079 178.049 178.549 147.579 178.549 110C178.549 72.4212 148.079 41.9513 110.5 41.9513C72.9212 41.9513 42.4513 72.4212 42.4513 110C42.4513 147.579 72.9212 178.049 110.5 178.049ZM152.046 83.325C153.18 103.524 134.514 108.859 134.514 108.859C155.847 111.904 154.706 130.199 154.706 130.199C154.706 159.912 121.555 161.074 121.555 161.074H75.0594V58.9325H116.983C152.046 60.4587 152.046 83.325 152.046 83.325ZM99.0669 77.2269V101.991H115.842C115.842 101.991 127.653 101.613 128.409 92.0838V85.9856C128.409 85.9856 128.409 77.99 116.976 77.2269H99.0669ZM130.692 133.258V127.153C130.692 127.153 130.692 119.144 119.266 118.381H99.06V143.165H118.124C118.124 143.165 129.936 142.787 130.699 133.251L130.692 133.258Z" fill="white"/>
</g>
<defs>
<clipPath id="clip0_2_21151">
<rect width="220" height="220" fill="white" transform="translate(0.5)"/>
</clipPath>
</defs>
</svg>
