<svg width="221" height="220" viewBox="0 0 221 220" fill="none" xmlns="http://www.w3.org/2000/svg">
<g clip-path="url(#clip0_2_21147)">
<path d="M110.5 220C171.251 220 220.5 170.751 220.5 110C220.5 49.2487 171.251 0 110.5 0C49.7487 0 0.5 49.2487 0.5 110C0.5 170.751 49.7487 220 110.5 220Z" fill="#E54C40"/>
<path d="M64.6297 59.2423C64.4922 58.2317 65.441 57.6267 65.9841 56.9392C72.8184 50.1771 79.6201 43.3823 86.3891 36.5548C86.2929 55.2273 86.4441 73.8998 86.3135 92.5723C100.4 84.8036 118.145 84.4598 132.623 91.4173C132.61 92.6205 132.61 93.8167 132.61 95.0267C121.053 88.8117 106.842 88.0142 94.5154 92.3455C80.3322 97.2267 69.0297 109.237 64.6091 123.53C64.6297 102.094 64.6022 80.6717 64.6297 59.2423ZM156.686 139.419C156.256 150.784 151.606 161.581 143.644 169.703C136.158 177.397 126.218 182.234 115.544 183.376C104.869 184.519 94.131 181.895 85.186 175.959C75.011 169.263 67.6547 158.4 65.3997 146.424C63.4404 136.937 64.7672 126.865 68.8441 118.099C73.4767 108.24 81.4302 100.326 91.3116 95.7417C104.264 89.6367 120.049 90.1523 132.589 97.0617C132.513 107.333 132.52 117.604 132.596 127.875C130.547 123.634 127.508 119.839 123.487 117.322C115.532 112.187 104.477 112.427 96.7979 117.996C88.3416 123.812 84.526 135.349 87.8879 145.049C90.8922 154.612 100.4 161.632 110.452 161.522C120.118 161.762 129.447 155.444 132.905 146.431C135.105 141.323 134.555 135.679 134.603 130.275C134.645 102.397 134.535 74.5186 134.548 46.6473C134.555 43.1411 134.617 39.6348 134.411 36.1423C141.905 43.5261 149.33 50.9992 156.755 58.4586C156.603 85.443 156.755 112.427 156.686 139.425V139.419Z" fill="white"/>
</g>
<defs>
<clipPath id="clip0_2_21147">
<rect width="220" height="220" fill="white" transform="translate(0.5)"/>
</clipPath>
</defs>
</svg>
