<svg width="221" height="220" viewBox="0 0 221 220" fill="none" xmlns="http://www.w3.org/2000/svg">
<g clip-path="url(#clip0_2_21143)">
<path d="M110.5 220C171.251 220 220.5 170.751 220.5 110C220.5 49.2487 171.251 0 110.5 0C49.7487 0 0.5 49.2487 0.5 110C0.5 170.751 49.7487 220 110.5 220Z" fill="#0B76FF"/>
<path d="M187.225 87.0376V71.9126L138 100.581L107.613 48.1938V82.5688L123.081 109.381L116.825 113.094L107.613 96.8688L97.7125 114.469L90.8375 111.65L107.613 82.5688V48.1938L74.3375 104.844L28 85.6626V103.194L69.25 113.369L43.125 158.194H107.613V139.7H74.6813L86.9875 118.113L94.4125 119.969L86.9875 133.031H128.238L122.05 122.1L130.231 121.481L140.75 139.7H107.613V158.194H172.375L150.1 120.175L187.5 117.425V102.231L145.425 112.613L187.431 101.819V88.0688L141.85 106.563L187.225 87.0376ZM127.412 116.944L119.987 118.8L127.275 116.944H127.412ZM125.075 112.819L118.2 115.569L125.075 112.75V112.819Z" fill="white"/>
</g>
<defs>
<clipPath id="clip0_2_21143">
<rect width="220" height="220" fill="white" transform="translate(0.5)"/>
</clipPath>
</defs>
</svg>
