<svg width="221" height="220" viewBox="0 0 221 220" fill="none" xmlns="http://www.w3.org/2000/svg">
<g clip-path="url(#clip0_2_21139)">
<path d="M110.5 220C171.251 220 220.5 170.751 220.5 110C220.5 49.2487 171.251 0 110.5 0C49.7487 0 0.5 49.2487 0.5 110C0.5 170.751 49.7487 220 110.5 220Z" fill="#13A0F6"/>
<path fill-rule="evenodd" clip-rule="evenodd" d="M57.542 79.5297C54.8509 78.1182 52.5974 75.9973 51.0256 73.3966C49.4538 70.7959 48.6237 67.8147 48.6251 64.776C47.45 62.5479 46.7971 60.0818 46.7157 57.5642C46.6343 55.0466 47.1266 52.5435 48.1553 50.2442C49.184 47.9449 50.7221 45.9097 52.6534 44.2925C54.5847 42.6754 56.8584 41.5187 59.3027 40.9099C61.7469 40.3011 64.2976 40.2562 66.7618 40.7786C69.2259 41.301 71.539 42.377 73.526 43.9252C75.5129 45.4734 77.1218 47.4532 78.2307 49.7149C79.3397 51.9765 79.9197 54.4608 79.927 56.9797C89.3145 51.49 99.9965 48.6041 110.871 48.6197C144.834 48.6197 172.375 76.216 172.375 110.247C172.375 144.278 144.841 171.875 110.871 171.875C76.902 171.875 49.3676 144.285 49.3676 110.247C49.3517 99.4684 52.1708 88.875 57.542 79.5297ZM110.871 140.566C127.578 140.566 141.121 126.995 141.121 110.247C141.121 93.4997 127.578 79.9285 110.871 79.9285C94.1651 79.9285 80.6213 93.5066 80.6213 110.247C80.6213 126.988 94.1651 140.566 110.871 140.566Z" fill="white"/>
</g>
<defs>
<clipPath id="clip0_2_21139">
<rect width="220" height="220" fill="white" transform="translate(0.5)"/>
</clipPath>
</defs>
</svg>
