<svg width="221" height="220" viewBox="0 0 221 220" fill="none" xmlns="http://www.w3.org/2000/svg">
<g clip-path="url(#clip0_2_21135)">
<path d="M110.5 220C171.251 220 220.5 170.751 220.5 110C220.5 49.2487 171.251 0 110.5 0C49.7487 0 0.5 49.2487 0.5 110C0.5 170.751 49.7487 220 110.5 220Z" fill="black"/>
<path d="M116.969 168.967C117.327 169.806 117.519 170.72 117.519 171.683C117.519 175.588 114.302 178.75 110.335 178.75C106.368 178.75 103.151 175.588 103.151 171.683C103.151 170.748 103.336 169.854 103.673 169.036L60.9794 144.788C60.305 145.474 59.5002 146.018 58.6123 146.389C57.7245 146.76 56.7715 146.949 55.8094 146.946C51.8425 146.946 48.625 143.784 48.625 139.879C48.625 136.579 50.9144 133.815 54.015 133.031V84.7207C52.4829 84.3415 51.1211 83.4622 50.1448 82.222C49.1686 80.9818 48.6338 79.4515 48.625 77.8732C48.625 73.9682 51.8425 70.8057 55.8094 70.8057C58.1881 70.8057 60.2987 71.947 61.6119 73.707L103.357 49.9882C103.218 49.4422 103.149 48.8809 103.151 48.3176C103.151 44.4126 106.375 41.2501 110.335 41.2501C111.408 41.2445 112.467 41.481 113.436 41.942C114.404 42.4029 115.256 43.0764 115.928 43.9123C116.6 44.7482 117.075 45.725 117.317 46.7698C117.559 47.8147 117.563 48.9007 117.327 49.947L159.319 73.8032C160.626 71.9882 162.764 70.8057 165.191 70.8057C169.158 70.8057 172.375 73.9682 172.375 77.8732C172.375 81.1732 170.072 83.9507 166.964 84.7276L166.841 132.99C170.01 133.726 172.375 136.531 172.375 139.879C172.375 143.784 169.158 146.946 165.191 146.946C164.188 146.949 163.195 146.742 162.277 146.34C161.358 145.937 160.534 145.348 159.856 144.609L116.969 168.967ZM115.051 166.354L158.274 141.797C157.87 140.392 157.918 138.896 158.412 137.521L116.715 110.708C115.916 111.553 114.952 112.226 113.883 112.685C112.815 113.143 111.663 113.379 110.5 113.376C109.204 113.379 107.924 113.087 106.757 112.521C105.591 111.955 104.569 111.13 103.769 110.11L62.6775 137.796C63.1082 139.176 63.0986 140.656 62.65 142.031L105.564 166.403C106.884 165.247 108.58 164.611 110.335 164.615C112.143 164.615 113.793 165.268 115.051 166.348V166.354ZM115.869 52.8276C114.892 53.9815 113.576 54.7991 112.109 55.1651L111.999 96.8001C113.945 97.1299 115.713 98.1349 116.991 99.6387C118.27 101.142 118.978 103.049 118.991 105.023C118.991 106.061 118.798 107.064 118.441 107.979L160.172 134.819C161.1 133.925 162.269 133.286 163.575 132.99L163.699 84.7895C161.922 84.4273 160.352 83.3996 159.309 81.9168C158.266 80.4341 157.829 78.6087 158.089 76.8145L115.869 52.8276ZM104.835 52.862L62.8906 76.6838C63.1884 78.4994 62.7701 80.3596 61.7237 81.8728C60.6772 83.3861 59.0844 84.4341 57.2806 84.7963V132.956C58.7381 133.258 60.0306 133.987 61.0206 135.018L102.305 107.209C102.014 106.106 101.952 104.955 102.121 103.827C102.291 102.699 102.688 101.617 103.29 100.648C103.892 99.6789 104.685 98.8427 105.621 98.1905C106.556 97.5383 107.616 97.0839 108.733 96.8551L108.843 55.2338C107.281 54.9092 105.871 54.0749 104.835 52.862Z" fill="white"/>
</g>
<defs>
<clipPath id="clip0_2_21135">
<rect width="220" height="220" fill="white" transform="translate(0.5)"/>
</clipPath>
</defs>
</svg>
