<svg width="221" height="220" viewBox="0 0 221 220" fill="none" xmlns="http://www.w3.org/2000/svg">
<g clip-path="url(#clip0_2_21131)">
<path d="M110.5 220C171.251 220 220.5 170.751 220.5 110C220.5 49.2487 171.251 0 110.5 0C49.7487 0 0.5 49.2487 0.5 110C0.5 170.751 49.7487 220 110.5 220Z" fill="#2AABE4"/>
<path fill-rule="evenodd" clip-rule="evenodd" d="M54.8125 48.125H97.4375C99.0785 48.125 100.652 48.7769 101.813 49.9373C102.973 51.0977 103.625 52.6715 103.625 54.3125V96.9375C103.625 98.5785 102.973 100.152 101.813 101.313C100.652 102.473 99.0785 103.125 97.4375 103.125H54.8125C53.1715 103.125 51.5977 102.473 50.4373 101.313C49.2769 100.152 48.625 98.5785 48.625 96.9375V54.3125C48.625 52.6715 49.2769 51.0977 50.4373 49.9373C51.5977 48.7769 53.1715 48.125 54.8125 48.125ZM123.562 48.125H166.188C167.829 48.125 169.402 48.7769 170.563 49.9373C171.723 51.0977 172.375 52.6715 172.375 54.3125V96.9375C172.375 98.5785 171.723 100.152 170.563 101.313C169.402 102.473 167.829 103.125 166.188 103.125H123.562C121.921 103.125 120.348 102.473 119.187 101.313C118.027 100.152 117.375 98.5785 117.375 96.9375V54.3125C117.375 52.6715 118.027 51.0977 119.187 49.9373C120.348 48.7769 121.921 48.125 123.562 48.125ZM123.562 116.875H166.188C167.829 116.875 169.402 117.527 170.563 118.687C171.723 119.848 172.375 121.421 172.375 123.062V165.688C172.375 167.329 171.723 168.902 170.563 170.063C169.402 171.223 167.829 171.875 166.188 171.875H123.562C121.921 171.875 120.348 171.223 119.187 170.063C118.027 168.902 117.375 167.329 117.375 165.688V123.062C117.375 121.421 118.027 119.848 119.187 118.687C120.348 117.527 121.921 116.875 123.562 116.875ZM54.8125 116.875H97.4375C99.0785 116.875 100.652 117.527 101.813 118.687C102.973 119.848 103.625 121.421 103.625 123.062V165.688C103.625 167.329 102.973 168.902 101.813 170.063C100.652 171.223 99.0785 171.875 97.4375 171.875H54.8125C53.1715 171.875 51.5977 171.223 50.4373 170.063C49.2769 168.902 48.625 167.329 48.625 165.688V123.062C48.625 121.421 49.2769 119.848 50.4373 118.687C51.5977 117.527 53.1715 116.875 54.8125 116.875Z" fill="white"/>
</g>
<defs>
<clipPath id="clip0_2_21131">
<rect width="220" height="220" fill="white" transform="translate(0.5)"/>
</clipPath>
</defs>
</svg>
