<svg width="221" height="220" viewBox="0 0 221 220" fill="none" xmlns="http://www.w3.org/2000/svg">
<g clip-path="url(#clip0_2_21127)">
<path d="M110.5 220C171.251 220 220.5 170.751 220.5 110C220.5 49.2487 171.251 0 110.5 0C49.7487 0 0.5 49.2487 0.5 110C0.5 170.751 49.7487 220 110.5 220Z" fill="#181818"/>
<path d="M159.313 76.5188C159.575 82.0136 158.098 87.4512 155.091 92.0578C152.084 96.6643 147.701 100.205 142.565 102.176C142.565 102.176 149.523 95.3012 149.199 77.6806C148.869 60.06 135.931 51.3494 135.931 51.3494C135.931 51.3494 158.989 56.485 159.306 76.5119L159.313 76.5188ZM82.56 170.631L58.9375 171.793V169.586C58.9375 169.586 73.3956 168.094 73.3956 142.154V75.8794C73.3956 53.9206 58.9375 50.1187 58.9375 50.1187V48.125L82.56 49.28V170.631ZM120.318 171.868C110.039 171.958 90.975 170.521 90.975 170.521V49.4519C103.543 49.28 107.936 47.5475 118.289 49.0394C128.65 50.5244 137.546 60.8713 139.973 71.2181C142.4 81.565 139.815 91.4169 136.494 96.7931C133.174 102.169 125.9 105.903 125.9 105.903C125.9 105.903 136.9 109.711 140.784 113.018C144.669 116.332 152.197 125.352 149.282 144.973C146.367 164.594 130.589 171.786 120.318 171.868ZM147.618 167.399C147.618 167.399 158.824 157.637 158.329 137.83C157.834 118.023 147.618 108.714 147.618 108.714C147.618 108.714 168.697 114.008 168.931 137.603C169.178 161.191 147.618 167.406 147.618 167.406V167.399ZM126.306 96.3531C133.854 86.3088 131.483 67.4094 122.339 60.9469C113.195 54.4844 103.57 57.7156 101.714 59.5375C99.8438 61.3594 99.9263 103.744 99.9263 103.744C99.9263 103.744 118.75 106.398 126.299 96.3531H126.306ZM127.701 114.4C120.634 111.251 99.9263 112.076 99.9263 112.076C99.9263 112.076 99.6031 122.781 100.359 142.814C101.116 162.848 107.805 162.738 114.763 163.013C121.72 163.288 134.989 162.793 139.354 145.516C143.727 128.246 134.769 117.542 127.701 114.4Z" fill="white"/>
</g>
<defs>
<clipPath id="clip0_2_21127">
<rect width="220" height="220" fill="white" transform="translate(0.5)"/>
</clipPath>
</defs>
</svg>
