<svg width="221" height="220" viewBox="0 0 221 220" fill="none" xmlns="http://www.w3.org/2000/svg">
<g clip-path="url(#clip0_2_21121)">
<path d="M110.5 220C171.251 220 220.5 170.751 220.5 110C220.5 49.2487 171.251 0 110.5 0C49.7487 0 0.5 49.2487 0.5 110C0.5 170.751 49.7487 220 110.5 220Z" fill="#101341"/>
<path fill-rule="evenodd" clip-rule="evenodd" d="M76.276 48.125H146.594L182.687 110L146.594 171.875H75.6504L111.125 110L76.2691 48.125H76.276ZM113.607 69.8913L136.645 110L113.614 150.109H134.157L157.174 110L134.143 69.8913H113.614H113.607Z" fill="white"/>
<path opacity="0.5" fill-rule="evenodd" clip-rule="evenodd" d="M83.7769 75.8042L63.8256 110L83.5981 143.894L70.955 165.956L38.3125 110L71.2369 53.5498L83.7769 75.8042Z" fill="white"/>
</g>
<defs>
<clipPath id="clip0_2_21121">
<rect width="220" height="220" fill="white" transform="translate(0.5)"/>
</clipPath>
</defs>
</svg>
