<svg width="221" height="220" viewBox="0 0 221 220" fill="none" xmlns="http://www.w3.org/2000/svg">
<g clip-path="url(#clip0_2_21117)">
<path d="M110.5 220C171.251 220 220.5 170.751 220.5 110C220.5 49.2487 171.251 0 110.5 0C49.7487 0 0.5 49.2487 0.5 110C0.5 170.751 49.7487 220 110.5 220Z" fill="#18578C"/>
<path d="M80.4769 139.81C85.0281 144.451 85.0281 151.972 80.4769 156.613C75.9256 161.253 68.5419 161.267 63.9769 156.633C61.7769 154.406 60.5394 151.374 60.5394 148.211C60.5394 145.049 61.7769 142.024 63.9769 139.789C65.0517 138.69 66.3358 137.816 67.7534 137.221C69.171 136.625 70.6935 136.319 72.2312 136.321C73.7689 136.323 75.2906 136.633 76.7068 137.232C78.1229 137.831 79.4048 138.708 80.4769 139.81ZM156.535 59.9912C158.683 60.9128 160.513 62.447 161.794 64.4021C163.075 66.3573 163.752 68.6467 163.74 70.9844C163.74 75.7969 160.894 80.1281 156.535 81.9706C152.176 83.8131 147.151 82.7956 143.816 79.3925C141.618 77.1465 140.388 74.1274 140.392 70.9844C140.392 67.8219 141.623 64.7969 143.816 62.5763C145.431 60.9179 147.509 59.7848 149.778 59.3249C152.047 58.8651 154.401 59.0996 156.535 59.9981V59.9912ZM78.9437 130.646L90.1981 119.123C91.3 121.945 92.9622 124.515 95.0843 126.677C97.2064 128.84 99.7446 130.55 102.546 131.704L91.2637 143.192L78.9437 130.646ZM145.611 88.4538L134.329 99.9487C133.234 97.1257 131.573 94.5567 129.448 92.4C127.336 90.246 124.807 88.5454 122.016 87.4019L133.291 75.9069L145.611 88.4538ZM140.887 143.055C141.751 140.897 143.239 139.047 145.161 137.74C147.082 136.433 149.35 135.73 151.674 135.719C156.397 135.719 160.653 138.614 162.461 143.055C164.263 147.503 163.266 152.611 159.931 156.014C158.857 157.117 157.573 157.995 156.155 158.594C154.738 159.194 153.214 159.504 151.674 159.507C150.136 159.504 148.614 159.193 147.197 158.593C145.78 157.993 144.498 157.117 143.424 156.014C141.786 154.335 140.674 152.215 140.223 149.913C139.772 147.611 140.003 145.228 140.887 143.055ZM62.6156 65.3813C63.4781 63.2224 64.9656 61.3703 66.8874 60.0621C68.8092 58.754 71.0778 58.0494 73.4025 58.0388C78.1256 58.0388 82.3813 60.9331 84.1894 65.3813C85.9906 69.8225 84.9938 74.9375 81.6594 78.3406C80.5848 79.4425 79.3008 80.3184 77.8828 80.917C76.4649 81.5155 74.9416 81.8247 73.4025 81.8263C71.8646 81.8238 70.3426 81.5142 68.9259 80.9156C67.5092 80.3171 66.2263 79.4416 65.1525 78.3406C63.5144 76.6617 62.4018 74.5413 61.9512 72.2393C61.5005 69.9373 61.7315 67.5539 62.6156 65.3813ZM132.363 142.684L121.053 131.223C123.854 130.069 126.392 128.358 128.514 126.196C130.637 124.034 132.299 121.464 133.401 118.642L144.676 130.137L132.363 142.684ZM92.2056 75.24L103.481 86.7419C100.696 87.8707 98.1754 89.563 96.0763 91.7125C93.9588 93.8713 92.2881 96.4563 91.1675 99.2888L79.8925 87.7938L92.2056 75.24ZM112.432 65.0581C105.976 65.0581 100.744 59.73 100.744 53.1506C100.744 46.5712 105.976 41.25 112.432 41.25C115.526 41.25 118.502 42.5012 120.696 44.7356C122.889 46.97 124.119 49.995 124.112 53.1506C124.112 59.73 118.888 65.0581 112.425 65.0581H112.432ZM124.119 166.849C124.119 173.422 118.881 178.75 112.432 178.75C105.983 178.75 100.744 173.422 100.744 166.849C100.744 160.277 105.976 154.942 112.432 154.942C115.526 154.942 118.502 156.193 120.696 158.428C122.889 160.662 124.119 163.687 124.112 166.849H124.119ZM116.674 71.2869V86.0269C114.241 85.597 111.751 85.597 109.317 86.0269V71.2869H116.674ZM116.674 134.619V149.366H109.317V134.613C111.751 135.046 114.24 135.046 116.674 134.613V134.619ZM153.331 111.299C152.446 109.125 152.214 106.739 152.665 104.434C153.116 102.13 154.229 100.007 155.868 98.3263C157.485 96.6656 159.564 95.5306 161.836 95.0695C164.107 94.6084 166.464 94.8425 168.601 95.7412C172.966 97.5837 175.812 101.929 175.812 106.741C175.812 109.904 174.582 112.929 172.396 115.163C171.045 116.549 169.368 117.574 167.519 118.145C165.67 118.715 163.707 118.813 161.81 118.428C159.913 118.044 158.143 117.19 156.662 115.945C155.181 114.699 154.036 113.102 153.331 111.299ZM45.1875 108.762C45.1875 102.19 50.4125 96.8619 56.875 96.8619C63.3237 96.8619 68.5556 102.183 68.5625 108.756C68.5625 111.918 67.325 114.943 65.1388 117.178C64.0626 118.279 62.7774 119.155 61.3583 119.754C59.9393 120.352 58.4151 120.661 56.875 120.663C50.4194 120.663 45.1875 115.335 45.1875 108.769V108.762ZM148.883 112.509L134.418 112.496C134.84 110.016 134.84 107.482 134.418 105.002H148.883V112.509ZM89.4625 112.509H74.9906V105.016H89.4625C89.0406 107.496 89.0406 110.029 89.4625 112.509ZM112.081 126.514C102.931 126.514 95.5125 118.958 95.5125 109.643C95.5125 100.327 102.931 92.7644 112.081 92.7644C121.225 92.7644 128.643 100.327 128.65 109.643C128.65 118.958 121.225 126.514 112.081 126.514Z" fill="white"/>
</g>
<defs>
<clipPath id="clip0_2_21117">
<rect width="220" height="220" fill="white" transform="translate(0.5)"/>
</clipPath>
</defs>
</svg>
