<svg width="221" height="220" viewBox="0 0 221 220" fill="none" xmlns="http://www.w3.org/2000/svg">
<g clip-path="url(#clip0_2_21113)">
<path d="M110.5 220C171.251 220 220.5 170.751 220.5 110C220.5 49.2487 171.251 0 110.5 0C49.7487 0 0.5 49.2487 0.5 110C0.5 170.751 49.7487 220 110.5 220Z" fill="#F3BA2F"/>
<path d="M83.7975 99.0275L110.5 72.325L137.216 99.0413L152.754 83.5037L110.5 41.25L68.26 83.49L83.7975 99.0275ZM41.75 110L57.2875 94.4625L72.825 110L57.2875 125.537L41.75 110ZM83.7975 120.973L110.5 147.675L137.216 120.959L152.754 136.489L110.5 178.75L68.26 136.51L68.2394 136.489L83.7975 120.973ZM148.175 110L163.713 94.4625L179.25 110L163.713 125.537L148.175 110ZM126.257 109.986H126.271V110L110.5 125.771L94.7494 110.027L94.7219 110L94.7494 109.979L97.5062 107.216L98.8469 105.875L110.5 94.2288L126.264 109.993L126.257 109.986Z" fill="white"/>
</g>
<defs>
<clipPath id="clip0_2_21113">
<rect width="220" height="220" fill="white" transform="translate(0.5)"/>
</clipPath>
</defs>
</svg>
