<svg width="221" height="220" viewBox="0 0 221 220" fill="none" xmlns="http://www.w3.org/2000/svg">
<g clip-path="url(#clip0_2_21109)">
<path d="M110.5 220C171.251 220 220.5 170.751 220.5 110C220.5 49.2487 171.251 0 110.5 0C49.7487 0 0.5 49.2487 0.5 110C0.5 170.751 49.7487 220 110.5 220Z" fill="#000D2B"/>
<path d="M109.95 40.4243L78.8884 58.6224L109.95 76.8274L141.595 58.6224L109.95 40.4243ZM115.058 137.596V173.999L157.25 149.929V113.519L115.058 137.596ZM146.703 70.0693V106.479L115.051 124.684V88.2743L146.703 70.0693ZM70.5146 106.479L102.167 124.684V88.2743L70.5146 70.0693V106.479ZM70.5146 155.801L102.167 173.999V137.596L70.5146 119.397V155.794V155.801Z" fill="white"/>
</g>
<defs>
<clipPath id="clip0_2_21109">
<rect width="220" height="220" fill="white" transform="translate(0.5)"/>
</clipPath>
</defs>
</svg>
