<svg width="221" height="220" viewBox="0 0 221 220" fill="none" xmlns="http://www.w3.org/2000/svg">
<g clip-path="url(#clip0_2_21105)">
<path d="M110.5 220C171.251 220 220.5 170.751 220.5 110C220.5 49.2487 171.251 0 110.5 0C49.7487 0 0.5 49.2487 0.5 110C0.5 170.751 49.7487 220 110.5 220Z" fill="#FD7A3D"/>
<path d="M173.716 133.375C179.009 136.262 180.776 142.904 177.243 148.101C174.307 153.299 167.549 155.031 162.255 152.144C160.661 151.225 159.317 149.927 158.342 148.366C157.368 146.805 156.792 145.028 156.666 143.192H129.613L116.674 165.131C116.674 165.419 116.378 165.708 116.089 165.997C119.025 167.729 121.088 171.194 121.088 174.948C121.088 180.723 116.089 185.625 110.204 185.625C104.326 185.625 99.3281 181.005 99.3281 174.948C99.3281 171.194 101.391 168.018 104.326 165.997C104.326 165.708 104.031 165.419 103.735 165.131L90.8032 143.199H63.75C63.4544 146.946 61.3988 150.122 58.1607 152.137C52.8669 155.024 46.1088 153.299 43.1663 148.101C40.2238 142.904 41.9907 136.269 47.2844 133.382C50.8113 131.361 54.6338 131.361 57.8719 133.093C58.1607 132.804 58.1607 132.227 58.4563 131.938L71.6906 110L58.7519 88.0688C58.4405 87.7511 58.2341 87.3456 58.1607 86.9069C54.9294 88.3506 50.8113 88.6394 47.5732 86.6181C46.3274 85.9309 45.231 85.0024 44.348 83.8869C43.4651 82.7713 42.8132 81.491 42.4305 80.1207C42.0477 78.7504 41.9418 77.3176 42.1189 75.9059C42.296 74.4943 42.7526 73.132 43.4619 71.8988C46.3975 66.7013 53.1625 64.9688 58.4563 67.8563C61.9832 69.8775 63.75 73.3425 64.0457 76.8075H91.3875L104.326 54.8694C104.326 54.5806 104.622 54.2919 104.911 54.0031C103.383 53.0613 102.122 51.7444 101.247 50.1776C100.372 48.6109 99.9129 46.8463 99.9125 45.0519C99.9125 39.2769 104.911 34.375 110.796 34.375C116.674 34.375 121.672 38.995 121.672 45.0519C121.672 48.8056 119.609 51.9819 116.674 54.0031C116.674 54.2919 116.969 54.5806 117.265 54.8694L130.197 76.8006H157.25C157.546 73.0537 159.601 69.8775 162.839 67.8631C168.133 64.9756 174.891 66.7013 177.834 71.8988C178.543 73.1324 178.999 74.4951 179.176 75.907C179.352 77.319 179.246 78.7519 178.862 80.1223C178.479 81.4926 177.826 82.7728 176.943 83.8881C176.059 85.0034 174.962 85.9315 173.716 86.6181C170.189 88.6394 166.366 88.6394 163.128 86.9069C162.839 87.1956 162.839 87.7731 162.544 88.0619L149.605 110L162.544 131.931C162.855 132.249 163.062 132.654 163.135 133.093C166.366 131.649 170.484 131.361 173.723 133.382L173.716 133.375ZM124.614 102.781C124.614 96.7244 119.616 91.8156 113.443 91.8156H99.3281C98.9833 91.8111 98.641 91.8748 98.321 92.0032C98.001 92.1316 97.7095 92.3221 97.4634 92.5637C97.2174 92.8053 97.0216 93.0932 96.8873 93.4108C96.7531 93.7285 96.6831 94.0695 96.6813 94.4144V125.586C96.6813 127.029 97.8569 128.184 99.3281 128.184H113.443C119.616 128.184 124.614 123.276 124.614 117.219C124.614 114.62 123.734 112.021 121.968 110.289C123.439 107.979 124.614 105.669 124.614 102.781Z" fill="white"/>
</g>
<defs>
<clipPath id="clip0_2_21105">
<rect width="220" height="220" fill="white" transform="translate(0.5)"/>
</clipPath>
</defs>
</svg>
