<svg width="221" height="220" viewBox="0 0 221 220" fill="none" xmlns="http://www.w3.org/2000/svg">
<g clip-path="url(#clip0_2_21101)">
<path d="M110.5 220C171.251 220 220.5 170.751 220.5 110C220.5 49.2487 171.251 0 110.5 0C49.7487 0 0.5 49.2487 0.5 110C0.5 170.751 49.7487 220 110.5 220Z" fill="#00B4F4"/>
<path d="M53.9394 157.988V159.06H42.8706V138.758L42.5269 139.879L31.9394 136.647L37.9206 117.081L37.1781 118.174L28 111.987L39.4675 94.9781L38.3744 95.865L31.41 87.2575L47.91 73.8925L45.8063 74.7038L41.8394 64.3638L61.55 56.8013L59.2469 56.9594L58.4769 45.9181L79.1156 44.4744L77.2594 44.0413L79.7481 33.2475L99.4656 37.8056L98.2212 37.0906L103.756 27.5L120.957 37.4275L120.283 36.7125L128.382 29.1569L141.774 43.5256L141.492 42.9344L151.441 38.0806L160.034 55.6944L159.959 55.1994L170.89 53.4669L174.114 73.8169L174.341 72.3662L185.279 74.0987L182.007 94.7444L182.818 93.0875L192.773 97.9413L183.561 116.827L184.901 115.383L193 122.939L178.686 138.284L180.419 137.287L185.953 146.878L167.961 157.259L169.769 156.846L172.258 167.633L152.376 172.226L153.909 172.329L153.132 183.377L133.229 181.981L134.246 182.373L130.279 192.706L111.222 185.398L112.425 186.367L105.461 194.975L89.7306 182.242L90.5075 183.391L81.3294 189.578L70.0887 172.92L70.4256 174.013L59.8313 177.244L53.9394 157.988ZM53.9394 144.829L60.8556 142.718L66.2319 160.298L72.2131 156.262L82.4294 171.414L86.9944 165.777L101.157 177.244L103.694 170.644L120.758 177.196L121.259 170.046L139.519 171.325L137.876 164.209L155.786 160.071L152.073 153.649L168.057 144.423L162.578 139.322L175.208 125.778L168.47 122.499L176.589 105.854L169.226 104.686L172.114 86.4119L165.074 87.5256L162.186 69.2519L155.841 72.3456L147.776 55.825L142.606 60.6444L130.135 47.2725L126.56 53.4531L110.775 44.3369L109.146 51.4044L91.3806 47.3L91.8962 54.6769L73.6637 55.9487L76.3588 62.975L59.1919 69.5612L63.8119 75.2675L49.395 86.9412L55.4794 91.0387L45.0913 106.439L52.09 108.584L46.6588 126.335H53.9394V144.829ZM78.4144 77.1169H100.738C103.336 77.1169 105.914 77.3025 108.479 77.6669C111.043 78.0312 113.298 78.7669 115.244 79.8669C117.189 80.9669 118.674 82.5 119.685 84.4731C120.702 86.4462 120.984 89.0725 120.531 92.3381C120.084 95.7275 118.743 98.5256 116.516 100.753C114.288 102.981 111.566 104.576 108.355 105.531V105.703C110.266 105.985 111.978 106.535 113.47 107.353C114.962 108.171 116.192 109.209 117.148 110.481C118.111 111.753 118.784 113.231 119.176 114.923C119.575 116.614 119.63 118.415 119.348 120.333C118.894 123.496 117.856 126.129 116.22 128.239C114.615 130.33 112.601 132.073 110.301 133.361C107.922 134.683 105.352 135.624 102.683 136.153C100.014 136.706 97.2963 136.99 94.5706 136.998H70.0406L78.4075 77.1169H78.4144ZM88.225 101.062H97.7812C98.7919 101.062 99.8094 100.946 100.827 100.719C101.822 100.5 102.777 100.129 103.659 99.6188C104.533 99.1124 105.284 98.42 105.859 97.5906C106.451 96.745 106.829 95.7344 107.001 94.545C107.195 93.501 107.06 92.4224 106.616 91.4581C106.211 90.6585 105.58 89.996 104.801 89.5537C103.944 89.0799 103.015 88.7523 102.051 88.5844C101.033 88.3896 99.9997 88.2907 98.9637 88.2887H89.9987L88.225 101.062ZM84.7531 125.84H96.5987C97.6094 125.84 98.6681 125.723 99.7612 125.496C101.911 125.081 103.827 123.874 105.131 122.114C105.838 121.144 106.278 120.006 106.409 118.814C106.574 117.411 106.382 116.27 105.818 115.397C105.244 114.511 104.418 113.817 103.446 113.403C102.381 112.939 101.257 112.626 100.105 112.475C98.971 112.311 97.827 112.226 96.6813 112.221H86.6987L84.7531 125.833V125.84ZM148.416 78.0725L134.411 129.222L122.847 128.411L131.565 75.68L148.409 78.0725H148.416ZM136.206 134.558L132.569 152.625L117.189 148.143L120.709 130.811L136.206 134.551V134.558Z" fill="#FEFFFF"/>
</g>
<defs>
<clipPath id="clip0_2_21101">
<rect width="220" height="220" fill="white" transform="translate(0.5)"/>
</clipPath>
</defs>
</svg>
