<svg width="221" height="220" viewBox="0 0 221 220" fill="none" xmlns="http://www.w3.org/2000/svg">
<g clip-path="url(#clip0_2_21097)">
<path d="M110.5 220C171.251 220 220.5 170.751 220.5 110C220.5 49.2487 171.251 0 110.5 0C49.7487 0 0.5 49.2487 0.5 110C0.5 170.751 49.7487 220 110.5 220Z" fill="#00A8D6"/>
<path fill-rule="evenodd" clip-rule="evenodd" d="M99.72 130.281V117.102H120.029C133.572 117.102 140.344 113.719 140.344 106.954V71.4519C140.344 64.6937 133.572 61.3113 120.029 61.3113H87.5375V82.61H69.25V48.125H117.994C145.081 48.125 158.625 55.5638 158.625 70.4413V107.972C158.625 122.849 145.081 130.288 117.994 130.288H99.72V130.281ZM140.344 138.401H158.625V149.559C158.625 164.436 145.081 171.875 117.994 171.875H69.25V92.7575H117.994C120.861 92.7575 123.563 92.84 126.127 93.005V106.212C124.1 106.022 122.065 105.93 120.029 105.937H87.5375V158.689H120.036C133.579 158.689 140.351 155.306 140.351 148.548V138.394L140.344 138.401Z" fill="white"/>
</g>
<defs>
<clipPath id="clip0_2_21097">
<rect width="220" height="220" fill="white" transform="translate(0.5)"/>
</clipPath>
</defs>
</svg>
