<svg width="221" height="220" viewBox="0 0 221 220" fill="none" xmlns="http://www.w3.org/2000/svg">
<g clip-path="url(#clip0_2_21093)">
<path d="M110.5 220C171.251 220 220.5 170.751 220.5 110C220.5 49.2487 171.251 0 110.5 0C49.7487 0 0.5 49.2487 0.5 110C0.5 170.751 49.7487 220 110.5 220Z" fill="#0F63D8"/>
<path d="M178.452 142.567C177.79 143.93 177.063 145.261 176.273 146.554C175.744 147.503 175.235 148.452 174.678 149.353C174.424 149.772 174.217 150.205 173.963 150.611H173.881C168.543 159.092 161.558 166.416 153.339 172.15C145.12 177.884 135.834 181.91 126.031 183.991C116.229 186.072 106.108 186.165 96.2685 184.264C86.4291 182.364 77.071 178.509 68.7481 172.927C68.4044 172.693 68.1087 172.439 67.7719 172.212C66.4709 171.37 65.2113 170.466 63.9975 169.503C62.0773 168.04 60.241 166.47 58.4975 164.801C57.6638 164.029 56.8499 163.236 56.0569 162.422C55.2044 161.549 54.4619 160.703 53.5956 159.72C52.7248 158.741 51.8767 157.741 51.0519 156.723C50.4068 155.898 49.781 155.06 49.175 154.206C48.3315 153.049 47.5199 151.868 46.7412 150.666C46.2394 149.882 45.7719 149.084 45.2975 148.273C44.5207 146.979 43.7893 145.658 43.1044 144.313C42.6988 143.516 42.3206 142.704 41.9425 141.893C41.3083 140.525 40.7055 139.143 40.1344 137.748C39.7906 136.881 39.4812 136.001 39.1719 135.121C38.6975 133.746 38.23 132.309 37.8244 130.962C37.5494 129.986 37.3775 129.058 37.075 128.054C36.731 126.711 36.4261 125.358 36.1606 123.998C36.0231 122.966 35.7962 121.88 35.7 120.904C35.4994 119.556 35.3321 118.204 35.1981 116.848C35.1019 115.782 34.985 114.716 34.985 113.644C34.875 112.296 34.875 110.942 34.875 109.588C34.875 108.556 34.9575 107.525 34.9575 106.487C35.0669 104.095 35.2871 101.709 35.6175 99.337C36.2947 94.5015 37.4367 89.7426 39.0275 85.1263C39.6119 83.4351 40.265 81.7576 40.9869 80.0869C41.145 79.7088 41.3306 79.2482 41.4269 78.9388C41.5382 78.5982 41.7264 78.2877 41.9769 78.0313C42.685 76.5051 43.4687 74.9926 44.2937 73.4938C44.6856 72.6551 45.16 71.8301 45.6481 71.0188C45.9919 70.4276 46.2256 69.8707 46.6794 69.2244C47.1194 68.5713 47.635 67.8976 48.0956 67.2238C48.6852 66.2987 49.3113 65.3973 49.9725 64.5219C50.8388 63.3532 51.7394 62.2188 52.6744 61.1119C54.3119 59.1758 56.0442 57.3219 57.865 55.5569C58.5387 54.9244 59.2056 54.2851 59.8931 53.6801C61.747 52.0897 63.6524 50.5603 65.6063 49.0944C66.8988 48.2007 68.2187 47.2932 69.5525 46.3926C70.2633 45.9258 70.9854 45.4765 71.7181 45.0451C73.0725 44.2613 74.42 43.5051 75.7744 42.7969C78.8319 41.2137 81.9977 39.849 85.2481 38.7132C88.6372 37.5011 92.1118 36.5428 95.6431 35.8463C97.9555 35.3949 100.286 35.0416 102.628 34.7876C104.154 34.6226 105.694 34.5126 107.248 34.4438C108.087 34.3751 108.939 34.3751 109.792 34.3751C112.236 34.3455 114.68 34.4419 117.114 34.6638C121.074 35.006 124.999 35.6728 128.849 36.6576C129.833 36.9188 130.823 37.1938 131.806 37.4826C133.249 37.8951 134.604 38.3419 135.958 38.8369C136.969 39.2013 137.986 39.5932 138.983 40.0126C139.739 40.3288 140.509 40.5694 141.266 40.9063V41.0163C150.452 45.039 158.738 50.8656 165.631 58.1506C172.523 65.4356 177.883 74.0306 181.392 83.4258C184.9 92.8211 186.486 102.825 186.056 112.845C185.625 122.865 183.187 132.696 178.886 141.756C178.748 142.044 178.583 142.285 178.452 142.567ZM81.8175 173.504V173.491C97.2552 180.407 114.68 181.478 130.849 176.504C147.017 171.53 160.827 160.849 169.707 146.451C170.202 145.626 170.67 144.774 171.137 143.935C171.784 142.698 172.512 141.501 173.138 140.154C177.295 131.606 179.65 122.295 180.058 112.799C180.465 103.303 178.916 93.8244 175.507 84.952C172.098 76.0797 166.901 68.0028 160.24 61.2229C153.578 54.4431 145.594 49.105 136.783 45.5401C135.892 45.1605 134.991 44.8051 134.081 44.4744C131.917 43.7062 129.719 43.0341 127.495 42.4601C123.899 41.5411 120.234 40.918 116.536 40.5969L114.226 40.4319C112.734 40.3632 111.256 40.3288 109.778 40.3288H107.454C106.018 40.3907 104.594 40.4938 103.171 40.6382C102.312 40.7344 101.459 40.8444 100.614 40.9613C98.3249 41.2711 96.055 41.7072 93.8144 42.2676C91.557 42.8107 89.3307 43.4763 87.1456 44.2613C86.1762 44.5913 85.2412 44.9488 84.3406 45.3132C82.334 46.1334 80.3616 47.0348 78.4281 48.0151C76.4655 49.0314 74.5478 50.1324 72.6806 51.3151C71.4216 52.0978 70.1989 52.9374 69.0162 53.8313C68.3975 54.2507 67.7788 54.7044 67.1737 55.1788C65.3701 56.6054 63.6356 58.1173 61.9763 59.7094C60.9656 60.7269 59.9756 61.7582 58.9994 62.8032C57.4628 64.4872 56.006 66.2422 54.6338 68.0626C53.2075 69.981 51.8723 71.9655 50.6325 74.0094C50.1856 74.7519 49.78 75.4944 49.3606 76.2369C48.5356 77.6257 47.8619 79.0351 47.1881 80.4994C45.9094 83.2599 44.8116 86.1007 43.9019 89.0038C43.1435 91.2328 42.5303 93.5086 42.0662 95.817C41.7706 97.2607 41.5231 98.7251 41.3238 100.183C41.2138 101.021 41.09 101.874 41.0144 102.713C40.8769 104.067 40.7256 105.414 40.7256 106.769C40.6431 107.69 40.6431 108.625 40.6431 109.553C40.6431 110.839 40.7531 112.118 40.7531 113.403C40.8719 115.636 41.0968 117.861 41.4269 120.072C41.6056 121 41.7569 121.88 41.9288 122.877C42.1762 124.149 42.4719 125.421 42.7813 126.693C43.0013 127.552 43.2144 128.418 43.4688 129.298C43.8469 130.604 44.28 131.89 44.7406 133.176C45.0225 133.959 45.2906 134.757 45.6069 135.541C46.1225 136.84 46.6863 138.098 47.2156 139.432C47.5663 140.174 47.9031 140.924 48.2812 141.653C48.955 142.883 49.6081 144.1 50.3094 145.296C50.77 146.046 51.2031 146.774 51.6637 147.503C52.365 148.61 53.135 149.689 53.905 150.776C54.4756 151.559 54.8881 152.206 55.6375 153.099C56.38 153.993 57.2188 154.963 57.9475 155.801C58.6763 156.64 59.4875 157.548 60.2162 158.304C60.945 159.06 61.5156 159.596 62.4575 160.49C64.0543 162.032 65.7392 163.481 67.5038 164.828C71.9089 168.285 76.7148 171.198 81.8175 173.504ZM110.362 167.833C98.9156 167.841 87.7233 164.454 78.2012 158.101C68.6791 151.748 61.2548 142.714 56.8674 132.141C52.4799 121.568 51.3263 109.932 53.5525 98.7036C55.7787 87.4753 61.2846 77.1592 69.374 69.0602C77.4634 60.9612 87.7729 55.443 98.9986 53.2035C110.224 50.964 121.862 52.1037 132.44 56.4786C143.018 60.8535 152.061 68.267 158.425 77.7816C164.79 87.2962 168.19 98.4844 168.195 109.931C168.184 125.272 162.09 139.983 151.248 150.837C140.407 161.692 125.704 167.803 110.362 167.833ZM110.362 71.0463C102.663 71.0368 95.134 73.3116 88.7279 77.5828C82.3219 81.854 77.3269 87.9295 74.3751 95.0406C71.4233 102.152 70.6475 109.979 72.1457 117.531C73.644 125.083 77.3489 132.021 82.7918 137.467C88.2346 142.913 95.1707 146.621 102.722 148.123C110.273 149.626 118.101 148.854 125.213 145.906C132.326 142.958 138.404 137.966 142.679 131.562C146.954 125.159 149.232 117.631 149.227 109.931C149.216 99.6228 145.119 89.7388 137.835 82.4451C130.55 75.1513 120.671 71.0425 110.362 71.0188V71.0463Z" fill="white"/>
</g>
<defs>
<clipPath id="clip0_2_21093">
<rect width="220" height="220" fill="white" transform="translate(0.5)"/>
</clipPath>
</defs>
</svg>
