<svg width="221" height="220" viewBox="0 0 221 220" fill="none" xmlns="http://www.w3.org/2000/svg">
<g clip-path="url(#clip0_2_21089)">
<path d="M110.5 220C171.251 220 220.5 170.751 220.5 110C220.5 49.2487 171.251 0 110.5 0C49.7487 0 0.5 49.2487 0.5 110C0.5 170.751 49.7487 220 110.5 220Z" fill="#1D1D1D"/>
<path fill-rule="evenodd" clip-rule="evenodd" d="M68.9887 116.559C68.9896 120.045 69.6793 123.496 71.0181 126.715C72.3569 129.934 74.3185 132.856 76.7902 135.314C79.2619 137.773 82.195 139.718 85.421 141.04C88.6469 142.361 92.1021 143.032 95.5881 143.014C110.177 142.924 122.029 131.216 122.036 116.889C122.068 113.393 121.405 109.926 120.084 106.689C118.763 103.453 116.812 100.511 114.344 98.0357C111.875 95.5603 108.939 93.6006 105.706 92.2708C102.473 90.9409 99.0082 90.2673 95.5125 90.2894C80.855 90.31 68.9887 102.059 68.9887 116.559ZM69.0162 145.021V153.773H55.5V55C59.3431 55.0688 62.5881 56.4437 65.1937 59.1594C67.6894 61.7719 68.9337 64.9 68.92 68.53C68.8856 75.0406 68.9062 81.5513 68.9062 88.3713C78.3456 80.4856 88.8575 76.6012 101.102 78.4712C113.236 80.3275 122.552 86.4325 128.904 96.8756C138.495 112.654 135.388 132.804 121.493 145.344C107.943 157.582 85.4269 159.479 69.0162 145.021ZM112.734 153.594C113.271 153.271 113.552 153.079 113.848 152.927C118.106 150.835 121.949 147.989 125.192 144.526C125.52 144.153 125.921 143.852 126.37 143.64C126.82 143.428 127.308 143.311 127.804 143.296C139.286 142.636 149.632 133.396 151.578 122.093C154.136 107.243 145.116 94.1394 130.197 91.2931C128.148 90.983 126.273 89.9606 124.903 88.4056C122.153 85.3669 118.812 82.995 115.257 80.9531C114.955 80.7812 114.666 80.5956 114.171 80.2931C120.936 78.4369 127.529 77.9969 134.212 79.5163C140.86 81.0219 146.587 84.2806 151.949 88.7288V79.9631H165.5V178.75C163.699 178.739 161.919 178.367 160.265 177.656C158.61 176.945 157.115 175.91 155.868 174.611C154.634 173.369 153.663 171.891 153.011 170.266C152.359 168.641 152.04 166.902 152.073 165.151V145.42C140.399 155.203 127.488 158.132 112.734 153.594Z" fill="white"/>
</g>
<defs>
<clipPath id="clip0_2_21089">
<rect width="220" height="220" fill="white" transform="translate(0.5)"/>
</clipPath>
</defs>
</svg>
