<svg width="221" height="220" viewBox="0 0 221 220" fill="none" xmlns="http://www.w3.org/2000/svg">
<g clip-path="url(#clip0_2_21085)">
<path d="M110.5 220C171.251 220 220.5 170.751 220.5 110C220.5 49.2487 171.251 0 110.5 0C49.7487 0 0.5 49.2487 0.5 110C0.5 170.751 49.7487 220 110.5 220Z" fill="#FE5D86"/>
<path d="M55.5 62.1431C55.5 58.1969 58.745 55 62.7462 55H114.914C145.686 55 156.542 58.63 164.022 66.0069C166.335 68.3563 168.13 71.1646 169.29 74.2506C170.451 77.3366 170.951 80.6317 170.759 83.9231C170.759 96.6487 163.905 105.277 145.411 109.065C163.272 112.186 172.341 119.446 172.341 134.049C172.51 137.454 171.975 140.859 170.768 144.048C169.561 147.237 167.71 150.143 165.328 152.584C158.006 159.802 146.044 165 113.848 165H62.7462C60.8384 165.013 59.0034 164.268 57.6447 162.928C56.2859 161.589 55.5145 159.765 55.5 157.857V62.1431ZM95.1069 103.132C95.1069 100.499 97.2725 98.3675 99.94 98.3675H116.736C126.319 98.3675 133.49 97.9 136.811 94.4625C137.584 93.6504 138.181 92.6868 138.563 91.6324C138.945 90.5781 139.105 89.4559 139.031 88.3369C139.237 86.1369 138.495 83.9506 136.969 82.3212C133.6 79.0075 126.436 78.4231 116.736 78.4231H85.475V141.893H116.413C126.945 141.893 134.748 141.109 138.392 137.479C140.069 135.761 140.936 133.423 140.771 131.037C140.922 128.611 140.062 126.225 138.392 124.438C134.707 120.814 126.911 120.539 116.413 120.539H100.05C99.3942 120.556 98.7419 120.439 98.1323 120.197C97.5227 119.955 96.9683 119.592 96.5025 119.13C96.0401 118.673 95.6769 118.126 95.4356 117.523C95.1943 116.92 95.08 116.273 95.1 115.624L95.1069 103.132Z" fill="white"/>
</g>
<defs>
<clipPath id="clip0_2_21085">
<rect width="220" height="220" fill="white" transform="translate(0.5)"/>
</clipPath>
</defs>
</svg>
