<svg width="221" height="220" viewBox="0 0 221 220" fill="none" xmlns="http://www.w3.org/2000/svg">
<g clip-path="url(#clip0_2_21077)">
<path d="M110.5 220C171.251 220 220.5 170.751 220.5 110C220.5 49.2487 171.251 0 110.5 0C49.7487 0 0.5 49.2487 0.5 110C0.5 170.751 49.7487 220 110.5 220Z" fill="#EAB304"/>
<path d="M152.781 100.168L153.262 99.2054C153.262 98.7242 153.262 98.2429 154.225 98.5867C154.299 98.1544 154.299 97.7127 154.225 97.2804C154.457 96.6597 154.457 95.9761 154.225 95.3554C153.249 92.9773 153.08 90.345 153.744 87.8617C153.819 87.5453 153.819 87.2155 153.744 86.8992L154.225 86.4179C154.42 86.5947 154.583 86.8041 154.706 87.0367C154.782 87.353 154.782 87.6828 154.706 87.9992V88.4804C154.706 88.9617 155.531 87.9992 155.875 87.6554C156.299 87.3277 156.761 87.0509 157.25 86.8304C157.341 85.5731 157.178 84.3103 156.769 83.1179C156.003 80.5301 156.173 77.7552 157.25 75.2804C157.25 75.7617 157.869 76.1054 157.869 76.5867C157.985 78.3742 158.742 80.0586 160 81.3304C161.395 82.9323 162.447 84.8023 163.094 86.8304C163.094 86.8304 163.094 87.4492 163.575 87.4492C165.555 88.0198 167.356 89.0786 168.8 90.5429C170.464 92.0417 172.045 93.6229 173.544 95.2867C173.803 95.5699 174.012 95.8954 174.162 96.2492H174.644C174.724 94.7377 174.724 93.2231 174.644 91.7117C174.644 90.4054 175.262 89.0992 176.569 89.3054H177.187C177.216 88.7251 177.433 88.17 177.805 87.7236C178.177 87.2772 178.684 86.9638 179.25 86.8304C179.491 87.2485 179.618 87.7227 179.618 88.2054C179.618 88.6882 179.491 89.1624 179.25 89.5804C180.212 90.7492 180.419 91.3679 179.25 92.6742C178.081 93.9804 178.631 94.1179 179.25 95.4242C179.384 94.6669 179.664 93.9429 180.075 93.2929C180.419 92.6054 180.556 91.5054 181.381 91.1617C181.648 91.0673 181.939 91.0673 182.206 91.1617C183 91.3191 183.818 91.3191 184.612 91.1617C185.114 91.1204 185.616 91.2375 186.048 91.4965C186.479 91.7555 186.819 92.1433 187.019 92.6054L184.75 93.7054C185.231 94.6679 184.75 95.0117 183.787 95.6304C183.308 96.0703 182.871 96.5536 182.481 97.0742C183.363 96.9179 184.235 96.7113 185.094 96.4554C185.677 96.307 186.295 96.3707 186.836 96.635C187.378 96.8994 187.808 97.3474 188.05 97.8992C188.234 98.288 188.519 98.6204 188.875 98.8617C189.541 99.4399 189.96 100.252 190.044 101.13C190.096 101.333 190.096 101.546 190.044 101.749L188.737 100.787C188.571 100.627 188.349 100.538 188.119 100.538C187.888 100.538 187.666 100.627 187.5 100.787C187.269 101.009 186.961 101.134 186.64 101.134C186.32 101.134 186.012 101.009 185.781 100.787C185.313 100.508 184.779 100.361 184.234 100.361C183.69 100.361 183.155 100.508 182.687 100.787C181.957 101.266 181.2 101.703 180.419 102.093C181.321 102.214 182.182 102.545 182.934 103.058C183.686 103.571 184.308 104.253 184.75 105.049C185.231 106.012 185.919 106.974 186.4 108.005C186.588 108.416 186.607 108.884 186.453 109.309C186.298 109.734 185.983 110.08 185.575 110.274H185.231V109.93C185.231 109.105 184.75 108.968 183.925 109.105C183.699 109.18 183.461 109.209 183.224 109.19C182.987 109.172 182.756 109.106 182.545 108.997C182.334 108.889 182.146 108.739 181.994 108.557C181.841 108.374 181.726 108.164 181.656 107.937C180.858 106.335 179.518 105.069 177.875 104.362L176.431 103.743C176.323 104.368 176.114 104.972 175.812 105.53C175.586 105.89 175.308 106.214 174.987 106.493C174.025 107.318 174.025 107.455 174.987 108.624C175.95 109.793 175.469 109.243 175.812 109.793C175.295 109.823 174.778 109.733 174.301 109.53C173.824 109.327 173.4 109.017 173.062 108.624C172.208 107.663 171.512 106.572 171 105.393C170.801 104.843 170.787 104.243 170.961 103.684C171.135 103.126 171.486 102.639 171.962 102.299C172.445 101.821 172.84 101.263 173.131 100.649L168.25 99.3429C168.328 100.097 168.328 100.857 168.25 101.612C168.415 104.382 168.415 107.16 168.25 109.93C168.084 114.048 167.438 118.132 166.325 122.099C165.52 125.154 164.366 128.107 162.887 130.899C161.647 133.416 160.246 135.85 158.694 138.187C157.367 140.128 155.896 141.967 154.294 143.687C152.671 145.59 150.876 147.339 148.931 148.912C146.8 150.699 144.531 152.143 142.056 153.655C138.724 155.77 135.114 157.413 131.331 158.537C128.779 159.285 126.185 159.882 123.562 160.324C122.108 160.61 120.639 160.817 119.162 160.943C118.711 161.086 118.3 161.336 117.965 161.671C117.63 162.006 117.38 162.416 117.237 162.868C117.036 163.957 116.615 164.994 116 165.916C115.386 166.838 114.59 167.625 113.662 168.23C112.837 168.849 111.875 169.399 110.912 170.018L111.394 168.574C111.477 168.26 111.476 167.93 111.392 167.616C111.307 167.302 111.142 167.016 110.912 166.787C110.431 166.305 109.744 166.787 109.125 166.787C108.506 166.787 107.956 167.612 107.819 168.574C107.686 169.456 107.333 170.29 106.793 171C106.252 171.709 105.54 172.27 104.725 172.63H103.9C104.115 172.051 104.276 171.452 104.381 170.843C104.381 170.362 103.9 169.88 103.556 169.399C103.212 168.918 102.937 169.399 102.594 169.399L99.6373 170.843L98.6748 171.324L101.287 172.493C102.701 173.17 103.841 174.31 104.519 175.724C104.798 176.102 104.948 176.56 104.948 177.03C104.948 177.501 104.798 177.958 104.519 178.337C104.439 178.459 104.396 178.603 104.396 178.749C104.396 178.896 104.439 179.039 104.519 179.162C104.743 179.976 104.804 180.826 104.698 181.664C104.591 182.502 104.32 183.31 103.9 184.043C103.9 184.524 103.075 185.005 102.731 185.487L102.25 182.187C102.25 182.023 102.185 181.865 102.069 181.749C101.953 181.633 101.795 181.568 101.631 181.568C100.66 181.61 99.6976 181.374 98.857 180.887C98.0163 180.399 97.3328 179.681 96.8873 178.818L96.406 178.199C95.5547 179.418 94.2803 180.275 92.831 180.605C91.8485 181.05 90.9758 181.706 90.2749 182.526C89.5739 183.346 89.0618 184.309 88.7748 185.349C88.5389 186.542 88.1459 187.698 87.606 188.787C87.3132 189.535 86.7403 190.141 86.0088 190.474C85.2773 190.808 84.4447 190.844 83.6873 190.574V193.187C83.315 193.091 82.9654 192.922 82.6593 192.69C82.3531 192.457 82.0964 192.166 81.9043 191.833C81.7122 191.5 81.5885 191.132 81.5405 190.75C81.4925 190.369 81.5212 189.982 81.6248 189.612C81.7085 189.227 81.7085 188.828 81.6248 188.443C81.1464 187.509 81.0291 186.432 81.2955 185.417C81.5619 184.402 82.1932 183.521 83.0685 182.943C84.4148 181.962 85.5783 180.752 86.506 179.368C86.5539 179.211 86.5539 179.044 86.506 178.887L81.6248 178.268C81.0272 178.103 80.4025 178.061 79.7882 178.144C79.1739 178.227 78.5827 178.433 78.0498 178.749L77.0873 179.987C75.6435 181.637 74.956 181.774 73.031 180.812C72.2729 182.145 71.9825 183.694 72.206 185.212C71.4778 184.502 70.9755 183.593 70.7623 182.599C70.6783 182.052 70.6783 181.496 70.7623 180.949V179.987C70.6051 179.518 70.6051 179.011 70.7623 178.543C71.3382 177.219 72.3946 176.163 73.7185 175.587C75.1785 174.63 76.8587 174.062 78.5998 173.937C79.906 173.854 81.2123 173.854 82.5185 173.937H83.481C83.1893 173.223 82.7508 172.579 82.1942 172.046C81.6375 171.513 80.9751 171.103 80.2498 170.843L76.5373 169.399C76.1277 169.459 75.711 169.355 75.3768 169.111C75.0426 168.867 74.8175 168.501 74.7498 168.093C74.7498 167.929 74.6846 167.771 74.5686 167.655C74.4525 167.539 74.2952 167.474 74.131 167.474C72.9828 167.471 71.8589 167.805 70.8998 168.437C71.381 166.993 72.0686 165.48 73.6498 165.205C74.3578 165.123 75.073 165.123 75.781 165.205H76.3998C77.3623 163.762 78.806 164.037 80.1123 164.724C82.0167 165.632 83.5979 167.089 84.6498 168.918C84.8897 169.392 85.2286 169.81 85.6438 170.142C86.0589 170.474 86.5405 170.713 87.056 170.843C87.1475 169.586 86.9838 168.323 86.5748 167.13C86.5504 166.577 86.3509 166.046 86.0048 165.613C85.6588 165.181 85.1843 164.869 84.6498 164.724C82.9998 164.243 82.5185 163.074 83.3435 161.287C82.8001 160.804 82.1387 160.473 81.4264 160.329C80.7141 160.184 79.9761 160.23 79.2873 160.462C79.7685 159.155 81.6935 158.674 82.9998 158.812C84.1804 159.517 85.5454 159.853 86.9185 159.774C87.3791 159.861 87.8126 160.055 88.1832 160.342C88.5537 160.629 88.8508 161 89.0498 161.424L90.0123 163.349C90.8373 164.793 91.456 166.443 92.1435 167.887C93.106 165.137 94.2748 162.18 95.3748 159.087L93.7248 158.468L88.981 156.543C85.362 154.978 81.9266 153.018 78.7373 150.699C78.179 150.397 77.5753 150.188 76.9498 150.08C76.4685 150.08 75.781 150.699 76.1248 151.249C76.4685 151.799 76.9498 151.868 77.2935 152.418C77.6373 152.968 77.2935 152.899 77.9123 153.243H77.0873C75.9703 153.268 74.872 152.953 73.9386 152.339C73.0052 151.725 72.281 150.841 71.8623 149.805C70.8493 147.765 70.2423 145.546 70.0748 143.274C70.1069 143.198 70.1235 143.116 70.1235 143.034C70.1235 142.951 70.1069 142.869 70.0748 142.793L65.6748 137.912C65.3452 138.751 65.3452 139.685 65.6748 140.524L66.156 141.487V142.655H64.8498C64.1072 141.843 63.5033 140.914 63.0623 139.905C62.4436 137.499 62.0998 135.024 61.6185 132.618C61.5003 131.413 61.2935 130.218 60.9998 129.043C60.6436 127.667 60.2074 126.312 59.6935 124.987V128.768C59.6935 129.112 58.8685 128.768 58.731 128.149C57.9849 126.868 57.5384 125.434 57.4248 123.955C57.3443 120.485 57.8319 117.025 58.8685 113.712C59.1838 112.497 59.5741 111.303 60.0373 110.137C59.8795 110.529 59.6715 110.898 59.4185 111.237L58.7998 111.855V111.03C58.7798 109.484 59.1841 107.963 59.9685 106.63C61.1373 104.018 62.5811 101.405 63.8873 98.8617C64.4269 97.9537 65.024 97.0811 65.6748 96.2492L64.5061 97.4867L63.681 97.9679V97.4867C64.1235 96.7507 64.6054 96.0393 65.1248 95.3554C66.6714 93.4819 68.477 91.8383 70.4873 90.4742C70.9548 90.3118 71.4635 90.3118 71.931 90.4742L78.806 91.9179L81.2123 92.5367C80.5574 93.2108 80.0018 93.9747 79.5623 94.8054C79.351 95.2207 79.2408 95.6801 79.2408 96.1461C79.2408 96.612 79.351 97.0714 79.5623 97.4867C79.6805 97.6586 79.7439 97.8624 79.7439 98.0711C79.7439 98.2797 79.6805 98.4835 79.5623 98.6554C77.9975 100.004 76.6725 101.608 75.6435 103.399V104.018C75.6435 104.018 77.9123 106.287 79.081 107.593C79.1498 107.799 79.1498 108.005 79.081 108.212C78.5613 109.098 78.2873 110.106 78.2873 111.134C78.2873 112.161 78.5613 113.169 79.081 114.055C79.16 114.362 79.3003 114.649 79.4936 114.9C79.6869 115.151 79.9291 115.36 80.2056 115.514C80.482 115.668 80.7869 115.765 81.1018 115.798C81.4167 115.831 81.7349 115.799 82.0373 115.705C81.9798 117.042 82.3934 118.356 83.206 119.418C83.6873 119.899 84.3748 120.243 84.856 120.724C85.1451 120.926 85.362 121.215 85.4748 121.549C85.8573 122.774 86.5752 123.868 87.5472 124.707C88.5193 125.545 89.7066 126.095 90.9748 126.293C92.9548 126.568 94.9623 126.155 96.681 125.124C97.2998 125.124 97.506 124.643 97.6435 125.124C98.0285 127.524 98.7985 129.84 99.9123 131.999C101.335 134.515 103.095 136.825 105.137 138.874C106.973 140.627 109.221 141.899 111.669 142.587C114.694 143.267 117.856 142.415 120.125 140.318C121.55 138.875 122.755 137.231 123.7 135.437L126.656 130.693C127.957 128.901 129.62 127.402 131.537 126.293C131.855 126.048 132.224 125.878 132.617 125.794C133.01 125.711 133.416 125.717 133.806 125.812L133.325 126.774C132.959 127.362 132.766 128.041 132.766 128.734C132.766 129.426 132.959 130.105 133.325 130.693C133.806 131.312 134.15 131.312 134.494 130.693C134.837 130.074 135.456 128.905 136.762 129.043C138.069 129.18 138.069 128.218 138.206 127.393C138.342 123.813 139.408 120.33 141.3 117.287C141.653 116.924 142.045 116.601 142.469 116.324V118.937C142.599 119.665 142.812 120.38 143.087 121.068L143.5 120.174C143.617 119.927 143.802 119.718 144.033 119.572C144.265 119.426 144.533 119.349 144.806 119.349C145.13 119.292 145.422 119.122 145.631 118.868C146.084 118.335 146.397 117.698 146.542 117.013C146.686 116.329 146.656 115.619 146.456 114.949C146.293 113.924 146.293 112.88 146.456 111.855C146.453 110.556 146.784 109.277 147.419 108.143C147.568 107.789 147.778 107.464 148.037 107.18H148.519V109.449C148.466 109.652 148.466 109.865 148.519 110.068H149.137L150.375 109.243C150.843 108.406 151.058 107.45 150.994 106.493C150.899 105.947 150.899 105.389 150.994 104.843V99.2054C150.994 98.4492 150.994 98.3804 151.475 97.8992L152.231 97.4867V100.512C152.282 100.409 152.36 100.323 152.457 100.262C152.554 100.201 152.667 100.169 152.781 100.168ZM68.2873 68.8179L72.3435 64.7617C72.5782 64.5065 72.8578 64.2967 73.1685 64.1429C73.6498 63.6617 73.1685 63.1804 73.1685 62.6992C73.1685 62.2179 72.5498 62.6992 71.9998 62.6992H71.3811V61.8742C71.552 61.311 71.8435 60.7917 72.2353 60.3524C72.627 59.9132 73.1097 59.5644 73.6498 59.3304C75.4272 58.69 77.3724 58.69 79.1498 59.3304C79.2997 59.4034 79.4643 59.4413 79.631 59.4413C79.7978 59.4413 79.9624 59.4034 80.1123 59.3304L84.031 57.1992C84.6498 57.1992 84.5123 56.5804 84.031 56.2367C83.5498 55.8929 82.8623 55.4117 82.2435 56.2367C82.0406 56.2891 81.8277 56.2891 81.6248 56.2367C81.6248 55.0679 82.7935 54.1054 83.8935 53.6242C85.7498 53.0536 87.7435 53.0536 89.5998 53.6242H89.8748C90.356 53.6242 91.7998 54.2429 92.9685 53.6242L95.3748 52.7992C95.9935 52.7992 95.9935 52.3179 95.3748 51.9742C94.7561 51.6304 94.5498 51.0117 93.931 51.4929C93.3123 51.9742 93.931 51.4929 93.3123 51.4929C93.1818 51.3529 93.1093 51.1687 93.1093 50.9773C93.1093 50.7859 93.1818 50.6017 93.3123 50.4617C94.511 49.5575 96.0178 49.1623 97.506 49.3617C98.8589 49.466 100.151 49.9684 101.219 50.8054H101.7C101.932 51.077 102.235 51.2786 102.575 51.3879C102.914 51.4972 103.278 51.5097 103.625 51.4242C104.02 51.1879 104.471 51.0632 104.931 51.0632C105.391 51.0632 105.843 51.1879 106.237 51.4242H106.719V50.8054C106.609 50.3819 106.359 50.0081 106.009 49.7457C105.66 49.4833 105.231 49.3478 104.794 49.3617H104.312C105.129 48.7244 106.098 48.3127 107.124 48.1679C108.149 48.0231 109.195 48.1503 110.156 48.5367C111.572 49.1142 112.81 50.0629 113.731 51.2867C114.092 51.5093 114.487 51.6718 114.9 51.7679C115.84 51.7386 116.776 51.9024 117.65 52.2492C118.475 52.7304 118.131 52.2492 118.269 52.8679C118.373 52.6468 118.433 52.4073 118.444 52.163C118.456 51.9188 118.419 51.6747 118.336 51.4447C118.253 51.2147 118.125 51.0034 117.96 50.8229C117.795 50.6424 117.596 50.4963 117.375 50.3929H116V49.3617C116.749 49.2152 117.519 49.2152 118.269 49.3617C120.441 49.6161 122.394 50.7917 123.631 52.5929C124.112 53.4179 124.511 54.2911 124.8 55.2054C125.385 55.1336 125.978 55.2164 126.521 55.4456C127.064 55.6748 127.537 56.0424 127.894 56.5117H128.375C128.66 56.4539 128.937 56.3616 129.2 56.2367C129.185 55.7006 129.005 55.1822 128.685 54.7517C128.366 54.3212 127.921 53.9996 127.412 53.8304H126.931C127.55 53.8304 128.1 53.3492 128.719 53.8304C129.75 53.9267 130.747 54.2086 131.675 54.6554C134.122 55.6523 135.951 57.7423 136.625 60.2929C137.794 60.9117 138.55 61.5992 139.375 62.0804H140.337V60.6367C140.236 60.1458 140.021 59.6852 139.711 59.2915C139.401 58.8977 139.003 58.5815 138.55 58.3679L137.931 57.8867C138.683 57.718 139.467 57.7498 140.203 57.9791C140.939 58.2083 141.601 58.6269 142.125 59.1929C143.397 60.2654 144.345 61.6679 144.875 63.2492C144.93 63.5067 145.047 63.7471 145.214 63.9505C145.382 64.1538 145.595 64.3141 145.837 64.4179C146.36 64.8098 146.841 65.2429 147.281 65.7242C147.9 63.9367 146.456 62.9742 145.975 61.6679C146.499 61.6789 147.016 61.801 147.49 62.0262C147.964 62.2514 148.385 62.5745 148.725 62.9742C149.687 63.9779 150.554 65.0573 151.337 66.2054C151.832 67.0442 152.382 67.8486 152.987 68.6117C153.482 69.5329 153.805 70.5367 153.95 71.5679C154.047 73.8989 153.721 76.2282 152.987 78.4429C152.904 79.9543 152.904 81.4691 152.987 82.9804C153.056 83.1867 153.056 83.3929 152.987 83.5992C152.38 84.0995 151.879 84.7159 151.513 85.4125C151.147 86.109 150.924 86.8715 150.856 87.6554C150.529 89.705 150.529 91.7934 150.856 93.8429V94.3242C149.91 94.947 149.133 95.7937 148.593 96.7892C148.054 97.7847 147.768 98.8981 147.762 100.03V103.605C146.772 103.806 145.854 104.27 145.104 104.947C144.354 105.624 143.8 106.491 143.5 107.455C143.019 108.418 142.881 109.587 142.331 110.549C141.781 111.512 141.712 111.168 141.369 111.512V110.205C141.779 108.054 141.941 105.863 141.85 103.674C141.917 100.444 141.308 97.2361 140.062 94.2554V93.0867C141.14 91.9881 141.818 90.5598 141.987 89.0304C142.16 86.742 142.16 84.4438 141.987 82.1554C142.016 80.5325 141.426 78.9595 140.337 77.7554C139.778 77.1819 139.06 76.7898 138.275 76.6304C137.49 76.471 136.676 76.5516 135.937 76.8617C134.978 77.2674 134.16 77.9468 133.586 78.815C133.011 79.6833 132.705 80.7017 132.706 81.7429V84.1492C130.276 81.7124 127.343 79.8354 124.112 78.6492C122.258 77.9961 120.348 77.5128 118.406 77.2054H114.212C111.502 77.2154 108.81 77.6564 106.237 78.5117C104.794 78.9929 103.487 79.6804 102.044 80.1617C101.895 80.2399 101.73 80.2809 101.562 80.2809C101.395 80.2809 101.229 80.2399 101.081 80.1617C97.9968 78.301 94.6633 76.8889 91.181 75.9679C89.5404 75.5237 87.8588 75.2472 86.1623 75.1429C82.7248 74.4554 79.2873 73.9742 76.3998 73.0804C73.8149 72.4635 71.3516 71.4178 69.1123 69.9867C68.9583 69.5244 68.6713 69.1178 68.2873 68.8179ZM133.256 101.13C133.256 102.299 131.125 102.574 128.856 101.955V104.362C128.891 104.636 128.891 104.913 128.856 105.187H127.894C127.212 104.635 126.569 104.038 125.969 103.399C125.565 103.573 125.207 103.837 124.921 104.171C124.635 104.504 124.429 104.899 124.319 105.324C123.837 106.63 123.15 106.768 122.187 105.324C121.832 104.964 121.44 104.641 121.019 104.362C120.578 104.989 120.095 105.586 119.575 106.149C119.455 106.29 119.308 106.405 119.143 106.488C118.977 106.571 118.797 106.619 118.612 106.63C118.366 106.388 118.157 106.11 117.994 105.805C117.923 105.327 117.923 104.84 117.994 104.362C117.169 106.493 116.206 108.28 113.8 108.762C113.712 107.863 113.879 106.958 114.281 106.149C114.762 105.324 114.281 106.149 114.281 105.668C113.208 106.699 112.569 108.1 112.494 109.587C112.604 112.564 113.374 115.479 114.762 118.112C115.725 120.518 116.894 122.855 117.856 124.987C118.736 127.166 119.135 129.51 119.025 131.862C119.135 133.057 118.896 134.259 118.335 135.32C117.775 136.382 116.918 137.257 115.868 137.84C114.819 138.423 113.623 138.688 112.425 138.603C111.228 138.518 110.081 138.087 109.125 137.362C107.553 136.387 106.178 135.128 105.069 133.649C104.106 132.343 103.144 131.037 102.319 129.73C101.857 128.775 101.467 127.787 101.15 126.774V125.812C101.534 125.788 101.915 125.889 102.237 126.1C102.559 126.31 102.805 126.619 102.937 126.98C103.281 127.53 104.725 129.73 105.687 131.037C106.478 132.618 107.667 133.965 109.125 134.955C109.608 135.159 110.126 135.265 110.65 135.268C111.174 135.271 111.694 135.171 112.179 134.973C112.664 134.775 113.106 134.483 113.478 134.115C113.851 133.746 114.147 133.307 114.35 132.824V132.343C114.639 131.487 114.746 130.579 114.663 129.679C114.58 128.779 114.31 127.907 113.869 127.118C112.7 124.505 111.256 121.893 109.95 119.349C108.438 116.607 107.393 113.634 106.856 110.549C106.775 109.795 106.775 109.034 106.856 108.28C105.825 108.363 104.794 108.363 103.762 108.28L100.669 107.455L99.2248 108.418C99.2896 108.1 99.2896 107.773 99.2248 107.455C99.239 106.825 99.0798 106.204 98.7646 105.658C98.4493 105.112 97.9902 104.664 97.4373 104.362C97.0909 104.362 96.7586 104.499 96.5136 104.744C96.2687 104.989 96.131 105.321 96.131 105.668C96.0808 106.369 96.2202 107.071 96.5347 107.7C96.8493 108.329 97.3272 108.862 97.9185 109.243L100.669 111.168C101.631 111.787 101.494 111.787 101.975 111.168C102.042 110.851 102.042 110.523 101.975 110.205C103.281 110.205 103.762 111.03 103.9 112.337C104.216 113.987 104.656 115.623 105.206 117.218C105.236 117.564 105.197 117.912 105.09 118.243C104.984 118.573 104.813 118.879 104.587 119.143C103.738 120.213 102.624 121.042 101.356 121.549C100.317 121.952 99.1642 121.952 98.1248 121.549C98.725 120.953 99.3684 120.401 100.05 119.899C100.338 119.606 100.547 119.243 100.655 118.846C100.764 118.448 100.768 118.03 100.669 117.63C100.619 117.501 100.535 117.388 100.426 117.303C100.317 117.219 100.187 117.165 100.05 117.149C99.4106 117.07 98.764 117.07 98.1248 117.149C97.6273 117.185 97.1612 117.406 96.8186 117.768C95.6917 118.662 94.4963 119.467 93.2435 120.174C92.2231 120.704 91.0609 120.896 89.9243 120.723C88.7877 120.55 87.7352 120.021 86.9185 119.212C86.3313 118.554 85.8866 117.781 85.6123 116.943L85.1311 115.98C84.8887 116.227 84.6106 116.436 84.306 116.599C83.9623 116.599 83.8248 115.774 84.306 115.637C84.5054 114.743 84.7873 113.87 85.1311 113.024C85.2093 112.876 85.2502 112.711 85.2502 112.543C85.2502 112.375 85.2093 112.21 85.1311 112.062C84.5811 111.297 83.8484 110.683 82.9998 110.274C82.381 109.793 81.831 110.274 81.3498 110.274H80.5248C80.5413 109.999 80.5413 109.724 80.5248 109.449C80.641 108.725 80.9615 108.049 81.4487 107.501C81.9358 106.953 82.5694 106.556 83.2748 106.355H84.0998C82.1289 105.603 80.3458 104.43 78.8748 102.918C78.3935 102.437 78.256 102.093 78.8748 101.612C79.4935 101.13 80.6623 100.03 81.6248 99.3429C83.4704 98.6874 85.4854 98.6874 87.331 99.3429C89.0292 99.9067 90.5829 100.842 91.8685 102.093L92.3498 102.574C91.9618 101.397 91.307 100.325 90.4364 99.4425C89.5658 98.56 88.5031 97.8906 87.331 97.4867C85.2371 96.7072 83.0324 96.2663 80.7998 96.1804C80.9104 95.7641 81.1372 95.3878 81.4537 95.0956C81.7703 94.8034 82.1634 94.6074 82.5873 94.5304L86.2998 93.8429C87.62 93.5491 88.8477 92.9353 89.8748 92.0554C89.2111 91.5086 88.4975 91.0252 87.7435 90.6117C85.8185 89.7867 83.8248 88.8242 81.8998 88.2054C80.1507 87.4338 78.2975 86.9241 76.3998 86.6929C73.7504 86.3229 71.1467 85.6778 68.631 84.7679C65.5953 83.9392 62.6992 82.665 60.0373 80.9867C57.2873 79.1992 54.9498 76.8617 53.1623 74.1117C52.7456 73.3998 52.4221 72.6373 52.1998 71.8429V71.0179H53.0248L54.1248 71.6367C55.9123 73.0804 57.5623 74.8679 59.3498 76.1742C61.5425 77.7658 64.0145 78.9318 66.6373 79.6117C68.7685 80.0929 70.831 80.5742 72.9623 80.9179C75.0935 81.2617 76.5373 80.9179 78.3248 81.3992L82.2435 81.8804C83.7354 81.9836 85.2135 82.2586 86.6435 82.7054C88.9123 83.5304 91.0435 84.4929 93.1748 85.3179C93.2975 85.3978 93.4408 85.4403 93.5873 85.4403C93.7337 85.4403 93.8771 85.3978 93.9998 85.3179C94.8935 85.1186 95.7667 84.8367 96.6123 84.4929V83.7367C95.0271 82.8522 93.398 82.0491 91.731 81.3304C88.6052 80.1013 85.3161 79.3369 81.9685 79.0617L77.431 78.5804C74.944 78.1689 72.4867 77.5947 70.0748 76.8617C67.5782 75.9532 65.2536 74.6282 63.1998 72.9429C61.4711 71.6084 60.1787 69.7895 59.4873 67.7179V66.2742C59.6724 66.1967 59.871 66.1567 60.0717 66.1567C60.2723 66.1567 60.471 66.1967 60.656 66.2742L62.4436 68.1992C63.406 69.1617 64.3685 70.1242 65.5373 71.1554C68.2598 73.2867 71.3948 74.8336 74.7498 75.6929C76.6748 76.1742 78.6685 76.5179 80.5935 76.8617C83.6873 77.3429 86.9185 77.8242 90.0123 78.5117C93.6802 79.1695 97.1014 80.8089 99.9123 83.2554C101.081 84.2179 102.044 83.7367 103.144 83.2554C103.726 83.1453 104.329 83.2263 104.861 83.4865C105.394 83.7466 105.829 84.172 106.1 84.6992C106.925 86.9198 106.925 89.3536 106.1 91.5742C106.026 91.9851 106.078 92.4089 106.25 92.7894C106.422 93.1699 106.705 93.4894 107.062 93.7054H107.887C108.847 93.312 109.894 93.181 110.921 93.326C111.948 93.471 112.918 93.8867 113.731 94.5304C113.986 94.7312 114.301 94.8403 114.625 94.8403C114.949 94.8403 115.264 94.7312 115.519 94.5304C116.867 93.9003 118.176 93.1885 119.437 92.3992C120.744 91.5742 120.056 91.2304 120.4 90.6117C120.868 89.6599 121.626 88.8811 122.565 88.387C123.504 87.8929 124.575 87.709 125.625 87.8617C127.103 87.8617 128.581 88.0198 130.025 88.3429C131.196 88.6582 132.429 88.6582 133.6 88.3429C134.338 88.2543 135.028 87.9335 135.572 87.4269C136.116 86.9203 136.484 86.254 136.625 85.5242V81.1242C136.625 80.6429 136.625 80.1617 137.45 80.1617C138.275 80.1617 138.069 80.7804 138.069 81.3304C138.564 83.5992 138.564 85.9367 138.069 88.2054C137.932 89.1858 137.416 90.0733 136.632 90.6775C135.847 91.2816 134.858 91.5542 133.875 91.4367H128.031C127.24 91.3866 126.457 91.623 125.826 92.1027C125.195 92.5825 124.757 93.2734 124.594 94.0492C124.518 94.3655 124.518 94.6953 124.594 95.0117C125.075 95.9742 125.419 96.7992 126.862 96.6617C127.632 96.7304 128.237 97.3354 128.306 98.1054C128.456 98.9288 128.875 99.6792 129.497 100.239C130.119 100.799 130.909 101.137 131.744 101.199L133.256 101.13ZM94.9623 96.3867C95.7873 97.2323 96.6604 98.0367 97.5748 98.7929C98.0401 99.1443 98.6073 99.3344 99.1904 99.3344C99.7735 99.3344 100.341 99.1443 100.806 98.7929C101.714 98.2533 102.587 97.6562 103.419 97.0054V96.5242C103.341 96.2129 103.196 95.9223 102.994 95.6729C102.792 95.4235 102.538 95.2213 102.25 95.0804C101.664 94.926 101.048 94.926 100.462 95.0804L99.2935 95.5617C98.1227 95.8769 96.8894 95.8769 95.7185 95.5617L94.9623 96.3867ZM117.375 98.6554C117.655 98.8865 117.984 99.051 118.337 99.1367C119.541 99.3665 120.631 99.9965 121.431 100.924C122.229 101 123.04 101 123.837 100.924C124.319 100.924 124.662 100.443 125.144 100.305C124.75 99.83 124.313 99.3926 123.837 98.9992C121.789 98.1365 119.503 98.0149 117.375 98.6554ZM31.7123 119.83C32.5721 120.75 33.668 121.416 34.8803 121.755C36.0927 122.095 37.3749 122.095 38.5873 121.755C38.9918 121.636 39.3635 121.425 39.6734 121.139C39.9834 120.853 40.2234 120.499 40.3748 120.105C37.7975 120.701 35.0923 120.36 32.7435 119.143C31.6326 118.509 30.667 117.649 29.9091 116.619C29.1512 115.589 28.6178 114.411 28.3435 113.162C27.8287 111.331 27.9112 109.384 28.5788 107.604C29.2465 105.823 30.4646 104.302 32.056 103.262C31.346 105.541 31.57 108.009 32.6786 110.123C33.7873 112.237 35.69 113.825 37.9685 114.537H38.931C40.9808 114.963 43.1141 114.694 44.994 113.773C46.874 112.852 48.3934 111.33 49.3123 109.449C48.5919 110.006 47.9033 110.603 47.2498 111.237C44.2454 113.299 40.2854 113.299 37.281 111.237C36.4662 110.699 35.7919 109.974 35.3145 109.122C34.8371 108.27 34.5704 107.317 34.5367 106.341C34.5031 105.365 34.7035 104.396 35.1211 103.513C35.5387 102.63 36.1614 101.861 36.9373 101.268C37.0297 101.842 37.2509 102.388 37.5843 102.864C37.9177 103.34 38.3546 103.735 38.8623 104.018C39.8715 104.574 40.9619 104.969 42.0935 105.187C43.3262 105.384 44.5879 105.295 45.7804 104.925C46.9728 104.556 48.0638 103.916 48.9685 103.055C49.9639 102.034 50.7365 100.816 51.2373 99.4804C52.5435 96.3867 53.506 93.1554 54.9498 90.0617C55.8846 88.1757 56.9172 86.3399 58.0435 84.5617C58.0435 84.0804 58.6623 84.5617 59.006 84.5617L62.581 86.4867L64.8498 87.4492L63.8873 88.2742C61.7331 90.5706 59.8845 93.1355 58.3873 95.9054C57.2185 98.0367 56.1185 99.9617 55.156 102.093C54.1935 104.224 53.231 106.974 52.406 109.38L50.481 114.88C49.9998 116.324 49.3123 117.63 48.6935 119.074C47.7719 121.165 46.1736 122.884 44.156 123.955C42.9708 124.532 41.6884 124.881 40.3748 124.987C39.0737 125.151 37.7572 125.151 36.456 124.987C35.403 124.906 34.3992 124.508 33.5769 123.845C32.7546 123.182 32.1524 122.286 31.8498 121.274C31.945 120.79 31.8973 120.288 31.7123 119.83ZM128.444 114.33C128.526 115.087 128.526 115.843 128.444 116.599C128.444 117.562 127.825 117.562 127 117.08L125.075 116.118H124.25C124.528 116.673 124.673 117.285 124.673 117.905C124.673 118.526 124.528 119.138 124.25 119.693C124.137 120.027 123.92 120.316 123.631 120.518H122.875L122.394 119.074C122.227 118.693 121.918 118.393 121.532 118.239C121.146 118.084 120.714 118.088 120.331 118.249C119.694 118.424 119.09 118.702 118.544 119.074H117.581C116.394 116.801 115.625 114.332 115.312 111.787L116 112.612C116.563 113.041 117.251 113.274 117.959 113.274C118.667 113.274 119.356 113.041 119.919 112.612C120.084 112.257 120.17 111.869 120.17 111.477C120.17 111.085 120.084 110.698 119.919 110.343C119.919 109.862 119.437 109.518 119.3 109.037C120.262 109.037 120.262 108.212 122.737 111.168L124.525 110.205C125.144 110.205 124.525 109.243 124.525 108.899V107.455L125.694 107.937C126.028 108.049 126.317 108.266 126.519 108.555C127.545 109.712 128.698 110.75 129.956 111.649C130.338 111.966 130.643 112.366 130.845 112.819C131.048 113.272 131.144 113.766 131.125 114.262V114.88H130.644C128.925 114.33 128.925 114.33 128.444 114.33ZM47.2498 103.399C45.9233 102.617 44.3816 102.28 42.8498 102.437C42.2106 102.516 41.564 102.516 40.9248 102.437C40.5244 102.37 40.1451 102.211 39.8168 101.973C39.4885 101.734 39.2203 101.422 39.0335 101.062C38.8467 100.702 38.7463 100.303 38.7405 99.8971C38.7347 99.4913 38.8234 99.0897 38.9998 98.7242C39.6185 98.7242 40.1685 99.5492 40.7873 99.8929C41.406 100.237 41.6123 99.8929 41.6123 99.4117C41.5904 99.0104 41.6903 98.6119 41.8989 98.2684C42.1074 97.9248 42.4149 97.6524 42.781 97.4867C43.3048 97.3028 43.8684 97.2632 44.4127 97.372C44.9571 97.4809 45.4621 97.7342 45.8748 98.1054C47.2635 99.4804 47.7998 101.515 47.2498 103.399Z" fill="white"/>
</g>
<defs>
<clipPath id="clip0_2_21077">
<rect width="220" height="220" fill="white" transform="translate(0.5)"/>
</clipPath>
</defs>
</svg>
