<svg width="221" height="220" viewBox="0 0 221 220" fill="none" xmlns="http://www.w3.org/2000/svg">
<g clip-path="url(#clip0_2_21070)">
<path d="M110.5 220C171.251 220 220.5 170.751 220.5 110C220.5 49.2487 171.251 0 110.5 0C49.7487 0 0.5 49.2487 0.5 110C0.5 170.751 49.7487 220 110.5 220Z" fill="#F7931A"/>
<path d="M159.924 96.3875C162.083 81.9775 151.103 74.2294 136.102 69.0594L140.97 49.5344L129.09 46.5781L124.346 65.5875C121.225 64.8037 118.021 64.075 114.824 63.3462L119.602 44.2131L107.722 41.25L102.855 60.7681C100.27 60.1769 97.726 59.5994 95.2647 58.9806L95.2785 58.9187L78.8885 54.8281L75.726 67.5194C75.726 67.5194 84.5466 69.5406 84.361 69.6644C89.1735 70.8675 90.0397 74.0506 89.8954 76.5806L84.3541 98.8212C84.6841 98.9037 85.1104 99.0275 85.5916 99.2131L84.3335 98.9037L76.5647 130.061C75.9735 131.519 74.4816 133.712 71.1129 132.88C71.2366 133.052 62.4779 130.728 62.4779 130.728L56.5791 144.327L72.0479 148.184C74.9216 148.906 77.7404 149.662 80.511 150.37L75.5954 170.115L87.4685 173.071L92.336 153.546C95.581 154.419 98.7297 155.231 101.81 156.001L96.956 175.443L108.836 178.399L113.752 158.696C134.019 162.532 149.254 160.985 155.668 142.656C160.838 127.903 155.414 119.384 144.751 113.836C152.52 112.049 158.363 106.941 159.924 96.3875ZM132.768 134.461C129.103 149.222 104.25 141.24 96.1929 139.239L102.724 113.08C110.782 115.094 136.611 119.075 132.768 134.461ZM136.446 96.1744C133.098 109.601 112.418 102.774 105.715 101.104L111.627 77.385C118.33 79.0556 139.938 82.17 136.446 96.1744Z" fill="white"/>
</g>
<defs>
<clipPath id="clip0_2_21070">
<rect width="220" height="220" fill="white" transform="translate(0.5)"/>
</clipPath>
</defs>
</svg>
