<svg width="221" height="220" viewBox="0 0 221 220" fill="none" xmlns="http://www.w3.org/2000/svg">
<g clip-path="url(#clip0_2_21074)">
<path d="M220.5 110C220.5 131.756 214.049 153.023 201.962 171.113C189.875 189.202 172.695 203.301 152.595 211.627C132.495 219.952 110.378 222.131 89.0401 217.886C67.7022 213.642 48.1021 203.166 32.7183 187.782C17.3345 172.398 6.85804 152.798 2.61367 131.46C-1.63071 110.122 0.547661 88.0047 8.8733 67.9048C17.1989 47.805 31.2979 30.6253 49.3873 18.5383C67.4767 6.45139 88.7441 0 110.5 0C139.674 0 167.653 11.5893 188.282 32.2183C208.911 52.8473 220.5 80.8262 220.5 110Z" fill="#F7931A"/>
<path fill-rule="evenodd" clip-rule="evenodd" d="M78.6796 50.2299L103.96 56.9999L109.61 35.9399L122.25 39.3699L116.82 59.5599L127.13 62.3299L132.57 41.9199L145.43 45.3599L139.89 65.8799C139.89 65.8799 160.89 70.5299 165.83 87.6099C170.77 104.69 154.97 113.66 150.09 114C150.09 114 168.49 124.09 162.17 143.94C155.85 163.79 136.45 167.34 116.04 162.79L110.5 184.07L97.6396 180.63L103.29 159.68L93.0896 156.9L87.4397 178L74.6796 174.57L80.3396 153.57L54.3896 146.57L60.9296 132.05C60.9296 132.05 68.2496 134.05 71.0196 134.71C73.7896 135.37 75.5696 132.49 76.3496 129.61C77.1296 126.73 88.8796 78.9999 89.9896 75.0699C91.0996 71.1399 90.6496 68.0699 85.9896 66.8599C81.3296 65.6499 74.9896 63.7599 74.9896 63.7599L78.6796 50.2299ZM104.18 113.44L97.1796 141.27C97.1796 141.27 131.89 153.8 136.33 136.17C140.77 118.54 104.18 113.44 104.18 113.44ZM107.4 100.24L114.27 74.7399C114.27 74.7399 143.99 80.0599 140.33 94.2499C136.67 108.44 119.15 103 107.4 100.24Z" fill="white"/>
</g>
<defs>
<clipPath id="clip0_2_21074">
<rect width="220" height="220" fill="white" transform="translate(0.5)"/>
</clipPath>
</defs>
</svg>
