<svg width="221" height="220" viewBox="0 0 221 220" fill="none" xmlns="http://www.w3.org/2000/svg">
<g clip-path="url(#clip0_2_21066)">
<path d="M110.5 220C171.251 220 220.5 170.751 220.5 110C220.5 49.2487 171.251 0 110.5 0C49.7487 0 0.5 49.2487 0.5 110C0.5 170.751 49.7487 220 110.5 220Z" fill="#FF6600"/>
<path d="M117.911 133.073C152.836 122.299 140.372 86.0887 117.911 84.7137C123.617 84.7137 128.279 68.3719 128.279 48.125C183.114 52.0231 208.874 142.388 126.629 170.658C127.158 163.323 124.154 142.849 117.918 133.073H117.911ZM41.75 122.375V84.7894H41.8188C61.6531 84.7138 77.6512 68.2894 77.5825 48.2006H115.807C115.814 89.2169 82.6906 122.375 41.75 122.375ZM91.8481 115.569C114.536 134.214 115.814 165.612 115.814 171.875H77.5825C77.5825 151.099 64.0594 134.289 47.3119 134.289C75.7056 129.711 81.4875 124.898 91.8481 115.576V115.569Z" fill="white"/>
</g>
<defs>
<clipPath id="clip0_2_21066">
<rect width="220" height="220" fill="white" transform="translate(0.5)"/>
</clipPath>
</defs>
</svg>
