<svg width="221" height="220" viewBox="0 0 221 220" fill="none" xmlns="http://www.w3.org/2000/svg">
<g clip-path="url(#clip0_2_21059)">
<path d="M110.5 220C171.251 220 220.5 170.751 220.5 110C220.5 49.2487 171.251 0 110.5 0C49.7487 0 0.5 49.2487 0.5 110C0.5 170.751 49.7487 220 110.5 220Z" fill="#4700C2"/>
<path fill-rule="evenodd" clip-rule="evenodd" d="M94.5637 99.756C92.4325 101.145 89.9918 102.616 87.4618 104.156V118.05C89.7581 116.889 92.1231 115.713 94.5637 114.551V99.7492V99.756ZM59.0406 125.448C59.686 126.699 60.798 127.646 62.1361 128.083C63.4742 128.521 64.9308 128.414 66.1906 127.785L72.8318 124.437C72.8731 118.855 72.9006 114.613 72.9006 112.929V112.482C67.2631 115.287 62.9868 117.439 61.3437 118.257C60.0852 118.905 59.1356 120.027 58.7038 121.376C58.2719 122.724 58.3931 124.189 59.0406 125.448ZM96.5712 124.039C96.5685 124.735 96.7034 125.426 96.9682 126.071C97.2331 126.715 97.6226 127.301 98.1144 127.795C98.6062 128.289 99.1907 128.681 99.8344 128.948C100.478 129.215 101.168 129.353 101.865 129.353H101.927C103.335 129.351 104.685 128.79 105.68 127.794C106.675 126.797 107.234 125.447 107.234 124.039V80.0179C107.234 79.2614 107.072 78.5136 106.76 77.8245C106.447 77.1355 105.992 76.5209 105.423 76.0219C104.854 75.5229 104.186 75.1508 103.462 74.9306C102.738 74.7104 101.976 74.647 101.226 74.7448C99.9448 74.9027 98.7661 75.5243 97.9124 76.4921C97.0586 77.4598 96.5889 78.7068 96.5918 79.9973V101.984C96.5712 109.367 96.5712 116.696 96.5712 124.039Z" fill="white"/>
<path fill-rule="evenodd" clip-rule="evenodd" d="M172.272 89.9458C171.935 87.3745 170.23 85.9445 167.638 85.2708C165.576 84.7414 163.445 84.6383 161.272 84.6176C156.212 84.597 151.193 85.4151 146.216 86.3845C139.025 87.7801 131.916 89.5676 124.924 91.747C122.813 92.3933 120.73 93.067 118.62 93.7408L118.599 93.6583L118.977 93.342C123.047 89.8633 127.09 86.3845 131.187 82.947C140.166 75.357 148.265 67.0314 155.786 58.2451C157.835 55.8595 159.601 53.3089 160.509 50.4008C161.884 46.0351 160.344 43.3195 155.916 42.0958C154.04 41.6417 152.113 41.4291 150.183 41.4633C145.961 41.4426 141.795 42.137 137.677 42.9758C133.38 43.8695 127.158 45.4508 122.944 46.7295C116.2 48.792 107.867 52.3395 100.428 55.3508C96.6333 56.8289 92.5908 58.7264 88.8095 60.2045L74.5164 66.0208C55.5414 74.1814 50.0208 68.317 50.0208 68.317C50.0208 68.3445 50.0277 68.3651 50.0414 68.3858C50.0054 68.333 49.9776 68.275 49.9589 68.2139C46.267 75.4876 49.3402 88.7014 70.6802 79.262C74.0352 77.9558 77.4452 76.5395 80.7795 75.2539C87.2077 72.7445 93.5739 69.6439 100.03 67.162C104.47 65.3354 108.946 63.5979 113.456 61.9508L117.526 60.3695C121.7 58.9945 125.873 57.6333 130.128 56.5745C134.769 55.3783 138.818 54.6564 141.266 54.9726C141.513 54.9933 141.768 55.0139 142.001 55.062C143.115 55.2064 143.706 55.7976 143.603 56.5745C143.562 57.7776 141.623 61.7651 123.975 76.457C122.69 77.557 121.404 78.6708 120.118 79.7639C118.138 81.4758 116.22 83.1601 114.275 84.8514L112.652 86.2814L112.631 86.302L111.875 86.9758C111.816 87.0384 111.752 87.0959 111.683 87.1476L111.497 87.3126L110.019 88.4333C109.918 88.5301 109.813 88.6219 109.703 88.7083V107.36C115.945 105.229 146.319 95.0951 149.591 98.0651C149.846 98.4089 153.703 100.808 118.386 124.967C116.997 126.019 115.65 127.071 114.261 128.13L109.153 132.028C102.766 136.648 96.4202 141.281 90.0402 145.901L87.2695 147.902C87.2283 152.941 87.2077 157.768 87.187 162.202L154.562 112.482C158.671 109.02 162.565 105.309 166.222 101.372C168.285 99.1651 170.141 96.8208 171.365 94.1464C171.997 92.7508 172.465 91.4033 172.272 89.9526V89.9458ZM62.4989 166.41C61.6305 167.492 61.1876 168.855 61.2534 170.241C61.3193 171.628 61.8893 172.942 62.8564 173.938C63.739 174.873 64.9146 175.479 66.1886 175.656C67.4626 175.832 68.7586 175.568 69.862 174.907L72.557 172.927C72.5777 168.878 72.6258 163.948 72.6602 158.627L63.5577 165.378C63.1644 165.678 62.8089 166.024 62.4989 166.41Z" fill="white"/>
<path fill-rule="evenodd" clip-rule="evenodd" d="M85.503 88.9976C85.1686 87.7489 84.3912 86.6646 83.3158 85.9473C82.2404 85.2299 80.9406 84.9285 79.6593 85.0995C78.3784 85.2574 77.1998 85.879 76.3461 86.8468C75.4923 87.8145 75.0225 89.0614 75.0255 90.352V112.338C75.0255 116.786 74.833 138.862 74.668 157.177C74.6268 162.429 74.5786 167.359 74.558 171.477C74.5168 176.702 74.4961 180.621 74.4961 182.223C74.4934 182.92 74.6283 183.61 74.8932 184.255C75.158 184.899 75.5475 185.485 76.0393 185.979C76.5312 186.473 77.1157 186.865 77.7593 187.132C78.4029 187.399 79.093 187.537 79.7899 187.537H79.8518C81.2612 187.537 82.613 186.977 83.6096 185.98C84.6062 184.984 85.1661 183.632 85.1661 182.223C85.1661 178.538 85.2074 171.807 85.2486 163.564C85.2693 159.164 85.3174 154.31 85.3311 149.271C85.4824 126.356 85.6886 99.3582 85.6749 90.352C85.6702 89.8954 85.6125 89.4409 85.503 88.9976Z" fill="white"/>
</g>
<defs>
<clipPath id="clip0_2_21059">
<rect width="220" height="220" fill="white" transform="translate(0.5)"/>
</clipPath>
</defs>
</svg>
