<svg width="221" height="220" viewBox="0 0 221 220" fill="none" xmlns="http://www.w3.org/2000/svg">
<g clip-path="url(#clip0_2_21055)">
<path d="M110.5 220C171.251 220 220.5 170.751 220.5 110C220.5 49.2487 171.251 0 110.5 0C49.7487 0 0.5 49.2487 0.5 110C0.5 170.751 49.7487 220 110.5 220Z" fill="#272D63"/>
<path d="M139.478 49.5L134.666 69.0387C149.543 74.2362 160.495 82.0325 158.357 96.47C157.738 100.856 156.226 105.249 153.104 108.57C150.43 111.437 146.25 112.956 142.682 114.125C138.403 115.572 133.929 116.358 129.413 116.456C126.388 116.456 123.446 116.366 120.421 116.098C115.526 115.734 110.534 115.287 105.729 114.214C104.216 113.857 102.786 113.589 101.452 113.224L94.9487 139.487L91.1194 153.828L86.3069 173.463L74.4681 170.507L79.37 150.693C76.6062 149.978 73.7531 149.174 70.9069 148.452L55.5 144.602L61.3781 131.058C61.3781 131.058 70.1094 133.396 70.0131 133.217C73.4025 134.021 74.8256 131.78 75.4444 130.35L82.1269 103.455L85.2412 90.9975L88.8094 76.6562C88.9813 74.1469 88.0944 70.9225 83.2819 69.7537C83.4606 69.6644 74.6469 67.6019 74.6469 67.6019L77.7612 54.8762L94.055 59.0012C96.5575 59.62 99.0462 60.1631 101.631 60.7887L106.444 41.25L118.282 44.2062L113.566 63.3875C116.681 64.1094 119.891 64.8244 123.006 65.6287L127.632 46.5369L139.478 49.5ZM138.502 120.312C141.795 119.769 145.803 118.429 148.649 117.26C148.739 117.171 148.924 117.171 149.007 117.081C155.153 122.547 158.089 131.422 154.081 142.807C147.756 161.274 132.534 162.793 112.404 158.943L107.509 178.75L95.7531 175.794L100.291 156.881L100.469 156.255L104.037 141.728C114.542 144.066 128.705 145.585 131.372 134.647C132.802 128.824 130.039 124.609 125.584 121.564L130.217 121.289C133.517 121.117 135.202 120.849 138.502 120.306V120.312ZM135.023 96.2844C138.502 82.2113 116.942 79.1656 110.273 77.3781L104.388 101.214C111.071 102.919 131.73 109.732 135.023 96.2844Z" fill="#FEFEFE"/>
</g>
<defs>
<clipPath id="clip0_2_21055">
<rect width="220" height="220" fill="white" transform="translate(0.5)"/>
</clipPath>
</defs>
</svg>
