<svg width="221" height="220" viewBox="0 0 221 220" fill="none" xmlns="http://www.w3.org/2000/svg">
<g clip-path="url(#clip0_2_21051)">
<path d="M110.5 220C171.251 220 220.5 170.751 220.5 110C220.5 49.2487 171.251 0 110.5 0C49.7487 0 0.5 49.2487 0.5 110C0.5 170.751 49.7487 220 110.5 220Z" fill="#F8C24A"/>
<path d="M110.5 185.625C68.7962 185.625 34.875 151.704 34.875 110C34.875 68.2962 68.8169 34.375 110.5 34.375C152.183 34.375 186.125 68.3169 186.125 110C186.125 116.889 185.19 123.75 183.341 130.391C182.877 131.918 181.834 133.202 180.435 133.969C179.036 134.736 177.392 134.925 175.856 134.496C174.319 134.066 173.012 133.052 172.214 131.671C171.415 130.29 171.189 128.651 171.584 127.105C173.131 121.536 173.922 115.782 173.915 110C173.915 75.0337 145.466 46.585 110.5 46.585C75.5337 46.585 47.085 75.0337 47.085 110C47.085 144.966 75.5337 173.415 110.5 173.415C117.045 173.415 123.556 172.411 129.791 170.424C130.561 170.159 131.376 170.05 132.188 170.104C133.001 170.158 133.794 170.374 134.522 170.74C135.249 171.105 135.897 171.612 136.425 172.232C136.954 172.851 137.353 173.57 137.6 174.346C137.847 175.122 137.936 175.939 137.862 176.75C137.788 177.561 137.553 178.349 137.17 179.067C136.787 179.786 136.264 180.42 135.632 180.934C135 181.447 134.272 181.829 133.49 182.057C126.057 184.428 118.302 185.632 110.5 185.625ZM133.703 109.821C136.316 112.007 138.076 115.17 138.983 119.302C139.574 121.681 139.533 124.176 138.873 126.534C138.213 128.721 137.05 130.722 135.477 132.378C133.755 134.171 131.736 135.652 129.509 136.757C127.158 137.974 126.601 138.366 123.796 138.985L122.05 139.404C121.532 139.53 121.084 139.854 120.803 140.307C120.521 140.759 120.428 141.304 120.544 141.824L121.576 146.444C121.633 146.706 121.639 146.976 121.592 147.24C121.545 147.503 121.447 147.755 121.302 147.98C121.158 148.206 120.971 148.4 120.751 148.553C120.531 148.706 120.283 148.814 120.022 148.871L115.368 149.903C115.107 149.96 114.837 149.966 114.574 149.92C114.31 149.873 114.059 149.775 113.834 149.632C113.608 149.488 113.413 149.301 113.26 149.082C113.107 148.864 112.998 148.617 112.941 148.356L111.923 143.77C111.865 143.509 111.757 143.262 111.604 143.043C111.45 142.824 111.255 142.638 111.03 142.494C110.805 142.35 110.553 142.252 110.29 142.206C110.027 142.16 109.757 142.165 109.496 142.223L96.8944 145.014C95.6089 145.297 94.264 145.057 93.1553 144.348C92.0465 143.639 91.2648 142.518 90.9819 141.233L79.6381 89.9525C79.3558 88.667 79.5955 87.3221 80.3046 86.2134C81.0137 85.1046 82.1341 84.3229 83.4194 84.04L96.0213 81.2487C96.2822 81.191 96.5292 81.0824 96.7481 80.9291C96.9671 80.7759 97.1537 80.581 97.2973 80.3557C97.441 80.1303 97.5388 79.8789 97.5853 79.6157C97.6317 79.3525 97.6259 79.0828 97.5681 78.8219L96.5369 74.2019C96.4803 73.9405 96.4758 73.6705 96.5236 73.4074C96.5714 73.1443 96.6706 72.8931 96.8156 72.6684C96.9605 72.4436 97.1483 72.2497 97.3683 72.0975C97.5883 71.9454 97.8361 71.8382 98.0975 71.7819L102.752 70.7506C103.013 70.6928 103.283 70.687 103.546 70.7335C103.809 70.7799 104.06 70.8778 104.286 71.0214C104.511 71.1651 104.706 71.3517 104.859 71.5706C105.012 71.7896 105.121 72.0366 105.179 72.2975L106.196 76.89C106.314 77.4157 106.636 77.873 107.091 78.1617C107.546 78.4504 108.097 78.5469 108.623 78.43L112.473 77.5913C114.467 77.1238 116.55 77.1581 118.523 77.6944C120.407 78.21 122.167 79.09 123.7 80.2863C126.815 82.7736 128.984 86.2529 129.846 90.145C130.492 93.0325 130.362 96.0438 129.475 98.8763C128.556 101.814 126.705 104.372 124.202 106.164C127.681 106.329 131.008 107.607 133.703 109.821ZM96.3719 98.8419L97.0456 101.771C97.3285 103.056 98.1103 104.176 99.219 104.885C100.328 105.594 101.673 105.834 102.958 105.552L111.944 103.558C113.464 103.235 114.811 102.36 115.725 101.104C116.694 99.8112 116.942 98.0788 116.461 95.8994C116.014 93.8919 115.141 92.4619 113.848 91.6094C113.241 91.1919 112.552 90.9064 111.827 90.7714C111.103 90.6364 110.358 90.6549 109.641 90.8256L100.153 92.9225C99.516 93.0625 98.9127 93.3268 98.3777 93.7001C97.8428 94.0735 97.3867 94.5486 97.0355 95.0984C96.6843 95.6482 96.445 96.2617 96.3311 96.9041C96.2172 97.5464 96.2311 98.2049 96.3719 98.8419ZM123.246 124.74H123.26C123.728 123.983 124.037 123.138 124.167 122.257C124.297 121.376 124.246 120.478 124.016 119.618C123.677 117.86 122.718 116.282 121.314 115.17C120.689 114.651 119.952 114.284 119.161 114.098C118.371 113.912 117.547 113.912 116.756 114.098L105.371 116.621C104.086 116.904 102.966 117.685 102.256 118.794C101.547 119.903 101.308 121.248 101.59 122.533L102.387 126.156C102.528 126.793 102.792 127.397 103.165 127.932C103.538 128.467 104.014 128.923 104.563 129.274C105.113 129.625 105.727 129.864 106.369 129.978C107.011 130.092 107.67 130.078 108.307 129.938L119.094 127.552C119.942 127.393 120.748 127.061 121.462 126.577C122.176 126.093 122.784 125.468 123.246 124.74ZM145.92 161.748L156.459 149.153C156.693 148.875 156.841 148.536 156.889 148.176C156.936 147.816 156.879 147.451 156.725 147.122C156.571 146.793 156.327 146.515 156.02 146.321C155.714 146.127 155.358 146.024 154.995 146.025H147.9C147.649 146.026 147.401 145.977 147.169 145.882C146.937 145.787 146.727 145.647 146.549 145.47C146.371 145.293 146.23 145.082 146.134 144.851C146.038 144.619 145.989 144.371 145.989 144.121V142.636C145.989 141.584 146.841 140.731 147.9 140.731H164.111C164.616 140.731 165.101 140.932 165.458 141.289C165.815 141.646 166.016 142.131 166.016 142.636V144.588C166.015 145.018 165.87 145.434 165.603 145.771L155.518 158.434C155.293 158.715 155.153 159.053 155.112 159.41C155.072 159.767 155.133 160.127 155.289 160.451C155.445 160.774 155.69 161.047 155.994 161.238C156.298 161.428 156.65 161.529 157.009 161.528H164.235C165.287 161.528 166.146 162.381 166.146 163.432V164.911C166.146 165.161 166.097 165.409 166.001 165.641C165.904 165.872 165.764 166.083 165.586 166.26C165.408 166.437 165.198 166.577 164.966 166.672C164.734 166.767 164.486 166.816 164.235 166.815H147.378C146.872 166.815 146.388 166.614 146.031 166.257C145.674 165.9 145.473 165.416 145.473 164.911V162.986C145.472 162.533 145.63 162.095 145.92 161.748Z" fill="white"/>
</g>
<defs>
<clipPath id="clip0_2_21051">
<rect width="220" height="220" fill="white" transform="translate(0.5)"/>
</clipPath>
</defs>
</svg>
