<svg width="221" height="220" viewBox="0 0 221 220" fill="none" xmlns="http://www.w3.org/2000/svg">
<g clip-path="url(#clip0_2_21045)">
<path d="M110.5 220C171.251 220 220.5 170.751 220.5 110C220.5 49.2487 171.251 0 110.5 0C49.7487 0 0.5 49.2487 0.5 110C0.5 170.751 49.7487 220 110.5 220Z" fill="#00AAFF"/>
<path d="M110.239 33.9619C68.3841 33.9619 34.4629 67.8832 34.4629 109.738C34.4629 151.586 68.3841 185.521 110.239 185.521C152.087 185.521 186.022 151.586 186.022 109.738C186.022 67.8832 152.087 33.9619 110.239 33.9619ZM110.48 45.9657C116.543 45.9638 122.517 47.4262 127.894 50.2286C133.271 53.031 137.892 57.0905 141.364 62.0619C144.835 67.0332 147.055 72.7694 147.834 78.7826C148.613 84.7958 147.928 90.9082 145.838 96.6C142.582 96.0284 139.245 96.1185 136.025 96.865C132.805 97.6115 129.769 98.9991 127.097 100.945C129.434 98.7101 131.293 96.0242 132.562 93.0498C133.832 90.0754 134.484 86.8745 134.48 83.6407C134.479 77.2703 131.949 71.1611 127.446 66.6546C122.943 62.1482 116.836 59.613 110.466 59.6057C104.52 59.6105 98.7878 61.8194 94.3763 65.8055C89.9648 69.7916 87.1879 75.2716 86.5823 81.1863C82.0659 80.3794 77.4465 80.333 72.9148 81.0488C73.5679 71.5304 77.8092 62.6147 84.7819 56.1027C91.7546 49.5906 100.939 45.9677 110.48 45.9657ZM124.333 116.723L111.009 108.748C110.575 108.486 110.077 108.35 109.569 108.353C109.062 108.357 108.566 108.501 108.135 108.769L96.4479 115.988C95.9908 116.266 95.6251 116.672 95.3955 117.156C95.1659 117.64 95.0825 118.18 95.1554 118.71C95.4627 120.933 95.3 123.195 94.6778 125.351C94.0556 127.507 92.9878 129.509 91.5433 131.226C90.0989 132.943 88.31 134.338 86.2925 135.321C84.2749 136.303 82.0736 136.851 79.831 136.929C77.6901 136.996 75.5576 136.632 73.5603 135.858C71.563 135.085 69.7417 133.917 68.2048 132.425C66.6679 130.933 65.4469 129.147 64.6143 127.174C63.7818 125.2 63.3547 123.079 63.3585 120.938C63.3826 116.754 65.0385 112.745 67.9737 109.763C70.909 106.782 74.8919 105.063 79.0748 104.974C81.3719 104.935 83.6503 105.393 85.7541 106.316C87.8579 107.239 89.7375 108.606 91.2641 110.323C92.1166 111.285 93.5329 111.491 94.6466 110.873L105.908 104.554C106.335 104.312 106.692 103.962 106.94 103.538C107.189 103.114 107.321 102.633 107.324 102.141V101.454C107.321 100.873 107.135 100.308 106.793 99.8378C106.452 99.368 105.971 99.017 105.42 98.8344C101.757 97.6129 98.6604 95.1076 96.7008 91.781C94.7412 88.4544 94.0513 84.5312 94.7585 80.7357C95.4657 76.9401 97.5221 73.5286 100.548 71.1309C103.574 68.7332 107.366 67.5113 111.222 67.6907C115.117 67.8916 118.805 69.5044 121.596 72.2275C124.387 74.9506 126.091 78.5974 126.389 82.4857C126.665 86.2123 125.625 89.9178 123.451 92.9567C121.276 95.9957 118.104 98.1754 114.488 99.1163C113.887 99.2644 113.353 99.6084 112.97 100.094C112.586 100.579 112.375 101.179 112.37 101.798V101.914C112.37 102.877 112.879 103.764 113.69 104.273L125.522 111.546C126.091 111.9 126.77 112.034 127.431 111.922C128.092 111.811 128.689 111.462 129.111 110.941C130.649 109.022 132.609 107.484 134.839 106.446C137.069 105.409 139.509 104.9 141.967 104.96C146.207 105.123 150.207 106.964 153.09 110.077C155.972 113.19 157.5 117.32 157.336 121.56C157.173 125.799 155.333 129.8 152.22 132.682C149.106 135.564 144.976 137.092 140.737 136.929C138.577 136.811 136.464 136.257 134.524 135.302C132.585 134.346 130.858 133.008 129.449 131.367C128.04 129.727 126.977 127.818 126.325 125.757C125.672 123.695 125.444 121.522 125.653 119.37C125.708 118.849 125.613 118.323 125.379 117.854C125.145 117.385 124.782 116.993 124.333 116.723ZM79.3223 158.2C74.4263 158.202 69.5778 157.239 65.0541 155.366C60.5303 153.494 56.4198 150.748 52.9575 147.287C49.4952 143.825 46.7489 139.715 44.8754 135.191C43.002 130.668 42.0382 125.82 42.0391 120.924C42.0356 115.422 43.2502 109.988 45.5958 105.011C47.9414 100.034 51.3597 95.6382 55.6055 92.1391C59.8512 88.64 64.819 86.1243 70.1523 84.7726C75.4855 83.4209 81.0518 83.2668 86.4516 84.3213C86.6303 90.6241 89.2828 96.6032 93.8354 100.966C89.6292 97.8921 84.5524 96.24 79.3429 96.2494C72.8693 96.3575 66.6973 99.005 62.1575 103.621C57.6177 108.237 55.0736 114.453 55.0736 120.927C55.0736 127.402 57.6177 133.617 62.1575 138.233C66.6973 142.849 72.8693 145.497 79.3429 145.605C84.2758 145.604 89.0949 144.123 93.1765 141.353C97.2581 138.583 100.414 134.651 102.237 130.068C103.412 135.196 105.585 139.933 108.514 144.113C105.027 148.513 100.59 152.067 95.534 154.507C90.4786 156.948 84.9361 158.213 79.3223 158.207V158.2ZM141.582 158.2C132.133 158.199 123.037 154.612 116.131 148.162C109.226 141.712 105.026 132.881 104.382 123.454C108.578 124.093 112.85 124.067 117.039 123.378C117.483 127.84 119.135 132.097 121.817 135.691C124.499 139.285 128.109 142.08 132.26 143.776C136.411 145.473 140.946 146.007 145.377 145.32C149.808 144.634 153.969 142.753 157.412 139.88C160.855 137.007 163.45 133.25 164.918 129.013C166.387 124.776 166.673 120.219 165.747 115.832C164.821 111.444 162.717 107.392 159.661 104.11C156.605 100.828 152.713 98.4413 148.402 97.205C149.833 93.2118 150.618 89.0156 150.726 84.775C159.525 87.0175 167.204 92.3937 172.322 99.8951C177.439 107.396 179.644 116.507 178.521 125.518C177.399 134.529 173.028 142.821 166.227 148.838C159.426 154.855 150.663 158.184 141.582 158.2Z" fill="white"/>
<path d="M110.5 20.625C61.1444 20.625 21.125 60.6444 21.125 110C21.125 159.356 61.1444 199.375 110.5 199.375C159.856 199.375 199.875 159.356 199.875 110C199.875 60.6444 159.856 20.625 110.5 20.625ZM110.239 192.651C64.4513 192.651 27.34 155.54 27.34 109.752C27.34 63.965 64.4513 26.8606 110.239 26.8606C156.019 26.8606 193.131 63.9719 193.131 109.752C193.131 155.54 156.019 192.651 110.239 192.651Z" fill="white"/>
</g>
<defs>
<clipPath id="clip0_2_21045">
<rect width="220" height="220" fill="white" transform="translate(0.5)"/>
</clipPath>
</defs>
</svg>
