<svg width="221" height="220" viewBox="0 0 221 220" fill="none" xmlns="http://www.w3.org/2000/svg">
<g clip-path="url(#clip0_2_21041)">
<path d="M110.5 220C171.251 220 220.5 170.751 220.5 110C220.5 49.2487 171.251 0 110.5 0C49.7487 0 0.5 49.2487 0.5 110C0.5 170.751 49.7487 220 110.5 220Z" fill="#EBA809"/>
<path fill-rule="evenodd" clip-rule="evenodd" d="M110.5 185.625C68.7344 185.625 34.875 151.766 34.875 110C34.875 68.2344 68.7344 34.375 110.5 34.375C152.266 34.375 186.125 68.2344 186.125 110C186.125 151.766 152.266 185.625 110.5 185.625ZM103.708 46.3375C103.721 52.3531 103.721 58.3687 103.721 64.3844L112.727 64.3981C112.748 58.2312 112.762 52.0575 112.727 45.8906C109.723 45.9938 106.705 46.1381 103.708 46.3375ZM125.377 64.6731C133.297 65.7387 141.809 66.9488 148.113 72.2906C157.745 80.9325 156.501 99.0756 144.71 105.339C151.771 106.989 158.763 111.684 160.502 119.102C162.771 128.824 160.969 140.484 153.153 147.331C145.411 153.691 134.934 154.529 125.357 155.444C125.398 161.068 125.384 166.691 125.371 172.329C145.514 167.413 162.908 152.426 170.299 133.038C177.311 115.149 175.661 94.105 165.747 77.6256C156.996 62.7756 142.118 51.8444 125.412 47.6644C125.371 53.3363 125.371 59.0081 125.384 64.6731H125.377ZM65.2488 64.4325C73.98 64.845 82.7112 64.7625 91.4425 64.7488C91.4425 59.4413 91.4631 54.1338 91.415 48.8263C81.6387 51.9956 72.935 57.6812 65.2419 64.4325H65.2488ZM55.06 78.1138C44.7956 95.5763 43.6406 117.982 52.2 136.359C59.5906 152.831 74.255 165.646 91.4219 171.167C91.4563 165.873 91.4425 160.566 91.4425 155.272C82.6769 155.182 73.8906 155.506 65.1456 155.031C65.2419 150.15 66.3831 145.379 68.0538 140.793C72.3438 140.704 76.8194 141.453 80.965 140.057C83.385 138.022 82.6975 134.661 82.8213 131.876C82.6975 115.967 82.89 100.052 82.7388 84.1431C82.8969 81.5788 81.2881 78.8081 78.6138 78.2994C74.2138 77.4263 69.6969 77.77 65.2488 77.7425C64.7263 74.1675 64.6712 70.5444 64.6094 66.9213C64.6812 66.5538 64.6748 66.1754 64.5907 65.8105C64.5066 65.4457 64.3467 65.1027 64.1212 64.8037C61.605 69.575 57.6037 73.3494 55.06 78.1069V78.1138ZM104.079 78.8081V102.266C111.923 102.128 120.62 102.994 127.481 98.4431C133.174 94.7238 132.809 85.2844 126.931 81.9431C120.07 77.8731 111.696 79.0281 104.086 78.8081H104.079ZM104.079 114.888V140.91C113.759 140.126 124.621 141.756 133.043 135.919C139.066 131.924 138.344 122.038 132.136 118.58C123.7 113.541 113.449 115.143 104.086 114.888H104.079ZM103.728 155.622C103.728 161.638 103.714 167.654 103.694 173.683C106.829 173.889 109.964 174.013 113.099 174.096C113.126 167.943 113.112 161.783 113.112 155.622H103.728Z" fill="white"/>
</g>
<defs>
<clipPath id="clip0_2_21041">
<rect width="220" height="220" fill="white" transform="translate(0.5)"/>
</clipPath>
</defs>
</svg>
