<svg width="221" height="220" viewBox="0 0 221 220" fill="none" xmlns="http://www.w3.org/2000/svg">
<g clip-path="url(#clip0_2_21037)">
<path d="M110.5 220C171.251 220 220.5 170.751 220.5 110C220.5 49.2487 171.251 0 110.5 0C49.7487 0 0.5 49.2487 0.5 110C0.5 170.751 49.7487 220 110.5 220Z" fill="#504C4C"/>
<path d="M74.9356 105.71L62.9387 131.134L68.5212 151.979L82.725 155.774L100.353 173.422L95.045 178.75L53.025 167.475L41.75 125.455L50.2063 117.013L86.9325 80.2794L74.9356 105.71L62.9387 131.134L100.353 93.72L86.9325 80.2794L74.9356 105.71ZM94.22 120.147L131.634 157.561L152.479 151.979L156.287 137.775L173.922 120.147L179.25 125.455L167.989 167.489L125.955 178.75L80.7931 133.567L94.22 120.147ZM126.78 99.8525L89.3662 62.4387L68.5075 68.0212L64.7125 82.2044L47.0781 99.8525L41.75 94.545L53.025 52.5113L95.045 41.25L103.487 49.7063L140.2 86.4187L126.78 99.8525ZM138.275 64.2125L120.647 46.5781L125.955 41.25L167.989 52.5113L179.25 94.545L134.067 139.707L120.647 126.28L158.075 88.8525L152.479 68.0075L138.275 64.2125Z" fill="white"/>
</g>
<defs>
<clipPath id="clip0_2_21037">
<rect width="220" height="220" fill="white" transform="translate(0.5)"/>
</clipPath>
</defs>
</svg>
