<svg width="221" height="220" viewBox="0 0 221 220" fill="none" xmlns="http://www.w3.org/2000/svg">
<g clip-path="url(#clip0_2_21033)">
<path d="M110.5 220C171.251 220 220.5 170.751 220.5 110C220.5 49.2487 171.251 0 110.5 0C49.7487 0 0.5 49.2487 0.5 110C0.5 170.751 49.7487 220 110.5 220Z" fill="#35BAEB"/>
<path d="M62.5813 34.375L105.715 72.6344C106.217 73.095 106.76 73.48 107.179 73.975C107.227 74.2681 107.248 74.565 107.241 74.8619C107.221 91.3413 107.283 107.807 107.221 124.266C105.063 124.71 102.995 125.512 101.102 126.638L62.9938 88.5363C62.8469 88.4168 62.7326 88.2621 62.6617 88.0866C62.5908 87.9111 62.5655 87.7205 62.5881 87.5325C62.6294 69.8088 62.5881 52.0987 62.6294 34.3887L62.5813 34.375ZM113.779 93.5481C124.225 94.2468 134.154 98.347 142.049 105.222C139.801 107.628 137.374 109.897 135.051 112.255C130.142 117.15 125.268 122.086 120.338 126.933C118.347 125.634 116.125 124.729 113.793 124.266C113.738 114.043 113.793 103.799 113.793 93.5481H113.779ZM62.6019 98.1406C73.7944 109.23 84.9181 120.395 96.09 131.505C94.7838 133.533 93.8488 135.768 93.3263 138.126H62.5813V98.12L62.6019 98.1406ZM142.393 114.18C143.858 112.778 145.198 111.272 146.745 109.918C153.62 117.781 157.726 127.683 158.433 138.105C148.347 138.146 138.241 138.105 128.155 138.126C127.55 138.263 127.55 137.562 127.433 137.184C126.95 135.193 126.114 133.305 124.965 131.608C130.74 125.792 136.577 119.996 142.393 114.201V114.18ZM62.5813 144.664H88.8506C90.3563 144.664 91.8619 144.595 93.3881 144.698C93.8556 147.022 94.7631 149.236 96.0488 151.216L74.7363 172.473C74.5781 172.597 74.3169 172.975 74.1313 172.679C67.3297 164.85 63.2738 155.012 62.5813 144.664ZM127.633 144.698C131.964 144.602 136.254 144.698 140.585 144.664H158.433C157.758 154.925 153.759 164.687 147.041 172.473L134.611 160.084C131.503 156.956 128.334 153.883 125.261 150.714C126.409 148.871 127.213 146.829 127.633 144.698ZM119.011 156.592C119.493 156.317 119.974 156.028 120.455 155.788L142.153 177.444C134.247 184.377 124.272 188.503 113.779 189.179V158.496C115.606 158.129 117.364 157.48 118.991 156.571L119.011 156.592ZM87.4481 168.926C91.8619 164.553 96.2275 160.126 100.683 155.794C102.676 157.073 104.897 157.994 107.214 158.496V189.179C96.7643 188.498 86.8297 184.395 78.9438 177.506C81.7144 174.598 84.6225 171.813 87.4481 168.946V168.926Z" fill="white"/>
</g>
<defs>
<clipPath id="clip0_2_21033">
<rect width="220" height="220" fill="white" transform="translate(0.5)"/>
</clipPath>
</defs>
</svg>
