<svg width="221" height="220" viewBox="0 0 221 220" fill="none" xmlns="http://www.w3.org/2000/svg">
<g clip-path="url(#clip0_2_21025)">
<path d="M110.5 220C171.251 220 220.5 170.751 220.5 110C220.5 49.2487 171.251 0 110.5 0C49.7487 0 0.5 49.2487 0.5 110C0.5 170.751 49.7487 220 110.5 220Z" fill="black"/>
<path d="M191.233 93.0807C190.146 87.7993 188.539 82.6386 186.435 77.6738C184.361 72.7837 181.824 68.1034 178.858 63.697C175.917 59.3436 172.563 55.2845 168.841 51.5763C165.131 47.8545 161.07 44.4999 156.714 41.5595C152.301 38.6086 147.624 36.0723 142.744 33.9832C132.651 29.7026 121.8 27.4966 110.837 27.4966C99.874 27.4966 89.023 29.7026 78.9302 33.9832C69.1708 38.0997 60.3066 44.0777 52.8327 51.5832C49.1115 55.2892 45.757 59.346 42.8158 63.697C39.8645 68.1122 37.3283 72.7911 35.2396 77.6738C30.9589 87.7667 28.7529 98.6176 28.7529 109.581C28.7529 120.544 30.9589 131.395 35.2396 141.488C37.2608 146.369 39.8733 150.996 42.8158 155.458C45.7568 159.813 49.1113 163.874 52.8327 167.585C56.543 171.307 60.6044 174.661 64.9602 177.602C69.3327 180.544 74.0489 183.074 78.9302 185.178C89.023 189.459 99.874 191.665 110.837 191.665C121.8 191.665 132.651 189.459 142.744 185.178C147.625 183.157 152.252 180.544 156.714 177.602C161.07 174.661 165.131 171.307 168.841 167.585C172.563 163.875 175.918 159.813 178.858 155.458C181.801 151.085 184.331 146.369 186.435 141.488C192.911 126.213 194.585 109.329 191.233 93.0807ZM110.913 181.39C71.2645 181.39 39.1927 149.229 39.1927 109.663C39.1927 70.0976 71.3539 37.9363 110.913 37.9363C150.478 37.9363 182.64 70.0976 182.64 109.663C182.64 149.229 150.485 181.39 110.913 181.39Z" fill="white"/>
<path d="M112.184 175.162H114.123C114.46 175.162 114.79 175.162 115.127 175.072H115.216C115.553 175.072 115.801 175.072 116.138 174.99H116.392C116.646 174.99 116.901 174.99 117.148 174.907H117.403C117.657 174.907 117.911 174.825 118.248 174.825H118.413C118.75 174.825 119.087 174.735 119.424 174.735C119.761 174.735 120.015 174.653 120.352 174.57H120.517C120.771 174.57 121.026 174.488 121.273 174.488H121.445C121.782 174.398 122.036 174.398 122.373 174.316C123.04 174.233 123.714 174.062 124.305 173.897H124.477C124.724 173.814 125.061 173.814 125.316 173.725H125.398C126.072 173.56 126.663 173.388 127.337 173.223C121.031 173.423 114.726 172.829 108.568 171.456C99.3007 169.435 90.4663 165.818 82.9725 159.583C77.0648 154.666 72.3236 148.498 69.0918 141.525C65.8601 134.551 64.2187 126.947 64.2863 119.261C64.3469 107.795 68.4268 96.7133 75.8157 87.9453C85.4132 76.5809 99.0532 70.5997 113.023 70.2628H114.962V59.0703H112.776C108.526 59.1482 104.294 59.6549 100.146 60.5828C95.972 61.5267 91.9092 62.9094 88.0257 64.7078C84.0657 66.5641 80.36 68.8328 76.9088 71.4453C73.3424 74.1563 70.095 77.263 67.2288 80.7059C64.5301 83.8923 62.1878 87.3642 60.2438 91.0597C58.3205 94.6222 56.7678 98.3727 55.61 102.252C54.4743 106.072 53.7145 109.993 53.3413 113.96L53.0869 117.659V119.845C53.1694 124.142 53.6782 128.35 54.5994 132.475C55.5275 136.689 56.9575 140.725 58.7244 144.602C60.835 149.229 64.6232 156.049 70.2607 161.185C81.7715 170.259 96.0076 175.184 110.665 175.162H112.184Z" fill="white"/>
<path d="M130.534 164.381C126.382 164.233 122.246 163.782 118.159 163.034C100.821 159.919 85.9156 149.311 80.45 133.32C73.795 113.87 83.9837 92.8261 103.344 86.4324C107.033 85.196 110.899 84.569 114.791 84.5761C119.761 84.5761 124.725 85.5867 129.276 87.4361L133.986 77.4192C132.569 76.8514 131.139 76.3196 129.696 75.8242C124.872 74.3104 119.846 73.543 114.791 73.5486C109.726 73.5581 104.696 74.3822 99.8925 75.9892C93.7625 78.0111 88.1168 81.2787 83.31 85.5867C80.9918 87.6518 78.8782 89.9357 76.9987 92.4067C75.1407 94.8495 73.5331 97.4729 72.2 100.237C69.4854 105.795 67.8833 111.83 67.4837 118.002C67.0643 124.396 67.9031 130.79 70.0068 136.854C72.1504 143.091 75.5952 148.802 80.1131 153.608C84.2381 158.07 89.0368 161.439 94.8393 164.553C100.903 167.75 108.397 169.434 116.221 170.534C121.274 171.201 128.011 171.373 131.964 171.373C135.416 170.108 136.846 169.517 138.702 168.76C140.304 168.004 141.899 167.248 143.501 166.32C145.102 165.392 145.357 165.22 148.045 163.46C148.284 163.311 148.51 163.141 148.719 162.951C139.458 164.553 137.1 164.464 130.534 164.381Z" fill="white"/>
<path d="M151.249 151.841C148.636 152.006 144.931 152.254 140.723 152.254C133.229 152.254 124.051 151.587 116.227 148.974C104.1 144.939 92.653 134.585 92.653 121.784C92.6503 118.754 93.2451 115.753 94.4033 112.954C95.5614 110.154 97.2603 107.61 99.4027 105.468C101.545 103.325 104.089 101.626 106.889 100.468C109.688 99.3101 112.689 98.7153 115.719 98.718C124.388 98.718 131.882 103.517 135.842 110.502L145.859 105.538C144.288 102.581 142.271 99.8841 139.877 97.5424C136.706 94.3659 132.94 91.8458 128.794 90.1264C124.648 88.407 120.204 87.522 115.715 87.522C111.227 87.522 106.782 88.407 102.636 90.1264C98.4904 91.8458 94.7241 94.3659 91.553 97.5424C88.3776 100.713 85.8584 104.479 84.1396 108.625C82.4208 112.77 81.5361 117.214 81.5361 121.701C81.5586 126.404 82.5656 131.051 84.4924 135.341C86.2524 139.212 88.6999 142.835 91.8143 146.204C97.2868 152.089 104.774 156.805 112.776 159.5C120.435 162.023 131.717 162.951 142.662 162.195C145.687 161.941 147.962 161.686 151.833 160.847C155.568 157.9 158.959 154.539 161.939 150.831C159.327 151.085 154.528 151.587 151.249 151.841Z" fill="white"/>
</g>
<defs>
<clipPath id="clip0_2_21025">
<rect width="220" height="220" fill="white" transform="translate(0.5)"/>
</clipPath>
</defs>
</svg>
