<svg width="221" height="220" viewBox="0 0 221 220" fill="none" xmlns="http://www.w3.org/2000/svg">
<g clip-path="url(#clip0_2_21021)">
<path d="M110.5 220C171.251 220 220.5 170.751 220.5 110C220.5 49.2487 171.251 0 110.5 0C49.7487 0 0.5 49.2487 0.5 110C0.5 170.751 49.7487 220 110.5 220Z" fill="#FB2EA3"/>
<path d="M156.095 96.3875C154.534 106.941 148.684 112.049 140.922 113.836C151.578 119.384 157.009 127.902 151.839 142.656C145.425 160.985 130.19 162.525 109.929 158.696L105 178.406L93.12 175.443L97.9738 156.001C94.8071 155.214 91.649 154.394 88.5 153.539L83.6325 173.078L71.7594 170.122L76.6819 150.37C73.9044 149.662 71.0857 148.906 68.205 148.184L52.7432 144.334L58.6419 130.721C58.6419 130.721 67.4007 133.059 67.2769 132.88C70.6457 133.712 72.1375 131.519 72.7288 130.061L80.4975 98.9037L81.7557 99.2131C81.3522 99.0554 80.9388 98.9245 80.5182 98.8212L86.0594 76.5806C86.2038 74.0506 85.3375 70.8744 80.525 69.6644C80.7107 69.5406 71.89 67.5194 71.89 67.5194L75.0525 54.8281L91.4425 58.9187L91.4288 58.9875C93.89 59.5925 96.4338 60.1769 99.0188 60.7681L103.893 41.25L115.773 44.2062L111.002 63.3462C114.185 64.075 117.396 64.8037 120.517 65.5875L125.261 46.5781L137.141 49.5344L132.273 69.0594C147.281 74.2294 158.254 81.9775 156.095 96.3875ZM128.939 134.461C132.789 119.075 106.953 115.094 98.895 113.08L92.3707 139.239C100.428 141.24 125.274 149.222 128.946 134.461H128.939ZM132.617 96.1744C136.109 82.17 114.508 79.0556 107.798 77.3781L101.886 101.104C108.589 102.781 129.269 109.601 132.617 96.1744ZM167.198 148.624C166.622 148.547 166.036 148.584 165.475 148.734C164.913 148.884 164.387 149.143 163.926 149.497C163.032 150.263 162.426 151.31 162.207 152.467C162.066 153.11 162.02 153.77 162.069 154.426C162.128 155.174 162.369 155.896 162.771 156.53C163.183 157.217 163.843 157.864 164.737 158.469C165.631 159.067 166.868 159.548 168.449 159.912C169.302 160.119 170.182 160.215 171.083 160.208C171.99 160.208 172.829 160.064 173.599 159.775C174.413 159.488 175.139 158.994 175.705 158.342C176.272 157.69 176.659 156.902 176.83 156.056C176.992 155.452 177.033 154.822 176.951 154.203C176.868 153.583 176.663 152.986 176.349 152.446C175.716 151.387 174.678 150.576 173.228 150.012L174.286 145.434C176.899 146.486 178.728 147.991 179.786 149.937C180.845 151.889 181.065 154.206 180.446 156.887C180.133 158.374 179.513 159.779 178.624 161.012C177.826 162.1 176.804 163.003 175.626 163.66C174.448 164.318 173.142 164.714 171.798 164.821C170.319 164.955 168.828 164.846 167.384 164.498C165.899 164.167 164.473 163.61 163.156 162.848C161.941 162.153 160.882 161.217 160.041 160.098C159.224 158.987 158.665 157.706 158.405 156.351C158.128 154.796 158.186 153.2 158.577 151.669C158.84 150.507 159.263 149.387 159.835 148.342C160.392 147.324 161.073 146.465 161.891 145.764C162.702 145.062 163.637 144.554 164.696 144.237C165.761 143.914 166.944 143.852 168.257 144.038L167.198 148.624ZM185.706 134.097C185.382 135.625 184.753 137.073 183.856 138.352C183.011 139.521 182 140.442 180.831 141.123C179.622 141.81 178.283 142.236 176.899 142.374C175.363 142.528 173.813 142.421 172.313 142.058C170.819 141.728 169.392 141.147 168.092 140.339C166.91 139.609 165.894 138.639 165.108 137.493C164.337 136.341 163.822 135.038 163.596 133.671C163.353 132.13 163.423 130.557 163.802 129.044C164.126 127.515 164.755 126.068 165.651 124.788C166.504 123.619 167.508 122.691 168.683 122.017C169.892 121.331 171.232 120.904 172.616 120.766C174.059 120.608 175.572 120.711 177.153 121.076C178.66 121.405 180.101 121.986 181.416 122.794C182.653 123.578 183.643 124.527 184.399 125.647C185.156 126.768 185.658 128.04 185.912 129.463C186.155 131.006 186.085 132.582 185.706 134.097ZM167.666 114.861L168.663 110.564L172.678 111.492L172.698 111.409C172.137 111.121 171.64 110.723 171.234 110.241C170.301 109.156 169.683 107.836 169.446 106.425C169.331 105.712 169.354 104.984 169.515 104.28C169.639 103.7 169.814 103.132 170.038 102.582L174.458 103.599C174.329 103.915 174.208 104.234 174.094 104.555C173.978 104.872 173.882 105.196 173.805 105.524C173.615 106.279 173.598 107.066 173.755 107.828C173.912 108.59 174.24 109.307 174.713 109.924C175.248 110.616 175.911 111.2 176.665 111.643C177.483 112.145 178.466 112.53 179.621 112.798L189.508 115.081L188.449 119.659L167.666 114.861ZM183.341 99.8044C184.138 99.9969 184.943 100.059 185.747 100.011C186.511 99.9627 187.258 99.7665 187.947 99.4331C188.63 99.0986 189.229 98.6146 189.7 98.0169C190.231 97.3168 190.598 96.5061 190.773 95.645C191.092 94.5149 191.051 93.3134 190.656 92.2075C190.209 91.1895 189.451 90.3397 188.49 89.7806L189.487 85.4425C190.978 86.1204 192.253 87.198 193.169 88.5559C194.085 89.9139 194.607 91.499 194.678 93.1356C194.746 94.2356 194.65 95.3494 194.396 96.4769C194.018 98.1131 193.413 99.5019 192.588 100.636C191.795 101.75 190.764 102.673 189.57 103.339C188.376 104.005 187.049 104.397 185.685 104.486C182.673 104.727 179.662 104.015 177.078 102.451C175.896 101.712 174.865 100.756 174.039 99.6325C173.235 98.5234 172.67 97.2591 172.382 95.92C172.073 94.5587 172.107 93.1012 172.458 91.5406C172.786 90.0052 173.487 88.5743 174.499 87.3744C175.448 86.2621 176.628 85.3705 177.958 84.7619C179.317 84.16 180.782 83.8329 182.268 83.7994C183.822 83.7444 185.348 83.9919 186.861 84.535L183.334 99.8112L183.341 99.8044ZM182.089 133.265C182.316 132.384 182.316 131.46 182.09 130.579C181.865 129.698 181.42 128.889 180.797 128.226C180.196 127.57 179.484 127.025 178.693 126.617C177.053 125.754 175.218 125.328 173.365 125.379C172.476 125.396 171.598 125.576 170.773 125.909C169.927 126.235 169.176 126.77 168.591 127.463C168.006 128.157 167.605 128.986 167.425 129.876C167.196 130.753 167.192 131.674 167.413 132.554C167.634 133.433 168.073 134.243 168.69 134.908C169.261 135.554 169.962 136.084 170.794 136.517C172.435 137.377 174.269 137.803 176.122 137.754C177.013 137.732 177.892 137.553 178.721 137.225C179.57 136.902 180.324 136.37 180.913 135.677C181.502 134.985 181.907 134.155 182.089 133.265ZM182.791 88.4194C182.062 88.3056 181.321 88.2986 180.591 88.3987C179.895 88.4765 179.222 88.6909 178.61 89.0295C177.998 89.3681 177.458 89.8243 177.023 90.3719C176.572 90.9812 176.248 91.6751 176.071 92.4121C175.894 93.1491 175.867 93.9142 175.991 94.6619C176.129 95.3837 176.383 96.0369 176.768 96.6212C177.617 97.8509 178.878 98.7361 180.323 99.1169L182.791 88.4194Z" fill="white"/>
</g>
<defs>
<clipPath id="clip0_2_21021">
<rect width="220" height="220" fill="white" transform="translate(0.5)"/>
</clipPath>
</defs>
</svg>
