<svg width="221" height="220" viewBox="0 0 221 220" fill="none" xmlns="http://www.w3.org/2000/svg">
<g clip-path="url(#clip0_2_21017)">
<path d="M110.5 220C171.251 220 220.5 170.751 220.5 110C220.5 49.2487 171.251 0 110.5 0C49.7487 0 0.5 49.2487 0.5 110C0.5 170.751 49.7487 220 110.5 220Z" fill="#2D2D2D"/>
<path d="M80.9788 132.66L28 115.294H63.4406L66.9469 98.4981L98.4206 98.5187L106.272 55H137.938C159.374 55 168.064 63.6281 164.854 81.4344L164.166 85.25C162.289 95.6244 157.553 102.52 149.412 106.501C157.477 110.626 160.186 118.429 158.158 129.669L156.59 138.373C153.455 155.739 140.681 165 119.932 165H86.4169L95.1 116.923H84.5812L80.9788 132.66ZM115.807 113.774L109.317 149.731H122.689C130.623 149.731 135.03 146.211 136.529 137.906L138.213 128.604C140.124 117.996 136.453 113.774 126.051 113.774H115.807ZM123.666 70.2625L118.001 101.64H127.708C136.563 101.64 141.74 97.8588 143.328 89.0588L144.407 83.105C145.954 74.5319 142.751 70.2625 134.631 70.2625H124.938H123.666Z" fill="white"/>
</g>
<defs>
<clipPath id="clip0_2_21017">
<rect width="220" height="220" fill="white" transform="translate(0.5)"/>
</clipPath>
</defs>
</svg>
