<svg width="221" height="220" viewBox="0 0 221 220" fill="none" xmlns="http://www.w3.org/2000/svg">
<g clip-path="url(#clip0_2_21013)">
<path d="M110.5 220C171.251 220 220.5 170.751 220.5 110C220.5 49.2487 171.251 0 110.5 0C49.7487 0 0.5 49.2487 0.5 110C0.5 170.751 49.7487 220 110.5 220Z" fill="#00AEEF"/>
<path d="M96.42 168.169H57.315L64.9875 124.754L105.584 88.1856H71.0581L98.9775 71.0738H144.373L85.6606 129.03L81.7144 151.168C81.7144 151.168 94.825 152.13 105.158 151.168C115.498 150.102 127.11 145.826 127.11 145.826L96.42 168.169ZM157.91 75.2469L140.434 92.3587C140.434 92.3587 155.139 108.721 141.603 131.175C128.286 153.202 84.0588 149.139 84.0588 149.139L87.4688 129.786L149.701 69.0456H98.125L103.35 39.5312H78.4144L69.4631 90.0006H101.219L63.4956 124.011L55.5 169.778C55.5 169.778 85.6606 170.631 111.236 169.778C136.914 168.919 166.854 146.891 171.227 121.976C177.194 88.2888 157.91 75.2469 157.91 75.2469Z" fill="white"/>
</g>
<defs>
<clipPath id="clip0_2_21013">
<rect width="220" height="220" fill="white" transform="translate(0.5)"/>
</clipPath>
</defs>
</svg>
