<svg width="221" height="220" viewBox="0 0 221 220" fill="none" xmlns="http://www.w3.org/2000/svg">
<g clip-path="url(#clip0_2_21007)">
<path d="M110.5 220C171.251 220 220.5 170.751 220.5 110C220.5 49.2487 171.251 0 110.5 0C49.7487 0 0.5 49.2487 0.5 110C0.5 170.751 49.7487 220 110.5 220Z" fill="#FBB413"/>
<path d="M110.617 149.903C115.18 150.111 119.734 149.323 123.961 147.593C125.639 146.995 127.241 146.204 128.739 145.242C128.872 145.124 129.028 145.036 129.197 144.984C129.366 144.932 129.545 144.916 129.72 144.938C129.896 144.96 130.065 145.02 130.216 145.112C130.367 145.205 130.496 145.329 130.596 145.475L141.451 156.647C142.228 157.459 142.201 157.72 141.272 158.359C137.502 160.944 133.405 163.018 129.09 164.526C123.749 166.352 118.169 167.385 112.528 167.592C105.346 167.963 98.1587 166.981 91.3393 164.698C85.4681 162.663 80.0081 159.594 75.2174 155.637C70.8911 152.058 67.0908 147.887 63.9287 143.248C62.1427 140.718 60.6004 138.025 59.3224 135.204C58.3573 132.974 57.4879 130.703 56.7168 128.398C55.4361 124.168 54.6223 119.811 54.2899 115.404C53.9316 112.168 53.9778 108.9 54.4274 105.676C54.7712 102.486 55.3349 99.3235 56.1118 96.2091C57.4104 91.449 59.2972 86.8693 61.7287 82.576C66.9526 73.5353 74.6176 66.1491 83.8456 61.2635C87.3473 59.3653 91.0448 57.8531 94.8731 56.7535C97.9784 55.8238 101.168 55.202 104.395 54.8973C106.881 54.5852 109.391 54.5276 111.889 54.7254C112.336 54.7529 112.782 54.7529 113.222 54.7254C117.313 54.83 121.372 55.4726 125.295 56.6366C128.643 57.5304 131.881 58.7954 134.934 60.4316C138.158 62.0266 141.19 63.9654 143.995 66.2204C144.545 66.7085 144.978 66.4816 145.411 66.0141L152.101 58.9535L161.739 48.7098C162.867 47.4929 163.156 47.4585 164.372 48.5585C168.085 51.9066 171.522 55.5573 174.616 59.476C178.548 64.3588 181.9 69.6812 184.606 75.3366C186.771 80.0116 188.552 84.8516 189.934 89.8085C191.096 93.8923 191.467 98.0585 192.367 102.142C192.377 102.22 192.377 102.298 192.367 102.376C192.367 106.164 193.206 109.959 192.801 113.747C192.34 118.065 192.106 122.437 191.206 126.693C190.442 130.268 189.473 133.788 188.318 137.253C185.477 145.851 181.22 153.913 175.723 161.109C174.884 162.209 174.623 162.237 173.661 161.109C170.484 157.892 167.301 154.626 164.084 151.443C163.417 150.776 163.506 150.254 164.084 149.532C167.473 144.781 170.219 139.602 172.251 134.132C174.073 128.996 175.324 123.675 175.984 118.264C176.383 114.119 176.466 109.945 176.246 105.793C176.148 103.428 175.865 101.074 175.4 98.7529C173.646 89.2233 169.789 80.2045 164.111 72.3529C163.506 71.4866 162.75 70.7029 162.2 69.7816C161.65 68.8535 161.595 69.1148 161.072 69.6373C158.006 72.731 154.851 75.7423 151.867 78.8979C150.829 79.9979 149.639 80.8641 148.656 81.9916C147.673 83.126 146.484 84.1916 145.384 85.2916L142.029 88.6535C141.506 89.176 141.101 88.9698 140.75 88.4816C137.909 84.3195 134.256 80.7744 130.011 78.0591C125.909 75.4172 121.309 73.6436 116.495 72.8479C112.739 72.2704 108.921 72.2218 105.151 72.7035C100.518 73.1988 96.0296 74.6153 91.9512 76.8698C87.5731 79.2742 83.7299 82.5443 80.6556 86.481C77.9795 89.8704 75.9137 93.6996 74.5506 97.7973C73.0158 102.654 72.3206 107.736 72.4949 112.826C72.4333 121.958 75.8246 130.776 81.9893 137.514C85.6925 141.61 90.2345 144.86 95.3062 147.043C100.119 149.16 105.364 150.144 110.617 149.903Z" fill="white"/>
<path d="M172.629 163.013L143.342 133.196C142.703 132.529 142.173 132.508 141.658 133.196C139.588 136.213 137.081 138.906 134.219 141.185C133.524 141.735 133.524 142.168 134.219 142.807C136.852 145.44 139.458 148.135 142.063 150.768C145.453 154.213 148.835 157.657 152.252 161.102C152.857 161.707 152.829 161.995 152.252 162.518C150.891 163.535 149.557 164.58 148.141 165.412C140.717 170.537 132.291 174.031 123.418 175.663C119.97 176.445 116.448 176.853 112.913 176.88H111.497C108.994 177.052 106.478 176.976 104.003 176.646C101.102 176.213 98.3795 175.862 95.6295 175.257C92.1449 174.463 88.7359 173.368 85.4407 171.985C79.8432 169.654 74.5921 166.566 69.8345 162.807C65.1359 159.108 60.943 154.809 57.3632 150.019C53.5895 145.001 50.5843 139.45 48.4464 133.547C46.104 127.767 44.7715 121.627 44.507 115.397C44.4577 114.74 44.4577 114.08 44.507 113.423V106.597C44.3491 105.86 44.3491 105.099 44.507 104.362C44.507 103.812 44.7407 103.297 44.8301 102.747C45.1189 100.182 45.5726 97.6385 46.1914 95.1291C46.982 91.7604 48.0339 88.4604 49.347 85.2566C55.1745 70.9854 65.7736 59.1787 79.3357 51.851C87.3576 47.3979 96.2446 44.7247 105.392 44.0135H107.063C116.586 43.4091 126.126 44.9114 135.003 48.4135L137.491 49.4516C141.286 51.1341 144.92 53.1592 148.347 55.5016C148.47 55.6142 148.615 55.6996 148.774 55.7523C148.932 55.805 149.099 55.8239 149.265 55.8077C149.431 55.7915 149.592 55.7405 149.737 55.6582C149.882 55.5759 150.008 55.464 150.107 55.3297C153.18 51.8235 156.418 48.496 159.636 45.141C160.241 44.5016 160.268 43.9241 159.636 43.4016C149.025 35.686 136.731 30.6053 123.769 28.5791C120.05 27.9882 116.298 27.63 112.535 27.5066C106.705 27.4144 100.881 27.9584 95.1689 29.1291C91.5199 29.8543 87.9233 30.8212 84.4026 32.0235C78.1326 34.1204 72.1514 36.9941 66.5964 40.5622C59.9276 44.8247 53.8982 49.9947 48.6801 55.9347C41.7106 63.8443 36.3344 73.0256 32.847 82.9741C31.3895 87.1816 30.2345 91.4854 29.4026 95.8579C28.7632 99.6872 28.3301 103.558 28.0964 107.435C27.8603 111.601 28.0539 115.78 28.6739 119.907C29.1276 124.011 29.9114 128.067 31.0182 132.041C31.802 134.729 32.5857 137.424 33.5964 140.03C35.6176 145.255 38.1545 150.273 41.1795 154.997C44.9425 160.807 49.3828 166.15 54.407 170.912C57.6589 173.91 61.1445 176.639 64.8295 179.08C69.7657 182.455 75.0732 185.267 80.642 187.447C86.1832 189.647 91.9651 191.214 97.857 192.135C102.278 192.795 106.739 193.18 111.208 193.29C114.096 193.29 116.997 192.83 119.713 192.768C121.775 192.617 123.817 192.307 125.824 191.847C128.052 191.468 130.252 190.884 132.452 190.307C140.68 188.154 148.501 184.673 155.607 180.001C162.049 175.876 167.893 170.892 172.98 165.185C173.819 164.223 173.791 164.058 172.636 163.013H172.629Z" fill="white"/>
</g>
<defs>
<clipPath id="clip0_2_21007">
<rect width="220" height="220" fill="white" transform="translate(0.5)"/>
</clipPath>
</defs>
</svg>
