<svg width="221" height="220" viewBox="0 0 221 220" fill="none" xmlns="http://www.w3.org/2000/svg">
<g clip-path="url(#clip0_2_21001)">
<path d="M110.5 220C171.251 220 220.5 170.751 220.5 110C220.5 49.2487 171.251 0 110.5 0C49.7487 0 0.5 49.2487 0.5 110C0.5 170.751 49.7487 220 110.5 220Z" fill="#36B0F3"/>
<path fill-rule="evenodd" clip-rule="evenodd" d="M97.3694 29.295C102.869 28.195 108.473 27.7207 114.076 27.8788C117.568 27.8788 121.061 28.195 124.505 28.8207C131.208 29.7419 137.671 31.8732 143.975 34.2657C148.561 36.3144 153.366 38.2394 157.093 41.7182C158.131 42.4744 157.574 43.9869 156.653 44.585C154.521 45.9532 151.957 46.345 149.523 46.8813C138.551 48.765 127.386 49.6107 116.606 52.5325C111.773 53.6188 107.125 55.3925 102.526 57.2282C93.98 61.0507 86.1219 66.6675 80.4363 74.175C79.3499 75.7635 78.3045 77.3797 77.3013 79.0219C76.4007 80.775 75.4932 82.5282 74.7575 84.3638C74.2075 85.6769 73.6988 87.0038 73.2175 88.3375C72.2482 91.1769 71.7738 94.14 71.0519 97.055C70.825 98.9663 70.6944 100.891 70.2957 102.782C70.0413 107.113 70.165 111.444 70.1994 115.776C70.1994 117.219 70.5913 118.636 70.6119 120.086C70.6325 121.42 70.8182 122.747 71.1757 124.033C71.8632 127.642 72.7019 131.299 74.235 134.675C76.2219 139.467 79.3157 143.956 83.7157 146.809C87.3663 149.518 91.8832 150.673 96.3107 151.361C102.223 152.131 108.225 151.429 114.048 150.371C117.094 149.821 120.119 149.133 123.123 148.329C125.028 147.793 126.987 147.435 128.871 146.796C129.593 146.671 130.324 146.602 131.057 146.589C128.699 148.693 126.327 150.783 123.659 152.481C114.571 158.339 104.004 161.391 93.4644 163.358C88.7 164.334 83.8532 164.911 79.0544 165.736C73.5888 166.527 67.9238 167.18 62.9944 169.861C61.5232 170.893 60.3819 172.295 59.3575 173.753C59.0482 174.385 58.4638 173.753 58.12 173.526C56.9994 172.24 55.5625 171.298 54.3457 170.109C53.0475 168.859 51.7731 167.584 50.5232 166.286C48.5225 163.956 46.4669 161.659 44.7 159.15C41.18 154.379 38.0657 149.271 35.7832 143.798L35.3844 143.619C35.0957 142.045 34.2982 140.656 33.7688 139.164C32.5204 135.896 31.5095 132.541 30.7438 129.127C30.4414 128.084 30.2049 127.023 30.0357 125.951C29.6663 124.744 29.4447 123.498 29.3757 122.238C28.7019 119.282 28.8257 116.229 28.3994 113.246C28.3994 110.757 28.2344 108.248 28.5369 105.766C28.8669 103.703 28.7294 101.593 29.1557 99.5369C29.575 97.8663 29.4925 96.12 30.0219 94.4769C30.6824 90.8004 31.6482 87.1854 32.9094 83.6694C33.4044 82.3769 33.8513 81.0707 34.3119 79.7713C34.5869 79.1732 34.8138 78.5613 34.9994 77.9357L35.3638 77.5025C35.8044 76.2114 36.3733 74.9677 37.0619 73.79C37.7465 72.3564 38.492 70.9526 39.2963 69.5825C39.53 69.0944 39.7913 68.62 40.0663 68.1388C44.3975 61.3532 49.4575 54.925 55.5488 49.6175C63.1051 42.8913 71.782 37.5418 81.1857 33.8119C86.4139 31.7567 91.8392 30.2432 97.3763 29.295H97.3694Z" fill="white"/>
<path fill-rule="evenodd" clip-rule="evenodd" d="M160.282 50.8072C161.795 49.9272 162.833 48.504 163.878 47.1497C172.13 54.2052 178.909 62.8198 183.826 72.4998C188.743 82.1798 191.701 92.735 192.531 103.56C193.362 114.386 192.047 125.269 188.664 135.585C185.281 145.902 179.895 155.45 172.815 163.681C160.186 178.517 142.05 188.596 122.724 191.27C113.835 192.577 104.78 192.233 95.8979 191.016C89.0916 190.053 82.4366 188.197 76.1185 185.482C72.681 183.969 69.2641 182.195 66.576 179.514C65.8816 178.909 65.4416 177.905 65.9022 177.032C66.5897 175.967 67.8272 175.437 68.996 175.059C72.3304 174.097 75.761 173.533 79.1916 173.003C85.3929 171.924 91.656 171.23 97.8091 169.875C108.032 167.668 118.255 164.54 127.097 158.807C133.105 154.97 138.399 149.979 142.297 143.998C147.893 135.555 150.478 125.442 151.097 115.418C151.407 107.959 151.235 100.431 149.674 93.1022C148.251 86.7772 145.755 80.404 141.032 75.7978C137.423 72.0922 132.507 69.789 127.433 68.909C119.012 67.3347 110.411 68.854 102.161 70.7103C98.2972 71.6247 94.4885 72.7728 90.5835 73.529C96.1385 68.2972 102.938 64.5572 110.081 61.9997C114.185 60.4803 118.448 59.4697 122.69 58.4728C131.985 56.3828 141.5 55.5853 150.877 53.9765C154.15 53.289 157.477 52.629 160.282 50.8072Z" fill="white"/>
</g>
<defs>
<clipPath id="clip0_2_21001">
<rect width="220" height="220" fill="white" transform="translate(0.5)"/>
</clipPath>
</defs>
</svg>
