<svg width="221" height="220" viewBox="0 0 221 220" fill="none" xmlns="http://www.w3.org/2000/svg">
<g clip-path="url(#clip0_2_20997)">
<path d="M110.5 220C171.251 220 220.5 170.751 220.5 110C220.5 49.2487 171.251 0 110.5 0C49.7487 0 0.5 49.2487 0.5 110C0.5 170.751 49.7487 220 110.5 220Z" fill="#F70808"/>
<path d="M110.5 41.25L99.0875 61.985C97.795 64.24 95.4782 64.0337 93.1544 62.7756L84.9044 58.6025L91.0507 90.4544C92.35 96.2775 88.1975 96.2775 86.1488 93.7544L71.725 78.0313L69.3875 86.02C69.1125 87.0719 67.93 88.1719 66.1494 87.9106L47.9307 84.1706L52.7088 101.138C53.74 104.913 54.5375 106.473 51.6775 107.463L45.1807 110.447L76.5513 135.279C77.1748 135.753 77.6436 136.401 77.8982 137.142C78.1528 137.882 78.1817 138.682 77.9813 139.439L75.2313 148.225C86.0388 147.008 95.7188 145.186 106.526 144.059C107.482 143.963 109.077 145.496 109.07 146.575L107.647 178.75H112.899L112.074 146.644C112.068 145.564 113.518 143.963 114.467 144.059C125.274 145.186 134.954 147.015 145.755 148.225L143.012 139.439C142.811 138.682 142.839 137.882 143.094 137.141C143.348 136.401 143.818 135.752 144.442 135.279L175.813 110.447L169.316 107.47C166.456 106.473 167.253 104.913 168.284 101.138L173.069 84.1706L154.844 87.9106C153.063 88.1719 151.874 87.0719 151.613 86.02L149.268 78.0313L134.851 93.7612C132.803 96.2775 128.65 96.2775 129.949 90.4613L136.103 58.6025L127.846 62.7756C125.522 64.0337 123.205 64.24 121.913 61.985L110.5 41.25Z" fill="white"/>
</g>
<defs>
<clipPath id="clip0_2_20997">
<rect width="220" height="220" fill="white" transform="translate(0.5)"/>
</clipPath>
</defs>
</svg>
