<svg width="221" height="220" viewBox="0 0 221 220" fill="none" xmlns="http://www.w3.org/2000/svg">
<g clip-path="url(#clip0_2_20993)">
<path d="M110.5 220C171.251 220 220.5 170.751 220.5 110C220.5 49.2487 171.251 0 110.5 0C49.7487 0 0.5 49.2487 0.5 110C0.5 170.751 49.7487 220 110.5 220Z" fill="#272731"/>
<path d="M186.125 110.206C186.125 130.213 178.253 149.394 164.221 163.542C157.3 170.535 149.062 176.087 139.983 179.877C130.904 183.667 121.164 185.621 111.325 185.625V166.361C138.468 166.444 161.684 146.719 166.215 119.735H139.471C140.53 116.6 141.073 113.314 141.08 110C141.037 106.693 140.494 103.411 139.471 100.265H166.215C161.622 73.315 138.44 53.625 111.325 53.6388V34.375C152.63 34.7737 185.953 68.5575 186.125 110.206ZM136.254 126.424H157.374C149.564 149.146 126.629 162.862 103.109 158.874C79.5969 154.873 62.375 134.344 62.375 110.296C62.375 86.2469 79.5969 65.725 103.109 61.7306C126.629 57.7431 149.564 71.4588 157.374 94.1806H136.254C133.876 90.567 130.8 87.4651 127.206 85.0575C123.921 82.9439 120.248 81.5027 116.402 80.8172C112.556 80.1318 108.612 80.2156 104.798 81.064C100.985 81.9124 97.3772 83.5085 94.1844 85.7599C90.9915 88.0113 88.2766 90.8734 86.1969 94.1806C77.3694 108.116 81.4188 126.631 95.2444 135.534C98.5297 137.648 102.201 139.089 106.047 139.775C109.893 140.461 113.837 140.378 117.651 139.53C121.464 138.682 125.072 137.087 128.265 134.836C131.458 132.586 134.173 129.724 136.254 126.418V126.424Z" fill="white"/>
</g>
<defs>
<clipPath id="clip0_2_20993">
<rect width="220" height="220" fill="white" transform="translate(0.5)"/>
</clipPath>
</defs>
</svg>
