<svg width="221" height="220" viewBox="0 0 221 220" fill="none" xmlns="http://www.w3.org/2000/svg">
<g clip-path="url(#clip0_2_20989)">
<path d="M110.5 220C171.251 220 220.5 170.751 220.5 110C220.5 49.2487 171.251 0 110.5 0C49.7487 0 0.5 49.2487 0.5 110C0.5 170.751 49.7487 220 110.5 220Z" fill="#3089F2"/>
<path d="M149.185 122.912C146.284 125.407 143.685 127.628 141.114 129.876C140.825 130.13 140.537 130.584 140.537 130.949C140.495 135.335 140.509 139.714 140.509 144.252C147.116 141.46 150.567 132.977 149.185 122.912ZM141.224 96.1198C148.587 91.7335 149.46 90.2142 149.488 81.5104C149.488 80.8229 149.509 80.1423 149.481 79.4617C149.165 71.466 143.692 64.4054 136.116 62.7142C129.31 61.2017 122.449 59.9435 115.574 58.7817C112.074 58.1835 108.492 57.6748 104.965 57.7917C100.696 57.9292 97.2104 60.1704 93.9998 63.8279C101.782 65.2785 109.008 66.7704 116.282 67.9529C126.271 69.5754 133.895 74.5873 138.062 84.1367C139.677 87.8423 140.193 92.0429 141.224 96.1198ZM80.566 75.4398C74.6535 79.111 71.7385 84.0885 71.6491 90.276C71.4475 106.982 71.4314 123.689 71.601 140.395C71.6698 148.487 77.0116 155.424 84.7254 157.307C91.3254 158.916 98.0766 159.906 104.759 161.199C108.994 162.024 113.188 163.275 117.56 162.189C121.135 161.295 124.325 159.789 126.842 156.255C118.825 154.75 111.297 153.093 103.694 151.965C90.6791 150.034 80.5866 138.504 80.5729 125.084C80.5523 109.739 80.566 94.401 80.566 79.056V75.4398ZM89.7648 73.0267C89.6823 74.7248 89.5585 75.9898 89.5585 77.2548C89.5379 92.696 89.5379 108.137 89.5585 123.579C89.5791 133.726 95.7116 141.014 105.454 142.719C112.494 143.956 119.506 145.331 126.532 146.637C127.02 146.727 127.515 146.775 128.01 146.83C131.345 147.201 131.462 147.139 131.482 143.798C131.517 138.676 131.345 133.554 131.585 128.446C131.654 126.934 132.417 125.029 133.51 124.06C139.086 119.089 144.875 114.366 150.588 109.554C152.142 108.247 153.737 107.354 155.827 108.364C158.034 109.43 158.611 111.272 158.577 113.589C158.494 119.392 158.618 125.201 158.439 130.99C158.102 141.454 150.512 151.752 140.77 155.052C139.945 155.306 139.179 155.722 138.518 156.277C137.856 156.832 137.313 157.515 136.92 158.284C130.919 168.94 120.634 173.051 109.613 171.594C100.579 170.39 91.6141 168.486 82.6904 166.575C71.1954 164.114 62.7048 153.416 62.5191 140.615C62.2716 123.386 62.3541 106.15 62.6498 88.9285C62.8285 78.1623 70.831 68.166 80.9785 64.866C82.1077 64.4482 83.0623 63.6608 83.6873 62.6317C90.4935 50.8204 101.549 46.0285 114.687 48.971C121.974 50.6004 129.392 51.6729 136.721 53.1648C149.729 55.8185 158.419 66.5573 158.59 80.0735C158.639 83.9167 158.666 87.7598 158.453 91.5892C158.391 92.806 157.855 94.3598 156.989 95.1229C150.753 100.623 144.442 106.04 137.972 111.252C136.975 112.056 134.741 112.242 133.627 111.644C132.534 111.052 131.613 109.134 131.537 107.745C131.269 103.16 131.778 98.5054 131.331 93.9473C130.437 84.8104 124.215 78.7742 114.838 77.2135C107.385 75.976 99.9466 74.6354 92.501 73.3567C91.7035 73.2192 90.8923 73.1573 89.7648 73.0267Z" fill="white"/>
</g>
<defs>
<clipPath id="clip0_2_20989">
<rect width="220" height="220" fill="white" transform="translate(0.5)"/>
</clipPath>
</defs>
</svg>
