<svg width="221" height="220" viewBox="0 0 221 220" fill="none" xmlns="http://www.w3.org/2000/svg">
<g clip-path="url(#clip0_2_20983)">
<path d="M110.5 220C171.251 220 220.5 170.751 220.5 110C220.5 49.2487 171.251 0 110.5 0C49.7487 0 0.5 49.2487 0.5 110C0.5 170.751 49.7487 220 110.5 220Z" fill="#00ACED"/>
<path fill-rule="evenodd" clip-rule="evenodd" d="M41.75 66.7844V94.8069L109.778 134.098L153.916 108.557V131.348L177.676 145.359V66.7844L109.716 106.075L41.75 66.7844Z" fill="white"/>
<path opacity="0.7" fill-rule="evenodd" clip-rule="evenodd" d="M109.716 27.5L41.75 66.7837V145.358L109.716 184.642L177.483 145.358L153.455 131.347L109.716 156.619L65.785 131.347V80.795L109.716 55.5225L153.455 80.795L177.483 66.7837L109.716 27.5Z" fill="white"/>
</g>
<defs>
<clipPath id="clip0_2_20983">
<rect width="220" height="220" fill="white" transform="translate(0.5)"/>
</clipPath>
</defs>
</svg>
