<svg width="221" height="220" viewBox="0 0 221 220" fill="none" xmlns="http://www.w3.org/2000/svg">
<g clip-path="url(#clip0_2_20979)">
<path d="M110.5 220C171.251 220 220.5 170.751 220.5 110C220.5 49.2487 171.251 0 110.5 0C49.7487 0 0.5 49.2487 0.5 110C0.5 170.751 49.7487 220 110.5 220Z" fill="#1C98F7"/>
<path fill-rule="evenodd" clip-rule="evenodd" d="M112.425 160.359C117.263 160.023 122.059 159.241 126.753 158.022C132.545 159.789 138.668 160.19 144.641 159.191C144.878 159.152 145.117 159.134 145.356 159.136C147.487 159.136 150.286 160.373 154.362 162.986V158.689C154.363 157.945 154.562 157.216 154.937 156.574C155.313 155.933 155.853 155.403 156.501 155.038C158.274 154.034 159.924 152.879 161.43 151.608C167.37 146.575 170.725 139.865 170.725 132.756C170.725 130.371 170.347 128.054 169.632 125.84C171.426 122.492 172.877 118.972 173.943 115.321C177.388 120.484 179.234 126.549 179.25 132.756C179.25 142.416 174.754 151.422 166.978 158.008C165.68 159.107 164.314 160.122 162.888 161.047V171.091C162.888 174.549 158.9 176.536 156.088 174.481C153.429 172.493 150.676 170.635 147.838 168.912C147.025 168.425 146.18 167.996 145.308 167.626C142.971 167.977 140.578 168.156 138.165 168.156C128.458 168.156 119.493 165.248 112.432 160.359H112.425ZM61.0963 140.271C48.8313 129.869 41.75 115.699 41.75 100.513C41.75 69.4856 71.0237 44.6875 106.767 44.6875C142.517 44.6875 171.791 69.4856 171.791 100.513C171.791 131.546 142.51 156.344 106.767 156.344C102.752 156.344 98.7781 156.035 94.8869 155.416C93.2025 155.815 86.4719 159.816 76.7712 166.897C73.2581 169.469 68.2737 166.987 68.2737 162.663V145.53C65.7616 143.946 63.3633 142.189 61.0963 140.271ZM95.1206 144.849C95.4162 144.849 95.7187 144.87 96.0144 144.918C99.5206 145.509 103.123 145.812 106.767 145.812C136.962 145.812 161.128 125.338 161.128 100.513C161.128 75.6938 136.962 55.22 106.767 55.22C76.5856 55.22 52.4063 75.6938 52.4063 100.513C52.4063 112.516 58.0506 123.819 68.0331 132.275C70.5425 134.393 73.2994 136.318 76.2556 137.995C77.9125 138.93 78.9369 140.676 78.9369 142.56V152.439C86.6094 147.29 91.6556 144.849 95.1206 144.849ZM79.0537 111.052C74.3444 111.052 70.5287 107.271 70.5287 102.623C70.5287 97.9688 74.3444 94.1944 79.0537 94.1944C83.7631 94.1944 87.5788 97.9688 87.5788 102.623C87.5788 107.278 83.7631 111.052 79.0537 111.052ZM106.767 111.052C102.057 111.052 98.2419 107.271 98.2419 102.623C98.2419 97.9688 102.057 94.1944 106.767 94.1944C111.476 94.1944 115.292 97.9688 115.292 102.623C115.292 107.278 111.476 111.052 106.767 111.052ZM134.48 111.052C129.771 111.052 125.955 107.271 125.955 102.623C125.955 97.9688 129.771 94.1944 134.48 94.1944C139.189 94.1944 143.005 97.9688 143.005 102.623C143.005 107.278 139.189 111.052 134.48 111.052Z" fill="white"/>
</g>
<defs>
<clipPath id="clip0_2_20979">
<rect width="220" height="220" fill="white" transform="translate(0.5)"/>
</clipPath>
</defs>
</svg>
