<svg width="221" height="220" viewBox="0 0 221 220" fill="none" xmlns="http://www.w3.org/2000/svg">
<g clip-path="url(#clip0_2_20975)">
<path d="M110.5 220C171.251 220 220.5 170.751 220.5 110C220.5 49.2487 171.251 0 110.5 0C49.7487 0 0.5 49.2487 0.5 110C0.5 170.751 49.7487 220 110.5 220Z" fill="#598182"/>
<path fill-rule="evenodd" clip-rule="evenodd" d="M93.6429 174.68C99.4546 167.171 105.266 159.661 111.078 152.151C117.602 153.169 124.03 152.591 130.177 149.924C132.397 148.961 134.384 147.462 136.474 146.197C136.77 146.019 137.045 145.785 137.272 145.613L158.392 166.499C156.638 167.668 154.899 168.933 153.05 170.019C145.894 174.167 138.007 176.898 129.819 178.063C124.987 178.74 120.099 178.924 115.23 178.613C107.891 178.276 100.63 176.953 93.6429 174.68ZM87.0016 172.095C84.6548 171.047 82.3687 169.867 80.1541 168.562C68.8363 162.003 59.9023 152.009 54.6479 140.03C51.8744 133.783 50.0507 127.155 49.2372 120.368C48.5988 115.104 48.4561 109.791 48.811 104.5C49.6566 90.9223 53.7885 78.4441 62.1141 67.4648C69.8004 57.331 79.8929 50.3942 91.8347 45.946C97.5003 43.7958 103.433 42.4311 109.469 41.8898C114.027 41.4979 118.633 41.106 123.192 41.3054C126.01 41.4223 128.781 41.6973 131.51 42.1304C125.616 50.6875 119.722 59.2446 113.828 67.8017C107.931 68.2958 102.243 70.2215 97.2591 73.4116C88.1154 79.2141 82.6429 87.5741 80.0716 97.8866C78.9806 102.232 78.4811 106.704 78.5866 111.183C78.6485 113.534 78.8479 115.837 79.1985 118.085L77.081 121.159C75.376 123.634 77.4729 126.906 80.5047 126.507L81.2747 126.411C83.0485 131.423 85.7366 136.105 89.456 140.402C91.766 143.055 94.3441 145.283 97.1835 147.07L87.2491 171.071C87.1127 171.4 87.0291 171.748 87.0016 172.102V172.095ZM138.172 43.5467C144.293 45.1774 150.094 47.8294 155.332 51.391C156.281 52.0373 157.147 52.8004 158.055 53.5085C158.227 53.6391 158.405 53.756 158.625 53.9073C158.337 54.2373 158.172 54.4573 157.972 54.6498C151.709 60.8235 145.432 66.9766 139.19 73.171C138.502 73.8585 138.069 73.9685 137.237 73.3773C134.717 71.5862 131.931 70.2034 128.98 69.2798L137.801 46.0767L138.035 45.4785C138.269 44.8621 138.317 44.1901 138.172 43.5467ZM112.707 118.814L80.0304 123.084L134.398 44.1379L134.7 44.2754L113.697 99.4885L152.025 93.4385L90.8447 172.57L90.5491 172.363L112.707 118.814Z" fill="white"/>
</g>
<defs>
<clipPath id="clip0_2_20975">
<rect width="220" height="220" fill="white" transform="translate(0.5)"/>
</clipPath>
</defs>
</svg>
