<svg width="221" height="220" viewBox="0 0 221 220" fill="none" xmlns="http://www.w3.org/2000/svg">
<g clip-path="url(#clip0_2_20969)">
<path d="M110.5 220C171.251 220 220.5 170.751 220.5 110C220.5 49.2487 171.251 0 110.5 0C49.7487 0 0.5 49.2487 0.5 110C0.5 170.751 49.7487 220 110.5 220Z" fill="#0576B4"/>
<path d="M170.093 129.683L162.812 125.125L178.693 124.94L179.023 124.761V124.933L185.582 124.864L174.451 142.973L173.455 134.241L122.827 162.175L103.625 136.538L49.7939 164.904V158.441L105.296 129.202L124.491 154.839L170.1 129.683H170.093ZM100.573 123.461L79.5352 134.537V59.4277H100.573V123.461ZM160.062 126.768L139.025 138.456V59.4277H160.062V126.768Z" fill="white"/>
<path opacity="0.5" d="M130.321 143.296L125.804 145.798L109.276 123.73V68.0215H130.314V143.296H130.321ZM70.8246 139.123L49.7871 150.205V77.7702H70.8246V139.123Z" fill="white"/>
</g>
<defs>
<clipPath id="clip0_2_20969">
<rect width="220" height="220" fill="white" transform="translate(0.5)"/>
</clipPath>
</defs>
</svg>
