<svg width="221" height="220" viewBox="0 0 221 220" fill="none" xmlns="http://www.w3.org/2000/svg">
<g clip-path="url(#clip0_2_20965)">
<path d="M110.5 220C171.251 220 220.5 170.751 220.5 110C220.5 49.2487 171.251 0 110.5 0C49.7487 0 0.5 49.2487 0.5 110C0.5 170.751 49.7487 220 110.5 220Z" fill="#20C5D3"/>
<path d="M122.943 54.1062V53.4944C124.16 52.9788 126.573 52.4906 130.726 53.6044C135.476 54.8831 139.148 59.6544 140.832 62.2256L140.818 63.8756C140.736 73.0813 137.807 95.8237 132.733 112.874C128.299 127.772 118.626 147.593 116.66 151.553C115.694 151.34 114.716 151.186 113.731 151.092C114.549 146.066 118.117 123.681 120.365 103.283C122.751 81.6406 122.936 60.1769 122.936 54.1131L122.943 54.1062ZM142.874 63.8962V63.8206C144.661 63.7794 148.621 64.1025 153.138 67.0106C157.511 69.8225 159.766 75.1713 160.701 78.045L160.268 79.7431C159.202 83.8819 151.31 105.215 142.819 121.296C135.614 134.922 124.112 149.999 121.603 153.23C120.657 152.78 119.68 152.396 118.681 152.082C121.018 147.359 130.348 128.081 134.7 113.444C139.828 96.2156 142.785 73.2119 142.874 63.8962ZM144.641 122.224C152.726 106.913 160.893 85.4287 162.241 80.3069C164.021 80.9531 167.844 82.665 170.333 86.0612C172.464 88.9625 173.158 92.8881 173.385 95.3563L172.553 97.295C170.945 101.028 161.141 118.229 151.261 130.487C142.709 141.102 129.86 153.698 126.78 156.681C125.743 155.751 124.62 154.922 123.425 154.206C126.319 150.466 137.539 135.664 144.641 122.224ZM76.159 65.4913L75.9184 63.6075C77.039 61.1669 79.514 57.0969 84.2509 54.9312C89.4071 52.58 93.4152 53.2194 95.2096 53.7419L95.2234 54.1475C95.3609 58.2381 96.4402 78.375 99.0734 102.142C101.493 123.888 105.391 147.015 106.141 151.408C105.11 151.594 104.099 151.848 103.109 152.164C101.198 148.108 92.6865 129.683 86.9665 111.224C80.5865 90.6331 76.929 71.5206 76.159 65.4913ZM97.2721 54.0788L97.2446 53.1369C99.1284 51.4456 103.515 48.125 109.001 48.125C114.473 48.125 118.956 51.4456 120.888 53.1438V54.1062C120.888 60.1494 120.702 81.5238 118.323 103.056C116.048 123.709 112.411 146.417 111.668 150.982L111.132 150.968C110.142 150.968 109.159 151.023 108.176 151.119C107.447 146.891 103.535 123.709 101.115 101.922C98.489 78.2169 97.4165 58.1487 97.2721 54.0719V54.0788ZM111.132 152.989C122.249 152.989 127.371 159.734 128.918 162.305C120.496 168.217 113.641 171.875 111.221 171.875C108.801 171.875 102.786 168.85 93.3259 162.009C94.8384 159.569 99.9396 152.989 111.132 152.989ZM174.389 98.2094C176.08 99.3094 179.552 102.272 179.229 107.972C178.803 115.479 165.926 130.357 149.756 145.406C143.693 151.038 137.287 156.289 130.575 161.129C129.885 160.055 129.101 159.045 128.23 158.111C131.365 155.079 144.263 142.436 152.87 131.746C162.77 119.467 172.622 102.217 174.389 98.2094ZM47.3871 96.7519C46.8864 95.5085 46.4119 94.2546 45.964 92.9912C45.9552 90.7643 46.4985 88.57 47.5452 86.6044C49.8965 82.3419 55.864 80.3894 58.229 79.7638L58.2427 79.805L58.4971 80.6987C60.2159 86.6869 64.2309 100.719 74.8046 121C84.244 139.102 94.5015 151.614 97.3752 154.963C96.605 155.489 95.8701 156.066 95.1752 156.688C85.4742 148.288 76.4853 139.099 68.3009 129.216C58.1121 116.896 51.079 105.978 47.3871 96.7519ZM93.7246 158.132C92.9684 158.957 92.2809 159.851 91.6621 160.799C85.7014 156.354 79.8998 151.699 74.2684 146.843C53.5609 129.14 42.2309 116.827 41.7771 109.051C41.4334 103.118 44.4446 99.77 45.9021 98.5119C49.7659 107.704 56.7509 118.449 66.7059 130.494C74.9388 140.43 83.9755 149.672 93.7246 158.125V158.132ZM60.2227 79.2481C59.999 78.484 59.7881 77.7162 59.5902 76.945C60.1196 74.4288 61.4259 70.6612 64.6227 68.3375C67.3675 66.3458 70.7091 65.3491 74.0965 65.5119L74.1309 65.7456C74.9077 71.83 78.5859 91.1006 85.0071 111.808C90.6996 130.171 99.1215 148.5 101.184 152.886C100.484 153.18 99.8005 153.511 99.1352 153.876C96.6259 150.975 86.2171 138.456 76.6402 120.079C66.1559 99.9762 62.1821 86.0819 60.484 80.1488L60.2227 79.2481Z" fill="white"/>
</g>
<defs>
<clipPath id="clip0_2_20965">
<rect width="220" height="220" fill="white" transform="translate(0.5)"/>
</clipPath>
</defs>
</svg>
