<svg width="221" height="220" viewBox="0 0 221 220" fill="none" xmlns="http://www.w3.org/2000/svg">
<g clip-path="url(#clip0_2_20961)">
<path d="M110.5 220C171.251 220 220.5 170.751 220.5 110C220.5 49.2487 171.251 0 110.5 0C49.7487 0 0.5 49.2487 0.5 110C0.5 170.751 49.7487 220 110.5 220Z" fill="#FF3A00"/>
<path d="M110.521 34.375C152.231 34.4438 186.139 68.3787 186.125 110.021C186.111 151.711 152.176 185.625 110.473 185.625H110.404C68.7413 185.584 34.8544 151.614 34.875 109.904C34.8956 68.2687 68.8375 34.375 110.521 34.375ZM110.5 44.1238C74.2206 44.1238 44.6925 73.6725 44.6788 109.986C44.6719 146.259 74.1588 175.794 110.418 175.821C146.738 175.821 176.314 146.286 176.342 109.986C176.368 101.338 174.676 92.7706 171.366 84.781C168.056 76.7913 163.192 69.5383 157.058 63.4425C150.963 57.3041 143.711 52.4359 135.721 49.1197C127.732 45.8036 119.164 44.1055 110.514 44.1238H110.5ZM143.005 103.242C145.336 115.06 142.338 124.988 133.848 133.609L132.679 134.784L131.194 134.056C130.372 133.654 129.537 133.278 128.691 132.928L125.329 131.526L128.038 129.092C133.325 124.348 136.137 118.154 136.405 110.688C136.68 103.221 134.033 96.7106 128.547 91.3413C123.738 86.6234 117.264 83.9903 110.528 84.0125C106.846 84.0097 103.205 84.7926 99.8502 86.3089C96.4951 87.8253 93.5021 90.0402 91.0713 92.8056C85.585 99.0619 83.4881 106.679 85.0213 114.826C85.969 120.216 88.6596 125.146 92.68 128.858L95.3406 131.326L91.9788 132.681C91.14 133.018 90.26 133.382 89.3181 133.781L87.8744 134.386L86.7744 133.265C81.1163 127.435 78.05 120.725 77.4106 112.75C76.0563 95.9406 86.9531 81.1319 103.329 77.5431C105.745 77.0086 108.211 76.7366 110.686 76.7319C118.305 76.7392 125.686 79.3837 131.576 84.2162C137.467 89.0487 141.502 95.7712 142.998 103.242H143.005ZM69.0644 146.486C58.9169 135.169 50.6875 115.094 58.0438 92.6956C61.6789 81.6603 68.7023 72.0528 78.1142 65.2404C87.5261 58.428 98.847 54.7579 110.466 54.7525C121.986 54.7391 133.221 58.3308 142.598 65.0242C151.974 71.7176 159.02 81.1771 162.75 92.0769C169.254 111.134 164.73 132.804 151.234 147.283L149.516 149.119L143.349 142.23L144.71 140.697C153.153 131.189 157.071 119.914 156.363 107.195C155.703 95.5762 151.083 85.4563 142.627 77.1238C134.088 68.678 122.551 63.959 110.541 63.9994C99.5097 64.0042 88.8463 67.9685 80.4906 75.1712C74.0165 80.6952 69.2297 87.9314 66.6788 96.0506C64.087 104.121 63.8013 112.755 65.8538 120.979C67.5612 128.022 70.9325 134.553 75.685 140.023L77.0325 141.584L70.735 148.363L69.0644 146.486Z" fill="white"/>
</g>
<defs>
<clipPath id="clip0_2_20961">
<rect width="220" height="220" fill="white" transform="translate(0.5)"/>
</clipPath>
</defs>
</svg>
