<svg width="221" height="220" viewBox="0 0 221 220" fill="none" xmlns="http://www.w3.org/2000/svg">
<g clip-path="url(#clip0_2_20957)">
<path d="M110.5 220C171.251 220 220.5 170.751 220.5 110C220.5 49.2487 171.251 0 110.5 0C49.7487 0 0.5 49.2487 0.5 110C0.5 170.751 49.7487 220 110.5 220Z" fill="#2FD2E5"/>
<path d="M114.419 27.5489C95.8421 26.9035 77.6083 32.6635 62.7736 43.8633C61.3353 44.9443 60.1554 46.3317 59.3194 47.9249C58.4833 49.5181 58.0121 51.2773 57.9397 53.0751C57.8673 54.8729 58.1956 56.6643 58.9009 58.3196C59.6061 59.9749 60.6707 61.4526 62.0174 62.6458C66.2936 66.6883 72.8799 67.0045 77.5274 63.3951C88.9075 54.5387 103.193 50.2684 117.567 51.4265C131.941 52.5846 145.358 59.0871 155.174 69.6514C159.23 73.8451 159.354 80.452 155.462 84.797C154.484 85.846 153.309 86.692 152.004 87.2867C150.699 87.8814 149.29 88.2131 147.856 88.2629C146.423 88.3127 144.994 88.0796 143.651 87.5769C142.307 87.0742 141.076 86.3118 140.028 85.3333L139.499 84.797C134.604 79.43 128.201 75.6686 121.13 74.0065C114.06 72.3445 106.651 72.8595 99.8786 75.484C93.1057 78.1085 87.2848 82.7198 83.1802 88.7124C79.0755 94.705 76.879 101.799 76.879 109.062C76.879 116.326 79.0755 123.42 83.1802 129.412C87.2848 135.405 93.1057 140.016 99.8786 142.641C106.651 145.265 114.06 145.78 121.13 144.118C128.201 142.456 134.604 138.695 139.499 133.328C141.066 131.573 143.169 130.384 145.481 129.946C147.793 129.507 150.184 129.843 152.286 130.901C153.781 131.651 155.083 132.736 156.089 134.072C157.095 135.409 157.779 136.959 158.086 138.604C158.394 140.248 158.317 141.941 157.862 143.55C157.407 145.16 156.585 146.642 155.462 147.882C145.688 158.582 132.252 165.224 117.815 166.492C103.378 167.76 88.9903 163.562 77.4999 154.73C75.2262 152.997 72.4139 152.123 69.5588 152.262C66.7038 152.4 63.9892 153.542 61.8936 155.486C60.5558 156.712 59.5063 158.219 58.8206 159.899C58.1349 161.579 57.8301 163.39 57.9281 165.202C58.026 167.013 58.5243 168.781 59.3871 170.377C60.25 171.974 61.4558 173.359 62.918 174.433C73.1732 182.039 85.0721 187.128 97.6552 189.29C110.238 191.452 123.154 190.628 135.359 186.882C147.565 183.136 158.72 176.575 167.924 167.727C177.129 158.879 184.125 147.991 188.349 135.943C192.573 123.894 193.907 111.022 192.243 98.363C190.578 85.7044 185.963 73.614 178.768 63.0668C171.573 52.5196 162 43.8107 150.821 37.6424C139.643 31.4741 127.171 28.019 114.412 27.5558L114.419 27.5489ZM112.906 129.216C110.258 129.206 107.638 128.675 105.195 127.653C102.753 126.63 100.535 125.136 98.6699 123.257C96.8045 121.377 95.3275 119.149 94.3234 116.699C93.3192 114.248 92.8074 111.624 92.8174 108.976C92.8273 106.328 93.3587 103.708 94.3812 101.266C95.4038 98.8229 96.8974 96.6056 98.7769 94.7402C100.656 92.8748 102.885 91.3978 105.335 90.3936C107.785 89.3894 110.409 88.8777 113.057 88.8876C118.405 88.9068 123.527 91.0496 127.295 94.8447C131.063 98.6398 133.169 103.776 133.15 109.124C133.13 114.472 130.988 119.593 127.193 123.361C123.397 127.129 118.261 129.236 112.913 129.216H112.906Z" fill="white"/>
</g>
<defs>
<clipPath id="clip0_2_20957">
<rect width="220" height="220" fill="white" transform="translate(0.5)"/>
</clipPath>
</defs>
</svg>
