<svg width="221" height="220" viewBox="0 0 221 220" fill="none" xmlns="http://www.w3.org/2000/svg">
<g clip-path="url(#clip0_2_20953)">
<path d="M110.5 220C171.251 220 220.5 170.751 220.5 110C220.5 49.2487 171.251 0 110.5 0C49.7487 0 0.5 49.2487 0.5 110C0.5 170.751 49.7487 220 110.5 220Z" fill="#C1A05C"/>
<path fill-rule="evenodd" clip-rule="evenodd" d="M112.397 178.75C96.454 178.709 82.1815 173.814 69.4353 164.45C66.0459 161.961 65.9428 160.531 68.8303 157.431L69.0915 157.156C72.6184 153.333 72.5978 153.354 76.7846 156.365C86.4329 163.414 97.9978 167.361 109.943 167.681C122.634 168.121 134.294 165.089 144.833 158.29C157.477 150.136 166.098 138.779 169.707 124.279C174.238 106.074 170.869 89.2169 158.934 74.4012C150.574 64.02 139.712 57.3306 126.587 54.1613C114.872 51.3288 103.363 52.0231 92.054 55.9144C86.0659 57.9769 80.5315 61.0156 75.5334 64.9206C73.0653 66.8456 72.1303 66.8044 70.0334 64.4531C69.0246 63.3573 68.0789 62.2051 67.2009 61.0019C65.9084 59.1731 66.0871 58.0869 67.8334 56.6981C76.1307 50.1167 85.798 45.4792 96.124 43.1269C105.469 40.9118 115.171 40.6543 124.621 42.3706C137.463 44.6944 148.89 49.9744 158.7 58.5269C165.96 64.8656 171.832 72.2769 175.915 80.9394C181.539 92.8744 183.828 105.373 182.144 118.559C180.641 130.591 175.914 141.994 168.463 151.559C160.852 161.473 151.11 168.706 139.464 173.456C130.884 177.004 121.682 178.804 112.397 178.75ZM108.025 134.867C107.564 135.568 107.323 136.091 106.938 136.489C104.615 138.93 101.775 140.394 98.3515 140.504C95.9796 140.573 93.6009 140.374 91.229 140.429C90.3115 140.42 89.4073 140.648 88.6028 141.089C77.644 147.964 65.8465 148.967 53.4165 146.327C49.3259 145.461 45.6615 143.887 42.5403 141.206C40.189 139.191 38.5321 136.812 38.3328 133.471C37.989 127.648 42.2996 123.674 46.7409 122.375C54.9428 119.969 62.7459 121.433 70.2121 125.056C73.6221 126.706 76.8121 128.81 80.0709 130.762C81.9409 131.869 82.4978 131.828 83.4328 129.917C87.6609 121.282 84.9315 111.76 74.6053 108.24C65.544 105.146 56.6821 105.456 47.9578 109.477C46.679 110.069 45.2765 111.196 43.7709 109.986C42.2103 108.721 43.2553 107.216 43.654 105.882C46.5209 96.2294 49.429 86.5975 52.3784 76.9725C53.0246 74.8619 54.709 73.7756 57.1703 73.9062C60.7934 74.1056 64.3959 74.6488 68.019 74.7313C73.4503 74.8688 78.9021 74.9169 84.3265 74.6488C88.3621 74.4425 91.9028 72.6688 95.0171 70.0975C95.3953 69.7881 96.1584 69.4306 96.4059 69.5956C96.7703 69.8363 96.9903 70.51 97.0246 71.0188C97.279 75.185 95.4915 78.3956 92.1778 80.8913C88.259 83.8475 83.7834 85.2225 78.8953 85.3394C73.8284 85.4562 68.7615 85.525 63.7015 85.5456C62.5603 85.5594 61.9553 85.9719 61.6871 87.0444C61.2334 88.8319 60.7521 90.6263 60.2365 92.4069C59.8446 93.7337 60.3465 94.2631 61.6871 94.2081C64.8771 94.0913 68.0671 93.8781 71.2503 93.8988C78.5773 93.856 85.6524 96.5702 91.0709 101.502C96.3853 106.232 98.5371 112.338 98.8603 119.158C99.1146 124.623 98.0696 129.855 95.0653 134.564C94.2471 135.85 94.6184 136.407 96.0003 136.771C99.6715 137.741 103.061 137.081 106.299 135.272C106.574 135.121 106.828 134.949 107.11 134.819C107.207 134.777 107.351 134.826 108.025 134.867ZM76.6196 136.421L76.5096 135.754C76.049 135.472 75.6159 135.121 75.114 134.901C71.4703 133.286 67.8746 131.498 64.1346 130.137C60.319 128.741 56.3521 127.744 52.1996 128.714C50.3296 129.147 48.4596 129.621 47.9165 131.773C47.3115 134.145 48.7621 135.623 50.4534 136.916C50.9828 137.321 51.6359 137.61 52.2684 137.857C58.6896 140.332 65.2071 140.401 71.7521 138.462C73.4296 137.967 75.004 137.108 76.6196 136.421Z" fill="white"/>
</g>
<defs>
<clipPath id="clip0_2_20953">
<rect width="220" height="220" fill="white" transform="translate(0.5)"/>
</clipPath>
</defs>
</svg>
