<svg width="221" height="220" viewBox="0 0 221 220" fill="none" xmlns="http://www.w3.org/2000/svg">
<g clip-path="url(#clip0_2_20949)">
<path d="M110.5 220C171.251 220 220.5 170.751 220.5 110C220.5 49.2487 171.251 0 110.5 0C49.7487 0 0.5 49.2487 0.5 110C0.5 170.751 49.7487 220 110.5 220Z" fill="#383939"/>
<path fill-rule="evenodd" clip-rule="evenodd" d="M134.377 78.9181L152.712 74.7175L159.814 63.0231L152.802 51.5212L143.823 45.32L125.377 41.25L113.999 47.6644L95.7944 44.4194L70.7969 61.7375L68.8513 81.9637L58.2431 86.3913L59.4669 105.153L52.0625 111.052L59.46 132.172L60.5737 134.386L68.3975 156.131L84.4781 161.824L96.3994 173.951L110.108 178.75L116.309 176.962L126.147 175.828L140.571 171.696L162.062 159.562L156.439 137.342L145.618 133.079L140.227 139.246L125.068 142.972L103.02 139.48L95.9044 131.251L98.3794 123.2L87.9569 106.707L96.7225 96.0094L97.6575 77.825L110.211 70.62L118.819 67.1825L130.506 69.2931L134.377 78.9181Z" fill="white"/>
</g>
<defs>
<clipPath id="clip0_2_20949">
<rect width="220" height="220" fill="white" transform="translate(0.5)"/>
</clipPath>
</defs>
</svg>
