<svg width="221" height="220" viewBox="0 0 221 220" fill="none" xmlns="http://www.w3.org/2000/svg">
<g clip-path="url(#clip0_2_20943)">
<path d="M110.5 220C171.251 220 220.5 170.751 220.5 110C220.5 49.2487 171.251 0 110.5 0C49.7487 0 0.5 49.2487 0.5 110C0.5 170.751 49.7487 220 110.5 220Z" fill="#4C6BAE"/>
<path opacity="0.5" fill-rule="evenodd" clip-rule="evenodd" d="M44.3831 116.944L34.875 117.927C39.9625 103.696 50.0206 92.3105 65.0631 83.7718C66.4862 95.5693 72.0756 105.325 81.8381 113.052L72.9006 113.981C73.7714 122.187 77.3014 129.883 82.9526 135.897C88.6038 141.91 96.0662 145.911 104.202 147.29C98.2111 151.797 91.1185 154.611 83.6669 155.437C88.3488 163.687 93.89 170.445 100.284 175.697C85.7915 173.439 72.4524 166.452 62.3424 155.826C52.2323 145.2 45.9184 131.53 44.3831 116.944ZM176.617 103.056L186.125 102.073C181.038 116.304 170.979 127.689 155.937 136.228C154.514 124.431 148.924 114.675 139.162 106.947L148.099 106.019C147.22 97.7264 143.624 89.9565 137.873 83.9178C132.121 77.8791 124.536 73.9099 116.296 72.6274C122.267 68.1672 129.321 65.3831 136.728 64.563C132.005 56.2511 126.423 49.4655 119.967 44.1924C134.612 46.3044 148.135 53.2398 158.395 63.9011C168.655 74.5624 175.068 88.3409 176.617 103.056Z" fill="white"/>
<path fill-rule="evenodd" clip-rule="evenodd" d="M116.839 176.179L117.822 185.625C103.591 180.538 92.2055 170.479 83.6668 155.437C95.4574 154.014 105.213 148.424 112.941 138.662L113.876 147.668C122.287 146.912 130.203 143.363 136.364 137.587C142.525 131.812 146.576 124.14 147.872 115.796C152.333 121.767 155.117 128.821 155.937 136.228C164.249 131.505 171.034 125.923 176.307 119.467C174.181 134.215 167.163 147.822 156.379 158.106C145.596 168.39 131.671 174.754 116.839 176.179ZM103.556 43.8831L102.573 34.375C116.804 39.4625 128.189 49.5206 136.728 64.5631C124.931 65.9862 115.175 71.5756 107.447 81.3381L106.519 72.4006C98.2264 73.2804 90.4565 76.8755 84.4178 82.627C78.3791 88.3786 74.4099 95.9641 73.1274 104.204C68.6672 98.2335 65.8831 91.1795 65.063 83.7719C56.7511 88.495 49.9655 94.0775 44.6924 100.533C46.8044 85.888 53.7398 72.3654 64.4011 62.105C75.0624 51.8446 88.8409 45.4325 103.556 43.8831Z" fill="white"/>
</g>
<defs>
<clipPath id="clip0_2_20943">
<rect width="220" height="220" fill="white" transform="translate(0.5)"/>
</clipPath>
</defs>
</svg>
