<svg width="221" height="220" viewBox="0 0 221 220" fill="none" xmlns="http://www.w3.org/2000/svg">
<g clip-path="url(#clip0_2_20939)">
<path d="M110.5 220C171.251 220 220.5 170.751 220.5 110C220.5 49.2487 171.251 0 110.5 0C49.7487 0 0.5 49.2487 0.5 110C0.5 170.751 49.7487 220 110.5 220Z" fill="#FF4314"/>
<path fill-rule="evenodd" clip-rule="evenodd" d="M63.5506 55H158.536V68.2344H63.5438L63.5506 55ZM52.9631 93.7819H170.34V107.154H134.384V151.889C134.384 155.327 135.876 157.046 138.99 157.046H153.923C155.552 157.046 156.906 155.994 157.717 154.007C158.673 151.889 159.347 145.399 159.622 134.681L172.375 138.655C171.426 153.608 169.659 162.477 167.219 165.261C164.778 167.901 161.251 169.359 156.494 169.359H134.927C125.288 169.359 120.544 164.464 120.544 154.798V107.154H100.456V109.801C99.7819 126.61 95.9869 140.106 89.0638 150.171C82.2781 159.431 71.4225 166.712 56.2219 171.875L48.625 160.229C63.2825 155.196 73.0519 148.844 78.2081 141.433C83.3644 133.224 86.0731 122.767 86.6162 109.801V107.154H52.97L52.9631 93.7819Z" fill="white"/>
</g>
<defs>
<clipPath id="clip0_2_20939">
<rect width="220" height="220" fill="white" transform="translate(0.5)"/>
</clipPath>
</defs>
</svg>
