<svg width="221" height="220" viewBox="0 0 221 220" fill="none" xmlns="http://www.w3.org/2000/svg">
<g clip-path="url(#clip0_2_20935)">
<path d="M110.5 220C171.251 220 220.5 170.751 220.5 110C220.5 49.2487 171.251 0 110.5 0C49.7487 0 0.5 49.2487 0.5 110C0.5 170.751 49.7487 220 110.5 220Z" fill="#13BF99"/>
<path d="M110.5 171.875H79.315L94.935 144.671H126.065L141.685 171.875H110.5ZM94.9419 75.3225H94.935L79.315 48.125H141.685L126.065 75.3225H94.935H94.9419ZM163.685 140.903H163.671H163.685L148.058 168.114L132.493 140.91H132.5L148.058 113.699H179.25L163.685 140.903ZM57.315 79.035L72.935 51.8306L88.5 79.035L72.935 106.232H41.75L57.315 79.035ZM88.4931 140.91H88.5L72.935 168.114L57.315 140.91L41.75 113.692H72.935L88.5 140.896L88.4931 140.91ZM163.685 79.035L179.25 106.239H148.065L132.493 79.035L148.058 51.8306L163.685 79.035Z" fill="white"/>
</g>
<defs>
<clipPath id="clip0_2_20935">
<rect width="220" height="220" fill="white" transform="translate(0.5)"/>
</clipPath>
</defs>
</svg>
