<svg width="221" height="220" viewBox="0 0 221 220" fill="none" xmlns="http://www.w3.org/2000/svg">
<g clip-path="url(#clip0_2_20931)">
<path d="M110.5 220C171.251 220 220.5 170.751 220.5 110C220.5 49.2487 171.251 0 110.5 0C49.7487 0 0.5 49.2487 0.5 110C0.5 170.751 49.7487 220 110.5 220Z" fill="#77C3B0"/>
<path d="M177.036 91.3202L165.431 79.7152C163.687 77.9627 161.613 76.574 159.328 75.6299C157.043 74.6857 154.593 74.2048 152.121 74.2152H150.333V72.359C150.333 69.1071 149.563 66.0133 147.941 63.229C147.106 61.6142 146.007 60.1503 144.689 58.8977L133.084 47.2858C131.34 45.5325 129.264 44.1433 126.978 43.1991C124.692 42.255 122.241 41.7745 119.767 41.7858H66.2935C61.261 41.7858 56.5447 43.7246 52.9835 47.2858L41.3785 58.8908C39.621 60.6152 38.2284 62.6755 37.2835 64.9491C36.3386 67.2227 35.8608 69.6631 35.8785 72.1252L35.5691 122.278C35.5003 127.304 37.5078 132.178 41.0691 135.74L52.6741 147.351C54.4182 149.103 56.493 150.491 58.7779 151.434C61.0628 152.377 63.5123 152.856 65.9841 152.845H68.0741V154.701C68.0741 157.953 68.851 161.046 70.4735 163.831C71.326 165.46 72.4053 166.925 73.7253 168.162L85.3303 179.781C87.0762 181.53 89.1514 182.915 91.436 183.857C93.7206 184.798 96.1693 185.278 98.6403 185.267H152.197C157.229 185.267 161.945 183.335 165.507 179.774L177.118 168.169C178.868 166.423 180.255 164.348 181.197 162.064C182.14 159.779 182.621 157.33 182.612 154.859V104.555C182.598 102.091 182.1 99.654 181.144 97.3832C180.189 95.1123 178.795 93.0521 177.043 91.3202H177.036ZM65.9841 135.815C65.4929 135.816 65.0213 135.623 64.671 135.279L58.8685 129.47L53.0591 123.667C52.8099 123.374 52.6248 123.032 52.516 122.663V72.2077C52.516 71.6577 52.7497 71.1971 53.066 70.8877L64.671 59.2827C64.8222 59.1246 64.9803 59.049 65.1316 58.9733C65.4184 58.8237 65.7363 58.7437 66.0597 58.7396H119.616C119.925 58.7396 120.159 58.8152 120.468 58.9733C120.702 59.049 120.853 59.2071 121.012 59.3583L132.617 70.9702C132.786 71.1154 132.918 71.2994 133.002 71.5065C133.084 71.589 133.084 71.6646 133.084 71.7402C133.084 71.8158 133.153 71.8983 133.153 71.974C133.153 72.0496 133.235 72.2833 133.235 72.4346V74.9096C133.235 75.9958 132.383 76.7658 131.379 76.7658H122.098C121.604 76.7683 121.13 76.5755 120.778 76.2296L115.512 70.9702H70.1641L68.2322 72.8952L65.5991 75.5352V119.102L70.1641 123.667H115.436L120.702 118.332L120.771 118.25C120.929 118.174 121.087 118.016 121.238 117.94C121.472 117.789 121.788 117.789 122.015 117.789H131.297C131.915 117.789 132.465 118.098 132.85 118.559C133.091 118.871 133.226 119.251 133.235 119.645V122.278C133.234 122.77 133.039 123.242 132.692 123.591L126.89 129.394L121.087 135.196C121.012 135.279 120.853 135.355 120.778 135.43C120.778 135.43 120.702 135.506 120.62 135.506C120.544 135.588 120.468 135.588 120.386 135.588C120.317 135.588 120.317 135.588 120.235 135.664C120.159 135.664 120.077 135.74 120.001 135.74H65.9841V135.815ZM165.665 154.701C165.662 155.194 165.464 155.666 165.115 156.014L153.51 167.626C153.375 167.754 153.219 167.859 153.049 167.935C152.762 168.085 152.444 168.165 152.121 168.169H98.5647C98.2653 168.165 97.972 168.084 97.7122 167.935C97.5051 167.852 97.3212 167.72 97.176 167.55L85.5641 155.938C85.4128 155.787 85.2547 155.629 85.1791 155.395C85.0966 155.326 85.0966 155.244 85.0966 155.168C85.0966 155.086 85.0278 155.01 85.0278 154.935C85.0278 154.859 84.9453 154.625 84.9453 154.467V151.992C84.9453 150.913 85.7978 150.136 86.8016 150.136H96.0828C96.6328 150.136 97.0935 150.37 97.4028 150.679L102.669 155.938H147.941L149.873 154.006L152.506 151.373V107.806L147.941 103.235H102.745L97.4853 108.576L97.4028 108.652C97.2516 108.735 97.0935 108.886 96.9422 108.961C96.7085 109.12 96.3991 109.12 96.1653 109.12H86.8841C86.5836 109.114 86.2883 109.041 86.0195 108.907C85.7507 108.772 85.5153 108.58 85.3303 108.343C85.091 108.033 84.9562 107.655 84.9453 107.263V104.63C84.9452 104.386 84.9931 104.145 85.0863 103.92C85.1795 103.694 85.3161 103.49 85.4885 103.317L91.291 97.5146L97.0935 91.7052C97.176 91.6296 97.3272 91.554 97.4028 91.4715C97.4028 91.4715 97.4853 91.4027 97.561 91.4027C97.6366 91.3202 97.7122 91.3202 97.7947 91.3202C97.8635 91.3202 97.8635 91.3202 97.946 91.2446C98.0216 91.2446 98.1041 91.1621 98.1797 91.1621H152.121C152.657 91.1621 153.125 91.3958 153.434 91.7121L159.237 97.5146L165.046 103.317C165.115 103.393 165.197 103.468 165.273 103.626C165.41 103.841 165.514 104.075 165.582 104.321V104.706C165.665 104.555 165.665 154.701 165.665 154.701Z" fill="white"/>
</g>
<defs>
<clipPath id="clip0_2_20931">
<rect width="220" height="220" fill="white" transform="translate(0.5)"/>
</clipPath>
</defs>
</svg>
