<svg width="221" height="220" viewBox="0 0 221 220" fill="none" xmlns="http://www.w3.org/2000/svg">
<g clip-path="url(#clip0_2_20927)">
<path d="M110.5 220C171.251 220 220.5 170.751 220.5 110C220.5 49.2487 171.251 0 110.5 0C49.7487 0 0.5 49.2487 0.5 110C0.5 170.751 49.7487 220 110.5 220Z" fill="#00D395"/>
<path fill-rule="evenodd" clip-rule="evenodd" d="M59.4187 148.411C57.7099 147.401 56.2922 145.964 55.3041 144.242C54.3161 142.521 53.7914 140.572 53.7812 138.587V116.222C53.7812 113.562 55.995 111.41 58.7037 111.424C59.57 111.424 60.4225 111.65 61.1788 112.077L112.762 141.508C115.78 143.227 117.643 146.39 117.643 149.807V172.975C117.639 173.741 117.483 174.499 117.185 175.204C116.886 175.909 116.451 176.549 115.905 177.085C115.359 177.622 114.712 178.046 114.001 178.331C113.291 178.617 112.531 178.759 111.765 178.75C110.677 178.751 109.608 178.459 108.671 177.905L59.4187 148.411ZM136.309 105.951C139.334 107.67 141.176 110.839 141.19 114.249V161.274C141.19 162.663 140.434 163.949 139.189 164.622L127.901 170.837C127.755 170.918 127.601 170.98 127.44 171.023V144.912C127.44 141.529 125.632 138.394 122.655 136.662L77.3625 110.138V80.6647C77.3625 78.0041 79.5763 75.8522 82.2919 75.866C83.1571 75.8673 84.0073 76.0923 84.76 76.5191L136.323 105.951H136.309ZM158.893 71.2185C161.918 72.9372 163.781 76.0997 163.781 79.5304V148.212C163.773 148.909 163.576 149.592 163.212 150.187C162.847 150.783 162.329 151.269 161.712 151.594L151.007 157.252V109.43C151.007 106.054 149.192 102.926 146.243 101.187L99.9331 74.0098V46.0629C99.9331 45.2104 100.174 44.3785 100.593 43.6429C101.267 42.5371 102.345 41.7373 103.599 41.4126C104.853 41.0879 106.184 41.264 107.31 41.9035L158.893 71.2254V71.2185Z" fill="white"/>
</g>
<defs>
<clipPath id="clip0_2_20927">
<rect width="220" height="220" fill="white" transform="translate(0.5)"/>
</clipPath>
</defs>
</svg>
