<svg width="221" height="220" viewBox="0 0 221 220" fill="none" xmlns="http://www.w3.org/2000/svg">
<g clip-path="url(#clip0_2_20923)">
<path d="M110.5 220C171.251 220 220.5 170.751 220.5 110C220.5 49.2487 171.251 0 110.5 0C49.7487 0 0.5 49.2487 0.5 110C0.5 170.751 49.7487 220 110.5 220Z" fill="#71C800"/>
<path fill-rule="evenodd" clip-rule="evenodd" d="M178.012 101.165C172.602 101.419 167.171 101.736 161.76 101.543C156.906 101.364 152.073 100.56 147.233 99.9963C146.733 99.9116 146.265 99.693 145.879 99.3638C137.869 92.7982 129.997 86.0813 123.095 78.3057C120.579 75.4664 118.544 72.4001 117.402 68.6739C115.869 63.6482 109.427 61.7163 104.656 64.6245C99.6512 67.677 98.7918 74.7788 103.006 78.8488C103.752 79.5906 104.675 80.13 105.687 80.4163C109.331 81.2963 112.15 83.4688 114.811 85.9301C119.582 90.337 123.858 95.2113 128.011 100.203C129.2 101.626 128.595 103.276 126.773 103.482C123.954 103.812 121.115 104.108 118.276 104.224C112.927 104.444 107.571 104.658 102.216 104.603C99.2249 104.568 96.2206 104.108 93.2574 103.613C91.8603 103.34 90.5251 102.813 89.3181 102.059C85.3374 99.6732 81.2124 101.303 78.9162 103.654C77.5288 105.075 76.6432 106.91 76.3938 108.881C76.1444 110.851 76.5448 112.849 77.5343 114.571C79.4456 117.844 83.2131 119.755 86.5956 119.04C87.5718 118.834 88.5343 118.401 89.4006 117.899C91.6693 116.606 94.1306 116.001 96.6743 115.843C100.758 115.596 104.869 115.362 108.96 115.458C114.164 115.582 119.369 116.043 124.573 116.366C125.281 116.414 125.996 116.448 126.697 116.558C128.65 116.874 129.214 118.435 127.921 119.968C126.367 121.811 124.869 123.715 123.191 125.434C119.662 129.05 116.075 132.61 112.432 136.111C110.778 137.692 108.728 138.799 106.499 139.314C101.989 140.394 99.7612 144.746 100.394 149.146C101.026 153.518 104.931 156.804 109.352 156.811C113.449 156.811 116.598 154.625 117.691 150.706C118.812 146.678 121.397 143.639 124.092 140.676C130.74 133.381 138.213 126.967 145.837 120.738C146.283 120.376 146.817 120.139 147.384 120.051C151.241 119.549 155.098 118.923 158.969 118.683C163.333 118.4 167.709 118.34 172.079 118.504C176.637 118.689 181.175 119.288 185.85 119.721C185.767 121.302 185.747 122.649 185.623 123.983C184.784 132.646 182.577 140.944 178.501 148.651C168.436 167.66 152.912 179.561 131.909 184.201C127.201 185.196 122.399 185.668 117.588 185.611C112.466 185.604 107.344 185.652 102.222 185.597C88.0256 185.446 75.0387 181.403 63.4818 173.126C49.5737 163.157 40.5881 149.771 36.7243 133.072C35.8561 129.343 35.3405 125.54 35.1843 121.714C34.8597 114.487 34.7955 107.249 34.9918 100.017C35.411 85.5164 40.485 71.5356 49.4636 60.1415C58.4422 48.7474 70.8488 40.5448 84.8493 36.7463C90.4446 35.2209 96.2167 34.4396 102.016 34.4226C107.956 34.402 113.889 34.3126 119.822 34.4501C134.026 34.7801 146.931 39.1113 158.343 47.5951C171.99 57.7357 180.673 71.1901 184.331 87.807C185.217 91.7945 185.527 95.9057 186.125 100.161C183.169 100.539 180.604 101.041 178.012 101.165Z" fill="white"/>
</g>
<defs>
<clipPath id="clip0_2_20923">
<rect width="220" height="220" fill="white" transform="translate(0.5)"/>
</clipPath>
</defs>
</svg>
