<svg width="221" height="220" viewBox="0 0 221 220" fill="none" xmlns="http://www.w3.org/2000/svg">
<g clip-path="url(#clip0_2_20919)">
<path d="M110.5 220C171.251 220 220.5 170.751 220.5 110C220.5 49.2487 171.251 0 110.5 0C49.7487 0 0.5 49.2487 0.5 110C0.5 170.751 49.7487 220 110.5 220Z" fill="#37E8A3"/>
<path d="M83.935 109.766L107.874 133.781L170.643 70.5925L179.25 79.3238L107.874 151.25L75.3206 118.504L83.935 109.766ZM98.4413 107.635L137.065 68.75L145.679 77.4813L107.062 116.394L98.4413 107.635ZM82.7938 140.841L74.2963 149.408L41.75 116.669L50.3506 107.938L82.7938 140.841Z" fill="white"/>
</g>
<defs>
<clipPath id="clip0_2_20919">
<rect width="220" height="220" fill="white" transform="translate(0.5)"/>
</clipPath>
</defs>
</svg>
