<svg width="221" height="220" viewBox="0 0 221 220" fill="none" xmlns="http://www.w3.org/2000/svg">
<g clip-path="url(#clip0_2_20915)">
<path d="M110.5 220C171.251 220 220.5 170.751 220.5 110C220.5 49.2487 171.251 0 110.5 0C49.7487 0 0.5 49.2487 0.5 110C0.5 170.751 49.7487 220 110.5 220Z" fill="#00BDCD"/>
<path d="M150.602 66.99C140.897 58.7446 128.563 54.2408 115.828 54.2919C86.9875 54.2919 63.2344 77.0963 61.2544 106.246H55.6031C57.5831 73.6313 83.88 48.5169 115.828 48.5169C129.97 48.5169 143.534 53.7144 154.562 62.9544L150.602 66.99ZM148.622 86.0406C144.91 80.7929 139.996 76.5091 134.291 73.5467C128.587 70.5843 122.256 69.0293 115.828 69.0112C93.4912 69.0112 75.3963 87.4844 75.3963 110C75.3963 132.798 93.4913 151.277 115.821 151.277C128.787 151.277 140.977 144.952 148.622 134.241L152.589 138.284C143.816 150.116 130.245 157.052 115.828 157.052C90.3769 157.052 69.7381 135.974 69.7381 110C69.7381 84.315 90.3769 63.2362 115.828 63.2362C122.998 63.2657 130.06 64.9797 136.445 68.2398C142.831 71.5 148.36 76.2151 152.589 82.005L148.622 86.0406ZM155.126 71.3212L159.093 67.2788C160.502 68.7225 161.636 70.1663 162.764 71.61L158.804 75.6456C157.66 74.1341 156.432 72.6881 155.126 71.3144V71.3212ZM115.546 171.765C83.5981 171.765 57.3012 146.657 55.3212 114.042H60.9725C62.9525 143.192 86.7056 165.997 115.546 165.997C128.265 165.997 140.434 161.666 150.32 153.299L154.28 157.334C143.499 166.604 129.764 171.723 115.546 171.772V171.765ZM155.126 148.967C156.542 147.524 157.669 146.08 158.804 144.636L162.764 148.672C161.629 150.116 160.502 151.559 159.093 153.003L155.126 148.967ZM47.4081 110C47.4081 148.39 78.2219 179.85 115.828 179.85C136.185 179.85 155.407 170.906 168.422 154.454L172.375 158.489C158.24 175.814 137.883 185.625 115.828 185.625C74.8325 185.625 41.75 151.559 41.75 110C41.75 68.145 75.1144 34.375 115.828 34.375C137.587 34.375 158.247 44.1856 172.375 61.5106L168.415 65.5531C155.408 49.39 136.185 40.15 115.821 40.15C78.215 40.15 47.4081 71.61 47.4081 110Z" fill="white"/>
</g>
<defs>
<clipPath id="clip0_2_20915">
<rect width="220" height="220" fill="white" transform="translate(0.5)"/>
</clipPath>
</defs>
</svg>
