<svg width="221" height="220" viewBox="0 0 221 220" fill="none" xmlns="http://www.w3.org/2000/svg">
<g clip-path="url(#clip0_2_20911)">
<path d="M110.5 220C171.251 220 220.5 170.751 220.5 110C220.5 49.2487 171.251 0 110.5 0C49.7487 0 0.5 49.2487 0.5 110C0.5 170.751 49.7487 220 110.5 220Z" fill="#0F1529"/>
<path fill-rule="evenodd" clip-rule="evenodd" d="M171.227 105.504C169.845 105.813 168.896 105.992 167.968 106.239C162.159 107.759 156.308 108.962 150.258 108.735C142.173 108.426 135.229 105.174 129.104 99.935C126.629 97.8106 124.332 95.4662 121.967 93.2112C120.819 92.125 120.544 90.8875 121.417 89.4712L123.652 85.8481L126.67 89.1619C131.022 93.9881 135.676 98.3812 141.816 100.726C147.845 103.022 153.984 102.685 160.151 101.647C168.869 100.189 176.919 96.7037 184.812 92.7919C185.073 92.6612 185.362 92.5787 186.125 92.2762C185.602 93.2594 185.314 93.8437 184.984 94.3937C173.461 113.767 161.939 133.141 150.403 152.508C148.986 154.887 148.457 155.066 145.996 153.862C129.729 145.874 112.693 144.354 95.1069 147.379C92.3569 147.854 91.8688 147.62 90.5556 144.801C89.1188 141.721 89.1325 141.804 92.3844 141.178C101.445 139.408 110.723 139.03 119.898 140.057C128.485 141.02 137.044 142.285 144.923 146.327C146.051 146.912 146.649 146.424 147.213 145.489C152.211 137.143 157.209 128.796 162.234 120.464C164.923 116.002 167.666 111.574 170.368 107.126C170.601 106.741 170.787 106.336 171.227 105.504ZM49.8556 106.336C51.0106 108.281 52.1656 110.227 53.3344 112.166L76.4619 150.528C77.5619 152.357 77.5619 152.412 75.6575 153.285C71.5531 155.176 72.0619 155.664 69.5525 151.463C60.6837 136.579 51.8288 121.681 42.9738 106.789L35.7962 94.7237C35.4525 94.1531 35.1775 93.5344 34.875 92.9362L35.1431 92.5787C36.1538 93.0256 37.1713 93.445 38.1681 93.9125C44.2388 96.7519 50.3781 99.3919 56.8819 101.001C65.2281 103.077 73.4712 103.317 81.4256 99.3506C86.3756 96.8825 90.4525 93.2456 94.1237 89.1C100.002 82.445 104.773 74.9788 109.097 67.1963L110.149 65.3125C110.72 66.165 111.084 66.8113 111.545 67.375C114.082 70.4825 113.484 73.2462 111.346 76.4637C106.574 83.6412 101.769 90.75 95.4162 96.58C89.7375 101.791 83.3712 105.724 75.8912 107.518C70.02 108.927 64.1213 108.646 58.2294 107.552C55.5344 107.051 52.8531 106.487 50.165 105.951L49.8556 106.336Z" fill="white"/>
</g>
<defs>
<clipPath id="clip0_2_20911">
<rect width="220" height="220" fill="white" transform="translate(0.5)"/>
</clipPath>
</defs>
</svg>
