<svg width="221" height="220" viewBox="0 0 221 220" fill="none" xmlns="http://www.w3.org/2000/svg">
<g clip-path="url(#clip0_2_20907)">
<path d="M110.5 220C171.251 220 220.5 170.751 220.5 110C220.5 49.2487 171.251 0 110.5 0C49.7487 0 0.5 49.2487 0.5 110C0.5 170.751 49.7487 220 110.5 220Z" fill="#262626"/>
<path fill-rule="evenodd" clip-rule="evenodd" d="M116.901 66.1719C133.765 67.4162 141.946 77.4813 141.946 79.3031C141.946 80.5887 141.637 83.3937 141.637 85.1125C141.637 86.2606 142.049 88.0963 142.874 90.6125C142.668 92.3313 141.534 93.1975 139.464 93.1975C136.371 93.1975 137.237 89.7256 132.644 82.8506C127.694 75.4462 122.689 73.8925 116.873 73.5694C116.99 89.3544 117.423 132.804 117.458 147.751C132.961 145.496 141.568 133.918 143.803 133.918C145.04 133.918 146.594 134.881 146.594 137.149C146.594 141.927 134.343 152.735 117.224 154.873C115.945 168.823 109.345 185.625 92.9688 185.625C85.2207 185.625 78.71 179.644 78.71 172.7C78.71 168.176 82.12 166.238 85.2207 166.238C88.3144 166.238 91.415 168.499 91.415 172.7C91.415 175.498 90.4869 177.444 88.6307 178.516C90.4869 179.809 92.3432 180.455 94.2063 180.455C100.408 180.455 105.069 169.235 105.866 154.811C87.7988 151.91 70.9619 134.695 70.9619 109.677C70.9619 81.5375 88.4932 69.3687 105.688 66.6531C106.031 54.0031 112.638 34.6844 129.544 34.375C139.767 34.375 144.105 42.7763 144.105 47.3C144.105 51.8238 140.853 53.7625 137.601 53.7625C134.343 53.7625 131.091 51.1775 131.091 47.3C131.091 44.715 132.122 42.8862 134.184 41.8069C132.741 40.5144 130.884 39.8681 128.616 39.8681C120.015 39.8681 117.313 58.0044 116.894 66.1719H116.901ZM105.99 147.214C105.963 130.481 105.749 91.9188 105.694 74.2019C89.8269 78.1 84.6088 96.9788 84.6088 109.677C84.6088 129.807 94.1238 143.632 105.99 147.214Z" fill="white"/>
</g>
<defs>
<clipPath id="clip0_2_20907">
<rect width="220" height="220" fill="white" transform="translate(0.5)"/>
</clipPath>
</defs>
</svg>
