<svg width="221" height="220" viewBox="0 0 221 220" fill="none" xmlns="http://www.w3.org/2000/svg">
<g clip-path="url(#clip0_2_20903)">
<path d="M110.5 220C171.251 220 220.5 170.751 220.5 110C220.5 49.2487 171.251 0 110.5 0C49.7487 0 0.5 49.2487 0.5 110C0.5 170.751 49.7487 220 110.5 220Z" fill="#FDDE6C"/>
<path fill-rule="evenodd" clip-rule="evenodd" d="M110.5 185.625C68.7344 185.625 34.875 151.766 34.875 110C34.875 68.2344 68.7344 34.375 110.5 34.375C152.266 34.375 186.125 68.2344 186.125 110C186.125 151.766 152.266 185.625 110.5 185.625ZM110.5 174.996C127.738 174.996 144.27 168.148 156.459 155.959C168.648 143.77 175.496 127.238 175.496 110C175.496 92.7619 168.648 76.2299 156.459 64.0407C144.27 51.8516 127.738 45.0037 110.5 45.0037C93.2619 45.0037 76.7299 51.8516 64.5407 64.0407C52.3516 76.2299 45.5037 92.7619 45.5037 110C45.5037 127.238 52.3516 143.77 64.5407 155.959C76.7299 168.148 93.2619 174.996 110.5 174.996ZM110.995 154.969C86.2656 154.969 66.3488 136.063 66.3488 110.247V110C66.3488 84.7962 85.7706 65.0375 111.985 65.0375C129.667 65.0375 141.046 72.4488 148.718 83.0706L130.657 97.0269C125.707 90.8531 120.022 86.9 111.738 86.9C99.6169 86.9 91.085 97.1506 91.085 109.752V110C91.085 122.973 99.6169 133.1 111.738 133.1C120.764 133.1 126.086 128.906 131.276 122.602L149.337 135.451C141.169 146.692 130.163 154.969 110.995 154.969Z" fill="white"/>
</g>
<defs>
<clipPath id="clip0_2_20903">
<rect width="220" height="220" fill="white" transform="translate(0.5)"/>
</clipPath>
</defs>
</svg>
