<svg width="221" height="220" viewBox="0 0 221 220" fill="none" xmlns="http://www.w3.org/2000/svg">
<g clip-path="url(#clip0_2_20896)">
<path d="M110.5 220C171.251 220 220.5 170.751 220.5 110C220.5 49.2487 171.251 0 110.5 0C49.7487 0 0.5 49.2487 0.5 110C0.5 170.751 49.7487 220 110.5 220Z" fill="black"/>
<path d="M109.792 30.2368C108.788 27.968 112.418 26.3593 113.422 28.518C137.017 69.163 160.612 109.829 184.207 150.536C182.949 150.536 181.739 150.123 180.529 149.931L117.554 137.377C115.491 137.274 115.038 133.939 117.052 133.444L141.761 126.638C142.055 126.563 142.329 126.425 142.564 126.232C142.799 126.039 142.988 125.796 143.118 125.522C143.248 125.247 143.316 124.947 143.316 124.643C143.317 124.34 143.251 124.039 143.122 123.764L109.792 30.1818V30.2299V30.2368Z" fill="white"/>
<path d="M106.169 30.4424C106.396 30.7724 106.595 31.1299 106.767 31.5011C114.233 52.6761 121.892 73.8511 129.303 95.0261C129.963 96.7861 127.488 98.2505 126.278 96.9374C119.926 90.2824 113.876 83.428 107.626 76.773C106.616 75.8655 105.151 76.4705 104.498 77.4261L39.5638 153.711C38.8075 154.516 38.1544 155.726 36.8894 155.877C35.9819 155.877 35.3769 155.169 34.875 154.467V153.299C58.6694 112.365 82.4363 71.4174 106.169 30.4424Z" fill="white"/>
<path d="M86.2998 103.091C87.5098 102.74 89.1186 103.593 88.7198 105.057C86.1967 113.83 83.5292 122.554 80.9029 131.272C80.5042 132.385 81.5079 133.389 82.5667 133.444C116.55 140.25 150.533 147.304 184.509 154.11C185.169 154.214 185.623 154.715 186.125 155.121V156.53L185.162 157.541H40.9248C56.0498 139.391 71.1267 121.138 86.2998 103.091Z" fill="white"/>
</g>
<defs>
<clipPath id="clip0_2_20896">
<rect width="220" height="220" fill="white" transform="translate(0.5)"/>
</clipPath>
</defs>
</svg>
