<svg width="221" height="220" viewBox="0 0 221 220" fill="none" xmlns="http://www.w3.org/2000/svg">
<g clip-path="url(#clip0_2_20892)">
<path d="M110.5 220C171.251 220 220.5 170.751 220.5 110C220.5 49.2487 171.251 0 110.5 0C49.7487 0 0.5 49.2487 0.5 110C0.5 170.751 49.7487 220 110.5 220Z" fill="#3AB03E"/>
<path d="M118.482 115.356C121.215 114.046 123.522 111.992 125.14 109.43C126.758 106.867 127.619 103.9 127.626 100.87C127.626 91.9738 120.324 84.7619 111.332 84.7619C102.326 84.7619 95.0175 91.9738 95.0175 100.87C95.025 103.901 95.8885 106.868 97.5087 109.43C99.1288 111.991 101.44 114.043 104.175 115.349V135.245H118.482V115.356ZM111.332 161.562C82.5531 161.562 59.1506 138.435 59.1506 110C59.1506 81.565 82.5531 58.4375 111.332 58.4375C134.81 58.4375 154.713 73.8375 161.244 94.9575H179.229C172.286 64.2263 144.524 41.25 111.325 41.25C72.9006 41.25 41.75 72.0294 41.75 110C41.75 147.971 72.9006 178.75 111.325 178.75C144.524 178.75 172.286 155.774 179.229 125.042H161.237C154.706 146.162 134.803 161.562 111.325 161.562" fill="white"/>
</g>
<defs>
<clipPath id="clip0_2_20892">
<rect width="220" height="220" fill="white" transform="translate(0.5)"/>
</clipPath>
</defs>
</svg>
