<svg width="221" height="220" viewBox="0 0 221 220" fill="none" xmlns="http://www.w3.org/2000/svg">
<g clip-path="url(#clip0_2_20884)">
<path d="M110.5 220C171.251 220 220.5 170.751 220.5 110C220.5 49.2487 171.251 0 110.5 0C49.7487 0 0.5 49.2487 0.5 110C0.5 170.751 49.7487 220 110.5 220Z" fill="#F4B731"/>
<path fill-rule="evenodd" clip-rule="evenodd" d="M64.2794 55H109.324C136.721 55 157.491 69.5475 165.218 90.7088H179.25V103.503H168.174C168.387 105.524 168.498 107.587 168.498 109.677V109.993C168.498 112.344 168.36 114.668 168.085 116.937H179.25V129.724H164.95C157.023 150.597 136.419 165 109.331 165H64.2794V129.724H48.625V116.937H64.2794V103.503H48.625V90.7156H64.2794V55ZM76.8675 129.724V153.526H109.318C129.351 153.526 144.229 143.99 151.152 129.724H76.8675ZM155.009 116.937H76.8675V103.503H155.036C155.318 105.614 155.469 107.779 155.469 109.993V110.303C155.469 112.564 155.311 114.771 155.009 116.93V116.937ZM109.331 66.4469C129.448 66.4469 144.373 76.2369 151.255 90.7019H76.8675V66.4538H109.318L109.331 66.4469Z" fill="white"/>
</g>
<defs>
<clipPath id="clip0_2_20884">
<rect width="220" height="220" fill="white" transform="translate(0.5)"/>
</clipPath>
</defs>
</svg>
