<svg width="221" height="220" viewBox="0 0 221 220" fill="none" xmlns="http://www.w3.org/2000/svg">
<g clip-path="url(#clip0_2_20878)">
<path d="M110.5 220C171.251 220 220.5 170.751 220.5 110C220.5 49.2487 171.251 0 110.5 0C49.7487 0 0.5 49.2487 0.5 110C0.5 170.751 49.7487 220 110.5 220Z" fill="#008CE7"/>
<path d="M131.716 55.0269H81.6935L77.5547 78.175L122.668 78.2437C144.882 78.2437 151.475 86.3081 151.262 99.6937C151.165 106.555 148.175 118.16 146.91 121.9C143.493 131.937 136.453 143.364 110.067 143.329L66.2179 143.302L62.0791 166.477H111.971C129.564 166.477 137.058 164.422 144.971 160.771C162.53 152.672 172.987 135.327 177.187 112.687C183.416 79 175.647 55.0269 131.709 55.0269H131.716Z" fill="white"/>
<path d="M109.173 108.611C110.802 101.839 111.318 99.1235 111.318 99.1235H60.1267C47.0367 99.1235 45.1667 107.649 43.9223 112.805C42.293 119.549 41.7773 122.299 41.7773 122.299H92.9755C106.059 122.299 107.929 113.774 109.173 108.611Z" fill="white"/>
</g>
<defs>
<clipPath id="clip0_2_20878">
<rect width="220" height="220" fill="white" transform="translate(0.5)"/>
</clipPath>
</defs>
</svg>
