<svg width="221" height="220" viewBox="0 0 221 220" fill="none" xmlns="http://www.w3.org/2000/svg">
<g clip-path="url(#clip0_2_20874)">
<path d="M110.5 220C171.251 220 220.5 170.751 220.5 110C220.5 49.2487 171.251 0 110.5 0C49.7487 0 0.5 49.2487 0.5 110C0.5 170.751 49.7487 220 110.5 220Z" fill="#2D9CDB"/>
<path d="M138.371 38.5412C141.066 38.5412 143.239 39.3662 144.882 41.0094C146.525 42.6525 147.343 44.8181 147.343 47.52V127.779C147.343 136.923 145.177 145.262 140.832 152.769C136.691 160.079 130.678 166.153 123.411 170.369C116.137 174.591 107.984 176.701 98.943 176.701C89.9092 176.701 81.6386 174.591 74.1242 170.369C66.8576 166.153 60.8445 160.079 56.703 152.769C52.4817 145.262 50.3711 136.929 50.3711 127.779C50.3711 118.628 52.303 110.351 56.1805 102.96C60.168 95.4525 65.5648 89.5812 72.3711 85.36C79.2942 81.1387 86.9805 79.0212 95.423 79.0212C101.924 78.9736 108.352 80.3885 114.232 83.1613C120.112 85.9341 125.294 89.9939 129.392 95.04V47.52C129.392 44.8181 130.217 42.6525 131.86 41.0094C133.62 39.3602 135.96 38.4731 138.371 38.5412ZM98.943 160.861C104.814 160.861 110.094 159.459 114.783 156.64C119.556 153.75 123.451 149.614 126.051 144.678C128.746 139.624 130.1 133.994 130.1 127.779C130.1 121.564 128.746 115.981 126.044 111.059C123.475 106.145 119.572 102.056 114.783 99.2612C110.094 96.3325 104.814 94.8613 98.943 94.8613C93.0786 94.8613 87.7367 96.3325 82.9242 99.2612C78.1887 102.123 74.3016 106.195 71.663 111.059C68.968 115.981 67.6205 121.557 67.6205 127.779C67.6205 134.001 68.968 139.624 71.663 144.671C74.3319 149.56 78.2119 153.681 82.9311 156.64C87.7436 159.459 93.0786 160.861 98.9498 160.861H98.943Z" fill="white"/>
</g>
<defs>
<clipPath id="clip0_2_20874">
<rect width="220" height="220" fill="white" transform="translate(0.5)"/>
</clipPath>
</defs>
</svg>
