<svg width="221" height="220" viewBox="0 0 221 220" fill="none" xmlns="http://www.w3.org/2000/svg">
<g clip-path="url(#clip0_2_20870)">
<path d="M110.5 220C171.251 220 220.5 170.751 220.5 110C220.5 49.2487 171.251 0 110.5 0C49.7487 0 0.5 49.2487 0.5 110C0.5 170.751 49.7487 220 110.5 220Z" fill="#E9570F"/>
<path d="M166.463 68.1582L177.511 57.1995C180.123 54.6145 179.58 49.8845 176.315 46.6463C173.049 43.4013 168.271 42.872 165.665 45.4638L144.93 66.0201L144.222 66.7282L126.155 84.6376C120.149 80.3069 112.804 78.2417 105.421 78.8079C98.0383 79.3742 91.0942 82.5353 85.819 87.7313C80.5872 92.9139 77.3934 99.8049 76.8204 107.147C76.2473 114.489 78.3334 121.792 82.6978 127.723L68.9065 141.404C65.3293 136.637 62.5671 131.31 60.7321 125.64C56.1052 111.629 57.3496 96.2838 64.8571 83.6339C76.5652 63.9026 97.5134 55.3226 117.368 57.8389C118.368 57.979 119.386 57.9118 120.359 57.6415C121.332 57.3712 122.238 56.9036 123.023 56.2677C123.807 55.6318 124.452 54.8413 124.917 53.9454C125.383 53.0495 125.659 52.0673 125.728 51.0601C125.859 48.7491 125.092 46.4769 123.589 44.7172C122.085 42.9574 119.96 41.8457 117.657 41.6138C97.7128 39.572 77.0946 46.0826 61.8665 61.1801C36.6352 86.1913 35.1571 125.867 57.329 152.879L44.679 165.426C42.1834 167.901 42.8021 172.541 46.0746 175.779C49.3402 179.018 54.0152 179.643 56.5109 177.168L70.1302 163.666H70.1371L79.9821 153.903L80.0028 153.876L95.9665 138.049C101.643 140.362 107.873 140.958 113.885 139.766C119.897 138.573 125.428 135.643 129.792 131.339C134.124 127.053 137.082 121.574 138.288 115.6C139.494 109.626 138.894 103.428 136.563 97.7964L154.672 79.8457C167.948 99.8382 165.315 127.517 147.041 145.626C141.546 151.1 134.94 155.332 127.67 158.034C120.399 160.737 112.634 161.849 104.897 161.294C103.155 161.194 101.443 161.775 100.122 162.914C98.8004 164.053 97.9736 165.661 97.8159 167.399L97.6234 169.599C97.5369 170.561 97.6468 171.531 97.9463 172.45C98.2458 173.368 98.7287 174.216 99.3657 174.943C100.003 175.669 100.781 176.259 101.652 176.675C102.524 177.092 103.471 177.328 104.437 177.368C114.354 177.9 124.272 176.341 133.549 172.793C142.825 169.244 151.251 163.785 158.282 156.77C183.011 132.247 185.871 94.4757 166.463 68.1514V68.1582ZM118.331 119.961C115.527 122.724 111.748 124.273 107.812 124.273C103.876 124.273 100.097 122.724 97.2934 119.961C95.9163 118.597 94.8232 116.973 94.0772 115.183C93.3312 113.394 92.9471 111.474 92.9471 109.535C92.9471 107.597 93.3312 105.677 94.0772 103.888C94.8232 102.098 95.9163 100.474 97.2934 99.1095C100.097 96.3452 103.875 94.7954 107.812 94.7954C111.749 94.7954 115.528 96.3452 118.331 99.1095C119.708 100.474 120.801 102.098 121.547 103.888C122.293 105.677 122.677 107.597 122.677 109.535C122.677 111.474 122.293 113.394 121.547 115.183C120.801 116.973 119.708 118.597 118.331 119.961Z" fill="white"/>
</g>
<defs>
<clipPath id="clip0_2_20870">
<rect width="220" height="220" fill="white" transform="translate(0.5)"/>
</clipPath>
</defs>
</svg>
