<svg width="221" height="220" viewBox="0 0 221 220" fill="none" xmlns="http://www.w3.org/2000/svg">
<g clip-path="url(#clip0_2_20866)">
<path d="M110.5 220C171.251 220 220.5 170.751 220.5 110C220.5 49.2487 171.251 0 110.5 0C49.7487 0 0.5 49.2487 0.5 110C0.5 170.751 49.7487 220 110.5 220Z" fill="#5BC1D4"/>
<path fill-rule="evenodd" clip-rule="evenodd" d="M95.2719 116.379L83.9281 128.232C81.8863 130.363 79.8856 132.515 77.8369 134.632C77.4931 134.99 77.005 135.203 76.5856 135.485C75.6919 135.341 75.0044 134.784 74.8875 133.972C74.6977 132.738 74.5281 131.5 74.3788 130.26C74.1725 128.624 73.6706 128.17 72.0138 127.964C68.5969 127.551 65.1869 127.104 61.77 126.657L53.9737 125.647C52.42 125.44 51.8562 124.327 52.6675 123C54.5375 119.989 56.4212 116.991 58.2981 113.994L69.7794 95.6511C70.2331 94.9086 70.7419 94.3999 71.7181 94.4274C72.3369 94.4411 72.9831 94.2899 73.595 94.1317C74.3237 93.953 74.8944 94.173 75.4031 94.6542C76.3038 95.4999 77.2181 96.3386 78.1119 97.1911L88.4794 107.029C90.7137 109.147 92.9687 111.25 95.2031 113.368C96.3581 114.454 96.3581 115.238 95.2719 116.379ZM171.516 132.322C172.162 132.859 172.863 133.367 173.001 134.282C173.173 135.451 172.705 136.296 171.715 136.935C165.871 140.717 160.028 144.519 154.184 148.307L142.888 155.629C142.532 155.854 142.192 156.105 141.871 156.378C141.586 156.612 141.36 156.909 141.211 157.245C141.061 157.582 140.993 157.949 141.011 158.317C141.066 159.726 141.149 161.136 141.169 162.538C141.19 164.154 140.001 165.164 138.378 164.979C137.794 164.901 137.263 164.598 136.9 164.133C135.541 162.565 134.184 160.995 132.83 159.424C131.132 157.457 129.441 155.477 127.736 153.518C127.384 153.167 127.118 152.741 126.957 152.271C126.797 151.802 126.745 151.302 126.807 150.809L127.041 142.594C127.069 141.631 127.639 141.012 128.409 140.517L137.746 134.55C142.971 131.215 148.209 127.895 153.421 124.526C154.521 123.818 155.545 123.605 156.755 124.224C157.649 124.677 158.659 124.76 159.629 124.457C161.079 123.997 162.193 124.402 163.314 125.392C165.995 127.757 168.779 130.012 171.522 132.322H171.516ZM121.342 139.142C121.766 139.557 122.068 140.08 122.215 140.655C122.469 141.94 121.961 142.814 120.751 143.398C116.729 145.337 112.714 147.296 108.658 149.173C107.929 149.503 107.014 149.544 106.182 149.585C102.821 149.737 99.4587 149.826 96.0969 149.964C94.11 150.039 92.13 150.163 90.3013 150.259H88.9538C88.6489 150.267 88.3457 150.213 88.0622 150.101C87.7787 149.988 87.5208 149.82 87.3038 149.606C86.8775 149.214 86.4375 148.836 86.0181 148.437C83.6531 146.189 81.3294 143.9 78.9163 141.7C77.5688 140.476 77.5481 138.833 78.8338 137.52C81.7281 134.536 84.5881 131.525 87.4619 128.514C90.5625 125.269 93.6631 122.01 96.7569 118.751C96.9916 118.475 97.2804 118.25 97.6055 118.089C97.9306 117.929 98.2851 117.837 98.6471 117.819C99.0091 117.801 99.371 117.857 99.7104 117.985C100.05 118.112 100.36 118.307 100.621 118.559L112.996 130.858C115.773 133.622 118.578 136.358 121.342 139.142ZM138.378 83.8055C137.051 81.7567 138.55 78.9242 140.757 78.5599C146.656 77.5767 152.534 76.4492 158.426 75.4249C159.725 75.198 160.756 75.7961 161.471 76.8686C162.709 78.7249 163.926 80.588 165.149 82.4511C167.734 86.3699 170.326 90.2886 172.884 94.2211C173.227 94.7505 173.399 95.3899 173.654 95.9742L173.503 96.043C173.46 97.0467 173.088 98.0085 172.444 98.7792C168.841 103.619 165.198 108.439 161.602 113.286C161.263 113.716 160.824 114.056 160.323 114.278C159.822 114.501 159.275 114.597 158.728 114.56C158.182 114.523 157.652 114.353 157.186 114.065C156.72 113.777 156.332 113.38 156.054 112.907C150.794 104.176 145.48 95.4724 140.186 86.7617C139.588 85.7717 139.004 84.768 138.378 83.8055ZM128.031 108.088L127 117.266C126.711 119.81 126.402 122.34 126.113 124.884L125.096 133.821C125.027 134.447 125.02 135.086 124.889 135.691C124.821 135.987 124.601 136.365 124.353 136.461C124.106 136.557 123.666 136.42 123.446 136.234C122.469 135.389 121.541 134.495 120.606 133.608C117.237 130.418 113.889 127.221 110.521 124.045C107.592 121.274 104.656 118.524 101.714 115.774C100.737 114.867 100.731 114.578 101.672 113.595L115.134 99.5011L124.326 89.8486L128.836 85.1049C128.966 84.9674 129.076 84.7817 129.234 84.7267C129.558 84.6099 129.956 84.4517 130.238 84.5411C130.472 84.6236 130.582 85.043 130.651 85.1599L129.963 91.2099L129.076 98.9855L128.031 108.088ZM154.198 115.101C154.638 115.809 154.706 116.482 154.225 117.218C153.7 118.043 153.477 119.024 153.592 119.996C153.675 120.862 153.318 121.391 152.582 121.852C146.827 125.502 141.101 129.18 135.367 132.852C133.566 134.007 131.764 135.155 129.956 136.296C129.241 136.75 128.506 136.715 128.114 136.138C127.894 135.822 127.866 135.382 127.804 135.162L128.561 129.607L130.245 117.355L132.101 103.949L133.909 90.8386L134.597 85.9574C134.611 85.8267 134.618 85.6755 134.686 85.5792C134.865 85.3524 135.064 85.0155 135.291 84.9742C135.539 84.933 135.924 85.1255 136.082 85.3386C136.501 85.9024 136.838 86.528 137.209 87.133L150.65 109.243C151.833 111.195 153.001 113.155 154.198 115.094V115.101ZM126.333 81.3855C126.546 81.523 126.959 81.6674 127.179 81.963C127.516 82.4167 127.22 82.843 126.869 83.2074L122.194 88.123L108.568 102.382C105.722 105.372 102.889 108.377 100.043 111.361C99.0119 112.433 98.1869 112.433 97.1144 111.415C93.7938 108.267 90.4731 105.104 87.1456 101.962C83.9144 98.9099 80.6694 95.8642 77.4244 92.8186C76.9912 92.4061 76.6475 91.9592 76.6956 91.3267C76.7644 90.4674 77.2594 89.9792 78.2425 89.8142C80.0369 89.4911 81.8381 89.1749 83.6394 88.8655L100.93 85.8405L121.349 82.2586L126.333 81.3855ZM80.0025 85.7305C83.2062 83.5374 86.41 81.358 89.6206 79.1786L120.627 58.0586C121.658 57.3574 122.311 57.5017 122.827 58.6155C124.965 63.1942 127.089 67.7799 129.221 72.3655C129.496 72.9567 129.757 73.5549 130.039 74.153C130.266 74.6342 130.114 75.0261 129.826 75.4592C129.45 75.9901 129.132 76.5593 128.877 77.1574C128.65 77.728 128.306 78.0374 127.688 78.1474C123.122 78.9586 118.564 79.7974 114.006 80.6086L97.8225 83.5167L80.1538 86.693C79.9063 86.7342 79.6519 86.693 79.3975 86.693L79.2463 86.4111C79.5006 86.1842 79.7275 85.923 80.0025 85.7305ZM47.7588 96.2217C45.7375 96.1805 44.5344 94.2142 45.5038 92.4061C46.3219 90.8799 47.2294 89.4086 48.1094 87.9167C50.6394 83.5924 53.1831 79.2817 55.6994 74.9574C56.11 74.2512 56.7038 73.6693 57.4181 73.273C64.1281 69.4161 70.8244 65.5386 77.5344 61.6749C77.9603 61.4142 78.4277 61.2282 78.9163 61.1249C79.3743 61.0344 79.8487 61.08 80.2812 61.2559C80.7136 61.4318 81.0852 61.7304 81.35 62.1149C81.6429 62.4905 81.8208 62.9429 81.8623 63.4175C81.9038 63.892 81.807 64.3685 81.5837 64.7892C80.5731 66.948 79.5212 69.0861 78.49 71.2311C76.565 75.1636 74.64 79.0892 72.7356 83.0286C72.5553 83.464 72.2743 83.8505 71.9158 84.1564C71.5573 84.4623 71.1315 84.679 70.6731 84.7886C69.8203 84.992 69.0402 85.427 68.4191 86.0458C67.7979 86.6645 67.3598 87.4428 67.1531 88.2949C67.0487 88.7156 66.8356 89.1015 66.5352 89.414C66.2348 89.7265 65.8575 89.9546 65.4412 90.0755C59.9275 92.0142 54.4206 93.9942 48.9137 95.9536C48.5425 96.0911 48.1506 96.1324 47.7656 96.2286L47.7588 96.2217ZM76.3106 83.668C76.3379 83.3811 76.4171 83.1016 76.5444 82.843L83.7494 67.0511C85.2481 63.7649 86.7675 60.4855 88.2456 57.1924C88.5894 56.4361 89.0913 56.058 89.9438 56.0236C92.1919 55.9549 94.44 55.838 96.6881 55.7486L109.957 55.2467C111.511 55.178 113.071 55.0749 114.632 54.9992C115.746 54.9511 116.509 55.6249 116.516 56.718C116.564 57.3849 116.137 57.818 115.588 58.1961L111.339 61.0905L85.9425 78.3674L77.83 83.8949C77.6408 84.0379 77.4382 84.1622 77.225 84.2661C76.7437 84.4724 76.2831 84.1836 76.3106 83.668ZM66.94 95.0117C65.8194 96.8199 64.685 98.6142 63.5575 100.415C59.3431 107.153 55.1287 113.897 50.9075 120.628C50.7334 120.95 50.5002 121.237 50.22 121.474C49.4912 121.996 48.5219 121.632 48.1781 120.717C47.6281 119.246 47.1056 117.761 46.5763 116.283L41.9769 103.344C41.8669 103.021 41.7913 102.691 41.75 102.533C41.7569 101.66 42.0456 101.289 42.8638 101.02C45.3113 100.23 47.7587 99.453 50.2063 98.6761L64.0594 94.2761L65.8813 93.7124C66.3144 93.5749 66.7475 93.3892 67.105 93.8705C67.4281 94.3036 67.16 94.6611 66.94 95.0117ZM177.751 112.949L179.14 120.896C179.181 121.15 179.209 121.412 179.25 121.749C179.181 122.092 179.106 122.505 178.996 122.904L177.174 129.476C176.651 131.367 175.152 131.814 173.64 130.535C170.539 127.922 167.425 125.31 164.311 122.711C163.603 122.12 163.307 121.439 163.472 120.504C163.674 119.573 163.563 118.602 163.156 117.74C162.729 116.895 162.867 116.145 163.424 115.403C165.967 111.993 168.491 108.569 171.028 105.159L172.574 103.069C173.09 102.361 173.771 102.017 174.637 102.21C175.544 102.416 176.012 103.035 176.163 103.922L177.744 112.949H177.751ZM125.749 58.3336L125.611 58.0449C125.426 57.6324 125.35 57.1511 125.769 56.9174C126.137 56.7524 126.553 56.7279 126.938 56.8486C127.543 57.0342 128.086 57.378 128.657 57.6599L151.771 69.203L155.875 71.2655C156.336 71.4924 156.7 71.7605 156.604 72.338C156.507 72.9086 156.074 73.0324 155.572 73.1217C150.018 74.1117 144.469 75.1155 138.921 76.1124L138.378 76.2224C138.22 76.1192 137.917 76.0024 137.725 75.7824C137.231 75.1606 136.608 74.6527 135.9 74.2933C135.192 73.9338 134.414 73.7312 133.621 73.6992C133.002 73.6717 132.686 73.3074 132.452 72.7917C131.476 70.6742 130.479 68.5705 129.496 66.4599L125.749 58.3336Z" fill="white"/>
</g>
<defs>
<clipPath id="clip0_2_20866">
<rect width="220" height="220" fill="white" transform="translate(0.5)"/>
</clipPath>
</defs>
</svg>
