<svg width="221" height="220" viewBox="0 0 221 220" fill="none" xmlns="http://www.w3.org/2000/svg">
<g clip-path="url(#clip0_2_20862)">
<path d="M110.5 220C171.251 220 220.5 170.751 220.5 110C220.5 49.2487 171.251 0 110.5 0C49.7487 0 0.5 49.2487 0.5 110C0.5 170.751 49.7487 220 110.5 220Z" fill="#136485"/>
<path fill-rule="evenodd" clip-rule="evenodd" d="M72.2472 213.166C57.8426 207.814 44.7185 199.505 33.7197 188.774L34.7304 187.007C51.1479 161.067 65.8947 134.221 76.9979 105.538C88.7747 75.1162 98.2004 43.89 107.179 12.54C107.983 9.74187 108.939 6.99187 109.819 4.22125C110.768 5.3075 111.112 6.31812 111.4 7.3425C117.038 27.4587 122.49 47.63 128.34 67.6775C138.997 104.204 153.984 138.854 173.832 171.332C176.149 175.113 180.088 181.452 185.657 190.321C173.803 201.432 159.633 209.776 144.167 214.754C132.768 179.969 121.305 145.204 109.778 110.461L108.719 110.447C100.703 132.976 88.5479 167.214 72.2472 213.166ZM111.015 0.336875H110.163L110.5 0L111.015 0.336875Z" fill="white"/>
</g>
<defs>
<clipPath id="clip0_2_20862">
<rect width="220" height="220" fill="white" transform="translate(0.5)"/>
</clipPath>
</defs>
</svg>
