<svg width="221" height="220" viewBox="0 0 221 220" fill="none" xmlns="http://www.w3.org/2000/svg">
<g clip-path="url(#clip0_2_20858)">
<path d="M110.5 220C171.251 220 220.5 170.751 220.5 110C220.5 49.2487 171.251 0 110.5 0C49.7487 0 0.5 49.2487 0.5 110C0.5 170.751 49.7487 220 110.5 220Z" fill="#2ED6A1"/>
<path d="M102.635 121.138H133.022C135.719 121.129 138.388 120.59 140.876 119.551C143.365 118.511 145.624 116.992 147.525 115.079C149.426 113.166 150.932 110.898 151.956 108.403C152.981 105.909 153.504 103.237 153.496 100.54C153.511 95.0948 151.362 89.8667 147.523 86.0054C143.683 82.1441 138.467 79.9658 133.022 79.9494H123.356L102.635 61.875H133.022C141.96 61.8963 150.612 65.0256 157.496 70.7264C164.379 76.4272 169.066 84.3447 170.752 93.1219C172.474 101.904 171.101 111.012 166.865 118.896C162.63 126.779 155.795 132.953 147.522 136.366L171.481 157.279H144.043L102.635 121.131V121.138ZM117.464 98.0375H87.0765C81.6325 98.0539 76.4178 100.231 72.5786 104.091C68.7395 107.951 66.59 113.177 66.6028 118.621C66.5882 124.066 68.7368 129.295 72.5762 133.156C76.4156 137.017 81.6313 139.195 87.0765 139.212H96.7497L117.457 157.293H87.0765C78.1388 157.272 69.4867 154.143 62.6031 148.442C55.7195 142.741 51.0329 134.823 49.3465 126.046C47.6247 117.264 48.9981 108.156 53.2333 100.273C57.4686 92.3887 64.304 86.2154 72.5772 82.8025L48.6384 61.875H76.0765L117.464 98.0375Z" fill="white"/>
</g>
<defs>
<clipPath id="clip0_2_20858">
<rect width="220" height="220" fill="white" transform="translate(0.5)"/>
</clipPath>
</defs>
</svg>
