<svg width="221" height="220" viewBox="0 0 221 220" fill="none" xmlns="http://www.w3.org/2000/svg">
<g clip-path="url(#clip0_2_20854)">
<path d="M110.5 220C171.251 220 220.5 170.751 220.5 110C220.5 49.2487 171.251 0 110.5 0C49.7487 0 0.5 49.2487 0.5 110C0.5 170.751 49.7487 220 110.5 220Z" fill="#939393"/>
<path fill-rule="evenodd" clip-rule="evenodd" d="M94.7356 136.537C97.245 134.908 114.109 124.575 130.541 114.51C142.386 107.264 142.386 107.264 142.18 106.556C141.974 105.696 68.6175 61.1187 67.8681 60.6719C66.4747 59.849 65.095 59.0032 63.7294 58.135C65.0769 57.2 67.6962 55.4125 70.8312 53.2812L78.4625 48.125L83.7013 51.26C90.1638 55.1237 161.114 98.6425 171.055 104.837C166.999 107.277 152.63 115.782 133.311 127.16L94.9281 149.779C94.8581 147.776 94.8123 145.773 94.7906 143.77C94.7473 141.362 94.7312 138.953 94.7425 136.544L94.7356 136.537ZM78.4556 93.2525C79.7275 94.0087 81.9275 95.3356 84.6362 97.02L91.7106 101.406L91.8619 114.675C92.3087 153.017 92.3088 153.017 92.8656 153.409L93.2369 153.663L93.6494 153.512C93.8556 153.45 93.9313 153.422 168.387 109.498L172.375 107.147L171.062 125.592L170.581 125.868C139.924 143.477 109.241 161.041 78.5313 178.557C78.5038 173.752 78.4625 157.348 78.4556 135.96V93.2525ZM62.375 170.5L62.5469 60.7269L65.2144 62.3013C67.3594 63.5525 81.8244 72.3731 98.1663 82.3694C109.868 89.5438 121.588 96.6892 133.325 103.806L138.241 106.762L121.988 116.703L118.743 114.812C112.234 110.882 105.749 106.913 99.2869 102.905C92.9859 98.9975 86.6608 95.1291 80.3119 91.3L75.8294 88.6875L75.795 135.224C75.7812 156.221 75.7606 173.669 75.7469 178.757C74.42 177.952 72.1581 176.557 69.5044 174.907L62.375 170.5Z" fill="white"/>
</g>
<defs>
<clipPath id="clip0_2_20854">
<rect width="220" height="220" fill="white" transform="translate(0.5)"/>
</clipPath>
</defs>
</svg>
