<svg width="221" height="220" viewBox="0 0 221 220" fill="none" xmlns="http://www.w3.org/2000/svg">
<g clip-path="url(#clip0_2_20850)">
<path d="M110.5 220C171.251 220 220.5 170.751 220.5 110C220.5 49.2487 171.251 0 110.5 0C49.7487 0 0.5 49.2487 0.5 110C0.5 170.751 49.7487 220 110.5 220Z" fill="#666666"/>
<path fill-rule="evenodd" clip-rule="evenodd" d="M172.939 145.406C171.524 147.767 169.241 149.481 166.579 150.181C163.917 150.881 161.087 150.512 158.694 149.153L125.838 130.522V118.697L136.274 112.784L169.123 131.409C174.114 134.234 175.819 140.504 172.939 145.399V145.406ZM120.929 170.562C120.929 176.22 116.261 180.806 110.5 180.806C104.739 180.806 100.07 176.22 100.07 170.562V133.306L110.5 127.394L120.929 133.306V170.562ZM62.306 149.153C59.9118 150.512 57.0809 150.88 54.4188 150.178C51.7568 149.477 49.4748 147.762 48.061 145.399C47.3786 144.234 46.9357 142.944 46.7583 141.605C46.5809 140.266 46.6725 138.905 47.0279 137.602C47.3833 136.299 47.9952 135.08 48.8278 134.016C49.6604 132.953 50.697 132.066 51.8767 131.409L84.7254 112.777L95.1617 118.697V130.522L62.306 149.153ZM51.8767 88.5912C50.697 87.9336 49.6604 87.047 48.8278 85.9835C47.9952 84.9201 47.3833 83.7011 47.0279 82.398C46.6725 81.095 46.5809 79.7341 46.7583 78.3951C46.9357 77.0562 47.3786 75.7662 48.061 74.6006C49.4748 72.2385 51.7568 70.5232 54.4188 69.8217C57.0809 69.1202 59.9118 69.4882 62.306 70.8469L95.1617 89.4781V101.303L84.7254 107.216L51.8767 88.5912ZM100.07 49.4381C100.07 43.78 104.745 39.1944 110.5 39.1944C116.261 39.1944 120.929 43.78 120.929 49.4381V86.6869L110.5 92.6063L100.07 86.6937V49.4381ZM125.838 106.872L131.365 110L125.838 113.128V106.872ZM115.409 95.3906L120.929 92.2556V98.5188L115.409 95.3906ZM100.07 98.5188V92.2625L105.591 95.3906L100.07 98.5188ZM95.1617 113.128L89.6342 110L95.1617 106.872V113.128ZM105.591 124.609L100.07 127.744V121.481L105.591 124.609ZM120.929 121.481V127.738L115.409 124.609L120.929 121.481ZM110.5 121.825L100.07 115.913V104.088L110.5 98.175L120.929 104.088V115.913L110.5 121.825ZM158.694 70.8469C161.088 69.4882 163.919 69.1202 166.581 69.8217C169.243 70.5232 171.525 72.2385 172.939 74.6006C175.826 79.4956 174.107 85.7656 169.123 88.5912L136.274 107.222L125.838 101.303V89.4781L158.694 70.8469ZM171.577 127.236L141.183 110L171.577 92.7644C173.313 91.7981 174.839 90.4948 176.064 88.9309C177.29 87.3671 178.191 85.5741 178.714 83.6574C179.237 81.7407 179.372 79.7388 179.111 77.7691C178.85 75.7995 178.199 73.9018 177.194 72.1875C172.959 64.9825 163.575 62.5144 156.239 66.6737L125.838 83.9094V49.4313C125.838 41.1194 118.97 34.375 110.5 34.375C102.03 34.375 95.1617 41.1194 95.1617 49.4381V83.9094L64.7604 66.6737C57.4248 62.5144 48.0404 64.9825 43.8123 72.1875C42.808 73.9018 42.1562 75.7995 41.8952 77.7691C41.6342 79.7388 41.7693 81.7407 42.2925 83.6574C42.8157 85.5741 43.7165 87.3671 44.942 88.9309C46.1676 90.4948 47.6931 91.7981 49.4292 92.7644L79.8167 110L49.4292 127.236C47.6925 128.201 46.1663 129.504 44.9401 131.068C43.7139 132.631 42.8124 134.424 42.2885 136.341C41.7647 138.258 41.629 140.26 41.8895 142.23C42.15 144.2 42.8014 146.098 43.8054 147.812C48.0404 155.018 57.4248 157.486 64.7604 153.326L95.1617 136.091V170.562C95.1617 178.881 102.03 185.625 110.5 185.625C118.97 185.625 125.838 178.881 125.838 170.562V136.091L156.239 153.326C163.575 157.486 172.959 155.018 177.194 147.812C178.199 146.098 178.85 144.201 179.111 142.231C179.372 140.261 179.237 138.259 178.714 136.343C178.191 134.426 177.29 132.633 176.064 131.069C174.839 129.505 173.313 128.202 171.577 127.236Z" fill="white"/>
</g>
<defs>
<clipPath id="clip0_2_20850">
<rect width="220" height="220" fill="white" transform="translate(0.5)"/>
</clipPath>
</defs>
</svg>
