<svg width="221" height="220" viewBox="0 0 221 220" fill="none" xmlns="http://www.w3.org/2000/svg">
<g clip-path="url(#clip0_2_20846)">
<path d="M110.5 220C171.251 220 220.5 170.751 220.5 110C220.5 49.2487 171.251 0 110.5 0C49.7487 0 0.5 49.2487 0.5 110C0.5 170.751 49.7487 220 110.5 220Z" fill="#FEC907"/>
<path d="M84.1069 156.86C88.3556 156.86 91.8069 160.229 91.8069 164.368C91.8069 168.513 88.3556 171.875 84.1069 171.875H74.1175C71.9175 171.875 69.8 171.023 68.2463 169.503C67.4784 168.76 66.8674 167.87 66.4494 166.886C66.0314 165.903 65.8148 164.845 65.8125 163.776V56.0244C65.8125 53.9275 66.665 51.92 68.1844 50.435C69.6969 48.9569 71.7594 48.125 73.9113 48.125H84.6156C88.8644 48.125 92.3156 51.4869 92.3156 55.6325C92.3156 57.6263 91.4975 59.5306 90.0538 60.94C88.61 62.3425 86.6506 63.14 84.6156 63.14H82.2438V156.86H84.1069ZM167.776 78.1275C173.131 87.3263 175.812 97.6181 175.812 109.003C175.812 120.388 173.097 130.68 167.686 139.886C162.276 149.091 156.26 156.145 146.381 162.532C137.306 168.403 127.832 171.868 116.083 171.868H112.184C107.936 171.868 104.484 168.506 104.484 164.361C104.484 160.215 107.936 156.86 112.184 156.86H116.928C125.247 156.86 131.29 153.416 138.076 149.504C144.854 145.599 149.199 139.198 153.132 132.296C157.071 125.4 159.044 117.693 159.044 109.182C159.038 100.554 157.044 92.7919 153.049 85.8894C149.16 79.091 143.519 73.4597 136.714 69.5819C129.812 65.615 122.139 63.6281 113.704 63.6281H111.662C107.413 63.6281 103.962 60.2731 103.962 56.1275C103.962 54.1337 104.78 52.2225 106.224 50.82C107.668 49.4106 109.62 48.62 111.662 48.62H114.061C125.694 48.62 136.213 51.2325 145.618 56.4712C154.845 61.5278 162.509 69.0182 167.776 78.1275Z" fill="white"/>
</g>
<defs>
<clipPath id="clip0_2_20846">
<rect width="220" height="220" fill="white" transform="translate(0.5)"/>
</clipPath>
</defs>
</svg>
