<svg width="221" height="220" viewBox="0 0 221 220" fill="none" xmlns="http://www.w3.org/2000/svg">
<g clip-path="url(#clip0_2_20842)">
<path d="M110.5 220C171.251 220 220.5 170.751 220.5 110C220.5 49.2487 171.251 0 110.5 0C49.7487 0 0.5 49.2487 0.5 110C0.5 170.751 49.7487 220 110.5 220Z" fill="#006AD2"/>
<path fill-rule="evenodd" clip-rule="evenodd" d="M85.53 171.874L88.8231 163.06L82.9794 163.638L80.8756 169.207C80.7106 169.626 80.5731 170.066 80.36 170.465C79.8994 171.324 79.1913 171.86 78.2081 171.867C73.8769 171.874 69.5594 171.867 65.2281 171.86C65.125 171.86 65.0219 171.799 64.795 171.73L67.5587 164.27C62.5194 164.133 57.6175 164.05 52.7363 163.494C52.8188 162.579 80.6625 92.3717 81.7694 90.2611C82.0444 90.2405 82.3675 90.1924 82.6975 90.1924H105.179C105.406 90.1924 105.633 90.1924 105.853 90.2061C108.128 90.378 109.393 92.303 108.603 94.4892C107.551 97.3767 106.437 100.25 105.357 103.124L91.2088 140.758C91.0644 141.143 90.9406 141.542 90.7619 142.064C91.1606 142.085 91.47 142.126 91.7794 142.112C113.064 141.184 128.684 131.023 138.777 111.931C140.984 107.758 142.537 103.272 143.383 98.628C143.885 95.9124 144.043 93.1899 143.363 90.4742C142.677 87.6091 140.971 85.0918 138.564 83.393C135.346 81.0761 131.73 80.0861 127.825 80.0655H52.0625C52.2275 79.653 52.3031 79.378 52.4337 79.1305L61.9763 61.9361C62.4215 61.0396 63.1167 60.2912 63.978 59.7813C64.8393 59.2713 65.8299 59.0216 66.83 59.0624H107.159L111.291 48.1311H123.542C123.844 48.1311 124.147 48.1105 124.436 48.1517C125.309 48.2892 125.811 48.9767 125.68 49.8705C125.625 50.2417 125.487 50.5992 125.35 50.9567C124.504 53.2324 123.638 55.5011 122.793 57.7767C122.648 58.1617 122.531 58.5536 122.38 59.0142H127.914C128.052 58.7186 128.189 58.4161 128.313 58.1067L131.723 49.0524C132.067 48.138 132.081 48.1311 132.995 48.1311C136.872 48.1311 140.757 48.1174 144.634 48.1311C146.271 48.138 146.855 49.0042 146.271 50.5855C145.342 53.1224 144.387 55.6386 143.438 58.1617C143.308 58.5124 143.191 58.8699 143.026 59.3511C143.404 59.4199 143.713 59.4886 144.022 59.5299C149.419 60.1899 154.672 61.4136 159.656 63.6617C163.444 65.3736 166.889 67.608 169.721 70.743C173.558 74.9711 175.462 80.0242 175.764 85.7305C176.053 91.2649 175.043 96.5999 173.207 101.749C168.862 113.952 162.688 125.042 153.751 134.385C147.591 140.82 140.482 145.935 132.686 150.074C124.271 154.542 115.374 157.67 106.162 159.884C105.337 160.09 104.904 160.448 104.622 161.259C103.611 164.078 102.539 166.883 101.48 169.688C100.827 171.407 100.174 171.874 98.3725 171.874H85.53Z" fill="white"/>
</g>
<defs>
<clipPath id="clip0_2_20842">
<rect width="220" height="220" fill="white" transform="translate(0.5)"/>
</clipPath>
</defs>
</svg>
