<svg width="221" height="220" viewBox="0 0 221 220" fill="none" xmlns="http://www.w3.org/2000/svg">
<g clip-path="url(#clip0_2_20834)">
<path d="M110.5 220C171.251 220 220.5 170.751 220.5 110C220.5 49.2487 171.251 0 110.5 0C49.7487 0 0.5 49.2487 0.5 110C0.5 170.751 49.7487 220 110.5 220Z" fill="#F4AE95"/>
<path d="M109.173 61.5859L67.2771 151.009H136.831C138.846 151.009 140.668 152.247 141.458 154.137L141.534 154.309C141.793 154.925 141.908 155.592 141.871 156.259C141.834 156.926 141.646 157.575 141.321 158.159C140.753 159.185 139.921 160.042 138.912 160.64C137.903 161.238 136.753 161.556 135.58 161.562H61.6602C60.5163 161.56 59.3996 161.213 58.4565 160.565L58.0715 160.304C56.9076 159.492 56.0689 158.293 55.704 156.922C55.339 155.55 55.4714 154.094 56.0777 152.81L105.509 48.6609C106.025 47.5747 106.76 46.6122 107.661 45.8422C108.511 45.1093 109.592 44.7004 110.715 44.6878C111.837 44.6752 112.927 45.0598 113.793 45.7734C114.187 46.0938 114.504 46.4978 114.721 46.9559L164.861 151.813C165.548 153.237 165.686 154.866 165.26 156.392C165.038 157.223 164.549 157.958 163.868 158.484C163.187 159.009 162.352 159.296 161.492 159.3H160.915C159.761 159.293 158.633 158.955 157.665 158.327C156.698 157.698 155.931 156.805 155.456 155.753L112.212 61.5997C112.082 61.3062 111.87 61.0563 111.602 60.8795C111.334 60.7028 111.021 60.6068 110.7 60.6028C110.378 60.603 110.063 60.6957 109.792 60.8701C109.521 61.0444 109.307 61.2929 109.173 61.5859Z" fill="white"/>
</g>
<defs>
<clipPath id="clip0_2_20834">
<rect width="220" height="220" fill="white" transform="translate(0.5)"/>
</clipPath>
</defs>
</svg>
