<svg width="221" height="220" viewBox="0 0 221 220" fill="none" xmlns="http://www.w3.org/2000/svg">
<g clip-path="url(#clip0_2_20800)">
<path d="M110.5 220C171.251 220 220.5 170.751 220.5 110C220.5 49.2487 171.251 0 110.5 0C49.7487 0 0.5 49.2487 0.5 110C0.5 170.751 49.7487 220 110.5 220Z" fill="#0983CB"/>
<path d="M75.274 185.236C74.9703 185.236 74.5907 185.236 74.287 185.16C71.4021 184.628 69.58 181.895 70.1115 179.01C73.2242 162.764 78.6144 147.732 86.2064 134.218C93.2669 121.615 100.403 113.492 107.236 105.672C114.297 97.625 120.901 90.109 127.279 77.9619C133.504 66.1185 137.756 53.1363 139.881 39.4708C140.337 36.5859 142.994 34.6879 145.879 35.0675C148.764 35.523 150.662 38.1802 150.282 41.0651C147.929 55.9453 143.374 69.9904 136.617 82.8207C129.632 96.0307 122.268 104.458 115.132 112.581C108.299 120.325 101.846 127.689 95.3167 139.305C88.3321 151.755 83.3214 165.801 80.3606 180.908C79.9051 183.49 77.7034 185.236 75.274 185.236Z" fill="white"/>
<path d="M96.6069 98.6879C94.9367 98.6879 93.3423 97.9287 92.2795 96.4863C89.2427 92.1589 86.5096 87.7556 84.0043 82.9726C77.2475 70.1423 72.6164 56.0972 70.3388 41.217C69.8833 38.3321 71.8572 35.6749 74.7421 35.2194C77.6271 34.7639 80.2842 36.7378 80.7397 39.6227C82.8655 53.3641 87.117 66.3463 93.3423 78.1138C95.6199 82.5171 98.1253 86.5409 100.858 90.4887C102.529 92.8422 101.997 96.1067 99.5677 97.7769C98.7326 98.3843 97.6697 98.6879 96.6069 98.6879Z" fill="white" fill-opacity="0.3"/>
<path d="M97.3494 98.8962C95.831 98.8962 94.3126 98.2129 93.2497 96.9223C91.4277 94.6447 89.7574 92.519 88.239 90.3173C86.5688 87.9638 87.1003 84.6993 89.5297 83.0291C91.8832 81.3589 95.1477 81.8903 96.8179 84.3197C98.2604 86.3695 99.7788 88.3434 101.449 90.3933C103.271 92.6708 102.891 95.9354 100.614 97.7574C99.6269 98.5166 98.4881 98.8962 97.3494 98.8962Z" fill="white" fill-opacity="0.5"/>
<path d="M145.423 185.236C142.918 185.236 140.792 183.49 140.261 180.985C137.376 165.877 132.289 151.832 125.305 139.381C123.331 135.888 121.281 132.548 119.003 129.359C117.333 127.006 117.94 123.741 120.294 122.071C122.647 120.401 125.912 121.008 127.582 123.362C130.012 126.854 132.289 130.422 134.415 134.294C142.007 147.732 147.397 162.84 150.51 179.087C151.041 181.971 149.219 184.705 146.334 185.236C146.031 185.236 145.727 185.236 145.423 185.236Z" fill="white" fill-opacity="0.3"/>
<path d="M127.044 136.712C125.374 136.712 123.78 135.952 122.717 134.434C121.502 132.688 120.363 131.094 119.149 129.575C117.403 127.298 117.782 123.957 120.06 122.211C122.337 120.465 125.678 120.844 127.424 123.198C128.715 124.868 130.005 126.614 131.296 128.512C132.966 130.866 132.359 134.13 130.005 135.801C129.094 136.408 128.031 136.712 127.044 136.712Z" fill="white" fill-opacity="0.5"/>
<path d="M131.682 170.204H89.3193C87.8768 170.204 86.6621 169.065 86.6621 167.547C86.6621 166.104 87.8009 164.89 89.3193 164.89H131.682C133.125 164.89 134.339 166.028 134.339 167.547C134.339 169.065 133.125 170.204 131.682 170.204Z" fill="white"/>
<path d="M127.962 159.044H92.6591C91.2167 159.044 90.002 157.905 90.002 156.387C90.002 154.868 91.1407 153.729 92.6591 153.729H127.962C129.404 153.729 130.619 154.868 130.619 156.387C130.619 157.905 129.404 159.044 127.962 159.044Z" fill="white"/>
<path d="M122.648 147.884H97.5947C96.1522 147.884 94.9375 146.745 94.9375 145.227C94.9375 143.708 96.0763 142.569 97.5947 142.569H122.648C124.091 142.569 125.305 143.708 125.305 145.227C125.305 146.745 124.091 147.884 122.648 147.884Z" fill="white"/>
<path d="M115.664 136.724H104.731C103.289 136.724 102.074 135.585 102.074 134.066C102.074 132.548 103.213 131.409 104.731 131.409H115.664C117.106 131.409 118.321 132.548 118.321 134.066C118.321 135.585 117.106 136.724 115.664 136.724Z" fill="white"/>
<path d="M131.682 51.2384H89.3193C87.8768 51.2384 86.6621 50.0996 86.6621 48.5812C86.6621 47.0629 87.8009 45.9241 89.3193 45.9241H131.682C133.125 45.9241 134.339 47.0629 134.339 48.5812C134.339 50.0996 133.125 51.2384 131.682 51.2384Z" fill="white"/>
<path d="M127.962 62.3986H92.6591C91.2167 62.3986 90.002 61.2598 90.002 59.7414C90.002 58.223 91.1407 57.0842 92.6591 57.0842H127.962C129.404 57.0842 130.619 58.223 130.619 59.7414C130.619 61.2598 129.404 62.3986 127.962 62.3986Z" fill="white"/>
<path d="M122.648 73.5587H97.5947C96.1522 73.5587 94.9375 72.4199 94.9375 70.9016C94.9375 69.3832 96.0763 68.2444 97.5947 68.2444H122.648C124.091 68.2444 125.305 69.3832 125.305 70.9016C125.305 72.4199 124.091 73.5587 122.648 73.5587Z" fill="white"/>
<path d="M115.663 84.7189H104.73C103.288 84.7189 102.073 83.5801 102.073 82.0617C102.073 80.5433 103.212 79.4045 104.73 79.4045H115.663C117.105 79.4045 118.32 80.5433 118.32 82.0617C118.32 83.5801 117.105 84.7189 115.663 84.7189Z" fill="white"/>
<path d="M110.5 193.511C64.4175 193.511 26.9893 156.083 26.9893 110C26.9893 63.917 64.4175 26.4888 110.5 26.4888C156.583 26.4888 194.012 63.917 194.012 110C194.012 156.083 156.583 193.511 110.5 193.511ZM110.5 36.9656C70.2632 36.9656 37.4661 69.7628 37.4661 110C37.4661 150.237 70.1873 183.034 110.5 183.034C150.814 183.034 183.535 150.313 183.535 110C183.535 69.7628 150.738 36.9656 110.5 36.9656Z" fill="white"/>
</g>
<defs>
<clipPath id="clip0_2_20800">
<rect width="220" height="220" fill="white" transform="translate(0.5)"/>
</clipPath>
</defs>
</svg>
