<svg width="221" height="220" viewBox="0 0 221 220" fill="none" xmlns="http://www.w3.org/2000/svg">
<g clip-path="url(#clip0_2_20796)">
<path d="M110.5 220C171.251 220 220.5 170.751 220.5 110C220.5 49.2487 171.251 0 110.5 0C49.7487 0 0.5 49.2487 0.5 110C0.5 170.751 49.7487 220 110.5 220Z" fill="#2C398F"/>
<path d="M172.89 131.312C176.51 131.132 179.962 129.734 182.687 127.345C178.899 146.705 168.312 165.756 150.141 176.226C136.24 184.325 118.86 187.02 101.961 184.958C99.4309 177.656 92.7966 169.881 81.2672 164.01C63.0965 154.646 54.5647 138.455 46.8234 146.389C46.1084 147.076 45.5172 147.881 45.084 148.768C44.7381 148.041 44.4215 147.3 44.1353 146.547C29.2853 109.725 44.1353 72.7371 73.8353 46.234C91.5315 30.5177 112.225 32.264 130.712 40.8371C129.602 41.7334 128.712 42.8713 128.109 44.1641C127.506 45.4568 127.207 46.8703 127.233 48.2965V85.4352C119.549 80.9599 110.519 79.3722 101.769 80.9575C93.0182 82.5428 85.1199 87.1971 79.4934 94.084C73.8446 100.985 70.818 109.662 70.9489 118.58C71.0797 127.497 74.3595 136.081 80.2084 142.814C86.0371 149.53 94.0698 153.947 102.863 155.271C111.657 156.596 120.634 154.741 128.182 150.04C129.107 152.031 130.685 153.646 132.655 154.616C134.625 155.586 136.868 155.852 139.01 155.37C141.152 154.887 143.065 153.686 144.43 151.966C145.794 150.246 146.529 148.11 146.511 145.915V50.2008C160.728 60.1971 172.1 72.8952 177.311 81.6265C179.855 86.0127 181.67 90.784 182.687 95.7546C180.453 94.1046 177.847 93.0046 175.104 92.5783C169.26 92.2621 164.833 100.203 167.837 111.622C170.367 121.948 167.205 130.996 172.89 131.312ZM101.645 131.945C81.7347 120.518 98.4822 91.1552 118.392 102.581C124.394 105.916 125.027 116.551 123.92 123.371C121.864 135.121 110.809 137.183 101.645 131.945ZM110.967 56.0721C106.54 56.2302 103.384 61.6271 103.542 64.0127C103.693 66.3915 107.014 67.8215 111.593 66.2333C115.704 64.8033 119.499 65.7521 119.334 63.3734C119.176 60.9946 115.23 55.914 110.967 56.0721Z" fill="white"/>
</g>
<defs>
<clipPath id="clip0_2_20796">
<rect width="220" height="220" fill="white" transform="translate(0.5)"/>
</clipPath>
</defs>
</svg>
