<svg width="221" height="220" viewBox="0 0 221 220" fill="none" xmlns="http://www.w3.org/2000/svg">
<g clip-path="url(#clip0_2_20792)">
<path d="M110.5 220C171.251 220 220.5 170.751 220.5 110C220.5 49.2487 171.251 0 110.5 0C49.7487 0 0.5 49.2487 0.5 110C0.5 170.751 49.7487 220 110.5 220Z" fill="#786DBC"/>
<path d="M110.026 74.0507L98.8263 62.8238C97.3184 61.3815 96.4452 59.3993 96.3988 57.3132C96.3523 55.2271 97.1365 53.208 98.5788 51.7C100.021 50.1921 102.003 49.3189 104.089 49.2725C106.176 49.2261 108.195 50.0103 109.703 51.4525L109.964 51.7138L134.961 76.7113C138.034 79.7844 138.034 84.755 134.961 87.8282L109.936 112.826C108.452 114.242 106.472 115.022 104.42 114.998C102.368 114.974 100.406 114.148 98.9553 112.697C97.5042 111.246 96.6784 109.284 96.6543 107.232C96.6302 105.18 97.4097 103.2 98.8263 101.716L110.562 89.98C102.655 88.5844 94.5106 89.6532 87.2318 93.0418C79.9529 96.4303 73.8918 101.975 69.8697 108.924C65.8477 115.872 64.0592 123.89 64.7466 131.889C65.434 139.889 68.5641 147.483 73.7127 153.644C78.8613 159.805 85.7795 164.234 93.5297 166.331C101.28 168.428 109.488 168.092 117.04 165.368C124.593 162.644 131.125 157.663 135.753 151.102C140.38 144.541 142.878 136.715 142.909 128.686V42.2263C142.909 40.1422 143.737 38.1434 145.21 36.6698C146.684 35.1961 148.683 34.3682 150.767 34.3682C152.851 34.3682 154.85 35.1961 156.323 36.6698C157.797 38.1434 158.625 40.1422 158.625 42.2263V129.738C158.406 140.84 154.831 151.616 148.371 160.648C141.911 169.68 132.869 176.544 122.433 180.34C111.998 184.135 100.658 184.682 89.9051 181.91C79.1525 179.138 69.4908 173.176 62.1909 164.808C54.891 156.441 50.2948 146.06 49.007 135.03C47.7191 124.001 49.7998 112.84 54.9755 103.016C60.1512 93.1918 68.1793 85.1642 78.004 79.9893C87.8286 74.8144 98.9896 72.7345 110.019 74.0232L110.026 74.0507Z" fill="white"/>
</g>
<defs>
<clipPath id="clip0_2_20792">
<rect width="220" height="220" fill="white" transform="translate(0.5)"/>
</clipPath>
</defs>
</svg>
