<svg width="221" height="220" viewBox="0 0 221 220" fill="none" xmlns="http://www.w3.org/2000/svg">
<g clip-path="url(#clip0_2_20788)">
<path d="M110.5 220C171.251 220 220.5 170.751 220.5 110C220.5 49.2487 171.251 0 110.5 0C49.7487 0 0.5 49.2487 0.5 110C0.5 170.751 49.7487 220 110.5 220Z" fill="#C3A634"/>
<path fill-rule="evenodd" clip-rule="evenodd" d="M91.58 100.444H121.239V116.16H91.58V149.284H110.287C117.691 149.284 123.748 148.287 128.464 146.279C133.181 144.279 136.879 141.508 139.568 137.961C142.317 134.272 144.189 130.004 145.04 125.483C146.033 120.382 146.517 115.196 146.484 110C146.517 104.804 146.033 99.6177 145.04 94.5175C144.189 89.9958 142.318 85.728 139.568 82.0394C136.879 78.4919 133.174 75.7212 128.464 73.7206C123.748 71.7131 117.691 70.7163 110.287 70.7163H91.58V100.451V100.444ZM72.5638 116.16H62.375V100.451H72.5638V55H117.588C125.907 55 133.105 56.4437 139.189 59.3106C145.274 62.1912 150.237 66.1169 154.094 71.1012C157.944 76.0788 160.811 81.9088 162.688 88.5844C164.565 95.26 165.5 102.403 165.5 110C165.547 117.234 164.599 124.44 162.681 131.416C160.811 138.084 157.944 143.921 154.088 148.899C150.238 153.883 145.274 157.809 139.189 160.689C133.105 163.563 125.9 165 117.588 165H72.5638V116.16Z" fill="white"/>
</g>
<defs>
<clipPath id="clip0_2_20788">
<rect width="220" height="220" fill="white" transform="translate(0.5)"/>
</clipPath>
</defs>
</svg>
