<svg width="221" height="220" viewBox="0 0 221 220" fill="none" xmlns="http://www.w3.org/2000/svg">
<g clip-path="url(#clip0_2_20784)">
<path d="M110.5 220C171.251 220 220.5 170.751 220.5 110C220.5 49.2487 171.251 0 110.5 0C49.7487 0 0.5 49.2487 0.5 110C0.5 170.751 49.7487 220 110.5 220Z" fill="#E6007A"/>
<path d="M112.371 45.5469C86.8849 45.5469 66.0605 66.2544 66.0605 91.8569C66.0605 97.0063 66.913 102.032 68.508 106.927C69.0727 108.543 70.2492 109.873 71.7844 110.63C73.3196 111.387 75.0908 111.512 76.7168 110.976C78.3316 110.41 79.6598 109.233 80.4158 107.698C81.1718 106.163 81.2951 104.393 80.7593 102.767C79.4151 98.9511 78.7926 94.9179 78.9237 90.8738C79.4118 73.6038 93.3818 59.3862 110.659 58.5337C115.184 58.296 119.711 58.9813 123.963 60.548C128.215 62.1147 132.105 64.5301 135.394 67.6472C138.684 70.7643 141.305 74.518 143.098 78.6799C144.891 82.8419 145.818 87.3251 145.824 91.8569C145.814 100.38 142.549 108.576 136.696 114.772C130.843 120.967 122.845 124.693 114.337 125.187C114.337 125.187 107.84 125.551 104.657 126.046C103.062 126.287 101.838 126.534 100.979 126.658C100.607 126.782 100.243 126.411 100.36 126.039L101.467 120.656L107.469 92.9638C107.818 91.308 107.501 89.581 106.584 88.1584C105.667 86.7358 104.226 85.7326 102.574 85.3669C100.917 85.0172 99.1891 85.3362 97.7663 86.2542C96.3435 87.1723 95.341 88.6151 94.9768 90.2687C94.9768 90.2687 80.5187 157.657 80.3949 158.393C80.0453 160.05 80.3642 161.778 81.2823 163.2C82.2003 164.623 83.6432 165.626 85.2968 165.99C86.9536 166.34 88.6814 166.021 90.1041 165.103C91.5269 164.185 92.5295 162.742 92.8937 161.088C93.0105 160.353 94.9768 151.408 94.9768 151.408C95.6727 148.129 97.3643 145.144 99.8205 142.863C102.277 140.582 105.378 139.114 108.699 138.662C111.102 138.399 113.512 138.195 115.925 138.05C127.557 137.143 138.42 131.884 146.347 123.322C154.273 114.76 158.679 103.525 158.687 91.8569C158.687 66.2544 137.856 45.5469 112.371 45.5469ZM115.677 152.144C114.68 151.929 113.649 151.914 112.646 152.099C111.643 152.285 110.686 152.669 109.832 153.227C108.977 153.785 108.242 154.507 107.669 155.352C107.096 156.196 106.696 157.146 106.492 158.146C105.633 162.312 108.211 166.478 112.494 167.338C113.493 167.554 114.524 167.569 115.529 167.383C116.534 167.197 117.491 166.814 118.346 166.255C119.202 165.696 119.937 164.973 120.511 164.127C121.084 163.281 121.483 162.33 121.686 161.329C122.539 157.046 119.967 152.996 115.677 152.144Z" fill="white"/>
</g>
<defs>
<clipPath id="clip0_2_20784">
<rect width="220" height="220" fill="white" transform="translate(0.5)"/>
</clipPath>
</defs>
</svg>
