<svg width="221" height="220" viewBox="0 0 221 220" fill="none" xmlns="http://www.w3.org/2000/svg">
<g clip-path="url(#clip0_2_20770)">
<path d="M110.5 220C171.251 220 220.5 170.751 220.5 110C220.5 49.2487 171.251 0 110.5 0C49.7487 0 0.5 49.2487 0.5 110C0.5 170.751 49.7487 220 110.5 220Z" fill="#242D3D"/>
<path d="M159.546 120.087C155.758 103.402 143.981 85.0042 143.981 85.0042C157.553 122.04 152.328 149.973 148.732 165.82C148.732 165.82 143.988 183.544 154.198 168.776C166.93 150.296 159.546 120.087 159.546 120.087Z" fill="white"/>
<path d="M126.024 54.3894C133.085 79.5381 136.281 100.885 137.278 118.684C139.031 149.017 134.405 168.975 131.531 179.514C130.61 182.945 134.446 185.496 136.68 182.904L136.721 182.862C142.304 176.476 144.944 161.516 146.181 148.384L146.539 144.074C147.694 128.261 147.02 112.304 143.308 97.0144C136.481 68.7994 126.024 54.3894 126.024 54.3894ZM113.374 98.6919C111.655 57.3869 108.541 20.7087 108.541 20.7087C108.541 20.7087 105.392 55.5512 103.673 95.935C103.398 102.487 103.151 109.149 102.951 115.852C102.676 125.594 102.553 135.377 102.553 144.83C102.594 161.632 103.24 177.397 104.753 189.971C105.351 194.956 111.813 194.956 112.411 189.971C113.45 181.391 114.048 170.852 114.288 159.274C114.512 146.758 114.459 134.238 114.13 121.723C113.924 114.057 113.69 106.316 113.374 98.6919ZM65.1251 148.46C64.1832 140.675 63.9668 132.82 64.4789 124.996C64.8777 118.849 65.7577 112.263 67.277 105.237C68.6727 98.8087 70.5839 92.0644 73.1826 84.9625C73.1826 84.9625 64.8777 97.9356 60.0102 111.94C59.0477 114.621 58.257 117.371 57.652 120.046C57.652 120.046 56.0983 127.072 55.8645 136.449C55.6995 142.953 56.2152 150.653 58.2914 157.92C59.3408 161.724 60.9142 165.364 62.9664 168.734C62.9664 168.734 73.1826 183.942 68.432 165.778C66.9541 160.083 65.8472 154.298 65.1183 148.46H65.1251Z" fill="white"/>
<path d="M79.6863 140.32C79.353 132.096 79.4861 123.86 80.085 115.652C80.4998 109.592 81.1396 103.549 82.0031 97.5364C83.7906 84.6045 86.7125 70.277 91.1469 54.3889C91.1469 54.3889 80.6419 68.7989 73.8219 97.0139C73.4575 98.5264 73.1344 100.046 72.8181 101.524C71.5806 107.67 70.7831 113.899 70.3844 120.203C69.9031 128.11 70.0269 136.085 70.5906 144.032L70.9481 148.384C72.1856 161.515 74.7775 176.475 80.4013 182.862L80.4425 182.903C82.6769 185.461 86.5475 182.903 85.5988 179.514C83.5156 171.731 80.4425 158.8 79.6863 140.32Z" fill="white"/>
<path d="M97.1283 141.872C96.903 132.721 96.8618 123.566 97.0046 114.413C97.0871 108.391 97.2452 102.038 97.5271 95.3766C98.2077 78.1753 101.439 53.3084 103.673 32.2366C103.673 32.2366 92.6596 55.0272 87.6271 96.1397C86.9533 101.763 86.314 107.827 85.8327 114.379L85.4752 119.247C85.4752 119.247 84.8771 127.943 85.1108 139.679C85.434 154.763 87.1046 174.879 93.3333 188.052C93.5396 188.45 93.7733 188.808 94.0896 189.083L94.1308 189.131C96.489 191.365 100.119 189.248 99.8027 185.776C98.3381 171.182 97.4437 156.536 97.1215 141.872H97.1283ZM119.953 141.872C120.16 133.65 120.235 124.478 120.077 114.413C119.995 108.391 119.836 102.038 119.555 95.3766C118.881 78.1753 115.65 53.3084 113.408 32.2366C113.408 32.2366 124.429 55.0272 129.455 96.1397C130.135 101.763 130.775 107.827 131.249 114.379L131.613 119.247C131.613 119.247 132.211 127.943 131.971 139.679C131.648 154.763 129.977 174.879 123.748 188.052C123.565 188.441 123.309 188.791 122.992 189.083L122.951 189.131C120.593 191.365 116.97 189.248 117.286 185.776C118.083 178.234 119.438 163.267 119.953 141.872Z" fill="white"/>
</g>
<defs>
<clipPath id="clip0_2_20770">
<rect width="220" height="220" fill="white" transform="translate(0.5)"/>
</clipPath>
</defs>
</svg>
