<svg width="221" height="220" viewBox="0 0 221 220" fill="none" xmlns="http://www.w3.org/2000/svg">
<g clip-path="url(#clip0_2_20766)">
<path d="M110.5 220C171.251 220 220.5 170.751 220.5 110C220.5 49.2487 171.251 0 110.5 0C49.7487 0 0.5 49.2487 0.5 110C0.5 170.751 49.7487 220 110.5 220Z" fill="#74D269"/>
<path d="M172.121 99.77H172.258L172.375 133.911L95.5331 178.75L74.9631 167.186V167.2L74.8325 167.118L55.5 154.722V65.2025L76.6269 52.7381L76.6681 52.7587L95.32 41.25L171.976 86.3706L172.121 99.77ZM149.605 121.165L133.524 111.959L79.8512 143.543L95.6087 152.914L149.605 121.165ZM129.901 109.89L96.7912 90.9287L96.6469 129.986L129.901 109.89ZM96.805 86.7487L150.031 117.899V99.3025L96.8737 68.2619L96.805 86.7487ZM74.8875 162.044L75.0938 143.392L74.97 143.467V77.66L58.8344 68.035V152.46L74.8875 162.044ZM77.7475 141.412L93.8694 131.663V68.035L77.7475 77.6669V141.412ZM97.5544 155.375L97.2312 174.873L168.979 132.687L169.185 113.3L97.5544 155.375ZM151.131 96.36L167.831 86.8312L95.9525 44.8594L79.4112 54.4294L151.131 96.36Z" fill="white"/>
</g>
<defs>
<clipPath id="clip0_2_20766">
<rect width="220" height="220" fill="white" transform="translate(0.5)"/>
</clipPath>
</defs>
</svg>
