<svg width="221" height="220" viewBox="0 0 221 220" fill="none" xmlns="http://www.w3.org/2000/svg">
<g clip-path="url(#clip0_2_20760)">
<path d="M110.5 220C171.251 220 220.5 170.751 220.5 110C220.5 49.2487 171.251 0 110.5 0C49.7487 0 0.5 49.2487 0.5 110C0.5 170.751 49.7487 220 110.5 220Z" fill="#3C80F1"/>
<path d="M111.078 27.5C73.4713 27.5275 42.9875 57.9975 42.9463 95.5969C42.9807 99.2681 43.3932 102.926 44.17 106.514C44.2096 106.684 44.2905 106.842 44.4055 106.973C44.5206 107.104 44.6662 107.204 44.8294 107.265C44.9927 107.327 45.1685 107.347 45.3413 107.324C45.5141 107.3 45.6786 107.235 45.82 107.133C48.4228 105.269 51.5425 104.265 54.7438 104.259C54.8985 104.265 55.0524 104.235 55.1944 104.174C55.3364 104.112 55.4629 104.02 55.5649 103.903C55.6669 103.787 55.7417 103.649 55.784 103.5C55.8263 103.352 55.835 103.195 55.8094 103.042C55.3567 100.612 55.122 98.1451 55.1082 95.6725C55.1082 88.3234 56.5557 81.0463 59.3681 74.2566C62.1804 67.4669 66.3026 61.2976 71.4992 56.101C76.6958 50.9044 82.8651 46.7823 89.6547 43.9699C96.4444 41.1575 103.722 39.71 111.071 39.71C118.42 39.71 125.697 41.1575 132.487 43.9699C139.276 46.7823 145.446 50.9044 150.642 56.101C155.839 61.2976 159.961 67.4669 162.773 74.2566C165.586 81.0463 167.033 88.3234 167.033 95.6725C167.033 126.541 127.543 165.969 113.408 179.891C112.786 180.502 111.949 180.844 111.078 180.844C110.206 180.844 109.369 180.502 108.747 179.891C102.763 174.051 96.9554 168.033 91.3325 161.844H91.0575C85.6498 161.313 80.3407 160.041 75.2794 158.063L74.3444 157.685C74.1279 157.585 73.8837 157.562 73.6525 157.621C73.4212 157.679 73.2168 157.814 73.0731 158.004C72.9294 158.194 72.8551 158.428 72.8625 158.666C72.8699 158.905 72.9586 159.133 73.1138 159.314C81.8653 169.772 91.1521 179.771 100.937 189.269C103.645 191.91 107.278 193.388 111.06 193.388C114.843 193.388 118.476 191.91 121.184 189.269C146.071 164.684 179.209 128.315 179.209 95.5969C179.168 57.9906 148.684 27.5275 111.078 27.5Z" fill="white"/>
<path d="M139.403 102.486C139.403 103.449 139.327 104.391 139.238 105.326C138.99 108.906 138.161 112.421 136.783 115.735C135.298 119.035 133.318 122.08 130.919 124.782L130.988 124.844C126.235 130.155 120.365 134.348 113.8 137.123C107.299 139.92 100.205 141.058 93.1547 140.436C86.4362 139.769 80.0147 137.332 74.5441 133.376C76.3109 133.321 78.0641 133.053 79.7691 132.578C81.3087 132.152 82.784 131.521 84.1553 130.701C87.1199 128.932 89.4198 126.235 90.7003 123.029C91.2984 121.565 91.7041 120.038 91.9241 118.471C92.0616 117.165 92.0959 115.838 92.0478 114.518V69.8989C92.0446 69.8554 92.0446 69.8118 92.0478 69.7683V69.5345C92.1475 68.9969 92.4146 68.5046 92.811 68.128C93.2073 67.7513 93.7127 67.5097 94.2547 67.4377H108.988C112.48 67.7127 115.897 68.627 119.06 70.1395C125.65 73.2556 131.163 78.2653 134.893 84.5289C135.8 86.0689 136.598 87.6777 137.265 89.3414C137.904 90.9914 138.413 92.7102 138.777 94.4427C139.142 96.1752 139.348 97.9352 139.396 99.702V102.493L139.403 102.486ZM151.53 99.2827C151.456 96.8067 151.159 94.3424 150.643 91.9195C149.621 87.1274 147.819 82.5356 145.308 78.3277C140.332 69.9586 132.964 63.2709 124.154 59.1258C119.652 56.9883 114.796 55.6972 109.827 55.317C109.201 55.317 108.596 55.317 107.908 55.2483H94.1722C93.7322 55.2483 93.2784 55.2483 92.8316 55.3445C91.0372 55.5508 89.2909 56.1008 87.6891 56.9533C85.487 58.1299 83.62 59.8469 82.2635 61.943C80.907 64.0391 80.1054 66.4456 79.9341 68.9364V114.518C79.9341 115.315 79.8791 116.113 79.7691 116.903C79.7003 117.44 79.5697 117.962 79.3772 118.471C79.2267 118.849 79.0179 119.202 78.7584 119.516C78.1243 120.196 77.3004 120.671 76.3934 120.877C75.0391 121.221 73.6434 121.331 72.2478 121.2C67.2697 120.713 62.5855 118.618 58.9034 115.233C57.8459 114.255 56.4753 113.684 55.0361 113.622C53.5969 113.561 52.1826 114.013 51.0455 114.897C49.9084 115.781 49.1224 117.041 48.8278 118.451C48.5331 119.861 48.7488 121.33 49.4366 122.596C53.7263 130.431 59.6148 137.278 66.7203 142.691C70.3849 145.425 74.3989 147.657 78.6553 149.326C82.9276 150.993 87.4083 152.066 91.9722 152.516C101.032 153.355 110.159 151.928 118.53 148.363C126.869 144.914 134.263 139.524 140.097 132.64L140.173 132.702C143.392 129.062 146.035 124.952 148.01 120.513C149.883 115.992 151.009 111.197 151.345 106.316C151.441 105.092 151.503 103.985 151.544 102.816V101.091C151.592 100.582 151.551 99.8877 151.544 99.2827H151.53Z" fill="white"/>
</g>
<defs>
<clipPath id="clip0_2_20760">
<rect width="220" height="220" fill="white" transform="translate(0.5)"/>
</clipPath>
</defs>
</svg>
