<svg width="221" height="220" viewBox="0 0 221 220" fill="none" xmlns="http://www.w3.org/2000/svg">
<g clip-path="url(#clip0_2_20754)">
<path d="M110.5 220C171.251 220 220.5 170.751 220.5 110C220.5 49.2487 171.251 0 110.5 0C49.7487 0 0.5 49.2487 0.5 110C0.5 170.751 49.7487 220 110.5 220Z" fill="#121747"/>
<path d="M124.47 157.231C124.47 165.102 118.145 171.489 110.335 171.489C102.525 171.489 96.2068 165.102 96.2068 157.224V62.4243C96.2068 54.5524 102.532 48.1655 110.335 48.1655C118.138 48.1655 124.47 54.5524 124.47 62.4312V157.231ZM76.8949 157.265C76.9407 159.781 76.319 162.264 75.0933 164.462C73.8676 166.66 72.0815 168.494 69.9168 169.777C67.7639 171.05 65.3089 171.721 62.808 171.721C60.3071 171.721 57.8521 171.05 55.6993 169.777C53.5358 168.493 51.7511 166.659 50.5266 164.461C49.3021 162.263 48.6815 159.78 48.728 157.265V135.952C48.6815 133.437 49.3021 130.954 50.5266 128.756C51.7511 126.558 53.5358 124.724 55.6993 123.44C57.8521 122.167 60.3071 121.496 62.808 121.496C65.3089 121.496 67.7639 122.167 69.9168 123.44C72.0802 124.724 73.8649 126.558 75.0894 128.756C76.3139 130.954 76.9345 133.437 76.888 135.952L76.8949 157.265Z" fill="white"/>
<path opacity="0.5" d="M172.073 119.624C172.073 127.496 165.748 133.883 157.938 133.883C150.128 133.883 143.803 127.489 143.803 119.617V83.6404C143.803 75.7616 150.128 69.3748 157.938 69.3748C165.748 69.3748 172.073 75.7616 172.073 83.6404V119.624Z" fill="white"/>
</g>
<defs>
<clipPath id="clip0_2_20754">
<rect width="220" height="220" fill="white" transform="translate(0.5)"/>
</clipPath>
</defs>
</svg>
