<svg width="221" height="220" viewBox="0 0 221 220" fill="none" xmlns="http://www.w3.org/2000/svg">
<g clip-path="url(#clip0_2_20750)">
<path d="M110.5 220C171.251 220 220.5 170.751 220.5 110C220.5 49.2487 171.251 0 110.5 0C49.7487 0 0.5 49.2487 0.5 110C0.5 170.751 49.7487 220 110.5 220Z" fill="#1693D4"/>
<path fill-rule="evenodd" clip-rule="evenodd" d="M68.755 113.946C68.5778 111.475 68.5663 108.994 68.7206 106.521H49.4706L28 89.3476H72.6463C76.8162 79.1754 83.9215 70.4758 93.056 64.3584C102.19 58.241 112.94 54.983 123.934 55.0001C154.486 55.0001 179.25 79.6263 179.25 110C179.25 140.374 154.486 165 123.934 165C113.026 165.016 102.357 161.809 93.2664 155.781C84.1757 149.754 77.069 141.174 72.8388 131.12H28L49.4706 113.946H68.755ZM155.442 111.024C155.442 105.318 154.672 100.341 153.125 96.0919C151.578 91.8432 149.433 88.2819 146.697 85.4357C143.954 82.5826 140.709 80.4307 136.948 78.9869C133.188 77.5432 129.111 76.8144 124.69 76.8144C119.919 76.8144 115.477 77.6257 111.366 79.2482C107.255 80.8707 103.701 83.1532 100.696 86.0888C97.6919 89.0313 95.3337 92.5788 93.6081 96.7451C91.8825 100.911 91.0231 105.545 91.0231 110.633C91.0231 115.803 91.8825 120.429 93.6081 124.506C95.3269 128.583 97.7125 132.028 100.758 134.833C103.811 137.644 107.413 139.81 111.566 141.35C115.944 142.924 120.567 143.704 125.219 143.653C137.148 143.653 146.257 139.439 152.527 131.017L141.919 122.602C140.152 125.146 137.904 127.139 135.161 128.583C132.424 130.027 129.062 130.756 125.089 130.756C122.792 130.756 120.579 130.364 118.461 129.573C116.344 128.783 114.439 127.71 112.755 126.349C111.064 125.003 109.672 123.319 108.668 121.405C107.665 119.491 107.071 117.388 106.925 115.232H155.311C155.401 114.531 155.442 113.829 155.442 113.128V111.024ZM139.533 103.916H106.925C107.282 99.4469 109.111 95.7826 112.425 92.9294C115.746 90.0832 119.781 88.6532 124.559 88.6532C127.117 88.6532 129.351 89.0657 131.249 89.9044C133.146 90.7432 134.721 91.8569 135.958 93.2594C137.196 94.6619 138.096 96.2844 138.674 98.1269C139.254 100.001 139.543 101.954 139.533 103.916Z" fill="white"/>
</g>
<defs>
<clipPath id="clip0_2_20750">
<rect width="220" height="220" fill="white" transform="translate(0.5)"/>
</clipPath>
</defs>
</svg>
