<svg width="221" height="220" viewBox="0 0 221 220" fill="none" xmlns="http://www.w3.org/2000/svg">
<g clip-path="url(#clip0_2_20746)">
<path d="M110.5 220C171.251 220 220.5 170.751 220.5 110C220.5 49.2487 171.251 0 110.5 0C49.7487 0 0.5 49.2487 0.5 110C0.5 170.751 49.7487 220 110.5 220Z" fill="#AA15DD"/>
<path d="M110.493 176.083C112.143 176.09 113.484 177.458 113.491 179.135C113.498 179.937 113.187 180.708 112.627 181.28C112.066 181.852 111.301 182.179 110.5 182.188C110.103 182.184 109.71 182.103 109.345 181.947C108.979 181.792 108.648 181.566 108.369 181.283C108.091 180.999 107.871 180.664 107.722 180.295C107.574 179.927 107.499 179.533 107.503 179.135C107.499 178.738 107.574 178.344 107.722 177.976C107.871 177.607 108.091 177.272 108.369 176.988C108.648 176.705 108.979 176.479 109.345 176.324C109.71 176.168 110.103 176.087 110.5 176.083H110.493ZM50.1308 78.0867C49.4363 77.6713 48.9322 77.0004 48.7266 76.2177C48.5209 75.435 48.6301 74.6029 49.0308 73.8998C49.325 73.3769 49.7693 72.9542 50.3063 72.6865C50.8433 72.4189 51.4483 72.3185 52.043 72.3985C52.6376 72.4785 53.1946 72.7351 53.6418 73.1351C54.0891 73.5352 54.4059 74.0602 54.5514 74.6423C54.7061 75.2265 54.6863 75.8431 54.4944 76.4161C54.3026 76.9891 53.9472 77.4934 53.4721 77.8667C53.0019 78.2351 52.4315 78.4532 51.8354 78.4925C51.2393 78.5317 50.6453 78.3903 50.1308 78.0867ZM50.1308 141.983C50.4728 141.785 50.8507 141.657 51.2426 141.606C51.6345 141.555 52.0327 141.582 52.4139 141.687C52.7951 141.791 53.1518 141.97 53.4633 142.213C53.7747 142.456 54.0348 142.759 54.2283 143.104C54.6261 143.804 54.7338 144.632 54.5282 145.411C54.3225 146.19 53.82 146.857 53.1283 147.27C52.7868 147.47 52.4088 147.6 52.0165 147.651C51.6242 147.703 51.2254 147.676 50.8437 147.572C50.462 147.467 50.105 147.288 49.7937 147.044C49.4823 146.799 49.223 146.495 49.0308 146.149C48.633 145.449 48.5253 144.62 48.731 143.842C48.9366 143.063 49.4391 142.396 50.1308 141.983ZM170.856 78.0867C170.514 78.2848 170.136 78.4131 169.744 78.464C169.352 78.5148 168.954 78.4874 168.573 78.3831C168.192 78.2788 167.835 78.0999 167.523 77.8566C167.212 77.6134 166.952 77.3107 166.758 76.9661C166.457 76.4405 166.316 75.8383 166.353 75.2337C166.39 74.6291 166.602 74.0484 166.965 73.563C167.322 73.0817 167.816 72.7193 168.383 72.5231C168.95 72.3269 169.562 72.306 170.141 72.463C170.722 72.6273 171.243 72.9592 171.637 73.4171C172.031 73.875 172.282 74.4389 172.358 75.0383C172.435 75.6378 172.333 76.2465 172.066 76.7885C171.798 77.3306 171.378 77.782 170.856 78.0867ZM110.5 43.918C109.706 43.8981 108.952 43.5669 108.4 42.9958C107.848 42.4247 107.543 41.6595 107.551 40.8655C107.551 39.628 108.293 38.5073 109.414 38.0398C109.966 37.8101 110.575 37.7528 111.16 37.8755C111.745 37.9983 112.28 38.2952 112.693 38.7273C113.111 39.1631 113.393 39.7117 113.502 40.3054C113.612 40.8991 113.546 41.512 113.312 42.0686C113.082 42.6229 112.691 43.0954 112.19 43.4251C111.689 43.7549 111.1 43.9265 110.5 43.918ZM164.125 141.502C163.396 142.788 163.149 144.291 163.429 145.743C163.709 147.194 164.497 148.499 165.651 149.422L116.488 178.297C116.299 176.841 115.589 175.504 114.489 174.532C113.389 173.56 111.975 173.019 110.507 173.01C109.039 173.019 107.625 173.56 106.525 174.532C105.426 175.504 104.715 176.841 104.526 178.297L55.3489 149.422C56.4997 148.497 57.2839 147.193 57.561 145.743C57.8381 144.294 57.5901 142.792 56.8614 141.509C56.15 140.231 54.996 139.259 53.6169 138.774C52.2377 138.289 50.7288 138.325 49.3746 138.875V81.1255C50.7272 81.6748 52.2339 81.711 53.6114 81.2274C54.9889 80.7437 56.1422 79.7735 56.8546 78.4992C57.5837 77.2184 57.8339 75.7203 57.5606 74.2721C57.2874 72.8239 56.5084 71.5199 55.3627 70.593L104.526 41.718C104.715 43.1733 105.426 44.5108 106.525 45.4828C107.625 46.4548 109.039 46.9955 110.507 47.0048C111.976 46.9953 113.391 46.4536 114.491 45.4802C115.591 44.5068 116.3 43.1677 116.488 41.7111L165.665 70.5861C164.516 71.5103 163.733 72.8129 163.456 74.2613C163.179 75.7096 163.426 77.2093 164.153 78.4923C164.864 79.7695 166.018 80.7423 167.397 81.2273C168.776 81.7124 170.285 81.6761 171.64 81.1255V138.841C170.279 138.29 168.764 138.256 167.381 138.747C165.997 139.237 164.842 140.217 164.132 141.502H164.125ZM122.105 132.654C116.764 135.794 110.445 136.833 104.379 135.57C98.3132 134.307 92.9346 130.831 89.2908 125.82L121.727 106.817L132.782 100.327L138.021 97.2336L138.323 97.0892L160.598 83.9855C161.973 83.1811 162.455 81.3936 161.671 79.9911C161.491 79.6545 161.244 79.3582 160.946 79.1206C160.647 78.8829 160.303 78.7088 159.935 78.609C159.566 78.5092 159.182 78.4857 158.804 78.5402C158.426 78.5946 158.063 78.7257 157.738 78.9255L141.362 88.5848C138.248 83.9271 134.158 80.0021 129.377 77.0818C124.595 74.1615 119.235 72.3157 113.67 71.6723V52.9105C113.673 52.5168 113.599 52.1263 113.452 51.7612C113.305 51.3962 113.087 51.0637 112.811 50.7828C112.535 50.5019 112.207 50.2781 111.845 50.1241C111.482 49.9701 111.093 49.889 110.7 49.8855C110.305 49.8882 109.916 49.9686 109.552 50.1222C109.189 50.2757 108.86 50.4994 108.584 50.7804C108.307 51.0614 108.089 51.3942 107.941 51.7597C107.793 52.1252 107.719 52.5162 107.723 52.9105V71.5005C101.613 71.7998 95.6676 73.5787 90.3977 76.6842C85.6415 79.4719 81.5313 83.2377 78.3389 87.7323L63.3239 78.9255C62.9968 78.7339 62.6347 78.6096 62.2589 78.5599C61.8831 78.5102 61.5012 78.536 61.1355 78.6359C60.7698 78.7358 60.4278 78.9078 60.1295 79.1417C59.8312 79.3756 59.5826 79.6667 59.3983 79.998C59.0196 80.6687 58.9177 81.4607 59.1142 82.2054C59.3106 82.9501 59.79 83.5888 60.4502 83.9855L75.3483 92.7442C72.1615 99.1327 70.76 106.264 71.2921 113.383L72.6739 121.248C73.2927 123.379 74.0696 125.455 75.0183 127.456L60.4502 136.015C59.7856 136.413 59.3038 137.056 59.1084 137.806C58.9129 138.555 59.0195 139.352 59.4052 140.024C59.5914 140.355 59.8417 140.646 60.1415 140.879C60.4413 141.112 60.7846 141.283 61.1514 141.383C61.5181 141.482 61.9009 141.507 62.2775 141.457C62.6541 141.406 63.0168 141.281 63.3446 141.089L77.9677 132.523C81.3139 137.41 85.7322 141.467 90.8854 144.386C96.0385 147.305 101.79 149.009 107.702 149.367V167.09C107.702 168.761 109.036 170.115 110.679 170.115C111.073 170.112 111.462 170.031 111.824 169.877C112.186 169.723 112.515 169.499 112.79 169.218C113.066 168.937 113.284 168.605 113.431 168.24C113.579 167.875 113.653 167.484 113.649 167.09V149.215C118.998 148.666 124.163 146.953 128.781 144.197C133.99 141.101 138.386 136.806 141.603 131.67L157.67 141.075C159.045 141.859 160.777 141.371 161.568 139.982C161.949 139.316 162.057 138.527 161.867 137.782C161.677 137.038 161.205 136.397 160.55 135.995L144.38 126.507C144.421 126.418 144.518 126.315 144.518 126.205C149.426 114.902 136.288 110.049 133.366 118.752C131.415 124.596 127.412 129.535 122.098 132.654H122.105ZM170.863 141.983C171.554 142.398 172.055 143.067 172.26 143.846C172.466 144.625 172.359 145.454 171.963 146.156C171.77 146.501 171.51 146.805 171.199 147.049C170.887 147.292 170.53 147.471 170.148 147.575C169.767 147.679 169.368 147.705 168.976 147.653C168.584 147.6 168.206 147.47 167.865 147.27C167.173 146.857 166.671 146.19 166.465 145.411C166.26 144.632 166.367 143.804 166.765 143.104C166.957 142.758 167.217 142.454 167.528 142.209C167.839 141.965 168.196 141.785 168.578 141.681C168.96 141.576 169.359 141.549 169.751 141.601C170.143 141.653 170.521 141.783 170.863 141.983ZM84.9527 114.036C84.6571 102.575 86.0183 94.5798 96.8739 88.1998C101.258 85.6198 106.326 84.4449 111.398 84.8333C116.47 85.2218 121.301 87.1549 125.24 90.3723L84.9527 114.036Z" fill="white"/>
</g>
<defs>
<clipPath id="clip0_2_20746">
<rect width="220" height="220" fill="white" transform="translate(0.5)"/>
</clipPath>
</defs>
</svg>
