<svg width="221" height="220" viewBox="0 0 221 220" fill="none" xmlns="http://www.w3.org/2000/svg">
<g clip-path="url(#clip0_2_20742)">
<path d="M110.5 220C171.251 220 220.5 170.751 220.5 110C220.5 49.2487 171.251 0 110.5 0C49.7487 0 0.5 49.2487 0.5 110C0.5 170.751 49.7487 220 110.5 220Z" fill="#2B1544"/>
<path d="M172.306 85.9505V131.71C172.306 133.745 172.409 135.822 171.948 137.822C170.906 142.451 168.508 146.664 165.06 149.922C163.437 151.483 161.416 152.494 159.484 153.635C146.373 161.266 133.304 168.918 120.2 176.563C116.199 178.701 111.469 179.065 107.028 178.515C104.708 178.233 102.466 177.499 100.428 176.357C86.6297 168.313 72.8315 160.249 59.0403 152.212C55.6715 150.335 53.1553 147.241 51.3059 143.914C49.7934 141.026 48.6865 137.85 48.6865 134.543V85.1392C48.9409 80.3267 51.0721 75.7686 54.104 72.1317C55.3327 70.5944 56.8192 69.2824 58.4971 68.2542C71.319 60.788 84.1409 53.2942 96.9559 45.8005C99.0665 44.6317 101.067 43.2017 103.35 42.418C107.209 41.2126 111.307 40.9812 115.278 41.7442C117.045 42.2392 118.846 42.7617 120.434 43.6967C134.39 51.8848 148.367 60.0111 162.317 68.2061C166.036 70.4061 168.765 74.0842 170.539 78.0098C171.66 80.4848 172.306 83.2142 172.306 85.9505ZM110.087 68.928C107.126 73.3183 103.698 77.3752 99.864 81.028C97.8565 82.9323 95.9247 84.988 94.7765 87.5386C93.8553 89.3398 93.2365 91.3886 93.4978 93.4511C93.8072 96.2286 95.7872 98.6761 98.3584 99.6661C100.971 100.711 103.927 100.477 106.526 99.4598C106.994 99.2511 107.511 99.1796 108.018 99.2536C107.509 102.512 105.529 105.262 103.962 108.074L104.03 108.542C105.447 110.054 106.938 111.484 108.348 112.969C108.705 113.306 109.035 113.774 109.53 113.932C111.173 112.66 112.459 110.989 113.972 109.587C114.308 109.202 115.003 108.782 114.638 108.184C113.174 105.434 111.552 102.65 111.091 99.4736C111.366 98.8273 112.143 99.3705 112.603 99.5286C115.044 100.725 117.993 100.904 120.544 99.9205C124.016 98.5936 126.175 94.5305 125.398 90.8592C124.807 87.5592 123.06 84.5342 120.695 82.2242C117.052 78.4773 113.552 74.4761 111.063 69.8423C110.975 69.6291 110.843 69.4371 110.674 69.2794C110.506 69.1217 110.306 69.0018 110.087 68.928ZM85.1103 113.684C80.9853 115.925 78.2284 120.319 77.5478 124.987C76.6059 131.539 80.4353 138.386 86.3684 141.067C90.1221 142.683 94.4809 142.649 98.2621 141.17C100.215 140.387 101.885 139.108 103.322 137.602C103.865 137.025 104.656 136.509 104.656 135.622C104.587 134.735 103.79 134.247 103.274 133.642C102.6 133.044 102.064 132.267 101.294 131.793C100.057 131.25 99.314 132.604 98.5165 133.278C95.3884 136.454 89.7578 136.482 86.554 133.381C85.5217 132.41 84.7446 131.199 84.2913 129.856C83.8381 128.513 83.7227 127.079 83.9553 125.681C84.3403 123.048 85.9078 120.552 88.2453 119.301C89.7578 118.545 91.4559 118.132 93.1265 118.208C95.4846 118.359 97.6434 119.61 99.2384 121.329C104.683 126.747 109.922 132.364 115.347 137.802C118.22 140.641 122.201 142.463 126.257 142.305C129.351 142.374 132.328 141.136 134.844 139.39C138.55 136.812 140.805 132.336 141.032 127.812C141.527 120.649 136.336 113.423 129.344 112.041C124.882 111.134 119.843 112.069 116.405 115.245C113.958 117.472 111.73 119.975 109.31 122.264C106.815 120.209 104.842 117.61 102.401 115.506C101.359 114.517 100.148 113.723 98.8259 113.162C98.5784 113.004 98.4959 112.928 98.1659 112.797C96.0733 111.908 93.8005 111.525 91.532 111.679C89.2636 111.833 87.0634 112.52 85.1103 113.684ZM119.74 120.917C121.52 119.143 124.037 118.105 126.546 118.311C129.268 118.387 131.908 119.844 133.352 122.189C135.607 125.626 134.947 130.569 132.046 133.402C129.062 136.296 123.947 136.66 120.737 133.924C118.351 131.896 116.35 129.476 114.068 127.345C114.04 127.194 114.013 126.905 113.985 126.774C115.89 124.794 117.835 122.897 119.74 120.917Z" fill="white"/>
</g>
<defs>
<clipPath id="clip0_2_20742">
<rect width="220" height="220" fill="white" transform="translate(0.5)"/>
</clipPath>
</defs>
</svg>
