<svg width="221" height="220" viewBox="0 0 221 220" fill="none" xmlns="http://www.w3.org/2000/svg">
<g clip-path="url(#clip0_2_20738)">
<path d="M110.5 220C171.251 220 220.5 170.751 220.5 110C220.5 49.2487 171.251 0 110.5 0C49.7487 0 0.5 49.2487 0.5 110C0.5 170.751 49.7487 220 110.5 220Z" fill="#242424"/>
<path d="M90.2872 164.135L108.733 145.593L127.254 164.135L115.436 175.973C114.557 176.855 113.512 177.555 112.362 178.032C111.211 178.51 109.978 178.755 108.733 178.755C107.487 178.755 106.254 178.51 105.104 178.032C103.954 177.555 102.909 176.855 102.03 175.973L90.2872 164.135ZM138.068 100.596L119.561 82.054L138.075 63.5122L156.583 82.054L138.068 100.596ZM133.469 158.092L114.955 139.55L164.661 89.7609L176.472 101.593C180.178 105.305 180.178 111.307 176.472 115.02L133.469 158.092ZM82.5735 156.18L64.066 137.638L113.69 87.9322L132.197 106.474L82.5735 156.18ZM56.2972 130.055L44.4791 118.217C42.7142 116.424 41.7325 114.004 41.7492 111.488C41.766 108.972 42.7799 106.566 44.5685 104.797L56.3797 92.9578L74.8941 111.507L56.2972 130.055ZM130.32 55.8878L80.6141 105.649L62.0997 87.1072L105.103 44.0284C105.982 43.1466 107.027 42.447 108.177 41.9697C109.327 41.4923 110.561 41.2466 111.806 41.2466C113.051 41.2466 114.284 41.4923 115.435 41.9697C116.585 42.447 117.63 43.1466 118.509 44.0284L130.32 55.8878Z" fill="white"/>
</g>
<defs>
<clipPath id="clip0_2_20738">
<rect width="220" height="220" fill="white" transform="translate(0.5)"/>
</clipPath>
</defs>
</svg>
