<svg width="221" height="220" viewBox="0 0 221 220" fill="none" xmlns="http://www.w3.org/2000/svg">
<g clip-path="url(#clip0_2_20734)">
<path d="M110.5 220C171.251 220 220.5 170.751 220.5 110C220.5 49.2487 171.251 0 110.5 0C49.7487 0 0.5 49.2487 0.5 110C0.5 170.751 49.7487 220 110.5 220Z" fill="#0FACF3"/>
<path d="M65.613 61.9861H102.958C117.767 61.9861 125.123 61.5186 136.164 62.5293C147.212 63.698 158.261 68.208 165.411 76.8499C173.832 86.8874 176.294 100.431 175.737 113.033C175.187 125.566 170.89 138.711 161.038 147.271C152.3 155.136 140.069 158.016 128.464 158.092C105.901 158.167 83.4124 158.092 60.8487 158.092C58.3874 157.934 55.6031 158.167 53.6987 156.456C50.3643 153.114 52.3512 145.951 57.6724 146.26C70.2262 145.875 82.8555 146.26 95.4162 146.026C95.1755 135.446 95.3337 124.865 95.3337 114.36C85.6399 114.277 76.0218 114.36 66.3349 114.36C64.1831 114.277 61.7974 114.277 60.1337 112.875C58.1468 111.087 58.1468 108.056 59.0199 105.725C60.1337 103.154 63.1518 102.686 65.6955 102.686C75.5474 102.604 85.4818 102.686 95.3268 102.686C95.4918 93.0336 95.1756 83.3811 95.4918 73.8111C84.4437 73.7355 73.4024 73.8111 62.3543 73.8111C59.893 73.7355 57.1155 73.7355 55.2043 72.0236C53.2243 69.4524 53.623 65.7949 55.2868 63.2236C58.463 61.6699 62.1205 61.9861 65.613 61.9861ZM109.159 102.686C113.683 102.762 118.214 102.37 122.744 102.996C128.148 103.772 128.148 113.267 122.662 114.044C118.214 114.745 113.607 114.277 109.077 114.36C109.159 123.538 109.077 132.647 109.077 141.826C109.159 143.386 109.235 145.717 111.222 145.875C116.626 146.342 121.328 146.184 127.433 146.184C136.487 146.576 146.023 143.778 152.376 137.157C158.893 130.234 161.279 120.589 161.437 111.397C161.677 101.208 159.766 90.0018 152.293 82.3705C145.549 75.523 135.381 73.1924 125.921 73.7355C120.531 73.7355 115.911 73.5774 110.906 74.0449C109.317 74.5124 109.235 76.458 109.159 77.8605V102.679V102.686Z" fill="white"/>
</g>
<defs>
<clipPath id="clip0_2_20734">
<rect width="220" height="220" fill="white" transform="translate(0.5)"/>
</clipPath>
</defs>
</svg>
