<svg width="221" height="220" viewBox="0 0 221 220" fill="none" xmlns="http://www.w3.org/2000/svg">
<g clip-path="url(#clip0_2_20724)">
<path d="M110.5 220C171.251 220 220.5 170.751 220.5 110C220.5 49.2487 171.251 0 110.5 0C49.7487 0 0.5 49.2487 0.5 110C0.5 170.751 49.7487 220 110.5 220Z" fill="#3FBADF"/>
<path d="M76.125 152.07L110.5 132.682V171.423L76.125 152.07ZM76.125 90.1949L110.5 70.8074V109.548L76.125 90.1949Z" fill="white" fill-opacity="0.4"/>
<path d="M179.25 132.207L144.875 152.049V112.957L179.25 132.207ZM179.25 70.3323L144.875 90.1735V51.0823L179.25 70.3323Z" fill="white" fill-opacity="0.7"/>
<path d="M76.125 152.048V112.978L110.5 132.709L76.125 152.048ZM76.125 90.1732V51.1025L110.5 70.8338L76.125 90.1732Z" fill="white" fill-opacity="0.8"/>
<path d="M144.875 152.049L110.5 132.716L144.875 112.957V152.049ZM144.875 90.1735L110.5 70.841L144.875 51.0823V90.1735Z" fill="white"/>
<path d="M144.875 152.049L110.5 171.422V132.716L144.875 152.049ZM144.875 90.1736L110.5 109.547V70.8411L144.875 90.1736Z" fill="white" fill-opacity="0.6"/>
<path d="M76.125 112.978V152.048L41.75 132.214L76.125 112.978ZM76.125 51.1025V90.1732L41.75 70.3388L76.125 51.1025Z" fill="white" fill-opacity="0.5"/>
</g>
<defs>
<clipPath id="clip0_2_20724">
<rect width="220" height="220" fill="white" transform="translate(0.5)"/>
</clipPath>
</defs>
</svg>
