<svg width="221" height="220" viewBox="0 0 221 220" fill="none" xmlns="http://www.w3.org/2000/svg">
<g clip-path="url(#clip0_2_20713)">
<path d="M110.5 220C171.251 220 220.5 170.751 220.5 110C220.5 49.2487 171.251 0 110.5 0C49.7487 0 0.5 49.2487 0.5 110C0.5 170.751 49.7487 220 110.5 220Z" fill="#2B5EBB"/>
<path fill-rule="evenodd" clip-rule="evenodd" d="M179.25 109.739C179.243 125.799 166.806 138.326 150.911 138.277C135.346 138.229 122.71 125.359 122.793 109.636C122.875 93.9199 135.649 81.1049 151.131 81.2081C166.937 81.3112 179.257 93.8168 179.25 109.739ZM62.9939 164.451C60.2467 164.453 57.5264 163.909 54.9908 162.852C52.4552 161.795 50.1547 160.245 48.2228 158.291C46.2908 156.338 44.7657 154.021 43.7361 151.474C42.7064 148.927 42.1926 146.201 42.2245 143.454C42.2589 131.726 51.4301 122.245 62.9595 122.513C66.2732 122.589 69.6007 123.826 72.832 124.837C77.4245 126.274 81.907 128.054 86.4857 129.553C89.3251 130.488 92.0407 129.828 94.5501 128.274C98.1939 126.006 101.288 123.269 103.261 119.254C105.254 115.171 109.792 113.651 113.828 115.384C117.568 116.992 119.513 121.069 118.434 125.029C117.217 129.477 113.553 131.87 108.988 131.072C104.938 130.364 100.923 129.058 96.812 130.55C89.4557 133.224 86.2245 139.316 83.8045 146.266C82.4845 150.068 81.082 154.062 78.717 157.197C74.922 162.257 69.3395 164.478 62.9939 164.451ZM62.5539 55.5643C71.952 55.5643 79.2738 61.0643 82.4639 70.1187C83.7289 73.6937 85.6264 77.0418 87.2489 80.4862C91.257 89.0112 101.315 89.8499 107.695 87.5193C113.346 85.4568 118.791 89.0868 118.922 94.9443C119.011 99.0006 116.928 101.957 113.119 103.153C109.751 104.198 105.956 102.775 103.893 99.7018C103.158 98.6018 102.47 97.4606 101.652 96.4225C96.042 89.3412 89.8132 87.485 81.3707 90.6612C78.4282 91.7612 75.6713 93.4112 72.9076 94.9443C70.4103 96.3667 67.6447 97.2548 64.7862 97.5522C61.9276 97.8497 59.0384 97.55 56.3018 96.6723C53.5651 95.7945 51.0406 94.3578 48.8884 92.4532C46.7361 90.5486 45.003 88.2176 43.7989 85.6081C37.2264 71.6518 47.2639 55.5643 62.5539 55.5643ZM128.073 164.932C127.99 172.625 121.713 178.888 114.219 178.751C106.98 178.613 100.93 172.377 100.744 165.365C100.545 157.431 106.375 150.976 114.481 150.9C122.236 150.824 128.162 157.218 128.079 164.925L128.073 164.932ZM100.834 55.1381C100.834 47.3556 106.925 41.1818 114.549 41.2506C121.961 41.3193 128.162 47.6649 128.1 55.1243C128.045 62.9687 122.174 69.2593 114.446 69.1149C105.653 68.9499 100.476 61.8618 100.834 55.1381Z" fill="white"/>
</g>
<defs>
<clipPath id="clip0_2_20713">
<rect width="220" height="220" fill="white" transform="translate(0.5)"/>
</clipPath>
</defs>
</svg>
