<svg width="221" height="220" viewBox="0 0 221 220" fill="none" xmlns="http://www.w3.org/2000/svg">
<g clip-path="url(#clip0_2_20705)">
<path d="M110.5 220C171.251 220 220.5 170.751 220.5 110C220.5 49.2487 171.251 0 110.5 0C49.7487 0 0.5 49.2487 0.5 110C0.5 170.751 49.7487 220 110.5 220Z" fill="#00ADED"/>
<path d="M69.917 162.271L69.9307 162.244L91.8482 109.884L69.917 57.5308L110.376 109.884L69.9445 162.237L69.917 162.271ZM150.877 162.271L150.849 162.237L110.418 109.884L150.877 57.5308L128.946 109.884L150.863 162.244L150.877 162.271Z" fill="white"/>
<path d="M110.397 109.888V146.367L69.9033 162.248L110.397 109.861V73.3822L150.891 57.501L110.397 109.888Z" fill="white" fill-opacity="0.8"/>
<path d="M110.397 146.368V178.344L69.9033 162.229L110.397 146.313V109.89L69.9033 57.5021L110.397 73.3833V41.4077L150.891 57.5158L110.397 73.4315V109.862L150.891 162.25L110.397 146.368Z" fill="white" fill-opacity="0.5"/>
<path d="M69.9033 57.5158L110.397 41.4077V73.4315L69.9033 57.5158ZM150.891 162.229L110.397 178.344V146.313L150.891 162.229Z" fill="white" fill-opacity="0.145"/>
</g>
<defs>
<clipPath id="clip0_2_20705">
<rect width="220" height="220" fill="white" transform="translate(0.5)"/>
</clipPath>
</defs>
</svg>
