<svg width="221" height="220" viewBox="0 0 221 220" fill="none" xmlns="http://www.w3.org/2000/svg">
<g clip-path="url(#clip0_2_20701)">
<path d="M110.5 220C171.251 220 220.5 170.751 220.5 110C220.5 49.2487 171.251 0 110.5 0C49.7487 0 0.5 49.2487 0.5 110C0.5 170.751 49.7487 220 110.5 220Z" fill="#396A28"/>
<path fill-rule="evenodd" clip-rule="evenodd" d="M124.752 90.8325L110.5 76.5875L96.1519 90.9287L81.2744 76.0513L110.5 34.375L139.925 75.6594L124.752 90.8325ZM91.1812 95.9062L77.0875 110L91.3325 124.252L76.51 139.074L34.875 110L76.0562 80.7812L91.1812 95.9062ZM129.571 124.348L143.913 110L129.722 95.81L145.026 80.5062L186.125 110L144.572 139.349L129.571 124.348ZM96.31 129.229L110.5 143.413L124.594 129.319L139.595 144.327L110.5 185.625L81.5975 143.935L96.31 129.229ZM110.5 86.1231L134.37 110L110.5 133.87L86.63 110L110.5 86.1231Z" fill="white"/>
</g>
<defs>
<clipPath id="clip0_2_20701">
<rect width="220" height="220" fill="white" transform="translate(0.5)"/>
</clipPath>
</defs>
</svg>
