<svg width="221" height="220" viewBox="0 0 221 220" fill="none" xmlns="http://www.w3.org/2000/svg">
<g clip-path="url(#clip0_2_20690)">
<path d="M110.5 220C171.251 220 220.5 170.751 220.5 110C220.5 49.2487 171.251 0 110.5 0C49.7487 0 0.5 49.2487 0.5 110C0.5 170.751 49.7487 220 110.5 220Z" fill="#00CCFF"/>
<path d="M54.7713 131.732H85.0006L71.9862 158.125H41.75L54.7713 131.732ZM71.9931 96.8069H102.229L89.2562 123.131H59.0063L72 96.8L71.9931 96.8069ZM89.2219 61.8819H119.458L106.471 88.2131H76.2419L89.2219 61.875V61.8819Z" fill="white" fill-opacity="0.4"/>
<path d="M84.905 131.725H115.141L102.12 158.111H71.8838L84.905 131.718V131.725ZM102.134 96.8H132.363L119.383 123.118H89.1469L102.134 96.8ZM119.356 61.875H149.592L136.605 88.1994H106.376L119.356 61.875Z" fill="white" fill-opacity="0.6"/>
<path d="M114.556 131.725H144.793L131.778 158.111H101.542L114.563 131.718L114.556 131.725ZM131.785 96.8H162.021L149.041 123.118H118.805L131.785 96.8ZM149.014 61.875H179.25L166.263 88.1994H136.034L149.014 61.875Z" fill="white"/>
</g>
<defs>
<clipPath id="clip0_2_20690">
<rect width="220" height="220" fill="white" transform="translate(0.5)"/>
</clipPath>
</defs>
</svg>
