<svg width="221" height="220" viewBox="0 0 221 220" fill="none" xmlns="http://www.w3.org/2000/svg">
<g clip-path="url(#clip0_2_20686)">
<path d="M110.5 220C171.251 220 220.5 170.751 220.5 110C220.5 49.2487 171.251 0 110.5 0C49.7487 0 0.5 49.2487 0.5 110C0.5 170.751 49.7487 220 110.5 220Z" fill="#2F2F2F"/>
<path fill-rule="evenodd" clip-rule="evenodd" d="M173.399 70.7781C174.183 71.1906 175.977 72.1669 175.805 74.2912L175.695 145.908C175.746 146.584 175.586 147.258 175.238 147.84C174.889 148.421 174.37 148.879 173.75 149.153L157.937 158.386L145.425 165.688L112.122 185.13C111.7 185.453 111.183 185.627 110.651 185.625C109.981 185.603 109.331 185.393 108.774 185.02L85.7978 171.765C73.0378 164.402 59.8378 156.784 46.8303 149.304C45.7372 148.775 45.0978 147.544 45.1941 146.142L45.2422 127.222C45.2835 110.199 45.311 92.9087 45.3247 76.1887V76.12C45.3343 76.0057 45.3365 75.8909 45.3316 75.7763V75.5631C45.3041 74.635 45.2628 72.7306 47.0503 71.8713C54.3378 67.5194 61.7903 63.0987 69.0022 58.8225L80.9441 51.7413C90.0329 46.3581 99.2866 40.865 108.238 35.5506L108.307 35.5094C108.892 35.1743 109.504 34.887 110.135 34.65L110.843 34.375L111.503 34.7669C118.007 38.5344 124.621 42.3844 131.008 46.1106L142.943 53.0544L154.596 59.8331L172.932 70.5031H172.945L172.959 70.5169L173.399 70.7781ZM113.112 178.509L133.476 166.616C145.824 159.418 158.169 152.215 170.512 145.007L170.58 104.796L170.615 78.2238L144.146 93.7062V105.916C144.116 113.536 144.13 121.156 144.187 128.776V129.298L143.878 129.724C143.54 130.178 143.109 130.553 142.613 130.824L142.434 130.934H142.427L133.875 135.919C130.781 137.706 127.584 139.562 124.456 141.398L113.153 147.964L113.112 178.509ZM84.2647 92.1937C90.0452 95.5163 95.8294 98.8323 101.617 102.142L110.582 107.291L136.549 92.1112L110.541 76.7663L84.2647 92.1937ZM81.5835 96.6625L82.0716 126.837L107.977 141.927L108.018 111.822L81.5835 96.6625ZM50.5085 78.8287L50.3778 145.344L107.949 178.551L107.97 147.95L96.6947 141.384L89.6272 137.266C86.0041 135.162 82.2572 132.983 78.5791 130.831C77.5135 130.329 76.8466 129.106 76.9222 127.765L76.3653 93.6719L50.5085 78.8287ZM168.03 73.7L157.93 67.815L146.779 61.3181C136.164 55.1581 123.576 47.8431 110.589 40.2394C97.4363 48.011 84.2913 55.7958 71.1541 63.5938L53.1003 74.2981L79.0741 89.1825L108.87 71.6856C109.385 71.354 109.987 71.1835 110.6 71.1957C111.212 71.208 111.807 71.4025 112.308 71.7544L141.705 89.0863L168.03 73.7ZM113.153 141.948C121.838 136.887 130.528 131.837 139.223 126.796V96.5938L113.174 111.815L113.153 141.948ZM148.402 136.496C148.143 136.575 147.874 136.614 147.604 136.613C147.239 136.618 146.877 136.55 146.539 136.412C146.201 136.274 145.894 136.068 145.638 135.809C145.223 135.435 144.913 134.959 144.738 134.429C144.563 133.898 144.53 133.331 144.641 132.784C144.757 132.069 145.121 131.417 145.669 130.943C146.217 130.47 146.914 130.203 147.638 130.192C148.484 130.192 149.309 130.577 149.907 131.244L149.914 131.257C150.327 131.722 150.598 132.296 150.693 132.911C150.788 133.526 150.704 134.155 150.45 134.723C150.276 135.161 150 135.551 149.643 135.86C149.286 136.169 148.86 136.387 148.402 136.496ZM162.592 146.176C162.19 145.863 161.872 145.456 161.666 144.991C161.46 144.525 161.372 144.016 161.409 143.509C161.464 142.416 162.028 141.446 162.935 140.896C163.385 140.603 163.911 140.445 164.448 140.442C165.039 140.442 165.617 140.628 166.125 140.972C166.635 141.306 167.037 141.78 167.283 142.338C167.53 142.895 167.61 143.512 167.514 144.114C167.424 144.87 167.06 145.568 166.492 146.076C165.923 146.583 165.189 146.866 164.427 146.871C163.752 146.868 163.1 146.622 162.592 146.176ZM71.9172 130.226C72.7766 130.226 73.5947 130.618 74.1653 131.299C74.5744 131.755 74.8422 132.32 74.9361 132.925C75.0301 133.531 74.9462 134.15 74.6947 134.709C74.4626 135.274 74.0655 135.756 73.5554 136.092C73.0452 136.428 72.4456 136.602 71.8347 136.592C71.3745 136.576 70.9237 136.457 70.5143 136.246C70.105 136.035 69.7471 135.737 69.4662 135.372C69.1853 135.007 68.9882 134.585 68.889 134.135C68.7898 133.685 68.7909 133.219 68.8922 132.77C69.0302 132.064 69.4056 131.427 69.9559 130.964C70.5062 130.502 71.1983 130.241 71.9172 130.226ZM154.115 141.061C153.678 140.696 153.346 140.222 153.152 139.687C152.958 139.152 152.908 138.576 153.008 138.016C153.119 137.288 153.481 136.622 154.031 136.133C154.58 135.643 155.284 135.361 156.019 135.334C156.775 135.334 157.504 135.637 158.082 136.173C158.955 136.984 159.319 138.16 159.03 139.26C158.934 139.777 158.705 140.259 158.365 140.659C158.025 141.06 157.586 141.364 157.092 141.542C156.598 141.735 156.061 141.792 155.538 141.708C155.014 141.623 154.523 141.4 154.115 141.061ZM65.3928 136.091C66.3072 136.847 66.7335 138.05 66.4997 139.164C66.4253 139.662 66.2262 140.134 65.921 140.536C65.6158 140.937 65.2142 141.255 64.7535 141.46H64.7466C64.3381 141.654 63.8925 141.757 63.4403 141.763C62.8995 141.755 62.3712 141.598 61.9141 141.309C61.4025 140.989 60.9913 140.532 60.7275 139.99C60.4636 139.448 60.3578 138.842 60.4222 138.243C60.4595 137.651 60.6668 137.082 61.0193 136.605C61.3717 136.129 61.8543 135.764 62.4091 135.554C62.7458 135.41 63.1083 135.335 63.4747 135.334C64.1622 135.334 64.8291 135.596 65.3928 136.091ZM110.149 42.3981C111.043 42.3981 111.888 42.7831 112.487 43.4569C113.222 44.2338 113.497 45.3131 113.222 46.3444C113.089 46.9415 112.776 47.4837 112.327 47.8988C111.877 48.314 111.312 48.5823 110.706 48.6681H110.672C110.05 48.7903 109.406 48.7233 108.822 48.4758C108.239 48.2282 107.743 47.8115 107.399 47.2794C107.109 46.8318 106.939 46.3169 106.907 45.7844C106.874 45.252 106.98 44.7202 107.213 44.2406L107.22 44.2269C107.442 43.7512 107.78 43.3389 108.203 43.0278C108.626 42.7167 109.12 42.5167 109.64 42.4462C109.81 42.4149 109.983 42.3988 110.156 42.3981H110.149ZM56.531 140.869C57.5278 141.432 58.1328 142.45 58.126 143.55C58.1554 144.104 58.0366 144.656 57.7816 145.149C57.5266 145.643 57.1447 146.059 56.6753 146.355C56.1764 146.682 55.5942 146.858 54.9978 146.864C54.5055 146.868 54.0211 146.74 53.5953 146.493C53.0961 146.216 52.6814 145.809 52.3956 145.315C52.1098 144.821 51.9637 144.258 51.9728 143.688C51.9728 142.498 52.5847 141.419 53.561 140.869C54.0091 140.598 54.5226 140.455 55.046 140.455C55.5694 140.455 56.0829 140.598 56.531 140.869ZM111.806 63.2844C112.291 63.5862 112.685 64.0145 112.945 64.5231C113.206 65.0318 113.323 65.6017 113.284 66.1719C113.246 66.7371 113.05 67.2805 112.72 67.7408C112.39 68.2011 111.937 68.5601 111.414 68.7775C110.982 68.9744 110.514 69.0776 110.039 69.08C109.334 69.0875 108.648 68.8547 108.093 68.42C107.67 68.1071 107.335 67.69 107.121 67.2094C106.906 66.7287 106.82 66.2008 106.87 65.6769C106.899 65.1572 107.062 64.6538 107.342 64.2154C107.623 63.777 108.012 63.4184 108.472 63.1744C108.944 62.9024 109.48 62.7601 110.025 62.7619C110.659 62.7608 111.28 62.9422 111.813 63.2844H111.806ZM107.887 58.0731C107.526 57.7556 107.246 57.3569 107.069 56.9099C106.892 56.463 106.824 55.9804 106.87 55.5019V55.4812C106.915 54.9885 107.074 54.513 107.336 54.0929C107.597 53.6727 107.953 53.3195 108.375 53.0612C108.872 52.7307 109.456 52.556 110.053 52.5594C110.603 52.5594 111.153 52.7037 111.655 52.9719L111.662 52.9787C112.167 53.2505 112.586 53.6575 112.872 54.1542C113.159 54.6508 113.302 55.2175 113.284 55.7906C113.279 56.3938 113.097 56.9822 112.761 57.4832C112.425 57.9841 111.95 58.3756 111.393 58.6094C110.962 58.8061 110.493 58.9092 110.018 58.9119C109.226 58.921 108.461 58.62 107.887 58.0731Z" fill="white"/>
</g>
<defs>
<clipPath id="clip0_2_20686">
<rect width="220" height="220" fill="white" transform="translate(0.5)"/>
</clipPath>
</defs>
</svg>
