<svg width="221" height="220" viewBox="0 0 221 220" fill="none" xmlns="http://www.w3.org/2000/svg">
<g clip-path="url(#clip0_2_20676)">
<path d="M110.5 220C171.251 220 220.5 170.751 220.5 110C220.5 49.2487 171.251 0 110.5 0C49.7487 0 0.5 49.2487 0.5 110C0.5 170.751 49.7487 220 110.5 220Z" fill="#624DBF"/>
<path d="M153.902 61.875C157.298 62.2669 160.736 62.48 164.091 63.085C170.739 64.3431 172.911 67.5056 171.784 73.92C171.33 76.5188 169.652 78.1206 166.985 78.5537C165.395 78.7776 163.792 78.8925 162.186 78.8975C140.372 78.9456 118.509 78.9869 96.695 79.0763C93.395 79.0763 90.1294 79.3787 86.9187 79.9013C76.0975 81.5925 72.0275 85.8825 71.12 96.3188C70.7075 101.221 70.7075 101.221 75.8294 101.221H165.397C166.806 101.262 168.161 101.523 169.336 102.252C173.324 104.686 172.327 108.494 172.1 112.008C171.921 114.826 170.154 116.38 167.122 116.944C165.849 117.139 164.561 117.226 163.272 117.205H73.9662C70.6662 117.205 70.7144 117.205 70.9825 120.326C71.2094 123.186 71.395 126.005 72.1169 128.776C73.4712 133.932 76.7781 137.136 82.12 138.566C88.0462 140.168 94.1581 140.518 100.27 140.559C121.582 140.69 142.861 140.649 164.18 140.649C166.896 140.649 169.426 140.993 171.014 143.378C174.094 147.971 171.694 154.378 166.304 156.028C161.691 157.458 156.844 157.802 152.046 157.85C132.039 158.194 112.033 158.242 92.0269 157.85C85.8571 157.691 79.7118 157.01 73.6569 155.815C59.3981 152.996 52.2894 146.066 49.89 132.371C49.3469 129.209 49.0306 126.005 48.625 122.836V97.8381C48.9 95.3631 49.12 92.9019 49.4431 90.475C51.3406 74.9581 58.5869 67.3338 74.5162 63.9581C80.1744 62.7413 85.9631 62.48 91.6694 61.9162C112.356 61.875 133.119 61.875 153.902 61.875Z" fill="white"/>
</g>
<defs>
<clipPath id="clip0_2_20676">
<rect width="220" height="220" fill="white" transform="translate(0.5)"/>
</clipPath>
</defs>
</svg>
