<svg width="221" height="220" viewBox="0 0 221 220" fill="none" xmlns="http://www.w3.org/2000/svg">
<g clip-path="url(#clip0_2_20680)">
<path d="M220.5 110C220.5 131.756 214.049 153.023 201.962 171.113C189.875 189.202 172.695 203.301 152.595 211.627C132.495 219.952 110.378 222.131 89.0401 217.886C67.7022 213.642 48.1021 203.166 32.7183 187.782C17.3345 172.398 6.85804 152.798 2.61367 131.46C-1.63071 110.122 0.547661 88.0047 8.8733 67.9048C17.1989 47.805 31.2979 30.6253 49.3873 18.5383C67.4767 6.45139 88.7441 0 110.5 0C139.674 0 167.653 11.5893 188.282 32.2183C208.911 52.8473 220.5 80.8262 220.5 110Z" fill="#9D4BEF"/>
<path fill-rule="evenodd" clip-rule="evenodd" d="M93.8564 53.9043C81.3872 53.9043 68.075 58.002 57.8092 67.9211C47.3948 77.9839 41.3359 92.8523 41.3359 111.986C41.3359 131.6 48.3429 145.788 59.5166 154.783C70.2234 163.402 83.3142 166.096 93.8564 166.096H179.665V142.096H93.8564C86.9192 142.096 79.7498 140.261 74.5662 136.088C71.1846 133.366 67.9074 129.066 66.323 121.897L179.664 121.897V97.8975L67.1509 97.8974C68.8491 92.0842 71.5576 88.01 74.4859 85.1806C79.5146 80.3216 86.4627 77.9043 93.8564 77.9043H179.665V53.9043H93.8564Z" fill="white"/>
</g>
<defs>
<clipPath id="clip0_2_20680">
<rect width="220" height="220" fill="white" transform="translate(0.5)"/>
</clipPath>
</defs>
</svg>
