<svg width="221" height="220" viewBox="0 0 221 220" fill="none" xmlns="http://www.w3.org/2000/svg">
<g clip-path="url(#clip0_2_20672)">
<path d="M110.5 220C171.251 220 220.5 170.751 220.5 110C220.5 49.2487 171.251 0 110.5 0C49.7487 0 0.5 49.2487 0.5 110C0.5 170.751 49.7487 220 110.5 220Z" fill="#FA5836"/>
<path d="M101.817 30.9511C101.074 31.0543 98.2072 31.5905 95.4503 32.0099C80.0641 34.6086 65.8534 42.1436 54.0766 53.9686C42.2516 65.7455 35.0328 79.3786 32.0078 95.6105C30.6328 102.987 30.6328 117.411 32.0078 124.788C35.0328 141.013 42.2516 154.646 54.0766 166.423C65.8534 178.248 79.4797 185.467 95.7116 188.492C103.088 189.867 117.512 189.867 124.889 188.492C141.114 185.467 154.754 178.248 166.531 166.423C178.356 154.646 185.575 141.02 188.6 124.788C189.975 117.411 189.975 102.987 188.6 95.6105C185.575 79.3855 178.356 65.7455 166.531 53.9686C155.015 42.4049 142.022 35.3511 126.271 32.1749C121.39 31.1643 105.158 30.3668 101.817 30.9511ZM130.142 59.0699C130.774 59.3311 130.987 60.1218 130.987 62.2461V65.113H127.646C123.404 65.113 120.063 66.7011 118.681 69.3549C117.78 71.053 117.725 73.1224 117.725 98.2643C117.725 113.114 117.519 125.579 117.306 125.95C116.192 127.648 108.025 128.129 104.36 126.692L102.875 126.108V98.6905C102.875 73.1155 102.82 71.053 101.92 69.3549C100.545 66.7011 97.1966 65.113 92.9547 65.113H89.6134V62.2461C89.6134 60.4449 89.8816 59.2761 90.3009 59.118C91.2634 58.6918 129.131 58.6918 130.142 59.063V59.0699ZM99.6922 81.1799V87.7111L98.1522 88.6049C95.8766 89.9386 92.0541 93.9124 90.5209 96.5111C89.5893 98.2149 88.8403 100.012 88.2866 101.874L87.4409 104.899H81.3428C74.3922 104.899 74.6053 105.16 76.0903 99.3299C77.9466 92.2693 82.4566 85.1055 87.9153 80.7605C90.9403 78.3199 97.6228 74.6555 98.9497 74.6555C99.5341 74.6555 99.6922 76.0374 99.6922 81.1868V81.1799ZM126.003 76.5186C130.535 78.7819 134.531 81.9872 137.724 85.9201C140.917 89.8529 143.233 94.4226 144.517 99.323C146.002 105.16 146.215 104.892 139.265 104.892H133.167L132.314 101.867C131.762 100.008 131.015 98.213 130.087 96.5111C128.547 93.9124 124.724 89.9386 122.448 88.6049L120.908 87.7111V81.1799C120.908 76.0374 121.067 74.6555 121.651 74.6555C122.022 74.6555 123.988 75.508 126.003 76.5118V76.5186ZM87.4959 109.883C87.4959 112.372 89.1391 117.466 90.8372 120.12C99.9053 134.489 120.695 134.489 129.77 120.12C131.468 117.466 133.112 112.372 133.112 109.876V108.075H145.789L145.521 110.832C144.194 123.722 137.085 134.124 125.948 139.638C120.805 142.182 116.295 143.247 110.3 143.247C91.7378 143.247 77.0459 129.717 75.0797 110.832L74.8184 108.082H87.4959V109.883ZM117.993 148.232C118.681 151.944 122.503 154.227 128.23 154.227H130.987V160.057H89.6134V154.378L93.4841 154.117C95.9797 153.959 97.9941 153.484 99.1078 152.845C100.758 151.889 102.875 148.706 102.875 147.221C102.875 146.692 104.573 146.534 110.245 146.534H117.67L117.993 148.232Z" fill="#FEFFFF"/>
</g>
<defs>
<clipPath id="clip0_2_20672">
<rect width="220" height="220" fill="white" transform="translate(0.5)"/>
</clipPath>
</defs>
</svg>
