<svg width="221" height="220" viewBox="0 0 221 220" fill="none" xmlns="http://www.w3.org/2000/svg">
<g clip-path="url(#clip0_2_20666)">
<path d="M110.5 220C171.251 220 220.5 170.751 220.5 110C220.5 49.2487 171.251 0 110.5 0C49.7487 0 0.5 49.2487 0.5 110C0.5 170.751 49.7487 220 110.5 220Z" fill="#443F54"/>
<path opacity="0.7" d="M107.117 183.617C97.3819 177.691 85.5363 170.5 75.8081 164.573C71.5731 162.037 66.9256 159.5 62.6906 156.537C60.9994 155.272 60.9994 154 60.9994 153.154C65.2275 133.272 69.8819 111.698 74.5431 92.2278L71.5731 82.9259C71.5731 82.9259 61.4256 131.573 56.345 153.154C55.4994 156.11 56.345 157.808 59.3013 159.5C75.8013 169.228 109.228 190.382 109.228 190.382L107.117 183.617ZM115.154 183.617C124.882 177.691 136.728 170.5 146.463 164.573C150.691 162.037 155.345 159.5 159.573 156.537C161.271 155.272 161.271 154 161.271 153.154C157.036 133.272 152.382 111.698 147.728 92.2278L151.117 83.3453C151.117 83.3453 161.271 131.573 165.926 153.154C166.771 156.11 165.926 157.808 162.963 159.5C146.463 169.228 113.036 190.382 113.036 190.382L115.154 183.617ZM147.308 83.7715L145.617 81.2278H77.0731L75.3819 83.7715C75.3819 83.7715 76.6538 87.154 76.2275 85.8822H146.882C146.036 86.7278 147.308 83.7715 147.308 83.7715Z" fill="#FEFFFE"/>
<path d="M149.425 79.9562C149.425 79.9562 126.153 46.1243 115.999 31.3156C113.882 28.7718 112.617 27.5068 111.345 27.5068C110.073 27.5068 108.388 28.7787 106.69 31.3156C96.5359 45.6981 73.2709 79.97 73.2709 79.97C71.1534 82.9262 71.1534 83.7787 72.8446 87.5806C72.8446 87.5806 89.3446 133.279 96.1165 153.581C99.499 162.889 108.382 189.544 108.382 189.544C108.808 190.389 110.499 190.816 111.345 190.816C112.452 190.764 113.502 190.312 114.301 189.544C114.301 189.544 123.617 162.889 126.573 153.587C133.345 133.698 149.845 87.5875 149.845 87.5875C151.536 83.7787 151.536 82.9331 149.425 79.97V79.9562ZM111.345 175.574C100.568 144.851 89.8498 114.109 79.1903 83.3456C79.1903 83.3456 102.036 49.9262 110.925 36.8018C119.808 49.9262 142.653 83.3456 142.653 83.3456C142.653 83.3456 121.073 146.802 111.345 175.574Z" fill="#FEFFFE"/>
</g>
<defs>
<clipPath id="clip0_2_20666">
<rect width="220" height="220" fill="white" transform="translate(0.5)"/>
</clipPath>
</defs>
</svg>
