<svg width="221" height="220" viewBox="0 0 221 220" fill="none" xmlns="http://www.w3.org/2000/svg">
<g clip-path="url(#clip0_2_20654)">
<path d="M110.5 220C171.251 220 220.5 170.751 220.5 110C220.5 49.2487 171.251 0 110.5 0C49.7487 0 0.5 49.2487 0.5 110C0.5 170.751 49.7487 220 110.5 220Z" fill="#C9A35E"/>
<path d="M69.4358 133.237C69.2269 133.669 68.9008 134.034 68.4948 134.289C68.0888 134.544 67.6191 134.68 67.1395 134.681H39.1376C38.6992 134.678 38.2691 134.561 37.8894 134.342C37.5097 134.123 37.1936 133.808 36.972 133.43C36.7357 133.048 36.6048 132.61 36.5927 132.161C36.5806 131.711 36.6878 131.267 36.9033 130.872L87.8058 39.1188C88.7201 37.4756 91.3464 37.4756 92.2608 39.1188L131.943 110.468C132.142 110.867 132.24 111.309 132.228 111.755C132.216 112.201 132.095 112.637 131.875 113.025C131.664 113.413 131.351 113.735 130.968 113.954C130.586 114.174 130.15 114.283 129.709 114.269H118.104C117.651 114.263 117.208 114.139 116.818 113.91C116.428 113.681 116.103 113.355 115.876 112.963L90.0951 66.0756L61.2476 119.391H72.2614C72.6912 119.394 73.1138 119.503 73.4915 119.708C73.8693 119.913 74.1906 120.208 74.427 120.567C74.6568 120.938 74.7892 121.362 74.812 121.798C74.8348 122.234 74.7474 122.669 74.5576 123.062L69.4426 133.224L69.4358 133.237ZM184.07 130.872C184.3 131.262 184.415 131.709 184.403 132.161C184.391 132.614 184.252 133.053 184.001 133.43C183.791 133.817 183.478 134.138 183.097 134.357C182.716 134.577 182.282 134.687 181.842 134.674H105.44C104.762 134.674 104.111 134.405 103.632 133.925C103.152 133.446 102.883 132.795 102.883 132.117V121.963C102.883 120.519 104.058 119.405 105.44 119.405H159.808L131.015 66.275L125.57 77.1581C124.656 78.8631 121.837 78.8631 120.985 77.1581L115.87 66.9969C115.707 66.6359 115.623 66.2446 115.623 65.8488C115.623 65.4529 115.707 65.0616 115.87 64.7006L128.588 39.1944C128.81 38.7926 129.132 38.4546 129.522 38.2127C129.912 37.9707 130.357 37.8329 130.816 37.8125C131.279 37.8135 131.734 37.9343 132.136 38.1632C132.538 38.3921 132.875 38.7213 133.112 39.1188L184.07 130.872ZM150.953 141.034L163.603 163.989C163.828 164.378 163.947 164.819 163.947 165.268C163.947 165.717 163.828 166.159 163.603 166.547C163.393 166.934 163.08 167.255 162.699 167.474C162.318 167.694 161.884 167.804 161.444 167.791H59.5358C59.0821 167.786 58.6377 167.662 58.246 167.433C57.8543 167.204 57.5288 166.878 57.3014 166.485C57.0846 166.09 56.9768 165.644 56.9888 165.194C57.0009 164.743 57.1325 164.304 57.3701 163.921L77.7614 130.804L98.0908 95.1912C98.5514 94.3456 99.4658 93.8162 100.387 93.885C100.853 93.8734 101.311 93.9971 101.708 94.2412C102.105 94.4853 102.422 94.8392 102.621 95.26L107.736 105.428C107.936 105.804 108.034 106.225 108.022 106.651C108.01 107.076 107.888 107.491 107.668 107.855L81.8314 152.446H139.148L133.834 143.591C133.583 143.215 133.444 142.775 133.431 142.322C133.419 141.87 133.535 141.423 133.765 141.034C133.993 140.641 134.318 140.314 134.71 140.085C135.101 139.856 135.546 139.733 136 139.727H148.718C149.64 139.727 150.492 140.25 150.953 141.034Z" fill="white"/>
</g>
<defs>
<clipPath id="clip0_2_20654">
<rect width="220" height="220" fill="white" transform="translate(0.5)"/>
</clipPath>
</defs>
</svg>
