<svg width="221" height="220" viewBox="0 0 221 220" fill="none" xmlns="http://www.w3.org/2000/svg">
<g clip-path="url(#clip0_2_20650)">
<path d="M110.5 220C171.251 220 220.5 170.751 220.5 110C220.5 49.2487 171.251 0 110.5 0C49.7487 0 0.5 49.2487 0.5 110C0.5 170.751 49.7487 220 110.5 220Z" fill="#F68922"/>
<path d="M115.45 69.2851C115.45 69.2851 87.0768 73.4514 82.9449 104.987C82.9449 104.987 78.5586 140.283 114.625 149.812C117.123 150.468 119.694 150.798 122.277 150.795H124.051C127.722 150.795 131.242 152.266 133.841 154.879C136.439 157.491 137.897 161.039 137.897 164.738C137.921 168.239 136.619 171.619 134.251 174.198C131.884 176.778 128.627 178.364 125.137 178.639C107.406 179.835 83.6118 171.131 68.1705 150.204C68.1705 150.204 37.9274 106.719 70.8861 66.762C78.6638 57.263 88.8051 49.9789 100.291 45.642C113.834 40.5751 133.676 37.3163 150.897 50.8395C150.897 50.8395 173.949 68.6939 162.131 97.8439C162.131 97.8439 153.854 121.047 125.487 122.834L121.548 122.614C119.682 122.565 117.848 122.116 116.171 121.296C114.494 120.476 113.012 119.306 111.827 117.864C110.636 116.416 109.767 114.73 109.277 112.92C108.787 111.11 108.689 109.217 108.987 107.366C109.464 104.36 110.972 101.615 113.253 99.6013C115.534 97.5875 118.445 96.4313 121.486 96.3314L125.487 96.0564C125.487 96.0564 139.079 95.4651 137.897 79.3982C137.897 79.3982 136.714 65.1189 115.443 69.292" fill="white"/>
</g>
<defs>
<clipPath id="clip0_2_20650">
<rect width="220" height="220" fill="white" transform="translate(0.5)"/>
</clipPath>
</defs>
</svg>
