<svg width="221" height="220" viewBox="0 0 221 220" fill="none" xmlns="http://www.w3.org/2000/svg">
<g clip-path="url(#clip0_2_20642)">
<path d="M110.5 220C171.251 220 220.5 170.751 220.5 110C220.5 49.2487 171.251 0 110.5 0C49.7487 0 0.5 49.2487 0.5 110C0.5 170.751 49.7487 220 110.5 220Z" fill="#328332"/>
<path d="M110.424 113.802L64.2175 109.835L110.417 83.6962V113.802H110.424ZM110.424 144.464V192.177C94.3575 167.166 76.6475 139.638 62.375 117.356C79.2188 126.844 96.805 136.764 110.424 144.471V144.464ZM110.424 75.2469L62.375 102.059L110.424 27.5V75.2469Z" fill="white"/>
<path d="M156.632 109.835L110.425 113.802V83.6962L156.625 109.835H156.632ZM110.425 144.471C124.037 136.771 141.617 126.844 158.467 117.356C144.195 139.645 126.485 167.173 110.425 192.17V144.471ZM110.425 75.2469V27.5L158.467 102.059L110.425 75.2469Z" fill="white" fill-opacity="0.601"/>
<path opacity="0.2" fill-rule="evenodd" clip-rule="evenodd" d="M110.425 113.802L156.625 109.835L110.425 135.789V113.802Z" fill="white"/>
<path opacity="0.603" fill-rule="evenodd" clip-rule="evenodd" d="M110.417 113.802L64.21 109.835L110.417 135.789V113.802Z" fill="white"/>
</g>
<defs>
<clipPath id="clip0_2_20642">
<rect width="220" height="220" fill="white" transform="translate(0.5)"/>
</clipPath>
</defs>
</svg>
