<svg width="221" height="220" viewBox="0 0 221 220" fill="none" xmlns="http://www.w3.org/2000/svg">
<g clip-path="url(#clip0_2_20623)">
<path d="M110.5 220C171.251 220 220.5 170.751 220.5 110C220.5 49.2487 171.251 0 110.5 0C49.7487 0 0.5 49.2487 0.5 110C0.5 170.751 49.7487 220 110.5 220Z" fill="#627EEA"/>
<path d="M113.924 27.5V88.4813L165.466 111.512L113.924 27.5Z" fill="white" fill-opacity="0.602"/>
<path d="M113.924 27.5L62.375 111.512L113.924 88.4813V27.5Z" fill="white"/>
<path d="M113.924 151.031V192.467L165.5 121.111L113.924 151.031Z" fill="white" fill-opacity="0.602"/>
<path d="M113.924 192.467V151.024L62.375 121.111L113.924 192.467Z" fill="white"/>
<path d="M113.924 141.44L165.466 111.513L113.924 88.4954V141.44Z" fill="white" fill-opacity="0.2"/>
<path d="M62.375 111.513L113.924 141.44V88.4954L62.375 111.513Z" fill="white" fill-opacity="0.602"/>
</g>
<defs>
<clipPath id="clip0_2_20623">
<rect width="220" height="220" fill="white" transform="translate(0.5)"/>
</clipPath>
</defs>
</svg>
