<svg width="221" height="220" viewBox="0 0 221 220" fill="none" xmlns="http://www.w3.org/2000/svg">
<g clip-path="url(#clip0_2_20617)">
<path d="M110.5 220C171.251 220 220.5 170.751 220.5 110C220.5 49.2487 171.251 0 110.5 0C49.7487 0 0.5 49.2487 0.5 110C0.5 170.751 49.7487 220 110.5 220Z" fill="#00FFBA"/>
<path d="M75.2379 74.9639C73.3499 76.8959 72.1863 79.42 71.9433 82.1103C71.7003 84.8006 72.3929 87.4924 73.9041 89.7314C74.9726 91.3394 76.4244 92.6564 78.1286 93.5638C79.8328 94.4711 81.7359 94.9402 83.6666 94.9289C87.657 94.9298 91.4837 96.5159 94.3047 99.3382C97.1257 102.16 98.71 105.988 98.7091 109.978C98.7082 113.969 97.1221 117.795 94.2998 120.616C91.4775 123.437 87.6502 125.022 83.6597 125.021C75.3592 125.024 67.2454 122.558 60.3502 117.937C53.455 113.316 48.09 106.749 44.9376 99.07C41.7853 91.3914 40.988 82.9487 42.6472 74.8158C44.3064 66.6828 48.3471 59.2271 54.2554 53.397C61.6566 46.0762 71.5217 41.7785 81.9228 41.3437C92.3239 40.9089 102.513 44.3683 110.5 51.0458C105.799 54.9756 102.019 59.8899 99.4272 65.4413C96.835 70.9928 95.4938 77.0458 95.4985 83.1726C95.4966 87.1479 97.0683 90.9623 99.8703 93.7823C102.672 96.6022 106.476 98.1984 110.452 98.222C108.476 98.222 106.519 97.8327 104.693 97.0763C102.868 96.3199 101.209 95.2113 99.8125 93.8137C98.4156 92.4162 97.3077 90.7571 96.5522 88.9313C95.7966 87.1054 95.4082 85.1486 95.4091 83.1726C95.4207 80.8333 94.7258 78.5449 93.4154 76.607C92.1353 74.7122 90.3353 73.2273 88.2316 72.3308C86.7835 71.7249 85.2294 71.4129 83.6597 71.4129C82.09 71.4129 80.5359 71.7249 79.0879 72.3308C77.6419 72.9432 76.3329 73.8384 75.2379 74.9639ZM175.888 120.531C179.085 128.111 179.98 136.464 178.462 144.549C176.944 152.634 173.079 160.093 167.349 165.996C161.548 171.973 154.095 176.083 145.943 177.797C137.792 179.512 129.315 178.754 121.597 175.62C113.88 172.487 107.273 167.12 102.625 160.209C97.9763 153.297 95.4973 145.155 95.5054 136.825C95.4625 134.823 95.8199 132.833 96.5564 130.971C97.293 129.109 98.3939 127.412 99.7947 125.981C101.195 124.55 102.868 123.413 104.714 122.637C106.56 121.861 108.542 121.461 110.544 121.461C112.547 121.461 114.529 121.861 116.375 122.637C118.221 123.413 119.893 124.55 121.294 125.981C122.695 127.412 123.796 129.109 124.532 130.971C125.269 132.833 125.626 134.823 125.583 136.825C125.572 139.141 126.249 141.407 127.528 143.338C128.807 145.268 130.631 146.775 132.768 147.667C135.724 148.905 139.045 148.891 141.987 147.633C144.801 146.414 147.031 144.152 148.209 141.321C149.384 138.451 149.382 135.234 148.204 132.365C147.025 129.496 144.765 127.206 141.912 125.99C140.465 125.378 138.91 125.065 137.34 125.069C133.349 125.069 129.522 123.484 126.701 120.662C123.879 117.84 122.294 114.013 122.294 110.023C122.294 106.033 123.879 102.206 126.701 99.3839C129.522 96.5622 133.349 94.977 137.34 94.977C145.565 94.9725 153.61 97.3947 160.465 101.94C167.321 106.486 172.683 112.953 175.881 120.531H175.888Z" fill="white"/>
<path opacity="0.7" d="M110.458 121.781C118.763 121.781 125.5 128.519 125.5 136.824C125.506 145.167 123.017 153.32 118.353 160.238C113.69 167.155 107.064 172.52 99.3282 175.643C91.5922 178.767 83.0991 179.506 74.94 177.766C66.7808 176.025 59.3283 171.885 53.5398 165.878C47.8381 159.967 44.0015 152.509 42.5082 144.433C41.0149 136.357 41.9308 128.021 45.1418 120.462C48.3529 112.903 53.7171 106.456 60.5662 101.924C67.4154 97.3921 75.4465 94.9756 83.6592 94.9757C87.6497 94.9757 91.4766 96.5609 94.2983 99.3826C97.12 102.204 98.7052 106.031 98.7052 110.022C98.7052 114.012 97.12 117.839 94.2983 120.661C91.4766 123.482 87.6497 125.068 83.6592 125.068C81.3217 125.061 79.0392 125.755 77.1005 127.061C75.2043 128.343 73.7193 130.146 72.8242 132.252C71.9302 134.374 71.679 136.712 72.1019 138.975C72.5248 141.239 73.6031 143.328 75.203 144.984V144.998C77.119 146.988 79.6755 148.237 82.4222 148.526C85.1689 148.815 87.9296 148.126 90.218 146.579C91.8217 145.507 93.135 144.054 94.0407 142.351C94.9464 140.647 95.4164 138.746 95.4086 136.817C95.4086 128.519 102.146 121.781 110.458 121.781ZM174.574 64.0589C177.845 70.4403 179.423 77.5548 179.155 84.7207C178.887 91.8867 176.783 98.8637 173.045 104.983C169.307 111.103 164.06 116.16 157.807 119.669C151.553 123.179 144.503 125.023 137.332 125.026C133.341 125.026 129.513 123.441 126.691 120.619C123.869 117.796 122.283 113.968 122.283 109.977C122.283 105.986 123.869 102.158 126.691 99.3355C129.513 96.5132 133.341 94.9276 137.332 94.9276C139.646 94.9298 141.909 94.2493 143.837 92.9713C145.766 91.6933 147.275 89.8747 148.174 87.7432C148.836 86.1605 149.145 84.4529 149.081 82.7386C149.017 81.0244 148.581 79.3447 147.803 77.8157C147.05 76.332 145.99 75.0255 144.693 73.9831C143.397 72.9407 141.893 72.1864 140.282 71.7702C138.671 71.3539 136.99 71.2854 135.351 71.5691C133.711 71.8529 132.151 72.4824 130.774 73.4157C129.168 74.4865 127.852 75.9387 126.945 77.6424C126.038 79.3461 125.568 81.2481 125.576 83.1782C125.618 85.1803 125.261 87.1706 124.524 89.0325C123.787 90.8944 122.685 92.5905 121.284 94.0212C119.883 95.4519 118.211 96.5884 116.365 97.3642C114.518 98.1399 112.536 98.5393 110.534 98.5389C108.531 98.5384 106.549 98.1381 104.703 97.3615C102.857 96.5849 101.185 95.4476 99.7848 94.0163C98.3844 92.5849 97.2839 90.8884 96.5477 89.0261C95.8116 87.1639 95.4547 85.1734 95.498 83.1714C95.4931 75.4138 97.6453 67.8078 101.714 61.2029C105.783 54.5981 111.608 49.2547 118.539 45.7698C125.47 42.2848 133.233 40.7956 140.961 41.4685C148.689 42.1414 156.078 44.9498 162.302 49.5801L162.33 49.6007C167.458 53.4243 171.644 58.3697 174.567 64.0589H174.574Z" fill="white"/>
</g>
<defs>
<clipPath id="clip0_2_20617">
<rect width="220" height="220" fill="white" transform="translate(0.5)"/>
</clipPath>
</defs>
</svg>
