<svg width="221" height="220" viewBox="0 0 221 220" fill="none" xmlns="http://www.w3.org/2000/svg">
<g clip-path="url(#clip0_2_20613)">
<path d="M110.5 220C171.251 220 220.5 170.751 220.5 110C220.5 49.2487 171.251 0 110.5 0C49.7487 0 0.5 49.2487 0.5 110C0.5 170.751 49.7487 220 110.5 220Z" fill="#23BEE2"/>
<path d="M137.168 92.5994L159.436 69.1419C169.02 80.5841 174.262 95.0399 174.238 109.966C174.238 145.145 145.707 173.669 110.5 173.669C99.7585 173.682 89.1894 170.969 79.7825 165.784L136.419 136.592L145.645 131.835L137.099 125.929L130.994 121.708L148.801 112.619L157.656 108.096L149.722 102.101L137.168 92.5994ZM83.8319 130.646L63.0694 152.508C52.5535 140.836 46.7426 125.676 46.7619 109.966C46.7619 74.7794 75.2931 46.255 110.5 46.255C122.427 46.2389 134.116 49.5843 144.229 55.9075L84.5813 86.6525L75.355 91.4169L83.9006 97.3156L90.0056 101.537L72.1994 110.632L63.3444 115.149L71.2781 121.151L83.8319 130.646ZM59.185 156.612L54.8881 161.136C42.0085 147.21 34.8609 128.935 34.875 109.966C34.875 68.2825 68.8031 34.375 110.5 34.375C127.639 34.375 143.473 40.1087 156.171 49.7544L149.969 52.9513C138.384 44.8982 124.609 40.5889 110.5 40.6038C72.2406 40.6038 41.1106 71.72 41.1106 109.966C41.1106 127.909 47.9581 144.279 59.1919 156.606L59.185 156.612ZM163.328 65.0375L167.645 60.5C179.579 74.2145 186.143 91.786 186.125 109.966C186.125 151.642 152.197 185.549 110.5 185.549C95.1345 185.567 80.132 180.879 67.5106 172.116L73.8631 168.836C84.8491 175.701 97.5456 179.334 110.5 179.321C148.759 179.321 179.889 148.204 179.889 109.966C179.889 92.8469 173.654 77.1581 163.328 65.0444V65.0375ZM75.0388 116.187L102.133 102.348L87.4413 92.2006L168.773 50.2769L127.846 93.3694L145.961 107.071L118.867 120.911L133.559 131.058L52.2275 172.982L93.1544 129.889L75.0388 116.187Z" fill="white"/>
</g>
<defs>
<clipPath id="clip0_2_20613">
<rect width="220" height="220" fill="white" transform="translate(0.5)"/>
</clipPath>
</defs>
</svg>
