<svg width="221" height="220" viewBox="0 0 221 220" fill="none" xmlns="http://www.w3.org/2000/svg">
<g clip-path="url(#clip0_2_20609)">
<path d="M110.5 220C171.251 220 220.5 170.751 220.5 110C220.5 49.2487 171.251 0 110.5 0C49.7487 0 0.5 49.2487 0.5 110C0.5 170.751 49.7487 220 110.5 220Z" fill="#00A5FF"/>
<path fill-rule="evenodd" clip-rule="evenodd" d="M124.8 86.4462C124.78 92.5856 124.739 98.7181 124.732 104.851C124.725 115.053 124.711 125.262 124.759 135.465C124.759 136.702 124.415 137.438 123.336 138.091C119.142 140.614 115.017 143.247 110.59 146.018V143.784C110.59 127.992 110.569 112.193 110.617 96.4012C110.624 95.0881 110.274 94.3456 109.091 93.7062C105.413 91.7124 101.817 89.5674 98.1873 87.4912C97.7886 87.2643 97.3623 87.0787 96.7505 86.7762V88.9418C96.7505 103.097 96.723 117.253 96.7917 131.402C96.7917 132.825 96.338 133.567 95.1417 134.234C91.5323 136.228 88.0055 138.359 84.4373 140.436C83.9355 140.724 83.4061 140.979 82.6086 141.398V139.198C82.6086 124.981 82.5742 110.763 82.6567 96.5524C82.6636 94.9024 82.1067 94.0774 80.7317 93.3212C76.7167 91.0799 72.7774 88.7012 68.6042 86.2606C73.2242 83.5999 77.6655 81.0149 82.1549 78.5331C82.5673 78.3062 83.4267 78.6018 83.9424 78.8974C87.8542 81.0974 91.7523 83.3181 95.6092 85.6074C96.5442 86.1574 97.2248 86.2262 98.2011 85.6281C101.762 83.4487 105.447 81.4481 108.995 79.2343C110.274 78.4368 111.195 78.5674 112.412 79.2962C116.516 81.7506 120.689 84.1087 124.842 86.4943L124.8 86.4462ZM124.842 86.4943C125.144 86.1781 125.405 85.7724 125.77 85.5593C129.64 83.3043 133.511 81.0356 137.45 78.9043C137.832 78.7379 138.243 78.6536 138.659 78.6572C139.075 78.6607 139.485 78.752 139.864 78.9249C143.865 81.0768 147.811 83.3318 151.709 85.6556C152.245 85.9718 152.782 86.8106 152.782 87.4087C152.844 102.279 152.837 117.157 152.809 132.027C152.809 132.509 152.685 133.265 152.362 133.457C147.907 136.111 143.404 138.689 138.626 141.453V139.191C138.626 124.864 138.612 110.536 138.654 96.2156C138.654 94.9987 138.365 94.2631 137.224 93.6374C133.044 91.3137 128.932 88.8524 124.8 86.4462L124.842 86.4943ZM48.2061 129.167C46.9177 129.183 45.6389 128.943 44.4433 128.463C43.2477 127.982 42.1589 127.27 41.2395 126.367C40.3201 125.465 39.5882 124.389 39.086 123.202C38.5837 122.016 38.321 120.742 38.313 119.453C38.3002 118.163 38.5434 116.884 39.0284 115.689C39.5134 114.493 40.2306 113.406 41.1385 112.49C42.0464 111.574 43.127 110.847 44.3177 110.351C45.5084 109.855 46.7856 109.6 48.0755 109.601C49.3652 109.582 50.6458 109.819 51.8431 110.299C53.0404 110.779 54.1305 111.491 55.0502 112.396C55.9699 113.3 56.7008 114.378 57.2006 115.567C57.7004 116.756 57.9591 118.033 57.9617 119.322C57.9763 120.612 57.7346 121.891 57.2506 123.086C56.7666 124.282 56.05 125.369 55.1423 126.285C54.2347 127.201 53.1542 127.927 51.9635 128.422C50.7727 128.917 49.4956 129.17 48.2061 129.167ZM61.3717 158.641C58.9214 158.661 56.5627 157.71 54.8108 155.997C53.0588 154.284 52.0562 151.947 52.0217 149.497C52.0158 147.046 52.9718 144.69 54.6842 142.937C56.3966 141.183 58.7288 140.172 61.1792 140.119C66.1636 140.009 70.4742 144.244 70.5292 149.311C70.5476 151.761 69.5941 154.119 67.8777 155.868C66.1613 157.616 63.8218 158.613 61.3717 158.641ZM53.8986 78.3681C58.8486 78.3818 62.8223 82.3556 62.8223 87.2712C62.8223 92.2693 58.7523 96.2912 53.7473 96.2362C52.5769 96.2283 51.4198 95.9877 50.3432 95.5284C49.2667 95.0691 48.2922 94.4003 47.4765 93.561C46.6608 92.7216 46.0202 91.7284 45.5919 90.6392C45.1636 89.5499 44.9562 88.3863 44.9817 87.2162C44.9705 86.0453 45.194 84.8841 45.6391 83.801C46.0841 82.7179 46.7416 81.735 47.5727 80.9102C48.4039 80.0854 49.3919 79.4356 50.4784 78.9989C51.5649 78.5623 52.7278 78.3478 53.8986 78.3681ZM174.362 112.097C172.147 112.097 170.022 111.217 168.456 109.65C166.889 108.084 166.009 105.959 166.009 103.744C166.009 101.528 166.889 99.4037 168.456 97.8371C170.022 96.2706 172.147 95.3906 174.362 95.3906C176.578 95.3906 178.702 96.2706 180.269 97.8371C181.835 99.4037 182.715 101.528 182.715 103.744C182.715 105.959 181.835 108.084 180.269 109.65C178.702 111.217 176.578 112.097 174.362 112.097ZM66.1017 59.2418C66.0869 58.2398 66.2733 57.2449 66.6497 56.3162C67.0262 55.3874 67.5851 54.5436 68.2934 53.8346C69.0017 53.1257 69.845 52.566 70.7734 52.1887C71.7019 51.8114 72.6965 51.6242 73.6986 51.6381C74.7014 51.6371 75.6943 51.8353 76.6198 52.2213C77.5453 52.6073 78.3849 53.1734 79.0897 53.8866C79.7946 54.5998 80.3508 55.4459 80.7259 56.3759C81.101 57.3058 81.2876 58.301 81.2748 59.3037C81.2785 60.3056 81.0834 61.2982 80.7009 62.2242C80.3183 63.1502 79.7559 63.9911 79.0462 64.6983C78.3365 65.4054 77.4935 65.9648 76.5662 66.344C75.6388 66.7232 74.6455 66.9147 73.6436 66.9074C72.6414 66.9123 71.6483 66.7163 70.723 66.3313C69.7977 65.9462 68.9588 65.3797 68.2559 64.6653C67.553 63.9508 67.0003 63.1029 66.6303 62.1714C66.2603 61.24 66.0806 60.2438 66.1017 59.2418ZM169.873 143.756C168.871 143.777 167.876 143.597 166.945 143.226C166.015 142.855 165.168 142.3 164.456 141.595C163.745 140.89 163.182 140.05 162.801 139.123C162.421 138.196 162.23 137.202 162.242 136.201C162.227 135.199 162.411 134.204 162.781 133.273C163.152 132.343 163.703 131.494 164.403 130.777C165.102 130.06 165.936 129.488 166.857 129.093C167.778 128.699 168.768 128.491 169.77 128.48C170.771 128.477 171.764 128.672 172.69 129.053C173.616 129.434 174.458 129.994 175.167 130.701C175.877 131.408 176.44 132.248 176.824 133.173C177.209 134.098 177.407 135.089 177.408 136.091C177.433 137.093 177.256 138.09 176.888 139.023C176.52 139.956 175.968 140.805 175.265 141.52C174.562 142.235 173.722 142.802 172.796 143.186C171.87 143.57 170.876 143.764 169.873 143.756ZM110.404 47.1281C110.402 47.8849 110.247 48.6336 109.949 49.3292C109.65 50.0248 109.215 50.653 108.668 51.1762C108.121 51.6993 107.474 52.1067 106.766 52.3739C106.058 52.6411 105.303 52.7627 104.547 52.7312C103.79 52.7173 103.044 52.5518 102.352 52.2442C101.66 51.9367 101.037 51.4936 100.52 50.941C100.002 50.3884 99.6013 49.7376 99.34 49.0271C99.0787 48.3167 98.9626 47.5611 98.9986 46.8049C99.047 45.3083 99.679 43.89 100.759 42.8532C101.84 41.8164 103.283 41.2435 104.78 41.2568C105.538 41.2637 106.287 41.4221 106.982 41.7228C107.677 42.0234 108.306 42.4601 108.83 43.0072C109.354 43.5543 109.763 44.2008 110.033 44.9085C110.304 45.6162 110.43 46.3709 110.404 47.1281ZM150.08 167.454C149.336 167.458 148.598 167.313 147.911 167.029C147.223 166.744 146.599 166.325 146.075 165.796C145.552 165.267 145.139 164.639 144.861 163.949C144.583 163.259 144.445 162.52 144.456 161.776C144.452 161.015 144.601 160.261 144.895 159.56C145.189 158.858 145.621 158.223 146.166 157.692C146.711 157.161 147.357 156.746 148.066 156.471C148.775 156.195 149.533 156.066 150.293 156.09C153.455 156.131 155.93 158.634 155.917 161.796C155.917 165.041 153.387 167.482 150.08 167.454ZM120.655 178.75C119.941 178.765 119.231 178.635 118.569 178.368C117.907 178.1 117.306 177.701 116.802 177.195C116.299 176.688 115.904 176.085 115.641 175.421C115.378 174.757 115.252 174.046 115.272 173.332C115.269 172.617 115.409 171.908 115.683 171.248C115.958 170.587 116.361 169.988 116.87 169.486C117.38 168.983 117.984 168.587 118.648 168.321C119.312 168.055 120.022 167.924 120.737 167.936C122.181 167.952 123.56 168.535 124.577 169.558C125.594 170.582 126.168 171.965 126.175 173.408C126.174 174.124 126.029 174.833 125.749 175.492C125.468 176.151 125.059 176.748 124.544 177.246C124.029 177.744 123.42 178.133 122.752 178.392C122.084 178.65 121.371 178.772 120.655 178.75ZM138.722 56.9043C137.428 56.897 136.189 56.3758 135.279 55.4552C134.369 54.5346 133.861 53.2902 133.869 51.9956C133.876 50.701 134.397 49.4623 135.318 48.5521C136.238 47.6418 137.483 47.1345 138.777 47.1418C141.417 47.1556 143.659 49.4174 143.652 52.0506C143.618 53.3403 143.085 54.5667 142.166 55.4719C141.247 56.377 140.012 56.8905 138.722 56.9043ZM93.7736 168.843C93.772 169.405 93.6579 169.961 93.4379 170.478C93.2179 170.995 92.8966 171.463 92.4929 171.854C92.0892 172.245 91.6113 172.551 91.0873 172.754C90.5634 172.957 90.0041 173.053 89.4424 173.037C88.8798 173.036 88.3232 172.922 87.8061 172.701C87.2889 172.48 86.8219 172.156 86.4332 171.749C86.0446 171.343 85.7423 170.861 85.5446 170.335C85.3469 169.808 85.2579 169.247 85.283 168.685C85.2901 168.125 85.4077 167.571 85.629 167.056C85.8503 166.541 86.171 166.075 86.5727 165.684C86.9743 165.294 87.4491 164.986 87.9698 164.779C88.4905 164.572 89.047 164.469 89.6074 164.477C90.1677 164.49 90.7202 164.613 91.233 164.839C91.7458 165.065 92.209 165.391 92.596 165.796C92.983 166.202 93.2862 166.679 93.4883 167.202C93.6903 167.725 93.7873 168.283 93.7736 168.843ZM167.082 72.7374C167.102 73.2223 167.025 73.7064 166.857 74.1614C166.688 74.6165 166.43 75.0334 166.099 75.3879C165.768 75.7424 165.369 76.0273 164.926 76.2262C164.483 76.4251 164.006 76.5338 163.52 76.5462C162.543 76.5628 161.599 76.1929 160.894 75.5169C160.188 74.841 159.778 73.9136 159.753 72.9368C159.734 72.4524 159.811 71.969 159.982 71.515C160.152 71.061 160.411 70.6457 160.744 70.2934C161.077 69.9411 161.477 69.6589 161.921 69.4635C162.365 69.2681 162.843 69.1634 163.328 69.1556C165.384 69.0868 167.04 70.6749 167.082 72.7443V72.7374Z" fill="white"/>
</g>
<defs>
<clipPath id="clip0_2_20609">
<rect width="220" height="220" fill="white" transform="translate(0.5)"/>
</clipPath>
</defs>
</svg>
