<svg width="221" height="220" viewBox="0 0 221 220" fill="none" xmlns="http://www.w3.org/2000/svg">
<g clip-path="url(#clip0_2_20602)">
<path d="M110.5 220C171.251 220 220.5 170.751 220.5 110C220.5 49.2487 171.251 0 110.5 0C49.7487 0 0.5 49.2487 0.5 110C0.5 170.751 49.7487 220 110.5 220Z" fill="#0F8FF8"/>
<path fill-rule="evenodd" clip-rule="evenodd" d="M55.5 130.652L61.0688 116.875H66.9606C66.808 114.518 66.73 112.156 66.7269 109.794C66.7269 106.714 66.8575 103.854 67.1119 101.2H55.5L61.0688 87.4294H69.8275C77.9812 61.2287 96.365 48.125 124.958 48.125C134.356 48.125 143.287 49.3419 151.75 51.7825V69.135C143.785 65.5759 135.153 63.7571 126.429 63.8C109.29 63.8 98.2694 71.6788 93.3606 87.4363H144.394L138.825 101.207H90.0331C89.741 103.475 89.6123 105.761 89.6481 108.047C89.6481 111.341 89.7513 114.283 89.9575 116.882H132.466L126.966 130.652H92.9C96.5644 140.202 101.033 146.843 106.299 150.59C111.559 154.33 119.073 156.2 128.829 156.2C135.8 156.2 143.438 154.502 151.75 151.106V167.42C143.851 170.39 134.459 171.875 123.562 171.875C94.9144 171.875 76.7919 158.132 69.2088 130.652H55.5Z" fill="white"/>
</g>
<defs>
<clipPath id="clip0_2_20602">
<rect width="220" height="220" fill="white" transform="translate(0.5)"/>
</clipPath>
</defs>
</svg>
