<svg width="221" height="220" viewBox="0 0 221 220" fill="none" xmlns="http://www.w3.org/2000/svg">
<g clip-path="url(#clip0_2_20606)">
<path d="M220.5 110C220.5 131.756 214.049 153.023 201.962 171.113C189.875 189.202 172.695 203.301 152.595 211.627C132.495 219.952 110.378 222.131 89.0401 217.886C67.7022 213.642 48.1021 203.166 32.7183 187.782C17.3345 172.398 6.85804 152.798 2.61367 131.46C-1.63071 110.122 0.547661 88.0047 8.8733 67.9048C17.1989 47.805 31.2979 30.6253 49.3873 18.5383C67.4767 6.45139 88.7441 0 110.5 0C139.674 0 167.653 11.5893 188.282 32.2183C208.911 52.8473 220.5 80.8262 220.5 110Z" fill="#003399"/>
<path d="M120.11 67.3301C116.798 67.3117 113.52 67.9933 110.49 69.3301C107.47 70.6585 104.751 72.5876 102.5 75.0001C99.989 77.6823 97.9321 80.756 96.41 84.1001C94.6492 87.9925 93.36 92.0815 92.57 96.2801H125.06V106.58H91.5C91.5 107.34 91.5 108.06 91.43 108.76C91.36 109.46 91.35 109.99 91.35 110.64V115.31C91.35 116.31 91.4 117.36 91.5 118.46H120.5V128.77H92.89C94.5967 137.537 97.7567 144.227 102.37 148.84C106.983 153.453 113.047 155.76 120.56 155.76C124.155 155.779 127.739 155.376 131.24 154.56C134.513 153.802 137.71 152.744 140.79 151.4V163.58C137.765 165.01 134.588 166.094 131.32 166.81C127.441 167.673 123.473 168.072 119.5 168C114.212 168.087 108.955 167.167 104.01 165.29C99.5298 163.507 95.4503 160.849 92.01 157.47C88.5284 153.879 85.7024 149.706 83.66 145.14C81.3388 139.907 79.6954 134.399 78.77 128.75H66.5V118.46H77.63C77.53 117.313 77.48 116.363 77.48 115.61V112.3C77.48 111.2 77.48 110.07 77.55 108.92C77.62 107.77 77.63 106.99 77.63 106.58H66.5V96.2801H78.5C79.287 90.4307 80.8543 84.7132 83.16 79.2801C85.1843 74.5037 88.0081 70.1074 91.51 66.2801C94.886 62.6928 98.973 59.8489 103.51 57.9301C108.442 55.9124 113.732 54.9157 119.06 55.0001C123.55 54.9531 128.027 55.508 132.37 56.6501C136.611 57.7978 140.656 59.5742 144.37 61.9201L138.37 72.9201C135.714 71.3175 132.895 70.0034 129.96 69.0001C126.804 67.8534 123.467 67.2876 120.11 67.3301Z" fill="white"/>
</g>
<defs>
<clipPath id="clip0_2_20606">
<rect width="220" height="220" fill="white" transform="translate(0.5)"/>
</clipPath>
</defs>
</svg>
