<svg width="221" height="220" viewBox="0 0 221 220" fill="none" xmlns="http://www.w3.org/2000/svg">
<g clip-path="url(#clip0_2_20598)">
<path d="M110.5 220C171.251 220 220.5 170.751 220.5 110C220.5 49.2487 171.251 0 110.5 0C49.7487 0 0.5 49.2487 0.5 110C0.5 170.751 49.7487 220 110.5 220Z" fill="#044AAC"/>
<path fill-rule="evenodd" clip-rule="evenodd" d="M69.8138 118.319L51.8151 136.331L43.3588 144.787C37.7708 134.044 34.8604 122.11 34.8751 110C34.8751 68.3031 68.8032 34.375 110.5 34.375C152.197 34.375 186.125 68.3031 186.125 110C186.125 151.697 152.197 185.625 110.5 185.625C94.3713 185.625 79.4113 180.544 67.1188 171.909C64.0174 169.732 61.0828 167.326 58.3394 164.711L66.3282 156.716L124.195 98.8488C124.421 96.0602 125.688 93.4586 127.744 91.5608C129.799 89.6631 132.494 88.6079 135.291 88.605C138.047 88.6077 140.704 89.6318 142.748 91.4794C144.792 93.327 146.079 95.8669 146.36 98.6081L172.994 125.242C174.21 120.253 174.824 115.135 174.823 110C174.823 74.525 145.968 45.6775 110.5 45.6775C75.0319 45.6775 46.1776 74.525 46.1776 110C46.1776 114.936 46.7344 119.742 47.7932 124.362L64.8982 107.25C65.3165 104.635 66.6526 102.254 68.6671 100.534C70.6815 98.8143 73.2426 97.8683 75.8913 97.8656C78.5023 97.8681 81.0294 98.7879 83.0312 100.464C85.033 102.141 86.3822 104.467 86.8432 107.037L97.7263 117.913L89.7307 125.902L82.0719 118.243C80.2627 119.461 78.1341 120.117 75.9533 120.129C73.7724 120.142 71.6365 119.509 69.8138 118.312V118.319ZM129.688 109.34L75.2519 163.776C85.7144 170.669 97.9712 174.336 110.5 174.323C136.302 174.323 158.604 159.053 168.841 137.074L141.032 109.257C139.325 110.294 137.369 110.849 135.371 110.864C133.374 110.878 131.41 110.352 129.688 109.34ZM135.491 94.7925C134.818 94.7685 134.148 94.8803 133.52 95.1213C132.891 95.3623 132.318 95.7275 131.834 96.1951C131.35 96.6627 130.966 97.223 130.703 97.8426C130.441 98.4622 130.306 99.1283 130.307 99.8012C130.308 100.474 130.445 101.14 130.709 101.759C130.973 102.378 131.359 102.937 131.844 103.403C132.329 103.869 132.904 104.233 133.532 104.472C134.161 104.711 134.832 104.821 135.504 104.796C136.799 104.746 138.023 104.196 138.921 103.262C139.818 102.328 140.319 101.083 140.317 99.7874C140.315 98.4921 139.812 97.2479 138.911 96.3164C138.011 95.3849 136.785 94.8387 135.491 94.7925ZM75.9532 103.916C74.6258 103.916 73.3527 104.443 72.4141 105.382C71.4755 106.32 70.9482 107.593 70.9482 108.921C70.9482 110.248 71.4755 111.521 72.4141 112.46C73.3527 113.398 74.6258 113.926 75.9532 113.926C77.2806 113.926 78.5536 113.398 79.4922 112.46C80.4309 111.521 80.9582 110.248 80.9582 108.921C80.9582 107.593 80.4309 106.32 79.4922 105.382C78.5536 104.443 77.2806 103.916 75.9532 103.916Z" fill="white"/>
</g>
<defs>
<clipPath id="clip0_2_20598">
<rect width="220" height="220" fill="white" transform="translate(0.5)"/>
</clipPath>
</defs>
</svg>
