<svg width="221" height="220" viewBox="0 0 221 220" fill="none" xmlns="http://www.w3.org/2000/svg">
<g clip-path="url(#clip0_2_20594)">
<path d="M110.5 220C171.251 220 220.5 170.751 220.5 110C220.5 49.2487 171.251 0 110.5 0C49.7487 0 0.5 49.2487 0.5 110C0.5 170.751 49.7487 220 110.5 220Z" fill="#347FFB"/>
<path fill-rule="evenodd" clip-rule="evenodd" d="M135.938 89.7531L116.213 143.034L116.089 143.357L112.473 136.104L104.911 139.542L124.745 85.9375L132.308 82.5L135.931 89.7531H135.938ZM185.3 91.0112L165.582 144.375L161.959 137.101L154.397 140.539L154.857 139.288L174.568 85.9375L182.131 82.5L185.74 89.7531L185.3 91.0112ZM143.088 137.156L154.699 105.786L147.116 109.223L143.514 101.956L131.868 133.32L135.477 140.594L143.088 137.156ZM80.2706 106.219H45.5863L51.4988 111.719L45.5863 117.308H80.2362L86.1213 111.719L80.2706 106.219ZM40.7875 129.477H96.8531L90.9613 135.025L96.8531 140.559H40.7875L34.875 135.025L40.7875 129.47V129.477ZM57.9819 82.9469H114.013L108.142 88.5019L114.02 94.0363H57.9888L52.0762 88.495L57.9888 82.9469H57.9819Z" fill="white"/>
</g>
<defs>
<clipPath id="clip0_2_20594">
<rect width="220" height="220" fill="white" transform="translate(0.5)"/>
</clipPath>
</defs>
</svg>
