<svg width="221" height="220" viewBox="0 0 221 220" fill="none" xmlns="http://www.w3.org/2000/svg">
<g clip-path="url(#clip0_2_20590)">
<path d="M110.5 220C171.251 220 220.5 170.751 220.5 110C220.5 49.2487 171.251 0 110.5 0C49.7487 0 0.5 49.2487 0.5 110C0.5 170.751 49.7487 220 110.5 220Z" fill="#FFAA5C"/>
<path fill-rule="evenodd" clip-rule="evenodd" d="M179.25 101.179C179.223 101.448 179.181 101.709 179.181 101.977C179.147 110.364 179.113 118.759 179.099 127.153L179.071 144.389C179.071 144.939 179.023 145.489 178.989 146.176C178.686 146.039 178.466 145.949 178.26 145.832L146.264 127.992C145.693 127.676 145.645 127.394 145.92 126.83C151.372 115.637 151.393 104.417 146.023 93.1975C145.769 92.6612 145.817 92.3931 146.367 92.0906L178.377 74.1262C178.645 73.975 178.954 73.8994 179.25 73.7894V101.179ZM112.562 34.375C113.099 34.6981 113.628 35.0419 114.178 35.3513L176.39 70.3106C176.624 70.4412 176.844 70.5856 177.167 70.7781C176.878 70.9637 176.686 71.1012 176.473 71.2181L144.724 88.9487C143.892 89.4094 143.899 89.4025 143.349 88.6188C136.309 78.7531 126.656 73.1156 114.391 71.6856C114.026 71.6401 113.659 71.6171 113.291 71.6169C112.645 71.6169 112.397 71.3694 112.397 70.6887C112.391 63.7244 112.349 56.7531 112.329 49.7888L112.308 35.3581C112.308 35.0281 112.384 34.705 112.425 34.375H112.562ZM108.3 185.625C108.066 185.453 107.853 185.261 107.613 185.123L44.9331 149.889C44.6375 149.724 44.3556 149.545 43.95 149.311C44.225 149.126 44.4037 148.981 44.61 148.864C55.1287 142.986 65.6475 137.115 76.1662 131.223C76.7987 130.866 77.0944 131.003 77.4862 131.546C84.0588 140.663 93.0375 146.052 104.306 147.888C105.454 148.074 106.629 148.163 107.791 148.218C108.451 148.246 108.713 148.424 108.713 149.112C108.706 155.279 108.733 161.446 108.754 167.606L108.788 185.109C108.788 185.281 108.74 185.453 108.713 185.625H108.3ZM41.75 140.594C41.7844 140.388 41.8531 140.174 41.86 139.961L41.8875 131.278L41.9356 111.842L42.025 81.1869L42.0594 74.58C42.0594 74.3875 42.0869 74.195 42.1075 73.8856C42.41 74.03 42.63 74.1194 42.8362 74.2363C53.3 80.08 63.7569 85.9237 74.2344 91.7537C74.8463 92.0906 74.9287 92.3519 74.6262 92.9912C69.1262 104.273 69.1537 115.569 74.6262 126.864C75.0731 127.772 75.0869 127.765 74.1931 128.267C63.6881 134.179 53.1831 140.078 42.6712 145.97C42.4031 146.121 42.0525 146.135 41.75 146.211V140.601V140.594ZM134.377 134.2C135.497 130.261 135.862 126.294 135.614 122.265C135.326 117.329 134.102 112.64 131.531 108.336C128.574 103.373 124.298 99.7769 119.087 97.1644C117.712 96.47 117.561 96.8206 118.379 95.1019C120.228 91.2313 123.466 88.825 127.454 87.285C130.23 86.2724 133.149 85.7017 136.103 85.5938C136.519 85.6113 136.913 85.7885 137.203 86.0888C142.156 91.2535 145.372 97.8372 146.401 104.919C149.034 122.842 137.354 139.666 119.217 144.121C99.0944 149.071 78.6825 136.682 74.5025 117.006C70.5975 98.5875 82.395 80.7744 99.995 76.0719C113.216 72.545 124.944 75.3569 135.209 84.1156L136.371 85.1056L136.226 85.3256C135.216 85.2019 134.212 85.0506 133.201 84.9544C126.924 84.3631 120.751 84.7756 114.763 86.8312C107.413 89.2642 101.254 94.3842 97.52 101.166C96.97 102.142 96.9287 102.149 95.87 101.784C94.5127 101.308 93.2892 100.514 92.3019 99.4675C90.3455 97.4389 88.8679 94.9982 87.9775 92.3244C87.1731 89.9869 86.5819 87.5806 85.8944 85.2088C85.8394 85.0231 85.7981 84.8306 85.6331 84.6313C85.5369 85.1813 85.4269 85.7175 85.3444 86.2675C85.2619 86.8175 85.1931 87.3675 85.1381 87.9175C84.485 94.0638 84.8356 100.114 86.96 105.978C89.6 113.293 94.5706 118.559 101.831 121.763C102.779 122.183 102.779 122.189 102.271 123.056C99.5825 127.621 95.3681 129.917 90.1637 130.701C87.7437 131.065 85.3237 130.921 82.8556 130.742C83.0825 130.831 83.3025 130.934 83.5294 131.017C95.4231 135.107 108.486 133.272 118.324 122.863C120.798 120.214 122.961 117.292 124.772 114.153C125.24 113.341 125.274 113.334 126.031 113.884C129.255 116.236 131.173 119.453 132.493 123.062C133.724 126.383 134.212 129.834 134.329 133.347C134.336 133.629 134.356 133.911 134.377 134.193V134.2ZM177.469 149.408L112.411 185.494C112.377 185.116 112.329 184.882 112.329 184.656C112.329 172.762 112.329 160.868 112.315 148.974C112.315 148.445 112.473 148.252 113.044 148.204C125.694 147.159 135.724 141.618 143.088 131.546C143.727 130.659 143.72 130.652 144.669 131.182L176.589 148.885C176.837 149.022 177.084 149.181 177.469 149.408ZM108.706 34.6225C108.726 35.0075 108.747 35.2412 108.747 35.475C108.747 47.2106 108.747 58.9462 108.761 70.675C108.761 71.225 108.678 71.5 108.004 71.5481C95.0931 72.4831 84.8838 78.0725 77.4037 88.3438C76.8125 89.155 76.8262 89.1619 75.96 88.6806L44.8781 71.4244C44.5137 71.2181 44.1769 70.9706 43.8263 70.7369C44.1838 70.4894 44.5138 70.2075 44.8988 69.9944L107.53 35.2344C107.881 35.0419 108.238 34.87 108.699 34.6225H108.706Z" fill="white"/>
</g>
<defs>
<clipPath id="clip0_2_20590">
<rect width="220" height="220" fill="white" transform="translate(0.5)"/>
</clipPath>
</defs>
</svg>
