<svg width="221" height="220" viewBox="0 0 221 220" fill="none" xmlns="http://www.w3.org/2000/svg">
<g clip-path="url(#clip0_2_20586)">
<path d="M110.5 220C171.251 220 220.5 170.751 220.5 110C220.5 49.2487 171.251 0 110.5 0C49.7487 0 0.5 49.2487 0.5 110C0.5 170.751 49.7487 220 110.5 220Z" fill="#C99705"/>
<path fill-rule="evenodd" clip-rule="evenodd" d="M55.5 166.747L55.7956 165.543C56.8613 161.439 59.6525 158.909 63.8188 157.761C68.0469 156.592 72.0825 157.039 75.7469 159.528C76.95 160.339 77.8575 161.377 78.4419 162.677C78.6069 163.027 78.93 163.316 79.1844 163.639C79.4594 163.323 79.8513 163.048 79.9888 162.69C80.8894 160.291 81.9 157.919 82.5806 155.472C86.2656 142.134 89.8681 128.79 93.4844 115.445C93.6287 114.923 93.7181 114.38 93.8488 113.747C92.8862 113.747 91.9925 113.754 91.1056 113.747C88.0669 113.692 85.0144 113.782 81.9894 113.548C77.8712 113.232 75.0731 110.695 74.9975 106.797C74.9288 103.387 76.9431 100.767 80.8 100.1C83.495 99.6328 86.3275 99.8115 89.0981 99.7634C91.7588 99.7221 94.4125 99.7634 97.0731 99.7359C97.3138 99.7359 97.7194 99.4609 97.7812 99.2478C98.455 96.8828 99.0806 94.504 99.7063 92.1184C99.7475 91.9809 99.7131 91.8227 99.7131 91.589C96.7019 91.589 93.725 91.6784 90.755 91.5615C88.4175 91.4652 86.1625 90.9359 84.21 89.5884C81.7831 87.9178 81.1162 85.5321 81.5081 82.8921C81.9069 80.2246 83.6187 78.4371 86.355 77.6877C87.3175 77.4265 88.3625 77.3165 89.3662 77.3096C93.6585 77.2672 97.9511 77.2764 102.243 77.3371C103.281 77.3577 103.742 77.0209 104.154 76.1546C105.584 73.1777 106.987 70.1734 108.644 67.3202C111.669 62.1159 115.216 57.2277 119.616 52.979C125.412 47.3965 132.239 43.4365 140.42 41.9859C145.851 41.0234 151.324 40.7896 156.659 42.6184C159.863 43.7184 162.241 45.7602 163.74 48.6959C164.682 50.5521 165.596 52.3877 165.493 54.5671C165.198 60.7546 159.938 64.6871 155.174 64.8453C151.516 64.969 148.367 63.979 145.934 61.3321C143.644 58.8434 143.362 55.949 144.284 52.8621C144.352 52.6352 144.442 52.4084 144.524 52.1746L144.339 51.9409C143.871 52.2434 143.342 52.4909 142.95 52.8621C140.895 54.848 139.157 57.1363 137.794 59.6477C134.906 64.8177 132.823 70.2902 131.104 75.9002C131.049 76.0721 131.063 76.2646 131.036 76.5602C132.521 76.5602 133.985 76.5809 135.436 76.5602C137.553 76.5259 139.657 76.5327 141.671 77.289C144.126 78.2102 146.003 79.7159 146.497 82.294C146.999 84.9134 146.484 86.969 144.036 88.9696C142.043 90.6059 139.705 90.9427 137.264 91.0252C134.006 91.1352 130.733 91.1627 127.474 91.2177C127.041 91.2246 126.697 91.2177 126.574 91.7677C126.044 94.0159 125.467 96.2571 124.91 98.4984C124.883 98.6084 124.917 98.7321 124.931 98.9246C127.22 98.9246 129.496 98.8559 131.764 98.9384C134.205 99.0278 136.46 99.6671 138.241 101.427C140.413 103.586 140.716 106.68 138.901 109.107C138.309 109.897 137.601 110.619 136.962 111.375C135.628 112.943 133.765 113.486 131.785 113.562C128.396 113.699 124.999 113.733 121.61 113.713C120.689 113.713 120.324 113.988 120.118 114.799C118.915 119.57 117.76 124.355 116.426 129.099C113.745 138.635 110.761 148.074 105.866 156.847C103.512 161.113 100.545 165.011 97.0594 168.417C91.9513 173.381 85.9012 176.784 78.6687 178.042C73.7325 178.895 68.755 179.19 63.8875 177.712C59.7625 176.461 56.9094 173.896 55.8094 169.778L55.5 168.575V166.747Z" fill="white"/>
</g>
<defs>
<clipPath id="clip0_2_20586">
<rect width="220" height="220" fill="white" transform="translate(0.5)"/>
</clipPath>
</defs>
</svg>
