<svg width="221" height="220" viewBox="0 0 221 220" fill="none" xmlns="http://www.w3.org/2000/svg">
<g clip-path="url(#clip0_2_20582)">
<path d="M110.5 220C171.251 220 220.5 170.751 220.5 110C220.5 49.2487 171.251 0 110.5 0C49.7487 0 0.5 49.2487 0.5 110C0.5 170.751 49.7487 220 110.5 220Z" fill="#417BA4"/>
<path d="M53.3412 73.1019C53.1144 74.6281 53.1763 75.6869 53.9875 76.4912C52.9425 78.3131 52.1312 79.6675 51.3544 81.18C52.1381 79.6675 52.9425 78.3406 53.9875 76.78C56.3181 79.695 63.5988 79.695 73.5056 76.4912C74.6744 76.2025 74.6744 78.8219 74.6744 78.8219C74.6744 80.2794 74.3787 82.3144 61.8525 84.0675C58.3531 84.645 53.3962 84.3562 51.0725 81.73C50.4881 80.8637 50.1994 79.695 50.1994 78.2375C50.1994 77.9487 50.1994 77.66 50.4881 77.0687C50.4996 77.0527 50.511 77.0366 50.5225 77.0206C50.6396 76.5298 50.8247 76.0577 51.0725 75.6181C51.3612 74.745 51.9456 74.1606 52.53 73.2875C52.2344 73.8719 51.6569 75.0337 51.0725 75.6181C51.382 74.744 51.8795 73.9484 52.53 73.2875L53.3412 73.1019ZM55.0875 69.355C55.5138 68.7225 55.9813 68.0969 56.6069 67.4644L55.7338 68.6331C55.6826 68.6828 55.6322 68.7332 55.5825 68.7844C55.8919 68.3512 56.2288 67.9181 56.6069 67.4644L55.7338 68.6331C55.5055 68.862 55.2898 69.103 55.0875 69.355ZM55.0875 69.355C54.7231 69.8913 54.3863 70.4206 53.9875 70.9569C53.9498 70.9948 53.9131 71.0338 53.8775 71.0737C53.6362 71.4532 53.4002 71.836 53.1694 72.2219L55.0875 69.355ZM61.2819 62.3769C62.155 61.6481 63.0212 60.83 63.8944 60.1769C63.0789 61.2151 62.4825 62.4079 62.1412 63.6831C61.8525 64.5494 61.8525 65.4225 62.43 66.0069C62.3771 66.0594 62.3244 66.1121 62.2719 66.165C64.1969 68.31 70.4944 67.6775 78.4556 64.2606C81.075 63.0919 83.7012 61.9231 86.0319 60.4794C86.905 60.1837 88.0669 61.6412 88.3625 61.9231C88.6512 62.2187 88.94 63.0919 88.3625 63.6762C85.4475 65.4225 82.2437 67.1687 78.7444 68.3375C68.7344 72.6275 60.6838 73.2669 58.47 70.5306L58.3531 70.6681C58.0644 69.795 57.7756 69.2106 58.0644 68.0487C58.0644 67.7531 58.0644 67.4644 58.3531 67.1688C58.6173 66.8266 58.9044 66.5027 59.2125 66.1994C58.8058 66.5987 58.4225 67.021 58.0644 67.4644C58.0644 67.1687 58.3531 66.5912 58.3531 66.2956C58.9375 65.1269 59.5219 64.2606 60.395 63.0919C60.6012 62.9406 60.7938 62.7825 61 62.6175C61.88 61.38 63.1794 60.3144 64.4719 59.015C66.8094 56.98 66.8094 56.98 67.9713 56.1069C68.2175 55.8533 68.4868 55.6231 68.7756 55.4194C68.677 55.5017 68.5784 55.5842 68.48 55.6669C69.305 55.0481 70.1575 54.4362 71.0513 53.8381L71.175 53.7694L71.6219 53.4531C75.8 50.7109 80.2346 48.3808 84.8631 46.4956C85.6194 46.0694 86.3756 45.6981 87.1319 45.3681C86.685 45.5469 86.3275 45.705 85.9081 45.8837C85.1835 46.2027 84.4499 46.5008 83.7081 46.7775C82.5394 47.0731 82.5394 47.0731 80.2019 48.2419C79.0331 48.8194 79.0331 48.8194 76.9981 49.9881C76.125 50.5725 76.125 50.5725 74.0831 51.7344C73.2496 52.2883 72.429 52.8613 71.6219 53.4531C90.6931 44.0688 89.3594 44.4744 88.0187 45.0037C86.3566 45.5166 84.7207 46.1109 83.1169 46.7844C76.3656 49.6719 70.0131 53.7694 66.0394 57.5712C65.4412 58.0525 65.1594 58.3275 64.4719 59.015C64.8431 58.6644 65.235 58.3137 65.6406 57.9631C65.0204 58.5712 64.4351 59.2139 63.8875 59.8881C62.9731 60.8025 62.0587 61.5381 61.2819 62.3769ZM44.7338 129.958C44.8025 130.206 44.8781 130.439 44.9538 130.666C45.1648 131.433 45.567 132.133 46.1225 132.701C45.5804 131.119 45.0692 129.526 44.5894 127.923C44.5619 129.814 45.1325 131.471 46.1225 132.701C45.4638 130.909 44.9758 129.058 44.665 127.174C49.9037 134.454 69.7175 132.701 95.0587 121.928C127.399 108.24 156.817 84.9406 160.901 69.795C161.774 66.0069 161.189 63.3875 159.147 61.3456C160.605 62.8031 162.062 64.5494 163.52 66.0069C165.266 68.0487 165.555 70.6681 164.689 74.1606C160.605 89.595 130.603 113.19 97.3894 127.167C68.5556 139.721 46.81 140.277 44.7269 129.965C44.225 128.267 43.7162 126.074 43.2075 124.547C43.4962 125.421 43.7919 126.294 44.3762 127.174L44.5481 127.786C44.5313 128.151 44.5451 128.516 44.5894 128.879C44.5671 128.545 44.5625 128.21 44.5756 127.875C44.5664 127.845 44.5573 127.815 44.5481 127.786L44.7338 129.958ZM92.0338 43.7456L92.4394 43.5806C101.178 41.25 106.712 42.4119 105.55 47.3619C105.254 49.115 104.093 50.8612 102.346 52.6075C100.889 53.1919 97.685 52.6075 97.1006 52.0231C98.5581 50.2769 99.4313 48.8194 99.72 47.6575C100.628 43.8075 96.4338 42.7762 89.6 44.5569L89.2975 44.6669L92.0338 43.7456ZM91.5044 43.9519L92.7281 43.5806C92.4962 43.6311 92.2647 43.6838 92.0338 43.7387L91.5044 43.9519ZM43.2075 119.68V119.886C42.3825 119.061 42.0731 117.982 42.0387 116.641C41.9647 116.06 41.9486 115.473 41.9906 114.888C42.025 115.442 42.0433 115.997 42.0456 116.552C41.9658 115.98 41.9474 115.402 41.9906 114.826C41.9081 113.3 41.75 111.554 41.75 110.275C41.75 112.028 42.3344 113.19 42.9188 114.352C42.9188 115.232 42.9875 116.174 43.0563 117.122C42.9188 116.174 42.9188 115.232 42.9188 114.352C62.43 135.032 150.121 81.4412 150.994 58.7262C151.282 54.6494 148.952 53.1919 147.79 52.3188L150.121 53.7762L153.029 55.8112C155.366 57.8531 156.239 60.7612 155.366 64.5494C151.578 79.1106 123.026 101.537 91.855 114.647C67.1738 125.297 48.1094 126.692 43.2075 119.68ZM43.0631 97.46L43.4963 95.7137C42.9119 98.0512 43.2075 100.086 44.3694 101.248C44.3624 101.271 44.3556 101.294 44.3487 101.317C44.9194 102.004 45.7031 102.499 46.7 102.994C47.5731 104.163 46.9956 107.071 46.9956 107.071C46.7 107.944 46.4112 109.113 45.8269 108.824C42.9119 107.367 41.75 105.036 42.0456 101.537C41.764 103.276 42.1817 105.055 43.2075 106.487L43.235 106.322C42.4215 104.976 42.103 103.388 42.3344 101.832L42.4513 101.076C42.3822 101.323 42.3429 101.577 42.3344 101.832L42.9119 97.7556L43.4963 95.4181V94.8406L43.0631 97.46ZM47.3394 90.31C46.7886 91.476 46.3801 92.704 46.1225 93.9675C45.2425 92.7987 44.9537 91.3481 45.2425 89.595C45.2425 89.0175 45.2425 88.7219 45.5381 88.1444C46.0937 86.4465 46.7739 84.792 47.5731 83.1944C47.2926 84.0589 47.1995 84.9734 47.3003 85.8768C47.4011 86.7801 47.6933 87.6516 48.1575 88.4331L47.9719 88.8662C51.6225 93.6512 64.9325 92.4412 81.9481 85.2294C103.797 75.6181 123.899 59.8881 126.526 49.9881C127.399 46.2069 126.23 43.8694 123.026 42.7006C123.611 42.4119 123.611 42.4119 125.357 42.9963C126.526 43.2919 127.399 43.5806 127.976 43.5806C131.764 45.0381 133.222 47.6575 132.06 51.7344C129.145 62.8031 107.296 79.9906 83.4056 90.1794C64.4719 98.0444 49.9038 99.5019 46.1225 93.9675L47.3394 90.31ZM92.2881 174.254C88.7887 174.371 85.8875 174.006 83.6944 173.188C81.9481 172.315 79.6175 171.442 78.1669 170.569C81.7212 172.04 86.3825 172.404 91.745 171.875C122.442 168.85 176.273 136.592 179.25 115.521L178.961 116.394C178.636 118.125 178.441 119.879 178.377 121.639C178.377 121.928 178.377 122.217 178.088 122.512C174.589 135.032 149.832 154.55 122.738 166.196C110.534 171.401 99.9812 173.986 92.3019 174.254C92.2973 174.254 92.2927 174.254 92.2881 174.254ZM95.6981 162.277L96.2275 161.542C96.0487 161.782 95.8838 162.023 95.7119 162.271C100.132 161.033 104.89 159.431 109.916 157.458C113.119 156.585 114.288 158.627 114.288 158.627C114.577 158.916 114.577 160.084 112.831 160.957C105.516 163.817 98.7781 165.873 92.8587 167.111C92.8149 167.195 92.7714 167.28 92.7281 167.365L92.8175 167.117C82.4913 169.283 74.6606 168.974 70.5906 166.196C69.1331 165.027 67.0913 163.584 65.6406 162.415C70.3294 166.43 81.1781 166.341 95.6981 162.277ZM59.2262 156.007C58.0575 154.55 56.6069 153.092 55.7338 151.635C56.9025 153.092 58.6487 155.127 59.8106 156.585C59.7993 156.434 59.7339 156.293 59.6265 156.187C59.5191 156.081 59.3769 156.017 59.2262 156.007ZM105.55 41.5387C107.296 41.5387 109.627 41.25 111.373 41.25C117.492 41.25 120.407 43.5806 119.238 48.2419C117.781 53.7763 109.916 61.6413 99.72 68.6263C97.685 69.4994 95.6431 66.88 96.2275 65.7181C96.2275 65.4225 96.5162 65.4225 96.5162 65.4225C105.55 59.3037 112.246 52.6075 113.704 47.6575C114.872 42.9963 111.084 40.9612 104.381 41.5387H105.55ZM140.503 48.2419C144.002 49.9881 145.453 52.9031 144.291 57.2687C140.798 70.3725 115.161 90.475 87.1937 102.417C81.9481 104.741 76.7094 106.494 72.0481 107.944C69.4219 108.24 69.1331 104.741 70.3019 102.994C70.5906 102.417 70.8794 102.417 71.175 102.121C75.5406 100.952 80.2019 99.2131 85.1588 97.1712C111.662 85.8137 135.841 66.5912 139.052 54.3538C140.214 49.9881 138.467 47.0731 134.679 45.6225C136.426 46.4956 138.756 47.3687 140.503 48.235V48.2419ZM170.801 77.0756L171.674 78.5331C172.547 80.8638 172.547 80.8637 172.547 82.0256V82.3144C171.674 82.0256 169.934 78.5331 169.639 77.0756C169.639 75.3294 169.343 74.1606 168.47 72.9987L170.807 77.0756H170.801ZM176.919 92.51C177.208 93.9675 177.208 95.7137 176.631 97.7556C173.131 110.571 151.283 129.497 124.772 143.192C121.864 144.354 120.111 142.312 120.696 140.277C120.932 139.526 121.456 138.898 122.153 138.531C148.952 124.547 171.378 105.325 174.884 92.2212C175.462 89.8837 175.462 87.8487 174.884 86.1025C175.757 88.4331 176.631 90.7637 176.919 92.51ZM178.961 104.747V107.071C178.961 108.24 178.961 109.113 178.666 110.571C176.631 118.436 167.012 128.624 153.909 138.531C151.867 139.989 150.698 137.947 150.994 136.489C151.266 135.598 151.769 134.794 152.451 134.159C166.139 123.97 176.046 113.479 178.088 105.325C178.377 103.867 178.666 102.417 178.377 100.959L178.961 104.741V104.747ZM58.3531 70.6612C58.0644 69.7881 57.7756 69.2038 58.0644 68.0419C57.7756 69.2038 58.0644 69.7881 58.3531 70.6544V70.6612ZM51.0656 81.73C50.4881 80.8569 50.1994 79.6881 50.1994 78.2306C50.1994 79.6881 50.1994 80.5681 51.0725 81.73H51.0656ZM46.1156 93.9606C45.2425 92.7919 44.9537 91.3412 45.2425 89.5881C44.9537 91.3412 45.2425 92.7987 46.1225 93.9606H46.1156ZM155.944 104.156C156.171 104.785 156.237 105.461 156.135 106.122C156.033 106.782 155.766 107.407 155.359 107.937C142.544 119.591 123.611 131.244 103.797 139.686C74.3719 151.924 52.2344 152.797 50.1994 142.306C49.9038 141.432 50.1994 142.017 50.4881 141.728C50.4881 142.017 50.4881 143.474 51.6569 145.221C51.3612 144.636 51.0725 144.347 50.7838 143.763C50.4881 143.474 50.4881 143.186 50.1994 142.89C49.615 142.017 49.3263 140.855 48.7419 139.982C54.2763 147.262 74.6675 145.805 100.889 134.447C120.696 125.998 139.629 114.056 152.451 102.699C154.782 101.53 155.655 103.283 155.944 104.156ZM82.2438 157.451C82.5325 158.036 82.8281 159.204 81.6594 159.493C71.175 161.239 63.5987 160.366 60.0994 156.578C58.9375 155.121 57.1913 153.086 56.0225 151.628C59.2263 155.705 67.0912 156.874 78.4556 155.121C80.4975 155.121 81.9481 156.874 82.2369 157.458L82.2438 157.451ZM174.004 136.194C174.878 134.447 175.757 131.821 176.342 130.075C172.836 141.432 150.409 158.909 125.941 169.4C110.789 175.801 98.2625 178.131 91.5663 176.096C93.3125 176.674 95.9319 177.265 97.9738 177.554C116.619 180.462 163.809 157.162 174.011 136.194H174.004ZM158.859 157.162C158.859 157.451 158.274 158.331 157.113 159.204C150.698 164.443 141.96 169.689 132.933 173.47C125.357 176.674 118.654 178.42 113.704 178.716H106.416C112.246 179.004 120.696 176.969 130.891 172.893C141.087 168.52 150.994 162.697 158.274 156.578C158.57 156.578 158.57 156.289 158.859 156.289C158.859 156.289 158.859 156.578 159.147 156.578C159.147 156.578 159.147 156.874 158.859 157.162ZM45.2425 88.4331C45.2425 88.1444 45.5381 87.56 45.5381 87.2644C46.1225 85.5181 47.2844 82.8988 47.8687 81.1456C47.8687 82.0256 47.5731 82.61 47.2844 83.4831C46.4112 84.9406 45.8269 86.6869 45.2425 88.4331Z" fill="white"/>
</g>
<defs>
<clipPath id="clip0_2_20582">
<rect width="220" height="220" fill="white" transform="translate(0.5)"/>
</clipPath>
</defs>
</svg>
