<svg width="221" height="220" viewBox="0 0 221 220" fill="none" xmlns="http://www.w3.org/2000/svg">
<g clip-path="url(#clip0_2_20578)">
<path d="M110.5 220C171.251 220 220.5 170.751 220.5 110C220.5 49.2487 171.251 0 110.5 0C49.7487 0 0.5 49.2487 0.5 110C0.5 170.751 49.7487 220 110.5 220Z" fill="#42C1CA"/>
<path d="M110.033 88.743C112.59 77.9973 115.67 68.338 118.943 62.0336C120.146 59.0223 125.027 51.8105 130.383 47.0461C139.3 39.1055 149.303 37.0911 159.718 43.6292L158.804 45.0798L159.718 43.6292C165.033 46.9636 167.164 50.3942 166.229 53.6255C165.542 56.0317 162.908 57.9567 161.499 57.7573C159.437 57.9636 157.36 57.5511 155.38 56.0936C153.713 54.8097 152.428 53.0961 151.661 51.1367C150.203 47.6992 148.292 46.5305 145.948 46.8055C144.25 46.998 142.277 48.0842 141.651 48.813L140.035 50.6005C138.779 51.9378 137.664 53.4007 136.708 54.9661C133.435 60.418 130.417 70.4073 126.23 91.108L153.978 95.1711L152.452 106.288L124.292 102.163L123.088 109.478L122.779 111.307C122.614 112.255 122.435 113.287 122.229 114.387L150.664 118.553L149.035 129.656L119.933 125.394C116.571 139.68 112.143 154.99 109.015 161.034C107.805 164.052 102.931 171.25 97.5753 176.021C88.6584 183.955 78.6553 185.976 68.2397 179.438C62.9253 176.104 60.794 172.666 61.729 169.435C62.4165 167.029 65.0497 165.11 66.459 165.31C68.5215 165.104 70.5978 165.516 72.5778 166.967C74.104 168.094 75.369 169.73 76.2972 171.93C77.7547 175.361 79.6659 176.537 82.0103 176.262C83.7084 176.062 85.6815 174.976 86.3072 174.247C92.5428 167.304 97.4859 153.925 103.735 123.029L75.9878 118.959L77.514 107.842L105.674 111.967L106.884 104.659C107.151 103.017 107.438 101.378 107.743 99.743L79.4184 95.5973L81.0409 84.4942L110.033 88.743Z" fill="white"/>
</g>
<defs>
<clipPath id="clip0_2_20578">
<rect width="220" height="220" fill="white" transform="translate(0.5)"/>
</clipPath>
</defs>
</svg>
