<svg width="221" height="220" viewBox="0 0 221 220" fill="none" xmlns="http://www.w3.org/2000/svg">
<g clip-path="url(#clip0_2_20564)">
<path d="M110.5 220C171.251 220 220.5 170.751 220.5 110C220.5 49.2487 171.251 0 110.5 0C49.7487 0 0.5 49.2487 0.5 110C0.5 170.751 49.7487 220 110.5 220Z" fill="#00AFEC"/>
<path d="M140.104 81.3192C140.441 80.7761 140.743 80.0542 141.053 79.4354C148.054 67.0374 151.739 53.0427 151.75 38.8042C141.884 33.1117 131.469 29.5229 120.139 28.2786C124.333 46.5798 130.272 64.3036 138.859 81.0029L140.104 81.3192ZM83.5363 78.1911L83.2269 78.1223L80.8206 77.5723V77.5311H80.7863L82.9519 68.0917C84.5537 68.4354 86.1556 68.8136 87.7506 69.2054H87.785C93.6237 56.0329 98.1755 42.3269 101.377 28.2786C86.6116 29.9091 72.5625 35.5036 60.7181 44.4692V44.4967C50.78 52.0223 42.6741 61.6997 37.0078 72.8035C31.3416 83.9074 28.2621 96.1497 28 108.613V110.263C36.8061 115.324 46.4603 118.739 56.49 120.342L56.5381 120.294C67.0635 107.297 76.1245 93.1798 83.5569 78.1979H83.5363V78.1911ZM135.181 92.1129C136.989 93.0754 137.663 94.4504 138.522 97.1454C139.712 101.215 138.908 105.499 138.062 109.52L148.037 111.837L150.512 101.092C160.584 116.595 171.756 132.607 185.321 145.174C182.859 150.764 181.333 152.716 177.71 157.625C155.504 150.791 131.854 147.168 108.616 147.395L110.603 139.454L103.976 137.907C102.944 137.646 101.893 137.185 101.274 136.278C100.497 135.247 100.497 133.885 100.758 132.669L104.904 114.642C107.049 115.158 109.29 115.495 111.297 116.45C112.237 116.828 113.074 117.421 113.742 118.181C114.41 118.942 114.889 119.849 115.141 120.83C115.684 123.566 114.522 126.192 114.054 128.825L122.978 130.888L130.417 98.6579L129.661 98.4036L129.076 98.2936C131.139 96.1279 132.94 94.2029 134.803 91.8517L135.188 92.1129H135.181ZM56.7513 122.411L56.9644 122.115C58.6969 122.5 60.0306 122.356 61.8044 122.542C68.15 123.105 74.31 123.229 80.6281 122.335C81.1094 122.267 81.6044 122.219 82.0925 122.198L80.6281 127.822C80.3669 128.935 79.8787 130.09 78.9231 130.792C78.4507 131.105 77.9183 131.317 77.3598 131.414C76.8012 131.511 76.2286 131.491 75.6781 131.355C73.4094 130.895 71.1406 130.276 68.8444 129.836C68.15 132.978 67.4006 136.127 66.6788 139.248L81.9137 142.775C81.295 145.614 81.1437 146.384 80.4975 149.196C67.8154 150.935 55.2895 153.669 43.0356 157.37C39.4262 152.469 37.8794 151.286 35.4594 145.69C43.1731 138.54 50.1169 130.585 56.7513 122.411ZM92.1231 145.126L98.235 146.542L98.0287 147.752L91.5044 148.22L92.1231 145.126ZM80.855 120.52C81.3293 120.455 81.8065 120.414 82.285 120.397V120.369L90.15 86.3379C90.4594 84.7911 91.0781 83.2442 90.59 81.6973C90.4011 81.1427 90.0871 80.639 89.6722 80.2253C89.2573 79.8116 88.7527 79.499 88.1975 79.3117L87.9431 79.2292C86.6369 78.8786 87.6406 79.1261 86.3138 78.8167C86.1694 78.7823 85.5094 79.0023 85.3581 78.9748C78.0081 93.7818 69.0337 107.725 58.6006 120.548C60.3263 120.912 60.0444 120.809 61.77 120.988C68.1294 121.572 74.53 121.414 80.8481 120.527L80.855 120.52Z" fill="white"/>
<path d="M98.3315 71.618V71.6455C99.5415 66.5373 100.676 61.4086 101.913 56.3074L112.075 58.6449L108.541 73.9899L114.625 75.4061C115.23 72.8555 115.828 70.298 116.413 67.7405L117.3 63.9042L118.186 60.068L128.341 62.3849C128.203 63.0724 128.052 63.7598 127.901 64.4473C126.918 68.8955 125.825 73.3024 124.841 77.7642L136.536 80.4867C127.949 63.7805 122.263 46.318 118.076 28.0167C115.45 27.7074 114.343 27.8105 111.683 27.7624H110.06C107.145 27.7624 106.066 27.6867 103.206 28.0167C99.9884 42.0624 96.1934 56.7955 90.3496 69.968L98.3315 71.618ZM111.813 84.7424L112.123 84.8111L112.157 84.7424H111.813Z" fill="white"/>
<path d="M111.841 84.7347L107.124 105.181C110.053 105.827 113.106 106.9 116.117 106.054C117.085 105.749 117.963 105.211 118.674 104.487C119.385 103.763 119.907 102.875 120.194 101.902C120.757 100.093 121.039 98.2372 121.534 96.4359L126.512 97.7009C126.732 97.7353 126.477 97.8659 126.622 97.7215L126.746 97.6253C128.808 95.4115 131.146 92.9847 133.002 90.6403C129.957 89.1173 126.712 88.0318 123.363 87.4159L111.841 84.7347ZM185.884 76.6978C178.769 60.789 168.628 48.8128 153.551 40.0815C153.537 54.3265 150.114 67.0384 143.115 79.4478C142.69 80.2243 142.303 81.0204 141.953 81.8334C146.669 82.8647 149.612 83.4972 154.328 84.5559V84.604L151.289 98.2647C161.341 113.761 172.554 130.825 186.091 143.406C190.408 133.561 192.759 122.967 193 112.214V108.343C192.737 97.4268 190.319 86.6698 185.884 76.6909V76.6978ZM28 112.063V113.252C28.1581 124.245 30.5094 133.286 34.9094 143.365C42.2088 136.631 48.9907 129.357 55.1975 121.605C45.1944 120.01 36.7656 117.15 28 112.063ZM108.334 149.188L104.876 164.244H104.856L94.6463 161.907L97.4856 149.552L90.9887 150.013L88.5825 160.483H88.5688L78.3525 158.139C78.875 155.815 79.3838 153.547 79.9544 151.257C67.7925 152.907 55.7887 155.554 44.0669 159.17C51.5953 169.388 61.3768 177.733 72.6524 183.559C83.9279 189.384 96.3942 192.533 109.084 192.762H112.459C125.054 192.437 137.409 189.242 148.583 183.421C159.757 177.6 169.456 169.306 176.94 159.17C154.722 152.328 131.581 148.961 108.334 149.188Z" fill="white"/>
</g>
<defs>
<clipPath id="clip0_2_20564">
<rect width="220" height="220" fill="white" transform="translate(0.5)"/>
</clipPath>
</defs>
</svg>
