<svg width="221" height="220" viewBox="0 0 221 220" fill="none" xmlns="http://www.w3.org/2000/svg">
<g clip-path="url(#clip0_2_20560)">
<path d="M110.5 220C171.251 220 220.5 170.751 220.5 110C220.5 49.2487 171.251 0 110.5 0C49.7487 0 0.5 49.2487 0.5 110C0.5 170.751 49.7487 220 110.5 220Z" fill="#C40E09"/>
<path fill-rule="evenodd" clip-rule="evenodd" d="M153.125 49.0875C153.743 49.5687 154.3 49.9812 154.816 50.4281C156.177 51.6313 157.545 52.8344 158.872 54.0788C159.924 55.0825 160.921 56.155 161.932 57.2069C162.014 57.2894 162.083 57.4819 162.055 57.5919C161.437 59.9844 160.502 62.2394 159.25 64.3431C158.15 66.1856 156.885 67.8769 155.414 69.3962C153.42 71.4587 151.186 73.1775 148.738 74.5869C147.673 75.2056 146.58 75.7556 145.487 76.3056C142.001 78.0725 138.288 79.0625 134.507 79.7638C131.929 80.245 129.323 80.5888 126.732 80.9463C123.322 81.4137 119.905 81.7919 116.502 82.2869C111.483 83.0156 106.567 84.1569 101.906 86.3225C96.7772 88.7081 92.5078 92.1938 89.6066 97.3431C87.6747 100.781 86.891 104.527 86.9253 108.501C86.9872 116.112 89.5928 122.691 94.0891 128.542C96.8391 132.117 99.9741 135.293 103.274 138.291C105.557 140.374 107.887 142.395 110.163 144.478C113.071 147.159 115.986 149.834 118.482 152.962C119.788 154.612 121.08 156.303 122.201 158.098C124.112 161.164 125.632 164.457 126.628 167.984C127.178 169.909 127.508 171.868 127.66 173.876C127.879 176.859 127.614 179.859 126.876 182.758C126.58 183.947 126.567 183.968 125.391 184.181C123.734 184.491 122.077 184.807 120.413 185.075C119.197 185.261 117.973 185.378 116.749 185.515C116.323 185.57 115.89 185.591 115.457 185.625L115.202 185.618C115.209 185.522 115.202 185.426 115.23 185.343C115.601 184.36 116.013 183.391 116.364 182.401C117.137 180.273 117.658 178.063 117.918 175.814C118.373 171.861 117.649 167.861 115.835 164.319C114.572 161.929 112.965 159.738 111.063 157.816C108.478 155.1 105.632 152.721 102.779 150.349C98.0147 146.382 93.4085 142.237 89.201 137.617C86.6412 134.828 84.3143 131.834 82.2435 128.666C79.9781 125.249 78.2009 121.533 76.9635 117.624C75.0723 111.548 75.0125 105.049 76.7916 98.9381C77.7953 95.4044 79.1497 92.0838 81.2397 89.1069C84.0035 85.1675 87.5716 82.2319 91.6622 79.9631C95.7872 77.66 100.187 76.1475 104.718 75.0131C108.362 74.0919 112.053 73.4044 115.773 72.9506C119.967 72.4419 124.16 72.0156 128.354 71.5413C131.778 71.1562 135.181 70.6819 138.488 69.6369C141.499 68.7276 144.266 67.1481 146.58 65.0169C148.58 63.1469 150.065 60.9056 151.131 58.3344C152.114 55.9625 152.595 53.46 152.946 50.9231C153.022 50.3594 153.063 49.7819 153.132 49.0875H153.125ZM104.587 137.266C106.093 136.971 107.523 136.716 108.946 136.407C112.603 135.596 116.213 134.619 119.602 132.887C122.938 131.197 125.903 128.86 128.327 126.012C130.802 123.083 132.83 119.859 133.888 116.036C134.552 113.616 134.785 111.098 134.576 108.597C134.145 103.507 132.406 98.615 129.53 94.3937C127.358 91.2005 124.87 88.2339 122.105 85.5388C121.623 85.0506 121.115 84.5763 120.627 84.095C120.558 84.0263 120.503 83.9438 120.4 83.82L123.012 83.4144L128.67 82.555C129.66 82.4038 130.65 82.2388 131.64 82.1081C131.757 82.0944 131.922 82.225 132.018 82.3281C133.778 84.3769 135.58 86.3844 137.271 88.495C139.471 91.2312 141.327 94.2287 142.84 97.46C144.18 100.341 145.163 103.338 145.645 106.514C145.982 108.735 146.126 110.976 145.899 113.218C145.239 119.494 143.376 125.304 139.698 130.378C137.415 133.533 134.603 136.084 131.434 138.215C127.743 140.65 123.727 142.555 119.506 143.873C117.698 144.451 115.869 144.946 114.047 145.454C113.963 145.473 113.876 145.474 113.792 145.456C113.708 145.438 113.628 145.403 113.559 145.351C110.623 142.739 107.702 140.106 104.78 137.479C104.725 137.438 104.683 137.376 104.594 137.273L104.587 137.266ZM119.135 70.5925L114.707 71.28L109.688 72.0569C109.104 72.1531 108.513 72.2631 107.915 72.325C107.696 72.3411 107.479 72.2722 107.31 72.1325C105.378 70.3573 103.583 68.4382 101.94 66.3919C101.047 65.2575 100.139 64.1231 99.3485 62.9062C96.6672 58.7537 94.5703 54.3194 93.6835 49.335C92.8903 45.0794 93.1212 40.6962 94.3572 36.5475C94.4328 36.2725 94.5153 36.135 94.8385 36.0731C96.681 35.7569 98.5028 35.3444 100.338 35.0419C101.851 34.8013 103.391 34.6775 104.917 34.4988L106.168 34.375C106.058 34.6225 105.997 34.7875 105.921 34.9319C104.606 37.6241 103.7 40.4974 103.233 43.4569C102.611 47.5008 103.262 51.6383 105.096 55.2956C106.615 58.355 108.692 60.9469 111.043 63.3394C113.49 65.8144 116.144 68.0419 118.805 70.2625C118.901 70.345 118.983 70.4344 119.142 70.5925H119.135ZM97.3135 148.197L94.3847 148.507C93.1472 148.644 91.9097 148.741 90.6722 148.933C88.7678 149.229 86.8566 149.518 84.9728 149.937C78.0772 151.463 72.7078 155.121 69.7791 162.154C68.7064 164.719 67.9068 167.389 67.3935 170.122C67.3728 170.246 67.3316 170.369 67.2766 170.589C66.8847 170.287 66.5203 170.039 66.1903 169.751C64.8153 168.527 63.4472 167.317 62.1066 166.066C61.1372 165.158 60.2228 164.189 59.2603 163.268C58.9372 162.958 58.8753 162.649 58.9922 162.209C60.294 157.506 62.8596 153.25 66.4103 149.903C68.7042 147.774 71.2703 145.959 74.0416 144.506C77.9328 142.374 82.0922 141.151 86.3547 140.229C86.8497 140.126 87.3585 140.071 87.8397 139.941C88.1422 139.858 88.3416 139.941 88.5547 140.14L92.5285 143.777L96.9353 147.826C97.0669 147.944 97.1931 148.068 97.3135 148.197ZM127.062 118.099C126.718 118.016 126.374 117.941 126.044 117.837L102.318 110.419C99.2728 109.471 96.2341 108.529 93.1953 107.573C92.0266 107.209 91.4285 106.253 91.5178 105.277C91.6416 103.833 92.1228 102.829 93.4772 102.561C93.8508 102.504 94.2326 102.537 94.591 102.658C97.1622 103.448 99.7266 104.273 102.291 105.071L120.448 110.736L127.687 112.984C128.229 113.133 128.698 113.472 129.01 113.939C129.322 114.406 129.455 114.97 129.385 115.528C129.186 117.061 128.272 118.057 127.062 118.099ZM76.9428 162.759C77.1628 162.814 77.4241 162.862 77.6785 162.938L110.713 173.25C111.847 173.607 112.521 174.556 112.418 175.67C112.287 177.169 111.503 178.166 110.328 178.269C109.964 178.287 109.6 178.235 109.255 178.118C100.146 175.285 91.0435 172.439 81.941 169.592C80.0435 169.001 78.146 168.424 76.2553 167.826C75.1966 167.489 74.4953 166.588 74.571 165.557C74.681 164.196 75.1828 163.158 76.3997 162.848C76.5578 162.8 76.7297 162.793 76.9497 162.759H76.9428ZM146.587 54.3812C146.483 54.6837 146.346 55.3163 146.05 55.8456C145.569 56.7119 144.586 57.035 143.617 56.7325L127.687 51.755C121.988 49.9744 116.288 48.1937 110.582 46.4269C109.613 46.1244 108.891 45.5538 108.781 44.4538C108.657 43.2163 109.228 41.5594 110.85 41.3738C111.158 41.3533 111.467 41.3954 111.758 41.4975L144.868 51.8306C145.968 52.1744 146.587 52.9856 146.587 54.3812ZM99.046 98.8144C99.1147 97.3913 99.7335 96.3187 100.847 96.0987C101.285 96.0212 101.735 96.0495 102.16 96.1812C105.502 97.1987 108.829 98.2506 112.17 99.2956L124.765 103.214C125.324 103.37 125.806 103.727 126.116 104.218C126.426 104.708 126.542 105.296 126.443 105.868C126.188 107.449 125.247 108.412 123.968 108.274C123.315 108.192 122.675 107.931 122.029 107.731L105.653 102.616L100.717 101.076C100.222 100.946 99.7863 100.651 99.4824 100.24C99.1785 99.8285 99.0245 99.3254 99.046 98.8144ZM96.7635 111.808C97.2035 111.925 97.5335 111.987 97.8566 112.083L118.619 118.573C119.19 118.752 119.767 118.917 120.338 119.102C121.61 119.515 122.228 120.698 121.898 122.045C121.644 123.111 121.135 123.929 120.035 124.114C119.676 124.166 119.309 124.136 118.963 124.025C116.323 123.221 113.69 122.389 111.057 121.564C106.155 120.037 101.26 118.504 96.3647 116.992C95.4572 116.71 94.7697 116.167 94.6185 115.17C94.4466 114.063 94.7353 113.039 95.6222 112.331C95.966 112.063 96.4197 111.966 96.7635 111.815V111.808ZM77.6303 174.969C77.7266 173.484 78.3728 172.322 79.7135 172.178C80.0076 172.148 80.3045 172.179 80.5866 172.267C88.2041 174.639 95.8216 177.011 103.439 179.396C104.663 179.781 105.261 180.991 104.952 182.284C104.69 183.384 104.127 184.154 103.047 184.401C102.845 184.458 102.633 184.463 102.428 184.415L81.0678 177.746C80.4422 177.547 79.8097 177.361 79.1772 177.155C78.7202 177.003 78.3237 176.709 78.0454 176.315C77.7672 175.922 77.6218 175.45 77.6303 174.969ZM84.4847 156.269C84.691 156.324 84.966 156.372 85.2341 156.454L107.791 163.494C108.891 163.838 109.578 164.801 109.496 165.873C109.379 167.344 108.623 168.355 107.468 168.499C107.077 168.531 106.684 168.482 106.313 168.355C100.228 166.464 94.1441 164.553 88.0666 162.649C86.616 162.202 85.1585 161.755 83.7147 161.294C82.656 160.951 82.0166 160.077 82.106 158.991C82.216 157.575 82.766 156.654 83.9485 156.344C84.0997 156.303 84.2578 156.303 84.4847 156.276V156.269ZM136.886 63.03C136.143 62.81 135.422 62.6106 134.7 62.3838C127.639 60.1838 120.578 57.9631 113.511 55.7562C112.102 55.3094 111.531 54.175 111.916 52.6763C112.157 51.7206 112.652 51.0331 113.58 50.82C113.989 50.7287 114.415 50.7429 114.817 50.8612C121.073 52.7931 127.337 54.7525 133.6 56.705C134.94 57.1175 136.274 57.5437 137.615 57.9631C138.124 58.1265 138.559 58.4643 138.843 58.9171C139.127 59.37 139.243 59.9086 139.168 60.4381C139.052 61.3456 138.797 62.2256 137.931 62.6725C137.608 62.8375 137.243 62.9063 136.886 63.03ZM143.644 44.4675C143.513 45.3819 143.266 46.3788 142.221 46.8875C141.688 47.125 141.082 47.1423 140.537 46.9356L124.277 41.8481L117.932 39.8544C116.598 39.4419 116.02 38.2869 116.385 36.8637C116.632 35.8944 117.1 35.145 118.069 34.9387C118.494 34.8558 118.934 34.8794 119.348 35.0075C123.624 36.3275 127.893 37.675 132.163 39.0087L141.96 42.0613C143.025 42.3981 143.651 43.23 143.644 44.4675Z" fill="white"/>
</g>
<defs>
<clipPath id="clip0_2_20560">
<rect width="220" height="220" fill="white" transform="translate(0.5)"/>
</clipPath>
</defs>
</svg>
