<svg width="221" height="220" viewBox="0 0 221 220" fill="none" xmlns="http://www.w3.org/2000/svg">
<g clip-path="url(#clip0_2_20556)">
<path d="M110.5 220C171.251 220 220.5 170.751 220.5 110C220.5 49.2487 171.251 0 110.5 0C49.7487 0 0.5 49.2487 0.5 110C0.5 170.751 49.7487 220 110.5 220Z" fill="#2080A2"/>
<path fill-rule="evenodd" clip-rule="evenodd" d="M110.362 139.542C102.491 148.528 102.298 160.854 110.452 169.063C118.159 161.638 118.166 147.799 110.362 139.542ZM110.369 55.7219C91.7725 77.2269 92.4738 102.651 110.356 123.777C128.561 102.217 128.609 76.9175 110.369 55.715V55.7219ZM123.514 117.769C138.983 101.956 157.855 98.34 179.25 101.764C172.354 117.576 162.626 130.206 145.439 136.812C149.234 133.836 152.692 131.402 155.82 128.611C161.045 123.956 164.744 118.319 166.593 111.547C167.178 109.409 166.421 108.804 164.455 108.487C157.257 107.332 150.499 108.845 144.043 111.787C133.181 116.738 124.333 124.362 116.034 132.646C115.89 132.798 115.828 133.018 115.567 133.492C131.826 134.111 144.208 140.601 151.544 155.595C142.015 157.713 133.297 157.266 125.212 152.068C131.304 153.938 137.381 155.299 144.05 152.137C143.225 150.762 142.744 149.153 141.644 148.252C138.639 145.798 135.559 143.316 132.156 141.446C126.897 138.572 121.019 137.225 114.515 135.891C123.294 151.271 121.094 165.234 110.362 178.75C105.371 172.459 101.879 165.88 100.923 158.111C99.9606 150.315 102.154 143.234 105.914 136.455C97.5956 135.121 79.645 144.753 76.8675 152.178C83.3094 155.437 89.5931 153.952 96.0625 151.546C91.415 156.331 78.0156 158.29 69.2775 155.409C76.5306 140.628 88.8506 134.117 105.474 133.499C104.251 132.261 103.343 131.306 102.394 130.391C95.4781 123.722 88.1287 117.604 79.4937 113.149C72.4331 109.505 65.0287 107.222 56.8956 108.439C55.9331 108.584 54.9775 108.817 53.63 109.092C56.105 121.811 64.63 129.697 75.1763 136.345C64.0938 135.004 45.3937 115.638 41.75 101.736C63.1312 98.2713 82.1062 102.066 97.5062 118.229C84.7669 89.8563 91.5456 64.7419 110.362 41.25C129.028 64.5563 135.876 89.4919 123.514 117.769Z" fill="white"/>
</g>
<defs>
<clipPath id="clip0_2_20556">
<rect width="220" height="220" fill="white" transform="translate(0.5)"/>
</clipPath>
</defs>
</svg>
