<svg width="221" height="220" viewBox="0 0 221 220" fill="none" xmlns="http://www.w3.org/2000/svg">
<g clip-path="url(#clip0_2_20571)">
<path d="M110.5 220C171.251 220 220.5 170.751 220.5 110C220.5 49.2487 171.251 0 110.5 0C49.7487 0 0.5 49.2487 0.5 110C0.5 170.751 49.7487 220 110.5 220Z" fill="#2B61D1"/>
<path d="M171.785 106.409L138.196 87.2903L104.868 106.737L105.065 145.368L138.654 164.487L171.981 145.04L171.785 106.409Z" fill="white"/>
<path d="M88.565 122.912L68.9221 111.715L49.3447 123.108L49.4757 145.763L69.1186 156.959L88.6305 145.501L88.565 122.912Z" fill="white"/>
<path d="M68.7912 95.5369L90.2019 107.781L90.1364 98.3524L138.13 70.3286L171.654 89.4476L171.589 74.4536L110.303 39.4238L49.3447 75.0429L49.4757 106.864L68.7912 95.5369Z" fill="white"/>
<path d="M83.3271 164.815L111.024 180.66L123.988 173.065L96.2914 157.285L83.3271 164.815Z" fill="white"/>
</g>
<defs>
<clipPath id="clip0_2_20571">
<rect width="220" height="220" fill="white" transform="translate(0.5)"/>
</clipPath>
</defs>
</svg>
