<svg width="221" height="220" viewBox="0 0 221 220" fill="none" xmlns="http://www.w3.org/2000/svg">
<g clip-path="url(#clip0_2_20552)">
<path d="M110.5 220C171.251 220 220.5 170.751 220.5 110C220.5 49.2487 171.251 0 110.5 0C49.7487 0 0.5 49.2487 0.5 110C0.5 170.751 49.7487 220 110.5 220Z" fill="#1D9AD7"/>
<path fill-rule="evenodd" clip-rule="evenodd" d="M179.25 83.9582C172.313 76.712 158.061 70.6482 131.482 66.9289C123.102 65.7555 114.688 64.8407 106.251 64.1857C99.6993 63.7939 93.34 63.402 87.18 63.402C76.9706 78.6645 67.3387 97.0689 58.8618 119.186C49.615 143.454 41.3375 167.338 35.5625 189.063H33.83C34.4075 165.771 38.2575 139.35 46.1568 111.946C51.3612 94.1401 57.5212 78.472 64.4581 64.777C33.2456 68.1045 10.9018 77.6951 0.506836 91.3901C9.36871 69.6651 35.755 51.2676 76.015 44.812C97.3962 12.9051 122.627 -1.38801 143.624 4.88199C150.939 7.03386 157.106 11.7295 162.117 18.3845C161.533 17.9926 160.956 17.6007 160.192 17.4082C144.779 11.1451 123.975 20.1445 103.749 42.4607H104.711C149.976 42.2682 172.897 61.4495 179.257 83.9582H179.25ZM122.621 113.314C134.947 113.314 144.964 123.689 144.964 136.414C144.964 149.133 134.947 159.508 122.621 159.508C110.294 159.508 100.277 149.133 100.277 136.408C100.277 123.496 110.294 113.314 122.621 113.314Z" fill="white"/>
</g>
<defs>
<clipPath id="clip0_2_20552">
<rect width="220" height="220" fill="white" transform="translate(0.5)"/>
</clipPath>
</defs>
</svg>
