<svg width="221" height="220" viewBox="0 0 221 220" fill="none" xmlns="http://www.w3.org/2000/svg">
<g clip-path="url(#clip0_2_20548)">
<path d="M110.5 220C171.251 220 220.5 170.751 220.5 110C220.5 49.2487 171.251 0 110.5 0C49.7487 0 0.5 49.2487 0.5 110C0.5 170.751 49.7487 220 110.5 220Z" fill="#27323A"/>
<path d="M169.646 41.25C169.646 41.25 180.969 51.315 172.932 71.7956C171.404 75.5605 169.283 79.0561 166.648 82.1494L138.701 114.943L116.275 144.217C116.275 144.217 90.5212 139.982 80.5112 150.37L122.958 152.254C122.958 152.254 113.896 162.174 78.1325 155.072C78.1325 155.072 78.6138 165.028 94.8319 167.86C94.8319 167.86 80.5113 172.597 71.9244 158.874C71.9244 158.874 71.9244 168.829 81.9344 173.064C81.9344 173.064 73.8219 174.948 67.1394 166.444L55.7062 178.709C55.7062 178.709 53.3344 179.183 54.7575 176.832L64.2931 165.502C64.2931 165.502 65.2419 157.465 59.5081 160.291C59.5081 160.291 55.7063 161.7 57.1294 165.969C57.1294 165.969 51.3956 161.267 58.085 155.114L45.1875 142.34L61.88 151.312L54.7231 133.829L66.6306 148.961C66.6306 148.961 65.6406 131.952 70.9069 127.242C70.9069 127.242 72.33 143.784 79.0194 145.2L78.5381 110.701L85.7019 104.555L86.6506 126.266C86.6506 126.266 88.5481 128.618 90.4456 125.799C90.4456 125.799 94.7563 118.704 94.7563 97.9275L106.189 87.065L107.619 95.5763C107.619 95.5763 109.551 98.8694 111.93 96.0438L114.302 79.5094C114.302 79.5094 129.564 62.0263 169.646 41.25ZM93.3331 137.156C132.892 100.788 153.902 65.3537 153.861 65.3537C134.322 79.035 93.3331 137.163 93.3331 137.163V137.156Z" fill="white"/>
</g>
<defs>
<clipPath id="clip0_2_20548">
<rect width="220" height="220" fill="white" transform="translate(0.5)"/>
</clipPath>
</defs>
</svg>
