<svg width="221" height="220" viewBox="0 0 221 220" fill="none" xmlns="http://www.w3.org/2000/svg">
<g clip-path="url(#clip0_2_20544)">
<path d="M110.5 220C171.251 220 220.5 170.751 220.5 110C220.5 49.2487 171.251 0 110.5 0C49.7487 0 0.5 49.2487 0.5 110C0.5 170.751 49.7487 220 110.5 220Z" fill="#4096D0"/>
<path d="M176.033 68.7501H131.379L118.138 101.956H76.3794V84.8582H118.138L124.25 68.7501H61.0138C60.2309 68.7464 59.4785 69.0534 58.9217 69.6038C58.365 70.1541 58.0492 70.9028 58.0437 71.6857V101.949H47.8687L41.75 118.051H58.0437V148.28C58.0437 149.916 59.3912 151.25 61.055 151.25H91.6556L97.7675 135.156H76.3794V118.044H111.009L97.7675 151.25H118.138L132.397 118.044H176.259C177.909 118.044 179.25 116.724 179.25 115.094V71.9194C179.243 71.0728 178.9 70.2636 178.297 69.6694C177.693 69.0752 176.879 68.7446 176.033 68.7501ZM161.939 99.4126C161.939 100.815 160.791 101.956 159.368 101.956H138.509L145.638 84.8651H159.354C160.033 84.8577 160.687 85.1199 161.173 85.5942C161.659 86.0685 161.937 86.7161 161.946 87.3951L161.939 99.4126Z" fill="white"/>
</g>
<defs>
<clipPath id="clip0_2_20544">
<rect width="220" height="220" fill="white" transform="translate(0.5)"/>
</clipPath>
</defs>
</svg>
