<svg width="221" height="220" viewBox="0 0 221 220" fill="none" xmlns="http://www.w3.org/2000/svg">
<g clip-path="url(#clip0_2_20540)">
<path d="M110.5 220C171.251 220 220.5 170.751 220.5 110C220.5 49.2487 171.251 0 110.5 0C49.7487 0 0.5 49.2487 0.5 110C0.5 170.751 49.7487 220 110.5 220Z" fill="#ED1968"/>
<path d="M87.812 184.936C79.0283 182.503 70.8382 178.291 63.7495 172.561C56.7646 167.181 50.7237 160.675 45.8745 153.311C40.7035 145.565 36.9768 136.947 34.8745 127.874C32.4676 117.005 32.4676 105.742 34.8745 94.8738C36.9257 85.6801 40.4054 76.8647 45.187 68.7488C52.1871 57.5179 62.1889 48.4688 74.062 42.6238C78.2315 40.3796 82.6055 38.538 87.1245 37.1238C93.9995 45.3738 100.874 54.3113 107.749 63.2488C108.437 64.6238 109.812 65.3113 110.499 66.6863C103.603 66.9754 96.8305 68.6102 90.562 71.4988C85.0202 74.3959 80.112 78.3693 76.1245 83.1863C72.201 88.3727 69.1795 94.1832 67.187 100.374C65.351 107.858 65.5887 115.702 67.8745 123.061L97.437 99.6863C104.312 108.624 111.187 116.874 118.062 125.811C108.437 133.374 98.1245 140.936 88.4995 149.186C98.1245 161.561 108.437 174.624 118.062 187.686C107.897 188.888 97.5934 187.951 87.812 184.936ZM153.331 101.653C153.078 100.527 152.78 99.4124 152.437 98.3113C151.509 99.04 131.056 114.674 122.874 121.686C115.999 112.749 109.124 104.499 102.249 95.5613C111.874 87.9988 122.187 80.4363 131.812 72.1863C122.187 59.8113 112.562 47.4363 102.249 34.3738C102.249 33.6863 101.562 33.6863 101.562 32.9988H111.187C128.822 33.1634 145.845 39.4863 159.312 50.8738C165.875 56.297 171.456 62.8086 175.812 70.1238C180.942 77.9986 184.232 86.928 185.437 96.2488C187.279 106.964 187.045 117.934 184.749 128.561C182.781 137.466 179.04 145.883 173.749 153.311C169.132 160.442 163.317 166.722 156.562 171.874C149.983 177.59 142.242 181.812 133.874 184.249C127.687 176.686 122.187 169.811 116.687 162.249C114.632 159.897 112.792 157.366 111.187 154.686C117.692 154.708 124.115 153.231 129.957 150.369C135.799 147.508 140.904 143.339 144.874 138.186C148.834 133.121 151.649 127.257 153.124 120.999C154.403 115.781 154.472 109.332 153.331 101.653ZM120.86 159.217C125.608 165.702 130.537 172.052 135.641 178.261C142.171 175.899 148.205 172.344 153.434 167.776C159.774 162.93 165.226 157.022 169.549 150.314C174.434 143.459 177.889 135.692 179.71 127.475C181.869 117.493 182.082 107.187 180.329 96.9088C179.204 88.2894 176.147 80.0356 171.384 72.7638C167.32 65.9406 162.11 59.8684 155.984 54.8132C143.61 44.3445 128.004 38.4635 111.799 38.1619C118.172 46.2744 124.628 54.545 135.882 69.0238L138.907 72.9013L135.167 76.0982C130.277 80.2573 125.284 84.2941 120.193 88.205C119.712 88.5831 113.868 93.0725 109.482 96.4688C111.29 98.7719 113.387 101.398 116.591 105.406C119.753 109.359 121.85 111.993 123.658 114.296C126.848 111.663 130.327 108.899 134.493 105.668C135.167 105.145 146.153 96.6888 149.254 94.255L155.139 89.6281L157.359 96.7781C159.922 105.018 160.193 113.799 158.143 122.181C156.501 129.154 153.367 135.689 148.958 141.335C141.947 150.433 131.877 156.683 120.613 158.928L120.86 159.217Z" fill="white"/>
</g>
<defs>
<clipPath id="clip0_2_20540">
<rect width="220" height="220" fill="white" transform="translate(0.5)"/>
</clipPath>
</defs>
</svg>
