<svg width="221" height="220" viewBox="0 0 221 220" fill="none" xmlns="http://www.w3.org/2000/svg">
<g clip-path="url(#clip0_2_20536)">
<path d="M110.5 220C171.251 220 220.5 170.751 220.5 110C220.5 49.2487 171.251 0 110.5 0C49.7487 0 0.5 49.2487 0.5 110C0.5 170.751 49.7487 220 110.5 220Z" fill="#2D475B"/>
<path d="M88.9737 87.2098H165.183V104.315H88.9737V87.2098ZM165.183 115.7H165.499V160.683C165.499 160.683 106.051 203.755 59.8787 156.888C59.8787 156.888 34.5787 131.23 43.75 93.8579C43.75 93.8579 51.0237 47.3073 106.367 41.6079C106.367 41.6079 140.516 36.8504 162.653 62.1917L149.371 75.1717C149.371 75.1717 121.224 46.0354 83.5975 68.8467C83.5975 68.8467 52.9212 85.9448 65.5712 129.017C65.5712 129.017 79.4862 166.389 123.122 158.785C123.122 158.785 137.986 155.403 145.576 148.858V132.805H88.9806V115.7H165.183Z" fill="white"/>
</g>
<defs>
<clipPath id="clip0_2_20536">
<rect width="220" height="220" fill="white" transform="translate(0.5)"/>
</clipPath>
</defs>
</svg>
