<svg width="221" height="220" viewBox="0 0 221 220" fill="none" xmlns="http://www.w3.org/2000/svg">
<g clip-path="url(#clip0_2_20532)">
<path d="M110.5 220C171.251 220 220.5 170.751 220.5 110C220.5 49.2487 171.251 0 110.5 0C49.7487 0 0.5 49.2487 0.5 110C0.5 170.751 49.7487 220 110.5 220Z" fill="#58BF00"/>
<path d="M172.375 155.238L124.319 132.839V83.2013L172.375 66.1581V155.238ZM102.408 178.75L55.5 156.894V68.4613L102.408 90.3237V178.75ZM171.227 62.9544L170.45 63.2294L124.319 79.5988L123.164 80.0112L103.618 86.9412L57.3494 65.3813L123.164 42.0337L123.741 41.8275L124.958 41.3944L125.384 41.25L171.653 62.81L171.22 62.9544H171.227Z" fill="white"/>
</g>
<defs>
<clipPath id="clip0_2_20532">
<rect width="220" height="220" fill="white" transform="translate(0.5)"/>
</clipPath>
</defs>
</svg>
