<svg width="221" height="220" viewBox="0 0 221 220" fill="none" xmlns="http://www.w3.org/2000/svg">
<g clip-path="url(#clip0_2_20525)">
<path d="M110.5 220C171.251 220 220.5 170.751 220.5 110C220.5 49.2487 171.251 0 110.5 0C49.7487 0 0.5 49.2487 0.5 110C0.5 170.751 49.7487 220 110.5 220Z" fill="#BC3FE0"/>
<path fill-rule="evenodd" clip-rule="evenodd" d="M76.7231 101.853V85.8206C76.7231 60.5481 91.9788 44.6875 118.489 44.6875C138.646 44.6875 149.908 53.2263 158.625 64.2125L141.554 77.275C135.016 69.2656 128.836 64.5563 118.674 64.5563C106.506 64.5563 99.2388 72.9231 99.2388 86.35V101.853H144.463V119.982H99.2388V149.786H158.261V168.438H62.375V154.846L76.7231 150.659V119.982H62.375V101.853H76.7231Z" fill="white"/>
</g>
<defs>
<clipPath id="clip0_2_20525">
<rect width="220" height="220" fill="white" transform="translate(0.5)"/>
</clipPath>
</defs>
</svg>
