<svg width="221" height="220" viewBox="0 0 221 220" fill="none" xmlns="http://www.w3.org/2000/svg">
<g clip-path="url(#clip0_2_20529)">
<path d="M220.5 110C220.5 131.756 214.049 153.023 201.962 171.113C189.875 189.202 172.695 203.301 152.595 211.627C132.495 219.952 110.378 222.131 89.0401 217.886C67.7022 213.642 48.1021 203.166 32.7183 187.782C17.3345 172.398 6.85804 152.798 2.61367 131.46C-1.63071 110.122 0.547661 88.0047 8.8733 67.9048C17.1989 47.805 31.2979 30.6253 49.3873 18.5383C67.4767 6.45139 88.7441 0 110.5 0C139.674 0 167.653 11.5893 188.282 32.2183C208.911 52.8473 220.5 80.8262 220.5 110Z" fill="#001B69"/>
<path d="M118.21 54.3199C123.101 54.2654 127.979 54.8469 132.72 56.0499C136.714 57.0135 140.578 58.4503 144.23 60.3299L139.23 71.1599C136.173 69.6079 132.975 68.349 129.68 67.3999C126.152 66.297 122.476 65.7405 118.78 65.7499C116.51 65.712 114.25 66.0499 112.09 66.7499C110.083 67.3872 108.261 68.5025 106.78 69.9999C105.179 71.6109 103.967 73.5677 103.24 75.7199C102.382 78.4694 101.977 81.3402 102.04 84.2199V106.4H130.31V116.7H102.04V132.6C102.083 135.294 101.781 137.983 101.14 140.6C100.667 142.616 99.8806 144.547 98.8102 146.32C97.9144 147.853 96.7686 149.225 95.4202 150.38C94.195 151.428 92.8837 152.372 91.5002 153.2H147.75V165.68H73.2402V154.1C75.3332 153.588 77.3503 152.805 79.2402 151.77C81.0805 150.728 82.6898 149.323 83.9702 147.64C85.3985 145.798 86.4702 143.705 87.1302 141.47C87.9331 138.635 88.3139 135.696 88.2602 132.75V116.75H73.3902V106.45H88.2802V82.0699C88.2234 78.0731 88.9787 74.1063 90.5002 70.4099C91.9007 67.0905 94.006 64.1152 96.6702 61.6899C99.4142 59.226 102.639 57.3568 106.14 56.1999C110.032 54.9088 114.111 54.2735 118.21 54.3199Z" fill="white"/>
</g>
<defs>
<clipPath id="clip0_2_20529">
<rect width="220" height="220" fill="white" transform="translate(0.5)"/>
</clipPath>
</defs>
</svg>
