<svg width="221" height="220" viewBox="0 0 221 220" fill="none" xmlns="http://www.w3.org/2000/svg">
<g clip-path="url(#clip0_2_20521)">
<path d="M110.5 220C171.251 220 220.5 170.751 220.5 110C220.5 49.2487 171.251 0 110.5 0C49.7487 0 0.5 49.2487 0.5 110C0.5 170.751 49.7487 220 110.5 220Z" fill="#1666AF"/>
<path d="M108.431 75.6662V89.8287H76.1181C71.9244 89.8287 66.7613 91.3 62.9181 94.0225C58.1538 97.405 55.4931 102.472 55.4931 110.021C55.4931 117.569 58.1538 122.636 62.9181 126.019C66.7613 128.741 71.9244 130.213 76.1181 130.213H89.8681V144.375H76.1181C68.6069 144.301 61.2915 141.97 55.1219 137.686C46.6794 131.691 41.75 122.299 41.75 110.021C41.75 97.7419 46.6794 88.3506 55.1219 82.3556C61.2894 78.0718 68.6023 75.7412 76.1113 75.6662H108.431ZM74.0556 118.167V104.005H108.431V144.375H94.6875V118.167H74.0556ZM131.125 89.7875V75.625H179.25V144.375H117.361V89.8356H131.111V130.206H165.5V89.7944L131.125 89.7875Z" fill="white"/>
</g>
<defs>
<clipPath id="clip0_2_20521">
<rect width="220" height="220" fill="white" transform="translate(0.5)"/>
</clipPath>
</defs>
</svg>
