<svg width="221" height="220" viewBox="0 0 221 220" fill="none" xmlns="http://www.w3.org/2000/svg">
<g clip-path="url(#clip0_2_20513)">
<path d="M110.5 220C171.251 220 220.5 170.751 220.5 110C220.5 49.2487 171.251 0 110.5 0C49.7487 0 0.5 49.2487 0.5 110C0.5 170.751 49.7487 220 110.5 220Z" fill="#EFB914"/>
<path fill-rule="evenodd" clip-rule="evenodd" d="M144.889 67.7531C150.646 72.2705 155.437 77.8985 158.978 84.303C162.518 90.7076 164.736 97.7581 165.5 105.036L145.927 100.169C144.085 94.0179 140.667 88.4555 136.012 84.0332C131.357 79.611 125.626 76.4825 119.389 74.9581C99.6854 70.0562 79.7892 81.7712 74.9423 101.124C70.0955 120.478 82.1611 140.14 101.872 145.042C108.102 146.615 114.635 146.535 120.825 144.811C127.015 143.087 132.648 139.778 137.168 135.211L156.741 140.071C152.64 146.142 147.363 151.33 141.222 155.327C135.082 159.324 128.203 162.05 120.991 163.343L115.422 185.625L97.5748 181.191L102.002 163.488C98.9727 162.989 95.9884 162.247 93.0786 161.267L88.6579 178.97L70.8105 174.529L76.3792 152.247C60.0305 139.356 51.8011 117.899 57.1017 96.69C62.4023 75.4806 79.7686 60.3831 100.277 56.6569L105.845 34.375L123.693 38.8094L119.265 56.5125C122.295 57.0108 125.279 57.7535 128.189 58.7331L132.61 41.03L150.457 45.4712L144.889 67.7531Z" fill="white"/>
</g>
<defs>
<clipPath id="clip0_2_20513">
<rect width="220" height="220" fill="white" transform="translate(0.5)"/>
</clipPath>
</defs>
</svg>
