<svg width="221" height="220" viewBox="0 0 221 220" fill="none" xmlns="http://www.w3.org/2000/svg">
<g clip-path="url(#clip0_2_20507)">
<path d="M110.5 220C171.251 220 220.5 170.751 220.5 110C220.5 49.2487 171.251 0 110.5 0C49.7487 0 0.5 49.2487 0.5 110C0.5 170.751 49.7487 220 110.5 220Z" fill="#008DDE"/>
<path d="M165.7 119.115C166.371 119.14 167.041 119.029 167.668 118.789C168.296 118.55 168.869 118.186 169.353 117.719C169.837 117.253 170.222 116.694 170.485 116.076C170.748 115.457 170.883 114.792 170.883 114.12C170.883 113.448 170.748 112.783 170.485 112.165C170.222 111.547 169.837 110.987 169.353 110.521C168.869 110.055 168.296 109.691 167.668 109.451C167.041 109.212 166.371 109.101 165.7 109.126H154.287V97.8369H178.15C178.822 97.8618 179.491 97.7511 180.119 97.5113C180.747 97.2715 181.32 96.9076 181.804 96.4414C182.288 95.9751 182.672 95.4161 182.935 94.7977C183.198 94.1793 183.334 93.5142 183.334 92.8422C183.334 92.1703 183.198 91.5052 182.935 90.8868C182.672 90.2684 182.288 89.7094 181.804 89.2431C181.32 88.7768 180.747 88.4129 180.119 88.1732C179.491 87.9334 178.822 87.8226 178.15 87.8475H154.191C153.707 82.499 151.465 77.4613 147.816 73.5211C144.167 69.5809 139.315 66.96 134.02 66.0675V54.0432C134.045 53.3717 133.934 52.702 133.694 52.0743C133.454 51.4466 133.09 50.8737 132.624 50.3898C132.158 49.9059 131.599 49.521 130.98 49.2581C130.362 48.9952 129.697 48.8597 129.025 48.8597C128.353 48.8597 127.688 48.9952 127.069 49.2581C126.451 49.521 125.892 49.9059 125.426 50.3898C124.96 50.8737 124.596 51.4466 124.356 52.0743C124.116 52.702 124.005 53.3717 124.03 54.0432V65.7307H112.742V39.4613C112.766 38.7898 112.656 38.1202 112.416 37.4924C112.176 36.8647 111.812 36.2918 111.346 35.8079C110.88 35.324 110.321 34.9391 109.702 34.6762C109.084 34.4133 108.419 34.2778 107.747 34.2778C107.075 34.2778 106.41 34.4133 105.791 34.6762C105.173 34.9391 104.614 35.324 104.148 35.8079C103.681 36.2918 103.318 36.8647 103.078 37.4924C102.838 38.1202 102.727 38.7898 102.752 39.4613V65.7238H91.4565V54.0363C91.4085 52.7437 90.8613 51.52 89.9299 50.6225C88.9984 49.725 87.7553 49.2235 86.4618 49.2235C85.1683 49.2235 83.9252 49.725 82.9938 50.6225C82.0623 51.52 81.5151 52.7437 81.4671 54.0363V66.0675C76.1714 66.96 71.3202 69.5809 67.671 73.5211C64.0218 77.4613 61.7801 82.499 61.2959 87.8475H33.0878C32.4163 87.8226 31.7466 87.9334 31.1189 88.1732C30.4912 88.4129 29.9182 88.7768 29.4344 89.2431C28.9505 89.7094 28.5656 90.2684 28.3027 90.8868C28.0398 91.5052 27.9043 92.1703 27.9043 92.8422C27.9043 93.5142 28.0398 94.1793 28.3027 94.7977C28.5656 95.4161 28.9505 95.9751 29.4344 96.4414C29.9182 96.9076 30.4912 97.2715 31.1189 97.5113C31.7466 97.7511 32.4163 97.8618 33.0878 97.8369H61.2065V109.126H49.794C49.1225 109.101 48.4529 109.212 47.8251 109.451C47.1974 109.691 46.6245 110.055 46.1406 110.521C45.6567 110.987 45.2718 111.547 45.0089 112.165C44.746 112.783 44.6105 113.448 44.6105 114.12C44.6105 114.792 44.746 115.457 45.0089 116.076C45.2718 116.694 45.6567 117.253 46.1406 117.719C46.6245 118.186 47.1974 118.55 47.8251 118.789C48.4529 119.029 49.1225 119.14 49.794 119.115H61.2065V130.404H39.4609C38.7894 130.379 38.1197 130.49 37.492 130.729C36.8643 130.969 36.2914 131.333 35.8075 131.799C35.3236 132.266 34.9387 132.825 34.6758 133.443C34.4129 134.061 34.2774 134.727 34.2774 135.398C34.2774 136.07 34.4129 136.736 34.6758 137.354C34.9387 137.972 35.3236 138.531 35.8075 138.998C36.2914 139.464 36.8643 139.828 37.492 140.068C38.1197 140.307 38.7894 140.418 39.4609 140.393H61.2959C61.7801 145.742 64.0218 150.779 67.671 154.72C71.3202 158.66 76.1714 161.281 81.4671 162.173V169.942C81.4422 170.613 81.553 171.283 81.7927 171.911C82.0325 172.539 82.3964 173.111 82.8627 173.595C83.3289 174.079 83.888 174.464 84.5064 174.727C85.1248 174.99 85.7899 175.125 86.4618 175.125C87.1338 175.125 87.7988 174.99 88.4172 174.727C89.0357 174.464 89.5947 174.079 90.061 173.595C90.5272 173.111 90.8911 172.539 91.1309 171.911C91.3707 171.283 91.4814 170.613 91.4565 169.942V162.51H102.745V185.136C102.793 186.428 103.34 187.652 104.272 188.549C105.203 189.447 106.446 189.948 107.74 189.948C109.033 189.948 110.277 189.447 111.208 188.549C112.139 187.652 112.687 186.428 112.735 185.136V162.51H124.023V174.198C123.998 174.869 124.109 175.539 124.349 176.166C124.589 176.794 124.953 177.367 125.419 177.851C125.885 178.335 126.444 178.72 127.063 178.983C127.681 179.246 128.346 179.381 129.018 179.381C129.69 179.381 130.355 179.246 130.973 178.983C131.592 178.72 132.151 178.335 132.617 177.851C133.083 177.367 133.447 176.794 133.687 176.166C133.927 175.539 134.038 174.869 134.013 174.198V162.18C139.309 161.288 144.16 158.667 147.809 154.726C151.458 150.786 153.7 145.749 154.184 140.4H187.26C187.931 140.425 188.601 140.314 189.228 140.074C189.856 139.835 190.429 139.471 190.913 139.004C191.397 138.538 191.782 137.979 192.045 137.361C192.308 136.742 192.443 136.077 192.443 135.405C192.443 134.733 192.308 134.068 192.045 133.45C191.782 132.832 191.397 132.272 190.913 131.806C190.429 131.34 189.856 130.976 189.228 130.736C188.601 130.496 187.931 130.386 187.26 130.411H154.294V119.122H165.7V119.115ZM146.312 138.241C146.308 142.562 144.591 146.704 141.536 149.759C138.481 152.814 134.339 154.531 130.018 154.535H85.4684C81.1481 154.531 77.0059 152.814 73.951 149.759C70.8961 146.704 69.1783 142.562 69.1746 138.241V89.9925C69.1783 85.6723 70.8961 81.53 73.951 78.4751C77.0059 75.4203 81.1481 73.7024 85.4684 73.6988H130.018C134.339 73.7024 138.481 75.4203 141.536 78.4751C144.591 81.53 146.308 85.6723 146.312 89.9925V138.234V138.241Z" fill="white"/>
<path d="M96.0699 85.4886C94.1404 85.4576 92.2107 85.5242 90.288 85.6879C87.2492 86.0317 85.0149 88.7817 84.9186 91.7654C84.7674 98.5304 84.8911 105.309 84.8499 112.074C84.9461 115.525 84.6161 119.018 85.1249 122.435C85.613 125.487 88.5967 127.454 91.5599 127.447C100.772 127.509 109.985 127.467 119.197 127.474V131.29H89.5317L85.7161 142.737H115.237C118.689 142.64 122.174 142.97 125.598 142.469C128.65 141.98 130.61 138.997 130.603 136.034C130.672 123.982 130.617 111.93 130.637 99.8711C130.527 96.6398 130.919 93.3467 130.266 90.1567C129.572 86.9048 126.086 85.3029 123.006 85.5023H101.859C99.9336 85.5367 97.9949 85.4954 96.063 85.4817L96.0699 85.4886ZM96.2967 96.9492H119.19V116.027H96.2967V96.9492Z" fill="white"/>
</g>
<defs>
<clipPath id="clip0_2_20507">
<rect width="220" height="220" fill="white" transform="translate(0.5)"/>
</clipPath>
</defs>
</svg>
