<svg width="221" height="220" viewBox="0 0 221 220" fill="none" xmlns="http://www.w3.org/2000/svg">
<g clip-path="url(#clip0_2_20503)">
<path d="M110.5 220C171.251 220 220.5 170.751 220.5 110C220.5 49.2487 171.251 0 110.5 0C49.7487 0 0.5 49.2487 0.5 110C0.5 170.751 49.7487 220 110.5 220Z" fill="#005396"/>
<path d="M85.2549 31.61C92.3986 29.3091 99.8239 27.9975 107.324 27.7118C117.616 27.2443 127.962 28.915 137.69 32.2356C153.552 37.8341 167.33 48.1345 177.187 61.7637C179.456 64.7887 181.367 68.0406 183.21 71.3406C185.348 75.5206 187.28 79.8243 188.737 84.2862C190.662 90.4118 192.106 96.7575 192.553 103.186C192.787 104.574 192.635 105.991 192.828 107.379C192.897 109.119 192.869 110.858 192.828 112.611C192.635 114.007 192.787 115.423 192.553 116.812C192.14 122.601 190.944 128.321 189.294 133.889C187.904 138.489 186.109 142.957 183.932 147.241C175.822 163.166 162.773 176.036 146.738 183.926C142.266 186.155 137.584 187.935 132.761 189.24C124.683 191.557 116.261 192.54 107.887 192.306C106.492 192.114 105.055 192.265 103.687 192.031C97.4099 191.598 91.2361 190.23 85.2342 188.36C73.1966 184.453 62.2159 177.836 53.1372 169.018C44.0586 160.2 37.1241 149.417 32.8674 137.499C30.1861 129.696 28.4674 121.535 28.2611 113.264C27.9792 109.297 28.2817 105.31 28.6049 101.35C29.203 95.4993 30.5299 89.7106 32.3311 84.1212C37.8036 67.7263 48.2709 53.4557 62.2649 43.3112C65.2899 41.0425 68.5417 39.1175 71.8417 37.2887C76.1398 35.0108 80.6278 33.1107 85.2549 31.61ZM101.136 61.3787V80.6425C101.095 80.9862 101.411 81.1787 101.583 81.4125C104.539 84.52 107.523 87.6 110.479 90.7143C110.458 80.9358 110.458 71.1572 110.479 61.3787C107.372 61.3787 104.244 61.3581 101.129 61.3787H101.136ZM60.5049 71.3475C61.213 71.815 61.7286 72.4956 62.3267 73.08C68.693 79.5081 75.0799 85.9156 81.4186 92.385C87.228 98.2562 93.058 104.107 98.8399 109.978C91.8342 117.156 84.698 124.209 77.713 131.387C72.1236 137.024 66.5274 142.662 60.9586 148.292C60.8114 148.412 60.66 148.527 60.5049 148.636C68.7342 148.636 76.9842 148.657 85.2342 148.595C93.6561 139.781 102.119 130.995 110.521 122.167C118.942 130.974 127.385 139.781 135.807 148.595C144.036 148.657 152.265 148.616 160.488 148.636C159.23 147.626 158.24 146.367 157.064 145.267C151.172 139.314 145.239 133.353 139.361 127.379C133.662 121.569 127.859 115.849 122.201 109.999C123.576 108.624 124.855 107.194 126.271 105.839C137.051 94.9768 147.79 84.0731 158.563 73.2037C159.209 72.585 159.745 71.8562 160.488 71.3475C152.238 71.3475 144.015 71.32 135.786 71.3612C127.364 80.1681 118.922 88.9612 110.5 97.7612C102.099 88.9337 93.6355 80.1475 85.2136 71.3612C76.9842 71.3406 68.7342 71.3406 60.5049 71.3406V71.3475ZM110.541 129.201C110.541 139.011 110.562 148.808 110.521 158.626C113.649 158.598 116.777 158.626 119.884 158.626V139.334C119.897 139.231 119.885 139.126 119.847 139.029C119.81 138.932 119.75 138.846 119.671 138.777C118.09 137.059 116.412 135.457 114.852 133.745C113.435 132.198 111.916 130.789 110.541 129.201Z" fill="white"/>
</g>
<defs>
<clipPath id="clip0_2_20503">
<rect width="220" height="220" fill="white" transform="translate(0.5)"/>
</clipPath>
</defs>
</svg>
