<svg width="221" height="220" viewBox="0 0 221 220" fill="none" xmlns="http://www.w3.org/2000/svg">
<g clip-path="url(#clip0_2_20495)">
<path d="M110.5 220C171.251 220 220.5 170.751 220.5 110C220.5 49.2487 171.251 0 110.5 0C49.7487 0 0.5 49.2487 0.5 110C0.5 170.751 49.7487 220 110.5 220Z" fill="#372D2C"/>
<path d="M69.0097 127.099L69.7041 126.583H69.4703L66.2666 129.539C67.0216 128.56 67.9546 127.732 69.0166 127.099H69.0097Z" fill="black"/>
<path d="M185.781 92.3986C185.441 91.8705 184.912 91.4918 184.303 91.3399C181.927 90.7567 179.544 90.2067 177.153 89.6899L177.799 86.4999L178.211 84.4924L178.404 83.4749L178.59 82.3749C178.85 80.7433 178.667 79.0715 178.06 77.5349C177.418 75.8966 176.364 74.4521 174.999 73.3415C173.634 72.2309 172.005 71.4919 170.271 71.1961C169.699 67.7306 168.909 64.3046 167.906 60.9386L167.789 60.5261L150.698 39.7636L150.058 39.578C149.364 39.3924 133.964 34.8411 113.002 34.8342L113.236 30.6955C115.163 30.0614 116.799 28.7589 117.85 27.0233C118.9 25.2877 119.295 23.2337 118.963 21.2324C118.631 19.2311 117.593 17.4147 116.039 16.1115C114.484 14.8083 112.514 14.1043 110.486 14.1267C108.461 14.1094 106.497 14.8157 104.946 16.1184C103.396 17.4211 102.362 19.2345 102.03 21.232C101.699 23.2295 102.091 25.2798 103.137 27.0136C104.183 28.7474 105.814 30.0506 107.736 30.6886L107.976 34.848C86.9252 34.8686 71.4427 39.3924 70.7827 39.6124L70.1433 39.798L53.052 60.5605L52.942 60.973C51.9383 64.3418 51.1477 67.7586 50.577 71.2168H50.522L49.312 71.5192C47.0522 72.2079 45.1113 73.6783 43.8365 75.6673C42.5618 77.6563 42.0364 80.034 42.3545 82.3749L42.5402 83.468L42.7327 84.4855L43.1452 86.493L43.7914 89.6968C41.4195 90.2193 39.0477 90.7555 36.6827 91.333C36.0726 91.4837 35.5435 91.8626 35.2045 92.3918C34.9675 92.7887 34.8532 93.2469 34.8759 93.7087C34.8986 94.1705 35.0573 94.6153 35.3321 94.9871C35.6069 95.3589 35.9856 95.6411 36.4204 95.7983C36.8552 95.9555 37.3268 95.9806 37.7758 95.8705C40.0858 95.3068 42.3958 94.7705 44.7127 94.2686L44.8845 95.1486C39.4853 112.274 40.7271 130.803 48.3633 147.055C58.7308 169.179 82.587 193.035 110.5 193.035C138.405 193.035 162.268 169.179 172.663 147.021C180.275 130.755 181.49 112.221 176.066 95.1005L176.231 94.2893C178.555 94.798 180.879 95.3343 183.196 95.898C183.645 96.0081 184.116 95.983 184.551 95.8258C184.986 95.6686 185.365 95.3864 185.639 95.0146C185.914 94.6428 186.073 94.198 186.096 93.7362C186.118 93.2744 186.004 92.8162 185.767 92.4193L185.781 92.3986ZM104.395 22.6724C104.4 20.902 105.1 19.2044 106.345 17.9455C107.59 16.6866 109.279 15.967 111.05 15.9417C114.762 15.9417 114.762 29.3686 111.05 29.403C109.279 29.3778 107.59 28.6582 106.345 27.3992C105.1 26.1403 104.4 24.4428 104.395 22.6724ZM108.85 30.9911C109.393 31.0942 109.936 31.1492 110.486 31.1492H110.747L111.27 45.6005C111.607 46.0502 111.771 46.6069 111.731 47.1679C111.69 47.7289 111.448 48.2564 111.05 48.653C110.831 48.8716 110.572 49.0448 110.286 49.1628C110.001 49.2808 109.695 49.3412 109.386 49.3405C105.907 49.3405 103.109 48.2817 103.109 47.003C103.109 45.8205 105.46 44.8374 108.54 44.6724L109.386 44.6517H109.62L108.85 30.9911ZM56.5721 64.2455L58.5727 63.5305L61.9758 62.3961L66.4445 61.0761C68.067 60.5811 69.882 60.1274 71.7727 59.6324L77.7814 58.278C79.8645 57.8655 82.0164 57.4049 84.2439 57.0267C86.4783 56.6486 88.7127 56.3461 90.9814 55.968C93.2502 55.5899 95.5189 55.4042 97.7464 55.143C99.9808 54.868 102.174 54.758 104.326 54.5724C105.46 54.4692 106.622 54.4211 107.729 54.3799H107.846L110.493 77.9405L113.174 54.1805H116.048C117.753 54.1805 119.341 54.1049 120.736 54.1805L124.366 54.3317L127.543 54.4417L124.408 54.1392L120.778 53.7955C119.375 53.6511 117.821 53.6099 116.089 53.4999C114.238 53.3629 112.383 53.2872 110.527 53.273H110.5C108.547 53.273 106.443 53.1561 104.298 53.2317C102.16 53.3074 99.912 53.273 97.6433 53.4242L90.7614 53.878C88.4514 54.0636 86.1483 54.2561 83.8796 54.5586C81.6108 54.8611 79.3764 55.198 77.2589 55.4661C75.217 55.7205 73.2027 56.1124 71.3052 56.4492L67.9227 56.1811L74.6533 46.9961L108.265 39.6674L108.471 43.3111C103.934 43.6686 100.531 45.1742 100.531 46.9824C100.531 49.0449 105 50.7224 110.513 50.7224C116.027 50.7224 120.496 49.0517 120.496 46.9824C120.496 45.1742 117.093 43.6686 112.555 43.3111L112.761 39.6811L146.229 46.9892L152.966 56.1742L143.603 56.9305L143.431 56.9099L143.534 56.9374H143.396L161.32 65.8199C161.32 65.8199 169.047 90.6386 158.398 111.731C157.182 114.115 155.768 116.392 154.17 118.537C154.17 118.537 137.628 126.176 112.198 127.523L110.5 120.531C112.579 120.6 114.65 120.24 116.584 119.472L121.878 117.733C132.63 114.419 143.396 111.154 154.17 107.943L155.228 107.641L155.572 106.657L155.916 105.674L156.177 104.726L156.665 102.869C157.531 99.2255 158.15 95.5268 158.521 91.7936L158.824 88.0124L158.893 86.1218V84.1968L158.934 82.2305L158.748 80.2643L158.446 78.298C158.316 77.659 158.151 77.0278 157.951 76.4074L157.648 75.4243L157.305 74.2486L157.064 74.2143L156.968 73.9118L156.624 72.7361L155.27 72.5505C144.106 71.2485 132.887 70.4776 121.651 70.2405L120.482 70.2061L119.987 71.1892L113.827 83.2618L110.5 83.3168L106.856 83.3855L100.256 71.5605L99.912 70.9211L99.2245 70.9624C93.6352 71.2717 88.0527 71.7255 82.477 72.3236C76.9217 72.9129 71.3867 73.681 65.8808 74.6267H65.9908H65.922L65.6883 75.383C65.6269 75.5782 65.5718 75.7754 65.5233 75.9743C65.6333 75.5274 65.7639 75.0874 65.9014 74.6267C65.6841 75.2345 65.4316 75.829 65.1452 76.4074C65.0214 76.8886 64.8839 77.363 64.7945 77.8443L64.7258 78.0299L64.3133 79.8861L64.0108 81.7355L63.8183 83.6261C63.7495 84.8774 63.7083 86.163 63.7495 87.4074L63.8939 91.1886C64.1483 94.9699 64.6502 98.7374 65.4064 102.457L65.8189 104.313L66.3552 106.204L66.5064 106.657L67.0358 106.843L88.4377 113.876C94.7352 115.925 101.026 118.036 107.303 120.194C107.839 120.304 108.382 120.38 108.932 120.421L109.31 120.456H109.42L109.613 120.497L110.403 120.531H110.52L108.774 127.647C102.533 127.829 96.286 127.604 90.0739 126.973C74.7977 124.924 64.7464 121.267 62.1339 120.229C53.6556 102.83 51.6851 82.9711 56.5789 64.2455H56.5721ZM137.697 74.7643L117.478 112.886L116.123 115.43L115.14 115.767C113.963 116.192 112.727 116.434 111.476 116.482C109.558 116.674 107.622 116.442 105.804 115.801L105.116 115.54L105.983 113.924L127.158 74.0493L128.113 72.2411C131.551 72.3924 135.071 72.6605 138.66 72.963L137.697 74.7643ZM143.912 75.383L144.902 73.513L147.81 73.7811L150.574 74.0836L150.918 74.118H151.138L150.12 76.043L133.345 107.654L131.97 110.246L124.105 112.742L125.46 110.177L143.912 75.383ZM45.2558 84.1143L45.1458 83.0967L45.0702 82.1136C44.9662 80.5603 45.4011 79.0186 46.3016 77.7486C47.2021 76.4787 48.513 75.5582 50.0133 75.1424C48.6908 86.3899 49.6733 97.7889 52.9008 108.644L52.5914 108.548C51.4748 108.153 50.4606 107.514 49.6231 106.676C48.7857 105.839 48.1462 104.825 47.7514 103.708C47.4511 102.761 47.2619 101.783 47.1877 100.793L45.4827 86.1768L45.2558 84.1143ZM64.1895 162.854L64.0864 162.771L64.1345 162.84C63.7511 162.736 63.3977 162.543 63.1033 162.276C58.8617 157.015 55.2571 151.272 52.3645 145.164C46.4263 132.495 44.5994 118.286 47.1395 104.526L47.167 104.595C47.7558 105.717 48.5848 106.696 49.5948 107.461C50.6049 108.226 51.7712 108.759 53.0108 109.022C54.4752 113.849 56.3727 118.531 58.6827 123.013L59.0264 123.618L59.6658 123.921C62.0858 124.911 64.5539 125.777 67.0633 126.526H67.1252L66.9464 126.581C66.3907 126.768 65.8426 126.977 65.3033 127.207C64.8498 127.396 64.4005 127.596 63.9558 127.805L61.0408 129.201L60.0989 129.654L59.9821 130.603C59.1605 137.794 59.8776 145.078 62.0858 151.971C63.1514 155.401 64.6502 158.681 66.5477 161.733L66.5821 161.802L66.6989 162.104C66.8639 162.867 65.3927 163.177 64.1895 162.861V162.854ZM90.177 178.061C84.8544 176.114 79.9892 173.093 75.8839 169.186C73.5432 166.897 71.5449 164.283 69.9508 161.424C68.3674 158.562 67.148 155.513 66.3208 152.349C65.5096 149.179 65.0145 145.936 64.8427 142.669C64.6376 139.802 64.7275 136.923 65.1108 134.075L66.8845 133.367C68.7064 132.769 70.5489 132.239 72.4052 131.786L75.2445 131.215C77.6989 130.802 80.167 130.507 82.6558 130.342H82.9514L83.0614 130.356C80.9369 136.146 79.8659 142.269 79.8989 148.437C79.8989 160.743 83.9552 171.214 90.397 178.192L90.177 178.061ZM119.74 170.203C116.893 171.814 113.674 172.649 110.403 172.623C106.996 172.639 103.649 171.724 100.723 169.976C99.3344 168.473 98.1507 166.792 97.2033 164.978C98.8061 166.838 100.783 168.338 103.006 169.38C105.229 170.423 107.646 170.984 110.101 171.027C112.555 171.071 114.991 170.595 117.25 169.632C119.508 168.669 121.537 167.24 123.205 165.439C122.263 167.174 121.098 168.778 119.74 170.21V170.203ZM110.403 167.329C108.633 167.337 106.879 166.997 105.24 166.327C103.602 165.656 102.112 164.67 100.854 163.424C99.5973 162.178 98.5981 160.696 97.9138 159.063C97.2295 157.431 96.8736 155.679 96.8664 153.909V153.861C96.8637 151.198 97.65 148.595 99.126 146.378C100.602 144.162 102.701 142.433 105.159 141.409C107.617 140.385 110.324 140.112 112.937 140.625C115.55 141.138 117.952 142.413 119.841 144.29C121.729 146.167 123.019 148.562 123.548 151.172C124.077 153.781 123.821 156.489 122.812 158.953C121.803 161.418 120.086 163.528 117.879 165.017C115.672 166.507 113.073 167.309 110.41 167.322V167.329H110.403ZM127.508 151.249C126.816 147.158 124.68 143.451 121.489 140.8C118.298 138.15 114.262 136.73 110.114 136.8C105.966 136.87 101.98 138.424 98.8798 141.181C95.7796 143.938 93.77 147.715 93.2158 151.826C93.0111 150.268 92.8849 148.701 92.8377 147.131C94.2212 143.601 96.6414 140.574 99.7794 138.447C102.917 136.32 106.626 135.194 110.417 135.216H110.486C114.202 135.207 117.837 136.302 120.93 138.362C124.023 140.422 126.435 143.354 127.859 146.787C127.812 148.281 127.695 149.772 127.508 151.256V151.249ZM130.478 178.274H130.547L130.41 178.322C136.941 171.337 141.066 160.798 141.066 148.396C141.103 142.227 140.029 136.102 137.896 130.314H137.993C147.721 131.717 152.788 136.708 152.788 136.708C152.788 136.708 153.819 165.212 130.492 178.274H130.478ZM174.911 116.812V118.283C174.911 118.62 174.884 118.95 174.877 119.28C174.854 120.032 174.812 120.784 174.753 121.535C174.753 121.769 174.712 122.009 174.691 122.243C174.65 122.731 174.609 123.226 174.554 123.707C174.554 123.817 174.533 123.927 174.52 124.037C174.467 124.51 174.41 124.982 174.348 125.454V125.522L174.155 126.884V126.932C173.065 134.024 170.842 140.896 167.569 147.282L167.335 147.736C167.095 148.196 166.854 148.664 166.6 149.124C164.106 153.775 161.183 158.183 157.868 162.29C157.589 162.556 157.249 162.749 156.878 162.854L156.92 162.785L156.816 162.867C155.627 163.211 154.108 162.916 154.273 162.111L154.39 161.809L154.458 161.74C156.335 158.674 157.827 155.401 158.893 151.977C161.063 145.091 161.771 137.827 160.969 130.651L160.859 129.709L159.91 129.256C158.927 128.761 157.985 128.272 157.002 127.853L154.011 126.643L153.743 126.547L153.812 126.526C156.308 125.791 158.762 124.911 161.161 123.907L161.801 123.604L162.145 122.999C164.448 118.517 166.338 113.842 167.796 109.029C170.374 108.5 172.574 106.85 173.798 104.526C174.52 108.39 174.898 112.316 174.932 116.248C174.919 116.436 174.913 116.624 174.911 116.812Z" fill="white"/>
<path d="M66.8161 76.5529L68.4042 74.6279H68.9336H68.143C67.3455 75.7967 66.3692 76.9173 65.4961 78.0654C65.998 77.5567 66.3898 77.0823 66.8161 76.5529Z" fill="black"/>
<path d="M117.031 42.6936C120.359 43.5667 122.552 45.1549 122.552 47.0042C122.552 48.8605 120.324 50.4417 117.031 51.3149C121.569 50.9024 124.972 49.1217 124.972 47.0042C124.972 44.8867 121.569 43.0924 117.031 42.6936ZM106.093 59.6886C106.551 59.6887 106.991 59.5085 107.318 59.1869C107.645 58.8653 107.832 58.4282 107.839 57.9699C107.839 57.7397 107.794 57.5119 107.705 57.2994C107.617 57.087 107.487 56.8943 107.324 56.7324C107.161 56.5721 106.967 56.4468 106.754 56.3641C106.542 56.2813 106.314 56.2429 106.086 56.2511C105.635 56.2565 105.205 56.4405 104.889 56.7626C104.573 57.0847 104.398 57.5188 104.402 57.9699C104.402 58.9186 105.158 59.6886 106.093 59.6886ZM60.4086 65.4774C60.0675 65.4806 59.7349 65.5844 59.4526 65.7758C59.1702 65.9673 58.9507 66.2378 58.8215 66.5535C58.6923 66.8692 58.6591 67.216 58.7262 67.5505C58.7933 67.8849 58.9576 68.1922 59.1986 68.4336C59.5217 68.7567 59.9548 68.9286 60.4086 68.9149C60.7497 68.9116 61.0823 68.8078 61.3646 68.6164C61.6469 68.4249 61.8665 68.1544 61.9957 67.8387C62.1249 67.523 62.158 67.1762 62.091 66.8417C62.0239 66.5073 61.8596 66.2001 61.6186 65.9586C61.4608 65.7995 61.2719 65.6747 61.0637 65.5918C60.8556 65.509 60.6325 65.4701 60.4086 65.4774ZM65.173 120.979C65.5141 120.976 65.8466 120.872 66.129 120.681C66.4113 120.489 66.6308 120.219 66.7601 119.903C66.8893 119.587 66.9224 119.241 66.8553 118.906C66.7882 118.572 66.6239 118.264 66.383 118.023C66.2252 117.864 66.0363 117.739 65.8281 117.656C65.6199 117.573 65.3969 117.534 65.173 117.542C64.7182 117.545 64.2831 117.728 63.9616 118.049C63.64 118.371 63.4578 118.806 63.4542 119.26C63.4886 120.223 64.2448 120.979 65.173 120.979ZM106.918 127.559C107.259 127.555 107.592 127.452 107.874 127.26C108.156 127.069 108.376 126.798 108.505 126.482C108.634 126.167 108.667 125.82 108.6 125.485C108.533 125.151 108.369 124.844 108.128 124.602C107.97 124.443 107.781 124.318 107.573 124.236C107.365 124.153 107.142 124.114 106.918 124.121C106.459 124.13 106.022 124.319 105.7 124.647C105.379 124.974 105.199 125.415 105.199 125.874C105.229 126.317 105.421 126.733 105.738 127.044C106.055 127.354 106.475 127.538 106.918 127.559ZM116.302 59.723C116.761 59.723 117.201 59.5428 117.528 59.2213C117.854 58.8997 118.041 58.4626 118.049 58.0042C118.049 57.7741 118.003 57.5462 117.915 57.3338C117.826 57.1214 117.697 56.9286 117.533 56.7667C117.37 56.6065 117.177 56.4812 116.964 56.3985C116.751 56.3157 116.524 56.2773 116.295 56.2855C115.844 56.2909 115.414 56.4748 115.098 56.797C114.783 57.1191 114.607 57.5532 114.611 58.0042C114.611 58.9599 115.367 59.723 116.302 59.723ZM115.464 124.162C115.01 124.169 114.577 124.353 114.256 124.674C113.935 124.994 113.752 125.427 113.745 125.881C113.814 126.823 114.549 127.565 115.464 127.6C115.805 127.597 116.137 127.493 116.42 127.301C116.702 127.11 116.921 126.839 117.051 126.524C117.18 126.208 117.213 125.861 117.146 125.527C117.079 125.192 116.915 124.885 116.674 124.644C116.516 124.485 116.327 124.36 116.119 124.277C115.911 124.194 115.688 124.155 115.464 124.162ZM68.8717 135.733C68.5721 135.711 68.2726 135.775 68.0074 135.916C67.7423 136.057 67.5224 136.27 67.373 136.53C67.2142 136.798 67.127 137.101 67.1198 137.412C67.1126 137.723 67.1856 138.03 67.3317 138.304C67.6342 138.854 68.198 139.191 68.803 139.164H68.8717C69.3216 139.155 69.75 138.97 70.0649 138.648C70.3798 138.327 70.5562 137.895 70.5561 137.445C70.5609 137.007 70.3986 136.584 70.1023 136.262C69.9443 136.093 69.7526 135.958 69.5395 135.867C69.3264 135.776 69.0966 135.73 68.8648 135.733H68.8717ZM79.2461 132.632C79.0222 132.634 78.8008 132.68 78.5946 132.767C78.3885 132.855 78.2015 132.982 78.0445 133.141C77.8874 133.301 77.7634 133.49 77.6793 133.698C77.5953 133.905 77.553 134.127 77.5548 134.351C77.5548 135.3 78.3111 136.07 79.2461 136.07C79.7045 136.07 80.1445 135.89 80.4713 135.568C80.798 135.247 80.9851 134.809 80.9923 134.351C80.9925 134.121 80.9471 133.893 80.8585 133.681C80.77 133.468 80.6403 133.276 80.4767 133.114C80.3141 132.953 80.1204 132.828 79.9076 132.745C79.6948 132.663 79.4674 132.624 79.2392 132.632H79.2461ZM143.156 132.632C142.93 132.641 142.709 132.694 142.503 132.788C142.298 132.882 142.113 133.016 141.96 133.182C141.806 133.348 141.687 133.542 141.608 133.754C141.53 133.966 141.494 134.191 141.503 134.416C141.511 134.642 141.564 134.864 141.658 135.069C141.753 135.274 141.887 135.459 142.052 135.613C142.218 135.766 142.412 135.886 142.624 135.964C142.836 136.042 143.061 136.078 143.287 136.07C143.743 136.052 144.172 135.853 144.482 135.518C144.791 135.183 144.955 134.738 144.937 134.282C144.918 133.827 144.72 133.397 144.385 133.087C144.049 132.778 143.605 132.614 143.149 132.632H143.156Z" fill="white"/>
</g>
<defs>
<clipPath id="clip0_2_20495">
<rect width="220" height="220" fill="white" transform="translate(0.5)"/>
</clipPath>
</defs>
</svg>
