<svg width="221" height="220" viewBox="0 0 221 220" fill="none" xmlns="http://www.w3.org/2000/svg">
<g clip-path="url(#clip0_2_20491)">
<path d="M110.5 220C171.251 220 220.5 170.751 220.5 110C220.5 49.2487 171.251 0 110.5 0C49.7487 0 0.5 49.2487 0.5 110C0.5 170.751 49.7487 220 110.5 220Z" fill="#00A6C4"/>
<path d="M170.842 72.1875L172.217 74.4631C179.074 85.9768 182.691 99.1294 182.688 112.53C182.564 152.872 150.272 185.625 110.5 185.625H110.377C70.6047 185.625 38.1891 152.618 38.3129 112.276C38.3129 98.7456 42.0529 85.5937 48.9072 74.2087L50.1585 72.0638L56.7654 78.7669C55.4558 80.6812 54.4083 82.7621 53.651 84.9544C51.1319 91.9348 51.4744 99.628 54.6038 106.357C57.7333 113.086 63.3959 118.305 70.3572 120.876C74.4498 122.334 78.828 122.807 83.1374 122.257C87.4469 121.708 91.5663 120.151 95.1622 117.714L110.5 133.396L128.08 115.562C129.702 116.703 131.572 117.59 133.566 118.346C147.66 123.406 163.115 115.94 168.099 101.777C171.09 93.4312 169.722 84.7069 165.356 77.7494L170.842 72.1875ZM64.871 86.9825L85.5647 107.848C83.0691 109.876 79.9547 111.011 76.586 111.011C68.4872 111.011 61.8735 104.308 61.8735 96.0919C61.8735 92.675 63.001 89.5125 64.871 86.9825ZM137.058 106.583L157.505 85.8481C159.127 88.2544 159.993 91.1556 159.993 94.1944C159.993 102.41 153.393 109.113 145.281 109.113C142.167 109.113 139.423 108.226 137.058 106.583ZM110.748 122.265L51.1554 61.5588L53.5204 59.0356C68.2329 43.2231 88.3079 34.375 109.882 34.375H110.005C131.827 34.375 152.768 43.8625 167.357 60.2938L169.605 62.8306L110.755 122.265H110.748ZM60.8766 61.5588L110.748 112.276L160 62.5763C146.787 49.17 128.836 41.4563 110.136 41.4563H110.005C91.4291 41.4563 74.1041 48.5375 60.8835 61.5656L60.8766 61.5588Z" fill="white"/>
</g>
<defs>
<clipPath id="clip0_2_20491">
<rect width="220" height="220" fill="white" transform="translate(0.5)"/>
</clipPath>
</defs>
</svg>
