<svg width="221" height="220" viewBox="0 0 221 220" fill="none" xmlns="http://www.w3.org/2000/svg">
<g clip-path="url(#clip0_2_20487)">
<path d="M110.5 220C171.251 220 220.5 170.751 220.5 110C220.5 49.2487 171.251 0 110.5 0C49.7487 0 0.5 49.2487 0.5 110C0.5 170.751 49.7487 220 110.5 220Z" fill="#001D57"/>
<path d="M141.431 36.3555L149.702 44.633L134.047 60.7205C137.347 65.7392 139.121 71.6586 139.121 77.7636C139.177 85.7962 136.07 93.5284 130.472 99.2892C126.385 103.607 121.06 106.551 115.23 107.718V121.736C121.031 122.934 126.335 125.858 130.445 130.124C136.06 135.89 139.177 143.636 139.121 151.684C139.175 159.729 136.058 167.472 130.445 173.237C127.709 176.071 124.43 178.324 120.803 179.862C117.177 181.4 113.278 182.191 109.338 182.188C105.398 182.2 101.496 181.413 97.8684 179.874C94.2407 178.336 90.9626 176.078 88.2322 173.237C82.6361 167.462 79.5241 159.725 79.5629 151.684C79.5629 143.571 82.6429 135.878 88.2116 130.151C92.2998 125.836 97.6246 122.894 103.453 121.729V107.704C97.6525 106.506 92.3492 103.582 88.2391 99.3167C82.6388 93.5412 79.5242 85.8015 79.5629 77.7567C79.5629 69.6442 82.6429 61.9511 88.2391 56.2036C90.9743 53.3682 94.2531 51.1135 97.8796 49.5743C101.506 48.0351 105.406 47.2431 109.345 47.2455C115.258 47.2455 120.943 49.0467 125.811 52.3948L141.438 36.3555H141.431ZM109.345 132.997C106.959 132.978 104.593 133.451 102.397 134.385C100.201 135.319 98.22 136.696 96.5785 138.429C93.1379 141.98 91.2253 146.739 91.2504 151.684C91.2504 156.668 93.141 161.322 96.5785 164.932C98.2324 166.648 100.215 168.014 102.409 168.947C104.602 169.881 106.962 170.362 109.345 170.363C111.731 170.381 114.095 169.908 116.29 168.974C118.485 168.04 120.465 166.664 122.105 164.932C125.544 161.382 127.457 156.626 127.433 151.684C127.433 146.699 125.543 142.045 122.085 138.408C120.445 136.681 118.469 135.31 116.277 134.379C114.086 133.448 111.726 132.978 109.345 132.997ZM122.085 91.1286C125.536 87.5737 127.456 82.8076 127.433 77.853C127.465 75.4012 127.01 72.9674 126.096 70.6924C125.181 68.4173 123.825 66.3459 122.105 64.598C120.453 62.8814 118.471 61.5157 116.279 60.5825C114.086 59.6494 111.728 59.1678 109.345 59.1667C106.959 59.1476 104.593 59.6199 102.397 60.5543C100.201 61.4887 98.22 62.8651 96.5785 64.598C93.1379 68.1498 91.2253 72.908 91.2504 77.853C91.2504 82.8373 93.141 87.4917 96.5785 91.1011C98.2324 92.8178 100.215 94.1836 102.409 95.1168C104.602 96.0499 106.962 96.5314 109.345 96.5323C114.233 96.5323 118.743 94.6348 122.085 91.1286Z" fill="white"/>
</g>
<defs>
<clipPath id="clip0_2_20487">
<rect width="220" height="220" fill="white" transform="translate(0.5)"/>
</clipPath>
</defs>
</svg>
