<svg width="221" height="220" viewBox="0 0 221 220" fill="none" xmlns="http://www.w3.org/2000/svg">
<g clip-path="url(#clip0_2_20483)">
<path d="M110.5 220C171.251 220 220.5 170.751 220.5 110C220.5 49.2487 171.251 0 110.5 0C49.7487 0 0.5 49.2487 0.5 110C0.5 170.751 49.7487 220 110.5 220Z" fill="#F1B32B"/>
<path d="M108.781 27.5C64.1625 27.5 28 63.6625 28 108.281C28 152.9 64.1625 189.062 108.781 189.062C153.4 189.062 189.562 152.9 189.562 108.281C189.562 86.8567 181.052 66.3097 165.902 51.1603C150.753 36.0109 130.206 27.5 108.781 27.5ZM108.781 168.919C92.6992 168.919 77.2758 162.53 65.9041 151.158C54.5323 139.787 48.1437 124.363 48.1437 108.281C48.1437 92.1992 54.5323 76.7758 65.9041 65.4041C77.2758 54.0323 92.6992 47.6437 108.781 47.6437C124.863 47.6437 140.287 54.0323 151.658 65.4041C163.03 76.7758 169.419 92.1992 169.419 108.281C169.419 124.363 163.03 139.787 151.658 151.158C140.287 162.53 124.863 168.919 108.781 168.919ZM88.6375 108.35L108.85 138.6L128.925 108.35L108.85 78.0313L88.6375 108.35Z" fill="white"/>
</g>
<defs>
<clipPath id="clip0_2_20483">
<rect width="220" height="220" fill="white" transform="translate(0.5)"/>
</clipPath>
</defs>
</svg>
