<svg width="221" height="220" viewBox="0 0 221 220" fill="none" xmlns="http://www.w3.org/2000/svg">
<g clip-path="url(#clip0_2_20479)">
<path d="M110.5 220C171.251 220 220.5 170.751 220.5 110C220.5 49.2487 171.251 0 110.5 0C49.7487 0 0.5 49.2487 0.5 110C0.5 170.751 49.7487 220 110.5 220Z" fill="#5411B3"/>
<path fill-rule="evenodd" clip-rule="evenodd" d="M110.864 34.375C114.508 36.5681 118.124 38.8094 121.796 40.9475C139.224 51.0537 156.652 61.1462 174.101 71.2113C175.249 71.8713 175.758 72.6069 175.758 74.0162C175.723 98.0238 175.73 122.031 175.813 146.039C175.813 147.606 175.098 148.259 173.956 148.919C153.214 160.923 132.486 172.948 111.758 184.972C111.442 185.158 111.16 185.405 110.864 185.625H110.108C103.852 181.94 97.5957 178.221 91.3188 174.57C76.5101 165.969 61.6876 157.382 46.8513 148.837C45.5932 148.115 45.1807 147.29 45.1876 145.846C45.2563 122.031 45.2701 98.2163 45.222 74.3944C45.222 72.6894 45.8063 71.83 47.2088 71.0256C67.7582 59.1731 88.2732 47.2794 108.795 35.3856C109.269 35.1106 109.675 34.7119 110.108 34.375H110.864ZM130.156 154.55C132.995 156.496 135.773 158.538 138.633 160.6C138.791 160.531 139.024 160.435 139.238 160.318C148.519 154.949 157.821 149.593 167.074 144.162C167.624 143.839 168.106 142.89 168.106 142.237C168.154 120.746 168.147 99.2612 168.085 77.7769C168.054 77.4029 167.942 77.0401 167.757 76.7137C167.571 76.3873 167.318 76.1049 167.013 75.8862C157.869 70.51 148.677 65.23 139.526 59.8744C138.578 59.3244 138.048 59.4894 137.244 60.115C135.023 61.8544 113.188 75.1919 104.636 80.3275C97.9532 84.3288 91.422 88.55 86.252 94.5587C79.1226 102.843 78.4557 114.324 84.6913 123.331C87.7782 127.799 91.8963 131.196 96.3101 134.214C99.8301 136.613 103.46 138.841 107.035 141.144C106.939 141.281 106.884 141.419 106.788 141.474C102.071 144.21 97.3688 146.974 92.5976 149.634C92.137 149.889 91.1813 149.634 90.6588 149.304C85.5899 146.033 80.94 142.154 76.8126 137.754C64.9188 125.283 62.4988 104.844 71.1751 89.9319C75.1714 83.0529 80.7293 77.21 87.4001 72.875C96.0626 67.21 120.194 52.8894 123.391 50.93C123.116 50.5725 123.04 50.38 122.896 50.2906C119.101 48.0769 115.333 45.8219 111.483 43.7112C110.919 43.4019 109.895 43.5187 109.283 43.835C107.166 44.9281 105.138 46.1863 103.082 47.3894C101.267 48.4481 99.4588 49.5206 97.3757 50.7512L107.262 56.9663C102.209 59.95 97.4307 62.81 92.5976 65.5806C92.2126 65.8006 91.3876 65.6287 90.9682 65.34C88.5746 63.7292 86.2402 62.0323 83.9695 60.2525C82.9726 59.4619 82.3126 59.3862 81.1988 60.0394C72.2078 65.2972 63.1922 70.513 54.1526 75.6869C53.1557 76.2575 52.8326 76.9244 52.8326 78.0794C52.867 99.3781 52.8601 120.677 52.8257 141.969C52.8257 143.11 53.1213 143.784 54.1457 144.375C63.1245 149.518 72.0757 154.715 81.0063 159.947C81.9963 160.531 82.6563 160.504 83.6532 159.837C90.0607 155.554 119.376 137.177 127.523 132.11C128.904 131.251 130.066 130.02 131.318 128.961L131.111 128.48H100.683C103.776 123.104 106.664 118.03 109.654 113.018C109.929 112.564 110.94 112.372 111.614 112.372C125.412 112.337 139.217 112.351 153.015 112.351C153.565 112.351 154.115 112.413 154.782 112.448C154.816 113.101 154.968 113.685 154.844 114.194C153.936 117.968 153.331 121.866 151.956 125.469C148.698 134.035 142.654 140.621 135.291 145.695C127.248 151.229 101.638 166.32 97.2932 168.912C97.4995 169.276 97.527 169.428 97.6163 169.482C100.263 171.043 103.103 172.349 105.516 174.219C108.988 176.901 112.013 176.887 115.484 174.219C117.987 172.301 120.916 170.947 123.948 169.166L113.883 162.876C114.158 162.635 114.316 162.443 114.515 162.326C119.121 159.651 123.728 156.963 128.375 154.351C128.815 154.11 129.709 154.241 130.156 154.55ZM150.052 90.3581C152.424 94.5656 154.191 99.9762 154.452 104.149C149.791 104.149 145.294 104.177 140.791 104.115C140.379 104.108 139.733 103.634 139.602 103.235C137.402 96.4425 132.706 91.6162 127.158 87.56C123.219 84.6794 119.025 82.1425 114.948 79.4475C114.604 79.2275 114.268 78.9869 113.711 78.6019C114.639 78.045 115.361 77.5981 116.103 77.165C119.898 74.965 123.666 72.7169 127.516 70.5994C128.203 70.2144 129.441 69.9806 129.998 70.345C138.041 75.6319 145.226 81.8056 150.052 90.3581Z" fill="white"/>
</g>
<defs>
<clipPath id="clip0_2_20479">
<rect width="220" height="220" fill="white" transform="translate(0.5)"/>
</clipPath>
</defs>
</svg>
