<svg width="221" height="220" viewBox="0 0 221 220" fill="none" xmlns="http://www.w3.org/2000/svg">
<g clip-path="url(#clip0_2_20475)">
<path d="M110.5 220C171.251 220 220.5 170.751 220.5 110C220.5 49.2487 171.251 0 110.5 0C49.7487 0 0.5 49.2487 0.5 110C0.5 170.751 49.7487 220 110.5 220Z" fill="#FFF300"/>
<path d="M156.15 65.7795C153.812 60.5476 151.646 50.2076 145.665 47.9045C137.965 44.9483 133.215 64.322 132.08 69.217H130.932C128.993 60.8295 126.395 48.9358 117.182 46.2958C112.92 64.2051 121.637 83.517 129.791 99.0201C138.495 94.8539 142.736 81.8326 143.541 72.6545H144.689L153.86 100.161C161.237 98.0439 163.801 90.7426 166.462 84.1151C172.182 69.8976 176.981 52.4076 173.337 37.1245C162.337 40.2458 158.982 55.9826 156.15 65.7795ZM46.1221 102.458C55.9671 97.7551 60.6559 82.8639 62.1684 72.6545H63.3096C64.4784 77.577 67.5927 90.2683 73.739 91.0795C81.5765 92.1176 85.6809 74.7376 86.2309 69.217H87.379C89.8746 77.8451 92.5077 89.072 101.129 93.2864C104.319 79.9214 100.51 65.6695 95.6221 53.1708C94.364 49.9601 91.7859 41.2908 87.3515 41.2908C80.0915 41.2908 76.0077 60.4308 74.7702 65.7795H73.629L64.4577 38.2726C48.329 45.9726 39.5702 86.927 46.1221 102.458ZM28.9277 116.208C40.8902 168.416 96.1033 198.02 145.837 175.965C163.868 167.953 178.351 153.631 186.565 135.691C188.703 131.058 192.903 122.663 190.456 116.579C188.015 110.515 164.365 120.415 158.453 123.007C158.044 123.188 157.688 123.468 157.416 123.822C157.145 124.177 156.967 124.594 156.899 125.035C156.802 125.665 156.837 126.307 157.001 126.923C157.164 127.538 157.453 128.113 157.85 128.611C158.246 129.11 158.741 129.521 159.304 129.819C159.867 130.117 160.485 130.295 161.12 130.343L171.048 131.113C153.07 165.914 104.456 181.3 70.1915 153.498C62.519 147.276 55.6784 139.885 51.0721 131.113C48.8446 126.871 46.7752 121.446 42.994 118.531C39.3502 115.74 33.8365 114.778 28.9277 116.208Z" fill="white"/>
</g>
<defs>
<clipPath id="clip0_2_20475">
<rect width="220" height="220" fill="white" transform="translate(0.5)"/>
</clipPath>
</defs>
</svg>
