<svg width="221" height="220" viewBox="0 0 221 220" fill="none" xmlns="http://www.w3.org/2000/svg">
<g clip-path="url(#clip0_2_20471)">
<path d="M110.5 220C171.251 220 220.5 170.751 220.5 110C220.5 49.2487 171.251 0 110.5 0C49.7487 0 0.5 49.2487 0.5 110C0.5 170.751 49.7487 220 110.5 220Z" fill="#377E96"/>
<path fill-rule="evenodd" clip-rule="evenodd" d="M162.922 206.731L163.5 206.305C161.905 203.383 159.32 201.85 156.411 201.156C152.259 200.166 148.038 199.251 143.803 198.956C134.391 198.275 124.951 198.117 115.533 197.546C105.041 196.907 94.564 196.02 84.0658 195.333C83.1515 195.264 81.8384 195.608 81.3159 196.261C78.5659 199.629 75.9052 203.094 73.4302 206.669C72.2202 208.423 71.4709 210.485 70.529 212.376L71.2509 212.788C67.1126 211.208 63.0741 209.378 59.1577 207.309C59.8727 207.446 60.8077 207.336 61.1584 206.986C65.4621 202.675 69.6283 198.227 73.8152 193.827C70.6871 191.324 67.6277 189.104 64.8434 186.588C62.2446 184.236 61.1584 181.122 61.3852 177.554C61.729 172.074 64.1283 167.406 67.6552 163.488C71.8284 158.861 76.5102 154.688 80.979 150.329C81.529 149.799 82.0996 149.311 82.6084 148.844C82.4365 148.541 82.4159 148.452 82.3677 148.418L81.0615 147.661C66.7065 139.384 59.5496 126.809 59.364 110.399C59.199 96.3463 65.1802 84.9682 75.7608 75.9825C86.0733 67.2307 98.2215 64.1575 111.552 64.4601C121.418 64.6869 130.637 66.8663 139.224 71.7682C139.705 72.0432 140.915 71.72 141.355 71.2594C145.418 67.0038 149.536 62.7894 153.345 58.3C158.075 52.7313 162.076 46.6813 163.733 39.38C165.026 33.6875 164.476 28.3388 160.351 23.8975C154.294 17.3732 143.871 18.2532 138.557 25.685C137.512 27.1425 136.907 28.9163 135.883 30.4082C135.505 30.9582 134.542 31.1163 133.841 31.46C133.676 30.8413 133.291 30.2019 133.38 29.6313C133.614 28.0638 133.916 26.4688 134.432 24.9838C137.045 17.49 141.898 12.375 150.038 11.2338C152.685 10.8625 155.435 11.1719 158.199 11.1719C158.061 10.9863 158.006 10.8282 157.896 10.78C157.385 10.5044 156.864 10.2453 156.336 10.0032C151.148 7.63285 145.788 5.65643 140.303 4.09067C150.604 6.9828 160.425 11.3699 169.453 17.1119C169.508 17.71 169.474 17.8682 169.543 17.9507C175.613 25.4375 174.836 33.3782 171.014 41.4632C167.769 48.3038 163.039 54.0925 157.931 59.6063C153.256 64.6525 148.553 69.6782 143.844 74.7313C144.036 74.855 144.146 74.9925 144.256 74.9925C151.455 74.9994 158.653 75.1025 165.844 74.9513C169.598 74.8825 172.932 73.6382 175.249 70.3175C175.689 69.6782 176.885 69.5613 177.738 69.2038L178.219 69.8707C176.225 75.6182 174.259 81.3725 172.155 87.0719C171.976 87.5532 170.918 87.945 170.244 87.9725C167.7 88.0825 165.156 88.0207 162.613 88.0207H153.469L154.507 90.0832C159.457 99.7769 160.77 110.055 158.268 120.539C154.576 136.008 144.456 146.004 129.736 151.202C117.719 155.451 105.385 155.299 93.0446 152.35C91.9515 152.089 90.2602 151.869 89.6758 152.453C87.0221 155.107 84.2171 157.781 82.3059 160.958C78.3665 167.503 80.6559 172.054 88.1634 173.635L88.3765 173.663C95.7465 174.233 103.11 174.934 110.486 175.34C120.923 175.911 131.373 176.138 141.802 176.763C148.12 177.141 154.356 178.255 160.048 181.273C167.377 185.144 172.568 190.85 174.843 199.189C175.38 198.811 175.916 198.433 176.452 198.041C172.169 201.252 167.652 204.16 162.908 206.731H162.922ZM129.578 218.35C122.906 219.517 116.14 220.07 109.366 220C116.134 219.934 122.889 219.382 129.578 218.35ZM220.5 110.344V110C220.5 100.513 219.297 91.3069 217.042 82.5275C219.288 91.633 220.449 100.972 220.5 110.351V110.344ZM194.925 39.4969C188.55 31.8687 181.175 25.1347 173.001 19.4769C181.368 25.5269 188.696 32.1957 194.932 39.4969H194.925ZM57.604 206.456C52.1776 203.475 47.0123 200.041 42.1627 196.192C47.0646 199.911 52.4133 203.101 57.604 206.456ZM0.500224 110.213C0.513712 104.353 0.966438 98.502 1.8546 92.7094C0.941322 98.4967 0.488444 104.347 0.500224 110.206V110.213ZM20.5477 46.6675C24.8626 40.6652 29.7183 35.0708 35.054 29.9544C29.6723 35.0243 24.8126 40.621 20.5477 46.6607V46.6675ZM77.0396 5.1838C87.8823 1.84026 99.1541 0.0940087 110.5 4.65897e-05C99.1459 -0.0104067 87.8585 1.73825 77.0396 5.1838ZM135.016 114.51L134.604 114.407C134.363 111.079 134.233 107.738 133.875 104.424C133.064 96.7519 130.885 89.5057 126.656 82.9744C120.4 73.2944 109.95 69.3894 99.9265 73.2669C91.6971 76.4432 87.3315 82.9744 85.3652 91.3C83.4952 99.1788 83.6465 107.161 84.5952 115.108C85.5096 122.671 87.6684 129.869 92.0202 136.269C97.6165 144.485 105.42 148.074 115.12 146.451C124.333 144.925 130.121 138.964 132.48 130.103C133.834 125.043 134.205 119.721 135.023 114.51H135.016Z" fill="white"/>
</g>
<defs>
<clipPath id="clip0_2_20471">
<rect width="220" height="220" fill="white" transform="translate(0.5)"/>
</clipPath>
</defs>
</svg>
