<svg width="221" height="220" viewBox="0 0 221 220" fill="none" xmlns="http://www.w3.org/2000/svg">
<g clip-path="url(#clip0_2_20467)">
<path d="M110.5 220C171.251 220 220.5 170.751 220.5 110C220.5 49.2487 171.251 0 110.5 0C49.7487 0 0.5 49.2487 0.5 110C0.5 170.751 49.7487 220 110.5 220Z" fill="#FF0060"/>
<path d="M172.856 82.8231H109.964C105.094 82.8155 100.315 84.1425 96.1469 86.6599C91.9783 89.1773 88.5793 92.7889 86.319 97.1023C84.0588 101.416 83.0237 106.266 83.3263 111.126C83.6288 115.987 85.2575 120.671 88.0353 124.671C90.813 128.671 94.6338 131.833 99.0824 133.814C103.531 135.795 108.437 136.519 113.269 135.907C118.1 135.296 122.671 133.372 126.486 130.345C130.3 127.318 133.213 123.304 134.906 118.738H109.964C109.04 118.739 108.125 118.558 107.271 118.205C106.418 117.851 105.642 117.333 104.989 116.68C104.335 116.027 103.817 115.251 103.464 114.398C103.111 113.544 102.93 112.629 102.931 111.705V110.853C102.93 109.929 103.111 109.014 103.464 108.16C103.817 107.306 104.335 106.531 104.989 105.877C105.642 105.224 106.418 104.706 107.271 104.353C108.125 104 109.04 103.818 109.964 103.819H151.537C151.839 105.758 151.984 107.717 151.963 109.677C151.922 117.975 149.425 126.074 144.785 132.954C140.145 139.834 133.572 145.185 125.894 148.332C118.216 151.479 109.778 152.281 101.644 150.638C93.511 148.994 86.0467 144.978 80.1936 139.096C74.3405 133.214 70.3609 125.73 68.757 117.589C67.1531 109.447 67.9968 101.013 71.1816 93.3509C74.3664 85.6885 79.7496 79.1412 86.6518 74.5353C93.554 69.9295 101.666 67.4714 109.964 67.4713L111.249 67.2581C111.518 67.3819 111.799 67.4506 112.102 67.4713H149.406C169.763 67.4713 178.074 56.6019 178.074 41.25H109.964C72.3438 41.25 41.8188 71.7269 41.7501 109.361C41.6951 146.994 72.1238 177.561 109.758 177.684C147.391 177.801 178.006 147.421 178.184 109.787V88.2544C178.198 87.546 178.07 86.8421 177.809 86.1837C177.547 85.5253 177.157 84.9257 176.661 84.42C176.165 83.9142 175.573 83.5125 174.919 83.2383C174.266 82.9642 173.565 82.823 172.856 82.8231Z" fill="white"/>
</g>
<defs>
<clipPath id="clip0_2_20467">
<rect width="220" height="220" fill="white" transform="translate(0.5)"/>
</clipPath>
</defs>
</svg>
