<svg width="221" height="220" viewBox="0 0 221 220" fill="none" xmlns="http://www.w3.org/2000/svg">
<g clip-path="url(#clip0_2_20463)">
<path d="M110.5 220C171.251 220 220.5 170.751 220.5 110C220.5 49.2487 171.251 0 110.5 0C49.7487 0 0.5 49.2487 0.5 110C0.5 170.751 49.7487 220 110.5 220Z" fill="#7F27FF"/>
<path d="M106.21 96.2497H55.6375V145.901C55.5825 150.982 57.6175 155.87 61.275 159.458C64.9325 163.047 69.9169 165.048 75.0938 165H106.217L106.21 96.2497ZM107.379 70.2691H112.824C118.214 60.9878 123.15 54.6766 127.791 51.2666C133.511 47.0522 139.368 47.0178 143.961 51.5278C148.251 55.7353 149.055 61.0153 146.229 66.1028C145.432 67.5191 144.373 68.9078 143.046 70.2691H163.039C167.707 70.2691 172.375 74.1053 172.375 79.4334C172.375 84.0191 168.463 88.6047 163.039 88.6047H113.992V76.3809H106.21V88.6047H57.9612C53.3 88.6047 48.625 84.7684 48.625 79.4334C48.625 74.8547 52.5369 70.2691 57.9612 70.2691H78.1738C76.909 69.0906 75.7833 67.7712 74.8188 66.3366C71.4706 61.2216 71.8763 55.8178 76.2419 51.5278C80.8344 47.0178 86.6919 47.0591 92.4188 51.2666C97.0525 54.6766 101.989 60.9947 107.386 70.2691H107.379ZM98.3381 70.2691C94.3506 63.9234 90.7894 59.6128 87.7506 57.3784C84.9388 55.3159 83.3988 55.3022 81.7419 56.9247C80.0438 58.5953 79.9406 60.0253 81.3638 62.1978C82.9863 64.6797 86.4031 67.4778 91.3256 70.2691H98.3381ZM121.864 70.2691H130.252C134.947 67.5741 138.048 64.8516 139.396 62.4316C140.564 60.3416 140.317 58.7534 138.461 56.9316C136.804 55.3022 135.264 55.3091 132.459 57.3784C129.413 59.6128 125.845 63.9234 121.871 70.2691H121.864ZM113.992 96.2428H164.572V145.901C164.594 148.424 164.105 150.925 163.137 153.255C162.168 155.585 160.739 157.695 158.934 159.458C155.245 163.065 150.274 165.058 145.116 165H113.992V96.2428Z" fill="white"/>
</g>
<defs>
<clipPath id="clip0_2_20463">
<rect width="220" height="220" fill="white" transform="translate(0.5)"/>
</clipPath>
</defs>
</svg>
