<svg width="221" height="220" viewBox="0 0 221 220" fill="none" xmlns="http://www.w3.org/2000/svg">
<g clip-path="url(#clip0_2_20459)">
<path d="M110.5 220C171.251 220 220.5 170.751 220.5 110C220.5 49.2487 171.251 0 110.5 0C49.7487 0 0.5 49.2487 0.5 110C0.5 170.751 49.7487 220 110.5 220Z" fill="#37DCD8"/>
<path d="M110.431 87.1681L91.291 67.8906C97.0332 58.5522 103.453 49.6481 110.5 41.25C117.534 49.6121 123.945 58.4794 129.681 67.7806L110.431 87.1681ZM149.742 106.487C155.146 121.626 163.073 136.764 155.517 151.298C150.71 160.467 143.255 167.977 134.122 172.851C109.242 186.051 78.4416 176.357 65.3378 151.298C57.7066 136.764 66.596 120.429 72.0066 105.298C76.9635 94.1394 81.9753 83.8544 87.6678 73.9681L110.424 96.8894L133.311 73.8444C139.327 84.2531 144.524 94.9644 149.742 106.494V106.487Z" fill="white"/>
</g>
<defs>
<clipPath id="clip0_2_20459">
<rect width="220" height="220" fill="white" transform="translate(0.5)"/>
</clipPath>
</defs>
</svg>
