<svg width="221" height="220" viewBox="0 0 221 220" fill="none" xmlns="http://www.w3.org/2000/svg">
<g clip-path="url(#clip0_2_20455)">
<path d="M110.5 220C171.251 220 220.5 170.751 220.5 110C220.5 49.2487 171.251 0 110.5 0C49.7487 0 0.5 49.2487 0.5 110C0.5 170.751 49.7487 220 110.5 220Z" fill="#00DCFA"/>
<path d="M133.724 34.375C107.118 34.375 84.5194 54.835 81.68 81.1731C55.3281 84.0194 34.875 106.618 34.875 133.217C34.8823 147.113 40.4052 160.438 50.2306 170.265C60.056 180.091 73.3802 185.616 87.2762 185.625C113.882 185.625 136.57 165.165 139.32 138.827C165.665 135.981 186.125 113.382 186.125 86.7831C186.118 72.8871 180.595 59.5621 170.769 49.7355C160.944 39.9088 147.62 34.3841 133.724 34.375ZM173.846 92.6475C172.538 101.242 168.517 109.193 162.37 115.34C156.223 121.487 148.272 125.508 139.677 126.816V92.6475H173.846ZM47.1537 127.353C48.4446 118.742 52.458 110.771 58.6065 104.606C64.755 98.4419 72.7155 94.4077 81.3225 93.0944V127.263H47.1537V127.353ZM127.406 139.177C125.986 148.804 121.151 157.598 113.783 163.953C106.415 170.309 97.0065 173.801 87.2762 173.793C77.5478 173.801 68.141 170.31 60.7745 163.955C53.4079 157.601 48.5732 148.809 47.1537 139.184H127.406V139.177ZM127.853 92.6475V127.263H93.1475V92.6475H127.853ZM173.846 80.8225H93.5944C95.0139 71.1963 99.8493 62.4022 107.217 56.0466C114.585 49.6911 123.993 46.1985 133.724 46.2069C143.452 46.1985 152.859 49.6904 160.226 56.0446C167.592 62.3989 172.427 71.1913 173.846 80.8156V80.8225Z" fill="white"/>
</g>
<defs>
<clipPath id="clip0_2_20455">
<rect width="220" height="220" fill="white" transform="translate(0.5)"/>
</clipPath>
</defs>
</svg>
