<svg width="221" height="220" viewBox="0 0 221 220" fill="none" xmlns="http://www.w3.org/2000/svg">
<g clip-path="url(#clip0_2_20451)">
<path d="M110.5 220C171.251 220 220.5 170.751 220.5 110C220.5 49.2487 171.251 0 110.5 0C49.7487 0 0.5 49.2487 0.5 110C0.5 170.751 49.7487 220 110.5 220Z" fill="#16B9AD"/>
<path d="M179.25 90.7019C179.25 127.882 148.402 158.125 110.5 158.125C72.5981 158.125 41.75 127.875 41.75 90.7156C41.75 87.9794 41.915 85.2362 42.2587 82.5137H54.6062C54.1937 85.2294 53.9875 87.9725 53.9875 90.7156C53.9875 121.275 79.3425 146.142 110.507 146.142C140.248 146.142 164.696 123.509 166.882 94.8888H79.425C81.2812 108.254 91.8206 118.869 105.392 121.062C118.97 123.248 132.411 116.497 138.543 104.424H151.777C145.762 121.763 129.159 133.423 110.486 133.437C86.4513 133.437 66.8919 114.262 66.8919 90.7019C66.8919 87.9519 67.1669 85.2019 67.6963 82.5H178.741C179.085 85.2225 179.25 87.9587 179.25 90.7019Z" fill="white"/>
</g>
<defs>
<clipPath id="clip0_2_20451">
<rect width="220" height="220" fill="white" transform="translate(0.5)"/>
</clipPath>
</defs>
</svg>
