<svg width="221" height="220" viewBox="0 0 221 220" fill="none" xmlns="http://www.w3.org/2000/svg">
<g clip-path="url(#clip0_2_20447)">
<path d="M110.5 220C171.251 220 220.5 170.751 220.5 110C220.5 49.2487 171.251 0 110.5 0C49.7487 0 0.5 49.2487 0.5 110C0.5 170.751 49.7487 220 110.5 220Z" fill="#35A5F3"/>
<path d="M48.762 48.3114C57.4932 39.1883 73.4432 38.8239 82.4563 47.6926C91.8751 56.9051 101.198 66.2001 110.424 75.5845C120.241 66.2551 129.426 56.3001 139.285 47.012C148.663 38.542 164.613 39.5664 172.938 49.0539C181.477 58.0051 181.339 73.6183 172.478 82.3083C163.354 91.5964 154.114 100.747 144.909 109.96C154.314 119.646 164.111 128.955 173.44 138.766C181.8 147.93 181.003 163.55 171.934 171.972C163.018 180.978 147.026 181.006 138.123 171.958C128.863 162.869 119.801 153.561 110.603 144.431C100.785 153.877 91.4213 163.791 81.5007 173.141C71.9995 181.57 55.9807 180.311 47.7995 170.638C39.5495 161.708 39.7557 146.493 48.3495 137.844C56.4264 129.576 64.599 121.401 72.8657 113.321L83.2263 123.668C75.1413 132.015 66.637 140.003 58.6757 148.473C53.3063 153.973 58.0363 164.231 65.5782 164.107C70.1501 164.513 73.3057 160.724 76.2757 157.864C84.1613 149.834 92.1638 141.949 100.049 133.919C82.862 116.58 65.3995 99.482 48.2945 82.0676C39.3707 73.0751 39.6526 57.0426 48.7757 48.3114H48.762ZM58.7513 71.6176C67.847 81.1051 77.2932 90.2558 86.5538 99.5851C91.0226 95.0614 95.5188 90.5651 100.043 86.0895C91.0845 77.0626 82.1607 67.9739 73.0788 59.0708C70.1845 55.9426 65.2345 54.7808 61.4601 57.022C56.2076 59.5658 54.5507 67.3758 58.7445 71.6176H58.7513ZM147.714 59.3114C130.623 76.0864 113.875 93.2189 96.8732 110.076C101.459 114.524 106.031 118.986 110.506 123.551C113.937 120.169 117.347 116.745 120.764 113.321C124.215 116.766 127.646 120.231 131.124 123.655C127.749 127.092 124.353 130.502 120.922 133.898C130.141 143.173 139.182 152.619 148.704 161.591C153.537 166.678 162.914 163.591 164.31 156.888C165.809 152.144 162.399 148.04 159.181 145.056C144.033 129.98 128.917 114.871 113.834 99.7295C117.287 96.2851 120.727 92.827 124.153 89.3551C127.591 92.7789 131.021 96.2026 134.534 99.5714C143.575 90.2008 153.159 81.3526 162.062 71.8376C166.551 67.4789 164.757 59.1258 159.023 56.7676C155.173 54.7808 150.478 56.1833 147.707 59.3114H147.714Z" fill="white"/>
</g>
<defs>
<clipPath id="clip0_2_20447">
<rect width="220" height="220" fill="white" transform="translate(0.5)"/>
</clipPath>
</defs>
</svg>
