<svg width="221" height="220" viewBox="0 0 221 220" fill="none" xmlns="http://www.w3.org/2000/svg">
<g clip-path="url(#clip0_2_20439)">
<path d="M110.5 220C171.251 220 220.5 170.751 220.5 110C220.5 49.2487 171.251 0 110.5 0C49.7487 0 0.5 49.2487 0.5 110C0.5 170.751 49.7487 220 110.5 220Z" fill="#56C9E9"/>
<path d="M164.676 64.9214C159.492 63.0101 148.038 65.8701 147.488 66.6883C149.674 67.1008 150.355 67.3758 153.628 67.9189C157.134 68.5583 160.503 69.8026 163.583 71.6039C166.855 73.5083 168.216 70.9164 168.216 70.9164C168.766 69.6926 167.268 65.8701 164.676 64.9214ZM71.54 42.282C70.7022 40.9602 69.791 39.6863 68.8107 38.4664C66.2188 35.737 61.1794 34.3758 58.4432 35.737C56.9444 36.4245 56.2638 37.3733 57.4944 39.0095C58.9863 40.4876 60.8838 41.4845 62.9463 41.8764C64.17 42.1514 69.6288 43.3751 70.99 43.6433C72.365 43.6433 71.54 42.282 71.54 42.282ZM76.9919 56.0526C76.883 55.8091 76.6868 55.6153 76.4419 55.5095C73.0776 55.9332 69.6685 55.2141 66.7619 53.4676C66.1042 53.0033 65.3189 52.7541 64.5138 52.7541C63.7087 52.7541 62.9234 53.0033 62.2657 53.4676C60.4919 54.9664 63.0838 56.7401 63.2213 56.7401C64.3075 57.4208 65.5382 57.1526 66.6313 57.4208C69.301 58.1943 72.042 58.6964 74.8125 58.9195C77.1294 58.9195 77.6725 58.0945 76.9919 56.0526ZM167.268 51.0133C167.543 50.1883 167.268 47.4658 162.352 48.1464C158.261 48.8339 155.401 49.9201 155.539 50.4633C155.676 51.0133 160.173 51.8314 161.128 51.962C164.944 52.6495 167.13 51.5495 167.268 51.0133ZM117.63 28.2364C117.152 27.7942 116.532 27.5373 115.882 27.5121C115.231 27.4868 114.593 27.695 114.083 28.0989C109.992 30.6908 112.989 39.5526 113.395 39.5526C113.808 39.5526 114.22 36.4176 118.311 31.7839C118.505 31.5079 118.641 31.1956 118.711 30.8657C118.782 30.5359 118.785 30.1952 118.721 29.864C118.657 29.5329 118.526 29.2181 118.338 28.9384C118.149 28.6588 117.906 28.42 117.623 28.2364H117.63ZM104.629 54.5745C104.286 54.2308 104.629 54.2308 104.629 54.5745V54.5745Z" fill="white"/>
<path d="M100.718 50.1871C98.1259 48.8259 100.305 42.1434 99.3565 39.689C99.2669 39.3106 99.0851 38.9602 98.8273 38.6691C98.5696 38.378 98.2438 38.1551 97.879 38.0204C97.5142 37.8856 97.1218 37.8432 96.7367 37.8968C96.3515 37.9504 95.9856 38.0985 95.6715 38.3278C95.3176 38.4718 94.9996 38.6916 94.7399 38.9719C94.4802 39.2521 94.2852 39.5859 94.1685 39.9497C94.0518 40.3136 94.0163 40.6986 94.0646 41.0776C94.1129 41.4566 94.2437 41.8204 94.4478 42.1434C94.9978 43.2365 98.2634 49.5065 95.6715 50.5996C94.7159 51.0121 92.674 50.1871 91.3128 49.369C86.404 47.1896 85.5859 39.689 84.0803 38.7334C83.384 38.2197 82.5358 37.9542 81.6709 37.9791C80.8061 38.004 79.9745 38.318 79.309 38.8709C78.6378 39.2491 78.1285 39.8604 77.8776 40.5889C77.6268 41.3174 77.6517 42.1126 77.9478 42.824C78.6284 44.0546 81.2203 44.7353 81.7634 48.9634L83.3997 50.1871C84.2247 50.8746 85.0359 51.5553 85.9915 52.2359C88.4459 54.6903 87.9028 55.1027 92.949 54.2846C94.5853 53.7346 94.3103 51.5553 95.9465 51.0121C96.964 50.8776 97.9989 51.0177 98.944 51.4178C100.45 52.2153 101.715 53.3909 102.629 54.8277C104.808 57.4196 105.764 60.6921 107.675 63.559C108.335 64.7552 109.16 65.8552 110.13 66.8246L112.172 68.4609C115.038 70.3721 117.63 70.2346 119.672 68.0484C120.228 67.651 120.696 67.144 121.049 66.5588C121.401 65.9735 121.63 65.3223 121.721 64.6452C122.808 61.3586 124.189 58.1764 125.846 55.1371C125.86 55.1247 125.876 55.1152 125.894 55.1093C125.912 55.1034 125.93 55.1012 125.949 55.1028C125.955 55.0319 125.986 54.9655 126.036 54.9152C126.087 54.8649 126.153 54.8339 126.224 54.8277C126.603 54.5618 127.054 54.4191 127.517 54.4191C127.979 54.4191 128.431 54.5618 128.809 54.8277C129.222 55.3777 128.397 60.4171 128.809 60.9602C129.084 62.0602 131.126 61.3727 132.9 61.2352C133.067 61.0257 133.206 60.7944 133.312 60.5478C136.31 59.599 139.177 58.1002 142.174 57.2821H143.81C145.481 57.0071 147.179 57.0071 148.857 57.2821C150.493 57.2821 151.036 58.2377 150.898 59.7365C153.628 59.599 156.357 59.599 159.08 59.324C160.31 59.1865 162.222 59.1865 162.084 56.8696C161.809 55.5084 159.63 51.6927 149.675 54.0096C148.719 54.2846 143.267 55.9209 141.356 54.9652C144.264 53.0815 147.268 51.3559 150.355 49.7815C151.717 48.6884 152.81 47.1896 151.992 45.5534C151.173 43.9171 149.537 44.0546 148.038 44.5978C145.213 45.4756 142.641 47.0201 140.538 49.1009C139.156 50.5034 137.65 51.7821 136.035 52.9165C132.082 54.8277 132.082 54.8277 131.126 54.5527C129.902 54.0027 128.534 53.054 129.49 51.6927C130.047 50.8059 130.459 49.8365 130.72 48.8259C131.133 47.0521 130.583 46.509 129.352 46.509C126.898 46.6465 126.08 50.1871 125.674 50.7371C125.413 51.2734 125.09 51.7684 124.718 52.2359C124.402 52.5484 124.004 52.7658 123.57 52.863C123.136 52.9603 122.684 52.9335 122.264 52.7859C121.446 52.6484 120.765 52.2359 121.446 51.1428C122.677 49.2384 126.492 46.234 127.585 42.2809C127.585 42.2809 129.49 37.0971 124.175 36.9665C121.308 36.829 118.992 38.8709 118.173 42.0059C117.355 45.2784 119.129 49.7815 118.173 51.9609C117.83 52.8821 117.369 53.7484 116.812 54.5527C115.894 55.376 114.704 55.8313 113.471 55.8313C112.238 55.8313 111.048 55.376 110.13 54.5527C109.605 53.9409 109.222 53.2203 109.01 52.4428C108.797 51.6653 108.759 50.8503 108.899 50.0565C109.366 48.259 109.731 46.4365 109.992 44.5978C110.13 43.2365 107.675 40.7821 105.627 42.4184C104.671 43.1059 105.077 44.1921 105.489 45.1478C106.177 47.1896 107.4 53.054 100.718 50.1871ZM104.54 54.4152C104.403 54.2778 104.54 54.2778 104.54 54.4152V54.4152Z" fill="white"/>
<path d="M109.036 60.5689H118.042C118.854 60.3901 119.658 61.0226 120.222 62.2739C120.263 62.9614 120.098 63.6351 119.809 63.9789C118.316 63.2779 116.687 62.9146 115.038 62.9146C113.389 62.9146 111.76 63.2779 110.267 63.9789H109.854L109.036 60.5689Z" fill="white"/>
<path d="M142.036 56.8716C138.562 57.8527 135.148 59.0373 131.813 60.4191C131.516 60.5109 131.198 60.5072 130.903 60.4086C130.608 60.3099 130.352 60.1212 130.17 59.8691C130.035 59.5698 129.965 59.2452 129.965 58.9169C129.965 58.5886 130.035 58.264 130.17 57.9647C130.306 57.5212 130.306 57.047 130.17 56.6034C129.892 55.8579 129.422 55.1987 128.809 54.6922C128.543 54.4717 128.231 54.3129 127.896 54.2273C127.561 54.1417 127.212 54.1314 126.872 54.1971C126.533 54.2629 126.213 54.403 125.934 54.6075C125.655 54.812 125.426 55.0757 125.261 55.3797C123.431 58.2412 122.051 61.3668 121.171 64.6472C120.844 65.9614 120.133 67.1485 119.129 68.0572C117.08 69.8309 115.176 69.9684 112.446 68.4697C111.687 67.9177 110.959 67.3232 110.267 66.6891C109.329 65.6458 108.506 64.5049 107.812 63.2859C106.712 61.2372 105.626 59.0578 104.54 57.1466C103.034 54.6922 101.536 52.3753 98.8131 51.1447C97.9374 50.8272 96.9868 50.7793 96.0837 51.0072C95.6854 51.0843 95.3085 51.2464 94.9787 51.4825C94.6488 51.7186 94.3738 52.0232 94.1724 52.3753C93.7599 53.0559 88.3081 53.1934 86.4037 52.1003C85.4412 51.5503 82.7187 48.8278 81.7631 49.1028C80.9449 49.1028 80.5393 48.5528 79.9893 48.1472C78.7674 47.3076 77.3634 46.7706 75.893 46.5806C74.4227 46.3905 72.9283 46.5528 71.5331 47.0541C70.9491 47.1916 70.4184 47.4975 70.0065 47.9338C69.5947 48.37 69.3199 48.9175 69.2162 49.5084C69.2234 50.1385 69.4237 50.7512 69.7901 51.2638C70.1564 51.7764 70.6712 52.1644 71.2649 52.3753C72.6193 52.8841 73.9393 53.4753 75.2181 54.1491C75.9056 54.4241 76.9918 54.5616 76.8543 55.7853C76.843 56.1095 76.8896 56.4331 76.9918 56.7409C77.1293 58.5078 75.8987 58.6453 74.6749 58.6453C72.9286 58.5062 71.1955 58.2327 69.4912 57.8272C67.6058 57.1915 65.6077 56.9596 63.6268 57.1466C63.0768 57.8341 62.4031 57.4216 61.7156 57.5591C59.2612 57.9716 57.3568 59.7384 57.4943 61.7803C57.6318 64.1041 59.5362 64.6472 61.4474 65.0528C66.0812 66.1528 70.7218 65.7403 75.3556 65.8778C80.9449 65.8778 84.0868 68.6003 84.8981 74.1966C85.4481 78.2803 97.7199 185.737 97.8574 188.053C97.8687 188.527 98.0347 188.984 98.3303 189.354C98.6258 189.724 99.0345 189.987 99.4937 190.102C104.127 191.512 108.967 192.165 113.807 192.013C119.246 192.151 124.67 191.463 129.895 189.965C130.72 189.69 131.401 189.415 131.401 188.328C131.538 185.468 139.307 82.7834 139.307 81.1472C139.225 76.3714 140.764 71.7088 143.672 67.9197C145.989 65.1903 148.581 62.7359 150.898 60.0134C151.586 56.1909 146.67 56.1909 142.036 56.8716Z" fill="white"/>
</g>
<defs>
<clipPath id="clip0_2_20439">
<rect width="220" height="220" fill="white" transform="translate(0.5)"/>
</clipPath>
</defs>
</svg>
