<svg width="221" height="220" viewBox="0 0 221 220" fill="none" xmlns="http://www.w3.org/2000/svg">
<g clip-path="url(#clip0_2_20435)">
<path d="M110.5 220C171.251 220 220.5 170.751 220.5 110C220.5 49.2487 171.251 0 110.5 0C49.7487 0 0.5 49.2487 0.5 110C0.5 170.751 49.7487 220 110.5 220Z" fill="#117FC0"/>
<path d="M182.66 71.0325L124.532 166.87H89.868L116.509 122.891H90.033L59.1642 173.793C73.8791 185.755 92.291 192.236 111.254 192.129C130.217 192.022 148.555 185.333 163.134 173.206C177.712 161.078 187.628 144.265 191.185 125.638C194.743 107.011 191.722 87.7273 182.639 71.0806L182.66 71.0325ZM131.909 53.8312L106.677 95.3562H133.187L162.571 46.8944C147.856 34.9326 129.444 28.4516 110.481 28.5588C91.518 28.666 73.1805 35.3546 58.6018 47.4819C44.023 59.6093 34.1077 76.4226 30.5501 95.0494C26.9924 113.676 30.0131 132.96 39.0961 149.607L97.2036 53.8381H131.902L131.909 53.8312Z" fill="white"/>
</g>
<defs>
<clipPath id="clip0_2_20435">
<rect width="220" height="220" fill="white" transform="translate(0.5)"/>
</clipPath>
</defs>
</svg>
