<svg width="221" height="220" viewBox="0 0 221 220" fill="none" xmlns="http://www.w3.org/2000/svg">
<g clip-path="url(#clip0_2_20431)">
<path d="M110.5 220C171.251 220 220.5 170.751 220.5 110C220.5 49.2487 171.251 0 110.5 0C49.7487 0 0.5 49.2487 0.5 110C0.5 170.751 49.7487 220 110.5 220Z" fill="#D59143"/>
<path d="M55.3145 113.115C51.7533 115.947 48.577 120.98 48.7352 128.673C48.852 133.994 51.712 137.638 55.3145 140.113V149.614C55.3145 155.554 58.202 161.116 63.0695 164.519L96.4339 187.337V70.7439L55.3145 82.7752V113.115ZM64.2727 110.31C71.1958 115.376 71.1958 145.482 71.1958 145.482C71.1958 145.482 63.3652 144.726 56.8958 141.11C62.2308 142.904 66.5139 142.505 68.377 142.711L68.5008 142.718H68.5283L68.6245 142.732L68.8858 142.753L68.9752 142.766H69.0645C69.0645 142.766 70.1645 116.49 62.2102 111.884C60.9177 111.437 58.6352 111.698 56.1189 112.503C59.3227 110.344 62.6708 109.615 64.2727 110.31ZM99.3145 157.775H121.748V187.378H99.3214V157.781L99.3145 157.775ZM94.227 68.537L55.3145 79.6883V37.9501C55.3135 37.2568 55.5181 36.5786 55.9024 36.0015C56.2868 35.4244 56.8336 34.9741 57.4738 34.7078C58.114 34.4414 58.8188 34.3708 59.4991 34.505C60.1794 34.6391 60.8046 34.9719 61.2958 35.4614L96.2208 70.5239L94.227 68.5302V68.537ZM99.3145 110.275H121.748V154.921H99.3214V110.275H99.3145ZM126.766 68.5439L125.323 69.9877L159.698 35.4751C160.188 34.9842 160.812 34.6495 161.492 34.5136C162.173 34.3777 162.878 34.4465 163.519 34.7115C164.16 34.9764 164.708 35.4256 165.094 36.0021C165.479 36.5786 165.685 37.2565 165.686 37.9501V79.6814L126.773 68.5439H126.766ZM99.3214 70.7508H121.748V107.395H99.3214V70.7508ZM165.686 113.115V82.7752L124.635 70.7714V187.378L157.931 164.519C160.325 162.841 162.28 160.611 163.63 158.018C164.98 155.425 165.685 152.544 165.686 149.621V140.113C169.288 137.638 172.148 133.994 172.265 128.673C172.43 120.98 169.247 115.947 165.686 113.115ZM152.211 143.186H152.3L152.383 143.179L152.5 143.165H152.527L152.768 143.145H152.781L152.891 143.131L153.916 143.014H153.964C156.205 142.725 158.955 142.753 163.176 141.433L164.111 141.123C157.635 144.74 149.811 145.496 149.811 145.496C149.811 145.496 149.811 115.397 156.735 110.33C158.336 109.629 161.685 110.358 164.881 112.53C162.365 111.726 160.09 111.465 158.79 111.911C150.836 116.511 152.204 143.193 152.204 143.193L152.211 143.186Z" fill="white"/>
</g>
<defs>
<clipPath id="clip0_2_20431">
<rect width="220" height="220" fill="white" transform="translate(0.5)"/>
</clipPath>
</defs>
</svg>
