<svg width="221" height="220" viewBox="0 0 221 220" fill="none" xmlns="http://www.w3.org/2000/svg">
<g clip-path="url(#clip0_2_20427)">
<path d="M110.5 220C171.251 220 220.5 170.751 220.5 110C220.5 49.2487 171.251 0 110.5 0C49.7487 0 0.5 49.2487 0.5 110C0.5 170.751 49.7487 220 110.5 220Z" fill="#8834FF"/>
<path d="M48.625 145.958C49.9381 145.958 51.32 146.026 52.6331 145.958C55.1288 145.772 57.6312 145.27 60.0719 144.651C64.885 143.337 69.3901 141.082 73.3269 138.017C74.4544 137.144 75.575 136.209 76.6406 135.205C78.8887 132.957 80.8344 130.393 82.395 127.643C83.77 125.202 84.7669 122.576 85.5231 119.888C85.585 119.702 85.585 119.448 85.6469 119.262H75.8294C73.7892 119.253 71.756 119.023 69.7656 118.575C69.5861 118.502 69.3955 118.46 69.2019 118.451C69.1063 118.402 69.0202 118.337 68.9475 118.258C69.5113 117.014 70.0131 115.825 70.515 114.573L74.3306 105.753C74.4526 105.332 74.6405 104.932 74.8875 104.57C75.16 104.318 75.5202 104.182 75.8912 104.192C78.9575 104.13 81.955 104.192 85.0212 104.192H85.8325C85.7087 103.69 85.7088 103.319 85.585 102.886C84.4774 98.6554 82.5195 94.6951 79.8306 91.2465C78.5083 89.5627 77.0653 87.9772 75.5131 86.5027C73.5716 84.6762 71.4099 83.0988 69.0781 81.8071C66.6482 80.4404 64.0927 79.3101 61.4469 78.4315C59.2431 77.7409 56.9845 77.2395 54.6956 76.9327C52.8806 76.7402 51.1275 76.6783 49.3194 76.5546C48.8794 76.5546 48.4394 76.4927 48.0062 76.4308C47.9168 76.404 47.8355 76.3555 47.7695 76.2895C47.7035 76.2235 47.6549 76.1421 47.6281 76.0527C47.0025 74.6158 46.3769 73.2408 45.7512 71.804C44.995 70.1127 44.3075 68.4283 43.565 66.799C43.0012 65.424 42.3756 64.1177 41.75 62.674L43.0631 62.2958C45.8131 61.9246 48.6319 61.8008 51.4437 61.9246C55.9205 62.0746 60.3665 62.7249 64.6988 63.8633C67.4488 64.6127 70.1988 65.5477 72.825 66.6752C76.5169 68.2358 80.0163 70.1815 83.275 72.4915C84.705 73.5502 86.1419 74.6777 87.5238 75.8052C88.1425 76.3071 88.7681 76.8708 89.3938 77.4277C92.5219 80.4321 95.2719 83.8696 97.5887 87.5615C99.8987 91.2465 101.59 95.2477 102.717 99.4415C103.089 100.816 103.336 102.26 103.652 103.635C103.689 103.741 103.756 103.833 103.846 103.899C103.935 103.965 104.043 104.003 104.154 104.006H116.846C117.1 103.003 117.286 102.006 117.471 101.002C118.228 98.0665 119.224 95.2477 120.476 92.5596C121.473 90.3115 122.724 88.1252 124.161 86.1246C125.474 84.3096 126.849 82.4946 128.354 80.8102C129.46 79.5035 130.65 78.2703 131.916 77.1183C134.545 74.7311 137.392 72.5952 140.42 70.7383C143.548 68.7996 146.8 67.2321 150.238 65.9877C152.616 65.1765 154.988 64.4271 157.367 63.8015C159.175 63.3615 160.928 63.0452 162.805 62.7977C164.304 62.5502 165.871 62.4265 167.432 62.2958C168.436 62.234 169.371 62.1721 170.374 62.1721C171.873 62.1721 173.31 62.1102 174.747 62.1721C176.191 62.2408 177.628 62.5502 179.064 62.7977C179.126 62.7977 179.126 62.8665 179.25 62.9833L178.184 65.4858C177.064 68.1121 175.936 70.7383 174.747 73.4265C174.293 74.3701 173.875 75.331 173.496 76.3071C173.248 76.9258 172.622 76.6783 172.189 76.8021C171.811 76.8708 171.502 76.8708 171.124 76.8021C164.732 76.8643 158.433 78.3387 152.678 81.1196C149.986 82.4347 147.465 84.0739 145.171 86.0008C144.236 86.8121 143.177 87.6233 142.297 88.5583C140.042 90.8133 138.103 93.3708 136.543 96.1896C135.288 98.5154 134.283 100.967 133.545 103.505C133.476 103.69 133.476 103.945 133.414 104.13H134.102C137.354 104.13 140.668 104.061 143.919 104.13C145.858 104.13 147.797 104.44 149.674 105.065C149.743 105.134 149.798 105.134 149.859 105.196L148.051 109.321C146.8 112.256 145.487 115.199 144.236 118.196C143.857 119.076 143.61 119.262 142.606 119.262H133.476C133.731 120.135 133.916 120.885 134.164 121.641C135.044 124.267 136.295 126.763 137.856 129.08C138.798 130.455 139.794 131.706 140.86 132.957C141.479 133.706 142.166 134.456 142.854 135.081C145.171 137.33 147.804 139.275 150.609 140.836C152.987 142.211 155.552 143.338 158.178 144.205C160.681 145.085 163.307 145.648 165.995 145.896L170.931 146.274C171.557 146.343 172.182 146.343 172.808 146.398C172.932 146.466 173.062 146.521 173.124 146.652C174.183 149.148 175.249 151.65 176.376 154.153L179.057 160.278C178.184 160.471 177.373 160.656 176.5 160.718C174.369 160.842 172.182 160.966 170.058 160.966C168.119 160.966 166.181 160.78 164.304 160.533C161.703 160.165 159.117 159.707 156.549 159.158C153.47 158.402 150.458 157.397 147.543 156.153C144.07 154.667 140.762 152.823 137.67 150.653C136.059 149.459 134.475 148.228 132.919 146.961C131.9 146.131 130.937 145.233 130.039 144.273C126.089 140.256 122.836 135.609 120.414 130.523C118.997 127.511 117.947 124.34 117.286 121.077C117.162 120.761 117.1 120.39 117.031 120.073C117.031 119.455 116.722 119.324 116.158 119.324H103.529C102.9 122.719 101.892 126.033 100.524 129.203C99.4153 131.894 98.0111 134.454 96.3375 136.835C95.0287 138.675 93.6291 140.448 92.1437 142.149C91.0743 143.447 89.9043 144.658 88.6444 145.772C86.7056 147.463 84.6431 149.024 82.5806 150.585C80.1001 152.347 77.4628 153.877 74.7019 155.156C69.5622 157.6 64.079 159.244 58.4425 160.031C56.5038 160.34 54.565 160.533 52.6331 160.718C51.5294 160.781 50.4231 160.781 49.3194 160.718C47.69 160.718 46.0675 160.65 44.5069 160.595C43.9363 160.526 43.3725 160.471 42.8156 160.34C42.4994 160.278 42.3756 160.155 42.5613 159.783C43.8125 156.903 45.1256 154.029 46.3769 151.148C47.1331 149.402 47.8206 147.78 48.625 145.965V145.958Z" fill="white"/>
</g>
<defs>
<clipPath id="clip0_2_20427">
<rect width="220" height="220" fill="white" transform="translate(0.5)"/>
</clipPath>
</defs>
</svg>
