<svg width="221" height="220" viewBox="0 0 221 220" fill="none" xmlns="http://www.w3.org/2000/svg">
<g clip-path="url(#clip0_2_20421)">
<path d="M110.5 220C171.251 220 220.5 170.751 220.5 110C220.5 49.2487 171.251 0 110.5 0C49.7487 0 0.5 49.2487 0.5 110C0.5 170.751 49.7487 220 110.5 220Z" fill="#1591CA"/>
<path d="M114.433 104.995C114.433 104.995 123.556 84.7139 105.667 65.1201C105.667 65.1201 95.4919 52.0576 74.4544 53.0889L78.6551 51.4389C79.3563 51.1639 80.0919 50.9714 80.8344 50.8751L84.9732 50.3389L114.082 45.8701C114.082 45.8701 124.374 43.8489 132.177 46.0764C134.398 46.7157 136.419 47.9189 138.021 49.5551C142.324 53.9139 150.966 65.4432 145.308 83.6826C145.308 83.6826 139.691 103.964 118.647 108.776C118.647 108.776 113.381 110.151 114.433 104.995ZM113.133 116.298C113.133 116.298 126.285 134.331 152.609 129.25C152.609 129.25 169.261 127.332 179.085 109.058L178.384 113.451C178.267 114.18 178.061 114.895 177.765 115.576L176.129 119.336L165.211 146.149C165.211 146.149 161.739 155.849 155.806 161.294C154.103 162.846 152.029 163.933 149.784 164.45C143.768 165.846 129.241 167.255 116.11 153.189C116.11 153.189 101.171 138.119 107.674 117.92C107.674 117.906 109.146 112.784 113.133 116.298ZM103.611 109.787C103.611 109.787 81.1301 112.152 72.7082 137.115C72.7082 137.115 66.2182 152.268 77.6169 169.634L74.0625 166.884C73.4718 166.427 72.9405 165.898 72.4813 165.309L69.9376 162.064L51.4851 139.563C51.4851 139.563 44.5619 131.814 42.6576 124.094C42.1076 121.88 42.1626 119.556 42.8088 117.37C44.5207 111.547 50.4126 98.4639 69.3669 94.1876C69.3669 94.1876 90.1088 88.8457 104.856 104.335C104.869 104.335 108.706 108.116 103.618 109.787H103.611Z" fill="white"/>
<path opacity="0.5" d="M118.104 111.092C118.104 111.092 140.516 108.177 148.285 83.0075C148.285 83.0075 154.383 67.6969 142.531 50.6194L146.161 53.28C146.759 53.7269 147.309 54.2425 147.783 54.8131L150.402 57.9894L169.446 80.0306C169.446 80.0306 176.555 87.5931 178.673 95.2794C179.271 97.4794 179.271 99.7894 178.673 101.989C177.112 107.854 171.564 121.088 152.719 125.832C152.719 125.832 132.122 131.676 116.983 116.578C116.997 116.578 113.064 112.893 118.104 111.092ZM106.842 115.244C106.842 115.244 97.2106 135.292 114.591 155.319C114.591 155.319 124.415 168.622 145.494 168.106L141.245 169.653C140.537 169.909 139.801 170.077 139.052 170.155L134.906 170.595L105.687 174.349C105.687 174.349 95.3544 176.116 87.6062 173.696C85.4089 173.002 83.4271 171.754 81.8519 170.073C77.6581 165.604 69.3187 153.875 75.4444 135.787C75.4444 135.787 81.5631 115.643 102.731 111.353C102.731 111.374 108.046 110.116 106.842 115.244ZM107.592 104.678C107.592 104.678 94.1719 86.83 67.93 92.3025C67.93 92.3025 51.3062 94.4475 41.75 112.859L42.3825 108.452C42.4906 107.72 42.6892 107.004 42.9737 106.321L44.555 102.539L55.0738 75.5619C55.0738 75.5619 58.4081 65.8131 64.2587 60.2856C65.9464 58.713 68.0113 57.6024 70.2537 57.0613C76.2487 55.5694 90.755 53.9675 104.079 67.8481C104.079 67.8481 119.238 82.705 113.03 102.993C113.03 102.979 111.627 108.136 107.592 104.678Z" fill="white"/>
</g>
<defs>
<clipPath id="clip0_2_20421">
<rect width="220" height="220" fill="white" transform="translate(0.5)"/>
</clipPath>
</defs>
</svg>
