<svg width="221" height="220" viewBox="0 0 221 220" fill="none" xmlns="http://www.w3.org/2000/svg">
<g clip-path="url(#clip0_2_20417)">
<path d="M110.5 220C171.251 220 220.5 170.751 220.5 110C220.5 49.2487 171.251 0 110.5 0C49.7487 0 0.5 49.2487 0.5 110C0.5 170.751 49.7487 220 110.5 220Z" fill="#56428E"/>
<path d="M74.4062 51.5625H104.34C100.738 57.2687 98.5306 63.5731 98.6681 70.4C107.571 70.4894 116.502 70.4894 125.412 70.4C125.529 63.6144 123.707 57.1312 119.809 51.5625H149.949C147.873 55.9144 144.346 59.95 144.683 65.0581C144.545 87.9106 144.731 110.777 144.662 133.629C147.618 133.629 150.609 133.629 153.599 133.65C155.779 129.319 157.718 124.898 159.264 120.312C168.216 120.539 177.215 120.058 186.125 121.254C177.311 128.858 172.705 139.679 166.964 149.531C144.181 149.579 121.404 149.463 98.5994 149.6C97.5269 157.919 102.656 163.646 108.596 168.438H70.1163C73.4644 164.017 80.2088 161.171 79.5006 154.688C79.7275 132.598 79.5006 110.481 79.5694 88.3644H99.0944V101.977H124.999V86.3706H70.9137L57.4731 110C61.9419 117.886 66.4244 125.757 70.9344 133.629H77.5894V149.531H57.2462C49.8212 136.331 42.1213 123.289 34.875 110V109.979C42.1419 96.7106 49.8625 83.6688 57.2462 70.4688C64.8362 70.4688 72.4194 70.4687 80.0025 70.4C80.1036 63.6958 78.1481 57.1216 74.3994 51.5625H74.4062ZM99.1012 118.023V133.629H124.999V118.023H99.1012ZM146.642 70.4688H166.923C172.478 79.4062 176.301 89.7188 184.317 96.8688C184.482 97.3981 184.777 98.4775 184.936 99C176.369 100.127 167.693 99.2544 159.058 99.6875C157.958 94.9231 155.799 90.5438 153.407 86.35L146.642 86.3706V70.4688ZM125.707 151.525C131.696 151.546 137.711 151.525 143.706 151.504C143.569 159.156 148.924 163.9 154.184 168.438H115.429C120.4 163.721 126.209 159.246 125.707 151.525Z" fill="white"/>
</g>
<defs>
<clipPath id="clip0_2_20417">
<rect width="220" height="220" fill="white" transform="translate(0.5)"/>
</clipPath>
</defs>
</svg>
