<svg width="221" height="220" viewBox="0 0 221 220" fill="none" xmlns="http://www.w3.org/2000/svg">
<g clip-path="url(#clip0_2_20411)">
<path d="M110.5 220C171.251 220 220.5 170.751 220.5 110C220.5 49.2487 171.251 0 110.5 0C49.7487 0 0.5 49.2487 0.5 110C0.5 170.751 49.7487 220 110.5 220Z" fill="#2A3069"/>
<path d="M126.636 72.4139C126.636 48.2139 114.901 27.6852 106.101 21.0852C106.101 21.0852 105.365 20.3495 105.365 21.8139C104.636 68.0139 81.1649 80.4852 68.7006 98.0852C38.6362 136.95 66.5006 180.214 95.1006 188.285C111.236 192.685 91.4362 180.214 89.2362 154.55C85.5649 122.285 126.636 98.8139 126.636 72.4139Z" fill="white"/>
<path d="M142.036 88.5493C140.565 94.4137 134.7 106.885 126.636 118.614C99.5004 157.485 114.9 176.549 123.7 186.814C128.836 192.685 123.7 186.814 136.165 180.949C136.9 180.214 161.1 167.749 163.3 139.149C166.236 111.285 148.636 93.6849 142.036 88.5493Z" fill="white"/>
</g>
<defs>
<clipPath id="clip0_2_20411">
<rect width="220" height="220" fill="white" transform="translate(0.5)"/>
</clipPath>
</defs>
</svg>
