<svg width="221" height="220" viewBox="0 0 221 220" fill="none" xmlns="http://www.w3.org/2000/svg">
<g clip-path="url(#clip0_2_20407)">
<path d="M110.5 220C171.251 220 220.5 170.751 220.5 110C220.5 49.2487 171.251 0 110.5 0C49.7487 0 0.5 49.2487 0.5 110C0.5 170.751 49.7487 220 110.5 220Z" fill="#CFA967"/>
<path d="M110.638 116.497V171.449L151.523 160.435L161.128 54.6288H110.638V99.5362L112.727 93.0256H118.2L110.638 116.497ZM59.8725 168.224L48.625 44.6875H172.375L161.128 168.224L110.362 182.188L59.8725 168.224ZM95.3681 121.523V116.428L78.3937 109.663L95.375 102.857V97.7556L71.1269 107.608V111.677L95.3681 121.523ZM149.908 111.677L125.659 121.523V116.428L142.641 109.643L125.659 102.857V97.7556L149.908 107.608V111.677ZM110.638 116.49V99.5362L101.583 127.772H107.001L110.638 116.49Z" fill="white"/>
</g>
<defs>
<clipPath id="clip0_2_20407">
<rect width="220" height="220" fill="white" transform="translate(0.5)"/>
</clipPath>
</defs>
</svg>
