<svg width="221" height="220" viewBox="0 0 221 220" fill="none" xmlns="http://www.w3.org/2000/svg">
<g clip-path="url(#clip0_2_20399)">
<path d="M110.5 220C171.251 220 220.5 170.751 220.5 110C220.5 49.2487 171.251 0 110.5 0C49.7487 0 0.5 49.2487 0.5 110C0.5 170.751 49.7487 220 110.5 220Z" fill="black"/>
<circle cx="110" cy="111" r="95.5" fill="white"/>
<circle cx="110" cy="111" r="82.1833" fill="black"/>
<path d="M86.7911 123.175H76.1377V134.209H110V123.175H100.108C100.108 118.254 100.366 113.084 103.657 109.097C110.289 101.065 124.064 101.443 129.603 110.619C132.539 115.483 132.068 121.545 132.068 126.98V156.657H145.004V124.697C145.004 116.945 145.252 109.016 140.779 102.249C132.797 90.1724 106.758 86.4175 100.488 102.629H100.108V65.7229H86.7911V123.175Z" fill="white"/>
<path d="M76.1377 145.623V156.657H110V145.623H76.1377Z" fill="white"/>
</g>
<defs>
<clipPath id="clip0_2_20399">
<rect width="220" height="220" fill="white" transform="translate(0.5)"/>
</clipPath>
</defs>
</svg>
