<svg width="221" height="220" viewBox="0 0 221 220" fill="none" xmlns="http://www.w3.org/2000/svg">
<g clip-path="url(#clip0_2_20391)">
<path d="M110.5 220C171.251 220 220.5 170.751 220.5 110C220.5 49.2487 171.251 0 110.5 0C49.7487 0 0.5 49.2487 0.5 110C0.5 170.751 49.7487 220 110.5 220Z" fill="#292929"/>
<path fill-rule="evenodd" clip-rule="evenodd" d="M103.673 128.267C103.673 125.105 103.687 121.949 103.666 118.793C103.659 117.913 103.914 117.24 104.732 116.882C105.488 116.552 106.279 116.786 106.939 117.556C108.905 119.852 110.857 122.162 112.817 124.472C113.504 125.277 114.199 126.074 114.866 126.906C115.022 127.102 115.114 127.343 115.127 127.593C115.141 130.928 115.147 134.262 115.134 137.59C115.152 139.057 114.616 140.477 113.634 141.566C112.651 142.656 111.294 143.335 109.833 143.468C108.373 143.561 106.932 143.098 105.799 142.172C104.667 141.246 103.927 139.926 103.728 138.477C103.666 138.098 103.673 137.707 103.673 137.322V128.267ZM103.694 66.3234C103.687 66.1859 103.673 66.0553 103.673 65.9178V47.1353C103.68 44.2478 105.66 41.8141 108.341 41.3397C109.168 41.1858 110.019 41.2165 110.833 41.4294C111.646 41.6423 112.403 42.0323 113.049 42.5715C113.694 43.1107 114.213 43.7858 114.567 44.5485C114.922 45.3113 115.103 46.1429 115.099 46.9841C115.168 53.3847 115.127 59.7922 115.141 66.1928L115.106 66.5228C113.772 64.2403 111.93 63.0991 109.414 63.1059C106.925 63.1059 105.069 64.2059 103.694 66.3234ZM103.673 153.038C105.076 155.169 106.946 156.255 109.455 156.248C111.957 156.242 113.779 155.1 115.141 152.983V168.892C115.134 170.452 115.182 172.027 115.044 173.567C114.911 175.036 114.214 176.396 113.098 177.362C111.983 178.327 110.536 178.822 109.063 178.743C107.61 178.646 106.248 178.002 105.25 176.941C104.253 175.88 103.694 174.48 103.687 173.023C103.653 166.884 103.673 160.745 103.673 154.598V153.038ZM115.141 92.3591V103.778C115.141 104.865 114.797 105.456 113.972 105.786C113.545 105.962 113.073 105.994 112.626 105.877C112.18 105.76 111.783 105.502 111.497 105.14L106.519 99.3097C105.66 98.3059 104.801 97.3091 103.955 96.2847C103.793 96.0904 103.697 95.8497 103.68 95.5972C103.666 90.6884 103.659 85.7728 103.68 80.8641C103.671 79.4143 104.207 78.0141 105.183 76.9417C106.159 75.8692 107.502 75.203 108.946 75.0753C111.662 74.7728 114.357 76.7941 114.989 79.6403C115.092 80.1147 115.127 80.6097 115.127 81.0978C115.141 84.8516 115.141 88.6053 115.141 92.3591ZM127.041 69.1422V53.8797C127.055 51.1159 128.629 48.8609 131.077 48.0909C134.789 46.9153 138.502 49.7203 138.522 53.7628C138.543 57.5716 138.522 61.3803 138.522 65.1822V84.3978C138.522 87.2372 136.817 89.5334 134.212 90.2416C130.822 91.1559 127.364 88.6603 127.083 85.0922C127.057 84.7421 127.046 84.3912 127.048 84.0403V69.1422H127.041ZM92.3638 142.725V160.36C92.3895 161.738 91.9244 163.08 91.0516 164.147C90.1788 165.213 88.9552 165.935 87.5994 166.183C84.2994 166.815 81.0063 164.134 80.91 160.703C80.8825 159.72 80.9031 158.737 80.9031 157.754V125.077C80.9031 122.334 82.6631 120.017 85.2206 119.357C86.0684 119.143 86.9538 119.126 87.8092 119.307C88.6646 119.488 89.4674 119.862 90.156 120.401C90.8446 120.939 91.401 121.628 91.7824 122.415C92.1639 123.202 92.3604 124.065 92.3569 124.94C92.3775 130.866 92.3569 136.799 92.3569 142.725H92.3638ZM92.3638 77.7841V101.84C92.3896 103.174 91.9554 104.476 91.1341 105.528C90.3127 106.58 89.1544 107.316 87.8538 107.615C87.0205 107.792 86.1583 107.782 85.3295 107.585C84.5007 107.388 83.726 107.01 83.0614 106.477C82.3969 105.944 81.8591 105.27 81.487 104.504C81.1149 103.737 80.9178 102.898 80.91 102.046C80.8756 98.5672 80.9031 95.0953 80.8963 91.6166V53.7628C80.8963 50.9303 82.7388 48.5653 85.3856 47.9672C86.2271 47.7825 87.0994 47.7895 87.9378 47.9879C88.7762 48.1862 89.5592 48.5706 90.2287 49.1128C90.8983 49.6549 91.4373 50.3408 91.8057 51.1196C92.1741 51.8983 92.3625 52.7501 92.3569 53.6116C92.3775 59.7922 92.3569 65.9659 92.3569 72.1466L92.3638 77.7841ZM127.041 134.063V107.938C127.041 105.332 128.155 103.4 130.479 102.314C134.205 100.588 138.385 103.345 138.522 107.56V160.14C138.522 163.013 136.879 165.296 134.287 166.038C130.891 167.015 127.371 164.526 127.083 160.944C127.056 160.578 127.045 160.211 127.048 159.844V134.049L127.041 134.063ZM162.062 107.484V148.322C162.096 149.682 161.654 151.012 160.811 152.082C159.969 153.151 158.78 153.893 157.449 154.179C154.067 154.915 150.698 152.213 150.602 148.686V66.7359C150.602 64.0891 151.929 61.9784 154.17 61.0434C157.951 59.4622 162.056 62.3084 162.056 66.5297V107.477L162.062 107.484ZM70.3981 107.422V148.322C70.3981 151.209 68.6106 153.526 65.9156 154.165C62.4781 154.99 59.0338 152.282 58.9375 148.672V66.6053C58.9375 63.7934 60.6219 61.5109 63.2 60.7959C64.0458 60.5736 64.9312 60.5477 65.7885 60.7202C66.6459 60.8927 67.4524 61.259 68.1464 61.7911C68.8404 62.3232 69.4034 63.007 69.7925 63.7902C70.1816 64.5734 70.3864 65.4352 70.3913 66.3097C70.4256 70.8128 70.3981 75.3228 70.3981 79.8328V107.415V107.422Z" fill="white"/>
</g>
<defs>
<clipPath id="clip0_2_20391">
<rect width="220" height="220" fill="white" transform="translate(0.5)"/>
</clipPath>
</defs>
</svg>
