<svg width="221" height="220" viewBox="0 0 221 220" fill="none" xmlns="http://www.w3.org/2000/svg">
<g clip-path="url(#clip0_2_20383)">
<path d="M110.5 220C171.251 220 220.5 170.751 220.5 110C220.5 49.2487 171.251 0 110.5 0C49.7487 0 0.5 49.2487 0.5 110C0.5 170.751 49.7487 220 110.5 220Z" fill="#1FC5C9"/>
<path fill-rule="evenodd" clip-rule="evenodd" d="M78.16 154.495L93.0375 139.618C99.6033 143.496 107.272 145.081 114.838 144.123C122.403 143.165 129.435 139.719 134.827 134.327C140.219 128.935 143.665 121.903 144.623 114.338C145.581 106.772 143.996 99.1033 140.118 92.5375L154.995 77.66C162.707 88.2546 166.383 101.255 165.36 114.319C164.338 127.383 158.685 139.653 149.419 148.919C140.153 158.185 127.883 163.838 114.819 164.86C101.755 165.883 88.7546 162.207 78.16 154.495ZM66.005 142.34C58.2931 131.745 54.6173 118.745 55.6396 105.681C56.6618 92.6171 62.315 80.3471 71.5811 71.0811C80.8471 61.815 93.1171 56.1618 106.181 55.1396C119.245 54.1173 132.245 57.7931 142.84 65.505L127.963 80.3825C121.397 76.5041 113.728 74.9191 106.162 75.8768C98.5971 76.8345 91.565 80.2807 86.1728 85.6728C80.7807 91.065 77.3345 98.0971 76.3768 105.662C75.4191 113.228 77.0041 120.897 80.8825 127.463L66.005 142.34ZM165.5 68.75C161.853 68.75 158.356 67.3013 155.777 64.7227C153.199 62.1441 151.75 58.6467 151.75 55C151.75 51.3533 153.199 47.8559 155.777 45.2773C158.356 42.6987 161.853 41.25 165.5 41.25C169.147 41.25 172.644 42.6987 175.223 45.2773C177.801 47.8559 179.25 51.3533 179.25 55C179.25 58.6467 177.801 62.1441 175.223 64.7227C172.644 67.3013 169.147 68.75 165.5 68.75ZM55.5 178.75C51.8533 178.75 48.3559 177.301 45.7773 174.723C43.1987 172.144 41.75 168.647 41.75 165C41.75 161.353 43.1987 157.856 45.7773 155.277C48.3559 152.699 51.8533 151.25 55.5 151.25C59.1467 151.25 62.6441 152.699 65.2227 155.277C67.8013 157.856 69.25 161.353 69.25 165C69.25 168.647 67.8013 172.144 65.2227 174.723C62.6441 177.301 59.1467 178.75 55.5 178.75Z" fill="white"/>
</g>
<defs>
<clipPath id="clip0_2_20383">
<rect width="220" height="220" fill="white" transform="translate(0.5)"/>
</clipPath>
</defs>
</svg>
