<svg width="221" height="220" viewBox="0 0 221 220" fill="none" xmlns="http://www.w3.org/2000/svg">
<g clip-path="url(#clip0_2_20379)">
<path d="M110.5 220C171.251 220 220.5 170.751 220.5 110C220.5 49.2487 171.251 0 110.5 0C49.7487 0 0.5 49.2487 0.5 110C0.5 170.751 49.7487 220 110.5 220Z" fill="#F9C011"/>
<path d="M102.333 41.25C112.769 47.3481 122.586 54.4087 132.926 60.6719L94.8113 127.16C89.7513 118.284 85.0075 109.23 80.0094 100.306C87.2075 80.5406 95.43 61.1188 102.333 41.25ZM69.25 178.75C90.8306 139.501 113.25 100.684 134.59 61.3319C140.296 71.3487 146.009 81.3588 151.75 91.3756C135.209 120.471 118.544 149.497 102.133 178.654C91.1675 178.654 80.2156 178.516 69.25 178.75ZM104.189 178.592C113.333 162.951 121.947 147.036 131.207 131.464C136.728 138.524 142.331 145.544 147.811 152.639C133.322 161.377 118.781 170.028 104.189 178.592Z" fill="white"/>
</g>
<defs>
<clipPath id="clip0_2_20379">
<rect width="220" height="220" fill="white" transform="translate(0.5)"/>
</clipPath>
</defs>
</svg>
