<svg width="221" height="220" viewBox="0 0 221 220" fill="none" xmlns="http://www.w3.org/2000/svg">
<g clip-path="url(#clip0_2_20375)">
<path d="M110.5 220C171.251 220 220.5 170.751 220.5 110C220.5 49.2487 171.251 0 110.5 0C49.7487 0 0.5 49.2487 0.5 110C0.5 170.751 49.7487 220 110.5 220Z" fill="#98C23A"/>
<path d="M109.056 27.5C64.2931 27.5 28 63.7931 28 108.556C28 153.319 64.2931 189.613 109.056 189.613C153.819 189.613 190.113 153.319 190.113 108.556C190.037 63.8206 153.792 27.5756 109.056 27.5ZM109.056 178.75C70.3363 178.75 38.945 147.366 38.9313 108.646C38.9175 69.9256 70.2881 38.5206 109.008 38.5C147.728 38.4725 179.14 69.8363 179.181 108.556C179.14 147.269 147.769 178.64 109.056 178.681V178.75ZM73.2375 101.338H60.175V72.7375C60.175 67.375 62.7188 64.6937 67.8063 64.6937H96.1312C97.2232 64.5087 98.3437 64.5902 99.3973 64.9313C100.451 65.2724 101.407 65.863 102.183 66.6528C102.959 67.4427 103.533 68.4084 103.856 69.4678C104.179 70.5272 104.241 71.6489 104.038 72.7375V101.338H91.1125V75.9H73.2375V101.338ZM91.1125 109.725H104.175V144.1C104.366 145.184 104.294 146.297 103.966 147.347C103.637 148.397 103.062 149.353 102.287 150.135C101.512 150.916 100.561 151.5 99.5141 151.838C98.4669 152.175 97.3539 152.257 96.2688 152.075H67.8063C66.7336 152.202 65.646 152.075 64.6318 151.703C63.6176 151.331 62.7053 150.726 61.9687 149.936C61.2322 149.146 60.6922 148.193 60.3925 147.155C60.0928 146.117 60.0418 145.024 60.2437 143.963V109.587H91.1812L91.1125 109.725ZM144.737 110.206H157.938V144.581C158.132 145.672 158.06 146.793 157.728 147.849C157.396 148.906 156.814 149.866 156.031 150.649C155.248 151.432 154.287 152.015 153.23 152.347C152.174 152.679 151.053 152.751 149.963 152.556H121.294C120.214 152.726 119.109 152.635 118.071 152.292C117.033 151.949 116.092 151.363 115.325 150.583C114.559 149.803 113.99 148.852 113.665 147.808C113.34 146.765 113.268 145.658 113.456 144.581V73.3563C113.246 72.2543 113.308 71.1175 113.637 70.045C113.967 68.9726 114.554 67.9972 115.348 67.2038C116.141 66.4105 117.116 65.8234 118.189 65.4937C119.261 65.164 120.398 65.1018 121.5 65.3125H149.688C150.804 65.0618 151.966 65.0938 153.067 65.4056C154.168 65.7174 155.174 66.2991 155.993 67.098C156.812 67.8969 157.419 68.8877 157.759 69.9805C158.098 71.0734 158.16 72.2337 157.938 73.3563V93.9812H144.188V76.5187H127V110.206H144.737Z" fill="white"/>
</g>
<defs>
<clipPath id="clip0_2_20375">
<rect width="220" height="220" fill="white" transform="translate(0.5)"/>
</clipPath>
</defs>
</svg>
