<svg width="221" height="220" viewBox="0 0 221 220" fill="none" xmlns="http://www.w3.org/2000/svg">
<g clip-path="url(#clip0_2_20371)">
<path d="M110.5 220C171.251 220 220.5 170.751 220.5 110C220.5 49.2487 171.251 0 110.5 0C49.7487 0 0.5 49.2487 0.5 110C0.5 170.751 49.7487 220 110.5 220Z" fill="#DF1A14"/>
<path d="M102.663 79.2482C104.773 78.5814 107.173 79.7707 108.046 81.847C110.156 86.6732 112.047 91.6439 114.233 96.4632C115.54 99.3576 119.988 99.7289 121.727 97.0614C124.642 92.2351 126.973 87.1132 129.812 82.2114C132.143 79.1726 136.364 80.6576 139.568 80.362C142.916 80.142 145.391 84.3701 143.493 87.2645C134.322 104.404 125.082 121.474 115.911 138.621C114.378 141.735 109.359 141.735 107.977 138.469C105.935 133.499 104.333 128.301 102.367 123.331C101.198 120.065 96.1796 119.549 94.509 122.664C91.6696 127.786 89.1946 133.128 86.3552 138.174C84.9733 140.47 82.0583 140.099 79.8033 140.099C77.6171 139.954 74.9977 140.621 73.3271 138.765C72.5952 138.007 72.1338 137.029 72.0145 135.983C71.8952 134.936 72.1246 133.879 72.6671 132.976C81.2608 116.724 89.9921 100.403 98.5858 83.9989C99.6033 82.1426 100.476 79.8395 102.663 79.2551V79.2482ZM72.6671 80.5132C75.2133 80.3648 77.7659 80.3648 80.3121 80.5132C83.1515 80.8089 84.9733 84.4457 83.5915 87.0445C75.0665 103.146 66.4796 119.171 57.9683 135.204C56.944 136.991 56.1465 139.363 53.9602 139.948C51.4165 140.326 48.7971 140.106 46.2465 140.106C43.1183 140.25 40.499 136.166 42.3896 133.423C51.2721 116.799 60.1477 100.1 69.0302 83.4076C69.759 81.9982 70.9965 80.5889 72.674 80.5132H72.6671ZM163.005 80.6576C165.768 79.8395 168.683 80.4376 171.523 80.2107C173.702 80.2864 176.473 79.8395 178.075 81.7714C180.041 83.7789 179.45 87.5601 176.975 88.8251C171.956 92.0151 167.006 95.4251 161.918 98.5464C158.708 100.767 153.978 96.9857 155.36 93.2732C156.597 90.3032 158.343 87.567 159.732 84.6657C160.53 83.1807 161.258 81.2557 163.005 80.6576ZM138.908 125.036C140.365 124.142 142.187 124.444 143.569 125.187C147.426 127.112 151.283 129.195 155.215 131.051C156.893 131.794 158.639 133.203 158.708 135.204C159.003 137.878 156.741 140.47 154.122 140.25C148.519 140.25 142.916 140.319 137.381 140.25C134.618 140.25 132.431 136.984 133.449 134.317C134.178 132.385 135.271 130.673 136.144 128.817C136.797 127.414 137.45 125.703 138.908 125.036Z" fill="white"/>
</g>
<defs>
<clipPath id="clip0_2_20371">
<rect width="220" height="220" fill="white" transform="translate(0.5)"/>
</clipPath>
</defs>
</svg>
