<svg width="221" height="220" viewBox="0 0 221 220" fill="none" xmlns="http://www.w3.org/2000/svg">
<g clip-path="url(#clip0_2_20365)">
<path d="M110.5 220C171.251 220 220.5 170.751 220.5 110C220.5 49.2487 171.251 0 110.5 0C49.7487 0 0.5 49.2487 0.5 110C0.5 170.751 49.7487 220 110.5 220Z" fill="#B2A3F6"/>
<path d="M92.9413 84.4736C87.7163 84.4736 83.4882 80.3417 83.4882 75.2474C83.4882 70.153 87.7163 66.0142 92.9413 66.0142C98.1594 66.0142 102.394 70.1461 102.394 75.2474C102.394 80.3486 98.1594 84.4736 92.9413 84.4736ZM119.939 73.9274C114.721 73.9274 110.486 69.7955 110.486 64.7011C110.486 59.5999 114.721 55.468 119.939 55.468C125.164 55.468 129.393 59.5999 129.393 64.7011C129.393 69.7955 125.164 73.9274 119.939 73.9274ZM130.754 137.212C125.529 137.212 121.301 133.087 121.301 127.985C121.301 122.884 125.529 118.752 130.754 118.752C135.972 118.752 140.207 122.884 140.207 127.985C140.207 133.087 135.972 137.212 130.754 137.212ZM40.2788 124.025C39.5776 124.035 38.8815 123.905 38.2303 123.645C37.5791 123.385 36.9856 122.999 36.4837 122.509C35.9818 122.019 35.5814 121.436 35.3054 120.791C35.0293 120.146 34.8831 119.454 34.875 118.752C34.875 115.844 37.295 113.479 40.2719 113.479C43.2488 113.479 45.6757 115.844 45.6757 118.752C45.6676 119.454 45.5214 120.146 45.2453 120.791C44.9693 121.436 44.5689 122.019 44.067 122.509C43.5651 122.999 42.9716 123.385 42.3204 123.645C41.6692 123.905 40.9731 124.035 40.2719 124.025H40.2788ZM55.1288 158.318C54.6024 158.324 54.08 158.227 53.5912 158.031C53.1025 157.836 52.6571 157.546 52.2804 157.178C51.9038 156.81 51.6032 156.372 51.396 155.888C51.1887 155.404 51.0788 154.884 51.0725 154.358C51.0725 152.172 52.8875 150.405 55.1288 150.405C57.37 150.405 59.185 152.172 59.185 154.358C59.1788 154.884 59.0689 155.404 58.8616 155.888C58.6543 156.372 58.3538 156.81 57.9771 157.178C57.6005 157.546 57.1551 157.836 56.6663 158.031C56.1776 158.227 55.6552 158.324 55.1288 158.318ZM98.3382 184.684C96.0969 184.684 94.2819 182.91 94.2819 180.724C94.2819 178.537 96.0969 176.77 98.3382 176.77C100.579 176.77 102.394 178.537 102.394 180.724C102.394 182.91 100.579 184.684 98.3382 184.684ZM168.566 160.951C166.325 160.951 164.51 159.177 164.51 156.991C164.51 154.805 166.325 153.031 168.566 153.031C170.801 153.031 172.623 154.805 172.623 156.991C172.623 159.177 170.801 160.951 168.566 160.951ZM125.35 153.045C124.824 153.051 124.301 152.954 123.812 152.758C123.324 152.563 122.878 152.273 122.502 151.905C122.125 151.537 121.824 151.099 121.617 150.615C121.41 150.131 121.3 149.611 121.294 149.085C121.294 146.899 123.116 145.132 125.35 145.132C127.584 145.132 129.406 146.899 129.406 149.085C129.4 149.611 129.29 150.131 129.083 150.615C128.876 151.099 128.575 151.537 128.198 151.905C127.822 152.273 127.376 152.563 126.888 152.758C126.399 152.954 125.876 153.051 125.35 153.045ZM149.66 134.585C147.419 134.585 145.604 132.812 145.604 130.625C145.604 128.439 147.419 126.672 149.66 126.672C151.894 126.672 153.716 128.439 153.716 130.625C153.716 132.812 151.894 134.585 149.66 134.585ZM121.301 184.684C118.317 184.684 115.897 182.319 115.897 179.41C115.897 176.502 118.317 174.137 121.301 174.137C124.278 174.137 126.698 176.495 126.698 179.41C126.698 182.325 124.278 184.684 121.301 184.684ZM145.604 118.752C144.903 118.761 144.208 118.631 143.557 118.37C142.907 118.109 142.314 117.723 141.813 117.234C141.312 116.744 140.912 116.16 140.637 115.516C140.361 114.872 140.215 114.18 140.207 113.479C140.207 110.571 142.62 108.206 145.604 108.206C148.588 108.206 151.001 110.571 151.001 113.479C150.993 114.18 150.847 114.872 150.571 115.516C150.295 116.16 149.896 116.744 149.394 117.234C148.893 117.723 148.301 118.109 147.65 118.37C147 118.631 146.304 118.761 145.604 118.752ZM153.716 171.497C153.015 171.506 152.319 171.377 151.668 171.117C151.017 170.857 150.423 170.471 149.921 169.981C149.419 169.491 149.019 168.907 148.743 168.263C148.467 167.618 148.321 166.925 148.313 166.224C148.313 163.309 150.733 160.951 153.709 160.951C156.693 160.951 159.113 163.309 159.113 166.224C159.105 166.925 158.959 167.618 158.683 168.263C158.407 168.907 158.006 169.491 157.505 169.981C157.003 170.471 156.409 170.857 155.758 171.117C155.107 171.377 154.411 171.506 153.709 171.497H153.716ZM47.0094 145.132C43.2832 145.132 40.2582 142.175 40.2582 138.539C40.2582 134.902 43.2832 131.952 47.0094 131.952C50.7357 131.952 53.7607 134.909 53.7607 138.539C53.7607 142.169 50.7357 145.132 47.0094 145.132ZM111.841 171.497C106.616 171.497 102.388 167.365 102.388 162.264C102.388 157.163 106.616 153.031 111.841 153.031C117.059 153.031 121.294 157.17 121.294 162.264C121.294 167.359 117.059 171.497 111.841 171.497ZM60.5188 126.672C55.2938 126.672 51.0657 122.534 51.0657 117.439C51.0657 112.345 55.2938 108.206 60.5188 108.206C65.7438 108.206 69.9719 112.338 69.9719 117.439C69.9719 122.54 65.7369 126.672 60.5188 126.672ZM111.841 147.758C108.108 147.758 105.083 144.809 105.083 141.172C105.083 137.535 108.108 134.585 111.841 134.585C115.567 134.585 118.592 137.535 118.592 141.172C118.592 144.809 115.567 147.758 111.841 147.758ZM79.425 89.7605C77.1838 89.7605 75.3688 87.9867 75.3688 85.8005C75.3688 83.6142 77.1838 81.8405 79.425 81.8405C81.6663 81.8405 83.4813 83.6142 83.4813 85.8005C83.4813 87.9867 81.6663 89.7605 79.425 89.7605ZM105.083 105.573C100.614 105.573 96.9838 102.032 96.9838 97.6667C96.9838 93.2942 100.614 89.7467 105.083 89.7467C109.551 89.7467 113.181 93.2942 113.181 97.6599C113.181 102.032 109.558 105.58 105.083 105.58V105.573ZM123.989 113.479C123.288 113.487 122.593 113.357 121.942 113.097C121.292 112.836 120.699 112.45 120.198 111.961C119.697 111.471 119.297 110.887 119.022 110.243C118.746 109.599 118.6 108.907 118.592 108.206C118.592 105.298 121.005 102.933 123.989 102.933C126.973 102.933 129.386 105.298 129.386 108.206C129.378 108.907 129.232 109.599 128.956 110.243C128.68 110.887 128.281 111.471 127.779 111.961C127.278 112.45 126.686 112.836 126.035 113.097C125.385 113.357 124.689 113.487 123.989 113.479ZM133.442 47.5617C131.201 47.5617 129.386 45.7949 129.386 43.6086C129.386 41.4224 131.201 39.6486 133.442 39.6486C135.683 39.6486 137.498 41.4224 137.498 43.6086C137.498 45.7949 135.683 47.5617 133.442 47.5617ZM114.536 47.5549C113.659 47.5658 112.789 47.4038 111.976 47.0783C111.162 46.7527 110.42 46.27 109.793 45.6577C109.166 45.0454 108.666 44.3154 108.322 43.5097C107.977 42.7039 107.794 41.8381 107.784 40.9617C107.795 40.086 107.978 39.2209 108.323 38.4159C108.669 37.6109 109.169 36.8818 109.796 36.2702C110.423 35.6586 111.164 35.1765 111.977 34.8514C112.791 34.5263 113.66 34.3646 114.536 34.3755C115.412 34.3637 116.282 34.5247 117.096 34.8494C117.91 35.1741 118.652 35.6561 119.28 36.2678C119.908 36.8795 120.409 37.6089 120.754 38.4143C121.1 39.2197 121.283 40.0854 121.294 40.9617C121.284 41.8387 121.101 42.7051 120.756 43.5113C120.411 44.3175 119.91 45.0477 119.282 45.6601C118.655 46.2726 117.912 46.7551 117.098 47.0803C116.283 47.4054 115.413 47.5667 114.536 47.5549ZM118.592 89.7467C115.608 89.7467 113.195 87.3886 113.195 84.4736C113.195 81.5586 115.608 79.2005 118.592 79.2005C121.576 79.2005 123.989 81.5655 123.989 84.4736C123.989 87.3817 121.576 89.7467 118.592 89.7467ZM67.27 147.772C62.8013 147.772 59.1713 144.231 59.1713 139.859C59.1713 135.486 62.8013 131.945 67.27 131.945C71.7388 131.945 75.3688 135.486 75.3688 139.852C75.3688 144.231 71.7457 147.772 67.27 147.772ZM145.597 155.678C141.128 155.678 137.498 152.13 137.498 147.758C137.498 143.392 141.121 139.852 145.597 139.852C150.073 139.852 153.696 143.392 153.696 147.758C153.696 152.13 150.066 155.678 145.597 155.678ZM134.803 174.137C130.328 174.137 126.698 170.59 126.698 166.224C126.698 161.852 130.328 158.304 134.796 158.304C139.265 158.304 142.895 161.852 142.895 166.224C142.895 170.59 139.272 174.13 134.796 174.13L134.803 174.137ZM71.3263 174.137C66.1013 174.137 61.8732 170.005 61.8732 164.904C61.8732 159.803 66.1082 155.678 71.3263 155.678C76.5444 155.678 80.7794 159.803 80.7794 164.904C80.7794 170.005 76.5444 174.137 71.3263 174.137ZM42.9669 105.58C38.4982 105.58 34.8682 102.032 34.8682 97.6599C34.8682 93.2942 38.4913 89.7536 42.9669 89.7536C47.4425 89.7536 51.0657 93.2942 51.0657 97.6599C51.0657 102.032 47.4357 105.58 42.9669 105.58Z" fill="white"/>
<path opacity="0.5" d="M83.4814 118.751C77.5139 118.751 72.6739 114.035 72.6739 108.205C72.6739 102.382 77.5139 97.6589 83.4883 97.6589C89.4627 97.6589 94.2958 102.382 94.2958 108.205C94.2958 114.035 89.4558 118.751 83.4883 118.751H83.4814ZM140.2 102.939C134.233 102.939 129.393 98.2158 129.393 92.3858C129.393 86.5627 134.233 81.8396 140.207 81.8396C146.175 81.8396 151.015 86.5627 151.015 92.3858C151.015 98.2158 146.175 102.932 140.207 102.932L140.2 102.939ZM169.907 147.771C165.438 147.771 161.808 144.23 161.808 139.858C161.808 135.485 165.438 131.945 169.907 131.945C174.376 131.945 178.006 135.485 178.006 139.851C178.006 144.23 174.383 147.771 169.907 147.771ZM178.02 116.125C176.968 116.137 175.924 115.941 174.948 115.55C173.971 115.158 173.082 114.578 172.33 113.843C171.578 113.107 170.978 112.231 170.565 111.264C170.151 110.296 169.932 109.257 169.921 108.205C169.921 103.84 173.544 100.299 178.02 100.299C182.488 100.299 186.111 103.84 186.111 108.205C186.111 112.578 182.488 116.125 178.02 116.125ZM146.958 79.2064C146.081 79.2173 145.211 79.0551 144.397 78.7292C143.583 78.4032 142.841 77.9199 142.214 77.3068C141.587 76.6938 141.087 75.963 140.742 75.1565C140.398 74.3499 140.216 73.4834 140.207 72.6064C140.218 71.7307 140.401 70.8656 140.746 70.0606C141.091 69.2556 141.592 68.5265 142.218 67.9149C142.845 67.3033 143.587 66.8212 144.4 66.4961C145.213 66.171 146.083 66.0093 146.958 66.0202C147.835 66.0093 148.705 66.1712 149.518 66.4968C150.332 66.8223 151.074 67.305 151.701 67.9174C152.328 68.5297 152.828 69.2596 153.172 70.0654C153.517 70.8711 153.7 71.7369 153.71 72.6133C153.699 73.4891 153.516 74.3541 153.17 75.1591C152.825 75.9641 152.325 76.6932 151.698 77.3048C151.071 77.9164 150.33 78.3985 149.517 78.7236C148.703 79.0487 147.834 79.2105 146.958 79.1996V79.2064ZM148.299 58.107C145.322 58.107 142.902 55.7489 142.902 52.8339C142.902 49.9189 145.322 47.5608 148.299 47.5608C151.283 47.5608 153.703 49.9258 153.703 52.8339C153.703 55.742 151.283 58.107 148.299 58.107ZM160.454 63.3802C158.213 63.3802 156.398 61.6064 156.398 59.427C156.398 57.2477 158.213 55.467 160.454 55.467C162.695 55.467 164.51 57.2408 164.51 59.427C164.51 61.6133 162.695 63.3802 160.454 63.3802ZM182.069 95.0327C179.835 95.0327 178.013 93.2589 178.013 91.0727C178.013 88.8864 179.835 87.1127 182.069 87.1127C184.303 87.1127 186.125 88.8864 186.125 91.0727C186.125 93.2589 184.31 95.0327 182.069 95.0327ZM65.9227 60.7471C63.6814 60.7471 61.8664 58.9802 61.8664 56.7939C61.8664 54.6077 63.6814 52.8339 65.9227 52.8339C68.1639 52.8339 69.9789 54.6077 69.9789 56.7939C69.9789 58.9802 68.1639 60.7471 65.9227 60.7471ZM60.5258 95.0327C58.2845 95.0327 56.4695 93.2589 56.4695 91.0727C56.4695 88.8864 58.2845 87.1127 60.5258 87.1127C62.767 87.1127 64.582 88.8864 64.582 91.0727C64.582 93.2589 62.767 95.0327 60.5258 95.0327ZM71.3333 100.306C69.092 100.306 67.277 98.532 67.277 96.3458C67.277 94.1595 69.092 92.3858 71.3333 92.3858C73.5745 92.3858 75.3895 94.1595 75.3895 96.3458C75.3895 98.532 73.5745 100.306 71.3333 100.306ZM84.8289 50.1871C82.5877 50.1871 80.7727 48.4133 80.7727 46.227C80.7727 44.0408 82.5877 42.2739 84.8289 42.2739C87.0702 42.2739 88.8852 44.0408 88.8852 46.227C88.8852 48.4133 87.0702 50.1871 84.8289 50.1871ZM182.069 129.311C179.835 129.311 178.013 127.538 178.013 125.351C178.013 123.165 179.835 121.398 182.069 121.398C184.303 121.398 186.125 123.165 186.125 125.351C186.125 127.538 184.31 129.311 182.069 129.311ZM168.566 87.1127C163.341 87.1127 159.113 82.9877 159.113 77.8864C159.113 72.7852 163.341 68.6533 168.566 68.6533C173.785 68.6533 178.02 72.7852 178.02 77.8864C178.02 82.9808 173.785 87.1127 168.566 87.1127ZM160.454 108.205C159.578 108.216 158.709 108.054 157.896 107.729C157.082 107.404 156.341 106.922 155.714 106.31C155.087 105.699 154.587 104.97 154.242 104.165C153.897 103.36 153.713 102.495 153.703 101.619C153.703 97.9752 156.728 95.0327 160.454 95.0327C161.33 95.0218 162.199 95.1835 163.012 95.5086C163.826 95.8337 164.567 96.3158 165.194 96.9274C165.821 97.539 166.321 98.2681 166.666 99.0731C167.011 99.8781 167.194 100.743 167.205 101.619C167.194 102.495 167.011 103.36 166.666 104.165C166.321 104.97 165.821 105.699 165.194 106.31C164.567 106.922 163.826 107.404 163.012 107.729C162.199 108.054 161.33 108.216 160.454 108.205ZM68.6314 79.1996C67.7556 79.2105 66.8863 79.0487 66.073 78.7236C65.2598 78.3985 64.5185 77.9164 63.8916 77.3048C63.2647 76.6932 62.7643 75.9641 62.4192 75.1591C62.0741 74.3541 61.8909 73.4891 61.8802 72.6133C61.8802 68.9696 64.9052 66.0202 68.6314 66.0202C72.3577 66.0202 75.3895 68.9764 75.3895 72.6133C75.3788 73.4897 75.1954 74.3553 74.8498 75.1607C74.5043 75.9662 74.0033 76.6956 73.3757 77.3073C72.748 77.919 72.006 78.4009 71.1919 78.7256C70.3778 79.0503 69.5078 79.2114 68.6314 79.1996ZM98.3314 60.7402C97.4556 60.7511 96.5863 60.5894 95.773 60.2643C94.9598 59.9392 94.2185 59.457 93.5916 58.8454C92.9647 58.2338 92.4643 57.5047 92.1192 56.6997C91.7741 55.8948 91.5909 55.0297 91.5802 54.1539C91.5802 50.5102 94.6052 47.5608 98.3383 47.5608C102.071 47.5608 105.09 50.517 105.09 54.1539C105.079 55.0297 104.896 55.8948 104.55 56.6997C104.205 57.5047 103.705 58.2338 103.078 58.8454C102.451 59.457 101.71 59.9392 100.897 60.2643C100.083 60.5894 99.2141 60.7511 98.3383 60.7402H98.3314ZM80.7864 63.3802C77.8027 63.3802 75.3895 61.022 75.3895 58.107C75.3895 55.192 77.8027 52.8339 80.7864 52.8339C83.7702 52.8339 86.1833 55.1989 86.1833 58.107C86.1833 61.0152 83.7702 63.3802 80.7864 63.3802ZM51.0727 84.4727C50.372 84.4808 49.6767 84.3509 49.0263 84.0904C48.3759 83.8298 47.7832 83.4436 47.282 82.9539C46.7809 82.4643 46.3811 81.8807 46.1055 81.2365C45.8299 80.5923 45.6839 79.9002 45.6758 79.1996C45.6758 76.2914 48.0889 73.9264 51.0727 73.9264C54.0564 73.9264 56.4695 76.2914 56.4695 79.1996C56.4615 79.9002 56.3154 80.5923 56.0398 81.2365C55.7642 81.8807 55.3645 82.4643 54.8633 82.9539C54.3621 83.4436 53.7694 83.8298 53.119 84.0904C52.4686 84.3509 51.7733 84.4808 51.0727 84.4727ZM164.51 126.671C163.81 126.68 163.114 126.55 162.464 126.289C161.813 126.029 161.221 125.642 160.72 125.153C160.218 124.663 159.819 124.079 159.543 123.435C159.267 122.791 159.121 122.099 159.113 121.398C159.113 118.483 161.526 116.125 164.51 116.125C167.494 116.125 169.907 118.483 169.907 121.398C169.899 122.099 169.753 122.791 169.477 123.435C169.202 124.079 168.802 124.663 168.301 125.153C167.8 125.642 167.207 126.029 166.557 126.289C165.906 126.55 165.211 126.68 164.51 126.671ZM106.444 129.311C101.219 129.311 96.9908 125.18 96.9908 120.078C96.9908 114.977 101.226 110.852 106.444 110.852C111.669 110.852 115.897 114.977 115.897 120.078C115.897 125.18 111.669 129.311 106.444 129.311ZM88.8852 134.585C88.1845 134.593 87.4892 134.463 86.8388 134.202C86.1884 133.942 85.5957 133.555 85.0945 133.066C84.5934 132.576 84.1936 131.993 83.918 131.348C83.6424 130.704 83.4964 130.012 83.4883 129.311C83.4883 126.396 85.9014 124.038 88.8852 124.038C91.8689 124.038 94.282 126.396 94.282 129.311C94.274 130.012 94.1279 130.704 93.8523 131.348C93.5767 131.993 93.177 132.576 92.6758 133.066C92.1746 133.555 91.5819 133.942 90.9315 134.202C90.2811 134.463 89.5858 134.593 88.8852 134.585ZM91.5802 155.677C87.1114 155.677 83.4883 152.13 83.4883 147.757C83.4883 143.391 87.1114 139.851 91.5802 139.851C96.0489 139.851 99.6789 143.391 99.6789 147.757C99.6789 152.13 96.0558 155.677 91.5802 155.677ZM91.5802 171.49C90.1664 171.506 88.8039 170.961 87.7919 169.973C86.78 168.986 86.2014 167.637 86.1833 166.223C86.1833 163.308 88.6033 160.95 91.5802 160.95C94.557 160.95 96.9839 163.308 96.9839 166.223C96.9758 166.924 96.8296 167.617 96.5536 168.262C96.2775 168.907 95.8771 169.49 95.3752 169.98C94.8734 170.47 94.2798 170.856 93.6286 171.116C92.9774 171.376 92.2813 171.506 91.5802 171.496V171.49Z" fill="white"/>
</g>
<defs>
<clipPath id="clip0_2_20365">
<rect width="220" height="220" fill="white" transform="translate(0.5)"/>
</clipPath>
</defs>
</svg>
