<svg width="221" height="220" viewBox="0 0 221 220" fill="none" xmlns="http://www.w3.org/2000/svg">
<g clip-path="url(#clip0_2_20361)">
<path d="M110.5 220C171.251 220 220.5 170.751 220.5 110C220.5 49.2487 171.251 0 110.5 0C49.7487 0 0.5 49.2487 0.5 110C0.5 170.751 49.7487 220 110.5 220Z" fill="#57BEEA"/>
<path d="M48.8038 130.687C46.1872 130.992 43.5357 130.739 41.024 129.945C38.5122 129.151 36.1973 127.833 34.2317 126.079C32.2661 124.326 30.6945 122.175 29.6203 119.77C28.5462 117.364 27.994 114.759 28 112.124C27.9889 107.208 29.9201 102.486 33.3734 98.9862C36.8267 95.4865 41.5225 93.4925 46.4388 93.4381C53.0388 63.1194 79.9201 40.425 112.068 40.425C118.069 40.425 123.893 41.2156 129.427 42.6938C131.119 40.136 133.419 38.0375 136.121 36.5858C138.823 35.1342 141.842 34.3746 144.909 34.375C149.853 34.3877 154.59 36.3634 158.077 39.8676C161.564 43.3717 163.517 48.1175 163.506 53.0612C163.506 56.2856 162.695 59.3175 161.265 61.9575C172.854 74.4562 179.279 90.8794 179.25 107.924C179.266 116.851 177.509 125.693 174.082 133.936C170.655 142.18 165.625 149.661 159.285 155.946C161.526 159.026 162.846 162.827 162.846 166.939C162.852 169.387 162.375 171.813 161.443 174.077C160.511 176.341 159.142 178.4 157.414 180.135C155.687 181.87 153.635 183.248 151.375 184.19C149.115 185.132 146.691 185.62 144.243 185.625C140.499 185.621 136.843 184.487 133.754 182.373C130.664 180.258 128.284 177.261 126.924 173.772C122.051 174.874 117.07 175.427 112.074 175.423C82.9176 175.423 58.0988 156.764 48.8038 130.687ZM52.1725 129.965C61.11 154.495 84.5538 172.006 112.068 172.006C116.846 172.006 121.5 171.476 125.976 170.479C125.447 167.781 125.523 164.999 126.196 162.333C126.869 159.667 128.123 157.183 129.869 155.059C131.615 152.935 133.809 151.223 136.294 150.046C138.779 148.87 141.493 148.257 144.243 148.252C149.193 148.252 153.703 150.198 157.03 153.368C163.007 147.407 167.746 140.323 170.976 132.524C174.205 124.725 175.861 116.365 175.847 107.924C175.847 91.355 169.591 76.2575 159.313 64.8862C155.903 69.08 150.719 71.7544 144.909 71.7544C142.46 71.749 140.036 71.2611 137.776 70.3187C135.515 69.3762 133.463 67.9977 131.735 66.2618C130.007 64.5259 128.639 62.4666 127.707 60.2016C126.776 57.9367 126.299 55.5103 126.306 53.0612C126.306 50.49 126.828 48.0356 127.763 45.8013C122.633 44.5 117.36 43.8441 112.068 43.8487C81.7076 43.8487 56.2976 65.1681 49.8694 93.7269C54.1766 94.5089 58.0719 96.7799 60.8744 100.143C63.6769 103.506 65.2082 107.747 65.2007 112.124C65.2069 116.098 63.9465 119.969 61.6025 123.178C59.2585 126.386 55.9529 128.763 52.1657 129.965H52.1725ZM112.068 126.637C109.616 126.631 107.19 126.142 104.928 125.198C102.666 124.254 100.612 122.874 98.883 121.136C97.1542 119.399 95.7846 117.337 94.8525 115.07C93.9203 112.803 93.4437 110.375 93.4501 107.924C93.4501 97.5906 101.783 89.2169 112.068 89.2169C122.353 89.2169 130.692 97.5906 130.692 107.924C130.698 110.376 130.221 112.805 129.289 115.072C128.356 117.34 126.986 119.401 125.257 121.139C123.527 122.877 121.472 124.257 119.209 125.2C116.946 126.144 114.519 126.632 112.068 126.637Z" fill="white"/>
</g>
<defs>
<clipPath id="clip0_2_20361">
<rect width="220" height="220" fill="white" transform="translate(0.5)"/>
</clipPath>
</defs>
</svg>
