<svg width="221" height="220" viewBox="0 0 221 220" fill="none" xmlns="http://www.w3.org/2000/svg">
<g clip-path="url(#clip0_2_20354)">
<path d="M110.5 220C171.251 220 220.5 170.751 220.5 110C220.5 49.2487 171.251 0 110.5 0C49.7487 0 0.5 49.2487 0.5 110C0.5 170.751 49.7487 220 110.5 220Z" fill="#0CAFA5"/>
<path d="M58.3393 81.9419C58.1124 81.8044 57.9268 81.9144 57.9268 82.1826V98.0088C57.9341 98.153 57.9753 98.2935 58.0469 98.4189C58.1186 98.5443 58.2187 98.6511 58.3393 98.7307L78.3455 110.294C78.466 110.374 78.5662 110.481 78.6378 110.606C78.7095 110.732 78.7507 110.872 78.758 111.016V168.285C78.7674 168.43 78.8109 168.571 78.885 168.697C78.959 168.822 79.0616 168.929 79.1843 169.007L92.8861 176.913C93.113 177.051 93.2986 176.941 93.2986 176.673V102.629C93.2923 102.483 93.2517 102.342 93.18 102.215C93.1083 102.088 93.0076 101.98 92.8861 101.9L58.3393 81.9419ZM162.66 81.9419C162.887 81.8044 163.073 81.9144 163.073 82.1826V98.0088C163.066 98.153 163.024 98.2935 162.953 98.4189C162.881 98.5443 162.781 98.6511 162.66 98.7307L142.654 110.281C142.533 110.361 142.432 110.469 142.36 110.595C142.289 110.722 142.248 110.864 142.242 111.009V168.278C142.234 168.424 142.192 168.566 142.119 168.693C142.046 168.819 141.945 168.927 141.822 169.007L128.121 176.913C127.887 177.051 127.701 176.941 127.701 176.673V102.629C127.708 102.484 127.749 102.342 127.821 102.215C127.892 102.089 127.993 101.981 128.114 101.9L162.66 81.9419Z" fill="white"/>
<path d="M165.363 51.5827C165.363 51.3214 165.177 51.2114 164.95 51.3421L110.913 82.5958C110.785 82.6599 110.643 82.6933 110.5 82.6933C110.357 82.6933 110.216 82.6599 110.088 82.5958L56.0502 51.3421C55.8165 51.2046 55.6309 51.3214 55.6309 51.5827V67.4089C55.6382 67.5532 55.6794 67.6937 55.751 67.8191C55.8227 67.9445 55.9228 68.0512 56.0434 68.1308L102.821 95.1771C102.941 95.257 103.041 95.3639 103.112 95.4892C103.184 95.6145 103.225 95.7548 103.233 95.8989V194.108C103.24 194.254 103.282 194.397 103.355 194.523C103.428 194.65 103.53 194.758 103.653 194.837L110.081 198.55C110.211 198.614 110.355 198.647 110.5 198.647C110.646 198.647 110.789 198.614 110.92 198.55L117.348 194.837C117.469 194.757 117.57 194.649 117.642 194.522C117.713 194.396 117.754 194.254 117.76 194.108V95.9058C117.769 95.7611 117.811 95.6204 117.884 95.4951C117.957 95.3697 118.058 95.2632 118.18 95.1839L164.95 68.1308C165.072 68.0506 165.172 67.9427 165.244 67.816C165.316 67.6893 165.356 67.5475 165.363 67.4021V51.5896V51.5827ZM110.748 91.5677C110.693 91.5677 110.672 91.5264 110.7 91.4783C110.727 91.4302 110.768 91.4302 110.796 91.4783C110.823 91.5264 110.796 91.5677 110.748 91.5677Z" fill="white"/>
<path d="M103.708 49.5139C103.575 49.5431 103.457 49.6159 103.371 49.7206C103.285 49.8254 103.236 49.9559 103.233 50.0914V69.8433C103.242 69.988 103.285 70.1287 103.357 70.254C103.43 70.3794 103.531 70.4859 103.653 70.5651L110.081 74.2776C110.342 74.4151 110.652 74.4151 110.92 74.2776L117.348 70.5651C117.468 70.4852 117.568 70.3783 117.639 70.253C117.711 70.1277 117.752 69.9874 117.76 69.8433V50.0845C117.759 49.9496 117.712 49.8192 117.627 49.7144C117.542 49.6095 117.424 49.5365 117.293 49.507L110.968 48.3451C110.656 48.2977 110.338 48.2977 110.026 48.3451L103.708 49.5139Z" fill="white"/>
</g>
<defs>
<clipPath id="clip0_2_20354">
<rect width="220" height="220" fill="white" transform="translate(0.5)"/>
</clipPath>
</defs>
</svg>
