<svg width="221" height="220" viewBox="0 0 221 220" fill="none" xmlns="http://www.w3.org/2000/svg">
<g clip-path="url(#clip0_2_20350)">
<path d="M110.5 220C171.251 220 220.5 170.751 220.5 110C220.5 49.2487 171.251 0 110.5 0C49.7487 0 0.5 49.2487 0.5 110C0.5 170.751 49.7487 220 110.5 220Z" fill="#1C1C1C"/>
<path d="M168.938 75.625V144.375L110.5 178.75L52.0625 144.375V75.625L110.5 41.25L168.938 75.625ZM108.658 112.798L103.226 116.009L113.374 121.935L118.771 118.752L133.201 127.242L111.676 139.892L67.0225 113.864L66.8369 126.534L111.703 152.591L154.809 127.242L129.551 112.379L134.638 109.374L124.491 103.448L119.437 106.432L112.356 102.266L118.551 98.6012L108.403 92.6681L102.236 96.3119L90.1775 89.2169L111.696 76.56L141.451 93.9469L152.355 87.4981L111.676 63.8619L68.5694 89.2169L91.4562 102.685L87.1388 105.229L97.2863 111.162L101.569 108.632L108.658 112.798Z" fill="white"/>
</g>
<defs>
<clipPath id="clip0_2_20350">
<rect width="220" height="220" fill="white" transform="translate(0.5)"/>
</clipPath>
</defs>
</svg>
