<svg width="221" height="220" viewBox="0 0 221 220" fill="none" xmlns="http://www.w3.org/2000/svg">
<g clip-path="url(#clip0_2_20323)">
<path d="M110.5 220C171.251 220 220.5 170.751 220.5 110C220.5 49.2487 171.251 0 110.5 0C49.7487 0 0.5 49.2487 0.5 110C0.5 170.751 49.7487 220 110.5 220Z" fill="#00D4D5"/>
<path d="M114.068 34.375V71.8919L146.642 53.1575L114.068 34.375Z" fill="white"/>
<path opacity="0.9" d="M146.642 53.1571V90.674L179.208 71.8915L146.642 53.1571Z" fill="white"/>
<path opacity="0.8" d="M114.068 71.8921V109.409L146.642 90.6746L114.068 71.8921ZM146.642 90.6815V128.191L179.209 109.409L146.642 90.6815Z" fill="white"/>
<path opacity="0.8" d="M114.068 109.409V146.926L146.642 128.192L114.068 109.409Z" fill="white"/>
<path d="M146.642 128.191V165.708L179.208 146.926L146.642 128.191Z" fill="white"/>
<path opacity="0.4" d="M29.877 70.6265V108.143L62.4507 89.3608L29.877 70.6265Z" fill="white"/>
<path opacity="0.2" d="M70.9688 84.5748V122.092L103.487 103.357L70.9688 84.5748Z" fill="white"/>
<path opacity="0.3" d="M46.8242 108.302V145.818L79.3911 127.036L46.8242 108.302Z" fill="white"/>
<path opacity="0.9" d="M68.2871 136.614V174.131L100.806 155.348L68.2871 136.614Z" fill="white"/>
<path opacity="0.7" d="M113.8 152.764V190.288L146.319 171.498L113.8 152.764Z" fill="white"/>
<path opacity="0.9" d="M76.3926 66.0477V103.571L108.911 84.8371L76.3926 66.0477Z" fill="white"/>
<path opacity="0.8" d="M114.068 34.375V71.8919L81.4941 53.1575L114.068 34.375Z" fill="white"/>
<path opacity="0.6" d="M76.3931 50.324V87.834L43.8125 69.0515L76.3931 50.324Z" fill="white"/>
<path opacity="0.6" d="M108.966 68.8876V106.411L76.3926 87.6219L108.966 68.8876Z" fill="white"/>
<path opacity="0.95" d="M70.8179 84.5747V122.092L38.2441 103.357L70.8179 84.5747Z" fill="white"/>
<path opacity="0.6" d="M114.068 109.409V146.926L81.5488 128.192L114.068 109.409Z" fill="white"/>
<path opacity="0.55" d="M46.8237 118.147V155.664L14.25 136.875L46.8237 118.147Z" fill="white"/>
<path d="M179.208 71.8921V109.409L146.642 90.6746L179.208 71.8921Z" fill="white"/>
<path opacity="0.95" d="M146.642 90.6809V128.191L114.068 109.408L146.642 90.6809Z" fill="white"/>
<path opacity="0.9" d="M179.208 109.409V146.926L146.642 128.192L179.208 109.409Z" fill="white"/>
<path opacity="0.7" d="M146.642 128.191V165.708L114.068 146.926L146.642 128.191Z" fill="white"/>
<path opacity="0.4" d="M106.857 143.824V181.341L74.29 162.607L106.857 143.824Z" fill="white"/>
<path d="M146.642 53.1571V90.674L114.068 71.8915L146.642 53.1571Z" fill="white"/>
</g>
<defs>
<clipPath id="clip0_2_20323">
<rect width="220" height="220" fill="white" transform="translate(0.5)"/>
</clipPath>
</defs>
</svg>
