<svg width="221" height="220" viewBox="0 0 221 220" fill="none" xmlns="http://www.w3.org/2000/svg">
<g clip-path="url(#clip0_2_20319)">
<path d="M110.5 220C171.251 220 220.5 170.751 220.5 110C220.5 49.2487 171.251 0 110.5 0C49.7487 0 0.5 49.2487 0.5 110C0.5 170.751 49.7487 220 110.5 220Z" fill="#55DDFF"/>
<path d="M81.8318 69.575C81.8762 56.5396 86.7787 43.989 95.5818 34.375C97.9881 31.9688 98.2631 31.4875 98.2631 29.5625C98.2631 27.6375 98.2631 27.5 96.8193 27.5C95.0346 27.6976 93.2657 28.0193 91.5256 28.4625C71.0057 33.3099 53.0921 45.7683 41.4068 63.3187C35.7651 71.6411 31.7956 80.9811 29.7193 90.8187C27.9979 99.8795 27.5812 109.14 28.4818 118.319C31.0078 138.686 41.2429 157.311 57.0818 170.363C65.5381 177.238 75.0256 182.737 75.0256 180.262C74.4707 179.196 73.725 178.241 72.8256 177.444C68.5714 172.755 65.3897 167.195 63.5019 161.152C61.6141 155.109 61.0656 148.727 61.8943 142.45C62.5058 134.651 64.9394 127.105 68.9993 120.418C73.0592 113.731 78.632 108.09 85.2693 103.95C86.9462 102.755 88.7165 101.698 90.5631 100.787C91.5943 100.787 90.9756 98.725 88.4318 93.9125C84.0796 86.5427 81.7993 78.1339 81.8318 69.575ZM188.463 91.025C186.032 79.1825 181.027 68.0192 173.804 58.3248C166.581 48.6305 157.315 40.6421 146.663 34.925C142.813 32.7937 140.888 32.3125 140.888 33.6187C141.252 34.7181 141.811 35.7429 142.538 36.6437C146.799 42.6975 149.19 49.869 149.413 57.2687C149.846 61.1268 149.457 65.0329 148.272 68.7299C147.088 72.427 145.133 75.8312 142.538 78.7188C141.205 80.1316 139.372 80.966 137.432 81.0431C135.491 81.1202 133.597 80.4339 132.157 79.1313C129.407 77.1375 129.407 75.7625 131.126 73.2187C134.768 67.8624 136.577 61.4705 136.282 55C136.549 52.3986 136.231 49.7704 135.35 47.308C134.47 44.8456 133.05 42.6112 131.194 40.7687C129.506 39.0181 127.369 37.7651 125.017 37.1468C122.665 36.5284 120.188 36.5685 117.857 37.2625C114.523 38.6055 111.574 40.752 109.271 43.5109C106.968 46.2697 105.383 49.5553 104.657 53.075C103.08 58.1625 102.156 63.4296 101.907 68.75C101.958 76.8968 103.962 84.9127 107.751 92.125C110.394 96.2705 113.664 99.9813 117.444 103.125C118.201 103.62 118.867 104.225 119.438 104.912C118.774 105.459 118 105.857 117.169 106.081C111.856 108.596 107.099 112.147 103.179 116.528C99.2594 120.908 96.2555 126.029 94.3443 131.587C91.8279 138.04 90.7033 144.951 91.0443 151.869C90.9053 155.129 91.4445 158.383 92.6279 161.424C93.8113 164.466 95.6131 167.228 97.9193 169.538C100.529 171.797 103.618 173.434 106.952 174.327C110.286 175.221 113.78 175.346 117.169 174.694C126.251 174.014 134.744 169.94 140.957 163.281C143.776 160.256 144.326 159.913 144.876 160.6C145.426 161.288 145.288 161.7 144.257 163.419C137.729 174.569 127.252 182.862 114.901 186.656C112.494 187.275 111.463 187.756 111.463 188.306C111.463 190.094 126.519 187.619 135.663 184.387C147.326 180.126 157.887 173.308 166.571 164.433C175.256 155.559 181.843 144.852 185.851 133.1C188.815 124.915 190.101 116.217 189.632 107.525C189.945 101.998 189.553 96.4529 188.463 91.025Z" fill="white"/>
</g>
<defs>
<clipPath id="clip0_2_20319">
<rect width="220" height="220" fill="white" transform="translate(0.5)"/>
</clipPath>
</defs>
</svg>
