<svg width="221" height="220" viewBox="0 0 221 220" fill="none" xmlns="http://www.w3.org/2000/svg">
<g clip-path="url(#clip0_2_20315)">
<path d="M110.5 220C171.251 220 220.5 170.751 220.5 110C220.5 49.2487 171.251 0 110.5 0C49.7487 0 0.5 49.2487 0.5 110C0.5 170.751 49.7487 220 110.5 220Z" fill="#102044"/>
<path d="M167.205 133.031C170.299 134.221 172.348 137.163 172.375 140.456C172.377 141.836 172.017 143.192 171.332 144.39C170.647 145.587 169.66 146.585 168.47 147.283C167.276 147.985 165.92 148.366 164.535 148.391C163.15 148.415 161.782 148.081 160.564 147.421L119.108 170.039C119.21 171.133 119.086 172.235 118.742 173.278C118.398 174.321 117.842 175.282 117.109 176.1C116.377 176.918 115.483 177.575 114.484 178.031C113.485 178.487 112.403 178.732 111.305 178.75C109.19 178.802 107.142 178.012 105.611 176.553C104.079 175.095 103.189 173.089 103.137 170.974L82.9245 159.404H82.4639V159.163L61.1652 146.988C59.8352 147.905 58.257 148.394 56.6414 148.39C54.7181 148.4 52.8558 147.715 51.3979 146.46C49.94 145.206 48.9845 143.467 48.7077 141.563C48.4419 139.661 48.8752 137.727 49.9271 136.12C50.979 134.513 52.5781 133.342 54.4277 132.825V87.3401C52.8715 86.9034 51.4853 86.003 50.4536 84.7589C49.4219 83.5147 48.7937 81.9858 48.6527 80.3757C48.3777 77.0894 50.172 73.9751 53.1764 72.5519C54.642 71.856 56.2837 71.6195 57.8861 71.8734C59.4885 72.1274 60.9767 72.86 62.1552 73.9751L103.199 50.4625C103.02 49.3222 103.09 48.1566 103.406 47.0462C103.721 45.9359 104.274 44.9072 105.025 44.0312C105.777 43.1553 106.71 42.453 107.76 41.9728C108.809 41.4926 109.951 41.246 111.105 41.25C112.293 41.2481 113.466 41.5115 114.539 42.0211C115.612 42.5306 116.558 43.2734 117.307 44.1952C118.056 45.117 118.59 46.1945 118.869 47.349C119.149 48.5035 119.167 49.7058 118.922 50.8682L158.99 73.8169C160.454 72.4969 162.358 71.7682 164.345 71.775C165.429 71.3702 166.588 71.2074 167.741 71.298C168.894 71.3887 170.014 71.7307 171.021 72.2999C172.028 72.8692 172.898 73.6519 173.57 74.5932C174.242 75.5345 174.701 76.6116 174.912 77.7487C175.124 78.8859 175.085 80.0557 174.796 81.176C174.508 82.2962 173.978 83.3398 173.244 84.2335C172.509 85.1272 171.588 85.8493 170.545 86.3491C169.502 86.849 168.362 87.1144 167.205 87.1269V133.038V133.031ZM138.894 115.122V154.193L157.264 144.176C156.691 143.08 156.381 141.866 156.358 140.63C156.335 139.394 156.6 138.17 157.131 137.054C157.663 135.938 158.446 134.96 159.42 134.199C160.394 133.438 161.532 132.913 162.743 132.667V87.4982C160.937 87.1411 159.311 86.1704 158.139 84.7507C156.967 83.3309 156.323 81.5496 156.315 79.7088C156.315 78.98 156.418 78.2513 156.618 77.5432L139.203 67.5607V103.888H139.176L139.107 106.267L138.124 106.728L131.847 110.481L137.849 114.056L138.805 114.51L138.832 114.936L138.866 115.122H138.894ZM111.119 57.1244C108.836 57.1244 106.664 56.1619 105.145 54.4638L86.9258 64.9069V103.489L94.4058 107.944L103.852 102.389C103.657 101.368 103.691 100.315 103.951 99.308C104.211 98.3008 104.691 97.3636 105.356 96.5637C106.021 95.7639 106.855 95.1212 107.798 94.6818C108.741 94.2425 109.769 94.0173 110.81 94.0225C111.825 94.0202 112.828 94.2373 113.752 94.6588C114.675 95.0803 115.497 95.6963 116.16 96.4647C116.823 97.2331 117.313 98.1358 117.595 99.1109C117.877 100.086 117.945 101.111 117.795 102.114L127.55 107.917L134.783 103.586V65.0238L116.811 54.7319C116.069 55.4888 115.184 56.0897 114.206 56.4994C113.228 56.9091 112.179 57.1192 111.119 57.1175V57.1244ZM115.794 115.026L123.24 110.543L115.76 106.081C114.46 107.344 112.728 108.063 110.916 108.092C109.105 108.122 107.35 107.459 106.011 106.239L98.6545 110.509L105.976 114.874C107.319 113.634 109.088 112.957 110.915 112.985C112.743 113.014 114.49 113.744 115.794 115.026ZM64.0389 143.536L82.4639 154.096V116.339L82.4983 115.122L82.8077 114.813L84.3477 113.898L90.0677 110.543L84.8977 107.491L82.4983 106.267V104.803H82.4708V67.4369L64.4033 77.7907C65.4689 81.9157 63.0283 86.1369 58.9033 87.3125V132.853C61.0827 133.485 62.8908 135.018 63.8739 137.053C64.857 139.095 64.9189 141.453 64.0389 143.536ZM111.119 162.738C113.628 162.738 115.986 163.907 117.485 165.914L134.466 156.633V117.198L127.55 113.073L117.788 118.938C117.856 119.281 117.884 119.625 117.884 119.969C117.884 123.853 114.721 126.995 110.803 126.995C109.773 126.996 108.756 126.771 107.823 126.336C106.89 125.901 106.064 125.268 105.402 124.479C104.74 123.691 104.259 122.767 103.992 121.773C103.726 120.779 103.68 119.738 103.859 118.724L94.282 113.046L86.8983 117.349V156.633L104.258 166.581C105.701 164.189 108.307 162.731 111.119 162.738Z" fill="white"/>
</g>
<defs>
<clipPath id="clip0_2_20315">
<rect width="220" height="220" fill="white" transform="translate(0.5)"/>
</clipPath>
</defs>
</svg>
