<svg width="221" height="220" viewBox="0 0 221 220" fill="none" xmlns="http://www.w3.org/2000/svg">
<g clip-path="url(#clip0_2_20311)">
<path d="M110.5 220C171.251 220 220.5 170.751 220.5 110C220.5 49.2487 171.251 0 110.5 0C49.7487 0 0.5 49.2487 0.5 110C0.5 170.751 49.7487 220 110.5 220Z" fill="#0050DB"/>
<path d="M110.5 178.75C106.04 178.748 101.662 177.549 97.8226 175.278L61.3438 153.828C57.4594 151.518 54.2437 148.235 52.0135 144.304C49.7833 140.373 48.6155 135.928 48.6251 131.409V88.5775C48.626 84.0617 49.7984 79.6234 52.0277 75.6963C54.257 71.7691 57.4669 68.4874 61.3438 66.1719L97.8226 44.7219C101.683 42.4536 106.078 41.2552 110.555 41.25C114.989 41.25 119.355 42.4463 123.178 44.7219L159.656 66.1788C163.539 68.4882 166.753 71.7685 168.983 75.697C171.213 79.6256 172.382 84.067 172.375 88.5844V131.416C172.375 135.933 171.203 140.372 168.974 144.301C166.745 148.229 163.534 151.512 159.656 153.828L123.178 175.278C119.328 177.547 114.955 178.75 110.5 178.75ZM89.5176 134.551L82.7594 141.426C84.5015 143.231 86.5926 144.663 88.9056 145.634C91.2186 146.606 93.7051 147.097 96.2138 147.077C106.733 147.063 115.271 138.387 115.285 127.669V121.811C118.173 123.509 121.452 124.403 124.786 124.396C127.301 124.443 129.798 123.972 132.122 123.012C134.447 122.051 136.548 120.622 138.296 118.814L131.544 111.939C129.757 113.767 127.323 114.799 124.786 114.799C122.245 114.772 119.818 113.738 118.037 111.925C116.256 110.112 115.267 107.667 115.285 105.126V72.8406H105.784V127.731C105.784 133.086 101.521 137.424 96.2619 137.424C95.0027 137.421 93.7571 137.164 92.5987 136.671C91.4402 136.177 90.3926 135.456 89.5176 134.551Z" fill="white"/>
</g>
<defs>
<clipPath id="clip0_2_20311">
<rect width="220" height="220" fill="white" transform="translate(0.5)"/>
</clipPath>
</defs>
</svg>
