<svg width="221" height="220" viewBox="0 0 221 220" fill="none" xmlns="http://www.w3.org/2000/svg">
<g clip-path="url(#clip0_2_20307)">
<path d="M110.5 220C171.251 220 220.5 170.751 220.5 110C220.5 49.2487 171.251 0 110.5 0C49.7487 0 0.5 49.2487 0.5 110C0.5 170.751 49.7487 220 110.5 220Z" fill="#EAC749"/>
<path fill-rule="evenodd" clip-rule="evenodd" d="M121.143 128.638V141.549H155.951V157.279H121.143V175.312H99.8575V157.279H65.0494V141.549H99.8575V128.638H65.0494V112.908H93.725L52.0625 51.5625H77.8575L110.858 103.359L143.864 51.5625H168.938L127.096 112.908H155.951V128.638H121.143Z" fill="white"/>
</g>
<defs>
<clipPath id="clip0_2_20307">
<rect width="220" height="220" fill="white" transform="translate(0.5)"/>
</clipPath>
</defs>
</svg>
