<svg width="221" height="220" viewBox="0 0 221 220" fill="none" xmlns="http://www.w3.org/2000/svg">
<g clip-path="url(#clip0_2_20303)">
<path d="M110.5 220C171.251 220 220.5 170.751 220.5 110C220.5 49.2487 171.251 0 110.5 0C49.7487 0 0.5 49.2487 0.5 110C0.5 170.751 49.7487 220 110.5 220Z" fill="#0093DD"/>
<path fill-rule="evenodd" clip-rule="evenodd" d="M93.5875 110L129.159 146.644L151.606 123.524C152.534 122.555 153.648 121.785 154.881 121.258C156.115 120.732 157.442 120.461 158.783 120.461C160.124 120.461 161.451 120.732 162.685 121.258C163.918 121.785 165.033 122.555 165.961 123.524C167.87 125.513 168.936 128.164 168.936 130.921C168.936 133.678 167.87 136.329 165.961 138.319L136.336 168.844C135.403 169.803 134.288 170.566 133.055 171.087C131.822 171.608 130.497 171.876 129.159 171.876C127.82 171.876 126.496 171.608 125.263 171.087C124.03 170.566 122.914 169.803 121.981 168.844L79.2463 124.802V150.982C79.2463 156.73 74.6675 161.446 69.0919 161.446C63.4819 161.446 58.9375 156.757 58.9375 150.982V69.0255C58.9375 63.2505 63.4819 58.5617 69.0919 58.5617C74.695 58.5617 79.2463 63.2505 79.2463 69.0255V95.2055L121.981 51.1642C122.914 50.2046 124.03 49.4418 125.263 48.9209C126.496 48.4 127.82 48.1316 129.159 48.1316C130.497 48.1316 131.822 48.4 133.055 48.9209C134.288 49.4418 135.403 50.2046 136.336 51.1642L165.968 81.6892C167.877 83.6787 168.943 86.3293 168.943 89.0867C168.943 91.8441 167.877 94.4947 165.968 96.4842C165.039 97.4546 163.924 98.227 162.69 98.7546C161.455 99.2823 160.126 99.5543 158.783 99.5543C157.44 99.5543 156.111 99.2823 154.877 98.7546C153.642 98.227 152.527 97.4546 151.599 96.4842L129.159 73.3567L93.5875 110ZM129.173 99.5299C134.783 99.5299 139.334 104.219 139.334 110C139.334 115.782 134.783 120.471 129.173 120.471C123.562 120.471 119.011 115.782 119.011 110C119.011 104.219 123.562 99.5299 129.173 99.5299Z" fill="white"/>
</g>
<defs>
<clipPath id="clip0_2_20303">
<rect width="220" height="220" fill="white" transform="translate(0.5)"/>
</clipPath>
</defs>
</svg>
