<svg width="221" height="220" viewBox="0 0 221 220" fill="none" xmlns="http://www.w3.org/2000/svg">
<g clip-path="url(#clip0_2_20290)">
<path d="M110.5 220C171.251 220 220.5 170.751 220.5 110C220.5 49.2487 171.251 0 110.5 0C49.7487 0 0.5 49.2487 0.5 110C0.5 170.751 49.7487 220 110.5 220Z" fill="#EC008C"/>
<path d="M110.5 212.3C166.999 212.3 212.8 166.499 212.8 110C212.8 53.5012 166.999 7.69995 110.5 7.69995C54.0015 7.69995 8.2002 53.5012 8.2002 110C8.2002 166.499 54.0015 212.3 110.5 212.3Z" fill="#EC008C"/>
<path d="M129.1 43L82.9004 91.6V132L168.4 43H129.1Z" fill="url(#paint0_linear_2_20290)"/>
<path d="M94.6006 119.8L132.801 177H171.301L116.801 96.7L94.6006 119.8Z" fill="url(#paint1_linear_2_20290)"/>
<path d="M82.9002 43H49.7002V176.9H82.9002V43Z" fill="white"/>
</g>
<defs>
<linearGradient id="paint0_linear_2_20290" x1="107.948" y1="87.5" x2="58.6483" y2="132" gradientUnits="userSpaceOnUse">
<stop stop-color="white"/>
<stop offset="1" stop-color="white" stop-opacity="0"/>
</linearGradient>
<linearGradient id="paint1_linear_2_20290" x1="132.951" y1="151.903" x2="99.7313" y2="96.6999" gradientUnits="userSpaceOnUse">
<stop stop-color="white"/>
<stop offset="1" stop-color="white" stop-opacity="0"/>
</linearGradient>
<clipPath id="clip0_2_20290">
<rect width="220" height="220" fill="white" transform="translate(0.5)"/>
</clipPath>
</defs>
</svg>
