<svg width="221" height="220" viewBox="0 0 221 220" fill="none" xmlns="http://www.w3.org/2000/svg">
<g clip-path="url(#clip0_2_20286)">
<path d="M110.5 220C171.251 220 220.5 170.751 220.5 110C220.5 49.2487 171.251 0 110.5 0C49.7487 0 0.5 49.2487 0.5 110C0.5 170.751 49.7487 220 110.5 220Z" fill="#005FFF"/>
<path fill-rule="evenodd" clip-rule="evenodd" d="M94.6944 123.798V90.6812H102.429C104.099 90.6812 105.454 92.015 105.454 93.6581V96.5181C105.454 99.6256 108.149 102.293 111.291 102.293C114.432 102.293 116.818 99.6256 116.818 96.5181V93.7681C116.818 92.0631 118.214 90.6744 119.946 90.6744H128.561V99.0481C128.561 100.753 127.158 102.142 125.433 102.142H122.511C121.012 102.135 119.571 102.722 118.504 103.774C117.437 104.827 116.831 106.26 116.818 107.759C116.818 110.859 119.733 113.376 122.875 113.376H125.453C127.172 113.376 128.561 114.751 128.561 116.442V123.798H135.497C137.904 123.798 139.849 125.709 139.849 128.061V130.584C139.849 132.935 137.897 134.846 135.497 134.846H132.912C132.347 134.853 131.785 134.747 131.26 134.536C130.735 134.326 130.257 134.013 129.853 133.617C129.449 133.221 129.126 132.75 128.905 132.229C128.683 131.709 128.566 131.15 128.561 130.584V124.905H119.919C118.2 124.905 116.818 123.53 116.818 121.839V119.006C116.79 117.485 116.169 116.035 115.088 114.964C114.007 113.893 112.551 113.287 111.029 113.272C107.887 113.272 105.447 116.022 105.447 119.288V121.859C105.447 123.544 104.072 124.905 102.367 124.905H94.6944V130.584C94.6944 132.935 92.7487 134.846 90.3425 134.846H87.7644C87.1986 134.853 86.6372 134.747 86.1121 134.536C85.5871 134.326 85.1088 134.013 84.7046 133.617C84.3004 133.221 83.9782 132.75 83.7565 132.229C83.5348 131.709 83.4179 131.15 83.4125 130.584V128.061C83.4125 125.709 85.3581 123.798 87.7644 123.798H94.6944ZM135.497 89.5744H128.554V82.7956C128.554 80.4444 130.506 78.5331 132.912 78.5331H135.497C137.904 78.5331 139.849 80.4444 139.849 82.7956V85.3187C139.849 87.67 137.897 89.5812 135.497 89.5812V89.5744ZM94.6944 89.5744H87.7644C87.1992 89.5807 86.6383 89.4757 86.1137 89.2653C85.5891 89.0548 85.1111 88.7431 84.707 88.3479C84.3029 87.9528 83.9806 87.4819 83.7584 86.9621C83.5363 86.4423 83.4188 85.8839 83.4125 85.3187V82.7956C83.4125 80.4444 85.3581 78.5331 87.7644 78.5331H90.3425C92.7487 78.5331 94.6944 80.4444 94.6944 82.7956V89.5744ZM110.335 79.64C109.769 79.6463 109.208 79.5411 108.683 79.3302C108.158 79.1194 107.679 78.807 107.275 78.4111C106.871 78.0152 106.549 77.5435 106.327 77.023C106.105 76.5024 105.989 75.9433 105.983 75.3775V72.8544C105.983 70.5031 107.936 68.5987 110.335 68.5987H112.92C115.326 68.5987 117.272 70.5031 117.272 72.8612V75.3844C117.266 75.9496 117.148 76.508 116.926 77.0277C116.704 77.5475 116.382 78.0184 115.977 78.4136C115.573 78.8087 115.095 79.1204 114.571 79.3309C114.046 79.5413 113.485 79.6464 112.92 79.64H110.335ZM110.335 146.987C109.769 146.994 109.208 146.889 108.683 146.678C108.158 146.467 107.679 146.155 107.275 145.759C106.871 145.363 106.549 144.891 106.327 144.37C106.105 143.85 105.989 143.291 105.983 142.725V140.202C105.983 137.851 107.936 135.939 110.335 135.939H112.92C115.326 135.939 117.272 137.851 117.272 140.202V142.732C117.266 143.297 117.148 143.855 116.926 144.375C116.704 144.895 116.382 145.366 115.977 145.761C115.573 146.156 115.095 146.468 114.571 146.678C114.046 146.889 113.485 146.994 112.92 146.987H110.335ZM144.201 112.757C143.636 112.763 143.075 112.658 142.551 112.448C142.026 112.237 141.548 111.926 141.144 111.53C140.74 111.135 140.417 110.664 140.195 110.145C139.973 109.625 139.856 109.066 139.849 108.501V105.978C139.849 103.627 141.795 101.716 144.201 101.716H146.779C149.186 101.716 151.131 103.627 151.131 105.978V108.501C151.131 110.852 149.186 112.764 146.779 112.764L144.201 112.757ZM75.3481 112.757C74.7829 112.763 74.222 112.658 73.6974 112.448C73.1729 112.237 72.6949 111.926 72.2907 111.53C71.8866 111.135 71.5643 110.664 71.3422 110.145C71.1201 109.625 71.0025 109.066 70.9962 108.501V105.978C70.9962 103.627 72.9419 101.716 75.3481 101.716H77.9263C80.3325 101.716 82.285 103.627 82.285 105.978V108.501C82.285 110.852 80.3325 112.764 77.9263 112.764L75.3481 112.757ZM128.739 147.276C129.703 146.884 130.781 146.884 131.744 147.276C132.707 147.668 133.479 148.42 133.896 149.373C134.093 149.844 134.195 150.349 134.194 150.859C134.193 151.37 134.091 151.875 133.892 152.345C133.694 152.815 133.403 153.241 133.038 153.597C132.672 153.953 132.239 154.233 131.764 154.419C130.802 154.812 129.725 154.813 128.762 154.422C127.798 154.032 127.026 153.281 126.608 152.329C126.411 151.858 126.309 151.353 126.309 150.842C126.31 150.331 126.412 149.825 126.611 149.355C126.81 148.884 127.1 148.458 127.466 148.101C127.831 147.744 128.264 147.464 128.739 147.276ZM92.625 61.1669C93.5873 60.7747 94.6648 60.7736 95.6279 61.164C96.591 61.5544 97.3636 62.3053 97.7812 63.2569C97.9778 63.7276 98.0785 64.2327 98.0774 64.7428C98.0764 65.2529 97.9736 65.7576 97.7752 66.2275C97.5767 66.6974 97.2865 67.123 96.9216 67.4794C96.5567 67.8358 96.1244 68.1158 95.65 68.3031C94.6869 68.6974 93.6077 68.6996 92.643 68.3091C91.6783 67.9186 90.9045 67.1664 90.4869 66.2131C90.2903 65.7424 90.1897 65.2373 90.1907 64.7272C90.1918 64.2171 90.2945 63.7124 90.493 63.2425C90.6914 62.7726 90.9816 62.347 91.3465 61.9906C91.7114 61.6342 92.1437 61.3542 92.6181 61.1669H92.625ZM151.434 91.6094C151.236 91.1379 151.135 90.6317 151.136 90.1205C151.137 89.6094 151.24 89.1036 151.439 88.6328C151.639 88.1621 151.93 87.7359 152.296 87.3793C152.662 87.0227 153.096 86.7428 153.572 86.5562C154.534 86.164 155.612 86.163 156.575 86.5534C157.538 86.9437 158.31 87.6947 158.728 88.6462C158.926 89.1173 159.027 89.6231 159.027 90.1339C159.026 90.6448 158.924 91.1504 158.725 91.621C158.527 92.0917 158.236 92.518 157.871 92.8749C157.505 93.2318 157.072 93.5121 156.597 93.6994C155.635 94.0916 154.557 94.0926 153.594 93.7022C152.631 93.3119 151.858 92.5609 151.441 91.6094H151.434ZM64.52 126.933C64.3237 126.462 64.2233 125.956 64.2248 125.446C64.2263 124.936 64.3297 124.431 64.5288 123.961C64.7279 123.491 65.0188 123.065 65.3844 122.709C65.7501 122.353 66.1831 122.074 66.6581 121.887C67.6211 121.491 68.7009 121.488 69.6661 121.878C70.6313 122.269 71.405 123.022 71.8212 123.977C72.0178 124.448 72.1185 124.953 72.1174 125.463C72.1164 125.973 72.0136 126.478 71.8152 126.947C71.6167 127.417 71.3265 127.843 70.9616 128.199C70.5967 128.556 70.1644 128.836 69.69 129.023C68.7261 129.42 67.6452 129.423 66.6789 129.032C65.7126 128.642 64.9376 127.888 64.52 126.933ZM64.52 88.6462C64.9377 87.693 65.7114 86.9408 66.6761 86.5503C67.6408 86.1598 68.72 86.1619 69.6831 86.5562C70.159 86.7428 70.5928 87.0227 70.959 87.3793C71.3252 87.7359 71.6165 88.1621 71.8157 88.6328C72.0148 89.1036 72.118 89.6094 72.1189 90.1205C72.1199 90.6317 72.0187 91.1379 71.8212 91.6094C71.4036 92.5609 70.631 93.3119 69.6679 93.7022C68.7048 94.0926 67.6273 94.0916 66.665 93.6994C66.1885 93.5134 65.754 93.2341 65.3871 92.8778C65.0201 92.5215 64.7281 92.0954 64.5283 91.6246C64.3284 91.1537 64.2247 90.6477 64.2233 90.1362C64.2219 89.6248 64.3228 89.1182 64.52 88.6462ZM127.612 68.3031C127.137 68.1158 126.705 67.8358 126.34 67.4794C125.975 67.123 125.685 66.6974 125.487 66.2275C125.288 65.7576 125.186 65.2529 125.184 64.7428C125.183 64.2327 125.284 63.7276 125.481 63.2569C125.898 62.3053 126.671 61.5544 127.634 61.164C128.597 60.7736 129.675 60.7747 130.637 61.1669C131.111 61.3542 131.544 61.6342 131.909 61.9906C132.273 62.347 132.564 62.7726 132.762 63.2425C132.96 63.7124 133.063 64.2171 133.064 64.7272C133.065 65.2373 132.965 65.7424 132.768 66.2131C132.35 67.1647 131.578 67.9156 130.615 68.306C129.652 68.6964 128.574 68.6953 127.612 68.3031ZM151.434 123.977C151.85 123.024 152.623 122.272 153.586 121.881C154.55 121.491 155.628 121.493 156.59 121.887C157.066 122.073 157.499 122.352 157.866 122.708C158.232 123.064 158.524 123.489 158.724 123.959C158.923 124.429 159.027 124.934 159.029 125.445C159.031 125.956 158.931 126.462 158.735 126.933C158.317 127.885 157.545 128.636 156.582 129.026C155.619 129.416 154.541 129.415 153.579 129.023C153.103 128.837 152.669 128.558 152.303 128.202C151.937 127.846 151.645 127.421 151.445 126.951C151.245 126.481 151.142 125.976 151.14 125.465C151.138 124.954 151.238 124.448 151.434 123.977ZM90.3631 155.519C89.8881 155.333 89.4552 155.053 89.0897 154.697C88.7243 154.341 88.4338 153.915 88.2352 153.445C88.0367 152.975 87.9341 152.47 87.9335 151.959C87.933 151.449 88.0344 150.944 88.2319 150.473C88.6495 149.522 89.4222 148.771 90.3853 148.38C91.3483 147.99 92.4258 147.991 93.3881 148.383C93.8626 148.57 94.2949 148.85 94.6598 149.207C95.0247 149.563 95.3148 149.989 95.5133 150.459C95.7117 150.929 95.8145 151.433 95.8155 151.943C95.8166 152.454 95.7159 152.959 95.5194 153.429C95.1017 154.381 94.3291 155.132 93.366 155.522C92.4029 155.913 91.3255 155.912 90.3631 155.519ZM148.409 144.313C148.837 143.9 149.409 143.669 150.004 143.669C150.599 143.669 151.171 143.9 151.599 144.313C152.486 145.179 152.486 146.582 151.599 147.441C150.712 148.301 149.296 148.301 148.409 147.441C148.2 147.239 148.033 146.996 147.92 146.728C147.806 146.46 147.748 146.172 147.748 145.881C147.748 145.589 147.806 145.301 147.92 145.033C148.033 144.765 148.2 144.523 148.409 144.32V144.313ZM71.6563 68.145C72.5363 67.2856 73.9663 67.2856 74.8463 68.145C75.7262 69.0044 75.7262 70.4137 74.8463 71.2731C74.4182 71.6865 73.8463 71.9175 73.2512 71.9175C72.6562 71.9175 72.0843 71.6865 71.6563 71.2731C71.4471 71.0706 71.2808 70.828 71.1672 70.5599C71.0536 70.2918 70.9951 70.0037 70.9951 69.7125C70.9951 69.4213 71.0536 69.1331 71.1672 68.8651C71.2808 68.597 71.4471 68.3544 71.6563 68.1519V68.145ZM148.409 71.2731C148.2 71.0706 148.033 70.828 147.92 70.5599C147.806 70.2918 147.748 70.0037 147.748 69.7125C147.748 69.4213 147.806 69.1331 147.92 68.8651C148.033 68.597 148.2 68.3544 148.409 68.1519C149.296 67.2856 150.719 67.2856 151.599 68.1519C152.479 69.0181 152.486 70.4069 151.599 71.2731C151.171 71.6865 150.599 71.9175 150.004 71.9175C149.409 71.9175 148.837 71.6865 148.409 71.2731ZM71.6563 147.441C71.4471 147.239 71.2808 146.996 71.1672 146.728C71.0536 146.46 70.9951 146.172 70.9951 145.881C70.9951 145.589 71.0536 145.301 71.1672 145.033C71.2808 144.765 71.4471 144.523 71.6563 144.32C72.0843 143.907 72.6562 143.676 73.2512 143.676C73.8463 143.676 74.4182 143.907 74.8463 144.32C75.7262 145.179 75.7262 146.582 74.8463 147.441C73.9663 148.301 72.5363 148.301 71.6563 147.441ZM164.675 107.243C164.675 106.019 165.693 105.029 166.937 105.029C168.181 105.029 169.192 106.019 169.192 107.243C169.183 107.833 168.941 108.396 168.518 108.808C168.096 109.22 167.527 109.449 166.937 109.443C166.347 109.449 165.778 109.22 165.356 108.808C164.933 108.396 164.691 107.833 164.682 107.243H164.675ZM55.1906 107.243C55.1906 106.019 56.2013 105.029 57.4525 105.029C58.69 105.029 59.7075 106.019 59.7075 107.243C59.6984 107.833 59.4562 108.396 59.0337 108.808C58.6112 109.22 58.0427 109.449 57.4525 109.443C56.8611 109.45 56.2909 109.223 55.8669 108.811C55.4429 108.398 55.1997 107.835 55.1906 107.243ZM111.634 56.4575C111.34 56.462 111.048 56.4085 110.775 56.3C110.502 56.1915 110.253 56.03 110.042 55.825C109.831 55.62 109.663 55.3754 109.547 55.1052C109.431 54.8351 109.369 54.5446 109.366 54.2506C109.366 53.0269 110.383 52.0369 111.634 52.0369C112.872 52.0369 113.889 53.0269 113.889 54.2506C113.88 54.842 113.637 55.4057 113.213 55.8181C112.789 56.2305 112.219 56.458 111.627 56.4506L111.634 56.4575ZM111.634 163.542C111.341 163.547 111.049 163.494 110.777 163.386C110.504 163.278 110.255 163.117 110.044 162.912C109.834 162.708 109.665 162.464 109.549 162.195C109.432 161.926 109.37 161.636 109.366 161.342C109.366 160.119 110.383 159.129 111.634 159.129C112.872 159.129 113.889 160.119 113.889 161.336C113.886 161.629 113.824 161.919 113.709 162.189C113.593 162.458 113.426 162.703 113.216 162.908C113.006 163.112 112.757 163.274 112.485 163.383C112.212 163.492 111.921 163.546 111.627 163.542H111.634ZM181.608 107.236C181.608 106.019 182.626 105.036 183.87 105.036C185.108 105.036 186.125 106.019 186.125 107.236C186.122 107.53 186.062 107.82 185.947 108.09C185.832 108.36 185.665 108.605 185.456 108.81C185.247 109.016 184.999 109.178 184.727 109.288C184.455 109.398 184.163 109.453 183.87 109.45C183.577 109.454 183.285 109.399 183.013 109.29C182.74 109.182 182.492 109.02 182.282 108.815C182.072 108.61 181.904 108.366 181.789 108.096C181.673 107.826 181.612 107.537 181.608 107.243V107.236ZM36.5662 106.136C37.5012 106.136 38.2644 106.879 38.2644 107.786C38.2644 108.694 37.5081 109.45 36.5662 109.45C35.6312 109.45 34.875 108.707 34.875 107.793C34.875 106.879 35.6312 106.136 36.5662 106.136ZM108.245 36.5819C108.245 35.365 109.256 34.375 110.5 34.375C111.744 34.375 112.755 35.365 112.755 36.5819C112.755 37.7988 111.744 38.7888 110.5 38.7888C109.256 38.7888 108.245 37.7987 108.245 36.5888V36.5819ZM175.104 133.554C175.467 132.739 176.133 132.098 176.962 131.768C177.79 131.437 178.715 131.444 179.539 131.787C179.945 131.95 180.315 132.193 180.626 132.501C180.938 132.809 181.185 133.176 181.353 133.58C181.522 133.985 181.608 134.419 181.607 134.857C181.606 135.295 181.517 135.728 181.347 136.132C180.988 136.951 180.32 137.595 179.488 137.925C178.656 138.254 177.729 138.242 176.906 137.892C176.5 137.728 176.131 137.486 175.82 137.178C175.51 136.871 175.263 136.504 175.096 136.1C174.928 135.697 174.842 135.263 174.844 134.826C174.845 134.389 174.934 133.956 175.104 133.554ZM138.461 169.235C138.734 169.346 138.982 169.51 139.191 169.717C139.4 169.925 139.565 170.172 139.677 170.445C139.79 170.712 139.847 170.998 139.846 171.288C139.845 171.577 139.785 171.864 139.671 172.129C139.49 172.533 139.196 172.875 138.825 173.114C138.453 173.353 138.02 173.478 137.579 173.475C137.137 173.472 136.705 173.341 136.337 173.097C135.969 172.853 135.679 172.507 135.504 172.102C135.391 171.836 135.333 171.549 135.333 171.26C135.333 170.97 135.391 170.684 135.504 170.417C135.621 170.147 135.791 169.903 136.004 169.698C136.216 169.494 136.467 169.334 136.742 169.228C137.295 169.012 137.911 169.017 138.461 169.242V169.235ZM44.7887 77.6119C45.3387 77.8456 45.7719 78.2719 45.9988 78.815C46.1119 79.0827 46.1696 79.3706 46.1684 79.6613C46.1672 79.952 46.1072 80.2394 45.9919 80.5062C45.8114 80.9094 45.5175 81.2514 45.146 81.4904C44.7745 81.7294 44.3415 81.8551 43.8998 81.8522C43.458 81.8493 43.0267 81.7179 42.6584 81.474C42.2901 81.2301 42.0007 80.8843 41.8256 80.4787C41.7125 80.211 41.6548 79.9231 41.6559 79.6324C41.6571 79.3417 41.7172 79.0543 41.8325 78.7875C41.9492 78.5188 42.118 78.2759 42.3293 78.0729C42.5405 77.8699 42.79 77.7109 43.0631 77.605C43.6176 77.3843 44.236 77.3867 44.7887 77.6119ZM38.4913 134.331C38.7932 133.651 39.3493 133.116 40.0407 132.841C40.732 132.566 41.5035 132.573 42.19 132.859C42.5286 132.995 42.8366 133.197 43.0961 133.453C43.3555 133.709 43.5611 134.015 43.7007 134.352C43.8403 134.689 43.9112 135.05 43.9092 135.415C43.9071 135.78 43.8322 136.14 43.6888 136.476C43.3856 137.154 42.8289 137.688 42.1377 137.961C41.4465 138.235 40.6756 138.227 39.99 137.94C39.6514 137.804 39.3434 137.603 39.0839 137.346C38.8245 137.09 38.6189 136.784 38.4793 136.447C38.3397 136.11 38.2688 135.749 38.2708 135.384C38.2729 135.02 38.3478 134.659 38.4913 134.324V134.331ZM137.058 42.9825C136.719 42.8476 136.41 42.6462 136.15 42.3902C135.89 42.1341 135.684 41.8286 135.543 41.4917C135.403 41.1547 135.331 40.793 135.333 40.428C135.335 40.063 135.409 39.702 135.552 39.3662C135.854 38.6862 136.411 38.1515 137.102 37.8765C137.793 37.6015 138.565 37.6081 139.251 37.895C139.59 38.0306 139.898 38.2324 140.157 38.4888C140.417 38.7451 140.622 39.0507 140.762 39.3876C140.902 39.7245 140.972 40.0859 140.97 40.4506C140.968 40.8153 140.893 41.1759 140.75 41.5113C140.448 42.1896 139.893 42.7231 139.203 42.9979C138.514 43.2728 137.744 43.2672 137.058 42.9825ZM179.277 76.4431C179.695 76.276 180.161 76.2785 180.577 76.45C180.881 76.5753 181.14 76.7885 181.322 77.0622C181.504 77.336 181.6 77.6579 181.598 77.9866C181.596 78.3154 181.496 78.6359 181.31 78.9072C181.124 79.1785 180.862 79.3882 180.556 79.5094C180.143 79.675 179.681 79.6729 179.269 79.5035C178.857 79.334 178.527 79.0106 178.349 78.6019C178.264 78.4005 178.221 78.1839 178.222 77.9652C178.223 77.7465 178.269 77.5304 178.356 77.33C178.444 77.1287 178.57 76.9467 178.728 76.7945C178.886 76.6423 179.073 76.5229 179.277 76.4431ZM80.1606 40.9062C80.3403 40.4984 80.6732 40.1776 81.0873 40.0129C81.5014 39.8483 81.9637 39.8531 82.3744 40.0262C82.6811 40.1489 82.9437 40.3611 83.1279 40.6353C83.3122 40.9094 83.4095 41.2327 83.4073 41.563C83.4051 41.8933 83.3034 42.2152 83.1154 42.4868C82.9275 42.7584 82.6621 42.9671 82.3538 43.0856C81.9384 43.2516 81.4748 43.2491 81.0613 43.0787C80.8584 42.9966 80.6738 42.875 80.5184 42.7209C80.363 42.5668 80.2398 42.3833 80.156 42.1811C80.0722 41.9789 80.0294 41.7621 80.0302 41.5432C80.031 41.3243 80.0753 41.1078 80.1606 40.9062ZM80.5937 171.27C80.8137 171.27 81.0337 171.318 81.2469 171.407C81.4495 171.489 81.6339 171.61 81.7893 171.763C81.9446 171.917 82.0678 172.1 82.1517 172.301C82.2355 172.503 82.2783 172.719 82.2776 172.938C82.2769 173.156 82.2327 173.372 82.1475 173.573C81.9664 173.98 81.6335 174.299 81.2198 174.464C80.8062 174.628 80.3446 174.624 79.9338 174.453C79.7311 174.372 79.5466 174.251 79.3911 174.097C79.2355 173.944 79.1119 173.761 79.0275 173.56C78.9431 173.358 78.8995 173.142 78.8993 172.924C78.8991 172.705 78.9422 172.489 79.0262 172.287C79.1594 171.983 79.3788 171.725 79.6574 171.544C79.9361 171.363 80.2616 171.268 80.5937 171.27ZM160.632 159.582C160.204 159.998 159.631 160.23 159.034 160.23C158.437 160.23 157.864 159.998 157.436 159.582C157.226 159.38 157.06 159.137 156.947 158.869C156.833 158.601 156.774 158.313 156.774 158.022C156.774 157.731 156.833 157.443 156.947 157.174C157.06 156.906 157.226 156.664 157.436 156.461C157.863 156.043 158.439 155.811 159.037 155.815C159.633 155.813 160.206 156.045 160.632 156.461C160.843 156.664 161.01 156.907 161.124 157.176C161.238 157.444 161.297 157.733 161.297 158.025C161.297 158.317 161.238 158.606 161.124 158.875C161.01 159.144 160.843 159.387 160.632 159.589V159.582ZM55.0531 55.2269C55.6956 54.6048 56.5548 54.257 57.4491 54.257C58.3433 54.257 59.2025 54.6048 59.845 55.2269C60.1579 55.5312 60.4066 55.8951 60.5764 56.2972C60.7462 56.6993 60.8337 57.1313 60.8337 57.5678C60.8337 58.0043 60.7462 58.4363 60.5764 58.8384C60.4066 59.2405 60.1579 59.6044 59.845 59.9087C59.2059 60.5373 58.3454 60.8895 57.4491 60.8895C56.5527 60.8895 55.6922 60.5373 55.0531 59.9087C54.7402 59.6044 54.4915 59.2405 54.3217 58.8384C54.1519 58.4363 54.0644 58.0043 54.0644 57.5678C54.0644 57.1313 54.1519 56.6993 54.3217 56.2972C54.4915 55.8951 54.7402 55.5312 55.0531 55.2269ZM161.787 55.8456C162.106 55.5316 162.536 55.3555 162.984 55.3555C163.431 55.3555 163.861 55.5316 164.18 55.8456C164.335 55.998 164.459 56.1798 164.543 56.3805C164.628 56.5812 164.671 56.7967 164.671 57.0144C164.671 57.2321 164.628 57.4476 164.543 57.6482C164.459 57.8489 164.335 58.0308 164.18 58.1831C163.859 58.4939 163.43 58.6677 162.984 58.6677C162.537 58.6677 162.108 58.4939 161.787 58.1831C161.63 58.0318 161.505 57.8502 161.42 57.6494C161.334 57.4486 161.29 57.2326 161.29 57.0144C161.29 56.7961 161.334 56.5802 161.42 56.3793C161.505 56.1785 161.63 55.997 161.787 55.8456ZM55.6856 156.303C56.0046 155.989 56.4343 155.813 56.8819 155.813C57.3295 155.813 57.7592 155.989 58.0781 156.303C58.2345 156.455 58.3587 156.637 58.4436 156.837C58.5285 157.038 58.5722 157.254 58.5722 157.472C58.5722 157.69 58.5285 157.906 58.4436 158.106C58.3587 158.307 58.2345 158.489 58.0781 158.641C57.7575 158.951 57.3284 159.125 56.8819 159.125C56.4353 159.125 56.0063 158.951 55.6856 158.641C55.5293 158.489 55.405 158.307 55.3201 158.106C55.2353 157.906 55.1915 157.69 55.1915 157.472C55.1915 157.254 55.2353 157.038 55.3201 156.837C55.405 156.637 55.5293 156.455 55.6856 156.303ZM111.064 185.625C110.325 185.632 109.613 185.346 109.084 184.829C108.556 184.313 108.254 183.607 108.245 182.868C108.245 181.342 109.503 180.104 111.064 180.104C112.624 180.104 113.883 181.342 113.883 182.868C113.873 183.607 113.572 184.313 113.043 184.829C112.515 185.346 111.803 185.632 111.064 185.625Z" fill="white"/>
</g>
<defs>
<clipPath id="clip0_2_20286">
<rect width="220" height="220" fill="white" transform="translate(0.5)"/>
</clipPath>
</defs>
</svg>
