<svg width="221" height="220" viewBox="0 0 221 220" fill="none" xmlns="http://www.w3.org/2000/svg">
<g clip-path="url(#clip0_2_20279)">
<path d="M110.5 220C171.251 220 220.5 170.751 220.5 110C220.5 49.2487 171.251 0 110.5 0C49.7487 0 0.5 49.2487 0.5 110C0.5 170.751 49.7487 220 110.5 220Z" fill="#EA0017"/>
<path d="M142.929 105.958C143.142 105.958 143.658 106.178 144.098 106.44C145.308 107.175 145.934 108.653 145.817 110.427C145.748 111.637 145.452 112.462 144.235 114.937C143.41 116.615 141.857 119.427 140.798 121.193C138.969 124.205 138.096 125.786 138.096 126.027C138.096 126.095 139.334 124.982 140.846 123.552C143.679 120.884 145.665 119.619 146.566 119.908C147.783 120.3 148.147 122.603 147.343 124.913C146.882 126.288 145.645 128.79 144.407 130.901C143.692 132.07 143.63 132.303 144.834 131.616L145.837 131.025C148.34 129.519 149.942 129.354 150.815 130.543C151.777 131.85 151.612 135.83 150.423 139.275C150.155 140.052 150.01 140.753 150.079 140.828C150.155 140.897 150.904 140.657 151.729 140.292C152.582 139.907 153.847 139.467 154.575 139.302C157.023 138.718 158.068 139.763 158.529 143.228C158.941 146.239 157.8 148.742 155.71 149.491C155.352 149.615 155.297 149.56 155.421 149.106C155.517 148.79 155.641 148.233 155.737 147.841C155.861 147.208 155.834 147.188 155.394 147.428C154.692 147.793 153.895 149.25 153.606 150.708C152.733 155.025 151.64 157.157 148.773 160.072C145.617 163.275 142.345 165.434 137.25 167.717C134.872 168.782 131.524 170.893 127.955 173.588L126.91 174.385L124.848 172.495L123.817 171.587C121.747 169.841 119.671 168.48 118.007 167.806C117.51 167.617 117.018 167.418 116.529 167.208C116.481 167.16 116.894 166.623 117.45 165.991C117.993 165.365 118.413 164.642 118.688 163.86C119.032 162.519 119.217 162.21 119.974 161.77C120.847 161.288 122.256 161.673 125.604 163.351C127.082 164.073 128.34 164.685 128.464 164.685C128.732 164.685 128.684 163.977 128.34 163.083C128.079 162.354 128.175 161.914 129.289 158.566C130.767 154.152 131.159 152.55 130.87 152.255C130.506 151.89 130.21 152.475 128.512 156.792C127.619 159.054 126.842 160.972 126.794 161.02C126.718 161.089 126.182 160.897 125.577 160.608C124.58 160.12 124.484 159.975 124.607 159.439C125.309 156.62 125.721 150.268 125.288 148.714C124.972 147.621 124.628 148.082 124.339 150C123.707 154.077 123.005 157.308 122.717 157.597C122.442 157.865 122.277 157.789 121.74 157.157L121.115 156.38V133.582L126.498 126.638L127.605 125.208C136.219 114.092 138.687 110.888 140.599 108.44C141.664 107.079 142.709 105.965 142.929 105.965V105.958ZM95.6841 140.471C97.9873 138.278 98.5029 138.085 99.3004 139.206C99.9054 140.031 100.242 141.97 100.242 144.617V146.796L101.363 147.985L101.817 148.508C102.264 149.058 102.669 149.677 102.814 150.02C103.178 150.921 103.329 154.365 103.034 155.534C102.937 155.919 103.178 156.648 103.838 157.913C108.327 166.507 109.249 168.37 109.132 168.514L108.98 168.542L108.705 168.521C108.443 168.475 108.186 168.406 107.935 168.315C106.89 167.985 105.653 167.93 101.267 168.053C98.6198 168.122 97.0385 167.689 96.8941 166.843C96.8254 166.5 97.8154 164.918 99.9054 162.031C100.538 161.165 100.607 160.656 100.249 160.072C100.077 159.783 99.2248 159.68 96.1241 159.59C90.9266 159.418 90.7616 159.123 94.4191 156.359C95.9523 155.19 97.7466 153.348 97.9598 152.715C98.0354 152.475 97.9116 152.014 97.6985 151.677L97.286 151.045L94.3298 151.217L93.5254 151.258C90.2666 151.395 89.6754 150.928 90.7754 149.395C91.0504 149.03 91.1879 148.666 91.0985 148.57C91.0298 148.501 89.586 148.425 87.9635 148.425C85.1723 148.425 82.6491 148.109 82.216 147.717C82.1198 147.621 83.3091 147.14 84.8835 146.652C87.5785 145.827 91.1948 144.177 92.8448 143.008C93.823 142.196 94.7701 141.348 95.6841 140.464V140.471ZM104.67 119.571C104.78 119.64 105.048 121.805 105.337 124.404C105.612 126.996 105.825 129.375 105.825 129.663C105.825 129.98 105.921 130.227 106.045 130.227C106.162 130.227 106.89 129.251 107.667 128.041C108.472 126.852 109.18 125.855 109.249 125.855C109.441 125.855 109.565 126.776 110.211 133.672C110.534 136.848 110.85 139.447 110.919 139.447C110.988 139.447 111.38 138.085 111.744 136.415C112.136 134.737 112.521 133.376 112.617 133.376C112.762 133.376 119.437 152.695 119.417 153.08C119.417 153.616 118.832 152.983 116.502 149.979C115.092 148.13 113.759 146.432 113.545 146.143L113.105 145.634L112.452 146.363L112.177 146.672C111.553 147.374 110.923 148.071 110.287 148.762L108.76 150.44L108.637 149.615L108.616 149.408C108.506 148.515 108.197 145.283 107.887 141.798C107.571 137.941 107.234 134.689 107.131 134.565C107.062 134.448 106.141 135.129 105.069 136.098C104.003 137.068 103.034 137.913 102.889 137.941C102.745 137.989 102.717 137.652 102.793 137.088C102.965 135.851 104.615 120.279 104.615 119.812C104.615 119.619 104.663 119.523 104.732 119.571H104.67ZM73.526 106.178C75.2723 105.958 78.8885 106.151 80.566 106.612C82.4085 107.072 84.471 107.952 86.121 108.894C87.7504 109.863 91.7516 113.727 92.3566 114.944C92.8379 115.907 93.0854 116.03 90.1498 113.796C87.832 112.078 85.2624 110.728 82.5323 109.795C81.171 109.368 80.401 109.258 78.3041 109.245L77.3141 109.238C74.2548 109.238 73.7254 109.307 71.9723 109.891C60.8829 113.652 55.2798 127.752 61.0823 137.288C62.801 140.148 65.5716 142.698 69.3048 144.85C71.4154 146.088 71.2504 146.294 68.6516 145.634C66.3397 145.059 64.1845 143.977 62.3416 142.467C60.4987 140.957 59.0143 139.056 57.9954 136.903C56.6616 134.18 56.0841 131.657 55.9123 128.041C55.6716 122.197 57.1979 117.557 60.8348 113.143C63.7223 109.623 68.8441 106.832 73.526 106.178ZM64.5954 125.085C64.9598 123.964 65.0079 124.04 65.936 126.611C67.7848 131.485 70.5898 135.941 74.186 139.715C75.0316 140.608 75.7329 141.413 75.7329 141.502C75.7329 141.894 73.8216 141.413 71.9998 140.588C67.586 138.525 64.9873 134.228 64.4304 127.938C64.3341 126.632 64.3616 125.758 64.5954 125.078V125.085ZM84.9591 88.8535C88.0116 88.3929 88.1629 88.441 86.1691 89.3622C85.1723 89.8229 84.2029 90.256 84.0379 90.3797L83.8454 90.4966C83.2954 90.8954 84.306 91.0466 87.7985 91.1566C92.2398 91.2804 92.2673 91.301 91.896 92.7585C91.7516 93.3428 91.7035 93.3428 89.0085 93.3428C87.4576 93.3633 85.9098 93.485 84.3748 93.7072C82.4841 94.051 79.741 95.1854 79.741 95.646C79.741 95.7697 80.8823 96.0104 82.2848 96.1822C86.6091 96.691 90.8098 97.8322 93.7179 99.2897C94.8591 99.8947 95.4641 100.665 97.7466 104.625C103.886 115.226 104.807 116.732 107.014 119.667C109.833 123.407 112.858 126.803 116.158 129.932L119.169 132.771V136.71C119.142 138.14 119.052 139.24 118.929 139.323C118.688 139.467 118.832 139.715 115.532 134.105C113.127 130.018 110.527 126.049 107.743 122.211C107.032 121.25 106.367 120.257 105.749 119.234C105.68 119.014 105.46 118.822 105.289 118.794C105.124 118.794 104.326 118.017 103.522 117.075C101.239 114.401 96.0966 109.767 92.5973 107.272C90.5898 105.814 87.9429 104.02 87.7985 104.02C87.7504 104.02 86.8979 103.58 85.901 103.023C83.6998 101.855 81.3933 100.898 79.0123 100.163C77.3348 99.7022 73.9935 99.5785 71.8554 99.8672C68.7715 100.417 65.8074 101.501 63.0966 103.071C62.4226 103.506 61.7248 103.903 61.0066 104.26C60.8348 104.26 58.7035 105.787 57.0535 107.127C56.2973 107.732 55.6923 108.069 55.6441 107.925C55.5204 107.581 57.5623 104.748 59.336 102.734C61.7377 100.207 64.3967 97.9372 67.2698 95.9622C72.2885 92.6141 79.6448 89.651 84.9591 88.8535ZM68.3835 119.11C67.4898 116.663 67.5104 116.463 68.6516 117.117C69.4539 117.616 70.2381 118.143 71.0029 118.698C75.6985 122.189 79.4854 126.759 82.0441 132.022C83.0891 134.228 83.8179 136.291 83.646 136.463L83.5154 136.49L83.2885 136.422C82.1198 135.94 78.476 132.984 75.7329 130.227C72.2679 126.707 69.841 123.091 68.3835 119.11ZM76.4616 112.558C76.4616 112.27 79.0604 112.95 80.5866 113.652C83.7698 115.082 86.1004 117.845 87.1179 121.297C87.7985 123.627 87.991 125.394 87.7504 127.216C87.551 128.838 87.5785 128.893 86.0523 125.47C84.2248 121.675 81.8068 118.194 78.8885 115.157C78.052 114.317 77.2427 113.45 76.4616 112.558ZM116.261 72.0372C117.45 71.6935 117.43 71.6935 117.815 72.2778C118.468 73.2953 119.657 77.2554 120.166 80.1428C120.482 82.0335 120.702 84.6322 120.799 87.7328L120.936 92.4422L119.754 92.2772L119.485 92.236C117.808 91.961 116.44 91.4454 107.351 87.6366C102.449 85.5741 98.3998 83.9516 98.3241 84.0204C98.2073 84.1441 100.634 88.9222 102.257 91.7616C105.213 96.911 110.699 99.7022 117.038 99.2897C118.853 99.166 119.513 99.2141 120.063 99.4822C121.376 100.183 122.229 101.4 123.026 103.772C124.023 106.687 125.845 110.235 127.399 112.27C128.052 113.143 128.567 113.872 128.567 113.872C128.54 113.892 127.763 113.748 126.814 113.576C122.565 112.703 115.216 109.623 113.229 107.877C110.947 105.862 113.03 109.087 115.457 111.3C118.413 114.016 122.689 116.367 127.564 117.997C129.021 118.478 130.259 118.918 130.286 118.938C130.554 119.186 123.39 127.553 122.957 127.553C122.517 127.553 120.042 126.075 117.643 124.404C114.996 122.555 109.001 116.663 106.87 113.844C100.738 105.617 96.2558 96.2808 93.6698 86.351L92.9135 83.5872L93.8623 82.6179L94.4741 82.0404C98.0835 78.8778 107.214 74.6841 116.261 72.0372ZM153.455 63.8354C153.987 63.8874 154.503 64.0514 154.967 64.3166C155.353 64.5881 155.688 64.9256 155.957 65.3135C156.177 65.6297 158.749 75.2822 161.664 86.7154C167.487 109.499 167.438 109.19 166.125 110.572C165.712 110.978 165.228 111.305 164.695 111.534C163.575 111.905 146.27 115.659 146.181 115.57C146.275 115.061 146.447 114.569 146.69 114.112C147.927 111.293 147.996 108.681 146.827 106.811C146.03 105.505 143.967 104.267 142.634 104.267C141.857 104.267 141.616 104.501 137.491 109.836C135.112 112.93 133.077 115.35 132.981 115.253C132.878 115.157 130.671 105.697 128.031 94.2641C124.628 79.5104 123.294 73.2472 123.418 72.7454C123.67 71.8137 124.258 71.0081 125.068 70.4835C126.113 69.9266 152.513 63.7391 153.462 63.8354H153.455ZM157.463 91.3766C157.415 91.2804 156.542 91.9816 155.517 92.9579C154.5 93.8997 152.417 95.8454 150.911 97.2754L148.14 99.8672L142.2 97.9491C140.177 97.2533 138.13 96.6319 136.061 96.086C135.965 96.1066 138.24 98.2654 141.155 100.864C144.091 103.463 147.274 106.323 148.264 107.244C149.261 108.138 150.155 108.798 150.258 108.702C150.519 108.433 157.532 91.5691 157.463 91.3766ZM142.929 98.946C144.6 99.5029 146.47 100.012 147.075 100.115L148.168 100.252L148.972 103.875C149.405 105.862 149.722 107.54 149.646 107.588C149.598 107.636 149.02 107.148 148.388 106.515C146.722 104.936 145.031 103.385 143.314 101.861C141.963 100.667 140.644 99.4361 139.361 98.1691C139.217 97.8047 139.794 97.9285 142.929 98.946ZM83.6185 68.6891C87.6954 67.6716 89.3179 67.4241 89.3179 67.8366C89.3179 67.9604 88.7335 68.201 88.0529 68.3454C86.066 68.8335 80.9441 70.6279 78.4004 71.7485C75.6298 72.9585 72.0891 75.021 70.7554 76.1829L69.786 77.0079L70.6316 77.2072L71.6766 77.4547C75.1416 78.376 81.5079 80.7754 84.5329 82.3497C86.7466 83.491 89.5585 85.4091 89.5585 85.7941C89.5585 85.8904 88.8298 86.0622 87.936 86.1585C84.2235 86.5229 78.1323 88.0285 73.7873 89.6304C68.4729 91.6241 61.7285 95.2335 57.6035 98.341C54.9085 100.376 54.9085 100.376 55.8573 99.0216C56.9985 97.3716 60.4635 93.776 62.5741 92.0779C67.1391 88.4616 73.1341 85.8422 79.4866 84.701L80.4629 84.536L78.7441 83.7316L77.8848 83.3672C74.1241 81.8685 66.2385 79.9297 61.536 79.3866C60.9268 79.3282 60.3254 79.206 59.7416 79.0222C59.1091 78.6854 67.3316 74.2716 72.2129 72.3535C75.9367 70.9013 79.7457 69.6775 83.6185 68.6891ZM141.85 73.2472C140.035 78.6097 135.662 92.1535 135.662 92.4422C135.662 92.6622 135.566 92.9029 135.422 92.9785C134.645 93.4597 135.545 93.8722 141.224 95.7422C144.545 96.8147 147.432 97.7085 147.652 97.7085C148.134 97.7085 157.14 89.2866 157.14 88.8535C157.14 88.6816 154.032 85.3129 150.272 81.3804C147.781 78.8048 145.322 76.1989 142.895 73.5635C142.386 72.9104 142.022 72.7866 141.85 73.2472ZM109.482 93.5147C109.242 92.8272 109.242 92.8272 110.019 92.9785C110.431 93.0747 111.394 93.4391 112.129 93.8035C113.896 94.6491 113.972 95.041 112.37 95.041C110.864 95.041 109.799 94.4841 109.482 93.5147ZM142.194 74.5604C142.31 74.6841 142.97 77.276 143.651 80.3354L144.909 85.9179L144.229 86.571C143.287 87.4922 136.075 92.8822 135.979 92.7585C135.91 92.7104 136.075 92.2497 136.343 91.7135C136.824 90.7716 141.609 76.3341 141.85 75.0485C141.946 74.6566 142.097 74.4366 142.194 74.5604ZM88.7335 70.7791L88.541 72.5185L88.4654 73.2129C88.321 74.6704 88.4104 75.021 88.8298 75.021C89.1048 75.021 89.2698 75.5297 89.4623 76.9597C89.8748 79.7304 89.971 82.4735 89.6823 82.5972C89.5379 82.6179 88.5135 82.1091 87.3791 81.4491C84.7302 79.8772 81.9545 78.5296 79.081 77.4203C78.036 77.0354 77.1835 76.6503 77.1835 76.5747C77.1835 76.066 80.1673 73.7835 81.9685 72.9103C84.2716 71.7966 87.1591 70.7997 88.1285 70.7791H88.7335ZM125.845 59.126C134.335 57.5241 136.109 57.3797 137.615 58.1566C138.124 58.4247 138.784 58.961 139.045 59.346C139.65 60.171 141.252 63.4985 141.252 63.8835C141.252 64.0554 139.89 64.3647 137.807 64.7085C122.545 67.1147 110.025 70.7241 100.49 75.5022C98.1738 76.5997 95.9643 77.9093 93.8898 79.4141C92.2604 80.6516 92.4323 80.9954 91.8479 75.4816C91.4354 71.7485 91.4354 71.5285 91.8479 70.4354C92.2398 69.4179 92.4529 69.2185 93.8898 68.4966C97.2681 66.9458 100.727 65.5758 104.25 64.3922C110.727 62.3297 117.203 60.7485 125.838 59.126H125.845ZM102.305 42.7429H102.552C102.69 42.7429 103.13 43.4304 103.57 44.2279C105.632 47.9885 109.805 59.6141 109.297 60.1229C108.959 60.3199 108.585 60.4441 108.197 60.4872L107.351 60.6316L106.526 58.8579L106.114 57.971C103.639 52.8147 99.1973 45.7885 98.6679 46.2904C98.5991 46.3591 98.7641 47.0672 99.0323 47.8716C100.27 51.4122 101.94 59.346 101.94 61.601C101.94 62.2816 101.824 62.4947 101.335 62.7216C101.038 62.8725 100.717 62.9702 100.387 63.0104C100.249 63.0104 99.4448 62.1372 98.6679 61.0716C97.891 59.9991 97.1623 59.2016 97.066 59.2979C96.9973 59.4216 96.7498 60.6316 96.5298 62.0135C96.1654 64.516 95.801 65.3822 95.416 64.7635C95.3198 64.5847 95.0998 62.1372 94.9348 59.2979C94.8519 57.3533 94.7143 55.4115 94.5223 53.4747C94.4466 53.1104 94.4948 52.8216 94.6116 52.8216C94.7354 52.8216 95.6841 53.6191 96.7016 54.6091C97.7191 55.5854 98.5923 56.3347 98.6404 56.2385C98.8398 55.8741 96.2135 48.0366 94.5635 44.056C94.426 43.7191 94.6598 43.5954 96.0485 43.3822C97.7191 43.0866 102.112 42.6741 102.552 42.7497L102.305 42.7429ZM82.5529 47.9404C84.4985 46.7029 86.1485 46.2904 87.2348 46.7304C87.5648 46.8472 87.6473 47.0741 87.6541 48.7447V50.2916C87.6362 52 87.5789 53.7077 87.4823 55.4135L87.3104 57.1322L82.8004 57.0154L80.9579 56.9879C77.2044 56.9329 73.462 57.4074 69.841 58.3972C68.3079 58.7891 66.9054 59.1535 66.7335 59.1741C66.5616 59.2222 66.3898 59.0779 66.3485 58.8853C66.1973 58.0122 71.7798 54.0316 78.036 50.5391C79.9129 49.4666 81.9479 48.3047 82.5529 47.9404ZM106.959 42.626L108.424 45.101L108.905 45.926C111.373 50.271 114.804 57.5447 114.804 58.4935C114.804 58.906 113.174 59.3185 112.885 58.9816C112.637 58.5655 112.425 58.1284 112.253 57.6754C110.458 53.6483 108.485 49.7027 106.34 45.8504C105.733 44.8349 105.158 43.8009 104.615 42.7497C104.615 42.681 105.144 42.626 105.777 42.626H106.966H106.959ZM111.428 42.8666H111.82C112.714 42.8666 115.464 43.0385 117.911 43.231C120.338 43.4304 122.586 43.6435 122.93 43.7191L124.147 43.9597C124.903 44.1316 125.48 45.0597 127.179 48.6966C128.292 51.1441 129.942 55.4891 129.777 55.606C126.847 56.0623 123.927 56.5804 121.019 57.1597C117.856 57.8197 117.23 57.8197 117.23 57.1116C117.23 56.6029 113.394 48.7241 111.799 45.9535C109.854 42.626 109.854 42.8666 111.82 42.8666H111.428Z" fill="white"/>
<path d="M115.897 73.3717C116.502 74.8498 116.818 76.4311 117.135 79.7517C117.451 83.2992 118.028 88.2011 118.372 90.2361C118.516 91.2811 118.929 91.5011 118.929 90.5523C118.929 90.2086 118.757 88.8749 118.565 87.5686C118.288 85.3724 118.045 83.1722 117.836 80.9686C117.685 79.1973 117.474 77.4317 117.203 75.6748C116.894 74.1967 116.33 72.9592 115.993 72.9592C115.821 72.9592 115.801 73.1311 115.897 73.3717ZM121.115 101.765C121.115 102.831 124.511 110.641 125.625 112.126C126.381 113.164 126.182 112.222 125.309 110.641C124.044 108.361 122.964 105.984 122.078 103.532C121.528 101.979 121.115 101.229 121.115 101.765Z" fill="white"/>
<path d="M92.4051 36.5069C111.577 31.8285 131.821 34.9175 148.725 45.1007C159.45 51.4807 169.281 61.525 175.373 72.3463C181.973 84.02 185.204 96.0994 185.204 109.059C185.225 117.866 184.083 124.954 181.388 133.032C178.83 140.569 175.122 147.665 170.395 154.069C166.499 159.056 162.099 163.627 157.264 167.709C145.301 177.389 131.448 182.924 115.656 184.258C98.8401 185.715 80.2501 180.497 66.4176 170.453C50.1376 158.655 39.3645 141.55 35.9614 122.163C32.3039 101.297 37.9826 79.3313 51.3476 62.7144C53.4101 60.1432 58.1195 55.2619 61.007 52.7182C69.6695 45.0732 80.9033 39.2707 92.4051 36.5069ZM114.563 40.3913C107.197 39.9322 99.804 40.6281 92.6526 42.4538C84.0864 44.6813 74.2276 49.4869 67.9714 54.4851L65.4276 56.4994C62.3201 58.9057 55.5483 66.3307 52.9976 70.1394C44.7476 82.4457 40.7945 95.2538 40.7945 109.568C40.7945 121.069 43.1251 130.701 48.4876 141.193C54.9928 153.925 65.3306 164.294 78.0433 170.838C86.2933 175.086 95.5126 177.754 104.375 178.455C119.61 179.672 133.875 176.131 147.343 167.806C153.558 163.969 161.513 156.62 165.493 151.065C172.918 140.649 177.023 130.777 178.762 119.028C179.395 114.834 179.422 103.38 178.79 99.6675C176.61 86.4469 171.124 74.2163 163.335 65.1894C162.578 64.3163 161.636 63.1957 161.245 62.735C158.851 60.0996 156.246 57.6646 153.455 55.4544C146.305 49.975 140.839 46.9638 132.638 44.0007C127.083 42.0138 121.645 40.9207 114.556 40.3913H114.563Z" fill="white"/>
</g>
<defs>
<clipPath id="clip0_2_20279">
<rect width="220" height="220" fill="white" transform="translate(0.5)"/>
</clipPath>
</defs>
</svg>
