<svg width="221" height="220" viewBox="0 0 221 220" fill="none" xmlns="http://www.w3.org/2000/svg">
<g clip-path="url(#clip0_2_20274)">
<path d="M110.5 220C171.252 220 220.5 170.752 220.5 110C220.5 49.2479 171.252 0 110.5 0C49.7479 0 0.5 49.2479 0.5 110C0.5 170.752 49.7479 220 110.5 220Z" fill="#2B6680"/>
<path d="M34.8751 110C34.8365 130.057 42.7671 149.308 56.9223 163.518C71.0774 177.727 90.2976 185.732 110.355 185.77C130.412 185.809 149.662 177.878 163.872 163.723C178.082 149.568 186.087 130.348 186.125 110.291V109.711C186.099 103.89 185.405 98.092 184.056 92.4297C183.827 91.3754 183.39 90.3774 182.77 89.494C182.151 88.6107 181.361 87.8598 180.448 87.2853C179.535 86.7108 178.516 86.3242 177.452 86.1482C176.387 85.9722 175.298 86.0103 174.249 86.2603C173.199 86.5102 172.21 86.967 171.339 87.604C170.468 88.2409 169.733 89.0451 169.177 89.9696C168.621 90.8941 168.254 91.9202 168.1 92.988C167.945 94.0558 168.005 95.1437 168.275 96.1881C171.29 108.778 170.111 122.007 164.918 133.865C159.726 145.723 150.804 155.562 139.508 161.886C128.212 168.209 115.161 170.672 102.337 168.899C89.5142 167.126 77.6204 161.215 68.4641 152.063C59.3077 142.912 53.3896 131.022 51.6094 118.2C49.8292 105.377 52.2842 92.3244 58.6012 81.0251C64.9182 69.7257 74.7517 60.7978 86.607 55.5986C98.4623 50.3994 111.691 49.2131 124.282 52.2201C126.357 52.671 128.527 52.2901 130.324 51.1593C132.122 50.0285 133.404 48.238 133.896 46.1721C134.388 44.1062 134.051 41.9298 132.956 40.1102C131.861 38.2905 130.096 36.9727 128.041 36.4397C116.929 33.7885 105.362 33.6892 94.2063 36.1494C83.0511 38.6095 72.5982 43.565 63.6327 50.6439C54.6672 57.7228 47.422 66.741 42.4413 77.0213C37.4606 87.3015 34.8738 98.5767 34.8751 110Z" fill="white"/>
<path d="M148.726 54.6841C148.616 54.7872 148.545 54.9087 148.442 55.0187C146.598 56.9733 145.466 59.492 145.229 62.1687V63.4543C145.229 63.7522 145.165 64.0387 145.132 64.3343C144.815 67.5356 143.787 70.6257 142.123 73.3788C140.459 76.1319 138.201 78.4785 135.514 80.2472C132.826 82.0159 129.778 83.162 126.591 83.6018C123.404 84.0415 120.16 83.7639 117.094 82.7891C112.616 81.6977 107.938 81.7357 103.479 82.8997C99.0194 84.0637 94.9192 86.3172 91.5464 89.4578C91.2714 89.7145 90.9689 89.9322 90.6985 90.2026C85.4506 95.4503 82.5022 102.568 82.502 109.989C82.5017 117.411 85.4497 124.528 90.6974 129.776C95.945 135.024 103.062 137.973 110.484 137.973C117.905 137.973 125.023 135.025 130.271 129.777C131.428 128.604 132.478 127.325 133.406 125.962C135.665 122.727 137.215 119.051 137.952 115.176C138.69 111.3 138.6 107.312 137.687 103.474C137.531 102.971 137.393 102.463 137.274 101.95C137.274 101.874 137.228 101.803 137.21 101.725C136.514 98.707 136.474 95.5744 137.094 92.5396C137.715 89.5049 138.98 86.639 140.805 84.1363C142.63 81.6336 144.972 79.5526 147.672 78.0343C150.372 76.516 153.367 75.596 156.453 75.3366C156.614 75.3366 156.77 75.2908 156.93 75.2862C157.386 75.2862 157.842 75.2335 158.298 75.2335H158.408C161.202 74.9763 163.817 73.7458 165.796 71.757C166.266 71.2712 166.695 70.7464 167.08 70.1895C168.818 67.7252 169.57 64.6987 169.186 61.7073C168.803 58.716 167.312 55.9771 165.007 54.0313C162.703 52.0854 159.754 51.0739 156.74 51.1965C153.727 51.319 150.869 52.5667 148.73 54.6932" fill="white"/>
</g>
<defs>
<clipPath id="clip0_2_20274">
<rect width="220" height="220" fill="white" transform="translate(0.5)"/>
</clipPath>
</defs>
</svg>
