<svg width="221" height="220" viewBox="0 0 221 220" fill="none" xmlns="http://www.w3.org/2000/svg">
<g clip-path="url(#clip0_2_20270)">
<path d="M110.5 220C171.251 220 220.5 170.751 220.5 110C220.5 49.2487 171.251 0 110.5 0C49.7487 0 0.5 49.2487 0.5 110C0.5 170.751 49.7487 220 110.5 220Z" fill="#188C92"/>
<path d="M150.623 144.581C150.234 145.139 150.004 145.792 149.958 146.47C149.912 147.148 150.051 147.826 150.361 148.431L109.62 180.318C109.093 179.902 108.472 179.624 107.812 179.506L106.574 101.021C107.01 100.93 107.428 100.767 107.812 100.54L150.623 144.588V144.581ZM151.764 143.495L108.987 99.4813C109.33 99.02 109.562 98.4864 109.666 97.9214C109.769 97.3565 109.742 96.7752 109.586 96.2225L153.077 75.0475C153.643 75.7396 154.425 76.2214 155.298 76.4156L153.132 142.952C152.649 143.051 152.187 143.238 151.771 143.502L151.764 143.495ZM105.426 179.774L82.395 148.816C83.0773 148.112 83.4593 147.17 83.4606 146.19C83.443 145.212 83.0613 144.275 82.39 143.563C81.7188 142.851 80.8062 142.415 79.8306 142.34L72.6394 77.2544C73.4928 77.0599 74.2559 76.5839 74.8059 75.903C75.3559 75.2221 75.6607 74.3759 75.6713 73.5006C75.6704 72.606 75.3511 71.7408 74.7706 71.06L103.68 40.0331C104.051 40.2394 104.464 40.3975 104.904 40.4869V93.4519C104.012 93.6129 103.204 94.0788 102.619 94.7699C102.033 95.461 101.706 96.3342 101.693 97.24C101.708 98.1564 102.043 99.0386 102.641 99.7332C103.239 100.428 104.062 100.891 104.966 101.042L106.203 179.527C105.939 179.584 105.681 179.667 105.433 179.774H105.426ZM106.513 93.4519V40.4937C107.208 40.3559 107.855 40.0383 108.389 39.5725L152.575 71.0256C152.173 71.8514 152.09 72.7961 152.341 73.6794L108.857 94.8544C108.261 94.1315 107.432 93.6382 106.513 93.4587V93.4519ZM105.708 34.375C107.035 34.375 108.114 35.4131 108.114 36.6919C108.109 37.0025 108.043 37.309 107.919 37.5938C107.795 37.8787 107.616 38.1364 107.393 38.3522C107.169 38.568 106.905 38.7377 106.616 38.8515C106.327 38.9653 106.019 39.0211 105.708 39.0156C105.398 39.0211 105.089 38.9653 104.8 38.8515C104.511 38.7377 104.247 38.568 104.024 38.3522C103.8 38.1364 103.621 37.8787 103.498 37.5938C103.374 37.309 103.307 37.0025 103.302 36.6919C103.302 35.4131 104.374 34.375 105.708 34.375ZM71.6563 71.1838C72.99 71.1838 74.0625 72.215 74.0625 73.5006C74.0571 73.8112 73.9906 74.1177 73.8668 74.4026C73.7429 74.6875 73.5642 74.9452 73.3407 75.161C73.1173 75.3767 72.8535 75.5464 72.5645 75.6602C72.2755 75.7741 71.9668 75.8298 71.6563 75.8244C71.3457 75.8298 71.037 75.7741 70.748 75.6602C70.459 75.5464 70.1952 75.3767 69.9718 75.161C69.7483 74.9452 69.5696 74.6875 69.4457 74.4026C69.3219 74.1177 69.2554 73.8112 69.25 73.5006C69.25 72.2219 70.3294 71.1838 71.6563 71.1838ZM79.4456 143.866C80.7794 143.866 81.8519 144.904 81.8519 146.19C81.8392 146.816 81.5788 147.412 81.1277 147.846C80.6766 148.28 80.0717 148.518 79.4456 148.507C78.8195 148.518 78.2146 148.28 77.7635 147.846C77.3124 147.412 77.052 146.816 77.0394 146.19C77.0394 144.904 78.1187 143.866 79.4456 143.866ZM156.219 70.3312C157.546 70.3312 158.625 71.3694 158.625 72.6481C158.62 72.9587 158.553 73.2652 158.429 73.5501C158.305 73.835 158.127 74.0927 157.903 74.3085C157.68 74.5243 157.416 74.6939 157.127 74.8077C156.838 74.9216 156.529 74.9773 156.219 74.9719C155.908 74.9773 155.6 74.9216 155.311 74.8077C155.021 74.6939 154.758 74.5243 154.534 74.3085C154.311 74.0927 154.132 73.835 154.008 73.5501C153.884 73.2652 153.818 72.9587 153.812 72.6481C153.812 71.3694 154.885 70.3312 156.219 70.3312ZM105.708 94.9231C107.035 94.9231 108.114 95.9544 108.114 97.24C108.109 97.5506 108.043 97.8571 107.919 98.142C107.795 98.4268 107.616 98.6845 107.393 98.9003C107.169 99.1161 106.905 99.2858 106.616 99.3996C106.327 99.5134 106.019 99.5692 105.708 99.5638C105.398 99.5692 105.089 99.5134 104.8 99.3996C104.511 99.2858 104.247 99.1161 104.024 98.9003C103.8 98.6845 103.621 98.4268 103.498 98.142C103.374 97.8571 103.307 97.5506 103.302 97.24C103.302 95.9613 104.374 94.9231 105.708 94.9231ZM107.069 180.984C108.403 180.984 109.476 182.023 109.476 183.308C109.463 183.934 109.203 184.53 108.751 184.964C108.3 185.398 107.695 185.636 107.069 185.625C106.443 185.636 105.838 185.398 105.387 184.964C104.936 184.53 104.676 183.934 104.663 183.308C104.663 182.023 105.743 180.984 107.069 180.984ZM153.971 144.409C155.298 144.409 156.377 145.448 156.377 146.733C156.364 147.359 156.104 147.955 155.653 148.389C155.202 148.823 154.597 149.061 153.971 149.05C153.345 149.061 152.74 148.823 152.289 148.389C151.837 147.955 151.577 147.359 151.564 146.733C151.564 145.448 152.637 144.409 153.971 144.409Z" fill="white"/>
</g>
<defs>
<clipPath id="clip0_2_20270">
<rect width="220" height="220" fill="white" transform="translate(0.5)"/>
</clipPath>
</defs>
</svg>
