<svg width="221" height="220" viewBox="0 0 221 220" fill="none" xmlns="http://www.w3.org/2000/svg">
<g clip-path="url(#clip0_2_20266)">
<path d="M110.5 220C171.251 220 220.5 170.751 220.5 110C220.5 49.2487 171.251 0 110.5 0C49.7487 0 0.5 49.2487 0.5 110C0.5 170.751 49.7487 220 110.5 220Z" fill="#00AEEF"/>
<path d="M108.85 101.104C110.486 100.823 111.93 100.211 113.195 99.2826C114.46 98.3545 115.656 96.787 116.777 94.642L141.699 46.6064C142.675 44.9976 143.871 43.7189 145.246 42.7151C146.659 41.7379 148.341 41.226 150.059 41.2507H165.864L134.831 97.7495C133.456 100.073 131.895 101.964 130.156 103.428C128.418 104.873 126.437 105.998 124.305 106.749C127.632 107.608 130.417 109.004 132.693 110.963C134.934 112.888 137.072 115.611 139.059 119.11L168.938 178.751H151.544C148.031 178.751 145.205 176.86 143.074 173.113L118.585 122.575C117.32 120.32 115.945 118.718 114.46 117.749C112.982 116.786 111.098 116.216 108.857 116.071V141.715H95.1825V115.961H85.1313V178.751H65.8125V41.2507H85.1313V101.324H95.1825V71.6107H108.857V101.104H108.85Z" fill="white"/>
</g>
<defs>
<clipPath id="clip0_2_20266">
<rect width="220" height="220" fill="white" transform="translate(0.5)"/>
</clipPath>
</defs>
</svg>
