<svg width="221" height="220" viewBox="0 0 221 220" fill="none" xmlns="http://www.w3.org/2000/svg">
<g clip-path="url(#clip0_2_20262)">
<path d="M110.5 220C171.251 220 220.5 170.751 220.5 110C220.5 49.2487 171.251 0 110.5 0C49.7487 0 0.5 49.2487 0.5 110C0.5 170.751 49.7487 220 110.5 220Z" fill="#006149"/>
<path d="M166.71 118.141L161.231 116.773L162.895 110.105L179.979 114.374L175.716 131.458L169.041 129.795L170.519 123.868L109.524 161.633L41.8809 127.835V102.04L112.171 58.0814L176.624 89.5208V100.136L109.531 141.819L59.7077 117.117L62.7602 110.957L109.16 133.961L169.749 96.3133V93.8177L112.583 65.9327L48.7627 105.849V123.586L109.173 153.768L166.71 118.141Z" fill="white"/>
</g>
<defs>
<clipPath id="clip0_2_20262">
<rect width="220" height="220" fill="white" transform="translate(0.5)"/>
</clipPath>
</defs>
</svg>
