<svg width="221" height="220" viewBox="0 0 221 220" fill="none" xmlns="http://www.w3.org/2000/svg">
<g clip-path="url(#clip0_2_20258)">
<path d="M110.5 220C171.251 220 220.5 170.751 220.5 110C220.5 49.2487 171.251 0 110.5 0C49.7487 0 0.5 49.2487 0.5 110C0.5 170.751 49.7487 220 110.5 220Z" fill="#0FA9C9"/>
<path d="M118.386 140.566L80.9169 178.75L70.2331 167.028L96.2 140.559L69.25 113.107L80.7519 101.379L118.386 140.566ZM140.248 118.628L151.75 106.899L124.8 79.4338L150.767 52.9719L140.083 41.25L102.449 79.4338L140.248 118.628ZM85.5231 96.855L123.322 136.043L134.824 124.321L97.025 85.8L85.5231 96.855Z" fill="white"/>
</g>
<defs>
<clipPath id="clip0_2_20258">
<rect width="220" height="220" fill="white" transform="translate(0.5)"/>
</clipPath>
</defs>
</svg>
