<svg width="221" height="220" viewBox="0 0 221 220" fill="none" xmlns="http://www.w3.org/2000/svg">
<g clip-path="url(#clip0_2_20250)">
<path d="M110.5 220C171.251 220 220.5 170.751 220.5 110C220.5 49.2487 171.251 0 110.5 0C49.7487 0 0.5 49.2487 0.5 110C0.5 170.751 49.7487 220 110.5 220Z" fill="#11021E"/>
<path d="M75.6369 98.7669H75.7056L76.7575 99.1656L77.8781 99.5575L78.93 99.9562L80.0506 100.417L81.1025 100.816L82.2231 101.139L83.2819 101.537L84.3338 101.998L86.4444 102.789L87.565 103.119L88.6169 103.579L89.7375 103.978L90.7962 104.37L91.9169 104.769L92.9688 105.161L94.0894 105.559L95.1412 105.951L96.2619 106.35L97.3206 106.811L98.4413 107.141V91.7819H74.1175L73.0656 92.3112L70.5631 93.6312L67.9919 94.9444L65.4894 96.2644L62.98 97.5844L60.4087 98.9044L57.8444 100.217L55.335 101.537L52.8325 102.857L50.2612 104.171L47.7588 105.491L45.4488 106.742L45.1875 144.513L47.7588 146.294L50.2612 148.074L52.8325 149.786L57.8444 153.347L60.4087 155.121L61.5294 155.981L62.98 154.2L65.4894 150.9L65.6819 150.577L65.4894 150.377L62.98 148.597L60.4087 146.754L57.8444 144.974L55.335 143.193L52.8325 141.419L52.1106 140.952L52.3031 110.441L52.8325 110.179L55.335 108.928L57.8444 107.608L60.4087 106.419L62.98 105.106L65.4894 103.847L67.9919 102.596L70.5631 101.345L73.0656 100.094L75.6369 98.7669Z" fill="white"/>
<path d="M119.266 170.863L117.086 171.723L114.715 172.644L112.343 173.634L109.971 174.555L108.919 175.016L107.668 174.363L105.289 173.173L102.986 171.984L100.614 170.802L98.2421 169.612L95.8702 168.43L93.4984 167.24L91.1196 165.989L88.7477 164.868L86.4446 163.617L84.0727 162.428L81.7627 161.314L79.3909 160.056L79.1296 159.925V129.153H72.2752V164.147L81.7627 168.89L84.0727 170.073L86.4446 171.331L88.7477 172.452L91.1196 173.703L93.4984 174.885L95.8702 176.006L98.2421 177.257L102.986 179.629L105.289 180.818L108.589 182.468L109.971 181.87L112.343 180.949L114.715 180.028L117.086 179.038L119.458 178.048L121.837 177.195L119.458 171.262L119.266 170.863ZM161.375 127.963L161.513 142.525L160.853 142.992L156.831 145.825L152.878 148.726L148.856 151.558L144.834 154.46L140.75 157.223L136.797 160.125L132.775 163.026L130.403 164.738L128.753 163.418L124.8 160.393L120.778 157.292L116.756 154.26L112.803 151.167L112.081 150.699V135.024L112.803 134.364L116.756 130.143L120.778 125.99L124.8 121.776L128.753 117.623L132.645 113.54H84.7327L88.7477 117.754L92.7077 121.907L96.7915 126.059L100.813 130.273L104.766 134.426L105.289 135.024V153.999L108.788 156.701L112.803 159.733L116.756 162.833L120.778 165.858L124.8 168.959L128.753 171.991L130.266 173.18L132.775 171.338L136.797 168.498L140.75 165.604L144.834 162.765L148.856 159.932L152.878 157.1L156.831 154.198L160.853 151.366L164.868 148.533L168.168 146.093L168.821 128.232L164.868 128.101L161.375 127.963ZM51.7121 94.2828H52.1727L52.2415 74.909L54.8746 73.2591L58.0371 71.3547L61.2684 69.4434L64.3621 67.3947L67.5934 65.4834L70.7559 63.5103L73.9184 61.599L77.0809 59.6878L80.2434 57.7078L83.4746 55.7965L83.5434 55.7278L86.5752 57.5153L89.8065 59.289L96.1315 62.9809L99.294 64.7615L102.525 66.5422L105.619 68.3847L108.72 70.1034L108.857 69.8353L112.02 64.1703L108.857 62.3209L105.626 60.5403L102.525 58.7666L99.294 56.979L96.1315 55.0747L92.969 53.294L89.8065 51.5134L86.5752 49.7328L83.4815 47.9522L83.344 47.8834L80.2502 49.7397L77.0877 51.7128L73.9252 53.624L70.7627 55.5972L67.6002 57.5084L64.369 59.4197L61.2684 61.3997L58.0371 63.3109L54.8746 65.2909L51.7121 67.2641L48.5496 69.1753L45.4559 71.0865L45.3184 94.2209H48.5496L51.7121 94.2828Z" fill="white"/>
<path d="M175.606 76.4913L174.025 75.24L172.32 73.8581L170.67 72.5381L169.02 71.2181L167.37 69.8431L165.72 68.585L164.015 67.265L162.365 65.8831L160.646 64.5631L159.463 63.5731L159.003 64.1025L157.353 66.1444L155.641 68.255L155.249 68.8462L155.641 69.3069L157.36 70.6956L159.01 72.0088L160.653 73.4594L162.365 74.8481L164.015 76.2231L165.726 77.6806L167.376 79.0625L168.167 79.7225L168.236 110.894L167.376 111.423L165.726 112.544L164.008 113.534L162.365 114.654L160.646 115.637L159.003 116.758L157.353 117.748L155.641 118.869L153.991 119.859L152.341 120.979L150.698 121.969L149.048 123.09L147.336 124.073L145.686 125.194L144.043 126.184L142.393 127.304L140.681 128.294L142.4 130.928L144.05 133.629L144.373 134.09L145.693 133.237L147.343 132.179L149.055 131.196L150.705 130.137L152.348 129.085L153.998 128.033L155.648 127.043L157.353 125.984L159.003 125.001L160.653 123.942L162.365 122.891L164.015 121.832L165.726 120.849L167.376 119.79L169.026 118.807L170.67 117.748L172.32 116.696L174.031 115.637L175.681 114.654L175.606 76.4913ZM121.307 95.0812V108.591L121.836 108.384L124.009 107.47L126.25 106.611L128.423 105.689L130.664 104.83L132.905 103.909L135.078 102.987L137.319 102.128L139.56 101.207L141.74 100.347L143.974 99.4263L146.153 98.5738V57.7087L143.651 56.1962L141.08 54.7456L138.57 53.2331L136.006 51.7137L133.435 50.2631L130.863 48.7506L128.361 47.2312L125.851 45.7875L123.28 44.2681L120.716 42.7556L118.145 41.2981L115.635 39.7856L113.133 38.2731L110.561 36.8156L109.248 36.0938L107.997 36.685L105.426 38.1356L102.916 39.4556L100.414 40.8375L97.8427 42.2881L95.2714 43.6081L92.707 44.99L95.2714 46.5025L97.8427 47.9531L99.4239 48.8813L100.414 48.4206L102.916 47.0319L105.426 45.7188L107.997 44.3988L109.049 43.8694L110.561 44.7288L113.133 46.2412L118.145 49.1425L123.28 52.1744L125.851 53.6181L130.863 56.6569L133.435 58.1006L138.57 61.1394L139.361 61.5312V91.6506H121.369" fill="white"/>
<path d="M121.308 108.591L146.154 98.5741L121.239 91.651L121.308 108.591ZM98.4417 108.591V91.9123L75.6992 98.7047L98.4417 108.522" fill="white"/>
</g>
<defs>
<clipPath id="clip0_2_20250">
<rect width="220" height="220" fill="white" transform="translate(0.5)"/>
</clipPath>
</defs>
</svg>
