<svg width="221" height="220" viewBox="0 0 221 220" fill="none" xmlns="http://www.w3.org/2000/svg">
<g clip-path="url(#clip0_2_20243)">
<path d="M110.5 220C171.251 220 220.5 170.751 220.5 110C220.5 49.2487 171.251 0 110.5 0C49.7487 0 0.5 49.2487 0.5 110C0.5 170.751 49.7487 220 110.5 220Z" fill="#2A5ADA"/>
<path d="M110.5 41.25L98.1319 48.5031L64.4375 68.3719L52.0625 75.625V144.375L64.4306 151.628L98.4413 171.497L110.809 178.75L123.177 171.497L156.569 151.628L168.938 144.375V75.625L156.569 68.3719L122.868 48.5031L110.5 41.25ZM76.7987 129.869V90.1312L110.5 70.2625L144.201 90.1312V129.869L110.5 149.738L76.7987 129.869Z" fill="white"/>
</g>
<defs>
<clipPath id="clip0_2_20243">
<rect width="220" height="220" fill="white" transform="translate(0.5)"/>
</clipPath>
</defs>
</svg>
