<svg width="221" height="220" viewBox="0 0 221 220" fill="none" xmlns="http://www.w3.org/2000/svg">
<g clip-path="url(#clip0_2_20247)">
<path d="M110.5 220C171.251 220 220.5 170.751 220.5 110C220.5 49.2487 171.251 0 110.5 0C49.7487 0 0.5 49.2487 0.5 110C0.5 170.751 49.7487 220 110.5 220Z" fill="white"/>
<path d="M110.5 29.2L95.67 37.7299L55.27 61.08L40.5 69.5999V150.4L55.32 158.92L96.1 182.28L110.92 190.8L125.75 182.28L165.75 158.92L180.57 150.4V69.5999L165.75 61.08L125.35 37.7299L110.5 29.2ZM70.1 133.35V86.65L110.5 63.2999L150.9 86.65V133.35L110.5 156.7L70.1 133.35Z" fill="#2A5ADA"/>
</g>
<defs>
<clipPath id="clip0_2_20247">
<rect width="220" height="220" fill="white" transform="translate(0.5)"/>
</clipPath>
</defs>
</svg>
