<svg width="221" height="220" viewBox="0 0 221 220" fill="none" xmlns="http://www.w3.org/2000/svg">
<g clip-path="url(#clip0_2_20239)">
<path d="M110.5 220C171.251 220 220.5 170.751 220.5 110C220.5 49.2487 171.251 0 110.5 0C49.7487 0 0.5 49.2487 0.5 110C0.5 170.751 49.7487 220 110.5 220Z" fill="#9D01EB"/>
<path d="M69.2844 178.75V153.615L110.5 111.65L151.585 153.622V178.75L110.5 136.771L69.2844 178.75ZM34.875 93.7269H93.0994L110.5 111.65H52.2756L34.875 93.7269ZM186.125 93.7269L168.724 111.643H110.5V34.375L127.901 52.1537V93.7269H186.125Z" fill="white"/>
</g>
<defs>
<clipPath id="clip0_2_20239">
<rect width="220" height="220" fill="white" transform="translate(0.5)"/>
</clipPath>
</defs>
</svg>
