<svg width="221" height="220" viewBox="0 0 221 220" fill="none" xmlns="http://www.w3.org/2000/svg">
<g clip-path="url(#clip0_2_20232)">
<path d="M110.5 220C171.251 220 220.5 170.751 220.5 110C220.5 49.2487 171.251 0 110.5 0C49.7487 0 0.5 49.2487 0.5 110C0.5 170.751 49.7487 220 110.5 220Z" fill="#48BEFF"/>
<path d="M153.083 180.393L40.4435 101.365C36.6052 98.6717 33.472 95.0936 31.3089 90.9333C29.1459 86.773 28.0166 82.153 28.0166 77.4641C28.0166 72.7751 29.1459 68.1551 31.3089 63.9948C33.472 59.8346 36.6052 56.2565 40.4435 53.5631L67.7372 34.375L180.391 113.396C184.229 116.09 187.362 119.668 189.525 123.828C191.689 127.988 192.818 132.608 192.818 137.297C192.818 141.986 191.689 146.606 189.525 150.766C187.362 154.927 184.229 158.505 180.391 161.198L153.083 180.393ZM67.7097 47.1831L46.4453 62.0606C43.9718 63.7902 41.952 66.091 40.5574 68.7678C39.1628 71.4446 38.4347 74.4183 38.4347 77.4366C38.4347 80.4548 39.1628 83.4286 40.5574 86.1053C41.952 88.7821 43.9718 91.0829 46.4453 92.8125L153.104 167.592L174.375 152.714C176.849 150.985 178.869 148.684 180.263 146.007C181.658 143.33 182.386 140.357 182.386 137.338C182.386 134.32 181.658 131.346 180.263 128.67C178.869 125.993 176.849 123.692 174.375 121.963L67.7097 47.1831Z" fill="white"/>
<path d="M67.6204 167.592L46.3766 152.694C43.903 150.964 41.8833 148.663 40.4887 145.987C39.0941 143.31 38.3659 140.336 38.3659 137.318C38.3659 134.3 39.0941 131.326 40.4887 128.649C41.8833 125.972 43.903 123.672 46.3766 121.942L101.377 83.5588L92.3016 77.1788L40.4366 113.396C36.5983 116.09 33.4651 119.668 31.3021 123.828C29.1391 127.988 28.0098 132.608 28.0098 137.297C28.0098 141.986 29.1391 146.606 31.3021 150.767C33.4651 154.927 36.5983 158.505 40.4366 161.198L67.641 180.304L101.308 156.729L92.2741 150.363L67.6204 167.592ZM180.419 53.6044L153.193 34.5126L119.506 58.087L128.54 64.4463L153.152 47.2244L174.396 62.1226C176.87 63.8521 178.889 66.153 180.284 68.8297C181.678 71.5065 182.407 74.4802 182.407 77.4985C182.407 80.5168 181.678 83.4905 180.284 86.1673C178.889 88.8441 176.87 91.1449 174.396 92.8745L119.396 131.251L128.437 137.617L180.37 101.338C184.209 98.6442 187.342 95.0661 189.505 90.9059C191.668 86.7456 192.797 82.1256 192.797 77.4366C192.797 72.7477 191.668 68.1277 189.505 63.9674C187.342 59.8071 184.209 56.229 180.37 53.5357L180.425 53.6044H180.419Z" fill="white"/>
<path d="M46.8789 108.823L89.7102 78.8345L95.6777 87.3595L52.8395 117.348L46.8789 108.823ZM168.91 96.737L148.045 111.346L154.012 119.878L175.613 104.726C173.317 102.099 171.096 99.4182 168.869 96.7301L168.91 96.737Z" fill="white"/>
</g>
<defs>
<clipPath id="clip0_2_20232">
<rect width="220" height="220" fill="white" transform="translate(0.5)"/>
</clipPath>
</defs>
</svg>
