<svg width="221" height="220" viewBox="0 0 221 220" fill="none" xmlns="http://www.w3.org/2000/svg">
<g clip-path="url(#clip0_2_20228)">
<path d="M110.5 220C171.251 220 220.5 170.751 220.5 110C220.5 49.2487 171.251 0 110.5 0C49.7487 0 0.5 49.2487 0.5 110C0.5 170.751 49.7487 220 110.5 220Z" fill="black"/>
<path fill-rule="evenodd" clip-rule="evenodd" d="M98.2969 161.446H122.414V185.563H98.2969V161.446ZM98.2969 55H122.414V79.1175H98.2969V55ZM155.133 55H179.25V79.1175H155.133V55ZM41.75 55H65.8675V79.1175H41.75V55ZM126.711 108.226H150.829V132.344H126.711V108.226ZM69.8206 108.226H93.9381V132.344H69.8206V108.226Z" fill="white"/>
</g>
<defs>
<clipPath id="clip0_2_20228">
<rect width="220" height="220" fill="white" transform="translate(0.5)"/>
</clipPath>
</defs>
</svg>
