<svg width="221" height="220" viewBox="0 0 221 220" fill="none" xmlns="http://www.w3.org/2000/svg">
<g clip-path="url(#clip0_2_20220)">
<path d="M110.5 220C171.251 220 220.5 170.751 220.5 110C220.5 49.2487 171.251 0 110.5 0C49.7487 0 0.5 49.2487 0.5 110C0.5 170.751 49.7487 220 110.5 220Z" fill="#0D4EA0"/>
<path d="M98.4619 171.586C98.3656 171.682 98.1731 171.779 98.0769 171.875H87.4069C87.2144 171.875 87.1181 171.779 87.0219 171.682L55.5687 136.153C55.5229 136.064 55.499 135.967 55.499 135.867C55.499 135.768 55.5229 135.67 55.5687 135.582L94.7425 67.9662C94.935 67.6844 95.4094 67.6844 95.6019 67.9662L106.561 86.9275C106.657 87.0238 106.657 87.2162 106.561 87.4087L80.0644 133.093C79.9681 133.279 80.0644 133.471 80.1606 133.664L95.98 151.477C96.0858 151.579 96.2201 151.646 96.365 151.669H115.044C115.526 151.669 115.711 152.151 115.422 152.433L98.4619 171.586ZM110.081 41.5388C110.28 41.1538 110.754 41.1538 110.851 41.5388L165.459 135.382C165.555 135.582 165.459 135.774 165.362 135.96L133.916 171.49C133.81 171.592 133.676 171.659 133.531 171.682H107.991C107.509 171.682 107.324 171.201 107.612 170.919L124.669 151.573L140.681 133.567C140.874 133.375 140.874 133.182 140.777 132.997L110.466 80.7056L99.0325 60.9744C98.9362 60.885 98.9362 60.6925 99.0325 60.4931L110.081 41.5388Z" fill="white"/>
</g>
<defs>
<clipPath id="clip0_2_20220">
<rect width="220" height="220" fill="white" transform="translate(0.5)"/>
</clipPath>
</defs>
</svg>
