<svg width="221" height="220" viewBox="0 0 221 220" fill="none" xmlns="http://www.w3.org/2000/svg">
<g clip-path="url(#clip0_2_20216)">
<path d="M110.5 0C81.4337 0.0847884 53.5891 11.7018 33.081 32.2998C12.5729 52.8979 1.07784 80.793 1.12023 109.86C1.16263 138.926 12.739 166.788 33.3071 187.326C53.8752 207.864 81.7536 219.4 110.82 219.4C139.887 219.4 167.765 207.864 188.333 187.326C208.901 166.788 220.478 138.926 220.52 109.86C220.562 80.793 209.067 52.8979 188.559 32.2998C168.051 11.7018 140.207 0.0847884 111.14 0L110.5 0Z" fill="#345D9D"/>
<path d="M112.5 112.46L102.81 145H154.37C154.711 144.983 155.052 145.037 155.37 145.16C155.688 145.279 155.981 145.459 156.23 145.69C156.478 145.926 156.678 146.208 156.82 146.52C156.97 146.833 157.052 147.173 157.06 147.52V148.37L152.57 163.84C152.378 164.574 151.936 165.217 151.32 165.66C150.71 166.108 149.966 166.333 149.21 166.3H70.3102L83.5302 121.3L68.7402 125.78L72.1002 115.47L86.8902 110.98L105.5 47.68C105.702 46.9507 106.146 46.3122 106.76 45.87C107.367 45.4225 108.106 45.1903 108.86 45.21H128.86C129.201 45.2013 129.541 45.259 129.86 45.38C130.183 45.4971 130.478 45.6773 130.73 45.91C130.983 46.1425 131.184 46.4252 131.32 46.74C131.464 47.0544 131.542 47.3946 131.55 47.74V48.6L115.86 101.95L130.66 97.46L127.5 108.2L112.5 112.46Z" fill="white"/>
</g>
<defs>
<clipPath id="clip0_2_20216">
<rect width="220" height="220" fill="white" transform="translate(0.5)"/>
</clipPath>
</defs>
</svg>
