<svg width="221" height="220" viewBox="0 0 221 220" fill="none" xmlns="http://www.w3.org/2000/svg">
<g clip-path="url(#clip0_2_20208)">
<path d="M110.5 220C171.251 220 220.5 170.751 220.5 110C220.5 49.2487 171.251 0 110.5 0C49.7487 0 0.5 49.2487 0.5 110C0.5 170.751 49.7487 220 110.5 220Z" fill="#F55749"/>
<path d="M109.214 41.5799C109.605 41.3613 110.045 41.2466 110.493 41.2466C110.941 41.2466 111.381 41.3613 111.772 41.5799L168.319 73.3287C168.705 73.5419 169.027 73.8545 169.252 74.234C169.477 74.6136 169.596 75.0463 169.598 75.4874C169.598 76.3812 169.116 77.2062 168.326 77.6462L119.135 105.38C117.4 103.408 115.037 102.096 112.446 101.667V86.5906C117.774 85.7037 121.837 81.1937 121.837 75.7418C121.837 69.6574 116.777 64.7212 110.527 64.7212C104.278 64.7212 99.2181 69.6574 99.2181 75.7418C99.2181 81.1593 103.24 85.6556 108.527 86.5768V101.688C105.971 102.128 103.642 103.428 101.927 105.373L52.7431 77.7562C52.3556 77.5448 52.032 77.233 51.8064 76.8535C51.5807 76.4741 51.4613 76.0409 51.4606 75.5995C51.4599 75.158 51.578 74.7245 51.8024 74.3443C52.0268 73.9641 52.3494 73.6513 52.7363 73.4387L109.221 41.6006L109.214 41.5799ZM168.484 81.5924C168.873 81.3715 169.314 81.2548 169.762 81.2536C170.21 81.2524 170.65 81.3667 171.041 81.5856C171.428 81.799 171.751 82.1114 171.976 82.4908C172.202 82.8701 172.323 83.3028 172.327 83.7443L172.375 145.386C172.375 146.279 171.894 147.097 171.096 147.544L116.337 178.413C114.639 179.376 112.507 178.172 112.507 176.254L112.459 123.365C115.113 122.925 117.519 121.571 119.245 119.549L132.926 127.215C132.549 128.622 132.463 130.091 132.672 131.532C133.538 137.562 139.265 141.756 145.446 140.91C151.633 140.057 155.937 134.482 155.071 128.452C154.204 122.423 148.471 118.229 142.29 119.082C140.754 119.287 139.276 119.806 137.949 120.607C136.622 121.408 135.474 122.473 134.576 123.736L121.17 116.222C122.132 113.671 122.064 110.859 120.998 108.35L168.491 81.5787L168.484 81.5924ZM48.68 83.7374C48.68 82.2799 49.9038 81.2418 51.2375 81.2418C51.6844 81.2418 52.1312 81.3587 52.5162 81.5856L100.057 108.384C99.005 110.887 98.95 113.678 99.8988 116.222L86.4994 123.736C85.6011 122.473 84.4529 121.408 83.126 120.608C81.799 119.807 80.3217 119.288 78.7856 119.082C72.5981 118.229 66.885 122.43 66.0119 128.452C65.1388 134.475 69.4494 140.051 75.6369 140.903C81.8244 141.756 87.5306 137.555 88.4106 131.532C88.6208 130.089 88.5343 128.617 88.1562 127.208L101.831 119.542C103.543 121.55 105.921 122.897 108.547 123.351L108.506 176.254C108.506 178.172 106.375 179.369 104.67 178.406L49.9037 147.537C49.5176 147.324 49.1954 147.012 48.9705 146.632C48.7457 146.253 48.6264 145.82 48.625 145.379L48.68 83.7374Z" fill="white"/>
</g>
<defs>
<clipPath id="clip0_2_20208">
<rect width="220" height="220" fill="white" transform="translate(0.5)"/>
</clipPath>
</defs>
</svg>
