<svg width="221" height="220" viewBox="0 0 221 220" fill="none" xmlns="http://www.w3.org/2000/svg">
<g clip-path="url(#clip0_2_20202)">
<path d="M110.5 220C171.251 220 220.5 170.751 220.5 110C220.5 49.2487 171.251 0 110.5 0C49.7487 0 0.5 49.2487 0.5 110C0.5 170.751 49.7487 220 110.5 220Z" fill="#172852"/>
<path d="M89.1059 49.1595C101.987 44.3415 116.485 44.3305 129.608 48.2905C146.691 53.5925 161.112 66.4845 168.647 82.6655C170.726 87.2745 172.717 92.0815 172.915 97.2075C163.312 91.6415 152.785 88.0335 142.236 84.7445C125.362 78.6615 107.696 74.4375 91.7239 66.0775C88.0059 63.8555 83.2649 61.5785 82.2529 56.9475C81.8459 52.9435 86.0809 50.7105 89.1059 49.1595Z" fill="#FFD83D"/>
<path d="M50.2204 88.0998C53.9494 77.9798 60.0654 68.5858 68.3704 61.6228C70.4824 78.9918 77.8744 95.7778 90.0844 108.406C104.725 123.619 125.581 132.958 146.8 132.606C155.226 132.87 163.465 130.923 171.682 129.35C163.597 158.566 131.576 177.959 101.909 173.295C84.0014 171.007 67.4684 160.403 57.4914 145.432C46.2384 128.888 43.4004 106.921 50.2204 88.0998Z" fill="#FFD83D"/>
<path d="M142.235 84.7441C152.784 88.0331 163.311 91.6411 172.914 97.2071L173.563 97.5481C174.454 104.247 175.103 111.078 173.915 117.788C169.086 115.742 165.17 112.145 161.078 108.966C153.202 102.41 145.161 94.9081 142.235 84.7441Z" fill="#FF6F03"/>
</g>
<defs>
<clipPath id="clip0_2_20202">
<rect width="220" height="220" fill="white" transform="translate(0.5)"/>
</clipPath>
</defs>
</svg>
