<svg width="221" height="220" viewBox="0 0 221 220" fill="none" xmlns="http://www.w3.org/2000/svg">
<g clip-path="url(#clip0_2_20195)">
<path d="M110.5 220C171.251 220 220.5 170.751 220.5 110C220.5 49.2487 171.251 0 110.5 0C49.7487 0 0.5 49.2487 0.5 110C0.5 170.751 49.7487 220 110.5 220Z" fill="#5592D7"/>
<path d="M139.691 87.0857V176.275L64.369 132.914C42.094 119.873 43.5102 111.76 43.5102 94.1395L120.943 138.909V98.0101L139.685 87.0789L139.691 87.0857Z" fill="white"/>
<path opacity="0.6" d="M120.951 138.91L43.5176 94.1328L118.826 50.7722C141.101 38.0741 147.468 43.3678 163.026 52.1816L85.5926 96.9584L120.951 117.405V138.91Z" fill="white"/>
<path opacity="0.2" d="M85.5928 96.9572L163.026 52.1803V138.908C163.026 164.648 155.25 167.467 139.692 176.281V87.0847L103.97 107.524L85.5859 96.9503L85.5928 96.9572Z" fill="white"/>
</g>
<defs>
<clipPath id="clip0_2_20195">
<rect width="220" height="220" fill="white" transform="translate(0.5)"/>
</clipPath>
</defs>
</svg>
