<svg width="221" height="220" viewBox="0 0 221 220" fill="none" xmlns="http://www.w3.org/2000/svg">
<g clip-path="url(#clip0_2_20190)">
<path d="M110.5 220C171.251 220 220.5 170.751 220.5 110C220.5 49.2487 171.251 0 110.5 0C49.7487 0 0.5 49.2487 0.5 110C0.5 170.751 49.7487 220 110.5 220Z" fill="#FF2D55"/>
<path d="M88.452 79.2963L40.0176 137.418C36.6044 128.68 34.8601 119.38 34.8751 110C34.8751 68.2206 68.7207 34.375 110.5 34.375C152.286 34.375 186.125 68.2206 186.125 110C186.125 133.1 175.764 153.787 159.429 167.661H61.5707C57.287 163.99 53.408 159.871 50.0001 155.375H136.364V122.629L163.623 155.375H171L136.329 113.781L126.759 125.276L88.4588 79.2963H88.452ZM136.336 64.625C131.41 64.7579 126.731 66.808 123.294 70.3392C119.856 73.8703 117.933 78.6035 117.933 83.5312C117.933 88.459 119.856 93.1922 123.294 96.7233C126.731 100.254 131.41 102.305 136.336 102.438C141.262 102.305 145.942 100.254 149.379 96.7233C152.816 93.1922 154.74 88.459 154.74 83.5312C154.74 78.6035 152.816 73.8703 149.379 70.3392C145.942 66.808 141.262 64.7579 136.336 64.625ZM88.4657 50.9369C87.2024 50.9028 85.9451 51.1222 84.768 51.5821C83.5909 52.042 82.5178 52.7332 81.6123 53.6147C80.7067 54.4961 79.9869 55.5501 79.4954 56.7144C79.0039 57.8787 78.7507 59.1297 78.7507 60.3934C78.7507 61.6572 79.0039 62.9082 79.4954 64.0724C79.9869 65.2367 80.7067 66.2907 81.6123 67.1722C82.5178 68.0537 83.5909 68.7448 84.768 69.2047C85.9451 69.6647 87.2024 69.8841 88.4657 69.85C90.9296 69.7836 93.2703 68.7581 94.9895 66.9919C96.7087 65.2257 97.6707 62.8582 97.6707 60.3934C97.6707 57.9286 96.7087 55.5612 94.9895 53.795C93.2703 52.0288 90.9296 51.0033 88.4657 50.9369ZM69.1745 173.333H151.833C139.545 181.365 125.18 185.638 110.5 185.625C95.8222 185.636 81.46 181.364 69.1745 173.333ZM123.095 129.704L106.416 149.703H46.1432C43.735 145.801 41.6847 141.689 40.0176 137.418H88.4588V88.1375L123.095 129.697V129.704Z" fill="#16141A"/>
</g>
<defs>
<clipPath id="clip0_2_20190">
<rect width="220" height="220" fill="white" transform="translate(0.5)"/>
</clipPath>
</defs>
</svg>
