<svg width="221" height="220" viewBox="0 0 221 220" fill="none" xmlns="http://www.w3.org/2000/svg">
<g clip-path="url(#clip0_2_20187)">
<path d="M110.5 220C171.252 220 220.5 170.752 220.5 110C220.5 49.2479 171.252 0 110.5 0C49.7479 0 0.5 49.2479 0.5 110C0.5 170.752 49.7479 220 110.5 220Z" fill="#2B6DEF"/>
<path fill-rule="evenodd" clip-rule="evenodd" d="M156.338 55L133.449 68.1977H133.426V94.5954L133.346 94.6069L64.669 55L41.7615 68.2L41.75 68.1954V150.265L64.6552 163.471L64.669 163.366V163.465L87.5833 150.265V121.023L110.45 134.2L110.463 134.228L110.482 134.216L133.43 121.08V150.276L156.239 163.421V163.49L156.297 163.455L156.338 163.478L156.37 163.414L179.149 150.29V68.2688L179.252 68.2092L156.338 55Z" fill="white"/>
</g>
<defs>
<clipPath id="clip0_2_20187">
<rect width="220" height="220" fill="white" transform="translate(0.5)"/>
</clipPath>
</defs>
</svg>
