<svg width="221" height="220" viewBox="0 0 221 220" fill="none" xmlns="http://www.w3.org/2000/svg">
<g clip-path="url(#clip0_2_20183)">
<path d="M110.5 220C171.251 220 220.5 170.751 220.5 110C220.5 49.2487 171.251 0 110.5 0C49.7487 0 0.5 49.2487 0.5 110C0.5 170.751 49.7487 220 110.5 220Z" fill="#033B4A"/>
<path d="M107.282 48.5655C111.111 47.4449 115.175 48.5861 118.481 50.5868C133.229 59.0335 148.043 67.364 162.921 75.5774C168.648 78.6093 172.457 84.8311 172.375 91.2524C172.361 112.524 172.306 133.809 172.34 155.08C172.574 156.558 171.57 158.242 169.893 158.091C163.286 158.132 156.679 158.105 150.072 158.098C148.628 158.311 147.24 157.101 147.391 155.637C146.758 137.521 146.999 119.385 147.185 101.256C147.185 98.9868 146.745 96.5943 145.28 94.7586C143.795 92.813 141.451 91.8161 139.354 90.6611C135.916 88.8599 132.678 86.6805 129.117 85.1061C127.77 84.5699 126.016 83.9924 124.745 85.0168C123.335 86.3436 123.349 88.4405 123.205 90.228C122.945 99.1175 122.919 108.012 123.129 116.903C123.122 119.007 123.191 121.454 121.582 123.091C119.939 124.699 117.457 124.727 115.298 124.761C111.393 124.72 107.488 124.864 103.597 124.672C101.947 124.493 99.9671 124.397 98.8946 122.953C97.9321 121.53 97.9733 119.736 97.8908 118.099C97.8702 108.756 97.9871 99.4061 97.8908 90.0699C97.7946 88.4199 97.8221 86.5636 96.6533 85.2574C95.5327 84.1024 93.7452 84.4805 92.3977 84.9686C89.4758 86.1099 86.8565 87.8561 84.0858 89.2999C81.3152 90.8949 78.3383 92.2561 75.9596 94.4286C74.4127 95.838 74.0002 97.983 73.9521 99.963C73.9177 118.319 73.9727 136.662 73.8146 155.018C73.9727 156.407 73.1477 158.098 71.5252 158.071C64.719 158.153 57.9127 158.105 51.1065 158.091C49.7452 158.222 48.494 157.026 48.6315 155.671C48.9065 133.362 48.7346 111.046 48.7552 88.7293C48.6913 86.3958 49.2715 84.0898 50.4321 82.0644C51.5928 80.0391 53.289 78.3726 55.3346 77.248C70.8377 68.558 86.3683 59.923 101.81 51.1299C103.556 50.1399 105.316 49.1018 107.282 48.5655Z" fill="white"/>
</g>
<defs>
<clipPath id="clip0_2_20183">
<rect width="220" height="220" fill="white" transform="translate(0.5)"/>
</clipPath>
</defs>
</svg>
