<svg width="221" height="220" viewBox="0 0 221 220" fill="none" xmlns="http://www.w3.org/2000/svg">
<g clip-path="url(#clip0_2_20179)">
<path d="M110.5 220C171.251 220 220.5 170.751 220.5 110C220.5 49.2487 171.251 0 110.5 0C49.7487 0 0.5 49.2487 0.5 110C0.5 170.751 49.7487 220 110.5 220Z" fill="#103F68"/>
<path d="M110.362 34.4991L175.812 72.1948V147.82L110.438 185.625L109.909 185.495L45.1875 147.82V72.1948L109.909 34.4991H110.362ZM110.149 42.3229L52.0625 76.1479V143.867L110.143 177.685L117.237 173.58L168.938 143.846V76.1616L117.237 46.2554L110.149 42.3229ZM61.0619 115.267L78.2563 102.41L93.4569 112.118V129.58L104.959 140.663L104.952 145.86L93.8694 156.242H84.5125L61.0688 115.267H61.0619ZM115.395 145.874L115.374 140.649L126.835 129.58V112.118L141.871 102.287L159.031 115.274L135.704 156.125H126.464L115.395 145.874ZM99.1012 112.118L93.505 97.4673H126.766L121.28 112.118L122.903 128.494L110.067 128.522L97.3825 128.542L99.1012 112.118ZM110.067 93.4523L78.4556 93.4385L84.3338 67.176H135.649L141.836 93.4729L110.067 93.4523Z" fill="white"/>
</g>
<defs>
<clipPath id="clip0_2_20179">
<rect width="220" height="220" fill="white" transform="translate(0.5)"/>
</clipPath>
</defs>
</svg>
