<svg width="221" height="220" viewBox="0 0 221 220" fill="none" xmlns="http://www.w3.org/2000/svg">
<g clip-path="url(#clip0_2_20175)">
<path d="M110.5 220C171.251 220 220.5 170.751 220.5 110C220.5 49.2487 171.251 0 110.5 0C49.7487 0 0.5 49.2487 0.5 110C0.5 170.751 49.7487 220 110.5 220Z" fill="#01A64F"/>
<path d="M142.558 54.945C150.918 63.8825 155.188 75.1025 155.188 88.22C155.188 101.537 150.918 112.764 142.551 121.701C135.862 128.734 127.873 132.914 118.585 134.441V142.237H137.532V150.796H118.393V155.361H137.532V163.343H118.585V178.75H102.415V163.35H83.6462V155.361H102.601V150.796H83.6531V142.237H102.422V134.248C93.3125 132.729 85.3237 128.542 78.6344 121.509C70.0887 112.571 65.8125 101.344 65.8125 88.0344C65.8125 74.5319 69.9031 63.3119 78.4488 54.56C86.9875 45.6225 97.5887 41.25 110.596 41.25C123.418 41.25 134.006 45.6225 142.558 54.945ZM125.089 105.724C128.616 101.159 130.479 95.26 130.479 88.0344C130.479 81.0013 128.623 75.1094 124.718 70.5375C121.005 65.7869 116.172 63.5044 110.596 63.5044C104.835 63.5044 100.009 65.7869 96.2894 70.3519C92.5631 74.9169 90.7069 80.6162 90.7069 87.8487C90.7069 95.26 92.57 101.159 96.2894 105.724C100.009 110.289 104.835 112.571 110.589 112.571C116.543 112.571 121.555 110.289 125.089 105.724Z" fill="white"/>
</g>
<defs>
<clipPath id="clip0_2_20175">
<rect width="220" height="220" fill="white" transform="translate(0.5)"/>
</clipPath>
</defs>
</svg>
