<svg width="221" height="220" viewBox="0 0 221 220" fill="none" xmlns="http://www.w3.org/2000/svg">
<g clip-path="url(#clip0_2_20171)">
<path d="M110.5 220C171.251 220 220.5 170.751 220.5 110C220.5 49.2487 171.251 0 110.5 0C49.7487 0 0.5 49.2487 0.5 110C0.5 170.751 49.7487 220 110.5 220Z" fill="#1E252C"/>
<path d="M98.2625 107.174C95.5147 107.174 92.8794 106.083 90.9364 104.14C88.9934 102.197 87.9019 99.5615 87.9019 96.8137C87.9019 94.0659 88.9934 91.4307 90.9364 89.4877C92.8794 87.5447 95.5147 86.4531 98.2625 86.4531C101.01 86.4531 103.646 87.5447 105.589 89.4877C107.532 91.4307 108.623 94.0659 108.623 96.8137C108.623 99.5615 107.532 102.197 105.589 104.14C103.646 106.083 101.01 107.174 98.2625 107.174ZM123.686 107.174C120.938 107.174 118.303 106.083 116.36 104.14C114.417 102.197 113.326 99.5615 113.326 96.8137C113.326 94.0659 114.417 91.4307 116.36 89.4877C118.303 87.5447 120.938 86.4531 123.686 86.4531C126.434 86.4531 129.069 87.5447 131.012 89.4877C132.955 91.4307 134.047 94.0659 134.047 96.8137C134.047 99.5615 132.955 102.197 131.012 104.14C129.069 106.083 126.434 107.174 123.686 107.174ZM98.2556 132.605C95.5078 132.605 92.8726 131.513 90.9296 129.57C88.9866 127.627 87.895 124.992 87.895 122.244C87.895 119.497 88.9866 116.861 90.9296 114.918C92.8726 112.975 95.5078 111.884 98.2556 111.884C101.003 111.884 103.639 112.975 105.582 114.918C107.525 116.861 108.616 119.497 108.616 122.244C108.616 124.992 107.525 127.627 105.582 129.57C103.639 131.513 101.003 132.605 98.2556 132.605ZM123.686 132.605C120.938 132.605 118.303 131.513 116.36 129.57C114.417 127.627 113.326 124.992 113.326 122.244C113.326 119.497 114.417 116.861 116.36 114.918C118.303 112.975 120.938 111.884 123.686 111.884C126.434 111.884 129.069 112.975 131.012 114.918C132.955 116.861 134.047 119.497 134.047 122.244C134.047 124.992 132.955 127.627 131.012 129.57C129.069 131.513 126.434 132.605 123.686 132.605ZM149.11 104.349C148.12 104.349 147.141 104.154 146.226 103.775C145.312 103.396 144.482 102.841 143.782 102.142C143.082 101.442 142.527 100.611 142.149 99.6973C141.77 98.7831 141.575 97.8032 141.575 96.8137C141.575 95.8242 141.77 94.8444 142.149 93.9302C142.527 93.016 143.082 92.1854 143.782 91.4857C144.482 90.786 145.312 90.231 146.226 89.8523C147.141 89.4736 148.12 89.2787 149.11 89.2787C151.108 89.2787 153.025 90.0726 154.438 91.4857C155.851 92.8988 156.645 94.8153 156.645 96.8137C156.645 98.8121 155.851 100.729 154.438 102.142C153.025 103.555 151.108 104.349 149.11 104.349ZM149.11 129.779C147.112 129.779 145.195 128.985 143.782 127.572C142.369 126.159 141.575 124.243 141.575 122.244C141.575 120.246 142.369 118.329 143.782 116.916C145.195 115.503 147.112 114.709 149.11 114.709C151.108 114.709 153.025 115.503 154.438 116.916C155.851 118.329 156.645 120.246 156.645 122.244C156.645 124.243 155.851 126.159 154.438 127.572C153.025 128.985 151.108 129.779 149.11 129.779ZM71.89 104.349C69.8916 104.349 67.975 103.555 66.5619 102.142C65.1489 100.729 64.355 98.8121 64.355 96.8137C64.355 94.8153 65.1489 92.8988 66.5619 91.4857C67.975 90.0726 69.8916 89.2787 71.89 89.2787C73.8884 89.2787 75.805 90.0726 77.218 91.4857C78.6311 92.8988 79.425 94.8153 79.425 96.8137C79.425 98.8121 78.6311 100.729 77.218 102.142C75.805 103.555 73.8884 104.349 71.89 104.349ZM71.89 129.779C69.8916 129.779 67.975 128.985 66.5619 127.572C65.1489 126.159 64.355 124.243 64.355 122.244C64.355 120.246 65.1489 118.329 66.5619 116.916C67.975 115.503 69.8916 114.709 71.89 114.709C73.8884 114.709 75.805 115.503 77.218 116.916C78.6311 118.329 79.425 120.246 79.425 122.244C79.425 124.243 78.6311 126.159 77.218 127.572C75.805 128.985 73.8884 129.779 71.89 129.779ZM98.2556 155.203C97.2474 155.234 96.2434 155.061 95.303 154.697C94.3626 154.332 93.505 153.782 92.7811 153.079C92.0572 152.377 91.4816 151.536 91.0886 150.608C90.6956 149.679 90.493 148.68 90.493 147.672C90.493 146.663 90.6956 145.664 91.0886 144.736C91.4816 143.807 92.0572 142.966 92.7811 142.264C93.505 141.561 94.3626 141.011 95.303 140.647C96.2434 140.282 97.2474 140.11 98.2556 140.14C100.214 140.199 102.072 141.019 103.436 142.425C104.8 143.831 105.563 145.713 105.563 147.672C105.563 149.631 104.8 151.513 103.436 152.919C102.072 154.325 100.214 155.144 98.2556 155.203ZM123.686 155.203C122.678 155.234 121.674 155.061 120.734 154.697C119.793 154.332 118.936 153.782 118.212 153.079C117.488 152.377 116.912 151.536 116.519 150.608C116.126 149.679 115.924 148.68 115.924 147.672C115.924 146.663 116.126 145.664 116.519 144.736C116.912 143.807 117.488 142.966 118.212 142.264C118.936 141.561 119.793 141.011 120.734 140.647C121.674 140.282 122.678 140.11 123.686 140.14C125.644 140.199 127.502 141.019 128.867 142.425C130.231 143.831 130.994 145.713 130.994 147.672C130.994 149.631 130.231 151.513 128.867 152.919C127.502 154.325 125.644 155.144 123.686 155.203ZM98.2556 78.925C97.2474 78.9554 96.2434 78.7832 95.303 78.4184C94.3626 78.0536 93.505 77.5037 92.7811 76.8013C92.0572 76.0989 91.4816 75.2584 91.0886 74.3294C90.6956 73.4005 90.493 72.4021 90.493 71.3934C90.493 70.3848 90.6956 69.3864 91.0886 68.4574C91.4816 67.5285 92.0572 66.6879 92.7811 65.9855C93.505 65.2831 94.3626 64.7332 95.303 64.3684C96.2434 64.0037 97.2474 63.8314 98.2556 63.8619C100.214 63.921 102.072 64.7405 103.436 66.1465C104.8 67.5524 105.563 69.4344 105.563 71.3934C105.563 73.3524 104.8 75.2344 103.436 76.6404C102.072 78.0464 100.214 78.8658 98.2556 78.925ZM123.686 78.925C122.678 78.9554 121.674 78.7832 120.734 78.4184C119.793 78.0536 118.936 77.5037 118.212 76.8013C117.488 76.0989 116.912 75.2584 116.519 74.3294C116.126 73.4005 115.924 72.4021 115.924 71.3934C115.924 70.3848 116.126 69.3864 116.519 68.4574C116.912 67.5285 117.488 66.6879 118.212 65.9855C118.936 65.2831 119.793 64.7332 120.734 64.3684C121.674 64.0037 122.678 63.8314 123.686 63.8619C125.644 63.921 127.502 64.7405 128.867 66.1465C130.231 67.5524 130.994 69.4344 130.994 71.3934C130.994 73.3524 130.231 75.2344 128.867 76.6404C127.502 78.0464 125.644 78.8658 123.686 78.925ZM98.2556 50.6687C97.6225 50.6929 96.991 50.5891 96.3989 50.3635C95.8069 50.1379 95.2664 49.7952 94.8099 49.3558C94.3534 48.9165 93.9903 48.3895 93.7422 47.8065C93.4942 47.2235 93.3663 46.5964 93.3663 45.9628C93.3663 45.3292 93.4942 44.7021 93.7422 44.1191C93.9903 43.5361 94.3534 43.0091 94.8099 42.5698C95.2664 42.1304 95.8069 41.7876 96.3989 41.562C96.991 41.3365 97.6225 41.2327 98.2556 41.2569C99.5046 41.2569 100.702 41.753 101.586 42.6362C102.469 43.5194 102.965 44.7172 102.965 45.9662C102.965 47.2152 102.469 48.4131 101.586 49.2963C100.702 50.1794 99.5046 50.6756 98.2556 50.6756V50.6687ZM123.686 50.6687C123.053 50.6929 122.422 50.5891 121.83 50.3635C121.237 50.1379 120.697 49.7952 120.241 49.3558C119.784 48.9165 119.421 48.3895 119.173 47.8065C118.925 47.2235 118.797 46.5964 118.797 45.9628C118.797 45.3292 118.925 44.7021 119.173 44.1191C119.421 43.5361 119.784 43.0091 120.241 42.5698C120.697 42.1304 121.237 41.7876 121.83 41.562C122.422 41.3365 123.053 41.2327 123.686 41.2569C124.935 41.2569 126.133 41.753 127.016 42.6362C127.899 43.5194 128.396 44.7172 128.396 45.9662C128.396 47.2152 127.899 48.4131 127.016 49.2963C126.133 50.1794 124.935 50.6756 123.686 50.6756V50.6687ZM174.541 101.53C173.292 101.53 172.094 101.034 171.211 100.151C170.327 99.2675 169.831 98.0696 169.831 96.8206C169.831 95.5716 170.327 94.3738 171.211 93.4906C172.094 92.6074 173.292 92.1112 174.541 92.1112C175.79 92.1112 176.987 92.6074 177.871 93.4906C178.754 94.3738 179.25 95.5716 179.25 96.8206C179.25 98.0696 178.754 99.2675 177.871 100.151C176.987 101.034 175.79 101.53 174.541 101.53ZM174.541 126.961C173.292 126.961 172.094 126.464 171.211 125.581C170.327 124.698 169.831 123.5 169.831 122.251C169.831 121.002 170.327 119.804 171.211 118.921C172.094 118.038 173.292 117.542 174.541 117.542C175.79 117.542 176.987 118.038 177.871 118.921C178.754 119.804 179.25 121.002 179.25 122.251C179.25 123.5 178.754 124.698 177.871 125.581C176.987 126.464 175.79 126.961 174.541 126.961ZM46.4594 101.53C45.2104 101.53 44.0125 101.034 43.1293 100.151C42.2462 99.2675 41.75 98.0696 41.75 96.8206C41.75 95.5716 42.2462 94.3738 43.1293 93.4906C44.0125 92.6074 45.2104 92.1112 46.4594 92.1112C47.7084 92.1112 48.9062 92.6074 49.7894 93.4906C50.6726 94.3738 51.1687 95.5716 51.1687 96.8206C51.1687 98.0696 50.6726 99.2675 49.7894 100.151C48.9062 101.034 47.7084 101.53 46.4594 101.53ZM46.4594 126.961C45.2104 126.961 44.0125 126.464 43.1293 125.581C42.2462 124.698 41.75 123.5 41.75 122.251C41.75 121.002 42.2462 119.804 43.1293 118.921C44.0125 118.038 45.2104 117.542 46.4594 117.542C47.7084 117.542 48.9062 118.038 49.7894 118.921C50.6726 119.804 51.1687 121.002 51.1687 122.251C51.1687 123.5 50.6726 124.698 49.7894 125.581C48.9062 126.464 47.7084 126.961 46.4594 126.961ZM98.2556 178.75C97.0066 178.75 95.8088 178.254 94.9256 177.371C94.0424 176.487 93.5463 175.29 93.5463 174.041C93.5463 172.792 94.0424 171.594 94.9256 170.711C95.8088 169.827 97.0066 169.331 98.2556 169.331C99.5046 169.331 100.702 169.827 101.586 170.711C102.469 171.594 102.965 172.792 102.965 174.041C102.965 175.29 102.469 176.487 101.586 177.371C100.702 178.254 99.5046 178.75 98.2556 178.75ZM123.686 178.75C122.437 178.75 121.239 178.254 120.356 177.371C119.473 176.487 118.977 175.29 118.977 174.041C118.977 172.792 119.473 171.594 120.356 170.711C121.239 169.827 122.437 169.331 123.686 169.331C124.935 169.331 126.133 169.827 127.016 170.711C127.899 171.594 128.396 172.792 128.396 174.041C128.396 175.29 127.899 176.487 127.016 177.371C126.133 178.254 124.935 178.75 123.686 178.75Z" fill="white"/>
</g>
<defs>
<clipPath id="clip0_2_20171">
<rect width="220" height="220" fill="white" transform="translate(0.5)"/>
</clipPath>
</defs>
</svg>
