<svg width="221" height="220" viewBox="0 0 221 220" fill="none" xmlns="http://www.w3.org/2000/svg">
<g clip-path="url(#clip0_2_20167)">
<path d="M110.5 220C171.251 220 220.5 170.751 220.5 110C220.5 49.2487 171.251 0 110.5 0C49.7487 0 0.5 49.2487 0.5 110C0.5 170.751 49.7487 220 110.5 220Z" fill="#00B0FF"/>
<path d="M165.5 82.9194V144.21L148.065 154.385V113.479L110.5 135.96L72.935 113.458V154.385L55.5 144.21V82.9125L110.5 115.947L165.5 82.9125V82.9194ZM110.706 159.349L126.794 149.731L142.675 159.349L110.706 178.75L78.7512 159.349L94.6325 149.731L110.713 159.349H110.706ZM142.469 60.6512L126.581 70.2694L110.5 60.6512L94.4194 70.2694L78.5381 60.6512L110.5 41.25L142.469 60.6512Z" fill="white"/>
</g>
<defs>
<clipPath id="clip0_2_20167">
<rect width="220" height="220" fill="white" transform="translate(0.5)"/>
</clipPath>
</defs>
</svg>
