<svg width="221" height="220" viewBox="0 0 221 220" fill="none" xmlns="http://www.w3.org/2000/svg">
<g clip-path="url(#clip0_2_20161)">
<path d="M110.5 220C171.251 220 220.5 170.751 220.5 110C220.5 49.2487 171.251 0 110.5 0C49.7487 0 0.5 49.2487 0.5 110C0.5 170.751 49.7487 220 110.5 220Z" fill="black"/>
<path d="M60.127 151.3L107.949 181.385H113.738L160.791 151.3L153.462 145.518L110.651 172.901L66.3007 145.518L60.127 151.3ZM83.2682 81.4977L110.266 40.6121L138.034 81.8827L144.593 76.094L113.738 29.8183C113.738 29.8183 111.036 26.3464 106.794 29.8183L75.1695 77.2558L83.2682 81.4977Z" fill="white" fill-opacity="0.703"/>
<path d="M111.036 164.033C112.576 158.629 114.508 153.617 116.055 148.221C122.999 126.619 129.936 104.633 136.879 83.0387C137.264 81.8837 137.649 80.3368 138.034 79.1887C138.804 76.8649 139.959 75.71 142.276 75.71C143.282 75.6834 144.264 76.0195 145.043 76.6569C145.822 77.2943 146.345 78.1905 146.518 79.1818C148.443 86.8956 149.99 94.9943 151.915 102.708C155.387 117.366 158.474 132.408 161.946 147.059C162.716 150.531 161.561 152.847 158.859 153.617C156.157 154.387 154.232 152.462 153.462 148.991C149.605 132.408 145.748 115.819 142.276 98.8512C142.276 98.0812 141.891 97.6962 141.506 96.5343C141.186 97.5896 140.798 98.623 140.344 99.6281C133.022 121.992 126.079 144.364 118.75 166.728C117.595 170.97 116.048 174.827 114.893 179.069C114.123 181.771 112.576 182.926 110.266 182.926C107.949 182.926 106.409 181.771 105.639 179.076C97.1556 152.462 88.6649 125.849 80.5662 99.2362C80.1812 98.4662 80.1812 98.0812 79.7962 96.5343C79.1082 100.024 78.338 103.497 77.4862 106.95C74.3924 120.837 71.3124 135.103 68.2256 148.991C67.4556 152.841 64.3756 154.772 61.2818 152.841C59.3568 151.686 58.9718 149.761 59.3568 147.444C63.5987 128.159 68.2256 108.875 72.4674 89.5974C73.2374 86.5037 74.0143 83.4237 74.3924 80.3368C75.1693 77.2568 76.7093 75.71 79.0262 75.71C81.3431 75.71 82.8762 77.2568 83.6531 80.3368C92.5218 108.112 101.391 136.265 109.881 164.033H111.036Z" fill="white"/>
</g>
<defs>
<clipPath id="clip0_2_20161">
<rect width="220" height="220" fill="white" transform="translate(0.5)"/>
</clipPath>
</defs>
</svg>
