<svg width="221" height="220" viewBox="0 0 221 220" fill="none" xmlns="http://www.w3.org/2000/svg">
<g clip-path="url(#clip0_2_20157)">
<path d="M110.5 220C171.251 220 220.5 170.751 220.5 110C220.5 49.2487 171.251 0 110.5 0C49.7487 0 0.5 49.2487 0.5 110C0.5 170.751 49.7487 220 110.5 220Z" fill="#DA1157"/>
<path d="M144.772 131.781C150.29 131.781 155.581 129.589 159.483 125.687C163.384 121.786 165.576 116.494 165.576 110.977C165.576 105.459 163.384 100.168 159.483 96.2664C155.581 92.365 150.29 90.1731 144.772 90.1731C139.255 90.1731 133.963 92.365 130.062 96.2664C126.16 100.168 123.969 105.459 123.969 110.977C123.969 116.494 126.16 121.786 130.062 125.687C133.963 129.589 139.255 131.781 144.772 131.781ZM144.772 62.9963C152.695 62.9916 160.495 64.9484 167.477 68.6921C174.459 72.4358 180.406 77.85 184.786 84.4513C189.167 91.0527 191.844 98.6358 192.581 106.524C193.317 114.412 192.089 122.36 189.006 129.658C185.923 136.956 181.081 143.377 174.912 148.348C168.744 153.319 161.44 156.686 153.654 158.148C145.867 159.609 137.84 159.12 130.289 156.724C122.737 154.328 115.896 150.1 110.377 144.417C119.102 135.474 123.981 123.471 123.969 110.977C123.982 98.4824 119.103 86.4792 110.377 77.5369C114.842 72.9303 120.188 69.2691 126.097 66.7711C132.006 64.2731 138.357 62.9893 144.772 62.9963ZM75.9879 131.781C81.5054 131.781 86.7969 129.589 90.6984 125.687C94.5999 121.786 96.7917 116.494 96.7917 110.977C96.7917 105.459 94.5999 100.168 90.6984 96.2664C86.7969 92.365 81.5054 90.1731 75.9879 90.1731C70.4704 90.1731 65.1789 92.365 61.2774 96.2664C57.376 100.168 55.1842 105.459 55.1842 110.977C55.1842 116.494 57.376 121.786 61.2774 125.687C65.1789 129.589 70.4704 131.781 75.9879 131.781ZM110.384 77.5369C101.66 86.4808 96.7843 98.4835 96.7985 110.977C96.7985 123.984 101.982 135.775 110.384 144.417C103.729 151.266 95.1816 155.974 85.8358 157.938C76.4901 159.903 66.7708 159.034 57.9218 155.443C49.0727 151.852 41.4963 145.702 36.1621 137.781C30.8279 129.86 27.9785 120.527 27.9785 110.977C27.9785 101.427 30.8279 92.0943 36.1621 84.173C41.4963 76.2517 49.0727 70.1021 57.9218 66.5111C66.7708 62.9202 76.4901 62.0512 85.8358 64.0154C95.1816 65.9795 103.729 70.6875 110.384 77.5369ZM96.7917 110.984C96.7917 123.991 101.975 135.782 110.384 144.424C119.107 135.48 123.983 123.477 123.969 110.984C123.983 98.4902 119.107 86.4872 110.384 77.5438C101.657 86.4861 96.7786 98.4893 96.7917 110.984Z" fill="white"/>
</g>
<defs>
<clipPath id="clip0_2_20157">
<rect width="220" height="220" fill="white" transform="translate(0.5)"/>
</clipPath>
</defs>
</svg>
