<svg width="221" height="220" viewBox="0 0 221 220" fill="none" xmlns="http://www.w3.org/2000/svg">
<g clip-path="url(#clip0_2_20153)">
<path d="M110.5 220C171.251 220 220.5 170.751 220.5 110C220.5 49.2487 171.251 0 110.5 0C49.7487 0 0.5 49.2487 0.5 110C0.5 170.751 49.7487 220 110.5 220Z" fill="#242424"/>
<path d="M153.517 46.5437C153.517 51.3631 149.599 55.275 144.759 55.275C143.61 55.2768 142.473 55.0524 141.411 54.6146C140.349 54.1768 139.384 53.5341 138.571 52.7234C137.758 51.9126 137.112 50.9496 136.671 49.8893C136.23 48.829 136.002 47.6922 136 46.5437C136 41.7175 139.919 37.8125 144.759 37.8125C149.599 37.8125 153.517 41.7175 153.517 46.5437ZM147.206 76.9588C143.109 76.9588 139.781 73.645 139.781 69.5613C139.781 65.4775 143.109 62.1706 147.206 62.1706C151.304 62.1706 154.624 65.4775 154.624 69.5613C154.624 73.645 151.304 76.9588 147.199 76.9588H147.206ZM144.903 95.1981C144.08 95.1999 143.265 95.0394 142.505 94.7258C141.744 94.4123 141.053 93.9517 140.47 93.3706C139.888 92.7895 139.426 92.0992 139.111 91.3392C138.795 90.5793 138.633 89.7646 138.633 88.9419C138.634 88.1197 138.797 87.3058 139.113 86.5466C139.428 85.7875 139.89 85.098 140.473 84.5176C141.055 83.9372 141.746 83.4773 142.506 83.1641C143.266 82.851 144.081 82.6907 144.903 82.6925C145.726 82.6907 146.541 82.8512 147.301 83.1648C148.062 83.4784 148.753 83.9389 149.336 84.52C149.918 85.1012 150.38 85.7915 150.696 86.5514C151.011 87.3113 151.173 88.126 151.173 88.9487C151.172 89.7709 151.009 90.5848 150.694 91.344C150.378 92.1031 149.916 92.7926 149.333 93.373C148.751 93.9534 148.06 94.4133 147.3 94.7265C146.54 95.0397 145.725 95.1999 144.903 95.1981ZM144.532 104.631C144.532 106.053 143.967 107.417 142.961 108.422C141.956 109.428 140.592 109.993 139.169 109.993C137.747 109.993 136.383 109.428 135.377 108.422C134.372 107.417 133.807 106.053 133.807 104.631C133.807 103.208 134.372 101.844 135.377 100.839C136.383 99.8331 137.747 99.2681 139.169 99.2681C140.592 99.2681 141.956 99.8331 142.961 100.839C143.967 101.844 144.532 103.208 144.532 104.631ZM136.048 116.483C136.048 119.027 133.986 121.069 131.449 121.069C130.541 121.066 129.654 120.794 128.9 120.288C128.147 119.781 127.56 119.062 127.215 118.223C126.87 117.383 126.781 116.459 126.96 115.569C127.14 114.679 127.579 113.862 128.222 113.222C128.866 112.581 129.685 112.145 130.576 111.97C131.467 111.795 132.39 111.888 133.228 112.237C134.066 112.586 134.782 113.175 135.285 113.931C135.788 114.687 136.056 115.575 136.055 116.483H136.048ZM126.767 124.891C126.767 125.938 126.351 126.942 125.611 127.682C124.871 128.422 123.867 128.838 122.821 128.838C121.774 128.838 120.77 128.422 120.03 127.682C119.29 126.942 118.874 125.938 118.874 124.891C118.874 123.845 119.29 122.841 120.03 122.101C120.77 121.361 121.774 120.945 122.821 120.945C123.867 120.945 124.871 121.361 125.611 122.101C126.351 122.841 126.767 123.845 126.767 124.891ZM174.026 73.9544C173.517 75.8125 172.308 77.4013 170.653 78.3876C168.998 79.3738 167.025 79.6808 165.149 79.2441C163.272 78.8075 161.638 77.6611 160.588 76.0455C159.539 74.43 159.156 72.4707 159.519 70.5787C159.967 68.6551 161.16 66.9881 162.837 65.9444C164.514 64.9007 166.537 64.5658 168.46 65.0134C170.384 65.4611 172.051 66.6545 173.095 68.3313C174.138 70.008 174.473 72.0307 174.026 73.9544ZM170.464 93.225C170.084 94.8533 169.073 96.2638 167.653 97.1463C166.232 98.0289 164.52 98.3111 162.892 97.9309C161.263 97.5508 159.853 96.5393 158.97 95.1192C158.088 93.699 157.805 91.9864 158.186 90.3581C158.566 88.7299 159.577 87.3193 160.997 86.4368C162.418 85.5542 164.13 85.272 165.758 85.6522C167.387 86.0324 168.797 87.0438 169.68 88.464C170.562 89.8841 170.844 91.5967 170.464 93.225ZM163.837 108.604C163.516 109.981 162.661 111.174 161.461 111.92C160.261 112.667 158.813 112.906 157.436 112.585C156.06 112.264 154.867 111.409 154.12 110.209C153.374 109.009 153.135 107.561 153.456 106.184C153.826 104.861 154.693 103.732 155.876 103.032C157.059 102.333 158.466 102.116 159.804 102.428C161.142 102.74 162.308 103.556 163.06 104.707C163.811 105.858 164.089 107.254 163.837 108.604ZM155.298 120.312C154.978 121.438 154.237 122.398 153.228 122.992C152.22 123.586 151.022 123.77 149.882 123.505C148.742 123.239 147.747 122.546 147.105 121.568C146.462 120.59 146.22 119.402 146.429 118.25C146.565 117.668 146.815 117.119 147.163 116.634C147.511 116.149 147.952 115.737 148.459 115.422C148.967 115.107 149.532 114.896 150.121 114.799C150.711 114.703 151.314 114.724 151.895 114.861C152.477 114.994 153.027 115.242 153.513 115.588C153.999 115.935 154.412 116.374 154.728 116.88C155.044 117.387 155.257 117.951 155.355 118.54C155.453 119.129 155.434 119.731 155.298 120.312ZM145.969 128.487C145.851 128.987 145.637 129.459 145.337 129.876C145.037 130.294 144.658 130.648 144.221 130.918C143.785 131.189 143.299 131.371 142.792 131.454C142.285 131.537 141.766 131.519 141.266 131.402C140.766 131.285 140.294 131.07 139.877 130.77C139.46 130.47 139.105 130.091 138.835 129.654C138.564 129.218 138.382 128.732 138.299 128.225C138.216 127.718 138.234 127.2 138.351 126.699C138.588 125.689 139.217 124.815 140.099 124.268C140.981 123.721 142.044 123.547 143.054 123.784C144.064 124.021 144.938 124.65 145.485 125.532C146.032 126.414 146.206 127.477 145.969 128.487ZM136.653 133.65C136.401 134.464 135.85 135.153 135.111 135.577C134.372 136.001 133.5 136.129 132.67 135.935C131.84 135.742 131.114 135.241 130.639 134.534C130.163 133.826 129.974 132.965 130.108 132.124C130.36 131.31 130.911 130.621 131.65 130.197C132.389 129.773 133.262 129.645 134.091 129.838C134.921 130.032 135.647 130.533 136.122 131.24C136.598 131.947 136.787 132.808 136.653 133.65ZM185.493 100.265C184.758 101.776 183.453 102.934 181.865 103.484C180.277 104.035 178.536 103.933 177.023 103.201C176.273 102.841 175.602 102.337 175.047 101.717C174.493 101.097 174.067 100.374 173.793 99.5884C173.52 98.803 173.404 97.9713 173.454 97.1411C173.503 96.3109 173.716 95.4987 174.081 94.7512C174.816 93.2418 176.119 92.0854 177.706 91.5352C179.292 90.9849 181.032 91.0858 182.544 91.8156C183.292 92.1764 183.963 92.6813 184.516 93.3013C185.07 93.9213 185.496 94.6443 185.77 95.429C186.043 96.2138 186.16 97.0448 186.113 97.8745C186.065 98.7043 185.855 99.5166 185.493 100.265ZM178.886 115.493C178.229 116.719 177.123 117.644 175.801 118.075C174.478 118.505 173.04 118.409 171.787 117.805C170.534 117.201 169.562 116.136 169.075 114.833C168.588 113.53 168.622 112.089 169.172 110.811C169.8 109.529 170.91 108.546 172.259 108.077C173.609 107.609 175.089 107.692 176.377 108.309C177.015 108.614 177.587 109.042 178.059 109.569C178.53 110.096 178.894 110.711 179.127 111.379C179.36 112.046 179.459 112.754 179.418 113.46C179.376 114.166 179.196 114.857 178.886 115.493ZM170.581 127.043C170.039 128.153 169.079 129.003 167.912 129.407C166.745 129.812 165.465 129.738 164.352 129.202C163.803 128.937 163.311 128.567 162.904 128.112C162.498 127.657 162.186 127.126 161.985 126.55C161.785 125.973 161.7 125.363 161.736 124.754C161.771 124.145 161.927 123.549 162.194 123.001C162.762 121.942 163.717 121.144 164.86 120.773C166.003 120.402 167.245 120.486 168.327 121.009C169.409 121.531 170.247 122.451 170.667 123.577C171.087 124.702 171.056 125.947 170.581 127.05V127.043ZM161.327 135.211C160.856 136.171 160.025 136.906 159.014 137.257C158.003 137.607 156.895 137.544 155.931 137.081C155.439 136.859 154.998 136.54 154.631 136.145C154.265 135.749 153.982 135.284 153.798 134.777C153.615 134.27 153.535 133.732 153.563 133.193C153.591 132.655 153.726 132.128 153.962 131.643C154.197 131.158 154.527 130.725 154.932 130.369C155.337 130.014 155.81 129.743 156.322 129.573C156.833 129.403 157.374 129.338 157.911 129.38C158.449 129.423 158.972 129.572 159.451 129.821C159.928 130.051 160.355 130.374 160.707 130.769C161.06 131.165 161.331 131.626 161.505 132.127C161.68 132.627 161.754 133.157 161.723 133.686C161.693 134.216 161.558 134.733 161.327 135.211ZM152.012 140.243C151.589 141.027 150.88 141.617 150.034 141.891C149.187 142.165 148.266 142.102 147.465 141.715C146.663 141.328 146.042 140.647 145.73 139.813C145.418 138.979 145.439 138.057 145.79 137.239C146.229 136.485 146.936 135.924 147.771 135.669C148.605 135.413 149.505 135.482 150.291 135.862C151.077 136.241 151.691 136.903 152.01 137.715C152.329 138.528 152.329 139.43 152.012 140.243ZM143.26 142.78C142.919 143.478 142.315 144.014 141.581 144.269C140.847 144.524 140.042 144.478 139.341 144.141C138.995 143.973 138.686 143.739 138.431 143.451C138.176 143.164 137.98 142.829 137.854 142.466C137.728 142.103 137.675 141.718 137.698 141.334C137.721 140.951 137.819 140.575 137.987 140.229C138.155 139.884 138.389 139.574 138.677 139.319C138.964 139.064 139.299 138.868 139.662 138.742C140.026 138.616 140.41 138.563 140.794 138.586C141.177 138.609 141.553 138.707 141.899 138.875C142.245 139.042 142.554 139.275 142.81 139.562C143.066 139.848 143.263 140.183 143.389 140.545C143.515 140.908 143.569 141.292 143.547 141.675C143.525 142.059 143.427 142.434 143.26 142.78ZM150.382 176.165C149.386 175.595 148.513 174.835 147.812 173.927C147.11 173.018 146.595 171.981 146.296 170.873C145.997 169.765 145.92 168.609 146.069 167.472C146.218 166.334 146.591 165.237 147.165 164.244C148.331 162.237 150.243 160.774 152.485 160.173C154.727 159.573 157.115 159.885 159.127 161.04C163.321 163.446 164.765 168.788 162.352 172.961C161.187 174.969 159.275 176.434 157.032 177.034C154.79 177.635 152.401 177.322 150.389 176.165H150.382ZM129.826 165.632C128.983 165.151 128.243 164.507 127.649 163.738C127.055 162.969 126.619 162.09 126.366 161.152C126.113 160.214 126.048 159.236 126.175 158.273C126.301 157.309 126.617 156.381 127.104 155.54C128.09 153.841 129.709 152.601 131.607 152.092C133.504 151.583 135.526 151.846 137.231 152.824C140.778 154.859 141.995 159.383 139.953 162.917C138.968 164.618 137.349 165.859 135.451 166.368C133.553 166.877 131.53 166.612 129.826 165.632ZM114.687 152.983C113.974 152.574 113.347 152.029 112.845 151.378C112.343 150.726 111.974 149.982 111.76 149.188C111.546 148.394 111.491 147.566 111.598 146.75C111.705 145.935 111.972 145.149 112.384 144.437C113.219 143 114.589 141.953 116.195 141.524C117.8 141.095 119.51 141.319 120.951 142.148C121.662 142.555 122.287 143.099 122.788 143.749C123.289 144.398 123.657 145.14 123.871 145.932C124.085 146.724 124.141 147.55 124.035 148.364C123.929 149.177 123.663 149.962 123.254 150.673C122.423 152.114 121.055 153.167 119.449 153.6C117.842 154.033 116.13 153.811 114.687 152.983ZM104.368 139.411C103.76 139.06 103.228 138.592 102.801 138.034C102.375 137.477 102.062 136.841 101.881 136.163C101.7 135.484 101.654 134.777 101.746 134.081C101.839 133.385 102.067 132.714 102.419 132.107C102.771 131.499 103.239 130.967 103.796 130.54C104.353 130.113 104.989 129.8 105.668 129.619C106.346 129.438 107.053 129.393 107.749 129.485C108.445 129.577 109.116 129.806 109.724 130.157C112.281 131.629 113.161 134.894 111.683 137.445C110.973 138.674 109.803 139.572 108.432 139.941C107.061 140.309 105.599 140.119 104.368 139.411ZM98.2975 126.17C97.7743 125.871 97.3155 125.471 96.9472 124.994C96.5789 124.517 96.3084 123.972 96.1513 123.39C95.9941 122.808 95.9534 122.201 96.0315 121.603C96.1096 121.005 96.3049 120.429 96.6062 119.907C97.2186 118.851 98.2245 118.081 99.4036 117.765C100.583 117.449 101.839 117.614 102.897 118.222C105.097 119.487 105.853 122.293 104.588 124.479C103.978 125.537 102.973 126.31 101.793 126.627C100.613 126.944 99.3559 126.78 98.2975 126.17ZM95.6231 113.953C95.174 113.695 94.7803 113.351 94.4645 112.941C94.1487 112.53 93.9171 112.062 93.7829 111.561C93.6488 111.061 93.6147 110.54 93.6828 110.026C93.7508 109.513 93.9196 109.018 94.1793 108.57C94.7053 107.667 95.5672 107.008 96.5769 106.738C97.5866 106.467 98.6622 106.607 99.5693 107.126C100.018 107.385 100.41 107.73 100.725 108.141C101.04 108.552 101.271 109.021 101.405 109.521C101.539 110.021 101.573 110.543 101.505 111.056C101.437 111.57 101.269 112.065 101.01 112.513C100.751 112.961 100.406 113.354 99.9947 113.669C99.5838 113.984 99.1149 114.215 98.6147 114.349C98.1145 114.482 97.5928 114.516 97.0795 114.448C96.5663 114.381 96.0714 114.212 95.6231 113.953ZM121.404 182.194C120.428 182.196 119.46 182.006 118.558 181.633C117.655 181.261 116.834 180.714 116.143 180.025C115.451 179.335 114.902 178.516 114.528 177.615C114.153 176.713 113.96 175.746 113.959 174.769C113.96 173.793 114.153 172.827 114.528 171.925C114.903 171.024 115.452 170.205 116.143 169.516C116.835 168.827 117.655 168.281 118.558 167.91C119.461 167.538 120.428 167.349 121.404 167.351C125.516 167.351 128.85 170.672 128.85 174.776C128.85 178.874 125.516 182.194 121.404 182.194ZM101.343 167.496C100.739 166.933 100.252 166.256 99.9095 165.505C99.5674 164.753 99.3772 163.941 99.3497 163.116C99.3222 162.29 99.4581 161.468 99.7494 160.695C100.041 159.922 100.482 159.215 101.047 158.613C102.194 157.396 103.775 156.683 105.446 156.629C107.117 156.575 108.742 157.184 109.964 158.324C112.508 160.696 112.632 164.67 110.253 167.207C109.107 168.422 107.527 169.134 105.858 169.188C104.188 169.242 102.566 168.634 101.343 167.496ZM91.2712 154.103C90.761 153.626 90.3499 153.053 90.0616 152.417C89.7733 151.781 89.6134 151.094 89.591 150.396C89.5687 149.698 89.6843 149.002 89.9313 148.349C90.1784 147.696 90.5519 147.097 91.0306 146.589C91.9985 145.559 93.3348 144.955 94.747 144.909C96.1592 144.863 97.5322 145.378 98.5656 146.341C99.0779 146.817 99.491 147.389 99.7809 148.025C100.071 148.661 100.232 149.348 100.255 150.047C100.278 150.745 100.162 151.442 99.915 152.095C99.6675 152.749 99.293 153.347 98.8131 153.856C97.844 154.885 96.5066 155.49 95.0932 155.536C93.6799 155.582 92.3057 155.067 91.2712 154.103ZM85.3656 140.876C84.9292 140.469 84.5775 139.98 84.3308 139.437C84.0841 138.894 83.9472 138.308 83.9281 137.711C83.9089 137.115 84.0078 136.521 84.2191 135.963C84.4304 135.406 84.75 134.895 85.1593 134.461C85.9861 133.583 87.1271 133.067 88.3329 133.027C89.5387 132.987 90.7113 133.426 91.5943 134.248C92.0306 134.655 92.3822 135.145 92.6291 135.688C92.876 136.231 93.0133 136.818 93.0331 137.415C93.0529 138.011 92.9548 138.606 92.7445 139.164C92.5342 139.723 92.2158 140.234 91.8075 140.669C90.9795 141.549 89.8366 142.065 88.6291 142.104C87.4217 142.142 86.2481 141.701 85.3656 140.876ZM82.9181 128.748C82.5442 128.399 82.243 127.979 82.0316 127.513C81.8202 127.047 81.7028 126.543 81.6862 126.032C81.6696 125.52 81.7541 125.01 81.9348 124.532C82.1155 124.053 82.3889 123.614 82.7393 123.241C83.4491 122.483 84.4305 122.038 85.4681 122.004C86.5058 121.969 87.5148 122.347 88.2737 123.056C89.855 124.527 89.9237 126.995 88.4525 128.569C87.7418 129.326 86.7599 129.77 85.7223 129.804C84.6846 129.837 83.6761 129.457 82.9181 128.748ZM83.0831 118.119C82.7607 117.82 82.5008 117.46 82.3182 117.06C82.1356 116.659 82.0341 116.227 82.0194 115.787C82.0047 115.348 82.0771 114.909 82.2325 114.498C82.388 114.086 82.6233 113.71 82.925 113.389C83.536 112.741 84.3788 112.361 85.2691 112.333C86.1593 112.305 87.0246 112.63 87.6756 113.238C88.2425 113.865 88.5528 114.682 88.5446 115.526C88.5364 116.371 88.2103 117.182 87.6314 117.798C87.0524 118.413 86.2629 118.788 85.4201 118.847C84.5773 118.907 83.7429 118.647 83.0831 118.119ZM87.7237 176.969C87.2562 176.283 86.9287 175.511 86.76 174.698C86.5913 173.885 86.5847 173.047 86.7405 172.232C86.8964 171.416 87.2116 170.639 87.6682 169.946C88.1247 169.252 88.7137 168.656 89.4012 168.19C90.7923 167.245 92.5012 166.891 94.1534 167.204C95.8055 167.517 97.2661 168.472 98.215 169.861C98.6832 170.546 99.0113 171.317 99.1804 172.13C99.3495 172.942 99.3563 173.78 99.2004 174.596C99.0445 175.411 98.729 176.187 98.272 176.88C97.815 177.573 97.2255 178.169 96.5375 178.633C95.1467 179.577 93.4389 179.931 91.7873 179.62C90.1358 179.308 88.6748 178.355 87.7237 176.969ZM77.7825 163.659C77.383 163.076 77.1029 162.419 76.9582 161.727C76.8136 161.035 76.8072 160.321 76.9394 159.627C77.0717 158.932 77.34 158.271 77.7289 157.68C78.1178 157.09 78.6197 156.582 79.2056 156.186C80.3886 155.385 81.8405 155.084 83.2444 155.35C84.6483 155.615 85.8903 156.425 86.6993 157.603C87.0988 158.186 87.3789 158.843 87.5236 159.535C87.6682 160.227 87.6746 160.941 87.5424 161.635C87.4101 162.33 87.1418 162.991 86.7529 163.582C86.364 164.172 85.8621 164.68 85.2762 165.076C84.0938 165.879 82.6413 166.18 81.2369 165.915C79.8324 165.65 78.5903 164.839 77.7825 163.659ZM71.8837 150.714C71.54 150.21 71.2991 149.643 71.1749 149.046C71.0507 148.449 71.0457 147.833 71.16 147.234C71.2743 146.635 71.5058 146.064 71.8412 145.555C72.1766 145.045 72.6092 144.607 73.1143 144.265C74.1366 143.572 75.3914 143.312 76.6048 143.541C77.8182 143.771 78.8916 144.471 79.5906 145.489C79.9361 145.994 80.1783 146.562 80.3032 147.161C80.428 147.759 80.4331 148.377 80.318 148.978C80.203 149.579 79.9701 150.151 79.6329 150.661C79.2956 151.171 78.8607 151.61 78.3531 151.951C77.3297 152.64 76.0753 152.897 74.8635 152.665C73.6516 152.433 72.5805 151.732 71.8837 150.714ZM69.4087 138.655C69.1102 138.217 68.901 137.725 68.793 137.206C68.685 136.688 68.6804 136.153 68.7793 135.632C68.8783 135.112 69.079 134.616 69.3698 134.173C69.6607 133.731 70.036 133.349 70.4743 133.052C71.3621 132.45 72.4523 132.224 73.5062 132.424C74.5602 132.623 75.4921 133.232 76.0981 134.117C76.398 134.555 76.6083 135.048 76.7168 135.567C76.8253 136.086 76.8298 136.622 76.73 137.143C76.6303 137.664 76.4284 138.16 76.1358 138.602C75.8432 139.045 75.4659 139.425 75.0256 139.721C74.1383 140.321 73.0498 140.545 71.9975 140.346C70.9452 140.146 70.0146 139.538 69.4087 138.655ZM69.6837 128.095C69.4283 127.721 69.2491 127.301 69.1565 126.858C69.0639 126.415 69.0596 125.959 69.1439 125.514C69.2282 125.069 69.3994 124.646 69.6478 124.268C69.8962 123.89 70.2168 123.564 70.5912 123.31C71.3494 122.795 72.2808 122.601 73.1815 122.771C74.0821 122.941 74.8787 123.461 75.3968 124.218C75.8494 124.975 75.9952 125.877 75.8043 126.739C75.6134 127.601 75.1003 128.357 74.3701 128.852C73.6398 129.348 72.7477 129.546 71.8764 129.405C71.0052 129.264 70.2207 128.795 69.6837 128.095ZM71.8425 119.274C71.6139 118.956 71.4514 118.595 71.3645 118.213C71.2776 117.831 71.268 117.435 71.3365 117.05C71.4049 116.664 71.5498 116.296 71.7628 115.967C71.9757 115.638 72.2524 115.355 72.5765 115.134C72.9005 114.914 73.2654 114.761 73.6496 114.684C74.0338 114.607 74.4295 114.607 74.8135 114.686C75.1974 114.764 75.5618 114.918 75.8852 115.14C76.2085 115.361 76.4843 115.645 76.6962 115.974C77.1103 116.618 77.2564 117.398 77.1034 118.149C76.9505 118.899 76.5106 119.559 75.8775 119.99C75.2445 120.42 74.4683 120.586 73.7145 120.453C72.9607 120.319 72.289 119.896 71.8425 119.274ZM39.255 108.673C41.2671 107.516 43.6559 107.203 45.8981 107.804C48.1402 108.404 50.053 109.869 51.2175 111.877C51.7911 112.87 52.163 113.967 52.3121 115.104C52.4612 116.241 52.3844 117.396 52.0861 118.504C51.7879 119.611 51.274 120.649 50.574 121.557C49.874 122.466 49.0016 123.227 48.0068 123.798C43.8131 126.204 38.4643 124.768 36.0512 120.601C35.4763 119.608 35.103 118.511 34.9529 117.374C34.8027 116.236 34.8787 115.08 35.1763 113.972C35.474 112.864 35.9875 111.825 36.6874 110.916C37.3873 110.007 38.2598 109.244 39.255 108.673ZM58.7112 96.2294C60.4139 95.2463 62.437 94.9786 64.3367 95.4852C66.2364 95.9917 67.8577 97.231 68.845 98.9313C70.8868 102.472 69.67 106.989 66.1225 109.031C64.4187 110.007 62.3979 110.271 60.5008 109.763C58.6037 109.256 56.9842 108.019 55.9956 106.322C55.5084 105.481 55.1921 104.552 55.0649 103.589C54.9377 102.625 55.0021 101.646 55.2545 100.708C55.5068 99.7693 55.9421 98.89 56.5353 98.1203C57.1285 97.3505 57.868 96.7056 58.7112 96.2225V96.2294ZM77.2806 89.5125C78.7214 88.6857 80.4308 88.4624 82.0356 88.8913C83.6405 89.3202 85.0106 90.3665 85.8468 91.8019C86.2573 92.5137 86.5235 93.2995 86.6302 94.1142C86.7369 94.929 86.6821 95.7568 86.4689 96.5503C86.2556 97.3439 85.8882 98.0877 85.3874 98.7392C84.8867 99.3907 84.2626 99.9372 83.5506 100.347C82.1089 101.174 80.3989 101.396 78.794 100.966C77.189 100.536 75.8195 99.4878 74.9843 98.0513C74.5731 97.3401 74.3063 96.5549 74.1992 95.7405C74.0921 94.926 74.1468 94.0985 74.3601 93.3052C74.5734 92.512 74.9412 91.7687 75.4424 91.1178C75.9435 90.467 76.5682 89.9215 77.2806 89.5125ZM94.2412 87.4087C95.4715 86.7006 96.9325 86.5092 98.3037 86.8765C99.6749 87.2438 100.845 88.1398 101.556 89.3681C101.907 89.975 102.135 90.6452 102.226 91.3402C102.318 92.0353 102.271 92.7415 102.089 93.4185C101.907 94.0955 101.593 94.7299 101.165 95.2854C100.738 95.8409 100.205 96.3065 99.5968 96.6556C98.987 97.0084 98.3137 97.2376 97.6153 97.33C96.9169 97.4225 96.2071 97.3764 95.5265 97.1945C94.8459 97.0125 94.2078 96.6982 93.6487 96.2696C93.0896 95.8409 92.6205 95.3063 92.2681 94.6963C91.9178 94.0885 91.6909 93.4176 91.6004 92.722C91.51 92.0264 91.5578 91.3198 91.7412 90.6427C91.9245 89.9656 92.2397 89.3314 92.6687 88.7765C93.0978 88.2215 93.6321 87.7567 94.2412 87.4087ZM108.775 88.8113C109.832 88.203 111.087 88.0387 112.265 88.3545C113.443 88.6702 114.448 89.4402 115.059 90.4956C115.591 91.5477 115.7 92.7639 115.362 93.8937C115.025 95.0235 114.267 95.9808 113.245 96.5686C112.223 97.1563 111.014 97.3297 109.868 97.053C108.722 96.7763 107.725 96.0706 107.084 95.0812C106.781 94.559 106.585 93.982 106.506 93.3836C106.428 92.7853 106.468 92.1772 106.625 91.5945C106.783 91.0118 107.053 90.466 107.422 89.9883C107.791 89.5106 108.251 89.1106 108.775 88.8113ZM120.724 92.62C121.632 92.1002 122.709 91.9603 123.719 92.2307C124.73 92.5011 125.593 93.16 126.121 94.0638C126.381 94.5115 126.551 95.0064 126.619 95.52C126.688 96.0335 126.654 96.5556 126.52 97.056C126.386 97.5564 126.154 98.0253 125.837 98.4357C125.521 98.846 125.127 99.1897 124.677 99.4469C124.229 99.7064 123.734 99.8752 123.22 99.9434C122.707 100.012 122.185 99.9782 121.684 99.8447C121.184 99.7113 120.714 99.4806 120.303 99.1658C119.892 98.851 119.546 98.4583 119.287 98.01C119.027 97.5617 118.859 97.0667 118.79 96.5533C118.722 96.0398 118.756 95.5179 118.889 95.0174C119.022 94.5169 119.253 94.0476 119.568 93.6362C119.883 93.2249 120.275 92.8796 120.724 92.62ZM52.8468 77.275C54.7358 76.7052 56.7737 76.9078 58.5135 77.8383C60.2534 78.7688 61.5532 80.3513 62.1281 82.2388C62.5791 84.092 62.3024 86.0476 61.355 87.703C60.4075 89.3584 58.8614 90.5875 57.035 91.1372C55.2087 91.687 53.241 91.5156 51.5372 90.6583C49.8334 89.801 48.5231 88.323 47.8762 86.5288C47.5918 85.5948 47.4949 84.6139 47.591 83.6423C47.6872 82.6708 47.9745 81.7279 48.4365 80.8678C48.8985 80.0078 49.526 79.2476 50.2829 78.631C51.0398 78.0144 51.9111 77.5535 52.8468 77.275ZM71.3681 70.7231C72.9404 70.3157 74.6094 70.5323 76.0257 71.3274C77.4419 72.1226 78.4958 73.4348 78.9665 74.9893C79.4373 76.5438 79.2886 78.2201 78.5515 79.6675C77.8144 81.1148 76.546 82.221 75.0118 82.7544C74.2219 82.9936 73.3925 83.0749 72.5711 82.9937C71.7497 82.9124 70.9523 82.6701 70.2245 82.2807C68.7547 81.4942 67.6575 80.1561 67.1743 78.5606C66.6911 76.9652 66.8615 75.2431 67.648 73.7733C68.4345 72.3035 69.7726 71.2063 71.3681 70.7231ZM88.0468 68.75C89.3961 68.3425 90.852 68.4876 92.0943 69.1536C93.3365 69.8195 94.2634 70.9517 94.6709 72.3009C95.0784 73.6502 94.9333 75.1061 94.2673 76.3484C93.6014 77.5906 92.4692 78.5175 91.12 78.925C90.4519 79.1268 89.7506 79.195 89.0561 79.1258C88.3616 79.0565 87.6876 78.8512 87.0725 78.5214C86.4574 78.1917 85.9133 77.744 85.4712 77.204C85.0291 76.664 84.6977 76.0422 84.4959 75.3741C84.2941 74.706 84.2259 74.0047 84.2951 73.3102C84.3644 72.6157 84.5697 71.9417 84.8995 71.3266C85.2292 70.7115 85.6769 70.1674 86.2169 69.7253C86.7569 69.2832 87.3787 68.9518 88.0468 68.75ZM102.484 70.2831C103.638 69.9349 104.882 70.059 105.944 70.6282C107.006 71.1975 107.798 72.1652 108.146 73.3184C108.494 74.4717 108.37 75.7161 107.801 76.7779C107.232 77.8396 106.264 78.6317 105.111 78.98C103.955 79.3269 102.71 79.2019 101.647 78.6323C100.584 78.0628 99.7898 77.0951 99.4387 75.9412C99.2665 75.3693 99.2088 74.769 99.2691 74.1748C99.3294 73.5805 99.5064 73.004 99.79 72.4783C100.074 71.9526 100.458 71.4881 100.922 71.1114C101.385 70.7347 101.919 70.4532 102.491 70.2831H102.484ZM114.241 74.25C115.212 74.0111 116.238 74.1542 117.107 74.6497C117.976 75.1452 118.622 75.9554 118.911 76.913C119.2 77.8707 119.111 78.9028 118.662 79.7965C118.212 80.6903 117.437 81.3774 116.496 81.7162C116.005 81.8643 115.491 81.9144 114.981 81.8636C114.472 81.8127 113.977 81.6621 113.526 81.4201C113.074 81.1782 112.675 80.8497 112.351 80.4534C112.026 80.0571 111.783 79.6009 111.635 79.1106C111.487 78.6204 111.437 78.1058 111.488 77.5962C111.538 77.0866 111.689 76.592 111.931 76.1407C112.173 75.6893 112.502 75.29 112.898 74.9656C113.294 74.6412 113.75 74.3981 114.241 74.25ZM123.384 79.7156C123.805 79.5879 124.247 79.5442 124.684 79.5872C125.122 79.6302 125.547 79.7589 125.935 79.9661C126.322 80.1733 126.666 80.4548 126.945 80.7946C127.224 81.1344 127.433 81.5258 127.561 81.9466C127.689 82.3673 127.732 82.8091 127.689 83.2466C127.646 83.6842 127.518 84.1091 127.31 84.4969C127.103 84.8847 126.822 85.2279 126.482 85.507C126.142 85.786 125.751 85.9954 125.33 86.1231C124.48 86.3811 123.563 86.291 122.78 85.8727C121.996 85.4543 121.411 84.7419 121.153 83.8922C120.895 83.0425 120.985 82.1251 121.404 81.3419C121.822 80.5586 122.535 79.9736 123.384 79.7156ZM69.9656 54.23C70.7956 54.1662 71.63 54.267 72.421 54.5264C73.212 54.7858 73.944 55.1988 74.5751 55.7417C75.2061 56.2846 75.7238 56.9467 76.0984 57.6901C76.473 58.4335 76.6972 59.2435 76.7581 60.0737C76.8803 61.7512 76.331 63.4086 75.2312 64.6811C74.1315 65.9537 72.5712 66.7372 70.8937 66.8594C69.2162 66.9815 67.5589 66.4323 66.2864 65.3325C65.0138 64.2328 64.2303 62.6725 64.1081 60.995C64.0482 60.1656 64.1524 59.3325 64.4148 58.5434C64.6773 57.7543 65.0927 57.0247 65.6374 56.3964C66.1821 55.768 66.8454 55.2533 67.5892 54.8815C68.3331 54.5098 69.1429 54.2884 69.9725 54.23H69.9656ZM86.5137 52.3188C87.895 52.2871 89.2356 52.7879 90.2579 53.7172C91.2803 54.6466 91.9061 55.9335 92.0059 57.3116C92.1057 58.6896 91.6719 60.0532 90.7942 61.1203C89.9164 62.1873 88.662 62.876 87.2906 63.0438C86.5667 63.1323 85.8323 63.0729 85.1321 62.869C84.4318 62.6651 83.7803 62.3211 83.2171 61.8577C82.6538 61.3944 82.1906 60.8215 81.8555 60.1737C81.5205 59.5259 81.3205 58.8168 81.2678 58.0894C81.2151 57.362 81.3108 56.6314 81.549 55.9421C81.7872 55.2528 82.1631 54.6191 82.6536 54.0794C83.1442 53.5398 83.7393 53.1054 84.4029 52.8028C85.0665 52.5001 85.7846 52.3354 86.5137 52.3188ZM100.704 53.7213C101.89 53.7064 103.037 54.1449 103.91 54.9471C104.784 55.7494 105.318 56.8549 105.404 58.0378C105.49 59.2207 105.121 60.3918 104.373 61.312C103.624 62.2321 102.553 62.8319 101.377 62.9887C100.167 63.0457 98.9818 62.6274 98.0751 61.8231C97.1684 61.0188 96.6118 59.8922 96.5239 58.6834C96.436 57.4745 96.8238 56.2792 97.6047 55.3523C98.3855 54.4253 99.4975 53.84 100.704 53.7213ZM112.412 57.6262C113.454 57.5918 114.469 57.9621 115.244 58.6595C116.019 59.3569 116.494 60.3273 116.57 61.3673C116.646 62.4072 116.316 63.4361 115.649 64.2382C114.983 65.0403 114.032 65.5534 112.996 65.67C112.456 65.7308 111.91 65.6818 111.389 65.5262C110.868 65.3705 110.385 65.1113 109.966 64.7641C109.549 64.4169 109.205 63.9889 108.956 63.5057C108.708 63.0225 108.559 62.4941 108.52 61.9521C108.481 61.4101 108.551 60.8658 108.727 60.3517C108.903 59.8377 109.181 59.3645 109.545 58.9605C109.908 58.5566 110.35 58.2302 110.842 58.0009C111.335 57.7716 111.869 57.6442 112.412 57.6262Z" fill="white"/>
</g>
<defs>
<clipPath id="clip0_2_20153">
<rect width="220" height="220" fill="white" transform="translate(0.5)"/>
</clipPath>
</defs>
</svg>
