<svg width="221" height="220" viewBox="0 0 221 220" fill="none" xmlns="http://www.w3.org/2000/svg">
<g clip-path="url(#clip0_2_20145)">
<path d="M110.5 220C171.251 220 220.5 170.751 220.5 110C220.5 49.2487 171.251 0 110.5 0C49.7487 0 0.5 49.2487 0.5 110C0.5 170.751 49.7487 220 110.5 220Z" fill="#00316D"/>
<path d="M125.322 136.724C125.233 136.559 125.219 136.491 125.185 136.47C120.922 134.456 116.66 132.434 112.384 130.447C112.157 130.337 111.696 130.365 111.552 130.523C109.695 132.517 107.88 134.559 106.038 136.601C107.372 137.584 124.209 137.591 125.322 136.724ZM86.3135 87.4787L85.8873 86.5849C85.5298 86.8393 85.0623 87.0249 84.8285 87.3687C80.8901 93.2283 76.9759 99.1042 73.086 104.996C72.8454 105.367 72.8592 105.911 72.7423 106.371C73.2235 106.275 73.7598 106.296 74.1517 106.055C77.4913 104.046 80.8009 101.988 84.0791 99.8812C84.6554 99.4749 85.052 98.8615 85.186 98.1693C85.626 94.7318 85.9285 91.2737 86.3135 87.4787ZM168.793 137.322H174.472C175.565 137.322 175.984 136.91 175.29 135.858C171.68 130.344 168.085 124.824 164.462 119.331C164.269 119.028 163.829 118.897 163.499 118.691C163.327 119.035 163.032 119.379 162.997 119.743C162.578 125.119 162.2 130.496 161.787 135.872C161.712 136.896 162.069 137.357 163.114 137.336C165.005 137.295 166.895 137.322 168.793 137.322ZM46.8716 136.91C47.7379 137.116 48.1642 137.309 48.5835 137.316C54.7229 137.329 60.8623 137.316 66.9948 137.329C68.1842 137.329 68.4867 136.91 67.9848 135.762C66.0588 131.394 64.1749 127.007 62.3335 122.603C61.7973 121.317 61.3023 121.379 60.4566 122.287C57.1841 125.821 53.8842 129.32 50.5979 132.833C49.4498 134.071 48.3292 135.308 46.8716 136.91ZM137.587 105.196C137.986 105.972 138.117 106.309 138.316 106.598L146.621 118.657C150.052 123.641 153.475 128.626 156.934 133.589C157.167 133.933 157.621 134.119 157.965 134.373C158.144 133.961 158.432 133.569 158.487 133.142C158.625 131.974 158.652 130.805 158.728 129.636C159.099 124.308 159.512 118.987 159.828 113.666C159.965 111.397 158.982 110.228 156.83 109.692C151.09 108.255 145.349 106.811 139.602 105.388C139.086 105.264 138.543 105.285 137.587 105.196ZM136.13 69.8924L135.607 69.9818C135.539 71.0337 135.435 72.0924 135.401 73.158L134.638 99.0837C134.604 100.032 134.885 100.527 135.869 100.761C141.822 102.205 147.762 103.724 153.716 105.189C154.232 105.312 154.802 105.196 155.345 105.189C155.208 104.659 155.18 104.061 154.926 103.594C148.993 92.7999 143.046 82.0062 137.085 71.2262C136.824 70.7518 136.453 70.3324 136.13 69.8924ZM109.42 122.878C109.585 121.964 109.744 121.414 109.764 120.864C109.854 117.983 109.86 115.102 109.991 112.222C110.114 110.027 109.462 107.859 108.149 106.096C102.69 98.5222 97.2472 90.9368 91.8204 83.3399C91.5729 82.9962 91.4698 82.5493 91.2979 82.1506L90.6516 82.5355C90.4935 83.1131 90.246 83.6837 90.1842 84.268C89.7029 88.9431 89.2904 93.618 88.7748 98.2793C88.6963 98.7698 88.7344 99.2719 88.8861 99.7449C89.0378 100.218 89.2988 100.648 89.6479 101.002C95.801 107.856 101.913 114.752 108.052 121.627C108.382 121.998 108.781 122.301 109.42 122.878ZM113.387 121.441L113.8 121.716C114.178 121.421 114.625 121.187 114.927 120.822C120.155 114.476 125.364 108.114 130.554 101.737C130.872 101.333 131.06 100.842 131.09 100.328C131.338 91.8374 131.551 83.3468 131.744 74.8562C131.757 74.3887 131.489 73.9143 131.345 73.4468C130.967 73.8112 130.437 74.1068 130.224 74.5468C125.412 84.7356 120.812 95.0274 115.766 105.086C113.099 110.407 113.525 115.9 113.387 121.448V121.441ZM89.3041 137.329C92.611 137.329 95.9248 137.377 99.2317 137.288C99.9864 137.252 100.703 136.947 101.253 136.429C103.556 134.016 105.715 131.458 108.011 129.038C108.87 128.144 108.678 127.594 107.949 126.797C104.069 122.589 100.224 118.349 96.4129 114.078C95.4917 113.047 94.9623 113.054 94.1373 114.181C88.9054 121.338 83.6185 128.447 78.3591 135.59C78.0979 135.947 78.0017 136.422 77.8229 136.841C78.2835 137.006 78.7442 137.302 79.2117 137.302C82.5804 137.343 85.9354 137.329 89.3041 137.329ZM92.7279 110.063C90.8992 107.939 89.1048 105.938 87.4067 103.841C86.6917 102.968 86.1417 102.879 85.1792 103.477C79.4317 107.093 73.6223 110.613 67.8885 114.25C66.8504 114.91 66.0323 115.934 65.1523 116.835C64.3342 117.674 64.4442 118.595 64.891 119.626C67.1254 124.734 69.3048 129.863 71.5117 134.985C72.3504 136.91 72.6667 136.944 73.9523 135.226C77.3554 130.688 80.7448 126.13 84.1342 121.586L92.7279 110.063ZM132.569 104.646C132.122 105.367 131.909 105.807 131.606 106.165C126.161 112.806 120.709 119.447 115.223 126.061C114.329 127.141 114.79 127.567 115.8 128.027C122.105 130.915 128.382 133.851 134.7 136.724C135.509 137.089 136.384 137.285 137.271 137.302C142.469 137.35 147.673 137.336 152.877 137.309C153.359 137.309 153.847 137.089 154.335 136.965C154.163 136.456 154.087 135.872 153.785 135.439C148.989 128.435 144.179 121.441 139.354 114.456C137.223 111.362 135.078 108.269 132.569 104.646ZM110.452 144.362C86.7879 144.362 63.1241 144.356 39.4604 144.376C37.6179 144.376 35.9542 144.17 35.1567 142.19C34.4004 140.313 35.2804 138.924 36.511 137.611C43.5785 130.062 50.7423 122.596 57.6173 114.882C60.2435 111.94 62.2716 108.441 64.4923 105.134C71.6079 94.4912 78.6685 83.8074 85.8185 73.1924C86.5198 72.1543 87.5923 71.1024 88.7198 70.6899C90.2735 70.1124 91.6004 71.0062 92.5904 72.4224C98.3448 80.6449 104.14 88.8399 109.922 97.0487C111.112 98.7262 111.538 98.6712 112.418 96.7599L130.252 57.9162C130.953 56.3899 131.881 55.0906 133.689 55.0081C135.58 54.9187 136.728 56.0668 137.615 57.6893C146.566 73.928 155.311 90.3043 164.613 106.337C170.237 116.031 176.747 125.181 182.859 134.579C183.615 135.734 184.379 136.882 185.121 138.051C186.015 139.461 186.544 141.007 185.705 142.568C184.88 144.081 183.354 144.369 181.752 144.369C157.985 144.356 134.219 144.362 110.452 144.362Z" fill="white"/>
</g>
<defs>
<clipPath id="clip0_2_20145">
<rect width="220" height="220" fill="white" transform="translate(0.5)"/>
</clipPath>
</defs>
</svg>
