<svg width="221" height="220" viewBox="0 0 221 220" fill="none" xmlns="http://www.w3.org/2000/svg">
<g clip-path="url(#clip0_2_20141)">
<path d="M110.5 220C171.251 220 220.5 170.751 220.5 110C220.5 49.2487 171.251 0 110.5 0C49.7487 0 0.5 49.2487 0.5 110C0.5 170.751 49.7487 220 110.5 220Z" fill="#1AAB9B"/>
<path d="M52.4613 145.448V90.1386L94.4056 121.709V145.448H105.117V119.488C105.116 118.52 104.89 117.565 104.457 116.698C104.024 115.832 103.396 115.078 102.621 114.497L51.7531 76.2099C50.8257 75.5131 49.7226 75.0882 48.5674 74.9828C47.4122 74.8773 46.2505 75.0955 45.2123 75.6128C44.174 76.1302 43.3002 76.9263 42.6888 77.912C42.0773 78.8978 41.7522 80.0343 41.75 81.1943V145.448H52.4613ZM168.47 145.448V90.1386L126.526 121.709V145.448H115.814V119.488C115.814 117.522 116.736 115.672 118.303 114.497L169.178 76.2099C170.106 75.5128 171.21 75.0878 172.366 74.9826C173.521 74.8775 174.684 75.0962 175.722 75.6144C176.761 76.1325 177.634 76.9297 178.245 77.9164C178.856 78.9032 179.18 80.0406 179.181 81.2011V145.455H168.47V145.448Z" fill="white"/>
</g>
<defs>
<clipPath id="clip0_2_20141">
<rect width="220" height="220" fill="white" transform="translate(0.5)"/>
</clipPath>
</defs>
</svg>
