<svg width="221" height="220" viewBox="0 0 221 220" fill="none" xmlns="http://www.w3.org/2000/svg">
<g clip-path="url(#clip0_2_20137)">
<path d="M110.5 220C171.251 220 220.5 170.751 220.5 110C220.5 49.2487 171.251 0 110.5 0C49.7487 0 0.5 49.2487 0.5 110C0.5 170.751 49.7487 220 110.5 220Z" fill="#0B1529"/>
<path fill-rule="evenodd" clip-rule="evenodd" d="M59.8106 138.353L96.0556 159.61V171.497L48.625 143.584V70.7781L110.5 34.375L172.375 70.7781V143.584L124.944 171.497V159.603L161.182 138.353L151.832 132.949L153.056 130.824L162.289 136.159V82.1769L115.402 109.966V189.441L110.5 192.5L105.591 189.441V109.966L58.7106 82.1769V136.153L67.9369 130.824L69.1606 132.956L59.8106 138.353ZM109.139 46.8463L63.6125 73.5556L110.5 101.351L157.387 73.5556L111.593 46.6881V57.7156H109.139V46.8463ZM109.139 64.6663H111.593V76.0581H109.139V64.6663ZM109.139 83.0088H111.593V94.4006L110.362 94.9575L109.139 94.4075V83.0088ZM147.364 127.353L146.14 129.484L136.267 123.777L137.498 121.653L147.364 127.359V127.353ZM131.792 118.181L130.561 120.312L120.696 114.606L120.833 113.272L121.919 112.489L131.792 118.181ZM73.6294 127.353L83.495 121.653L84.7256 123.784L74.86 129.477L73.6294 127.353ZM89.2081 118.181L99.0738 112.489L100.174 113.272L100.297 114.613L90.4319 120.306L89.2081 118.181Z" fill="white"/>
</g>
<defs>
<clipPath id="clip0_2_20137">
<rect width="220" height="220" fill="white" transform="translate(0.5)"/>
</clipPath>
</defs>
</svg>
