<svg width="221" height="220" viewBox="0 0 221 220" fill="none" xmlns="http://www.w3.org/2000/svg">
<g clip-path="url(#clip0_2_20133)">
<path d="M110.5 220C171.251 220 220.5 170.751 220.5 110C220.5 49.2487 171.251 0 110.5 0C49.7487 0 0.5 49.2487 0.5 110C0.5 170.751 49.7487 220 110.5 220Z" fill="#00ADEF"/>
<path fill-rule="evenodd" clip-rule="evenodd" d="M102.683 185.529C64.575 181.534 34.875 149.243 34.875 110C34.875 70.7575 64.575 38.4656 102.683 34.4712V57.64C90.1815 59.567 78.783 65.9067 70.5517 75.5114C62.3204 85.1161 57.8004 97.3507 57.81 110C57.8004 122.649 62.3204 134.884 70.5517 144.489C78.783 154.093 90.1815 160.433 102.683 162.36V185.529ZM117.636 34.375C153.592 37.6681 182.282 66.1169 186.029 102.004H162.908C161.188 90.6884 155.847 80.2348 147.685 72.2104C139.523 64.186 128.98 59.0231 117.636 57.4956V34.375ZM186.125 116.992C182.811 153.361 153.923 182.304 117.636 185.625V162.504C129.152 160.954 139.838 155.658 148.046 147.433C156.253 139.208 161.527 128.511 163.052 116.992H186.125Z" fill="white"/>
</g>
<defs>
<clipPath id="clip0_2_20133">
<rect width="220" height="220" fill="white" transform="translate(0.5)"/>
</clipPath>
</defs>
</svg>
