<svg width="221" height="220" viewBox="0 0 221 220" fill="none" xmlns="http://www.w3.org/2000/svg">
<g clip-path="url(#clip0_2_20129)">
<path d="M110.5 220C171.251 220 220.5 170.751 220.5 110C220.5 49.2487 171.251 0 110.5 0C49.7487 0 0.5 49.2487 0.5 110C0.5 170.751 49.7487 220 110.5 220Z" fill="#7F368A"/>
<path d="M176.287 146.549C176.734 148.357 174.933 149.257 173.578 148.81H151.042C149.688 148.81 148.787 148.357 147.88 147.903C146.532 147.449 145.631 145.648 145.178 143.84V143.386L123.989 65.2448C123.542 65.2448 122.188 66.5992 121.734 66.5992C121.287 67.0461 120.38 67.4998 119.933 67.0461C119.032 66.5992 118.578 65.2448 119.032 64.3373C119.926 62.0823 122.188 60.7211 124.443 60.2742C127.145 59.8204 129.4 59.8204 132.101 59.8204H148.787C150.135 59.8204 151.489 59.8204 152.843 60.2742C154.198 61.1748 154.645 62.9829 155.098 64.3373C155.992 67.4998 156.446 70.6623 157.353 73.8248L168.168 114.484L172.224 130.743C173.578 135.714 175.386 141.138 176.28 146.555L176.287 146.549ZM123.989 146.549C124.443 148.357 122.635 149.257 121.287 148.81H98.7439C97.3895 148.81 96.4889 148.357 95.5814 147.903C94.2339 147.449 93.3333 145.648 92.8795 143.84V143.386L71.6977 65.2448C71.2439 65.2448 69.8895 66.5992 69.4427 66.5992C68.9889 67.0461 68.0883 67.4998 67.6345 67.0461C66.7408 66.5992 66.287 65.2448 66.7408 64.3373C67.6345 62.0823 69.8895 60.7211 72.1445 60.2742C74.8533 59.8204 77.1014 59.8204 79.8102 59.8204H96.4889C97.8433 59.8204 99.1977 59.8204 100.545 60.2742C101.9 61.1748 102.353 62.9829 102.8 64.3373C103.701 67.4998 104.155 70.6623 105.055 73.8248L115.876 114.484L119.933 130.743C121.287 135.714 123.088 141.138 123.989 146.555V146.549ZM82.512 129.382L77.1014 146.549C76.852 147.44 76.3235 148.228 75.5935 148.797C74.8636 149.366 73.9705 149.687 73.0452 149.711H49.1545C47.9583 149.707 46.8123 149.23 45.9671 148.384C45.1219 147.537 44.6463 146.39 44.6445 145.194V144.287L63.5783 72.9173C64.032 72.0098 64.9327 71.1092 65.8333 71.1092C67.1877 71.1092 68.0883 72.0098 68.0883 72.9173L82.512 129.382ZM135.711 128.027L132.555 137.515C132.101 138.415 131.655 138.869 130.754 138.869C129.853 138.869 129.4 138.415 128.946 137.515L113.168 82.3979L116.33 71.1092C116.33 70.2017 117.224 69.7548 118.131 69.7548C119.025 69.7548 119.933 70.2017 119.933 71.1092L135.711 128.027Z" fill="white"/>
</g>
<defs>
<clipPath id="clip0_2_20129">
<rect width="220" height="220" fill="white" transform="translate(0.5)"/>
</clipPath>
</defs>
</svg>
