<svg width="221" height="220" viewBox="0 0 221 220" fill="none" xmlns="http://www.w3.org/2000/svg">
<g clip-path="url(#clip0_2_20115)">
<path d="M110.5 220C171.251 220 220.5 170.751 220.5 110C220.5 49.2487 171.251 0 110.5 0C49.7487 0 0.5 49.2487 0.5 110C0.5 170.751 49.7487 220 110.5 220Z" fill="#DEC799"/>
<path d="M162.269 92.2212L152.472 48.125L133.243 78.4712C118.293 74.8617 102.7 74.8617 87.7506 78.4712L68.5763 48.125L58.745 92.2212C48.1919 100.664 41.75 111.698 41.75 123.812C41.75 150.349 72.5225 171.861 110.479 171.861C148.436 171.861 179.209 150.343 179.209 123.812C179.202 111.698 172.815 100.664 162.262 92.2212H162.269ZM72.2887 112.406H67.71L78.8956 99.5088H87.0356L72.2887 112.406ZM110.129 143.921L91.1125 110.426L95.8081 107.745L100.05 115.204H120.819L125.247 107.711L129.894 110.474L110.129 143.921ZM148.718 112.406L133.964 99.5088H142.159L153.331 112.406H148.718ZM110.218 133.134L103.116 120.622H117.609L110.218 133.134Z" fill="white"/>
</g>
<defs>
<clipPath id="clip0_2_20115">
<rect width="220" height="220" fill="white" transform="translate(0.5)"/>
</clipPath>
</defs>
</svg>
