<svg width="221" height="220" viewBox="0 0 221 220" fill="none" xmlns="http://www.w3.org/2000/svg">
<g clip-path="url(#clip0_2_20109)">
<path d="M110.5 220C171.251 220 220.5 170.751 220.5 110C220.5 49.2487 171.251 0 110.5 0C49.7487 0 0.5 49.2487 0.5 110C0.5 170.751 49.7487 220 110.5 220Z" fill="#47B95C"/>
<path d="M110.5 41.25C72.55 41.25 41.75 72.05 41.75 110C41.75 110.914 41.8394 111.787 41.8875 112.702H74.1519L89.7375 85.8894L110.5 115.637L131.214 85.8894L146.8 112.702H179.064C179.113 111.787 179.202 110.914 179.202 110C179.25 72.05 148.45 41.25 110.5 41.25ZM157.889 104.411C155.098 80.7125 134.927 62.2875 110.5 62.2875C86.0731 62.2875 65.9019 80.7606 63.1106 104.411H54.7644C57.5625 76.1269 81.4875 53.9894 110.5 53.9894C139.513 53.9894 163.389 76.1269 166.236 104.411H157.889Z" fill="white"/>
<path d="M130.624 101.289L110.5 130.164L90.3773 101.289L78.9235 120.999H42.7129C47.986 153.724 76.2629 178.749 110.5 178.749C144.738 178.749 173.015 153.724 178.288 120.951H142.077L130.624 101.289ZM154.136 129.249H163.025C155.14 150.651 134.611 166.01 110.5 166.01C86.3898 166.01 65.861 150.651 57.9754 129.249H66.8648C74.2898 145.976 91.0235 157.712 110.5 157.712C129.977 157.712 146.711 145.976 154.136 129.249Z" fill="white"/>
</g>
<defs>
<clipPath id="clip0_2_20109">
<rect width="220" height="220" fill="white" transform="translate(0.5)"/>
</clipPath>
</defs>
</svg>
