<svg width="221" height="220" viewBox="0 0 221 220" fill="none" xmlns="http://www.w3.org/2000/svg">
<g clip-path="url(#clip0_2_20101)">
<path d="M110.5 220C171.251 220 220.5 170.751 220.5 110C220.5 49.2487 171.251 0 110.5 0C49.7487 0 0.5 49.2487 0.5 110C0.5 170.751 49.7487 220 110.5 220Z" fill="#104FCA"/>
<path d="M48.625 65.7792L77.7337 114.612V164.999C61.66 164.999 48.625 152.377 48.625 136.805V65.7792Z" fill="white" fill-opacity="0.5"/>
<path d="M143.26 114.558L172.355 65.7523H172.369V136.812C172.375 152.377 159.34 165 143.26 165V114.558Z" fill="white" fill-opacity="0.6"/>
<path d="M110.479 113.148L95.925 137.568C92.9069 136.812 89.6619 133.883 86.19 128.789L48.625 65.7793C62.5469 57.9899 80.3531 62.6168 88.39 76.0918L110.479 113.148Z" fill="white" fill-opacity="0.8"/>
<path d="M132.61 76.0362C140.647 62.5475 158.453 57.9275 172.375 65.7168L134.81 128.726C132.097 132.659 128.464 135.87 124.227 138.08C119.99 140.289 115.278 141.43 110.5 141.404C105.975 141.413 101.508 140.39 97.4373 138.413L95.9248 137.567L132.61 76.0362Z" fill="white"/>
</g>
<defs>
<clipPath id="clip0_2_20101">
<rect width="220" height="220" fill="white" transform="translate(0.5)"/>
</clipPath>
</defs>
</svg>
