<svg width="221" height="220" viewBox="0 0 221 220" fill="none" xmlns="http://www.w3.org/2000/svg">
<g clip-path="url(#clip0_2_20093)">
<path d="M110.5 220C171.251 220 220.5 170.751 220.5 110C220.5 49.2487 171.251 0 110.5 0C49.7487 0 0.5 49.2487 0.5 110C0.5 170.751 49.7487 220 110.5 220Z" fill="white"/>
<path d="M128.719 1.55375C122.699 0.531117 116.606 0.0114055 110.5 0C49.725 0 0.5 49.225 0.5 110C0.5 133.334 7.83562 154.894 20.1625 172.776C27.725 161.666 45.1669 154 65.3862 154C79.2738 154 91.8344 157.664 100.834 163.556L128.719 1.55375ZM187.17 31.2194C206.166 73.2256 189.501 95.6656 189.501 95.6656C176.61 56.8906 139.279 51.2256 139.279 51.2256C139.279 51.2256 114.721 183.556 114.721 185.219C114.721 199.554 99.5 211.667 78.8337 215.332C89.1053 218.423 99.7735 219.995 110.5 220C171.275 220 220.5 170.775 220.5 110C220.5 79.1106 207.719 51.2188 187.17 31.2194Z" fill="#FBBF02"/>
</g>
<defs>
<clipPath id="clip0_2_20093">
<rect width="220" height="220" fill="white" transform="translate(0.5)"/>
</clipPath>
</defs>
</svg>
