<svg width="221" height="220" viewBox="0 0 221 220" fill="none" xmlns="http://www.w3.org/2000/svg">
<g clip-path="url(#clip0_2_20089)">
<path d="M110.5 220C171.251 220 220.5 170.751 220.5 110C220.5 49.2487 171.251 0 110.5 0C49.7487 0 0.5 49.2487 0.5 110C0.5 170.751 49.7487 220 110.5 220Z" fill="#FFAA05"/>
<path fill-rule="evenodd" clip-rule="evenodd" d="M116.076 79.5231V92.3313H131.297L124.422 100.224H114.199V110.144H124.834L119.623 118.037H114.199V138.277L105.447 150.212V118.037H93.3469L100.022 110.144H105.447V100.224H88.3487L95.2237 92.3313H105.447V79.0625C100.408 73.6106 93.4569 70.8813 84.595 70.8813C67.6 70.8813 54.1525 88.9969 54.1525 107.009C54.1525 119.013 56.9025 129.202 62.3887 137.569L52.9013 148.596C45.4694 137.583 41.75 125.001 41.75 110.853C41.75 79.7844 68.4937 61.875 87.4069 61.875C98.9844 61.875 107.853 66.7287 114.013 76.4294C125.797 68.3444 137.849 64.3019 150.169 64.3019C169.034 64.3019 179.25 87.3331 179.25 109.333C179.25 138.607 159.546 149.909 152.355 151.229C152.091 151.278 151.818 151.251 151.569 151.151C151.319 151.051 151.103 150.883 150.946 150.666C150.84 150.519 150.765 150.353 150.725 150.177C150.686 150.001 150.682 149.819 150.715 149.642C150.748 149.464 150.816 149.296 150.916 149.145C151.016 148.995 151.145 148.867 151.296 148.768C162.427 141.288 167.989 129.828 167.989 114.393C167.989 80.6988 150.684 72.9025 137.966 72.9025C130.173 72.8809 122.55 75.1862 116.076 79.5231Z" fill="white"/>
</g>
<defs>
<clipPath id="clip0_2_20089">
<rect width="220" height="220" fill="white" transform="translate(0.5)"/>
</clipPath>
</defs>
</svg>
