<svg width="221" height="220" viewBox="0 0 221 220" fill="none" xmlns="http://www.w3.org/2000/svg">
<g clip-path="url(#clip0_2_20085)">
<path d="M110.5 220C171.251 220 220.5 170.751 220.5 110C220.5 49.2487 171.251 0 110.5 0C49.7487 0 0.5 49.2487 0.5 110C0.5 170.751 49.7487 220 110.5 220Z" fill="#4A90E2"/>
<path d="M172.031 75.625C166.133 75.625 161.148 80.3894 161.148 86.5081C161.148 95.1294 159.787 97.3913 150.258 97.3913H149.351C146.683 97.616 144.199 98.8376 142.392 100.813C140.585 102.788 139.589 105.371 139.602 108.048V108.281C139.602 116.669 138.021 118.711 128.719 118.711C128.265 118.711 127.811 118.711 127.584 118.937C122.139 119.618 117.836 124.149 117.836 129.594C117.836 135.493 122.593 140.477 128.719 140.477C134.391 140.477 139.148 135.939 139.375 130.501V129.594C139.375 121.887 141.871 118.938 150.031 118.711H150.258C155.93 118.711 160.694 114.173 160.914 108.508V107.821C160.914 99.8869 163.41 96.9375 171.804 96.9375C177.696 96.9375 182.688 92.18 182.688 86.0544C182.688 80.3894 177.923 75.625 172.031 75.625ZM108.08 97.3913C110.725 97.6296 113.193 98.8183 115.029 100.737C116.864 102.656 117.942 105.175 118.062 107.828C118.062 113.946 113.298 118.711 107.173 118.711C101.054 118.711 96.2894 113.719 96.2894 107.828C96.2894 100.114 93.7938 97.1712 85.4063 97.1712C77.0188 97.1712 74.5231 100.114 74.5231 108.054V108.735C74.2963 114.173 69.5319 118.704 63.8669 118.704C57.7481 118.704 52.9769 113.719 52.9769 107.828C52.9769 102.156 57.2875 97.6181 62.7325 97.1712H63.64C73.1619 97.1712 74.5231 95.1294 74.5231 86.515C74.6234 83.6956 75.8139 81.0251 77.8439 79.0659C79.8739 77.1068 82.585 76.0119 85.4063 76.0119C88.2275 76.0119 90.9386 77.1068 92.9686 79.0659C94.9986 81.0251 96.1891 83.6956 96.2894 86.515C96.2894 95.1294 97.6506 97.3913 107.173 97.3913H108.08ZM42.3206 140.477C39.4342 140.477 36.6661 139.33 34.6251 137.289C32.5841 135.248 31.4375 132.48 31.4375 129.594C31.4375 126.707 32.5841 123.939 34.6251 121.898C36.6661 119.857 39.4342 118.711 42.3206 118.711C45.207 118.711 47.9752 119.857 50.0162 121.898C52.0571 123.939 53.2037 126.707 53.2037 129.594C53.2037 132.48 52.0571 135.248 50.0162 137.289C47.9752 139.33 45.207 140.477 42.3206 140.477Z" fill="white"/>
</g>
<defs>
<clipPath id="clip0_2_20085">
<rect width="220" height="220" fill="white" transform="translate(0.5)"/>
</clipPath>
</defs>
</svg>
