<svg width="221" height="220" viewBox="0 0 221 220" fill="none" xmlns="http://www.w3.org/2000/svg">
<g clip-path="url(#clip0_2_20081)">
<path d="M110.5 220C171.251 220 220.5 170.751 220.5 110C220.5 49.2487 171.251 0 110.5 0C49.7487 0 0.5 49.2487 0.5 110C0.5 170.751 49.7487 220 110.5 220Z" fill="#222222"/>
<path fill-rule="evenodd" clip-rule="evenodd" d="M88.0187 128.253L109.647 172.129L120.758 139.315L88.0256 128.253H88.0187ZM48.4669 109.216L81.2194 120.333L92.3431 87.5394L48.4669 109.216ZM89.93 123.131C90.4456 123.406 90.6588 123.571 90.8994 123.654C101.459 127.243 112.006 130.859 122.593 134.358C123.453 134.633 124.676 134.399 125.522 133.987C137.629 128.081 149.701 122.107 161.774 116.146C165.211 114.448 168.635 112.729 172.382 110.859C171.557 110.543 171.131 110.364 170.684 110.213C160.461 106.741 150.238 103.249 139.98 99.8731C138.897 99.5538 137.735 99.6269 136.701 100.079C123.831 106.336 111.009 112.695 98.18 119.027C95.5056 120.347 92.845 121.681 89.93 123.131ZM134.611 95.1844C126.842 79.4131 119.169 63.8756 111.304 47.9187L87.3794 118.504L134.611 95.1844ZM34.875 110.014C42.3962 106.294 49.4912 102.761 56.6 99.2544C68.6862 93.2938 80.7725 87.3262 92.8794 81.4069C93.4791 81.144 94.0139 80.753 94.4462 80.2612C94.8786 79.7695 95.1979 79.189 95.3819 78.5606C100.112 64.4463 104.911 50.3594 109.696 36.2656C109.874 35.7431 110.088 35.2344 110.417 34.375C110.899 35.31 111.256 35.97 111.586 36.6369C120.833 55.4056 130.066 74.1744 139.389 92.9019C139.842 93.8094 141.039 94.5656 142.063 94.9162C156.061 99.7425 170.086 104.486 184.104 109.251C184.633 109.429 185.156 109.622 186.125 109.966C184.833 110.619 183.877 111.121 182.914 111.595C164.847 120.512 146.786 129.449 128.691 138.304C127.875 138.662 127.148 139.196 126.562 139.867C125.976 140.539 125.546 141.332 125.302 142.189C120.634 156.172 115.849 170.115 111.098 184.071C110.967 184.456 110.809 184.827 110.5 185.625C109.283 183.184 108.231 181.101 107.2 179.011C98.785 161.948 90.3631 144.884 81.9963 127.792C81.7116 127.128 81.2845 126.535 80.7451 126.053C80.2058 125.572 79.5674 125.215 78.875 125.008C64.8362 120.312 50.825 115.521 36.8069 110.756C36.2913 110.578 35.7894 110.364 34.875 110.014Z" fill="white"/>
</g>
<defs>
<clipPath id="clip0_2_20081">
<rect width="220" height="220" fill="white" transform="translate(0.5)"/>
</clipPath>
</defs>
</svg>
