<svg width="221" height="220" viewBox="0 0 221 220" fill="none" xmlns="http://www.w3.org/2000/svg">
<g clip-path="url(#clip0_2_20073)">
<path d="M110.5 220C171.251 220 220.5 170.751 220.5 110C220.5 49.2487 171.251 0 110.5 0C49.7487 0 0.5 49.2487 0.5 110C0.5 170.751 49.7487 220 110.5 220Z" fill="#36A9CF"/>
<path fill-rule="evenodd" clip-rule="evenodd" d="M181.381 127.016C182.591 127.545 183.038 129.188 182.385 130.687C182.19 131.184 181.869 131.621 181.452 131.955C181.036 132.289 180.54 132.508 180.013 132.591L164.716 160.8C164.851 161.429 164.82 162.083 164.624 162.697C164.429 163.311 164.077 163.863 163.602 164.299C163.224 164.694 162.764 165.001 162.255 165.2C161.745 165.398 161.199 165.482 160.653 165.447L130.822 183.308C130.591 183.896 130.208 184.413 129.713 184.806C129.218 185.2 128.629 185.456 128.004 185.55C126.532 185.831 125.13 185.295 124.456 184.298L89.4075 181.844C88.9717 182.176 88.467 182.407 87.9304 182.519C87.3939 182.63 86.8391 182.621 86.3068 182.49C84.5743 182.112 83.3781 180.73 83.4468 179.307L56.3662 159.768C55.8005 159.87 55.2189 159.835 54.669 159.668C54.1192 159.501 53.617 159.205 53.2037 158.806C52.0212 157.733 51.595 156.173 52.0487 154.99L40.9112 129.161C39.6943 128.92 38.6425 127.724 38.3675 126.143C38.1406 124.72 38.6081 123.379 39.4812 122.664L41.1243 83.5658C40.7545 83.0616 40.5167 82.4729 40.4326 81.8532C40.3486 81.2336 40.4209 80.6028 40.6431 80.0183C41.1931 78.4164 42.52 77.4058 43.8262 77.4745L73.0587 46.8464C72.8043 45.4027 73.9044 43.8695 75.63 43.3264C76.1654 43.1438 76.7358 43.0879 77.2965 43.163C77.8572 43.2382 78.3928 43.4424 78.8612 43.7595L120.922 36.1145C121.466 34.877 123.006 34.1483 124.669 34.4439C126.182 34.7052 127.316 35.7433 127.584 36.9395L147.013 48.022C147.552 47.8499 148.121 47.7965 148.683 47.8653C149.244 47.9341 149.784 48.1236 150.265 48.4208C150.795 48.7292 151.248 49.1547 151.588 49.6646C151.929 50.1745 152.149 50.7555 152.231 51.3633L160.591 56.987C161.131 56.8408 161.696 56.8205 162.245 56.9278C162.793 57.0351 163.309 57.2671 163.754 57.6058C165.321 58.7333 165.885 60.6995 164.991 62.0058L164.936 62.0746L177.194 85.9995C178.363 85.8414 179.559 86.7489 179.986 88.1858C180.453 89.7602 179.807 91.362 178.556 91.7608C177.297 92.1733 175.902 91.2245 175.441 89.6571L175.359 89.3133L150.134 75.8039C149.733 76.3688 149.187 76.8152 148.553 77.0964V144.43C149.377 144.794 150.049 145.431 150.455 146.235C150.862 147.039 150.977 147.958 150.781 148.837L161.024 159.273C161.549 159.051 162.123 158.97 162.688 159.04L178.157 131.705C177.89 131.265 177.737 130.765 177.712 130.252C177.687 129.738 177.79 129.226 178.012 128.762C178.666 127.263 180.178 126.486 181.381 127.016ZM181.409 130.281C181.67 129.676 181.484 129.023 181.003 128.81C180.522 128.604 179.917 128.913 179.656 129.511C179.394 130.11 179.573 130.763 180.061 130.983C180.542 131.189 181.141 130.88 181.409 130.281ZM163.087 163.226C163.637 162.676 163.733 161.865 163.3 161.411C162.867 160.958 162.069 161.033 161.512 161.576C160.962 162.126 160.866 162.945 161.299 163.398C161.732 163.852 162.537 163.776 163.087 163.226ZM158.762 161.508L158.838 161.343L149.014 151.346C148.426 151.714 147.747 151.909 147.054 151.91C146.332 151.909 145.626 151.701 145.018 151.311C144.41 150.921 143.926 150.366 143.624 149.71H130.437C130.096 150.426 129.545 151.021 128.856 151.415L130.142 170.026C130.651 170.246 131.104 170.562 131.448 170.954L158.762 161.508ZM130.107 180.661L153.943 166.389L132.218 173.896C132.074 174.439 131.804 174.941 131.431 175.36C131.057 175.779 130.589 176.105 130.066 176.31L129.406 180.187C129.661 180.312 129.897 180.471 130.107 180.661ZM127.873 184.36C128.629 184.223 129.145 183.604 129.035 182.971C128.925 182.353 128.21 181.954 127.454 182.105C126.704 182.243 126.182 182.861 126.292 183.487C126.409 184.113 127.117 184.505 127.873 184.36ZM124.408 181.624C124.864 180.872 125.577 180.31 126.416 180.043L127.041 176.365C126.484 176.157 125.983 175.823 125.577 175.388L98.2281 179.802L124.408 181.624ZM98.8262 151.814L89.93 178.056L124.415 172.487L100.016 151.312C99.6506 151.546 99.2483 151.716 98.8262 151.814ZM87.3793 176.255L95.8631 151.236C95.3042 150.849 94.8582 150.32 94.5706 149.703H79.0606C78.9652 149.894 78.8573 150.077 78.7375 150.253L87.3793 176.255ZM86.3275 181.308C87.0837 181.473 87.7987 181.101 87.9225 180.483C88.06 179.864 87.5581 179.225 86.8018 179.053C86.0456 178.895 85.3306 179.259 85.2 179.878C85.0693 180.51 85.5712 181.143 86.3275 181.308ZM58.2293 157.85L84.3887 176.729L76.125 151.869C75.5291 151.947 74.9232 151.881 74.3577 151.678C73.7922 151.474 73.2833 151.139 72.8731 150.7L58.2775 157.06C58.2984 157.324 58.2845 157.59 58.2362 157.85H58.2293ZM55.7818 153.739C56.1537 153.903 56.5008 154.118 56.8131 154.378L71.8212 147.847C71.8509 147.104 72.0892 146.385 72.5087 145.771L49.2987 121.784L55.7818 153.739ZM55.6237 157.926C56.0362 157.458 55.8987 156.647 55.3281 156.125C54.7506 155.609 53.9531 155.568 53.5406 156.042C53.1281 156.523 53.2518 157.335 53.8293 157.85C54.4068 158.366 55.2112 158.4 55.6168 157.926H55.6237ZM43.3175 128.136L51.3062 146.651L45.9506 120.265L43.84 124.761C44.0113 125.327 44.0533 125.924 43.9629 126.508C43.8724 127.092 43.6519 127.649 43.3175 128.136ZM43.125 98.2989L42.1625 121.344L44.0737 117.288C43.7582 116.689 43.6066 116.018 43.6343 115.341C43.6621 114.665 43.8683 114.008 44.2318 113.438L43.125 98.2989ZM41.75 80.0733C41.4887 80.8158 41.7706 81.5858 42.355 81.7989C42.9462 82.0052 43.62 81.5789 43.8743 80.8364C44.1287 80.0939 43.8606 79.3239 43.2693 79.1108C42.6781 78.9045 42.0043 79.3308 41.7431 80.0733H41.75ZM47.5525 115.5C47.5525 114.716 46.9818 114.084 46.2943 114.084C45.6 114.084 45.0293 114.716 45.0293 115.5C45.0293 116.291 45.6 116.923 46.2943 116.923C46.9818 116.923 47.5525 116.291 47.5525 115.5ZM45.9712 81.9089C45.7776 82.4929 45.4558 83.0261 45.0293 83.4695L47.0231 110.901L59.2606 72.2014L46.1637 81.0908C46.1252 81.3689 46.0608 81.6428 45.9712 81.9089ZM66.775 57.2621L50.0412 74.7933L58.6143 68.9771C58.7295 68.1941 59.0685 67.4611 59.5906 66.8664C60.1281 66.2277 60.8555 65.7773 61.6668 65.5808L66.775 57.2621ZM75.3962 48.9639L64.4856 66.7152C64.7492 67.2056 64.8639 67.7624 64.8156 68.3171L72.8937 70.7989C73.3156 70.3466 73.8428 70.0056 74.4282 69.8062C75.0137 69.6067 75.6394 69.555 76.2497 69.6557C76.86 69.7564 77.4359 70.0064 77.9263 70.3833C78.4167 70.7603 78.8064 71.2526 79.0606 71.8164H92.5837C92.8345 71.2774 93.2074 70.8042 93.6728 70.4343C94.1382 70.0644 94.6833 69.8079 95.265 69.6852L102.614 54.0514C102.218 53.53 101.958 52.918 101.858 52.2708L79.3906 47.2933C78.8814 48.0334 78.1341 48.5769 77.2731 48.8333C76.6672 49.0272 76.0239 49.0743 75.3962 48.9708V48.9639ZM75.795 44.4745C75.0593 44.7014 74.6125 45.382 74.7912 45.987C74.9768 46.5989 75.7193 46.9014 76.4481 46.6745C77.1837 46.4477 77.6375 45.767 77.4518 45.162C77.2731 44.5502 76.5375 44.2408 75.795 44.4745ZM118.75 39.222L84.8425 45.3958L102.58 49.3214C103.058 48.6677 103.735 48.1856 104.509 47.9466C105.283 47.7076 106.113 47.7244 106.877 47.9945L118.75 39.222ZM122.909 39.8889L110.266 49.2389L144.951 50.2014L145.026 49.9402L126.642 39.4627C126.224 39.7693 125.746 39.9857 125.24 40.0982C124.733 40.2106 124.209 40.2166 123.7 40.1158C123.429 40.0672 123.165 39.9911 122.909 39.8889ZM124.546 35.6333C123.789 35.4958 123.081 35.8945 122.978 36.527C122.875 37.1458 123.391 37.7645 124.154 37.902C124.91 38.0395 125.611 37.6408 125.721 37.0083C125.831 36.3895 125.302 35.7708 124.546 35.6333ZM146.772 54.3677C146.303 54.0778 145.895 53.6995 145.569 53.2539L109.386 52.2502C109.359 52.4652 109.31 52.677 109.242 52.8827L123.844 69.7195C124.688 69.5362 125.569 69.6445 126.343 70.0266C127.117 70.4087 127.739 71.0421 128.107 71.8233H143.624C144.003 71.0166 144.649 70.3657 145.452 69.9808L146.772 54.3677ZM147.047 71.9539C146.216 71.9539 145.535 72.6552 145.535 73.5145C145.535 74.3739 146.216 75.0683 147.047 75.0683C147.893 75.0683 148.581 74.3739 148.581 73.5145C148.581 72.6552 147.893 71.9539 147.054 71.9539H147.047ZM147.728 49.9539C147.35 50.6139 147.632 51.5077 148.361 51.9339C149.082 52.3739 149.983 52.1883 150.354 51.5214C150.739 50.8614 150.457 49.9745 149.729 49.5414C149 49.1083 148.106 49.2939 147.728 49.9539ZM174.644 86.5152L149.708 54.9795L148.45 69.8914C149.117 70.1645 149.696 70.6177 150.121 71.2004C150.546 71.7831 150.8 72.4724 150.856 73.1914L174.644 86.5152ZM158.879 59.0358L153.283 55.282L171.344 78.7946L162.557 63.0714C161.823 63.0144 161.119 62.755 160.522 62.322C159.354 61.4902 158.735 60.1908 158.872 59.0358H158.879ZM161.492 58.6439C161.134 59.1664 161.354 59.9502 161.987 60.4039C162.612 60.8508 163.417 60.7958 163.774 60.2664C164.132 59.7508 163.912 58.9602 163.286 58.5133C162.647 58.0664 161.849 58.1214 161.499 58.6508L161.492 58.6439ZM123.198 73.5145C123.198 74.3533 123.851 75.0339 124.683 75.0339C125.082 75.0285 125.462 74.8658 125.742 74.5813C126.021 74.2967 126.177 73.9133 126.175 73.5145C126.179 73.1146 126.024 72.7294 125.744 72.4434C125.465 72.1574 125.083 71.9937 124.683 71.9883C124.283 71.9937 123.902 72.1574 123.622 72.4434C123.342 72.7294 123.188 73.1146 123.191 73.5145H123.198ZM124.016 106.329C123.814 106.331 123.614 106.372 123.428 106.451C123.242 106.53 123.073 106.645 122.931 106.79C122.79 106.934 122.678 107.105 122.602 107.292C122.526 107.48 122.488 107.68 122.49 107.883C122.49 108.742 123.177 109.443 124.016 109.443C124.218 109.441 124.418 109.398 124.604 109.318C124.79 109.238 124.958 109.123 125.099 108.978C125.24 108.833 125.351 108.661 125.426 108.474C125.501 108.286 125.538 108.085 125.536 107.883C125.538 107.681 125.501 107.48 125.426 107.293C125.351 107.105 125.24 106.934 125.099 106.79C124.958 106.646 124.789 106.531 124.603 106.452C124.418 106.372 124.218 106.331 124.016 106.329ZM104.099 51.1639C104.099 52.0233 104.78 52.7177 105.619 52.7177C105.821 52.7159 106.021 52.6743 106.207 52.5952C106.393 52.5161 106.562 52.4012 106.704 52.2569C106.845 52.1126 106.957 51.9418 107.033 51.7543C107.109 51.5668 107.147 51.3662 107.145 51.1639C107.145 50.3045 106.457 49.6033 105.619 49.6033C105.416 49.606 105.217 49.6485 105.031 49.7284C104.845 49.8083 104.677 49.924 104.536 50.0689C104.395 50.2138 104.284 50.3851 104.209 50.573C104.134 50.7609 104.097 50.9617 104.099 51.1639ZM105.213 55.5433L98.2418 70.3589C99.0212 70.9317 99.5603 71.7734 99.7546 72.7209C99.9489 73.6684 99.7847 74.6543 99.2937 75.4877L122.531 104.294C122.745 104.206 122.965 104.136 123.191 104.088V77.0964C122.681 76.8744 122.225 76.5456 121.853 76.1323C121.481 75.719 121.202 75.2307 121.034 74.7004C120.867 74.1701 120.815 73.61 120.882 73.058C120.95 72.5059 121.134 71.9747 121.424 71.5002L107.262 55.1789C106.626 55.4885 105.917 55.6147 105.213 55.5433ZM94.4881 73.5145C94.4881 74.3739 95.1756 75.0683 96.0143 75.0683C96.8462 75.0683 97.5337 74.3739 97.5337 73.5145C97.5337 72.6552 96.8462 71.9539 96.0143 71.9539C95.6053 71.9594 95.215 72.1266 94.929 72.4191C94.643 72.7116 94.4844 73.1055 94.4881 73.5145ZM74.1381 73.5145C74.1381 74.3533 74.7981 75.0339 75.6231 75.0339C76.4481 75.0339 77.115 74.3533 77.115 73.5145C77.115 72.6689 76.4481 71.9883 75.6231 71.9883C74.7981 71.9883 74.1381 72.6758 74.1381 73.5145ZM75.6231 146.458C75.4218 146.461 75.2229 146.503 75.0379 146.583C74.853 146.662 74.6855 146.778 74.545 146.922C74.4046 147.066 74.2939 147.237 74.2194 147.424C74.1448 147.611 74.1079 147.811 74.1106 148.012C74.1106 148.871 74.7843 149.566 75.6231 149.566C75.8253 149.564 76.0252 149.522 76.2114 149.443C76.3975 149.364 76.5663 149.249 76.708 149.105C76.8498 148.961 76.9617 148.79 77.0374 148.602C77.1131 148.415 77.1512 148.214 77.1493 148.012C77.1521 147.81 77.1147 147.609 77.0393 147.421C76.9639 147.233 76.852 147.062 76.7101 146.917C76.5682 146.773 76.399 146.658 76.2125 146.579C76.0259 146.5 75.8256 146.459 75.6231 146.458ZM60.5256 67.6708C60.0237 68.2621 59.9825 69.0802 60.4568 69.4995C60.9175 69.9121 61.7081 69.7883 62.2168 69.1902C62.7256 68.6058 62.76 67.7877 62.2925 67.3683C61.825 66.942 61.0412 67.0796 60.5256 67.6708ZM49.3537 113.451C49.7391 114.065 49.9418 114.776 49.9381 115.5C49.9381 116.256 49.7318 116.958 49.3743 117.528L74.1381 143.117V77.0964C73.4657 76.8002 72.8911 76.3194 72.481 75.7097C72.0709 75.1 71.8421 74.3865 71.8212 73.6521L63.42 71.0739C63.159 71.3108 62.8677 71.5119 62.5537 71.6721L49.3537 113.451ZM127 144.114C128.643 144.114 130.039 145.18 130.575 146.658H143.486C143.663 146.165 143.938 145.713 144.295 145.33C144.652 144.947 145.083 144.641 145.562 144.43V77.0964C145.083 76.8862 144.651 76.5801 144.294 76.1971C143.937 75.814 143.662 75.3621 143.486 74.8689H128.251C128.073 75.3609 127.797 75.8118 127.44 76.1946C127.084 76.5774 126.653 76.8841 126.175 77.0964V104.665C126.688 105.03 127.106 105.512 127.393 106.072C127.68 106.632 127.829 107.253 127.825 107.883C127.836 108.904 127.441 109.889 126.727 110.62C126.013 111.35 125.038 111.768 124.016 111.781C123.51 111.775 123.01 111.67 122.544 111.471C122.079 111.272 121.657 110.984 121.303 110.622C120.95 110.26 120.671 109.831 120.483 109.361C120.295 108.891 120.201 108.389 120.207 107.883C120.207 107.401 120.29 106.941 120.455 106.508L96.8875 77.3027C95.9766 77.5122 95.0206 77.3801 94.2007 76.9315C93.3808 76.4829 92.754 75.749 92.4393 74.8689H79.1981C79.0191 75.3615 78.7423 75.8129 78.3843 76.1957C78.0263 76.5785 77.5945 76.8849 77.115 77.0964V144.43C78.0775 144.843 78.8268 145.654 79.1981 146.658H94.4262C94.6052 146.165 94.882 145.714 95.24 145.331C95.598 144.948 96.0298 144.642 96.5093 144.43V116.449C95.9486 116.097 95.4866 115.608 95.1667 115.028C94.8468 114.449 94.6795 113.797 94.6806 113.135C94.6742 112.628 94.768 112.125 94.9565 111.655C95.145 111.185 95.4245 110.756 95.779 110.394C96.1335 110.032 96.556 109.743 97.0223 109.545C97.4886 109.346 97.9895 109.242 98.4962 109.237C99.1212 109.239 99.7362 109.393 100.288 109.686C100.84 109.979 101.313 110.402 101.665 110.919C102.016 111.435 102.237 112.03 102.308 112.65C102.379 113.271 102.298 113.9 102.071 114.483L126.017 144.251C126.338 144.166 126.668 144.119 127 144.114ZM128.65 171.937C127.825 171.937 127.137 172.556 127.137 173.326C127.137 174.096 127.825 174.708 128.65 174.708C129.496 174.708 130.183 174.089 130.183 173.333C130.183 172.576 129.496 171.937 128.657 171.937H128.65ZM125.481 148.012C125.481 148.871 126.161 149.566 126.993 149.566C127.196 149.565 127.397 149.524 127.584 149.445C127.77 149.367 127.94 149.252 128.082 149.107C128.225 148.963 128.337 148.792 128.414 148.604C128.49 148.416 128.528 148.215 128.526 148.012C128.528 147.81 128.49 147.609 128.414 147.422C128.339 147.234 128.227 147.063 128.085 146.919C127.943 146.775 127.774 146.66 127.588 146.581C127.402 146.502 127.202 146.46 127 146.458C126.593 146.464 126.204 146.63 125.919 146.921C125.635 147.213 125.477 147.605 125.481 148.012ZM96.97 113.135C96.97 113.995 97.6575 114.689 98.4962 114.689C99.335 114.689 100.016 113.995 100.016 113.135C100.016 112.269 99.335 111.581 98.4962 111.581C97.6575 111.581 96.97 112.269 96.97 113.135ZM98.0012 146.458C97.799 146.46 97.5991 146.502 97.4129 146.581C97.2268 146.66 97.058 146.775 96.9163 146.919C96.7746 147.063 96.6626 147.234 96.5869 147.422C96.5112 147.609 96.4732 147.81 96.475 148.012C96.475 148.871 97.1625 149.566 98.0012 149.566C98.84 149.566 99.5206 148.871 99.5206 148.012C99.5233 147.81 99.4861 147.61 99.4112 147.422C99.3362 147.235 99.2249 147.064 99.0838 146.919C98.9426 146.775 98.7743 146.66 98.5885 146.581C98.4027 146.502 98.2031 146.46 98.0012 146.458ZM99.4862 144.43C100.307 144.79 100.978 145.423 101.387 146.221C101.795 147.019 101.915 147.933 101.727 148.81L126.429 170.239C126.654 170.108 126.891 170 127.137 169.916L125.872 151.738C125.089 151.481 124.407 150.981 123.925 150.312C123.443 149.642 123.186 148.837 123.191 148.012C123.191 147.325 123.363 146.685 123.672 146.135L100.002 116.71C99.835 116.783 99.6626 116.843 99.4862 116.889V144.43ZM148.574 148.005C148.576 147.804 148.538 147.604 148.462 147.417C148.387 147.231 148.276 147.061 148.134 146.917C147.993 146.773 147.825 146.659 147.64 146.58C147.455 146.502 147.256 146.46 147.054 146.458C146.852 146.46 146.652 146.502 146.466 146.581C146.28 146.66 146.111 146.775 145.969 146.919C145.828 147.063 145.716 147.234 145.64 147.422C145.564 147.609 145.526 147.81 145.528 148.012C145.528 148.871 146.216 149.566 147.054 149.566C147.893 149.566 148.581 148.871 148.581 148.012L148.574 148.005ZM40.5675 127.236C41.1862 127.133 41.5781 126.418 41.4475 125.648C41.31 124.871 40.7118 124.328 40.1 124.438C39.4812 124.541 39.0962 125.263 39.2268 126.033C39.3506 126.81 39.9556 127.353 40.5675 127.236ZM177.875 87.9521C177.38 88.1102 177.119 88.7564 177.304 89.382C177.49 90.0077 178.047 90.3858 178.542 90.2277C179.051 90.0695 179.298 89.4233 179.119 88.7977C178.941 88.1652 178.377 87.7939 177.882 87.9521H177.875Z" fill="white"/>
</g>
<defs>
<clipPath id="clip0_2_20073">
<rect width="220" height="220" fill="white" transform="translate(0.5)"/>
</clipPath>
</defs>
</svg>
