<svg width="221" height="220" viewBox="0 0 221 220" fill="none" xmlns="http://www.w3.org/2000/svg">
<g clip-path="url(#clip0_2_20069)">
<path d="M110.5 220C171.251 220 220.5 170.751 220.5 110C220.5 49.2487 171.251 0 110.5 0C49.7487 0 0.5 49.2487 0.5 110C0.5 170.751 49.7487 220 110.5 220Z" fill="#622FBA"/>
<path fill-rule="evenodd" clip-rule="evenodd" d="M128.279 119.46C127.681 119.646 127.103 119.873 126.539 120.134L101.267 93.8646C102.267 92.1307 102.858 90.191 102.994 88.1938C103.13 86.1966 102.808 84.1947 102.051 82.3412C101.295 80.4878 100.125 78.8317 98.6307 77.4997C97.1364 76.1677 95.3573 75.1949 93.4294 74.6558V56.279L86.6644 52.4977L102.291 43.4571C104.786 42.0135 107.618 41.2533 110.5 41.2533C113.382 41.2533 116.214 42.0135 118.709 43.4571L149.777 61.4421L137.498 68.544C135.498 67.6565 133.307 67.2827 131.126 67.4566C128.945 67.6305 126.841 68.3465 125.007 69.5397C123.172 70.7328 121.665 72.3653 120.621 74.2889C119.578 76.2125 119.032 78.3662 119.032 80.5546C119.033 83.3581 119.931 86.0878 121.595 88.3442C123.258 90.6006 125.601 92.2653 128.279 93.0946V119.46ZM136.103 119.46V93.0877C137.981 92.5051 139.705 91.508 141.146 90.17C142.588 88.8319 143.71 87.1872 144.431 85.3571C145.152 83.5271 145.452 81.5585 145.31 79.5968C145.168 77.6351 144.587 75.7304 143.61 74.0233L157.566 65.9521L164.235 69.8021C166.711 71.235 168.767 73.2941 170.196 75.7728C171.625 78.2514 172.376 81.0624 172.375 83.9233V136.077C172.375 141.893 169.274 147.27 164.228 150.191L136.109 166.471V144.526C138.78 143.691 141.114 142.024 142.77 139.769C144.427 137.514 145.32 134.789 145.319 131.991C145.318 129.193 144.424 126.468 142.766 124.214C141.108 121.96 138.773 120.294 136.103 119.46ZM120.792 125.435C119.809 127.141 119.223 129.047 119.077 131.011C118.931 132.975 119.228 134.946 119.947 136.78C120.666 138.613 121.788 140.261 123.231 141.602C124.673 142.943 126.398 143.943 128.279 144.526V171.002L118.709 176.543C116.214 177.987 113.382 178.747 110.5 178.747C107.618 178.747 104.786 177.987 102.291 176.543L68.8375 157.183L81.405 147.366C83.7757 149.356 86.7731 150.444 89.8681 150.439C91.5946 150.442 93.3047 150.104 94.9006 149.445C96.4965 148.787 97.947 147.82 99.1691 146.601C100.391 145.381 101.361 143.933 102.023 142.338C102.685 140.744 103.026 139.034 103.027 137.308C103.024 134.442 102.084 131.656 100.35 129.374C98.6158 127.093 96.1829 125.441 93.4225 124.671V99.9352C94.1444 99.7358 94.8456 99.4746 95.5125 99.1583L120.792 125.435ZM85.6056 124.891C82.4473 125.97 79.8182 128.211 78.2526 131.158C76.687 134.105 76.3024 137.538 77.1769 140.759L61.5637 152.969L56.7719 150.198C54.2943 148.766 52.2372 146.708 50.8072 144.229C49.3771 141.75 48.6246 138.939 48.625 136.077V83.9233C48.625 78.1071 51.7256 72.7308 56.7719 69.809L78.8063 57.049L85.6125 60.8508V74.8758C83.0246 75.7635 80.7786 77.4374 79.1882 79.6636C77.5978 81.8898 76.7425 84.5571 76.7417 87.2931C76.741 90.029 77.5948 92.6968 79.184 94.9239C80.7731 97.151 83.0182 98.8261 85.6056 99.7152V124.891ZM89.875 92.9708C89.1122 92.9983 88.3517 92.8719 87.6388 92.5991C86.926 92.3264 86.2753 91.9129 85.7256 91.3833C85.176 90.8537 84.7386 90.2188 84.4395 89.5166C84.1405 88.8143 83.9859 88.059 83.9849 87.2958C83.984 86.5325 84.1368 85.7768 84.4342 85.0739C84.7315 84.3709 85.1674 83.735 85.7157 83.2041C86.2641 82.6731 86.9138 82.2581 87.626 81.9836C88.3382 81.7091 89.0984 81.5809 89.8613 81.6065C91.3341 81.6559 92.7303 82.2753 93.7554 83.3341C94.7805 84.3928 95.3544 85.8083 95.3562 87.282C95.358 88.7557 94.7875 90.1726 93.7649 91.2338C92.7424 92.2951 91.3478 92.9178 89.875 92.9708ZM89.875 142.986C89.1122 143.014 88.3517 142.887 87.6388 142.615C86.926 142.342 86.2753 141.928 85.7256 141.399C85.176 140.869 84.7386 140.234 84.4395 139.532C84.1405 138.83 83.9859 138.075 83.9849 137.311C83.984 136.548 84.1368 135.792 84.4342 135.09C84.7315 134.387 85.1674 133.751 85.7157 133.22C86.2641 132.689 86.9138 132.274 87.626 131.999C88.3382 131.725 89.0984 131.596 89.8613 131.622C91.3341 131.672 92.7303 132.291 93.7554 133.35C94.7805 134.408 95.3544 135.824 95.3562 137.298C95.358 138.771 94.7875 140.188 93.7649 141.249C92.7424 142.311 91.3478 142.933 89.875 142.986ZM132.191 86.2333C131.428 86.2608 130.667 86.1344 129.954 85.8616C129.242 85.5888 128.591 85.1754 128.041 84.6458C127.492 84.1162 127.054 83.4813 126.755 82.7791C126.456 82.0768 126.301 81.3215 126.301 80.5583C126.3 79.795 126.452 79.0393 126.75 78.3364C127.047 77.6334 127.483 76.9975 128.031 76.4666C128.58 75.9357 129.229 75.5206 129.942 75.2461C130.654 74.9716 131.414 74.8434 132.177 74.869C133.65 74.9184 135.046 75.5378 136.071 76.5966C137.096 77.6553 137.67 79.0708 137.672 80.5445C137.674 82.0182 137.103 83.4351 136.081 84.4963C135.058 85.5576 133.663 86.1803 132.191 86.2333ZM132.191 137.672C130.683 137.674 129.236 137.077 128.168 136.012C127.101 134.947 126.5 133.501 126.498 131.993C126.496 130.485 127.094 129.039 128.159 127.971C129.224 126.903 130.669 126.303 132.177 126.301C133.685 126.299 135.132 126.896 136.199 127.961C137.267 129.026 137.868 130.472 137.869 131.98C137.871 133.488 137.274 134.934 136.209 136.002C135.144 137.069 133.699 137.67 132.191 137.672Z" fill="white"/>
</g>
<defs>
<clipPath id="clip0_2_20069">
<rect width="220" height="220" fill="white" transform="translate(0.5)"/>
</clipPath>
</defs>
</svg>
