<svg width="221" height="220" viewBox="0 0 221 220" fill="none" xmlns="http://www.w3.org/2000/svg">
<g clip-path="url(#clip0_2_20065)">
<path d="M110.5 220C171.251 220 220.5 170.751 220.5 110C220.5 49.2487 171.251 0 110.5 0C49.7487 0 0.5 49.2487 0.5 110C0.5 170.751 49.7487 220 110.5 220Z" fill="#50479E"/>
<path d="M140.475 93.9127V126.803L110.864 143.076V110.2L140.468 93.9264L140.475 93.9127ZM175.812 85.4839V134.51C175.812 137.995 174.85 141.405 173.042 144.368C171.254 147.325 168.662 149.834 165.452 151.601L143.369 163.735V131.381L146.161 129.848V90.8052L173.207 75.9346C174.884 78.8221 175.812 82.0877 175.812 85.4908V85.4839ZM55.5481 151.601C52.5377 149.957 49.9946 147.574 48.1575 144.678C46.2246 141.64 45.1946 138.117 45.1875 134.516V103.125L75.6025 126.878V128.198L75.6506 129.56L78.0156 130.955L108.376 147.648L110.878 149.023V178.75C107.131 178.825 103.429 177.92 100.139 176.124L55.5481 151.594V151.601ZM54.2831 69.1627L86.4375 51.5627L108.3 72.7377L75.6025 90.7708V93.5208L45.2563 110.186L45.1875 85.4771C45.1875 81.9914 46.15 78.5677 47.9719 75.6046C49.5669 72.9921 51.7256 70.7921 54.2831 69.1558V69.1627ZM165.452 68.3996C168.672 70.1585 171.353 72.7609 173.207 75.9277L146.161 90.7983V90.5508L143.369 89.0177L113.573 72.6414L143.369 56.2583L165.452 68.3996ZM45.2563 110.2L75.6025 93.5139V126.878L45.2563 110.193V110.2ZM110.878 71.3627V41.2502C114.37 41.3032 117.797 42.207 120.861 43.8833L143.369 56.2583L113.573 72.6346L110.878 71.3627ZM108.376 72.7377L78.0706 56.0864L101.459 43.2233C104.411 41.8653 107.63 41.1908 110.878 41.2502V71.3627L108.376 72.7377ZM111.071 149.126L113.573 147.751L143.012 163.935L120.861 176.117C117.796 177.79 114.37 178.692 110.878 178.743V149.023L111.071 149.126ZM143.369 131.375V163.735L143.012 163.935L113.573 147.751L143.369 131.375Z" fill="white"/>
</g>
<defs>
<clipPath id="clip0_2_20065">
<rect width="220" height="220" fill="white" transform="translate(0.5)"/>
</clipPath>
</defs>
</svg>
