<svg width="221" height="220" viewBox="0 0 221 220" fill="none" xmlns="http://www.w3.org/2000/svg">
<g clip-path="url(#clip0_2_20051)">
<path d="M110.5 220C171.251 220 220.5 170.751 220.5 110C220.5 49.2487 171.251 0 110.5 0C49.7487 0 0.5 49.2487 0.5 110C0.5 170.751 49.7487 220 110.5 220Z" fill="#B3BA00"/>
<path d="M90.7688 73.315L89.875 73.8581L131.125 137.5V73.8031L110.527 61.875L90.7688 73.315ZM89.875 145.509L111.435 158.125L131.125 146.63L89.875 82.5V145.509ZM69.25 84.9475V135.052L83 144.375V75.625L69.25 84.9475ZM138 144.375L151.75 134.839V85.1606L138 75.625V144.375Z" fill="white"/>
<path d="M110.5 27.5C64.9531 27.5 28 64.4531 28 110C28 155.547 64.9531 192.5 110.5 192.5C156.047 192.5 193 155.547 193 110C193 64.4531 156.047 27.5 110.5 27.5ZM110.156 162.388L65.6338 135.988V83.27L110.163 56.9387L154.686 83.27V135.994L110.163 162.381L110.156 162.388Z" fill="white"/>
</g>
<defs>
<clipPath id="clip0_2_20051">
<rect width="220" height="220" fill="white" transform="translate(0.5)"/>
</clipPath>
</defs>
</svg>
