<svg width="221" height="220" viewBox="0 0 221 220" fill="none" xmlns="http://www.w3.org/2000/svg">
<g clip-path="url(#clip0_2_20041)">
<path d="M110.5 220C171.251 220 220.5 170.751 220.5 110C220.5 49.2487 171.251 0 110.5 0C49.7487 0 0.5 49.2487 0.5 110C0.5 170.751 49.7487 220 110.5 220Z" fill="#1A4199"/>
<path opacity="0.7" d="M73.8975 48.9851L147.68 91.5482V134.991L34.875 69.8438L71.0719 48.9851C71.5108 48.7316 72.0088 48.5982 72.5156 48.5982C73.0225 48.5982 73.5204 48.7316 73.9594 48.9851" fill="white"/>
<path opacity="0.9" d="M147.68 48.125L110.095 69.85L147.68 91.5475V48.125Z" fill="white"/>
<path d="M147.68 48.125L183.87 68.9975C184.325 69.2439 184.705 69.6081 184.971 70.052C185.237 70.4959 185.379 71.0031 185.382 71.5206V156.695L147.68 134.991V48.125Z" fill="white"/>
<path opacity="0.9" d="M185.307 156.696L149.117 177.548C148.674 177.788 148.178 177.914 147.674 177.914C147.169 177.914 146.673 177.788 146.23 177.548L72.4473 134.991V91.4863L185.307 156.696Z" fill="white"/>
<path opacity="0.6" d="M34.875 69.851V155.012C34.8766 155.53 35.018 156.039 35.2841 156.484C35.5502 156.929 35.9314 157.295 36.3875 157.542L72.5844 178.414V91.4866L34.875 69.851Z" fill="white"/>
<path opacity="0.7" d="M72.5225 178.405L110.094 156.694L72.5225 134.989V178.405Z" fill="white"/>
</g>
<defs>
<clipPath id="clip0_2_20041">
<rect width="220" height="220" fill="white" transform="translate(0.5)"/>
</clipPath>
</defs>
</svg>
