<svg width="221" height="220" viewBox="0 0 221 220" fill="none" xmlns="http://www.w3.org/2000/svg">
<g clip-path="url(#clip0_2_20037)">
<path d="M110.5 220C171.251 220 220.5 170.751 220.5 110C220.5 49.2487 171.251 0 110.5 0C49.7487 0 0.5 49.2487 0.5 110C0.5 170.751 49.7487 220 110.5 220Z" fill="#F80000"/>
<path d="M141.438 115.789L95.4025 178.75L97.1006 127.593H86.4375L90.7962 82.6856L139.499 75.9756L123.507 116.71L141.438 115.789ZM103.639 160.463V148.431C103.639 147.537 102.882 146.809 101.947 146.809C101.012 146.809 100.249 147.531 100.249 148.424V160.463C100.249 161.356 101.006 162.085 101.947 162.085C102.889 162.085 103.639 161.356 103.639 160.463ZM91.0438 124.121H100.737L100.291 142.636C100.284 143.124 100.476 143.598 100.834 143.942C101.191 144.286 101.679 144.492 102.188 144.492H102.271C102.755 144.501 103.224 144.321 103.577 143.99C103.93 143.658 104.14 143.202 104.161 142.718L104.608 120.876H94.9144L98.1663 84.9956C98.2006 84.5831 98.0563 84.1706 97.7606 83.8612C97.465 83.5519 97.0525 83.38 96.6125 83.38H96.3375C95.9565 83.3723 95.5863 83.5067 95.2991 83.7571C95.0118 84.0075 94.8281 84.3559 94.7837 84.7344L91.0438 124.121ZM91.0438 78.7463L108.974 63.9375C109.936 49.1219 100.243 46.805 100.243 46.805L101.7 41.25C117.691 45.8769 115.271 63.47 115.271 63.47L138.529 73.1912L91.0438 78.7463Z" fill="white"/>
</g>
<defs>
<clipPath id="clip0_2_20037">
<rect width="220" height="220" fill="white" transform="translate(0.5)"/>
</clipPath>
</defs>
</svg>
