<svg width="221" height="220" viewBox="0 0 221 220" fill="none" xmlns="http://www.w3.org/2000/svg">
<g clip-path="url(#clip0_2_20029)">
<path d="M110.5 220C171.251 220 220.5 170.751 220.5 110C220.5 49.2487 171.251 0 110.5 0C49.7487 0 0.5 49.2487 0.5 110C0.5 170.751 49.7487 220 110.5 220Z" fill="#F28F01"/>
<path fill-rule="evenodd" clip-rule="evenodd" d="M125.288 94.3181L111.944 68.0831C114.721 62.0331 116.11 58.5956 116.11 57.805C116.11 54.9656 114.24 52.8894 110.507 51.5625H151.399C146.36 53.8313 141.877 59.5031 137.959 68.585L125.288 94.3181ZM105.241 135.073L99.0188 147.723H135.711C152.327 147.723 163.438 144.609 169.041 138.373L149.433 168.438H49.1613C59.9894 166.354 70.9137 153.312 81.9275 129.291C85.64 121.908 89.0431 115.087 92.1506 108.845L105.241 135.073ZM34.875 139.219C42.9944 134.399 72.6875 83.0362 72.6875 68.585C72.6875 65.1819 70.6319 61.9644 66.5275 58.9394H98.455L126.182 113.403L153.077 58.9394H186.125C172.121 62.6244 144.394 128.693 144.394 136.379C144.394 137.892 144.669 138.841 145.232 139.219H116.103L91.1744 89.2925L66.5275 139.219H34.875Z" fill="white"/>
</g>
<defs>
<clipPath id="clip0_2_20029">
<rect width="220" height="220" fill="white" transform="translate(0.5)"/>
</clipPath>
</defs>
</svg>
