<svg width="221" height="220" viewBox="0 0 221 220" fill="none" xmlns="http://www.w3.org/2000/svg">
<g clip-path="url(#clip0_2_20025)">
<path d="M110.5 220C171.251 220 220.5 170.751 220.5 110C220.5 49.2487 171.251 0 110.5 0C49.7487 0 0.5 49.2487 0.5 110C0.5 170.751 49.7487 220 110.5 220Z" fill="#2AB0FD"/>
<path fill-rule="evenodd" clip-rule="evenodd" d="M175.915 101.777C177.05 101.763 177.772 101.914 178.225 102.327C178.707 102.767 178.899 103.482 179.002 104.602C182.206 141.583 154.238 175.009 117.141 178.44C78.8885 181.98 45.6822 154.377 42.0522 116.015C38.5185 78.7591 66.4929 44.9616 103.831 41.5654C124.978 39.6404 143.238 46.2816 158.611 60.9254C158.769 61.0766 158.735 61.7091 158.556 61.8879C155.104 65.4048 151.621 68.8905 148.106 72.3447C147.907 72.5372 147.192 72.5097 146.972 72.3104C131.111 57.7766 112.734 53.4729 92.6385 60.7947C72.316 68.1991 60.6904 83.5303 58.3872 105.118C55.2935 134.33 77.3416 160.077 106.753 162.297C133.414 164.305 157.573 145.433 161.993 119.088C162.035 118.827 161.443 118.173 161.141 118.173C144.675 118.125 128.21 118.139 111.751 118.077C111.325 118.077 110.534 117.287 110.52 116.853C110.434 112.252 110.434 107.65 110.52 103.048C110.527 102.636 111.263 101.893 111.668 101.887C122.641 101.825 165.472 101.921 175.908 101.77L175.915 101.777Z" fill="white"/>
</g>
<defs>
<clipPath id="clip0_2_20025">
<rect width="220" height="220" fill="white" transform="translate(0.5)"/>
</clipPath>
</defs>
</svg>
