<svg width="221" height="220" viewBox="0 0 221 220" fill="none" xmlns="http://www.w3.org/2000/svg">
<g clip-path="url(#clip0_2_20021)">
<path d="M110.5 220C171.251 220 220.5 170.751 220.5 110C220.5 49.2487 171.251 0 110.5 0C49.7487 0 0.5 49.2487 0.5 110C0.5 170.751 49.7487 220 110.5 220Z" fill="#186C9D"/>
<path d="M132.919 161.562L132.926 161.549C133.986 161.57 135.044 161.454 136.075 161.205C142.097 159.796 147.192 154.536 148.402 148.858L172.375 58.8225L153.318 58.7262L137.601 117.631L95.1138 58.5269L95.0863 58.5544L95.1069 58.4856L88.0875 58.4375V58.4444C87.0258 58.428 85.9661 58.5411 84.9319 58.7813C78.9163 60.1975 73.8219 65.4569 72.605 71.1287L48.625 161.184L67.6894 161.267L83.3987 102.362L125.886 161.473H125.907L132.919 161.562ZM87.5925 86.6663L90.9131 74.2225L133.408 133.341L130.087 145.784L87.5994 86.6594L87.5925 86.6663Z" fill="white"/>
</g>
<defs>
<clipPath id="clip0_2_20021">
<rect width="220" height="220" fill="white" transform="translate(0.5)"/>
</clipPath>
</defs>
</svg>
