<svg width="221" height="220" viewBox="0 0 221 220" fill="none" xmlns="http://www.w3.org/2000/svg">
<g clip-path="url(#clip0_2_20017)">
<path d="M110.5 220C171.251 220 220.5 170.751 220.5 110C220.5 49.2487 171.251 0 110.5 0C49.7487 0 0.5 49.2487 0.5 110C0.5 170.751 49.7487 220 110.5 220Z" fill="#050708"/>
<path d="M109.503 34.4719C110.256 34.3259 111.031 34.3449 111.775 34.5277C112.519 34.7105 113.215 35.0527 113.814 35.5307L173.64 79.9775C175.015 81.0088 175.875 82.7275 175.806 84.4738V135.514C175.831 136.432 175.627 137.341 175.211 138.16C174.796 138.979 174.183 139.681 173.427 140.203L113.814 184.491C112.833 185.256 111.617 185.657 110.373 185.626C109.13 185.594 107.935 185.133 106.994 184.319C87.1939 169.607 67.4008 154.894 47.6008 140.196C46.8526 139.668 46.243 138.967 45.824 138.153C45.405 137.339 45.1891 136.436 45.1945 135.521V84.5082C45.1867 83.5945 45.3995 82.6924 45.8149 81.8785C46.2302 81.0646 46.8357 80.363 47.5802 79.8332L106.987 35.6957C107.721 35.1012 108.582 34.6826 109.503 34.4719ZM108.788 172.068C108.754 172.866 108.74 173.67 108.733 174.468L108.747 179.259C109.778 179.273 110.81 179.28 111.841 179.259V172.219C110.826 172.124 109.808 172.074 108.788 172.068ZM97.032 165.757L95.2995 165.764C96.537 167.929 97.7127 170.129 98.9777 172.274C100.009 172.274 101.04 172.274 102.085 172.206C101.26 169.923 99.837 167.936 98.7714 165.771C97.6142 165.754 96.4568 165.754 95.2995 165.771L97.032 165.757ZM115.78 169.057C115.761 170.107 115.768 171.156 115.801 172.206H118.688C118.819 171.181 118.826 170.157 118.805 169.126C117.798 169.065 116.789 169.042 115.78 169.057ZM112.515 152.165C108.183 152.193 103.845 152.138 99.507 152.199C99.4933 153.185 99.4933 154.17 99.507 155.156C103.343 155.245 107.186 155.176 111.03 155.197V162.271C110.232 162.278 109.448 162.251 108.665 162.333C108.438 163.268 108.555 164.238 108.541 165.193C109.93 165.234 111.318 165.228 112.707 165.2C113.126 164.726 113.56 164.265 113.993 163.798C113.993 160.429 113.986 157.06 114 153.691C113.506 153.181 113.011 152.672 112.515 152.165ZM135.505 156.125C134.521 155.644 133.476 154.008 132.328 154.991C128.911 157.266 125.391 159.391 122.016 161.728C122.03 162.704 122.036 163.681 122.105 164.65C125.268 164.678 128.423 164.691 131.579 164.643C131.593 163.612 131.593 162.581 131.586 161.549C130.811 161.531 130.037 161.522 129.262 161.522L127.805 161.536C130.314 159.762 132.94 158.174 135.505 156.489V156.125ZM90.5283 157.83L84.3752 157.851C84.3545 158.882 84.3545 159.913 84.3752 160.958C88.4727 160.979 92.577 160.999 96.6814 160.944V157.858C92.577 157.809 88.4727 157.83 84.3752 157.851L90.5283 157.83ZM80.1952 153.313L78.6758 153.32C78.662 154.351 78.6552 155.389 78.6758 156.428C79.6864 156.441 80.7039 156.441 81.7214 156.428C81.7352 155.396 81.7352 154.365 81.7214 153.334C80.7064 153.312 79.691 153.307 78.6758 153.32L80.1952 153.313ZM139.272 142.217C139.231 143.908 139.245 145.599 139.251 147.291C140.901 149.834 142.517 152.399 144.188 154.929C145.576 152.798 146.938 150.625 148.347 148.501C148.608 148.033 149.028 147.579 148.993 147.002C149.028 145.455 149.007 143.908 148.966 142.361C147.687 144.444 146.319 146.466 145.047 148.549C144.758 148.948 144.545 149.456 144.085 149.663C142.421 147.215 140.888 144.685 139.272 142.217ZM129.406 138.415C127.475 138.422 125.543 138.401 123.604 138.436C122.474 142.659 121.296 146.869 120.07 151.065L123.054 151.086L125.721 141.316L127.344 141.399C128.21 144.623 129.131 147.827 129.977 151.058C130.967 151.079 131.971 151.079 132.961 151.079L129.406 138.415ZM69.2364 145.496L66.5345 145.551V148.604C69.2227 148.652 71.9177 148.721 74.6058 148.583C74.7364 147.573 74.6745 146.548 74.6539 145.524C71.9452 145.51 69.2364 145.462 66.5345 145.551L69.2364 145.496ZM90.8927 138.291C87.1595 140.608 83.4883 143.028 79.8102 145.434C79.7964 146.424 79.7964 147.414 79.8239 148.404C85.6195 148.466 91.4152 148.439 97.2108 148.418C97.2383 147.373 97.2383 146.328 97.2177 145.283C93.2989 145.228 89.3939 145.311 85.482 145.235C88.1839 143.592 90.7964 141.818 93.4708 140.127C92.6183 139.501 91.752 138.903 90.8927 138.291ZM103.955 135.995L102.415 136.002C102.374 139.866 102.415 143.736 102.395 147.6L103.323 147.772C104.051 147.703 104.78 147.669 105.509 147.634C105.488 143.757 105.516 139.879 105.488 136.002C104.464 135.991 103.44 135.991 102.415 136.002L103.955 135.995ZM113.429 138.855C112.363 138.999 111.284 139.061 110.205 139.061C111.421 141.193 112.625 143.344 113.814 145.503L116.839 145.483C116.186 143.076 114.694 140.973 113.429 138.855ZM154.397 140.319L152.816 140.347C152.795 141.364 152.795 142.382 152.816 143.399C153.868 143.448 154.926 143.448 155.978 143.42V140.333C154.924 140.31 153.87 140.314 152.816 140.347L154.397 140.319ZM80.2295 127.999C78.5452 130.488 77.0189 133.087 75.3208 135.555C73.7327 133.053 72.1239 130.557 70.5152 128.061C70.4773 129.773 70.4705 131.485 70.4945 133.197C72.1652 135.631 73.712 138.147 75.307 140.622C77.0327 138.154 78.5727 135.555 80.257 133.053C80.2433 131.368 80.2639 129.684 80.2295 127.999ZM88.1358 131.265C88.067 132.331 88.0739 133.396 88.1152 134.462C89.1327 134.476 90.1502 134.469 91.1608 134.462C91.1843 133.422 91.1843 132.381 91.1608 131.341C90.1542 131.269 89.1448 131.243 88.1358 131.265ZM130.183 122.85L128.643 124.294C128.643 125.669 128.636 127.037 128.664 128.405C129.647 128.405 130.637 128.405 131.62 128.391C131.641 127.546 131.648 126.7 131.641 125.848L138.543 125.854C138.509 128.639 138.53 131.416 138.536 134.194C139.533 134.221 140.53 134.228 141.534 134.221V124.301L140.042 122.857C136.756 122.85 133.47 122.871 130.183 122.843V122.85ZM53.2039 120.877H51.2652L49.8077 122.328L49.7939 129.072L49.8352 132.441C50.0895 133.053 50.6602 133.582 51.2239 133.912C54.5927 134.008 57.9683 133.912 61.3439 133.953H62.7533L64.1695 133.946C64.1764 132.97 64.1764 131.994 64.1558 131.018C60.3608 130.976 56.5589 131.011 52.757 130.997C52.7295 128.632 52.757 126.274 52.7364 123.909L55.1427 123.874C55.1515 122.882 55.1492 121.89 55.1358 120.898C53.8457 120.876 52.5554 120.871 51.2652 120.884L53.2039 120.877ZM119.575 123.489C115.918 125.964 112.15 128.254 108.486 130.729C108.5 131.733 108.5 132.729 108.644 133.719C114.419 133.719 120.201 133.747 125.976 133.713C126.004 132.631 126.004 131.549 125.976 130.468C122.126 130.419 118.262 130.495 114.398 130.426C116.976 128.687 119.665 127.113 122.195 125.304C121.308 124.713 120.448 124.094 119.582 123.483L119.575 123.489ZM160.75 123.008C157.071 125.366 153.393 127.718 149.75 130.131C149.736 131.134 149.736 132.145 149.75 133.156C155.525 133.176 161.293 133.176 167.061 133.156C167.075 132.111 167.075 131.052 167.061 130.007C163.176 129.979 159.292 130.028 155.415 129.986L163.341 124.851C162.489 124.232 161.623 123.599 160.75 123.008ZM92.3433 109.375L90.817 109.382C90.7964 115.26 90.7964 121.131 90.817 127.003C91.8483 127.03 92.8795 127.03 93.9039 127.023C94.0277 123.104 93.7183 119.172 94.0964 115.281C96.1864 118.863 98.4758 122.334 100.662 125.868L101.714 125.848C101.549 124.246 102.175 122.403 101.123 121.028C98.6958 117.151 96.2414 113.294 93.8558 109.389C92.843 109.37 91.8299 109.37 90.817 109.389L92.3433 109.375ZM148.601 115.728C147.598 115.569 146.573 115.638 145.556 115.659C145.522 119.293 145.522 122.928 145.556 126.563C146.58 126.583 147.605 126.59 148.629 126.563C148.643 122.953 148.698 119.337 148.601 115.728ZM80.4702 119.818C76.9295 119.928 73.3614 119.619 69.8277 120.011C69.8208 121.035 69.8208 122.053 69.8414 123.077C74.3033 123.111 78.7514 123.077 83.2202 123.091V119.942C82.3067 119.847 81.3885 119.806 80.4702 119.818ZM169.35 105.917C166.005 105.854 162.658 105.849 159.313 105.903L157.958 107.306C157.958 108.639 157.958 109.987 157.972 111.321C158.955 111.328 159.938 111.321 160.921 111.307L160.942 108.866C163.28 108.887 165.617 108.839 167.955 108.901L167.948 122.018L170.801 122.025C170.753 121.076 171.007 120.141 170.952 119.193C170.986 118.024 170.931 116.862 170.966 115.7C170.945 113.28 170.966 110.853 170.966 108.433C171.145 107.306 170.196 106.439 169.35 105.917ZM119.011 117.783L117.52 117.79V120.918C118.516 120.932 119.506 120.932 120.496 120.918C120.51 119.873 120.51 118.828 120.496 117.797C119.504 117.787 118.512 117.785 117.52 117.79L119.011 117.783ZM105.88 111.623L104.333 111.644C104.306 114.201 104.313 116.766 104.326 119.323C105.358 119.351 106.389 119.351 107.427 119.337C107.434 116.766 107.441 114.201 107.427 111.637C106.396 111.616 105.365 111.616 104.333 111.637L105.88 111.623ZM137.588 115.184L132.871 115.212C132.837 116.243 132.837 117.274 132.858 118.306C135.518 118.615 138.206 118.374 140.881 118.457C141.417 118.402 142.125 118.643 142.428 118.031C142.498 117.085 142.458 116.135 142.311 115.198C139.162 115.198 136.02 115.171 132.871 115.212L137.588 115.184ZM124.553 115.068L123.033 115.074C123.02 116.119 123.02 117.164 123.033 118.203C124.044 118.209 125.055 118.216 126.072 118.209C126.091 117.165 126.091 116.119 126.072 115.074C125.059 115.065 124.046 115.065 123.033 115.074L124.553 115.068ZM67.1464 106.027H64.0389L64.032 115.982H67.1533V106.027H67.1464ZM78.387 102.074L75.5064 102.088C74.2964 106.302 73.1208 110.53 71.9314 114.751L74.9152 114.765C75.7058 111.513 76.7439 108.33 77.4727 105.071L79.1227 104.948C80.1333 108.193 80.8964 111.506 81.8864 114.765L84.7739 114.758C83.6739 110.516 82.4364 106.316 81.2677 102.094C79.3427 102.067 77.4314 102.081 75.5064 102.094L78.387 102.074ZM115.485 101.139L115.01 101.153H103.22C103.21 102.156 103.21 103.16 103.22 104.164C107.049 104.267 110.899 103.978 114.715 104.329V111.266L112.267 111.293V114.318C113.573 114.332 114.873 114.332 116.172 114.332L117.685 112.682V103.868C117.87 102.431 116.447 100.926 115.01 101.153L115.485 101.139ZM54.2833 108.804C54.2489 109.815 54.2489 110.826 54.2558 111.836C55.287 111.857 56.3183 111.85 57.3427 111.836V108.88C56.3243 108.813 55.3037 108.788 54.2833 108.804ZM127.433 96.12H125.474C124.917 96.8557 123.838 97.4057 123.975 98.4782C123.961 101.318 123.961 104.157 123.975 107.003C123.845 108.062 124.903 108.619 125.453 109.348C129.778 109.334 134.102 109.361 138.42 109.334C138.447 108.33 138.447 107.319 138.44 106.309C134.597 106.268 130.761 106.309 126.925 106.281V99.1657L129.4 99.145C129.417 98.1436 129.413 97.1419 129.386 96.1407C128.08 96.1132 126.773 96.1269 125.467 96.12H127.433ZM94.2064 101.153H86.692C86.6508 102.211 86.6577 103.27 86.6989 104.329H94.2064C94.227 103.27 94.227 102.211 94.2064 101.153ZM155.346 97.5019L148.636 97.5294C148.622 98.5607 148.629 99.6057 148.636 100.637C153.105 100.699 157.573 100.658 162.042 100.658C162.056 99.6125 162.056 98.5607 162.049 97.5088C157.58 97.5088 153.111 97.4675 148.643 97.5294L155.346 97.5019ZM140.118 97.5019L138.53 97.5294C138.516 98.5607 138.516 99.5919 138.53 100.623C139.588 100.664 140.647 100.664 141.706 100.623C141.72 99.5919 141.726 98.5607 141.706 97.5294C140.647 97.4899 139.588 97.4899 138.53 97.5294L140.118 97.5019ZM57.5077 91.0394L49.8077 91.06C49.787 92.105 49.787 93.1569 49.8077 94.2019C53.0252 94.2363 56.2495 94.2019 59.4739 94.2157C58.2364 95.0888 56.9508 95.8794 55.6789 96.6907C56.5314 97.3094 57.2877 98.155 58.2845 98.5263C60.6427 97.1032 62.9389 95.57 65.2283 94.0369L65.2214 91.0669C60.0789 91.0188 54.9364 91.0325 49.8008 91.06L57.5077 91.0394ZM78.8064 88.5025C76.3383 90.1938 73.7739 91.7407 71.3677 93.5213C73.7533 95.2538 76.2627 96.7938 78.6827 98.4644C80.3602 98.4644 82.0377 98.4782 83.7152 98.4438C81.2264 96.8282 78.7652 95.1507 76.2627 93.5488C78.6964 91.8094 81.2814 90.29 83.7014 88.53C82.0652 88.5025 80.4427 88.53 78.8064 88.5025ZM100.421 94.0919H93.7527C93.7527 95.1232 93.7527 96.1613 93.7664 97.2063C98.1939 97.2063 102.615 97.2132 107.049 97.1994C107.186 96.1682 107.2 95.1369 107.09 94.1057C102.649 94.0644 98.2008 94.1057 93.7527 94.085L100.421 94.0919ZM111.593 94.0919L109.991 94.1057V97.1719C111.057 97.1857 112.123 97.1857 113.195 97.1582V94.1194C112.128 94.0846 111.059 94.08 109.991 94.1057L111.593 94.0919ZM119.011 84.8863H117.52V94.855H120.503C120.503 91.5344 120.524 88.2138 120.503 84.8932C119.509 84.8843 118.514 84.8843 117.52 84.8932L119.011 84.8863ZM156.886 90.6132L155.339 90.6338C155.318 91.6719 155.325 92.7169 155.339 93.755C156.37 93.7825 157.401 93.7825 158.419 93.755C158.449 92.7126 158.451 91.6695 158.426 90.6269C157.395 90.6063 156.363 90.6132 155.339 90.6269L156.886 90.6132ZM146.546 78.3963C144.621 78.08 142.675 78.3825 140.743 78.3963C139.568 82.6038 138.413 86.8113 137.189 90.9913C138.186 90.9982 139.183 91.005 140.18 90.9982C141.018 87.7394 141.995 84.5219 142.799 81.2563L144.435 81.2357C145.411 84.4738 146.223 87.76 147.165 90.9982H150.135L146.546 78.3963ZM129.496 85.8007L127.99 85.8075C127.978 86.8479 127.978 87.8884 127.99 88.9288H130.995C131.008 87.8975 131.008 86.8594 131.001 85.8213C129.998 85.7959 128.994 85.7913 127.99 85.8075L129.496 85.8007ZM166.071 82.2807C164.923 82.2807 163.775 82.2807 162.633 82.3013L166.291 88.7638C167.329 88.7638 168.381 88.7638 169.419 88.7225C168.573 86.44 167.198 84.4188 166.064 82.2807H166.071ZM109.558 72.8275L108.08 72.8482C108.032 76.7257 108.066 80.6169 108.06 84.4944C105.715 84.4394 103.371 84.6319 101.04 84.3638C101.054 83.5846 101.05 82.8052 101.026 82.0263H98.1939C98.1939 83.3875 98.0702 84.7625 98.242 86.1169C98.6408 86.5844 99.1014 86.9969 99.5483 87.4369C102.931 87.4163 106.313 87.4507 109.703 87.4163C110.15 86.9625 110.603 86.5157 111.064 86.0757C111.03 81.6619 111.085 77.2482 111.036 72.8413C110.051 72.8262 109.066 72.8262 108.08 72.8413L109.558 72.8275ZM86.2177 80.1219H84.7258C84.657 82.5557 84.6914 84.9825 84.6983 87.4094H87.7233C87.7233 84.9825 87.737 82.5557 87.7095 80.1357C86.7127 80.1219 85.7158 80.1219 84.7258 80.1288L86.2177 80.1219ZM156.872 75.8663L155.339 75.8869C155.309 79.2166 155.309 82.5466 155.339 85.8763C156.363 85.89 157.388 85.8969 158.412 85.8763C158.446 82.5488 158.446 79.2144 158.412 75.8869C157.388 75.8624 156.363 75.8624 155.339 75.8869L156.872 75.8663ZM64.7333 79.9707L58.0439 79.9982C58.0302 81.0294 58.0302 82.0813 58.0439 83.1263C62.5058 83.1538 66.9608 83.1607 71.4227 83.1263C71.447 82.0837 71.447 81.0407 71.4227 79.9982C66.9632 79.9641 62.5034 79.9641 58.0439 79.9982L64.7333 79.9707ZM76.5583 79.9982H73.5195V83.1332C74.537 83.14 75.5477 83.1469 76.5652 83.1332C76.5874 82.0883 76.5874 81.043 76.5652 79.9982H76.5583ZM98.627 68.4344C96.9702 70.9438 95.3752 73.5082 93.732 76.0313C92.082 73.5425 90.5008 70.9988 88.8714 68.4894C88.8645 70.1807 88.7408 71.8857 88.9127 73.5769C89.4214 74.4225 89.9439 75.2682 90.4802 76.1069L93.7183 81.105C95.3408 78.5544 97.087 76.0657 98.5995 73.4394C98.737 71.7757 98.627 70.0982 98.627 68.4344ZM118.764 60.8994L117.279 60.9132C117.245 66.7844 117.258 72.6557 117.272 78.5269C118.303 78.5475 119.335 78.5475 120.366 78.5269L120.386 66.7294C122.655 70.2219 124.773 73.8244 127.069 77.3032L128.224 77.5094C128.251 76.2238 128.245 74.9382 128.245 73.6594C125.543 69.4313 122.93 65.1482 120.249 60.9063C119.259 60.8896 118.269 60.8919 117.279 60.9132L118.764 60.8994ZM82.3127 64.1994L80.0989 64.2888C79.2694 64.2785 78.4397 64.2785 77.6102 64.2888C77.5964 65.32 77.6033 66.3582 77.6239 67.3963C78.7308 67.41 79.8445 67.3963 80.9583 67.4582C78.7583 68.7644 76.6339 70.1875 74.4614 71.5282C75.2589 72.195 76.0083 72.9925 76.9845 73.3707C80.3052 71.4594 83.447 69.2457 86.7264 67.245C86.7402 66.2688 86.7402 65.2857 86.7333 64.3094C84.5245 64.1624 82.3086 64.1555 80.0989 64.2888L82.3127 64.1994ZM141.286 68.895L133.951 68.9088V71.9407C138.846 71.9544 143.727 71.9475 148.615 71.9407V68.9157C143.734 68.8882 138.839 68.8882 133.951 68.9157L141.286 68.895ZM105.323 65.43L103.797 65.4507C103.776 66.4888 103.776 67.5269 103.797 68.565C104.815 68.5925 105.832 68.5925 106.85 68.565C106.87 67.52 106.87 66.4888 106.85 65.4507C105.832 65.4223 104.814 65.4223 103.797 65.4507L105.323 65.43ZM131.118 63.2782L129.537 63.2988L129.544 66.3375C130.596 66.3582 131.648 66.3582 132.7 66.3307V63.3057C131.646 63.2768 130.591 63.2745 129.537 63.2988L131.118 63.2782ZM97.362 50.635L95.7808 50.6694C95.8495 55.2207 95.5745 59.7925 95.9183 64.3369C96.9289 64.3369 97.9395 64.3369 98.9502 64.3163C98.9983 59.765 98.9777 55.2138 98.9639 50.6557C97.9007 50.6262 96.8368 50.6308 95.7739 50.6694L97.362 50.635ZM109.063 57.0975C107.922 57.0975 106.781 57.0975 105.64 57.1182C106.822 59.2907 108.018 61.4494 109.263 63.5807C110.308 63.5807 111.36 63.5807 112.405 63.5325C111.525 61.2638 110.15 59.2563 109.063 57.0975ZM127.021 55.5438L122.779 55.5644C122.765 56.6094 122.765 57.6613 122.779 58.7063C125.605 58.7544 128.43 58.7407 131.256 58.7063C131.269 57.6567 131.269 56.6071 131.256 55.5575C128.43 55.5315 125.604 55.5338 122.779 55.5644L127.021 55.5438ZM110.294 45.2175L105.578 45.2244C104.656 45.1007 104.12 46.0494 103.598 46.6475C103.412 47.9538 103.55 49.2944 103.543 50.6144H106.471L106.492 48.1394H113.408C113.615 50.5938 113.401 53.055 113.401 55.5163L113.628 56.4375C114.556 56.5063 115.498 56.4582 116.433 56.4444C116.42 53.1513 116.42 49.8582 116.433 46.565L115.512 45.6507L115.003 45.2588C111.868 45.1763 108.72 45.245 105.585 45.2244L110.294 45.2175Z" fill="white"/>
</g>
<defs>
<clipPath id="clip0_2_20017">
<rect width="220" height="220" fill="white" transform="translate(0.5)"/>
</clipPath>
</defs>
</svg>
