<svg width="221" height="220" viewBox="0 0 221 220" fill="none" xmlns="http://www.w3.org/2000/svg">
<g clip-path="url(#clip0_2_20011)">
<path d="M110.5 220C171.251 220 220.5 170.751 220.5 110C220.5 49.2487 171.251 0 110.5 0C49.7487 0 0.5 49.2487 0.5 110C0.5 170.751 49.7487 220 110.5 220Z" fill="#F5D100"/>
<path d="M110.308 27.5C64.9325 27.5 28 64.4325 28 109.807C28 155.182 64.9325 192.184 110.376 192.184C155.813 192.184 192.746 155.251 192.746 109.807C192.746 64.3706 155.751 27.5 110.314 27.5H110.308ZM110.308 185.831C68.425 185.831 34.2838 151.759 34.2838 109.807C34.3525 67.925 68.425 33.8456 110.308 33.8456C152.197 33.8456 186.338 67.925 186.338 109.876C186.338 151.759 152.259 185.838 110.308 185.838V185.831Z" fill="white"/>
<path d="M67.6963 73.2594L73.7463 67.2025L105.976 99.4256L99.9194 105.476L67.6963 73.2594ZM114.57 120.154L120.627 114.097L152.85 146.32L146.793 152.37L114.57 120.154ZM104.292 109.828L110.342 103.778L116.447 109.869L110.397 115.933L104.292 109.828ZM114.659 99.6869L146.883 67.4706L152.933 73.5275L120.716 105.751L114.659 99.6869ZM67.93 146.354L100.146 114.138L106.203 120.188L73.9869 152.411L67.93 146.354Z" fill="white"/>
</g>
<defs>
<clipPath id="clip0_2_20011">
<rect width="220" height="220" fill="white" transform="translate(0.5)"/>
</clipPath>
</defs>
</svg>
