<svg width="221" height="220" viewBox="0 0 221 220" fill="none" xmlns="http://www.w3.org/2000/svg">
<g clip-path="url(#clip0_2_20007)">
<path d="M110.5 220C171.251 220 220.5 170.751 220.5 110C220.5 49.2487 171.251 0 110.5 0C49.7487 0 0.5 49.2487 0.5 110C0.5 170.751 49.7487 220 110.5 220Z" fill="#82BD39"/>
<path d="M99.5206 133.1L110.5 147.565V178.75L69.25 160.442V79.8806C69.25 78.6913 69.7794 77.5569 70.7075 76.7663L75.4031 72.7444C75.8555 72.3532 76.3832 72.0589 76.9538 71.8798C77.5244 71.7007 78.1257 71.6405 78.7204 71.703C79.3152 71.7655 79.8908 71.9494 80.4117 72.2432C80.9326 72.537 81.3876 72.9346 81.7487 73.4113L119.321 122.664L140.076 135.355V67.43L121.734 58.2794L120.84 100.877L111.132 88L110.692 41.25L151.75 60.3556V140.546L142.421 148.232L113.037 131.821L80.4219 89.0381L79.975 154.034L99.3969 163.982L99.5206 133.1Z" fill="white"/>
</g>
<defs>
<clipPath id="clip0_2_20007">
<rect width="220" height="220" fill="white" transform="translate(0.5)"/>
</clipPath>
</defs>
</svg>
