<svg width="221" height="220" viewBox="0 0 221 220" fill="none" xmlns="http://www.w3.org/2000/svg">
<g clip-path="url(#clip0_2_20003)">
<path d="M110.5 220C171.251 220 220.5 170.751 220.5 110C220.5 49.2487 171.251 0 110.5 0C49.7487 0 0.5 49.2487 0.5 110C0.5 170.751 49.7487 220 110.5 220Z" fill="#4099CD"/>
<path fill-rule="evenodd" clip-rule="evenodd" d="M14.2842 163.35C18.4436 151.223 26.4598 138.091 37.6248 125.125C35.6384 122.485 34.6691 119.217 34.8944 115.921C35.1196 112.625 36.5244 109.52 38.8515 107.174C41.1787 104.829 44.2726 103.399 47.5671 103.148C50.8617 102.897 54.1365 103.841 56.7923 105.806C65.6594 97.998 75.0899 90.8538 85.0073 84.4319C132.679 53.4738 183.059 43.5944 207.63 58.3207C214.709 71.5976 218.971 86.193 220.149 101.193C212.215 127.167 186.008 158.201 148.663 182.456C122.902 199.183 96.3442 209.763 73.4986 213.62C48.3207 204.593 27.2782 186.729 14.2842 163.35ZM40.0654 127.634C23.9504 146.252 17.4948 165.406 25.3048 177.437C37.1023 195.608 77.0048 190.637 114.412 166.348C151.825 142.051 172.588 107.621 160.79 89.4507C148.986 71.2801 109.09 76.2507 71.6767 100.54C67.5311 103.235 63.5848 106.054 59.8723 108.962C61.7764 111.667 62.6414 114.968 62.3086 118.26C61.9758 121.551 60.4675 124.612 58.0604 126.881C55.6532 129.151 52.5086 130.476 49.2034 130.614C45.8981 130.753 42.6538 129.695 40.0654 127.634Z" fill="white"/>
</g>
<defs>
<clipPath id="clip0_2_20003">
<rect width="220" height="220" fill="white" transform="translate(0.5)"/>
</clipPath>
</defs>
</svg>
