<svg width="221" height="220" viewBox="0 0 221 220" fill="none" xmlns="http://www.w3.org/2000/svg">
<g clip-path="url(#clip0_2_19999)">
<path d="M110.5 220C171.251 220 220.5 170.751 220.5 110C220.5 49.2487 171.251 0 110.5 0C49.7487 0 0.5 49.2487 0.5 110C0.5 170.751 49.7487 220 110.5 220Z" fill="#008FBB"/>
<path fill-rule="evenodd" clip-rule="evenodd" d="M179.814 115.727C176.328 115.727 173.503 113.163 173.503 110V104.266H141.795C138.309 104.266 135.484 101.702 135.484 98.5394C135.484 95.3769 138.309 92.8125 141.795 92.8125H179.814C183.299 92.8125 186.125 95.3769 186.125 98.5394V110C186.125 113.163 183.306 115.727 179.814 115.727ZM148.539 115.727H161.155C164.641 115.727 167.466 118.291 167.466 121.454C167.466 124.616 164.648 127.188 161.155 127.188H141.795C140.79 127.19 139.796 126.969 138.887 126.541L102.092 104.266H91.4906C88.005 104.266 85.1794 101.702 85.1794 98.5394C85.1794 95.3769 87.9981 92.8125 91.4906 92.8125H104.106C105.467 92.8125 106.726 93.2044 107.757 93.8713L143.727 115.734H148.539V115.727ZM104.106 115.727C107.592 115.727 110.417 118.291 110.417 121.454C110.417 124.616 107.592 127.188 104.106 127.188H91.4906C90.4854 127.19 89.4921 126.969 88.5825 126.541L51.7875 104.266H41.1863C37.7006 104.266 34.875 101.702 34.875 98.5394C34.875 95.3769 37.6938 92.8125 41.1863 92.8125H53.8019C55.0951 92.8078 56.3625 93.1753 57.4525 93.8713L93.4225 115.734H104.106V115.727ZM41.1863 115.727H53.8019C57.2875 115.727 60.1131 118.291 60.1131 121.461C60.1131 124.623 57.2875 127.188 53.8019 127.188H41.1863C37.7006 127.188 34.875 124.623 34.875 121.461C34.875 118.298 37.6938 115.727 41.1863 115.727Z" fill="white"/>
</g>
<defs>
<clipPath id="clip0_2_19999">
<rect width="220" height="220" fill="white" transform="translate(0.5)"/>
</clipPath>
</defs>
</svg>
