<svg width="221" height="220" viewBox="0 0 221 220" fill="none" xmlns="http://www.w3.org/2000/svg">
<g clip-path="url(#clip0_2_19995)">
<path d="M110.5 220C171.251 220 220.5 170.751 220.5 110C220.5 49.2487 171.251 0 110.5 0C49.7487 0 0.5 49.2487 0.5 110C0.5 170.751 49.7487 220 110.5 220Z" fill="#164B79"/>
<path d="M97.3686 128.342L93.0855 137.486H83.5843L109.386 82.5L126.594 119.164H116.866L109.166 103.249L101.452 119.432L97.3686 128.342ZM134.865 137.28L155.009 110.124L134.721 82.7613H145.824L160.543 102.767L155.187 110.124L160.543 117.48L145.831 137.486H125.46L121.156 128.342H130.657L134.865 137.28ZM165.981 110.007L160.543 102.534L175.262 82.5275H186.125L165.981 110.007ZM165.981 110.007L186.125 137.493H175.262L160.55 117.487L165.981 110.007ZM79.0261 90.4681C81.4954 93.0743 83.4254 96.1426 84.7055 99.4968C85.9856 102.851 86.5905 106.425 86.4855 110.014C86.5798 117.239 83.9116 124.228 79.0261 129.552C74.0624 135.114 67.923 137.5 60.6836 137.5C57.2401 137.534 53.8278 136.844 50.6679 135.475C47.508 134.106 44.6712 132.088 42.3411 129.552C37.376 124.277 34.6929 117.256 34.8749 110.014C34.7643 104.344 36.4249 98.78 39.6255 94.0981L45.9505 100.836C43.9705 104.369 43.1458 108.433 43.5921 112.459C44.0384 116.484 45.7334 120.269 48.4393 123.282C49.9728 125.019 51.8553 126.413 53.964 127.372C56.0727 128.332 58.3601 128.836 60.6768 128.851C65.2968 128.851 69.7105 126.837 72.9143 123.282C74.5577 121.544 75.8425 119.498 76.6953 117.263C77.5482 115.027 77.9524 112.646 77.8849 110.254C77.9009 105.442 76.1268 100.796 72.9074 97.2194C71.3666 95.511 69.4763 94.154 67.3648 93.2406C65.2533 92.3272 62.97 91.8788 60.6699 91.9256C57.6303 91.8422 54.6367 92.6811 52.083 94.3319L45.758 87.5944C50.0056 84.2359 55.2832 82.4483 60.6974 82.5344C64.1406 82.4729 67.5571 83.149 70.7173 84.5175C73.8776 85.8859 76.7083 87.9149 79.0193 90.4681H79.0261Z" fill="white"/>
</g>
<defs>
<clipPath id="clip0_2_19995">
<rect width="220" height="220" fill="white" transform="translate(0.5)"/>
</clipPath>
</defs>
</svg>
