<svg width="221" height="220" viewBox="0 0 221 220" fill="none" xmlns="http://www.w3.org/2000/svg">
<g clip-path="url(#clip0_2_19966)">
<path d="M110.5 220C171.251 220 220.5 170.751 220.5 110C220.5 49.2487 171.251 0 110.5 0C49.7487 0 0.5 49.2487 0.5 110C0.5 170.751 49.7487 220 110.5 220Z" fill="black"/>
<g clip-path="url(#clip1_2_19966)">
<path d="M110.061 97.8516C116.486 97.8925 121.664 103.09 121.684 109.515C121.704 116.002 116.405 121.261 109.877 121.22C103.472 121.179 98.2542 115.9 98.2952 109.495C98.3565 103.029 103.595 97.8312 110.061 97.8516Z" fill="white"/>
<path d="M75.7863 69.6542C69.3201 69.6337 64.0612 64.3339 64.1226 57.9086C64.2045 51.422 69.4429 46.2449 75.9091 46.3063C82.3343 46.3473 87.5318 51.6061 87.5114 58.011C87.4909 64.4771 82.2525 69.6747 75.7863 69.6542Z" fill="white"/>
<path d="M110.041 63.6384C116.508 63.6588 121.787 68.9586 121.705 75.3839C121.623 81.8706 116.364 87.0681 109.919 87.0272C103.514 86.9862 98.2959 81.7069 98.2959 75.3225C98.3164 68.8563 103.575 63.6179 110.041 63.6384Z" fill="white"/>
<path d="M110 52.3223C103.534 52.3223 98.2747 47.0429 98.3157 40.5972C98.3361 34.1514 103.636 28.8925 110.082 28.9335C116.466 28.9539 121.704 34.2128 121.725 40.6176C121.725 47.0634 116.446 52.3427 110 52.3223Z" fill="white"/>
<path d="M178.796 63.6384C185.262 63.6179 190.521 68.8768 190.521 75.3225C190.521 81.7273 185.303 86.9862 178.898 87.0272C172.432 87.0681 167.194 81.8706 167.153 75.3839C167.112 68.8973 172.309 63.6588 178.796 63.6384Z" fill="white"/>
<path d="M75.827 103.888C69.3608 103.888 64.1019 98.6086 64.1428 92.1629C64.1633 85.7172 69.4426 80.4787 75.9088 80.4992C82.3136 80.5197 87.5111 85.7581 87.5521 92.1834C87.5521 98.6291 82.2932 103.888 75.827 103.888Z" fill="white"/>
<path d="M132.98 57.9287C133.021 51.4216 138.239 46.265 144.725 46.3059C151.191 46.3468 156.389 51.6467 156.328 58.0924C156.266 64.5586 150.987 69.7356 144.5 69.6538C138.075 69.5924 132.939 64.3744 132.98 57.9287Z" fill="white"/>
<path d="M52.8479 75.3429C52.8479 81.8296 47.6095 87.0476 41.1433 87.0271C34.718 87.0066 29.4796 81.7273 29.5001 75.2611C29.5205 68.8358 34.7385 63.6383 41.1638 63.6383C47.6504 63.6178 52.8684 68.8358 52.8479 75.3429Z" fill="white"/>
<path d="M144.521 103.868C137.993 103.745 132.878 98.5064 132.98 92.0198C133.082 85.4717 138.382 80.3561 144.93 80.4788C151.294 80.6016 156.451 85.9833 156.328 92.3881C156.205 98.8338 150.905 103.99 144.521 103.868Z" fill="white"/>
<path d="M41.4701 116.084C36.7023 116.105 32.794 112.237 32.7735 107.469C32.7531 102.702 36.6205 98.7932 41.3883 98.7523C46.1152 98.7113 50.044 102.62 50.0849 107.367C50.1054 112.135 46.2175 116.064 41.4701 116.084Z" fill="white"/>
<path d="M66.9463 124.76C66.9463 120.013 70.8547 116.104 75.6224 116.125C80.3698 116.125 84.2781 120.054 84.2577 124.801C84.2372 129.548 80.3288 133.457 75.5815 133.457C70.8342 133.436 66.9463 129.507 66.9463 124.76Z" fill="white"/>
<path d="M144.418 116.104C149.166 116.104 153.074 120.033 153.054 124.781C153.033 129.528 149.125 133.436 144.377 133.436C139.63 133.416 135.722 129.487 135.742 124.74C135.763 119.992 139.671 116.104 144.418 116.104Z" fill="white"/>
<path d="M170.427 107.387C170.447 102.599 174.335 98.7312 179.083 98.7517C183.85 98.7926 187.697 102.66 187.677 107.448C187.656 112.237 183.789 116.084 179.021 116.063C174.253 116.063 170.406 112.175 170.427 107.387Z" fill="white"/>
<path d="M110.225 150.277C105.457 150.277 101.569 146.389 101.59 141.621C101.61 136.854 105.498 132.986 110.266 132.986C115.054 133.007 118.901 136.874 118.901 141.642C118.881 146.43 115.013 150.297 110.225 150.277Z" fill="white"/>
<path d="M116.057 168.346C116.057 171.579 113.459 174.198 110.226 174.198C107.013 174.198 104.373 171.538 104.394 168.325C104.414 165.153 107.013 162.555 110.185 162.534C113.459 162.514 116.057 165.092 116.057 168.346Z" fill="white"/>
<path d="M150.229 151.054C150.209 154.288 147.61 156.866 144.336 156.845C141.164 156.825 138.565 154.206 138.565 151.034C138.565 147.821 141.226 145.161 144.418 145.182C147.63 145.182 150.25 147.821 150.229 151.054Z" fill="white"/>
<path d="M75.5616 156.846C72.308 156.825 69.7502 154.226 69.7706 150.952C69.7911 147.781 72.3898 145.182 75.582 145.161C78.7742 145.161 81.4343 147.822 81.4343 151.014C81.4343 154.247 78.7947 156.846 75.5616 156.846Z" fill="white"/>
<path d="M35.6183 133.641C35.6387 130.428 38.3194 127.768 41.5115 127.83C44.6832 127.891 47.282 130.51 47.282 133.682C47.282 136.894 44.6218 139.534 41.4297 139.534C38.1761 139.493 35.5978 136.874 35.6183 133.641Z" fill="white"/>
<path d="M184.873 133.661C184.893 136.894 182.274 139.534 179.061 139.534C175.849 139.534 173.189 136.853 173.209 133.661C173.23 130.49 175.849 127.87 179 127.829C182.192 127.788 184.852 130.428 184.873 133.661Z" fill="white"/>
<path d="M179.082 151.279C180.719 151.3 182.07 152.65 182.09 154.267C182.111 155.924 180.699 157.336 179.021 157.295C177.384 157.275 176.033 155.924 176.033 154.287C176.013 152.63 177.384 151.279 179.082 151.279Z" fill="white"/>
<path d="M113.233 188.951C113.254 190.65 111.923 192.021 110.225 192.021C108.568 192.021 107.258 190.69 107.238 189.033C107.217 187.335 108.568 185.964 110.246 185.964C111.883 185.964 113.213 187.273 113.233 188.951Z" fill="white"/>
<path d="M44.4381 154.349C44.4177 156.006 43.0876 157.316 41.4301 157.336C39.7317 157.336 38.4016 155.965 38.4221 154.267C38.4426 152.568 39.8136 151.259 41.5324 151.3C43.1694 151.341 44.4586 152.671 44.4381 154.349Z" fill="white"/>
<path d="M78.6107 171.64C78.6107 173.338 77.2602 174.648 75.5413 174.627C73.8839 174.607 72.5947 173.277 72.5947 171.619C72.5947 169.941 73.8839 168.652 75.5618 168.632C77.2602 168.611 78.6107 169.941 78.6107 171.64Z" fill="white"/>
<path d="M144.398 174.648C142.7 174.648 141.39 173.297 141.41 171.578C141.431 169.921 142.74 168.632 144.418 168.632C146.137 168.632 147.447 169.982 147.406 171.701C147.385 173.379 146.076 174.648 144.398 174.648Z" fill="white"/>
</g>
</g>
<defs>
<clipPath id="clip0_2_19966">
<rect width="220" height="220" fill="white" transform="translate(0.5)"/>
</clipPath>
<clipPath id="clip1_2_19966">
<rect width="161" height="163.067" fill="white" transform="translate(29.5 28.9336)"/>
</clipPath>
</defs>
</svg>
