<svg width="221" height="220" viewBox="0 0 221 220" fill="none" xmlns="http://www.w3.org/2000/svg">
<g clip-path="url(#clip0_2_19963)">
<path d="M110.5 220C132.256 220 153.523 213.549 171.613 201.462C189.702 189.375 203.801 172.195 212.127 152.095C220.452 131.995 222.631 109.878 218.386 88.5401C214.142 67.2021 203.666 47.602 188.282 32.2182C172.898 16.8345 153.298 6.35798 131.96 2.11361C110.622 -2.13077 88.5047 0.0475998 68.4048 8.37324C48.305 16.6989 31.1253 30.7979 19.0383 48.8873C6.95139 66.9767 0.5 88.244 0.5 110C0.5 139.174 12.0893 167.153 32.7183 187.782C53.3473 208.411 81.3262 220 110.5 220Z" fill="#1A53F0"/>
<path d="M82.0103 118.87C74.5818 118.878 67.4218 121.648 61.9222 126.642C56.4227 131.636 52.9767 138.496 52.2543 145.889C51.5318 153.282 53.5845 160.68 58.0133 166.644C62.4421 172.608 68.9305 176.712 76.2168 178.158C83.5032 179.603 91.0669 178.288 97.4374 174.467C103.808 170.646 108.53 164.593 110.685 157.484C112.84 150.375 112.275 142.718 109.099 136.003C105.923 129.288 100.363 123.994 93.5003 121.15C89.8583 119.639 85.9532 118.864 82.0103 118.87ZM82.0103 169.7C77.1708 169.712 72.477 168.045 68.7293 164.983C64.9816 161.921 62.412 157.654 61.4587 152.909C60.5054 148.164 61.2274 143.236 63.5015 138.964C65.7757 134.692 69.4612 131.341 73.9297 129.483C78.3982 127.625 83.3729 127.374 88.0057 128.773C92.6384 130.173 96.6423 133.136 99.3346 137.157C102.027 141.179 103.241 146.01 102.77 150.826C102.298 155.643 100.171 160.147 96.7503 163.57C92.8404 167.481 87.5407 169.685 82.0103 169.7ZM145.91 55C138.48 54.9956 131.313 57.7553 125.805 62.7425C120.296 67.7296 116.84 74.5874 116.108 81.9819C115.376 89.3764 117.421 96.7787 121.845 102.749C126.269 108.719 132.755 112.83 140.042 114.283C147.33 115.735 154.897 114.425 161.271 110.607C167.646 106.789 172.372 100.736 174.531 93.6257C176.69 86.5156 176.127 78.8567 172.951 72.1389C169.776 65.421 164.215 60.1246 157.35 57.28C153.723 55.7788 149.836 55.0042 145.91 55ZM145.91 105.83C140.382 105.833 135.079 103.64 131.168 99.7338C127.256 95.8277 125.056 90.528 125.05 85C125.06 80.8836 126.289 76.8625 128.583 73.4443C130.876 70.026 134.131 67.3639 137.937 65.7942C141.742 64.2244 145.927 63.8172 149.964 64.6242C154 65.4311 157.707 67.4159 160.616 70.3281C163.526 73.2402 165.507 76.949 166.31 80.9863C167.113 85.0235 166.702 89.2082 165.128 93.012C163.555 96.8158 160.89 100.068 157.469 102.358C154.049 104.649 150.027 105.874 145.91 105.88V105.83ZM82.0103 55C75.1041 55.0091 68.4137 57.407 63.0741 61.7869C57.7345 66.1669 54.0745 72.2592 52.715 79.0302C51.3555 85.8013 52.3803 92.8341 55.6154 98.9357C58.8505 105.037 64.0968 109.832 70.4642 112.506C76.8317 115.18 83.9282 115.569 90.5498 113.607C97.1714 111.645 102.91 107.453 106.793 101.741C110.676 96.0301 112.463 89.1515 111.852 82.2724C111.241 75.3933 108.269 68.9374 103.44 64H111.92V55H82.0103ZM102.87 84.94C102.872 89.7714 101.199 94.454 98.135 98.1897C95.0711 101.925 90.8066 104.483 86.0683 105.427C81.3299 106.37 76.4109 105.641 72.1497 103.364C67.8885 101.087 64.5488 97.4032 62.6998 92.9396C60.8508 88.476 60.607 83.5093 62.0098 78.886C63.4127 74.2628 66.3754 70.2691 70.3931 67.5856C74.4107 64.9021 79.2347 63.695 84.0427 64.1699C88.8507 64.6448 93.3452 66.7724 96.7603 70.19C100.669 74.1044 102.866 79.4085 102.87 84.94Z" fill="white"/>
</g>
<defs>
<clipPath id="clip0_2_19963">
<rect width="220" height="220" fill="white" transform="translate(0.5)"/>
</clipPath>
</defs>
</svg>
