<svg width="221" height="220" viewBox="0 0 221 220" fill="none" xmlns="http://www.w3.org/2000/svg">
<g clip-path="url(#clip0_2_19959)">
<path d="M110.5 220C171.251 220 220.5 170.751 220.5 110C220.5 49.2487 171.251 0 110.5 0C49.7487 0 0.5 49.2487 0.5 110C0.5 170.751 49.7487 220 110.5 220Z" fill="#1C347A"/>
<path d="M69.6969 47.355C60.9367 53.0728 53.4669 60.5566 47.7656 69.3275V47.355H69.6969ZM172.849 68.7363C167.197 60.2177 159.865 52.9422 151.303 47.355H172.849V68.7363ZM151.619 172.439C160.046 166.878 167.267 159.676 172.849 151.264V172.439H151.619ZM47.7656 150.673C53.3973 159.337 60.7556 166.747 69.3806 172.439H47.7656V150.673ZM179.25 110C179.25 147.909 148.409 178.75 110.5 178.75C72.5913 178.75 41.75 147.909 41.75 110C41.75 72.0913 72.5913 41.25 110.5 41.25C148.409 41.25 179.25 72.0913 179.25 110ZM110.5 160.132C138.137 160.132 160.632 137.644 160.632 110C160.632 82.3625 138.144 59.8675 110.5 59.8675C82.8625 59.8675 60.3675 82.3556 60.3675 110C60.3675 137.637 82.8556 160.132 110.5 160.132Z" fill="white"/>
</g>
<defs>
<clipPath id="clip0_2_19959">
<rect width="220" height="220" fill="white" transform="translate(0.5)"/>
</clipPath>
</defs>
</svg>
