<svg width="221" height="220" viewBox="0 0 221 220" fill="none" xmlns="http://www.w3.org/2000/svg">
<g clip-path="url(#clip0_2_19952)">
<path d="M110.5 220C171.251 220 220.5 170.751 220.5 110C220.5 49.2487 171.251 0 110.5 0C49.7487 0 0.5 49.2487 0.5 110C0.5 170.751 49.7487 220 110.5 220Z" fill="black"/>
<path fill-rule="evenodd" clip-rule="evenodd" d="M110.108 180.889C149.571 180.889 179.463 154.447 185.664 119.852H151.997C146.965 138.222 131.345 151.67 110.507 151.67C89.82 151.67 74.0006 138.126 68.755 119.852H34.875C40.8494 154.571 70.4875 180.889 110.108 180.889Z" fill="white"/>
<path d="M110.301 69.1212C119.896 69.1212 127.674 61.343 127.674 51.7481C127.674 42.1532 119.896 34.375 110.301 34.375C100.706 34.375 92.9277 42.1532 92.9277 51.7481C92.9277 61.343 100.706 69.1212 110.301 69.1212Z" fill="white"/>
<path fill-rule="evenodd" clip-rule="evenodd" d="M66.8779 119.851V119.508C66.8779 94.8059 84.5742 74.6415 110.087 74.6415C135.607 74.6415 153.675 95.1496 153.716 119.851H66.8779Z" fill="white"/>
</g>
<defs>
<clipPath id="clip0_2_19952">
<rect width="220" height="220" fill="white" transform="translate(0.5)"/>
</clipPath>
</defs>
</svg>
