<svg width="221" height="220" viewBox="0 0 221 220" fill="none" xmlns="http://www.w3.org/2000/svg">
<g clip-path="url(#clip0_2_19948)">
<path d="M110.5 220C171.251 220 220.5 170.751 220.5 110C220.5 49.2487 171.251 0 110.5 0C49.7487 0 0.5 49.2487 0.5 110C0.5 170.751 49.7487 220 110.5 220Z" fill="#32A4BE"/>
<path fill-rule="evenodd" clip-rule="evenodd" d="M172.375 166.492L69.0919 65.4571C80.5313 54.2976 95.894 48.074 111.875 48.1253C145.288 48.1253 172.375 74.6215 172.375 107.312V166.492ZM48.625 53.5084L151.908 154.543C140.469 165.703 125.106 171.926 109.125 171.875C75.7125 171.875 48.625 145.379 48.625 112.688V53.5084Z" fill="white"/>
</g>
<defs>
<clipPath id="clip0_2_19948">
<rect width="220" height="220" fill="white" transform="translate(0.5)"/>
</clipPath>
</defs>
</svg>
