<svg width="221" height="220" viewBox="0 0 221 220" fill="none" xmlns="http://www.w3.org/2000/svg">
<g clip-path="url(#clip0_2_19944)">
<path d="M110.5 220C171.251 220 220.5 170.751 220.5 110C220.5 49.2487 171.251 0 110.5 0C49.7487 0 0.5 49.2487 0.5 110C0.5 170.751 49.7487 220 110.5 220Z" fill="#25AAE1"/>
<path fill-rule="evenodd" clip-rule="evenodd" d="M112.879 171.828C101.604 171.951 92.1371 169.916 83.2134 165.482C82.6634 165.207 82.2509 165.193 81.7009 165.503C76.2807 168.566 70.3301 170.577 64.1627 171.429C61.5227 171.773 58.8552 172.144 56.2015 171.601C54.5674 171.28 53.0479 170.531 51.7989 169.429C50.5499 168.328 49.6162 166.914 49.0936 165.333C48.571 163.752 48.4782 162.06 48.8248 160.431C49.1713 158.802 49.9448 157.295 51.0659 156.063C54.2163 152.485 56.5817 148.285 58.0096 143.736C58.0935 143.51 58.1205 143.266 58.0882 143.026C58.0558 142.786 57.9651 142.558 57.824 142.361C52.9571 134.636 49.9517 125.886 49.0446 116.8C47.0234 96.7115 53.2727 79.5033 67.6759 65.3958C76.7404 56.4171 88.4709 50.6182 101.109 48.8683C118.551 46.3177 134.446 50.3465 148.409 61.1608C160.866 70.8133 168.621 83.5252 171.323 99.049C174.747 118.698 169.79 136.201 156.611 151.161C146.869 162.216 134.494 168.782 119.933 171.113C117.169 171.56 114.364 171.683 112.879 171.828ZM68.6727 155.41C69.1196 155.286 69.3809 155.218 69.6352 155.135C73.5455 153.814 77.2385 151.922 80.594 149.518C83.014 147.813 85.3996 147.731 87.9502 149.188C93.4227 152.323 99.2871 154.276 105.578 154.943C115.801 156.036 125.447 154.09 134.075 148.549C148.993 138.979 156.418 125.201 155.614 107.361C155.098 95.9346 150.623 86.069 142.517 78.0321C132.748 68.3521 120.861 63.9383 107.09 64.8871C97.809 65.5333 89.4215 68.7233 82.2784 74.684C68.439 86.234 63.0971 101.043 66.1634 118.801C67.1671 124.645 69.4977 130.007 72.784 134.957C73.4111 135.842 73.8406 136.851 74.0435 137.916C74.2463 138.981 74.2177 140.078 73.9596 141.131C73.1737 144.55 72.0689 147.887 70.6596 151.1C70.0477 152.495 69.3877 153.863 68.6796 155.41H68.6727ZM110.548 83.8277L114.467 91.7821C115.842 94.6008 117.258 97.4196 118.592 100.266C118.936 101.008 119.396 101.27 120.166 101.373C125.941 102.177 131.71 103.023 137.478 103.855C137.677 103.889 137.876 103.944 138.124 103.992C137.058 105.092 136.068 106.165 135.03 107.175C131.771 110.358 128.506 113.528 125.22 116.676C124.649 117.226 124.422 117.742 124.573 118.588C125.605 124.383 126.567 130.193 127.543 136.002C127.564 136.146 127.564 136.298 127.585 136.58C127.268 136.456 127.028 136.38 126.808 136.263C121.706 133.575 116.598 130.894 111.518 128.165C110.83 127.793 110.294 127.759 109.579 128.144C104.464 130.873 99.3284 133.561 94.1927 136.256C93.9865 136.373 93.7665 136.463 93.3677 136.655C93.6221 135.095 93.8421 133.699 94.0827 132.31C94.894 127.621 95.6984 122.926 96.5577 118.244C96.6815 117.556 96.2965 117.233 95.9115 116.855C91.8179 112.832 87.7158 108.817 83.6052 104.81C83.3715 104.576 83.0415 104.446 82.7527 104.267L82.9659 103.937L89.2634 103.03C93.2234 102.466 97.1765 101.888 101.143 101.345C101.776 101.256 102.065 100.919 102.326 100.383C104.918 95.0958 107.537 89.8227 110.143 84.5427C110.239 84.3571 110.349 84.1852 110.555 83.8277H110.548Z" fill="white"/>
</g>
<defs>
<clipPath id="clip0_2_19944">
<rect width="220" height="220" fill="white" transform="translate(0.5)"/>
</clipPath>
</defs>
</svg>
