<svg width="221" height="220" viewBox="0 0 221 220" fill="none" xmlns="http://www.w3.org/2000/svg">
<g clip-path="url(#clip0_2_19938)">
<path d="M110.5 220C171.251 220 220.5 170.751 220.5 110C220.5 49.2487 171.251 0 110.5 0C49.7487 0 0.5 49.2487 0.5 110C0.5 170.751 49.7487 220 110.5 220Z" fill="#34445B"/>
<path d="M110.067 70.2757L123.886 48.7157C127.432 49.2908 131.062 48.4767 134.023 46.4427C136.984 44.4087 139.046 41.3115 139.781 37.7955C140.516 34.2795 139.868 30.6155 137.97 27.5658C136.072 24.516 133.071 22.3155 129.592 21.4219C126.821 20.848 123.941 21.1302 121.333 22.2311C118.726 23.332 116.515 25.1995 114.994 27.5859C113.472 29.9724 112.713 32.7649 112.815 35.5932C112.917 38.4215 113.877 41.1518 115.567 43.4219L98.4209 70.1726C91.2653 70.8764 84.3186 72.9834 77.9777 76.3731C71.6368 79.7629 66.026 84.369 61.466 89.9282C56.9061 95.4873 53.4863 101.891 51.4022 108.772C49.318 115.653 48.6104 122.878 49.3197 130.033C50.7499 144.48 57.8582 157.767 69.0819 166.974C80.3055 176.182 94.726 180.556 109.173 179.134C123.621 177.706 136.91 170.598 146.119 159.374C155.328 148.151 159.703 133.729 158.282 119.281C157.047 106.835 151.591 95.1871 142.82 86.2721C134.049 77.3571 122.491 71.7122 110.067 70.2757ZM103.777 153.614C99.9625 153.618 96.1852 152.87 92.6607 151.412C89.1362 149.954 85.9338 147.816 83.2365 145.119C80.5393 142.423 78.4002 139.221 76.9417 135.697C75.4832 132.172 74.7338 128.395 74.7365 124.581C74.7329 120.767 75.4816 116.989 76.9397 113.464C78.3978 109.939 80.5368 106.736 83.2341 104.039C85.9314 101.342 89.1342 99.2026 92.6591 97.7445C96.1841 96.2864 99.9619 95.5377 103.777 95.5413C109.676 95.5398 115.435 97.3368 120.287 100.693C125.139 104.048 128.853 108.803 130.933 114.324C128.204 110.81 124.192 108.523 119.779 107.965C115.365 107.406 110.91 108.623 107.393 111.347C103.877 114.074 101.589 118.086 101.031 122.501C100.472 126.915 101.69 131.37 104.416 134.887C105.982 136.901 107.986 138.532 110.277 139.655C112.567 140.779 115.084 141.365 117.635 141.369C120.186 141.374 122.705 140.797 125 139.682C127.294 138.567 129.305 136.944 130.878 134.935C128.789 140.431 125.078 145.161 120.238 148.497C115.397 151.834 109.656 153.618 103.777 153.614Z" fill="white"/>
<path d="M110.067 70.2757L123.886 48.7157C127.432 49.2908 131.062 48.4767 134.023 46.4427C136.984 44.4087 139.046 41.3115 139.781 37.7955C140.516 34.2795 139.868 30.6155 137.97 27.5658C136.072 24.516 133.071 22.3155 129.592 21.4219C126.821 20.848 123.941 21.1302 121.333 22.2311C118.726 23.332 116.515 25.1995 114.994 27.5859C113.472 29.9724 112.713 32.7649 112.815 35.5932C112.917 38.4215 113.877 41.1518 115.567 43.4219L98.4209 70.1726C91.2653 70.8764 84.3186 72.9834 77.9777 76.3731C71.6368 79.7629 66.026 84.369 61.466 89.9282C56.9061 95.4873 53.4863 101.891 51.4022 108.772C49.318 115.653 48.6104 122.878 49.3197 130.033C50.7499 144.48 57.8582 157.767 69.0819 166.974C80.3055 176.182 94.726 180.556 109.173 179.134C123.621 177.706 136.91 170.598 146.119 159.374C155.328 148.151 159.703 133.729 158.282 119.281C157.047 106.835 151.591 95.1871 142.82 86.2721C134.049 77.3571 122.491 71.7122 110.067 70.2757ZM103.777 153.614C99.9625 153.618 96.1852 152.87 92.6607 151.412C89.1362 149.954 85.9338 147.816 83.2365 145.119C80.5393 142.423 78.4002 139.221 76.9417 135.697C75.4832 132.172 74.7338 128.395 74.7365 124.581C74.7329 120.767 75.4816 116.989 76.9397 113.464C78.3978 109.939 80.5368 106.736 83.2341 104.039C85.9314 101.342 89.1342 99.2026 92.6591 97.7445C96.1841 96.2864 99.9619 95.5377 103.777 95.5413C109.676 95.5398 115.435 97.3368 120.287 100.693C125.139 104.048 128.853 108.803 130.933 114.324C128.204 110.81 124.192 108.523 119.779 107.965C115.365 107.406 110.91 108.623 107.393 111.347C103.877 114.074 101.589 118.086 101.031 122.501C100.472 126.915 101.69 131.37 104.416 134.887C105.982 136.901 107.986 138.532 110.277 139.655C112.567 140.779 115.084 141.365 117.635 141.369C120.186 141.374 122.705 140.797 125 139.682C127.294 138.567 129.305 136.944 130.878 134.935C128.789 140.431 125.078 145.161 120.238 148.497C115.397 151.834 109.656 153.618 103.777 153.614Z" fill="white"/>
</g>
<defs>
<clipPath id="clip0_2_19938">
<rect width="220" height="220" fill="white" transform="translate(0.5)"/>
</clipPath>
</defs>
</svg>
