<svg width="221" height="220" viewBox="0 0 221 220" fill="none" xmlns="http://www.w3.org/2000/svg">
<g clip-path="url(#clip0_2_19934)">
<path d="M110.5 220C171.251 220 220.5 170.751 220.5 110C220.5 49.2487 171.251 0 110.5 0C49.7487 0 0.5 49.2487 0.5 110C0.5 170.751 49.7487 220 110.5 220Z" fill="#4392CD"/>
<path fill-rule="evenodd" clip-rule="evenodd" d="M116.399 175.313H104.601C95.7463 175.313 93.2369 167.104 93.2369 160.834C93.2369 154.564 93.6838 151.725 93.6838 148.892C93.6838 144.423 91.4287 133.265 87.3381 128.59C79.37 119.481 74.3512 111.32 74.3512 99.4814C67.4212 95.8995 55.17 92.6133 50.4537 87.2439C45.7375 81.8745 41.75 74.2502 41.75 63.3464C41.75 60.562 42.3412 56.6295 43.5237 51.5558C46.2394 60.0395 50.4194 65.8558 56.0637 69.0183C64.3206 73.652 73.6294 77.0827 81.5837 77.0827H139.416C147.371 77.0827 156.672 73.6452 164.936 69.0183C170.574 65.8558 174.761 60.0395 177.476 51.5558C178.659 56.6295 179.25 60.562 179.25 63.3464C179.25 74.2433 175.262 81.8608 170.546 87.2302C165.83 92.5995 153.579 95.8927 146.649 99.4677C146.649 111.313 141.63 119.474 133.662 128.583C129.571 133.258 127.316 144.416 127.316 148.885C127.316 151.718 127.763 154.557 127.763 160.827C127.763 167.097 125.254 175.306 116.399 175.306V175.313Z" fill="white"/>
</g>
<defs>
<clipPath id="clip0_2_19934">
<rect width="220" height="220" fill="white" transform="translate(0.5)"/>
</clipPath>
</defs>
</svg>
