<svg width="221" height="220" viewBox="0 0 221 220" fill="none" xmlns="http://www.w3.org/2000/svg">
<g clip-path="url(#clip0_2_19930)">
<path d="M110.5 220C171.251 220 220.5 170.751 220.5 110C220.5 49.2487 171.251 0 110.5 0C49.7487 0 0.5 49.2487 0.5 110C0.5 170.751 49.7487 220 110.5 220Z" fill="#5F45BA"/>
<path d="M72.2954 62.9751C71.5327 64.2608 70.4058 65.2913 69.0573 65.9364C67.7087 66.5814 66.1991 66.8119 64.7195 66.5987C63.2399 66.3855 61.8568 65.7382 60.7452 64.7387C59.6336 63.7392 58.8435 62.4324 58.4748 60.9837C58.1062 59.535 58.1755 58.0095 58.6741 56.6002C59.1727 55.1909 60.0781 53.9612 61.2758 53.0667C62.4735 52.1722 63.9097 51.6531 65.4025 51.575C66.8954 51.4969 68.3778 51.8635 69.6623 52.6282C73.2442 54.7594 74.4267 59.3863 72.2954 62.9751ZM46.5141 59.6201C45.9753 60.5298 45.1785 61.2592 44.2248 61.7158C43.2711 62.1724 42.2033 62.3357 41.1567 62.185C40.1101 62.0343 39.1318 61.5764 38.3456 60.8693C37.5595 60.1621 37.0009 59.2376 36.7406 58.2127C36.4803 57.1879 36.53 56.1088 36.8834 55.1123C37.2368 54.1157 37.878 53.2464 38.7258 52.6145C39.5736 51.9826 40.5899 51.6166 41.6459 51.5627C42.7019 51.5089 43.7502 51.7696 44.6579 52.3119C47.1879 53.8244 48.0266 57.0901 46.5141 59.6201ZM118.282 168.933C125.982 168.024 133.426 165.6 140.186 161.802C146.945 158.003 152.886 152.905 157.666 146.8C162.447 140.696 165.972 133.706 168.039 126.233C170.106 118.76 170.674 110.952 169.711 103.259C168.747 95.5652 166.271 88.1385 162.424 81.4064C158.578 74.6742 153.437 68.7697 147.299 64.0328C141.161 59.2959 134.146 55.8204 126.658 53.8065C119.171 51.7925 111.359 51.2799 103.673 52.2982C98.7301 52.7604 93.8869 53.9753 89.311 55.9007C83.9829 58.5132 80.5454 62.8651 80.5454 68.6882C80.5454 76.2507 86.6779 82.3969 94.2542 82.3969C95.5192 82.3969 99.8985 81.0082 100.944 80.6507C105.878 78.9287 111.163 78.4551 116.325 79.272C121.488 80.0889 126.368 82.1709 130.53 85.3323C134.692 88.4938 138.007 92.6363 140.179 97.3904C142.351 102.144 143.312 107.362 142.977 112.578C142.561 119.209 140.07 125.542 135.856 130.68C131.643 135.817 125.921 139.5 119.5 141.208C113.079 142.915 106.284 142.56 100.075 140.194C93.8666 137.827 88.5593 133.568 84.9042 128.019V128.026C78.5792 119.742 80.0367 106.501 80.0298 106.329C79.9062 103.051 78.6128 99.9249 76.3839 97.5178C74.1549 95.1107 71.1377 93.5813 67.8786 93.2066C64.6195 92.8318 61.3339 93.6364 58.6167 95.4747C55.8996 97.313 53.9305 100.064 53.066 103.228C52.7567 104.376 52.5985 107.738 52.6467 108.185C52.2999 116.681 53.8011 125.151 57.0467 133.01C60.2923 140.869 65.2048 147.93 71.4452 153.706C77.6856 159.482 85.1052 163.834 93.1916 166.463C101.278 169.092 109.839 169.934 118.282 168.933ZM64.4373 83.9438C63.4487 85.6084 61.9887 86.9424 60.242 87.7773C58.4953 88.6123 56.5402 88.9105 54.624 88.6345C52.7078 88.3584 50.9165 87.5205 49.4764 86.2265C48.0364 84.9325 47.0124 83.2406 46.5338 81.3647C46.0552 79.4888 46.1436 77.5131 46.7877 75.6874C47.4318 73.8617 48.6028 72.2679 50.1525 71.1076C51.7023 69.9473 53.5613 69.2726 55.4945 69.1686C57.4277 69.0647 59.3483 69.5363 61.0135 70.5238C65.661 73.2876 67.1873 79.2963 64.4304 83.9438" fill="white"/>
</g>
<defs>
<clipPath id="clip0_2_19930">
<rect width="220" height="220" fill="white" transform="translate(0.5)"/>
</clipPath>
</defs>
</svg>
