<svg width="221" height="220" viewBox="0 0 221 220" fill="none" xmlns="http://www.w3.org/2000/svg">
<g clip-path="url(#clip0_2_19926)">
<path d="M110.5 220C171.251 220 220.5 170.751 220.5 110C220.5 49.2487 171.251 0 110.5 0C49.7487 0 0.5 49.2487 0.5 110C0.5 170.751 49.7487 220 110.5 220Z" fill="#03E8B0"/>
<path d="M106.541 42.4397C110.968 40.5147 114.131 44.5985 116.867 47.3347C121.748 51.4803 126.396 55.8872 130.796 60.5347C133.319 63.2916 132.294 68.331 128.864 69.8641C126.224 71.3078 122.999 70.2216 120.978 68.2141C115.664 63.1266 110.583 57.7847 105.069 52.9241C101.646 50.126 102.347 44.0553 106.541 42.4397ZM154.899 56.5403C157.904 54.9247 162.716 56.2378 163.548 59.8197C164.82 63.0028 162.778 66.1447 160.537 68.2691C155.621 73.116 150.843 78.1003 146.065 83.0916C144.326 85.1953 141.252 85.7591 138.791 84.6247C135.237 83.1535 134.274 77.8185 136.956 75.1097C142.985 68.9772 148.306 62.1022 154.899 56.5472V56.5403ZM58.8693 57.5303C61.9974 55.6397 65.868 56.891 68.1849 59.4553C73.3961 64.7147 78.7724 69.7953 84.0318 74.9722C87.5174 78.1897 85.0836 85.0097 80.223 85.0372C76.153 85.656 73.9943 81.6341 71.2718 79.4341C66.5005 75.481 62.128 71.081 57.7968 66.6466C55.3493 64.1235 56.078 59.4897 58.8761 57.5303H58.8693ZM62.9118 88.6053C68.1574 86.5772 73.2793 93.191 70.0068 97.7491C66.1361 102.795 61.0968 106.858 56.8755 111.623C54.3799 114.187 52.063 118.133 47.9036 117.632C43.043 117.446 40.6024 110.688 44.1361 107.408C50.523 101.297 55.5899 93.5691 62.9186 88.5985L62.9118 88.6053ZM169.309 103.228C172.919 100.87 178.364 103.552 178.481 107.903C179.01 111.987 174.954 114.146 172.719 116.896C168.787 121.626 164.469 126.04 160.014 130.288C156.756 133.362 150.678 131.203 150.094 126.748C149.331 122.148 153.648 119.295 156.371 116.353C160.881 112.166 164.689 107.237 169.309 103.228ZM76.5999 135.575C80.1061 133.478 85.4205 135.967 85.503 140.223C86.1561 144.334 82.093 146.513 79.8724 149.257C75.9536 154 71.5811 158.352 67.1674 162.649C64.3005 165.55 58.1818 164.155 57.3705 159.995C55.9818 155.973 59.3918 152.735 61.9905 150.212C67.0299 145.496 71.4093 140.106 76.5999 135.575ZM138.901 135.417C140.84 134.75 143.301 134.695 144.937 136.098C151.008 141.866 157.471 147.222 163.177 153.382C164.937 155.169 165.095 158.16 163.926 160.305C162.276 164.162 156.625 164.258 153.882 161.528C148.34 156.303 143.019 150.81 137.451 145.606C134.082 142.993 134.872 136.93 138.894 135.417H138.901ZM92.1511 150.164C95.0386 148.603 98.4349 150.082 100.511 152.282C105.713 157.511 111.017 162.639 116.42 167.661C119.995 171.057 117.575 177.953 112.535 178.008C108.465 178.489 106.348 174.447 103.619 172.233C98.9077 168.256 94.4315 164.009 90.2124 159.514C87.6411 156.778 88.6861 151.677 92.1511 150.164ZM82.8699 47.6785C82.8699 49.2611 82.2412 50.779 81.122 51.8981C80.0029 53.0172 78.4851 53.646 76.9024 53.646C75.3197 53.646 73.8018 53.0172 72.6827 51.8981C71.5636 50.779 70.9349 49.2611 70.9349 47.6785C70.9874 46.1317 71.6388 44.6659 72.7515 43.5903C73.8643 42.5147 75.3513 41.9135 76.8989 41.9135C78.4466 41.9135 79.9336 42.5147 81.0464 43.5903C82.1591 44.6659 82.8105 46.1317 82.863 47.6785H82.8699ZM100.25 63.546C100.25 65.1277 99.6215 66.6447 98.503 67.7632C97.3846 68.8817 95.8676 69.51 94.2858 69.51C92.7041 69.51 91.1871 68.8817 90.0686 67.7632C88.9501 66.6447 88.3218 65.1277 88.3218 63.546C88.3218 61.9642 88.9501 60.4472 90.0686 59.3287C91.1871 58.2103 92.7041 57.5819 94.2858 57.5819C95.8676 57.5819 97.3846 58.2103 98.503 59.3287C99.6215 60.4472 100.25 61.9642 100.25 63.546ZM53.6786 78.121C53.7058 78.9212 53.5717 79.7188 53.2842 80.4661C52.9967 81.2134 52.5617 81.8952 52.0052 82.4709C51.4487 83.0466 50.7821 83.5045 50.0449 83.8172C49.3078 84.1298 48.5153 84.291 47.7146 84.291C46.9139 84.291 46.1213 84.1298 45.3842 83.8172C44.6471 83.5045 43.9804 83.0466 43.4239 82.4709C42.8674 81.8952 42.4325 81.2134 42.145 80.4661C41.8575 79.7188 41.7233 78.9212 41.7505 78.121C41.803 76.5742 42.4544 75.1084 43.5671 74.0328C44.6799 72.9572 46.167 72.356 47.7146 72.356C49.2622 72.356 50.7493 72.9572 51.862 74.0328C52.9748 75.1084 53.6261 76.5742 53.6786 78.121ZM148.361 47.2041C148.361 48.7868 147.732 50.3046 146.613 51.4238C145.494 52.5429 143.976 53.1716 142.394 53.1716C140.811 53.1716 139.293 52.5429 138.174 51.4238C137.055 50.3046 136.426 48.7868 136.426 47.2041C136.426 45.6205 137.055 44.1018 138.175 42.982C139.295 41.8622 140.813 41.2332 142.397 41.2332C143.981 41.2332 145.499 41.8622 146.619 42.982C147.739 44.1018 148.368 45.6205 148.368 47.2041H148.361ZM179.251 76.6291C179.251 78.2109 178.622 79.7278 177.504 80.8463C176.385 81.9648 174.868 82.5932 173.286 82.5932C171.705 82.5932 170.188 81.9648 169.069 80.8463C167.951 79.7278 167.322 78.2109 167.322 76.6291C167.322 75.0473 167.951 73.5303 169.069 72.4119C170.188 71.2934 171.705 70.665 173.286 70.665C174.868 70.665 176.385 71.2934 177.504 72.4119C178.622 73.5303 179.251 75.0473 179.251 76.6291ZM162.95 93.7616C162.95 95.3434 162.322 96.8603 161.203 97.9788C160.085 99.0973 158.568 99.7257 156.986 99.7257C155.404 99.7257 153.887 99.0973 152.769 97.9788C151.65 96.8603 151.022 95.3434 151.022 93.7616C151.022 92.1798 151.65 90.6628 152.769 89.5444C153.887 88.4259 155.404 87.7975 156.986 87.7975C158.568 87.7975 160.085 88.4259 161.203 89.5444C162.322 90.6628 162.95 92.1798 162.95 93.7616ZM179.223 141.928C179.223 143.51 178.595 145.027 177.476 146.145C176.358 147.264 174.841 147.892 173.259 147.892C171.677 147.892 170.16 147.264 169.042 146.145C167.923 145.027 167.295 143.51 167.295 141.928C167.295 140.346 167.923 138.829 169.042 137.711C170.16 136.592 171.677 135.964 173.259 135.964C174.841 135.964 176.358 136.592 177.476 137.711C178.595 138.829 179.223 140.346 179.223 141.928ZM132.707 156.475C132.734 157.276 132.6 158.073 132.312 158.82C132.025 159.568 131.59 160.25 131.033 160.825C130.477 161.401 129.81 161.859 129.073 162.172C128.336 162.484 127.543 162.645 126.743 162.645C125.942 162.645 125.149 162.484 124.412 162.172C123.675 161.859 123.009 161.401 122.452 160.825C121.896 160.25 121.461 159.568 121.173 158.82C120.886 158.073 120.751 157.276 120.779 156.475C120.831 154.929 121.483 153.463 122.595 152.387C123.708 151.312 125.195 150.71 126.743 150.71C128.29 150.71 129.777 151.312 130.89 152.387C132.003 153.463 132.654 154.929 132.707 156.475ZM149.867 172.783C149.894 173.583 149.76 174.381 149.472 175.128C149.185 175.875 148.75 176.557 148.193 177.133C147.637 177.709 146.97 178.166 146.233 178.479C145.496 178.792 144.703 178.953 143.903 178.953C143.102 178.953 142.309 178.792 141.572 178.479C140.835 178.166 140.169 177.709 139.612 177.133C139.056 176.557 138.621 175.875 138.333 175.128C138.046 174.381 137.911 173.583 137.939 172.783C137.991 171.236 138.643 169.77 139.755 168.695C140.868 167.619 142.355 167.018 143.903 167.018C145.45 167.018 146.937 167.619 148.05 168.695C149.163 169.77 149.814 171.236 149.867 172.783ZM84.5543 172.783C84.5543 174.366 83.9255 175.883 82.8064 177.003C81.6873 178.122 80.1694 178.75 78.5868 178.75C77.0041 178.75 75.4862 178.122 74.3671 177.003C73.248 175.883 72.6193 174.366 72.6193 172.783C72.6718 171.236 73.3231 169.77 74.4359 168.695C75.5486 167.619 77.0357 167.018 78.5833 167.018C80.1309 167.018 81.618 167.619 82.7308 168.695C83.8435 169.77 84.4949 171.236 84.5474 172.783H84.5543ZM69.9999 126.074C70.0271 126.874 69.8929 127.672 69.6054 128.419C69.3179 129.167 68.883 129.848 68.3265 130.424C67.77 131 67.1033 131.458 66.3662 131.77C65.6291 132.083 64.8365 132.244 64.0358 132.244C63.2351 132.244 62.4426 132.083 61.7055 131.77C60.9683 131.458 60.3017 131 59.7452 130.424C59.1887 129.848 58.7537 129.167 58.4662 128.419C58.1787 127.672 58.0446 126.874 58.0718 126.074C58.1243 124.527 58.7756 123.062 59.8884 121.986C61.0011 120.91 62.4882 120.309 64.0358 120.309C65.5834 120.309 67.0705 120.91 68.1833 121.986C69.296 123.062 69.9474 124.527 69.9999 126.074ZM53.6786 143.406C53.7058 144.206 53.5717 145.004 53.2842 145.751C52.9967 146.498 52.5617 147.18 52.0052 147.756C51.4487 148.332 50.7821 148.789 50.0449 149.102C49.3078 149.415 48.5153 149.576 47.7146 149.576C46.9139 149.576 46.1213 149.415 45.3842 149.102C44.6471 148.789 43.9804 148.332 43.4239 147.756C42.8674 147.18 42.4325 146.498 42.145 145.751C41.8575 145.004 41.7233 144.206 41.7505 143.406C41.803 141.859 42.4544 140.393 43.5671 139.318C44.6799 138.242 46.167 137.641 47.7146 137.641C49.2622 137.641 50.7493 138.242 51.862 139.318C52.9748 140.393 53.6261 141.859 53.6786 143.406Z" fill="white"/>
</g>
<defs>
<clipPath id="clip0_2_19926">
<rect width="220" height="220" fill="white" transform="translate(0.5)"/>
</clipPath>
</defs>
</svg>
