<svg width="221" height="220" viewBox="0 0 221 220" fill="none" xmlns="http://www.w3.org/2000/svg">
<g clip-path="url(#clip0_2_19922)">
<path d="M110.5 220C171.251 220 220.5 170.751 220.5 110C220.5 49.2487 171.251 0 110.5 0C49.7487 0 0.5 49.2487 0.5 110C0.5 170.751 49.7487 220 110.5 220Z" fill="#F7931E"/>
<path d="M110.5 27.5C64.9394 27.5 28 64.4394 28 110C28 155.561 64.9394 192.5 110.5 192.5C156.061 192.5 193 155.561 193 110C193 88.1196 184.308 67.1354 168.836 51.6637C153.365 36.1919 132.38 27.5 110.5 27.5ZM151.75 67.4644C155.853 67.4644 159.787 69.0941 162.688 71.9951C165.589 74.896 167.219 78.8306 167.219 82.9331V106.129C167.219 110.232 165.589 114.166 162.688 117.067C159.787 119.968 155.853 121.598 151.75 121.598H132.596L131.359 127.401C131.19 128.112 130.794 128.748 130.231 129.214C129.667 129.679 128.968 129.948 128.238 129.979H124.367C124.047 129.992 123.728 129.93 123.437 129.796C123.146 129.662 122.891 129.461 122.693 129.209C122.495 128.957 122.359 128.662 122.298 128.348C122.236 128.033 122.25 127.709 122.339 127.401L123.576 121.605H114.549L113.312 127.401C113.143 128.112 112.747 128.748 112.184 129.214C111.621 129.679 110.921 129.948 110.191 129.979H106.32C106 129.992 105.681 129.93 105.39 129.796C105.099 129.662 104.844 129.461 104.646 129.209C104.448 128.957 104.312 128.662 104.251 128.348C104.189 128.033 104.203 127.709 104.292 127.401L105.529 121.605H95.8562L87.3587 161.562H66.7337L81.8038 90.6606H102.429L99.1425 106.129H138.859C143.129 106.129 146.594 102.671 146.594 98.4019V90.6606C146.594 86.3981 143.129 82.9331 138.859 82.9331H53.7812L66.6719 67.4644H117.038L118.269 61.6619C118.437 60.9509 118.833 60.3143 119.397 59.849C119.96 59.3837 120.66 59.115 121.39 59.0837H125.261C125.581 59.0702 125.899 59.1329 126.191 59.2667C126.482 59.4006 126.737 59.6017 126.935 59.8535C127.133 60.1053 127.268 60.4006 127.33 60.715C127.391 61.0294 127.377 61.354 127.289 61.6619L126.058 67.4644H135.085L136.316 61.6619C136.484 60.9509 136.88 60.3143 137.444 59.849C138.007 59.3837 138.707 59.115 139.437 59.0837H143.307C143.628 59.0702 143.946 59.1329 144.237 59.2667C144.529 59.4006 144.784 59.6017 144.982 59.8535C145.18 60.1053 145.315 60.4006 145.377 60.715C145.438 61.0294 145.424 61.354 145.336 61.6619L144.105 67.4644H151.75Z" fill="white"/>
</g>
<defs>
<clipPath id="clip0_2_19922">
<rect width="220" height="220" fill="white" transform="translate(0.5)"/>
</clipPath>
</defs>
</svg>
