<svg width="221" height="220" viewBox="0 0 221 220" fill="none" xmlns="http://www.w3.org/2000/svg">
<g clip-path="url(#clip0_2_19918)">
<path d="M110.5 220C171.251 220 220.5 170.751 220.5 110C220.5 49.2487 171.251 0 110.5 0C49.7487 0 0.5 49.2487 0.5 110C0.5 170.751 49.7487 220 110.5 220Z" fill="#00ACFF"/>
<path fill-rule="evenodd" clip-rule="evenodd" d="M104.175 138.573C104.602 138.395 105.06 138.304 105.523 138.305C105.985 138.305 106.443 138.397 106.87 138.576C107.297 138.754 107.684 139.015 108.01 139.344C108.336 139.672 108.593 140.062 108.767 140.491C109.123 141.355 109.123 142.326 108.766 143.19C108.409 144.054 107.725 144.742 106.863 145.104L83.4464 154.825L80.3389 171.875H64.2239L65.9908 162.071L56.4895 166.011C56.0623 166.188 55.6041 166.279 55.1415 166.279C54.6788 166.278 54.2209 166.186 53.794 166.008C53.3671 165.83 52.9797 165.569 52.6541 165.24C52.3285 164.911 52.0712 164.521 51.897 164.093C51.5432 163.229 51.5447 162.26 51.9014 161.398C52.258 160.535 52.9409 159.848 53.8014 159.486L67.4827 153.808L68.5139 148.04L50.0408 155.705C49.6139 155.882 49.1564 155.972 48.6945 155.971C48.2326 155.97 47.7755 155.877 47.3494 155.699C46.9233 155.521 46.5366 155.26 46.2115 154.932C45.8864 154.604 45.6294 154.215 45.4552 153.787C45.0992 152.923 45.0996 151.952 45.4564 151.088C45.8132 150.224 46.4973 149.536 47.3595 149.174L69.9989 139.776L86.4852 48.194H133.05C161.56 47.2109 175.812 56.7328 175.812 76.7596C175.812 102.163 157.236 121.812 125.728 121.812H89.462L87.5164 132.509L97.7395 128.267C98.1665 128.091 98.624 128.001 99.0859 128.002C99.5478 128.003 100.005 128.095 100.431 128.273C100.857 128.451 101.244 128.712 101.569 129.04C101.894 129.368 102.151 129.757 102.325 130.185C102.679 131.049 102.677 132.018 102.321 132.88C101.964 133.743 101.281 134.43 100.421 134.792L86.0039 140.78L84.952 146.555L104.175 138.573ZM100.256 62.6246L92.1983 106.797H128.072C150.155 106.797 158.528 91.7746 158.528 80.8778C158.528 69.9878 153.262 62.6246 135.69 62.6246H100.256Z" fill="white"/>
</g>
<defs>
<clipPath id="clip0_2_19918">
<rect width="220" height="220" fill="white" transform="translate(0.5)"/>
</clipPath>
</defs>
</svg>
