<svg width="221" height="220" viewBox="0 0 221 220" fill="none" xmlns="http://www.w3.org/2000/svg">
<g clip-path="url(#clip0_2_19914)">
<path d="M110.5 220C171.251 220 220.5 170.751 220.5 110C220.5 49.2487 171.251 0 110.5 0C49.7487 0 0.5 49.2487 0.5 110C0.5 170.751 49.7487 220 110.5 220Z" fill="#EDE708"/>
<path d="M185.3 91.7811L188.738 96.9374C195.613 79.6124 194.032 66.0686 187.844 60.1561C176.707 49.4311 160.344 55.4124 142.607 47.9874C127.825 37.1249 118.888 34.2374 106.582 34.2374C98.1759 35.6833 90.3947 39.6099 84.2379 45.5124C79.2738 45.222 74.3059 46.0122 69.6768 47.8282C65.0478 49.6442 60.8678 52.4429 57.4254 56.0311C50.1378 64.6249 48.4879 88.2061 47.3879 94.1874C46.2879 100.169 33.6379 124.3 34.9441 137.5C36.2504 150.7 45.9441 165 73.3754 168.369C78.4611 174.276 84.8072 178.966 91.9461 182.096C99.0851 185.225 106.835 186.713 114.625 186.45C128.994 184.937 149 162.937 160.619 154.206C172.238 145.475 213.625 137.912 188.944 97.2811C187.886 95.5053 186.739 93.7844 185.507 92.1249L185.3 91.7811ZM122.532 152.281C112.081 154.308 101.25 152.631 91.9023 147.536C82.5546 142.442 75.274 134.25 71.3129 124.369C69.8004 118.456 66.8441 88.3436 91.9379 73.4249C110.638 62.8374 136.969 61.3936 148.038 86.0749C159.107 110.756 155.05 145.337 122.532 152.281Z" fill="white"/>
</g>
<defs>
<clipPath id="clip0_2_19914">
<rect width="220" height="220" fill="white" transform="translate(0.5)"/>
</clipPath>
</defs>
</svg>
