<svg width="221" height="220" viewBox="0 0 221 220" fill="none" xmlns="http://www.w3.org/2000/svg">
<g clip-path="url(#clip0_2_19910)">
<path d="M110.5 220C171.251 220 220.5 170.751 220.5 110C220.5 49.2487 171.251 0 110.5 0C49.7487 0 0.5 49.2487 0.5 110C0.5 170.751 49.7487 220 110.5 220Z" fill="#302C2C"/>
<path d="M185.506 107.91C185.129 107.147 184.63 106.45 184.028 105.847C170.952 91.0387 144.339 61.875 144.339 61.875L110.535 98.8488L76.2971 62.2256C76.2971 62.2256 49.3746 91.6437 36.1815 106.611C34.4627 108.302 34.4627 111.354 36.0027 113.156C42.8571 120.966 76.524 158.091 76.524 158.091L110.486 120.869L144.215 158.125L184.895 113.121C184.895 113.121 185.754 112.227 185.94 111.629C186.338 110.392 186.05 109.044 185.506 107.91ZM54.9365 112.028C53.8365 110.729 54.2077 108.687 55.2321 107.456C59.5358 102.554 76.7577 84.0812 76.7577 84.0812L100.751 109.553L76.7165 135.843C76.7165 135.843 62.004 120.141 54.9365 112.028ZM164.854 112.894C164.347 113.763 163.758 114.58 163.094 115.335L144.463 135.582L120.4 110L144.078 84.0469C144.078 84.0469 157.718 98.175 163.967 105.772C164.496 106.432 165.122 107.058 165.39 107.896C165.961 109.539 165.596 111.368 164.847 112.888" fill="white"/>
</g>
<defs>
<clipPath id="clip0_2_19910">
<rect width="220" height="220" fill="white" transform="translate(0.5)"/>
</clipPath>
</defs>
</svg>
