<svg width="221" height="220" viewBox="0 0 221 220" fill="none" xmlns="http://www.w3.org/2000/svg">
<g clip-path="url(#clip0_2_19904)">
<path d="M110.5 220C171.251 220 220.5 170.751 220.5 110C220.5 49.2487 171.251 0 110.5 0C49.7487 0 0.5 49.2487 0.5 110C0.5 170.751 49.7487 220 110.5 220Z" fill="#663300"/>
<path d="M80.8545 69.1831L89.4482 48.125L148.312 48.3381C156.906 48.9844 167.218 48.9844 173.021 56.2925C179.896 64.24 178.39 75.625 174.953 84.645C171.639 94.3523 165.889 103.046 158.252 109.893C150.615 116.741 141.348 121.512 131.338 123.75C117.161 125.902 102.765 125.256 88.3689 125.256C91.2357 118.264 94.1026 111.244 96.9626 104.197C108.781 104.197 120.812 104.844 132.843 102.912C143.802 100.121 153.901 89.1619 152.183 77.1306C151.103 71.9744 145.308 69.6094 140.358 69.6094C120.599 68.75 100.826 69.6094 81.0676 69.1763H80.8545V69.1831Z" fill="white"/>
<path d="M55.5 74.9774H125.323L116.089 98.8267H46.04L55.5 75.1905V74.9842V74.9774ZM66.6719 104.196H90.9475L65.6063 168.649H41.75L66.885 104.196H66.6719Z" fill="white"/>
</g>
<defs>
<clipPath id="clip0_2_19904">
<rect width="220" height="220" fill="white" transform="translate(0.5)"/>
</clipPath>
</defs>
</svg>
