<svg width="221" height="220" viewBox="0 0 221 220" fill="none" xmlns="http://www.w3.org/2000/svg">
<g clip-path="url(#clip0_2_19898)">
<path d="M110.5 220C171.251 220 220.5 170.751 220.5 110C220.5 49.2487 171.251 0 110.5 0C49.7487 0 0.5 49.2487 0.5 110C0.5 170.751 49.7487 220 110.5 220Z" fill="#ED79AA"/>
<path opacity="0.5" fill-rule="evenodd" clip-rule="evenodd" d="M161.733 61.3869L148.876 74.3325C144.244 69.6478 138.728 65.9295 132.648 63.3933C126.568 60.8571 120.044 59.5535 113.456 59.5581C86.5408 59.5581 64.5751 80.9394 63.4201 107.752H63.3651V156.716C51.6444 143.985 45.1536 127.304 45.1876 110C45.1876 72.0294 75.7539 41.25 113.456 41.25C122.436 41.2436 131.327 43.0204 139.614 46.4771C147.901 49.9338 155.419 55.0018 161.733 61.3869ZM161.733 158.613C149.253 171.239 132.321 178.469 114.57 178.75V160.435C127.488 160.155 139.791 154.862 148.876 145.674L161.733 158.613Z" fill="white"/>
<path fill-rule="evenodd" clip-rule="evenodd" d="M80.8066 170.39V107.759H80.8548C81.8173 89.8494 96.5435 75.625 114.57 75.625C133.215 75.625 148.333 90.8462 148.333 109.629C148.333 128.404 133.215 143.626 114.577 143.626C108.572 143.636 102.675 142.028 97.506 138.971V176.859C91.6774 175.456 86.0615 173.283 80.8066 170.397V170.39ZM114.57 126.816C116.819 126.809 119.045 126.359 121.121 125.491C123.196 124.623 125.081 123.355 126.666 121.759C128.251 120.163 129.506 118.27 130.36 116.189C131.213 114.107 131.649 111.878 131.64 109.629C131.64 100.134 123.995 92.4412 114.57 92.4412C112.321 92.4494 110.095 92.9004 108.021 93.7685C105.946 94.6367 104.063 95.9049 102.478 97.5009C100.894 99.097 99.639 100.989 98.7859 103.07C97.9328 105.151 97.4979 107.38 97.506 109.629C97.506 119.116 105.144 126.816 114.57 126.816Z" fill="white"/>
</g>
<defs>
<clipPath id="clip0_2_19898">
<rect width="220" height="220" fill="white" transform="translate(0.5)"/>
</clipPath>
</defs>
</svg>
