<svg width="221" height="220" viewBox="0 0 221 220" fill="none" xmlns="http://www.w3.org/2000/svg">
<g clip-path="url(#clip0_2_19894)">
<path d="M110.5 220C171.251 220 220.5 170.751 220.5 110C220.5 49.2487 171.251 0 110.5 0C49.7487 0 0.5 49.2487 0.5 110C0.5 170.751 49.7487 220 110.5 220Z" fill="#96B73D"/>
<path d="M80.2088 110.722C80.8 112.496 81.6731 114.16 82.8006 115.658L65.6613 98.3472C63.8753 96.5459 62.8732 94.112 62.8732 91.5753C62.8732 89.0387 63.8753 86.6048 65.6613 84.8035L87.2831 63.1678C87.73 62.8378 88.1563 62.4803 88.5688 62.1091L89.1944 61.5591L106.705 44.0347C107.586 43.1503 108.633 42.449 109.786 41.971C110.939 41.4931 112.175 41.248 113.423 41.25C114.671 41.2519 115.906 41.5007 117.058 41.9822C118.209 42.4637 119.254 43.1683 120.132 44.0553L177.49 101.826C178.797 103.684 179.41 105.942 179.22 108.205C179.03 110.469 178.05 112.594 176.452 114.208C174.874 115.799 172.798 116.8 170.57 117.044C168.343 117.288 166.099 116.76 164.214 115.548L113.546 64.3985L113.491 64.3297L113.326 64.151L86.2175 91.266L85.805 91.6097C85.7893 91.6283 85.7733 91.6467 85.7569 91.6647L112.542 118.663C113.721 119.855 114.568 121.334 115 122.954C115.431 124.574 115.431 126.279 115 127.899C114.57 129.52 113.723 130.999 112.544 132.191C111.365 133.383 109.895 134.247 108.279 134.695C106.665 135.13 104.963 135.13 103.349 134.694C101.734 134.258 100.264 133.402 99.0875 132.213L85.365 118.395C85.1656 118.216 84.9663 117.982 84.7188 117.735L84.0863 117.102C83.6264 116.585 83.1971 116.041 82.8006 115.473L83.11 115.837L82.9038 115.569C81.7521 114.108 80.8422 112.472 80.2088 110.722ZM136.213 128.412L109.393 101.4C107.607 99.5984 106.605 97.1645 106.605 94.6278C106.605 92.0912 107.607 89.6573 109.393 87.856C110.276 86.9706 111.325 86.2686 112.479 85.7904C113.634 85.3123 114.873 85.0675 116.123 85.07C117.373 85.0726 118.61 85.3225 119.763 85.8053C120.916 86.2882 121.962 86.9945 122.841 87.8835L136.57 101.702C136.763 101.874 136.962 102.115 137.216 102.355L137.842 102.988C138.199 103.387 138.529 103.813 138.832 104.246L138.983 104.432C138.79 104.156 138.593 103.883 138.392 103.613L156.336 121.674C158.124 123.477 159.128 125.913 159.128 128.453C159.128 130.992 158.124 133.429 156.336 135.232L134.7 156.874C134.247 157.198 133.811 157.544 133.394 157.912L115.354 175.952C114.474 176.839 113.428 177.543 112.275 178.023C111.122 178.503 109.886 178.751 108.637 178.751C107.388 178.751 106.151 178.503 104.999 178.023C103.846 177.543 102.799 176.839 101.92 175.952L43.6406 117.192C42.2207 115.265 41.5648 112.88 41.7997 110.499C42.0346 108.117 43.1435 105.906 44.9125 104.294C46.6759 102.69 48.9773 101.807 51.3609 101.82C53.7445 101.833 56.0364 102.74 57.7825 104.363L108.548 155.616L108.719 155.822L135.773 128.776L136.171 128.453C136.185 128.439 136.199 128.425 136.213 128.412Z" fill="white"/>
</g>
<defs>
<clipPath id="clip0_2_19894">
<rect width="220" height="220" fill="white" transform="translate(0.5)"/>
</clipPath>
</defs>
</svg>
