<svg width="221" height="220" viewBox="0 0 221 220" fill="none" xmlns="http://www.w3.org/2000/svg">
<g clip-path="url(#clip0_2_19890)">
<path d="M110.5 220C171.251 220 220.5 170.751 220.5 110C220.5 49.2487 171.251 0 110.5 0C49.7487 0 0.5 49.2487 0.5 110C0.5 170.751 49.7487 220 110.5 220Z" fill="#5E4778"/>
<path fill-rule="evenodd" clip-rule="evenodd" d="M72.6875 84.1569H114.989V92.785H72.6875V84.1569ZM155.188 88.2131C155.188 108.659 140.681 121.866 120.62 121.866H92.8313V165H81.8312V112.111H119.128C134.081 112.111 143.844 103.228 143.844 88.2131C143.844 73.3769 134.081 64.7488 119.3 64.7488H107.695L79.8994 64.8381V55H120.531C140.674 55 155.181 67.7669 155.181 88.2131H155.188Z" fill="white" stroke="white"/>
</g>
<defs>
<clipPath id="clip0_2_19890">
<rect width="220" height="220" fill="white" transform="translate(0.5)"/>
</clipPath>
</defs>
</svg>
