<svg width="221" height="220" viewBox="0 0 221 220" fill="none" xmlns="http://www.w3.org/2000/svg">
<g clip-path="url(#clip0_2_19886)">
<path d="M110.5 220C171.251 220 220.5 170.751 220.5 110C220.5 49.2487 171.251 0 110.5 0C49.7487 0 0.5 49.2487 0.5 110C0.5 170.751 49.7487 220 110.5 220Z" fill="#00BFFF"/>
<path d="M58.3187 143.701H57.645V171.875H41.75V76.4844H57.2875V80.8844H57.8994C63.3237 75.6869 70.2331 75.5425 74.1106 75.5425C90.3631 75.5425 101.019 91.0319 101.019 111.719V114.4C101.019 135.926 88.6856 148.754 73.8356 148.754C66.885 148.775 61.7356 147.187 58.3187 143.701ZM86.2588 115.679V110.983C86.2588 97.5081 81.1231 88.495 71.9725 88.495C62.0863 88.495 56.7856 98.9725 56.7856 110.983V115.658C56.7856 127.105 62.0037 135.871 72.2475 135.871C80.3119 135.843 86.2588 129.559 86.2588 115.679ZM108.713 48.125H124.628V148.335H108.713V48.125ZM170.099 92.1869C161.176 92.1869 152.314 99.2681 152.314 108.219V148.397H136.488V77.1581H151.152V81.5375H151.75C155.311 77.7837 164.022 76.0238 171.186 76.1269C171.901 76.1269 171.309 76.1475 172.004 76.1475L172.086 92.1869H170.099ZM163.417 131.278H179.25V148.335H163.417V131.278Z" fill="white"/>
</g>
<defs>
<clipPath id="clip0_2_19886">
<rect width="220" height="220" fill="white" transform="translate(0.5)"/>
</clipPath>
</defs>
</svg>
