<svg width="221" height="220" viewBox="0 0 221 220" fill="none" xmlns="http://www.w3.org/2000/svg">
<g clip-path="url(#clip0_2_19882)">
<path d="M110.5 220C171.251 220 220.5 170.751 220.5 110C220.5 49.2487 171.251 0 110.5 0C49.7487 0 0.5 49.2487 0.5 110C0.5 170.751 49.7487 220 110.5 220Z" fill="#444FA1"/>
<path d="M34.875 165L110.5 34.375L186.125 165H34.875ZM82.12 98.4775C90.9544 92.5788 100.428 89.6019 110.5 89.6019C120.572 89.6019 130.046 92.5788 138.88 98.4775L110.5 49.4587L82.12 98.4775ZM68.7069 121.646L48.1025 157.238H172.898L152.293 121.653C139.849 135.327 125.872 142.271 110.5 142.271C95.1275 142.271 81.1437 135.327 68.7 121.646H68.7069ZM110.5 134.509C123.824 134.509 136.013 128.391 147.199 115.947C136.013 103.482 123.824 97.3706 110.5 97.3706C97.1763 97.3706 84.9869 103.489 73.8012 115.94C84.9869 128.397 97.1763 134.516 110.5 134.516V134.509ZM110.5 131.189C102.525 131.189 96.0556 124.486 96.0556 116.215C96.0556 107.951 102.518 101.248 110.5 101.248C118.482 101.248 124.944 107.951 124.944 116.215C124.944 124.486 118.482 131.189 110.5 131.189ZM110.5 123.42C114.343 123.42 117.457 120.196 117.457 116.215C117.457 112.234 114.343 109.01 110.5 109.01C106.657 109.01 103.542 112.241 103.542 116.215C103.542 120.202 106.657 123.427 110.5 123.427V123.42Z" fill="white"/>
</g>
<defs>
<clipPath id="clip0_2_19882">
<rect width="220" height="220" fill="white" transform="translate(0.5)"/>
</clipPath>
</defs>
</svg>
