<svg width="221" height="220" viewBox="0 0 221 220" fill="none" xmlns="http://www.w3.org/2000/svg">
<g clip-path="url(#clip0_2_19878)">
<path d="M110.5 220C171.251 220 220.5 170.751 220.5 110C220.5 49.2487 171.251 0 110.5 0C49.7487 0 0.5 49.2487 0.5 110C0.5 170.751 49.7487 220 110.5 220Z" fill="#DCD6CC"/>
<path d="M170.711 53.1576C165.185 47.7131 157.734 44.6693 149.976 44.6876C142.104 44.6876 134.776 47.7126 129.241 53.1576L61.4812 119.886C61.1395 120.229 60.8741 120.64 60.7023 121.093C60.5305 121.546 60.4563 122.029 60.4844 122.513V156.86L41.75 175.313H52.0831L65.9569 161.652H100.634C101.121 161.657 101.604 161.56 102.051 161.369C102.498 161.177 102.901 160.894 103.233 160.538L170.649 94.1395L170.718 94.0707C173.416 91.4131 175.559 88.2465 177.023 84.7544C178.488 81.2623 179.245 77.5143 179.25 73.7276C179.269 69.905 178.523 66.1173 177.057 62.5871C175.59 59.057 173.433 55.8556 170.711 53.1713V53.1576ZM131.304 60.9126L134.171 58.0938C138.382 53.944 144.064 51.6304 149.976 51.6588C155.909 51.6588 161.512 53.9551 165.782 58.0938C165.851 58.1626 165.919 58.2863 166.05 58.3551C170.113 62.4938 172.313 67.877 172.313 73.6588C172.313 79.5026 169.976 85.0163 165.782 89.2238L162.846 92.1113H136.639L153.847 75.1645C154.505 74.5222 154.886 73.6488 154.911 72.7297C154.935 71.8106 154.6 70.9182 153.977 70.242C153.909 70.1732 153.909 70.1045 153.84 70.0426C153.15 69.3812 152.231 69.012 151.276 69.012C150.32 69.012 149.401 69.3812 148.711 70.0426L131.372 87.1201V60.9057L131.304 60.9126ZM73.0312 154.694L87.1662 140.766H113.374L99.2388 154.694H73.0312ZM114.171 114.104L130.912 97.6182H157.119L140.379 114.104H114.171ZM134.645 119.756L119.039 135.121H92.8312L108.437 119.756H134.645ZM108.843 83.0432L125.646 66.4882V92.627L108.843 109.244V83.0432ZM87.5031 104.053L103.109 88.6876V114.826L87.5031 130.192V104.053ZM67.4969 123.757L81.8312 109.704V135.843L67.4969 149.896V123.757Z" fill="white"/>
</g>
<defs>
<clipPath id="clip0_2_19878">
<rect width="220" height="220" fill="white" transform="translate(0.5)"/>
</clipPath>
</defs>
</svg>
