<svg width="221" height="220" viewBox="0 0 221 220" fill="none" xmlns="http://www.w3.org/2000/svg">
<g clip-path="url(#clip0_2_19874)">
<path d="M110.5 220C171.251 220 220.5 170.751 220.5 110C220.5 49.2487 171.251 0 110.5 0C49.7487 0 0.5 49.2487 0.5 110C0.5 170.751 49.7487 220 110.5 220Z" fill="#2C3E50"/>
<path d="M176.747 155.924V149.049C176.747 147.688 175.833 146.78 174.444 146.78H169.872V139.878C169.872 138.509 168.958 137.581 167.597 137.581H163.018V87.0844H167.569C168.938 87.0844 169.872 86.1769 169.872 84.7882V77.9132H174.444C174.983 77.9358 175.511 77.7611 175.93 77.4219C176.349 77.0827 176.63 76.6022 176.72 76.0707C176.954 74.9294 176.493 74.0219 175.586 73.5407L111.524 41.4207C110.86 41.1933 110.14 41.1933 109.476 41.4207L43.1181 73.5407C42.6825 73.7779 42.3356 74.1501 42.1298 74.6014C41.924 75.0528 41.8703 75.5587 41.9769 76.0432C41.9769 77.2119 42.8912 77.9132 44.0256 77.9132H50.9006V84.7882C50.9006 86.1494 51.815 87.0569 53.1763 87.0569H57.755V137.581H53.2037C51.8287 137.581 50.9006 138.489 50.9006 139.85V146.753H46.3287C44.9537 146.753 44.0463 147.66 44.0463 149.028V155.924C42.685 155.924 41.75 156.838 41.75 158.227C41.75 159.616 42.6575 160.523 44.0256 160.523H176.747C178.109 160.523 179.044 159.616 179.044 158.254C179.044 156.879 178.136 155.924 176.775 155.924H176.747ZM55.4519 82.4851V77.9132H165.273V82.4851H55.4519ZM149.247 87.0913V137.581H140.118V87.0844H149.247V87.0913ZM126.368 87.0913V137.581H117.217V87.0844H126.361L126.368 87.0913ZM103.487 87.0913V137.581H94.3575V87.0844H103.487V87.0913ZM80.6075 87.0913V137.581H71.4844V87.0844H80.6075V87.0913ZM165.273 146.753H55.4794V142.153H165.294V146.753H165.273Z" fill="white"/>
</g>
<defs>
<clipPath id="clip0_2_19874">
<rect width="220" height="220" fill="white" transform="translate(0.5)"/>
</clipPath>
</defs>
</svg>
