<svg width="221" height="220" viewBox="0 0 221 220" fill="none" xmlns="http://www.w3.org/2000/svg">
<g clip-path="url(#clip0_2_19870)">
<path d="M110.5 220C171.251 220 220.5 170.751 220.5 110C220.5 49.2487 171.251 0 110.5 0C49.7487 0 0.5 49.2487 0.5 110C0.5 170.751 49.7487 220 110.5 220Z" fill="#4C5A95"/>
<path d="M186.125 77.4331L185.822 72.5725L184.324 76.6494L175.895 83.7306L166.242 85.1675L163.355 82.4931L171.818 71.2663L180.481 68.75L171.103 68.9425L157.47 78.4437L144.689 77.5637L126.746 68.75L116.144 70.8056L83.0688 97.2469L67.1325 102.176L60.5737 108.577L48.845 108.735L43.0356 119.116L34.875 121.371L42.5888 122.382L49.7594 113.08L60.8419 115.301L60.6356 125.256L55.1012 139.583L51.9387 152.838L48.5356 158.125L57.1706 156.296L56.1875 150.879L63.53 136.317L77.665 130.838L83.1375 122.121L92.3844 115.658L110.741 118.236L129.228 110.433L126.099 122.774L117.877 123.489L115.533 133.609L122.566 129.106L134.226 124.245L143.335 110.502L143.913 104.005L148.808 108.866L163.046 117.452L171.137 113.761L170.663 95.6175L168.312 88.5981L178.886 86.02L186.125 77.4331Z" fill="white"/>
</g>
<defs>
<clipPath id="clip0_2_19870">
<rect width="220" height="220" fill="white" transform="translate(0.5)"/>
</clipPath>
</defs>
</svg>
