<svg width="221" height="220" viewBox="0 0 221 220" fill="none" xmlns="http://www.w3.org/2000/svg">
<g clip-path="url(#clip0_2_19866)">
<path d="M110.5 220C171.251 220 220.5 170.751 220.5 110C220.5 49.2487 171.251 0 110.5 0C49.7487 0 0.5 49.2487 0.5 110C0.5 170.751 49.7487 220 110.5 220Z" fill="#105B2F"/>
<path fill-rule="evenodd" clip-rule="evenodd" d="M83.2269 124.988L80.5456 138.649L75.6644 163.75C75.5269 164.506 75.3344 165.015 74.3719 165.001C68.3081 164.912 62.2444 164.863 56.1806 164.795C56.0362 164.795 55.885 164.698 55.5 164.554L69.1812 96.2165H57.6519C57.6794 95.7078 57.6656 95.4053 57.7206 95.1165C58.4287 91.4246 59.1919 87.7396 59.8313 84.034C60.01 83.0028 60.4706 82.7415 61.4331 82.7484C64.2519 82.7759 67.0706 82.6728 69.8756 82.769C71.2162 82.8103 71.7319 82.4253 71.9931 81.1053C73.5606 72.9378 75.2381 64.7978 76.8469 56.644C77.0394 55.6746 77.2525 55.0078 78.5175 55.0078C92.3225 55.049 106.134 54.9184 119.939 55.0971C127.997 55.2003 136.075 55.6128 144.002 57.2421C146.731 57.8059 149.502 58.5346 152.032 59.6621C159.306 62.8934 163.685 68.4896 164.902 76.2378C166.792 88.2759 164.242 99.3378 156.514 108.977C150.808 116.072 142.984 120.052 134.246 122.472C127.316 124.39 120.208 124.988 113.044 125.002C103.728 125.023 94.4125 125.002 85.0969 124.995H83.2269V124.988ZM87.0425 106.165H88.9881C98.84 106.165 108.692 106.185 118.551 106.151C120.647 106.151 122.772 106.062 124.855 105.807C132.809 104.858 138.853 101.043 142.716 94.1196C144.374 91.1173 144.931 87.6302 144.291 84.2609C143.479 79.469 140.619 76.3409 135.759 75.4609C132.2 74.7827 128.593 74.3919 124.972 74.2921C114.852 74.1065 104.732 74.1821 94.605 74.1546C94.2406 74.1546 93.8762 74.2096 93.3881 74.2509L91.7106 82.8309H119.829L117.244 96.1546H89.0363L87.0425 106.165Z" fill="white"/>
</g>
<defs>
<clipPath id="clip0_2_19866">
<rect width="220" height="220" fill="white" transform="translate(0.5)"/>
</clipPath>
</defs>
</svg>
