<svg width="221" height="220" viewBox="0 0 221 220" fill="none" xmlns="http://www.w3.org/2000/svg">
<g clip-path="url(#clip0_2_19862)">
<path d="M110.5 220C171.251 220 220.5 170.751 220.5 110C220.5 49.2487 171.251 0 110.5 0C49.7487 0 0.5 49.2487 0.5 110C0.5 170.751 49.7487 220 110.5 220Z" fill="#05BCA9"/>
<path fill-rule="evenodd" clip-rule="evenodd" d="M192.965 109.684C193.035 109.999 192.995 110.327 192.852 110.616C192.71 110.905 192.473 111.136 192.182 111.272L191.659 111.52L175.805 127.415L181.952 150.412C182.048 150.774 181.998 151.159 181.811 151.484C181.624 151.809 181.316 152.046 180.955 152.144L158.893 158.064L152.808 180.82C152.713 181.181 152.479 181.489 152.157 181.677C151.834 181.865 151.451 181.918 151.09 181.824L127.783 175.567L111.297 192.088C111.167 192.22 111.012 192.324 110.84 192.396C110.669 192.467 110.486 192.504 110.3 192.504C110.115 192.504 109.931 192.467 109.76 192.396C109.589 192.324 109.434 192.22 109.303 192.088L93.0166 175.76L70.4528 181.824C70.2745 181.871 70.0885 181.883 69.9055 181.859C69.7225 181.835 69.5461 181.775 69.3865 181.682C69.2268 181.589 69.0869 181.466 68.975 181.319C68.863 181.173 68.7812 181.005 68.7341 180.827L62.6428 158.071L40.5878 152.144C40.4083 152.096 40.24 152.014 40.0927 151.901C39.9453 151.787 39.8217 151.646 39.7291 151.485C39.6365 151.324 39.5766 151.147 39.5529 150.962C39.5291 150.778 39.5421 150.591 39.5909 150.412L45.5378 128.157L28.4191 110.991C28.1562 110.725 28.0088 110.367 28.0088 109.994C28.0088 109.62 28.1562 109.262 28.4191 108.997L45.0634 92.2974L39.1166 70.0499C39.02 69.6871 39.0715 69.3007 39.2598 68.9759C39.448 68.651 39.7575 68.4142 40.1203 68.3174L63.1859 62.1162L69.1947 39.6349C69.2914 39.2721 69.5283 38.9626 69.8531 38.7744C70.178 38.5862 70.5643 38.5346 70.9272 38.6312L92.7484 44.4955L109.303 27.8993C109.572 27.6429 109.929 27.4999 110.3 27.4999C110.672 27.4999 111.029 27.6429 111.297 27.8993L128.052 44.688L150.615 38.6243C150.795 38.5766 150.981 38.5647 151.165 38.5894C151.349 38.614 151.526 38.6747 151.686 38.768C151.847 38.8612 151.987 38.9852 152.099 39.1328C152.212 39.2804 152.294 39.4487 152.341 39.628L152.499 40.2193C152.534 40.3081 152.559 40.4003 152.575 40.4943L158.35 62.1093L181.422 68.3105C182.178 68.5168 182.618 69.2868 182.419 70.043L176.273 93.033L191.79 108.591C192.073 108.632 192.337 108.757 192.547 108.951C192.757 109.145 192.903 109.398 192.965 109.677V109.684ZM174.96 124.259L184.213 114.992L173.784 119.852L174.96 124.266V124.259ZM178.335 147.82L173.502 129.725L163.898 139.35V139.357L178.335 147.82ZM163.142 142.182L159.738 154.915L176.96 150.288L163.142 142.189V142.182ZM150.78 177.492L155.751 158.909L142.18 162.553L150.78 177.492ZM133.565 169.758L130.08 173.257L143.754 176.929L133.565 169.758ZM111.71 187.674L124.635 174.715L111.71 171.243V187.674ZM108.891 171.497L96.1653 174.914L108.884 187.674V171.497H108.891ZM73.2166 178.152L90.7203 173.457L81.3428 164.052L73.2166 178.152ZM65.7916 158.909L69.6759 173.443L70.8447 160.271L65.7916 158.909ZM44.5478 150.281L61.8041 154.915L58.3666 142.079L44.5478 150.281ZM56.9709 139.625L47.8409 130.467L43.2072 147.792L56.9709 139.625ZM33.0459 111.644L46.3834 125.009L49.9516 111.644H33.0459ZM47.3459 100.816L45.9091 95.453L34.6753 106.714L47.3459 100.816ZM42.7259 72.6143L47.3666 89.9874L56.6478 80.6855L42.7259 72.6143ZM58.7997 78.5268L62.3472 65.2718L44.1284 70.1668L58.7103 78.6162L58.7997 78.5268ZM70.9822 43.8768L66.3347 61.2705L79.0328 57.8605L70.9822 43.8837V43.8768ZM87.0834 50.1743L90.4453 46.8055L77.2728 43.2649L87.0834 50.1743ZM108.891 32.313L95.8972 45.3412L108.891 48.8337V32.313ZM111.71 49.088L124.91 45.5405L111.71 32.313V49.088ZM148.807 42.048L130.355 46.998L140.241 56.9187L148.807 42.048ZM150.89 60.1155L155.208 61.2705L151.887 48.8474L150.89 60.1155ZM177.359 70.153L159.195 65.2718L162.702 78.4168L177.352 70.1462L177.359 70.153ZM164.125 80.8574L173.97 90.723L178.83 72.5524L164.125 80.8574ZM187.788 108.571L175.434 96.1887L172.12 108.571H187.788ZM171.522 111.396L173.035 117.068L185.21 111.396H171.529H171.522ZM169.391 118.766L170.443 118.285L169.982 116.566L169.398 118.766H169.391ZM168.442 122.327L165.348 133.884L172.657 126.562L171.185 121.049L168.442 122.327ZM159.91 143.344L144.215 159.074L156.59 155.754L159.91 143.344ZM140.2 159.109L161.368 137.886L165.108 123.881L129.475 140.484L140.2 159.109ZM139.595 163.715L135.593 167.723L146.208 175.196L139.595 163.715ZM132.094 165.262L133.249 166.073L134.782 164.533L132.094 165.262ZM128.54 166.211L116.22 169.524L126.938 172.405L131.228 168.101L128.547 166.211H128.54ZM105.323 169.524L85.4747 164.189L93.8622 172.604L105.323 169.524ZM73.9934 156.682L73.8559 158.146L76.0353 158.731L73.9934 156.682ZM71.3878 154.069L61.9759 144.651L64.9459 155.767L71.0991 157.417L71.3878 154.083V154.069ZM56.5309 135.184L51.5534 116.566L48.6797 127.312L56.5309 135.184ZM49.4841 108.818L48.0816 103.586L36.8547 108.811H49.4841V108.818ZM52.6741 101.441L50.6803 102.376L51.5534 105.649L52.6741 101.441ZM53.6297 97.8868L57.3422 83.9855L48.2122 93.143L49.9378 99.6055L53.6297 97.8868ZM62.7872 74.5255L75.5678 61.7174L65.4891 64.4262L62.7872 74.5324V74.5255ZM81.2397 56.0318L85.0622 52.2024L74.9147 45.0593L81.2397 56.0318ZM89.2147 55.1243L87.4066 53.8524L85.0003 56.2587L89.2147 55.1243ZM92.7691 54.1687L105.323 50.7999L93.5941 47.6512L89.4278 51.8174L92.7691 54.1687ZM116.213 50.7999L135.257 55.9149L127.213 47.8505L116.213 50.7999ZM147.68 64.3712L147.872 62.2262L144.689 61.3737L147.68 64.3712ZM150.278 66.9837L159.092 75.818L156.047 64.4262L150.636 62.9687L150.278 66.9837ZM164.537 85.2712L169.982 105.649L173.131 93.8855L164.537 85.278V85.2712ZM124.841 132.441L128.058 138.03L166.063 120.327L168.449 111.403H146.346L145.225 124.012C145.199 124.308 145.079 124.588 144.883 124.812C144.688 125.036 144.426 125.193 144.136 125.259C143.846 125.325 143.543 125.298 143.269 125.182C142.995 125.065 142.766 124.865 142.613 124.61L135.752 112.991L124.841 132.441ZM119.451 142.045L125.494 139.226L123.232 135.307L119.451 142.045ZM95.4847 139.501L129.083 163.151L137.903 160.779L126.903 141.687L116.673 146.459C116.402 146.587 116.096 146.625 115.801 146.567C115.507 146.51 115.238 146.36 115.034 146.139C114.831 145.917 114.704 145.637 114.671 145.339C114.638 145.04 114.701 144.739 114.852 144.479L121.266 133.046L99.0597 133.293L95.4847 139.494V139.501ZM94.0684 141.956L83.2747 160.683L110.775 168.067L125.528 164.1L94.0684 141.956ZM95.7803 133.327L86.8634 133.431L93.1678 137.865L95.7803 133.327ZM77.9741 111.644L74.3166 153.017L80.7378 159.446L91.7516 140.319L81.6591 133.224C81.4155 133.052 81.2328 132.806 81.137 132.523C81.0412 132.241 81.0373 131.935 81.1257 131.65C81.2142 131.364 81.3905 131.114 81.6295 130.935C81.8685 130.757 82.158 130.658 82.4566 130.653L96.0966 130.495L84.959 111.644H77.9809H77.9741ZM75.1553 111.644H53.1553L60.5116 139.178L71.7178 150.405L75.1553 111.644ZM83.2816 108.818L78.8884 101.379L78.2284 108.818H83.2816ZM93.2503 82.5418L56.0153 99.8943L53.6297 108.818H75.4028L76.4684 96.7593C76.4992 96.4655 76.6211 96.1888 76.817 95.9677C77.0129 95.7466 77.273 95.5923 77.5609 95.5264C77.8488 95.4605 78.1501 95.4863 78.4227 95.6001C78.6952 95.7139 78.9254 95.9101 79.0809 96.1612L85.9766 107.828L96.7497 88.6262L93.2434 82.5418H93.2503ZM91.834 80.0874L80.6278 60.638L61.3297 79.9912L56.9641 96.333L91.834 80.0874ZM126.257 81.2012L92.2259 57.2418L83.3159 59.6412L94.3984 78.8912L105.398 73.7624C105.67 73.6341 105.976 73.596 106.27 73.6536C106.565 73.7112 106.834 73.8615 107.037 74.0825C107.241 74.3036 107.368 74.5839 107.401 74.8825C107.434 75.1811 107.371 75.4824 107.22 75.7424L100.785 87.2099L122.937 86.9624L126.257 81.2012ZM127.673 78.7399L138.612 59.7443L110.768 52.2643L95.7803 56.293L127.673 78.7399ZM126.216 86.9212L134.26 86.8387L128.574 82.8305L126.216 86.928V86.9212ZM143.513 111.403H138.082L142.805 119.392L143.513 111.403ZM98.3584 85.7593L102.621 78.1762L95.8147 81.3455L98.3584 85.7662V85.7593ZM122.854 130.22L134.088 110.186L122.091 89.8774L122.057 89.8018L99.1834 90.0562L87.6334 110.64L99.3553 130.461L122.717 130.199C122.765 130.199 122.806 130.213 122.854 130.22ZM149.955 70.6549L146.593 108.577H167.851L160.55 81.2837L149.955 70.6549ZM143.768 108.577L147.357 68.0424L140.846 61.518L129.983 80.3693L139.471 87.038C139.717 87.2098 139.903 87.4555 140.001 87.7396C140.098 88.0237 140.103 88.3315 140.014 88.6185C139.925 88.9055 139.748 89.1568 139.507 89.3362C139.266 89.5155 138.974 89.6136 138.673 89.6162L125.302 89.7605L136.418 108.577H143.761H143.768ZM148.12 59.373L149.22 46.9774L142.895 57.9637L148.12 59.373ZM73.6084 161.013L72.4741 173.787L79.0053 162.457L73.6084 161.013Z" fill="white"/>
</g>
<defs>
<clipPath id="clip0_2_19862">
<rect width="220" height="220" fill="white" transform="translate(0.5)"/>
</clipPath>
</defs>
</svg>
