<svg width="221" height="220" viewBox="0 0 221 220" fill="none" xmlns="http://www.w3.org/2000/svg">
<g clip-path="url(#clip0_2_19858)">
<path d="M110.5 220C171.251 220 220.5 170.751 220.5 110C220.5 49.2487 171.251 0 110.5 0C49.7487 0 0.5 49.2487 0.5 110C0.5 170.751 49.7487 220 110.5 220Z" fill="#3CB054"/>
<path fill-rule="evenodd" clip-rule="evenodd" d="M62.375 51.5625C145.514 54.6356 177.573 104.541 161.478 149.071C156.92 161.466 152.073 168.252 141.884 175.312C142.297 173.525 142.723 171.737 143.053 169.902C149.076 135.162 137.656 93.3556 81.7831 70.2625C126.237 96.7175 144.174 143.791 123.446 174.178C88.1562 179.726 62.375 149.593 62.375 114.874V51.5625Z" fill="white"/>
</g>
<defs>
<clipPath id="clip0_2_19858">
<rect width="220" height="220" fill="white" transform="translate(0.5)"/>
</clipPath>
</defs>
</svg>
