<svg width="221" height="220" viewBox="0 0 221 220" fill="none" xmlns="http://www.w3.org/2000/svg">
<g clip-path="url(#clip0_2_19854)">
<path d="M110.5 220C171.251 220 220.5 170.751 220.5 110C220.5 49.2487 171.251 0 110.5 0C49.7487 0 0.5 49.2487 0.5 110C0.5 170.751 49.7487 220 110.5 220Z" fill="#348F8D"/>
<path d="M160.77 48.4258C162.412 50.1299 163.33 52.4046 163.33 54.7714C163.33 57.1383 162.412 59.413 160.77 61.1171L139.251 83.1789C138.567 83.8775 137.773 84.4583 136.9 84.8977C135.32 85.7889 133.489 86.1301 131.695 85.8675C129.9 85.6049 128.244 84.7535 126.986 83.4471L105.55 61.4883L64.2653 103.831L74.234 114.027C75.6646 115.531 76.4583 117.53 76.4494 119.605C76.4404 121.681 75.6294 123.673 74.1859 125.165C73.4814 125.893 72.6382 126.474 71.706 126.871C70.7738 127.269 69.7715 127.476 68.7579 127.481C67.7444 127.485 66.7402 127.287 65.8045 126.897C64.8689 126.508 64.0206 125.935 63.3097 125.213L47.4559 109.036C46.0009 107.531 45.1875 105.519 45.1875 103.426C45.1875 101.332 46.0009 99.3209 47.4559 97.8158L47.5659 97.7127C47.5998 97.68 47.6319 97.6456 47.6622 97.6096L100.077 43.8471H100.084L100.091 43.8402L100.263 43.6614C101.571 42.302 103.323 41.4566 105.201 41.2787C107.08 41.1009 108.96 41.6023 110.5 42.6921C110.995 43.0289 111.462 43.4071 111.875 43.8402L132.39 64.8296L148.388 48.4258C149.192 47.5963 150.155 46.9367 151.219 46.4863C152.283 46.036 153.427 45.8039 154.582 45.8039C155.738 45.8039 156.881 46.036 157.945 46.4863C159.009 46.9367 159.972 47.5963 160.777 48.4258H160.77ZM173.543 111.002C175.004 112.497 175.822 114.504 175.823 116.593C175.824 118.683 175.009 120.691 173.55 122.188L173.44 122.291C173.404 122.323 173.37 122.358 173.337 122.394L120.716 176.342C119.916 177.171 118.945 177.815 117.87 178.228C116.794 178.642 115.642 178.815 114.493 178.736C113.344 178.657 112.226 178.327 111.218 177.77C110.209 177.212 109.336 176.441 108.657 175.51L88.6028 154.995L72.7009 171.344C70.4872 173.626 67.2559 174.527 64.224 173.695C61.1922 172.863 58.8203 170.443 58.009 167.336C57.2047 164.235 58.0778 160.921 60.3122 158.66L81.824 136.605C83.0478 135.326 84.6222 134.46 86.3409 134.116C89.1184 133.497 92.0197 134.363 94.034 136.426L115.525 158.412L156.734 116.172L146.765 105.976C145.335 104.472 144.541 102.474 144.55 100.398C144.559 98.3224 145.37 96.3305 146.813 94.8389C147.518 94.1103 148.361 93.53 149.293 93.1322C150.225 92.7343 151.228 92.5271 152.241 92.5226C153.255 92.5181 154.259 92.7165 155.195 93.106C156.13 93.4956 156.979 94.0684 157.69 94.7908L173.317 110.775L173.33 110.789L173.351 110.803L173.543 111.002Z" fill="white"/>
</g>
<defs>
<clipPath id="clip0_2_19854">
<rect width="220" height="220" fill="white" transform="translate(0.5)"/>
</clipPath>
</defs>
</svg>
