<svg width="221" height="220" viewBox="0 0 221 220" fill="none" xmlns="http://www.w3.org/2000/svg">
<g clip-path="url(#clip0_2_19850)">
<path d="M110.5 220C171.251 220 220.5 170.751 220.5 110C220.5 49.2487 171.251 0 110.5 0C49.7487 0 0.5 49.2487 0.5 110C0.5 170.751 49.7487 220 110.5 220Z" fill="#152743"/>
<path d="M110.837 57.1727C101.79 57.1727 94.4543 52.1333 94.4543 45.9115C94.4543 39.6896 101.79 34.6502 110.837 34.6502C119.885 34.6502 127.214 39.6896 127.214 45.9115C127.214 52.1333 119.885 57.1727 110.837 57.1727ZM102.361 182.875V62.5902H138.881C140.235 62.5902 141.191 63.6008 141.191 64.9552V131.698C141.191 133.045 140.228 134.2 138.881 134.2H118.751V182.875C118.751 184.23 117.719 185.46 116.365 185.46H104.897C104.226 185.434 103.589 185.153 103.118 184.674C102.647 184.195 102.376 183.554 102.361 182.882V182.875ZM96.2005 134.193H82.3818C81.7137 134.187 81.0738 133.923 80.595 133.457C80.1162 132.991 79.8353 132.359 79.8105 131.691V64.9552C79.8105 63.6008 81.0274 62.5902 82.3749 62.5902H96.2005V134.2V134.193Z" fill="white"/>
</g>
<defs>
<clipPath id="clip0_2_19850">
<rect width="220" height="220" fill="white" transform="translate(0.5)"/>
</clipPath>
</defs>
</svg>
