<svg width="221" height="220" viewBox="0 0 221 220" fill="none" xmlns="http://www.w3.org/2000/svg">
<g clip-path="url(#clip0_2_19843)">
<path d="M110.5 220C171.251 220 220.5 170.751 220.5 110C220.5 49.2487 171.251 0 110.5 0C49.7487 0 0.5 49.2487 0.5 110C0.5 170.751 49.7487 220 110.5 220Z" fill="#3A8CBD"/>
<path d="M93.1059 124.061H104.642C107.938 124.072 111.196 123.349 114.178 121.944C116.997 120.548 119.513 118.616 121.582 116.251C123.638 113.804 125.226 111.006 126.285 107.994C127.425 104.943 128.003 101.71 127.99 98.4519C128.008 95.273 127.376 92.124 126.133 89.1981C124.941 86.2339 123.258 83.4915 121.156 81.0856C119.037 78.6758 116.474 76.6964 113.607 75.2556C110.667 73.7359 107.402 72.9526 104.092 72.9731H73.7734V146.556H93.1334L93.1059 124.061ZM93.1059 90.745H102.917C104.28 90.8346 105.556 91.448 106.478 92.4569C107.619 93.5912 108.334 95.5919 108.334 98.72C108.334 101.848 107.626 103.704 106.615 104.715C105.77 105.712 104.628 106.42 103.35 106.42H93.1059V90.7519V90.745Z" fill="white"/>
<path d="M48.7832 55.2064V164.436C48.7832 168.355 51.9526 171.518 55.8645 171.518H165.094C169.006 171.518 172.176 168.355 172.176 164.436V55.2064C172.177 54.2759 171.994 53.3544 171.639 52.4944C171.283 51.6345 170.762 50.853 170.104 50.1948C169.446 49.5365 168.666 49.0143 167.806 48.658C166.946 48.3017 166.025 48.1183 165.094 48.1183H55.8645C54.9345 48.1183 54.0137 48.3014 53.1546 48.6573C52.2954 49.0132 51.5148 49.5348 50.8573 50.1923C50.1997 50.8499 49.6781 51.6305 49.3222 52.4897C48.9664 53.3488 48.7832 54.2696 48.7832 55.1995V55.2064ZM150.554 156.984H70.2538C69.3233 156.985 68.4018 156.802 67.5418 156.447C66.6819 156.091 65.9005 155.57 65.2422 154.912C64.5839 154.255 64.0617 153.474 63.7054 152.614C63.3491 151.755 63.1657 150.833 63.1657 149.903V69.6027C63.1648 68.6716 63.3475 67.7495 63.7034 66.8891C64.0593 66.0287 64.5814 65.247 65.2397 64.5886C65.8981 63.9302 66.6799 63.4081 67.5403 63.0522C68.4006 62.6964 69.3227 62.5136 70.2538 62.5145H150.554C154.473 62.5145 157.635 65.6839 157.635 69.5958V149.896C157.635 153.815 154.473 156.984 150.554 156.984Z" fill="white"/>
<path d="M101.789 132.747H147.212V146.703H101.789V132.747Z" fill="white"/>
</g>
<defs>
<clipPath id="clip0_2_19843">
<rect width="220" height="220" fill="white" transform="translate(0.5)"/>
</clipPath>
</defs>
</svg>
