<svg width="221" height="220" viewBox="0 0 221 220" fill="none" xmlns="http://www.w3.org/2000/svg">
<g clip-path="url(#clip0_2_19839)">
<path d="M110.5 220C171.251 220 220.5 170.751 220.5 110C220.5 49.2487 171.251 0 110.5 0C49.7487 0 0.5 49.2487 0.5 110C0.5 170.751 49.7487 220 110.5 220Z" fill="#1061E3"/>
<path fill-rule="evenodd" clip-rule="evenodd" d="M167.431 143.459C168.009 149.378 166.16 155.222 160.433 159.017C157.69 160.839 154.63 161.561 151.344 161.561C124.119 161.547 96.894 161.554 69.669 161.547C69.0728 161.547 68.4768 161.531 67.8815 161.499C61.914 161.176 56.2765 156.851 54.3515 151.207C53.499 148.711 53.3683 146.154 53.4715 143.459H70.0402C71.6352 143.452 72.694 142.29 72.3365 140.84C72.1495 140.277 71.8203 139.773 71.3808 139.375C64.6227 132.624 57.844 125.9 51.0721 119.163L44.8708 112.989C42.5402 110.686 41.4196 107.901 41.8321 104.656C42.0383 103.061 42.554 101.494 43.0696 99.954C45.9635 91.2308 50.56 83.1688 56.5927 76.2352C65.138 66.2908 76.284 58.9229 88.7815 54.9571C96.9172 52.2942 105.48 51.1818 114.026 51.6777C134.211 52.8877 151.021 61.0965 164.345 76.2283C171.161 83.9666 176.122 93.1579 178.851 103.103C179.882 106.808 178.906 110.143 176.163 112.872C171.006 118.015 165.809 123.116 160.632 128.238C156.83 131.998 153.035 135.773 149.24 139.547C147.989 140.785 148.113 142.435 149.543 143.17C149.955 143.376 150.471 143.445 150.938 143.445C156.163 143.466 161.395 143.459 166.627 143.459H167.431ZM58.5383 147.171C58.614 149.385 59.2052 151.351 60.4977 153.07C62.6427 155.93 65.5371 157.278 69.1258 157.271H151.818C152.141 157.271 152.465 157.257 152.781 157.236C154.304 157.178 155.792 156.77 157.131 156.042C158.471 155.315 159.624 154.288 160.501 153.043C161.78 151.324 162.378 149.358 162.413 147.178L58.5383 147.171ZM129.131 93.9108C129.33 94.0415 129.475 94.1171 129.591 94.2065C136.384 99.2665 140.688 105.894 142.324 114.192C143.218 118.702 143.094 123.198 142.035 127.674C141.07 131.74 139.319 135.577 136.879 138.97C136.649 139.258 136.488 139.594 136.407 139.954C136.326 140.314 136.328 140.687 136.411 141.046C136.886 142.916 139.01 143.521 140.413 142.153C142.475 140.152 144.49 138.11 146.531 136.089C154.754 127.908 162.976 119.733 171.206 111.566C172.993 109.792 173.777 107.675 173.337 105.2C173.138 104.127 172.753 103.082 172.388 102.051C169.719 94.3026 165.796 87.0448 160.776 80.5665C156.936 75.5947 152.371 71.2284 147.233 67.614C146.971 67.4258 146.789 67.146 146.724 66.8302C146.649 66.101 146.403 65.3996 146.008 64.7823C145.612 64.1651 145.077 63.6492 144.446 63.2762C143.815 62.9031 143.105 62.6832 142.374 62.6342C141.642 62.5852 140.909 62.7084 140.234 62.994C139.954 63.1048 139.643 63.1073 139.361 63.0008C132.114 59.5514 124.272 57.5255 116.261 57.0333C109.893 56.5548 103.491 56.9154 97.2171 58.1058C91.9753 59.1045 86.8862 60.7824 82.0783 63.0971C81.895 63.2014 81.6877 63.2562 81.4768 63.2562C81.2659 63.2562 81.0586 63.2014 80.8752 63.0971C80.1873 62.7582 79.4253 62.5976 78.6591 62.6299C77.893 62.6622 77.1472 62.8864 76.4903 63.282C75.8333 63.6775 75.2862 64.2317 74.8992 64.8937C74.5122 65.5557 74.2976 66.3043 74.2752 67.0708C74.2752 67.4833 74.124 67.724 73.8077 67.9715C71.704 69.6421 69.5177 71.2302 67.5515 73.0521C58.3115 81.6115 52.0277 92.0546 47.9921 103.9C46.9746 106.898 47.6483 109.469 49.8827 111.69L74.3577 136.02C76.4065 138.062 78.4483 140.104 80.5177 142.132C81.7071 143.301 83.5015 143.095 84.2783 141.713C84.8077 140.757 84.6771 139.815 84.0515 138.935C80.7619 134.382 78.7406 129.037 78.194 123.446C77.7149 118.85 78.2548 114.204 79.7752 109.84C80.119 108.843 80.5452 107.867 80.9508 106.836L90.6583 112.542C88.6434 117.416 88.4988 122.861 90.2523 127.835C92.0057 132.809 95.5337 136.96 100.16 139.492C104.527 141.884 109.589 142.686 114.482 141.76C119.374 140.835 123.794 138.24 126.986 134.418C130.148 130.658 131.826 126.292 131.922 121.376C132.06 114.048 129.028 108.204 123.328 103.653L129.131 93.9108ZM161.203 114.811C161.024 113.67 160.859 112.618 160.68 111.566C160.018 107.683 158.882 103.897 157.298 100.291C157.126 99.8783 157.085 99.5621 157.291 99.1358C157.562 98.5638 157.711 97.9416 157.729 97.3087C157.747 96.6759 157.633 96.0462 157.394 95.4598C157.156 94.8734 156.798 94.343 156.343 93.9024C155.889 93.4617 155.348 93.1204 154.754 92.9002C154.172 92.6804 153.552 92.5795 152.93 92.6035C152.308 92.6275 151.697 92.7759 151.134 93.04C150.571 93.304 150.066 93.6784 149.65 94.1409C149.234 94.6034 148.914 95.1447 148.711 95.7327C148.508 96.3206 148.429 96.9438 148.478 97.5637C148.526 98.1836 148.702 98.7869 148.993 99.3361C149.284 99.8854 149.685 100.369 150.171 100.757C150.658 101.144 151.218 101.428 151.818 101.59C152.144 101.652 152.447 101.8 152.696 102.019C152.945 102.238 153.131 102.52 153.235 102.835C155.325 107.956 156.486 113.264 156.651 118.785C156.665 119.114 156.557 119.437 156.349 119.692C153.207 122.855 150.038 125.99 146.882 129.131C146.772 129.235 146.641 129.317 146.593 129.365C149.605 114.446 145.94 101.515 133.957 91.7796C121.506 81.6733 107.633 80.8965 93.0646 87.469L88.6165 79.7896C90.2046 79.0815 91.7308 78.3458 93.2915 77.6996C97.3111 76.0947 101.533 75.0536 105.838 74.6058C106.395 74.544 106.801 74.6333 107.234 75.0733C107.66 75.512 108.17 75.8601 108.733 76.0967C109.297 76.3334 109.903 76.4537 110.514 76.4505C111.125 76.4473 111.729 76.3206 112.29 76.078C112.852 75.8355 113.358 75.482 113.779 75.039C113.924 74.8696 114.11 74.7402 114.32 74.6631C114.529 74.5861 114.755 74.564 114.975 74.599C125.515 75.7402 134.658 79.879 142.372 87.1183C142.991 87.7027 143.575 88.3146 144.173 88.9196C145.239 89.9921 146.415 90.0196 147.501 88.9746L154.726 81.9827L155.4 81.3433C156.266 82.4433 157.14 83.5021 157.951 84.6021C162.646 90.9496 166.247 98.0367 168.607 105.571C168.772 106.014 168.8 106.496 168.688 106.956C168.577 107.415 168.331 107.83 167.981 108.149L161.629 114.467C161.519 114.57 161.388 114.653 161.203 114.811ZM152.499 78.3046L146.325 84.279C146.14 84.1208 145.968 83.9765 145.81 83.8252C139.382 77.6404 131.427 73.2748 122.758 71.1752C120.331 70.584 117.821 70.309 115.353 69.9102C114.92 69.8415 114.625 69.7521 114.356 69.3396C113.931 68.6935 113.352 68.1634 112.671 67.7971C111.99 67.4307 111.228 67.2396 110.455 67.241C109.681 67.2423 108.92 67.4361 108.24 67.8049C107.561 68.1736 106.983 68.7058 106.56 69.3533C106.354 69.6309 106.049 69.8181 105.708 69.8758C89.799 71.6221 77.314 79.0746 68.1702 92.0958C68.0678 92.2556 67.9305 92.39 67.7685 92.4889C67.6065 92.5878 67.4241 92.6485 67.2352 92.6665C64.0315 93.189 62.4021 96.3102 63.729 99.2665C63.8332 99.5316 63.8332 99.8263 63.729 100.091C61.8052 104.476 60.5202 109.113 59.9133 113.862C59.8721 114.158 59.8102 114.446 59.7415 114.852L59.1502 114.302C57.184 112.343 55.2315 110.363 53.2377 108.431C52.3165 107.537 52.014 106.588 52.4471 105.337C57.074 92.0683 64.4302 80.7108 75.8908 72.234C76.0215 72.1377 76.159 72.0552 76.2827 71.9521C76.6952 71.5877 77.0733 71.4846 77.6852 71.6496C78.3015 71.8216 78.9468 71.8632 79.5801 71.772C80.2133 71.6808 80.8207 71.4586 81.3633 71.1197C81.906 70.7808 82.3721 70.3325 82.7319 69.8035C83.0918 69.2745 83.3375 68.6763 83.4533 68.0471C83.488 67.9125 83.5489 67.786 83.6327 67.6751C83.7165 67.5642 83.8214 67.471 83.9415 67.4008C86.9105 65.9365 90.0082 64.749 93.1952 63.8533C100.723 61.7152 108.41 61.1583 116.178 61.7152C123.334 62.1692 130.342 63.9601 136.838 66.9952C137.25 67.1877 137.456 67.4077 137.525 67.889C137.625 68.5843 137.882 69.2477 138.277 69.8284C138.672 70.4091 139.195 70.8917 139.805 71.2394C140.416 71.587 141.098 71.7905 141.799 71.8342C142.5 71.8779 143.201 71.7606 143.85 71.4915C144.07 71.409 144.421 71.4021 144.593 71.519C147.405 73.4577 149.99 75.6577 152.375 78.0846C152.423 78.1327 152.444 78.2015 152.499 78.3046ZM127.309 120.792C127.357 129.943 119.815 137.485 110.561 137.54C106.113 137.552 101.84 135.804 98.6757 132.676C95.5119 129.549 93.7146 125.296 93.6765 120.847C93.6352 111.683 101.163 104.161 110.438 104.113C114.886 104.088 119.161 105.83 122.325 108.956C125.489 112.082 127.282 116.337 127.309 120.785V120.792ZM74.3852 129.482L70.0402 125.116C68.2527 123.329 66.4515 121.569 64.6777 119.768C64.4472 119.533 64.3103 119.223 64.2927 118.895C64.457 113.209 65.6884 107.605 67.9227 102.374C67.9799 102.204 68.0826 102.054 68.2196 101.939C68.3566 101.823 68.5227 101.748 68.6996 101.721C71.7865 100.999 73.2233 98.304 72.1302 95.3615C72.0615 95.1552 72.0615 94.8458 72.1646 94.674C75.543 89.6768 79.8802 85.4003 84.9246 82.0927C84.9452 82.079 84.9658 82.079 85.0621 82.0515L86.884 85.159L90.7065 91.759C91.4765 93.1065 92.4802 93.4021 93.8071 92.5977C97.2751 90.4947 101.118 89.0845 105.123 88.4452C112.009 87.2802 119.087 88.3727 125.301 91.5596C125.363 91.594 125.411 91.6421 125.535 91.7383L119.767 101.411C108.87 97.3208 99.864 99.7615 92.5902 108.816L82.9171 103.13C83.7833 101.968 84.6083 100.848 85.454 99.7477C85.7977 99.294 86.1965 98.8815 86.5815 98.4552C87.1727 97.7952 87.1727 97.424 86.5677 96.8052C86.0354 96.265 85.4992 95.7287 84.959 95.1965C84.2302 94.4815 83.8727 94.4815 83.1852 95.224C80.2519 98.3634 77.8965 101.997 76.2277 105.956C73.862 111.502 72.9213 117.553 73.4915 123.556C73.6702 125.481 74.0621 127.385 74.3852 129.482ZM110.465 74.4133C109.783 74.3992 109.132 74.1214 108.651 73.6382C108.169 73.1549 107.893 72.5038 107.88 71.8215C107.903 71.1397 108.187 70.4927 108.673 70.0142C109.159 69.5357 109.811 69.2622 110.493 69.2502C111.175 69.2661 111.825 69.5457 112.305 70.0302C112.786 70.5147 113.06 71.1665 113.071 71.849C113.057 72.5324 112.776 73.1832 112.29 73.6634C111.803 74.1435 111.149 74.415 110.465 74.4202V74.4133ZM78.8402 64.6921C79.1798 64.6829 79.5179 64.7414 79.8347 64.864C80.1516 64.9866 80.4409 65.171 80.6859 65.4064C80.9309 65.6418 81.1267 65.9235 81.2618 66.2352C81.397 66.5469 81.4689 66.8824 81.4733 67.2221C81.4733 67.9113 81.1995 68.5723 80.7122 69.0597C80.2248 69.547 79.5638 69.8208 78.8746 69.8208C78.1854 69.8208 77.5244 69.547 77.037 69.0597C76.5496 68.5723 76.2758 67.9113 76.2758 67.2221C76.2831 66.5474 76.5567 65.9029 77.037 65.429C77.5173 64.9551 78.1655 64.6902 78.8402 64.6921ZM153.097 99.7546C152.442 99.7273 151.822 99.4495 151.366 98.9784C150.91 98.5074 150.652 97.8791 150.646 97.2234C150.64 96.5677 150.886 95.9347 151.333 95.4551C151.78 94.9755 152.394 94.6861 153.049 94.6465C153.384 94.6433 153.717 94.7062 154.028 94.8317C154.339 94.9571 154.623 95.1426 154.862 95.3775C155.101 95.6124 155.292 95.8922 155.423 96.2009C155.555 96.5096 155.624 96.8411 155.627 97.1765C155.63 97.5119 155.567 97.8446 155.442 98.1557C155.316 98.4668 155.131 98.7501 154.896 98.9895C154.661 99.2289 154.381 99.4197 154.073 99.551C153.764 99.6822 153.432 99.7514 153.097 99.7546ZM142.076 64.6921C143.541 64.6921 144.655 65.7921 144.648 67.2496C144.646 67.9225 144.378 68.5674 143.903 69.0439C143.428 69.5203 142.784 69.7897 142.111 69.7933C141.772 69.7988 141.435 69.7372 141.121 69.6122C140.806 69.4871 140.518 69.301 140.276 69.0646C140.033 68.8283 139.839 68.5462 139.706 68.2347C139.572 67.9232 139.502 67.5884 139.498 67.2496C139.494 66.9104 139.557 66.5737 139.685 66.2595C139.813 65.9454 140.003 65.6602 140.244 65.421C140.484 65.1818 140.771 64.9933 141.085 64.8669C141.4 64.7405 141.737 64.6787 142.076 64.6852V64.6921ZM70.4527 97.1971C70.4546 97.5358 70.3888 97.8715 70.2592 98.1844C70.1296 98.4973 69.9388 98.7812 69.6981 99.0195C69.4573 99.2577 69.1713 99.4454 68.857 99.5717C68.5427 99.6979 68.2064 99.7601 67.8677 99.7546C67.5285 99.7593 67.1918 99.6957 66.8777 99.5676C66.5635 99.4395 66.2784 99.2495 66.0391 99.009C65.7999 98.7685 65.6115 98.4823 65.4851 98.1675C65.3587 97.8527 65.2969 97.5156 65.3033 97.1765C65.307 96.503 65.5775 95.8585 66.0557 95.3842C66.5338 94.9099 67.1805 94.6446 67.854 94.6465C68.1929 94.6401 68.5298 94.7013 68.8448 94.8266C69.1599 94.9519 69.4468 95.1388 69.6887 95.3763C69.9307 95.6138 70.1229 95.8971 70.2541 96.2098C70.3852 96.5224 70.4528 96.858 70.4527 97.1971Z" fill="white"/>
</g>
<defs>
<clipPath id="clip0_2_19839">
<rect width="220" height="220" fill="white" transform="translate(0.5)"/>
</clipPath>
</defs>
</svg>
