<svg width="221" height="220" viewBox="0 0 221 220" fill="none" xmlns="http://www.w3.org/2000/svg">
<g clip-path="url(#clip0_2_19834)">
<path d="M110.5 220C171.251 220 220.5 170.751 220.5 110C220.5 49.2487 171.251 0 110.5 0C49.7487 0 0.5 49.2487 0.5 110C0.5 170.751 49.7487 220 110.5 220Z" fill="#1A53F0"/>
<path d="M137.12 78C136.5 78 135.94 77.84 135.43 77.84C126.56 77.84 117.68 77.84 108.81 77.78C106.95 77.78 106.33 78.34 106.33 80.19C106.39 90.47 106.45 100.75 106.33 110.98C106.33 112.98 107.12 113.51 108.98 113.51C118.86 113.51 128.75 113.67 138.63 113.51C141.39 113.45 142.34 114.51 142.34 116.99V132.94C142.34 136.09 139.7 134.4 138.24 135.36C138.13 136.36 137.96 137.49 137.79 139.01H86.4999C83.8599 139.01 81.2699 139.29 82.3999 135.19C80.9899 135.02 80.0399 134.91 78.7399 134.79V80.65C79.9799 80.48 81.1599 80.37 82.5099 80.2V64.64H66.8999V80.14C67.5042 80.3193 68.1297 80.4168 68.7599 80.43C70.1599 80.37 70.7599 80.87 70.7599 82.43C70.6999 89.51 70.7599 96.64 70.6499 103.72C70.6499 104.4 69.6499 105.63 69.0699 105.63C57.4999 105.69 45.9299 105.63 34.3599 105.57C34.0974 105.509 33.8494 105.396 33.6299 105.24C33.8499 68.67 68.0099 33.24 106.37 32.94V36.48C106.37 46.2 106.48 55.92 106.37 65.58C106.37 68.05 107.16 68.78 109.57 68.78C117.77 68.6667 125.99 68.6667 134.23 68.78C136.37 68.78 137.66 68.39 137.38 65.92C137.15 64.01 138.28 63.56 139.96 63.61C144.06 63.73 148.16 63.84 152.26 63.84C154.17 63.84 154.9 64.51 154.85 66.48C154.74 71.25 154.74 76.03 154.85 80.75C154.85 82.75 154.01 83.05 152.32 82.99C148.32 82.88 144.32 82.82 140.32 82.99C137.85 83.11 136.84 82.26 137.32 79.79C137.354 79.1863 137.286 78.5813 137.12 78Z" fill="white"/>
<path d="M137.9 146.65C138.02 148.11 138.07 149.29 138.18 150.65H153.74V135C149.48 135.9 149.93 133 149.98 130.34C150.04 125.56 150.04 120.79 149.98 116.07C149.98 114.27 150.49 113.54 152.34 113.54C163.24 113.6 174.19 113.6 185.09 113.54C188.4 113.54 187.39 115.9 187.22 117.47C186.125 128.534 182.557 139.21 176.78 148.71C163.52 170.28 144.25 182.71 119.2 186.34C118.75 186.4 118.2 186.4 117.79 186.45C114.31 186.57 114.37 186.57 114.37 183.08C114.417 172.067 114.417 161.067 114.37 150.08C114.37 147.44 114.93 146.26 117.96 146.43C123.36 146.71 128.8 146.49 134.2 146.49C135.43 146.48 136.61 146.6 137.9 146.65Z" fill="white"/>
<path d="M66.5004 150.7H82.1804C82.1588 149.936 82.2739 149.174 82.5203 148.45C83.0203 147.67 83.8703 146.6 84.6003 146.6C91.2203 146.433 97.847 146.433 104.48 146.6C104.905 146.711 105.293 146.929 105.609 147.234C105.924 147.539 106.155 147.92 106.28 148.34C106.327 160.747 106.327 173.16 106.28 185.58C106.157 186.108 105.969 186.618 105.72 187.1C100.32 186.03 94.6503 185.41 89.3103 183.73C61.9003 175.19 44.1504 156.93 35.9504 129.47C34.6004 125.14 34.2704 120.53 33.5004 116C33.1604 114.15 33.8404 113.3 35.9104 113.36C46.7604 113.47 57.5403 113.53 68.3803 113.47C70.3803 113.47 70.9704 114.2 70.9104 116.11C70.8004 120.66 70.8503 125.27 70.8503 129.82C70.8503 134.37 70.8503 134.37 66.5303 135.15L66.5004 150.7Z" fill="white"/>
</g>
<defs>
<clipPath id="clip0_2_19834">
<rect width="220" height="220" fill="white" transform="translate(0.5)"/>
</clipPath>
</defs>
</svg>
