<svg width="221" height="220" viewBox="0 0 221 220" fill="none" xmlns="http://www.w3.org/2000/svg">
<g clip-path="url(#clip0_2_19828)">
<path d="M110.5 220C171.251 220 220.5 170.751 220.5 110C220.5 49.2487 171.251 0 110.5 0C49.7487 0 0.5 49.2487 0.5 110C0.5 170.751 49.7487 220 110.5 220Z" fill="#015CC6"/>
<path d="M105.439 23.5123V113.534C105.439 115.106 105.439 115.106 107.012 115.106H143.837C144.285 115.106 144.733 115.106 145.189 115.106C145.645 115.106 145.637 115.279 145.637 115.609C145.637 117.08 145.637 118.543 145.637 120.005V138.248C145.637 138.524 145.637 138.807 145.637 139.09C145.637 139.821 145.37 140.096 144.67 140.104C143.491 140.104 142.311 140.104 141.124 140.104C140.691 140.104 140.55 140.222 140.557 140.67C140.557 141.85 140.557 143.029 140.557 144.217C140.557 144.917 140.282 145.153 139.551 145.184H138.702C119.897 145.184 101.093 145.184 82.289 145.184C80.5433 145.184 80.3546 145.184 80.4175 143.368C80.4175 142.471 80.4175 141.567 80.4175 140.663C80.4175 140.23 80.2995 140.081 79.8592 140.096C78.7268 140.096 77.6024 140.096 76.4779 140.096C75.5421 140.096 75.3613 139.884 75.3377 138.909C75.3377 138.516 75.3377 138.123 75.3377 137.729C75.3377 119.093 75.3377 100.459 75.3377 81.828C75.3377 80.0744 75.3377 79.8857 77.1541 79.9486C78.1056 79.9486 79.065 79.9486 80.0243 79.9486C80.158 79.9486 80.3467 79.7284 80.4018 79.5711C80.4335 79.3495 80.4335 79.1244 80.4018 78.9027V60.8167C80.4018 60.0304 80.5512 60.0304 79.6154 60.0304C73.4819 60.0304 67.3405 60.0304 61.207 60.0304C60.57 60.0304 60.4835 60.2191 60.4835 60.8167C60.4835 66.9502 60.4835 73.0838 60.4835 79.2251C60.4835 80.0115 60.4835 80.0115 61.3171 80.0115H64.3524C65.5398 80.0115 65.5476 80.0115 65.5476 81.1124V103.916C65.5358 104.142 65.5358 104.367 65.5476 104.593C65.5476 104.994 65.3432 105.041 65.0208 105.025C64.6984 105.01 64.2344 105.025 63.8413 105.025H24.0127V101.227C24.1071 101.227 24.2879 101.149 24.2879 101.109C24.2879 99.9061 24.7519 98.7502 24.744 97.5549C24.744 96.7214 25.1214 95.8721 25.0271 94.9993C25.7191 94.5196 25.0271 93.6782 25.4989 93.175C25.9707 92.6717 25.4989 91.8067 25.9943 91.1619C26.3482 90.7294 26.2302 89.9352 26.3875 89.314C26.6548 88.1974 26.93 87.0729 27.2839 85.972C27.8737 84.1398 28.432 82.2919 29.0611 80.4676C29.7845 78.3523 30.7517 76.3314 31.5695 74.2554C31.9312 73.3354 32.4345 72.4783 32.8748 71.5897C33.3152 70.7011 33.7241 69.7968 34.188 68.924C34.8202 67.6045 35.5428 66.3302 36.3505 65.1102C38.0254 62.8298 39.4959 60.3921 41.163 58.1274C42.9679 55.6855 44.908 53.3464 46.9741 51.121C49.7438 48.092 52.7435 45.2816 55.9463 42.715C57.2595 41.6848 58.5727 40.6705 59.9567 39.7347C62.3708 38.0991 64.7691 36.4556 67.2304 34.8908C68.538 34.0237 69.9225 33.2788 71.3666 32.6654C73.301 31.8791 75.1254 30.8883 77.0362 30.0705C78.8133 29.2841 80.7084 28.8752 82.3834 27.908C84.2706 27.8451 85.9062 26.87 87.7069 26.4533C89.7908 25.9736 91.8667 25.3288 93.9977 24.9278C95.773 24.4331 97.6045 24.1688 99.4471 24.1414C99.7853 24.1414 100.131 23.9055 100.485 23.8269C100.839 23.7482 101.303 23.7404 101.728 23.6775C101.732 23.6225 101.732 23.5673 101.728 23.5123H105.439Z" fill="white"/>
<path d="M24.0127 115.083H63.8806C64.2738 115.083 64.6669 115.083 65.0601 115.083C65.4533 115.083 65.6027 115.083 65.5791 115.523C65.5791 115.798 65.5791 116.081 65.5791 116.364V138.83C65.5673 139.001 65.5673 139.171 65.5791 139.342C65.6499 139.884 65.5791 140.128 64.8714 140.128C63.5818 140.057 62.2843 140.128 60.9868 140.128C60.6408 140.128 60.4836 140.222 60.4993 140.6C60.4993 141.213 60.4993 141.834 60.4993 142.455C60.4993 148.028 60.4993 153.603 60.4993 159.181C60.4993 160.164 60.4128 160.078 61.3957 160.078H79.639C80.4254 160.078 80.4254 160.078 80.4254 159.291C80.4254 158.104 80.4804 156.932 80.4254 155.745C80.4254 155.068 80.6534 155.029 81.2117 155.029C89.0437 155.029 96.8705 155.029 104.692 155.029C105.478 155.029 105.478 155.029 105.478 155.878C105.478 169.446 105.478 183.015 105.478 196.588H101.728C101.728 196.493 101.649 196.312 101.61 196.312C100.406 196.312 99.2505 195.707 98.0553 195.904C97.8508 195.904 97.5442 195.904 97.4341 195.809C97.0488 195.416 96.5848 195.652 96.1681 195.565C95.7513 195.479 95.3817 195.306 94.9571 195.243C94.0426 195.184 93.1333 195.061 92.2363 194.873C89.7829 194.087 87.243 193.686 84.8053 192.86C83.0832 192.271 81.3218 191.767 79.6154 191.13C77.097 190.147 74.6322 189.032 72.2316 187.788C69.3971 186.417 66.6595 184.854 64.0378 183.11C61.6788 181.537 59.3198 180.027 57.1101 178.226C55.1678 176.654 53.1784 175.081 51.3776 173.398C48.5488 170.825 45.9444 168.016 43.5928 165C42.5863 163.648 41.336 162.468 40.4474 161.068C38.4501 158.088 36.4056 155.139 34.7149 151.978C33.1108 148.99 31.6377 145.944 30.2956 142.841C29.9654 142.054 29.7373 141.268 29.4542 140.482C28.484 137.949 27.6493 135.366 26.9536 132.744C26.5369 130.998 26.0336 129.284 25.7033 127.515C25.5461 126.728 25.664 125.785 25.3259 125.156C24.9878 124.527 25.3259 123.835 24.9327 123.284C24.5395 122.734 24.799 121.924 24.6811 121.287C24.5317 120.453 24.3508 119.628 24.1778 118.794C24.1229 118.79 24.0677 118.79 24.0127 118.794V115.083Z" fill="white"/>
<path d="M115.583 196.509V156.641C115.583 156.248 115.583 155.855 115.583 155.462C115.583 155.068 115.583 154.919 116.023 154.943C116.299 154.943 116.582 154.943 116.865 154.943H139.331C139.501 154.954 139.672 154.954 139.842 154.943C140.384 154.872 140.628 154.943 140.628 155.65C140.557 156.94 140.628 158.237 140.628 159.535C140.628 159.881 140.723 160.038 141.1 160.022C141.713 160.022 142.335 160.022 142.956 160.022H159.681C160.664 160.022 160.578 160.109 160.578 159.126C160.578 153.04 160.578 146.961 160.578 140.883C160.578 140.096 160.578 140.096 159.792 140.096C158.604 140.096 157.432 140.041 156.245 140.096C155.569 140.096 155.53 139.868 155.53 139.31C155.53 131.478 155.53 123.651 155.53 115.83C155.53 115.043 155.53 115.043 156.379 115.043C169.946 115.043 183.516 115.043 197.088 115.043V118.755C196.994 118.755 196.813 118.834 196.813 118.873C196.813 120.076 196.207 121.232 196.404 122.427C196.417 122.642 196.39 122.858 196.325 123.064C196.044 123.975 195.844 124.909 195.728 125.856C195.698 126.716 195.571 127.571 195.35 128.403C194.918 129.756 194.627 131.14 194.289 132.516C193.951 133.892 193.463 135.205 193.03 136.55C191.921 140.073 190.568 143.515 188.981 146.851C187.571 149.94 185.95 152.927 184.129 155.792C182.484 158.428 180.686 160.964 178.743 163.388C177.351 165.032 176.053 166.801 174.591 168.374C171.822 171.448 168.8 174.283 165.555 176.85C163.597 178.368 161.702 179.996 159.65 181.356C157.31 182.981 154.891 184.488 152.4 185.87C149.427 187.442 146.369 188.937 143.27 190.297C142.617 190.608 141.941 190.871 141.249 191.083C138.104 191.87 135.124 193.183 131.947 193.906C129.525 194.457 127.103 194.96 124.681 195.479C124.06 195.613 123.431 195.731 122.794 195.809C121.559 195.959 120.317 196.077 119.082 196.218C119.027 196.218 118.996 196.399 118.956 196.493L115.583 196.509Z" fill="white"/>
<path d="M142.256 52.5924C142.256 56.8151 142.256 61.0378 142.256 65.2605C142.256 65.7637 142.374 65.921 142.901 65.921C147.462 65.921 152.022 65.921 156.575 65.921H157.763C158.172 65.921 158.258 66.2041 158.101 66.4557C157.621 67.2421 157.102 67.9734 156.528 68.689C154.955 70.7728 153.485 72.9667 151.897 75.0584C150.308 77.1501 149.081 79.1867 147.635 81.2155C146.298 83.0949 144.882 84.9192 143.522 86.7828C142.736 87.8995 141.949 89.0475 141.163 90.1799L137.947 94.7564C136.075 97.4143 134.062 99.9778 132.324 102.73C132.186 102.907 132.027 103.068 131.853 103.21C131.782 103.28 131.695 103.343 131.617 103.414C131.562 103.32 131.475 103.233 131.467 103.139C131.467 102.691 131.467 102.235 131.467 101.786V77.6062C131.467 76.6783 131.617 76.7019 130.579 76.7019H116.873C116.538 76.7335 116.201 76.7335 115.866 76.7019C115.784 76.6588 115.714 76.5947 115.664 76.5159C115.614 76.4372 115.586 76.3467 115.583 76.2536C115.618 75.9932 115.73 75.7493 115.905 75.5538C117.478 73.8946 118.524 71.8815 119.939 70.1201C120.804 69.0428 121.512 67.8633 122.338 66.731C123.454 65.1583 124.587 63.5856 125.68 62.0129C127.496 59.3865 129.336 56.7679 131.184 54.1494C133.032 51.5308 134.951 48.8022 136.964 46.2151C138.489 44.2571 139.795 42.1104 141.202 40.0501C141.445 39.721 141.759 39.4519 142.122 39.2638C142.166 39.4152 142.195 39.5706 142.209 39.7277C142.209 42.653 142.209 45.586 142.209 48.5113L142.256 52.5924Z" fill="white"/>
</g>
<defs>
<clipPath id="clip0_2_19828">
<rect width="220" height="220" fill="white" transform="translate(0.5)"/>
</clipPath>
</defs>
</svg>
