<svg width="221" height="220" viewBox="0 0 221 220" fill="none" xmlns="http://www.w3.org/2000/svg">
<g clip-path="url(#clip0_2_19824)">
<path d="M110.5 220C171.251 220 220.5 170.751 220.5 110C220.5 49.2487 171.251 0 110.5 0C49.7487 0 0.5 49.2487 0.5 110C0.5 170.751 49.7487 220 110.5 220Z" fill="#22B573"/>
<path d="M105.138 184.275C111.167 184.618 118.324 184.261 123.466 183.347C134.624 181.422 146.071 176.437 155.463 169.411C159.677 166.242 166.902 159.016 170.038 154.836C177.105 145.403 181.759 134.85 184.166 122.73C185.053 118.144 185.169 102.332 184.372 97.6359C179.951 72.7828 164.778 52.5497 142.537 41.8728C141.951 41.5923 141.362 41.3173 140.771 41.0478L143.658 51.3053C145.308 57.0047 148.677 69.0084 151.207 77.9184C157.91 101.486 157.834 101.087 158.075 107.068C158.192 110.197 158.116 113.689 157.834 115.82C154.981 137.215 138 154.155 116.516 157.05C112.143 157.648 104.759 157.373 100.628 156.486C99.1012 156.122 97.7744 155.922 97.6506 156.005C97.5337 156.163 104.154 180.053 105.199 183.264C105.419 183.924 105.495 184.185 105.131 184.275H105.138ZM80.525 178.273C80.4775 178.238 80.4316 178.202 80.3875 178.163C80.1469 177.888 78.3044 172.023 76.3312 165.08C74.3719 158.136 70.7144 145.28 68.2669 136.576C65.7781 127.865 63.5231 119.354 63.2069 117.704C62.5675 114.095 62.485 105.659 63.09 102.05C63.846 97.6059 65.1965 93.284 67.105 89.2003C73.8081 75.1478 85.6125 65.8734 101.184 62.4634C105.399 61.5422 115.154 61.5422 119.41 62.4634C121.136 62.8691 122.71 63.0272 122.868 62.8278C123.026 62.6628 121.376 56.2828 119.211 48.6516C117.872 44.0775 116.606 39.4821 115.416 34.8672C113.949 34.8491 112.482 34.8422 111.016 34.8466C102.071 34.8053 99.7819 35.0459 92.8725 36.6478C77.94 40.1403 63.4888 49.0572 53.4925 60.8203C36.91 80.3316 31.3344 106.952 38.7181 131.152C41.4062 140.068 44.7406 146.613 50.3231 154.197C58.1345 164.703 68.5418 173 80.525 178.273ZM98.2144 191.37C96.0488 191.053 93.9587 190.689 93.6012 190.531C92.3272 190.154 91.0408 189.819 89.7444 189.527C76.9775 186.433 63.4131 178.85 53.2519 169.129C45.5037 161.704 37.7556 150.463 34.5038 141.993C34.0638 140.907 33.5413 139.622 33.335 139.182C32.2556 136.892 30.3306 130.189 29.2444 124.772C28.0756 119.113 28 118.103 28 109.873C28 104.82 28.2063 100.001 28.44 98.6328C28.7219 97.3128 29.2444 94.3772 29.6844 92.1703C30.09 89.9222 30.6881 87.6741 30.97 87.1516C31.1587 86.856 31.2958 86.5305 31.3756 86.1891C31.1694 86.1891 33.0187 80.2078 33.3419 79.7678C33.5 79.5616 33.9812 78.4822 34.38 77.3616C35.0675 75.4709 37.3156 70.8991 38.1613 69.5241C38.395 69.2078 39.44 67.4409 40.5262 65.6328C41.6469 63.7903 42.7331 62.0578 42.9325 61.8241C43.1731 61.5422 44.5 59.8578 45.8681 58.0909C57.8306 42.8697 76.015 31.8697 95.1619 28.3016C100.827 27.2153 120.132 27.2566 125.872 28.3428C135.071 30.0616 144.868 33.8772 153.173 38.9372C157.188 41.4259 157.47 41.5909 162.008 45.2003C165.857 48.2528 172.244 54.6741 175.015 58.2903C176.101 59.7341 177.463 61.4597 178.026 62.1403C178.59 62.8691 179.071 63.5497 179.071 63.7078C179.071 63.9141 179.511 64.5947 180.034 65.2753C180.556 65.9628 181.801 68.1628 182.846 70.1291C183.849 72.1366 184.853 73.9447 185.011 74.1441C185.169 74.3847 185.932 76.0347 186.661 77.8772C192.079 91.5722 193.962 104.621 192.477 118.715C191.872 124.765 189.143 135.49 187.06 140.068C186.654 141.031 186.297 141.911 186.297 142.035C186.297 142.392 182.846 149.302 181.801 151.027C173.331 165.08 161.327 176.396 147.756 183.14C145.425 184.309 143.218 185.388 142.819 185.595C140.124 186.997 131.256 189.685 124.669 191.053C120.579 191.892 103.433 192.098 98.2144 191.37ZM116.241 133.963C124.951 131.757 132.5 124.332 134.666 115.862C135.47 112.685 135.511 106.546 134.707 103.452C131.372 90.2866 117.684 81.8922 104.801 85.1441C99.5 86.4709 96.6881 88.0316 92.955 91.7716C87.62 97.1134 85.4062 102.407 85.4475 109.873C85.4888 121.238 92.8725 130.835 103.955 133.798C107.289 134.692 113.071 134.761 116.241 133.963Z" fill="#FEFFFF"/>
</g>
<defs>
<clipPath id="clip0_2_19824">
<rect width="220" height="220" fill="white" transform="translate(0.5)"/>
</clipPath>
</defs>
</svg>
