<svg width="221" height="220" viewBox="0 0 221 220" fill="none" xmlns="http://www.w3.org/2000/svg">
<g clip-path="url(#clip0_2_19820)">
<path d="M110.5 220C171.251 220 220.5 170.751 220.5 110C220.5 49.2487 171.251 0 110.5 0C49.7487 0 0.5 49.2487 0.5 110C0.5 170.751 49.7487 220 110.5 220Z" fill="#333333"/>
<path d="M77.445 55H130.822C145.59 55.8731 161.836 61.9438 168.36 76.0375C176.521 93.9881 172.464 119.233 154.081 129.477C137.127 139.171 116.846 135.348 98.2281 136.146C97.7262 145.317 100.291 155.987 93.8969 163.742C91.3256 167.454 79.535 171.875 79.535 171.875C79.535 171.875 78.4487 161.913 78.05 139.494C77.7956 133.306 78.8063 126.363 84.1206 122.341C90.3425 116.992 99.1631 118.662 106.719 118.387C118.131 118.085 130.121 119.831 140.956 115.431C156.851 108.934 157.429 82.4037 141.41 75.7144C125.054 69.3756 106.994 75.1438 90.1912 71.6375C82.56 69.4994 79.1294 61.985 77.445 55ZM48.625 85.4563C62.5813 85.7106 76.565 84.9681 90.4938 85.8069C100.621 86.5837 107.269 95.755 108.327 105.132C94.275 105.064 80.1881 105.579 66.1287 104.961C57.4937 104.459 51.1206 97.4462 48.625 89.7119V85.4631V85.4563Z" fill="white"/>
</g>
<defs>
<clipPath id="clip0_2_19820">
<rect width="220" height="220" fill="white" transform="translate(0.5)"/>
</clipPath>
</defs>
</svg>
