<svg width="221" height="220" viewBox="0 0 221 220" fill="none" xmlns="http://www.w3.org/2000/svg">
<g clip-path="url(#clip0_2_19816)">
<path d="M110.5 220C171.251 220 220.5 170.751 220.5 110C220.5 49.2487 171.251 0 110.5 0C49.7487 0 0.5 49.2487 0.5 110C0.5 170.751 49.7487 220 110.5 220Z" fill="#1347E8"/>
<path d="M110.5 34.375C68.7344 34.375 34.875 68.2344 34.875 110C34.875 151.766 68.7344 185.625 110.5 185.625C152.266 185.625 186.125 151.766 186.125 110C186.125 68.2344 152.266 34.375 110.5 34.375ZM182.275 106.906L176.156 106.968L176.129 104.404L182.254 104.349L182.282 106.906H182.275ZM180.708 93.6856L174.637 94.5312L174.286 91.9875L180.35 91.1488L180.708 93.6925V93.6856ZM175.482 77.5844L176.541 79.9219L170.966 82.4519L169.907 80.1213L175.476 77.5844H175.482ZM167.837 65.9313L169.529 67.8563L164.923 71.8988L163.238 69.9738L167.837 65.9313ZM158.866 56.3544L160.804 58.0319L156.81 62.6656L154.864 60.995L158.866 56.3544ZM148.175 47.6988L150.32 49.0944L146.986 54.23L144.841 52.8412L148.175 47.6988ZM136.006 41.6969L138.488 42.35L136.934 48.2694L134.452 47.6163L136.013 41.7037L136.006 41.6969ZM122.634 38.4106L125.185 38.6169L124.676 44.7219L122.126 44.5087L122.634 38.4106ZM108.788 36.795H111.346V42.9206H108.788V36.795ZM97.4169 38.4106L97.9256 44.5087L95.3681 44.7288L94.8594 38.6238L97.4169 38.4106ZM84.0381 41.6969L85.5919 47.6163L83.1169 48.2694L81.5563 42.3569L84.0312 41.6969H84.0381ZM71.8763 47.6988L75.2106 52.8412L73.0588 54.23L69.7244 49.0944L71.8763 47.6988ZM61.1856 56.3612L65.18 60.995L63.2413 62.6656L59.2469 58.0319L61.1856 56.3544V56.3612ZM52.2206 65.9175L56.8269 69.96L55.1287 71.885L50.5294 67.8494L52.2206 65.9244V65.9175ZM44.5825 77.5775L50.1513 80.1144L49.0994 82.4519L43.5237 79.9081L44.5825 77.5775ZM39.7081 91.1419L45.7787 91.9806L45.4212 94.5244L39.3575 93.6788L39.7081 91.135V91.1419ZM37.8106 104.342L43.9294 104.397L43.9088 106.961L37.79 106.899L37.8106 104.342ZM38.3744 118.724L44.4656 118.106L44.72 120.649L38.6288 121.268L38.3744 118.724ZM41.145 131.746L47.1125 130.357L47.6969 132.852L41.7294 134.241L41.145 131.746ZM47.8206 147.304L46.5556 145.076L51.87 142.037L53.1419 144.265L47.8206 147.304ZM56.4969 158.214L54.6338 156.454L58.8481 152.006L60.7044 153.766L56.4969 158.214ZM66.2937 166.925L64.2106 165.44L67.765 160.449L69.8481 161.941L66.2937 166.925ZM77.7338 174.563L75.465 173.374L78.3112 167.956L80.58 169.146L77.7338 174.563ZM90.3906 179.431L87.8606 179.004L88.8713 172.968L91.4013 173.394L90.3906 179.431ZM101.452 181.507L101.404 175.381L103.969 175.354L104.017 181.479L101.452 181.507ZM46.8375 110C46.8375 74.8963 75.3963 46.3375 110.5 46.3375C145.604 46.3375 174.163 74.8963 174.163 110C174.163 145.104 145.604 173.663 110.5 173.663C75.3963 173.663 46.8375 145.104 46.8375 110ZM115.491 182.057L115.409 182.064L114.852 175.973L117.402 175.739L117.485 175.725L118.042 181.823L115.491 182.057ZM129.138 179.183L128.072 173.154L130.596 172.707L131.661 178.743L129.138 179.183ZM142.159 174.687L140.062 168.933L142.469 168.059L144.566 173.814L142.159 174.687ZM153.716 167.606L149.935 162.793L151.942 161.198L155.731 166.011L153.716 167.599V167.606ZM163.575 158.001L159.175 153.753L160.949 151.903L165.349 156.166L163.575 158.001ZM171.633 147.654L166.683 144.045L168.195 141.976L173.145 145.578L171.633 147.654ZM178.178 135.348L172.389 133.327L173.234 130.907L179.016 132.928L178.178 135.341V135.348ZM181.787 121.392L175.668 121.117L175.785 118.552L181.904 118.834L181.787 121.392ZM134.81 142.533H134.803C135.827 143.632 135.855 145.31 134.844 146.314C133.834 147.311 132.163 147.262 131.07 146.217V146.224L129.159 144.299L124.814 139.892C121.994 141.237 118.887 141.868 115.766 141.728H103.817C92.9963 142.127 83 136.723 83.8112 119.151C83.8387 118.415 83.7631 108.955 83.7631 108.206L83.7838 101.111C83.7631 83.5794 88.0462 75.6319 99.8575 72.82C101.198 72.4969 108.506 72.3388 109.902 72.3388H110.527C111.93 72.3388 118.379 72.4969 119.719 72.82C131.531 75.6319 135.814 83.5794 135.793 101.111L135.814 108.213C135.814 108.962 135.738 118.415 135.773 119.158C136.213 128.645 133.49 132.77 129.193 136.854L132.906 140.601L134.81 142.533ZM116.529 136.153C117.898 136.153 119.252 135.96 120.558 135.575L118.111 133.1L116.199 131.161C115.168 130.061 115.147 128.391 116.158 127.394C117.169 126.39 118.839 126.438 119.932 127.476L121.837 129.401L125.268 132.88C125.444 132.72 125.614 132.552 125.776 132.378C128.98 129.023 130.506 126.218 130.197 119.412C130.176 118.931 130.169 118.924 130.217 110.385L130.231 108.206L130.224 103.407C130.217 100.478 130.211 101.509 130.211 101.104C130.218 93.335 129.338 86.5838 127.447 83.5381C126.326 81.7231 124.387 79.6881 118.523 78.2719C115.866 78.0538 113.201 77.9369 110.534 77.9212H109.902C108.135 77.9212 102.223 78.1 101.068 78.2719C95.1963 79.6881 93.2575 81.7231 92.1369 83.5381C90.2463 86.5838 89.3663 93.335 89.38 101.104C89.38 101.516 89.3731 100.478 89.3662 103.407C89.3643 105.733 89.3643 108.059 89.3662 110.385C89.4144 118.924 89.4144 118.938 89.3869 119.412C89.0775 126.218 90.6106 129.023 93.8144 132.378C96.7912 135.499 100.483 136.159 103.054 136.159L103.611 136.146L103.714 136.139H115.972C116.158 136.153 116.344 136.153 116.529 136.153Z" fill="white"/>
</g>
<defs>
<clipPath id="clip0_2_19816">
<rect width="220" height="220" fill="white" transform="translate(0.5)"/>
</clipPath>
</defs>
</svg>
