<svg width="221" height="220" viewBox="0 0 221 220" fill="none" xmlns="http://www.w3.org/2000/svg">
<g clip-path="url(#clip0_2_19812)">
<path d="M110.5 220C171.251 220 220.5 170.751 220.5 110C220.5 49.2487 171.251 0 110.5 0C49.7487 0 0.5 49.2487 0.5 110C0.5 170.751 49.7487 220 110.5 220Z" fill="#FF8C00"/>
<path d="M155.806 133.684C156.157 136.441 155.373 137.507 154.5 137.507C153.627 137.507 152.403 136.441 151.097 134.31C149.791 132.179 149.261 129.772 149.962 128.535C150.396 127.731 151.358 127.373 152.492 127.82C154.761 128.714 155.634 132.172 155.806 133.684ZM143.589 139.734C146.291 142.044 147.082 144.705 145.679 146.664C145.239 147.179 144.69 147.589 144.072 147.865C143.453 148.14 142.781 148.275 142.104 148.259C140.597 148.274 139.137 147.736 138 146.747C135.559 144.616 134.858 141.061 136.426 139.109C136.76 138.695 137.188 138.366 137.675 138.149C138.161 137.933 138.692 137.835 139.224 137.864C140.619 137.864 142.194 138.483 143.589 139.727V139.734ZM48.625 102.396C48.625 68.6194 75.5063 41.25 108.671 41.25C141.843 41.25 168.724 68.6262 168.724 102.396C168.725 113.419 165.805 124.246 160.261 133.774C160.082 134.042 159.642 133.952 159.56 133.595C157.47 118.573 148.478 110.309 135.387 107.821C134.246 107.642 134.074 106.927 135.559 106.755C139.574 106.397 145.246 106.487 148.209 107.023C148.39 105.458 148.48 103.883 148.477 102.307C148.477 79.9975 130.671 61.8681 108.761 61.8681C86.8569 61.8681 69.0506 79.9975 69.0506 102.307C69.0506 124.623 86.8569 142.753 108.761 142.753H110.596C109.973 139.144 109.708 135.482 109.806 131.821C109.895 129.332 110.424 128.975 111.469 130.928C116.969 140.621 124.821 149.332 140.186 152.79C152.754 155.643 165.321 158.929 178.851 176.44C180.068 177.952 178.239 179.548 176.844 178.303C163.052 165.859 150.485 161.769 139.052 161.769C126.216 161.865 117.492 163.556 108.671 163.556C75.5063 163.556 48.625 136.166 48.625 102.389V102.396Z" fill="white"/>
</g>
<defs>
<clipPath id="clip0_2_19812">
<rect width="220" height="220" fill="white" transform="translate(0.5)"/>
</clipPath>
</defs>
</svg>
