<svg width="221" height="220" viewBox="0 0 221 220" fill="none" xmlns="http://www.w3.org/2000/svg">
<g clip-path="url(#clip0_2_19808)">
<path d="M110.5 220C171.251 220 220.5 170.751 220.5 110C220.5 49.2487 171.251 0 110.5 0C49.7487 0 0.5 49.2487 0.5 110C0.5 170.751 49.7487 220 110.5 220Z" fill="#610089"/>
<path fill-rule="evenodd" clip-rule="evenodd" d="M113.869 34.3947C149.137 36.2922 177.682 60.7672 184.688 95.3622C185.609 99.9272 185.857 104.65 186.111 109.318C186.338 113.443 183.65 116.228 179.93 116.221C176.287 116.221 173.901 113.581 173.812 109.483C173.145 79.3228 152.774 54.449 123.363 48.1584C118.963 47.2234 114.37 47.2097 109.874 46.7009C106.45 46.3159 104.182 43.6828 104.278 40.3415C104.374 37.0347 106.849 34.5734 110.3 34.4015C111.49 34.3465 112.679 34.3947 113.869 34.3947ZM107.282 185.624C73.4366 184.607 42.9942 158.949 36.5729 125.729C35.5967 120.642 35.2254 115.423 34.8885 110.247C34.6823 107.084 36.6966 104.815 39.6323 104.059C42.066 103.427 44.8985 104.465 46.136 106.782C46.7548 107.957 47.0504 109.442 47.0779 110.797C47.5798 139.699 67.1254 164.573 95.1754 171.489C100.235 172.74 105.57 172.94 110.795 173.497C113.779 173.806 116.172 175.834 116.57 178.742C116.949 181.492 115.216 184.565 112.583 185.218C110.885 185.638 109.049 185.507 107.282 185.624ZM110.39 82.4784C125.357 82.4303 137.924 94.7022 138.027 109.463C138.062 114.55 133.4 117.754 129.09 115.561C126.752 114.378 125.749 112.398 125.652 109.765C125.58 106.202 124.254 102.779 121.906 100.097C119.558 97.4161 116.339 95.6493 112.817 95.1078C104.897 93.7603 97.1967 99.1365 95.6567 107.091C94.0823 115.217 99.1698 123.13 107.09 124.842C108.176 125.076 109.29 125.207 110.39 125.268C114.075 125.461 116.66 127.998 116.632 131.456C116.605 134.962 113.834 137.561 110.08 137.595C98.2829 137.698 87.1591 129.091 83.9417 117.376C79.136 99.8791 92.281 82.5334 110.39 82.4784ZM162.33 108.308C162.193 109.477 162.241 110.941 161.815 112.247C160.921 115.025 157.965 116.633 155.077 116.166C152.073 115.671 149.935 113.21 149.9 109.841C149.852 104.712 149.02 99.7347 146.917 95.0803C139.952 79.7147 128.038 71.4715 111.139 70.674C107.007 70.4678 104.264 68.0478 104.292 64.349C104.326 60.6503 107.09 58.2372 111.284 58.2509C136.515 58.299 158.563 77.8241 161.76 102.966C161.98 104.664 162.124 106.362 162.33 108.308ZM58.786 111.477C58.4354 108.679 59.1504 105.922 62.3473 104.451C66.5548 102.505 70.9616 105.517 71.0441 110.46C71.1266 115.197 71.9379 119.755 73.6429 124.168C76.4168 131.47 81.3052 137.779 87.6832 142.288C94.0612 146.797 101.639 149.302 109.448 149.482C114.783 149.62 117.884 153.483 116.185 157.87C115.237 160.345 113.147 161.782 110.287 161.754C95.1479 161.617 82.381 155.945 72.1716 144.828C63.7622 135.737 58.9969 123.866 58.786 111.484V111.477ZM138.082 130.865C137.828 133.938 136.776 135.883 134.466 136.963C132.17 138.035 129.839 137.87 128.004 136.172C124.677 133.089 121.465 129.885 118.372 126.568C116.24 124.285 116.447 120.69 118.537 118.442C120.668 116.152 124.477 115.678 126.807 117.816C130.259 120.965 133.524 124.333 136.707 127.764C137.546 128.672 137.78 130.136 138.082 130.858V130.865Z" fill="white"/>
</g>
<defs>
<clipPath id="clip0_2_19808">
<rect width="220" height="220" fill="white" transform="translate(0.5)"/>
</clipPath>
</defs>
</svg>
