<svg width="221" height="220" viewBox="0 0 221 220" fill="none" xmlns="http://www.w3.org/2000/svg">
<g clip-path="url(#clip0_2_19804)">
<path d="M110.5 220C171.251 220 220.5 170.751 220.5 110C220.5 49.2487 171.251 0 110.5 0C49.7487 0 0.5 49.2487 0.5 110C0.5 170.751 49.7487 220 110.5 220Z" fill="#252525"/>
<path d="M176.693 145.812C177.381 145.826 178.035 146.112 178.514 146.606C178.993 147.1 179.257 147.764 179.25 148.452V161.562H136.082L135.917 150.15C135.919 149.778 136.002 149.411 136.16 149.074C136.318 148.737 136.547 148.438 136.831 148.197C137.002 147.978 137.195 147.777 137.409 147.599C156.432 134.331 163.74 109.065 154.885 87.2094C146.023 65.3538 123.452 52.9856 100.937 57.6469C78.4281 62.3013 62.2238 82.6994 62.2169 106.391C62.2031 122.581 69.9169 137.741 82.8487 146.919C83.1303 147.076 83.3597 147.313 83.5088 147.599C83.9785 147.819 84.376 148.167 84.6548 148.604C84.9337 149.042 85.0822 149.549 85.0831 150.067L84.9181 161.48H41.75V148.363C41.75 146.905 42.8981 145.722 44.3075 145.722C45.7169 145.722 46.865 146.905 46.865 148.363V156.283H79.8787L79.9612 151.346H79.8787C60.8969 137.582 52.75 112.722 59.735 89.8975C66.7406 67.0725 87.2625 51.5625 110.466 51.5625C133.669 51.5625 154.191 67.0725 161.182 89.8975C168.174 112.722 160.027 137.582 141.039 151.346L141.128 156.365H174.142V148.452C174.134 147.764 174.399 147.1 174.878 146.606C175.357 146.112 176.011 145.826 176.699 145.812H176.693ZM142.606 110.227C148.299 117.466 150.031 123.936 147.556 128.191C145.659 131.512 141.616 133.299 135.752 133.299C132.069 133.21 128.412 132.667 124.862 131.684C121.644 142.924 116.44 150.164 110.5 150.164C104.56 150.164 99.3625 142.924 96.2206 131.684C92.6707 132.667 89.0132 133.21 85.3306 133.299C79.4662 133.299 75.4237 131.512 73.5262 128.191C70.4737 122.911 73.9387 114.654 81.8587 106.226C80.6611 104.982 79.5319 103.673 78.4762 102.307C72.7838 95.0675 71.0512 88.6806 73.5262 84.2531C75.4237 80.9325 79.4662 79.145 85.3306 79.145C89.0134 79.237 92.6709 79.7819 96.2206 80.7675C99.4381 69.5269 104.642 62.2875 110.582 62.2875C116.522 62.2875 121.72 69.5269 124.862 80.85C128.412 79.8667 132.069 79.3241 135.752 79.2344C141.616 79.2344 145.659 81.0219 147.556 84.3425C150.031 88.77 148.299 95.1569 142.606 102.396C141.55 103.762 140.42 105.07 139.224 106.315C140.42 107.552 141.548 108.859 142.606 110.227ZM135.834 82.3831C132.409 82.4909 129.006 82.975 125.687 83.8269C126.574 87.8694 127.199 91.9669 127.584 96.0919C130.843 98.4981 133.957 101.117 136.914 103.929C138.069 102.733 139.141 101.454 140.131 100.265C144.834 94.215 146.566 89.0244 144.834 85.8756C143.266 82.9813 139.059 82.3831 135.834 82.3831ZM117.684 119.082C120.077 117.638 122.387 116.105 124.532 114.572C124.779 111.843 124.862 109.12 124.862 106.226C124.862 103.331 124.697 100.519 124.532 97.8794C122.304 96.3175 120.017 94.8406 117.678 93.4519C115.321 92.1094 112.927 90.8325 110.5 89.6225C108.039 90.7638 105.646 92.0425 103.323 93.4519C100.848 94.8956 98.6131 96.3463 96.4681 97.8794C96.2206 100.519 96.1381 103.331 96.1381 106.226C96.1381 109.113 96.3031 111.932 96.4681 114.572C100.928 117.703 105.619 120.49 110.5 122.911C112.961 121.77 115.354 120.491 117.678 119.082H117.684ZM124.202 118.827C122.552 119.845 120.984 120.869 119.334 121.894C117.684 122.911 116.034 123.853 114.384 124.699C117.093 125.923 119.878 126.974 122.717 127.854C123.294 125.043 123.789 122.059 124.202 118.827ZM106.787 124.699L101.837 121.894C100.188 120.869 98.5375 119.845 96.9631 118.827C97.2588 121.866 97.7537 124.878 98.4481 127.854C101.281 126.961 104.065 125.909 106.787 124.699ZM93.2506 112.097C93.152 110.141 93.097 108.184 93.0856 106.226C93.0856 104.184 93.1681 102.307 93.2506 100.347C90.8512 102.162 88.5619 104.122 86.4031 106.226C88.5756 108.309 90.865 110.275 93.2506 112.097ZM96.9631 93.7956C98.5141 92.7064 100.11 91.6833 101.748 90.7294C103.488 89.705 105.138 88.77 106.787 87.9175C104.072 86.6938 101.287 85.6488 98.4481 84.7687C97.8706 87.5737 97.3756 90.5575 96.9631 93.7956ZM114.295 87.9175C115.945 88.77 117.595 89.705 119.245 90.7294C120.895 91.7469 122.545 92.7712 124.119 93.7956C123.827 90.7568 123.331 87.7411 122.634 84.7687C119.802 85.6625 117.018 86.7075 114.295 87.9175ZM127.914 100.43C127.997 102.396 128.079 104.266 128.079 106.308C128.079 108.35 127.997 110.309 127.914 112.186C130.307 110.227 132.617 108.268 134.679 106.308C132.558 104.203 130.298 102.241 127.914 100.437V100.43ZM110.582 65.5256C106.375 65.5256 102.085 71.4863 99.2731 81.6131C103.137 82.83 106.911 84.3081 110.582 86.0337C114.249 84.3107 118.027 82.8361 121.892 81.62C119.08 71.4862 114.707 65.5256 110.582 65.5256ZM76.3312 85.8756C74.5162 89.0244 76.2487 94.3044 81.0337 100.176C82.0237 101.448 83.0963 102.637 84.2513 103.916C87.1938 101.097 90.3012 98.4844 93.5806 96.0919C93.9587 91.9669 94.5912 87.8694 95.4781 83.8338C92.1644 82.94 88.7544 82.4587 85.3306 82.3831C82.1062 82.3831 77.9812 82.9813 76.3312 85.8756ZM85.3306 130.151C88.7612 130.082 92.1712 129.566 95.4781 128.611C94.5933 124.57 93.9596 120.478 93.5806 116.359C90.26 113.994 87.1181 111.375 84.1688 108.522C77.0737 116.105 74.2687 122.911 76.3312 126.658C77.8987 129.553 82.1062 130.151 85.3306 130.151ZM110.582 147.008C114.707 147.008 119.08 141.047 121.892 130.921C118.027 129.7 114.249 128.221 110.582 126.493C106.915 128.218 103.137 129.697 99.2731 130.921C102.085 141.047 106.457 147.008 110.582 147.008ZM144.834 126.658C146.566 123.592 144.834 118.319 140.131 112.269C139.106 111.009 138.032 109.789 136.914 108.611C133.971 111.43 130.864 114.042 127.584 116.449C127.207 120.57 126.573 124.664 125.687 128.707C129.001 129.594 132.411 130.082 135.834 130.151C139.059 130.151 143.184 129.553 144.834 126.658ZM110.582 93.7956C117.251 93.7956 122.669 99.3438 122.717 106.226C122.717 113.08 117.334 118.642 110.692 118.656C104.051 118.669 98.6475 113.135 98.6131 106.281C98.5856 99.4262 103.941 93.8369 110.582 93.7956ZM110.582 115.507C115.491 115.466 119.458 111.375 119.499 106.308C119.499 101.228 115.512 97.1163 110.582 97.1163C105.653 97.1163 101.666 101.228 101.666 106.308C101.666 111.389 105.66 115.507 110.582 115.507Z" fill="white"/>
</g>
<defs>
<clipPath id="clip0_2_19804">
<rect width="220" height="220" fill="white" transform="translate(0.5)"/>
</clipPath>
</defs>
</svg>
