<svg width="221" height="220" viewBox="0 0 221 220" fill="none" xmlns="http://www.w3.org/2000/svg">
<g clip-path="url(#clip0_2_19800)">
<path d="M110.5 220C171.251 220 220.5 170.751 220.5 110C220.5 49.2487 171.251 0 110.5 0C49.7487 0 0.5 49.2487 0.5 110C0.5 170.751 49.7487 220 110.5 220Z" fill="#454545"/>
<path fill-rule="evenodd" clip-rule="evenodd" d="M79.5625 110C79.5625 92.9431 93.4431 79.0625 110.5 79.0625C127.557 79.0625 141.438 92.9431 141.438 110C141.438 114.489 140.454 118.745 138.729 122.602L118.31 102.183L102.69 117.81L123.109 138.229C119.145 140.014 114.847 140.937 110.5 140.938C102.298 140.928 94.4339 137.666 88.6339 131.866C82.834 126.066 79.5716 118.202 79.5625 110ZM160.777 110C160.786 100.289 157.967 90.7864 152.664 82.6513L172.375 62.9338L157.566 48.125L137.849 67.8425C129.97 62.7206 120.592 59.7231 110.5 59.7231C100.408 59.7231 91.03 62.7206 83.1513 67.8356L63.4338 48.125L48.625 62.9338L68.3425 82.6513C63.2206 90.53 60.2231 99.9075 60.2231 110C60.2231 120.092 63.2275 129.47 68.3425 137.349L48.625 157.066L63.4338 171.875L83.1513 152.158C91.03 157.279 100.408 160.277 110.5 160.277C120.592 160.277 129.97 157.279 137.849 152.158L157.566 171.875L172.375 157.066L152.658 137.349C157.963 129.215 160.784 119.711 160.777 110Z" fill="white"/>
</g>
<defs>
<clipPath id="clip0_2_19800">
<rect width="220" height="220" fill="white" transform="translate(0.5)"/>
</clipPath>
</defs>
</svg>
