<svg width="221" height="220" viewBox="0 0 221 220" fill="none" xmlns="http://www.w3.org/2000/svg">
<g clip-path="url(#clip0_2_19796)">
<path d="M110.5 220C171.251 220 220.5 170.751 220.5 110C220.5 49.2487 171.251 0 110.5 0C49.7487 0 0.5 49.2487 0.5 110C0.5 170.751 49.7487 220 110.5 220Z" fill="#2E9AD0"/>
<path d="M174.527 162.497L160.963 150.425L133.518 171.016C133.845 171.734 134.014 172.515 134.013 173.305C134.024 174.736 133.467 176.113 132.464 177.133C131.461 178.154 130.095 178.735 128.664 178.75C127.407 178.743 126.193 178.296 125.231 177.487C124.269 176.679 123.621 175.559 123.398 174.323H93.7664C93.5435 175.558 92.8959 176.677 91.9355 177.485C90.9751 178.294 89.7623 178.741 88.507 178.75C87.075 178.737 85.7066 178.157 84.7024 177.136C83.6982 176.115 83.1404 174.737 83.1514 173.305C83.1499 172.52 83.3163 171.744 83.6395 171.029L59.2607 152.879C58.2892 153.76 57.0246 154.248 55.7132 154.248C54.2813 154.235 52.9129 153.654 51.9087 152.633C50.9045 151.612 50.3466 150.234 50.3576 148.802C50.3576 146.74 51.4851 144.946 53.1489 144.018L44.1907 115.418C43.4411 115.484 42.6859 115.392 41.9736 115.15C41.2612 114.907 40.6075 114.518 40.0541 114.008C39.5007 113.498 39.06 112.878 38.7601 112.188C38.4602 111.498 38.3078 110.753 38.3126 110C38.3081 109.233 38.4668 108.474 38.7783 107.773C39.0898 107.073 39.5468 106.446 40.1191 105.936C40.6914 105.425 41.3658 105.042 42.0974 104.813C42.8291 104.583 43.6012 104.511 44.3626 104.603L53.1695 75.9963C52.3137 75.5218 51.6012 74.8261 51.1065 73.9819C50.6119 73.1376 50.3532 72.176 50.3576 71.1975C50.3576 68.1931 52.757 65.7525 55.7132 65.7525C57.102 65.7525 58.367 66.2888 59.3157 67.1688L83.8801 49.4313C83.4022 48.5985 83.151 47.6551 83.1514 46.695C83.1514 43.6906 85.5507 41.25 88.507 41.25C91.1195 41.25 93.2989 43.1544 93.7664 45.6775H123.398C123.621 44.4409 124.269 43.3213 125.231 42.5126C126.193 41.704 127.407 41.2573 128.664 41.25C131.62 41.25 134.013 43.6906 134.013 46.695C134.015 47.6065 133.79 48.5042 133.359 49.3075L157.766 67.2512C158.754 66.2899 160.079 65.7522 161.458 65.7525C164.414 65.7525 166.806 68.1931 166.806 71.1975C166.81 72.1014 166.59 72.9921 166.165 73.79C165.741 74.5879 165.125 75.268 164.373 75.7694L173.145 104.569C173.884 104.518 174.626 104.622 175.323 104.873C176.02 105.124 176.657 105.518 177.193 106.029C177.73 106.54 178.155 107.156 178.44 107.84C178.725 108.524 178.865 109.259 178.851 110C178.857 110.724 178.717 111.441 178.441 112.11C178.164 112.778 177.756 113.384 177.24 113.892C176.724 114.4 176.112 114.799 175.439 115.066C174.767 115.333 174.047 115.462 173.324 115.445L163.032 148.651L176.211 160.38C177.669 159.059 179.566 158.329 181.533 158.331C185.967 158.331 189.563 161.989 189.563 166.499C189.563 171.009 185.967 174.666 181.533 174.666C180.469 174.657 179.418 174.439 178.439 174.024C177.459 173.608 176.572 173.004 175.826 172.246C175.08 171.487 174.491 170.589 174.093 169.603C173.694 168.617 173.494 167.562 173.503 166.499C173.503 165.041 173.874 163.68 174.534 162.497H174.527ZM129.118 167.881L139.341 144.856C138.501 144.163 137.888 143.234 137.581 142.189L113.862 145.64C113.694 146.648 113.246 147.589 112.569 148.356L126.643 168.259C127.425 167.935 128.274 167.806 129.118 167.881ZM131.819 168.912L158.419 148.954L146.951 143.963C146.36 144.746 145.563 145.35 144.649 145.708C143.736 146.066 142.741 146.164 141.774 145.991L131.648 168.788C131.706 168.826 131.763 168.865 131.819 168.905V168.912ZM124.498 169.881L110.335 149.861C109.201 150.262 107.963 150.262 106.829 149.861L92.6664 169.881C93.0764 170.394 93.3908 170.976 93.5945 171.6H123.569C123.773 170.976 124.088 170.394 124.498 169.881ZM170.753 114.675C169.953 114.185 169.294 113.498 168.838 112.679C168.381 111.86 168.143 110.937 168.147 110C168.147 108.075 169.123 106.391 170.601 105.421L162.31 78.1962L160.454 104.83C162.585 105.545 164.132 107.587 164.132 110C164.137 111.131 163.79 112.235 163.138 113.16C162.486 114.084 161.562 114.782 160.495 115.156L162.324 141.872L170.753 114.675ZM155.256 105.896L144.366 84.5488C143.479 84.8422 142.53 84.8944 141.616 84.7L132.046 105.786C132.663 106.301 133.16 106.945 133.499 107.674C133.839 108.402 134.014 109.196 134.013 110C134.014 110.817 133.833 111.624 133.482 112.361C133.131 113.099 132.619 113.748 131.984 114.263L141.85 135.259C142.559 135.142 143.284 135.17 143.981 135.341L155.112 113.96C154.577 113.449 154.151 112.834 153.861 112.153C153.57 111.473 153.42 110.74 153.421 110C153.421 108.364 154.136 106.893 155.256 105.896ZM157.828 115.363C157.703 115.34 157.579 115.312 157.456 115.28L146.339 136.62C146.991 137.229 147.485 137.989 147.776 138.833C148.067 139.676 148.147 140.578 148.01 141.46L159.973 146.671L157.828 115.363ZM157.786 104.651L159.753 76.3675C158.717 76.0112 157.815 75.3467 157.168 74.4631L147.969 78.3063C148.13 79.1521 148.093 80.0238 147.86 80.8529C147.628 81.682 147.206 82.4458 146.628 83.0844L157.656 104.672C157.699 104.664 157.743 104.658 157.786 104.651ZM129.544 115.376C128.776 115.505 127.99 115.462 127.241 115.253L112.645 141.171C113.082 141.687 113.42 142.279 113.642 142.918L137.484 139.452C137.759 138.208 138.447 137.115 139.396 136.359L129.544 115.363V115.376ZM129.613 104.644L139.217 83.49C138.241 82.6324 137.602 81.4552 137.416 80.1694L113.525 76.6975C113.262 77.3391 112.88 77.9247 112.398 78.4231L127.103 104.789C127.918 104.538 128.781 104.488 129.619 104.644H129.613ZM124.924 113.898C124.41 113.388 124.003 112.78 123.725 112.111C123.448 111.442 123.306 110.724 123.308 110C123.308 108.529 123.886 107.188 124.821 106.212L110.108 79.8256C109.288 80.0741 108.42 80.1189 107.578 79.9562L92.4051 106.267C93.3449 107.283 93.8656 108.616 93.8626 110C93.8669 111.436 93.3063 112.816 92.302 113.843L107.207 139.452C108.274 139.166 109.404 139.221 110.438 139.611L124.924 113.898ZM46.707 114.483L55.2457 141.749L57.2601 115.321C56.0564 115.046 54.9824 114.369 54.215 113.402C53.4477 112.435 53.0328 111.235 53.0389 110C53.0325 108.749 53.458 107.535 54.2433 106.562C55.0287 105.589 56.1258 104.916 57.3495 104.658L55.2664 78.2994L46.8582 105.628C47.5333 106.139 48.0802 106.8 48.4561 107.559C48.8319 108.317 49.0263 109.153 49.0239 110C49.0239 111.856 48.1026 113.506 46.707 114.483ZM73.437 135.286C74.2303 135.131 75.0487 135.159 75.8295 135.369L85.2482 114.324C84.5927 113.811 84.0631 113.154 83.6997 112.405C83.3363 111.655 83.1488 110.833 83.1514 110C83.1514 108.295 83.9214 106.776 85.1245 105.779L75.5545 84.7C74.8936 84.8394 74.2122 84.8511 73.547 84.7344L62.0039 105.985C62.5556 106.498 62.9955 107.119 63.296 107.81C63.5965 108.501 63.7511 109.247 63.7501 110C63.7523 110.733 63.6074 111.458 63.3239 112.134C63.0405 112.809 62.6243 113.421 62.1001 113.933L73.4439 135.286H73.437ZM75.6645 145.943C74.6847 146.173 73.6596 146.118 72.7097 145.786C71.7598 145.453 70.9245 144.856 70.302 144.066L61.0207 148.108C61.126 148.954 61.0367 149.812 60.7595 150.618L85.3376 168.919C85.4096 168.864 85.483 168.811 85.5576 168.761L75.6576 145.936L75.6645 145.943ZM69.1814 141.591C69.0103 140.648 69.0898 139.677 69.412 138.774C69.7341 137.872 70.2876 137.07 71.017 136.448L59.9276 115.583L57.7757 143.77C58.678 144.156 59.4577 144.781 60.0307 145.578L69.1814 141.591ZM79.7001 139.535L103.522 142.931C103.799 142.12 104.263 141.385 104.876 140.786L89.9989 115.232C89.2588 115.451 88.4796 115.505 87.7164 115.39L78.1601 136.709C78.9471 137.474 79.484 138.459 79.7001 139.535ZM79.5626 142.264C79.2759 143.187 78.7492 144.018 78.0364 144.671L88.0945 167.874C88.9224 167.811 89.7534 167.943 90.5214 168.259L104.601 148.356C103.927 147.593 103.48 146.657 103.309 145.654L79.5626 142.264ZM69.2295 78.1756L60.0789 74.3531C59.5049 75.1776 58.712 75.8253 57.7895 76.2231L59.9895 104.074L71.0995 83.6137C70.3151 82.9707 69.7248 82.1223 69.3946 81.1632C69.0644 80.2041 69.0072 79.1722 69.2295 78.1825V78.1756ZM75.7607 74.085L85.2139 51.81L60.787 69.4513C61.0393 70.2101 61.1238 71.0147 61.0345 71.8094L70.4532 75.7487C71.0969 75.0069 71.934 74.4586 72.8712 74.1648C73.8084 73.871 74.8088 73.8434 75.7607 74.085ZM79.762 80.0869C79.5924 81.4032 78.9497 82.6128 77.9539 83.49L87.5514 104.644C88.4184 104.484 89.3117 104.543 90.1501 104.816L105.151 78.7875C104.486 78.2178 103.967 77.4962 103.639 76.6838L79.762 80.0869ZM78.112 75.3981C78.6895 75.9481 79.1432 76.6287 79.4389 77.385L103.261 73.9888C103.37 72.9932 103.751 72.0467 104.361 71.2525L90.6795 51.6725C89.8403 52.0538 88.9157 52.2079 87.9982 52.1194L78.1189 75.3981H78.112ZM142.208 73.9475C143.07 73.8676 143.939 73.9994 144.74 74.3312C145.54 74.663 146.247 75.185 146.8 75.8519L156.15 71.9469C156.043 71.1466 156.112 70.3327 156.349 69.5613L132.088 51.7275L142.201 73.9475H142.208ZM137.698 77.4537C138.084 76.4112 138.779 75.5116 139.691 74.8756L129.31 52.0988C128.349 52.2157 127.375 52.0683 126.491 51.6725L112.81 71.2525C113.418 72.0531 113.798 73.0033 113.91 74.0025L137.698 77.4606V77.4537ZM124.388 49.9812C124.033 49.502 123.759 48.9678 123.576 48.4H93.5876C93.4032 48.9683 93.1268 49.5024 92.7695 49.9812L106.478 69.5956C107.14 69.308 107.854 69.1595 108.575 69.1595C109.297 69.1595 110.01 69.308 110.672 69.5956L124.388 49.9812Z" fill="white"/>
</g>
<defs>
<clipPath id="clip0_2_19796">
<rect width="220" height="220" fill="white" transform="translate(0.5)"/>
</clipPath>
</defs>
</svg>
