<svg width="221" height="220" viewBox="0 0 221 220" fill="none" xmlns="http://www.w3.org/2000/svg">
<g clip-path="url(#clip0_2_19788)">
<path d="M110.5 220C171.251 220 220.5 170.751 220.5 110C220.5 49.2487 171.251 0 110.5 0C49.7487 0 0.5 49.2487 0.5 110C0.5 170.751 49.7487 220 110.5 220Z" fill="#9D4BEF"/>
<path d="M79.3568 52.6702C86.3002 52.6702 92.9592 55.4284 97.8689 60.3381C102.779 65.2478 105.537 71.9068 105.537 78.8502C105.537 85.7935 102.779 92.4525 97.8689 97.3622C92.9592 102.272 86.3002 105.03 79.3568 105.03C72.4134 105.03 65.7545 102.272 60.8448 97.3622C55.9351 92.4525 53.1768 85.7935 53.1768 78.8502C53.1768 71.9068 55.9351 65.2478 60.8448 60.3381C65.7545 55.4284 72.4134 52.6702 79.3568 52.6702ZM105.53 141.151C105.53 146.329 103.995 151.391 101.118 155.696C98.2411 160.002 94.1524 163.357 89.3686 165.339C84.5848 167.32 79.3209 167.839 74.2425 166.828C69.164 165.818 64.4992 163.325 60.8379 159.663C57.1765 156.002 54.6831 151.337 53.673 146.259C52.6628 141.18 53.1813 135.917 55.1628 131.133C57.1443 126.349 60.4998 122.26 64.8051 119.384C69.1104 116.507 74.172 114.971 79.3499 114.971C88.9281 114.971 98.1139 111.167 104.887 104.394C111.659 97.621 115.464 88.4352 115.464 78.857C115.464 73.6791 117 68.6175 119.876 64.3122C122.753 60.0069 126.842 56.6514 131.626 54.6699C136.409 52.6884 141.673 52.1699 146.752 53.1801C151.83 54.1902 156.495 56.6836 160.156 60.345C163.818 64.0063 166.311 68.6712 167.321 73.7496C168.331 78.828 167.813 84.0919 165.831 88.8757C163.85 93.6595 160.494 97.7482 156.189 100.625C151.884 103.502 146.822 105.037 141.644 105.037C132.067 105.039 122.883 108.845 116.112 115.617C109.341 122.39 105.537 131.574 105.537 141.151H105.53ZM141.644 167.331C134.701 167.331 128.042 164.573 123.132 159.663C118.223 154.754 115.464 148.095 115.464 141.151C115.464 134.208 118.223 127.549 123.132 122.639C128.042 117.73 134.701 114.971 141.644 114.971C148.588 114.971 155.247 117.73 160.156 122.639C165.066 127.549 167.824 134.208 167.824 141.151C167.824 148.095 165.066 154.754 160.156 159.663C155.247 164.573 148.588 167.331 141.644 167.331ZM141.644 149.044C143.738 149.044 145.745 148.212 147.225 146.732C148.705 145.252 149.537 143.245 149.537 141.151C149.537 139.058 148.705 137.051 147.225 135.571C145.745 134.09 143.738 133.259 141.644 133.259C139.551 133.259 137.544 134.09 136.063 135.571C134.583 137.051 133.752 139.058 133.752 141.151C133.752 143.245 134.583 145.252 136.063 146.732C137.544 148.212 139.551 149.044 141.644 149.044ZM79.3568 149.044C81.45 149.044 83.4575 148.212 84.9376 146.732C86.4178 145.252 87.2493 143.245 87.2493 141.151C87.2493 139.058 86.4178 137.051 84.9376 135.571C83.4575 134.09 81.45 133.259 79.3568 133.259C77.2636 133.259 75.2561 134.09 73.776 135.571C72.2958 137.051 71.4643 139.058 71.4643 141.151C71.4643 143.245 72.2958 145.252 73.776 146.732C75.2561 148.212 77.2636 149.044 79.3568 149.044ZM141.644 86.7427C143.738 86.7427 145.745 85.9111 147.225 84.431C148.705 82.9509 149.537 80.9434 149.537 78.8502C149.537 76.7569 148.705 74.7495 147.225 73.2693C145.745 71.7892 143.738 70.9577 141.644 70.9577C139.551 70.9577 137.544 71.7892 136.063 73.2693C134.583 74.7495 133.752 76.7569 133.752 78.8502C133.752 80.9434 134.583 82.9509 136.063 84.431C137.544 85.9111 139.551 86.7427 141.644 86.7427ZM79.3568 86.7427C81.45 86.7427 83.4575 85.9111 84.9376 84.431C86.4178 82.9509 87.2493 80.9434 87.2493 78.8502C87.2493 76.7569 86.4178 74.7495 84.9376 73.2693C83.4575 71.7892 81.45 70.9577 79.3568 70.9577C77.2636 70.9577 75.2561 71.7892 73.776 73.2693C72.2958 74.7495 71.4643 76.7569 71.4643 78.8502C71.4643 80.9434 72.2958 82.9509 73.776 84.431C75.2561 85.9111 77.2636 86.7427 79.3568 86.7427Z" fill="white"/>
</g>
<defs>
<clipPath id="clip0_2_19788">
<rect width="220" height="220" fill="white" transform="translate(0.5)"/>
</clipPath>
</defs>
</svg>
