<svg width="221" height="220" viewBox="0 0 221 220" fill="none" xmlns="http://www.w3.org/2000/svg">
<g clip-path="url(#clip0_2_19784)">
<path d="M110.5 220C171.251 220 220.5 170.751 220.5 110C220.5 49.2487 171.251 0 110.5 0C49.7487 0 0.5 49.2487 0.5 110C0.5 170.751 49.7487 220 110.5 220Z" fill="black"/>
<path d="M86.2862 44.2406V178.152H62.375V41.25H86.2862V44.2406ZM103.329 41.25H116.777C144.579 41.25 163.114 58.8844 163.114 83.9919C163.114 104.321 152.046 119.866 132.019 124.946L166.992 178.152H138.894L91.0712 104.019H114.089C129.331 104.019 138.894 97.1437 138.894 83.6962C138.894 70.2419 129.337 63.3669 114.089 63.3669H103.625V41.25H103.329Z" fill="white"/>
</g>
<defs>
<clipPath id="clip0_2_19784">
<rect width="220" height="220" fill="white" transform="translate(0.5)"/>
</clipPath>
</defs>
</svg>
