<svg width="221" height="220" viewBox="0 0 221 220" fill="none" xmlns="http://www.w3.org/2000/svg">
<g clip-path="url(#clip0_2_19780)">
<path d="M110.5 220C171.251 220 220.5 170.751 220.5 110C220.5 49.2487 171.251 0 110.5 0C49.7487 0 0.5 49.2487 0.5 110C0.5 170.751 49.7487 220 110.5 220Z" fill="#3555F9"/>
<path d="M99.2254 45.5603C105.069 44.4741 111.05 44.5978 116.963 44.8935C123.783 45.691 130.617 47.121 136.887 49.9397C149.409 55.1725 160.024 64.1236 167.295 75.5835C169.997 79.5228 171.812 83.9366 173.634 88.3159C175.325 85.6209 176.837 82.8159 178.309 79.9972C178.941 78.6703 180.268 77.646 181.815 77.7147C182.844 77.6344 183.864 77.9541 184.663 78.6072C185.462 79.2604 185.979 80.1966 186.105 81.221C186.277 82.871 185.239 84.2941 184.558 85.7241C182.413 90.0553 179.642 94.0566 176.775 97.9616C176.246 98.5253 176.466 99.3091 176.528 99.9966C179.718 118.813 173.647 138.84 160.715 153.017C153.26 161.303 143.866 167.61 133.374 171.373C121.287 175.601 107.977 176.557 95.4786 173.6C77.3561 169.675 61.3236 157.726 52.2073 141.872C50.2136 138.662 48.9417 135.093 47.3673 131.683C45.6486 134.33 44.1911 137.115 42.7267 139.892C42.3827 140.581 41.8649 141.167 41.2246 141.594C40.5844 142.021 39.8438 142.273 39.0761 142.326C36.4567 142.326 34.0779 139.507 35.1298 136.998C37.3848 131.814 40.4717 127.015 43.9298 122.533C44.6723 121.756 44.5692 120.656 44.4317 119.687C43.1476 111.413 43.5216 102.968 45.5317 94.8403C50.8254 71.9878 69.8004 52.9028 92.7973 46.956C94.9286 46.4541 97.0598 45.9247 99.2254 45.5603ZM82.9867 59.3791C70.7973 65.7866 60.9867 76.5047 55.8992 89.1616C52.9567 96.8066 51.458 105.029 51.9117 113.21C53.2027 112.241 54.4333 111.194 55.5967 110.075C62.4373 103.97 70.4467 99.2403 78.8204 95.4728C94.3786 88.3984 111.511 85.3528 128.534 84.5278C122.779 78.5603 116.537 73.0535 110.782 67.086C112.597 65.0922 114.564 63.2497 116.53 61.4072C118.764 63.4285 120.827 65.6216 123.013 67.691C130.094 74.7378 137.389 81.5784 144.353 88.7216C136.928 96.1259 129.31 103.345 121.885 110.749C121.26 111.338 120.603 111.893 119.919 112.413C118.049 110.529 115.877 108.879 114.378 106.672C118.943 101.887 124.14 97.6935 128.52 92.7366C120.669 92.8466 112.859 93.9603 105.172 95.4866C98.9642 96.5934 92.9967 98.6903 87.0361 100.691C74.5511 105.366 63.0354 112.818 54.2561 122.787C53.7336 123.303 53.8092 124.066 53.9467 124.712C54.9848 129.167 56.9442 133.333 59.0892 137.362C66.1705 150.129 78.4079 159.995 92.4673 164.45C100.69 166.98 109.462 167.956 118.015 166.767C129.97 165.265 141.18 160.143 150.142 152.088C162.964 140.786 170.155 123.564 169.048 106.658C167.694 107.71 166.484 108.907 165.219 110.048C156.619 117.446 146.727 123.194 136.041 127.002C122.154 132.158 107.359 134.825 92.5429 135.245C93.8354 136.936 95.4305 138.352 96.9361 139.858C101.37 144.175 105.743 148.548 110.246 152.797C108.514 154.838 106.492 156.619 104.581 158.489C102.663 156.928 101.006 155.113 99.2186 153.402C92.5223 146.912 85.8948 140.339 79.2123 133.822C78.287 132.98 77.4359 132.06 76.6686 131.072C79.563 127.964 82.8904 125.283 85.8536 122.244C90.9411 117.328 95.8911 112.268 101.04 107.415C102.965 109.285 104.987 111.072 106.699 113.142C102.12 117.885 97.2455 122.347 92.6048 127.029C97.6923 127.283 102.711 126.41 107.757 125.929C111.401 125.544 114.983 124.719 118.579 123.97C137.038 119.707 155.016 110.942 167.405 96.4972C162.661 75.9822 145.219 59.0972 124.464 54.326C110.638 50.8128 95.5611 52.8135 82.9867 59.3791Z" fill="white"/>
</g>
<defs>
<clipPath id="clip0_2_19780">
<rect width="220" height="220" fill="white" transform="translate(0.5)"/>
</clipPath>
</defs>
</svg>
