<svg width="221" height="220" viewBox="0 0 221 220" fill="none" xmlns="http://www.w3.org/2000/svg">
<g clip-path="url(#clip0_2_19774)">
<path d="M110.5 220C171.251 220 220.5 170.751 220.5 110C220.5 49.2487 171.251 0 110.5 0C49.7487 0 0.5 49.2487 0.5 110C0.5 170.751 49.7487 220 110.5 220Z" fill="#E30613"/>
<path opacity="0.75" fill-rule="evenodd" clip-rule="evenodd" d="M106.107 185.627C66.775 185.627 34.875 154.05 34.875 115.103C34.875 76.1566 66.7681 44.5797 106.107 44.5797C145.452 44.5797 177.346 76.1566 177.346 115.103C177.346 154.05 145.446 185.627 106.1 185.627H106.107ZM118.406 64.7853C135.016 71.5847 146.951 84.3791 155.421 101.622L161.815 97.1735C154.638 79.9035 141.376 66.3322 120.043 57.5322L118.406 64.7853Z" fill="white"/>
<path d="M186.07 64.0819C186.07 47.6781 172.629 34.375 156.06 34.375C139.491 34.375 126.051 47.6781 126.051 64.0819C126.051 65.6494 126.175 67.21 126.422 68.7569C136.411 74.5731 144.435 82.9194 150.849 93.3419C152.568 93.6375 154.314 93.7956 156.06 93.7956C172.629 93.7956 186.07 80.4925 186.07 64.0819Z" fill="white"/>
</g>
<defs>
<clipPath id="clip0_2_19774">
<rect width="220" height="220" fill="white" transform="translate(0.5)"/>
</clipPath>
</defs>
</svg>
