<svg width="221" height="220" viewBox="0 0 221 220" fill="none" xmlns="http://www.w3.org/2000/svg">
<g clip-path="url(#clip0_2_19770)">
<path d="M110.5 220C171.251 220 220.5 170.751 220.5 110C220.5 49.2487 171.251 0 110.5 0C49.7487 0 0.5 49.2487 0.5 110C0.5 170.751 49.7487 220 110.5 220Z" fill="#2A2A2A"/>
<path d="M69.25 41.2912H125.013C125.687 41.0849 126.031 41.7037 126.471 42.0474C131.727 47.012 136.442 52.5199 140.537 58.4787C146.355 66.8118 150.923 75.9516 154.094 85.6074C157.408 95.8099 158.976 106.604 158.563 117.329H130.135C130.275 115.903 130.325 114.47 130.286 113.039C129.991 102.926 126.869 93.0049 121.954 84.2187C116.694 74.8068 109.352 66.6874 101.006 59.943C91.9169 52.5937 81.6869 46.7912 71.0306 42.1024C70.4394 41.8274 69.8206 41.6074 69.25 41.2912ZM89.8887 91.6643C99.4264 108.919 108.948 126.182 118.454 143.454C120.744 147.62 123.061 151.772 125.329 155.946C113.497 163.522 101.7 171.167 89.875 178.75V91.6643H89.8887Z" fill="white"/>
</g>
<defs>
<clipPath id="clip0_2_19770">
<rect width="220" height="220" fill="white" transform="translate(0.5)"/>
</clipPath>
</defs>
</svg>
