<svg width="221" height="220" viewBox="0 0 221 220" fill="none" xmlns="http://www.w3.org/2000/svg">
<g clip-path="url(#clip0_2_19766)">
<path d="M110.5 220C171.251 220 220.5 170.751 220.5 110C220.5 49.2487 171.251 0 110.5 0C49.7487 0 0.5 49.2487 0.5 110C0.5 170.751 49.7487 220 110.5 220Z" fill="#080817"/>
<path d="M65.4 67.0587L76.1525 60.8644L77.6788 63.36L117.554 40.3288L114.618 38.5894L111.676 36.9669L110.266 36.0938L45.1875 73.6931V75.3156L63.8738 64.5563L65.4 67.0587ZM65.4 90.7362L96.6813 72.7031L98.0906 75.2125L138.083 52.1675L135.154 50.4281L132.218 48.8056L130.795 47.9325L45.1875 97.2537V98.9931L63.8738 88.2406L65.4 90.7362ZM65.4 102.575L106.898 78.5813L108.307 81.0769L148.299 58.0456L145.37 56.4094L142.414 54.6631L141.011 53.7969L45.1875 109.106V110.825L63.8738 99.9762L65.4 102.575ZM65.4 114.318L117.43 84.3219L118.86 86.8381L158.515 63.91L155.566 62.2669L152.637 60.5481L151.228 59.7713L45.1875 120.952V122.574L63.8738 111.822L65.4 114.318ZM65.4 126.156L127.646 90.2L129.069 92.8125L168.731 69.8913L165.775 68.145L162.97 66.5087L161.444 65.6494L45.1875 132.791V134.413L63.8738 123.661L65.4 126.156ZM173.166 72.3869L171.653 71.5138L45.1875 144.629V146.252L63.8738 135.499L65.4 137.995L127.646 102.039L129.069 104.541L175.338 77.9281V73.6931L173.166 72.3869ZM53.2313 153.436L63.6606 147.455L65.18 149.958L127.33 114.001L128.842 116.593L175.345 89.65V81.29L51.8219 152.57L53.2313 153.436ZM127.33 125.84L128.842 128.452L175.345 101.503V93.1356L62.0312 158.537L63.4338 159.411L74.09 153.216L75.5956 155.712L127.33 125.84ZM73.6569 165.275L84.4094 159.087L85.8119 161.7L127.337 137.679L128.836 140.174L175.345 113.348V104.878L72.2338 164.409L73.6569 165.275ZM83.9763 171.139L94.6256 165.062L96.0281 167.557L127.33 149.517L128.842 152.013L175.345 125.187V116.71L82.45 170.383L83.9763 171.139ZM92.6663 176.247L94.1856 177.121L104.842 170.919L106.244 173.532L127.33 161.363L128.842 163.873L175.345 137.026V128.563L92.6663 176.247ZM104.402 182.978L115.058 176.901L116.564 179.396L127.33 173.099L128.842 175.711L175.345 148.864V140.394L102.979 182.229L104.402 182.978ZM127.866 46.1931L124.938 44.5706L122.002 42.8244L120.483 41.9581L45.1875 85.525V87.1475L63.8738 76.395L65.4 78.8906L86.465 66.7356L87.895 69.2312L127.866 46.1931Z" fill="white"/>
</g>
<defs>
<clipPath id="clip0_2_19766">
<rect width="220" height="220" fill="white" transform="translate(0.5)"/>
</clipPath>
</defs>
</svg>
