<svg width="221" height="220" viewBox="0 0 221 220" fill="none" xmlns="http://www.w3.org/2000/svg">
<g clip-path="url(#clip0_2_19762)">
<path d="M110.5 220C171.251 220 220.5 170.751 220.5 110C220.5 49.2487 171.251 0 110.5 0C49.7487 0 0.5 49.2487 0.5 110C0.5 170.751 49.7487 220 110.5 220Z" fill="#602A52"/>
<path fill-rule="evenodd" clip-rule="evenodd" d="M142.001 112.145C140.088 106.809 136.674 102.14 132.17 98.6976L132.122 98.6426C131.645 98.2815 131.156 97.9353 130.657 97.6044L130.561 97.5357C130.07 97.2132 129.57 96.9037 129.062 96.6076L128.925 96.5251C128.427 96.2366 127.916 95.9727 127.392 95.7344L127.241 95.6519C126.705 95.4003 126.164 95.1596 125.618 94.9301L125.439 94.8613C123.673 94.1281 121.841 93.5663 119.967 93.1838C118.887 95.1419 117.499 96.9131 115.856 98.4294C119.715 98.7374 123.443 99.9707 126.725 102.025L126.911 102.135L127.818 102.754L128.231 103.043C128.506 103.249 128.76 103.455 129.042 103.661L129.502 104.033C129.75 104.239 129.977 104.445 130.211 104.658L130.678 105.105L131.317 105.751L131.785 106.253L132.356 106.92L132.802 107.477L133.318 108.164C133.49 108.391 133.607 108.57 133.744 108.769C133.882 108.969 134.061 109.23 134.205 109.471L134.604 110.131C134.727 110.351 134.879 110.598 135.002 110.832C135.14 111.059 135.25 111.313 135.374 111.561C135.491 111.808 135.607 112.014 135.711 112.248C135.839 112.553 135.963 112.86 136.082 113.169C136.734 114.797 137.196 116.495 137.457 118.229L138.206 121.007C138.522 122.162 141.444 132.392 148.216 135.836C155.978 139.817 166.256 144.733 170.299 146.678L116.907 178.028V156.544C116.907 153.154 123.782 149.188 126.966 147.792L127.151 147.689C127.804 147.366 128.457 147.015 129.076 146.644L129.344 146.506C130.721 145.677 132.032 144.741 133.263 143.708L133.593 143.413L133.971 143.076C134.358 142.728 134.737 142.37 135.106 142.003L135.298 141.818C135.704 141.412 136.109 141.027 136.467 140.553L136.804 140.168C137.106 139.81 137.395 139.446 137.677 139.074L137.924 138.765C138.268 138.311 138.584 137.844 138.901 137.369L139.011 137.232C139.437 136.565 139.815 135.898 140.214 135.204C138.716 133.396 137.434 131.422 136.391 129.319C135.965 130.508 135.429 131.663 134.81 132.77C134.549 133.251 134.274 133.719 133.999 134.173L133.875 134.358C133.616 134.744 133.345 135.122 133.064 135.493L132.816 135.809C132.536 136.17 132.243 136.521 131.936 136.861L131.771 137.053C129.782 139.225 127.407 141.009 124.766 142.313L124.264 142.567C122.909 143.165 110.974 148.459 110.974 156.509V178.001L57.4181 146.596C60.8625 144.492 70.9275 138.634 79.205 136.056C82.4431 135.066 89.3181 139.308 93.2162 142.423L93.45 142.629C93.9656 143.11 94.5087 143.571 95.0725 144.004L95.265 144.176C96.5025 145.166 97.8225 146.053 99.2044 146.836L100.132 147.338L100.318 147.434C101.219 147.888 102.14 148.301 103.082 148.665L103.494 148.823L103.769 148.933C105.124 149.428 106.519 149.813 107.929 150.102C109.038 148.119 110.469 146.335 112.164 144.822C109.904 144.655 107.68 144.169 105.557 143.378L105.192 143.241L104.491 142.959L104.134 142.808L103.453 142.491C101.877 141.727 100.39 140.791 99.0187 139.7L96.8875 137.803C94.9306 136.117 92.8119 134.63 90.5625 133.361C85.2687 130.405 80.8412 129.443 77.445 130.488C70.3637 132.674 62.3887 136.923 57.5212 139.728L110.995 45.4232V86.7213C110.995 88.1857 108.795 92.0082 101.446 95.2532L100.937 95.5282C100.222 95.8719 99.5275 96.2432 98.8469 96.6419L98.7094 96.7107C96.4464 98.0438 94.3703 99.6713 92.5356 101.551L92.4669 101.619C91.7714 102.335 91.1128 103.085 90.4937 103.868L90.4181 103.971C90.1193 104.352 89.8282 104.739 89.545 105.133L89.4487 105.27C89.1938 105.641 88.9462 106.017 88.7062 106.398L88.6237 106.514C88.3816 106.905 88.1501 107.301 87.9294 107.704L87.7712 107.986C87.5719 108.371 87.3725 108.783 87.1731 109.141L87.0837 109.326C86.9066 109.688 86.7393 110.055 86.5819 110.426L86.41 110.839C86.2519 111.224 86.1075 111.636 85.9631 112.008L85.8256 112.42C85.7204 112.715 85.6241 113.013 85.5369 113.314C85.4887 113.479 85.4337 113.637 85.3925 113.809C84.9978 115.189 84.7105 116.598 84.5331 118.023L84.4644 118.663C84.4318 118.953 84.4066 119.244 84.3887 119.536C84.375 119.831 84.3887 120.12 84.3406 120.409C84.2925 120.704 84.3406 120.766 84.3406 120.959V121.612C84.3406 123.056 84.4506 124.499 84.6706 125.936C86.9737 126.498 89.2027 127.329 91.3119 128.411C90.6644 126.336 90.3171 124.178 90.2806 122.004V121.612C90.2806 121.089 90.2806 120.574 90.3425 120.024V119.611C90.3425 119.164 90.4319 118.711 90.4937 118.264V118.071C90.5648 117.574 90.6612 117.081 90.7825 116.593L90.865 116.215C90.9681 115.803 91.0712 115.404 91.2019 114.998L91.2844 114.737C91.4219 114.263 91.5937 113.802 91.7725 113.341L91.91 113.032C92.0612 112.654 92.2262 112.276 92.3981 111.898L92.5287 111.609C92.7419 111.162 92.9756 110.729 93.2162 110.296L93.3469 110.083C93.5635 109.71 93.7904 109.343 94.0275 108.983L94.1994 108.728C94.4812 108.316 94.77 107.931 95.0794 107.504L95.1344 107.436C95.43 107.058 95.7394 106.693 96.0556 106.336L96.2275 106.129C97.6781 104.534 99.3419 103.139 101.177 101.984L103.707 100.815C105.062 100.217 116.942 94.7788 116.942 86.7213V45.4232L170.835 140.436C166.022 138.119 157.566 134.028 150.966 130.673C147.199 128.748 144.627 121.963 143.967 119.529L143.239 116.676C142.969 115.145 142.573 113.639 142.056 112.173L142.001 112.145ZM178.507 142.051L119.107 37.3726C118.583 36.457 117.825 35.6971 116.91 35.1704C115.996 34.6438 114.958 34.3693 113.903 34.3751C112.85 34.3718 111.815 34.6474 110.904 35.1739C109.992 35.7004 109.236 36.459 108.712 37.3726L49.3812 142.058C48.6344 143.378 48.4393 144.939 48.8385 146.402C49.2377 147.865 50.1988 149.111 51.5125 149.868L110.892 184.793C111.818 185.334 112.872 185.62 113.944 185.62C115.017 185.62 116.071 185.334 116.997 184.793L176.369 149.896C177.682 149.139 178.644 147.895 179.044 146.434C179.444 144.973 179.252 143.412 178.507 142.093L178.521 142.051H178.507Z" fill="white"/>
</g>
<defs>
<clipPath id="clip0_2_19762">
<rect width="220" height="220" fill="white" transform="translate(0.5)"/>
</clipPath>
</defs>
</svg>
