<svg width="221" height="220" viewBox="0 0 221 220" fill="none" xmlns="http://www.w3.org/2000/svg">
<g clip-path="url(#clip0_2_19758)">
<path d="M110.5 220C171.251 220 220.5 170.751 220.5 110C220.5 49.2487 171.251 0 110.5 0C49.7487 0 0.5 49.2487 0.5 110C0.5 170.751 49.7487 220 110.5 220Z" fill="#0E0E21"/>
<path fill-rule="evenodd" clip-rule="evenodd" d="M79.9061 104.809L71.3811 99.275C71.0092 99.0335 70.745 98.6575 70.6437 98.2258C70.5425 97.794 70.6121 97.3398 70.838 96.9581L103.728 41.195C104.024 40.6911 104.445 40.2728 104.952 39.9811C105.458 39.6894 106.031 39.5344 106.615 39.5312H114.377C114.962 39.5344 115.535 39.6894 116.041 39.9811C116.547 40.2728 116.969 40.6911 117.265 41.195L150.155 96.9581C150.381 97.3398 150.45 97.794 150.349 98.2258C150.248 98.6575 149.984 99.0335 149.612 99.275L141.087 104.809C140.897 104.93 140.685 105.011 140.463 105.048C140.241 105.085 140.014 105.077 139.795 105.024C139.576 104.972 139.37 104.876 139.19 104.742C139.009 104.608 138.857 104.439 138.742 104.246L111.222 57.5919C111.148 57.4665 111.042 57.3625 110.915 57.2904C110.789 57.2182 110.646 57.1802 110.5 57.1802C110.354 57.1802 110.211 57.2182 110.084 57.2904C109.958 57.3625 109.852 57.4665 109.778 57.5919L82.2574 104.246C82.1438 104.441 81.9917 104.611 81.8104 104.746C81.6291 104.881 81.4222 104.978 81.2024 105.031C80.9826 105.084 80.7544 105.091 80.5316 105.053C80.3087 105.015 80.096 104.932 79.9061 104.809ZM158.81 111.65L171.9 133.843C172.347 134.605 172.486 135.51 172.288 136.371C172.09 137.232 171.57 137.986 170.835 138.476L112.329 176.495C111.787 176.849 111.154 177.038 110.507 177.038C109.86 177.038 109.226 176.849 108.685 176.495L50.1786 138.476C49.437 137.991 48.9114 137.238 48.7116 136.375C48.5118 135.511 48.6531 134.604 49.1061 133.843L62.1961 111.65C62.3097 111.455 62.4617 111.284 62.6431 111.149C62.8244 111.014 63.0312 110.917 63.2511 110.865C63.4709 110.812 63.6991 110.805 63.9219 110.843C64.1447 110.881 64.3575 110.964 64.5474 111.086L73.0655 116.621C73.4374 116.862 73.7016 117.238 73.8029 117.67C73.9041 118.102 73.8345 118.556 73.6086 118.937L66.1286 131.622C66.0204 131.814 65.9886 132.039 66.0396 132.253C66.0906 132.467 66.2206 132.654 66.4036 132.777L110.046 161.136C110.321 161.322 110.665 161.322 110.947 161.136L154.603 132.777C154.789 132.657 154.921 132.47 154.972 132.255C155.023 132.039 154.99 131.813 154.878 131.622L147.398 118.937C147.172 118.556 147.103 118.102 147.204 117.67C147.305 117.238 147.569 116.862 147.941 116.621L156.466 111.086C156.656 110.965 156.868 110.883 157.09 110.845C157.312 110.808 157.54 110.816 157.758 110.868C157.977 110.921 158.184 111.017 158.364 111.152C158.545 111.286 158.697 111.456 158.81 111.65Z" fill="white"/>
</g>
<defs>
<clipPath id="clip0_2_19758">
<rect width="220" height="220" fill="white" transform="translate(0.5)"/>
</clipPath>
</defs>
</svg>
