<svg width="221" height="220" viewBox="0 0 221 220" fill="none" xmlns="http://www.w3.org/2000/svg">
<g clip-path="url(#clip0_2_19754)">
<path d="M110.5 220C171.251 220 220.5 170.751 220.5 110C220.5 49.2487 171.251 0 110.5 0C49.7487 0 0.5 49.2487 0.5 110C0.5 170.751 49.7487 220 110.5 220Z" fill="#00E6A0"/>
<path d="M159.127 51.5634C159.734 51.5501 160.338 51.6602 160.902 51.8871C161.466 52.114 161.977 52.4529 162.406 52.8834L162.365 52.8422C163.044 53.519 163.488 54.3964 163.63 55.3447L163.692 56.0597L163.644 79.5516C163.644 82.6384 162.42 85.6016 160.234 87.7809L131.084 116.842L162.276 147.937C163.373 149.009 164.246 150.288 164.846 151.7C165.446 153.111 165.761 154.628 165.771 156.162C165.782 157.696 165.488 159.216 164.908 160.636C164.327 162.056 163.471 163.346 162.389 164.434C161.307 165.521 160.02 166.383 158.603 166.97C157.186 167.557 155.667 167.857 154.133 167.854C152.599 167.85 151.081 167.543 149.667 166.949C148.252 166.356 146.97 165.488 145.893 164.396L106.464 125.092C105.377 124.014 104.514 122.732 103.925 121.318C103.336 119.905 103.033 118.39 103.033 116.859C103.033 115.328 103.336 113.812 103.925 112.399C104.514 110.986 105.377 109.704 106.464 108.626L140.991 74.1684H82.5669V155.905C82.593 157.464 82.3052 159.011 81.7209 160.456C81.1365 161.901 80.2675 163.213 79.1655 164.315C78.0635 165.417 76.751 166.286 75.3063 166.871C73.8615 167.455 72.3139 167.743 70.7557 167.717L69.5869 167.675C66.6538 167.42 63.9257 166.065 61.9503 163.882C59.975 161.699 58.8987 158.849 58.9375 155.905V64.2616C58.9375 56.9328 64.1832 51.5634 71.285 51.5634H159.127Z" fill="white"/>
</g>
<defs>
<clipPath id="clip0_2_19754">
<rect width="220" height="220" fill="white" transform="translate(0.5)"/>
</clipPath>
</defs>
</svg>
