<svg width="221" height="220" viewBox="0 0 221 220" fill="none" xmlns="http://www.w3.org/2000/svg">
<g clip-path="url(#clip0_2_19750)">
<path d="M110.5 220C171.251 220 220.5 170.751 220.5 110C220.5 49.2487 171.251 0 110.5 0C49.7487 0 0.5 49.2487 0.5 110C0.5 170.751 49.7487 220 110.5 220Z" fill="#CC1E46"/>
<path d="M81.7349 63.5262C93.2415 54.8787 106.946 49.6379 121.287 48.4012C122.744 48.1056 124.325 49.0268 124.277 50.6356C124.415 54.4856 124.319 58.3356 124.319 62.1856C124.415 63.3818 123.782 64.9356 122.407 64.9699C109.716 66.3724 97.6574 71.5562 87.1799 78.7199C86.1899 79.2768 86.4099 80.5625 86.4924 81.4974C87.2211 88.2487 86.7261 95.0481 86.9255 101.82C121.122 101.916 155.332 101.806 189.542 101.875C191.171 101.737 192.89 102.666 192.759 104.487C192.931 116.003 192.794 127.519 192.828 139.027C192.855 145.284 191.522 151.76 187.734 156.875C181.752 164.912 171.234 169.731 161.237 167.957C154.156 166.899 148.037 162.506 143.747 156.93C132.07 165.713 118.135 170.995 103.57 172.158C102.092 172.179 100.985 170.728 101.212 169.312C101.26 165.283 101.129 161.241 101.28 157.212C101.624 155.081 104.25 155.493 105.811 155.142C117.801 153.272 129.269 148.247 139.059 141.117C138.554 133.637 138.377 126.139 138.529 118.643C104.209 118.423 69.8755 118.629 35.5555 118.533C34.043 118.705 32.5855 117.571 32.7299 115.969C32.7024 103.848 32.7092 91.7206 32.7436 79.5999C32.8124 73.2612 34.813 66.8537 39.0136 62.0206C44.548 55.7231 52.8942 51.7012 61.3642 52.1962C69.4767 52.5193 76.9224 57.1324 81.7349 63.5262ZM46.5624 81.6899C46.5486 88.7918 46.5417 95.9006 46.5761 103.016C55.0599 103.009 63.5299 103.133 72.0067 102.947C72.0205 96.0174 72.1099 89.0943 71.9655 82.1643C71.8349 75.5231 65.833 69.6518 59.1642 69.7893C52.6536 69.5212 46.7205 75.2206 46.5624 81.6831V81.6899ZM154.562 118.059C154.493 124.81 154.548 131.568 154.52 138.319C154.479 141.021 155.297 143.661 156.858 145.861C160.117 150.516 166.607 152.551 171.914 150.495C176.816 148.68 180.054 143.551 179.999 138.395C179.999 131.616 180.034 124.851 179.972 118.072C171.502 118.004 163.032 118.038 154.562 118.052V118.059Z" fill="white"/>
</g>
<defs>
<clipPath id="clip0_2_19750">
<rect width="220" height="220" fill="white" transform="translate(0.5)"/>
</clipPath>
</defs>
</svg>
