<svg width="221" height="220" viewBox="0 0 221 220" fill="none" xmlns="http://www.w3.org/2000/svg">
<g clip-path="url(#clip0_2_19746)">
<path d="M110.5 220C171.251 220 220.5 170.751 220.5 110C220.5 49.2487 171.251 0 110.5 0C49.7487 0 0.5 49.2487 0.5 110C0.5 170.751 49.7487 220 110.5 220Z" fill="#60E4DD"/>
<path fill-rule="evenodd" clip-rule="evenodd" d="M70.24 137.665C72.3025 134.537 74.255 131.608 76.0975 128.865H55.0325C54.8629 128.865 54.7003 128.798 54.5804 128.678C54.4605 128.558 54.3931 128.395 54.3931 128.226V123.853C54.3931 123.502 54.6819 123.214 55.0325 123.214H79.9338C93.2506 103.764 99.9056 95.755 99.9056 94.9369C99.9056 93.6787 99.6306 93.0531 95.0931 93.0531C86.1281 93.0531 71.3813 86.6525 71.3813 69.1763C71.3813 59.6681 86.7606 48.125 95.7394 48.125C99.9056 48.125 100.545 49.8919 98.6269 50.0088C93.4981 50.325 82.2781 60.5688 82.2781 70.4275C82.2781 77.0275 88.1356 88.3369 101.184 88.3369C116.598 88.3369 129.764 63.8344 161.767 63.8344C180.996 63.8344 186.125 78.8769 186.125 83.0019C186.125 87.1269 180.123 89.2856 172.024 89.2856C163.926 89.2856 163.623 74.8275 147.343 74.8275C121.782 74.8275 100.016 102.506 89.5588 123.214H107.599C107.956 123.214 108.238 123.502 108.238 123.853V128.226C108.239 128.31 108.223 128.394 108.191 128.472C108.16 128.551 108.113 128.622 108.053 128.682C107.994 128.742 107.923 128.79 107.845 128.823C107.767 128.855 107.683 128.872 107.599 128.872H86.905C85.475 132.172 84.4094 135.162 83.7425 137.672H101.824C102.181 137.672 102.47 137.947 102.47 138.304V142.684C102.47 142.853 102.403 143.016 102.283 143.136C102.163 143.256 102 143.323 101.831 143.323H82.9312C83.2681 151.339 89.9919 158.565 103.116 165H52.7912C57.3017 157.728 61.8852 150.502 66.5413 143.323H49.2712C49.1867 143.324 49.1028 143.308 49.0245 143.276C48.9461 143.245 48.8748 143.198 48.8147 143.138C48.7546 143.079 48.7069 143.008 48.6743 142.93C48.6418 142.852 48.625 142.768 48.625 142.684V138.304C48.625 137.954 48.9137 137.665 49.2644 137.665H70.24Z" fill="white"/>
</g>
<defs>
<clipPath id="clip0_2_19746">
<rect width="220" height="220" fill="white" transform="translate(0.5)"/>
</clipPath>
</defs>
</svg>
