<svg width="221" height="220" viewBox="0 0 221 220" fill="none" xmlns="http://www.w3.org/2000/svg">
<g clip-path="url(#clip0_2_19742)">
<path d="M110.5 220C171.251 220 220.5 170.751 220.5 110C220.5 49.2487 171.251 0 110.5 0C49.7487 0 0.5 49.2487 0.5 110C0.5 170.751 49.7487 220 110.5 220Z" fill="#F49352"/>
<path fill-rule="evenodd" clip-rule="evenodd" d="M87.1591 62.9406C81.2672 62.9406 76.4891 58.0869 76.4891 52.0988C76.4891 46.1106 81.2672 41.25 87.1591 41.25C93.0579 41.25 97.836 46.1038 97.836 52.0988C97.836 58.0938 93.0579 62.9406 87.1591 62.9406ZM134.198 178.75C132.785 178.738 131.388 178.448 130.087 177.897C128.786 177.345 127.607 176.543 126.616 175.536C125.625 174.528 124.842 173.335 124.313 172.026C123.783 170.716 123.516 169.314 123.528 167.901C123.528 161.92 128.306 157.059 134.198 157.059C140.097 157.059 144.875 161.913 144.875 167.901C144.875 173.896 140.097 178.75 134.198 178.75ZM91.5385 97.6937C90.5417 98.47 89.3999 99.0393 88.18 99.3683C86.9602 99.6973 85.687 99.7794 84.435 99.6097C83.183 99.44 81.9776 99.0219 80.8894 98.3801C79.8011 97.7382 78.8521 96.8855 78.0979 95.8719C76.5519 93.814 75.8732 91.2326 76.2074 88.6805C76.5415 86.1284 77.8617 83.8086 79.8854 82.2181L129.097 43.9794C130.093 43.2031 131.235 42.6338 132.455 42.3048C133.675 41.9758 134.948 41.8937 136.2 42.0634C137.452 42.2331 138.658 42.6512 139.746 43.2931C140.834 43.9349 141.783 44.7877 142.537 45.8013C144.085 47.8596 144.765 50.4426 144.431 52.9963C144.097 55.5501 142.775 57.8712 140.75 59.4619L91.5385 97.6937ZM91.9029 136.668C90.9061 137.444 89.7642 138.014 88.5444 138.343C87.3246 138.672 86.0513 138.754 84.7994 138.584C83.5474 138.414 82.342 137.996 81.2537 137.354C80.1655 136.713 79.2165 135.86 78.4623 134.846C76.9141 132.788 76.2342 130.205 76.5684 127.651C76.9026 125.097 78.2242 122.776 80.2498 121.186L129.461 82.9538C130.458 82.1775 131.6 81.6082 132.819 81.2792C134.039 80.9502 135.313 80.8681 136.564 81.0378C137.816 81.2075 139.022 81.6256 140.11 82.2674C141.198 82.9093 142.147 83.762 142.902 84.7756C144.448 86.8335 145.126 89.4149 144.792 91.967C144.458 94.5191 143.138 96.8389 141.114 98.4294L91.9029 136.668ZM91.9029 176.743C90.9061 177.519 89.7642 178.088 88.5444 178.417C87.3246 178.746 86.0513 178.828 84.7994 178.658C83.5474 178.489 82.342 178.071 81.2537 177.429C80.1655 176.787 79.2165 175.934 78.4623 174.921C76.9141 172.862 76.2342 170.279 76.5684 167.726C76.9026 165.172 78.2242 162.851 80.2498 161.26L129.461 123.028C130.458 122.252 131.6 121.683 132.819 121.354C134.039 121.025 135.313 120.942 136.564 121.112C137.816 121.282 139.022 121.7 140.11 122.342C141.198 122.984 142.147 123.836 142.902 124.85C144.448 126.908 145.126 129.489 144.792 132.041C144.458 134.593 143.138 136.913 141.114 138.504L91.9029 176.743Z" fill="white"/>
</g>
<defs>
<clipPath id="clip0_2_19742">
<rect width="220" height="220" fill="white" transform="translate(0.5)"/>
</clipPath>
</defs>
</svg>
