<svg width="221" height="220" viewBox="0 0 221 220" fill="none" xmlns="http://www.w3.org/2000/svg">
<g clip-path="url(#clip0_2_19738)">
<path d="M110.5 220C171.251 220 220.5 170.751 220.5 110C220.5 49.2487 171.251 0 110.5 0C49.7487 0 0.5 49.2487 0.5 110C0.5 170.751 49.7487 220 110.5 220Z" fill="#FFD800"/>
<path fill-rule="evenodd" clip-rule="evenodd" d="M163.321 88.5912C163.713 88.1994 164.489 88.1994 165.253 88.1994C176.851 88.1994 186.125 98.0169 186.125 109.808C186.125 120.808 178.012 129.449 167.576 131.409H165.253C161.389 131.409 157.525 130.233 154.046 128.267C152.917 127.472 151.563 127.06 150.182 127.091C148.636 127.091 147.089 127.483 145.934 128.267C143.225 129.841 142.07 132.591 142.07 135.733V139.267C141.663 144.12 139.595 148.684 136.215 152.191C132.835 155.697 128.349 157.931 123.514 158.517H121.197C117.334 158.517 113.47 157.341 109.991 155.375C108.444 154.591 107.289 154.199 105.742 154.199C104.196 154.199 102.649 154.591 101.487 155.375C98.785 156.949 97.6231 159.699 97.6231 162.841V166.375C96.8531 176.591 88.7337 184.449 78.6894 185.625H76.7575C65.1594 185.625 55.885 175.801 55.885 164.017C56.27 153.017 63.9975 143.983 74.4337 142.801H76.7575C80.6213 142.801 84.485 143.983 87.9638 145.949C89.0928 146.744 90.447 147.156 91.8275 147.125C93.3744 147.125 94.9213 146.733 96.0763 145.949C98.785 144.375 99.94 141.625 99.94 138.483C99.17 127.091 107.289 116.875 118.496 115.699H120.812C124.676 115.699 128.54 116.875 132.019 118.841C133.566 119.625 134.728 120.017 136.274 120.017C137.814 120.017 139.368 119.625 140.523 118.841C143.225 117.267 144.387 114.517 144.387 111.375C143.617 99.9831 152.114 89.7669 163.321 88.5912ZM118.887 61.4831C119.657 61.0912 120.049 61.0912 121.204 61.0912C132.802 61.0912 142.077 70.9088 142.077 82.6994C141.692 93.6994 133.964 102.733 123.521 103.909H121.204C117.341 103.909 113.477 102.733 109.998 100.767C108.869 99.9719 107.515 99.5598 106.134 99.5912C104.587 99.5912 103.041 99.9831 101.886 100.767C99.1769 102.341 98.015 105.091 98.015 108.233V111.767C97.245 121.976 89.1325 129.834 79.0813 131.017H77.1494C65.5581 131.017 56.2769 121.199 56.2769 109.409C56.2769 98.8075 64.0113 90.1587 74.4406 88.5912H76.7644C80.6281 88.5912 84.4919 89.7669 87.9706 91.7331C89.0997 92.5281 90.4539 92.9402 91.8344 92.9087C93.3812 92.9087 94.9281 92.5169 96.0831 91.7331C98.7919 90.1588 99.9469 87.4087 99.9469 84.2669C99.1769 72.875 107.681 62.6587 118.887 61.4831ZM76.3725 34.375C87.895 34.375 97.2381 43.8763 97.2381 55.5913C97.2381 67.3063 87.8881 76.8006 76.3725 76.8006C64.8431 76.8006 55.5 67.3063 55.5 55.5913C55.5 43.8763 64.85 34.375 76.3725 34.375Z" fill="white"/>
</g>
<defs>
<clipPath id="clip0_2_19738">
<rect width="220" height="220" fill="white" transform="translate(0.5)"/>
</clipPath>
</defs>
</svg>
