<svg width="221" height="220" viewBox="0 0 221 220" fill="none" xmlns="http://www.w3.org/2000/svg">
<g clip-path="url(#clip0_2_19734)">
<path d="M110.5 220C171.251 220 220.5 170.751 220.5 110C220.5 49.2487 171.251 0 110.5 0C49.7487 0 0.5 49.2487 0.5 110C0.5 170.751 49.7487 220 110.5 220Z" fill="#8D181B"/>
<path d="M177.16 108.158C182.11 108.158 186.125 112.077 186.125 116.924C186.125 121.771 182.11 125.689 177.16 125.689C173.379 125.689 170.141 123.393 168.827 120.155H143.253L133.82 136.93C132.266 139.694 128.011 138.876 127.639 135.747L125.522 117.824L117.684 175.946C117.162 179.809 111.38 179.631 111.112 175.739L104.684 81.7787L97.8775 144.025C97.465 147.737 92.0131 147.93 91.3462 144.252L84.1413 104.679L80.8138 117.707C80.6264 118.413 80.2101 119.036 79.6302 119.479C79.0503 119.922 78.3397 120.16 77.61 120.155H45.05C43.2281 120.155 41.75 118.711 41.75 116.924C41.75 115.136 43.2281 113.692 45.05 113.692H75.025L81.4806 88.4543C82.3469 85.0718 87.3106 85.2437 87.9431 88.6743L93.78 120.774L102.161 44.1381C102.594 40.2124 108.472 40.3224 108.74 44.2618L115.484 142.849L122.456 91.1218C122.964 87.3474 128.568 87.3887 129.014 91.1699L133.016 124.961L138.406 115.363C138.697 114.853 139.118 114.43 139.627 114.136C140.135 113.843 140.713 113.689 141.3 113.692H168.827C169.509 112.046 170.666 110.641 172.15 109.655C173.634 108.669 175.378 108.148 177.16 108.158Z" fill="white"/>
</g>
<defs>
<clipPath id="clip0_2_19734">
<rect width="220" height="220" fill="white" transform="translate(0.5)"/>
</clipPath>
</defs>
</svg>
