<svg width="221" height="220" viewBox="0 0 221 220" fill="none" xmlns="http://www.w3.org/2000/svg">
<g clip-path="url(#clip0_2_19730)">
<path d="M110.5 220C171.251 220 220.5 170.751 220.5 110C220.5 49.2487 171.251 0 110.5 0C49.7487 0 0.5 49.2487 0.5 110C0.5 170.751 49.7487 220 110.5 220Z" fill="#64D1FF"/>
<path fill-rule="evenodd" clip-rule="evenodd" d="M72.6875 104.761H84.815V48.125H116.076C121.878 48.125 127.172 48.8056 131.957 50.1669C136.742 51.5281 140.839 53.6044 144.256 56.3819C147.673 59.1594 150.347 62.6863 152.286 66.9419C154.218 71.2044 155.188 76.2919 155.188 82.2113C155.188 88.1306 154.156 93.28 152.114 97.6594C150.182 101.884 147.32 105.616 143.741 108.577C140.064 111.555 135.825 113.76 131.276 115.06C126.225 116.518 120.989 117.236 115.732 117.191H98.4756V135.121H125.976V146.843H98.4756V171.875H84.815V146.843H72.6875V135.121H84.815V117.191H72.6875V104.761ZM116.069 104.761C123.927 104.761 130.108 102.898 134.604 99.1719C139.1 95.4388 141.355 89.7875 141.355 82.2113C141.355 74.6419 139.1 69.135 134.604 65.7044C130.108 62.2669 123.927 60.5481 116.076 60.5481H98.4756V104.761H116.069Z" fill="white"/>
</g>
<defs>
<clipPath id="clip0_2_19730">
<rect width="220" height="220" fill="white" transform="translate(0.5)"/>
</clipPath>
</defs>
</svg>
