<svg width="221" height="220" viewBox="0 0 221 220" fill="none" xmlns="http://www.w3.org/2000/svg">
<g clip-path="url(#clip0_2_19726)">
<path d="M110.5 220C171.251 220 220.5 170.751 220.5 110C220.5 49.2487 171.251 0 110.5 0C49.7487 0 0.5 49.2487 0.5 110C0.5 170.751 49.7487 220 110.5 220Z" fill="#384182"/>
<path fill-rule="evenodd" clip-rule="evenodd" d="M65.8125 185.625L90.6863 70.2006L104.642 156.826L65.8125 185.625ZM91.1675 69.5406L128.959 156.915L105.289 156.503L91.1675 69.5338V69.5406ZM91.7313 68.8806L141.231 75.9137L129.764 156.915L91.7313 68.8806ZM130.644 155.671L141.802 76.6562L149.103 85.9238L130.644 155.671ZM141.073 75.1644L92.7694 68.2962L136.261 53.9825L141.073 75.1644ZM92.5356 67.5538L122.139 47.0319L136.261 53.24L92.5356 67.5538ZM91.8069 67.3063L97.5131 56.3819L121.658 46.7019L91.8069 67.3063ZM97.5131 55.8938L100.236 47.3687L120.132 46.7019L97.5131 55.8869V55.8938ZM100.078 46.7019L106.492 39.8338L120.297 46.0419L100.078 46.7019ZM106.897 39.4213L116.522 34.705L128.966 49.2662L106.897 39.4213ZM117.891 35.2825L132.252 41.5731L129.681 49.3488L117.891 35.2825ZM130.163 49.5963L132.809 41.6556L136.02 52.58L130.163 49.5963ZM116.846 34.375H127.357L132.562 40.1638C132.61 40.2196 132.638 40.2901 132.642 40.3638C132.645 40.4376 132.624 40.5104 132.581 40.5706C132.538 40.6307 132.477 40.6749 132.406 40.6958C132.335 40.7168 132.259 40.7134 132.191 40.6863L116.846 34.375ZM133.456 40.9956L154.837 46.9631C154.945 46.9891 155.041 47.0507 155.11 47.138C155.179 47.2253 155.216 47.3332 155.216 47.4444C155.216 47.5555 155.179 47.6634 155.11 47.7507C155.041 47.838 154.945 47.8996 154.837 47.9256L136.666 52.91L133.456 40.9956Z" fill="white"/>
</g>
<defs>
<clipPath id="clip0_2_19726">
<rect width="220" height="220" fill="white" transform="translate(0.5)"/>
</clipPath>
</defs>
</svg>
