<svg width="221" height="220" viewBox="0 0 221 220" fill="none" xmlns="http://www.w3.org/2000/svg">
<g clip-path="url(#clip0_2_19720)">
<path d="M110.5 220C171.251 220 220.5 170.751 220.5 110C220.5 49.2487 171.251 0 110.5 0C49.7487 0 0.5 49.2487 0.5 110C0.5 170.751 49.7487 220 110.5 220Z" fill="#3D58B0"/>
<path d="M110.404 27.5C64.96 27.5 28 64.46 28 109.904C28 155.348 64.96 192.294 110.404 192.294C155.848 192.294 192.794 155.341 192.794 109.904C192.801 64.46 155.841 27.5 110.404 27.5ZM110.404 38.72C119.755 38.7082 129.016 40.5415 137.657 44.1147C146.299 47.6879 154.15 52.931 160.762 59.5434C167.374 66.1559 172.616 74.0078 176.189 82.6495C179.761 91.2912 181.593 100.553 181.581 109.904C181.592 119.254 179.759 128.515 176.187 137.156C172.614 145.797 167.371 153.648 160.76 160.26C154.148 166.871 146.297 172.114 137.656 175.687C129.015 179.259 119.754 181.092 110.404 181.081C101.053 181.093 91.7912 179.261 83.1495 175.689C74.5078 172.116 66.6559 166.874 60.0434 160.262C53.431 153.65 48.1879 145.799 44.6147 137.157C41.0415 128.516 39.2082 119.255 39.22 109.904C39.2082 100.552 41.0414 91.2907 44.6146 82.649C48.1877 74.0073 53.4306 66.1554 60.043 59.543C66.6554 52.9306 74.5073 47.6877 83.149 44.1146C91.7907 40.5414 101.052 38.7082 110.404 38.72Z" fill="white"/>
<path d="M79.7891 79.4725V140.316H141.011V79.4725H79.7891ZM89.7578 89.4412H131.035V130.347H89.7647V89.4412H89.7578Z" fill="white"/>
</g>
<defs>
<clipPath id="clip0_2_19720">
<rect width="220" height="220" fill="white" transform="translate(0.5)"/>
</clipPath>
</defs>
</svg>
