<svg width="221" height="220" viewBox="0 0 221 220" fill="none" xmlns="http://www.w3.org/2000/svg">
<g clip-path="url(#clip0_2_19714)">
<path d="M110.5 220C171.251 220 220.5 170.751 220.5 110C220.5 49.2487 171.251 0 110.5 0C49.7487 0 0.5 49.2487 0.5 110C0.5 170.751 49.7487 220 110.5 220Z" fill="#00688C"/>
<path d="M186.049 155.864V68.7372L110.397 25.1634L110.294 25.2184L34.9023 68.7853V155.892L110.355 199.355L110.362 199.362L186.042 155.871L186.049 155.864ZM152.568 141.935L139.664 134.538L110.871 151.251C110.788 151.3 110.693 151.326 110.596 151.326C110.499 151.326 110.404 151.3 110.321 151.251L77.2867 132.104L77.273 98.7947L48.2536 82.1572L110.115 45.8915C110.14 45.8764 110.168 45.8683 110.197 45.8683C110.226 45.8683 110.255 45.8764 110.28 45.8915L167.734 78.7403L157.573 84.6184L110.307 57.4209L68.3905 82.0265L82.9311 90.3797L110.335 74.4434L110.349 74.4297L143.83 93.5765L143.816 125.27L172.354 141.612L172.347 142.093L110.362 178.283L52.9011 145.476L62.9592 139.584L110.266 166.72L152.568 141.928V141.935Z" fill="white"/>
<path d="M119.472 104.123V103.889L119.465 103.738L119.458 103.656L119.444 103.484V103.429L119.423 103.243V103.195L119.396 103.003V102.968L119.368 102.769V102.741L119.334 102.535L119.327 102.521L119.286 102.315L119.279 102.294L119.231 102.088V102.074C119.218 102.005 119.202 101.936 119.183 101.868V101.854L119.121 101.648V101.641L119.059 101.421C119.022 101.281 118.976 101.143 118.922 101.009V101.002L118.839 100.796C118.814 100.726 118.786 100.657 118.757 100.589L118.667 100.383L118.578 100.191L118.482 99.9844L118.385 99.7919L118.275 99.5994C118.238 99.538 118.201 99.4762 118.165 99.4138V99.4069L118.055 99.2281L118.048 99.2213C118.011 99.1628 117.972 99.1054 117.932 99.0494V99.0356L117.815 98.8706C117.815 98.8706 117.815 98.8569 117.801 98.8569L117.684 98.6919L117.67 98.6781C117.629 98.6231 117.602 98.5681 117.553 98.5131L117.547 98.4994L117.416 98.3413L117.402 98.3275L117.278 98.1763L117.265 98.1625L117.127 98.0181C117.121 98.0122 117.117 98.0052 117.113 97.9975L116.983 97.8531C116.977 97.8472 116.972 97.8402 116.969 97.8325L116.838 97.695C116.786 97.6423 116.733 97.5896 116.68 97.5369L116.66 97.5163L116.522 97.3788C116.469 97.3329 116.417 97.2871 116.364 97.2413L116.343 97.2206C116.296 97.1758 116.248 97.1323 116.199 97.09L116.178 97.0694C116.132 97.0289 116.083 96.99 116.034 96.9525L116.013 96.9388L115.862 96.815L115.842 96.8013L115.683 96.6844L115.663 96.6706L115.505 96.5538L115.484 96.54L115.326 96.43L115.305 96.4231L115.14 96.3131L115.127 96.2994L114.955 96.1963H114.941L114.762 96.0863H114.748L114.563 95.9763H114.556C112.362 95.0496 109.894 95.0075 107.669 95.8587C105.445 96.7099 103.635 98.3886 102.62 100.543C101.605 102.698 101.462 105.162 102.222 107.419C102.982 109.677 104.586 111.553 106.698 112.655L102.71 130.888H117.794L113.772 112.669C117.223 111.225 119.472 107.856 119.472 104.123Z" fill="white"/>
</g>
<defs>
<clipPath id="clip0_2_19714">
<rect width="220" height="220" fill="white" transform="translate(0.5)"/>
</clipPath>
</defs>
</svg>
