<svg width="221" height="220" viewBox="0 0 221 220" fill="none" xmlns="http://www.w3.org/2000/svg">
<g clip-path="url(#clip0_2_19710)">
<path d="M110.5 220C171.251 220 220.5 170.751 220.5 110C220.5 49.2487 171.251 0 110.5 0C49.7487 0 0.5 49.2487 0.5 110C0.5 170.751 49.7487 220 110.5 220Z" fill="#B68900"/>
<path d="M183.602 108.742L109.242 34.375L34.875 108.742L109.242 136.214L183.602 108.742ZM58.0025 102.438L108.417 50.8888C108.417 50.8888 157.704 101.303 159.78 102.314C161.863 103.317 125.879 102.314 125.879 102.314L109.242 85.2981L92.4119 102.438H58.0025ZM109.242 141.446L183.602 113.781L109.242 183.102L34.875 114.159L109.242 141.453V141.446Z" fill="white"/>
</g>
<defs>
<clipPath id="clip0_2_19710">
<rect width="220" height="220" fill="white" transform="translate(0.5)"/>
</clipPath>
</defs>
</svg>
