<svg width="221" height="220" viewBox="0 0 221 220" fill="none" xmlns="http://www.w3.org/2000/svg">
<g clip-path="url(#clip0_2_19702)">
<path d="M110.5 220C171.251 220 220.5 170.751 220.5 110C220.5 49.2487 171.251 0 110.5 0C49.7487 0 0.5 49.2487 0.5 110C0.5 170.751 49.7487 220 110.5 220Z" fill="#2B77B3"/>
<path d="M186.125 110.27C185.801 152.262 151.77 185.936 109.97 185.62C68.1358 185.31 34.5377 151.128 34.8746 109.225C35.2183 67.7202 69.3458 34.1014 110.843 34.3764C152.643 34.6583 186.427 68.7239 186.125 110.276V110.27ZM40.3471 110.029C40.4227 148.666 71.6833 179.858 110.396 179.948C149.151 180.016 180.769 148.611 180.638 109.933C180.494 69.6452 147.123 39.2577 108.712 39.9177C71.5733 40.5502 40.2715 72.1202 40.3471 110.029ZM128.931 77.1939L126.133 86.1452C120.922 85.2858 116.096 84.2614 111.208 83.7802C108.306 83.4983 105.295 84.2546 104.175 87.5202C103.02 90.8683 102.882 94.4364 105.653 97.0214C108.499 99.6683 111.84 101.765 114.961 104.116C117.828 106.275 120.984 108.159 123.486 110.682C130.272 117.53 131.475 125.835 128.691 134.786C127.041 140.093 123.108 143.448 118.076 145.483C110.376 148.605 97.2652 147.065 89.9021 142.115L93.1333 132.737C97.8221 133.975 102.112 135.46 106.526 136.161C110.733 136.828 115.14 136.181 117.299 131.885C119.471 127.553 118.784 122.995 115.381 119.516C112.755 116.835 109.461 114.793 106.388 112.559C104.34 111.074 102.05 109.905 100.056 108.351C96.1907 105.396 93.4382 101.219 92.2462 96.5015C91.0543 91.7835 91.4929 86.8011 93.4908 82.3639C94.3715 80.2451 95.7497 78.3696 97.509 76.8964C99.2682 75.4232 101.356 74.3957 103.597 73.9008C112.225 71.8521 120.592 72.7802 128.931 77.2008V77.1939ZM73.3815 108.75C73.3816 111.05 72.474 113.258 70.8558 114.893C69.2377 116.528 67.0397 117.458 64.7396 117.481C59.9271 117.502 55.8158 113.308 55.9258 108.516C56.0164 106.218 56.9933 104.043 58.6518 102.449C60.3103 100.854 62.5215 99.9639 64.8221 99.9639C69.6346 100.033 73.4158 103.917 73.3883 108.75H73.3815ZM156.521 100.205C161.32 100.198 164.895 103.738 164.956 108.565C164.983 109.731 164.776 110.89 164.346 111.975C163.916 113.059 163.274 114.046 162.456 114.878C161.638 115.709 160.661 116.368 159.584 116.815C158.506 117.263 157.35 117.489 156.184 117.481C153.882 117.443 151.688 116.5 150.076 114.855C148.465 113.211 147.567 110.997 147.576 108.695C147.576 103.663 151.22 100.205 156.521 100.205Z" fill="white"/>
</g>
<defs>
<clipPath id="clip0_2_19702">
<rect width="220" height="220" fill="white" transform="translate(0.5)"/>
</clipPath>
</defs>
</svg>
