<svg width="221" height="220" viewBox="0 0 221 220" fill="none" xmlns="http://www.w3.org/2000/svg">
<g clip-path="url(#clip0_2_19698)">
<path d="M110.5 220C171.251 220 220.5 170.751 220.5 110C220.5 49.2487 171.251 0 110.5 0C49.7487 0 0.5 49.2487 0.5 110C0.5 170.751 49.7487 220 110.5 220Z" fill="#4BA2F2"/>
<path d="M68.3561 56.5754C69.8411 56.8298 66.1424 66.6817 68.2049 77.9361C69.9924 87.5817 92.3155 124.934 91.3942 137.749C90.6792 145.792 72.3505 164.664 70.4186 163.406C68.308 162.822 75.9874 150 73.1411 139.316C69.8274 126.859 50.1786 94.6561 50.1992 80.4386C50.1992 70.0367 67.0292 55.9017 68.3492 56.5754H68.3561ZM110.355 41.8629C112.239 42.1861 107.537 54.7604 110.163 69.0811C112.432 81.4011 140.915 129.031 139.732 145.359C138.811 155.63 115.45 179.672 112.975 178.084C110.294 177.349 120.084 160.993 116.454 147.367C112.239 131.499 87.1799 90.4279 87.2005 72.2986C87.2005 59.0229 108.664 41.0173 110.355 41.8698V41.8629ZM153.702 56.5754C155.187 56.8298 151.495 66.6817 153.551 77.9361C155.339 87.5817 177.662 124.934 176.747 137.749C176.039 145.792 157.704 164.664 155.765 163.406C153.661 162.822 161.334 150 158.487 139.316C155.18 126.859 135.525 94.6561 135.545 80.4386C135.545 70.0367 152.389 55.9017 153.702 56.5754Z" fill="white"/>
</g>
<defs>
<clipPath id="clip0_2_19698">
<rect width="220" height="220" fill="white" transform="translate(0.5)"/>
</clipPath>
</defs>
</svg>
