<svg width="221" height="220" viewBox="0 0 221 220" fill="none" xmlns="http://www.w3.org/2000/svg">
<g clip-path="url(#clip0_2_19694)">
<path d="M110.5 220C171.251 220 220.5 170.751 220.5 110C220.5 49.2487 171.251 0 110.5 0C49.7487 0 0.5 49.2487 0.5 110C0.5 170.751 49.7487 220 110.5 220Z" fill="#48B254"/>
<path fill-rule="evenodd" clip-rule="evenodd" d="M156.432 50.655L162.929 56.5537L80.8963 103.386L41.1863 80.5269L44.8988 73.15L80.8963 93.6169L156.432 50.6481V50.655ZM139.918 41.25L148.636 45.6775L80.8963 84.3975L49.3538 66.5087L54.73 60.06L80.8963 74.9925L139.925 41.25H139.918ZM168.683 62.6381L173.503 69.0938L80.8963 122.011L36.1744 96.5662L38.2163 88.4538L80.8963 112.791L168.683 62.6381ZM182.041 86.4256C184.764 94.05 186.125 102.032 186.125 110.392C186.125 118.752 184.764 126.871 182.041 134.729L180.185 139.714C176.373 148.654 170.895 156.788 164.043 163.68C157.109 170.488 148.911 175.876 139.911 179.541C130.389 183.597 120.558 185.625 110.411 185.625C100.139 185.625 90.3013 183.597 80.8963 179.541C72.0035 175.781 63.8863 170.403 56.9575 163.68C50.0263 156.853 44.5369 148.703 40.815 139.714C36.8963 130.433 34.8681 120.464 34.875 110.392V105.414L80.8963 131.416L177.958 76.0994L182.041 86.4256Z" fill="white"/>
</g>
<defs>
<clipPath id="clip0_2_19694">
<rect width="220" height="220" fill="white" transform="translate(0.5)"/>
</clipPath>
</defs>
</svg>
