<svg width="221" height="220" viewBox="0 0 221 220" fill="none" xmlns="http://www.w3.org/2000/svg">
<g clip-path="url(#clip0_2_19690)">
<path d="M110.5 220C171.251 220 220.5 170.751 220.5 110C220.5 49.2487 171.251 0 110.5 0C49.7487 0 0.5 49.2487 0.5 110C0.5 170.751 49.7487 220 110.5 220Z" fill="#20EE82"/>
<path fill-rule="evenodd" clip-rule="evenodd" d="M110.5 51.5625C125.999 51.5625 140.862 57.7193 151.822 68.6784C162.781 79.6376 168.938 94.5014 168.938 110V168.438H110.5C95.0014 168.438 80.1376 162.281 69.1784 151.322C58.2193 140.362 52.0625 125.499 52.0625 110C52.0625 94.5014 58.2193 79.6376 69.1784 68.6784C80.1376 57.7193 95.0014 51.5625 110.5 51.5625ZM145.562 145.062V110.529C145.562 91.1419 130.059 75.0337 110.679 74.9375C106.046 74.9193 101.455 75.8184 97.171 77.583C92.8871 79.3476 88.995 81.9428 85.7189 85.2189C82.4428 88.495 79.8476 92.3871 78.083 96.671C76.3184 100.955 75.4193 105.546 75.4375 110.179C75.5337 129.559 91.6487 145.062 111.029 145.062H145.562Z" fill="white"/>
</g>
<defs>
<clipPath id="clip0_2_19690">
<rect width="220" height="220" fill="white" transform="translate(0.5)"/>
</clipPath>
</defs>
</svg>
