<svg width="221" height="220" viewBox="0 0 221 220" fill="none" xmlns="http://www.w3.org/2000/svg">
<g clip-path="url(#clip0_2_19686)">
<path d="M220.5 111.51C220.5 133.266 214.049 154.533 201.962 172.623C189.875 190.712 172.695 204.811 152.595 213.137C132.495 221.462 110.378 223.641 89.0401 219.396C67.7022 215.152 48.1021 204.676 32.7183 189.292C17.3345 173.908 6.85804 154.308 2.61367 132.97C-1.63071 111.632 0.547661 89.5147 8.8733 69.4148C17.1989 49.315 31.2979 32.1353 49.3873 20.0484C67.4767 7.9614 88.7441 1.51001 110.5 1.51001C139.674 1.51001 167.653 13.0993 188.282 33.7283C208.911 54.3573 220.5 82.3362 220.5 111.51Z" fill="#006AA8"/>
<path d="M102.21 132.56C102.264 135.92 101.538 139.247 100.09 142.28C98.7177 145.114 96.6921 147.582 94.18 149.48C91.3563 151.572 88.1591 153.107 84.76 154C80.6821 155.055 76.4819 155.563 72.27 155.51C68.0659 155.533 63.8674 155.199 59.72 154.51C56.3617 154.029 53.0889 153.073 50 151.67V141.73C51.37 142.32 52.92 142.92 54.65 143.51C56.38 144.1 58.27 144.58 60.2 145.02C62.13 145.46 64.12 145.84 66.2 146.14C68.2231 146.398 70.2605 146.528 72.3 146.53C78.74 146.53 83.4867 145.413 86.54 143.18C88.0575 142.098 89.2787 140.651 90.0912 138.974C90.9038 137.296 91.2816 135.442 91.19 133.58C91.2287 131.789 90.9232 130.006 90.29 128.33C89.6374 126.724 88.5755 125.318 87.21 124.25C85.4343 122.774 83.4621 121.553 81.35 120.62C78.9033 119.433 75.8067 118.15 72.06 116.77C68.8252 115.621 65.694 114.199 62.7 112.52C60.2786 111.111 58.0839 109.344 56.19 107.28C54.5066 105.35 53.2127 103.112 52.38 100.69C51.5419 97.9771 51.1369 95.149 51.18 92.31C51.1248 89.2756 51.7861 86.2709 53.11 83.54C54.378 80.99 56.2236 78.7712 58.5 77.06C61.0003 75.1948 63.8296 73.8174 66.84 73C70.3381 72.0402 73.9528 71.5724 77.58 71.61C81.9199 71.5547 86.2526 71.9773 90.5 72.87C93.9972 73.5885 97.4141 74.6538 100.7 76.05L96.7 84.76C93.7865 83.598 90.7832 82.675 87.72 82C84.3772 81.1662 80.9452 80.7431 77.5 80.74C72.5933 80.74 68.79 81.8033 66.09 83.93C64.7912 84.9183 63.7496 86.2049 63.0533 87.681C62.357 89.1571 62.0266 90.7792 62.09 92.41C62.0477 94.2938 62.3563 96.1691 63 97.94C63.661 99.5507 64.6882 100.985 66 102.13C67.6737 103.536 69.5224 104.719 71.5 105.65C73.8267 106.73 76.6833 107.883 80.07 109.11C83.3493 110.286 86.5522 111.666 89.66 113.24C92.1961 114.491 94.5344 116.109 96.6 118.04C98.418 119.784 99.84 121.899 100.77 124.24C101.785 126.894 102.274 129.72 102.21 132.56Z" fill="white"/>
<path d="M130.8 122.73L138.95 113.24L156.64 93.08H169.37L145.17 119.61L171 154.39H158.39L138.11 126.25L131.5 130.83V154.39H120.67V67.51H131.5V107.38L130.5 122.73H130.8Z" fill="white"/>
</g>
<defs>
<clipPath id="clip0_2_19686">
<rect width="220" height="220" fill="white" transform="translate(0.5)"/>
</clipPath>
</defs>
</svg>
