<svg width="221" height="220" viewBox="0 0 221 220" fill="none" xmlns="http://www.w3.org/2000/svg">
<g clip-path="url(#clip0_2_19674)">
<path d="M110.5 220C171.251 220 220.5 170.751 220.5 110C220.5 49.2487 171.251 0 110.5 0C49.7487 0 0.5 49.2487 0.5 110C0.5 170.751 49.7487 220 110.5 220Z" fill="#057BC1"/>
<path d="M110.5 27.5C64.9394 27.5 28 64.4394 28 110C28 155.561 64.9394 192.5 110.5 192.5C156.061 192.5 193 155.561 193 110C193 88.1196 184.308 67.1354 168.836 51.6637C153.365 36.1919 132.38 27.5 110.5 27.5ZM139.21 141.123H135.855V159.906H124.58V141.123H107.413V134.145H124.855V121.536C115.799 126.583 105.259 128.291 95.0725 126.362C89.435 125.022 83.8044 121.942 80.855 116.841C78.0527 111.853 76.6601 106.197 76.8263 100.478V70.6956H88.2319V101.551C88.5 108.254 92.79 114.964 99.3694 116.978C108.022 118.965 117.107 117.521 124.718 112.949C124.718 103.558 124.58 89.4781 124.718 70.6956H136.254V134.152H139.21V141.123Z" fill="white"/>
</g>
<defs>
<clipPath id="clip0_2_19674">
<rect width="220" height="220" fill="white" transform="translate(0.5)"/>
</clipPath>
</defs>
</svg>
