<svg width="221" height="220" viewBox="0 0 221 220" fill="none" xmlns="http://www.w3.org/2000/svg">
<g clip-path="url(#clip0_2_19668)">
<path d="M110.5 220C171.251 220 220.5 170.751 220.5 110C220.5 49.2487 171.251 0 110.5 0C49.7487 0 0.5 49.2487 0.5 110C0.5 170.751 49.7487 220 110.5 220Z" fill="#F5342E"/>
<path d="M41.7566 110.852C41.6782 103.193 42.8557 95.5731 45.2422 88.2951C47.9366 80.0418 52.1707 72.3738 57.7204 65.697C64.0167 58.0365 71.9283 51.8622 80.8891 47.6158C86.8276 44.7904 93.1606 42.8826 99.6716 41.9576C103.585 41.3785 107.543 41.1575 111.497 41.2976C119.304 41.5831 126.999 43.2497 134.225 46.2201C134.335 46.2683 134.466 46.3164 134.48 46.4539C134.493 46.6326 134.335 46.6876 134.205 46.7426L131.73 47.7051C126.338 49.7997 121.068 52.196 115.945 54.8826C110.259 57.887 104.8 61.2558 99.7335 65.2776C95.3335 68.777 91.3116 72.6683 88.046 77.3295C85.846 80.4645 84.1135 83.8333 83.1647 87.5939C81.9547 92.3514 82.2504 97.0608 83.6254 101.729C84.636 105.18 86.1554 108.411 87.8329 111.56C89.9504 115.548 92.3497 119.363 94.5566 123.296C96.5641 126.871 98.4341 130.515 99.6716 134.468C100.531 137.225 101.047 140.05 100.992 142.951C100.899 146.714 99.9291 150.403 98.1591 153.725C96.076 157.74 93.2229 161.122 90.0466 164.243C87.111 167.124 83.921 169.661 80.6278 172.081C80.1466 172.438 79.7685 172.424 79.2666 172.163C74.4689 169.725 69.9798 166.722 65.8947 163.219C60.9409 158.971 56.6187 154.038 53.0591 148.568C47.2149 139.587 43.5125 129.383 42.2379 118.744C41.8977 116.128 41.7369 113.491 41.7566 110.852Z" fill="white"/>
<path d="M83.3223 173.529C83.446 173.233 83.7554 173.227 83.9891 173.144C88.7928 171.388 93.5181 169.424 98.1516 167.259C103.583 164.702 108.87 161.869 113.875 158.562C117.784 156.022 121.465 153.147 124.875 149.968C128.23 146.806 131.2 143.341 133.51 139.353C135.38 136.122 136.645 132.678 137.057 128.958C137.399 125.576 137.079 122.16 136.115 118.9C135.084 115.263 133.469 111.874 131.654 108.567C129.481 104.6 127.013 100.798 124.737 96.8934C122.805 93.5728 121.004 90.1903 119.698 86.5671C118.381 83.0861 117.823 79.3638 118.062 75.6496C118.247 73.1059 118.907 70.6584 119.932 68.3071C121.472 64.7734 123.692 61.6865 126.27 58.8403C130.038 54.6671 134.417 51.209 138.982 47.9503C139.484 47.5859 139.904 47.5446 140.46 47.8265C145.314 50.2603 149.852 53.1615 154.039 56.6059C158.322 60.1328 162.13 64.0996 165.451 68.5203C173.337 78.9559 178.045 91.4455 179.009 104.49C179.16 106.656 179.297 108.822 179.235 110.994C179.088 117.316 178.089 123.59 176.265 129.646C172.71 141.293 166.132 151.789 157.201 160.068C147.352 169.199 135.086 175.308 121.864 177.668C117.207 178.485 112.482 178.84 107.756 178.727C99.6194 178.519 91.5804 176.902 83.996 173.948C83.7485 173.838 83.4598 173.811 83.3223 173.536V173.529Z" fill="white"/>
</g>
<defs>
<clipPath id="clip0_2_19668">
<rect width="220" height="220" fill="white" transform="translate(0.5)"/>
</clipPath>
</defs>
</svg>
