<svg width="221" height="220" viewBox="0 0 221 220" fill="none" xmlns="http://www.w3.org/2000/svg">
<g clip-path="url(#clip0_2_19664)">
<path d="M110.5 220C171.251 220 220.5 170.751 220.5 110C220.5 49.2487 171.251 0 110.5 0C49.7487 0 0.5 49.2487 0.5 110C0.5 170.751 49.7487 220 110.5 220Z" fill="#0072FF"/>
<path d="M165.686 88.0206L132.603 161.563H119.382L154.204 84.15C158.218 84.8008 162.097 86.1086 165.686 88.0206ZM107.798 44.8181L56.9025 157.974C43.9225 151.814 34.875 138.318 34.875 122.602C34.875 101.083 51.8012 83.6481 72.6875 83.6481C72.6875 63.0575 88.1838 46.2481 107.798 44.8181ZM148.319 83.6481L113.264 161.563H98.9431L142.957 63.7313C146.346 69.5613 148.319 76.3538 148.319 83.6481ZM161.341 159.149L183.794 109.264C185.279 113.444 186.125 117.927 186.125 122.623C186.125 139.384 175.812 153.663 161.341 159.149ZM171.254 91.6781C174.389 94.1531 177.167 97.0956 179.408 100.471L152.004 161.37C150.78 161.5 149.55 161.564 148.319 161.563H139.822L171.254 91.6781ZM110.638 44.6875C116 44.7081 121.081 45.8837 125.694 47.9944L74.6125 161.563H72.6875C67.9437 161.563 63.4063 160.628 59.2331 158.971L110.638 44.6875ZM139.973 59.2488L93.945 161.563H78.5037L128.877 49.6031C133.153 52.0644 136.921 55.3506 139.973 59.2488Z" fill="white"/>
</g>
<defs>
<clipPath id="clip0_2_19664">
<rect width="220" height="220" fill="white" transform="translate(0.5)"/>
</clipPath>
</defs>
</svg>
