<svg width="221" height="220" viewBox="0 0 221 220" fill="none" xmlns="http://www.w3.org/2000/svg">
<g clip-path="url(#clip0_2_19660)">
<path d="M110.5 220C171.251 220 220.5 170.751 220.5 110C220.5 49.2487 171.251 0 110.5 0C49.7487 0 0.5 49.2487 0.5 110C0.5 170.751 49.7487 220 110.5 220Z" fill="#FDA616"/>
<path d="M82.4569 151.25C83.2613 153.753 93.2163 164.065 103.577 164.065C118.936 164.065 127.908 154.798 127.908 141.391C127.908 128.975 121.693 121.88 105.99 114.978C87.0081 107.291 75.2725 96.0506 75.2725 77.3231C75.2725 56.6294 90.2875 41.25 112.893 41.25C124.8 41.25 136.866 48.7437 140.867 53.7487L131.263 63.7519C127.468 61.3869 122.909 55.44 112.377 55.44C96.5025 55.44 90.4594 66.2819 90.4594 75.35C90.4594 87.7731 97.5406 93.885 113.58 100.98C133.256 109.656 143.266 120.498 143.266 140.009C143.266 160.518 129.901 178.75 102.463 178.75C91.2431 178.75 79.26 171.256 72.055 162.085L82.4569 151.25ZM95.2581 80.4169C92.8588 75.4187 94.4606 70.4206 94.4606 70.4206C155.263 60.4175 144.064 119.577 144.064 119.577C139.265 110.419 134.466 108.749 134.466 108.749C135.264 74.58 95.2581 80.4169 95.2581 80.4169ZM122.463 134.585C124.869 140.422 122.091 146.493 122.091 146.493C52.86 155.416 71.56 92.1112 71.5394 92.1112C75.2106 101.833 79.7756 104.108 79.7756 104.108C78.4694 143.749 122.463 134.585 122.463 134.585Z" fill="white"/>
</g>
<defs>
<clipPath id="clip0_2_19660">
<rect width="220" height="220" fill="white" transform="translate(0.5)"/>
</clipPath>
</defs>
</svg>
