<svg width="221" height="220" viewBox="0 0 221 220" fill="none" xmlns="http://www.w3.org/2000/svg">
<g clip-path="url(#clip0_2_19656)">
<path d="M110.5 220C171.251 220 220.5 170.751 220.5 110C220.5 49.2487 171.251 0 110.5 0C49.7487 0 0.5 49.2487 0.5 110C0.5 170.751 49.7487 220 110.5 220Z" fill="#8E9495"/>
<path d="M52.9081 142.389C51.3334 138.993 50.1657 135.423 49.4294 131.753C49.0051 129.82 48.7361 127.857 48.625 125.882H54.7713C54.9117 127.47 55.1412 129.049 55.4587 130.612C56.1256 133.836 57.1294 137.04 58.5044 139.962C62.1894 147.772 67.7856 152.227 75.9119 152.227C82.2644 152.227 87.1869 149.683 90.6519 145.2C93.5944 141.412 95.2581 136.387 95.2581 132.165C95.2581 126.755 93.2094 122.767 89.1188 119.392C85.7913 116.642 81.9619 114.717 74.0556 111.43L72.66 110.853C64.4375 107.45 60.6425 105.58 56.9506 102.665C51.8494 98.636 49.1406 93.6379 49.1406 87.2373C49.1406 79.5717 51.8975 73.0748 56.8338 68.4823C61.5148 64.1974 67.641 61.8378 73.9869 61.8754C82.7869 61.8754 89.5037 65.5398 93.9725 71.961V63.2298H113.827V150.865H119.726V126.274C119.716 126.072 119.716 125.87 119.726 125.669L125.872 125.875V126.184C125.994 127.675 126.2 129.158 126.491 130.625C127.131 133.822 128.121 137.033 129.496 139.955C133.16 147.758 138.763 152.22 146.882 152.22C153.235 152.22 158.158 149.676 161.623 145.194C164.565 141.405 166.229 136.38 166.229 132.159C166.229 126.748 164.18 122.76 160.089 119.385C156.762 116.635 152.932 114.71 145.026 111.424L143.631 110.846C135.408 107.443 131.613 105.573 127.921 102.658C122.82 98.6292 120.111 93.631 120.111 87.2304C120.111 79.5648 122.868 73.0679 127.804 68.4754C132.486 64.193 138.612 61.8359 144.957 61.8754C153.757 61.8754 160.474 65.5398 164.943 71.961V63.601H171.096V94.0023H164.943C164.943 87.6498 163.486 81.2148 160.619 76.4642C157.236 70.8473 152.149 67.781 144.957 67.781C140.197 67.7465 135.598 69.5093 132.081 72.7173C128.368 76.1823 126.257 81.1392 126.257 87.2304C126.257 91.7679 128.086 95.1367 131.826 98.0929C134.92 100.534 138.385 102.239 146.064 105.422L147.46 105.999C155.937 109.512 160.137 111.637 164.097 114.902C169.508 119.371 172.375 124.967 172.375 132.159C172.375 137.631 170.299 143.887 166.559 148.727C161.959 154.66 155.243 158.125 146.882 158.125C141.087 158.125 136.116 156.365 132.033 153.107C129.588 151.13 127.504 148.746 125.872 146.06V156.771H107.681V69.1354H100.119V94.0023H93.9725C93.9725 87.6498 92.515 81.2148 89.6481 76.4642C86.2656 70.8473 81.1781 67.781 73.9869 67.781C69.2262 67.7465 64.6277 69.5093 61.11 72.7173C57.3975 76.1823 55.2869 81.1392 55.2869 87.2304C55.2869 91.7679 57.1156 95.1367 60.8556 98.0929C63.9494 100.534 67.4144 102.239 75.0938 105.422L76.4894 105.999C84.9663 109.512 89.1669 111.637 93.1269 114.902C98.5375 119.371 101.404 124.967 101.404 132.159C101.404 137.631 99.3281 143.887 95.5881 148.727C90.9888 154.66 84.2719 158.125 75.9119 158.125C70.1162 158.125 65.1456 156.365 61.0619 153.107C58.5566 151.081 56.4272 148.631 54.7713 145.867V156.4H48.625V125.875H54.7713V145.867C54.0879 144.742 53.4659 143.581 52.9081 142.389Z" fill="white"/>
</g>
<defs>
<clipPath id="clip0_2_19656">
<rect width="220" height="220" fill="white" transform="translate(0.5)"/>
</clipPath>
</defs>
</svg>
