<svg width="221" height="220" viewBox="0 0 221 220" fill="none" xmlns="http://www.w3.org/2000/svg">
<g clip-path="url(#clip0_2_19652)">
<path d="M110.5 220C171.251 220 220.5 170.751 220.5 110C220.5 49.2487 171.251 0 110.5 0C49.7487 0 0.5 49.2487 0.5 110C0.5 170.751 49.7487 220 110.5 220Z" fill="#FEC60D"/>
<path d="M183.835 69.7598L160.199 56.1542C159.388 55.6729 158.639 55.2535 157.834 54.7929C157.05 54.346 156.287 53.8648 155.49 53.4042C150.753 50.6954 146.002 48.0692 141.32 45.2642L118.867 32.2979C117.56 31.5073 110.809 27.5404 110.52 27.5404C110.404 27.5404 109.551 28.0904 109.365 28.2073L78.6891 45.876C78.2423 46.1304 77.9329 46.3298 77.4791 46.5773C77.0892 46.7933 76.7041 47.0179 76.3241 47.251L73.9729 48.626C73.5728 48.8676 73.1695 49.1037 72.7629 49.3342L70.4529 50.6679C69.6416 51.1492 68.8785 51.5617 68.081 52.0223L63.3304 54.7379C62.9179 54.951 62.5741 55.1779 62.1754 55.4048L56.2354 58.8423C55.4104 59.3235 54.6473 59.7223 53.8429 60.1829L49.1473 62.9535C46.7891 64.301 44.4241 65.7379 42.0316 67.0373C40.9798 67.601 35.4591 70.9698 34.916 71.1142V158.523C35.356 158.564 41.3923 162.16 42.0179 162.531L51.4779 168.004C52.2685 168.485 53.0591 168.918 53.8429 169.372L58.5179 172.067C58.9166 172.273 59.2741 172.507 59.6866 172.734C60.1404 172.981 60.436 173.194 60.8966 173.421C62.0998 174.04 63.2548 174.775 64.4029 175.47L70.3566 178.9C70.7691 179.127 71.0991 179.327 71.5048 179.567C73.8285 180.97 76.2416 182.228 78.5585 183.624L86.8566 188.436C92.336 191.674 97.9254 194.692 103.377 197.965L109.86 201.719C110.892 202.413 111.27 201.629 112.892 200.742L127.096 192.547C127.88 192.094 128.643 191.654 129.468 191.193L131.785 189.866C132.177 189.653 132.541 189.426 132.933 189.185L145.961 181.644C149.852 179.313 153.867 177.202 157.759 174.865L183.698 159.836C184.076 159.609 184.454 159.382 184.853 159.162C185.265 158.942 185.657 158.633 186.125 158.53V71.1142C185.389 70.6192 184.626 70.241 183.835 69.7598ZM137.154 155.312H115.051V161.101C115.051 161.17 115.024 161.19 114.955 161.19H104.299V155.312H83.8866V138.95C83.8866 138.778 84.0929 138.634 84.196 138.537L86.2654 136.303C86.3264 136.247 86.3838 136.187 86.4373 136.124C86.485 136.058 86.5379 135.996 86.5954 135.939L87.7985 134.66L87.8123 134.639L88.1698 134.275L88.3279 134.082L88.7129 133.677L88.7541 133.629L90.0398 132.24C90.3148 131.958 90.5898 131.69 90.851 131.38L90.8648 131.367L90.906 131.312L91.7723 130.39C91.896 130.253 91.9923 130.177 92.1091 130.026L93.1541 128.912L93.326 128.74C93.3828 128.68 93.4356 128.615 93.4841 128.548L95.2373 126.678L95.251 126.664L95.2923 126.616L95.5604 126.341C95.9041 125.901 96.5229 125.351 96.8873 124.911L96.9285 124.856C97.0454 124.719 97.176 124.622 97.286 124.492L97.9666 123.756C98.4479 123.275 98.8604 122.752 99.3416 122.271L100.889 120.607L101.06 120.435L101.734 119.693C101.865 119.562 101.989 119.466 102.092 119.329C102.195 119.191 102.325 119.095 102.442 118.957L103.123 118.222C103.192 118.153 103.247 118.105 103.309 118.029L103.824 117.472C103.927 117.335 104.058 117.239 104.175 117.101C104.477 116.764 105.344 115.877 105.529 115.63C105.639 115.492 105.77 115.41 105.866 115.272C105.594 114.939 105.302 114.622 104.993 114.324L104.319 113.581L104.14 113.409C104.072 113.327 104.051 113.285 103.969 113.203C103.439 112.667 102.951 112.096 102.415 111.553L101.555 110.625C101.505 110.559 101.45 110.496 101.39 110.439L93.4841 101.955C93.4313 101.883 93.3739 101.814 93.3123 101.749L92.1435 100.491L92.1298 100.477L89.5379 97.686C89.4829 97.6173 89.4279 97.576 89.366 97.5142L88.6785 96.7579C88.211 96.2767 87.7641 95.7542 87.2898 95.2798L87.1385 95.1148L87.1248 95.101L86.616 94.5442C86.3823 94.2898 86.1348 94.056 85.9079 93.8017C85.8323 93.7192 85.8185 93.6779 85.736 93.5954C85.2685 93.121 84.8423 92.6054 84.361 92.1379C84.306 92.0692 84.251 92.0279 84.196 91.966C84.1341 91.8973 83.8866 91.6567 83.8866 91.581V75.1567H104.292V68.3367C107.88 68.3367 111.428 68.4054 115.017 68.4054V74.9367C115.017 75.0123 115.037 75.0398 115.113 75.0398H137.154V91.6154H106.746C106.925 91.8904 107.2 92.1173 107.413 92.3648L109.104 94.221C109.207 94.3585 109.317 94.4548 109.434 94.5923C109.723 94.9361 110.046 95.2317 110.328 95.5754L112.789 98.2773C113.27 98.7448 113.683 99.2742 114.144 99.7554L120.42 106.651L120.462 106.706L122.71 109.181L122.882 109.346C123.184 109.649 123.432 109.992 123.734 110.295L127.777 114.715C127.942 114.894 128.12 115.059 128.258 115.265C128.196 115.362 128.148 115.389 128.072 115.472C128.023 115.537 127.971 115.599 127.914 115.657L127.069 116.572C127.02 116.637 126.967 116.699 126.91 116.757L124.882 118.978C124.745 119.109 124.676 119.219 124.539 119.349C124.264 119.624 123.851 120.14 123.528 120.449L122.112 122.024C121.83 122.36 121.074 123.11 120.847 123.399L118.832 125.599C118.399 126.128 117.911 126.582 117.471 127.104L116.646 127.998C116.233 128.417 115.876 128.864 115.477 129.29C115.409 129.359 115.354 129.407 115.292 129.483C114.824 130.012 114.315 130.514 113.855 131.064L113.786 131.147L112.019 133.065L111.978 133.113L111.916 133.182L111.902 133.202L111.091 134.096C111.034 134.151 110.981 134.211 110.933 134.275C110.88 134.338 110.822 134.398 110.761 134.454C110.41 134.797 110.108 135.21 109.757 135.554C109.701 135.612 109.648 135.674 109.599 135.739L108.925 136.482C108.87 136.55 108.815 136.592 108.754 136.654L106.746 138.867H136.309C136.59 138.867 137.154 138.799 137.154 138.957V155.319V155.312Z" fill="white"/>
</g>
<defs>
<clipPath id="clip0_2_19652">
<rect width="220" height="220" fill="white" transform="translate(0.5)"/>
</clipPath>
</defs>
</svg>
