<svg width="221" height="220" viewBox="0 0 221 220" fill="none" xmlns="http://www.w3.org/2000/svg">
<g clip-path="url(#clip0_2_19648)">
<path d="M110.5 220C171.251 220 220.5 170.751 220.5 110C220.5 49.2487 171.251 0 110.5 0C49.7487 0 0.5 49.2487 0.5 110C0.5 170.751 49.7487 220 110.5 220Z" fill="#B30D23"/>
<path d="M116.777 145.984L110.369 157.919L103.962 145.984C65.2556 142.979 34.875 114.118 34.875 114.118C34.875 114.049 64.3963 86.0819 102.312 82.3969L107.331 73.8031L110.369 68.75L115.526 77.3438L118.427 82.3969C156.336 86.0131 185.864 114.118 185.864 114.118C185.864 114.118 155.476 142.979 116.77 145.984H116.777ZM41.2825 114.118C41.2138 114.118 70.4738 134.111 99.8644 138.339L85.5369 111.526L89.4281 104.775L93.0031 111.458L92.9344 111.526L106.87 138.957C107.991 139.026 109.111 139.026 110.239 139.026C111.359 139.026 112.418 139.026 113.539 138.957L123.776 118.552L131.242 104.638L135.133 111.389L120.806 138.27C150.196 134.111 179.449 114.599 179.449 114.049C179.449 113.568 151.585 94.9506 122.916 90.1725L127.275 97.7488L123.645 105.043L114.199 89.2169C112.924 89.137 111.647 89.0912 110.369 89.0794C109.111 89.0794 107.791 89.1481 106.471 89.2169L96.8256 105.043L93.2644 98.0856L97.8156 90.2413C69.1537 95.0881 41.2825 114.118 41.2825 114.118Z" fill="white"/>
</g>
<defs>
<clipPath id="clip0_2_19648">
<rect width="220" height="220" fill="white" transform="translate(0.5)"/>
</clipPath>
</defs>
</svg>
