<svg width="221" height="220" viewBox="0 0 221 220" fill="none" xmlns="http://www.w3.org/2000/svg">
<g clip-path="url(#clip0_2_19644)">
<path d="M110.5 220C171.251 220 220.5 170.751 220.5 110C220.5 49.2487 171.251 0 110.5 0C49.7487 0 0.5 49.2487 0.5 110C0.5 170.751 49.7487 220 110.5 220Z" fill="#0B1C26"/>
<path d="M110.5 185.625C68.7825 185.501 34.875 151.642 34.875 110C34.875 68.3581 68.7825 34.4987 110.5 34.375C152.217 34.4987 186.125 68.3581 186.125 110C186.125 151.642 152.217 185.542 110.5 185.625ZM177.566 122.031C176.767 123.872 175.279 125.326 173.42 126.082C171.562 126.838 169.481 126.835 167.624 126.074C170.299 128.865 171.969 132.612 171.969 136.73C171.969 137.94 171.804 139.068 171.557 140.195C174.389 134.448 176.417 128.336 177.566 122.038V122.031ZM170.553 122.788C171.56 122.789 172.526 122.391 173.239 121.681C173.952 120.97 174.353 120.006 174.355 118.999C174.357 117.993 173.959 117.027 173.248 116.314C172.538 115.601 171.573 115.199 170.567 115.198C170.069 115.196 169.575 115.293 169.114 115.482C168.653 115.672 168.234 115.95 167.88 116.302C167.167 117.012 166.764 117.976 166.762 118.982C166.759 119.989 167.156 120.955 167.866 121.669C168.576 122.382 169.54 122.785 170.546 122.788H170.553ZM172.258 81.3519C174.131 86.5923 174.592 92.2332 173.595 97.7082C172.598 103.183 170.179 108.3 166.579 112.544C167.766 111.823 169.124 111.434 170.512 111.416C174.479 111.416 177.731 114.455 178.067 118.374C178.404 115.624 178.611 112.874 178.611 110.041C178.657 100.124 176.487 90.3222 172.258 81.3519ZM168.381 91.9669C168.364 85.0009 165.585 78.3259 160.652 73.4073C155.719 68.4887 149.036 65.7282 142.07 65.7319C135.104 65.7282 128.421 68.4887 123.488 73.4073C118.555 78.3259 115.776 85.0009 115.759 91.9669C115.776 98.9329 118.555 105.608 123.488 110.526C128.421 115.445 135.104 118.206 142.07 118.202C149.034 118.198 155.712 115.435 160.644 110.518C165.575 105.601 168.357 98.9307 168.381 91.9669ZM141.025 136.744C141.025 131.037 144.187 125.792 149.254 123.131C142.836 124.622 136.113 124.097 130.004 121.626C135.199 125.608 139.046 131.089 141.025 137.328C141.066 137.074 141.025 136.909 141.025 136.744ZM142.531 146.905C142.523 149.431 142.213 151.946 141.609 154.399C142.861 151.903 145.411 150.322 148.209 150.322C148.602 150.32 148.994 150.361 149.378 150.446C146.161 148.792 143.621 146.069 142.194 142.746C142.414 144.121 142.524 145.509 142.531 146.905ZM156.473 146.444C159.054 146.448 161.531 145.43 163.363 143.612C165.195 141.794 166.233 139.325 166.249 136.744C166.249 131.374 161.863 127.043 156.473 127.043C151.083 127.043 146.745 131.416 146.745 136.737C146.745 142.113 151.131 146.444 156.48 146.444H156.473ZM162.901 119.048C162.915 117.762 163.245 116.504 163.864 115.376C161.089 117.939 157.897 120.008 154.424 121.495C155.098 121.419 155.765 121.337 156.473 121.337C159.252 121.33 161.98 122.079 164.366 123.503C163.415 122.21 162.904 120.646 162.908 119.041L162.901 119.048ZM110.493 114.923C114.618 114.923 118.702 115.713 122.524 117.253C116.105 112.336 111.803 105.157 110.493 97.1781C109.178 105.153 104.879 112.33 98.4688 117.253C102.297 115.727 106.379 114.935 110.5 114.916L110.493 114.923ZM110.493 72.4831C107.583 72.489 104.731 71.6663 102.271 70.1112C106.605 74.6869 109.471 80.4549 110.5 86.6731C111.554 80.4611 114.417 74.6979 118.729 70.1044C116.267 71.6607 113.413 72.4834 110.5 72.4762L110.493 72.4831ZM126.113 56.9112C126.113 60.3969 124.938 63.7863 122.772 66.5363C126.018 64.0796 129.706 62.2686 133.634 61.2013C133.463 61.2013 133.339 61.2425 133.215 61.2425C129.998 61.2425 127.234 59.2487 126.113 56.4094C126.079 56.5744 126.113 56.7462 126.113 56.9112ZM137.973 47.7125C139.691 49.1288 140.812 51.205 140.812 53.5838C140.812 56.595 139.024 59.3244 136.261 60.5344C141.799 59.5144 147.509 59.9704 152.815 61.8567C158.122 63.743 162.838 66.993 166.49 71.28C159.309 60.9736 149.451 52.8226 137.979 47.7056L137.973 47.7125ZM133.174 49.8369C132.675 49.8355 132.182 49.9323 131.721 50.1218C131.26 50.3113 130.841 50.5897 130.487 50.9411C130.134 51.2926 129.853 51.7101 129.661 52.1701C129.469 52.63 129.37 53.1232 129.368 53.6216C129.367 54.1199 129.464 54.6137 129.653 55.0746C129.843 55.5356 130.121 55.9547 130.473 56.3081C130.824 56.6614 131.242 56.9421 131.702 57.1341C132.162 57.326 132.655 57.4255 133.153 57.4269C134.161 57.4296 135.128 57.032 135.842 56.3216C136.556 55.6112 136.959 54.6462 136.962 53.6388C136.965 52.6313 136.567 51.6641 135.857 50.9498C135.146 50.2356 134.181 49.8327 133.174 49.83V49.8369ZM115.216 42.0475C117.73 42.8453 119.999 44.2689 121.812 46.1847C123.624 48.1004 124.92 50.4454 125.577 52.9994C125.717 51.0885 126.575 49.3013 127.977 47.9958C129.379 46.6903 131.223 45.9629 133.139 45.9594C133.389 45.9668 133.637 45.9943 133.882 46.0419C127.875 43.8526 121.593 42.5083 115.216 42.0475ZM100.641 56.9112C100.709 59.48 101.777 61.9207 103.618 63.7136C105.459 65.5064 107.927 66.5097 110.497 66.5097C113.066 66.5097 115.534 65.5064 117.375 63.7136C119.216 61.9207 120.284 59.48 120.352 56.9112C120.257 54.3621 119.177 51.949 117.34 50.1792C115.503 48.4094 113.051 47.4206 110.5 47.4206C107.949 47.4206 105.497 48.4094 103.66 50.1792C101.823 51.949 100.743 54.3621 100.648 56.9112H100.641ZM87.0769 46.0419C87.324 45.994 87.5746 45.9664 87.8262 45.9594C89.7446 45.9548 91.593 46.6794 92.9972 47.9866C94.4013 49.2937 95.2562 51.0856 95.3888 52.9994C96.0453 50.4462 97.3399 48.1017 99.151 46.186C100.962 44.2704 103.23 42.8463 105.743 42.0475C99.225 42.5425 92.955 43.8763 87.0769 46.0419ZM94.88 56.9112C94.8728 56.7429 94.8866 56.5743 94.9213 56.4094C94.3583 57.8326 93.3811 59.0542 92.1162 59.9158C90.8512 60.7775 89.3568 61.2397 87.8262 61.2425C87.6544 61.2425 87.5306 61.2013 87.4069 61.2013C91.3256 62.2738 95.0175 64.0888 98.2694 66.5294C96.0752 63.804 94.8792 60.4101 94.88 56.9112ZM84.0244 53.6181C84.0248 54.1165 84.1234 54.6099 84.3146 55.0701C84.5057 55.5304 84.7856 55.9485 85.1383 56.3006C85.4911 56.6527 85.9097 56.9318 86.3703 57.1221C86.8309 57.3124 87.3244 57.4101 87.8228 57.4097C88.3212 57.4092 88.8146 57.3106 89.2748 57.1195C89.7351 56.9284 90.1532 56.6484 90.5053 56.2957C90.8574 55.943 91.1365 55.5244 91.3268 55.0638C91.5171 54.6032 91.6148 54.1096 91.6144 53.6112C91.6135 52.6048 91.2128 51.6398 90.5004 50.9288C89.7881 50.2177 88.8224 49.8188 87.8159 49.8197C86.8094 49.8206 85.8445 50.2213 85.1335 50.9336C84.4224 51.646 84.0235 52.6116 84.0244 53.6181ZM54.5031 71.3212C58.1468 67.0236 62.8622 63.766 68.1712 61.8788C73.4801 59.9916 79.1937 59.542 84.7325 60.5756C83.5395 60.0554 82.501 59.236 81.7174 58.1969C80.9338 57.1577 80.4317 55.934 80.2595 54.6439C80.0874 53.3539 80.2511 52.0412 80.7348 50.833C81.2185 49.6247 82.0058 48.5617 83.0206 47.7469C71.5294 52.8356 61.6624 60.9922 54.5031 71.3212ZM52.6194 91.9738C52.6358 98.9398 55.4154 105.615 60.3483 110.533C65.2811 115.452 71.964 118.212 78.93 118.209C85.896 118.212 92.5789 115.452 97.5117 110.533C102.445 105.615 105.224 98.9398 105.241 91.9738C105.224 85.0077 102.445 78.3328 97.5117 73.4142C92.5789 68.4955 85.896 65.7351 78.93 65.7388C64.4375 65.78 52.6194 77.5225 52.6194 91.9738ZM79.975 136.744C79.975 136.909 79.9338 137.122 79.9338 137.287C81.9243 131.053 85.769 125.576 90.9544 121.584C84.8448 124.053 78.1224 124.576 71.7044 123.083C74.1956 124.392 76.2823 126.356 77.7398 128.763C79.1972 131.17 79.9701 133.93 79.975 136.744ZM58.0919 119.041C58.0987 120.656 57.5694 122.224 56.5863 123.496C58.9735 122.076 61.7011 121.33 64.4787 121.337C65.1662 121.33 65.8538 121.385 66.5275 121.502C63.0389 120.046 59.8412 117.973 57.0881 115.383C57.7481 116.483 58.0919 117.755 58.0919 119.041ZM54.7506 136.744C54.7506 139.324 55.7755 141.798 57.5999 143.623C59.4243 145.447 61.8987 146.472 64.4787 146.472C67.0588 146.472 69.5332 145.447 71.3576 143.623C73.1819 141.798 74.2069 139.324 74.2069 136.744C74.2069 131.367 69.8275 127.036 64.4787 127.036C63.2017 127.032 61.9363 127.28 60.7554 127.766C59.5744 128.252 58.5011 128.966 57.5971 129.868C56.6932 130.77 55.9763 131.842 55.4878 133.022C54.9993 134.202 54.7488 135.467 54.7506 136.744ZM71.5806 150.446C71.9587 150.404 72.3369 150.315 72.7494 150.315C75.5475 150.322 78.0981 151.896 79.3494 154.399C78.7454 151.946 78.4362 149.431 78.4281 146.905C78.4419 145.496 78.5381 144.086 78.7238 142.698C77.3281 146.039 74.805 148.782 71.5806 150.446ZM42.8912 118.339C43.056 116.445 43.9233 114.681 45.3226 113.393C46.722 112.106 48.5523 111.388 50.4537 111.382C51.8356 111.389 53.1969 111.781 54.3725 112.509C50.7731 108.265 48.3535 103.149 47.3567 97.6738C46.36 92.1988 46.8211 86.5579 48.6938 81.3175C43.2952 92.858 41.2831 105.694 42.8912 118.332V118.339ZM50.4537 115.253C49.9554 115.252 49.4617 115.349 49.0009 115.539C48.5402 115.729 48.1213 116.007 47.7683 116.359C47.4152 116.711 47.1349 117.129 46.9434 117.589C46.7518 118.049 46.6528 118.542 46.6519 119.041C46.651 119.539 46.7482 120.033 46.9381 120.493C47.128 120.954 47.4068 121.373 47.7585 121.726C48.1103 122.079 48.5282 122.359 48.9882 122.551C49.4483 122.743 49.9416 122.842 50.44 122.842C51.4465 122.844 52.4125 122.446 53.1255 121.736C53.8385 121.025 54.2401 120.061 54.2419 119.054C54.2437 118.048 53.8456 117.082 53.1352 116.369C52.4248 115.656 51.4602 115.254 50.4537 115.253ZM49.0375 136.744C49.0375 132.756 50.5912 128.934 53.3756 126.088C51.519 126.847 49.4388 126.849 47.5806 126.094C45.7225 125.338 44.2341 123.885 43.4344 122.045C44.6031 128.453 46.6175 134.537 49.45 140.195C49.1836 139.064 49.0453 137.906 49.0375 136.744ZM68.5763 151.607C66.0428 152.3 63.3745 152.334 60.8241 151.707C58.2736 151.081 55.9252 149.813 54.0013 148.026C57.645 153.409 62.0312 158.242 67.0294 162.394C65.9357 161.086 65.3306 159.438 65.3175 157.733C65.3175 155.279 66.5413 152.989 68.5763 151.614V151.607ZM69.1606 157.726C69.1606 158.678 69.5387 159.591 70.2118 160.264C70.8848 160.937 71.7976 161.315 72.7494 161.315C73.7012 161.315 74.614 160.937 75.287 160.264C75.96 159.591 76.3381 158.678 76.3381 157.726C76.3381 156.774 75.96 155.862 75.287 155.189C74.614 154.516 73.7012 154.137 72.7494 154.137C71.7976 154.137 70.8848 154.516 70.2118 155.189C69.5387 155.862 69.1606 156.774 69.1606 157.726ZM101.274 177.512C96.3795 176.031 91.9093 173.403 88.2348 169.847C84.5603 166.291 81.7875 161.909 80.1469 157.066C80.1469 157.273 80.2294 157.479 80.2294 157.733C80.2279 158.989 79.9078 160.223 79.2989 161.322C78.6901 162.42 77.8125 163.345 76.7483 164.012C75.6842 164.678 74.4683 165.063 73.2145 165.132C71.9608 165.2 70.7102 164.949 69.58 164.402C78.854 171.403 89.7642 175.916 101.274 177.512ZM136.769 146.905C136.769 139.939 134.002 133.258 129.076 128.332C124.15 123.406 117.47 120.639 110.503 120.639C103.537 120.639 96.8564 123.406 91.9306 128.332C87.0048 133.258 84.2375 139.939 84.2375 146.905C84.2521 153.863 87.0248 160.531 91.9478 165.447C96.8708 170.364 103.542 173.128 110.5 173.133C117.457 173.12 124.125 170.353 129.047 165.437C133.968 160.52 136.743 153.855 136.762 146.898L136.769 146.905ZM151.468 164.395C150.337 164.946 149.084 165.2 147.827 165.134C146.57 165.068 145.351 164.684 144.284 164.017C143.219 163.351 142.342 162.424 141.736 161.325C141.129 160.225 140.814 158.989 140.819 157.733C140.826 157.509 140.853 157.286 140.901 157.066C139.26 161.91 136.486 166.292 132.81 169.849C129.135 173.405 124.663 176.032 119.767 177.512C131.273 175.897 142.179 171.383 151.461 164.395H151.468ZM151.846 157.726C151.846 157.017 151.636 156.323 151.242 155.733C150.848 155.143 150.288 154.683 149.632 154.411C148.977 154.14 148.256 154.068 147.56 154.206C146.864 154.344 146.224 154.685 145.722 155.186C145.22 155.687 144.878 156.326 144.739 157.022C144.599 157.718 144.669 158.439 144.94 159.095C145.211 159.751 145.669 160.312 146.259 160.707C146.848 161.102 147.541 161.314 148.251 161.315C149.199 161.308 150.107 160.928 150.778 160.258C151.449 159.588 151.83 158.682 151.839 157.733L151.846 157.726ZM166.999 148.032C165.075 149.82 162.726 151.087 160.175 151.713C157.625 152.338 154.957 152.302 152.424 151.607C154.459 152.982 155.683 155.279 155.683 157.726C155.683 159.521 155.016 161.102 153.971 162.394C158.97 158.244 163.357 153.407 166.999 148.026V148.032Z" fill="white"/>
</g>
<defs>
<clipPath id="clip0_2_19644">
<rect width="220" height="220" fill="white" transform="translate(0.5)"/>
</clipPath>
</defs>
</svg>
