<svg width="221" height="220" viewBox="0 0 221 220" fill="none" xmlns="http://www.w3.org/2000/svg">
<g clip-path="url(#clip0_2_19640)">
<path d="M110.5 220C171.251 220 220.5 170.751 220.5 110C220.5 49.2487 171.251 0 110.5 0C49.7487 0 0.5 49.2487 0.5 110C0.5 170.751 49.7487 220 110.5 220Z" fill="#5B6DEE"/>
<path d="M91.9375 103.265C88.102 103.245 84.2726 103.576 80.4975 104.255C83.605 75.5171 107.557 53.7509 136.075 53.7509C153.537 53.7509 165.5 62.3034 165.5 79.9996C165.5 97.7027 151.138 106.255 130.19 106.255C114.721 106.255 107.406 103.271 91.9375 103.271V103.265ZM90.81 113.749C69.8619 113.749 55.5 122.308 55.5 140.005C55.5 157.701 67.4625 166.253 84.925 166.253C113.442 166.253 137.395 144.494 140.503 115.75C136.727 116.428 132.898 116.759 129.063 116.74C113.594 116.74 106.272 113.749 90.81 113.749Z" fill="white"/>
</g>
<defs>
<clipPath id="clip0_2_19640">
<rect width="220" height="220" fill="white" transform="translate(0.5)"/>
</clipPath>
</defs>
</svg>
