<svg width="221" height="220" viewBox="0 0 221 220" fill="none" xmlns="http://www.w3.org/2000/svg">
<g clip-path="url(#clip0_2_19634)">
<path d="M110.488 219.976C171.233 219.976 220.476 170.733 220.476 109.988C220.476 49.2434 171.233 0 110.488 0C49.7434 0 0.5 49.2434 0.5 109.988C0.5 170.733 49.7434 219.976 110.488 219.976Z" fill="url(#paint0_linear_2_19634)"/>
<path d="M74.26 82.6427C73.3808 81.5513 72.0469 80.9449 70.622 80.9449H41.2454C41.0029 80.9449 40.7906 80.854 40.6087 80.7024C40.4572 80.5508 40.3662 80.3689 40.3662 80.1567V60.3601C40.3662 60.1479 40.4572 59.966 40.6087 59.8144C40.7906 59.6325 41.0029 59.5415 41.2454 59.5718H72.2894C80.1111 59.5718 86.8717 62.7854 92.5712 69.1822L100.12 78.3984L85.4165 96.3154L74.26 82.6427ZM128.526 69.0912C134.196 62.7551 140.987 59.5718 148.899 59.5718H179.852C180.064 59.5415 180.277 59.6325 180.428 59.7537C180.58 59.9053 180.64 60.1175 180.61 60.3601V80.1567C180.61 80.3689 180.55 80.5508 180.428 80.7024C180.277 80.8843 180.064 80.9753 179.852 80.9449H150.476C149.081 80.9146 147.747 81.5513 146.838 82.6427L125.192 108.988L146.929 135.515C147.808 136.515 149.111 137.121 150.445 137.091H179.822C180.034 137.061 180.277 137.182 180.398 137.334C180.519 137.515 180.61 137.758 180.58 137.97V157.767C180.58 157.979 180.519 158.161 180.398 158.313C180.246 158.494 180.034 158.585 179.822 158.555H148.899C140.987 158.555 134.256 155.342 128.617 148.945L110.609 126.965L92.6015 148.945C86.9323 155.342 80.1414 158.555 72.2288 158.555H41.2454C41.0332 158.585 40.7906 158.464 40.6694 158.313C40.5178 158.131 40.4572 157.888 40.4875 157.676V137.879C40.4875 137.667 40.5481 137.485 40.6694 137.334C40.821 137.152 41.0332 137.061 41.2454 137.091H70.622C72.0166 137.091 73.3505 136.454 74.26 135.393L95.5119 109.442L128.526 69.0912Z" fill="#00D1FF"/>
</g>
<defs>
<linearGradient id="paint0_linear_2_19634" x1="110.503" y1="-0.000636646" x2="110.503" y2="58.207" gradientUnits="userSpaceOnUse">
<stop stop-color="#090220"/>
<stop offset="1" stop-color="#170659"/>
</linearGradient>
<clipPath id="clip0_2_19634">
<rect width="220" height="220" fill="white" transform="translate(0.5)"/>
</clipPath>
</defs>
</svg>
