<svg width="221" height="220" viewBox="0 0 221 220" fill="none" xmlns="http://www.w3.org/2000/svg">
<g clip-path="url(#clip0_2_19628)">
<path d="M110.5 220C171.251 220 220.5 170.751 220.5 110C220.5 49.2487 171.251 0 110.5 0C49.7487 0 0.5 49.2487 0.5 110C0.5 170.751 49.7487 220 110.5 220Z" fill="#199248"/>
<path d="M110.5 27.5C64.9394 27.5 28 64.4394 28 110C28 155.561 64.9394 192.5 110.5 192.5C156.061 192.5 193 155.561 193 110C193 88.1196 184.308 67.1354 168.836 51.6637C153.365 36.1919 132.38 27.5 110.5 27.5ZM129.358 180.372C119.867 182.902 109.963 183.485 100.241 182.088C90.519 180.692 81.1797 177.343 72.7848 172.245C64.3899 167.146 57.1128 160.402 51.3909 152.419C45.6691 144.436 41.6207 135.378 39.4892 125.79C37.3577 116.203 37.1871 106.283 38.9876 96.6271C40.7881 86.9716 44.5226 77.78 49.9666 69.6048C55.4105 61.4295 62.4514 54.4396 70.666 49.0553C78.8806 43.671 88.0992 40.0034 97.7675 38.2731C116.25 35.0075 135.28 39.0009 150.891 49.421C166.502 59.8412 177.489 75.884 181.562 94.2057C185.635 112.527 182.48 131.714 172.755 147.767C163.029 163.82 147.484 175.5 129.358 180.372Z" fill="white"/>
<path d="M130.644 50.0993C130.644 53.6537 130.644 57.2012 130.781 60.7555C126.027 58.9105 121.077 57.6142 116.028 56.8918C115.821 53.6674 116.743 50.1268 115.801 47.0674C112.204 46.811 108.595 46.7674 104.993 46.9368C104.815 50.2505 104.883 53.578 104.993 56.9055C99.9425 57.6612 94.9932 58.985 90.2396 60.8518C90.3427 57.263 90.3771 53.6812 90.3289 50.0855C77.7791 54.3113 66.872 62.3694 59.1455 73.1238C51.4189 83.8782 47.2627 96.7864 47.2627 110.029C47.2627 123.271 51.4189 136.179 59.1455 146.934C66.872 157.688 77.7791 165.746 90.3289 169.972C90.3289 166.452 90.2946 162.946 90.2258 159.439C94.9434 161.286 99.8674 162.553 104.89 163.214C104.89 166.438 104.89 169.662 104.698 172.852C108.548 173.402 112.453 173.402 116.303 172.852C116.127 169.677 116.036 166.497 116.028 163.317C121.054 162.61 125.987 161.356 130.74 159.577C130.631 163.059 130.631 166.544 130.74 170.027C143.285 165.792 154.184 157.726 161.902 146.968C169.62 136.209 173.767 123.3 173.758 110.06C173.75 96.8195 169.587 83.9156 161.856 73.1669C154.124 62.4182 143.215 54.3668 130.665 50.1474L130.651 50.0993H130.644ZM140.063 145.902C131.758 153.431 119.96 155.211 109.125 155.053C99.6171 155.053 89.5521 152.475 82.6839 145.593C79.0402 142.073 76.9777 137.371 75.1283 132.702C81.7696 130.984 88.6239 130.406 95.3133 128.976C95.7292 130.999 96.6716 132.876 98.0454 134.417C99.4192 135.959 101.176 137.11 103.137 137.756C109.208 139.653 116.729 139.921 121.789 135.59C125.378 132.613 125.481 126.102 121.033 123.875C110.603 118.485 97.6096 120.314 87.7508 113.494C74.1727 104.934 73.1689 82.233 86.4583 72.993C96.6196 65.8637 110.205 64.9768 121.988 67.8368C132.645 70.5318 140.241 79.5655 143.899 89.5687C137.34 90.703 130.788 91.8649 124.23 92.9718C122.504 82.5562 107.922 80.0812 100.676 86.1518C96.5508 89.5824 97.6096 96.8905 102.766 98.7193C114.041 103.394 127.585 102.047 137.574 109.871C149.172 117.736 150.382 136.518 140.056 145.896L140.063 145.902Z" fill="white"/>
</g>
<defs>
<clipPath id="clip0_2_19628">
<rect width="220" height="220" fill="white" transform="translate(0.5)"/>
</clipPath>
</defs>
</svg>
