<svg width="221" height="220" viewBox="0 0 221 220" fill="none" xmlns="http://www.w3.org/2000/svg">
<g clip-path="url(#clip0_2_19624)">
<path d="M110.5 220C171.251 220 220.5 170.751 220.5 110C220.5 49.2487 171.251 0 110.5 0C49.7487 0 0.5 49.2487 0.5 110C0.5 170.751 49.7487 220 110.5 220Z" fill="#FF3B81"/>
<path d="M58.6556 152.219V153.189H48.5012V134.853L48.185 135.871L38.4844 132.942L43.9637 115.273L43.29 116.263L34.875 110.674L45.3938 95.315L44.39 96.1125L37.9962 88.3438L53.1281 76.2712L51.2031 77.0069L47.5594 67.6706L65.6337 60.8369L63.5163 60.9744L62.815 51.0056L81.735 49.6994L80.0231 49.3144L82.3056 39.5725L100.387 43.6838L99.2456 43.0375L104.312 34.375L120.077 43.34L119.458 42.6938L126.883 35.8737L139.162 48.84L138.901 48.3175L148.024 43.9312L155.903 59.84L155.834 59.3931L165.851 57.8256L168.807 76.2025L169.013 74.8963L179.044 76.4569L176.046 95.1019L176.782 93.6031L185.905 97.9894L177.462 115.046L178.7 113.74L186.118 120.567L172.994 134.427L174.582 133.526L179.656 142.189L163.163 151.566L164.819 151.188L167.109 160.93L148.876 165.076L150.286 165.172L149.577 175.147L131.331 173.889L132.259 174.24L128.616 183.576L111.153 176.976L112.26 177.856L105.873 185.625L91.4562 174.123L92.1712 175.161L83.7562 180.757L73.4437 165.701L73.7531 166.691L64.0456 169.62L58.6556 152.219ZM58.6556 140.339L64.9944 138.428L69.9169 154.309L75.4031 150.666L84.7669 164.347L88.9538 159.259L101.934 169.613L104.257 163.653L119.905 169.565L120.359 163.109L137.106 164.264L135.594 157.836L152.011 154.103L148.608 148.301L163.259 139.968L158.24 135.362L169.811 123.138L163.637 120.168L171.083 105.139L164.331 104.081L166.985 87.5806L160.522 88.5844L157.876 72.0844L152.059 74.8756L144.669 59.9569L139.925 64.3088L128.499 52.2294L125.226 57.8119L110.754 49.5825L109.256 55.9625L92.9756 52.2569L93.45 58.9187L76.7369 60.0669L79.205 66.4125L63.4613 72.3662L67.7031 77.5156L54.4894 88.055L60.065 91.7606L50.55 105.669L56.9644 107.608L51.9937 123.633H58.6625L58.6556 140.339ZM108.499 121.605C108.499 119.075 107.606 117.143 105.825 115.802C104.037 114.434 100.841 113.004 96.2069 111.519C91.5731 110.007 87.9088 108.515 85.2069 107.051C77.8506 103.063 74.1656 97.7006 74.1656 90.9425C74.1656 87.4294 75.1419 84.3013 77.1012 81.565C79.095 78.7944 81.9275 76.6356 85.6056 75.0887C89.3181 73.5419 93.4775 72.7719 98.0769 72.7719C102.711 72.7719 106.836 73.6175 110.452 75.3156C114.075 76.9794 116.88 79.3444 118.874 82.4106C120.903 85.5137 121.957 89.1534 121.899 92.8606H108.541C108.541 89.8838 107.606 87.5737 105.736 85.9375C103.866 84.2738 101.239 83.4419 97.8569 83.4419C94.5913 83.4419 92.0475 84.1363 90.2394 85.5388C89.3767 86.1557 88.6781 86.9745 88.2047 87.9237C87.7314 88.8728 87.4976 89.9234 87.5238 90.9838C87.5238 93.0944 88.5756 94.8681 90.6862 96.2981C92.8175 97.7212 95.9525 99.0619 100.077 100.313C107.681 102.603 113.216 105.449 116.688 108.838C120.166 112.234 121.899 116.462 121.899 121.516C121.899 127.146 119.774 131.56 115.533 134.778C111.284 137.961 105.571 139.556 98.3862 139.556C93.7031 139.618 89.0597 138.69 84.76 136.833C80.6694 134.984 77.5344 132.467 75.3688 129.284C73.2306 126.101 72.1581 122.409 72.1581 118.216H85.5644C85.5644 125.386 89.8406 128.975 98.3862 128.975C101.562 128.975 104.044 128.336 105.825 127.05C106.688 126.436 107.384 125.616 107.851 124.666C108.318 123.715 108.541 122.663 108.499 121.605ZM149.268 81.7438L136.391 128.851L125.783 128.109L133.806 79.5437L149.268 81.7438ZM138.034 133.76L134.686 150.404L120.579 146.286L123.817 130.322L138.034 133.76Z" fill="white"/>
</g>
<defs>
<clipPath id="clip0_2_19624">
<rect width="220" height="220" fill="white" transform="translate(0.5)"/>
</clipPath>
</defs>
</svg>
