<svg width="221" height="220" viewBox="0 0 221 220" fill="none" xmlns="http://www.w3.org/2000/svg">
<g clip-path="url(#clip0_2_19620)">
<path d="M110.5 220C171.251 220 220.5 170.751 220.5 110C220.5 49.2487 171.251 0 110.5 0C49.7487 0 0.5 49.2487 0.5 110C0.5 170.751 49.7487 220 110.5 220Z" fill="#00B098"/>
<path d="M41.75 85.1881V82.7406H99.6169V85.1881H41.75ZM41.75 78.0725V75.625H99.6169V78.0725H41.75ZM66.1563 151.223V90.0831H68.48V151.223H66.1563ZM72.8937 151.223V90.0831H75.2106V151.223H72.8937ZM177.614 146.217L151.503 118.628L153.139 116.902L179.25 144.485L177.614 146.217ZM114.068 75.625L140.179 103.214L138.543 104.94L112.432 77.3575L114.068 75.625ZM172.849 151.25L146.738 123.661L148.374 121.928L174.486 149.517L172.849 151.25ZM109.311 80.6575L135.422 108.24L133.779 109.973L107.668 82.39L109.311 80.6575ZM146.58 113.438L148.223 111.705L177.614 80.6575L179.25 82.39L149.859 113.438L148.223 115.17L145.102 118.47L143.459 120.202L114.075 151.25L112.439 149.517L141.829 118.47L143.466 116.737L146.58 113.438ZM143.459 106.672L172.856 75.625L174.493 77.3575L145.102 108.405L143.466 110.138L140.344 113.438L138.701 115.17L109.317 146.217L107.674 144.485L137.065 113.438L138.701 111.705L141.829 108.405L143.459 106.672Z" fill="white"/>
</g>
<defs>
<clipPath id="clip0_2_19620">
<rect width="220" height="220" fill="white" transform="translate(0.5)"/>
</clipPath>
</defs>
</svg>
