<svg width="221" height="220" viewBox="0 0 221 220" fill="none" xmlns="http://www.w3.org/2000/svg">
<g clip-path="url(#clip0_2_19616)">
<path d="M110.5 220C171.251 220 220.5 170.751 220.5 110C220.5 49.2487 171.251 0 110.5 0C49.7487 0 0.5 49.2487 0.5 110C0.5 170.751 49.7487 220 110.5 220Z" fill="#1C1C1C"/>
<path d="M108.541 92.3532C110.645 93.2126 112.749 92.7795 114.433 92.3532C115.698 96.6432 117.802 100.5 119.899 102.212C118.641 112.937 114.852 116.794 110.645 116.794C104.76 116.794 101.811 104.357 101.811 102.219C103.076 101.36 106.864 98.7814 108.548 92.3532H108.541ZM102.23 130.09C104.76 127.945 106.437 124.514 108.541 118.939C110.226 119.798 112.749 119.365 114.433 118.939C115.698 124.941 116.956 128.805 119.899 130.516C119.06 137.378 114.852 142.094 111.064 142.094C105.599 142.094 103.076 133.521 102.23 130.09ZM68.5768 143.38C70.2611 141.235 70.2611 137.811 69.4224 131.376C70.6805 131.802 71.9455 131.802 72.7911 131.376C75.3074 137.378 77.4111 141.235 80.7799 143.38C81.1993 146.384 80.7799 149.815 79.5149 150.241C74.888 152.386 70.6805 146.81 68.5836 143.38H68.5768ZM50.908 131.802C51.7536 131.802 52.173 131.802 53.0118 132.235C55.9611 139.949 61.0074 144.239 61.0074 144.239C62.6918 147.67 63.5305 151.1 62.2655 151.1C58.4843 151.526 55.5349 148.955 52.5924 143.38C53.0118 142.094 52.5924 141.235 50.908 131.802ZM39.5505 131.802C43.758 149.814 51.7536 148.955 51.3343 148.096C49.6499 145.098 47.9655 143.813 46.2811 142.527C42.4999 138.663 39.5505 130.516 39.5505 131.802ZM90.8724 143.38C93.8218 141.235 94.2411 136.518 94.6605 130.523C96.3449 130.943 98.4418 130.943 99.7068 130.523C100.552 134.373 101.811 139.949 105.599 142.527C105.179 147.243 103.914 149.815 100.972 150.241C98.868 151.1 92.9761 151.1 90.8724 143.38ZM54.6961 130.09C56.3805 127.945 56.7999 124.514 57.2193 119.798C58.4843 120.224 60.1686 120.224 61.0005 119.798C62.2655 125.367 64.3693 128.805 66.8993 130.523C67.738 139.523 66.8993 142.527 65.2149 142.527C61.4336 142.527 56.3805 134.373 54.6961 130.083V130.09ZM41.6543 130.09C41.6543 129.231 42.0736 123.655 42.4999 119.798H44.1774C46.2811 127.945 49.2305 130.523 49.2305 130.523C51.3343 140.382 51.3343 142.953 49.643 142.094C45.8618 140.808 42.9193 133.521 41.6543 130.09ZM75.3074 130.09C77.4111 128.371 78.6761 125.374 79.5149 119.798C81.6186 120.651 83.7224 120.224 84.9874 119.798C86.2455 125.367 88.3561 128.805 91.2986 130.523C91.2986 135.233 90.8724 142.953 84.9874 141.661C79.9343 140.382 75.7336 131.802 75.3074 130.09ZM71.5261 128.805C66.473 128.805 63.5305 120.651 63.5305 118.079C66.0536 115.508 67.3118 110.792 68.5768 102.645C69.4224 103.071 70.6805 103.071 71.9455 102.645C72.3649 111.651 74.888 115.508 76.9918 117.653C76.153 124.941 74.0493 128.805 71.5261 128.805ZM45.4424 118.079C46.2811 116.361 46.2811 115.935 48.8111 102.645H50.908C50.908 111.651 53.4311 115.935 54.6961 117.653C54.2768 122.37 55.1155 128.805 51.3274 128.805C49.6499 128.805 47.5461 126.659 45.4424 118.079ZM37.0274 103.071C38.2924 103.504 37.4468 114.649 39.1311 118.513C39.1311 118.513 39.1311 129.231 38.2924 128.371C31.9811 120.651 36.1886 102.645 37.0274 103.071ZM87.5105 118.079C90.453 115.934 92.1374 111.218 94.6605 102.645C96.3449 103.071 98.4418 103.071 99.7068 102.645C100.552 109.073 102.23 113.796 105.599 117.22C104.76 124.081 101.391 128.805 97.1836 128.805C90.453 128.805 87.9299 119.365 87.5105 118.079ZM53.0118 101.36C56.3805 100.074 58.4843 92.7795 58.9036 91.9201C59.3665 92.3351 59.9663 92.5647 60.588 92.5647C61.2097 92.5647 61.8095 92.3351 62.2724 91.9201C62.2724 97.4957 63.9499 100.074 65.2149 100.926C63.9499 108.214 62.2655 116.794 58.4774 116.794C55.1155 116.794 53.4311 109.073 53.0118 101.36ZM42.493 117.22C39.5505 117.22 38.7118 106.076 39.5505 101.36C39.5505 101.36 42.0736 97.4957 43.758 91.9201C44.1774 91.9201 45.023 92.3532 45.4424 91.9201C45.023 97.4957 45.8618 100.074 46.7005 101.36C46.7005 101.36 44.6036 117.22 42.4999 117.22H42.493ZM74.4686 101.36C76.153 100.5 79.5149 95.7839 81.1993 91.4939C82.8836 92.3532 84.568 92.3532 86.6649 91.9201C87.5105 96.6432 88.7686 99.6407 91.718 101.36C90.453 109.073 87.9299 116.794 82.4643 116.794C77.4111 116.794 74.888 106.502 74.4686 101.36ZM78.2499 89.782C75.7336 96.6432 73.2036 100.5 69.8418 100.5C65.6343 100.5 65.2149 91.4939 65.2149 90.6345C68.5836 88.0632 71.0999 82.9207 73.2036 78.6307H76.153C75.3074 85.0589 76.9918 88.0632 78.2568 89.782H78.2499ZM57.6386 79.057C55.5349 85.0589 56.3805 88.0632 57.2261 90.2083C53.8574 98.7814 52.173 100.933 49.6499 100.933C47.1268 100.5 47.1268 95.3508 47.9655 91.0676C50.4886 89.3489 55.9611 79.4901 55.9611 79.057H57.6386ZM45.4424 79.4901C46.7005 79.057 42.0736 85.492 42.4999 88.4964C42.9124 92.7795 37.8661 100.074 37.4468 99.6407C35.7693 99.2145 39.1311 83.7733 45.4424 79.4901ZM105.179 89.782C103.914 94.4982 102.23 100.5 95.0799 100.5C91.2986 100.074 89.1949 94.9314 88.3493 90.6345C92.5568 87.637 94.6605 82.4876 95.9255 78.6307C97.1836 79.057 99.2943 79.057 100.552 78.6307C101.391 85.0589 103.495 88.0632 105.179 89.782ZM47.9655 78.1976C48.8043 77.7714 54.2768 70.4839 57.2193 70.4839C58.9036 70.9101 54.2768 75.2001 54.6961 77.3451C53.4311 79.4901 47.5461 90.2014 45.4424 90.2014C43.758 90.2014 43.758 84.6326 47.9655 78.1976ZM151.455 131.376C151.029 137.804 151.029 141.235 152.294 143.38C150.609 146.817 145.982 151.96 141.362 150.241C139.671 149.815 139.671 146.384 140.091 143.38C143.879 141.235 146.402 136.951 148.086 131.376C148.925 131.802 150.19 131.802 151.455 131.376ZM168.278 131.376C168.697 131.802 169.543 131.802 170.382 130.943C168.697 140.382 168.278 141.235 168.697 142.527C165.755 148.096 162.812 150.241 159.024 150.241C157.34 150.241 158.186 147.243 160.289 143.38C160.289 143.38 165.336 139.096 168.278 131.376ZM175.016 142.527C173.324 144.239 171.647 145.098 170.382 148.096C169.962 148.955 177.958 149.814 182.159 131.802C181.32 130.516 178.79 138.663 175.009 142.527H175.016ZM126.629 131.376C126.629 136.518 127.894 141.235 130.417 144.239C128.314 151.526 122.429 151.526 120.325 151.1C117.376 150.241 116.537 147.67 115.698 143.38C119.06 140.382 120.744 135.233 121.583 131.376C123.267 131.802 124.952 131.802 126.629 131.376ZM164.49 119.365C164.49 124.514 164.916 127.945 167.02 129.657C165.336 133.947 159.87 142.101 156.501 142.101C154.817 142.101 153.978 139.096 154.817 130.09C157.34 128.371 159.444 124.081 160.709 119.365C161.286 119.689 161.937 119.859 162.599 119.859C163.261 119.859 163.912 119.689 164.49 119.365ZM179.636 120.224C179.636 123.662 179.636 129.231 180.481 130.516C178.797 133.954 175.854 141.241 172.486 142.527C170.382 142.953 170.801 140.382 172.905 130.943C172.905 130.943 175.854 127.945 177.958 120.224H179.636ZM142.194 119.365C143.04 125.374 143.879 128.371 146.402 129.657C145.989 131.802 141.356 140.382 136.729 141.234C130.837 142.527 130.417 134.373 130.417 130.09C133.36 128.371 135.464 124.514 136.729 119.365C137.994 119.798 140.097 120.224 142.194 119.365ZM158.186 118.079C157.759 120.651 154.397 128.805 150.19 128.805C147.667 128.805 145.563 124.515 144.724 117.653C146.828 115.935 149.351 111.651 149.771 102.645C150.852 103.075 152.057 103.075 153.139 102.645C154.817 110.366 156.082 115.508 158.186 118.079ZM172.905 102.645C175.009 115.935 175.428 116.368 176.274 118.079C174.17 126.226 172.066 128.805 170.382 128.805C166.601 128.805 167.439 121.943 167.013 117.653C168.697 115.935 170.801 111.651 170.801 102.645C171.647 103.071 172.066 102.645 172.905 102.645ZM181.739 118.079C183.843 114.649 183.004 103.505 183.843 102.645C185.108 102.212 188.889 121.084 182.585 127.945C181.739 128.805 181.739 118.079 181.739 118.079ZM127.894 102.645C129.159 111.218 131.263 115.934 135.044 118.079C134.625 119.365 131.263 128.805 125.371 128.805C120.744 129.231 118.221 123.655 116.956 117.22C119.899 113.796 122.002 109.073 122.848 102.645C123.687 103.071 125.791 103.071 127.894 102.645ZM162.812 91.9201C162.812 92.7795 165.336 100.074 168.278 102.212C168.278 109.499 166.174 117.653 162.812 117.653C159.024 117.653 157.34 109.506 156.075 101.786C157.34 100.5 159.024 97.4957 159.024 92.3532C159.641 92.5989 160.31 92.6879 160.969 92.6123C161.629 92.5367 162.26 92.2989 162.806 91.9201H162.812ZM181.739 101.36C182.159 106.076 181.32 117.22 179.216 116.794C177.112 116.794 175.009 100.926 175.009 100.926C175.854 99.6408 176.693 96.6432 176.274 91.9201C176.505 92.1283 176.805 92.2436 177.116 92.2436C177.427 92.2436 177.727 92.1283 177.958 91.9201C179.636 97.4957 181.739 101.36 181.739 101.36ZM140.517 91.9201C142.194 95.7839 145.144 100.5 147.667 101.786C147.247 106.935 144.298 117.22 139.671 117.22C133.36 117.653 131.682 109.933 130.417 101.786C132.941 100.067 134.625 96.6432 135.044 92.3532C136.729 92.7795 138.826 92.7795 140.517 91.9201ZM151.036 100.074C148.086 100.5 145.563 96.6364 142.621 89.782C144.298 88.0632 145.563 84.6326 144.724 78.6307C145.982 79.057 146.828 79.057 147.667 78.6307C150.19 83.347 152.713 88.0632 155.656 90.2083C155.656 91.4939 155.243 100.074 151.029 100.074H151.036ZM164.49 89.782C164.916 88.0632 165.755 85.0589 163.232 78.6307H164.916C164.916 79.057 170.801 89.3557 172.905 90.6345C173.751 95.3507 173.751 100.074 171.221 100.5C169.124 100.5 167.439 98.3551 164.49 89.7751V89.782ZM178.79 88.4895C179.216 85.492 175.009 79.057 175.428 79.4832C182.166 83.7732 184.689 99.2145 183.424 99.6407C183.004 100.074 178.377 92.3533 178.797 88.4895H178.79ZM125.371 100.074C119.06 100.5 117.376 94.4982 116.117 89.782C118.221 88.4895 120.325 84.6326 120.744 78.6307C122.002 79.057 124.113 79.057 125.371 78.6307C126.629 82.4876 128.74 87.637 132.102 90.2083C131.682 95.3508 129.579 99.6407 125.364 100.074H125.371ZM164.49 70.4839C166.594 70.4839 172.905 77.7714 173.324 78.1976C177.958 85.0589 177.958 90.2083 176.274 90.2083C173.751 90.2083 168.278 79.4832 167.02 77.3451C167.432 75.2001 162.812 70.4839 164.49 70.4839ZM71.0999 71.7695C70.2611 74.3407 69.8418 76.912 71.0999 78.1976C68.5768 83.347 64.3693 90.6414 60.5811 90.2083C56.3805 89.3489 59.7424 79.4832 60.1686 78.6307C62.6918 77.3451 68.5768 69.1982 70.6874 69.1982C71.9455 69.6245 71.0999 71.7695 71.0999 71.7695ZM90.8724 71.3432C90.8724 73.9145 91.2986 76.912 93.3955 78.1976C91.718 83.347 88.3493 90.2082 82.8768 89.782C79.0955 89.3489 78.2568 82.9207 79.0955 78.1976C82.8768 76.912 86.2455 68.7651 88.7686 68.7651C90.8724 68.7651 90.8724 70.9101 90.8724 71.3432ZM150.616 78.1976C151.455 76.912 151.455 74.3476 150.616 71.7695C150.616 71.3432 149.771 69.1982 151.029 69.1982C153.132 69.1982 159.024 77.3451 161.547 78.6307C161.967 79.4901 165.329 89.3558 161.128 90.2083C156.921 90.6345 153.132 82.9207 150.609 78.1976H150.616ZM128.314 78.1976C129.998 76.912 130.417 73.9145 130.837 71.3432C130.837 70.9101 130.837 68.7651 132.941 68.7651C135.044 68.3389 139.252 76.912 142.621 78.1976C143.879 83.7732 143.033 89.3489 138.832 89.782C132.941 90.6345 129.998 82.9207 128.314 78.1976ZM110.645 68.7651C114.852 68.7651 114.852 76.912 118.221 78.6307C118.221 80.7758 116.956 90.2083 110.226 90.2083C104.334 90.2083 103.076 82.4876 102.656 78.6307C107.702 76.4857 106.025 68.7651 110.645 68.7651Z" fill="white"/>
</g>
<defs>
<clipPath id="clip0_2_19616">
<rect width="220" height="220" fill="white" transform="translate(0.5)"/>
</clipPath>
</defs>
</svg>
