<svg width="221" height="220" viewBox="0 0 221 220" fill="none" xmlns="http://www.w3.org/2000/svg">
<g clip-path="url(#clip0_2_19612)">
<path d="M110.5 220C171.251 220 220.5 170.751 220.5 110C220.5 49.2487 171.251 0 110.5 0C49.7487 0 0.5 49.2487 0.5 110C0.5 170.751 49.7487 220 110.5 220Z" fill="#F2941B"/>
<path d="M114.391 34.375H114.467C128.712 48.4688 142.799 62.7 156.961 76.8694H192.299L112.755 189.571C111.435 176.337 110.417 163.103 109.249 149.875C120.771 133.299 132.603 116.875 144.126 100.375L117.815 74.1469C117.791 71.0448 117.532 67.9489 117.038 64.8862C116.179 54.7662 115.636 44.495 114.391 34.375ZM28.0756 147.537C54.7712 110.027 81.2331 72.3594 107.853 34.7669L111.201 74.6144C99.6031 91.19 87.9294 107.539 76.3312 124.039C84.9731 132.674 93.6081 141.467 102.408 150.109C103.577 163.336 104.588 176.729 105.914 190.039H105.749L63.4887 147.696C51.6637 147.854 39.8319 147.62 28 147.854V147.537H28.0756Z" fill="white"/>
</g>
<defs>
<clipPath id="clip0_2_19612">
<rect width="220" height="220" fill="white" transform="translate(0.5)"/>
</clipPath>
</defs>
</svg>
