<svg width="221" height="220" viewBox="0 0 221 220" fill="none" xmlns="http://www.w3.org/2000/svg">
<g clip-path="url(#clip0_2_19608)">
<path d="M110.5 220C171.251 220 220.5 170.751 220.5 110C220.5 49.2487 171.251 0 110.5 0C49.7487 0 0.5 49.2487 0.5 110C0.5 170.751 49.7487 220 110.5 220Z" fill="#01AEF0"/>
<path fill-rule="evenodd" clip-rule="evenodd" d="M145.35 129.868C145.26 144.127 137.024 156.268 123.886 161.252C120.806 162.421 117.602 163.28 114.412 164.078C112.508 164.559 111.47 165.501 111.318 167.584C111.126 170.21 110.858 172.83 110.493 175.422C110.053 178.488 109.001 179.189 106.183 178.515C101.329 177.36 100.806 176.577 101.453 171.482C101.508 171.049 101.57 170.616 101.618 170.176C102.099 166.003 101.508 165.405 97.5133 165.604C95.719 165.693 94.9696 166.58 94.7977 168.34C94.564 170.87 94.3165 173.407 93.904 175.903C93.4915 178.46 92.419 179.093 89.9577 178.557C84.7052 177.422 84.3202 176.838 85.0077 171.283C85.874 164.387 85.8533 164.463 79.4871 162.545C76.6683 161.692 73.9321 160.51 71.1752 159.417C69.4977 158.757 68.9477 157.505 69.4015 155.642C69.979 153.27 70.3777 150.843 70.8727 148.444C71.7252 144.353 73.7052 143.116 77.4865 144.601C84.1827 147.234 91.0577 148.857 98.2146 149.028C104.67 149.187 111.057 148.76 116.949 145.591C120.84 143.494 123.7 140.421 125.137 136.014C127.268 129.469 125.357 124.175 119.225 121.542C114.171 119.377 108.747 118.173 103.653 116.097C99.129 114.255 94.4265 112.412 90.5215 109.518C81.7421 103.028 80.209 93.4303 82.134 83.1797C84.3202 71.6228 91.3946 64.129 101.893 60.1484C104.691 59.0965 105.956 57.6253 106.004 54.4834C106.045 51.0803 106.588 47.6772 107.001 44.2878C107.317 41.6822 108.335 40.9534 110.768 41.3522C115.938 42.1978 116.557 43.0159 116.048 48.3853C115.849 50.4822 115.677 52.579 115.43 54.6622C115.223 56.4153 115.78 57.2197 117.616 57.2747C121.803 57.3984 121.981 57.3228 122.476 52.9915C122.793 50.2072 123.026 47.4159 123.405 44.6384C123.817 41.5584 124.814 40.8572 127.653 41.4347C132.431 42.4178 132.961 43.1465 132.493 48.124C132.287 50.3034 132.184 52.5034 131.806 54.6553C131.373 57.1303 132.129 58.2784 134.59 58.849C139.272 59.9353 143.906 61.3103 148.505 62.7403C151.963 63.8128 152.101 64.2047 151.434 67.8003C151.042 69.9522 150.65 72.1109 150.141 74.2353C149.193 78.2365 147.199 79.4259 143.39 78.1472C136.873 75.9472 130.328 73.9603 123.418 73.6647C117.368 73.4103 111.401 73.4997 106.148 77.3015C98.7508 82.6503 98.7096 93.5265 106.575 98.1053C111.58 101.02 117.361 102.505 122.786 104.65C126.093 105.957 129.489 107.084 132.665 108.665C141.176 112.914 145.446 120.016 145.35 129.875" fill="white"/>
</g>
<defs>
<clipPath id="clip0_2_19608">
<rect width="220" height="220" fill="white" transform="translate(0.5)"/>
</clipPath>
</defs>
</svg>
