<svg width="221" height="220" viewBox="0 0 221 220" fill="none" xmlns="http://www.w3.org/2000/svg">
<g clip-path="url(#clip0_2_19600)">
<path d="M110.5 220C171.251 220 220.5 170.751 220.5 110C220.5 49.2487 171.251 0 110.5 0C49.7487 0 0.5 49.2487 0.5 110C0.5 170.751 49.7487 220 110.5 220Z" fill="#2683FF"/>
<path d="M172.217 130.426C175.102 132.156 177.198 134.943 178.062 138.194C178.926 141.446 178.489 144.906 176.844 147.84C173.31 154.041 165.28 156.241 158.962 152.776C158.343 152.439 157.807 152.041 157.257 151.642L123.39 170.782C123.473 171.401 123.521 172.026 123.528 172.652C123.528 173.388 123.528 174.054 123.39 174.783C122.235 181.796 115.505 186.594 108.362 185.46C101.225 184.326 96.3304 177.719 97.4854 170.72L63.4061 151.443C62.8784 151.821 62.3348 152.176 61.7767 152.508C61.2267 152.776 60.6836 153.106 60.0717 153.306C56.859 154.593 53.269 154.566 50.0758 153.231C46.8825 151.897 44.3417 149.36 43.0011 146.169C40.2854 139.569 43.5511 132.096 50.2817 129.429V90.8738C49.6637 90.6746 49.0708 90.4047 48.5148 90.0694C48.0049 89.7529 47.5051 89.4204 47.0161 89.0725C45.1633 87.7263 43.706 85.9072 42.7966 83.8053C41.8871 81.7034 41.5589 79.3959 41.8461 77.1238C42.1504 74.8463 43.056 72.691 44.4698 70.8797C45.8836 69.0683 47.7544 67.6664 49.8898 66.8181C52.0401 65.9512 54.379 65.6589 56.6766 65.9699C58.9741 66.2808 61.1511 67.1845 62.9936 68.5919L97.4098 49.0462C97.3411 48.4481 97.2723 47.9188 97.2723 47.3138C97.2723 40.2463 103.322 34.375 110.534 34.375C117.739 34.375 123.652 40.1088 123.659 47.245C123.659 47.85 123.59 48.3794 123.521 48.9844L158.205 68.6606C159.713 67.5561 161.436 66.7813 163.262 66.3868C165.089 65.9922 166.978 65.9868 168.807 66.3707C170.636 66.7546 172.363 67.5194 173.877 68.6151C175.391 69.7109 176.657 71.1132 177.593 72.7306C181.12 78.9319 178.81 86.8037 172.485 90.2756C171.873 90.5369 171.261 90.8738 170.649 91.0731V129.697C171.192 129.903 171.715 130.144 172.21 130.426H172.217ZM174.602 146.568C175.274 145.459 175.717 144.228 175.906 142.945C176.095 141.663 176.026 140.355 175.703 139.1C175.379 137.844 174.808 136.666 174.023 135.635C173.238 134.603 172.254 133.739 171.13 133.093C169.279 132.026 167.136 131.574 165.011 131.802C162.886 132.031 160.888 132.928 159.305 134.365L143.727 125.496C145.591 121.73 146.012 117.411 144.91 113.355C143.808 109.3 141.26 105.788 137.745 103.483C137.308 102.011 136.737 100.582 136.04 99.2131L159.574 86.1369C162.021 88.4056 165.465 89.3338 168.752 88.6119C170.032 88.3356 171.244 87.8077 172.318 87.059C173.393 86.3102 174.308 85.3555 175.01 84.2502C175.712 83.145 176.188 81.9112 176.41 80.6205C176.631 79.3299 176.594 78.0081 176.3 76.7319C175.077 71.3969 169.632 68.1312 164.2 69.3275C162.921 69.6031 161.708 70.1301 160.633 70.8781C159.559 71.6261 158.644 72.58 157.941 73.6846C157.238 74.7892 156.761 76.0224 156.539 77.3126C156.316 78.6029 156.352 79.9244 156.645 81.2006L132.844 94.4762C128.224 89.0725 113.532 85.47 113.532 85.47V56.0519C115.002 55.6293 116.343 54.8475 117.435 53.7769C118.528 52.7063 119.336 51.3806 119.788 49.9194C120.142 48.7549 120.261 47.5315 120.137 46.3206C120.014 45.1097 119.65 43.9355 119.068 42.8667C118.485 41.7979 117.696 40.8558 116.745 40.0954C115.795 39.3351 114.702 38.7717 113.532 38.4381C108.568 36.9738 103.329 39.6412 101.83 44.5156C101.477 45.6797 101.359 46.9024 101.483 48.1125C101.608 49.3227 101.971 50.496 102.554 51.564C103.136 52.632 103.925 53.5734 104.875 54.3333C105.825 55.0932 106.917 55.6564 108.087 55.99V86.0063C108.087 86.0063 100.07 88.605 96.9423 91.135C93.6195 91.2114 90.3599 92.0587 87.4204 93.61L65.0423 81.0013C65.4194 79.4259 65.3928 77.7809 64.9649 76.2186C64.5371 74.6563 63.7219 73.2272 62.5948 72.0638C60.7724 70.1423 58.2666 69.0159 55.6198 68.9284C52.973 68.8409 50.3983 69.7993 48.4529 71.5962C47.4896 72.4702 46.7113 73.5284 46.164 74.7083C45.6168 75.8882 45.3117 77.1659 45.2668 78.4658C45.222 79.7657 45.4382 81.0614 45.9028 82.2763C46.3674 83.4911 47.0709 84.6005 47.9717 85.5388C49.7953 87.4607 52.3023 88.5872 54.9502 88.6747C57.5981 88.7622 60.174 87.8036 62.1204 86.0063L82.3192 97.3431C78.7764 100.789 76.5931 105.395 76.1689 110.319C75.7447 115.243 77.108 120.155 80.0092 124.156L62.2579 134.228C61.0276 133.106 59.5425 132.302 57.9313 131.884C56.3201 131.466 54.6313 131.447 53.0111 131.828C51.7316 132.113 50.5215 132.65 49.451 133.406C48.3806 134.163 47.471 135.125 46.7751 136.236C46.0793 137.347 45.611 138.585 45.3974 139.878C45.1839 141.171 45.2293 142.494 45.5311 143.77C46.8304 149.091 52.2754 152.371 57.6998 151.099C58.9786 150.813 60.188 150.277 61.2579 149.521C62.3279 148.765 63.2371 147.804 63.9328 146.694C64.6286 145.584 65.0971 144.346 65.3112 143.054C65.5252 141.761 65.4806 140.439 65.1798 139.164L84.1548 128.425C89.0361 132.296 95.4092 133.836 101.562 132.626C103.46 133.492 105.412 134.228 107.406 134.826V162.848C106.058 163.266 104.805 163.946 103.721 164.85C102.637 165.754 101.742 166.863 101.088 168.114C100.47 169.331 100.101 170.658 100.003 172.019C99.9049 173.38 100.08 174.747 100.517 176.039C100.955 177.331 101.646 178.523 102.55 179.545C103.454 180.567 104.554 181.397 105.784 181.988C106.196 182.194 106.602 182.387 107.076 182.524C107.145 182.524 107.214 182.593 107.282 182.593C112.851 184.257 118.777 181.253 120.475 175.787C120.882 174.481 121.024 173.108 120.894 171.746C120.764 170.385 120.364 169.063 119.718 167.858C119.071 166.653 118.191 165.589 117.129 164.728C116.067 163.866 114.844 163.225 113.532 162.841V135.369C113.532 135.369 118.633 134.901 121.012 134.166C127.646 136.778 135.236 135.231 140.262 130.233L156.17 139.377C155.682 141.434 155.876 143.594 156.723 145.531C157.57 147.469 159.024 149.078 160.866 150.116C163.167 151.426 165.888 151.789 168.452 151.128C171.016 150.467 173.222 148.834 174.602 146.575V146.568ZM55.3898 137.232C56.9023 137.239 58.2911 138.023 59.0611 139.294C59.4081 139.932 59.5945 140.645 59.6042 141.371C59.5915 142.477 59.1408 143.533 58.3508 144.307C57.5609 145.082 56.4961 145.512 55.3898 145.503C54.2824 145.514 53.2158 145.085 52.4244 144.31C51.6329 143.535 51.1813 142.478 51.1686 141.371C51.1686 139.081 53.0592 137.232 55.3898 137.232ZM114.962 47.2519C114.944 48.3576 114.49 49.4115 113.7 50.1851C112.91 50.9586 111.846 51.3893 110.74 51.3838C109.634 51.3929 108.569 50.9632 107.779 50.1887C106.989 49.4142 106.539 48.3581 106.526 47.2519C106.526 44.9625 108.417 43.1131 110.74 43.1131C113.078 43.1131 114.962 44.9694 114.962 47.2519ZM166.373 83.1394C165.269 83.1378 164.209 82.7036 163.421 81.9299C162.633 81.1562 162.18 80.1046 162.159 79.0006C162.159 76.7181 164.049 74.8619 166.373 74.8619C168.71 74.8619 170.594 76.7181 170.594 79.0006C170.581 80.1081 170.13 81.1652 169.338 81.9399C168.547 82.7146 167.48 83.1435 166.373 83.1325V83.1394ZM57.3561 75.1919C57.834 75.4497 58.2551 75.8012 58.5942 76.2253C58.9333 76.6495 59.1834 77.1376 59.3297 77.6606C59.476 78.1835 59.5155 78.7306 59.4457 79.2691C59.3759 79.8077 59.1983 80.3266 58.9236 80.795C58.3672 81.7537 57.4539 82.4531 56.3834 82.7404C55.3128 83.0277 54.172 82.8795 53.2104 82.3281C52.7311 82.0717 52.3086 81.721 51.9685 81.297C51.6283 80.873 51.3774 80.3846 51.2309 79.8611C51.0845 79.3376 51.0455 78.7899 51.1163 78.2509C51.1871 77.712 51.3663 77.1929 51.6429 76.725C52.1993 75.7663 53.1126 75.0669 54.1832 74.7796C55.2537 74.4923 56.3945 74.6405 57.3561 75.1919ZM168.071 138.029C168.548 138.287 168.968 138.638 169.307 139.062C169.645 139.486 169.895 139.973 170.041 140.495C170.188 141.017 170.227 141.564 170.158 142.101C170.089 142.639 169.912 143.158 169.639 143.626C169.248 144.252 168.707 144.769 168.064 145.131C167.421 145.493 166.698 145.687 165.96 145.695C165.218 145.708 164.486 145.525 163.837 145.165C163.188 144.806 162.645 144.282 162.262 143.646C161.885 143.015 161.686 142.294 161.686 141.56C161.686 140.825 161.885 140.104 162.262 139.473C162.645 138.838 163.188 138.314 163.837 137.954C164.486 137.595 165.218 137.412 165.96 137.424C166.702 137.448 167.427 137.654 168.071 138.023V138.029ZM106.526 172.508C106.533 172.455 106.557 172.407 106.595 172.37C106.78 171.289 107.383 170.325 108.273 169.685C109.163 169.044 110.269 168.779 111.352 168.946C112.436 169.092 113.418 169.661 114.082 170.53C114.746 171.399 115.038 172.496 114.893 173.58C114.689 174.582 114.144 175.482 113.35 176.126C112.556 176.771 111.563 177.12 110.541 177.114C109.97 177.089 109.41 176.949 108.895 176.701C108.38 176.453 107.92 176.103 107.545 175.672C107.169 175.242 106.885 174.739 106.71 174.195C106.535 173.651 106.472 173.077 106.526 172.508ZM130.74 108.673C132.762 109.295 134.529 110.553 135.779 112.26C137.029 113.967 137.695 116.031 137.677 118.147C137.677 118.484 137.608 118.821 137.608 119.151C137.539 119.419 137.539 119.687 137.47 119.948V120.154C137.333 120.753 137.195 121.351 136.92 121.949C136.166 123.787 134.862 125.348 133.187 126.418C132.775 126.624 132.431 126.823 132.032 127.023L131.826 127.091C131.029 127.461 130.181 127.709 129.31 127.827L128.966 127.889C128.492 127.889 128.086 127.958 127.612 127.958C125.391 127.958 123.239 127.229 121.493 125.888L119.65 126.686C119.087 126.961 118.495 127.16 117.884 127.291H117.815C113.606 128.417 109.131 127.965 105.234 126.019H105.165C104.759 125.819 104.354 125.62 104.01 125.421L103.872 125.352C103.467 125.091 103.13 124.823 102.717 124.554C101.069 125.277 99.2853 125.64 97.4854 125.62C96.9354 125.62 96.4611 125.62 95.9867 125.551L95.7117 125.483L94.4879 125.29L94.3504 125.221C93.9143 125.14 93.4847 125.028 93.0648 124.884C91.9683 124.521 90.9183 124.029 89.9367 123.42C87.8884 122.153 86.2746 120.292 85.3098 118.085C85.3098 117.948 85.2411 117.879 85.1723 117.748C85.0924 117.521 85.0006 117.299 84.8973 117.081C84.8163 116.931 84.7473 116.775 84.6911 116.614C84.6223 116.414 84.4917 116.215 84.4917 116.016C84.4783 115.81 84.4318 115.608 84.3542 115.418C84.2854 115.211 84.2854 115.143 84.2167 114.881C84.1479 114.613 84.1479 114.352 84.0861 114.084C84.0861 113.878 84.0173 113.747 84.0173 113.616C83.9603 113.195 83.9373 112.769 83.9486 112.344C83.9406 111.832 83.9636 111.32 84.0173 110.811C84.0173 110.612 84.0861 110.481 84.0861 110.344C84.1548 109.945 84.2236 109.615 84.2923 109.278C84.3611 109.141 84.3611 108.948 84.4298 108.811C84.5111 108.446 84.6238 108.09 84.7667 107.745C84.8354 107.608 84.8354 107.546 84.9042 107.415C85.0541 107.001 85.2357 106.598 85.4473 106.212L85.5161 106.074C86.6325 104.028 88.2567 102.303 90.2325 101.065C92.2082 99.8271 94.4692 99.1184 96.7979 99.0069C97.0042 98.9381 97.2104 98.9381 97.4854 98.9381C98.3036 98.9381 99.1217 99.0069 99.9329 99.1444C100.277 98.7319 100.614 98.4019 101.019 98.0031L101.363 97.6731C101.769 97.3363 102.105 97.0063 102.518 96.7381L102.724 96.6006C102.992 96.4013 103.467 96.0713 103.673 95.9338C103.879 95.8031 104.216 95.535 104.422 95.4663C104.661 95.3835 104.89 95.2727 105.103 95.1363C105.509 94.93 106.189 94.6 106.595 94.4694L106.939 94.2013C109.662 93.1431 112.611 92.7999 115.505 93.2044H115.574C116.124 93.2594 116.667 93.3419 117.203 93.4656H117.272C117.822 93.5344 118.296 93.7406 118.839 93.8713L118.908 93.94C119.451 94.1325 119.925 94.3319 120.4 94.5381L120.537 94.6069C121.005 94.7994 121.459 95.0194 121.899 95.2669L121.967 95.3356C122.373 95.5419 122.847 95.8719 123.26 96.1331L123.329 96.2019C123.803 96.47 124.209 96.8 124.614 97.1369L124.683 97.2056C126.957 99.1169 128.712 101.572 129.784 104.342V104.411C129.922 104.809 130.059 105.277 130.197 105.676C130.197 105.813 130.265 105.944 130.265 106.074C130.375 106.418 130.472 106.783 130.534 107.14L130.74 108.673Z" fill="white"/>
</g>
<defs>
<clipPath id="clip0_2_19600">
<rect width="220" height="220" fill="white" transform="translate(0.5)"/>
</clipPath>
</defs>
</svg>
