<svg width="221" height="220" viewBox="0 0 221 220" fill="none" xmlns="http://www.w3.org/2000/svg">
<g clip-path="url(#clip0_2_19592)">
<path d="M110.5 220C171.251 220 220.5 170.751 220.5 110C220.5 49.2487 171.251 0 110.5 0C49.7487 0 0.5 49.2487 0.5 110C0.5 170.751 49.7487 220 110.5 220Z" fill="#2DC4E7"/>
<path d="M35.9409 62.1206C43.304 62.1206 50.9147 61.6256 58.2847 62.2856C61.5572 65.9638 62.2928 71.12 64.8297 75.3756C97.8984 75.5406 131.125 75.3756 164.194 75.3756C166.648 75.5406 169.673 75.6231 170.904 78.0775C172.375 80.7794 171.317 83.9694 169.921 86.4238C163.211 97.8019 156.824 109.345 150.279 120.799C147.825 124.896 146.182 129.475 142.503 132.672C139.478 135.209 135.298 135.367 131.455 135.367H85.6128C83.1584 135.367 80.539 135.126 79.0678 133.16C74.324 127.839 71.7803 121.046 68.6728 114.824C63.2913 104.05 58.0248 93.2194 52.874 82.3331C51.8084 79.8788 50.5022 77.6719 49.2715 75.3756C44.9403 75.3756 40.5953 75.3756 36.3465 75.2106C35.5215 70.8794 35.5215 66.4588 35.934 62.1206H35.9409ZM87.5859 144.208C90.9163 143.417 94.3791 143.361 97.7334 144.043C101.494 144.868 104.773 147.728 105.674 151.496C106.65 155.827 106.65 160.502 104.932 164.668C103.295 168.436 99.2047 170.237 95.3615 170.567C90.9409 170.89 85.8672 170.567 82.5878 167.288C79.0747 163.362 79.0747 157.635 79.8103 152.719C80.2984 148.629 83.5709 145.109 87.579 144.208H87.5859ZM128.506 144.208C132.597 143.314 137.017 143.39 140.95 144.861C144.71 146.422 146.677 150.513 147 154.356C147.495 158.859 147 164.015 143.727 167.453C140.702 170.319 136.282 170.725 132.273 170.643C128.341 170.484 124.092 169.006 122.043 165.328C120.091 161.339 119.569 156.8 120.565 152.472C121.39 148.464 124.498 145.116 128.506 144.208Z" fill="white"/>
</g>
<defs>
<clipPath id="clip0_2_19592">
<rect width="220" height="220" fill="white" transform="translate(0.5)"/>
</clipPath>
</defs>
</svg>
