<svg width="221" height="220" viewBox="0 0 221 220" fill="none" xmlns="http://www.w3.org/2000/svg">
<g clip-path="url(#clip0_2_19588)">
<path d="M110.5 220C171.251 220 220.5 170.751 220.5 110C220.5 49.2487 171.251 0 110.5 0C49.7487 0 0.5 49.2487 0.5 110C0.5 170.751 49.7487 220 110.5 220Z" fill="#1387C9"/>
<path d="M110.864 126.316L176.823 87.9265L110.864 48.849L45.5653 87.9265L110.864 126.316ZM42.0728 106.241C42.0714 107.155 42.3094 108.052 42.7629 108.845C43.2165 109.637 43.8698 110.297 44.6578 110.758L110.843 149.313L178.115 109.521C178.888 109.074 179.764 108.839 180.657 108.838C181.549 108.838 182.426 109.072 183.199 109.518C183.971 109.964 184.613 110.606 185.059 111.379C185.505 112.152 185.74 113.028 185.74 113.921V131.975C185.739 132.857 185.511 133.724 185.076 134.491C184.641 135.259 184.014 135.9 183.258 136.354L113.428 178.037C112.654 178.5 111.769 178.746 110.867 178.75C109.965 178.753 109.078 178.514 108.3 178.058L36.6622 135.941C35.8367 135.453 35.2372 134.658 34.994 133.73C34.7507 132.802 34.8832 131.815 35.3628 130.985C35.5984 130.574 35.9131 130.214 36.2888 129.925C36.6645 129.637 37.0937 129.426 37.5515 129.304C38.0093 129.183 38.4866 129.153 38.9559 129.217C39.4251 129.282 39.877 129.438 40.2853 129.678L110.843 171.155L178.542 130.744V117.681L113.415 156.202C112.643 156.66 111.764 156.903 110.867 156.907C109.97 156.91 109.088 156.674 108.313 156.223L41.0553 117.035C39.1711 115.934 37.6088 114.357 36.5243 112.463C35.4397 110.569 34.871 108.424 34.8747 106.241V89.2396C34.8725 88.4767 35.0715 87.7267 35.4517 87.0653C35.8318 86.4038 36.3797 85.8543 37.04 85.4722C37.7003 85.0901 38.4497 84.8889 39.2126 84.8889C39.9756 84.8889 40.725 85.09 41.3853 85.4721L45.5653 87.9265L40.3128 91.0683C39.8105 91.3719 39.2412 91.5474 38.6552 91.5794C38.0691 91.6113 37.4842 91.4988 36.9518 91.2516C36.4194 91.0044 35.956 90.6302 35.6022 90.1619C35.2484 89.6936 35.0151 89.1455 34.9228 88.5658C34.8009 87.8439 34.8998 87.102 35.2065 86.4372C35.5131 85.7723 36.0133 85.2155 36.6416 84.8396L108.272 41.9671C109.051 41.5 109.941 41.2521 110.848 41.2497C111.756 41.2472 112.648 41.4904 113.428 41.9533L183.629 83.5471C184.393 84.0024 185.024 84.6489 185.462 85.4228C185.9 86.1967 186.128 87.0713 186.124 87.9603C186.121 88.8494 185.886 89.7222 185.442 90.4926C184.999 91.2631 184.362 91.9046 183.595 92.354L113.387 133.219C112.615 133.67 111.737 133.907 110.842 133.906C109.948 133.905 109.071 133.665 108.3 133.212L37.7622 91.7352C38.1352 91.9545 38.5532 92.0862 38.9846 92.1201C39.416 92.154 39.8494 92.0894 40.2521 91.9311C40.6549 91.7728 41.0163 91.5249 41.3091 91.2063C41.6019 90.8877 41.8184 90.5067 41.9422 90.0921C42.0302 89.8163 42.0765 89.529 42.0797 89.2396V106.248L42.0728 106.241Z" fill="white"/>
</g>
<defs>
<clipPath id="clip0_2_19588">
<rect width="220" height="220" fill="white" transform="translate(0.5)"/>
</clipPath>
</defs>
</svg>
