<svg width="221" height="220" viewBox="0 0 221 220" fill="none" xmlns="http://www.w3.org/2000/svg">
<g clip-path="url(#clip0_2_19584)">
<path d="M110.5 220C171.251 220 220.5 170.751 220.5 110C220.5 49.2487 171.251 0 110.5 0C49.7487 0 0.5 49.2487 0.5 110C0.5 170.751 49.7487 220 110.5 220Z" fill="#7324F0"/>
<path d="M190.766 92.5512V89.375C185.557 89.3853 180.545 91.3632 176.733 94.9125C172.921 98.4619 170.591 103.32 170.209 108.515C169.841 103.328 167.525 98.4714 163.725 94.9212C159.925 91.3711 154.922 89.3897 149.722 89.375V92.5512C154.35 92.5512 158.788 94.3896 162.06 97.6619C165.332 100.934 167.171 105.372 167.171 110C167.177 112.293 166.73 114.565 165.855 116.685C164.981 118.805 163.696 120.731 162.074 122.352C160.453 123.974 158.527 125.259 156.407 126.133C154.287 127.008 152.015 127.455 149.722 127.449V130.625C154.93 130.615 159.943 128.637 163.755 125.087C167.567 121.538 169.897 116.68 170.278 111.485C170.649 116.684 172.975 121.549 176.79 125.1C180.604 128.652 185.623 130.626 190.834 130.625V127.449C186.208 127.447 181.771 125.608 178.501 122.336C175.23 119.064 173.393 114.627 173.393 110C173.385 107.713 173.829 105.447 174.699 103.332C175.568 101.216 176.847 99.2932 178.46 97.6725C180.074 96.0518 181.991 94.7652 184.103 93.8864C186.214 93.0077 188.479 92.5539 190.766 92.5512ZM80.5456 130.625V128.26L80.4769 110H77.4312V130.625H80.5456ZM121.796 89.375C110.431 89.375 101.171 98.6425 101.171 110C101.171 121.358 110.431 130.625 121.796 130.625C127.266 130.625 132.512 128.452 136.38 124.584C140.248 120.716 142.421 115.47 142.421 110C142.421 104.53 140.248 99.2839 136.38 95.4159C132.512 91.548 127.266 89.375 121.796 89.375ZM121.796 127.449C119.476 127.495 117.17 127.078 115.013 126.222C112.856 125.366 110.891 124.088 109.234 122.463C107.577 120.839 106.261 118.9 105.362 116.761C104.463 114.621 104.001 112.324 104.001 110.003C104.001 107.683 104.463 105.386 105.362 103.246C106.261 101.107 107.577 99.168 109.234 97.5435C110.891 95.919 112.856 94.6413 115.013 93.7853C117.17 92.9293 119.476 92.5121 121.796 92.5581C126.421 92.5599 130.856 94.3982 134.127 97.6687C137.397 100.939 139.236 105.375 139.238 110C139.244 112.293 138.797 114.564 137.923 116.683C137.049 118.803 135.764 120.728 134.143 122.35C132.523 123.971 130.597 125.256 128.478 126.131C126.359 127.007 124.088 127.454 121.796 127.449ZM66.0737 89.375C54.7094 89.375 45.4488 98.6425 45.4488 110C45.4379 114.624 43.596 119.056 40.3261 122.326C37.0562 125.596 32.6243 127.438 28 127.449V130.625C39.3575 130.625 48.625 121.358 48.625 110C48.6359 105.376 50.4777 100.944 53.7477 97.6739C57.0176 94.404 61.4494 92.5621 66.0737 92.5512H92.5769V89.375H66.0737Z" fill="white"/>
</g>
<defs>
<clipPath id="clip0_2_19584">
<rect width="220" height="220" fill="white" transform="translate(0.5)"/>
</clipPath>
</defs>
</svg>
