<svg width="221" height="220" viewBox="0 0 221 220" fill="none" xmlns="http://www.w3.org/2000/svg">
<g clip-path="url(#clip0_2_19580)">
<path d="M110.5 220C171.251 220 220.5 170.751 220.5 110C220.5 49.2487 171.251 0 110.5 0C49.7487 0 0.5 49.2487 0.5 110C0.5 170.751 49.7487 220 110.5 220Z" fill="#E53431"/>
<path d="M83.805 36.5365C84.1001 36.3087 84.4636 36.1876 84.8363 36.1927C85.2082 36.1927 85.57 36.3134 85.8675 36.5365L94.5094 43.0127C94.69 43.1486 94.842 43.3187 94.9568 43.5134C95.0717 43.708 95.147 43.9233 95.1786 44.1471C95.2102 44.3709 95.1975 44.5987 95.141 44.8175C95.0846 45.0363 94.9856 45.2419 94.8497 45.4224C94.7139 45.603 94.5437 45.755 94.3491 45.8699C94.1545 45.9847 93.9391 46.06 93.7154 46.0916C93.4916 46.1232 93.2638 46.1105 93.045 46.054C92.8262 45.9976 92.6206 45.8986 92.44 45.7627L84.8363 40.0771L60.1069 58.619L168.732 140.115C168.947 140.277 169.121 140.486 169.241 140.726C169.361 140.967 169.424 141.232 169.424 141.501C169.424 141.769 169.361 142.034 169.241 142.275C169.121 142.515 168.947 142.724 168.732 142.886L160.75 148.867C160.384 149.141 159.923 149.257 159.471 149.192C159.018 149.126 158.61 148.883 158.337 148.516C158.063 148.15 157.947 147.69 158.012 147.237C158.078 146.785 158.321 146.377 158.688 146.103L164.827 141.497L56.195 60.0146C55.9791 59.8563 55.8034 59.6492 55.6824 59.4104C55.5613 59.1715 55.4982 58.9074 55.4982 58.6396C55.4982 58.3718 55.5613 58.1078 55.6824 57.8689C55.8034 57.63 55.9791 57.423 56.195 57.2646L83.805 36.5434V36.5365ZM111.422 36.5365C111.717 36.3082 112.078 36.1831 112.451 36.1806C112.824 36.1781 113.187 36.2983 113.484 36.5227L168.725 77.9584C169.015 78.173 169.23 78.4751 169.336 78.8202C169.442 79.1654 169.435 79.5355 169.316 79.8765C169.204 80.2204 168.987 80.5201 168.694 80.7326C168.401 80.945 168.049 81.0593 167.687 81.059H140.07C139.699 81.0566 139.337 80.9362 139.039 80.7152L102.787 53.5315C102.605 53.3956 102.453 53.2253 102.337 53.0303C102.221 52.8354 102.145 52.6195 102.113 52.3951C102.081 52.1707 102.093 51.9422 102.149 51.7225C102.205 51.5029 102.304 51.2964 102.44 51.1149C102.576 50.9335 102.746 50.7805 102.941 50.6649C103.136 50.5492 103.352 50.4731 103.576 50.4408C103.801 50.4086 104.029 50.4209 104.249 50.477C104.468 50.5331 104.675 50.6319 104.856 50.7677L140.654 77.6077H162.51L112.46 40.0702L77.81 66.0577C77.6286 66.1936 77.4221 66.2924 77.2025 66.3485C76.9828 66.4046 76.7543 66.4169 76.5299 66.3846C76.0767 66.3195 75.6679 66.077 75.3935 65.7106C75.1191 65.3441 75.0015 64.8836 75.0666 64.4304C75.1317 63.9772 75.3742 63.5684 75.7407 63.294L111.422 36.5365ZM63.8194 72.2521C64.1877 72.0296 64.6256 71.9521 65.0478 72.0347C65.4701 72.1172 65.8465 72.354 66.1039 72.6988C66.3612 73.0436 66.481 73.4718 66.44 73.9001C66.399 74.3284 66.2 74.7262 65.8819 75.0159L60.1 79.3471L168.732 160.843C168.948 161.003 169.124 161.211 169.245 161.451C169.366 161.691 169.429 161.956 169.429 162.225C169.429 162.494 169.366 162.759 169.245 162.999C169.124 163.239 168.948 163.447 168.732 163.607L141.115 184.321C140.816 184.541 140.455 184.66 140.084 184.66C139.713 184.66 139.351 184.541 139.053 184.321L131.057 178.326C130.69 178.05 130.449 177.64 130.385 177.185C130.321 176.731 130.44 176.27 130.717 175.903C130.993 175.537 131.403 175.295 131.858 175.231C132.312 175.167 132.774 175.286 133.14 175.563L140.084 180.767L164.834 162.205L56.1744 80.729C55.962 80.5666 55.7899 80.3575 55.6715 80.1178C55.553 79.8782 55.4914 79.6145 55.4914 79.3471C55.4914 79.0798 55.553 78.816 55.6715 78.5764C55.7899 78.3367 55.962 78.1276 56.1744 77.9652L63.8057 72.259L63.8194 72.2521ZM57.2263 139.758V139.771H84.8294C85.2021 139.766 85.5656 139.887 85.8607 140.115L121.721 167.003C121.902 167.139 122.055 167.309 122.171 167.503C122.287 167.698 122.363 167.913 122.396 168.137C122.428 168.361 122.416 168.59 122.361 168.809C122.305 169.029 122.207 169.235 122.071 169.416C121.936 169.598 121.766 169.751 121.571 169.867C121.377 169.983 121.161 170.059 120.937 170.092C120.713 170.124 120.485 170.112 120.265 170.057C120.046 170.001 119.84 169.903 119.658 169.767L84.2794 143.223H62.41L112.467 180.76L147.048 154.828C147.23 154.691 147.436 154.592 147.656 154.536C147.876 154.479 148.105 154.466 148.329 154.498C148.554 154.53 148.77 154.606 148.966 154.722C149.161 154.837 149.332 154.99 149.468 155.171C149.604 155.353 149.704 155.559 149.76 155.779C149.817 155.999 149.829 156.228 149.798 156.453C149.766 156.677 149.69 156.894 149.574 157.089C149.459 157.284 149.306 157.455 149.124 157.591L113.505 184.294C113.208 184.517 112.846 184.638 112.474 184.638C112.099 184.641 111.734 184.52 111.436 184.294L56.1813 142.872C55.9094 142.869 55.6421 142.801 55.4012 142.675C55.1603 142.549 54.9527 142.367 54.7952 142.146C54.6378 141.924 54.5349 141.668 54.4951 141.399C54.4553 141.13 54.4797 140.855 54.5662 140.598C54.6527 140.34 54.7989 140.106 54.993 139.916C55.187 139.725 55.4233 139.583 55.6826 139.501C55.9419 139.419 56.2169 139.4 56.4852 139.444C56.7535 139.489 57.0074 139.596 57.2263 139.758Z" fill="white"/>
</g>
<defs>
<clipPath id="clip0_2_19580">
<rect width="220" height="220" fill="white" transform="translate(0.5)"/>
</clipPath>
</defs>
</svg>
