<svg width="221" height="220" viewBox="0 0 221 220" fill="none" xmlns="http://www.w3.org/2000/svg">
<g clip-path="url(#clip0_2_19576)">
<path d="M110.5 220C171.251 220 220.5 170.751 220.5 110C220.5 49.2487 171.251 0 110.5 0C49.7487 0 0.5 49.2487 0.5 110C0.5 170.751 49.7487 220 110.5 220Z" fill="#2D9CDB"/>
<path d="M124.669 62.4525C148.072 86.9687 154.012 91.3 159.698 92.8606C139.932 90.3856 128.781 88.9831 110.156 79.2069L98.4 92.8881L172.375 109.312C149.234 128.989 139.21 139.473 124.669 157.534H96.6812C84.3819 139.535 76.18 133.691 60.3813 126.411C81.405 128.349 93.0925 129.642 110.156 139.748L122.951 125.379L48.625 109.312C65.9087 95.0675 75.9669 85.5662 96.6744 62.4525H124.669ZM98.4 59.0356C104.794 51.1637 107.406 47.3344 110.844 41.25C114.212 47.52 116.818 51.3906 122.944 59.0356H98.4ZM122.944 160.964C116.543 168.836 113.924 172.666 110.5 178.75C107.131 172.48 104.519 168.609 98.4 160.964H122.944Z" fill="white"/>
</g>
<defs>
<clipPath id="clip0_2_19576">
<rect width="220" height="220" fill="white" transform="translate(0.5)"/>
</clipPath>
</defs>
</svg>
