<svg width="221" height="220" viewBox="0 0 221 220" fill="none" xmlns="http://www.w3.org/2000/svg">
<g clip-path="url(#clip0_2_19563)">
<circle cx="110.5" cy="110" r="110" fill="white"/>
<path d="M64.6109 46.7141L185.511 129.264L155.611 173.464L34.7109 90.2641L64.6109 46.7141Z" fill="url(#paint0_linear_2_19563)"/>
<path d="M185.513 129.266C175.113 144.216 140.013 138.366 106.863 114.966C73.0627 92.2163 54.8627 61.6663 64.6127 46.7163C75.0127 31.7663 110.113 37.6163 143.263 61.0163C177.063 83.1163 195.263 114.316 185.513 129.266Z" fill="url(#paint1_linear_2_19563)"/>
<path d="M155.615 172.814C145.215 187.764 110.115 181.914 76.9646 158.514C43.8146 135.114 24.9646 105.214 35.3646 89.6142C45.7646 74.6642 80.8646 80.5142 114.015 103.914C147.165 127.314 165.365 157.864 155.615 172.814Z" fill="url(#paint2_linear_2_19563)"/>
<path d="M185.518 129.266L155.618 173.466C145.218 188.416 110.118 181.916 76.9676 159.166C70.4676 154.616 64.6176 150.066 58.7676 144.866C63.3176 144.216 69.1676 141.616 75.0176 135.116C85.4176 124.066 90.6176 121.466 95.1676 122.116C99.7176 122.116 104.918 126.666 113.368 137.716C121.818 148.766 133.518 152.016 140.668 146.166C141.318 145.516 141.968 145.516 142.618 144.866C148.468 140.316 150.418 138.366 161.468 117.566C164.068 112.366 173.168 103.916 185.518 107.816C188.768 116.266 188.768 123.416 185.518 129.266Z" fill="#0E0F23"/>
<path fill-rule="evenodd" clip-rule="evenodd" d="M180.962 126.665C171.862 139.665 140.012 133.165 109.462 111.715C78.2624 90.2653 60.0624 62.9653 69.1624 49.9653C78.2624 36.9653 110.112 43.4653 140.662 64.9153C171.212 86.3653 189.412 113.665 180.962 126.665ZM152.362 107.165C147.812 113.665 132.212 110.415 116.612 100.015C101.662 89.6153 92.5624 75.9653 97.1124 69.4653C101.662 62.9653 117.262 66.2153 132.862 76.6153C147.812 87.0153 156.912 100.665 152.362 107.165Z" fill="white"/>
<path d="M62.015 61.6674C62.015 61.0174 61.365 60.3674 60.715 61.0174C60.065 61.6674 59.415 61.6674 59.415 62.3174C60.065 64.2674 60.715 65.5674 60.715 66.8674C60.715 67.5174 61.365 68.1674 62.015 67.5174C62.665 67.5174 63.315 66.8674 62.665 66.2174C62.665 64.9174 62.665 63.6174 62.015 61.6674Z" fill="white"/>
<path d="M65.2625 72.0652C65.2625 71.4152 64.6125 70.7652 63.9625 71.4152C63.3125 72.0652 63.3125 72.0652 63.3125 72.7152C70.4625 88.9652 85.4125 106.515 104.913 119.515C105.563 120.165 106.213 119.515 106.863 119.515C107.513 118.865 106.863 118.215 106.863 117.565C86.7125 104.565 72.4125 87.6652 65.2625 72.0652Z" fill="white"/>
<path d="M143.919 135.765C143.269 135.765 142.619 135.765 142.619 136.415C142.619 137.065 142.619 137.715 143.269 137.715C145.219 138.365 147.819 139.015 149.769 139.665C150.419 139.665 151.069 139.665 151.069 139.015C151.069 138.365 151.069 137.715 150.419 137.715C148.469 137.065 145.869 136.415 143.919 135.765Z" fill="white"/>
<path d="M155.613 138.367C154.963 138.367 154.312 139.017 154.312 139.667C154.312 140.317 154.963 140.967 155.613 140.967C160.813 141.617 166.663 142.267 171.213 141.617C171.863 141.617 172.513 140.967 172.513 140.317C172.513 139.667 171.863 139.017 171.213 139.017C166.013 139.667 160.813 139.017 155.613 138.367Z" fill="white"/>
</g>
<defs>
<linearGradient id="paint0_linear_2_19563" x1="88.2982" y1="34.977" x2="112.274" y2="117.307" gradientUnits="userSpaceOnUse">
<stop stop-color="#03B8FF"/>
<stop offset="1" stop-color="#FA52A0"/>
</linearGradient>
<linearGradient id="paint1_linear_2_19563" x1="108.044" y1="29.2287" x2="132.021" y2="111.56" gradientUnits="userSpaceOnUse">
<stop stop-color="#03B8FF"/>
<stop offset="1" stop-color="#FA52A0"/>
</linearGradient>
<linearGradient id="paint2_linear_2_19563" x1="68.6186" y1="40.7088" x2="92.5952" y2="123.04" gradientUnits="userSpaceOnUse">
<stop stop-color="#03B8FF"/>
<stop offset="1" stop-color="#FA52A0"/>
</linearGradient>
<clipPath id="clip0_2_19563">
<rect width="220" height="220" fill="white" transform="translate(0.5)"/>
</clipPath>
</defs>
</svg>
