<svg width="221" height="220" viewBox="0 0 221 220" fill="none" xmlns="http://www.w3.org/2000/svg">
<g clip-path="url(#clip0_2_19559)">
<path d="M110.5 220C171.251 220 220.5 170.751 220.5 110C220.5 49.2487 171.251 0 110.5 0C49.7487 0 0.5 49.2487 0.5 110C0.5 170.751 49.7487 220 110.5 220Z" fill="#0082C6"/>
<path d="M124.566 103.832C124.422 103.803 124.273 103.814 124.135 103.863C123.997 103.913 123.875 103.999 123.782 104.113C123.719 104.193 123.673 104.285 123.647 104.383C123.62 104.481 123.614 104.583 123.629 104.684C123.644 104.785 123.679 104.881 123.733 104.967C123.786 105.054 123.857 105.128 123.941 105.186C154.046 127.035 111.194 177.057 28 123.824C98.5375 190.202 196.761 116.88 124.566 103.832ZM84.3887 74.6266C21.9225 94.6122 93.4844 141.747 99.6925 117.939C99.7201 117.84 99.7271 117.736 99.713 117.634C99.6989 117.531 99.6641 117.433 99.6106 117.345C99.5572 117.257 99.4862 117.18 99.4022 117.121C99.3181 117.061 99.2227 117.019 99.1219 116.997C98.9773 116.96 98.8252 116.962 98.6819 117.004C89.49 119.995 38.8625 105.839 84.3819 74.6266H84.3887ZM193 86.6372C138.914 48.0685 37.4325 79.8722 89.7856 107.104C89.9727 107.199 90.1889 107.218 90.3898 107.158C90.5906 107.098 90.7608 106.963 90.865 106.781C90.9203 106.678 90.951 106.563 90.9545 106.447C90.9581 106.33 90.9345 106.213 90.8856 106.107C69.5938 61.1172 177.744 74.7985 193 86.6372ZM148.12 142.675C176.713 129.682 153.462 85.1935 115.642 93.7804C115.439 93.8261 115.226 93.7905 115.049 93.6814C114.872 93.5722 114.744 93.398 114.694 93.196C114.661 93.0568 114.67 92.9112 114.719 92.7769C114.768 92.6426 114.854 92.5255 114.969 92.4397C144.394 70.3297 199.628 121.947 148.12 142.675Z" fill="white"/>
</g>
<defs>
<clipPath id="clip0_2_19559">
<rect width="220" height="220" fill="white" transform="translate(0.5)"/>
</clipPath>
</defs>
</svg>
