<svg width="221" height="220" viewBox="0 0 221 220" fill="none" xmlns="http://www.w3.org/2000/svg">
<g clip-path="url(#clip0_2_19555)">
<path d="M110.5 220C171.251 220 220.5 170.751 220.5 110C220.5 49.2487 171.251 0 110.5 0C49.7487 0 0.5 49.2487 0.5 110C0.5 170.751 49.7487 220 110.5 220Z" fill="#002342"/>
<path d="M28 89.375H36.9237V97.7694H28V89.375ZM36.9237 122.196H62.8906V130.625H28V106.164H54.1938V114.551H36.9306V122.196H36.9237ZM158.109 106.164H193V130.625H166.806V122.196H184.076V114.558H158.109V106.164ZM184.221 98.175H158.096V89.7806H184.221V98.1681V98.175ZM71.395 106.164H106.286V122.554H97.5956V130.625H71.395V106.164ZM97.3619 122.196V114.558H80.3187V122.189H97.3688L97.3619 122.196ZM71.395 89.375H106.286V97.7694H71.395V89.375ZM114.941 106.164H149.832V122.554H141.142V130.625H114.948V106.164H114.941ZM140.874 122.196V114.558H123.824V122.189H140.874V122.196ZM114.941 89.375H149.832V97.7694H114.941V89.375Z" fill="white"/>
</g>
<defs>
<clipPath id="clip0_2_19555">
<rect width="220" height="220" fill="white" transform="translate(0.5)"/>
</clipPath>
</defs>
</svg>
