<svg width="221" height="220" viewBox="0 0 221 220" fill="none" xmlns="http://www.w3.org/2000/svg">
<g clip-path="url(#clip0_2_19551)">
<path d="M110.5 220C171.251 220 220.5 170.751 220.5 110C220.5 49.2487 171.251 0 110.5 0C49.7487 0 0.5 49.2487 0.5 110C0.5 170.751 49.7487 220 110.5 220Z" fill="#7B346E"/>
<path d="M56.1462 94.0363L70.6525 108.543H41.75L56.1462 94.0363ZM70.6525 111.568L56.1462 125.964L41.75 111.568H70.6525ZM90.26 91.9531L75.7537 106.349V77.4537L90.26 91.9531ZM72.7287 106.349L58.3394 91.9531L72.7356 77.4469L72.7287 106.349ZM92.35 89.76L77.9537 75.3638H106.849L92.35 89.76ZM92.35 57.8394L106.849 72.3388H77.9537L92.35 57.8394ZM126.464 55.7494L111.957 70.1456V41.25L126.464 55.7494ZM108.933 70.1456L94.5363 55.7562L108.933 41.25V70.1456ZM90.26 128.15L75.7537 142.546V113.651L90.26 128.15ZM58.3394 128.15L72.7356 113.651V142.546L58.3394 128.15ZM128.547 89.76L114.151 75.3638H143.046L128.547 89.76ZM114.151 72.3388L128.547 57.8325L143.053 72.3388H114.151ZM106.856 147.764L92.35 162.161L77.9606 147.764H106.856ZM92.35 130.233L106.856 144.739H77.9606L92.35 130.233ZM162.667 91.9531L148.168 106.349V77.4537L162.667 91.9531ZM130.747 91.9531L145.143 77.4469V106.349L130.747 91.9531ZM94.5431 164.347L108.939 149.854V178.75L94.5431 164.347ZM111.964 149.854L126.471 164.354L111.957 178.75L111.964 149.854ZM128.554 162.161L114.157 147.764H143.053L128.554 162.161ZM128.554 130.24L143.06 144.746H114.144L128.554 130.24ZM148.168 113.651L162.674 128.157L148.168 142.546V113.651ZM130.747 128.157L145.143 113.651V142.546L130.747 128.157ZM164.757 125.957L150.361 111.568H179.25L164.757 125.957ZM164.757 94.0363L179.25 108.543H150.354L164.757 94.0363Z" fill="white"/>
</g>
<defs>
<clipPath id="clip0_2_19551">
<rect width="220" height="220" fill="white" transform="translate(0.5)"/>
</clipPath>
</defs>
</svg>
