<svg width="221" height="220" viewBox="0 0 221 220" fill="none" xmlns="http://www.w3.org/2000/svg">
<g clip-path="url(#clip0_2_19547)">
<path d="M110.5 220C171.251 220 220.5 170.751 220.5 110C220.5 49.2487 171.251 0 110.5 0C49.7487 0 0.5 49.2487 0.5 110C0.5 170.751 49.7487 220 110.5 220Z" fill="#5244D4"/>
<path d="M108.438 188.375C64.0112 188.375 28 152.364 28 107.938C28 63.5112 64.0112 27.5 108.438 27.5C152.864 27.5 188.875 63.5112 188.875 107.938C188.875 152.364 152.864 188.375 108.438 188.375ZM128.306 135.438L108.438 107.938L88.5688 135.438L72.4125 107.938L90.425 77.1375H126.45L144.463 107.938L128.306 135.438ZM134.219 63.9375H82.6562L56.9438 107.938L82.725 151.938H134.219L159.931 107.938L134.219 63.9375Z" fill="white"/>
</g>
<defs>
<clipPath id="clip0_2_19547">
<rect width="220" height="220" fill="white" transform="translate(0.5)"/>
</clipPath>
</defs>
</svg>
