<svg width="221" height="220" viewBox="0 0 221 220" fill="none" xmlns="http://www.w3.org/2000/svg">
<g clip-path="url(#clip0_2_19543)">
<path d="M110.5 220C171.251 220 220.5 170.751 220.5 110C220.5 49.2487 171.251 0 110.5 0C49.7487 0 0.5 49.2487 0.5 110C0.5 170.751 49.7487 220 110.5 220Z" fill="#14C8FF"/>
<path d="M172.925 78.9121C177.277 82.4389 180.02 89.7333 179.057 95.089L169.707 146.816C168.731 152.206 163.575 158.14 158.267 160.003L107.262 177.912C101.954 179.775 94.0619 178.428 89.7169 174.901L48.0681 141.096C43.7162 137.57 40.9662 130.31 41.9493 124.92L51.2993 73.1921C52.2687 67.8021 57.425 61.8758 62.7393 60.0058L113.752 42.0896C119.066 40.2196 126.952 41.5808 131.304 45.1008L172.925 78.9121ZM129.537 102.136L131.613 91.6171L112.143 91.6515L114.893 77.7915H108.602C104.065 84.7453 97.4557 90.0966 89.71 93.0883L87.9431 102.156H96.4543C96.4543 102.156 93.5737 115.178 92.6044 119.983C90.1981 132.221 96.2481 140.897 105.543 140.897H121.273L124.023 129.278H110.864C105.021 129.278 105.33 126.081 106.464 120.41L110.087 102.108L129.537 102.136Z" fill="white"/>
</g>
<defs>
<clipPath id="clip0_2_19543">
<rect width="220" height="220" fill="white" transform="translate(0.5)"/>
</clipPath>
</defs>
</svg>
