<svg width="221" height="220" viewBox="0 0 221 220" fill="none" xmlns="http://www.w3.org/2000/svg">
<g clip-path="url(#clip0_2_19539)">
<path d="M110.5 220C171.251 220 220.5 170.751 220.5 110C220.5 49.2487 171.251 0 110.5 0C49.7487 0 0.5 49.2487 0.5 110C0.5 170.751 49.7487 220 110.5 220Z" fill="#0899CD"/>
<path d="M185.919 115.961C184.633 134.31 177.311 150.136 163.953 163.453C160.584 166.829 157.058 169.819 153.366 172.425C153.204 172.18 153.027 171.946 152.836 171.724L185.08 115.864C185.355 115.913 185.63 115.947 185.919 115.961ZM149.914 174.728C138.296 181.995 125.151 185.625 110.5 185.625C96.4956 185.625 83.8663 182.304 72.6119 175.67C74.3031 176.667 76.0219 177.581 77.775 178.42C77.9485 178.136 78.0958 177.837 78.215 177.526H142.785C142.901 177.837 143.046 178.136 143.218 178.42C145.508 177.32 147.735 176.083 149.914 174.728ZM67.6344 172.459C63.83 169.769 60.2647 166.756 56.9781 163.453C43.6613 150.136 36.3669 134.303 35.0813 115.961C35.3606 115.95 35.6387 115.918 35.9131 115.864L68.1637 171.724C67.9667 171.954 67.7896 172.2 67.6344 172.459ZM34.875 108.831C35.15 88.4331 42.5062 70.9775 56.9712 56.4712C71.7594 41.745 89.6 34.375 110.5 34.375C131.4 34.375 149.22 41.745 163.953 56.4781C178.666 71.1906 186.056 88.9419 186.125 109.718C186.122 107.867 186.053 106.016 185.919 104.17C185.639 104.183 185.361 104.218 185.087 104.273L152.871 48.3106C153.069 48.0781 153.249 47.8298 153.407 47.5681C150.194 45.2926 146.797 43.2873 143.253 41.5731C143.067 41.8834 142.91 42.2102 142.785 42.5494H78.215C78.0901 42.21 77.9336 41.8832 77.7475 41.5731C74.2344 43.2644 70.8519 45.2512 67.6 47.5406C67.7581 47.8156 67.9437 48.0906 68.1637 48.3381L35.9131 104.273C35.6367 104.217 35.3562 104.182 35.0744 104.17C34.9712 105.71 34.9025 107.264 34.8819 108.838L34.875 108.831ZM181.629 106.274C181.167 106.795 180.803 107.396 180.556 108.048H153.902C153.592 107.241 153.111 106.512 152.493 105.909C151.888 105.29 151.156 104.809 150.347 104.5V52.0575L181.629 106.281V106.274ZM180.556 112.069C180.804 112.721 181.167 113.321 181.629 113.843L150.347 168.004V115.617C151.156 115.31 151.888 114.832 152.493 114.214C153.112 113.61 153.593 112.878 153.902 112.069H180.556ZM40.4437 108.054C40.1964 107.403 39.833 106.802 39.3712 106.281L70.6525 52.0575V104.507C69.8437 104.816 69.1118 105.296 68.5075 105.916C67.8887 106.519 67.4079 107.248 67.0981 108.054H40.4437ZM78.1531 46.7019C78.1807 46.6585 78.2037 46.6124 78.2219 46.5644H142.792C143.042 47.2142 143.405 47.8146 143.864 48.3381L124.133 82.4381C122.778 82.1711 121.372 82.4083 120.18 83.105L78.1531 46.7019ZM78.2219 108.054C77.9123 107.248 77.4315 106.519 76.8125 105.916C76.208 105.297 75.4762 104.816 74.6675 104.507V52.0575L105.983 106.212C105.53 106.758 105.181 107.383 104.952 108.054H78.2219ZM128.629 90.3375C128.877 89.6615 129 88.9466 128.994 88.2269C129.01 86.8413 128.521 85.4973 127.619 84.4456L146.346 52.0644V104.5C146.044 104.61 145.752 104.746 145.473 104.906L128.629 90.3306V90.3375ZM117.609 86.1231C117.336 86.7908 117.198 87.5057 117.203 88.2269C117.203 89.6706 117.671 90.9356 118.613 92.015L111.545 104.204C110.86 104.068 110.154 104.068 109.469 104.204L80.36 53.9L117.602 86.1231H117.609ZM116.096 108.054C115.853 107.384 115.492 106.762 115.031 106.219L122.064 94.0225C123.419 94.2895 124.825 94.0523 126.017 93.3556L142.861 107.924C142.842 107.971 142.819 108.017 142.792 108.061H116.096V108.054ZM144.201 114.221C144.806 114.841 145.538 115.322 146.346 115.631V168.004L115.031 113.754C115.459 113.257 115.799 112.689 116.034 112.076H142.792C143.101 112.885 143.582 113.617 144.201 114.221ZM109.537 115.83C110.205 115.919 110.881 115.908 111.545 115.796L140.647 166.196L103.439 134.014C103.689 133.339 103.815 132.624 103.811 131.904C103.827 130.518 103.338 129.174 102.436 128.122L109.537 115.83ZM142.861 173.367C142.841 173.414 142.818 173.46 142.792 173.504H78.2219C77.9847 172.854 77.6332 172.251 77.1838 171.724L96.8737 137.692C98.2287 137.96 99.6347 137.723 100.827 137.026L142.861 173.367ZM98.95 126.108C97.5951 125.84 96.1888 126.077 94.9969 126.775L78.1531 112.214C78.1802 112.17 78.2032 112.124 78.2219 112.076H104.979C105.213 112.695 105.557 113.279 106.017 113.816L98.95 126.108ZM92.4188 129.793C92.1475 130.463 92.012 131.181 92.02 131.904C92.02 133.348 92.4875 134.606 93.4294 135.685L74.6675 168.039V115.624C74.9695 115.516 75.2616 115.383 75.5406 115.225L92.4188 129.8V129.793ZM68.5075 114.221C69.1121 114.841 69.8439 115.322 70.6525 115.631V168.004L39.3712 113.85C39.8329 113.328 40.1963 112.727 40.4437 112.076H67.0981C67.4072 112.885 67.888 113.617 68.5075 114.221Z" fill="white"/>
</g>
<defs>
<clipPath id="clip0_2_19539">
<rect width="220" height="220" fill="white" transform="translate(0.5)"/>
</clipPath>
</defs>
</svg>
