<svg width="221" height="220" viewBox="0 0 221 220" fill="none" xmlns="http://www.w3.org/2000/svg">
<g clip-path="url(#clip0_2_19535)">
<path d="M110.5 220C171.251 220 220.5 170.751 220.5 110C220.5 49.2487 171.251 0 110.5 0C49.7487 0 0.5 49.2487 0.5 110C0.5 170.751 49.7487 220 110.5 220Z" fill="#F4C257"/>
<path d="M58.2156 148.081L50.2269 143.44V73.4594L63.0969 65.9794L71.0856 70.6131L58.2156 78.1V102.424L90.7619 121.344V130.343L58.2156 111.43V148.074V148.081ZM170.656 134.159V143.44L110.445 178.434L97.575 170.947V161.666L110.445 169.146L131.379 156.984V119.158L139.121 114.654V152.488L170.656 134.159ZM186.008 108.446V106.865L154.933 124.933V115.926L186.008 97.8656V64.5356L110.431 20.625L72.6531 42.5837L71.2919 43.3744L102.367 61.435L94.6256 65.9313L63.5506 47.8706L34.875 64.5356V152.357L72.6531 174.316L74.0212 175.106V138.985L81.7625 143.481V179.609L110.445 196.268L186.008 152.357V108.446ZM146.855 91.7812L115.574 109.973V147.799L110.445 150.776L106.574 148.528V112.159L74.0212 93.2388V87.285L77.8919 85.03L109.187 103.214L141.74 84.3081L146.862 87.285V91.7881L146.855 91.7812ZM102.456 43.1063L110.438 38.4725L170.649 73.4662V88.4194L162.674 93.0531V78.0931L141.726 65.9313L109.18 84.8444L101.432 80.3481L133.985 61.4281L102.456 43.1063Z" fill="white"/>
</g>
<defs>
<clipPath id="clip0_2_19535">
<rect width="220" height="220" fill="white" transform="translate(0.5)"/>
</clipPath>
</defs>
</svg>
