<svg width="221" height="220" viewBox="0 0 221 220" fill="none" xmlns="http://www.w3.org/2000/svg">
<g clip-path="url(#clip0_2_19529)">
<path d="M110.5 220C171.251 220 220.5 170.751 220.5 110C220.5 49.2487 171.251 0 110.5 0C49.7487 0 0.5 49.2487 0.5 110C0.5 170.751 49.7487 220 110.5 220Z" fill="#434247"/>
<path d="M110.5 27.5C88.781 27.5 67.9515 36.1278 52.5939 51.4855C37.2362 66.8431 28.6084 87.6726 28.6084 109.392C28.6084 131.111 37.2362 151.94 52.5939 167.298C67.9515 182.655 88.781 191.283 110.5 191.283C155.731 191.283 192.388 154.619 192.388 109.388C192.388 64.1644 155.737 27.5 110.5 27.5ZM110.5 187.969C67.0637 187.969 31.85 152.756 31.85 109.319C31.85 65.8969 67.0706 30.6831 110.5 30.6831C153.929 30.6831 189.15 65.8969 189.15 109.333C189.15 152.762 153.936 187.976 110.5 187.976" fill="white"/>
<path d="M119.493 117.437H140.255V148.072C140.255 151.11 137.141 152.733 134.171 154.293C131.263 155.847 126.526 155.51 118.544 155.51H108.809C93.8626 155.847 89.6688 154.699 86.087 153.138C82.5051 151.516 80.6763 149.22 80.6763 146.243V117.437H69.9238V149.893C69.9238 151.653 70.8038 153.682 72.1582 155.51C73.712 157.607 73.5126 158.212 76.8882 159.903C79.9338 161.457 82.9795 162.674 88.452 163.355C92.7145 163.891 91.972 163.76 99.5482 163.891H117.533C131.056 163.623 133.827 164.572 141.871 160.515C148.436 157.263 150.671 153.482 151.138 151.042V106.89H119.561V117.437H119.493ZM91.4976 54.9497C86.0182 55.2935 81.4876 56.9847 77.9745 58.3322C74.3926 59.6866 73.6432 61.3091 72.1582 63.0691C70.7832 64.6641 70.0132 66.706 69.9926 68.8166V104.793H80.8138V72.2541C80.8138 69.4835 82.5051 67.256 85.8188 65.6335C89.2013 63.9422 94.1376 63.131 98.7369 63.131H119.829C127.873 63.131 132.204 62.9935 134.707 64.4785C137.278 66.101 140.324 67.5241 140.324 70.5697V79.1566H151.138V67.5997C150.939 66.1078 149.316 61.8522 141.671 58.2635C134.776 55.0185 132.548 54.8191 121.727 54.8191" fill="white"/>
</g>
<defs>
<clipPath id="clip0_2_19529">
<rect width="220" height="220" fill="white" transform="translate(0.5)"/>
</clipPath>
</defs>
</svg>
