<svg width="221" height="220" viewBox="0 0 221 220" fill="none" xmlns="http://www.w3.org/2000/svg">
<g clip-path="url(#clip0_2_19525)">
<path d="M110.5 220C171.251 220 220.5 170.751 220.5 110C220.5 49.2487 171.251 0 110.5 0C49.7487 0 0.5 49.2487 0.5 110C0.5 170.751 49.7487 220 110.5 220Z" fill="#2AB8E6"/>
<path d="M75.85 41.25H145.15L151.75 48.0769V171.923L145.15 178.75H75.85L69.25 171.923V48.0769L75.85 41.25ZM82.45 165.089H138.55V54.9106H82.45V165.089ZM131.496 129.546H117.148V145.104H104.196V129.552H89.8475V116.153H131.496V129.546ZM131.496 91.1694V104.562H89.8475V91.1694H104.196V75.6113H117.148V91.1694H131.496Z" fill="white"/>
</g>
<defs>
<clipPath id="clip0_2_19525">
<rect width="220" height="220" fill="white" transform="translate(0.5)"/>
</clipPath>
</defs>
</svg>
