<svg width="221" height="220" viewBox="0 0 221 220" fill="none" xmlns="http://www.w3.org/2000/svg">
<g clip-path="url(#clip0_2_19516)">
<path d="M110.5 220C171.251 220 220.5 170.751 220.5 110C220.5 49.2487 171.251 0 110.5 0C49.7487 0 0.5 49.2487 0.5 110C0.5 170.751 49.7487 220 110.5 220Z" fill="#49BF87"/>
<path d="M51.2568 61.026L44.4996 68.6482L71.2589 75.7639L81.4518 101.272L88.232 93.6238L78.6922 67.3788L51.2568 61.026Z" fill="white"/>
<path d="M91.5967 56.5438L84.8394 64.166L111.599 71.2817L121.792 96.7897L128.572 89.1416L119.032 62.8966L91.5967 56.5438Z" fill="white"/>
<path d="M129.695 52.0616L122.938 59.6839L149.697 66.7995L159.89 92.3075L166.67 84.6594L157.131 58.4144L129.695 52.0616Z" fill="white"/>
<path d="M129.695 90.16L122.938 97.7822L149.697 104.898L159.89 130.406L166.67 122.758L157.131 96.5128L129.695 90.16Z" fill="white"/>
<path d="M129.695 137.223L122.938 144.845L149.697 151.961L159.89 177.469L166.67 169.821L157.131 143.576L129.695 137.223Z" fill="white"/>
</g>
<defs>
<clipPath id="clip0_2_19516">
<rect width="220" height="220" fill="white" transform="translate(0.5)"/>
</clipPath>
</defs>
</svg>
