<svg width="221" height="220" viewBox="0 0 221 220" fill="none" xmlns="http://www.w3.org/2000/svg">
<g clip-path="url(#clip0_2_19512)">
<path d="M110.5 220C171.251 220 220.5 170.751 220.5 110C220.5 49.2487 171.251 0 110.5 0C49.7487 0 0.5 49.2487 0.5 110C0.5 170.751 49.7487 220 110.5 220Z" fill="#EF494D"/>
<path fill-rule="evenodd" clip-rule="evenodd" d="M41.75 78.2787C41.75 76.8144 42.9394 75.625 44.4106 75.625H78.9506C94.8869 75.625 104.856 83.8475 104.856 95.4594C104.856 100.306 102.642 104.713 98.2144 108.68C104.409 112.207 107.509 117.494 107.509 124.541C107.509 141.075 91.5663 144.375 80.9375 144.375H44.4038C43.6999 144.375 43.0249 144.095 42.5273 143.598C42.0296 143.1 41.75 142.425 41.75 141.721V133.815C41.75 132.344 42.9394 131.154 44.4038 131.154H80.9375C88.4656 131.154 92.2331 128.727 92.2331 123.881C92.2331 119.034 88.4656 116.387 80.9375 115.947H44.4038C43.7011 115.947 43.0272 115.668 42.5297 115.172C42.0322 114.676 41.7518 114.003 41.75 113.3V105.394C41.75 103.922 42.9394 102.733 44.4038 102.733H80.9375C86.2519 101.853 88.9125 99.6531 88.9125 96.1263C88.9125 91.2794 86.2519 88.8525 80.9375 88.8525H44.4038C44.0547 88.8525 43.709 88.7836 43.3866 88.6498C43.0642 88.516 42.7714 88.32 42.5248 88.0728C42.2783 87.8257 42.083 87.5323 41.95 87.2095C41.8171 86.8868 41.7491 86.5409 41.75 86.1919V78.2856V78.2787ZM113.491 78.2787C113.491 76.8144 114.68 75.625 116.144 75.625H151.351C152.816 75.625 154.012 76.8144 154.012 78.2787V141.721C154.012 142.07 153.943 142.416 153.809 142.738C153.675 143.061 153.479 143.354 153.232 143.6C152.985 143.847 152.692 144.042 152.369 144.175C152.046 144.308 151.7 144.376 151.351 144.375H141.383C140.679 144.375 140.004 144.095 139.506 143.598C139.008 143.1 138.729 142.425 138.729 141.721V91.5063C138.73 91.1572 138.662 90.8114 138.529 90.4886C138.396 90.1658 138.2 89.8725 137.954 89.6253C137.707 89.3782 137.415 89.1821 137.092 89.0483C136.77 88.9145 136.424 88.8456 136.075 88.8456H116.138C115.434 88.8456 114.759 88.566 114.261 88.0684C113.763 87.5707 113.484 86.8957 113.484 86.1919L113.491 78.2787ZM163.3 75.625H176.589C178.054 75.625 179.243 76.8144 179.243 78.2787V86.185C179.244 86.5341 179.176 86.8799 179.043 87.2027C178.91 87.5254 178.715 87.8188 178.468 88.0659C178.222 88.3131 177.929 88.5092 177.607 88.643C177.284 88.7768 176.938 88.8456 176.589 88.8456H163.3C162.596 88.8456 161.921 88.566 161.424 88.0684C160.926 87.5707 160.646 86.8957 160.646 86.1919V78.2856C160.646 76.8144 161.836 75.625 163.3 75.625Z" fill="white"/>
</g>
<defs>
<clipPath id="clip0_2_19512">
<rect width="220" height="220" fill="white" transform="translate(0.5)"/>
</clipPath>
</defs>
</svg>
