<svg width="221" height="220" viewBox="0 0 221 220" fill="none" xmlns="http://www.w3.org/2000/svg">
<g clip-path="url(#clip0_2_19508)">
<path d="M110.5 220C171.251 220 220.5 170.751 220.5 110C220.5 49.2487 171.251 0 110.5 0C49.7487 0 0.5 49.2487 0.5 110C0.5 170.751 49.7487 220 110.5 220Z" fill="#24DD7B"/>
<path d="M90.5075 54.4019L120.778 41.25L120.531 75.9894H158.625V100.052H120.276V141.735C120.276 154.385 141.726 155.877 149.798 151.662L157.113 173.497C139.196 183.913 90.2531 181.431 90.2531 141.983V54.395H90.5075V54.4019ZM62.2513 106.501C54.7231 106.501 48.625 99.1719 48.625 90.1312C48.625 81.0837 54.7231 73.755 62.2513 73.755C69.7725 73.755 75.8706 81.0837 75.8706 90.1312C75.8706 99.1719 69.7725 106.501 62.2513 106.501Z" fill="white"/>
</g>
<defs>
<clipPath id="clip0_2_19508">
<rect width="220" height="220" fill="white" transform="translate(0.5)"/>
</clipPath>
</defs>
</svg>
