<svg width="221" height="220" viewBox="0 0 221 220" fill="none" xmlns="http://www.w3.org/2000/svg">
<g clip-path="url(#clip0_2_19502)">
<path d="M110.5 220C171.251 220 220.5 170.751 220.5 110C220.5 49.2487 171.251 0 110.5 0C49.7487 0 0.5 49.2487 0.5 110C0.5 170.751 49.7487 220 110.5 220Z" fill="#895AF8"/>
<path fill-rule="evenodd" clip-rule="evenodd" d="M122.669 97.9685C123.768 97.9025 124.87 97.9025 125.969 97.9685C136.144 98.656 140.819 112.475 147.281 111.719C141.224 116.67 134.199 120.3 126.656 122.375C123.52 122.832 120.323 122.193 117.604 120.564C114.886 118.936 112.813 116.418 111.738 113.437V140.937L151.75 118.112V82.4998L122.669 97.9685ZM102.8 97.8998C101.283 96.6427 100.047 95.0816 99.1704 93.3172C98.2941 91.5527 97.7975 89.6242 97.7125 87.656V87.106C97.7125 79.131 110.569 66.481 110.981 66.481C111.394 66.8935 124.25 79.1998 124.25 87.106V87.7248C124.127 91.2556 122.65 94.6038 120.125 97.0748L151.75 80.0935L110.5 59.881L69.25 79.8873L102.8 97.8998ZM109.537 113.712C108.474 116.706 106.407 119.239 103.687 120.881C100.967 122.522 97.7631 123.172 94.6187 122.719C87.076 120.643 80.0505 117.014 73.9937 112.062C80.4562 112.544 85.0625 98.656 95.3062 98.3123C96.4053 98.2462 97.5072 98.2462 98.6063 98.3123L69.25 82.4998V118.181L109.606 141.487L109.537 113.712Z" fill="white"/>
<path d="M110.5 27.5C64.9394 27.5 28 64.4394 28 110C28 155.561 64.9394 192.5 110.5 192.5C156.061 192.5 193 155.561 193 110C193 88.1196 184.308 67.1354 168.836 51.6637C153.365 36.1919 132.38 27.5 110.5 27.5ZM64.4375 76.9312L110.5 54.5875L156.631 76.9312V120.863L110.5 147.469L64.4375 120.863V76.9312ZM156.769 138.806L110.844 165.344L64.3688 138.531V135.988L110.844 162.8L156.769 136.262V138.806ZM156.769 133.65L110.844 160.188L64.3688 133.375V130.625L110.844 157.506L156.769 130.969V133.65ZM156.769 128.494L110.844 155.031L64.3688 128.219V125.675L110.844 152.556L156.769 126.019V128.494Z" fill="white"/>
</g>
<defs>
<clipPath id="clip0_2_19502">
<rect width="220" height="220" fill="white" transform="translate(0.5)"/>
</clipPath>
</defs>
</svg>
