<svg width="221" height="220" viewBox="0 0 221 220" fill="none" xmlns="http://www.w3.org/2000/svg">
<g clip-path="url(#clip0_2_19498)">
<path d="M110.5 220C171.251 220 220.5 170.751 220.5 110C220.5 49.2487 171.251 0 110.5 0C49.7487 0 0.5 49.2487 0.5 110C0.5 170.751 49.7487 220 110.5 220Z" fill="#FFC04E"/>
<path d="M107.736 81.5169H107.757L107.551 82.4106L105.763 90.8462H105.557L93.78 140.938H78.7994L90.81 90.8462H70.6525L59.3362 140.938H42.8638L57.8375 79.0625H108.252L107.736 81.5169ZM136.206 79.0625H161.162C182.632 80.0456 180.632 94.2837 180.632 94.2837H186.125L184.131 100.176H179.133C177.641 105.579 167.652 108.529 167.652 108.529C179.133 110 178.638 118.841 178.638 118.841H184.131L182.633 124.733H178.136C176.988 132.914 169.735 136.888 163.774 138.779C160.17 139.904 156.413 140.468 152.637 140.449H121.225L136.206 79.0625ZM50.8456 90.8462H34.875L37.8725 79.0625H53.8431L50.8456 90.8462ZM119.238 134.062L106.258 103.613L111.751 80.0456L124.724 109.017L119.238 134.062ZM157.422 103.613C159.209 103.613 160.928 102.926 162.186 101.674C163.444 100.423 164.159 98.7456 164.159 96.9856C164.159 95.2256 163.451 93.5413 162.186 92.2969C160.921 91.0525 159.209 90.3581 157.422 90.3581H147.694L144.703 103.613H157.422ZM154.06 129.154C158.536 129.154 162.166 125.744 162.166 121.543C162.166 117.336 158.556 113.926 154.06 113.926H142.359L138.756 129.154H154.06Z" fill="white"/>
</g>
<defs>
<clipPath id="clip0_2_19498">
<rect width="220" height="220" fill="white" transform="translate(0.5)"/>
</clipPath>
</defs>
</svg>
