<svg width="221" height="220" viewBox="0 0 221 220" fill="none" xmlns="http://www.w3.org/2000/svg">
<g clip-path="url(#clip0_2_19494)">
<path d="M110.5 220C171.251 220 220.5 170.751 220.5 110C220.5 49.2487 171.251 0 110.5 0C49.7487 0 0.5 49.2487 0.5 110C0.5 170.751 49.7487 220 110.5 220Z" fill="#FF439B"/>
<path fill-rule="evenodd" clip-rule="evenodd" d="M125.804 94.9025L164.531 161.562H57.1844L70.0475 140.229L127.88 140.243L113.222 116.318L125.804 94.9025ZM86.2725 110.412L125.646 44.9625L179.25 135.211H153.51L125.185 85.9856L111.428 110.419L86.2725 110.412ZM119.857 135.293L41.75 134.922L95.4231 44.6875L108.211 66.3162L78.6275 113.877H107.276L119.857 135.293Z" fill="white"/>
</g>
<defs>
<clipPath id="clip0_2_19494">
<rect width="220" height="220" fill="white" transform="translate(0.5)"/>
</clipPath>
</defs>
</svg>
