<svg width="221" height="220" viewBox="0 0 221 220" fill="none" xmlns="http://www.w3.org/2000/svg">
<g clip-path="url(#clip0_2_19490)">
<path d="M110.5 220C171.251 220 220.5 170.751 220.5 110C220.5 49.2487 171.251 0 110.5 0C49.7487 0 0.5 49.2487 0.5 110C0.5 170.751 49.7487 220 110.5 220Z" fill="#FF4081"/>
<path d="M95.9938 147.832L97.08 171.874C97.08 171.874 109.971 169.688 123.397 171.874L124.47 147.832H95.9938ZM80.4288 129.249C80.4288 129.249 118.028 125.97 140.049 129.249L142.194 103.021C121.279 101.399 100.271 101.399 79.3563 103.021L80.4288 129.249ZM179.25 61.4891C179.25 61.4891 107.276 46.1854 41.75 62.5823L46.5831 92.6329L52.4956 81.1585C52.4956 81.1585 114.261 71.8704 169.577 81.1585L174.953 92.6398L179.25 61.4891Z" fill="white"/>
</g>
<defs>
<clipPath id="clip0_2_19490">
<rect width="220" height="220" fill="white" transform="translate(0.5)"/>
</clipPath>
</defs>
</svg>
