<svg width="221" height="220" viewBox="0 0 221 220" fill="none" xmlns="http://www.w3.org/2000/svg">
<g clip-path="url(#clip0_2_19486)">
<path d="M110.5 220C171.251 220 220.5 170.751 220.5 110C220.5 49.2487 171.251 0 110.5 0C49.7487 0 0.5 49.2487 0.5 110C0.5 170.751 49.7487 220 110.5 220Z" fill="#1A1F36"/>
<path d="M127.86 99.4412C128.832 99.4434 129.767 99.0697 130.47 98.3984C131.173 97.7271 131.589 96.81 131.632 95.8388C131.675 94.8677 131.34 93.9176 130.699 93.1873C130.057 92.457 129.158 92.0029 128.19 91.9199H101.79V85.3199C101.531 84.4069 100.981 83.6033 100.225 83.031C99.4677 82.4587 98.5447 82.1491 97.5958 82.1491C96.6469 82.1491 95.724 82.4587 94.9671 83.031C94.2102 83.6033 93.6607 84.4069 93.4021 85.3199V91.9199H86.3415C85.3441 91.9199 84.3876 92.3161 83.6823 93.0214C82.977 93.7266 82.5808 94.6832 82.5808 95.6805C82.5808 96.6779 82.977 97.6344 83.6823 98.3397C84.3876 99.0449 85.3441 99.4412 86.3415 99.4412H93.409V122.404C93.4416 128.181 95.755 133.712 99.8456 137.793C103.936 141.873 109.473 144.172 115.251 144.191C120.068 144.117 124.719 142.419 128.451 139.371L130.032 138.051C130.541 137.694 130.969 137.235 131.288 136.701C131.607 136.168 131.81 135.574 131.884 134.957C131.958 134.34 131.901 133.714 131.716 133.121C131.532 132.527 131.225 131.979 130.815 131.512C130.404 131.046 129.9 130.671 129.335 130.412C128.77 130.153 128.157 130.017 127.536 130.011C126.914 130.005 126.299 130.13 125.729 130.379C125.159 130.627 124.648 130.992 124.23 131.451L123.04 132.441C121.15 134.006 118.847 134.988 116.41 135.268C113.973 135.549 111.507 135.116 109.311 134.022C107.065 132.952 105.167 131.269 103.837 129.167C102.506 127.065 101.796 124.63 101.79 122.142V99.4412H127.86ZM170.76 125.051C170.847 124.625 170.849 124.187 170.767 123.761C170.685 123.334 170.519 122.929 170.279 122.566C170.04 122.204 169.731 121.893 169.371 121.65C169.011 121.408 168.607 121.239 168.181 121.152H166.531C165.798 121.149 165.085 121.396 164.51 121.852C163.935 122.308 163.533 122.947 163.369 123.662C161.767 130.668 158.716 137.261 154.412 143.017C150.109 148.773 144.647 153.564 138.38 157.082C132.112 160.599 125.178 162.766 118.022 163.441C110.867 164.117 103.65 163.287 96.8348 161.004C90.0198 158.722 83.7582 155.038 78.4531 150.189C73.148 145.34 68.9169 139.434 66.0323 132.852C63.1476 126.269 61.6732 119.155 61.7041 111.968C61.735 104.781 63.2704 97.6801 66.2115 91.1224C68.5772 85.4113 72.045 80.2222 76.4168 75.8517C80.7885 71.4812 85.9785 68.0148 91.6902 65.6505C102.833 60.6755 115.374 59.788 127.107 63.1441C138.84 66.5001 149.014 73.8848 155.841 83.9999C156.324 84.705 157.062 85.1951 157.9 85.3669C158.737 85.5388 159.608 85.379 160.33 84.9212L160.921 84.5224C161.714 84.0212 162.278 83.2275 162.489 82.3136C162.7 81.3996 162.542 80.4393 162.049 79.6412C154.602 68.6792 143.702 60.5226 131.085 56.4688C118.468 52.4151 104.857 52.697 92.419 57.2699C84.5282 59.9818 77.3474 64.4318 71.4071 70.2911C65.4668 76.1505 60.9188 83.2695 58.099 91.1224C55.1684 98.7031 53.8356 106.808 54.1843 114.928C54.5329 123.048 56.5553 131.008 60.1249 138.31C63.6944 145.611 68.7339 152.097 74.9276 157.359C81.1212 162.622 88.3353 166.548 96.1175 168.892C103.9 171.235 112.082 171.946 120.152 170.979C128.222 170.012 136.005 167.388 143.013 163.272C150.021 159.155 156.103 153.636 160.877 147.059C165.652 140.482 169.017 132.989 170.76 125.051ZM116.509 34.0324H109.909C97.9834 34.5335 86.3281 37.7417 75.8259 43.4139C65.3237 49.0862 56.2499 57.0738 49.2916 66.7719C42.3334 76.4701 37.6731 87.6244 35.6638 99.3901C33.6544 111.156 34.3487 123.225 37.694 134.682C37.983 135.637 38.6394 136.437 39.5187 136.908C40.398 137.379 41.4282 137.481 42.3827 137.192H42.9121C43.7101 136.806 44.3463 136.151 44.7086 135.343C45.0708 134.534 45.1358 133.623 44.8921 132.771C40.5194 117.795 41.1906 101.796 46.8023 87.2388C52.414 72.6812 62.6551 60.3718 75.9489 52.2056C89.2427 44.0393 104.852 40.4691 120.374 42.0444C135.896 43.6198 150.47 50.2534 161.852 60.924C173.234 71.5947 180.793 85.7107 183.365 101.099C185.938 116.487 183.381 132.294 176.089 146.087C168.796 159.879 157.172 170.892 143.007 177.43C128.841 183.969 112.919 185.67 97.6921 182.271C97.0334 182.131 96.3485 182.181 95.717 182.415C95.0854 182.648 94.5331 183.056 94.124 183.591C93.7155 184.1 93.444 184.705 93.3352 185.349C93.2264 185.993 93.2839 186.653 93.5023 187.268C93.7206 187.883 94.0926 188.433 94.5828 188.863C95.0731 189.294 95.6653 189.593 96.3033 189.731C106.797 191.653 117.572 191.42 127.972 189.044C138.372 186.669 148.18 182.202 156.799 175.914C165.417 169.627 172.666 161.651 178.103 152.473C183.54 143.294 187.052 133.105 188.425 122.525C189.798 111.946 189.003 101.198 186.089 90.9355C183.175 80.6731 178.202 71.1113 171.474 62.8323C164.746 54.5534 156.403 47.7305 146.954 42.7793C137.504 37.828 127.146 34.852 116.509 34.0324Z" fill="white"/>
</g>
<defs>
<clipPath id="clip0_2_19486">
<rect width="220" height="220" fill="white" transform="translate(0.5)"/>
</clipPath>
</defs>
</svg>
