<svg width="221" height="220" viewBox="0 0 221 220" fill="none" xmlns="http://www.w3.org/2000/svg">
<g clip-path="url(#clip0_2_19479)">
<path d="M110.5 220C171.251 220 220.5 170.751 220.5 110C220.5 49.2487 171.251 0 110.5 0C49.7487 0 0.5 49.2487 0.5 110C0.5 170.751 49.7487 220 110.5 220Z" fill="#3058A6"/>
<path d="M110.465 187.195C67.8541 187.195 33.3072 152.648 33.3072 110.037C33.3072 67.4254 67.8541 32.8785 110.465 32.8785C153.077 32.8785 187.623 67.4254 187.623 110.037C187.623 152.648 153.077 187.195 110.465 187.195ZM110.465 27.9629C65.2072 27.9629 28.3916 64.7785 28.3916 110.037C28.3916 155.295 65.2072 192.11 110.465 192.11C155.723 192.11 192.539 155.295 192.539 110.037C192.539 64.7785 155.723 27.9629 110.465 27.9629Z" fill="white"/>
<path fill-rule="evenodd" clip-rule="evenodd" d="M139.368 139.394L135.084 157.95L134.053 162.439H129.447L105.763 162.426H105.666C96.1719 162.268 88.7194 159.744 83.8313 155.289C88.0525 162.735 97.0175 167.046 109.53 167.252H109.626L133.304 167.266H137.91L138.948 162.776L143.231 144.221L139.89 137.133L139.368 139.394ZM131.922 59.8438L128.539 52.8107L128.058 55.0107L124.848 69.6338H129.77L131.922 59.8438ZM149.02 76.7632L144.758 94.81L143.699 99.265H118.034L111.517 129.02C111.379 129.873 111.297 130.739 111.297 131.22C111.297 131.639 111.345 131.908 111.386 132.038C111.876 132.222 112.396 132.31 112.919 132.299H115.724L121.898 104.098H147.563L148.614 99.6363L152.877 81.5894L149.563 74.4669L149.013 76.7632H149.02ZM85.3438 99.265H67.4619L73.6219 104.098H84.2919L85.3438 99.265Z" fill="white"/>
<path fill-rule="evenodd" clip-rule="evenodd" d="M113.483 138.093H112.83C107.852 137.962 105.501 135.37 105.501 131.218C105.501 130.228 105.666 128.915 105.831 127.932L113.38 93.4742H139.12L143.382 75.4273H117.642L122.4 53.7711H101.403L96.6391 75.4273H73.8553L69.7578 93.4742H92.5416L83.6728 134.002C83.1916 135.969 83.0197 138.265 83.0197 139.413C83.0197 150.977 92.1428 156.408 105.762 156.635L129.44 156.642L133.723 138.093H113.483Z" fill="white"/>
</g>
<defs>
<clipPath id="clip0_2_19479">
<rect width="220" height="220" fill="white" transform="translate(0.5)"/>
</clipPath>
</defs>
</svg>
