<svg width="221" height="220" viewBox="0 0 221 220" fill="none" xmlns="http://www.w3.org/2000/svg">
<g clip-path="url(#clip0_2_19475)">
<path d="M110.5 220C171.251 220 220.5 170.751 220.5 110C220.5 49.2487 171.251 0 110.5 0C49.7487 0 0.5 49.2487 0.5 110C0.5 170.751 49.7487 220 110.5 220Z" fill="#30C0F2"/>
<path d="M70.0951 48.125H151.041C151.041 48.125 153.186 58.8088 164.654 59.5238C164.654 59.5238 202.618 147.868 110.211 185.625C110.211 185.625 24.9676 158.551 55.0526 60.2388C55.0526 60.2388 67.9501 59.5238 70.0951 48.125ZM146.751 55.1581H74.4264L74.3301 56.6981C73.7251 60.06 72.0407 62.4044 69.5726 63.9856C68.043 64.9501 66.329 65.5846 64.5401 65.8488L63.2751 65.9725L62.9176 67.1963C56.2557 89.9525 56.0289 109.615 61.2745 126.39C65.5782 140.14 73.3676 151.415 83.632 160.421C89.0492 165.172 95.0433 169.221 101.473 172.473C103.604 173.552 105.598 174.439 107.378 175.154C108.458 175.587 109.248 175.869 109.681 176.014L110.355 176.22L111.008 175.945C136.487 165.055 151.901 148.596 158.803 128.095C164.509 111.182 164.001 93.1769 159.745 76.1269C158.927 72.856 157.94 69.6296 156.789 66.4606C156.696 66.2095 156.6 65.9597 156.5 65.7112L156.06 64.625L154.884 64.5494C151.543 64.3294 149.419 62.9681 148.106 60.7819C147.407 59.6064 146.973 58.2925 146.834 56.9319L146.751 55.1581ZM77.692 58.905C121.465 58.9119 143.348 58.9188 143.348 58.9256C143.651 60.2113 144.139 61.49 144.861 62.7069C146.621 65.6288 149.446 67.6019 153.406 68.1656C154.445 71.076 155.34 74.0359 156.088 77.0344C160.185 93.4519 160.666 110.763 155.228 126.906C148.731 146.204 134.287 161.741 110.19 172.212C107.801 171.311 105.462 170.281 103.184 169.125C97.0385 166.02 91.3078 162.153 86.1276 157.616C76.3582 149.036 68.9607 138.339 64.877 125.283C59.9407 109.505 60.0713 90.9562 66.2107 69.3619C68.1213 68.9255 69.9454 68.1726 71.6076 67.1344C74.6046 65.2607 76.7791 62.3196 77.692 58.905ZM128.292 97.2812H126.209C126.415 93.1012 125.487 83.9988 114.178 81.4688C110.892 80.6831 107.451 80.8404 104.25 81.9225C99.8363 83.49 94.5701 87.4294 94.3707 97.2812H92.8376C91.2754 97.2812 89.7768 97.8994 88.6689 99.0008C87.5611 100.102 86.9342 101.597 86.9251 103.159V127.738C86.9342 129.3 87.5611 130.795 88.6689 131.896C89.7768 132.997 91.2754 133.616 92.8376 133.616H128.299C129.861 133.616 131.36 132.997 132.468 131.896C133.575 130.795 134.202 129.3 134.211 127.738V103.159C134.202 101.597 133.575 100.102 132.468 99.0008C131.36 97.8994 129.861 97.2812 128.299 97.2812H128.292ZM114.508 125.07H106.629L108.712 114.709C107.732 114.287 106.929 113.539 106.437 112.592C105.946 111.645 105.797 110.558 106.015 109.513C106.233 108.469 106.806 107.532 107.636 106.862C108.465 106.191 109.501 105.828 110.568 105.834C111.198 105.562 111.88 105.434 112.566 105.459C113.251 105.483 113.923 105.66 114.532 105.976C115.14 106.292 115.671 106.739 116.086 107.286C116.501 107.832 116.789 108.464 116.929 109.135C117.069 109.807 117.059 110.501 116.898 111.168C116.737 111.835 116.43 112.457 115.999 112.991C115.568 113.524 115.023 113.955 114.405 114.252C113.787 114.55 113.11 114.706 112.424 114.709L114.508 125.07ZM99.4651 97.2812C99.6576 94.0637 101.019 86.4462 109.496 85.8825C109.496 85.8825 120.674 85.2706 120.475 97.2812H99.4651Z" fill="white"/>
</g>
<defs>
<clipPath id="clip0_2_19475">
<rect width="220" height="220" fill="white" transform="translate(0.5)"/>
</clipPath>
</defs>
</svg>
