<svg width="221" height="220" viewBox="0 0 221 220" fill="none" xmlns="http://www.w3.org/2000/svg">
<g clip-path="url(#clip0_2_19469)">
<path d="M110.5 220C171.251 220 220.5 170.751 220.5 110C220.5 49.2487 171.251 0 110.5 0C49.7487 0 0.5 49.2487 0.5 110C0.5 170.751 49.7487 220 110.5 220Z" fill="#00843D"/>
<path d="M110.541 38.5006C113.25 38.5006 115.91 39.2088 118.255 40.5631L167.48 68.9844C169.826 70.3399 171.774 72.2893 173.128 74.6366C174.482 76.9839 175.195 79.6464 175.193 82.3563V140.34C175.193 145.854 172.258 150.948 167.48 153.705L118.248 182.133C115.901 183.488 113.24 184.201 110.53 184.201C107.821 184.201 105.16 183.488 102.813 182.133L53.5745 153.705C51.2283 152.35 49.2797 150.402 47.9245 148.056C46.5693 145.71 45.8552 143.049 45.8539 140.34V82.3563C45.8539 76.8425 48.7964 71.7481 53.5745 68.9844L102.8 40.5631C105.151 39.2088 107.818 38.4938 110.52 38.4938H110.534L110.541 38.5006ZM110.527 27.7688C105.936 27.7714 101.427 28.9806 97.4508 31.275L48.212 59.6894C44.239 61.9912 40.9397 65.2955 38.6439 69.2719C36.348 73.2484 35.136 77.7577 35.1289 82.3494V140.333C35.136 144.925 36.348 149.434 38.6439 153.411C40.9397 157.387 44.239 160.691 48.212 162.993L97.437 191.414C105.536 196.089 115.511 196.089 123.603 191.414L172.835 162.993C176.808 160.691 180.107 157.387 182.403 153.411C184.699 149.434 185.911 144.925 185.918 140.333V82.3494C185.911 77.7577 184.699 73.2484 182.403 69.2719C180.107 65.2955 176.808 61.9912 172.835 59.6894L123.61 31.2613C119.63 28.9645 115.116 27.7553 110.52 27.755L110.527 27.7688Z" fill="white"/>
<path d="M104.498 120.453C103.932 120.454 103.376 120.306 102.886 120.024C102.396 119.741 101.989 119.334 101.706 118.845L95.7871 108.58C95.5047 108.091 95.356 107.536 95.356 106.971C95.356 106.407 95.5047 105.852 95.7871 105.363L101.706 95.0984C101.989 94.6085 102.396 94.2019 102.886 93.9195C103.376 93.637 103.932 93.4888 104.498 93.4896H116.584C117.148 93.4914 117.702 93.6408 118.191 93.923C118.679 94.2053 119.085 94.6105 119.368 95.0984L125.295 105.363C125.577 105.852 125.726 106.407 125.726 106.971C125.726 107.536 125.577 108.091 125.295 108.58L119.368 118.845C119.086 119.333 118.68 119.739 118.192 120.022C117.703 120.304 117.148 120.453 116.584 120.453H104.498ZM88.3484 104.29C88.9137 104.29 89.469 104.141 89.9588 103.859C90.4486 103.576 90.8557 103.17 91.1396 102.681L97.059 92.4171C97.3414 91.928 97.49 91.3732 97.49 90.8084C97.49 90.2436 97.3414 89.6887 97.059 89.1996L89.6752 76.4052L75.2584 84.2702C74.7415 84.5534 74.3124 84.9731 74.0178 85.4835C73.7232 85.9939 73.5744 86.5754 73.5877 87.1646C73.7046 92.9259 74.3784 98.6596 75.5884 104.29H88.3484ZM132.726 104.29C132.162 104.29 131.608 104.141 131.119 103.859C130.63 103.576 130.224 103.17 129.942 102.681L124.016 92.4171C123.733 91.928 123.585 91.3732 123.585 90.8084C123.585 90.2436 123.733 89.6887 124.016 89.1996L131.4 76.4052L145.81 84.2702C146.327 84.552 146.757 84.9702 147.052 85.4793C147.348 85.9885 147.498 86.569 147.487 87.1577C147.37 92.919 146.702 98.6559 145.493 104.29H132.726ZM112.081 65.8521C111.608 65.5946 111.079 65.4596 110.541 65.4596C110.003 65.4596 109.473 65.5946 109.001 65.8521L94.3846 73.8271L101.713 86.5184C101.996 87.0072 102.401 87.4132 102.89 87.6955C103.379 87.9779 103.933 88.1267 104.498 88.1271H116.584C117.149 88.1274 117.703 87.9789 118.192 87.6965C118.681 87.414 119.087 87.0076 119.368 86.5184L126.697 73.834L112.081 65.859V65.8521ZM76.9221 109.653C79.6795 119.462 84.085 128.731 89.9502 137.063L97.0659 124.743C97.3482 124.254 97.4969 123.699 97.4969 123.135C97.4969 122.57 97.3482 122.015 97.0659 121.526L91.1396 111.261C90.8574 110.773 90.4515 110.367 89.9628 110.084C89.4741 109.802 88.9197 109.653 88.3552 109.653H76.9221ZM144.146 109.653C141.391 119.462 136.987 128.731 131.125 137.063L124.009 124.743C123.727 124.254 123.578 123.699 123.578 123.135C123.578 122.57 123.727 122.015 124.009 121.526L129.942 111.261C130.224 110.773 130.63 110.367 131.119 110.084C131.608 109.802 132.162 109.653 132.726 109.653H144.153H144.146ZM104.498 125.816C103.932 125.815 103.376 125.963 102.886 126.246C102.396 126.528 101.989 126.935 101.706 127.425L93.4565 141.725C97.8995 147.245 102.973 152.227 108.575 156.568C109.139 157.002 109.832 157.237 110.544 157.237C111.257 157.237 111.949 157.002 112.514 156.568C118.113 152.224 123.185 147.24 127.625 141.718L119.375 127.425C119.093 126.936 118.687 126.53 118.198 126.247C117.71 125.965 117.155 125.816 116.591 125.816H104.491H104.498Z" fill="white"/>
</g>
<defs>
<clipPath id="clip0_2_19469">
<rect width="220" height="220" fill="white" transform="translate(0.5)"/>
</clipPath>
</defs>
</svg>
