<svg width="221" height="220" viewBox="0 0 221 220" fill="none" xmlns="http://www.w3.org/2000/svg">
<g clip-path="url(#clip0_2_19465)">
<path d="M110.5 220C171.251 220 220.5 170.751 220.5 110C220.5 49.2487 171.251 0 110.5 0C49.7487 0 0.5 49.2487 0.5 110C0.5 170.751 49.7487 220 110.5 220Z" fill="#EF0027"/>
<path d="M151.282 68.1509L52.0625 49.8909L104.278 181.286L177.036 92.6396L151.282 68.1509ZM149.688 76.1946L164.868 90.6253L123.356 98.1396L149.688 76.1946ZM114.336 96.634L70.5837 60.3478L142.097 73.5065L114.336 96.634ZM111.222 103.055L104.086 162.043L65.62 65.2222L111.222 103.048V103.055ZM117.822 106.183L163.795 97.8646L111.064 162.098L117.822 106.183Z" fill="white"/>
</g>
<defs>
<clipPath id="clip0_2_19465">
<rect width="220" height="220" fill="white" transform="translate(0.5)"/>
</clipPath>
</defs>
</svg>
