<svg width="221" height="220" viewBox="0 0 221 220" fill="none" xmlns="http://www.w3.org/2000/svg">
<g clip-path="url(#clip0_2_19458)">
<path d="M110.5 220C171.251 220 220.5 170.751 220.5 110C220.5 49.2487 171.251 0 110.5 0C49.7487 0 0.5 49.2487 0.5 110C0.5 170.751 49.7487 220 110.5 220Z" fill="#2B2E7F"/>
<path d="M117.768 130.817V90.5295H123.061C140.558 90.5295 144.869 74.2151 144.869 74.2151H98.9232C77.1157 74.2151 73.417 90.5364 73.417 90.5364H100.525V151.153C100.525 151.153 117.768 145.976 117.768 130.817Z" fill="white"/>
<path d="M168.216 162.208C183.671 146.148 189.598 123.846 184.036 102.512C181.1 91.3499 175.211 81.185 166.986 73.0875C166.243 72.3587 165.501 71.6162 164.634 70.8875L163.892 70.1519C163.388 69.6658 162.85 69.2155 162.283 68.8044L161.293 68.0687L159.815 66.9687L158.942 66.35C158.352 65.9635 157.776 65.5553 157.216 65.1262L156.096 64.3975C155.634 64.0614 155.138 63.7735 154.618 63.5381L153.504 62.8025C153.009 62.555 152.514 62.1837 152.019 61.9431L150.905 61.3244C150.41 61.0837 149.915 60.8362 149.296 60.5956L148.918 60.4719C150.279 61.5719 151.634 62.8025 152.871 64.0262C158.512 69.6188 162.989 76.273 166.044 83.6049C169.099 90.9367 170.672 98.8011 170.672 106.744C170.672 114.687 169.099 122.551 166.044 129.883C162.989 137.215 158.512 143.869 152.871 149.462C122.718 179.368 73.7745 179.368 43.607 149.462C42.4932 148.362 41.5032 147.262 40.3963 146.162L39.5301 145.179C38.8823 144.425 38.2631 143.648 37.6738 142.848C41.5516 150.453 46.5997 157.401 52.6338 163.439C84.1488 194.693 135.313 194.693 166.828 163.439C167.377 163.135 167.851 162.712 168.216 162.201V162.208Z" fill="white"/>
<path d="M72.0004 153.905C70.6249 152.784 69.3035 151.597 68.0404 150.351C62.3941 144.753 57.9124 138.092 54.854 130.753C51.7955 123.414 50.2208 115.542 50.2208 107.592C50.2208 99.6409 51.7955 91.7688 54.854 84.4298C57.9124 77.0909 62.3941 70.4303 68.0404 64.8326C98.2285 34.8988 147.213 34.8988 177.401 64.8326C179.505 66.9226 181.478 69.1294 183.334 71.4601C179.452 63.8872 174.401 56.9733 168.367 50.9726C136.825 19.6844 85.606 19.6844 54.0635 50.9726C53.6922 51.3369 53.321 51.8319 52.826 52.1963C31.9191 74.0382 29.0729 106.674 45.7791 131.458C52.3379 141.014 61.4816 148.989 72.0004 153.905Z" fill="white"/>
</g>
<defs>
<clipPath id="clip0_2_19458">
<rect width="220" height="220" fill="white" transform="translate(0.5)"/>
</clipPath>
</defs>
</svg>
