<svg width="221" height="220" viewBox="0 0 221 220" fill="none" xmlns="http://www.w3.org/2000/svg">
<g clip-path="url(#clip0_2_19454)">
<path d="M110.5 220C171.251 220 220.5 170.751 220.5 110C220.5 49.2487 171.251 0 110.5 0C49.7487 0 0.5 49.2487 0.5 110C0.5 170.751 49.7487 220 110.5 220Z" fill="#374851"/>
<path fill-rule="evenodd" clip-rule="evenodd" d="M122.188 105.875V158.111C123.59 157.767 124.965 157.376 126.312 156.922V176.928C117.295 179.05 107.942 179.333 98.8125 177.76V105.875H74.75V86.625H146.25V105.875H122.188ZM131.812 175.381V154.688C141.948 149.853 150.138 141.715 155.038 131.611C159.939 121.507 161.258 110.037 158.779 99.0849C156.301 88.1323 150.172 78.348 141.398 71.3384C132.625 64.3288 121.73 60.5106 110.5 60.5106C99.2705 60.5106 88.3747 64.3288 79.6016 71.3384C70.8284 78.348 64.6994 88.1323 62.2208 99.0849C59.7422 110.037 61.0614 121.507 65.9617 131.611C70.862 141.715 79.0521 149.853 89.1875 154.688V175.381C61.6531 166.409 41.75 140.525 41.75 110C41.75 72.0294 72.5294 41.25 110.5 41.25C148.471 41.25 179.25 72.0294 179.25 110C179.25 140.525 159.347 166.409 131.812 175.381Z" fill="white"/>
</g>
<defs>
<clipPath id="clip0_2_19454">
<rect width="220" height="220" fill="white" transform="translate(0.5)"/>
</clipPath>
</defs>
</svg>
