<svg width="221" height="220" viewBox="0 0 221 220" fill="none" xmlns="http://www.w3.org/2000/svg">
<g clip-path="url(#clip0_2_19449)">
<path d="M110.5 220C171.251 220 220.5 170.751 220.5 110C220.5 49.2487 171.251 0 110.5 0C49.7487 0 0.5 49.2487 0.5 110C0.5 170.751 49.7487 220 110.5 220Z" fill="#00EA90"/>
<path d="M125.728 51.6164L179.195 79.5839L127.68 111.161L125.728 51.6164ZM95.2716 168.086L41.8047 140.118L93.3191 108.535L95.2716 168.086Z" fill="white" fill-opacity="0.698"/>
<path d="M179.195 142.168L104.855 185.625V124.651L179.195 79.585V142.168ZM41.8047 77.5431L116.144 34.375V95.1087L41.8047 140.119V77.5362V77.5431Z" fill="white"/>
</g>
<defs>
<clipPath id="clip0_2_19449">
<rect width="220" height="220" fill="white" transform="translate(0.5)"/>
</clipPath>
</defs>
</svg>
