<svg width="221" height="220" viewBox="0 0 221 220" fill="none" xmlns="http://www.w3.org/2000/svg">
<g clip-path="url(#clip0_2_19443)">
<path d="M110.5 220C171.251 220 220.5 170.751 220.5 110C220.5 49.2487 171.251 0 110.5 0C49.7487 0 0.5 49.2487 0.5 110C0.5 170.751 49.7487 220 110.5 220Z" fill="#FF4A4A"/>
<path d="M133.38 130.494H126.423C126.109 130.495 125.798 130.434 125.508 130.315C125.219 130.195 124.955 130.019 124.734 129.798C124.512 129.576 124.336 129.313 124.217 129.023C124.097 128.733 124.036 128.422 124.037 128.109V109.808L111.854 117.411C111.352 117.728 110.77 117.895 110.177 117.895C109.583 117.895 109.002 117.728 108.499 117.411L96.3856 109.808V128.109C96.3856 129.401 95.3544 130.494 94 130.494H87.1044C86.7908 130.495 86.4802 130.434 86.1904 130.315C85.9005 130.195 85.6372 130.019 85.4155 129.798C85.1938 129.576 85.0181 129.313 84.8985 129.023C84.7789 128.733 84.7178 128.422 84.7188 128.109V92.7919C84.7188 91.9532 85.0519 91.1488 85.645 90.5557C86.2381 89.9626 87.0425 89.6294 87.8812 89.6294C88.5206 89.6294 89.0981 89.8288 89.6138 90.2138L108.822 103.428C109.205 103.712 109.669 103.865 110.146 103.865C110.623 103.865 111.087 103.712 111.469 103.428L130.671 90.2138C131.146 89.8957 131.698 89.7112 132.269 89.6795C132.84 89.6479 133.409 89.7702 133.916 90.0337C134.424 90.2972 134.851 90.6923 135.153 91.1775C135.456 91.6628 135.622 92.2203 135.635 92.7919V128.109C135.651 128.415 135.604 128.722 135.498 129.01C135.392 129.298 135.229 129.561 135.018 129.784C134.807 130.007 134.553 130.185 134.272 130.307C133.99 130.429 133.687 130.493 133.38 130.494ZM74.3375 130.433H31.1625C30.3238 130.433 29.5194 130.099 28.9263 129.506C28.3332 128.913 28 128.109 28 127.27V91.7607C28.0126 91.1212 28.2765 90.5124 28.7345 90.0659C29.1925 89.6195 29.8079 89.3713 30.4475 89.375H37.4187C38.7044 89.375 39.8044 90.4063 39.8044 91.7607V118.766H65.9706V91.7607C65.9706 90.4682 67.0019 89.375 68.3563 89.375H75.1213C76.4137 89.375 77.5069 90.4063 77.5069 91.7607V127.277C77.5051 128.114 77.1711 128.917 76.5782 129.509C75.9853 130.1 75.1819 130.433 74.3444 130.433H74.3375ZM146.14 89.375H189.329C190.166 89.3769 190.969 89.7109 191.561 90.3037C192.152 90.8966 192.484 91.7 192.484 92.5375V128.047C192.484 129.339 191.453 130.433 190.161 130.433H183.203C182.89 130.433 182.579 130.372 182.289 130.253C181.999 130.133 181.736 129.958 181.514 129.736C181.293 129.514 181.117 129.251 180.997 128.961C180.878 128.671 180.817 128.36 180.818 128.047V102.589C180.812 102.18 180.647 101.79 180.359 101.501C180.07 101.212 179.679 101.047 179.271 101.042H156.26C155.851 101.047 155.461 101.212 155.172 101.501C154.883 101.79 154.718 102.18 154.713 102.589V128.047C154.713 129.339 153.682 130.433 152.327 130.433H145.37C145.056 130.433 144.746 130.372 144.456 130.253C144.166 130.133 143.903 129.958 143.681 129.736C143.459 129.514 143.284 129.251 143.164 128.961C143.045 128.671 142.983 128.36 142.984 128.047V92.5307C142.986 91.6931 143.32 90.8905 143.913 90.2989C144.506 89.7073 145.309 89.375 146.147 89.375H146.14Z" fill="white"/>
<path d="M164.256 108.516H171.151C172.437 108.516 173.537 109.547 173.537 110.902V117.928C173.537 119.22 172.506 120.314 171.151 120.314H164.256C163.942 120.314 163.632 120.253 163.342 120.134C163.052 120.014 162.789 119.839 162.567 119.617C162.345 119.395 162.169 119.132 162.05 118.842C161.93 118.552 161.869 118.241 161.87 117.928V110.84C161.87 109.547 162.97 108.516 164.256 108.516Z" fill="white"/>
</g>
<defs>
<clipPath id="clip0_2_19443">
<rect width="220" height="220" fill="white" transform="translate(0.5)"/>
</clipPath>
</defs>
</svg>
