<svg width="221" height="220" viewBox="0 0 221 220" fill="none" xmlns="http://www.w3.org/2000/svg">
<g clip-path="url(#clip0_2_19423)">
<circle cx="110.5" cy="110" r="110" fill="white"/>
<path d="M96.6643 69.5167C95.0683 69.2887 94.9923 69.2127 95.7523 69.1367C97.1964 68.9086 100.54 69.2127 102.896 69.7447C108.369 71.0367 113.309 74.3807 118.553 80.2329L119.921 81.8289L121.897 81.5249C130.333 80.1569 138.997 81.2209 146.217 84.5649C148.193 85.4769 151.309 87.301 151.689 87.757C151.841 87.909 152.069 88.897 152.221 89.885C152.753 93.4571 152.525 96.1171 151.385 98.1692C150.777 99.3092 150.777 99.6132 151.157 100.601C151.461 101.361 152.373 101.893 153.209 101.893C155.033 101.893 156.933 99.0052 157.845 94.9771L158.225 93.3811L158.909 94.1411C162.786 98.4732 165.826 104.477 166.282 108.733L166.434 109.873L165.75 108.885C164.61 107.137 163.546 105.997 162.102 105.009C159.517 103.261 156.781 102.729 149.561 102.349C143.025 101.969 139.301 101.437 135.653 100.221C129.421 98.1692 126.229 95.5091 118.857 85.705C115.589 81.3729 113.537 79.0168 111.485 77.0408C107.001 72.7087 102.516 70.4287 96.6643 69.5167Z" fill="#FF007A"/>
<path d="M153.285 79.1687C153.437 76.2807 153.817 74.3806 154.653 72.6326C154.957 71.9486 155.261 71.3406 155.337 71.3406C155.413 71.3406 155.261 71.8726 155.033 72.4806C154.425 74.1526 154.349 76.5087 154.729 79.1687C155.261 82.5888 155.489 83.0448 159.137 86.7689C160.809 88.5169 162.785 90.7209 163.545 91.6329L164.837 93.305L163.545 92.089C161.949 90.5689 158.301 87.6809 157.465 87.3009C156.933 86.9969 156.857 86.9969 156.477 87.3769C156.173 87.6809 156.097 88.1369 156.097 90.3409C156.021 93.761 155.565 95.889 154.425 98.0931C153.817 99.2331 153.741 99.0051 154.273 97.7131C154.653 96.725 154.729 96.269 154.729 93.001C154.729 86.3889 153.969 84.7928 149.333 82.1328C148.193 81.4488 146.217 80.4607 145.077 79.9287C143.861 79.3967 142.949 78.9407 143.025 78.9407C143.177 78.7887 147.661 80.0807 149.409 80.8407C152.069 81.9048 152.525 81.9808 152.829 81.9048C153.057 81.6768 153.209 81.0688 153.285 79.1687Z" fill="#FF007A"/>
<path d="M99.78 90.4931C96.588 86.085 94.536 79.2449 94.992 74.1528L95.144 72.5568L95.904 72.7088C97.272 72.9368 99.628 73.8488 100.768 74.5328C103.808 76.3568 105.176 78.8649 106.468 85.097C106.848 86.921 107.38 89.0491 107.608 89.7331C107.988 90.8731 109.432 93.5331 110.648 95.2052C111.484 96.4212 110.952 97.0292 109.052 96.8772C106.164 96.5732 102.288 93.9131 99.78 90.4931Z" fill="#FF007A"/>
<path d="M149.409 123.554C134.361 117.473 129.041 112.229 129.041 103.337C129.041 102.045 129.117 100.981 129.117 100.981C129.193 100.981 129.725 101.437 130.409 101.969C133.449 104.401 136.869 105.465 146.369 106.833C151.917 107.669 155.109 108.277 157.998 109.265C167.194 112.305 172.894 118.537 174.262 126.974C174.642 129.406 174.414 134.042 173.806 136.474C173.274 138.374 171.754 141.87 171.374 141.946C171.298 141.946 171.146 141.566 171.146 140.958C170.994 137.766 169.398 134.726 166.738 132.37C163.546 129.634 159.442 127.582 149.409 123.554Z" fill="#FF007A"/>
<path d="M138.769 126.062C138.617 124.922 138.237 123.478 138.008 122.87L137.628 121.73L138.313 122.566C139.301 123.706 140.061 125.074 140.745 126.974C141.277 128.418 141.277 128.874 141.277 131.23C141.277 133.51 141.201 134.042 140.745 135.334C139.985 137.386 139.073 138.83 137.552 140.426C134.816 143.238 131.244 144.758 126.152 145.442C125.24 145.518 122.656 145.746 120.376 145.898C114.676 146.202 110.876 146.81 107.456 148.026C107 148.178 106.544 148.33 106.468 148.254C106.316 148.102 108.672 146.734 110.572 145.822C113.232 144.53 115.968 143.846 121.972 142.782C124.936 142.326 127.976 141.718 128.736 141.414C136.26 139.058 139.985 133.206 138.769 126.062Z" fill="#FF007A"/>
<path d="M145.685 138.298C143.709 133.966 143.253 129.862 144.317 125.986C144.469 125.606 144.621 125.226 144.773 125.226C144.925 125.226 145.381 125.454 145.837 125.758C146.749 126.366 148.649 127.43 153.514 130.09C159.67 133.434 163.166 136.018 165.598 138.982C167.726 141.566 169.018 144.53 169.626 148.178C170.006 150.23 169.778 155.17 169.246 157.222C167.574 163.682 163.774 168.85 158.226 171.814C157.39 172.27 156.706 172.574 156.63 172.574C156.554 172.574 156.858 171.814 157.314 170.902C159.138 167.026 159.366 163.302 157.998 159.122C157.162 156.538 155.414 153.422 151.918 148.178C147.737 142.098 146.749 140.502 145.685 138.298Z" fill="#FF007A"/>
<path d="M89.0638 161.554C94.6879 156.842 101.604 153.498 107.988 152.434C110.724 151.978 115.284 152.13 117.792 152.814C121.82 153.878 125.468 156.158 127.368 158.97C129.193 161.706 130.029 164.062 130.865 169.306C131.169 171.358 131.549 173.486 131.625 173.942C132.233 176.679 133.449 178.807 134.969 179.947C137.325 181.695 141.429 181.771 145.457 180.251C146.141 180.023 146.749 179.795 146.749 179.871C146.901 180.023 144.849 181.391 143.481 182.075C141.581 183.063 140.061 183.367 138.009 183.367C134.361 183.367 131.245 181.467 128.737 177.667C128.205 176.907 127.14 174.702 126.228 172.65C123.568 166.494 122.2 164.67 119.084 162.618C116.348 160.87 112.852 160.49 110.192 161.782C106.696 163.454 105.784 167.938 108.216 170.674C109.204 171.814 111.028 172.726 112.548 172.954C115.36 173.334 117.792 171.13 117.792 168.318C117.792 166.494 117.108 165.43 115.284 164.594C112.852 163.53 110.192 164.746 110.268 167.102C110.268 168.09 110.724 168.698 111.712 169.154C112.32 169.458 112.32 169.458 111.864 169.382C109.66 168.926 109.128 166.19 110.876 164.442C113.004 162.314 117.488 163.226 119.008 166.19C119.616 167.406 119.692 169.838 119.16 171.358C117.868 174.702 114.22 176.451 110.496 175.462C107.988 174.778 106.924 174.094 103.884 170.978C98.564 165.506 96.5119 164.442 88.9118 163.302L87.4678 163.074L89.0638 161.554Z" fill="#FF007A"/>
<path fill-rule="evenodd" clip-rule="evenodd" d="M49.0874 39.2681C66.7957 60.7764 94.0802 94.2171 95.4483 96.0411C96.5883 97.5611 96.1323 99.0051 94.2322 100.069C93.1682 100.677 90.9642 101.285 89.9002 101.285C88.6841 101.285 87.2401 100.677 86.2521 99.6892C85.5681 99.0051 82.604 94.6731 75.9159 84.2609C70.8238 76.2807 66.4917 69.6686 66.4157 69.5926C66.1117 69.4406 66.1117 69.4406 75.3839 86.0089C81.236 96.4211 83.136 100.145 83.136 100.601C83.136 101.589 82.832 102.121 81.616 103.489C79.564 105.769 78.652 108.353 77.968 113.749C77.2079 119.754 75.1559 124.01 69.3038 131.23C65.8837 135.486 65.3517 136.246 64.5157 137.994C63.4517 140.122 63.1477 141.338 62.9957 144.074C62.8437 146.962 63.1477 148.786 63.9837 151.522C64.7437 153.954 65.5797 155.55 67.6318 158.666C69.3798 161.402 70.4438 163.454 70.4438 164.214C70.4438 164.822 70.5958 164.822 73.3319 164.214C79.868 162.694 85.2641 160.11 88.2281 156.918C90.0522 154.942 90.5082 153.878 90.5082 151.142C90.5082 149.394 90.4322 149.014 89.9762 147.95C89.2162 146.278 87.7721 144.91 84.6561 142.782C80.552 139.97 78.804 137.69 78.348 134.65C77.968 132.066 78.424 130.318 80.704 125.53C83.06 120.59 83.6681 118.537 84.0481 113.521C84.2761 110.329 84.6561 109.037 85.5681 108.049C86.5561 106.985 87.3921 106.605 89.7482 106.301C93.6242 105.769 96.1323 104.781 98.1083 102.881C99.8563 101.285 100.616 99.6892 100.692 97.3331L100.768 95.5851L99.7803 94.5211C96.2083 90.417 46.7314 36 46.5034 36C46.4274 36 47.6434 37.444 49.0874 39.2681ZM72.4199 147.342C73.2559 145.898 72.7999 144.074 71.4318 143.162C70.1398 142.326 68.1638 142.706 68.1638 143.846C68.1638 144.15 68.3158 144.454 68.7718 144.606C69.4558 144.986 69.5318 145.366 68.9998 146.202C68.4678 147.038 68.4678 147.798 69.1518 148.33C70.2158 149.166 71.6598 148.71 72.4199 147.342Z" fill="#FF007A"/>
<path fill-rule="evenodd" clip-rule="evenodd" d="M103.2 107.365C101.376 107.897 99.6284 109.873 99.0963 111.849C98.7923 113.066 98.9443 115.27 99.4764 115.954C100.312 117.018 101.072 117.322 103.2 117.322C107.38 117.322 110.953 115.498 111.333 113.294C111.713 111.469 110.117 108.961 107.913 107.821C106.772 107.213 104.416 106.985 103.2 107.365ZM108.065 111.165C108.673 110.253 108.445 109.265 107.304 108.581C105.252 107.289 102.136 108.353 102.136 110.329C102.136 111.317 103.732 112.381 105.252 112.381C106.24 112.381 107.609 111.773 108.065 111.165Z" fill="#FF007A"/>
</g>
<defs>
<clipPath id="clip0_2_19423">
<rect width="220" height="220" fill="white" transform="translate(0.5)"/>
</clipPath>
</defs>
</svg>
