<svg width="221" height="220" viewBox="0 0 221 220" fill="none" xmlns="http://www.w3.org/2000/svg">
<g clip-path="url(#clip0_2_19435)">
<path d="M110.5 220C171.251 220 220.5 170.751 220.5 110C220.5 49.2487 171.251 0 110.5 0C49.7487 0 0.5 49.2487 0.5 110C0.5 170.751 49.7487 220 110.5 220Z" fill="#FF007A"/>
<path d="M84.7951 39.6466C82.8358 39.3441 82.7533 39.3029 83.6745 39.1654C85.4414 38.8904 89.6214 39.2685 92.502 39.9491C99.2189 41.551 105.331 45.6416 111.862 52.9085L113.595 54.8335L116.07 54.4416C126.52 52.7573 137.155 54.0979 146.045 58.2023C148.492 59.3298 152.349 61.5779 152.83 62.1623C152.988 62.341 153.27 63.5304 153.456 64.7954C154.116 69.1748 153.786 72.5298 152.452 75.0391C151.723 76.4004 151.682 76.8266 152.17 77.9954C152.402 78.4781 152.764 78.8861 153.216 79.173C153.669 79.4598 154.192 79.614 154.728 79.6179C156.941 79.6179 159.32 76.0429 160.42 71.0723L160.86 69.0991L161.726 70.0823C166.484 75.4723 170.217 82.8216 170.856 88.0466L171.028 89.4148L170.224 88.1773C168.849 86.046 167.474 84.5885 165.7 83.4129C162.51 81.3023 159.135 80.5873 150.197 80.1129C142.126 79.6866 137.554 78.9991 133.03 77.521C125.323 75.0116 121.439 71.6635 112.281 59.6529C108.218 54.3179 105.702 51.3685 103.206 48.9966C97.5208 43.5929 91.9383 40.7604 84.7951 39.6466Z" fill="white"/>
<path d="M154.651 51.5605C154.857 47.9855 155.339 45.6273 156.315 43.4755C156.7 42.623 157.064 41.9217 157.119 41.9217C157.058 42.4043 156.931 42.8762 156.741 43.3242C156.033 45.4142 155.916 48.2742 156.404 51.5948C157.023 55.8161 157.38 56.4211 161.835 60.9792C163.932 63.1173 166.366 65.8123 167.246 66.9742L168.848 69.078L167.246 67.5723C165.287 65.7367 160.777 62.1411 159.78 61.6323C159.113 61.2886 159.01 61.2955 158.597 61.7011C158.219 62.0861 158.137 62.6498 158.089 65.338C158.006 69.518 157.435 72.213 156.054 74.8942C155.311 76.338 155.194 76.0355 155.868 74.3923C156.37 73.1686 156.418 72.6323 156.418 68.583C156.418 60.443 155.449 58.4905 149.777 55.1355C148.07 54.1452 146.317 53.2366 144.524 52.413C143.638 52.0576 142.779 51.6395 141.953 51.1617C142.111 51.0036 147.639 52.6123 149.859 53.4717C153.173 54.7436 153.716 54.9086 154.122 54.7505C154.39 54.6473 154.52 53.8636 154.651 51.5605ZM88.603 65.4823C84.6223 60.003 82.1611 51.5948 82.6905 45.3111L82.8555 43.3655L83.763 43.5305C85.468 43.8398 88.4036 44.933 89.7786 45.7717C93.5461 48.0611 95.1823 51.0792 96.8392 58.8205C97.3273 61.0892 97.9667 63.6536 98.2624 64.5267C98.7299 65.9223 100.517 69.188 101.975 71.3123C103.02 72.8386 102.319 73.5605 100.009 73.3542C96.4748 73.0311 91.6898 69.7311 88.603 65.4823ZM149.825 106.285C131.214 98.7917 124.662 92.288 124.662 81.3155C124.662 79.6998 124.717 78.3798 124.779 78.3798C124.848 78.3798 125.57 78.9092 126.381 79.5623C130.155 82.5873 134.384 83.8798 146.078 85.5849C152.96 86.5955 156.837 87.4067 160.412 88.5892C171.77 92.3567 178.796 100.002 180.474 110.41C180.955 113.435 180.673 119.107 179.882 122.098C179.264 124.463 177.359 128.719 176.857 128.884C176.72 128.925 176.582 128.395 176.541 127.66C176.349 123.755 174.375 119.946 171.055 117.093C167.28 113.855 162.214 111.27 149.818 106.285H149.825ZM136.762 109.393C136.542 108.065 136.242 106.752 135.862 105.46L135.38 104.044L136.267 105.034C137.484 106.409 138.454 108.155 139.265 110.493C139.89 112.274 139.959 112.803 139.952 115.697C139.952 118.544 139.877 119.135 139.299 120.744C138.496 123.103 137.152 125.24 135.374 126.986C131.97 130.451 127.605 132.362 121.294 133.16C120.194 133.297 117.004 133.531 114.192 133.675C107.11 134.047 102.456 134.803 98.2692 136.274C97.8917 136.443 97.4861 136.541 97.073 136.563C96.908 136.391 99.7542 134.693 102.112 133.559C105.433 131.957 108.733 131.084 116.137 129.853C119.795 129.241 123.576 128.505 124.532 128.21C133.593 125.432 138.247 118.269 136.755 109.393H136.762Z" fill="white"/>
<path d="M145.288 124.545C142.813 119.231 142.249 114.095 143.603 109.31C143.748 108.802 143.981 108.382 144.119 108.382C144.584 108.551 145.022 108.787 145.418 109.084C146.56 109.854 148.842 111.146 154.926 114.46C162.523 118.605 166.855 121.816 169.804 125.474C172.382 128.684 173.977 132.342 174.747 136.797C175.18 139.32 174.926 145.39 174.28 147.934C172.238 155.95 167.487 162.248 160.722 165.919C160.084 166.289 159.422 166.617 158.742 166.902C158.646 166.902 159.003 165.988 159.546 164.86C161.815 160.103 162.083 155.469 160.358 150.313C159.306 147.157 157.154 143.3 152.816 136.797C147.77 129.234 146.532 127.213 145.288 124.545ZM75.3896 153.221C82.299 147.391 90.8859 143.252 98.7165 141.98C102.085 141.43 107.709 141.65 110.83 142.448C115.835 143.727 120.318 146.6 122.648 150.017C124.917 153.359 125.9 156.274 126.911 162.75C127.323 165.307 127.756 167.872 127.887 168.456C128.643 171.811 130.135 174.499 131.978 175.847C134.9 177.985 139.939 178.115 144.889 176.19C145.406 175.953 145.951 175.782 146.511 175.682C146.69 175.86 144.201 177.531 142.441 178.411C140.365 179.522 138.039 180.086 135.683 180.047C131.146 180.047 127.378 177.744 124.236 173.035C123.618 172.107 122.229 169.336 121.143 166.868C117.829 159.305 116.193 156.995 112.343 154.472C108.981 152.272 104.656 151.88 101.405 153.475C97.1284 155.572 95.939 161.038 98.9984 164.496C100.215 165.871 102.484 167.06 104.34 167.287C105.15 167.395 105.973 167.327 106.755 167.089C107.536 166.85 108.257 166.447 108.869 165.906C109.481 165.365 109.97 164.699 110.302 163.953C110.635 163.207 110.803 162.398 110.796 161.581C110.796 159.299 109.916 158.006 107.716 157.009C104.711 155.655 101.48 157.236 101.494 160.062C101.501 161.265 102.023 162.021 103.233 162.571C104.01 162.915 104.024 162.949 103.391 162.819C100.635 162.241 99.9884 158.92 102.209 156.714C104.87 154.06 110.376 155.229 112.267 158.845C113.065 160.364 113.154 163.396 112.46 165.225C110.913 169.315 106.389 171.46 101.803 170.292C98.6821 169.494 97.4102 168.635 93.6496 164.757C87.1115 158.02 84.5746 156.714 75.1421 155.242L73.334 154.96L75.3965 153.221H75.3896Z" fill="white"/>
<path fill-rule="evenodd" clip-rule="evenodd" d="M43.0977 23.0286L43.7577 23.833C69.2502 55.0455 82.4227 71.243 83.2614 72.398C84.6364 74.3092 84.1208 76.0211 81.7558 77.3686C80.4427 78.118 77.7339 78.8742 76.3864 78.8742C74.8533 78.8742 73.1277 78.1386 71.8695 76.9492C70.9827 76.1036 67.4008 70.7548 59.1302 57.9192C55.2571 51.8527 51.3337 45.8185 47.3602 39.8173C47.0233 39.5011 47.0302 39.508 58.4839 60.0023C65.6752 72.8723 68.1089 77.4167 68.1089 78.0286C68.1089 79.2661 67.7652 79.9123 66.2389 81.6173C63.6952 84.4567 62.5608 87.6467 61.7358 94.2467C60.8145 101.651 58.2295 106.876 51.052 115.82C46.8583 121.059 46.1708 122.022 45.1052 124.132C43.7714 126.786 43.407 128.278 43.2558 131.633C43.0977 135.18 43.407 137.477 44.4933 140.866C45.442 143.836 46.432 145.802 48.962 149.721C51.1483 153.11 52.4064 155.627 52.4064 156.61C52.4064 157.394 52.5577 157.394 55.947 156.63C64.0527 154.802 70.632 151.577 74.3377 147.631C76.627 145.19 77.1633 143.843 77.1839 140.495C77.1908 138.309 77.1152 137.848 76.5239 136.59C75.5614 134.541 73.8083 132.836 69.9445 130.196C64.8777 126.731 62.7189 123.94 62.1208 120.11C61.6258 116.969 62.1964 114.748 65.0014 108.877C67.8958 102.799 68.6177 100.214 69.1058 94.0886C69.4152 90.1286 69.8483 88.568 70.9895 87.3167C72.172 86.0105 73.2445 85.5636 76.1802 85.1648C80.9652 84.5117 84.0108 83.2742 86.5133 80.9711C88.6858 78.9636 89.5933 77.0317 89.7308 74.1305L89.8408 71.9305L88.6239 70.5142C86.8777 68.4792 72.4333 52.543 45.2839 22.6917L44.5552 21.9011L43.0977 23.0355V23.0286ZM54.8814 135.655C55.361 134.806 55.5043 133.807 55.2827 132.857C55.0612 131.908 54.491 131.076 53.6852 130.526C52.1177 129.481 49.677 129.976 49.677 131.337C49.677 131.75 49.9039 132.052 50.4195 132.32C51.2927 132.767 51.3545 133.276 50.6739 134.3C49.9795 135.345 50.0345 136.267 50.832 136.892C52.1108 137.896 53.9258 137.339 54.8883 135.655H54.8814ZM92.8589 86.3198C90.6108 87.0073 88.4314 89.393 87.7508 91.8886C87.3383 93.408 87.572 96.0823 88.1908 96.9073C89.1877 98.2411 90.157 98.5917 92.7695 98.5711C97.8845 98.5367 102.326 96.3436 102.848 93.6005C103.275 91.3523 101.315 88.238 98.627 86.863C97.2383 86.1617 94.2889 85.8798 92.8589 86.3198ZM98.8402 90.9948C99.6308 89.8742 99.2802 88.6573 97.9464 87.8461C95.3889 86.2855 91.5252 87.5711 91.5252 89.9911C91.5252 91.1873 93.5395 92.5005 95.382 92.5005C96.6195 92.5005 98.297 91.7648 98.8402 90.9948Z" fill="white"/>
</g>
<defs>
<clipPath id="clip0_2_19435">
<rect width="220" height="220" fill="white" transform="translate(0.5)"/>
</clipPath>
</defs>
</svg>
