<svg width="221" height="220" viewBox="0 0 221 220" fill="none" xmlns="http://www.w3.org/2000/svg">
<g clip-path="url(#clip0_2_19417)">
<path d="M110.5 220C171.251 220 220.5 170.751 220.5 110C220.5 49.2487 171.251 0 110.5 0C49.7487 0 0.5 49.2487 0.5 110C0.5 170.751 49.7487 220 110.5 220Z" fill="#F58634"/>
<path d="M91.8549 156.283H91.8824C100.057 155.293 106.932 152.818 112.507 148.858C119.891 143.564 123.583 136.84 123.583 128.687C123.583 121.812 120.881 116.057 115.484 111.348C110.074 106.652 102.745 103.799 93.498 102.809C90.3561 102.404 85.9011 102.108 80.1811 101.778C67.7099 101.022 59.618 99.3167 55.8643 96.6423C54.5298 95.685 53.4065 94.4634 52.5642 93.0536C51.8507 91.7717 51.4812 90.3269 51.4917 88.8598C51.4917 85.0029 53.7192 81.7442 58.2086 79.1798C62.6911 76.6223 68.3561 75.3161 75.2449 75.3161C81.7692 75.3161 88.2386 76.4298 94.3574 78.6161C120.661 87.9936 145.782 120.774 162.509 144.245C148.876 152.529 130.307 157.637 109.847 157.637C103.824 157.637 97.8086 157.19 91.8549 156.283ZM62.4367 142.932C38.4224 134.166 27.9105 112.503 39.7699 91.4654C40.0999 94.4217 41.193 97.2611 42.953 99.7154C45.153 102.802 48.3842 105.312 52.6261 107.285C67.4417 113.72 94.6874 109.609 105.907 117.783C109.682 120.533 111.572 124.046 111.572 128.329C111.572 133.712 108.939 138.119 103.673 141.543C98.4136 144.967 91.5661 146.679 83.1374 146.679C76.0744 146.639 69.0721 145.371 62.4436 142.932H62.4367Z" fill="white"/>
<path opacity="0.5" d="M178.645 129.766V89.5196C183.162 95.6315 185.685 102.458 185.685 109.643C185.685 116.834 183.162 123.647 178.645 129.766ZM167.308 78.4784L167.342 129.773C151.234 106.907 127.165 78.1346 97.5818 68.5234C92.464 66.8522 87.177 65.7524 81.8174 65.244C90.9885 62.9839 100.401 61.8526 109.847 61.8753C132.809 61.8753 153.4 68.3103 167.308 78.4784Z" fill="white"/>
</g>
<defs>
<clipPath id="clip0_2_19417">
<rect width="220" height="220" fill="white" transform="translate(0.5)"/>
</clipPath>
</defs>
</svg>
