<svg width="221" height="220" viewBox="0 0 221 220" fill="none" xmlns="http://www.w3.org/2000/svg">
<g clip-path="url(#clip0_2_19413)">
<path d="M110.5 220C171.251 220 220.5 170.751 220.5 110C220.5 49.2487 171.251 0 110.5 0C49.7487 0 0.5 49.2487 0.5 110C0.5 170.751 49.7487 220 110.5 220Z" fill="#6CDE07"/>
<path fill-rule="evenodd" clip-rule="evenodd" d="M155.188 131.684C155.188 149.352 140.846 161.081 119.671 162.848V178.75H105.165V162.69C90.8422 161.075 77.2338 155.574 65.8125 146.781L76.4825 132.165C85.9906 139.556 94.99 144.375 105.832 145.984V114.496C81.4875 108.391 70.1506 99.5569 70.1506 81.4069C70.1506 64.0612 84.32 52.1744 105.165 50.5656V41.25H119.671V50.8888C131.009 52.1481 141.818 56.3581 151.021 63.0988L141.678 78.1962C134.342 72.8956 126.842 69.52 119.004 67.9181V98.4362C144.352 104.541 155.188 114.338 155.188 131.684ZM105.825 95.0606V66.7906C95.3269 67.595 89.8269 73.2188 89.8269 80.2863C89.8269 87.0238 92.9894 91.3688 105.832 95.0675L105.825 95.0606ZM135.511 132.804C135.511 125.586 132.005 121.247 119.004 117.549V146.63C129.509 145.819 135.511 140.518 135.511 132.811V132.804Z" fill="white"/>
</g>
<defs>
<clipPath id="clip0_2_19413">
<rect width="220" height="220" fill="white" transform="translate(0.5)"/>
</clipPath>
</defs>
</svg>
