<svg width="221" height="220" viewBox="0 0 221 220" fill="none" xmlns="http://www.w3.org/2000/svg">
<g clip-path="url(#clip0_2_19405)">
<path d="M110.5 220C171.251 220 220.5 170.751 220.5 110C220.5 49.2487 171.251 0 110.5 0C49.7487 0 0.5 49.2487 0.5 110C0.5 170.751 49.7487 220 110.5 220Z" fill="#2775C9"/>
<path d="M108.781 189.062C64.1625 189.062 28 152.9 28 108.281C28 63.6625 64.1625 27.5 108.781 27.5C153.4 27.5 189.562 63.6625 189.562 108.281C189.562 129.706 181.052 150.253 165.902 165.402C150.753 180.552 130.206 189.062 108.781 189.062ZM103.969 78.3063C99.5489 78.5254 95.3705 80.3889 92.2541 83.5308C89.1377 86.6726 87.3082 90.866 87.125 95.2875C87.125 103.606 92.2125 109.038 103.006 111.306L110.569 113.094C117.925 114.813 120.95 117.287 120.95 121.481C120.95 125.675 115.656 129.8 108.781 129.8C106.339 130.024 103.884 129.556 101.695 128.449C99.5066 127.343 97.6738 125.643 96.4062 123.544C96.0307 122.747 95.4378 122.073 94.6959 121.599C93.9539 121.124 93.0931 120.869 92.2125 120.863H88.1562C87.8443 120.92 87.5469 121.039 87.2811 121.212C87.0153 121.385 86.7863 121.609 86.6074 121.871C86.4285 122.133 86.3032 122.428 86.2386 122.739C86.1741 123.049 86.1716 123.37 86.2313 123.681C87.2193 127.714 89.5166 131.305 92.7635 133.893C96.0104 136.48 100.024 137.918 104.175 137.981V143.756C104.175 145.042 104.686 146.275 105.595 147.184C106.504 148.092 107.736 148.603 109.022 148.603C110.307 148.603 111.54 148.092 112.449 147.184C113.358 146.275 113.869 145.042 113.869 143.756V137.912C118.563 137.859 123.051 135.976 126.377 132.663C129.703 129.349 131.604 124.869 131.675 120.175C131.675 111.444 126.656 106.425 114.763 103.881L107.887 102.369C101.012 100.65 97.7812 98.3812 97.7812 94.5312C97.7812 90.6813 101.906 86.4187 108.781 86.4187C110.946 86.1926 113.131 86.5981 115.071 87.5863C117.01 88.5745 118.623 90.1031 119.713 91.9875C120.154 92.9286 120.854 93.7252 121.73 94.2849C122.606 94.8446 123.623 95.1446 124.662 95.15H127.894C128.628 94.9703 129.263 94.5095 129.662 93.8667C130.06 93.2239 130.191 92.4504 130.025 91.7125C129.094 87.9893 127.01 84.6552 124.072 82.1861C121.134 79.717 117.491 78.2388 113.662 77.9625V73.2187C113.662 71.9333 113.152 70.7005 112.243 69.7915C111.334 68.8825 110.101 68.3719 108.816 68.3719C107.53 68.3719 106.297 68.8825 105.388 69.7915C104.479 70.7005 103.969 71.9333 103.969 73.2187V78.3063ZM48.2125 108.281C48.2204 120.945 52.2067 133.287 59.6084 143.563C67.0101 153.839 77.4531 161.53 89.4625 165.55H90.425C91.2455 165.55 92.0324 165.224 92.6126 164.644C93.1928 164.064 93.5187 163.277 93.5187 162.456V161.012C93.521 159.733 93.1433 158.481 92.4334 157.416C91.7235 156.351 90.7134 155.521 89.5312 155.031C80.1785 151.256 72.1674 144.772 66.526 136.412C60.8847 128.051 57.8706 118.195 57.8706 108.109C57.8706 98.0235 60.8847 88.1678 66.526 79.8072C72.1674 71.4466 80.1785 64.9626 89.5312 61.1875C90.708 60.7095 91.7157 59.8918 92.4259 58.8388C93.1361 57.7858 93.5165 56.5451 93.5187 55.275V53.6938C93.5232 53.2295 93.4156 52.771 93.2052 52.3571C92.9947 51.9433 92.6875 51.5863 92.3097 51.3164C91.9319 51.0465 91.4946 50.8718 91.0348 50.8069C90.5751 50.742 90.1065 50.789 89.6688 50.9437C77.6097 54.9319 67.1139 62.6182 59.672 72.9111C52.23 83.2039 48.2204 95.5799 48.2125 108.281ZM169.35 108.281C169.328 95.6288 165.335 83.3024 157.934 73.0401C150.533 62.7778 140.098 55.0972 128.1 51.0812H127.069C126.212 51.0812 125.39 51.4217 124.784 52.0277C124.178 52.6336 123.838 53.4555 123.838 54.3125V55.3438C123.865 56.6697 124.276 57.9594 125.02 59.0572C125.764 60.1551 126.81 61.0143 128.031 61.5312C137.363 65.3174 145.352 71.8018 150.977 80.1545C156.602 88.5073 159.607 98.3485 159.607 108.419C159.607 118.489 156.602 128.33 150.977 136.683C145.352 145.036 137.363 151.52 128.031 155.306C126.833 155.829 125.809 156.682 125.078 157.765C124.348 158.849 123.941 160.118 123.906 161.425V162.594C123.912 163.103 124.038 163.604 124.275 164.056C124.512 164.508 124.852 164.897 125.267 165.192C125.683 165.487 126.162 165.679 126.667 165.753C127.171 165.828 127.686 165.781 128.169 165.619C140.176 161.584 150.612 153.877 158.002 143.588C165.392 133.3 169.361 120.949 169.35 108.281Z" fill="white"/>
</g>
<defs>
<clipPath id="clip0_2_19405">
<rect width="220" height="220" fill="white" transform="translate(0.5)"/>
</clipPath>
</defs>
</svg>
