<svg width="221" height="220" viewBox="0 0 221 220" fill="none" xmlns="http://www.w3.org/2000/svg">
<g clip-path="url(#clip0_2_19409)">
<path d="M110.5 220C132.256 220 153.524 213.549 171.613 201.462C189.702 189.375 203.801 172.195 212.127 152.095C220.453 131.995 222.631 109.878 218.387 88.5401C214.142 67.2021 203.666 47.602 188.282 32.2182C172.898 16.8345 153.298 6.35798 131.96 2.11361C110.622 -2.13077 88.505 0.0475998 68.4052 8.37324C48.3053 16.6989 31.1256 30.7979 19.0387 48.8873C6.95172 66.9767 0.500333 88.244 0.500333 110C0.46472 124.455 3.28565 138.775 8.80105 152.137C14.3165 165.499 22.4176 177.64 32.6392 187.861C42.8607 198.083 55.0012 206.184 68.3631 211.699C81.725 217.215 96.0449 220.036 110.5 220Z" fill="#2775CA"/>
<path d="M140.75 127.42C140.75 111.42 131.13 105.87 111.88 103.58C98.1199 101.75 95.3799 98.08 95.3799 91.67C95.3799 85.26 99.9599 81.12 109.12 81.12C117.38 81.12 121.96 83.87 124.25 90.75C124.496 91.4129 124.939 91.9842 125.521 92.3866C126.102 92.789 126.793 93.0032 127.5 93H134.83C135.254 93.011 135.677 92.9355 136.071 92.7781C136.466 92.6206 136.824 92.3846 137.124 92.0843C137.424 91.784 137.66 91.4257 137.818 91.0313C137.975 90.6369 138.051 90.2145 138.04 89.79V89.34C137.154 84.3724 134.653 79.8363 130.924 76.4367C127.195 73.037 122.448 70.9641 117.42 70.54V59.54C117.42 57.71 116.04 56.34 113.75 55.88H106.87C105.04 55.88 103.67 57.25 103.21 59.54V70.12C89.4199 72 80.7099 81.12 80.7099 92.58C80.7099 107.71 89.8799 113.67 109.13 115.96C121.96 118.25 126.13 120.96 126.13 128.33C126.13 135.7 119.72 140.71 111.01 140.71C99.0899 140.71 95.0099 135.71 93.5899 128.79C93.4589 128.017 93.0609 127.314 92.4652 126.805C91.8695 126.295 91.1139 126.01 90.3299 126H82.4999C82.0757 125.99 81.654 126.067 81.2602 126.225C80.8664 126.383 80.5087 126.619 80.2087 126.919C79.9087 127.219 79.6726 127.577 79.5147 127.97C79.3568 128.364 79.2803 128.786 79.2899 129.21V129.67C81.1299 141.13 88.4599 149.38 103.59 151.67V162.67C103.59 164.5 104.96 165.88 107.25 166.34H114.13C115.96 166.34 117.34 164.96 117.79 162.67V151.67C131.54 149.38 140.71 139.75 140.71 127.38L140.75 127.42Z" fill="white"/>
<path d="M87.1199 175.54C73.9321 170.703 62.5474 161.933 54.5047 150.417C46.462 138.9 42.1492 125.192 42.1492 111.145C42.1492 97.0981 46.462 83.3898 54.5047 71.8733C62.5474 60.3567 73.9321 51.5871 87.1199 46.75C87.9998 46.3694 88.7389 45.7234 89.2337 44.9022C89.7286 44.0811 89.9545 43.1258 89.8799 42.17V35.75C89.9416 34.9079 89.696 34.072 89.1885 33.3971C88.681 32.7223 87.946 32.2544 87.1199 32.08C86.4747 32.0127 85.8265 32.1756 85.2899 32.54C68.604 37.8435 54.0386 48.3192 43.702 62.4507C33.3655 76.5823 27.7939 93.6365 27.7939 111.145C27.7939 128.653 33.3655 145.708 43.702 159.839C54.0386 173.971 68.604 184.447 85.2899 189.75C85.6709 189.971 86.099 190.099 86.5391 190.123C86.9792 190.147 87.4187 190.067 87.8216 189.888C88.2245 189.71 88.5794 189.438 88.8572 189.096C89.1351 188.754 89.3279 188.351 89.4199 187.92C89.8799 187.46 89.8799 187 89.8799 186.08V179.67C89.8799 178.29 88.4999 176.46 87.1199 175.54ZM135.71 32.54C135.328 32.3186 134.899 32.191 134.459 32.1675C134.018 32.144 133.578 32.2254 133.175 32.405C132.772 32.5846 132.417 32.8573 132.14 33.2006C131.862 33.5439 131.671 33.9481 131.58 34.38C131.13 34.83 131.13 35.29 131.13 36.21V42.62C131.207 43.5443 131.495 44.4387 131.972 45.2344C132.449 46.03 133.101 46.7059 133.88 47.21C147.068 52.0471 158.452 60.8167 166.495 72.3333C174.538 83.8498 178.851 97.5581 178.851 111.605C178.851 125.652 174.538 139.36 166.495 150.877C158.452 162.393 147.068 171.163 133.88 176C133.001 176.381 132.263 177.027 131.77 177.849C131.277 178.67 131.053 179.625 131.13 180.58V187C131.068 187.841 131.312 188.675 131.817 189.35C132.323 190.025 133.056 190.494 133.88 190.67C134.525 190.737 135.173 190.574 135.71 190.21C152.389 184.833 166.934 174.305 177.251 160.139C187.568 145.973 193.126 128.9 193.126 111.375C193.126 93.8503 187.568 76.7771 177.251 62.6113C166.934 48.4454 152.389 37.9169 135.71 32.54Z" fill="white"/>
</g>
<defs>
<clipPath id="clip0_2_19409">
<rect width="220" height="220" fill="white" transform="translate(0.5)"/>
</clipPath>
</defs>
</svg>
