<svg width="221" height="220" viewBox="0 0 221 220" fill="none" xmlns="http://www.w3.org/2000/svg">
<g clip-path="url(#clip0_2_19401)">
<path d="M110.5 220C171.251 220 220.5 170.751 220.5 110C220.5 49.2487 171.251 0 110.5 0C49.7487 0 0.5 49.2487 0.5 110C0.5 170.751 49.7487 220 110.5 220Z" fill="#26A17B"/>
<path fill-rule="evenodd" clip-rule="evenodd" d="M123.714 119.51V119.496C122.958 119.551 119.059 119.785 110.362 119.785C103.419 119.785 98.5306 119.579 96.8119 119.496V119.517C70.0819 118.341 50.1306 113.687 50.1306 108.118C50.1306 102.556 70.0819 97.902 96.8119 96.7057V114.883C98.5581 115.007 103.563 115.303 110.479 115.303C118.777 115.303 122.937 114.959 123.714 114.89V96.7195C150.389 97.9088 170.292 102.563 170.292 108.118C170.292 113.687 150.389 118.328 123.714 119.51ZM123.714 94.8289V78.5626H160.935V53.7576H59.5906V78.5626H96.8119V94.822C66.5619 96.2107 43.8125 102.206 43.8125 109.383C43.8125 116.561 66.5619 122.549 96.8119 123.944V176.071H123.714V123.931C153.916 122.542 176.61 116.554 176.61 109.383C176.61 102.213 153.916 96.2245 123.714 94.8289Z" fill="white"/>
</g>
<defs>
<clipPath id="clip0_2_19401">
<rect width="220" height="220" fill="white" transform="translate(0.5)"/>
</clipPath>
</defs>
</svg>
