<svg width="221" height="220" viewBox="0 0 221 220" fill="none" xmlns="http://www.w3.org/2000/svg">
<g clip-path="url(#clip0_2_21374)">
<g opacity="0.98">
<path opacity="0.98" d="M110.5 220C88.7441 220 67.4767 213.549 49.3873 201.462C31.2979 189.375 17.1989 172.195 8.8733 152.095C0.547661 131.995 -1.63071 109.878 2.61367 88.5401C6.85804 67.2022 17.3345 47.6021 32.7183 32.2183C48.1021 16.8345 67.7022 6.35804 89.0401 2.11367C110.378 -2.13071 132.495 0.0476609 152.595 8.3733C172.695 16.6989 189.875 30.7979 201.962 48.8873C214.049 66.9767 220.5 88.2441 220.5 110C220.5 139.174 208.911 167.153 188.282 187.782C167.653 208.411 139.674 220 110.5 220Z" fill="#112451"/>
</g>
<path d="M114.968 125.466C114.968 125.466 100.531 133.029 101.218 144.923C101.906 156.816 117.856 174.898 127.481 171.323C137.106 167.748 163.918 152.21 166.668 136.948C169.418 121.685 142.743 114.123 142.743 114.123L114.968 125.466Z" fill="#2844AD"/>
<path d="M152.231 60.6384C143.414 53.4618 132.757 48.9087 121.475 47.4986C110.194 46.0884 98.7442 47.8781 88.4314 52.6634L72.8252 74.9384C73.5723 77.4434 74.9314 79.7229 76.7797 81.5713C78.6281 83.4197 80.9077 84.7788 83.4127 85.5259C92.3502 88.4821 131.056 73.5634 131.056 73.5634L152.231 60.6384Z" fill="#2844AD"/>
<path d="M50.5488 82.4988C50.5488 82.4988 63.6113 58.505 81.0738 52.9363C98.5363 47.3675 96.0613 64.83 81.0738 71.9113C66.0863 78.9925 56.6676 83.0488 50.5488 82.4988Z" fill="#5493F7"/>
<path d="M48.0735 89.9253C48.0735 89.9253 27.9985 146.232 82.9985 171.875C82.9985 171.875 87.261 149.394 79.4922 135.163C73.7281 123.777 66.768 113.037 58.7297 103.125C54.8954 98.9608 51.3358 94.5515 48.0735 89.9253Z" fill="#5493F7"/>
<path d="M168.525 144.375C168.525 144.375 154.156 171.875 133.394 171.875C132.863 171.708 132.373 171.432 131.955 171.065C131.538 170.698 131.202 170.247 130.969 169.742C130.735 169.237 130.611 168.689 130.602 168.132C130.593 167.576 130.701 167.024 130.919 166.512C132.225 162.525 145.219 148.362 168.525 144.375Z" fill="#5493F7"/>
<path d="M152.712 61.0528C160.743 67.184 167.025 75.3152 170.93 84.634C177.294 99.9014 178.217 116.892 173.543 132.759C170.037 142.04 164.605 139.634 152.918 137.159C141.23 134.684 96.7492 122.172 85.2679 106.909C73.7867 91.6465 82.6554 79.409 97.5054 71.5028C112.355 63.5965 142.88 55.0028 152.712 61.0528Z" fill="#5493F7"/>
<path d="M90.9062 155.995L89.875 131.383L123.15 129.389C123.15 130.489 123.15 131.589 123.15 132.689C123.15 133.789 123.15 135.027 123.15 136.195C123.15 137.364 123.15 138.602 123.15 139.77C123.15 140.939 123.15 142.108 123.15 143.277C123.15 144.445 123.15 145.683 123.15 146.852C123.15 148.02 123.15 149.258 123.15 150.427C123.15 151.595 123.15 152.627 123.15 153.658C123.15 153.658 123.15 154.689 123.15 153.658L90.8375 155.583C90.8375 155.583 91.1125 156.133 90.9062 155.995Z" fill="#3C3B6E"/>
<path d="M175.262 168.711C175.262 169.811 175.262 170.98 175.262 172.08C175.262 172.08 175.262 173.18 175.262 172.08L92.0742 177.099C92.0742 177.099 92.0742 174.899 92.0742 173.799H92.6242L175.124 168.849C175.124 168.849 175.055 168.574 175.262 168.711Z" fill="#B12234"/>
<path d="M175.263 168.714H174.919L91.8691 173.733V170.158H92.4191L174.919 165.208C175.097 165.145 175.291 165.145 175.469 165.208L175.263 168.714Z" fill="#FEFEFE"/>
<path d="M174.851 158.125V161.7H174.439L91.9387 166.719C91.7607 166.782 91.5666 166.782 91.3887 166.719V163.144H92.0074L174.507 158.125C174.507 158.125 174.714 158.125 174.851 158.125Z" fill="#FEFEFE"/>
<path d="M174.849 158.126L91.6611 163.145V159.639L174.161 154.62C174.161 154.62 174.574 154.62 174.78 154.62L174.849 158.126Z" fill="#B12234"/>
<path d="M174.781 154.479H174.437L91.3184 159.498V155.923L124.25 153.998H125.075L174.231 151.042C174.231 151.042 174.575 151.042 174.781 151.042V154.479Z" fill="#FEFEFE"/>
<path d="M91.3184 166.649L174.437 161.63V165.136L91.3184 170.155V166.649Z" fill="#B12234"/>
<path d="M123.699 132.686V129.111L173.68 126.086C173.68 126.086 173.68 128.355 173.68 129.455H173.062L124.249 132.686C124.249 132.686 123.837 132.824 123.699 132.686Z" fill="#B12234"/>
<path d="M123.699 132.69L129.749 132.277L173.543 129.665V133.171L124.249 136.265C124.174 136.332 124.076 136.37 123.974 136.37C123.873 136.37 123.775 136.332 123.699 136.265V132.69Z" fill="#FEFEFE"/>
<path d="M124.25 150.425V146.85H124.8L173.888 143.825C173.888 143.825 174.3 143.825 174.438 143.825V147.4L125.212 150.356C125.212 150.356 124.25 150.562 124.25 150.425Z" fill="#FEFEFE"/>
<path d="M174.369 143.826L124.25 146.851V143.276H124.8L173.888 140.32C173.888 140.32 174.3 140.32 174.438 140.32L174.369 143.826Z" fill="#B12234"/>
<path d="M174.231 140.252L164.194 140.871L124.25 143.277V139.771L173.544 136.815H174.025L174.231 140.252Z" fill="#FEFEFE"/>
<path d="M124.25 150.427L174.094 147.402V150.909L124.388 153.865L124.25 150.427Z" fill="#B12234"/>
<path d="M174.163 136.676H173.819L124.25 139.769V136.194L139.65 135.301L174.025 133.169L174.163 136.676Z" fill="#B12234"/>
<path d="M115.038 148.225V147.4C115.038 147.4 115.038 147.4 115.038 147.056C114.824 146.965 114.636 146.823 114.488 146.643H115.245V145.818C115.245 145.818 115.245 146.231 115.245 146.437C115.245 146.643 115.245 146.781 115.726 146.437H116.276L115.726 146.918C115.708 147.17 115.708 147.423 115.726 147.675L115.038 147.262V148.225Z" fill="#FDFDFD"/>
<path d="M97.8492 147.674H98.468C98.468 147.674 98.468 147.674 98.8117 147.674C98.7589 147.448 98.7589 147.213 98.8117 146.987C98.8117 146.987 98.8117 147.468 98.8117 147.743C98.8117 147.743 98.8117 148.018 98.8117 147.743H99.6367C99.6367 147.743 99.6367 148.087 99.0867 148.156C98.5367 148.224 99.0867 148.156 99.0867 148.706C99.1069 148.911 99.1069 149.119 99.0867 149.324L98.468 148.912C98.2932 149.109 98.0834 149.272 97.8492 149.393C97.8801 149.142 97.8801 148.888 97.8492 148.637C97.8492 148.637 97.8492 148.637 97.8492 148.293L97.2305 147.881L97.8492 147.674Z" fill="#FDFDFD"/>
<path d="M107.956 141.145L107.337 140.733L106.718 141.283C106.702 141.008 106.702 140.732 106.718 140.458L106.1 139.976H106.856C106.836 139.702 106.836 139.426 106.856 139.151V139.77C106.856 139.77 106.856 139.77 107.268 139.77H107.887L107.337 140.251C107.312 140.305 107.3 140.364 107.3 140.423C107.3 140.483 107.312 140.541 107.337 140.595C107.573 140.742 107.782 140.928 107.956 141.145Z" fill="#FDFDFD"/>
<path d="M116.481 131.654L116 131.998C115.957 132.03 115.923 132.071 115.899 132.119C115.875 132.167 115.863 132.219 115.863 132.273C115.863 132.326 115.875 132.379 115.899 132.426C115.923 132.474 115.957 132.516 116 132.548V133.166L115.313 132.754L114.694 133.304V132.479L114.075 131.998H114.763C114.763 131.998 114.763 131.998 115.106 131.998C115.074 131.77 115.074 131.538 115.106 131.31C115.106 131.31 115.106 131.31 115.106 131.723C115.106 132.135 115.106 132.204 115.725 132.135H116.206L116.481 131.654Z" fill="#FDFDFD"/>
<path d="M94.7553 140.385H95.5115V139.629C95.5399 139.88 95.5399 140.134 95.5115 140.385H96.2678C96.1154 140.56 95.928 140.7 95.7178 140.798V141.279V141.966L95.099 141.554C95.099 141.554 95.099 141.554 94.7553 141.554L94.1365 142.035C94.0967 141.808 94.0967 141.575 94.1365 141.348C94.1365 141.348 94.1365 141.004 94.1365 140.866H93.6553L94.7553 140.385Z" fill="#FDFDFD"/>
<path d="M113.938 139.289L113.32 139.77C113.37 140.019 113.37 140.276 113.32 140.526L112.701 140.114C112.701 140.114 112.701 140.114 112.357 140.114C112.183 140.33 111.974 140.516 111.738 140.664C111.738 140.32 111.738 140.045 111.738 139.839C111.738 139.632 111.738 139.839 111.738 139.839C111.525 139.716 111.338 139.553 111.188 139.357H111.876C111.849 139.106 111.849 138.852 111.876 138.601V139.151C111.876 139.564 111.876 139.564 112.357 139.495H112.907L113.938 139.289Z" fill="#FDFDFD"/>
<path d="M121.293 145.268C121.311 145.52 121.311 145.773 121.293 146.024H122.049L121.499 146.437C121.499 146.437 121.499 146.437 121.499 146.849C121.568 147.073 121.568 147.313 121.499 147.537L120.881 147.124C120.72 147.336 120.507 147.502 120.262 147.606V146.918C120.262 146.918 120.262 146.918 120.262 146.506C120.048 146.414 119.859 146.273 119.712 146.093H120.468L121.293 145.268Z" fill="#FDFDFE"/>
<path d="M103.626 147.333H104.313C104.282 147.082 104.282 146.828 104.313 146.577V147.264H104.726H105.344L104.794 147.745C104.794 147.745 104.794 147.745 104.794 148.089C104.811 148.341 104.811 148.594 104.794 148.845L104.176 148.433L103.557 148.983V148.158C103.582 148.104 103.594 148.045 103.594 147.986C103.594 147.927 103.582 147.868 103.557 147.814H103.007L103.626 147.333Z" fill="#FDFDFE"/>
<path d="M92.9008 132.068C92.8893 132.297 92.8893 132.527 92.9008 132.756H93.5883L93.107 133.168C93.107 133.168 93.107 133.168 93.107 133.65C93.1185 133.879 93.1185 134.108 93.107 134.337L92.4195 133.856L91.8008 134.268V133.581L91.1133 133.168H91.8695C91.8695 133.168 91.8695 133.168 92.2133 133.168C92.3761 132.764 92.6088 132.392 92.9008 132.068Z" fill="#FDFDFD"/>
<path d="M104.863 133.857L104.244 133.445L103.626 133.995C103.609 133.72 103.609 133.444 103.626 133.17L103.007 132.688H103.626V132.001C103.654 132.252 103.654 132.506 103.626 132.757H104.382L103.763 133.238C103.763 133.238 103.763 133.238 103.763 133.582C104.149 133.565 104.531 133.661 104.863 133.857Z" fill="#FDFDFD"/>
<path d="M109.607 131.035C109.625 131.287 109.625 131.54 109.607 131.791H110.363L109.745 132.341C109.745 132.341 109.745 132.823 109.745 133.098L109.195 132.685C109.195 132.685 108.851 132.685 108.713 132.685L108.232 133.098C108.194 132.87 108.194 132.638 108.232 132.41V131.998L107.613 131.585H108.438L109.607 131.035Z" fill="#FDFDFD"/>
<path d="M120.399 131.657C120.345 131.407 120.345 131.15 120.399 130.9C120.361 131.151 120.361 131.406 120.399 131.657Z" fill="#FDFDFD"/>
<path d="M109.468 148.429V147.741L108.781 147.26H109.537V146.504C109.537 146.504 109.537 147.054 109.537 147.26C109.537 147.26 109.537 147.466 109.537 147.26H110.362L109.743 147.81C109.725 148.062 109.725 148.315 109.743 148.566L109.056 148.154L108.506 148.635L109.468 148.429Z" fill="#FDFDFD"/>
<path d="M101.495 139.011C101.495 139.629 101.495 139.629 102.388 139.629L101.838 140.111C101.877 140.361 101.877 140.616 101.838 140.867L101.22 140.454C101.22 140.454 101.22 140.454 100.876 140.454L100.326 140.936C100.287 140.685 100.287 140.43 100.326 140.179L99.707 139.698H100.395L101.495 139.011Z" fill="#FDFDFD"/>
<path d="M92.3506 152.968H93.1756V152.143C93.1641 152.372 93.1641 152.602 93.1756 152.831H93.9318L93.3131 153.381C93.2948 153.632 93.2948 153.885 93.3131 154.137L92.6256 153.724L92.0068 154.206V153.449L92.3506 152.968Z" fill="#FDFDFE"/>
<path d="M109.674 153.45C109.674 153.45 109.674 152.969 109.674 152.762C109.674 152.556 109.674 152.762 109.674 152.762L108.986 152.281H109.811L110.499 151.25C110.527 151.501 110.527 151.755 110.499 152.006C110.723 151.937 110.962 151.937 111.186 152.006L110.568 152.488C110.596 152.739 110.596 152.992 110.568 153.244L110.499 152.969C110.499 152.969 110.499 152.969 110.155 152.969L109.605 153.381L109.674 153.45Z" fill="#FDFDFE"/>
<path d="M121.499 150.216C121.499 150.216 121.499 150.766 121.499 151.041C121.499 151.041 121.499 151.316 121.499 151.041H122.324L121.705 151.591C121.705 151.591 121.705 151.591 121.705 151.935V152.691L121.018 152.21L120.399 152.76V151.935L120.262 151.248H121.018C121.137 150.886 121.299 150.54 121.499 150.216Z" fill="#FDFDFE"/>
<path d="M99.982 137.499C99.7464 137.647 99.5372 137.833 99.3633 138.049C99.3917 138.301 99.3917 138.554 99.3633 138.806L98.6758 138.393L97.9883 138.943C98.0119 138.669 98.0119 138.393 97.9883 138.118L97.3008 137.637C97.5517 137.603 97.8061 137.603 98.057 137.637C98.057 137.637 98.057 137.637 98.4008 137.293C98.3686 137.088 98.3686 136.879 98.4008 136.674C98.4561 136.9 98.4561 137.136 98.4008 137.362L99.982 137.499Z" fill="#FEFEFE"/>
<path d="M116.274 138.185L115.587 137.704L114.968 138.254V137.429L114.28 136.947H114.83C115.243 136.947 115.243 136.947 115.38 136.466V135.916V136.741H116.137L115.518 137.291L116.274 138.185Z" fill="#FEFEFE"/>
<path d="M96.7502 146.78V146.368C96.7502 146.368 96.7502 146.368 96.3377 146.368L95.7877 146.849C95.7877 146.505 95.7877 146.299 95.7877 146.024C95.7877 145.749 95.7877 146.024 95.7877 146.024L95.1689 145.543H95.9252C95.8633 145.271 95.8633 144.989 95.9252 144.718C95.9252 144.718 95.9252 145.268 95.9252 145.474H96.7502L96.0627 146.024C96.3076 146.261 96.5373 146.514 96.7502 146.78Z" fill="#FEFEFE"/>
<path d="M111.599 144.374H112.424V143.549C112.442 143.801 112.442 144.054 112.424 144.306H113.18L112.562 144.856C112.542 145.13 112.542 145.406 112.562 145.681L111.943 145.199C111.943 145.199 111.943 145.199 111.599 145.199L110.98 145.681V144.924C110.98 144.924 110.98 144.924 110.98 144.581L111.599 144.374Z" fill="#FEFEFE"/>
<path d="M102.937 137.498H103.624C103.624 137.498 103.968 137.498 104.037 137.154V136.466C104.037 136.466 104.037 137.016 104.037 137.291C104.037 137.291 104.037 137.566 104.037 137.291H104.862L104.243 137.841C104.271 138.093 104.271 138.346 104.243 138.598L103.624 138.185C103.45 138.402 103.241 138.588 103.005 138.735C103.005 138.391 103.005 138.185 103.005 137.91C103.005 137.635 103.005 137.91 103.005 137.91L102.937 137.498Z" fill="#FEFEFE"/>
<path d="M97.9193 152.624H98.6068C98.6068 152.624 98.9506 152.624 99.0193 152.28C98.9932 152.052 98.9932 151.821 99.0193 151.593C99.0376 151.845 99.0376 152.097 99.0193 152.349H99.7756L99.1568 152.899C99.1386 153.151 99.1386 153.404 99.1568 153.655L98.4693 153.243L97.8506 153.793V153.037C97.8506 153.037 97.8506 153.037 97.8506 152.624H97.9193Z" fill="#FDFDFE"/>
<path d="M116.757 153.109L116.139 152.627L115.451 153.177C115.451 153.177 115.451 152.627 115.451 152.421C115.451 152.215 115.451 152.421 115.451 152.077L114.764 151.596H115.589C115.527 151.348 115.527 151.088 115.589 150.84V151.321C115.589 151.734 115.589 151.734 116.207 151.734H117.376L116.757 152.284C116.757 152.284 116.757 152.284 116.757 152.627C116.764 152.788 116.764 152.948 116.757 153.109Z" fill="#FDFDFE"/>
<path d="M100.462 144.996H101.15C101.15 144.996 101.15 144.996 101.15 144.652V143.965C101.15 143.965 101.15 144.515 101.15 144.79C101.15 144.79 101.15 145.065 101.15 144.79H101.975L101.356 145.34C101.338 145.592 101.338 145.844 101.356 146.096L100.669 145.684C100.476 145.86 100.269 146.021 100.05 146.165V145.409L100.462 144.996Z" fill="#FEFEFE"/>
<path d="M106.03 144.374H106.855C106.855 144.374 106.855 143.893 106.855 143.549V144.306H107.611L106.992 144.856V145.543L106.374 145.199H105.961L105.411 145.681C105.411 145.337 105.411 145.131 105.411 144.856C105.411 144.581 105.411 144.856 105.411 144.856L106.03 144.374Z" fill="#FEFEFE"/>
<path d="M119.3 145.474L118.681 144.993C118.681 144.993 118.681 144.993 118.337 144.993L117.719 145.474C117.702 145.223 117.702 144.97 117.719 144.718L117.375 144.374H118.2C118.2 144.374 118.2 143.893 118.2 143.549V144.168C118.2 144.168 118.2 144.581 118.613 144.512H119.231L118.681 144.993C118.681 144.993 118.681 144.993 118.681 145.406L119.3 145.474Z" fill="#FEFEFE"/>
<path d="M111.12 136.882L110.501 137.5V138.325L109.882 137.844H109.47L108.92 138.325C108.88 138.075 108.88 137.82 108.92 137.569C108.92 137.569 108.92 137.569 108.92 137.225L108.301 136.813H108.988V136.057C108.988 136.057 108.988 136.607 108.988 136.813L111.12 136.882Z" fill="#FEFEFE"/>
<path d="M92.4189 139.561C92.3866 139.31 92.3866 139.056 92.4189 138.805L91.7314 138.323H92.3502C92.6939 138.323 92.6939 138.323 92.8314 137.842C92.8135 137.659 92.8135 137.475 92.8314 137.292V138.048H93.6564L92.9689 138.598C93.0077 138.849 93.0077 139.104 92.9689 139.355L92.3502 138.942C92.3502 138.942 92.3502 138.942 92.0064 138.942C92.1843 139.118 92.3246 139.329 92.4189 139.561Z" fill="#FEFEFE"/>
<path d="M108.712 149.53C108.712 149.53 108.093 149.873 108.024 150.148C108.003 150.446 108.003 150.745 108.024 151.042L107.405 150.561C107.405 150.561 107.405 150.561 107.062 150.561L106.443 151.042C106.443 151.042 106.443 150.492 106.443 150.217C106.443 149.942 106.443 150.217 106.443 150.217L105.824 149.805H106.58V149.048C106.608 149.277 106.608 149.507 106.58 149.736C106.58 149.736 106.58 149.736 106.924 149.736L108.712 149.53Z" fill="#FEFEFE"/>
<path d="M97.5762 142.723H98.3324V141.898C98.3521 142.173 98.3521 142.448 98.3324 142.723H99.1574L98.5387 143.273C98.519 143.548 98.519 143.823 98.5387 144.098L97.9199 143.617C97.9199 143.617 97.9199 143.617 97.5762 143.617L98.1262 144.373V143.548L97.5762 142.723Z" fill="#FEFEFE"/>
<path d="M102.594 134.957L102.044 135.438C102.044 135.438 102.044 135.438 102.044 135.782V136.538L101.356 136.057L100.806 136.538V135.713L100.188 135.301H100.944C100.944 135.301 100.944 134.819 100.944 134.476C100.944 134.132 100.944 135.026 100.944 135.301C100.944 135.301 100.944 135.576 100.944 135.301H101.7L102.594 134.957Z" fill="#FEFEFE"/>
<path d="M119.299 133.992L118.818 134.404C118.818 134.404 118.818 134.404 118.818 134.817C118.856 135.044 118.856 135.277 118.818 135.504L118.199 135.092C118.199 135.092 118.199 135.092 117.855 135.092L117.237 135.642C117.22 135.367 117.22 135.091 117.237 134.817V134.473L116.687 134.06H117.374V133.304C117.402 133.555 117.402 133.809 117.374 134.06H118.062L119.299 133.992Z" fill="#FEFEFE"/>
<path d="M92.5553 144.374C92.5553 144.03 92.5553 143.824 92.5553 143.549C92.5553 143.274 92.5553 143.549 92.5553 143.549L91.9365 143.136H92.6928C92.6928 143.136 92.6928 142.655 92.6928 142.311C92.6928 141.968 92.6928 142.861 92.6928 143.067C92.6928 143.067 92.6928 143.274 92.6928 143.067H93.3803C93.3803 143.067 93.3803 143.067 93.0365 143.48C92.6928 143.892 93.0365 143.48 93.0365 144.167V144.717L92.349 144.236L92.5553 144.374Z" fill="#FEFEFE"/>
<path d="M109.262 143.549V142.793C109.262 142.793 109.262 142.793 109.262 142.449C109.027 142.36 108.816 142.219 108.644 142.037H109.331C109.348 141.785 109.348 141.532 109.331 141.28V142.105H110.156L109.469 142.655C109.469 142.655 109.469 143.137 109.469 143.48L110.5 142.999L109.262 143.549Z" fill="#FEFEFE"/>
<path d="M117.376 148.983H117.995V148.295C117.995 148.295 117.995 148.777 117.995 149.052C117.995 149.052 117.995 149.327 117.995 149.052H118.682C118.578 149.243 118.406 149.39 118.201 149.464C118.201 149.464 118.201 149.464 118.201 149.945C118.212 150.174 118.212 150.404 118.201 150.633L117.651 150.289C117.651 150.289 117.307 150.289 117.101 150.289L116.62 150.702C116.58 150.474 116.58 150.242 116.62 150.014V149.602L117.376 149.052V148.983Z" fill="#FEFEFE"/>
<path d="M114.28 149.19L113.73 149.671C113.73 149.671 113.73 149.671 113.73 150.015C113.712 150.267 113.712 150.519 113.73 150.771L113.112 150.359C113.112 150.359 113.112 150.359 112.699 150.359L112.149 150.84V150.015C111.923 149.91 111.714 149.771 111.53 149.602H112.287C112.264 149.351 112.264 149.098 112.287 148.846C112.317 149.074 112.317 149.306 112.287 149.534H112.699L114.28 149.19Z" fill="#FEFEFE"/>
<path d="M103.213 149.808L102.594 150.358C102.594 150.358 102.594 150.358 102.594 150.701C102.644 150.951 102.644 151.208 102.594 151.458L102.182 151.251C102.182 151.251 102.182 151.251 101.769 151.251L101.15 151.733V150.976C101.15 150.976 101.15 150.976 101.15 150.633L100.463 150.22H101.219C101.236 149.968 101.236 149.716 101.219 149.464C101.248 149.715 101.248 149.969 101.219 150.22C101.219 150.22 101.219 150.22 101.563 150.22L103.213 149.808Z" fill="#FEFEFE"/>
<path d="M96.2693 149.256C96.289 149.531 96.289 149.806 96.2693 150.081H97.0256L96.4068 150.631C96.4267 150.906 96.4267 151.181 96.4068 151.456L96.7506 151.25C96.5767 151.466 96.3675 151.652 96.1318 151.8C96.1318 151.456 96.1318 151.25 96.1318 150.975C96.1318 150.7 96.1318 150.975 96.1318 150.975L95.4443 150.562H96.2693C96.2693 150.562 96.2006 149.6 96.2693 149.256Z" fill="#FEFEFE"/>
<path d="M106.513 134.751C106.49 134.5 106.49 134.247 106.513 133.995C106.541 134.246 106.541 134.5 106.513 134.751Z" fill="#FEFEFE"/>
<path d="M112.493 133.304C112.513 133.579 112.513 133.855 112.493 134.129H113.249L112.699 134.61C112.699 134.61 112.699 135.092 112.699 135.367L112.08 134.954L111.462 135.435C111.422 135.208 111.422 134.975 111.462 134.748C111.462 134.748 111.462 134.404 111.462 134.267L110.98 133.923H111.668C111.668 133.923 112.424 133.648 112.493 133.304Z" fill="#FEFEFE"/>
<path d="M103.213 142.38H103.97V141.555C103.97 141.555 103.97 141.899 103.97 142.105C103.976 142.167 103.997 142.227 104.03 142.28C104.063 142.333 104.108 142.378 104.161 142.411C104.214 142.444 104.274 142.464 104.336 142.471C104.398 142.478 104.461 142.47 104.52 142.449C104.52 142.449 104.52 142.449 105.001 142.449L104.451 142.93C104.472 143.182 104.472 143.435 104.451 143.686L103.763 143.205L103.145 143.755V142.93L103.213 142.38Z" fill="#FEFEFE"/>
<path d="M122.394 141.282L121.844 141.695C121.844 141.695 121.844 141.695 121.844 142.038V142.795L121.225 142.382L120.675 142.863C120.636 142.613 120.636 142.358 120.675 142.107C120.7 142.053 120.713 141.995 120.713 141.935C120.713 141.876 120.7 141.817 120.675 141.763C120.44 141.675 120.229 141.534 120.057 141.351H120.813C120.759 141.102 120.759 140.844 120.813 140.595V141.282C120.813 141.282 120.813 141.282 121.157 141.282H121.844H122.394Z" fill="#FEFEFE"/>
</g>
<defs>
<clipPath id="clip0_2_21374">
<rect width="220" height="220" fill="white" transform="translate(0.5)"/>
</clipPath>
</defs>
</svg>
