<svg width="221" height="220" viewBox="0 0 221 220" fill="none" xmlns="http://www.w3.org/2000/svg">
<g clip-path="url(#clip0_2_19397)">
<path d="M110.5 220C171.251 220 220.5 170.751 220.5 110C220.5 49.2487 171.251 0 110.5 0C49.7487 0 0.5 49.2487 0.5 110C0.5 170.751 49.7487 220 110.5 220Z" fill="#30367A"/>
<path d="M99.1769 153.299V62.0675H72.6875V41.25H148.312V62.0675H121.823V153.299H99.1769ZM93.0787 178.75C79.4044 178.75 72.935 172.177 72.935 158.276V68.035H92.8313V157.355C92.8313 159.555 93.5531 160.284 95.7119 160.284H125.542C127.701 160.284 128.43 159.548 128.43 157.355V68.035H148.312V158.276C148.312 172.177 141.836 178.75 128.169 178.75H93.0787Z" fill="white"/>
</g>
<defs>
<clipPath id="clip0_2_19397">
<rect width="220" height="220" fill="white" transform="translate(0.5)"/>
</clipPath>
</defs>
</svg>
