<svg width="221" height="220" viewBox="0 0 221 220" fill="none" xmlns="http://www.w3.org/2000/svg">
<g clip-path="url(#clip0_2_19393)">
<path d="M110.5 220C171.251 220 220.5 170.751 220.5 110C220.5 49.2487 171.251 0 110.5 0C49.7487 0 0.5 49.2487 0.5 110C0.5 170.751 49.7487 220 110.5 220Z" fill="#FF9933"/>
<path d="M41.75 55C49.34 55.0138 56.9369 55.0138 64.52 55L78.8956 131.863C79.1225 132.997 79.3975 134.118 79.6931 135.231C80.8206 130.762 81.5288 126.198 82.4706 121.688L95.5606 55L117.588 55.0069C109.51 90.9769 101.432 126.954 93.34 162.924H65.9981C57.9063 126.974 49.8281 91.025 41.75 55.0688V55ZM126.409 88.9075C131.201 82.885 138.859 80.1556 146.243 79.6744C153.531 79.1656 161.382 79.8256 167.556 84.1706C173.021 87.9931 176.019 94.4556 177.442 100.884C179.168 108.941 179.257 117.219 179.25 125.427H138.894C138.928 131.498 138.55 137.761 140.578 143.578C141.561 146.438 143.397 149.284 146.312 150.322C149.419 151.332 153.159 150.673 155.428 148.17C158.453 144.746 159.086 139.947 159.746 135.554H178.061C177.648 142.842 176.301 150.542 171.529 156.269C166.744 162.222 159.031 164.656 151.729 164.952C143.796 165.254 135.181 164.175 128.856 158.833C122.978 153.931 120.414 146.162 119.396 138.717C118.379 130.144 118.324 121.468 118.798 112.853C119.438 104.452 120.957 95.5556 126.402 88.9006L126.409 88.9075ZM142.043 97.4669C138.921 101.963 138.839 107.752 138.894 113.053H159.739C159.416 108.013 159.45 102.692 157.181 98.0787C154.363 92.3862 145.453 92.3656 142.056 97.4738H142.043V97.4669Z" fill="white"/>
</g>
<defs>
<clipPath id="clip0_2_19393">
<rect width="220" height="220" fill="white" transform="translate(0.5)"/>
</clipPath>
</defs>
</svg>
