<svg width="221" height="220" viewBox="0 0 221 220" fill="none" xmlns="http://www.w3.org/2000/svg">
<g clip-path="url(#clip0_2_19389)">
<path d="M110.5 220C171.251 220 220.5 170.751 220.5 110C220.5 49.2487 171.251 0 110.5 0C49.7487 0 0.5 49.2487 0.5 110C0.5 170.751 49.7487 220 110.5 220Z" fill="#15BDFF"/>
<path d="M101.824 170.046L48.9002 62.1912C48.7072 61.7939 48.6181 61.3542 48.6413 60.9131C48.6644 60.472 48.799 60.044 49.0325 59.669C49.266 59.2941 49.5907 58.9844 49.9764 58.7691C50.362 58.5537 50.796 58.4396 51.2377 58.4375H69.5802C70.5633 58.4375 71.4845 58.9875 71.9177 59.8538L110.569 138.098C114.006 145.111 123.982 145.111 127.426 138.098L165.954 59.9156C166.176 59.4878 166.512 59.1293 166.924 58.8795C167.336 58.6297 167.809 58.4982 168.291 58.4994H170.574C171.928 58.4994 172.788 59.9156 172.176 61.0844L118.688 170.053C115.244 177.066 105.275 177.066 101.824 170.053V170.046Z" fill="white"/>
</g>
<defs>
<clipPath id="clip0_2_19389">
<rect width="220" height="220" fill="white" transform="translate(0.5)"/>
</clipPath>
</defs>
</svg>
