<svg width="221" height="220" viewBox="0 0 221 220" fill="none" xmlns="http://www.w3.org/2000/svg">
<g clip-path="url(#clip0_2_19385)">
<path d="M110.5 220C171.251 220 220.5 170.751 220.5 110C220.5 49.2487 171.251 0 110.5 0C49.7487 0 0.5 49.2487 0.5 110C0.5 170.751 49.7487 220 110.5 220Z" fill="#565656"/>
<path d="M77.0394 98.285H55.5344V86.4669H72.5156L59.4875 52.4356L70.24 48.125L94.6463 111.836L126.278 112.042L150.76 48.125L161.519 52.4356L148.484 86.4669H165.466V98.2919H143.961L138.66 112.111L165.5 112.283L165.431 124.101L134.15 123.901L110.5 185.625L86.74 123.606L55.5 123.399L55.5688 111.588L82.2025 111.76L77.0394 98.285ZM99.1769 123.681L110.5 153.23L121.761 123.826L99.1769 123.681Z" fill="white"/>
</g>
<defs>
<clipPath id="clip0_2_19385">
<rect width="220" height="220" fill="white" transform="translate(0.5)"/>
</clipPath>
</defs>
</svg>
