<svg width="221" height="220" viewBox="0 0 221 220" fill="none" xmlns="http://www.w3.org/2000/svg">
<g clip-path="url(#clip0_2_19377)">
<path d="M110.5 220C171.251 220 220.5 170.751 220.5 110C220.5 49.2487 171.251 0 110.5 0C49.7487 0 0.5 49.2487 0.5 110C0.5 170.751 49.7487 220 110.5 220Z" fill="#338BE5"/>
<path d="M156.081 116.311C161.1 117.659 166.05 119.219 170.505 121.962C172.485 123.179 174.335 124.609 176.005 126.218C178.48 128.968 178.315 131.869 176.06 134.778C174.08 137.308 171.385 138.923 168.518 140.271C161.258 143.77 153.558 145.764 145.693 146.946C139.306 147.909 132.816 148.459 126.375 149.263C126.072 149.328 125.785 149.451 125.53 149.627C125.275 149.803 125.057 150.027 124.89 150.288C120.38 157.011 115.925 163.742 111.415 170.472C111.052 170.916 110.722 171.385 110.425 171.875C105.661 164.728 100.947 157.548 96.2827 150.336C96.0861 149.998 95.8056 149.716 95.4684 149.519C95.1311 149.321 94.7485 149.214 94.3577 149.208C81.4808 148.294 68.7758 146.623 56.6139 142.264C52.7639 140.917 49.079 139.246 45.889 136.716C45.7171 136.551 45.4971 136.441 45.3389 136.283C40.6639 132.357 40.5471 128.157 45.0639 124.114C48.6389 120.883 53.0389 119.054 57.6039 117.652C62.169 116.249 66.7889 115.232 71.4158 114.049C71.6358 113.994 71.8558 113.994 72.2408 113.884C62.279 98.6494 52.434 83.5725 42.3621 68.2825C42.9671 68.2275 43.4071 68.1725 43.7921 68.1725C50.0139 68.1175 56.229 68.1725 62.444 68.1175C62.8834 68.0911 63.3209 68.1943 63.7022 68.4143C64.0835 68.6343 64.3918 68.9614 64.5889 69.355C79.6452 92.3175 94.6877 115.287 109.71 138.277C109.93 138.661 110.188 139.023 110.48 139.356C113.945 134.131 117.3 129.126 120.6 124.114C132.7 105.827 144.806 87.56 156.913 69.3069C157.353 68.6606 157.683 68.1725 158.673 68.1725C165.218 68.2275 171.77 68.2275 178.315 68.2275C178.625 68.2275 178.934 68.2413 179.25 68.2825C169.035 83.6952 158.8 99.0952 148.546 114.483C151.138 115.122 153.613 115.665 156.088 116.311H156.081ZM61.674 129.236C62.9527 130.659 64.4583 131.883 66.1289 132.839C73.004 136.503 80.6008 137.844 88.4727 139.026C88.3627 138.655 88.3627 138.49 88.3077 138.387C83.8458 131.649 79.4458 124.871 74.9908 118.14C74.812 117.964 74.5943 117.834 74.3553 117.758C74.1163 117.683 73.8629 117.665 73.6158 117.707C71.0033 118.566 68.4458 119.591 65.964 120.78C64.3574 121.665 62.9229 122.832 61.729 124.224C61.0616 124.883 60.6814 125.778 60.6711 126.716C60.6608 127.653 61.0212 128.556 61.674 129.229V129.236ZM148.326 135.046C151.324 134.236 154.068 132.68 156.301 130.522C158.508 128.322 158.508 125.84 156.301 123.578C155.756 122.988 155.128 122.478 154.438 122.066C152.073 120.883 149.598 119.756 147.171 118.573C146.346 118.14 145.851 118.463 145.356 119.219C142.771 123.207 140.131 127.126 137.491 131.065C135.841 133.54 134.191 136.07 132.486 138.655C132.925 138.71 133.368 138.71 133.806 138.655C138.646 137.472 143.541 136.393 148.326 135.046ZM148.381 61.875L110.7 121.908L72.5158 61.875H148.381Z" fill="white"/>
</g>
<defs>
<clipPath id="clip0_2_19377">
<rect width="220" height="220" fill="white" transform="translate(0.5)"/>
</clipPath>
</defs>
</svg>
