<svg width="221" height="220" viewBox="0 0 221 220" fill="none" xmlns="http://www.w3.org/2000/svg">
<g clip-path="url(#clip0_2_19373)">
<path d="M110.5 220C171.251 220 220.5 170.751 220.5 110C220.5 49.2487 171.251 0 110.5 0C49.7487 0 0.5 49.2487 0.5 110C0.5 170.751 49.7487 220 110.5 220Z" fill="#408AF1"/>
<path d="M158.962 70.6555C159.694 69.4102 160.669 68.3243 161.828 67.4618C162.987 66.5993 164.308 65.9776 165.711 65.6335C167.114 65.2894 168.572 65.2299 169.999 65.4583C171.426 65.6867 172.792 66.1986 174.018 66.9636C179.174 70.1949 180.797 77.0699 177.634 82.343C165.919 101.854 152.698 122.273 141.678 137.866C125.59 160.622 122.105 168.439 110.5 168.439C98.8947 168.439 96.2822 161.543 79.7341 137.804C69.9029 123.71 57.576 104.838 43.5029 82.5562C41.9265 80.0623 41.3857 77.0517 41.9956 74.1652C42.6056 71.2786 44.318 68.7441 46.7685 67.1012C47.9754 66.3065 49.3294 65.7617 50.7504 65.4991C52.1714 65.2365 53.6306 65.2613 55.0418 65.5722C56.4531 65.883 57.7877 66.4735 58.9669 67.3088C60.1461 68.1441 61.1459 69.2073 61.9072 70.4355C75.8154 92.4493 107.234 138.333 110.589 142.424C114.095 138.271 147.522 89.713 158.962 70.6486V70.6555Z" fill="white"/>
</g>
<defs>
<clipPath id="clip0_2_19373">
<rect width="220" height="220" fill="white" transform="translate(0.5)"/>
</clipPath>
</defs>
</svg>
