<svg width="221" height="220" viewBox="0 0 221 220" fill="none" xmlns="http://www.w3.org/2000/svg">
<g clip-path="url(#clip0_2_19369)">
<path d="M110.5 220C171.251 220 220.5 170.751 220.5 110C220.5 49.2487 171.251 0 110.5 0C49.7487 0 0.5 49.2487 0.5 110C0.5 170.751 49.7487 220 110.5 220Z" fill="#418BCA"/>
<path d="M139.822 55H172.375L110.5 178.75L48.625 55H80.965L110.713 117.652L139.822 55ZM110.5 89.0931C105.083 89.0931 100.689 84.5831 100.689 79.0213C100.689 73.4594 105.083 68.9425 110.5 68.9425C115.918 68.9425 120.311 73.4594 120.311 79.0213C120.311 84.5831 115.911 89.0931 110.5 89.0931ZM154.947 116.868C160.364 116.868 164.758 121.385 164.751 126.947C164.751 132.516 160.364 137.019 154.947 137.019C149.529 137.019 145.136 132.509 145.136 126.947C145.136 121.385 149.529 116.875 154.947 116.875V116.868Z" fill="white"/>
</g>
<defs>
<clipPath id="clip0_2_19369">
<rect width="220" height="220" fill="white" transform="translate(0.5)"/>
</clipPath>
</defs>
</svg>
