<svg width="221" height="220" viewBox="0 0 221 220" fill="none" xmlns="http://www.w3.org/2000/svg">
<g clip-path="url(#clip0_2_19363)">
<path d="M110.5 220C171.251 220 220.5 170.751 220.5 110C220.5 49.2487 171.251 0 110.5 0C49.7487 0 0.5 49.2487 0.5 110C0.5 170.751 49.7487 220 110.5 220Z" fill="#FFB500"/>
<path d="M192.299 99.8737C190.311 83.8504 183.666 68.7624 173.186 56.4787C165.854 47.8572 156.807 40.8566 146.621 35.9225C132.95 29.2463 117.695 26.4928 102.553 27.9681C88.5101 29.3261 75.0515 34.2672 63.4662 42.3182C51.8808 50.3692 42.5569 61.2603 36.3877 73.9481C29.0266 89.099 26.4742 106.138 29.0727 122.781C31.5593 138.682 38.6591 153.503 49.4915 165.406C64.9259 182.607 87.9296 192.666 111.036 192.397C122.668 192.323 134.153 189.788 144.734 184.957C155.316 180.127 164.755 173.111 172.431 164.372C180.107 155.632 185.846 145.366 189.27 134.25C192.694 123.133 193.727 111.418 192.299 99.8737ZM167.178 82.0675C166.801 82.5928 166.474 83.1521 166.201 83.7381L129.915 160.174C128.176 163.825 126.43 167.517 124.45 171.037C115.464 170.968 106.478 171.002 97.4859 171.002C83.1652 141.522 68.9134 112.015 54.5584 82.5693C54.2627 81.9987 53.9602 81.3937 53.6577 80.8231C53.8915 80.6581 54.4277 80.3556 54.6615 80.2181C60.2646 73.2468 65.9365 66.3031 71.5671 59.325C72.2684 58.4243 73.0796 57.5512 73.8771 56.7468C74.2484 57.345 74.6127 57.95 74.9152 58.6237C78.0365 65.8012 81.2196 73.0131 84.4027 80.1837C87.634 80.1837 90.8446 80.2525 94.0965 80.0462C95.2721 81.16 95.9115 82.6381 96.379 84.1437C96.984 82.6037 97.2177 80.9606 97.2865 79.2831C98.3246 69.6581 98.4965 59.93 99.5346 50.305C99.6996 48.2287 102.821 48.2287 103.089 50.2362C104.093 59.3593 104.326 68.5856 105.069 77.7362C105.206 80.4862 105.303 83.2362 105.908 85.9175C107.283 84.1093 106.843 80.9262 109.359 80.1837C111.442 79.4825 113.786 80.6581 115.767 79.4137C118.482 77.7706 119.486 74.5531 121.198 72.0368C122.174 70.3937 124.415 69.2181 126.23 70.16C128.038 70.8612 128.808 72.8068 129.75 74.3537C130.823 76.1275 131.799 78.1075 133.538 79.2831C135.085 79.95 136.825 80.0531 138.502 80.0187C141.891 72.3737 145.377 64.7562 148.835 57.1456C154.871 64.7287 160.571 72.5456 166.607 80.1218C167.515 80.5206 167.68 81.1943 167.178 82.0675Z" fill="white"/>
<path d="M124.753 72.4727C122.037 75.429 121.068 80.1865 117.004 81.699C114.928 82.7027 112.412 81.864 110.336 82.6409C108.521 86.1952 108.754 90.3821 107.379 94.074C106.444 95.8202 103.626 94.9471 103.626 93.0359C102.457 83.0052 102.354 72.8784 101.281 62.8546C100.14 71.8746 99.8376 80.9909 98.4282 89.9421C98.4282 92.2659 94.7707 92.6302 94.4407 90.3202C93.7326 87.7077 93.5676 84.9577 92.2545 82.5034C89.9859 82.4698 87.7169 82.4698 85.4482 82.5034C94.0007 101.891 102.484 121.271 111.037 140.659C119.693 121.271 128.644 102.021 137.231 82.6065L137.265 82.5377C135.017 82.2627 132.569 82.0359 130.693 80.6265C128.08 78.4471 127.069 74.9546 124.753 72.4727Z" fill="white"/>
</g>
<defs>
<clipPath id="clip0_2_19363">
<rect width="220" height="220" fill="white" transform="translate(0.5)"/>
</clipPath>
</defs>
</svg>
