<svg width="221" height="220" viewBox="0 0 221 220" fill="none" xmlns="http://www.w3.org/2000/svg">
<g clip-path="url(#clip0_2_19359)">
<path d="M110.5 220C171.251 220 220.5 170.751 220.5 110C220.5 49.2487 171.251 0 110.5 0C49.7487 0 0.5 49.2487 0.5 110C0.5 170.751 49.7487 220 110.5 220Z" fill="#048657"/>
<path d="M18.5947 113.919L32.001 98.6493H79.6997L109.008 136.036L185.698 29.7961C190.406 34.0449 194.689 38.7421 198.486 43.8211C202.443 49.0853 205.887 54.7165 208.771 60.6374L114.618 190.871C112.837 192.741 110.967 193.676 109.008 193.676C107.042 193.676 105.068 192.741 103.082 190.871L43.5372 113.912H18.5947V113.919Z" fill="white"/>
</g>
<defs>
<clipPath id="clip0_2_19359">
<rect width="220" height="220" fill="white" transform="translate(0.5)"/>
</clipPath>
</defs>
</svg>
