<svg width="221" height="220" viewBox="0 0 221 220" fill="none" xmlns="http://www.w3.org/2000/svg">
<g clip-path="url(#clip0_2_19349)">
<path d="M110.5 220C171.251 220 220.5 170.751 220.5 110C220.5 49.2487 171.251 0 110.5 0C49.7487 0 0.5 49.2487 0.5 110C0.5 170.751 49.7487 220 110.5 220Z" fill="#399B32"/>
<path d="M150.994 51.3416C150.251 54.3254 150.382 58.1479 151.207 58.4916C152.032 58.8422 154.108 56.8691 155.325 54.6279C156.494 52.5654 157.532 51.9535 158.969 52.4829C160.873 53.2254 160.571 53.8854 156.666 57.261C153.421 60.0729 152.768 61.0835 153.641 61.9566C154.156 62.486 154.541 62.3966 156.404 61.386C158.742 60.1622 160.048 60.2447 160.048 61.6541C160.048 62.3072 159.182 62.8366 156.019 64.0604C153.764 64.9404 151.551 66.0816 151.035 66.6522C149.997 67.7935 148.175 71.396 146.009 76.7035C144.146 81.3097 142.366 84.6922 141.197 86.0054C140.241 87.0572 137.038 87.7241 130.279 88.2466C127.117 88.5079 126.725 88.4666 126.553 87.7172C126.066 85.6743 125.676 83.6095 125.384 81.5297C125.384 81.3991 126.986 81.4404 128.98 81.5779C132.534 81.8391 136.082 82.8016 137.732 83.9429C138.99 84.8229 139.121 84.6922 139.684 82.231C140.372 79.426 141.85 75.741 144.098 71.176C145.789 67.7935 145.838 67.5322 145.659 64.3285C145.446 60.7741 144.834 59.241 142.716 56.9104C141.933 56.0854 141.458 55.1572 141.589 54.8066C141.699 54.5371 141.786 54.2588 141.85 53.9747C141.85 53.8854 142.235 53.796 142.675 53.796C143.191 53.796 144.098 54.5866 144.923 55.7691C147.219 59.021 147.914 58.4022 147.914 53.0054C147.914 50.551 148.086 49.4991 148.649 48.8804C149.516 47.9179 150.21 47.8766 150.946 48.7497C151.379 49.2791 151.379 49.8497 150.994 51.3416ZM116.543 69.7254C116.846 72.9772 117.451 74.1116 119.403 74.8129C120.18 75.1222 121.259 75.5691 121.782 75.741C123.04 76.2635 123.391 78.1472 124.731 90.4397C126.161 103.777 126.464 105.668 127.811 109.793C129.846 116.063 129.668 123.35 127.289 130.679C126.072 134.453 124.731 136.165 121.961 137.657C116.413 140.593 110.686 138.448 106.231 131.772C102.917 126.96 101.693 120.978 102.848 115.231C103.501 112.158 103.845 107.51 103.536 106.362C103.412 105.798 102.023 104.045 100.463 102.375C95.6088 97.3285 90.4938 88.2879 91.4975 86.6654C91.8 86.2254 92.0131 84.8641 92.0131 83.6816C92.0131 81.2685 91.3256 80.2991 88.2869 78.5941C86.2931 77.4529 86.1625 76.3116 87.8125 73.1491C88.72 71.3066 89.2425 70.9147 93.7938 68.5841C98.4275 66.2191 100.511 65.5591 107.399 64.3285C110.259 63.7991 112.336 63.8472 113.896 64.5072C115.718 65.2979 116.234 66.3016 116.543 69.7322V69.7254ZM75.5475 86.0947C75.5475 88.3291 76.2831 90.5291 76.8056 89.9585C77.0256 89.7385 77.4931 88.5079 77.9331 87.236C78.6206 85.036 79.8856 83.7297 80.7519 84.2935C81.4875 84.7747 81.2262 87.3185 80.2706 88.8997C78.9712 91.0516 78.9712 95.1354 80.3187 97.8579C81.6594 100.491 84.43 103.385 85.6469 103.385C86.3825 103.337 87.2488 102.285 89.6344 98.2085L92.6594 93.0729L93.1406 96.146C93.6219 99.611 93.4019 100.663 91.4494 104.045C89.2838 107.861 86.8569 110.845 85.9494 110.845C84.9113 110.845 82.5669 108.521 80.5731 105.537C79.7963 104.3 77.6306 101.935 75.8088 100.223L72.4744 97.1085L70.4394 97.4591C69.1938 97.6918 67.9317 97.8251 66.665 97.8579C65.1044 97.8991 64.9325 97.8097 64.8088 96.7166C64.6713 95.7541 64.8913 95.4447 65.7988 95.2247C66.7868 95.0507 67.7962 95.0344 68.7894 95.1766C69.9994 95.3554 70.9138 95.266 71.3881 94.9154C72.1238 94.386 72.0825 94.2966 71.3469 93.4235C70.9138 92.8941 69.6144 92.1929 68.3975 91.801C65.3725 90.8385 63.4131 89.5185 63.4131 88.5079C63.4131 87.1947 65.0631 86.8854 66.4038 87.9785C70.8725 91.6704 72.1238 92.1929 73.2994 91.0035C74.1244 90.1785 73.9044 88.5972 72.5156 85.8335C71.3056 83.3722 70.8656 81.0897 71.5188 80.4366C71.9519 79.9554 73.0794 80.086 73.8563 80.6979C74.7706 81.4404 75.5475 83.8604 75.5475 86.0947ZM154.803 125.626C153.723 126.774 150.602 130.418 147.873 133.704C139.808 143.446 138.99 144.498 139.334 144.855C139.678 145.199 146.525 142.174 148.086 140.992C150.038 139.452 153.586 135.684 154.239 134.405C154.541 133.883 154.974 132.26 155.284 130.851C155.799 128.218 157.229 126.203 158.529 126.203C159.395 126.203 159.787 127.214 159.443 128.527C158.852 130.011 158.127 131.438 157.278 132.79C156.191 134.584 155.456 136.207 155.538 136.385C155.971 137.038 157.58 136.729 159.443 135.636C160.523 135.017 162.083 133.402 163.252 131.731C165.548 128.486 167.109 127.083 168.498 127.083C169.666 127.083 171.055 128.575 170.753 129.448C170.615 129.799 168.621 131.511 166.373 133.23C162.475 136.165 161.258 137.698 161.952 138.84C162.344 139.5 165.94 138.62 169.756 136.915C176.253 133.972 178.033 133.793 179.071 135.767C179.938 137.396 177.813 138.4 169.494 140.242C167.198 140.772 164.682 141.603 163.905 142.085L162.475 142.965L163.472 143.797C164.338 144.505 165.246 144.635 169.536 144.635C173.393 144.635 174.829 144.807 175.476 145.288C176.301 145.948 176.253 145.997 175.043 147.09C174.259 147.75 173.53 148.1 173.09 147.922C171.186 147.131 164.73 145.948 162.386 145.948C158.185 145.948 157.834 147.488 161.65 148.973C163.383 149.682 164.036 150.472 163.685 151.393C163.3 152.445 162.255 152.267 158.488 150.513C150.856 146.959 149.474 146.78 140.338 147.97C135.999 148.54 134.741 148.588 134.267 148.142C133.311 147.351 133.483 146.608 134.831 145.426C135.91 144.505 144.277 128.926 143.885 128.575C143.665 128.355 135.223 131.38 129.104 133.924C128.327 134.233 128.327 134.192 129.104 132.962C131.971 128.266 140.241 122.993 149.866 119.707C154.851 117.995 155.153 117.953 157.229 117.995C158.618 118.084 159.01 118.263 159.093 118.957C159.23 120.057 157.491 122.78 154.803 125.626ZM55.445 141.129C57.0469 143.412 60.7319 147.275 61.2888 147.275C61.8594 147.275 61.3781 143.453 60.34 139.458C59.3844 135.815 59.3019 134.062 60.0375 133.319C60.6012 132.748 62.5125 132.618 63.2894 133.14C63.5919 133.319 63.9356 135.822 64.1969 139.596C64.6781 146.485 65.0219 147.757 66.7063 148.85C67.7925 149.599 67.875 149.599 68.3975 148.898C68.6588 148.499 68.9613 146.877 69.0094 145.254C69.1331 140.909 70.1781 138.977 72.0344 139.596C73.4713 140.029 73.6019 141.83 72.5156 145.254C71.2575 149.242 71.0444 152.143 71.6081 156.048C72.4331 161.362 74.4269 166.099 75.4169 165.088C75.6369 164.917 75.7606 158.99 75.8088 151.971C75.85 140.998 75.9394 138.805 76.5925 136.743C77.8025 132.962 78.0638 132.79 82.8281 132.79C90.6725 132.79 105.234 134.9 107.179 136.296C109.263 137.795 108.829 138.324 104.711 139.637C95.7394 142.401 91.3669 142.93 85.9494 141.878C84.1756 141.521 82.5669 141.308 82.395 141.397C82.2231 141.48 82.395 142.49 82.7388 143.632C83.825 147.186 83.5225 149.379 80.965 157.189C79.6244 161.183 78.3662 165.838 78.1944 167.502C78.0225 169.172 77.5413 170.836 77.28 171.187C76.1525 172.548 74.9012 171.936 72.8594 169.083C70.3088 165.577 66.2731 161.713 63.9356 160.482C62.9388 159.953 59.6456 158.99 56.655 158.282C51.2856 157.058 49.5531 156.22 50.1994 155.175C50.4194 154.776 51.3681 154.735 53.4513 154.907C57.26 155.305 57.5694 154.776 55.0119 152.363C52.2231 149.887 49.0273 147.913 45.5656 146.526C42.3137 145.213 41.75 144.773 41.75 143.721C41.75 142.882 42.96 142.002 44.1356 142.002C44.5206 142.002 46.26 143.192 47.9444 144.683C51.4988 147.708 53.9669 149.159 55.3144 148.946C57.7894 148.588 54.8331 142.841 50.1994 138.977C48.5081 137.575 46.865 135.863 46.5144 135.203C45.9506 134.103 45.9506 133.979 46.7344 133.408C47.4535 132.99 48.2845 132.805 49.1131 132.879C50.4606 133.017 50.7631 133.278 52.365 136.083C53.3206 137.795 54.7025 140.07 55.445 141.129ZM117.581 65.7791C119.795 65.4354 120.263 67.2297 120.263 67.1885C121.438 70.2135 120.744 73.9947 120.744 73.9947C119.183 73.6854 118.014 71.7535 118.014 71.7535C117.107 69.6016 117.581 65.786 117.581 65.786V65.7791ZM86.3413 78.2916C86.3413 78.2916 89.6756 80.1341 90.9338 82.1072C90.9338 82.1072 91.8 84.1697 91.1469 85.6616C91.1469 85.6616 87.6819 84.0391 85.9494 81.3166C85.9494 81.3647 84.8219 79.9141 86.3413 78.2916Z" fill="white"/>
</g>
<defs>
<clipPath id="clip0_2_19349">
<rect width="220" height="220" fill="white" transform="translate(0.5)"/>
</clipPath>
</defs>
</svg>
