<svg width="221" height="220" viewBox="0 0 221 220" fill="none" xmlns="http://www.w3.org/2000/svg">
<g clip-path="url(#clip0_2_19345)">
<path d="M110.5 220C171.251 220 220.5 170.751 220.5 110C220.5 49.2487 171.251 0 110.5 0C49.7487 0 0.5 49.2487 0.5 110C0.5 170.751 49.7487 220 110.5 220Z" fill="#136AAD"/>
<path fill-rule="evenodd" clip-rule="evenodd" d="M48.625 76.2438L66.9606 84.0125V127.689L110.5 101.654L154.459 127.689V84.0125L172.375 76.2438V158.565L110.5 122.024L48.625 158.565V76.2438ZM50.7081 72.8819L110.5 37.8125L170.711 72.8819L154.459 79.6056L110.5 54.1956L66.9606 79.6056L50.7081 72.8819ZM63.6263 154.151L77.17 146.382L110.706 165.804L143.83 146.382L157.786 154.151L110.706 182.188L63.6263 154.151Z" fill="white"/>
</g>
<defs>
<clipPath id="clip0_2_19345">
<rect width="220" height="220" fill="white" transform="translate(0.5)"/>
</clipPath>
</defs>
</svg>
