<svg width="221" height="220" viewBox="0 0 221 220" fill="none" xmlns="http://www.w3.org/2000/svg">
<g clip-path="url(#clip0_2_19337)">
<path d="M110.5 220C171.251 220 220.5 170.751 220.5 110C220.5 49.2487 171.251 0 110.5 0C49.7487 0 0.5 49.2487 0.5 110C0.5 170.751 49.7487 220 110.5 220Z" fill="#F89022"/>
<path fill-rule="evenodd" clip-rule="evenodd" d="M193 130.364H176.747L165.218 120.491L153.73 130.322H139.994L133.428 122.347H110.796L116.522 115.273H127.653L119.176 104.906L89.5794 140.938H75.85L84.4163 130.474H70.1094L62.375 108.79L54.7025 130.309H40.1894L28 96.5319H39.1375L47.3325 119.536L55.5 96.635H69.25L77.3969 119.487L85.5369 96.6281H96.7088L84.4163 130.474L87.1525 127.133L112.26 96.5731H126.079L146.972 122.066L157.023 113.424L125.212 85.9375H141.541L193 130.364ZM176.878 109.931L169.213 103.359L176.864 96.8413L192.333 96.855L176.878 109.931Z" fill="white"/>
</g>
<defs>
<clipPath id="clip0_2_19337">
<rect width="220" height="220" fill="white" transform="translate(0.5)"/>
</clipPath>
</defs>
</svg>
