<svg width="221" height="220" viewBox="0 0 221 220" fill="none" xmlns="http://www.w3.org/2000/svg">
<g clip-path="url(#clip0_2_19331)">
<path d="M110.5 220C171.251 220 220.5 170.751 220.5 110C220.5 49.2487 171.251 0 110.5 0C49.7487 0 0.5 49.2487 0.5 110C0.5 170.751 49.7487 220 110.5 220Z" fill="#201A2D"/>
<path d="M157.374 65.902L153.249 70.027C163.091 80.7909 168.55 94.8487 168.55 109.434C168.55 124.02 163.091 138.078 153.249 148.842L157.374 152.967C168.32 141.094 174.397 125.536 174.397 109.386C174.397 93.237 168.32 77.6791 157.374 65.8057V65.902ZM70.6248 66.2595C81.3887 56.4166 95.4465 50.9581 110.032 50.9581C124.618 50.9581 138.676 56.4166 149.44 66.2595L153.565 62.1345C141.691 51.1881 126.133 45.1108 109.984 45.1108C93.8348 45.1108 78.2769 51.1881 66.4035 62.1345L70.6248 66.2595ZM66.761 148.883C56.9297 138.122 51.4785 124.073 51.4785 109.496C51.4785 94.9202 56.9297 80.871 66.761 70.1095L62.636 65.9845C51.6896 77.8579 45.6123 93.4158 45.6123 109.565C45.6123 125.714 51.6896 141.272 62.636 153.146L66.761 148.883ZM149.385 152.692C138.621 162.535 124.563 167.993 109.977 167.993C95.3915 167.993 81.3337 162.535 70.5698 152.692L66.4448 156.817C78.3181 167.763 93.8761 173.841 110.025 173.841C126.175 173.841 141.733 167.763 153.606 156.817L149.385 152.692ZM136.034 95.7257C135.209 87.1182 127.784 84.2307 118.392 83.3507V71.4982H111.132V83.1307H105.33V71.4982H98.1248V83.4332H83.3985V91.202C83.3985 91.202 88.761 91.1057 88.6785 91.202C89.6454 91.0956 90.6158 91.3687 91.3853 91.9638C92.1548 92.5589 92.6632 93.4294 92.8035 94.392V127.062C92.7828 127.401 92.6943 127.733 92.5432 128.038C92.392 128.343 92.1813 128.614 91.9235 128.836C91.6705 129.062 91.3745 129.234 91.0531 129.343C90.7318 129.452 90.3917 129.494 90.0535 129.468C90.1498 129.551 84.7735 129.468 84.7735 129.468L83.3985 138.144H97.9873V150.272H105.247V138.323H111.05V150.217H118.324V138.227C130.589 137.484 139.141 134.459 140.214 122.978C141.08 113.738 136.735 109.613 129.791 107.949C134.012 105.873 136.625 102.023 136.034 95.7257ZM125.859 121.548C125.859 130.568 110.404 129.537 105.481 129.537V113.532C110.404 113.546 125.859 112.129 125.859 121.548ZM122.49 98.9982C122.49 107.248 109.592 106.244 105.495 106.244V91.697C109.592 91.697 122.49 90.4045 122.49 98.9982Z" fill="white"/>
<path d="M109.978 184.607C68.4937 184.601 34.875 150.968 34.875 109.484C34.875 68.0075 68.5075 34.375 109.984 34.375C151.468 34.375 185.101 67.9937 185.107 109.478C185.109 119.344 183.167 129.115 179.392 138.231C175.617 147.347 170.083 155.63 163.106 162.606C156.13 169.583 147.847 175.117 138.731 178.892C129.615 182.667 119.844 184.609 109.978 184.607ZM109.978 40.2325C71.7594 40.26 40.8012 71.2594 40.815 109.478C40.8287 147.696 71.8213 178.668 110.033 178.668C148.251 178.668 179.236 147.696 179.25 109.478C179.254 100.381 177.464 91.3726 173.984 82.968C170.503 74.5633 165.401 66.9272 158.967 60.4961C152.533 54.065 144.895 48.9652 136.489 45.4882C128.083 42.0112 119.074 40.2253 109.978 40.2325Z" fill="white"/>
</g>
<defs>
<clipPath id="clip0_2_19331">
<rect width="220" height="220" fill="white" transform="translate(0.5)"/>
</clipPath>
</defs>
</svg>
