<svg width="221" height="220" viewBox="0 0 221 220" fill="none" xmlns="http://www.w3.org/2000/svg">
<g clip-path="url(#clip0_2_19327)">
<path d="M110.5 220C171.251 220 220.5 170.751 220.5 110C220.5 49.2487 171.251 0 110.5 0C49.7487 0 0.5 49.2487 0.5 110C0.5 170.751 49.7487 220 110.5 220Z" fill="#B80000"/>
<path d="M178.515 78.2856C179.587 80.1075 179.443 82.0187 178.377 83.8887C176.782 86.4325 175.311 89.0244 173.791 91.5887C169.625 98.7112 165.459 105.834 161.279 112.956C152.936 127.128 144.585 141.295 136.226 155.458C135.758 156.328 135.047 157.043 134.178 157.515C133.31 157.988 132.323 158.197 131.338 158.118C129.228 158.022 127.729 156.977 126.732 155.155C125.708 153.333 124.642 151.532 123.57 149.717C120.063 143.722 116.543 137.741 113.03 131.766C112.246 130.412 111.442 129.085 110.541 127.586C109.661 129.078 108.83 130.405 108.046 131.766L97.5065 149.71C96.4299 151.512 95.3756 153.327 94.344 155.155C93.3471 156.977 91.8552 158.022 89.7377 158.118C88.7533 158.192 87.7684 157.98 86.9014 157.508C86.0343 157.037 85.3219 156.324 84.8496 155.458C80.8827 148.782 76.964 142.106 73.0246 135.403C68.6003 127.93 64.1912 120.447 59.7971 112.956C55.6377 105.834 51.4646 98.7112 47.2846 91.5887C45.7721 89.0244 44.2733 86.4325 42.7058 83.8887C41.5646 82.0187 41.3996 80.1075 42.4652 78.2856C43.5102 76.4913 45.1946 75.625 47.3602 75.625C60.8902 75.6731 74.4271 75.7625 87.9571 75.6456C91.374 75.625 93.4158 76.9313 95.0108 79.7775C98.4277 85.8756 102.065 91.8225 105.578 97.8519C107.049 100.396 108.5 102.96 109.991 105.504C110.108 105.689 110.301 105.834 110.473 105.992C110.656 105.861 110.815 105.698 110.94 105.511C112.418 102.967 113.862 100.396 115.361 97.8519C118.895 91.8225 122.511 85.8481 125.928 79.7775C127.516 76.9313 129.558 75.625 132.975 75.6525C146.511 75.7625 160.041 75.6731 173.578 75.625C175.785 75.625 177.47 76.4913 178.515 78.2856ZM103.969 117.851C104.101 117.571 104.172 117.266 104.175 116.956C104.179 116.647 104.115 116.34 103.99 116.057C103.302 114.654 102.395 113.328 101.59 111.946C96.7502 103.682 91.9033 95.4456 87.084 87.1613C86.589 86.3156 86.0183 86.0131 85.0215 86.0131C76.0015 86.0612 66.9746 86.0612 57.9546 86.0819C57.5283 86.0819 57.1021 86.1506 56.4833 86.1988C67.4971 104.988 78.4146 123.64 89.4627 142.478C90.4115 140.896 91.2158 139.631 91.979 138.325C96.0077 131.519 100.002 124.692 103.969 117.851ZM131.538 142.478C142.572 123.64 153.496 104.988 164.538 86.1988C163.898 86.1506 163.493 86.0819 163.066 86.0819C154.04 86.0612 145.02 86.0612 136 86.0131C135.003 86.0131 134.432 86.3156 133.937 87.1544C129.108 95.4217 124.272 103.685 119.431 111.946C118.62 113.3 117.74 114.627 117.025 116.057C116.896 116.338 116.829 116.644 116.829 116.954C116.829 117.264 116.896 117.57 117.025 117.851C121.012 124.685 125.006 131.512 129.021 138.325C129.778 139.631 130.589 140.917 131.538 142.478Z" fill="white"/>
</g>
<defs>
<clipPath id="clip0_2_19327">
<rect width="220" height="220" fill="white" transform="translate(0.5)"/>
</clipPath>
</defs>
</svg>
