<svg width="221" height="220" viewBox="0 0 221 220" fill="none" xmlns="http://www.w3.org/2000/svg">
<g clip-path="url(#clip0_2_19321)">
<path d="M110.5 220C171.251 220 220.5 170.751 220.5 110C220.5 49.2487 171.251 0 110.5 0C49.7487 0 0.5 49.2487 0.5 110C0.5 170.751 49.7487 220 110.5 220Z" fill="#5783CB"/>
<path d="M105.275 27.5H113.8C132.415 28.396 150.126 35.7919 163.85 48.4C166.187 49.9125 166.188 53.625 163.438 54.5875C161.1 55.1375 159.312 53.075 157.525 51.8375C142.329 40.265 123.239 35.0316 104.266 37.2366C85.2927 39.4416 67.9122 48.9134 55.775 63.6625C45.8647 75.8511 40.2009 90.9399 39.643 106.639C39.0851 122.338 43.6635 137.791 52.6836 150.652C61.7037 163.514 74.673 173.082 89.6235 177.904C104.574 182.727 120.69 182.541 135.525 177.375C147.66 173.175 158.498 165.9 166.981 156.26C175.464 146.62 181.302 134.945 183.925 122.375C185.135 117.363 185.919 112.255 186.262 107.113C186.351 106.359 186.731 105.67 187.321 105.194C187.911 104.717 188.664 104.49 189.419 104.562C190.174 104.634 190.871 104.999 191.361 105.578C191.85 106.158 192.093 106.906 192.037 107.662L191.762 116.188C190.693 136.07 182.262 154.842 168.112 168.85C153.764 183.074 134.667 191.497 114.487 192.5H106.375C85.8769 191.464 66.4979 182.837 52.0105 168.299C37.5231 153.761 28.9642 134.352 28 113.85V106.15C28.9997 85.847 37.423 66.6186 51.6695 52.1187C65.916 37.6187 84.9928 28.8575 105.275 27.5Z" fill="white"/>
<path d="M172.375 70.2633C177.875 64.2133 189.288 67.5133 190.525 75.6258C192.313 82.9133 185.3 89.1008 178.15 88.5508C168.663 98.1758 161.1 109.588 154.638 121.551C152.025 125.126 155.325 129.801 153.263 133.513C150.788 140.801 140.063 142.313 135.388 136.263C131.95 132.413 132.913 127.051 134.7 122.788C132.083 117.357 128.6 112.388 124.388 108.076L120.263 108.213C111.233 118.164 103.768 129.431 98.1252 141.626C99.0877 145.338 99.7752 149.738 97.1627 153.038C93.7252 158.676 84.6502 159.226 80.3877 154.001C77.2252 150.426 77.6377 145.338 79.2877 141.076C74.5408 128.167 67.7639 116.098 59.2127 105.326C53.8502 105.051 48.2127 101.888 47.5252 96.2508C45.7377 88.5508 54.5377 81.1258 61.8252 84.5633C68.2877 86.9008 70.0752 95.1508 66.9127 100.788C72.1072 113.972 79.3969 126.229 88.5002 137.088C98.3955 127.28 106.452 115.777 112.288 103.126C111.188 99.4133 110.5 95.1508 112.975 91.7133C116.688 85.6633 126.588 85.5258 130.438 91.5758C133.325 95.2883 132.363 100.238 130.713 104.226C133.265 109.668 136.652 114.678 140.75 119.076L144.875 118.801C154.913 108.213 164.125 96.5258 170.313 83.1883C169.625 78.7883 168.8 73.5633 172.513 70.2633H172.375Z" fill="white"/>
</g>
<defs>
<clipPath id="clip0_2_19321">
<rect width="220" height="220" fill="white" transform="translate(0.5)"/>
</clipPath>
</defs>
</svg>
