<svg width="221" height="220" viewBox="0 0 221 220" fill="none" xmlns="http://www.w3.org/2000/svg">
<g clip-path="url(#clip0_2_19314)">
<path d="M110.5 220C171.251 220 220.5 170.751 220.5 110C220.5 49.2487 171.251 0 110.5 0C49.7487 0 0.5 49.2487 0.5 110C0.5 170.751 49.7487 220 110.5 220Z" fill="#0DC9F7"/>
<path d="M130.464 108.204L109.53 124.457L100.957 94.7224L51.292 81.4193L116.474 84.7674L130.464 108.204Z" fill="white" fill-opacity="0.305"/>
<path d="M57.3564 164.952L169.529 77.8942L179.25 99.523L166.497 95.9961L166.05 118.436L57.3564 164.952Z" fill="white" fill-opacity="0.7"/>
<path d="M157.223 122.238L124.587 66.1306L41.75 61.875L104.883 78.7944L122.002 137.163L157.223 122.238Z" fill="white"/>
</g>
<defs>
<clipPath id="clip0_2_19314">
<rect width="220" height="220" fill="white" transform="translate(0.5)"/>
</clipPath>
</defs>
</svg>
