<svg width="221" height="220" viewBox="0 0 221 220" fill="none" xmlns="http://www.w3.org/2000/svg">
<g clip-path="url(#clip0_2_19310)">
<path d="M110.5 220C171.251 220 220.5 170.751 220.5 110C220.5 49.2487 171.251 0 110.5 0C49.7487 0 0.5 49.2487 0.5 110C0.5 170.751 49.7487 220 110.5 220Z" fill="#FFE600"/>
<path fill-rule="evenodd" clip-rule="evenodd" d="M27.9521 37.2941C33.3916 31.1226 39.5023 25.5769 46.1709 20.7598L76.7784 130.196L90.3428 72.1848H116.055L129.613 130.196L145.68 72.1848H171.454L171.695 73.216L199.703 174.375C194.627 181.399 188.743 187.802 182.172 193.453L158.543 108.134L145.068 156.795L144.827 157.827H116.048L103.199 110.169L90.3428 157.827H61.564L61.3234 156.795L27.9521 37.2941Z" fill="white"/>
</g>
<defs>
<clipPath id="clip0_2_19310">
<rect width="220" height="220" fill="white" transform="translate(0.5)"/>
</clipPath>
</defs>
</svg>
