<svg width="221" height="220" viewBox="0 0 221 220" fill="none" xmlns="http://www.w3.org/2000/svg">
<g clip-path="url(#clip0_2_19305)">
<path d="M110.5 220C171.251 220 220.5 170.751 220.5 110C220.5 49.2487 171.251 0 110.5 0C49.7487 0 0.5 49.2487 0.5 110C0.5 170.751 49.7487 220 110.5 220Z" fill="#8200FF"/>
<path fill-rule="evenodd" clip-rule="evenodd" d="M127.096 90.5166L122.421 91.6647C118.2 92.696 115.244 96.4085 115.244 100.671V131.87L99.7956 135.651C98.5853 135.957 97.3031 135.773 96.2272 135.14C95.1513 134.507 94.3683 133.475 94.0481 132.268C93.9554 131.9 93.9092 131.521 93.9106 131.141V79.2004C93.9106 77.0691 95.3888 75.2129 97.4994 74.6904L121.204 68.8879C122.415 68.5819 123.697 68.7655 124.773 69.3987C125.849 70.0319 126.632 71.0637 126.952 72.2704C127.048 72.6347 127.089 73.0129 127.089 73.391V90.5166H127.096ZM74.9425 90.2279L69.085 91.6647C64.8637 92.696 61.9006 96.4085 61.9006 100.671V132.158L47.6419 135.651C46.4315 135.957 45.1494 135.773 44.0734 135.14C42.9975 134.507 42.2146 133.475 41.8944 132.268C41.7993 131.9 41.7508 131.521 41.75 131.141V79.2004C41.75 77.0691 43.2281 75.2129 45.3387 74.6904L69.0506 68.8879C70.261 68.5819 71.5432 68.7655 72.6191 69.3987C73.695 70.0319 74.4779 71.0637 74.7981 72.2704C74.8944 72.6347 74.9356 73.0129 74.9356 73.391V90.2347L74.9425 90.2279ZM149.653 74.8347L173.358 69.0322C174.568 68.7261 175.849 68.9087 176.925 69.5405C178 70.1723 178.784 71.2025 179.106 72.4079C179.201 72.7761 179.25 73.1549 179.25 73.5354V125.483C179.25 127.614 177.772 129.47 175.661 129.986L151.949 135.788C150.74 136.095 149.459 135.912 148.383 135.28C147.307 134.648 146.524 133.618 146.202 132.413C146.109 132.044 146.063 131.665 146.064 131.285V79.3379C146.064 77.2066 147.542 75.3504 149.653 74.8347Z" fill="white"/>
<path opacity="0.504" fill-rule="evenodd" clip-rule="evenodd" d="M89.1671 91.5364V131.143C89.1671 131.9 89.2564 132.656 89.4421 133.398C90.0348 135.621 91.4151 137.553 93.3261 138.834C95.2372 140.116 97.5486 140.659 99.8302 140.363V146.818C99.8302 148.95 98.3521 150.806 96.2414 151.321L72.5364 157.124C71.326 157.432 70.0429 157.251 68.9656 156.619C67.8883 155.987 67.1037 154.955 66.7821 153.748C66.6893 153.38 66.6431 153.001 66.6446 152.621V100.673C66.6446 98.5421 68.1227 96.6858 70.2333 96.1702L89.1671 91.5364ZM141.321 91.8252V131.288C141.321 132.044 141.417 132.8 141.596 133.543C142.875 138.513 148.024 141.538 153.105 140.294L153.173 140.28V146.811C153.165 147.856 152.807 148.868 152.157 149.685C151.506 150.503 150.601 151.079 149.585 151.321L125.873 157.124C124.663 157.43 123.382 157.247 122.306 156.616C121.23 155.984 120.447 154.954 120.125 153.748C120.032 153.38 119.986 153.001 119.988 152.621V100.673C119.988 98.5421 121.466 96.6858 123.576 96.1702L141.314 91.8252H141.321Z" fill="white"/>
</g>
<defs>
<clipPath id="clip0_2_19305">
<rect width="220" height="220" fill="white" transform="translate(0.5)"/>
</clipPath>
</defs>
</svg>
