<svg width="221" height="220" viewBox="0 0 221 220" fill="none" xmlns="http://www.w3.org/2000/svg">
<g clip-path="url(#clip0_2_19298)">
<path d="M110.5 220C171.251 220 220.5 170.751 220.5 110C220.5 49.2487 171.251 0 110.5 0C49.7487 0 0.5 49.2487 0.5 110C0.5 170.751 49.7487 220 110.5 220Z" fill="#3B5998"/>
<path fill-rule="evenodd" clip-rule="evenodd" d="M97.5469 41.3174H110.472V81.7561L97.5469 68.2605V41.3174Z" fill="white"/>
<path fill-rule="evenodd" clip-rule="evenodd" d="M41.8252 54.953H75.8496C87.379 67.0186 98.9565 79.0636 110.486 91.1567C117.161 84.2199 123.816 77.2349 130.465 70.2774C135.38 65.183 140.275 60.0611 145.177 54.9461H179.119C163.279 70.9649 147.46 86.9974 131.613 103.002C129.949 104.673 128.278 106.357 126.649 108.049C127.048 108.475 127.474 108.894 127.831 109.348L174.382 156.414L179.133 161.199H152.801C152.121 161.199 151.44 161.24 150.773 161.151C148.896 161.096 147.013 161.179 145.136 161.11C141.733 157.597 138.371 154.035 134.968 150.509C128.278 143.551 121.616 136.552 114.927 129.581C113.442 128.041 111.991 126.46 110.472 124.961C107.241 128.399 103.927 131.788 100.675 135.225L82.2709 154.434C80.1259 156.669 78.0084 158.917 75.8496 161.11C73.9934 161.165 72.1234 161.11 70.2534 161.137C69.1877 161.268 68.1084 161.179 67.0427 161.206H41.8184L91.7859 110.675C92.6452 109.809 93.4977 108.935 94.3296 108.049L41.8184 54.953H41.8252Z" fill="white"/>
<path fill-rule="evenodd" clip-rule="evenodd" d="M110.5 134.277C114.804 138.835 119.163 143.345 123.48 147.89C123.508 156.875 123.48 165.847 123.48 174.84H110.486C110.486 161.316 110.486 147.8 110.514 134.277H110.5Z" fill="white"/>
</g>
<defs>
<clipPath id="clip0_2_19298">
<rect width="220" height="220" fill="white" transform="translate(0.5)"/>
</clipPath>
</defs>
</svg>
