<svg width="221" height="220" viewBox="0 0 221 220" fill="none" xmlns="http://www.w3.org/2000/svg">
<g clip-path="url(#clip0_2_19294)">
<path d="M110.5 220C171.251 220 220.5 170.751 220.5 110C220.5 49.2487 171.251 0 110.5 0C49.7487 0 0.5 49.2487 0.5 110C0.5 170.751 49.7487 220 110.5 220Z" fill="#FAA00D"/>
<path d="M179.195 99.4881L114.096 175.182L111.174 178.75L41.7981 100.251L42.0181 100.162L41.75 100.121L68.7137 55.0412L68.7275 55.055L68.7137 55H152.96L152.946 55.0481L179.25 99.4813L179.195 99.4881ZM88.885 102.644L73.9662 127.903L110.761 169.923L147.632 127.559L133.043 102.568L88.885 102.644ZM69.7863 123.131L81.8863 102.651L51.8975 102.699L69.7863 123.131ZM136.632 96.69L170.691 96.635L149.309 60.83L115.746 60.8987L136.632 96.69ZM169.433 102.506L140.056 102.554L151.832 122.732L169.433 102.506ZM129.619 96.7038L111.119 64.9963L92.35 96.7588L129.619 96.7038ZM71.8762 60.995L50.5638 96.8344L85.3512 96.7725L106.526 60.9263L71.8762 60.995Z" fill="white"/>
</g>
<defs>
<clipPath id="clip0_2_19294">
<rect width="220" height="220" fill="white" transform="translate(0.5)"/>
</clipPath>
</defs>
</svg>
