<svg width="221" height="220" viewBox="0 0 221 220" fill="none" xmlns="http://www.w3.org/2000/svg">
<g clip-path="url(#clip0_2_19290)">
<path d="M110.5 220C171.251 220 220.5 170.751 220.5 110C220.5 49.2487 171.251 0 110.5 0C49.7487 0 0.5 49.2487 0.5 110C0.5 170.751 49.7487 220 110.5 220Z" fill="#F7931A"/>
<path d="M179.092 135.809L175.345 150.817L165.342 148.329L169.082 133.314L154.073 129.574L156.569 119.57L171.577 123.31L175.324 108.302L185.327 110.798L181.587 125.806L196.595 129.546L194.1 139.556L179.092 135.809ZM142.193 94.6004C140.798 103.882 135.738 108.392 129.048 110C138.199 114.834 142.833 122.286 138.316 135.28C132.706 151.415 119.575 152.845 102.14 149.58L97.8085 166.919L87.5922 164.375L91.8616 147.256C89.1406 146.583 86.4271 145.879 83.7216 145.145L79.4316 162.333L69.2291 159.789L73.5604 142.409C71.1679 141.797 68.7479 141.151 66.2729 140.532L52.9697 137.212L58.1122 125.235C58.1122 125.235 65.6404 127.236 65.5372 127.092C68.4385 127.8 69.731 125.868 70.2466 124.582L77.0804 97.1648L78.1666 97.4329C77.8196 97.2944 77.4635 97.1796 77.101 97.0892L81.9822 77.516C82.1197 75.2954 81.3841 72.5042 77.2385 71.466C77.4035 71.3629 69.8204 69.6235 69.8204 69.6235L72.6047 58.4585L86.6985 61.9785L86.6847 62.0267C88.8022 62.556 90.9885 63.0579 93.216 63.5598L97.4991 46.386L107.715 48.9298L103.515 65.7735C106.258 66.3923 109.015 67.0248 111.696 67.6985L115.869 50.9717L126.092 53.5154L121.809 70.696C134.707 75.1648 144.118 81.9229 142.193 94.6004ZM118.633 128.185C122.008 114.641 99.7816 111.272 92.8516 109.54L87.1247 132.55C94.0547 134.269 115.415 141.165 118.647 128.178L118.633 128.185ZM121.981 94.5248C125.047 82.1979 106.457 79.5579 100.689 78.121L95.4847 99.0004C101.253 100.444 119.032 106.336 121.981 94.5248Z" fill="white"/>
</g>
<defs>
<clipPath id="clip0_2_19290">
<rect width="220" height="220" fill="white" transform="translate(0.5)"/>
</clipPath>
</defs>
</svg>
