<svg width="221" height="220" viewBox="0 0 221 220" fill="none" xmlns="http://www.w3.org/2000/svg">
<g clip-path="url(#clip0_2_19286)">
<path d="M110.5 220C171.251 220 220.5 170.751 220.5 110C220.5 49.2487 171.251 0 110.5 0C49.7487 0 0.5 49.2487 0.5 110C0.5 170.751 49.7487 220 110.5 220Z" fill="#21AF67"/>
<path d="M110.5 192.5C64.9394 192.5 28 155.561 28 110C28 64.4394 64.9394 27.5 110.5 27.5C156.061 27.5 193 64.4394 193 110C193 155.561 156.061 192.5 110.5 192.5ZM142.214 80.1006C141.004 78.4506 139.031 77.11 136.323 76.065C133.621 75.0269 129.901 74.5044 125.185 74.5044H115.216L123.308 52.2638L128.705 37.4344C123.282 36.0813 117.724 35.341 112.136 35.2275C111.586 35.2275 111.036 35.1863 110.486 35.1863C109.643 35.1919 108.799 35.2148 107.956 35.255C67.8819 36.5887 35.6863 69.5888 35.6863 110C35.6863 131.539 44.9813 152.027 61.1925 166.196L67.0569 150.074C56.9543 139.175 51.3432 124.861 51.3475 110C51.3475 80.245 73.43 55.5706 102.064 51.4594C103.481 51.2531 104.945 51.1156 106.396 50.9919L84.7944 110.351L127.894 106.109C127.872 106.098 127.849 106.088 127.825 106.081C129.166 105.648 130.451 105.077 131.675 104.363C134.821 102.557 137.588 100.16 139.822 97.3019C141.046 95.7206 142.022 93.9469 142.696 92.0563C143.452 90.035 143.885 87.9037 143.974 85.7519C144.06 83.7212 143.438 81.7239 142.214 80.1006ZM123.831 94.5725C122.889 97.13 121.424 98.9313 119.396 99.9694C117.497 100.981 115.381 101.519 113.229 101.537H105.461L110.672 87.2094H118.441C119.369 87.2094 120.297 87.3263 121.191 87.5669C122.009 87.7606 122.766 88.1578 123.391 88.7219C123.999 89.3278 124.368 90.1338 124.429 90.9906C124.507 92.2147 124.303 93.4404 123.831 94.5725ZM132.5 38.4862L127.131 53.2469C134.861 55.5066 142.048 59.3211 148.252 64.4568C154.455 69.5924 159.545 75.9409 163.208 83.1131C166.871 90.2853 169.031 98.1302 169.556 106.167C170.08 114.203 168.957 122.262 166.257 129.849C163.556 137.437 159.335 144.393 153.851 150.291C148.367 156.189 141.736 160.905 134.365 164.149C126.994 167.394 119.038 169.099 110.984 169.161C102.931 169.222 94.9501 167.637 87.5306 164.505C86.3232 163.987 85.1332 163.43 83.9625 162.834L90.095 146.025H100.05C109.07 146.025 116.467 144.499 122.256 141.433C128.038 138.373 132.156 133.485 134.611 126.761C135.511 124.272 135.848 122.086 135.58 120.202C135.383 118.488 134.815 116.836 133.916 115.363C133.109 114.069 132.03 112.967 130.754 112.131C129.755 111.484 128.696 110.936 127.591 110.495L84.1 114.785L70.1094 153.154L64.4031 168.857C69.8219 173.11 75.7995 176.599 82.1681 179.224C91.1537 182.923 100.779 184.821 110.5 184.814C151.75 184.814 185.314 151.257 185.314 110C185.314 76.4019 163.053 47.905 132.5 38.4862ZM100.6 117.377H109.675C110.761 117.384 111.841 117.487 112.906 117.686C113.938 117.851 114.934 118.229 115.821 118.786C116.646 119.35 117.238 120.189 117.485 121.151C117.774 122.189 117.623 123.551 117.011 125.235C116.469 126.849 115.588 128.329 114.426 129.573C113.449 130.584 112.294 131.402 111.016 131.993C109.837 132.527 108.586 132.884 107.303 133.052C106.171 133.209 105.029 133.292 103.886 133.299H94.7906L100.6 117.377Z" fill="white"/>
</g>
<defs>
<clipPath id="clip0_2_19286">
<rect width="220" height="220" fill="white" transform="translate(0.5)"/>
</clipPath>
</defs>
</svg>
