<svg width="221" height="220" viewBox="0 0 221 220" fill="none" xmlns="http://www.w3.org/2000/svg">
<g clip-path="url(#clip0_2_19282)">
<path d="M110.5 220C171.251 220 220.5 170.751 220.5 110C220.5 49.2487 171.251 0 110.5 0C49.7487 0 0.5 49.2487 0.5 110C0.5 170.751 49.7487 220 110.5 220Z" fill="#56F4F1"/>
<path d="M41.75 61.985C41.75 61.8819 43.1938 61.875 61.8113 61.8887L81.8794 61.9094L93.2919 81.1113L104.897 100.643L105.089 100.966L106.904 97.8725C107.894 96.1675 108.706 94.7444 108.692 94.7031C108.678 94.6619 104.312 87.2919 98.9981 78.3406C93.6837 69.3894 89.3319 62.0263 89.3319 61.9781C89.3319 61.8888 92.35 61.875 110.459 61.875C122.188 61.875 131.579 61.9025 131.579 61.9438C131.579 62.0813 86.7881 138.236 86.685 138.256C86.6094 138.27 80.0575 127.201 64.1625 100.189C51.8356 79.2413 41.75 62.0537 41.75 61.985ZM138.962 61.9231C138.962 61.8956 148.037 61.875 159.113 61.875H179.25L179.223 62.0263C179.202 62.1156 169.164 79.2206 156.92 100.038C142.077 125.249 134.604 137.892 134.508 137.906C134.418 137.919 132.314 134.42 125.261 122.547C120.228 114.091 116.096 107.147 116.069 107.133C116.014 107.099 112.404 113.224 112.432 113.307C112.439 113.341 116.584 120.319 121.631 128.817C124.732 133.976 127.78 139.167 130.774 144.389C130.712 144.629 110.589 178.729 110.507 178.75C110.376 178.777 90.37 144.787 90.4113 144.616C90.4456 144.54 138.22 63.1469 138.956 61.9231H138.962Z" fill="white"/>
</g>
<defs>
<clipPath id="clip0_2_19282">
<rect width="220" height="220" fill="white" transform="translate(0.5)"/>
</clipPath>
</defs>
</svg>
