<svg width="221" height="220" viewBox="0 0 221 220" fill="none" xmlns="http://www.w3.org/2000/svg">
<g clip-path="url(#clip0_2_19267)">
<path d="M110.5 220C171.251 220 220.5 170.751 220.5 110C220.5 49.2487 171.251 0 110.5 0C49.7487 0 0.5 49.2487 0.5 110C0.5 170.751 49.7487 220 110.5 220Z" fill="#FFCE47"/>
<path d="M152.5 149.45H68.5002C68.2189 149.452 67.94 149.398 67.6802 149.29C67.4206 149.187 67.1855 149.03 66.9902 148.83C66.7933 148.632 66.637 148.398 66.5302 148.14C66.4225 147.88 66.3681 147.601 66.3702 147.32V73.56C66.3728 67.658 68.7192 61.9987 72.8935 57.8263C77.0678 53.6539 82.7282 51.31 88.6302 51.31H132.39C138.29 51.3126 143.948 53.6577 148.12 57.8298C152.292 62.0019 154.638 67.6597 154.64 73.56V147.32C154.643 147.601 154.589 147.88 154.48 148.14C154.262 148.665 153.845 149.082 153.32 149.3C153.06 149.405 152.781 149.456 152.5 149.45ZM70.6202 145.2H150.37V73.56C150.37 68.7861 148.474 64.2077 145.098 60.8321C141.722 57.4564 137.144 55.56 132.37 55.56H88.6202C83.8463 55.56 79.2679 57.4564 75.8922 60.8321C72.5166 64.2077 70.6202 68.7861 70.6202 73.56V145.2Z" fill="#32407B"/>
<path d="M88.0099 136.25C85.9589 136.255 83.9698 135.548 82.382 134.249C80.7941 132.951 79.7058 131.142 79.3027 129.131C78.8996 127.121 79.2066 125.032 80.1715 123.222C81.1363 121.412 82.6991 119.993 84.5934 119.207C86.4877 118.421 88.596 118.316 90.5589 118.911C92.5218 119.505 94.2175 120.763 95.3569 122.468C96.4963 124.173 97.0088 126.221 96.8069 128.262C96.605 130.303 95.7013 132.211 94.2498 133.66C92.5954 135.316 90.351 136.248 88.0099 136.25ZM88.0099 122.83C87.1025 122.83 86.2153 123.097 85.4598 123.6C84.708 124.108 84.1207 124.823 83.7698 125.66C83.4222 126.499 83.3316 127.422 83.5097 128.312C83.6877 129.202 84.1264 130.02 84.7698 130.66C85.3034 131.19 85.9593 131.58 86.6794 131.796C87.3996 132.013 88.162 132.048 88.8992 131.9C89.6364 131.752 90.3258 131.425 90.9065 130.947C91.4872 130.469 91.9414 129.856 92.2289 129.161C92.5164 128.466 92.6284 127.711 92.555 126.963C92.4817 126.215 92.2251 125.496 91.8082 124.87C91.3912 124.244 90.8265 123.731 90.1641 123.375C89.5017 123.019 88.7618 122.832 88.0099 122.83Z" fill="#32407B"/>
<path d="M132.98 136.25C130.935 136.25 128.953 135.542 127.372 134.244C125.791 132.947 124.708 131.142 124.309 129.136C123.909 127.13 124.218 125.048 125.182 123.244C126.146 121.44 127.705 120.026 129.594 119.243C131.484 118.46 133.586 118.357 135.544 118.95C137.501 119.544 139.192 120.797 140.328 122.498C141.465 124.198 141.976 126.24 141.776 128.275C141.576 130.311 140.676 132.214 139.23 133.66C138.41 134.481 137.436 135.133 136.363 135.577C135.291 136.022 134.141 136.25 132.98 136.25ZM132.98 122.83C132.076 122.832 131.193 123.099 130.44 123.6C129.688 124.105 129.102 124.821 128.757 125.658C128.411 126.495 128.32 127.416 128.497 128.305C128.673 129.193 129.108 130.01 129.748 130.651C130.387 131.293 131.202 131.731 132.09 131.91C132.979 132.086 133.899 131.995 134.736 131.648C135.573 131.301 136.288 130.713 136.79 129.96C137.253 129.27 137.519 128.468 137.56 127.638C137.602 126.809 137.417 125.984 137.025 125.251C136.634 124.519 136.051 123.907 135.338 123.48C134.626 123.054 133.811 122.829 132.98 122.83Z" fill="#32407B"/>
<path d="M123.27 67H97.7195C97.441 67.0003 97.1652 66.9456 96.9078 66.8392C96.6505 66.7329 96.4166 66.5768 96.2195 66.38C96.0224 66.1831 95.866 65.9493 95.7593 65.6919C95.6526 65.4345 95.5977 65.1586 95.5977 64.88C95.5977 64.6014 95.6526 64.3255 95.7593 64.0681C95.866 63.8107 96.0224 63.5769 96.2195 63.38C96.4166 63.1832 96.6505 63.0272 96.9078 62.9208C97.1652 62.8144 97.441 62.7598 97.7195 62.76H123.27C123.834 62.76 124.376 62.9844 124.776 63.3839C125.175 63.7833 125.4 64.3251 125.4 64.89C125.4 65.4549 125.175 65.9967 124.776 66.3962C124.376 66.7956 123.834 67.02 123.27 67.02V67Z" fill="#32407B"/>
<path d="M151.29 169.88C150.942 169.885 150.598 169.802 150.29 169.64C149.98 169.493 149.709 169.273 149.5 169L136 149.73C135.842 149.5 135.73 149.242 135.67 148.97C135.615 148.696 135.615 148.414 135.67 148.14C135.714 147.862 135.816 147.596 135.97 147.36C136.12 147.125 136.313 146.922 136.54 146.76C136.77 146.602 137.028 146.49 137.3 146.43C137.574 146.37 137.857 146.37 138.13 146.43C138.403 146.475 138.665 146.574 138.9 146.72C139.137 146.871 139.342 147.068 139.5 147.3L153.05 166.55C153.272 166.869 153.403 167.242 153.43 167.63C153.468 168.024 153.394 168.42 153.217 168.773C153.04 169.127 152.767 169.424 152.43 169.63C152.099 169.832 151.718 169.939 151.33 169.94L151.29 169.88Z" fill="#32407B"/>
<path d="M69.7102 169.88C69.3189 169.879 68.9352 169.772 68.6001 169.57C68.2676 169.367 67.9977 169.077 67.8202 168.73C67.6427 168.384 67.5599 167.998 67.5802 167.61C67.608 167.218 67.7429 166.841 67.9702 166.52L81.5002 147.28C81.6581 147.042 81.8621 146.838 82.1002 146.68C82.3345 146.519 82.6004 146.41 82.8801 146.36C83.1598 146.306 83.4475 146.309 83.726 146.369C84.0044 146.429 84.2677 146.545 84.5002 146.71C84.7325 146.872 84.9298 147.08 85.0802 147.32C85.2312 147.565 85.3331 147.836 85.3801 148.12C85.4349 148.397 85.4349 148.683 85.3801 148.96C85.3181 149.237 85.1951 149.497 85.0201 149.72L71.5002 169C71.3018 169.279 71.0417 169.508 70.7401 169.67C70.4199 169.825 70.0657 169.898 69.7102 169.88Z" fill="#32407B"/>
<path d="M73.0603 165.11C72.6722 165.109 72.2917 165.002 71.9603 164.8C71.6224 164.601 71.3483 164.309 71.1703 163.96C70.994 163.614 70.9145 163.227 70.9403 162.84C70.9694 162.453 71.1005 162.08 71.3203 161.76L81.5003 147.28C81.6583 147.042 81.8623 146.838 82.1003 146.68C82.3388 146.527 82.6031 146.419 82.8803 146.36C83.4452 146.266 84.0245 146.391 84.5003 146.71C84.7308 146.879 84.9275 147.089 85.0803 147.33C85.2297 147.572 85.3316 147.84 85.3803 148.12C85.4644 148.688 85.3206 149.267 84.9803 149.73L74.8003 164.21C74.6074 164.491 74.3458 164.718 74.0403 164.87C73.7381 165.029 73.4017 165.111 73.0603 165.11Z" fill="#32407B"/>
<path d="M152.5 83.28H68.5001C68.2136 83.289 67.9282 83.2414 67.6601 83.14C67.1397 82.9256 66.7234 82.5166 66.5001 82C66.3891 81.7338 66.3314 81.4484 66.3301 81.16C66.3314 80.8748 66.3892 80.5927 66.5001 80.33C66.614 80.0682 66.7769 79.8306 66.9801 79.63C67.1866 79.4321 67.4317 79.2789 67.7001 79.18C67.9514 79.0654 68.2238 79.0041 68.5001 79H152.5C152.788 78.989 153.074 79.0402 153.34 79.15C153.606 79.248 153.848 79.4014 154.05 79.6C154.256 79.8002 154.423 80.0378 154.54 80.3C154.648 80.5634 154.702 80.8455 154.7 81.13C154.694 81.4306 154.625 81.7267 154.5 82C154.385 82.2606 154.218 82.4953 154.01 82.69C153.809 82.8922 153.567 83.049 153.3 83.15C153.044 83.243 152.773 83.2871 152.5 83.28Z" fill="#32407B"/>
<path d="M152.5 110.23H68.5C68.213 110.249 67.9254 110.201 67.66 110.09C67.3917 109.991 67.1465 109.838 66.94 109.64C66.7369 109.439 66.574 109.202 66.46 108.94C66.3491 108.677 66.2914 108.395 66.29 108.11C66.2914 107.822 66.3491 107.536 66.46 107.27C66.5703 107.006 66.7337 106.768 66.9402 106.57C67.1466 106.372 67.3917 106.219 67.66 106.12C67.9295 106.025 68.2149 105.985 68.5 106H152.5C152.787 105.991 153.072 106.039 153.34 106.14C153.605 106.241 153.846 106.394 154.05 106.59C154.256 106.79 154.422 107.028 154.54 107.29C154.648 107.557 154.702 107.842 154.7 108.13C154.702 108.415 154.648 108.697 154.54 108.96C154.422 109.222 154.256 109.46 154.05 109.66C153.848 109.859 153.606 110.012 153.34 110.11C153.073 110.214 152.786 110.255 152.5 110.23Z" fill="#32407B"/>
<path d="M88.0104 110.23C87.6035 110.231 87.205 110.115 86.8614 109.897C86.5178 109.679 86.2434 109.368 86.0704 109C85.9072 108.626 85.8518 108.214 85.9104 107.81C85.9698 107.406 86.1432 107.028 86.4104 106.72L96.1204 95.66C96.4025 95.3615 96.765 95.1509 97.1641 95.0537C97.5632 94.9565 97.9819 94.9767 98.3697 95.112C98.7576 95.2473 99.098 95.4918 99.3501 95.8161C99.6021 96.1404 99.755 96.5307 99.7904 96.94C99.8402 97.4888 99.6713 98.0351 99.3204 98.46L89.6104 109.53C89.4136 109.761 89.168 109.945 88.8913 110.07C88.6146 110.194 88.3137 110.256 88.0104 110.25V110.23Z" fill="#32407B"/>
<path d="M100.78 110.23C100.371 110.237 99.9694 110.118 99.6298 109.89C99.284 109.671 99.0098 109.355 98.841 108.982C98.6722 108.609 98.6162 108.195 98.6798 107.79C98.7392 107.386 98.9127 107.008 99.1798 106.7L118.6 84.57C118.785 84.3619 119.009 84.1921 119.26 84.07C119.51 83.9469 119.782 83.8755 120.06 83.86C120.34 83.8382 120.622 83.8722 120.89 83.96C121.154 84.0543 121.398 84.1967 121.61 84.38C122.03 84.7538 122.285 85.2787 122.32 85.84C122.342 86.1173 122.308 86.3962 122.22 86.66C122.132 86.9268 121.989 87.1721 121.8 87.38L102.38 109.51C102.183 109.739 101.937 109.92 101.66 110.04C101.384 110.167 101.084 110.232 100.78 110.23Z" fill="#32407B"/>
<path d="M141.21 156.24H79.7901C79.5036 156.249 79.2181 156.201 78.9501 156.1C78.6812 155.997 78.4362 155.841 78.2301 155.64C78.0258 155.44 77.8627 155.202 77.7501 154.94C77.6381 154.678 77.5803 154.395 77.5801 154.11C77.5814 153.825 77.6392 153.543 77.7501 153.28C77.8676 153.02 78.0301 152.783 78.2301 152.58C78.4388 152.382 78.6831 152.226 78.9501 152.12C79.2181 152.019 79.5036 151.971 79.7901 151.98H141.21C141.761 152.005 142.283 152.237 142.67 152.63C142.957 152.926 143.151 153.299 143.23 153.704C143.309 154.109 143.269 154.528 143.114 154.91C142.959 155.292 142.697 155.621 142.359 155.857C142.021 156.093 141.622 156.226 141.21 156.24Z" fill="#32407B"/>
<path d="M147.93 165.11H73.0597C72.4948 165.11 71.953 164.886 71.5536 164.486C71.1541 164.087 70.9297 163.545 70.9297 162.98C70.9297 162.415 71.1541 161.873 71.5536 161.474C71.953 161.074 72.4948 160.85 73.0597 160.85H147.93C148.493 160.855 149.032 161.081 149.43 161.48C149.828 161.878 150.054 162.417 150.06 162.98C150.059 163.261 150.004 163.539 149.895 163.798C149.787 164.057 149.629 164.292 149.43 164.49C149.233 164.688 149 164.844 148.742 164.951C148.484 165.057 148.208 165.111 147.93 165.11Z" fill="#32407B"/>
</g>
<defs>
<clipPath id="clip0_2_19267">
<rect width="220" height="220" fill="white" transform="translate(0.5)"/>
</clipPath>
</defs>
</svg>
