<svg width="221" height="220" viewBox="0 0 221 220" fill="none" xmlns="http://www.w3.org/2000/svg">
<g clip-path="url(#clip0_2_19263)">
<path d="M110.5 220C171.251 220 220.5 170.751 220.5 110C220.5 49.2487 171.251 0 110.5 0C49.7487 0 0.5 49.2487 0.5 110C0.5 170.751 49.7487 220 110.5 220Z" fill="#ED1650"/>
<path fill-rule="evenodd" clip-rule="evenodd" d="M161.925 68.75H134.122C133.559 68.751 133 68.8646 132.481 69.0842C131.961 69.3038 131.491 69.6249 131.097 70.0287L80.3943 121.791C80.0007 122.194 79.5303 122.516 79.0108 122.735C78.4914 122.955 77.9333 123.068 77.3693 123.069H68.0743C67.5104 123.068 66.9523 122.955 66.4328 122.735C65.9134 122.516 65.443 122.194 65.0493 121.791L58.4768 115.094C57.6715 114.274 57.2199 113.171 57.2187 112.021V102.554C57.2188 101.403 57.6705 100.297 58.4768 99.4744L65.0493 92.7781C65.4433 92.3746 65.9137 92.0537 66.4331 91.8341C66.9525 91.6145 67.5104 91.5008 68.0743 91.4994H77.3693C78.5037 91.4994 79.59 91.96 80.3943 92.7781L84.43 96.8894C84.8233 97.2935 85.2936 97.6147 85.8132 97.8341C86.3328 98.0534 86.891 98.1664 87.455 98.1664C88.0189 98.1664 88.5772 98.0534 89.0967 97.8341C89.6163 97.6147 90.0866 97.2935 90.48 96.8894L100.236 86.9619C101.039 86.1377 101.488 85.0325 101.488 83.8819C101.488 82.7312 101.039 81.6261 100.236 80.8019L89.6481 70.0287C89.2542 69.6252 88.7838 69.3043 88.2644 69.0847C87.745 68.8652 87.187 68.7514 86.6231 68.75H58.8206C58.2567 68.7514 57.6987 68.8652 57.1793 69.0847C56.6599 69.3043 56.1895 69.6252 55.7956 70.0287L36.1331 90.0487C35.3293 90.8723 34.8801 91.978 34.8818 93.1287V121.44C34.8818 122.595 35.3356 123.709 36.1331 124.52L55.7956 144.547C56.1901 144.949 56.6607 145.269 57.1801 145.487C57.6995 145.706 58.2572 145.818 58.8206 145.819H86.63C87.1939 145.817 87.7518 145.704 88.2712 145.484C88.7906 145.264 89.2611 144.944 89.655 144.54L140.358 92.785C140.751 92.3802 141.222 92.058 141.741 91.8373C142.26 91.6165 142.819 91.5016 143.383 91.4994H152.678C153.812 91.4994 154.899 91.96 155.703 92.7781L162.276 99.4744C163.082 100.297 163.534 101.403 163.534 102.554V112.021C163.532 113.171 163.08 114.274 162.276 115.094L155.703 121.791C155.309 122.194 154.839 122.516 154.32 122.735C153.8 122.955 153.242 123.068 152.678 123.069H143.383C142.819 123.068 142.261 122.955 141.742 122.735C141.222 122.516 140.752 122.194 140.358 121.791L136.288 117.645C135.898 117.244 135.431 116.924 134.916 116.705C134.401 116.486 133.847 116.371 133.287 116.368C132.728 116.365 132.173 116.473 131.655 116.687C131.138 116.9 130.668 117.214 130.272 117.611L118.241 129.587C117.833 129.996 117.509 130.482 117.288 131.016C117.068 131.551 116.955 132.123 116.956 132.701V160.476C116.956 162.882 118.874 164.835 121.232 164.835H135.257C135.824 164.83 136.384 164.714 136.906 164.493C137.429 164.272 137.902 163.95 138.3 163.546C138.697 163.142 139.012 162.664 139.225 162.138C139.437 161.612 139.544 161.05 139.54 160.483V150.171C139.54 147.764 141.458 145.819 143.816 145.819H161.932C162.495 145.818 163.053 145.706 163.572 145.487C164.092 145.269 164.562 144.949 164.957 144.547L184.619 124.52C185.426 123.698 185.877 122.592 185.877 121.44V93.1287C185.879 91.978 185.43 90.8723 184.626 90.0487L164.964 70.0287C164.57 69.6252 164.099 69.3043 163.58 69.0847C163.061 68.8652 162.503 68.7514 161.939 68.75" fill="white"/>
</g>
<defs>
<clipPath id="clip0_2_19263">
<rect width="220" height="220" fill="white" transform="translate(0.5)"/>
</clipPath>
</defs>
</svg>
