<svg width="221" height="220" viewBox="0 0 221 220" fill="none" xmlns="http://www.w3.org/2000/svg">
<g clip-path="url(#clip0_2_19259)">
<path d="M110.5 220C171.251 220 220.5 170.751 220.5 110C220.5 49.2487 171.251 0 110.5 0C49.7487 0 0.5 49.2487 0.5 110C0.5 170.751 49.7487 220 110.5 220Z" fill="#4F7AA2"/>
<path d="M91.9994 82.5H110.823C119.912 82.5 136.144 88.0206 136.144 110C136.144 131.979 119.919 137.5 110.823 137.5H92.0063L91.9994 82.5ZM102.381 126.362H110.177C116.667 126.362 124.456 122.389 124.456 110C124.456 97.6112 116.667 93.6375 110.177 93.6375H102.387L102.381 126.362ZM143.294 82.5H147.185L182.234 130.804V82.5H186.125V137.5H182.227L147.178 90.255V137.5H143.28L143.294 82.5ZM34.875 82.5H47.855V96.25H34.875V82.5ZM54.3519 82.5H67.325V96.25H54.3519V82.5ZM73.8219 82.5H86.8088V96.25H73.8219V82.5ZM73.8219 103.125H86.8088V116.875H73.8219V103.125ZM73.8219 123.75H86.8088V137.5H73.8219V123.75ZM54.3519 103.125H67.325V116.875H54.3519V103.125Z" fill="white"/>
</g>
<defs>
<clipPath id="clip0_2_19259">
<rect width="220" height="220" fill="white" transform="translate(0.5)"/>
</clipPath>
</defs>
</svg>
