<svg width="221" height="220" viewBox="0 0 221 220" fill="none" xmlns="http://www.w3.org/2000/svg">
<g clip-path="url(#clip0_2_19255)">
<path d="M110.5 220C171.251 220 220.5 170.751 220.5 110C220.5 49.2487 171.251 0 110.5 0C49.7487 0 0.5 49.2487 0.5 110C0.5 170.751 49.7487 220 110.5 220Z" fill="#67B2E8"/>
<path fill-rule="evenodd" clip-rule="evenodd" d="M42.7469 82.1821C42.1035 76.894 41.7707 71.5728 41.75 66.2458C50.7735 61.1059 60.3494 57.003 70.295 54.0152C84.2494 49.8161 98.7772 47.8371 113.346 48.1508C117.251 48.2264 122.902 48.6596 127.192 49.1202C121.749 52.0395 117.03 56.1431 113.383 61.1286C109.736 66.1141 107.254 71.8544 106.121 77.9264C105.708 80.0852 105.481 82.3264 105.406 84.7189C105.296 88.4039 104.938 91.3052 104.168 94.0208C102.437 100.141 98.8732 105.585 93.9561 109.62C89.039 113.655 83.0043 116.088 76.6635 116.591C70.3228 117.094 63.98 115.643 58.4881 112.434C52.9962 109.225 48.6185 104.412 45.9438 98.6408C45.6413 97.9799 45.4108 97.2885 45.2563 96.5783C44.1674 91.827 43.3297 87.0216 42.7469 82.1821ZM156.961 141.032C155.325 143.576 153.593 146.051 151.791 148.491C151.847 141.548 150.119 134.707 146.772 128.623C143.33 122.214 138.236 116.842 132.019 113.065L131.4 112.686C131.056 112.484 130.715 112.278 130.376 112.068C122.559 107.097 117.794 100.14 116.117 91.1608C114.661 83.3393 116.262 75.2574 120.589 68.5814C124.917 61.9054 131.641 57.1445 139.375 55.2802C145.013 53.9189 150.581 54.1114 156.129 55.8508C160.385 57.1914 164.689 58.9445 169.934 61.3989C172.959 62.8221 176.012 64.4033 179.257 66.2389C179.213 75.8268 178.171 85.384 176.149 94.7564C172.621 111.219 166.121 126.901 156.968 141.032H156.961ZM136.082 166.284C128.319 173.681 119.739 180.17 110.507 185.623C108.121 184.248 105.789 182.783 103.515 181.23C81.4635 166.4 64.0856 145.602 53.41 121.266C58.4957 124.258 64.1744 126.1 70.0475 126.663C78.6818 127.537 87.3726 125.679 94.8937 121.349C98.5092 119.289 102.494 117.96 106.622 117.437C113.942 116.512 121.352 118.222 127.526 122.26C133.701 126.298 138.237 132.402 140.324 139.478C142.627 147.185 141.953 154.755 138.378 162.214C138.076 162.846 137.814 163.355 137.196 164.572L136.893 165.17C136.689 165.586 136.415 165.962 136.082 166.284Z" fill="white"/>
</g>
<defs>
<clipPath id="clip0_2_19255">
<rect width="220" height="220" fill="white" transform="translate(0.5)"/>
</clipPath>
</defs>
</svg>
