<svg width="221" height="220" viewBox="0 0 221 220" fill="none" xmlns="http://www.w3.org/2000/svg">
<g clip-path="url(#clip0_2_19251)">
<path d="M110.5 220C171.251 220 220.5 170.751 220.5 110C220.5 49.2487 171.251 0 110.5 0C49.7487 0 0.5 49.2487 0.5 110C0.5 170.751 49.7487 220 110.5 220Z" fill="#1EB5FA"/>
<path d="M182.035 49.1629L157.078 60.2317C156.35 60.6299 155.743 61.2166 155.319 61.9302C154.896 62.6438 154.673 63.4582 154.672 64.2879V153.525C154.669 154.364 154.899 155.187 155.336 155.903C155.773 156.619 156.4 157.2 157.147 157.582L182.103 168.375C182.459 168.57 182.859 168.668 183.264 168.659C183.669 168.651 184.065 168.537 184.413 168.329C184.76 168.12 185.047 167.824 185.245 167.471C185.443 167.117 185.545 166.718 185.541 166.313V51.2254C185.528 50.8196 185.412 50.4237 185.205 50.0745C184.998 49.7253 184.706 49.4342 184.356 49.2284C184.006 49.0225 183.609 48.9085 183.204 48.8971C182.798 48.8857 182.396 48.9771 182.035 49.1629ZM62.5126 60.0942L38.3126 49.0942C37.957 48.8999 37.5568 48.8021 37.1517 48.8103C36.7466 48.8185 36.3506 48.9325 36.0032 49.141C35.6557 49.3494 35.3688 49.6451 35.171 49.9987C34.9731 50.3523 34.8711 50.7515 34.8751 51.1567V166.244C34.8754 166.661 34.987 167.071 35.1984 167.43C35.4098 167.79 35.7133 168.087 36.0776 168.29C36.4419 168.493 36.8539 168.595 37.2709 168.586C37.688 168.577 38.0951 168.457 38.4501 168.238L62.7876 155.382C63.4598 154.972 64.0153 154.397 64.4006 153.71C64.7859 153.024 64.9881 152.25 64.9876 151.463V64.1504C64.9613 63.3179 64.7195 62.5065 64.2856 61.7955C63.8518 61.0845 63.2409 60.4983 62.5126 60.0942ZM138.413 90.5504L112.356 75.6317C111.657 75.226 110.862 75.0124 110.053 75.0124C109.244 75.0124 108.45 75.226 107.75 75.6317L81.2126 90.4129C80.5027 90.826 79.9133 91.4178 79.5032 92.1295C79.0931 92.8411 78.8766 93.6478 78.8751 94.4692V124.719C78.8751 126.39 79.7689 127.937 81.2126 128.775L107.75 144.038C109.173 144.863 110.933 144.863 112.356 144.038L138.413 128.913C139.123 128.5 139.712 127.908 140.122 127.196C140.532 126.485 140.749 125.678 140.75 124.857V94.6067C140.757 93.7836 140.544 92.9737 140.133 92.2605C139.722 91.5474 139.128 90.957 138.413 90.5504Z" fill="white"/>
</g>
<defs>
<clipPath id="clip0_2_19251">
<rect width="220" height="220" fill="white" transform="translate(0.5)"/>
</clipPath>
</defs>
</svg>
