<svg width="221" height="220" viewBox="0 0 221 220" fill="none" xmlns="http://www.w3.org/2000/svg">
<g clip-path="url(#clip0_2_19243)">
<path d="M110.5 220C171.251 220 220.5 170.751 220.5 110C220.5 49.2487 171.251 0 110.5 0C49.7487 0 0.5 49.2487 0.5 110C0.5 170.751 49.7487 220 110.5 220Z" fill="black"/>
<path d="M159.519 63.8818L143.019 72.2968L63.2825 112.907C62.1465 104.18 63.4574 95.309 67.069 87.2834C70.6807 79.2578 76.451 72.3934 83.7363 67.4559C91.0216 62.5185 99.5355 59.7022 108.328 59.3211C117.121 58.9401 125.846 61.0094 133.531 65.2981L142.978 60.4856L144.387 59.7637C135.425 53.2605 124.79 49.4575 113.737 48.8038C102.684 48.15 91.6746 50.6727 82.0089 56.0741C72.3433 61.4754 64.4251 69.5298 59.1894 79.2862C53.9537 89.0425 51.6191 100.093 52.4613 111.134C52.6189 113.21 52.1586 115.287 51.1383 117.103C50.118 118.918 48.5833 120.391 46.7275 121.336L41.7432 123.88V135.732L56.4144 128.252L61.165 125.826L65.8469 123.44L149.901 80.6087L159.347 75.8031L178.872 65.8549V54.0093L159.519 63.8818ZM178.879 77.7143L70.6319 132.824L61.1857 137.637L41.75 147.557V159.403L61.055 149.572L77.5619 141.157L157.381 100.484C158.534 109.225 157.232 118.114 153.621 126.157C150.009 134.199 144.23 141.078 136.931 146.023C129.632 150.968 121.101 153.784 112.293 154.156C103.484 154.527 94.746 152.44 87.0563 148.128L86.4719 148.437L76.2282 153.662C85.191 160.169 95.8291 163.975 106.885 164.629C117.942 165.283 128.954 162.759 138.622 157.355C148.29 151.95 156.209 143.892 161.443 134.131C166.677 124.37 169.008 113.315 168.161 102.272C168.005 100.197 168.465 98.1228 169.484 96.3089C170.503 94.495 172.035 93.0225 173.888 92.0762L178.879 89.5324V77.7212V77.7143Z" fill="white"/>
</g>
<defs>
<clipPath id="clip0_2_19243">
<rect width="220" height="220" fill="white" transform="translate(0.5)"/>
</clipPath>
</defs>
</svg>
