<svg width="221" height="220" viewBox="0 0 221 220" fill="none" xmlns="http://www.w3.org/2000/svg">
<g clip-path="url(#clip0_2_19247)">
<path d="M110.5 220.23C132.256 220.23 153.523 213.779 171.613 201.692C189.702 189.605 203.801 172.425 212.127 152.325C220.452 132.225 222.631 110.108 218.386 88.7701C214.142 67.4322 203.666 47.8321 188.282 32.4483C172.898 17.0645 153.298 6.58802 131.96 2.34365C110.622 -1.90073 88.5047 0.277641 68.4048 8.60328C48.305 16.9289 31.1253 31.0279 19.0383 49.1173C6.95139 67.2067 0.5 88.4741 0.5 110.23C0.5 139.404 12.0893 167.383 32.7183 188.012C53.3473 208.641 81.3262 220.23 110.5 220.23Z" fill="white"/>
<path d="M163.5 61.61L145.73 70.61L59.9405 114.31C58.7321 104.927 60.1516 95.3933 64.0409 86.7695C67.9301 78.1458 74.1366 70.7707 81.9691 65.4654C89.8017 60.16 98.953 57.1327 108.404 56.7204C117.855 56.308 127.236 58.5269 135.5 63.13L145.65 58L147.17 57.23C137.859 50.4706 126.861 46.4163 115.391 45.5149C103.92 44.6135 92.4234 46.9001 82.1708 52.1221C71.9181 57.3441 63.3083 65.2984 57.2924 75.1063C51.2764 84.9142 48.0884 96.194 48.0805 107.7C48.0805 109.29 48.1405 110.87 48.2605 112.45C48.4299 114.687 47.9346 116.925 46.837 118.882C45.7393 120.839 44.088 122.428 42.0905 123.45L36.7305 126.18V138.93L52.5205 130.93L57.6305 128.32L62.6305 125.75L153.1 79.61L163.27 74.44L184.27 63.73V51L163.5 61.61Z" fill="black"/>
<path d="M184.27 76.49L67.8005 135.79L57.6405 141L36.7305 151.64V164.38L57.5005 153.79L75.2605 144.79L161.14 101C161.429 103.225 161.572 105.466 161.57 107.71C161.557 116.617 159.216 125.367 154.78 133.091C150.344 140.815 143.967 147.246 136.28 151.747C128.593 156.247 119.864 158.661 110.957 158.75C102.05 158.838 93.2749 156.597 85.5005 152.25L84.8805 152.58L73.8805 158.2C83.1936 164.961 94.1947 169.015 105.668 169.916C117.141 170.816 128.64 168.527 138.894 163.301C149.147 158.075 157.757 150.117 163.77 140.304C169.784 130.492 172.968 119.208 172.97 107.7C172.97 106.1 172.91 104.49 172.79 102.91C172.616 100.673 173.108 98.4347 174.204 96.477C175.301 94.5194 176.952 92.9303 178.95 91.91L184.32 89.18L184.27 76.49Z" fill="black"/>
</g>
<defs>
<clipPath id="clip0_2_19247">
<rect width="220" height="220" fill="white" transform="translate(0.5)"/>
</clipPath>
</defs>
</svg>
