<svg width="221" height="220" viewBox="0 0 221 220" fill="none" xmlns="http://www.w3.org/2000/svg">
<g clip-path="url(#clip0_2_19239)">
<path d="M110.5 220C171.251 220 220.5 170.751 220.5 110C220.5 49.2487 171.251 0 110.5 0C49.7487 0 0.5 49.2487 0.5 110C0.5 170.751 49.7487 220 110.5 220Z" fill="#DD0632"/>
<path d="M156.439 48.125H120.964L110.417 66.3575L99.9056 48.125H64.4169L28 111.203L63.2619 172.253L87.1662 130.872L110.5 171.16L133.765 130.872L157.724 172.535L193 111.485L156.439 48.125ZM63.2137 148.115L41.8875 111.224L58.8481 81.8538L80.1606 118.772L63.2069 148.149V148.115H63.2137ZM65.8537 69.7263L71.4775 59.9569H92.7281L103.419 78.4712L87.1662 106.652L65.8537 69.7263ZM110.404 146.946L94.165 118.745L110.417 90.5781L117.678 103.125L126.684 118.752L110.417 146.919L110.404 146.953V146.946ZM117.396 78.4712L128.107 59.9569H149.358L155.05 69.7194L133.6 106.652L117.396 78.4644V78.4712ZM172.176 123.413L157.786 148.376L140.681 118.676L161.994 81.8331L167.741 91.7331L179.106 111.416L172.176 123.413Z" fill="white"/>
</g>
<defs>
<clipPath id="clip0_2_19239">
<rect width="220" height="220" fill="white" transform="translate(0.5)"/>
</clipPath>
</defs>
</svg>
