<svg width="221" height="220" viewBox="0 0 221 220" fill="none" xmlns="http://www.w3.org/2000/svg">
<g clip-path="url(#clip0_2_19235)">
<path d="M110.5 220C171.251 220 220.5 170.751 220.5 110C220.5 49.2487 171.251 0 110.5 0C49.7487 0 0.5 49.2487 0.5 110C0.5 170.751 49.7487 220 110.5 220Z" fill="#004A80"/>
<path fill-rule="evenodd" clip-rule="evenodd" d="M158.625 134.338L148.429 171.875H62.375V165.598L109.056 112.53L63.3169 54.945V48.125H148.093L151.049 77.3575H145.618C142.036 70.6956 138.997 65.7112 136.488 62.4044C133.985 59.0975 131.751 57.0419 129.784 56.2238C128.396 55.55 126.484 55.0687 124.051 54.78C121.145 54.4601 118.222 54.3109 115.299 54.3331H91.2156L127.303 99.2956V101.461L82.6975 152.096H133.607C136.109 152.096 138.406 151.498 140.482 150.308C142.558 149.112 144.359 147.613 145.879 145.812C147.475 143.95 148.891 141.94 150.107 139.81C151.409 137.55 152.553 135.202 153.531 132.784L158.625 134.338Z" fill="white"/>
</g>
<defs>
<clipPath id="clip0_2_19235">
<rect width="220" height="220" fill="white" transform="translate(0.5)"/>
</clipPath>
</defs>
</svg>
