<svg width="221" height="220" viewBox="0 0 221 220" fill="none" xmlns="http://www.w3.org/2000/svg">
<g clip-path="url(#clip0_2_19228)">
<path d="M110.5 220C171.251 220 220.5 170.751 220.5 110C220.5 49.2487 171.251 0 110.5 0C49.7487 0 0.5 49.2487 0.5 110C0.5 170.751 49.7487 220 110.5 220Z" fill="#FF6600"/>
<path d="M193 109.998C193 155.566 156.068 192.498 110.5 192.498C64.9325 192.498 28 155.566 28 109.998C28 91.5665 34.0569 74.5508 44.2388 60.8215L57.7137 74.2965C50.5592 84.8269 46.7406 97.2674 46.755 109.998C46.755 145.13 75.3069 173.675 110.438 173.675C145.562 173.675 174.114 145.123 174.114 109.998C174.109 97.2682 170.292 84.8312 163.156 74.2896L176.631 60.8146C187.292 74.9921 193.039 92.2596 193 109.998Z" fill="white"/>
<path d="M156.129 110C156.116 122.098 151.305 133.697 142.75 142.251C134.196 150.805 122.597 155.617 110.5 155.63C98.4006 155.619 86.8002 150.808 78.2443 142.253C69.6884 133.699 64.876 122.099 64.8633 110C64.8633 102.073 66.9258 94.277 70.8583 87.3814L110.5 127.009L150.141 87.3677C154.071 94.2629 156.138 102.063 156.136 110" fill="white"/>
<path d="M164.448 47.6096L110.5 101.489L69.3805 60.4384L56.5518 47.6096C71.5062 34.5952 90.6754 27.4498 110.5 27.5003C131.125 27.5003 149.949 35.0421 164.448 47.6096Z" fill="white"/>
</g>
<defs>
<clipPath id="clip0_2_19228">
<rect width="220" height="220" fill="white" transform="translate(0.5)"/>
</clipPath>
</defs>
</svg>
