<svg width="221" height="220" viewBox="0 0 221 220" fill="none" xmlns="http://www.w3.org/2000/svg">
<g clip-path="url(#clip0_2_19224)">
<path d="M110.5 220C171.251 220 220.5 170.751 220.5 110C220.5 49.2487 171.251 0 110.5 0C49.7487 0 0.5 49.2487 0.5 110C0.5 170.751 49.7487 220 110.5 220Z" fill="#FF6600"/>
<path d="M110.294 35.9927C151.441 35.9927 184.716 69.2677 184.716 110.408C184.688 118.426 183.393 126.389 180.879 134.003H158.701V71.4814L110.301 119.881L61.9007 71.4814V134.003H39.7151C37.2038 126.388 35.9114 118.425 35.8857 110.408C35.8857 69.2677 69.1607 35.9927 110.301 35.9927H110.294ZM99.2114 130.765L110.5 141.868L121.59 130.771L142.565 109.596V148.921H173.826C167.195 159.827 157.867 168.84 146.74 175.092C135.613 181.344 123.064 184.624 110.301 184.616C83.4745 184.616 59.8795 170.303 46.7757 148.921H78.0295V109.596L99.2045 130.771L99.2114 130.765Z" fill="white"/>
</g>
<defs>
<clipPath id="clip0_2_19224">
<rect width="220" height="220" fill="white" transform="translate(0.5)"/>
</clipPath>
</defs>
</svg>
