<svg width="221" height="220" viewBox="0 0 221 220" fill="none" xmlns="http://www.w3.org/2000/svg">
<g clip-path="url(#clip0_2_19220)">
<path d="M110.5 220C171.251 220 220.5 170.751 220.5 110C220.5 49.2487 171.251 0 110.5 0C49.7487 0 0.5 49.2487 0.5 110C0.5 170.751 49.7487 220 110.5 220Z" fill="#EC1076"/>
<path fill-rule="evenodd" clip-rule="evenodd" d="M145.218 144.375C141.08 144.375 136.535 142.292 136.535 136.042C136.535 132.963 138.942 123.496 143.74 107.635C144.723 105.188 145.212 102.987 145.212 101.042C145.212 97.295 142.324 93.5481 136.948 93.5481C133.827 93.5481 127.027 94.7856 124.965 101.454C123.59 105.903 120.42 117.707 115.457 136.874C113.532 141.873 110.087 144.375 105.13 144.375C97.6916 144.375 96.4472 138.957 96.4472 135.623C96.4472 134.303 98.4272 126.321 102.394 111.698C103.941 106.817 104.711 103.262 104.711 101.042C104.711 97.7075 102.236 93.5481 96.4472 93.5481C90.6654 93.5481 85.2891 97.7075 82.8141 106.872C81.1641 112.991 78.8197 122.155 75.7879 134.372C74.1379 141.041 70.4116 144.375 64.6297 144.375C59.391 144.375 56.641 141.46 56.366 135.623L65.8672 96.0438H44.7953C43.4896 96.0893 42.1878 95.8731 40.9668 95.408C39.7458 94.9429 38.6302 94.2383 37.6856 93.3356C36.741 92.4329 35.9865 91.3504 35.4665 90.1517C34.9465 88.9531 34.6715 87.6625 34.6578 86.356C34.644 85.0495 34.8917 83.7534 35.3864 82.5441C35.881 81.3347 36.6125 80.2365 37.5379 79.3141C38.4633 78.3917 39.5639 77.6638 40.7748 77.1731C41.9858 76.6824 43.2826 76.4389 44.5891 76.4569H79.9197C84.8766 76.4569 87.9085 78.8219 89.0085 83.5381C93.9722 77.2956 100.579 75.625 106.375 75.625C112.17 75.625 119.595 78.9594 122.902 86.46C127.44 81.455 135.298 75.625 146.456 75.625C156.782 75.625 165.465 82.7062 165.465 95.205C165.465 99.9281 163.121 109.794 158.439 124.795L176.568 124.671C181.869 124.671 186.125 129.085 186.125 134.523C186.125 139.961 181.869 144.375 176.617 144.375H145.218Z" fill="white"/>
</g>
<defs>
<clipPath id="clip0_2_19220">
<rect width="220" height="220" fill="white" transform="translate(0.5)"/>
</clipPath>
</defs>
</svg>
