<svg width="221" height="220" viewBox="0 0 221 220" fill="none" xmlns="http://www.w3.org/2000/svg">
<g clip-path="url(#clip0_2_19216)">
<path d="M110.5 220C171.251 220 220.5 170.751 220.5 110C220.5 49.2487 171.251 0 110.5 0C49.7487 0 0.5 49.2487 0.5 110C0.5 170.751 49.7487 220 110.5 220Z" fill="#008200"/>
<path d="M102.181 158.125H89.82L82.3812 128.906L100.566 119.405L106.485 136.317L110.892 114.008L135.057 101.379L133.724 108.089L147.68 108.219C153.07 108.137 157.243 106.315 160.213 102.767C163.183 99.2131 164.592 94.4487 164.441 88.4469C164.417 87.6743 164.337 86.9046 164.201 86.1437L182.969 76.3331C185.568 81.1112 186.558 86.7419 185.953 93.2112C184.949 102.644 180.866 110.192 173.722 115.851C166.579 121.516 157.47 124.348 146.408 124.348L130.554 124.279L123.837 158.125H102.181ZM105.076 82.5688H117.107L98.565 108.866L52.7775 132.798L69.745 108.804L53.4375 61.875H77.3625L85.8187 94.7994L93.0512 82.5619H105.082H93.0512L105.962 61.875H121.191L156.432 61.9438C164.441 62.1638 171.007 64.2881 176.136 68.3169L156.886 78.3819C156.413 78.2941 155.935 78.2345 155.456 78.2031L139.684 78.0656L137.622 88.4469L113.442 101.083L117.1 82.5619L105.076 82.5688ZM40.2787 150.92L76.9019 131.773L60.7594 158.125H34.875L40.1481 150.666L40.2787 150.92Z" fill="white"/>
</g>
<defs>
<clipPath id="clip0_2_19216">
<rect width="220" height="220" fill="white" transform="translate(0.5)"/>
</clipPath>
</defs>
</svg>
