<svg width="221" height="220" viewBox="0 0 221 220" fill="none" xmlns="http://www.w3.org/2000/svg">
<g clip-path="url(#clip0_2_19212)">
<path d="M110.5 220C171.251 220 220.5 170.751 220.5 110C220.5 49.2487 171.251 0 110.5 0C49.7487 0 0.5 49.2487 0.5 110C0.5 170.751 49.7487 220 110.5 220Z" fill="#4FA784"/>
<path fill-rule="evenodd" clip-rule="evenodd" d="M176.328 88.3171L120.571 72.3396L101.5 104.824L79.349 79.1321L89.3865 77.8396L99.7333 89.9946L111.215 69.6515L60.6833 55.1658C60.0045 54.9646 59.2846 54.9459 58.5961 55.1115C57.9077 55.2771 57.2751 55.6213 56.762 56.1092C56.249 56.5972 55.8736 57.2118 55.6737 57.891C55.4738 58.5703 55.4564 59.2902 55.6233 59.9783L78.0083 149.876L102.05 109.396L124.201 135.088L114.164 136.38L103.824 124.225L81.0677 162.155L84.4365 175.698C84.6117 176.385 84.964 177.014 85.4581 177.523C85.9521 178.031 86.5708 178.401 87.2524 178.596C87.934 178.79 88.6548 178.803 89.3429 178.632C90.0309 178.462 90.6623 178.114 91.174 177.623L178.005 95.0546C178.518 94.5689 178.892 93.9558 179.09 93.2779C179.288 92.6 179.303 91.8817 179.132 91.1964C178.962 90.5111 178.612 89.8834 178.119 89.3775C177.627 88.8716 177.008 88.5057 176.328 88.3171Z" fill="white"/>
</g>
<defs>
<clipPath id="clip0_2_19212">
<rect width="220" height="220" fill="white" transform="translate(0.5)"/>
</clipPath>
</defs>
</svg>
