<svg width="221" height="220" viewBox="0 0 221 220" fill="none" xmlns="http://www.w3.org/2000/svg">
<g clip-path="url(#clip0_2_19208)">
<path d="M110.5 220C171.251 220 220.5 170.751 220.5 110C220.5 49.2487 171.251 0 110.5 0C49.7487 0 0.5 49.2487 0.5 110C0.5 170.751 49.7487 220 110.5 220Z" fill="#FFD81B"/>
<path d="M165.5 106.989C165.5 137.397 141.946 147.737 122.119 147.737V155.664H137.416V166.403H122.126V178.75H98.2006V166.403H83.5775V155.664H98.1731V147.634C91.8275 147.634 55.5 146.128 55.5 104.782V55H79.2531V106.686C79.2531 128.267 98.2694 128.068 98.2694 128.068V55H122.126V128.068C122.126 128.068 141.747 129.168 141.747 106.391V55H165.5V106.989Z" fill="white"/>
</g>
<defs>
<clipPath id="clip0_2_19208">
<rect width="220" height="220" fill="white" transform="translate(0.5)"/>
</clipPath>
</defs>
</svg>
