<svg width="221" height="220" viewBox="0 0 221 220" fill="none" xmlns="http://www.w3.org/2000/svg">
<g clip-path="url(#clip0_2_19204)">
<path d="M110.5 220C171.251 220 220.5 170.751 220.5 110C220.5 49.2487 171.251 0 110.5 0C49.7487 0 0.5 49.2487 0.5 110C0.5 170.751 49.7487 220 110.5 220Z" fill="#23292F"/>
<path d="M159.106 55H178.975L137.622 95.9544C130.392 103.078 120.65 107.071 110.5 107.071C100.35 107.071 90.6081 103.078 83.3781 95.9544L41.9906 55H61.8938L93.3125 86.0956C97.8878 90.6115 104.058 93.1436 110.486 93.1436C116.915 93.1436 123.085 90.6115 127.66 86.0956L159.106 55ZM61.6531 168.871H41.75L83.3781 127.669C90.6081 120.545 100.35 116.552 110.5 116.552C120.65 116.552 130.392 120.545 137.622 127.669L179.25 168.864H159.347L127.688 137.5C123.112 132.984 116.942 130.452 110.514 130.452C104.085 130.452 97.9153 132.984 93.34 137.5L61.6462 168.871H61.6531Z" fill="white"/>
</g>
<defs>
<clipPath id="clip0_2_19204">
<rect width="220" height="220" fill="white" transform="translate(0.5)"/>
</clipPath>
</defs>
</svg>
