<svg width="221" height="220" viewBox="0 0 221 220" fill="none" xmlns="http://www.w3.org/2000/svg">
<g clip-path="url(#clip0_2_19200)">
<path d="M110.5 220C171.251 220 220.5 170.751 220.5 110C220.5 49.2487 171.251 0 110.5 0C49.7487 0 0.5 49.2487 0.5 110C0.5 170.751 49.7487 220 110.5 220Z" fill="#D21E2B"/>
<path d="M111.462 40.2531V20.625L184.516 62.7825L167.624 72.6L111.462 40.2531ZM168.745 139.37V74.69L185.802 64.8725V149.188L168.752 139.37H168.745ZM111.462 173.807L167.624 141.467L184.516 151.277L111.462 193.435V173.807ZM36.0025 151.277L53.0525 141.467L109.049 173.807V193.435L36.0025 151.277ZM34.875 64.8725L51.7669 74.69V139.37L34.875 149.188V64.8725ZM36.0025 62.7825L109.049 20.625V40.2531L53.0594 72.6L36.0025 62.7825ZM110.417 42.1025L54.1044 74.4562V139.459L110.417 171.964L166.572 139.459V74.4562L110.417 42.1094V42.1025ZM155.634 100.196L153.221 104.376L137.134 95.37L116.536 106.947L137.127 118.532L153.214 109.526L155.634 113.706L142.118 121.268L155.634 128.831L153.221 133.017L139.705 125.455V140.58H134.714V122.719L114.123 111.134V134.303L130.052 143.151L127.639 147.256L114.123 139.693V154.818H109.125V139.693L95.6087 147.256L93.0375 143.076L109.125 134.221V111.134L88.5275 122.719V140.58H83.3781V125.455L70.0269 133.017L67.4487 128.831L80.965 121.268L67.4487 113.706L70.0269 109.526L85.9563 118.532L106.712 106.947L85.9494 95.3631L70.0269 104.369L67.4487 100.189L80.965 92.6269L67.4487 85.0644L70.0269 80.8844L83.3781 88.4469V73.2394H88.5344V91.1006L109.125 102.685V79.5988L93.1956 70.7438L95.6087 66.5638L109.125 74.1262V59.0012H114.116V74.1262L127.633 66.5638L130.039 70.7438L114.116 79.5988V102.768L134.707 91.1831V73.2394H139.698V88.3644L153.214 80.8019L155.621 84.9888L142.111 92.5512L155.627 100.189L155.634 100.196Z" fill="white"/>
</g>
<defs>
<clipPath id="clip0_2_19200">
<rect width="220" height="220" fill="white" transform="translate(0.5)"/>
</clipPath>
</defs>
</svg>
