<svg width="221" height="220" viewBox="0 0 221 220" fill="none" xmlns="http://www.w3.org/2000/svg">
<g clip-path="url(#clip0_2_19191)">
<path d="M110.5 220C171.251 220 220.5 170.751 220.5 110C220.5 49.2487 171.251 0 110.5 0C49.7487 0 0.5 49.2487 0.5 110C0.5 170.751 49.7487 220 110.5 220Z" fill="#A6E000"/>
<path fill-rule="evenodd" clip-rule="evenodd" d="M125.556 178.75C115.519 178.75 108.204 176.385 103.611 171.669C99.0256 166.939 96.7294 161.844 96.7294 156.386C96.7294 154.392 97.1281 152.708 97.9325 151.346C98.7169 149.995 99.8494 148.879 101.212 148.115C102.601 147.331 104.306 146.933 106.334 146.933C108.362 146.933 110.074 147.331 111.462 148.115C112.851 148.906 113.938 149.978 114.742 151.346C115.546 152.708 115.945 154.392 115.945 156.386C115.945 158.799 115.361 160.765 114.185 162.291C113.155 163.711 111.693 164.76 110.019 165.282C111.408 167.173 113.594 168.513 116.584 169.297C119.575 170.143 122.566 170.562 125.549 170.562C129.56 170.609 133.493 169.457 136.845 167.255C140.207 165.048 142.689 161.789 144.284 157.493C145.886 153.182 146.69 148.301 146.69 142.842C146.69 136.909 145.81 131.842 144.05 127.641C142.338 123.386 139.801 120.237 136.439 118.188C133.168 116.168 129.395 115.105 125.549 115.122C122.992 115.122 119.788 116.167 115.945 118.271L108.898 121.736V118.271L140.606 76.6906H96.7294V119.845C96.7294 123.42 97.5269 126.356 99.1356 128.666C100.731 130.976 103.192 132.131 106.492 132.131C109.056 132.131 111.511 131.292 113.862 129.607C116.22 127.917 118.277 125.842 119.946 123.468C120.111 123.055 120.39 122.698 120.751 122.437C121.041 122.191 121.408 122.055 121.789 122.052C122.38 122.052 123.067 122.341 123.872 122.911C124.601 123.706 125.002 124.748 124.993 125.826C124.901 126.569 124.768 127.306 124.594 128.033C122.779 132.021 120.263 135.066 117.066 137.17C113.935 139.247 110.256 140.343 106.499 140.319C96.9975 140.319 90.4319 138.483 86.8019 134.805C83.1719 131.134 81.3569 126.143 81.3569 119.845V76.6906H58.9375V68.6538H81.35V50.3938L76.235 45.3475V41.25H91.1263L96.7294 44.0825V68.6538L154.692 68.4956L160.467 74.1675L124.91 109.134C127.064 108.287 129.328 107.754 131.634 107.553C135.484 107.553 139.801 108.763 144.607 111.183C149.468 113.541 153.201 116.799 155.813 120.945C158.432 125.042 160.117 128.982 160.859 132.763C161.607 136.072 162.01 139.45 162.062 142.842C162.113 149.342 160.631 155.762 157.738 161.583C154.958 167.256 150.326 171.811 144.607 174.494C138.664 177.346 132.148 178.802 125.556 178.75Z" fill="white"/>
</g>
<defs>
<clipPath id="clip0_2_19191">
<rect width="220" height="220" fill="white" transform="translate(0.5)"/>
</clipPath>
</defs>
</svg>
