<svg width="221" height="220" viewBox="0 0 221 220" fill="none" xmlns="http://www.w3.org/2000/svg">
<g clip-path="url(#clip0_2_19195)">
<path d="M110.5 220C171.251 220 220.5 170.751 220.5 110C220.5 49.2487 171.251 0 110.5 0C49.7487 0 0.5 49.2487 0.5 110C0.5 170.751 49.7487 220 110.5 220Z" fill="white"/>
<path d="M110.5 212.31C167.005 212.31 212.81 166.504 212.81 110C212.81 53.4957 167.005 7.68994 110.5 7.68994C53.9962 7.68994 8.19043 53.4957 8.19043 110C8.19043 166.504 53.9962 212.31 110.5 212.31Z" fill="white"/>
<path d="M124.81 176.77C115.277 176.77 108.323 174.473 103.95 169.88C99.889 165.999 97.5334 160.666 97.4 155.05C97.3359 153.346 97.7149 151.654 98.5 150.14C99.2501 148.84 100.33 147.76 101.63 147.01C103.144 146.255 104.813 145.863 106.505 145.863C108.197 145.863 109.866 146.255 111.38 147.01C112.676 147.758 113.75 148.839 114.49 150.14C115.311 151.644 115.722 153.337 115.68 155.05C115.763 157.091 115.176 159.103 114.01 160.78C113.024 162.155 111.621 163.175 110.01 163.69C111.578 165.68 113.792 167.06 116.27 167.59C119.046 168.393 121.92 168.807 124.81 168.82C128.631 168.849 132.372 167.731 135.55 165.61C138.846 163.28 141.301 159.948 142.55 156.11C144.142 151.544 144.92 146.735 144.85 141.9C144.971 136.861 144.119 131.846 142.34 127.13C141.001 123.357 138.457 120.131 135.1 117.95C131.983 115.97 128.362 114.929 124.67 114.95C121.466 115.224 118.377 116.275 115.67 118.01L108.97 121.37V118L139.08 77.61H97.4V119.53C97.2819 122.552 98.0801 125.54 99.69 128.1C100.469 129.215 101.523 130.109 102.749 130.698C103.976 131.287 105.333 131.549 106.69 131.46C109.201 131.408 111.63 130.553 113.62 129.02C115.875 127.358 117.835 125.33 119.42 123.02C119.561 122.617 119.823 122.268 120.17 122.02C120.449 121.782 120.803 121.651 121.17 121.65C121.909 121.703 122.611 121.994 123.17 122.48C123.871 123.258 124.249 124.273 124.23 125.32C124.152 126.021 124.029 126.715 123.86 127.4C122.379 130.991 119.892 134.077 116.7 136.29C113.748 138.286 110.264 139.349 106.7 139.34C97.6667 139.34 91.41 137.56 87.93 134C86.1378 132.032 84.7565 129.726 83.867 127.217C82.9775 124.708 82.5978 122.047 82.75 119.39V77.64H61.5V69.86H82.79V52.1L77.91 47.21V43.21H92.07L97.4 46V69.86L152.5 69.69L157.99 75.2L124.19 109.2C126.231 108.379 128.38 107.861 130.57 107.66C134.908 107.852 139.141 109.058 142.93 111.18C147.31 113.268 151.001 116.564 153.57 120.68C155.867 124.169 157.495 128.055 158.37 132.14C159.084 135.359 159.466 138.643 159.51 141.94C159.538 148.24 158.111 154.462 155.34 160.12C152.714 165.597 148.297 170.013 142.82 172.64C137.215 175.384 131.051 176.798 124.81 176.77Z" fill="#2C7DF7"/>
</g>
<defs>
<clipPath id="clip0_2_19195">
<rect width="220" height="220" fill="white" transform="translate(0.5)"/>
</clipPath>
</defs>
</svg>
