<svg width="221" height="220" viewBox="0 0 221 220" fill="none" xmlns="http://www.w3.org/2000/svg">
<g clip-path="url(#clip0_2_19187)">
<path d="M110.5 220C171.251 220 220.5 170.751 220.5 110C220.5 49.2487 171.251 0 110.5 0C49.7487 0 0.5 49.2487 0.5 110C0.5 170.751 49.7487 220 110.5 220Z" fill="#25AAE3"/>
<path d="M186.125 110C186.125 151.766 152.266 185.625 110.5 185.625C68.7344 185.625 34.875 151.766 34.875 110C34.875 68.2275 68.7344 34.375 110.5 34.375C152.266 34.375 186.125 68.2344 186.125 110ZM160.206 112.379C160.254 111.519 160.206 112.379 160.206 111.506C160.206 86.7075 141.884 64.68 118.118 60.9744V46.5369L102.717 51.3356V60.9812C78.9644 64.68 60.7662 85.1812 60.7662 109.966C60.7662 135.334 79.81 156.234 104.381 159.225V173.443L119.781 168.644V158.702C128.278 157.06 136.198 153.227 142.759 147.584C149.32 141.941 154.293 134.683 157.188 126.527H141.231C138.25 132.105 133.81 136.768 128.385 140.019C122.961 143.27 116.755 144.987 110.431 144.987C101.585 144.98 93.0696 141.627 86.5948 135.6C80.12 129.572 76.1659 121.318 75.5269 112.496L160.213 112.379H160.206ZM77.8438 97.1437C80.4178 90.5987 84.9031 84.9805 90.7156 81.0209C96.5281 77.0613 103.398 74.9439 110.431 74.9444C117.461 74.9504 124.326 77.0716 130.135 81.0319C135.943 84.9923 140.425 90.6087 142.998 97.1506H77.8506L77.8438 97.1437Z" fill="white"/>
</g>
<defs>
<clipPath id="clip0_2_19187">
<rect width="220" height="220" fill="white" transform="translate(0.5)"/>
</clipPath>
</defs>
</svg>
