<svg width="221" height="220" viewBox="0 0 221 220" fill="none" xmlns="http://www.w3.org/2000/svg">
<g clip-path="url(#clip0_2_19174)">
<path d="M110.5 220C171.251 220 220.5 170.751 220.5 110C220.5 49.2487 171.251 0 110.5 0C49.7487 0 0.5 49.2487 0.5 110C0.5 170.751 49.7487 220 110.5 220Z" fill="#23B852"/>
<path d="M129.235 131.643H152.541V152.02H82.5191L169.44 65.0377C170.818 63.6428 171.76 61.8765 172.151 59.9547C172.542 58.0329 172.364 56.0389 171.64 54.2165C170.871 52.4052 169.585 50.861 167.942 49.7774C166.3 48.6938 164.374 48.1191 162.407 48.1252H58.5941C57.2813 48.1161 55.9797 48.3681 54.7652 48.8667C53.5507 49.3653 52.4475 50.1005 51.5198 51.0295C50.5921 51.9584 49.8585 53.0627 49.3616 54.2778C48.8646 55.493 48.6144 56.7949 48.6253 58.1077V131.643L91.766 88.4677H68.4597V67.9802H138.365L51.561 154.963C50.1826 156.358 49.2404 158.124 48.8497 160.046C48.459 161.968 48.6367 163.962 49.361 165.784C50.9353 169.462 54.5035 171.875 58.5941 171.875H162.407C163.717 171.875 165.014 171.617 166.225 171.115C167.435 170.613 168.535 169.878 169.46 168.951C170.386 168.023 171.12 166.923 171.62 165.712C172.121 164.501 172.377 163.203 172.375 161.893V88.4677L129.235 131.643Z" fill="white"/>
</g>
<defs>
<clipPath id="clip0_2_19174">
<rect width="220" height="220" fill="white" transform="translate(0.5)"/>
</clipPath>
</defs>
</svg>
