<svg width="221" height="220" viewBox="0 0 221 220" fill="none" xmlns="http://www.w3.org/2000/svg">
<g clip-path="url(#clip0_2_19168)">
<path d="M110.5 220C171.251 220 220.5 170.751 220.5 110C220.5 49.2487 171.251 0 110.5 0C49.7487 0 0.5 49.2487 0.5 110C0.5 170.751 49.7487 220 110.5 220Z" fill="#006AE3"/>
<path d="M105.068 153.724V67.0582H114.501V153.724H105.068Z" fill="white"/>
<path d="M153.104 95.9324L123.954 103.66L117.457 73.4099L126.12 71.4574L129.544 85.7849C129.544 85.7849 137.416 72.8737 126.918 59.4949C120.73 52.6199 117.794 52.3312 110.858 51.2449C104.753 50.3718 90.5625 52.4343 86.3344 68.9962C84.5469 79.6662 86.5612 87.5587 100.311 97.8918L99.5413 109.394C99.5413 109.394 84.1894 98.5793 80.2294 90.9962C77.17 84.9943 71.9106 73.1418 81.3981 56.6418C86.4994 48.3918 96.5644 40.4787 114.295 41.3105C123.205 41.6818 144.978 52.5855 141.603 78.0368C141.018 82.808 138.543 89.1605 138.543 89.1605L150.506 86.4999L153.104 95.9324ZM136.46 163.747C131.125 171.853 120.854 179.491 103.164 178.206C94.2475 177.601 72.7906 166.119 76.8331 140.764C77.5412 136.021 80.1881 129.744 80.1881 129.744L68.1638 132.081L65.8125 122.601L95.1688 115.643L100.875 146.058L92.1438 147.791L89.105 133.353C89.105 133.353 80.8962 146.037 91.0231 159.705C97.0181 166.745 99.94 167.102 106.877 168.367C112.941 169.412 127.186 167.707 131.854 151.269C133.916 140.661 132.101 132.707 118.647 121.996L119.726 110.514C119.726 110.514 134.789 121.721 138.543 129.414C141.417 135.519 146.353 147.516 136.46 163.747Z" fill="white"/>
</g>
<defs>
<clipPath id="clip0_2_19168">
<rect width="220" height="220" fill="white" transform="translate(0.5)"/>
</clipPath>
</defs>
</svg>
