<svg width="221" height="220" viewBox="0 0 221 220" fill="none" xmlns="http://www.w3.org/2000/svg">
<g clip-path="url(#clip0_2_19164)">
<path d="M110.5 220C171.251 220 220.5 170.751 220.5 110C220.5 49.2487 171.251 0 110.5 0C49.7487 0 0.5 49.2487 0.5 110C0.5 170.751 49.7487 220 110.5 220Z" fill="#21A5DE"/>
<path d="M148.244 113.953C150.581 116.456 151.997 119.79 151.997 123.447C151.997 131.209 145.618 137.5 137.753 137.5C129.894 137.5 123.521 131.209 123.521 123.447C123.521 119.79 124.938 116.456 127.261 113.953C126.512 114.528 125.617 114.884 124.677 114.981C123.738 115.078 122.789 114.912 121.938 114.503C121.087 114.093 120.366 113.455 119.855 112.66C119.344 111.866 119.064 110.945 119.046 110C119.044 108.876 119.424 107.785 120.125 106.906C117.588 109.203 114.213 110.605 110.5 110.605C106.787 110.605 103.412 109.203 100.875 106.906C101.576 107.785 101.956 108.876 101.954 110C101.954 112.771 99.6856 115.019 96.8669 115.019C95.7349 115.02 94.6346 114.645 93.7388 113.953C96.0625 116.456 97.4856 119.79 97.4856 123.447C97.4856 131.209 91.1056 137.5 83.2475 137.5C75.3825 137.5 69.0025 131.209 69.0025 123.447C69.0025 119.79 70.4256 116.456 72.7494 113.953C71.9997 114.528 71.1052 114.884 70.1654 114.981C69.2257 115.078 68.2774 114.912 67.4261 114.503C66.5747 114.093 65.8537 113.455 65.3431 112.66C64.8325 111.866 64.5523 110.945 64.5338 110C64.5319 108.876 64.9126 107.785 65.6131 106.906C63.0762 109.203 59.7006 110.605 55.9881 110.605C48.1231 110.605 41.75 104.314 41.75 96.5525C41.75 88.7906 48.1231 82.5 55.9881 82.5C63.8531 82.5 70.2263 88.7906 70.2263 96.5525C70.2278 100.078 68.8882 103.472 66.4794 106.047C67.229 105.47 68.1242 105.113 69.065 105.015C70.0058 104.916 70.9554 105.082 71.808 105.491C72.6605 105.901 73.3825 106.54 73.8934 107.336C74.4044 108.132 74.6843 109.054 74.7019 110C74.7037 111.124 74.3231 112.215 73.6225 113.094C76.1525 110.798 79.535 109.395 83.2475 109.395C86.96 109.395 90.3288 110.798 92.8725 113.094C92.1695 112.216 91.7863 111.125 91.7862 110C91.0951 109.468 90.5517 108.768 90.2077 107.967C89.8636 107.166 89.7305 106.29 89.8209 105.422C89.9113 104.555 90.2223 103.725 90.7242 103.012C91.2261 102.299 91.9022 101.726 92.6882 101.348C93.4741 100.97 94.3437 100.8 95.2142 100.853C96.0846 100.907 96.9269 101.182 97.6607 101.653C98.3946 102.124 98.9957 102.775 99.4067 103.544C99.8177 104.313 100.025 105.175 100.009 106.047C97.6011 103.472 96.2617 100.078 96.2619 96.5525C96.2619 88.7906 102.635 82.5 110.5 82.5C118.365 82.5 124.738 88.7906 124.738 96.5525C124.74 100.078 123.4 103.472 120.991 106.047C121.741 105.47 122.636 105.113 123.577 105.015C124.518 104.916 125.467 105.082 126.32 105.491C127.172 105.901 127.894 106.54 128.405 107.336C128.916 108.132 129.196 109.054 129.214 110C129.216 111.124 128.835 112.215 128.134 113.094C130.664 110.798 134.047 109.395 137.759 109.395C141.472 109.395 144.841 110.798 147.384 113.094C146.681 112.216 146.298 111.125 146.298 110C145.607 109.468 145.064 108.768 144.72 107.967C144.376 107.166 144.242 106.29 144.333 105.422C144.423 104.555 144.734 103.725 145.236 103.012C145.738 102.299 146.414 101.726 147.2 101.348C147.986 100.97 148.856 100.8 149.726 100.853C150.596 100.907 151.439 101.182 152.173 101.653C152.907 102.124 153.508 102.775 153.919 103.544C154.33 104.313 154.537 105.175 154.521 106.047C152.113 103.472 150.774 100.078 150.774 96.5525C150.774 88.7906 157.147 82.5 165.012 82.5C172.877 82.5 179.25 88.7906 179.25 96.5525C179.25 104.314 172.877 110.605 165.012 110.605C161.299 110.605 157.924 109.203 155.387 106.906C156.087 107.785 156.468 108.876 156.466 110C156.466 112.771 154.197 115.019 151.379 115.019C150.247 115.02 149.146 114.645 148.251 113.953H148.244Z" fill="white"/>
</g>
<defs>
<clipPath id="clip0_2_19164">
<rect width="220" height="220" fill="white" transform="translate(0.5)"/>
</clipPath>
</defs>
</svg>
