<svg width="221" height="220" viewBox="0 0 221 220" fill="none" xmlns="http://www.w3.org/2000/svg">
<g clip-path="url(#clip0_2_19160)">
<path d="M110.5 220C171.251 220 220.5 170.751 220.5 110C220.5 49.2487 171.251 0 110.5 0C49.7487 0 0.5 49.2487 0.5 110C0.5 170.751 49.7487 220 110.5 220Z" fill="#C87035"/>
<path d="M110.445 185.625C68.6794 185.598 34.875 151.731 34.875 109.904C34.875 68.1656 68.7825 34.3475 110.603 34.375C152.3 34.4025 186.18 68.2963 186.125 110.014C186.042 151.278 152.877 185.57 110.445 185.625ZM79.6244 144.581C79.8375 144.176 80.0025 143.853 80.1606 143.591C86.9256 131.656 93.7044 119.735 100.483 107.828C106.423 97.3913 112.349 86.9413 118.255 76.4913C118.337 76.2906 118.482 76.1219 118.668 76.0103C118.854 75.8988 119.071 75.8505 119.286 75.8725C126.189 75.9069 133.119 75.9069 140.014 75.9069H140.998C131.414 92.8194 121.899 109.615 112.308 126.507C112.652 126.534 112.844 126.534 113.03 126.534C130.348 126.534 147.653 126.541 164.95 126.562C165.534 126.562 165.72 126.349 165.851 125.84C168.472 116.593 168.72 106.835 166.572 97.4669C163.988 86.1231 158.316 76.5463 149.949 68.5369C146.194 64.9576 141.932 61.9528 137.299 59.62C125.79 53.7488 113.669 51.8856 100.964 54.12C88.3144 56.3681 77.6581 62.3425 68.92 71.7888C67.7719 73.0263 66.7338 74.3531 65.6406 75.6388C65.6681 75.7144 65.7231 75.7763 65.7506 75.845H115.113C114.838 76.3606 114.652 76.7319 114.439 77.0825C111.435 82.4175 108.389 87.725 105.412 93.0669C105.295 93.3295 105.097 93.5482 104.848 93.6915C104.598 93.8348 104.31 93.8953 104.024 93.8644C88.4725 93.8369 72.9212 93.83 57.3838 93.8369H56.4487C48.57 118.608 59.7006 149.676 87.62 162.106C114.652 174.178 142.998 163.068 156.287 144.526C130.747 144.574 105.193 144.595 79.6313 144.574L79.6244 144.581ZM166.545 157.63C176.136 146.974 184.661 129.443 184.124 108.384C183.698 91.0388 177.758 75.7969 166.655 62.3219C163.19 65.8144 159.808 69.2038 156.452 72.5931C174.053 93.7613 174.809 125.063 156.638 147.538L166.545 157.63Z" fill="white"/>
</g>
<defs>
<clipPath id="clip0_2_19160">
<rect width="220" height="220" fill="white" transform="translate(0.5)"/>
</clipPath>
</defs>
</svg>
