<svg width="221" height="220" viewBox="0 0 221 220" fill="none" xmlns="http://www.w3.org/2000/svg">
<g clip-path="url(#clip0_2_19156)">
<path d="M110.5 220C171.251 220 220.5 170.751 220.5 110C220.5 49.2487 171.251 0 110.5 0C49.7487 0 0.5 49.2487 0.5 110C0.5 170.751 49.7487 220 110.5 220Z" fill="#ECB244"/>
<path d="M104.285 136.441H147.577V159.472H120.936C121.376 166.059 121.603 172.171 122.043 178.75H99.6239V159.706H72.9764C72.9764 152.192 72.0896 144.671 73.4233 137.617C74.0902 133.856 78.0846 130.563 80.5252 127.277C88.9694 116.725 97.4808 106.226 106.059 95.7825C109.393 91.7812 112.721 88.0206 116.495 83.5588H74.9702V60.5275H99.6239V41.25H121.156V60.0531H148.024C148.024 67.8081 148.911 75.3294 147.577 82.3831C146.91 86.1437 142.916 89.4369 140.255 92.7231C131.811 103.275 123.3 113.774 114.721 124.218C111.372 128.401 107.892 132.477 104.285 136.441Z" fill="white"/>
</g>
<defs>
<clipPath id="clip0_2_19156">
<rect width="220" height="220" fill="white" transform="translate(0.5)"/>
</clipPath>
</defs>
</svg>
