<svg width="221" height="220" viewBox="0 0 221 220" fill="none" xmlns="http://www.w3.org/2000/svg">
<g clip-path="url(#clip0_2_19152)">
<path d="M110.5 220C171.251 220 220.5 170.751 220.5 110C220.5 49.2487 171.251 0 110.5 0C49.7487 0 0.5 49.2487 0.5 110C0.5 170.751 49.7487 220 110.5 220Z" fill="#183C87"/>
<path fill-rule="evenodd" clip-rule="evenodd" d="M34.875 107.353L65.7781 89.9044L96.6744 107.353V140.676L65.7781 158.125L34.875 140.676V107.353ZM124.319 107.353L155.222 89.9044L186.125 107.353V140.676L155.222 158.125L124.326 140.676V107.353H124.319ZM121.074 136.297L110.232 142.257L99.9262 136.599V104.706L71.7388 88.7837V77.2062L110.232 55L148.718 77.2062V89.1L121.074 104.706V136.304V136.297Z" fill="white"/>
</g>
<defs>
<clipPath id="clip0_2_19152">
<rect width="220" height="220" fill="white" transform="translate(0.5)"/>
</clipPath>
</defs>
</svg>
