<svg width="221" height="220" viewBox="0 0 221 220" fill="none" xmlns="http://www.w3.org/2000/svg">
<g clip-path="url(#clip0_2_19145)">
<path d="M110.5 220C171.251 220 220.5 170.751 220.5 110C220.5 49.2487 171.251 0 110.5 0C49.7487 0 0.5 49.2487 0.5 110C0.5 170.751 49.7487 220 110.5 220Z" fill="#00EAAB"/>
<path d="M171 65.7821L158.763 84.8259C162.667 92.4773 164.685 100.952 164.648 109.541C164.648 139.791 140.173 164.15 110.04 164.15C101.489 164.188 93.0545 162.17 85.4478 158.265L66.2803 170.619C78.6346 179.391 93.6428 184.706 109.923 184.706C151.372 184.706 185.087 151.108 185.087 109.541C185.087 93.1446 179.89 78.1365 171 65.7821Z" fill="white"/>
<path d="M110.039 147.059C118.843 147.059 127.369 143.976 134.138 138.347C140.907 132.717 145.491 124.895 147.095 116.238C135.343 113.68 123.185 113.623 111.409 116.07C99.6332 118.517 88.504 123.414 78.7441 130.442C82.1874 135.577 86.846 139.781 92.3057 142.681C97.7654 145.581 103.857 147.087 110.039 147.066V147.059Z" fill="white"/>
<path d="M128.513 107.456C135.092 107.456 141.438 108.151 147.68 109.54C147.676 99.5268 143.697 89.9251 136.617 82.845C129.537 75.7649 119.935 71.7857 109.923 71.7821C104.542 71.7864 99.2247 72.9432 94.3287 75.1746C89.4326 77.406 85.0713 80.6603 81.5382 84.7184C78.0051 88.7765 75.3823 93.5442 73.8461 98.7009C72.3099 103.858 71.8961 109.283 72.6325 114.613C63.1657 121.894 58.6625 127.552 58.4288 127.779C56.3872 121.954 55.3346 115.829 55.3144 109.656C55.3144 79.4064 79.7894 55.0414 109.923 55.0414C118.812 55.0414 127.124 57.1177 134.514 60.9333L153.565 48.5789C140.946 39.3168 125.693 34.3391 110.039 34.3752C100.166 34.3662 90.388 36.3042 81.2646 40.0783C72.1411 43.8525 63.8515 49.3887 56.87 56.3702C49.8885 63.3516 44.3523 71.6413 40.5782 80.7647C36.804 89.8882 34.866 99.6663 34.875 109.54C34.875 126.28 40.3063 141.639 49.5394 154.103C53.1144 147.641 57.3907 141.749 62.3544 136.435C62.3544 136.435 69.745 128.707 75.4032 124.781C90.8095 113.498 109.416 107.428 128.513 107.456Z" fill="white"/>
</g>
<defs>
<clipPath id="clip0_2_19145">
<rect width="220" height="220" fill="white" transform="translate(0.5)"/>
</clipPath>
</defs>
</svg>
