<svg width="221" height="220" viewBox="0 0 221 220" fill="none" xmlns="http://www.w3.org/2000/svg">
<g clip-path="url(#clip0_2_19138)">
<path d="M110.5 220C171.251 220 220.5 170.751 220.5 110C220.5 49.2487 171.251 0 110.5 0C49.7487 0 0.5 49.2487 0.5 110C0.5 170.751 49.7487 220 110.5 220Z" fill="#07BC9C"/>
<path fill-rule="evenodd" clip-rule="evenodd" d="M164.792 46.0281C160.88 45.0519 151.764 45.1825 148.965 49.0256C151.764 50.5863 153.716 52.9925 156.583 53.0613C159.45 53.13 162.77 50.3869 166.414 51.9544C164.854 51.9544 157.82 53.2606 157.367 55.4056C158.35 57.0213 159.532 58.5063 160.88 59.8331C162.709 61.3319 162.901 61.8544 165.637 60.3556C168.986 58.2412 171.514 55.047 172.801 51.3013C172.801 49.3488 173.385 50.6481 171.955 49.0256C169.853 47.447 167.391 46.4168 164.792 46.0281ZM128.059 49.4794C133.348 46.6576 139.494 45.8912 145.315 47.3275C144.752 41.055 141.819 35.233 137.113 31.0475C142.75 34.5537 146.717 40.1913 148.113 46.6744C151.31 46.1588 154.63 44.9213 157.69 44.4606C157.138 38.2258 154.393 32.3888 149.942 27.9881C147.79 25.9669 141.733 20.625 138.275 20.625C134.817 20.625 130.327 28.4419 129.028 31.6319C126.799 37.3229 126.457 43.5792 128.052 49.4794H128.059Z" fill="white"/>
<path fill-rule="evenodd" clip-rule="evenodd" d="M127.206 59.7037C126.037 56.9056 131.18 55.7987 132.747 55.9912C135.545 56.8162 138.11 58.2875 140.241 60.2881C144.339 63.3544 152.41 72.4087 158.343 70.2569C164.269 68.105 157.236 57.6206 153.977 54.8844C151.315 52.3742 148.103 50.5202 144.597 49.4699C141.092 48.4196 137.39 48.202 133.785 48.8344C130.499 49.8175 127.804 52.2031 126.429 55.3381C126.037 56.775 124.607 59.7037 127.213 59.7037H127.206Z" fill="white"/>
<path d="M154.431 98.778C150.788 96.5642 149.481 90.0467 147.206 86.4717C144.078 81.453 139.52 77.3555 136.783 72.1442C134.047 66.933 133.724 62.9592 129.035 60.4842C127.238 59.5371 125.237 59.0421 123.205 59.0421C121.174 59.0421 119.173 59.5371 117.375 60.4842C111.552 63.1242 105.426 65.0492 99.1358 66.218C96.3472 66.8785 93.6069 67.7284 90.9339 68.7617C88.703 70.0151 86.3711 71.0799 83.9627 71.9448C77.9677 72.7905 66.899 65.4342 67.9439 76.8261C67.9439 78.9161 70.089 80.023 69.4358 82.6905C68.7896 85.3648 65.9227 87.7092 64.5546 89.7923C61.7452 94.5058 59.5547 99.5616 58.0371 104.835C54.3359 116.779 55.0533 129.655 60.0583 141.114C62.4646 146.752 65.6752 152.018 69.5664 156.748C71.4708 158.969 73.1414 161.368 74.5852 163.912C75.6852 166.923 77.0602 169.824 78.6896 172.574C80.0978 174.344 81.9689 175.689 84.0951 176.459C86.2213 177.23 88.5195 177.396 90.7346 176.94C93.0109 176.158 95.1961 175.132 97.2521 173.88C100.764 172.484 104.44 171.541 108.19 171.075C121.875 168.93 134.357 162.008 143.425 151.537C147.721 146.353 151.053 140.441 153.263 134.081C154.547 130.534 155.484 126.871 156.061 123.143C156.391 120.799 155.676 114.865 157.367 113.312C158.467 112.26 161.08 112.005 161.863 111.022C162.457 109.728 162.913 108.376 163.225 106.987C164.462 103.144 157.236 100.084 154.438 98.778H154.431ZM159.381 108.094C158.405 110.307 154.569 111.614 152.871 113.958C150.436 118.35 147.189 122.24 143.301 125.419C139.384 127.46 134.878 128.069 130.56 127.141C126.242 126.214 122.384 123.807 119.651 120.338C116.767 116.735 115.205 112.254 115.223 107.64C115.223 104.058 119.135 95.0655 115.223 93.113C111.318 91.1605 109.496 97.4786 107.998 99.6305C105.376 103.982 101.391 107.346 96.6608 109.2C92.9807 110.446 89.0311 110.668 85.2347 109.842C81.4382 109.016 77.9377 107.174 75.1077 104.512C73.2154 101.819 71.9566 98.7334 71.4257 95.4855C70.8947 92.2376 71.1052 88.9117 72.0414 85.7567C72.1287 82.5425 71.845 79.329 71.1958 76.1798C71.1958 71.4911 75.3002 73.1823 78.6208 73.8355C86.8531 75.3015 94.6731 78.5233 101.549 83.2817C108.006 88.6459 115.75 92.2356 124.016 93.6973C129.551 94.2198 135.037 95.1548 140.434 96.5023C143.101 97.2861 145.576 98.5855 148.182 99.4998C150.932 100.394 153.6 101.542 156.13 102.951C157.89 103.728 160.426 105.289 159.45 107.832L159.381 108.094Z" fill="white"/>
</g>
<defs>
<clipPath id="clip0_2_19138">
<rect width="220" height="220" fill="white" transform="translate(0.5)"/>
</clipPath>
</defs>
</svg>
