<svg width="221" height="220" viewBox="0 0 221 220" fill="none" xmlns="http://www.w3.org/2000/svg">
<g clip-path="url(#clip0_2_19131)">
<path d="M110.5 220C171.251 220 220.5 170.751 220.5 110C220.5 49.2487 171.251 0 110.5 0C49.7487 0 0.5 49.2487 0.5 110C0.5 170.751 49.7487 220 110.5 220Z" fill="#49C1BF"/>
<path d="M62.375 50.0569L138.784 87.065L158.343 78.2512L82.2506 41.25L62.375 50.0569Z" fill="white" fill-opacity="0.304"/>
<path d="M138.784 86.9763L158.344 78.1694V97.8663L138.784 106.673V86.9763ZM138.784 178.304V116.862L158.344 107.959V169.497L138.784 178.304Z" fill="white" fill-opacity="0.646"/>
<path d="M62.375 50.0786V69.9955L115.264 95.6874L62.375 121.881V141.516L138.784 178.455V158.697L86.8913 133.459L138.784 106.777V87.0799L62.375 50.0786Z" fill="white"/>
</g>
<defs>
<clipPath id="clip0_2_19131">
<rect width="220" height="220" fill="white" transform="translate(0.5)"/>
</clipPath>
</defs>
</svg>
