<svg width="221" height="220" viewBox="0 0 221 220" fill="none" xmlns="http://www.w3.org/2000/svg">
<g clip-path="url(#clip0_2_19127)">
<path d="M110.5 220C171.251 220 220.5 170.751 220.5 110C220.5 49.2487 171.251 0 110.5 0C49.7487 0 0.5 49.2487 0.5 110C0.5 170.751 49.7487 220 110.5 220Z" fill="#00004D"/>
<path d="M107.097 43.1327C106.464 45.8139 104.567 54.2702 103.7 59.9352C103.356 62.2589 101.913 65.3595 105.941 67.0302C105.02 67.2089 104.738 67.3258 104.45 67.2639C101.576 66.9064 98.6403 66.4939 95.7665 66.1364C95.134 66.0745 94.3296 65.9576 93.7521 66.2533C89.9021 68.2814 88.1834 73.1077 90.129 77.2189C91.229 79.5427 91.5728 81.6876 91.1121 84.1352C91.0535 84.7693 91.1725 85.4073 91.4559 85.9776C93.6971 91.4639 94.1028 96.9433 92.3153 102.663C92.0265 103.557 92.2053 104.636 92.2603 105.585C92.3771 107.435 92.4871 109.284 92.659 111.126C89.8403 108.865 86.7465 106.836 84.3815 104.093C83.2057 102.712 82.3158 101.111 81.7635 99.3834C81.2112 97.6556 81.0074 95.8354 81.164 94.0283C81.219 93.3133 80.6484 92.4745 80.1878 91.8214C78.8609 89.8551 77.314 88.0676 76.2209 85.9776C74.6671 83.0008 72.7696 81.7495 69.6621 82.7051C68.1153 83.1795 66.6715 84.1902 65.3515 85.2076C64.2034 86.0326 63.2203 87.112 62.189 88.0677C62.0721 87.9439 61.9003 87.827 61.7903 87.7102C61.9621 87.2908 62.0171 86.8164 62.2509 86.397C63.8596 83.4202 63.7978 83.4752 61.5634 80.9726C57.2459 76.1464 53.5059 70.9627 51.8971 64.4039C51.0928 61.1314 50.1096 57.907 49.2571 54.6895C44.9396 60.052 44.369 79.3708 48.6246 86.9952C47.2978 80.2577 45.9778 73.8845 47.4696 67.3258C47.7584 68.8176 47.9303 70.2477 47.9921 71.7395C48.219 77.0402 49.484 82.052 51.7253 86.7545C52.1859 87.7652 53.5128 88.3633 54.489 89.0783C54.8328 89.3189 55.2934 89.4358 55.6921 89.6145C55.6371 89.8551 55.6371 90.0958 55.5753 90.2677C53.4509 90.1508 51.3815 89.9101 49.2503 89.8551C47.8753 89.7933 46.2665 89.4358 45.1734 90.0339C43.7296 90.8039 42.5815 92.3027 41.7771 93.7877C41.5503 94.2001 42.6984 95.8708 43.5646 96.5308C45.8609 98.2564 47.4146 100.161 47.0709 103.378C47.009 104.155 47.8753 105.53 48.6246 105.826C50.6871 106.603 51.2646 108.15 51.6084 110.116C51.8421 111.367 52.014 112.976 52.8184 113.691C55.4034 116.076 56.2078 118.936 56.2696 122.395C56.3246 124.595 57.4728 126.863 57.1909 129.008C56.9571 130.858 57.3009 132.226 58.0503 133.298H57.9953L58.1671 133.477C58.6278 134.192 59.2603 134.783 60.0028 135.326L61.5015 136.756C61.5015 136.756 64.0865 139.555 64.1415 142.298C64.2034 145.041 63.9696 145.391 64.774 147.839C65.5853 150.225 66.6715 152.129 67.0221 154.157C67.3659 156.185 66.6165 156.776 67.8265 158.09C69.0296 159.396 70.3565 160.29 71.7315 161.788C73.0584 163.335 74.9559 163.871 76.2209 165.185C77.4859 166.491 79.4934 168.938 81.0471 170.485C81.8515 171.324 82.9446 171.977 83.749 172.451C83.9828 172.692 84.0928 172.809 84.0378 172.933C82.9446 175.311 85.1859 175.256 86.0521 176.026C87.544 177.34 89.6753 178.171 90.7615 179.78C92.7209 182.702 95.2509 184.194 98.4134 185.088C98.7021 185.15 99.0459 185.205 99.1559 185.383C99.5615 185.865 99.8434 186.456 100.194 186.992C100.077 187.171 99.9053 187.35 99.7884 187.528C102.951 188.663 106.113 189.852 109.276 190.925C109.908 191.165 110.72 191.165 111.29 190.993C113.937 190.1 116.584 189.137 119.224 188.188C119.74 188.01 120.544 187.473 120.489 187.233C120.09 185.328 121.637 185.624 122.503 185.15C124.566 184.015 126.986 183.183 128.54 181.575C130.437 179.546 132.163 177.456 134.693 176.088C135.724 175.49 137.793 175.256 136.755 172.995C136.7 172.871 137.278 172.396 137.567 172.101C137.965 171.736 138.426 171.441 139.003 170.966C139.402 170.788 139.863 170.485 140.612 169.949C142.951 168.028 145.124 165.915 147.109 163.631C148.484 161.905 150.732 159.76 150.732 159.76C150.732 159.76 149.288 156.364 150.217 153.38L155.098 149.75C156.136 147.543 156.425 146.705 157.573 144.443C158.666 142.174 158.948 137.829 160.508 136.096C161.883 134.611 163.554 133.415 163.492 132.466C163.854 131.454 163.971 130.37 163.836 129.304C163.671 127.757 164.18 126.141 164.358 124.595C164.475 123.288 164.358 121.975 164.702 120.724C165.28 118.696 165.678 116.317 166.943 114.88C168.318 113.333 169.247 111.965 169.418 109.875C169.59 108.088 170.278 106.658 172.065 105.819C172.925 105.406 173.784 103.976 173.784 103.021C173.729 100.34 174.588 98.4352 176.775 97.0051C177.407 96.5926 177.875 95.8708 178.5 95.3964C179.532 94.6195 179.367 93.7258 178.789 92.7151C177.297 90.0339 175.049 89.0783 172.065 89.6214C169.817 90.0339 166.428 90.2677 165.218 90.2677C164.015 90.2677 164.874 89.3739 164.874 89.3739C169.13 89.257 169.645 85.7439 170.622 82.8839C171.433 80.4983 171.887 77.9958 172.292 75.4933C172.698 73.1077 172.698 71.9733 173.152 68.2745C173.612 64.5826 174.705 75.4314 172.98 84.3139C176.431 79.0683 175.338 60.052 171.488 54.4558C171.371 54.5727 171.254 54.6345 171.254 54.7514C171.082 55.4664 170.972 56.1814 170.8 56.8964C169.13 66.0126 165.678 74.1801 159.298 80.8558C156.94 83.2964 157.057 83.3583 158.666 86.5139C158.838 86.8164 158.838 87.2289 158.893 87.6483C157.518 86.9951 156.487 86.0395 155.448 85.1458C154.542 84.2704 153.469 83.5871 152.292 83.137C151.115 82.6868 149.86 82.4792 148.601 82.5264C145.851 82.5264 145.095 84.5476 144.29 86.5139C142.798 90.0889 139.292 92.2958 139.175 97.067C139.003 104.038 132.795 107.551 128.767 112.199C128.712 112.268 128.54 112.144 128.306 112.144C128.251 111.903 128.079 111.608 128.134 111.367C128.134 107.077 129.289 102.725 127.392 98.6139C127.275 98.3733 127.33 98.0158 127.392 97.782C128.134 91.7595 128.828 85.7989 129.633 79.8383C129.743 79.0683 130.148 78.3533 130.492 77.6383C132.507 73.3483 131.008 68.4601 126.931 66.3152C126.427 66.0868 125.87 66.0035 125.322 66.0745C123.074 66.3702 120.895 66.7895 118.708 67.0852C117.608 67.2639 116.467 67.2639 115.374 67.3258C115.312 67.147 115.257 66.9683 115.202 66.8445C117.038 66.2533 117.959 65.1258 117.56 63.0977L113.415 42.4726C113.305 41.9364 113.188 39.2551 113.82 40.6301C114.453 42.0601 116.467 48.1926 117.615 52.0701C118.708 55.8239 119.568 59.7014 120.544 63.5101C118.935 52.847 116.467 42.4727 110.369 32.9989C108.746 35.0328 107.447 37.3055 106.519 39.7364C105.04 44.0745 103.66 48.4458 102.38 52.847C101.404 56.2433 98.874 62.9189 99.9671 63.0908C101.053 63.2764 106.402 43.2495 106.746 41.8195C107.09 40.3895 107.729 40.4445 107.09 43.1258L107.097 43.1327Z" fill="white"/>
</g>
<defs>
<clipPath id="clip0_2_19127">
<rect width="220" height="220" fill="white" transform="translate(0.5)"/>
</clipPath>
</defs>
</svg>
