<svg width="221" height="220" viewBox="0 0 221 220" fill="none" xmlns="http://www.w3.org/2000/svg">
<g clip-path="url(#clip0_2_19123)">
<path d="M110.5 220C171.251 220 220.5 170.751 220.5 110C220.5 49.2487 171.251 0 110.5 0C49.7487 0 0.5 49.2487 0.5 110C0.5 170.751 49.7487 220 110.5 220Z" fill="#302C2C"/>
<path fill-rule="evenodd" clip-rule="evenodd" d="M107.035 185.625C105.179 185.432 103.323 185.261 101.466 185.041C91.4859 183.851 81.8478 180.661 73.1275 175.663C72.9969 175.594 72.88 175.491 72.6256 175.319C87.7919 163.976 102.889 152.701 118.069 141.357L122.641 145.805C125.185 148.294 127.743 150.755 130.238 153.278C130.857 153.897 131.304 153.89 132.026 153.519C139.586 149.745 146.045 144.086 150.781 137.088L151.516 136.001C151.729 136.249 151.929 136.448 152.094 136.668C157.367 143.694 162.633 150.721 167.927 157.726C168.388 158.331 168.333 158.689 167.844 159.239C155.586 173.168 140.351 181.748 121.988 184.683C119.678 185.054 117.334 185.192 115.003 185.446C114.694 185.481 114.384 185.563 114.082 185.625H107.035ZM113.704 34.375C114.982 34.5056 116.268 34.6431 117.554 34.76C128.389 35.7913 138.522 39.0019 147.962 44.385C148.099 44.4675 148.216 44.5638 148.443 44.7288L102.257 77.8594C101.645 77.2819 101.054 76.7319 100.469 76.1613C97.2244 72.9987 93.9656 69.8431 90.7413 66.6531C90.2256 66.1444 89.8338 66.0894 89.1875 66.4125C81.4935 70.2095 74.9278 75.9551 70.1438 83.0775L69.4563 84.1088L52.4888 61.5037C54.2006 59.6888 55.7819 57.8806 57.4938 56.21C68.6519 45.3269 81.9 38.4038 97.2519 35.6194C100.208 35.0831 103.226 34.9044 106.217 34.5538C106.554 34.5194 106.891 34.4369 107.221 34.375H113.697H113.704ZM44.8988 72.4213L79.2394 117.439L72.3094 124.547C70.5838 126.314 68.8719 128.102 67.1119 129.841C66.6169 130.336 66.5963 130.714 66.8988 131.319C70.6904 139.015 76.4342 145.581 83.5569 150.363C83.7975 150.514 84.0381 150.673 84.265 150.844C84.3063 150.872 84.3269 150.941 84.4506 151.174L62.0313 167.991C48.625 156.447 39.9281 142.223 36.4356 124.974C32.6956 106.507 35.7275 89.0588 44.9056 72.4213H44.8988ZM142.352 102.465L148.663 95.9131C150.423 94.0844 152.156 92.235 153.957 90.4544C154.521 89.8975 154.514 89.4781 154.184 88.8181C150.368 81.0301 144.556 74.3927 137.34 69.5819C137.086 69.41 136.838 69.2244 136.405 68.915L158.948 52.0025C171.715 62.9338 180.192 76.4088 184.083 92.6681C188.944 112.963 184.613 133.038 176.198 147.173L142.352 102.465Z" fill="white"/>
</g>
<defs>
<clipPath id="clip0_2_19123">
<rect width="220" height="220" fill="white" transform="translate(0.5)"/>
</clipPath>
</defs>
</svg>
