<svg width="220" height="221" viewBox="0 0 220 221" fill="none" xmlns="http://www.w3.org/2000/svg">
<g clip-path="url(#clip0_4_3923)">
<path d="M110 220.5C170.751 220.5 220 171.251 220 110.5C220 49.7487 170.751 0.5 110 0.5C49.2487 0.5 0 49.7487 0 110.5C0 171.251 49.2487 220.5 110 220.5Z" fill="#186C9D"/>
<path fill-rule="evenodd" clip-rule="evenodd" d="M132.592 161.82L132.585 161.833L125.52 161.744H125.5L82.6974 102.896L66.8716 161.539L47.666 161.457L71.8237 71.8014C73.0496 66.1547 78.1817 60.9187 84.2417 59.5089C85.2838 59.2698 86.3514 59.1571 87.4207 59.1734V59.1666L94.4923 59.2145L94.4714 59.283L94.4991 59.2555L137.301 118.097L153.134 59.4541L172.333 59.55L148.182 149.185C146.963 154.838 141.831 160.074 135.764 161.477C134.726 161.725 133.66 161.84 132.592 161.82ZM90.2674 74.8814L86.9221 87.27L86.929 87.263L129.731 146.125L133.077 133.737L90.2674 74.8814Z" fill="white"/>
</g>
<defs>
<clipPath id="clip0_4_3923">
<rect width="220" height="220" fill="white" transform="translate(0 0.5)"/>
</clipPath>
</defs>
</svg>
