<svg width="220" height="221" viewBox="0 0 220 221" fill="none" xmlns="http://www.w3.org/2000/svg">
<g clip-path="url(#clip0_4_5969)">
<path d="M110 220.5C170.751 220.5 220 171.251 220 110.5C220 49.7487 170.751 0.5 110 0.5C49.2487 0.5 0 49.7487 0 110.5C0 171.251 49.2487 220.5 110 220.5Z" fill="#E7EFF3"/>
<path fill-rule="evenodd" clip-rule="evenodd" d="M151.283 39.8535C145.319 44.1336 139.355 48.4139 133.392 52.5081C125.363 58.1931 117.333 63.9923 109.394 69.7268L109.384 69.7343C107.191 71.3181 105.005 72.8972 102.827 74.4674C101.523 75.3978 100.591 75.5839 99.4726 74.2813C97.7953 72.5135 96.0714 70.8385 94.3475 69.1638C92.6236 67.489 90.8995 65.8139 89.2222 64.046C88.2905 63.1156 87.3586 62.9293 86.054 63.4878C78.0402 67.5818 71.7036 73.3507 66.4854 80.6085C66.1127 80.9807 65.74 81.539 65.3673 82.0972C64.1336 80.4802 62.9315 78.9272 61.7484 77.3982C60.072 75.2316 58.433 73.1135 56.7942 70.9315C55.0749 68.6783 53.4178 66.4251 51.7867 64.2077C50.5888 62.5792 49.405 60.9697 48.2212 59.3936C47.2895 58.091 47.103 57.1604 48.4076 55.8578C62.7581 40.0396 80.4629 30.7347 101.709 28.5017C118.482 26.6407 134.51 29.9904 149.419 37.9925C149.699 38.1786 149.979 38.3181 150.258 38.4578C150.538 38.5973 150.817 38.7369 151.097 38.9229C151.097 39.4814 151.097 39.6675 151.283 39.8535ZM77.2601 158.821C78.731 157.714 80.229 156.587 81.7675 155.419C81.3715 155.156 81.0221 154.915 80.6947 154.69C80.0979 154.279 79.5736 153.919 78.9721 153.558C72.2628 148.534 66.8581 142.392 62.9443 134.949C62.1989 133.646 62.3853 132.716 63.5035 131.599C67.4171 127.877 71.1445 123.969 74.8716 120.061C75.1444 119.789 75.3179 119.516 75.5371 119.171C75.6174 119.044 75.704 118.908 75.8037 118.758C69.6536 110.663 63.4569 102.568 57.2601 94.4726C51.0634 86.3775 44.8666 78.2824 38.7165 70.1871C38.6072 70.2416 38.5141 70.2803 38.4369 70.3122C38.2506 70.3892 38.1573 70.4279 38.1573 70.5593C38.0642 70.7454 37.9245 70.978 37.7846 71.2107C37.6449 71.4433 37.505 71.676 37.4119 71.8621C28.4661 88.7968 25.4844 106.662 28.839 125.458C32.1936 144.067 41.1392 159.699 55.3032 172.354C56.7942 173.657 57.7261 173.657 59.0307 172.54C60.6147 171.331 62.1989 170.167 63.7831 169.004C65.3671 167.841 66.9513 166.678 68.5354 165.468C71.4059 163.225 74.2776 161.065 77.2601 158.821ZM173.265 163.408C167.118 155.224 160.971 147.041 155.01 139.043C154.731 139.229 154.544 139.322 154.451 139.368C154.403 139.392 154.38 139.404 154.381 139.41C154.383 139.415 154.406 139.415 154.451 139.415C154.358 139.601 154.218 139.787 154.079 139.973C153.939 140.159 153.799 140.346 153.706 140.532C149.233 147.045 143.456 152.442 136.56 156.35C136.056 156.63 135.617 156.879 135.231 157.099C133.717 157.961 133.029 158.353 132.439 158.239C131.948 158.145 131.525 157.701 130.75 156.889C130.328 156.447 129.803 155.896 129.105 155.233C127.311 153.536 125.518 151.792 123.7 150.023L123.696 150.02C121.927 148.299 120.134 146.555 118.296 144.812C108.307 152.208 98.3861 159.605 88.4106 167.042L88.3873 167.059C81.8055 171.966 75.2 176.891 68.5354 181.845C87.3586 192.267 106.741 195.429 127.242 191.15C145.692 187.241 160.974 177.937 173.275 163.421L173.265 163.408ZM170.665 137.182C174.206 141.834 177.747 146.487 181.661 151.511C182.22 150.208 182.779 149.278 183.339 148.534C189.675 136.065 192.843 122.852 192.471 108.895C191.539 84.8888 182.034 64.9764 164.329 48.9722C163.024 47.6696 162.092 48.0418 160.974 48.9722C157.433 51.6707 153.892 54.3224 150.351 56.9743C146.81 59.6262 143.269 62.2781 139.728 64.9764C139.561 65.1438 139.355 65.311 139.13 65.4953C138.853 65.7208 138.545 65.9718 138.237 66.2792C138.715 66.5177 139.116 66.8329 139.49 67.1264C139.7 67.2907 139.9 67.4483 140.101 67.5818C147.369 72.7925 152.96 79.306 157.061 87.122C157.806 88.4246 157.433 89.355 156.501 90.2856C154.731 92.0535 153.007 93.8216 151.283 95.5894C149.559 97.3573 147.835 99.1252 146.065 100.893C144.76 102.196 144.76 103.126 145.878 104.615C151.743 112.162 157.516 119.801 163.261 127.403C165.733 130.672 168.199 133.935 170.665 137.182Z" fill="#231815"/>
</g>
<defs>
<clipPath id="clip0_4_5969">
<rect width="220" height="220" fill="white" transform="translate(0 0.5)"/>
</clipPath>
</defs>
</svg>
