<svg width="220" height="221" viewBox="0 0 220 221" fill="none" xmlns="http://www.w3.org/2000/svg">
<g clip-path="url(#clip0_4_5972)">
<path d="M110 220.5C170.751 220.5 220 171.251 220 110.5C220 49.7487 170.751 0.5 110 0.5C49.2487 0.5 0 49.7487 0 110.5C0 171.251 49.2487 220.5 110 220.5Z" fill="#EDF0F4"/>
<path d="M72.3288 118.171L76.0876 89.9294L43.4844 67.2962L73.2735 77.3867L80.3087 66.5926L105.997 50.6528L162.621 81.849L165.556 129.447L140.329 164.503L120.389 167.558L130.701 148.684V130.513L123.204 116.322L115.585 111.276L103.867 123.357V136.141L94.7209 144.704L83.1027 146.111L77.9569 149.025L69.5146 146.332L65.997 133.669L72.3288 124.764V118.171Z" fill="white"/>
<path d="M124.392 67.0551C118.181 65.7686 111.387 66.1102 111.387 66.1102C111.387 66.1102 109.155 76.4219 95.3262 79.1355C95.4266 79.1355 113.598 85.3466 124.392 67.0551Z" fill="#94A6C3"/>
<path d="M130.02 160.624C137.517 154.754 143.145 146.674 145.738 137.528C145.859 137.186 146.904 136.583 147.608 136.121C148.773 135.417 149.959 134.834 150.181 133.89C150.643 131.196 150.884 128.382 150.884 125.568C150.884 124.523 149.819 123.457 148.774 122.412C147.949 121.709 147.125 120.885 147.125 120.302C145.959 109.628 141.035 99.6582 133.175 92.4019L132.351 93.226C139.969 100.382 144.894 110.111 145.96 120.422C146.08 121.367 147.005 122.291 147.949 123.236C148.774 123.94 149.718 125.005 149.718 125.468C149.718 128.161 149.477 130.854 149.015 133.548C148.894 134.01 147.849 134.493 147.025 134.955C145.859 135.538 144.794 136.121 144.573 137.066C141.758 147.035 135.306 155.719 126.743 161.347C128.271 158.071 133.075 147.397 135.648 141.99L135.186 124.643L120.291 110.231L111.849 111.397L102.582 126.412C102.582 126.412 106.924 131.92 100.813 138.372C94.8436 144.704 90.14 146.111 90.14 146.111L85.7983 143.759C87.0847 142.111 89.6776 139.658 91.6675 138.01C95.0647 135.196 98.4617 134.955 98.4617 131.92C98.6023 125.568 91.7882 127.317 91.7882 127.317L89.3159 129.668L88.2705 138.352L83.1247 144.804L82.5419 144.684L74.0996 142.814C74.0996 142.814 79.2656 140.121 80.0897 137.066C80.9137 134.131 78.4413 124.402 78.3209 123.819C78.4413 123.94 80.7931 125.93 81.8385 129.206C83.7077 124.04 86.1802 119.116 86.8836 118.653C87.5873 118.191 97.0748 113.146 97.0748 113.146L93.9189 121.467L96.2707 120.181L101.899 106.352C101.899 106.352 107.407 103.658 111.507 103.658C118.884 103.538 129.798 94.5124 124.874 78.3314C126.281 78.9142 150.663 91.1154 154.884 115.035C158.04 133.427 147.608 150.653 130.02 160.624Z" fill="#94A6C3"/>
<path d="M102.121 69.6279C104.815 66.452 103.769 61.7686 103.769 61.7686L95.9099 73.3868C95.7892 73.3868 98.7039 73.5074 102.121 69.6279Z" fill="#1B314F"/>
<path d="M75.7242 133.066L76.6689 128.382C76.6689 128.382 72.7896 135.176 72.4478 136.121C72.0861 137.186 72.6891 139.056 74.1966 138.935C75.7242 138.814 77.5936 136.583 77.5936 134.955C77.5936 132.844 75.7242 133.066 75.7242 133.066Z" fill="#1B314F"/>
<path fill-rule="evenodd" clip-rule="evenodd" d="M145.375 58.4921C145.375 58.4921 151.244 58.7333 157.335 59.437C143.606 48.6428 130.601 45.4869 120.048 45.4869C105.964 45.4869 96.2784 51.1129 95.145 51.7712L95.0629 51.8187L99.6459 44.5422C99.6459 44.5422 81.3543 42.7734 74.9019 62.1303C73.2537 58.0299 71.7462 52.0398 71.7462 52.0398C71.7462 52.0398 62.2385 60.3817 66.7009 74.2109C55.7863 70.2309 40.2083 64.7032 39.6053 64.6027C38.781 64.4821 38.5399 64.844 38.5399 64.844C38.5399 64.844 38.2987 65.1857 39.0021 65.7887C40.3087 66.8137 64.9321 85.005 70.3391 88.5226C69.1733 92.7437 69.1733 94.7336 70.3391 96.7237C71.9875 99.417 72.0879 100.824 71.8668 102.814C71.6256 104.804 69.515 122.05 69.0527 124.161C68.8649 125.018 67.942 126.762 66.9265 128.682C65.4403 131.491 63.7554 134.675 63.8869 136C64.128 138.231 67.1632 147.719 69.8767 148.784C71.8668 149.488 76.7915 151.015 80.0679 151.015C81.2337 151.015 82.299 150.774 82.7614 150.312C84.7513 148.563 85.3341 148.201 86.7412 148.201H87.0829C87.3491 148.201 87.6406 148.227 87.9571 148.254C88.3336 148.286 88.746 148.322 89.1935 148.322C91.0629 148.322 93.5354 147.96 95.284 146.332C96.4916 145.125 98.1152 143.709 99.644 142.376C101.372 140.869 102.98 139.468 103.726 138.593C105.495 136.362 106.42 133.327 105.957 130.272C105.596 127.457 107.123 124.985 108.892 122.533C111.123 119.598 115.224 114.332 115.224 114.332C123.324 120.402 128.37 129.669 128.37 139.98C128.37 158.272 112.43 173.046 92.7313 173.046C89.676 173.046 86.7614 172.704 83.8266 172.001C92.8519 175.156 100.47 176.222 106.701 176.222C119.947 176.222 126.983 171.418 126.983 171.418C126.983 171.418 124.53 174.594 120.53 178.212H120.651C142.581 175.156 153.254 157.106 153.254 157.106C153.254 157.106 152.43 162.975 151.385 166.955C179.863 145.543 175.84 118.879 175.522 116.773C175.514 116.722 175.509 116.685 175.506 116.663C175.622 116.828 176.364 117.731 177.27 118.833L177.272 118.835C178.246 120.019 179.409 121.434 180.189 122.412C184.893 74.0902 145.375 58.4921 145.375 58.4921ZM100.47 135.659C100.095 136.131 98.7153 137.384 97.4565 138.527C97.1632 138.793 96.8766 139.054 96.6106 139.297C96.1513 139.717 95.6791 140.137 95.2108 140.553C94.2449 141.412 93.2952 142.257 92.5102 143.056C92.0478 143.518 91.1031 143.759 89.696 143.759H88.4095H87.7061H87.2437H86.1784C87.9474 141.407 93.093 136.02 94.862 134.855C96.9725 133.448 98.0378 132.04 96.7312 129.588C95.4448 127.116 92.0478 127.719 92.0478 127.719C92.0478 127.719 94.0379 126.895 95.8067 126.895C93.5755 126.312 90.7613 126.895 89.4749 128.181C88.5375 129.038 88.3316 131.359 88.1263 133.674C88.0234 134.834 87.9208 135.992 87.7263 136.965C87.2023 139.711 85.5418 141.223 82.9928 143.544L82.9911 143.546C82.7046 143.807 82.4067 144.078 82.0979 144.362C80.4498 145.89 79.2839 146.352 78.3392 146.352C76.3491 146.01 73.9975 145.407 72.3492 144.824C71.1834 143.297 69.4146 138.252 68.9522 136.141C69.2004 135.294 70.0111 133.757 70.7058 132.44C70.9672 131.945 71.2121 131.48 71.4045 131.096L71.6063 130.71C72.8906 128.254 73.6474 126.806 73.8769 125.468C74.3391 123.478 75.8668 111.156 76.4498 106.01C77.9773 108 80.0879 111.297 79.6055 113.407C83.0025 108.603 80.5502 103.9 79.3642 102.03C78.3191 100.161 76.912 96.4019 78.0778 92.4221C79.2438 88.4421 83.4649 77.4069 83.4649 77.4069C83.4649 77.4069 84.8719 79.8792 86.8618 79.3968C88.8517 78.9345 104.912 54.7735 104.912 54.7735C104.912 54.7735 109.254 64.261 104.671 71.1958C99.9876 78.1104 95.4046 79.3968 95.4046 79.3968C95.4046 79.3968 101.857 80.5626 107.827 76.2209C110.279 81.9697 112.631 87.9396 112.751 88.7637C112.668 88.9549 112.351 89.7075 111.909 90.7595L111.907 90.7631C110.442 94.2472 107.599 101.008 107.244 101.548C107.003 101.789 105.375 102.251 104.189 102.492C102.199 103.075 101.033 103.437 100.55 103.779C99.7263 104.483 95.9675 114.794 94.2186 119.839C92.1081 120.422 89.9976 121.608 88.4699 123.94C89.2941 123.357 91.8668 122.995 93.7565 122.774C95.4046 122.653 100.43 125.347 101.736 130.392V130.633C101.998 132.483 101.415 134.251 100.47 135.659ZM90.4616 132.888C90.3967 134.023 90.2911 135.866 89.4549 137.066C89.676 136.824 91.3242 135.056 92.1684 134.251C92.5366 133.915 92.9525 133.651 93.3498 133.399C94.2108 132.852 94.9826 132.362 94.9826 131.317C94.9826 129.689 92.7514 129.327 91.8067 129.568C90.8644 129.789 90.642 131.309 90.5212 132.134L90.5203 132.141C90.4942 132.318 90.4794 132.576 90.4616 132.888ZM136.229 114.653C137.395 108.683 137.516 103.518 137.174 99.2966C141.737 105.387 144.551 112.784 145.375 120.402C145.496 121.347 146.42 122.272 147.365 123.216C148.189 123.92 149.134 124.865 149.134 125.447C149.134 128.141 148.892 130.834 148.43 133.548C148.309 133.89 147.264 134.493 146.44 134.955C145.274 135.538 144.209 136.121 143.988 137.066C141.415 146.091 135.887 154.071 128.51 159.699C139.405 148.322 144.671 129.548 136.229 114.653ZM144.912 137.407C142.34 146.674 136.47 154.875 128.852 160.744C145.033 153.005 156.169 136.463 156.169 117.467C156.169 92.7437 137.395 72.3414 113.355 69.7485C112.551 71.035 111.726 72.2008 110.902 73.1455L110.915 73.1769C112.673 77.5417 117.234 88.8656 117.234 89.4472C117.234 90.1506 115.003 95.8794 114.761 96.1205C114.54 96.2411 111.847 96.4824 110.782 96.4824C109.616 99.2966 108.45 101.99 108.209 102.352C107.847 102.814 106.802 103.176 104.571 103.759C104.383 103.813 104.181 103.87 103.973 103.929C102.869 104.241 101.598 104.601 101.395 104.804C100.812 105.508 97.6358 113.829 95.5253 119.699C98.3394 119.216 100.812 119.799 101.395 120.04C105.978 111.357 109.596 106.673 110.54 106.673C110.637 106.663 110.839 106.671 111.129 106.682C113.685 106.78 123.064 107.138 126.963 97.7688C131.12 87.6125 125.275 78.9383 124.867 78.3335C124.861 78.3242 124.856 78.3168 124.852 78.3113C124.856 78.3133 124.862 78.3163 124.87 78.3205C125.39 78.5731 134.498 82.9982 136.812 96.8441C142.078 103.538 145.475 111.618 146.42 120.181C146.42 120.614 146.941 121.179 147.447 121.73C147.623 121.921 147.798 122.11 147.948 122.292C148.993 123.337 150.058 124.402 150.058 125.447C150.058 128.262 149.817 131.076 149.355 133.769C149.134 134.714 147.948 135.417 146.782 136C146.648 136.088 146.502 136.181 146.352 136.276C145.714 136.682 145.01 137.131 144.912 137.407Z" fill="#1B314F"/>
<path d="M97.6558 97.4271C99.8871 94.8542 98.7211 90.0502 94.6005 89.2261C95.6659 86.7738 97.1734 81.8491 97.1734 81.8491C97.1734 81.8491 85.2135 100.603 84.1683 100.965C83.1029 101.327 82.0578 97.206 82.0578 97.206C79.8266 105.769 85.8166 106.935 86.5201 104.241C89.7964 103.397 95.4246 99.8794 97.6558 97.4271Z" fill="#1B314F"/>
<path d="M87.4414 101.99L93.5319 91.5576C93.5319 91.5576 97.0495 93.3266 95.2807 96.1406C93.0697 99.4171 87.4414 101.99 87.4414 101.99Z" fill="#FFD923"/>
<path d="M162.841 150.312C161.072 152.664 159.082 155.116 156.75 157.468C171.866 128.382 157.453 101.769 156.871 100.724C157.936 101.789 158.981 102.955 159.926 104C171.524 116.884 172.931 136.241 162.841 150.312Z" fill="#D82122"/>
<path d="M176.91 112.905C171.623 98.7137 164.126 86.6331 147.603 75.7385C131.663 65.1857 114.538 66.0098 113.593 66.1304C113.472 66.1304 113.352 66.1304 113.352 66.1304C113.935 65.8893 114.517 65.7687 115.1 65.6682C118.739 64.5022 123.422 63.5575 128.125 62.9747C140.568 61.1857 153.111 65.4068 161.674 74.4521C161.794 74.5727 161.794 74.5727 161.915 74.6933C171.644 85.0049 176.689 97.8894 176.91 112.905Z" fill="#D82122"/>
<path d="M143.846 54.8537C126.378 51.5773 115.122 53.2055 107.022 56.2608C106.78 55.316 105.956 53.4468 105.253 51.9191C102.82 54.8537 100.227 58.3713 98.5992 60.6025C94.1368 63.6579 92.2676 66.5925 92.2676 66.5925C94.8405 57.7885 102.358 51.2356 111.504 49.5874C114.077 49.1251 116.891 48.8838 119.946 48.8838C128.027 49.0044 136.107 50.9945 143.846 54.8537Z" fill="#D82122"/>
<path d="M79.2473 77.3668C65.5388 76.9044 70.1016 60.9445 70.3428 60.0198C70.3428 60.1404 71.2674 72.5627 79.2473 77.3668Z" fill="#D82122"/>
<path d="M92.7309 48.6426C82.178 54.9744 84.2885 70.09 84.2885 70.09C74.1981 54.7533 91.9068 49.0045 92.7309 48.6426Z" fill="#D82122"/>
<path d="M75.3834 81.5877C76.0868 82.1707 76.7905 83.2361 75.9662 84.7636C75.504 85.5879 74.8004 85.4673 73.735 85.0049C72.3279 84.3015 63.8858 79.3768 56.2676 74.3314C64.9512 77.3869 73.735 80.6632 75.1421 81.3667C75.1421 81.3667 75.2627 81.4873 75.3834 81.5877Z" fill="white"/>
</g>
<defs>
<clipPath id="clip0_4_5972">
<rect width="220" height="220" fill="white" transform="translate(0 0.5)"/>
</clipPath>
</defs>
</svg>
