<svg width="220" height="221" viewBox="0 0 220 221" fill="none" xmlns="http://www.w3.org/2000/svg">
<g clip-path="url(#clip0_4_5988)">
<path d="M110 220.5C170.751 220.5 220 171.251 220 110.5C220 49.7487 170.751 0.5 110 0.5C49.2487 0.5 0 49.7487 0 110.5C0 171.251 49.2487 220.5 110 220.5Z" fill="url(#paint0_linear_4_5988)"/>
<path fill-rule="evenodd" clip-rule="evenodd" d="M186.566 109.05C185.301 109.05 184.26 110.091 184.26 111.355C184.26 113.066 184.223 114.665 184.111 116.19C183.776 119.388 182.735 122.214 181.322 123.664C180.058 125.077 177.864 125.189 176.45 123.887C176.423 123.86 176.394 123.833 176.363 123.805C176.271 123.719 176.172 123.628 176.116 123.516C173.922 121.061 173.252 115.632 173.736 111.578C173.847 110.314 172.881 109.199 171.616 109.124C170.426 109.013 169.348 109.868 169.162 111.058C168.939 113.178 168.939 115.297 169.162 117.38C169.162 117.566 169.125 117.752 169.087 117.937C168.083 125.933 164.662 127.606 161.985 127.606C161.129 127.569 160.274 127.42 159.493 127.123L159.642 126.974C162.208 124.073 163.77 120.28 163.77 116.896C163.77 114.702 163.137 112.806 161.91 111.43C160.943 110.314 159.196 109.013 156.146 109.013C153.618 109.013 151.312 110.314 150.01 112.471C147.965 115.669 147.779 120.392 149.527 124.259C150.01 125.263 150.605 126.23 151.349 127.048C150.382 127.383 149.378 127.569 148.337 127.606C145.101 127.606 140.453 123.664 137.776 120.801C140.713 118.458 143.317 115.744 145.473 112.657C146.217 111.616 145.957 110.202 144.916 109.459C143.874 108.715 142.461 108.975 141.718 110.017C139.561 113.14 136.846 115.855 133.759 118.086V111.355C133.722 110.091 132.644 109.087 131.379 109.161C130.19 109.199 129.223 110.165 129.185 111.355L129.148 124.817C129.111 124.78 129.371 131.251 129.706 131.548H129.743C130.078 131.883 130.524 132.069 130.97 132.143C131.119 132.18 131.305 132.18 131.454 132.18C132.718 132.18 133.759 131.139 133.759 129.875V123.107C136.288 125.933 142.499 132.18 148.337 132.18C150.828 132.18 153.32 131.548 155.477 130.321C157.485 131.474 159.716 132.106 162.022 132.18C166.41 132.18 169.794 129.763 171.839 125.412C172.1 125.821 172.397 126.193 172.732 126.565C174.256 128.35 176.488 129.354 178.83 129.354C179.239 129.354 180.244 129.205 180.69 128.759C180.443 129.005 180.262 129.611 180.103 130.143C180.022 130.414 179.947 130.666 179.872 130.841L178.868 132.961C178.161 134.374 177.38 135.713 176.488 137.015C174.74 139.655 172.657 142.109 170.315 144.229C165.146 148.877 158.935 151.481 152.167 152.708C148.634 153.34 145.027 153.526 141.457 153.303C137.776 153.08 134.131 152.559 130.524 151.778C123.236 150.253 116.021 147.799 108.881 145.01C104.753 143.411 100.626 141.663 96.4978 139.878C98.6547 137.87 100.774 135.787 102.782 133.63C105.646 130.544 108.361 127.346 110.852 123.962C113.418 120.541 115.724 116.933 117.769 113.178C119.889 109.31 121.636 105.257 122.975 101.092C124.388 96.7036 125.206 92.1667 125.429 87.5555C125.504 85.1754 125.392 82.7584 125.095 80.3783C124.76 77.9611 124.239 75.6183 123.459 73.3127C121.971 68.7759 119.777 64.4993 116.914 60.6691C113.939 56.6528 110.146 53.3061 105.795 50.8516C101.407 48.3973 96.5721 46.9097 91.5519 46.5007C90.3246 46.3891 89.1348 46.3148 87.9448 46.3148C87.3497 46.3148 86.7548 46.3148 86.1597 46.352L85.2672 46.3891C84.9997 46.3891 84.7324 46.4191 84.4378 46.4523L84.3375 46.4635C81.8832 46.6494 79.4288 47.0956 77.0489 47.765C72.3633 49.1411 67.9752 51.335 64.0706 54.31C60.3889 57.1363 57.1164 60.4087 54.3275 64.1275C52.9514 65.9124 51.7243 67.7718 50.5715 69.7056C49.9764 70.6725 49.4558 71.6394 48.9353 72.6433C48.675 73.1268 48.4146 73.6474 48.1543 74.1681L47.7825 74.9861L47.5966 75.3951L47.3733 75.9158C45.7372 79.7832 47.5966 84.2457 51.464 85.882C55.22 87.4438 59.5336 85.8078 61.2815 82.1261L61.4674 81.7543L61.6533 81.3824L61.9136 80.8618C62.0066 80.6759 62.0995 80.4992 62.1925 80.3226C62.2854 80.1459 62.3786 79.9691 62.4713 79.7832C62.8433 79.0396 63.2896 78.3331 63.7358 77.6265C64.6283 76.2134 65.5579 74.8002 66.5993 73.4988C68.5701 70.9328 70.8385 68.6272 73.4044 66.6562C75.7845 64.8341 78.462 63.4954 81.3253 62.6399C82.7013 62.2309 84.1516 62.0078 85.5647 61.8963C85.6577 61.8963 85.7506 61.887 85.8436 61.8776C85.9365 61.8683 86.0295 61.8591 86.1224 61.8591L86.7175 61.8219C86.8402 61.8219 86.9669 61.8179 87.0948 61.8138C87.3552 61.8054 87.621 61.797 87.8703 61.8219C88.6513 61.8219 89.3949 61.8591 90.1387 61.9334C93.0022 62.1565 95.754 62.9747 98.2455 64.3506C100.737 65.7637 102.931 67.6603 104.642 69.9287C106.501 72.4202 107.914 75.172 108.881 78.11C109.365 79.5231 109.699 81.0105 109.922 82.498C110.146 84.0226 110.22 85.5474 110.183 87.072C110.071 90.3073 109.513 93.5426 108.546 96.6292C107.505 99.9389 106.204 103.1 104.567 106.149C101.146 112.508 96.9441 118.421 92.0725 123.776C88.9487 127.272 85.5647 130.544 81.9947 133.556C80.1725 132.775 78.3132 131.994 76.4166 131.251C72.5492 129.652 68.6073 128.313 64.591 127.197C62.3599 126.602 60.1287 126.193 57.8229 125.933C56.5214 125.821 55.257 125.784 53.9555 125.821C52.4681 125.896 51.0178 126.156 49.5674 126.565C47.9312 127.048 46.3694 127.829 44.9934 128.871C43.5803 129.949 42.3903 131.251 41.4606 132.738C40.6424 134.04 40.0103 135.49 39.564 136.977C39.1922 138.279 38.8947 139.581 38.746 140.956C38.5971 142.184 38.5229 143.374 38.4857 144.601C38.4484 145.939 38.5599 147.278 38.746 148.617C38.9691 150.179 39.4153 151.666 40.0475 153.117C40.754 154.79 41.7954 156.315 43.0969 157.579C44.4356 158.881 45.9974 159.885 47.7081 160.591C49.1956 161.186 50.7947 161.595 52.3937 161.744C55.0339 161.967 57.7115 161.818 60.3146 161.224C65.0745 160.219 69.1652 158.509 73.0326 156.575C76.8258 154.641 80.4701 152.447 83.9657 150.03C84.8954 149.398 85.8251 148.728 86.7548 148.022C92.8163 150.439 98.9521 152.856 105.274 155.013C112.86 157.616 120.67 159.885 128.814 161.224C132.941 161.93 137.106 162.302 141.271 162.339C145.548 162.376 149.787 161.93 153.952 160.963C162.468 159.029 170.129 154.418 175.855 147.836C178.607 144.675 180.95 141.18 182.884 137.461C184.557 134.226 186.082 130.916 187.087 127.309C188.018 123.936 188.397 120.252 188.757 116.758L188.797 116.376C188.909 115.446 188.946 114.479 188.946 113.549C188.982 112.806 188.982 112.062 188.982 111.281C188.87 110.128 187.868 109.087 186.566 109.05ZM155.365 124.743C154.659 124.073 154.064 123.292 153.655 122.4C152.539 119.983 152.613 116.859 153.841 115C154.287 114.182 155.179 113.661 156.109 113.661C157.15 113.661 157.931 113.958 158.415 114.479C159.01 115.186 159.121 116.19 159.121 116.933C159.121 120.206 157.522 122.883 155.365 124.743ZM54.3275 148.505C55.3686 148.505 56.41 148.394 57.4139 148.208C62.2482 147.353 66.5248 144.638 70.6154 142.035C70.1319 141.812 66.0786 140.436 64.9258 140.064C62.5458 139.246 60.0543 138.651 57.5628 138.279C57.5254 138.274 57.488 138.269 57.4504 138.264C55.7648 138.044 53.814 137.788 52.4681 139.134C51.464 140.25 50.7947 141.663 50.6088 143.15C50.3112 145.159 51.3524 148.505 54.3275 148.505Z" fill="white"/>
</g>
<defs>
<linearGradient id="paint0_linear_4_5988" x1="469.33" y1="415.565" x2="421.844" y2="-256.671" gradientUnits="userSpaceOnUse">
<stop offset="0.3" stop-color="#17936F"/>
<stop offset="0.41" stop-color="#14A073"/>
<stop offset="0.63" stop-color="#0BC27E"/>
<stop offset="0.79" stop-color="#04E087"/>
</linearGradient>
<clipPath id="clip0_4_5988">
<rect width="220" height="220" fill="white" transform="translate(0 0.5)"/>
</clipPath>
</defs>
</svg>
