<svg width="220" height="221" viewBox="0 0 220 221" fill="none" xmlns="http://www.w3.org/2000/svg">
<g clip-path="url(#clip0_4_5991)">
<path d="M110 220.5C170.751 220.5 220 171.251 220 110.5C220 49.7487 170.751 0.5 110 0.5C49.2487 0.5 0 49.7487 0 110.5C0 171.251 49.2487 220.5 110 220.5Z" fill="black"/>
<path fill-rule="evenodd" clip-rule="evenodd" d="M121.089 170.428H98.3852C103.929 178.172 115.545 178.172 121.089 170.428ZM125.225 163.3H94.1612L85.9772 148.956H133.321L125.225 163.3ZM81.9292 141.74H137.457L145.641 127.396H73.8332L81.9292 141.74ZM69.6972 120.18L61.6012 105.836H157.785L149.601 120.18H69.6972ZM57.5532 98.6201H161.921L171.513 81.6361H47.8732L57.5532 98.6201ZM43.9132 74.5081C40.2172 65.4441 46.8172 55.0601 56.9372 55.0601H162.361C172.569 55.0601 179.169 65.4441 175.385 74.5081H43.9132Z" fill="url(#paint0_linear_4_5991)"/>
</g>
<defs>
<linearGradient id="paint0_linear_4_5991" x1="176.24" y1="176.216" x2="176.24" y2="55.4975" gradientUnits="userSpaceOnUse">
<stop stop-color="#FFE600"/>
<stop offset="0.3073" stop-color="#FAAD14"/>
<stop offset="0.6719" stop-color="#F7169C"/>
<stop offset="1" stop-color="#3435F5"/>
</linearGradient>
<clipPath id="clip0_4_5991">
<rect width="220" height="220" fill="white" transform="translate(0 0.5)"/>
</clipPath>
</defs>
</svg>
