<svg width="220" height="221" viewBox="0 0 220 221" fill="none" xmlns="http://www.w3.org/2000/svg">
<g clip-path="url(#clip0_4_5997)">
<path d="M110 220.5C170.751 220.5 220 171.251 220 110.5C220 49.7487 170.751 0.5 110 0.5C49.2487 0.5 0 49.7487 0 110.5C0 171.251 49.2487 220.5 110 220.5Z" fill="#EDF0F4"/>
<path d="M134.893 167.644H85.2422V174.298H134.893V167.644Z" fill="#681AF1"/>
<path d="M147.693 160.99H71.9375V167.644H147.693V160.99Z" fill="#681AF1"/>
<path d="M153.839 154.336H65.7988V160.99H153.839V154.336Z" fill="#681AF1"/>
<path d="M160.491 147.682H58.6309V154.336H160.491V147.682Z" fill="#781CF2"/>
<path d="M167.147 141.028H53.002V147.682H167.147V141.028Z" fill="#781CF2"/>
<path d="M167.147 134.374H53.002V141.028H167.147V134.374Z" fill="#781CF2"/>
<path d="M173.291 86.2583H46.3496V96.4955H173.291V86.2583Z" fill="#E740EC"/>
<path d="M167.147 72.9501H53.002V86.2585H167.147V72.9501Z" fill="#E740EC"/>
<path d="M160.487 66.2959H59.1387V72.9501H160.487V66.2959Z" fill="#E740EC"/>
<path d="M153.835 59.6416H65.2832V66.2958H153.835V59.6416Z" fill="#E740EC"/>
<path d="M147.693 52.9875H71.9375V59.6417H147.693V52.9875Z" fill="#E740EC"/>
<path d="M134.893 46.3333H85.2422V52.9874H134.893V46.3333Z" fill="#E740EC"/>
<path d="M173.287 115.435H45.834V134.373H173.287V115.435Z" fill="#9521F2"/>
<path d="M173.287 96.4956H45.834V115.434H173.287V96.4956Z" fill="#B828F3"/>
<path d="M81.1482 120.553H67.8398V125.16H81.1482V120.553Z" fill="white"/>
<path d="M85.755 98.0312H67.8398V102.638H85.755V98.0312Z" fill="white"/>
<path d="M94.4622 98.0312H89.8555V125.16H94.4622V98.0312Z" fill="white"/>
<path d="M110.324 98.0312H105.717V125.16H110.324V98.0312Z" fill="white"/>
<path d="M85.7577 108.78H71.9375V113.387H85.7577V108.78Z" fill="white"/>
<path d="M105.72 108.78H94.459V113.387H105.72V108.78Z" fill="white"/>
<path d="M130.293 120.553H114.426V125.16H130.293V120.553Z" fill="white"/>
<path d="M152.814 102.126H148.207V125.16H152.814V102.126Z" fill="white"/>
<path d="M127.734 125.16H123.127V129.767H127.734V125.16Z" fill="white"/>
<path d="M134.896 113.387H130.289V120.553H134.896V113.387Z" fill="white"/>
<path d="M119.033 102.126H114.426V109.292H119.033V102.126Z" fill="white"/>
<path d="M130.292 109.292H119.031V113.387H130.292V109.292Z" fill="white"/>
<path d="M134.899 98.0312H119.031V102.126H134.899V98.0312Z" fill="white"/>
<path d="M161.516 98.0312H139.506V102.126H161.516V98.0312Z" fill="white"/>
<path d="M128.241 93.4246H123.635V98.0313H128.241V93.4246Z" fill="white"/>
<path d="M85.761 113.387H81.1543V120.553H85.761V113.387Z" fill="white"/>
<path d="M67.8431 102.638H63.2363V120.553H67.8431V102.638Z" fill="white"/>
</g>
<defs>
<clipPath id="clip0_4_5997">
<rect width="220" height="220" fill="white" transform="translate(0 0.5)"/>
</clipPath>
</defs>
</svg>
