<svg width="220" height="221" viewBox="0 0 220 221" fill="none" xmlns="http://www.w3.org/2000/svg">
<g clip-path="url(#clip0_4_5994)">
<path d="M110 220.5C170.751 220.5 220 171.251 220 110.5C220 49.7487 170.751 0.5 110 0.5C49.2487 0.5 0 49.7487 0 110.5C0 171.251 49.2487 220.5 110 220.5Z" fill="url(#paint0_linear_4_5994)"/>
<path d="M158.14 154.33L120.944 64.4022C118.847 59.7526 115.728 57.4846 111.617 57.4846H108.329C104.218 57.4846 101.099 59.7526 99.0011 64.4022L82.813 103.583H70.5655C66.9084 103.611 63.9316 106.559 63.9032 110.245V110.33C63.9316 113.987 66.9084 116.964 70.5655 116.992H77.143L61.6919 154.33C61.4084 155.152 61.2383 156.003 61.2383 156.882C61.2383 158.979 61.8904 160.624 63.0527 161.9C64.2151 163.175 65.8878 163.799 67.9857 163.799C69.3748 163.771 70.7073 163.345 71.813 162.523C73.0037 161.701 73.8259 160.51 74.4779 159.15L91.4883 116.964H103.282C106.939 116.936 109.916 113.987 109.944 110.302V110.132C109.916 106.474 106.939 103.498 103.282 103.469H96.9883L109.973 71.1213L145.354 159.121C146.006 160.482 146.829 161.673 148.019 162.495C149.125 163.317 150.486 163.742 151.847 163.771C153.944 163.771 155.589 163.147 156.78 161.871C157.97 160.596 158.594 158.951 158.594 156.853C158.622 156.003 158.48 155.124 158.14 154.33Z" fill="white"/>
</g>
<defs>
<linearGradient id="paint0_linear_4_5994" x1="123.154" y1="-40.3491" x2="-40.5256" y2="97.3709" gradientUnits="userSpaceOnUse">
<stop stop-color="#B6509E"/>
<stop offset="1" stop-color="#2EBAC6"/>
</linearGradient>
<clipPath id="clip0_4_5994">
<rect width="220" height="220" fill="white" transform="translate(0 0.5)"/>
</clipPath>
</defs>
</svg>
