<svg width="220" height="221" viewBox="0 0 220 221" fill="none" xmlns="http://www.w3.org/2000/svg">
<g clip-path="url(#clip0_4_6030)">
<path d="M220 110.519C220.075 170.706 171.294 220.5 110.019 220.5C48.743 220.5 -0.0375018 170.669 2.16335e-05 110.444C0.037545 50.2185 48.743 0.5 110.056 0.5C171.37 0.5 220.112 50.3687 220 110.519Z" fill="#FE9B00"/>
<path d="M176.874 125.431C176.724 125.13 176.844 124.888 176.844 124.647C177.356 119.405 174.012 114.764 168.95 113.68C165.635 112.987 162.682 113.921 160.152 116.09C157.078 118.712 154.155 121.514 151.263 124.346C147.737 127.811 144.282 131.336 140.898 134.922C138.517 137.453 135.745 139.412 132.431 140.557C123.09 143.75 112.876 138.749 109.32 130.071C108.898 129.016 108.928 128.806 109.772 128.082C111.731 126.365 113.719 124.677 115.678 122.96C115.738 122.9 115.798 122.87 115.859 122.809C116.1 122.659 116.28 122.297 116.582 122.448C116.883 122.598 116.702 122.93 116.733 123.171C116.978 127.977 120.611 131.927 125.38 132.572C130.171 133.235 134.962 130.312 136.408 125.732C138.125 120.308 135.263 114.915 129.719 113.137C126.344 112.053 123.271 112.776 120.589 115.005C118.39 116.813 116.28 118.712 114.141 120.61C112.725 121.875 111.309 123.171 109.862 124.406C109.311 124.88 108.938 125.529 108.808 126.244C107.663 132.06 104.409 136.398 99.2563 139.261C96.0296 141.06 92.322 141.808 88.6502 141.4C84.6569 141.059 80.882 139.43 77.8933 136.76C75.7802 134.907 74.1293 132.585 73.0724 129.981C73.0092 129.855 72.9587 129.724 72.9217 129.589C72.7028 129.134 72.8427 128.587 73.2532 128.293C73.9462 127.721 74.6091 127.148 75.3021 126.576C76.7182 125.34 78.1344 124.105 79.5807 122.9C79.8218 122.689 80.0627 122.327 80.3641 122.448C80.6653 122.568 80.5449 122.99 80.575 123.291C80.7185 127.97 84.0196 131.954 88.5899 132.964C93.8043 134.074 98.9814 130.931 100.401 125.792C102.209 119.133 96.9362 112.565 90.0663 112.896C87.9726 112.958 85.9631 113.734 84.3716 115.096C82.4131 116.723 80.4846 118.41 78.5863 120.098C76.6278 121.815 74.6995 123.563 72.7409 125.28C72.2087 125.714 71.9082 126.371 71.9273 127.058V140.135C71.9273 141.37 71.7465 141.551 70.5112 141.521C68.162 141.52 65.9294 140.497 64.3945 138.719C63.7919 138.026 63.6714 138.026 62.8578 138.477C59.875 140.135 56.7112 141.039 53.3063 140.918C46.3158 140.677 40.9827 137.513 37.367 131.517C35.6647 128.691 34.7878 125.445 34.8359 122.146C34.8392 117.816 36.3643 113.625 39.1447 110.305C41.9771 106.84 45.5928 104.58 50.0221 103.857C55.9278 102.923 61.3514 104.008 65.9011 108.135C67.3467 109.453 68.604 110.964 69.6375 112.625C69.7856 112.959 70.0397 113.234 70.3605 113.408C70.8101 113.12 71.0737 112.616 71.0535 112.083C71.0235 109.1 71.0535 106.117 71.0535 103.103C71.0535 96.324 71.0435 89.5546 71.0235 82.7951C71.0235 81.4694 71.1742 81.3187 72.5299 81.3187C76.6694 81.3237 80.1452 84.4363 80.6052 88.5501C80.6653 89.0299 80.6954 89.513 80.6956 89.9964V105.815C80.7257 106.539 80.8764 106.629 81.5393 106.298C83.4762 105.272 85.5763 104.588 87.7462 104.279C93.1397 103.525 97.9606 104.881 102.239 108.256C103.671 109.407 104.921 110.768 105.946 112.294C106.005 112.401 106.076 112.502 106.156 112.595C106.367 112.896 106.548 113.228 106.94 113.288C107.151 113.318 107.753 112.535 107.783 112.203C107.834 111.793 107.854 111.38 107.844 110.968V89.7856C107.844 85.4166 110.555 82.1324 114.864 81.3187C115.338 81.2074 115.824 81.1568 116.311 81.168C116.943 81.1983 117.214 81.4392 117.365 82.0418C117.465 82.5172 117.506 83.003 117.486 83.4881V105.755C117.546 106.147 117.666 106.267 118.058 106.117C118.57 105.906 119.083 105.665 119.595 105.454C126.826 102.561 134.932 104.309 140.174 109.913C141.934 111.808 143.306 114.03 144.212 116.452L144.393 116.994C144.694 117.777 144.785 117.808 145.417 117.235L153.914 109.732C156.296 107.561 159.188 106.027 162.321 105.273C171.41 103.145 180.685 108.006 184.106 116.693C184.462 117.4 184.287 118.259 183.684 118.772C181.605 120.821 179.586 122.9 177.507 124.979C177.33 125.172 177.114 125.326 176.874 125.431Z" fill="#191C31"/>
<path d="M168.705 133.596C168.69 133.829 168.568 134.04 168.374 134.169C166.174 136.369 163.975 138.568 161.805 140.798C161.442 141.224 160.84 141.36 160.329 141.129C155.146 139.201 151.48 135.695 149.331 130.613C149 129.86 149.06 129.619 149.662 129.107C151.802 127.239 153.971 125.371 156.11 123.533C156.246 123.381 156.425 123.276 156.623 123.231C156.834 123.442 156.773 123.713 156.803 123.954C156.912 125.372 157.269 126.759 157.858 128.052C159.274 131.005 161.685 132.692 164.788 133.446C165.45 133.597 166.129 133.658 166.807 133.627C167.41 133.566 168.043 133.596 168.705 133.596Z" fill="#191C31"/>
<path d="M63.6993 122.388C63.85 127.751 59.2702 132.421 53.6957 132.482C48.1514 132.51 43.6263 128.052 43.5717 122.508C43.4813 117.024 47.79 112.324 53.6957 112.203C59.1495 112.083 63.7296 116.542 63.6993 122.388Z" fill="#FF9C00"/>
</g>
<defs>
<clipPath id="clip0_4_6030">
<rect width="220" height="220" fill="white" transform="translate(0 0.5)"/>
</clipPath>
</defs>
</svg>
