<svg width="220" height="221" viewBox="0 0 220 221" fill="none" xmlns="http://www.w3.org/2000/svg">
<g clip-path="url(#clip0_4_6035)">
<path d="M110 220.5C170.751 220.5 220 171.251 220 110.5C220 49.7487 170.751 0.5 110 0.5C49.2487 0.5 0 49.7487 0 110.5C0 171.251 49.2487 220.5 110 220.5Z" fill="#767DFF"/>
<path fill-rule="evenodd" clip-rule="evenodd" d="M126.238 44.5H95.5937C93.4317 44.4989 91.4374 45.6748 90.3786 47.575L42.9278 132.896C41.9121 134.724 41.9121 136.954 42.9278 138.783L58.1057 166.085C59.1627 167.988 61.1573 169.166 63.3209 169.167H158.511C160.672 169.164 162.664 167.985 163.719 166.085L178.904 138.783C179.92 136.954 179.92 134.724 178.904 132.896L131.453 47.575C130.395 45.6748 128.4 44.4989 126.238 44.5ZM78.9454 135.839L110.916 78.444L142.887 135.839H78.9454Z" fill="white"/>
</g>
<defs>
<clipPath id="clip0_4_6035">
<rect width="220" height="220" fill="white" transform="translate(0 0.5)"/>
</clipPath>
</defs>
</svg>
