<svg width="220" height="221" viewBox="0 0 220 221" fill="none" xmlns="http://www.w3.org/2000/svg">
<g clip-path="url(#clip0_4_6056)">
<path d="M110 220.5C170.751 220.5 220 171.251 220 110.5C220 49.7487 170.751 0.5 110 0.5C49.2487 0.5 0 49.7487 0 110.5C0 171.251 49.2487 220.5 110 220.5Z" fill="#1B75BC"/>
<path fill-rule="evenodd" clip-rule="evenodd" d="M82.7529 57.0538L110.792 28L138.832 57.0538L124.076 72.6255L110.792 58.0918L97.5083 72.6255L82.7529 57.0538ZM80.2889 59.6388L110.917 91.305L140.796 59.6388L159.501 78.6L128.99 110.5L159.501 142.146L140.796 161.348L110.917 129.695L80.2889 161.348L62.334 142.675L92.5944 110.321L62.334 78.6L80.2889 59.6455V59.6388ZM97.5083 148.374L82.7529 163.946L110.792 193L138.832 163.946L124.076 148.374L110.792 162.908L97.5083 148.374Z" fill="white"/>
</g>
<defs>
<clipPath id="clip0_4_6056">
<rect width="220" height="220" fill="white" transform="translate(0 0.5)"/>
</clipPath>
</defs>
</svg>
