<svg width="220" height="221" viewBox="0 0 220 221" fill="none" xmlns="http://www.w3.org/2000/svg">
<g clip-path="url(#clip0_4_6059)">
<path d="M110 220.5C170.751 220.5 220 171.251 220 110.5C220 49.7487 170.751 0.5 110 0.5C49.2487 0.5 0 49.7487 0 110.5C0 171.251 49.2487 220.5 110 220.5Z" fill="#EDF0F4"/>
<path d="M141.952 134.293C154.679 134.293 164.996 123.976 164.996 111.249C164.996 98.522 154.679 88.2048 141.952 88.2048C129.225 88.2048 118.908 98.522 118.908 111.249C118.908 123.976 129.225 134.293 141.952 134.293Z" fill="#2B5EBA"/>
<path d="M112.832 79.5563C118.969 79.5563 123.944 74.5815 123.944 68.4448C123.944 62.308 118.969 57.3333 112.832 57.3333C106.696 57.3333 101.721 62.308 101.721 68.4448C101.721 74.5815 106.696 79.5563 112.832 79.5563Z" fill="#2B5EBA"/>
<path d="M112.832 165.219C118.969 165.219 123.944 160.244 123.944 154.107C123.944 147.971 118.969 142.996 112.832 142.996C106.696 142.996 101.721 147.971 101.721 154.107C101.721 160.244 106.696 165.219 112.832 165.219Z" fill="#2B5EBA"/>
<path fill-rule="evenodd" clip-rule="evenodd" d="M105.063 105.009C104.571 104.516 104.133 103.914 103.804 103.312C103.804 103.312 98.3856 91.9268 79.8299 99.2616C78.8447 99.7542 77.8595 100.192 76.8741 100.521H76.8194C71.0173 102.382 64.5036 101.013 59.9058 96.4152C53.3373 89.9015 53.3922 79.2827 59.9058 72.769C66.4195 66.2554 76.9837 66.2554 83.552 72.8239C85.7415 75.0132 87.2194 77.6954 87.9309 80.5416C87.9309 80.5416 92.4193 97.8384 107.417 93.6784C107.746 93.5141 108.129 93.4047 108.457 93.35H108.512C110.701 92.8574 113.11 93.4595 114.861 95.211C117.598 97.893 117.598 102.272 114.861 105.009C112.179 107.746 107.8 107.746 105.063 105.009ZM109.825 128.217C109.114 128.217 108.402 128.108 107.746 127.889C107.746 127.889 95.8677 123.729 87.8762 142.066C87.5477 143.106 87.1645 144.091 86.6719 145.021V145.076C83.9351 150.44 78.2973 154.108 71.8384 154.108C62.5878 154.108 55.0889 146.609 55.0889 137.358C55.0889 128.108 62.5878 120.609 71.8384 120.609C75.013 120.609 77.9141 121.485 80.432 122.962C80.432 122.962 95.8129 131.994 103.476 118.474C103.586 118.146 103.75 117.817 103.969 117.544V117.489C105.228 115.573 107.362 114.314 109.825 114.314C113.657 114.314 116.777 117.434 116.777 121.266C116.777 125.097 113.657 128.217 109.825 128.217Z" fill="#2B5EBA"/>
</g>
<defs>
<clipPath id="clip0_4_6059">
<rect width="220" height="220" fill="white" transform="translate(0 0.5)"/>
</clipPath>
</defs>
</svg>
