<svg width="220" height="221" viewBox="0 0 220 221" fill="none" xmlns="http://www.w3.org/2000/svg">
<g clip-path="url(#clip0_4_6065)">
<path d="M110 220.5C170.751 220.5 220 171.251 220 110.5C220 49.7487 170.751 0.5 110 0.5C49.2487 0.5 0 49.7487 0 110.5C0 171.251 49.2487 220.5 110 220.5Z" fill="#EDF0F4"/>
<path d="M143.925 121.876C157.528 83.0294 153.51 46.269 134.949 39.7691C116.388 33.2692 90.3137 59.4912 76.71 98.3375C63.1062 137.184 67.1246 173.944 85.6854 180.444C104.246 186.944 130.321 160.722 143.925 121.876Z" fill="#5FBCD3"/>
<path d="M131.712 138.57C164.584 113.799 181.637 80.9869 169.801 65.281C157.966 49.575 121.724 56.9231 88.8529 81.6935C55.9815 106.464 38.9284 139.276 50.7637 154.982C62.599 170.688 98.8409 163.34 131.712 138.57Z" fill="#2C89A0"/>
<path d="M117.053 143.616C158.009 139.529 189.627 120.351 187.673 100.782C185.72 81.2134 150.935 68.6637 109.98 72.7517C69.0236 76.8396 37.4057 96.0172 39.3589 115.586C41.3121 135.155 76.0968 147.704 117.053 143.616Z" fill="#164450"/>
<path fill-rule="evenodd" clip-rule="evenodd" d="M118.783 111.523C119.384 117.489 123.658 120.46 131.605 120.435C136.293 120.484 140.924 119.401 145.104 117.276V126.3C140.366 128.381 134.638 129.421 127.92 129.421C119.773 129.421 113.757 127.04 109.871 122.277H109.646C105.384 127.04 99.9069 129.421 93.214 129.421C88.1754 129.421 84.2398 128.318 81.4071 126.112C78.5746 123.907 77.1582 120.848 77.1582 116.938C77.1582 113.052 78.6247 109.931 81.5577 107.575C84.4904 105.219 88.6768 103.865 94.1163 103.514L105.773 102.687C105.773 97.5982 102.978 95.0537 97.3877 95.0537C92.1235 95.0537 86.9095 96.4826 81.7456 99.3402V89.9024C87.0738 87.6841 92.782 86.5219 98.5534 86.4807C105.647 86.4807 110.561 88.2605 113.293 91.8201H113.481C117.512 88.253 122.511 85.9629 127.845 85.2399C134.011 84.2246 141.795 84.2997 145.517 87.8342C147.615 89.8663 148.978 92.5384 149.39 95.4297C149.834 98.7743 148.88 102.154 146.752 104.773C144.625 107.391 141.512 109.017 138.148 109.267L118.783 111.523ZM105.735 111.862V110.057L98.6661 110.583C93.0761 110.984 90.281 112.739 90.281 115.847C90.3026 117.17 90.9788 118.395 92.0859 119.119C93.264 119.996 94.8059 120.447 96.7109 120.472C99.3179 120.472 101.474 119.67 103.178 118.066C104.883 116.461 105.735 114.393 105.735 111.862ZM119.949 104.905L120.061 103.1C120.212 100.594 121.189 98.5757 122.994 97.0465C124.799 95.5175 127.005 94.8031 129.612 94.9034C131.492 95.0036 132.996 95.5049 134.124 96.4074C135.204 97.1866 135.814 98.4617 135.741 99.7916C135.566 102.9 132.683 104.529 127.093 104.68L119.949 104.905Z" fill="white"/>
</g>
<defs>
<clipPath id="clip0_4_6065">
<rect width="220" height="220" fill="white" transform="translate(0 0.5)"/>
</clipPath>
</defs>
</svg>
