<svg width="220" height="221" viewBox="0 0 220 221" fill="none" xmlns="http://www.w3.org/2000/svg">
<g clip-path="url(#clip0_4_6071)">
<path d="M110 220.5C170.751 220.5 220 171.251 220 110.5C220 49.7487 170.751 0.5 110 0.5C49.2487 0.5 0 49.7487 0 110.5C0 171.251 49.2487 220.5 110 220.5Z" fill="#EDF0F4"/>
<path d="M53.2445 170.46C53.1213 169.229 52.2594 159.921 61.1733 147.585C69.1268 136.578 88.432 129.314 105.89 123.355L107.442 122.838C119.187 118.824 135.808 111.314 139.65 107.669L151.74 120.424C143.86 127.886 121.206 136.701 113.154 139.459L111.578 140C103.157 142.882 80.7492 150.515 75.4305 157.902C70.5058 164.723 70.7521 170.386 70.7521 170.435L53.2445 170.46Z" fill="url(#paint0_linear_4_6071)"/>
<path d="M135.295 171.027H117.714C117.714 163.886 115.301 157.877 113.38 153.026C113.109 152.362 112.863 151.721 112.617 151.106C111.558 148.373 107.126 141.773 103.58 136.504C101.585 133.524 99.4922 130.446 97.7931 127.713C97.2268 126.827 96.6359 125.916 96.0448 124.98C90.7753 116.879 83.5605 105.773 83.5605 89.1275C83.5605 79.6227 87.2787 70.1178 93.7795 63.0261L106.732 74.9195C103.235 78.7361 101.142 84.055 101.142 89.1275C101.142 100.553 106.042 108.113 110.795 115.401C111.459 116.411 112.1 117.396 112.691 118.356C114.266 120.868 116.187 123.699 118.206 126.703C122.86 133.647 127.268 140.197 129.041 144.753C129.262 145.319 129.484 145.91 129.73 146.526C131.922 152.09 135.295 160.513 135.295 171.027Z" fill="url(#paint1_linear_4_6071)"/>
<path d="M151.739 120.4L139.649 107.645C144.327 103.212 147.627 99.3464 147.627 89.7184C147.627 76.052 136.349 67.606 125.909 67.606C117.586 67.606 111.134 70.0686 106.702 74.8948L93.75 63.0015C99.1919 57.0671 109.189 50 125.933 50C137.039 50 147.258 54.5307 154.694 62.7307C161.392 70.1423 165.257 79.9673 165.257 89.6937C165.208 105.478 158.732 113.776 151.739 120.4Z" fill="url(#paint2_linear_4_6071)"/>
</g>
<defs>
<linearGradient id="paint0_linear_4_6071" x1="53.166" y1="107.669" x2="53.166" y2="170.46" gradientUnits="userSpaceOnUse">
<stop stop-color="#4D4D4D"/>
<stop offset="1" stop-color="#8F8F8F"/>
</linearGradient>
<linearGradient id="paint1_linear_4_6071" x1="83.5605" y1="63.0261" x2="83.5605" y2="171.027" gradientUnits="userSpaceOnUse">
<stop stop-color="#393939"/>
<stop offset="1" stop-color="#B8B8B8"/>
</linearGradient>
<linearGradient id="paint2_linear_4_6071" x1="93.75" y1="50" x2="93.75" y2="120.4" gradientUnits="userSpaceOnUse">
<stop stop-color="#FF21B3"/>
<stop offset="1" stop-color="#FF21B3"/>
</linearGradient>
<clipPath id="clip0_4_6071">
<rect width="220" height="220" fill="white" transform="translate(0 0.5)"/>
</clipPath>
</defs>
</svg>
