<svg width="220" height="221" viewBox="0 0 220 221" fill="none" xmlns="http://www.w3.org/2000/svg">
<g clip-path="url(#clip0_4_6076)">
<path d="M110 220.5C170.751 220.5 220 171.251 220 110.5C220 49.7487 170.751 0.5 110 0.5C49.2487 0.5 0 49.7487 0 110.5C0 171.251 49.2487 220.5 110 220.5Z" fill="#EDF0F4"/>
<path d="M110 176.5C146.451 176.5 176 146.951 176 110.5C176 74.0492 146.451 44.5 110 44.5C73.5492 44.5 44 74.0492 44 110.5C44 146.951 73.5492 176.5 110 176.5Z" fill="#0092B5"/>
<path fill-rule="evenodd" clip-rule="evenodd" d="M88.594 101.231L75.86 78.5437C84.539 73.936 95.3095 71.5187 108.179 71.3125L91.0112 101.532C90.2535 101.193 89.4116 101.088 88.594 101.231ZM110.172 71.5765L92.5085 102.671H92.5045C93.7843 104.215 93.7244 106.468 92.3642 107.942L108.34 136.401C109.467 135.879 110.768 135.888 111.888 136.426L127.41 108.425C126.43 107.678 125.847 106.522 125.827 105.29C125.807 104.058 126.352 102.885 127.307 102.106L110.502 71.5765C110.271 71.4815 110.205 71.5188 110.172 71.5765ZM106.855 137.564L90.8173 108.999V109.003C90.1662 109.253 89.4631 109.338 88.7712 109.25L78.4918 127.342C79.4772 129.417 80.6421 131.402 81.9733 133.274C85.1207 134.013 93.1645 135.931 106.113 139.033C106.256 138.497 106.509 137.997 106.855 137.564ZM85.1904 105.31C85.1623 103.986 85.7871 102.732 86.8615 101.957L74.2513 79.4925C73.3203 80.2372 72.8095 81.3879 72.8818 82.578L74.7917 113.029C75.0528 117.212 75.986 121.327 77.5555 125.214L87.0017 108.59C85.8955 107.861 85.2184 106.635 85.1904 105.31ZM114.086 139.074C113.949 138.542 113.703 138.043 113.365 137.61L129.114 109.201C129.794 109.337 130.496 109.303 131.16 109.102L141.365 127.639C140.499 129.421 139.5 131.137 138.378 132.775L114.086 139.074ZM114.111 140.976C113.75 142.496 112.554 143.679 111.03 144.024V153.767C111.386 153.666 111.725 153.513 112.036 153.313L126.981 143.768C130.642 141.436 133.897 138.521 136.617 135.139L114.111 140.976ZM109.157 144.028V153.813C108.732 153.716 108.328 153.547 107.961 153.313L93.016 143.768C89.5214 141.541 86.3956 138.783 83.7512 135.592C87.835 136.562 95.2723 138.336 106.063 140.918C106.393 142.456 107.606 143.673 109.157 144.028ZM128.982 101.281C129.752 101.097 130.56 101.137 131.308 101.396L144.013 78.4817C135.512 73.9897 125.001 71.6013 112.494 71.325L128.982 101.281ZM132.888 102.39L145.634 79.4058C146.634 80.1437 147.193 81.3373 147.119 82.578L145.21 113.033C144.941 117.323 143.965 121.539 142.322 125.511L132.777 108.173C133.576 107.432 134.04 106.396 134.061 105.306C134.082 104.215 133.659 103.162 132.888 102.39ZM107.767 93.043C107.802 91.8301 108.785 90.8597 109.999 90.8403L110.003 90.8443C111.213 90.8657 112.193 91.8334 112.23 93.043V101.103L124.135 108.438L122.679 111.375L112.23 107.703V115.763L115.208 117.962V120.161L109.999 118.696L104.789 120.165V117.966L107.767 115.768V107.707L97.1368 111.189L95.8622 108.438L107.767 101.103V93.043Z" fill="white"/>
</g>
<defs>
<clipPath id="clip0_4_6076">
<rect width="220" height="220" fill="white" transform="translate(0 0.5)"/>
</clipPath>
</defs>
</svg>
