<svg width="220" height="221" viewBox="0 0 220 221" fill="none" xmlns="http://www.w3.org/2000/svg">
<g clip-path="url(#clip0_4_6080)">
<path d="M110 220.5C170.751 220.5 220 171.251 220 110.5C220 49.7487 170.751 0.5 110 0.5C49.2487 0.5 0 49.7487 0 110.5C0 171.251 49.2487 220.5 110 220.5Z" fill="#EDF0F4"/>
<path d="M73.554 81.1667H78.8285C87.0675 81.9752 94.6905 86.1204 100.337 92.0879C112.054 104.382 118.496 121.733 133.409 130.883C144.189 137.505 159.268 132.089 164.568 120.912C167.263 120.86 169.971 120.86 172.666 120.873C168.957 132.231 158.151 140.393 146.332 141.483H141.981C134.705 140.88 127.634 138.083 122.128 133.244C114.133 126.468 109 117.177 102.788 108.9C97.4497 101.585 91.9955 93.3584 83.1533 90.0346C72.2322 85.9408 58.8855 92.3446 54.9072 103.227C51.4037 112.185 54.2527 123.299 62.081 129.035C67.9458 133.578 76.1206 135.272 83.1661 132.628C90.9945 129.805 96.808 123.388 101.261 116.587C103.019 119.102 104.726 121.656 106.42 124.223C99.4902 132.949 89.878 140.444 78.4435 141.483H73.7593C59.3475 140.482 46.8222 128.239 45.834 113.776V109.041C46.7708 94.6032 59.1293 82.2191 73.554 81.1667Z" fill="#DE3F6B"/>
<path d="M141.689 81.1667H146.065C160.605 82.1164 172.976 94.6032 174.17 109.066V116.484C162.171 116.6 150.159 116.523 138.16 116.535C138.172 114.367 138.172 112.211 138.16 110.042C147.643 110.016 157.114 110.08 166.585 110.016C165.918 106.179 165.045 102.252 162.774 99.0051C157.23 90.5351 145.513 87.0701 136.145 90.7404C128.676 93.5124 123.055 99.5826 118.717 106.063C117.049 103.664 115.393 101.238 113.789 98.7869C120.629 89.9319 130.177 82.2704 141.689 81.1667Z" fill="#DE3F6B"/>
</g>
<defs>
<clipPath id="clip0_4_6080">
<rect width="220" height="220" fill="white" transform="translate(0 0.5)"/>
</clipPath>
</defs>
</svg>
