<svg width="220" height="221" viewBox="0 0 220 221" fill="none" xmlns="http://www.w3.org/2000/svg">
<g clip-path="url(#clip0_4_6084)">
<path d="M110 220.5C170.751 220.5 220 171.251 220 110.5C220 49.7487 170.751 0.5 110 0.5C49.2487 0.5 0 49.7487 0 110.5C0 171.251 49.2487 220.5 110 220.5Z" fill="#F49E00"/>
<path fill-rule="evenodd" clip-rule="evenodd" d="M163.803 55.5C163.803 55.5 151.867 95.4804 136.539 119.675V119.682C136.539 119.682 139.112 154.684 172.333 153.777V160.466L157.074 162.811C156.828 162.865 156.597 162.906 156.368 162.947C156.131 162.989 155.897 163.03 155.647 163.086C155.47 163.123 155.249 163.174 154.989 163.233C151.16 164.11 138.893 166.918 133.154 157.139L126.316 136.32C126.316 136.32 111.814 164.633 87.9489 165.486C87.9489 165.486 61.8998 166.881 52.4957 142.315C51.1037 138.685 50.2574 134.883 49.9707 131.019C49.261 122.782 48.6057 104.583 53.9699 88.3643C57.7438 76.9648 65.626 67.0643 76.4632 61.3854C85.219 56.7857 97.3665 53.843 110.995 60.5329C110.995 60.5329 128.009 69.6839 128.889 94.6827L138.245 61.3371L163.803 55.5ZM96.7047 149.225C99.5521 148.477 102.143 146.961 104.198 144.839C108.197 140.879 116.025 131.562 122.099 115.508C122.099 115.508 117.28 70.282 95.8243 69.1545C90.8741 68.955 86.1308 71.1653 83.0763 75.0948C77.5484 82.0047 69.2293 97.0411 75.2485 131.349C76.2973 136.493 78.8082 141.218 82.4756 144.949C85.7582 148.159 90.5148 150.779 96.7047 149.225Z" fill="white"/>
</g>
<defs>
<clipPath id="clip0_4_6084">
<rect width="220" height="220" fill="white" transform="translate(0 0.5)"/>
</clipPath>
</defs>
</svg>
