<svg width="221" height="221" viewBox="0 0 221 221" fill="none" xmlns="http://www.w3.org/2000/svg">
<g clip-path="url(#clip0_4_6087)">
<path d="M110.5 220.5C171.251 220.5 220.5 171.251 220.5 110.5C220.5 49.7487 171.251 0.5 110.5 0.5C49.7487 0.5 0.5 49.7487 0.5 110.5C0.5 171.251 49.7487 220.5 110.5 220.5Z" fill="#322A3F"/>
<path d="M109.162 59.0971L66.8633 147.291H137.085C139.119 147.29 140.958 148.501 141.76 150.371L141.834 150.541C142.361 151.768 142.282 153.172 141.619 154.332C140.427 156.409 138.216 157.69 135.821 157.691H61.1928C60.0417 157.691 58.9166 157.35 57.9588 156.711L57.565 156.45C55.1458 154.831 54.287 151.678 55.5509 149.055L105.46 46.3503C105.982 45.2782 106.725 44.3287 107.639 43.564C109.426 42.0739 112.015 42.049 113.83 43.5046C114.225 43.8159 114.545 44.2121 114.766 44.664L165.389 148.078C166.076 149.484 166.219 151.093 165.791 152.597C165.308 154.298 163.753 155.47 161.985 155.466H161.405C159.044 155.466 156.895 154.102 155.891 151.966L112.232 59.1125C111.956 58.5152 111.36 58.1317 110.702 58.1284C110.045 58.1251 109.443 58.5028 109.162 59.0971Z" fill="#F4AE95"/>
</g>
<defs>
<clipPath id="clip0_4_6087">
<rect width="220" height="220" fill="white" transform="translate(0.5 0.5)"/>
</clipPath>
</defs>
</svg>
