<svg width="221" height="221" viewBox="0 0 221 221" fill="none" xmlns="http://www.w3.org/2000/svg">
<g clip-path="url(#clip0_4_6090)">
<path d="M110.5 220.5C171.251 220.5 220.5 171.251 220.5 110.5C220.5 49.7487 171.251 0.5 110.5 0.5C49.7487 0.5 0.5 49.7487 0.5 110.5C0.5 171.251 49.7487 220.5 110.5 220.5Z" fill="#EDF0F4"/>
<path fill-rule="evenodd" clip-rule="evenodd" d="M136.971 61.901C135.398 61.4667 133.87 60.882 132.409 60.1553C132.071 60.0425 131.339 59.6484 133.648 59.0289C135.698 58.4789 137.082 59.2162 137.997 59.7039C138.113 59.7655 138.221 59.8231 138.322 59.8737C138.942 60.1553 138.322 61.1125 137.872 61.6194C137.634 61.8526 137.299 61.9573 136.971 61.901ZM119.232 61.2815C118.725 61.2815 118.556 61.901 118.556 61.901C118.331 62.2951 120.809 62.4077 121.259 62.4077C121.71 62.4077 121.879 61.5631 121.484 61.2815C121.205 61.0822 120.447 61.1651 119.847 61.2304C119.6 61.2575 119.38 61.2815 119.232 61.2815ZM59.9894 95.7456C59.9894 95.7456 58.6379 95.8019 58.8632 94.2252C59.0884 92.6484 60.8905 90.7336 61.9605 90.0016C63.0304 89.2695 63.5936 88.7063 63.5936 87.5801C63.5936 86.8013 64.3742 86.1303 64.9864 85.6042C65.2595 85.3693 65.4992 85.1634 65.6209 84.9896C66.0151 84.4266 67.4792 83.6944 67.254 84.6517C67.1671 85.021 67.0298 85.3066 66.8941 85.5889C66.678 86.0388 66.4655 86.4812 66.4655 87.2422C66.4655 88.4812 66.6908 89.3258 67.3103 88.0306C67.9298 86.7353 71.7591 80.7099 75.6446 77.5562C79.5304 74.4027 84.7112 70.9111 85.387 70.7985C86.0627 70.6859 86.4571 71.1364 86.4571 71.8684C86.4571 72.3365 85.6975 72.8045 84.9143 73.2871C84.4723 73.5595 84.0226 73.8367 83.6976 74.1211C83.6147 74.1937 83.4458 74.3334 83.2053 74.5328C80.8317 76.4991 71.4689 84.255 68.6056 90.3395C67.9595 91.238 67.2236 92.0681 66.4092 92.8172C65.8898 93.2546 65.5828 93.7848 65.237 94.3821C64.8701 95.0154 64.4597 95.7242 63.7062 96.4777C62.9263 97.2577 62.5777 98.0536 62.3117 98.6611C62.0783 99.1943 61.9084 99.5824 61.5663 99.6876C60.8341 99.913 59.8769 99.0119 60.4399 97.0971C60.8474 95.7113 61.8747 94.709 62.8806 93.7273C63.2645 93.3525 63.6455 92.9809 63.9878 92.5921C65.2267 91.1843 65.6772 89.9453 65.3393 89.9453C65.0014 89.9453 63.1992 90.3395 62.6925 91.7473C62.5427 92.1636 62.4371 92.5111 62.3467 92.8084C62.1315 93.5166 62.0024 93.9412 61.5663 94.3378C61.3056 94.5783 61.0806 94.8332 60.8814 95.059C60.5206 95.4679 60.2434 95.7819 59.9894 95.7456ZM86.7385 70.6297C86.784 70.3338 86.9741 70.0802 87.2454 69.9539C88.7095 69.1654 92.37 68.2645 92.37 68.2645C91.0531 69.0261 89.7749 69.8529 88.5407 70.7422C87.9775 71.249 87.1891 71.5868 86.8513 71.1364C86.7611 70.9837 86.7216 70.8062 86.7385 70.6297Z" fill="black"/>
<path fill-rule="evenodd" clip-rule="evenodd" d="M110.44 62.971C112.974 62.4078 121.646 61.1126 135.162 66.3499C135.162 66.3499 135.612 66.744 135.049 67.4761C134.846 67.8829 134.434 68.1432 133.979 68.1519C133.979 68.1519 132.74 67.7014 129.812 66.5752C126.884 65.4488 121.984 64.8858 120.07 64.9421C118.922 64.9758 117.513 64.767 115.937 64.5334C114.882 64.3774 113.754 64.2102 112.58 64.0973C111.835 64.0509 111.098 63.9187 110.384 63.7031C110.232 63.6371 110.139 63.482 110.151 63.317C110.164 63.152 110.28 63.013 110.44 62.971ZM62.2352 102.222C62.9672 103.01 63.474 102.222 63.474 102.222C64.4711 101.485 65.7684 99.4465 66.5697 98.1874C66.8095 97.811 67.0048 97.5041 67.1344 97.3226C67.6976 96.5341 70.9074 92.0853 71.921 90.8465C72.1526 90.5636 72.2842 90.3042 72.4441 89.9891C72.9842 88.9244 73.8468 87.2246 79.974 81.8362C87.9143 74.8532 96.8118 67.5888 107.737 67.1945C118.662 66.8003 131.276 74.6844 131.276 74.6844C132.005 74.3564 132.333 73.5006 132.008 72.7697C119.675 65.1109 109.595 64.3226 104.696 65.2799C99.7965 66.2373 95.1787 68.7713 91.7999 70.6861C88.4762 72.5695 81.9921 77.7769 78.2437 80.7872L78.0594 80.9351C74.7882 83.6796 71.8915 86.8414 69.4433 90.3396C68.4859 91.9164 64.9382 97.5479 63.6993 98.6741C62.4603 99.8003 61.5029 101.433 62.2352 102.222Z" fill="black"/>
<path fill-rule="evenodd" clip-rule="evenodd" d="M124.526 60.7749C124.372 60.8299 124.268 60.9766 124.268 61.1408C124.268 61.3051 124.372 61.4518 124.526 61.5069C125.479 61.9326 126.482 62.2355 127.511 62.4078C129.088 62.5206 133.368 63.8721 135.395 64.9421C136.69 65.6178 137.366 63.2526 136.521 62.971C136.276 62.8803 135.972 62.7663 135.627 62.6374C133.836 61.9667 130.981 60.8985 129.989 60.6621C128.919 60.3805 126.103 60.2117 124.526 60.7749ZM133.762 69.3345C133.762 69.3345 134.269 71.1365 132.579 71.2493C131.747 71.3046 129.659 70.3222 127.437 69.2768C125.147 68.1997 122.716 67.0559 121.373 66.9131C118.726 66.6315 120.528 64.9421 123.963 65.8994C127.399 66.8568 133.762 69.3345 133.762 69.3345ZM128.156 76.6316C124.467 74.5007 115.541 69.3459 101.156 71.3056C99.885 71.4596 98.7982 72.2989 97.968 72.94C97.5845 73.2361 97.2558 73.4898 96.989 73.6145C95.337 74.3989 93.7547 75.322 92.2587 76.3738C89.2331 78.539 86.4232 80.9905 83.8679 83.6947C81.3336 86.5103 78.1238 92.3669 77.3916 93.8312C76.6596 95.2953 73.7876 98.5053 72.9991 99.3499C72.2108 100.195 70.2398 104.474 68.9445 107.515C67.6493 110.556 65.9599 110.162 66.2415 107.853C66.5231 105.544 71.1971 99.1246 72.2671 97.8295C73.337 96.5342 79.1375 88.1434 79.4189 87.4114C79.7005 86.6792 78.8559 86.5103 78.1238 87.4114C77.8219 87.7828 77.0226 88.9677 76.1081 90.3229C74.8044 92.2552 73.267 94.5341 72.605 95.2953C71.4787 96.5905 66.4668 104.812 66.4668 104.812C66.4668 104.812 65.791 106.614 64.7211 106.051C63.6511 105.488 63.989 104.08 65.2278 102.56C65.7811 101.881 67.9855 98.6972 70.3159 95.3312C73.2039 91.1602 76.2856 86.7092 76.6596 86.3977C76.9019 86.1957 77.3617 86.0008 77.9271 85.7614C78.938 85.3333 80.2864 84.762 81.3336 83.751C81.9034 83.2008 82.48 82.5204 83.0779 81.8151C84.1935 80.4986 85.3831 79.0952 86.7398 78.2885C87.1809 78.0262 87.7782 77.5143 88.5443 76.8578C91.3979 74.4123 96.5916 69.9614 104.76 68.9404C115.122 67.6451 126.272 72.1502 130.834 75.9796C130.834 75.9796 131.172 77.2749 129.989 77.5C129.742 77.5471 129.132 77.1951 128.156 76.6316Z" fill="black"/>
<path d="M81.1602 89.6076C81.1602 89.6076 85.5526 82.9625 90.2267 79.7527C94.9008 76.5427 97.6039 74.2903 99.068 73.7271C100.532 73.1639 105.544 70.5736 116.92 73.1639C128.295 75.7544 129.646 79.4711 129.14 80.2032C128.633 80.9352 126.831 79.809 124.24 78.4012C121.65 76.9934 116.751 74.797 112.809 74.9096C108.867 75.0224 101.095 77.7254 100.589 78.1759C100.082 78.6263 100.025 77.2748 101.377 76.9934C102.728 76.7118 103.573 75.6418 104.418 75.5291C105.262 75.4165 106.501 75.1349 106.501 74.4592C106.501 73.7834 103.686 73.896 102.278 74.4592C100.87 75.0224 95.4075 78.1196 94.3939 78.6828C93.3802 79.2458 92.0287 79.64 91.8034 80.4848C91.5783 81.3294 89.8888 83.3004 89.044 83.751C88.1994 84.2015 83.9758 87.524 83.5253 88.3124C83.126 89.2344 82.152 89.7677 81.1602 89.6076Z" fill="black"/>
<path fill-rule="evenodd" clip-rule="evenodd" d="M97.0405 81.7798C95.7453 82.737 96.421 82.906 96.421 82.906C98.3339 83.2998 99.1226 82.7944 101.315 81.3893L101.32 81.3854C103.517 79.9776 108.866 77.9503 114.16 78.1194C118.63 78.262 124.787 82.4204 126.797 83.7783C127.168 84.0286 127.398 84.1837 127.45 84.2013C127.788 84.3138 128.689 82.174 127.45 81.104C126.211 80.0339 119.115 76.43 112.977 76.0921C106.839 75.7542 98.3358 80.8224 97.0405 81.7798ZM92.8169 83.4128C90.4517 85.2149 89.8887 84.3701 89.8887 84.3701C89.9292 83.8023 92.2484 82.358 93.7112 81.4472C94.2793 81.0934 94.7182 80.8201 94.8442 80.7097C95.2948 80.3155 95.9143 81.2166 95.689 81.2166C95.5691 81.2166 95.433 81.3282 94.9753 81.7048C94.5732 82.0354 93.9227 82.5703 92.8169 83.4128Z" fill="black"/>
<path d="M103.294 82.5683C103.164 82.5327 103.067 82.4262 103.043 82.294C103.019 82.1619 103.073 82.0277 103.181 81.9488C106.831 79.4894 111.322 78.6156 115.627 79.5274C123.229 81.1605 126.383 84.7646 126.552 85.6093C126.721 86.4541 126.439 88.4249 125.313 88.0307C124.187 87.6366 120.526 82.0616 114.613 81.5547C108.925 81.0479 107.63 83.582 103.294 82.5683Z" fill="black"/>
<path fill-rule="evenodd" clip-rule="evenodd" d="M111.121 83.9199L110.445 83.6946C110.333 83.6383 110.389 83.5257 110.445 83.5257C111.403 83.3004 114.612 82.6809 117.541 83.7508C119.623 84.6109 121.503 85.8958 123.06 87.5238C123.115 87.5787 123.126 87.6643 123.086 87.7312C123.046 87.7979 122.965 87.8287 122.891 87.8055L111.121 83.9199ZM70.1244 112.64C70.1244 112.64 69.7865 113.71 68.8294 112.922C67.9642 112.209 68.3866 111.129 68.7254 110.262C68.7615 110.17 68.7967 110.08 68.8294 109.993C69.1672 109.092 71.7576 103.799 72.377 103.179C72.9965 102.56 75.3054 99.8004 75.3054 99.1809C75.3054 98.5614 75.9249 100.927 73.5597 104.531C72.3965 106.392 72.0742 107.547 71.7477 108.718C71.4419 109.814 71.1322 110.924 70.1244 112.64ZM71.1945 116.188C71.8138 116.92 72.1517 116.188 72.1517 116.188C72.8594 115.052 73.4446 113.843 73.8976 112.584C74.7631 110.445 74.7079 107.984 74.6894 107.158C74.6874 107.07 74.6859 107.001 74.6859 106.952C74.6859 106.445 74.6297 104.7 74.1227 105.488C73.8481 105.915 73.4246 107.269 72.9776 108.697C72.6 109.904 72.2056 111.164 71.8703 111.964C71.1381 113.71 70.5751 115.456 71.1945 116.188ZM75.0801 119.623C75.0801 119.623 74.4043 120.749 73.5597 119.398C72.9736 118.469 72.9736 117.286 73.5597 116.357C73.6961 116.111 73.8591 115.601 74.0164 115.108C74.1836 114.584 74.3446 114.08 74.4606 113.935C74.6859 113.654 74.9675 114.329 75.0801 115.174C75.1406 115.628 75.3148 116.114 75.4631 116.528C75.5909 116.885 75.6996 117.188 75.6996 117.37C75.6996 117.764 75.587 119.06 75.0801 119.623ZM76.2628 120.073C76.4579 120.349 76.6098 120.653 76.7132 120.974C76.7816 121.271 76.7816 121.579 76.7132 121.876C76.6007 122.439 76.15 123.058 76.0938 122.551C76.0681 122.321 75.9262 122.149 75.7843 121.976C75.614 121.77 75.4437 121.563 75.4743 121.256C75.5306 120.693 76.0938 119.961 76.2628 120.073ZM78.4589 104.08C79.0196 100.92 80.3762 97.9546 82.401 95.4642C85.6672 91.6349 87.1876 91.0154 87.1876 91.0154C87.1876 91.0154 87.6381 90.9029 87.4129 91.8038C87.2729 92.3638 86.5672 93.3808 85.9855 94.219C85.6313 94.7294 85.3231 95.1734 85.2166 95.4079C85.0808 95.7069 84.5381 96.3337 84.0132 96.9406C83.4504 97.5909 82.9077 98.2177 82.9077 98.3926C82.9077 98.5893 83.2133 98.5759 83.4907 98.564C83.6898 98.5552 83.8744 98.5473 83.9214 98.6177C83.9351 98.6382 83.9529 98.6595 83.9727 98.6833C84.1164 98.8555 84.3669 99.1554 83.9214 100.195C83.8134 100.447 83.6388 100.834 83.4304 101.297C82.6613 103.005 81.4315 105.737 81.3873 106.445C81.331 107.346 78.4027 114.104 78.1211 114.104C77.8395 114.104 77.22 114.048 77.2764 111.964C77.3327 109.881 80.43 102.053 81.2746 100.758C81.4079 100.553 81.5215 100.381 81.617 100.237C81.9483 99.7349 82.0624 99.5622 82.0239 99.5157C82.0037 99.4911 81.9412 99.5016 81.8458 99.5175L81.8378 99.5188C81.4999 99.5751 79.4163 101.828 79.1347 103.405C78.8531 104.981 78.4589 104.08 78.4589 104.08ZM83.9214 105.319C85.5545 105.432 86.343 103.573 86.343 103.573C86.343 103.573 87.4129 99.4625 87.5818 98.2235C87.7202 97.2082 89.0312 94.6799 89.8408 93.1186C90.0192 92.7749 90.1732 92.4779 90.2849 92.2544C90.5457 91.7328 90.9064 91.291 91.2155 90.9124C91.6406 90.3915 91.9684 89.9899 91.8054 89.6639C91.5238 89.1007 89.8344 89.7765 89.2149 90.3397C88.5954 90.9029 85.5545 97.6041 85.1603 99.3499C85.0382 99.8904 84.7165 100.658 84.3788 101.463C83.6258 103.258 82.794 105.241 83.9214 105.319Z" fill="black"/>
<path d="M84.7635 107.515C84.8708 107.24 84.8589 106.932 84.7307 106.665C84.6028 106.398 84.3699 106.196 84.0878 106.108C83.0178 105.657 82.9616 105.995 82.4546 106.84C81.9479 107.684 78.6816 115.568 78.6816 116.751C78.6816 117.933 79.0195 120.13 79.4137 120.468C79.808 120.806 80.2022 120.186 80.2022 119.341C80.3359 118.303 80.7661 117.326 81.441 116.526C82.1204 115.582 82.3661 114.395 82.1168 113.259C81.8916 111.908 84.0315 109.712 84.0315 109.712C84.0407 111.291 83.9655 112.87 83.8062 114.442C83.581 115.85 82.1168 116.976 81.7789 117.596C81.441 118.215 81.2721 120.637 80.9905 121.369C80.7106 122.261 80.6527 123.208 80.8217 124.128C80.9905 124.86 81.441 126.662 81.7226 125.367C82.0042 124.072 83.0178 120.242 83.2994 120.299C83.581 120.355 83.5248 124.522 83.3557 125.367C83.1869 126.212 82.9616 130.323 82.9616 130.829C82.9616 131.336 81.441 133.645 81.1596 134.49C80.878 135.335 79.1886 138.432 79.1886 138.601C79.1886 138.77 80.878 138.601 81.9479 137.756C82.7669 137.044 83.2558 136.025 83.2994 134.94C83.2994 134.265 83.1869 132.631 83.581 131.674C83.9752 130.717 84.9889 128.464 85.1577 127.563C85.2989 125.257 85.2989 122.943 85.1577 120.637C85.0451 119.341 85.3267 113.879 85.7209 112.753C86.1151 111.626 86.1714 111.063 86.453 111.063C86.7346 111.063 86.5657 114.498 86.453 115.568C86.3404 116.638 86.0588 120.13 86.0588 120.637C85.5772 124.942 86.2577 129.298 88.0298 133.251C88.0298 133.251 88.3114 134.49 89.6629 133.645C91.0145 132.8 89.0435 129.027 88.7056 127.957C88.3677 126.887 87.2415 121.312 87.6356 120.524C88.0298 119.736 90.2824 128.295 90.3387 129.14C90.395 129.985 90.6766 132.631 91.127 132.688C91.5775 132.744 93.4359 131.618 93.4359 131.392C93.4337 130.792 93.2576 130.205 92.9292 129.703C92.4223 128.858 89.7192 121.932 89.2123 116.188C88.7056 110.444 89.6067 100.645 90.0571 99.6315C90.5076 98.6178 92.5911 94 93.0981 93.268C93.605 92.5359 95.0691 89.495 95.3507 89.3822C95.6323 89.2696 95.9137 89.2696 95.9137 89.6075C95.5694 90.7763 95.1558 91.9232 94.6749 93.0426C94.337 94 92.5349 96.8721 92.197 97.8293C91.1677 100.872 90.5244 104.031 90.2824 107.234C89.7755 112.302 90.9582 120.862 91.2961 122.551C91.634 124.241 93.7738 129.985 94.9565 130.491C96.139 130.998 97.1527 129.478 96.9838 129.196C96.8148 128.915 94.337 124.41 93.7738 122.551C93.2106 120.693 92.197 116.244 92.366 115.23C92.5349 114.217 93.8301 123.677 98.2789 128.633C98.2789 128.633 98.8421 128.971 99.8557 128.295C100.869 127.619 100.813 127.056 99.8557 125.986C98.8984 124.916 95.6323 118.609 95.1816 116.976C94.7312 115.343 92.7602 109.937 92.6476 109.768C92.4318 107.853 92.5077 105.916 92.8727 104.024C93.3797 101.659 94.1117 98.3362 94.168 97.4351C94.2243 96.5342 95.6886 94.5069 96.0264 94.0563C96.3643 93.6058 97.1527 91.466 97.5468 89.9454C97.941 88.425 98.7295 87.4114 98.0537 87.2986C97.378 87.1861 94.9 87.5802 94.4496 88.0871C93.9991 88.5939 92.197 89.6638 88.3677 98.3925C88.3677 98.3925 87.2978 100.42 87.2978 101.602C87.297 103.134 86.8253 104.628 85.9462 105.882C85.6252 106.476 85.2277 107.025 84.7635 107.515Z" fill="black"/>
<path fill-rule="evenodd" clip-rule="evenodd" d="M102.502 87.4111C102.728 87.6365 101.883 88.6501 101.883 88.6501C101.883 88.6501 100.025 92.761 99.5743 93.493C99.1236 94.3378 96.308 100.138 96.9275 102.503C97.4643 104.553 97.2399 106.687 97.0604 108.393C97.0329 108.656 97.0063 108.908 96.9838 109.148C96.8147 110.95 99.2364 116.469 99.6868 117.201C100.137 117.933 103.629 124.241 103.629 124.241L105.037 125.874C105.037 125.874 103.235 127.957 101.376 125.874C99.518 123.79 95.2944 113.935 94.6186 109.092C94.1348 106.01 94.1729 102.869 94.7312 99.8003C94.8353 99.3318 95.4207 98.0573 96.0645 96.6552C96.8138 95.0237 97.6425 93.2191 97.8849 92.3105C98.5269 90.4253 99.4373 88.6424 100.588 87.017C101.038 86.4538 102.277 87.186 102.502 87.4111ZM84.8977 130.837C85.1197 130.678 85.3956 130.615 85.6646 130.66C86.7347 130.66 87.0726 132.068 87.0726 133.026C87.0022 134.053 86.5853 135.026 85.8899 135.785C85.2704 136.517 83.9752 136.855 83.8063 136.742C83.7141 136.681 83.8736 136.233 84.0469 135.748C84.1906 135.344 84.3439 134.914 84.3695 134.659C84.3297 133.606 84.3673 132.552 84.4821 131.505C84.5263 131.236 84.6759 130.995 84.8977 130.837Z" fill="black"/>
<path d="M100.36 101.039C100.401 100.137 100.572 99.2459 100.867 98.3925C101.261 97.2663 101.711 95.4078 100.867 94.9574C100.022 94.5067 98.5578 94.8446 98.5578 97.9983C98.5578 101.152 97.8257 104.756 98.5578 109.486C99.2898 114.217 102.838 122.551 107.568 126.831C112.298 131.111 111.454 129.647 113.763 131.73C116.071 133.814 127.785 136.01 131.051 135.616C134.317 135.222 135.162 133.645 135.331 133.082C135.5 132.519 135.049 131.562 134.599 132.012C134.148 132.462 131.727 134.659 123.786 132.913C115.846 131.167 113.763 129.196 113.312 128.802C112.862 128.408 108.413 123.846 107.906 123.396C107.399 122.945 102.274 115.962 102.274 114.949C102.274 113.935 108.92 126.606 117.761 129.985C126.602 133.364 129.868 132.8 131.558 132.237C133.247 131.674 134.993 131.167 134.993 130.548C134.993 129.928 134.937 128.746 134.374 128.746C133.81 128.746 130.488 130.717 128.911 130.548C127.334 130.379 125.025 129.365 122.885 129.365C120.746 129.365 116.24 126.718 115.114 125.648C113.988 124.579 108.019 121.538 102.274 109.205C102.218 109.261 100.078 102.898 100.36 101.039Z" fill="black"/>
<path d="M115.904 133.983C115.904 133.983 113.539 132.406 113.088 132.463C112.638 132.519 112.694 133.307 112.75 134.152C112.807 134.997 113.145 135.898 113.708 136.01C114.271 136.123 115.791 135.785 116.129 136.01C118.846 137.38 121.819 138.166 124.858 138.319C129.419 138.488 130.32 138.657 131.616 138.545C132.911 138.432 135.107 137.643 135.276 137.137C135.445 136.63 135.332 135.053 134.882 135.053C134.431 135.053 133.924 137.306 125.309 136.292C116.805 135.166 115.904 133.983 115.904 133.983Z" fill="black"/>
<path d="M117.032 137.474C117.032 137.474 115.287 136.235 114.78 136.742C114.273 137.249 114.16 138.77 115.906 139.164C117.652 139.558 121.594 140.684 122.495 140.853C124.26 141.183 126.049 141.371 127.845 141.416C129.759 141.416 131.674 140.515 132.462 140.515C133.251 140.515 135.616 140.515 135.729 140.009C135.741 139.414 135.646 138.823 135.447 138.263C135.391 138.038 134.715 138.094 134.264 138.319C132.812 138.894 131.301 139.309 129.759 139.558C127.174 139.71 124.58 139.521 122.044 138.995C120.342 138.597 118.668 138.09 117.032 137.474Z" fill="black"/>
<path d="M133.984 142.374C133.984 142.374 130.38 144.852 120.356 143.275C110.332 141.698 112.922 137.756 113.148 137.925C113.373 138.094 114.218 139.276 114.837 139.502C115.457 139.727 122.946 142.205 125.03 142.261C127.113 142.318 129.817 142.205 130.999 141.811C132.182 141.417 133.759 140.403 134.378 141.247C134.998 141.98 133.984 142.374 133.984 142.374Z" fill="black"/>
<path d="M114.444 142.486C114.444 142.486 113.543 141.867 113.543 142.486C113.632 143.389 114.188 144.18 115.007 144.57C115.794 144.966 116.66 145.178 117.541 145.19C118.607 145.275 119.642 145.581 120.582 146.09C121.427 146.485 124.412 147.667 129.593 146.71C134.773 145.753 136.069 144.514 136.294 144.176C136.463 143.664 136.463 143.111 136.294 142.599C136.181 142.036 135.787 141.811 135.337 142.261C134.886 142.712 131.845 145.415 124.412 144.908C116.978 144.401 114.444 142.486 114.444 142.486Z" fill="black"/>
<path d="M119.509 146.541C119.509 146.541 118.89 145.64 117.201 146.09C115.511 146.541 121.537 149.751 121.875 150.033C122.212 150.314 122.607 150.483 124.071 150.314C125.535 150.145 129.702 149.92 131.166 149.582C132.631 149.244 135.559 148.399 136.46 147.273C137.361 146.147 137.023 145.415 136.178 145.527C135.334 145.64 130.153 148.85 124.972 148.399C119.791 147.949 119.509 146.541 119.509 146.541Z" fill="black"/>
<path fill-rule="evenodd" clip-rule="evenodd" d="M107.177 88.087C106.9 88.4969 106.579 88.8746 106.219 89.2134C105.262 90.3396 104.023 93.5494 103.91 94.3379C103.798 95.1262 104.136 97.3226 104.474 98.6741C104.625 99.278 104.933 101.029 105.268 102.932C105.683 105.288 106.139 107.876 106.388 108.811C106.651 109.796 107.431 111.413 108.057 112.713C108.506 113.642 108.876 114.409 108.922 114.667C109.035 115.287 114.103 120.524 114.779 120.805C115.036 120.913 115.816 121.575 116.793 122.404C118.38 123.752 120.485 125.541 121.706 126.099C123.677 127 129.59 128.07 130.716 128.126C131.842 128.183 131.054 128.915 131.054 128.915C125.649 130.01 120.038 128.648 115.736 125.198C104.699 116.526 102.672 108.473 101.771 100.645C100.87 92.8173 103.741 87.1861 104.586 87.017C105.431 86.8482 107.177 87.9181 107.177 88.087ZM124.296 151.666C124.183 151.159 126.718 151.102 126.718 151.102C130.238 151.519 134.557 149.232 136.294 148.312C136.669 148.114 136.923 147.979 137.023 147.949C137.586 147.78 137.812 148.681 137.812 149.469C137.812 150.042 137.247 150.288 136.442 150.638C136.138 150.77 135.801 150.917 135.446 151.102C134.4 151.648 130.085 152.414 127.87 152.807C127.343 152.901 126.934 152.974 126.718 153.017C125.708 153.114 124.744 152.576 124.296 151.666ZM128.97 154.538C128.97 154.256 131.73 153.355 131.73 153.355C132.631 153.299 136.46 151.215 136.854 150.99C137.23 150.819 137.661 150.819 138.037 150.99C138.38 151.606 138.518 152.317 138.431 153.017C138.349 153.507 137.054 153.819 135.962 154.083C135.547 154.183 135.162 154.276 134.883 154.369C134.475 154.505 133.912 154.796 133.325 155.099C132.455 155.549 131.536 156.024 130.997 156.058C130.097 156.114 128.97 154.819 128.97 154.538ZM134.376 157.635C133.754 157.938 133.027 157.938 132.405 157.635C131.335 157.128 131.73 156.508 132.631 156.058C133.189 155.779 134.05 155.435 134.772 155.146C135.215 154.97 135.605 154.814 135.841 154.706C136.46 154.425 138.149 153.805 138.431 154.031C138.728 154.341 138.924 154.733 138.994 155.157C138.994 155.438 134.376 157.635 134.376 157.635ZM134.207 159.043C134.207 159.268 135.897 160.169 135.897 160.169C136.573 160.282 140.233 159.324 140.233 158.479C140.233 157.635 139.332 156.79 139.332 156.79C139.332 156.79 135.897 158.198 135.39 158.198C134.879 158.264 134.435 158.581 134.207 159.043ZM140.233 162.027C139.749 162.119 139.253 162.119 138.769 162.027C138.499 161.937 138.181 161.688 137.909 161.474C137.67 161.286 137.466 161.126 137.361 161.126C137.136 161.126 137.868 160.676 138.431 160.619C138.779 160.585 139.276 160.443 139.686 160.326C139.94 160.253 140.16 160.191 140.289 160.169C140.627 160.113 141.078 160.563 141.078 161.126C141.078 161.689 140.233 162.027 140.233 162.027Z" fill="black"/>
<path d="M110.11 90.0579C110.11 90.0579 111.123 89.7763 111.18 89.4384C111.236 89.1005 111.067 88.3122 109.716 88.0868C108.364 87.8617 107.069 88.8191 106.168 91.2405C105.267 93.662 105.661 98.7865 106.844 101.94C108.026 105.094 107.35 107.628 109.547 111.851C111.743 116.075 111.686 116.075 112.531 116.751C113.376 117.427 117.431 121.368 118.05 121.988C118.669 122.607 122.274 124.973 122.949 124.973C123.625 124.973 123.963 123.846 123.907 123.283C123.85 122.72 123.794 122.438 122.837 122.382C121.879 122.326 120.528 120.749 120.528 120.749C120.528 120.749 115.403 115.906 115.009 115.681C114.615 115.456 110.448 110.725 110.448 110.162C110.448 109.599 110.504 108.81 110.842 109.261C111.18 109.712 113.601 113.203 115.178 114.667C116.755 116.131 121.767 120.355 122.949 120.862C124.132 121.368 124.695 121.425 124.808 120.468C124.92 119.51 125.483 119.06 125.99 119.341C126.497 119.623 130.27 121.819 131.453 121.65C132.635 121.481 134.381 119.735 134.944 119.848C135.507 119.961 133.931 121.706 133.424 121.988C132.917 122.27 133.818 122.889 133.987 123.002C134.626 123.348 135.414 123.258 135.958 122.776C136.859 121.988 136.972 120.918 136.352 119.51C135.733 118.102 135.564 115.737 135.395 115.287C135.226 114.836 135.001 114.16 134.55 115.287C134.1 116.413 133.255 118.722 130.327 118.834C126.852 119.118 123.387 118.182 120.528 116.188C116.924 113.822 112.588 110.556 109.209 100.927C105.83 91.2968 110.11 90.0579 110.11 90.0579Z" fill="black"/>
<path fill-rule="evenodd" clip-rule="evenodd" d="M134.099 110.556C133.794 110.41 133.43 110.479 133.198 110.725C133.029 111.007 132.804 109.711 133.142 108.473C133.48 107.234 133.198 105.375 132.804 105.488C132.727 105.51 132.549 105.712 132.288 106.01C131.209 107.237 128.709 110.081 125.99 108.585C122.611 106.727 118.388 101.433 117.205 99.0682C117.098 98.8548 116.99 98.6388 116.88 98.421C115.772 96.2247 114.579 93.8577 114.784 92.4231C114.784 92.4231 114.953 91.1841 115.009 90.8462C115.065 90.5083 114.333 89.1568 113.432 89.4947C112.531 89.8326 110.335 91.0715 110.053 91.9726C109.989 92.1783 109.892 92.3813 109.787 92.6027C109.431 93.3506 108.974 94.3099 109.321 96.3088C109.667 98.2995 110.546 100.723 111.164 102.428C111.35 102.942 111.513 103.39 111.63 103.742C112.137 105.263 113.714 108.698 115.403 110.218C117.093 111.739 120.415 114.723 121.879 115.399C122.124 115.512 122.413 115.67 122.745 115.851C124.402 116.756 127.108 118.233 130.439 117.483C134.437 116.582 134.494 112.584 134.494 112.189C134.456 111.627 134.323 111.074 134.099 110.556ZM116.006 108.593C115.355 107.612 114.323 106.058 114.164 105.938C115.234 106.733 116.232 107.618 117.149 108.585C118.275 109.88 119.289 111.401 119.289 111.851C119.289 111.851 116.698 109.599 116.529 109.374C116.48 109.308 116.275 109 116.006 108.593ZM123.704 112.448C124.54 113.072 125.801 114.013 128.355 114.104C131.509 114.217 132.297 112.64 132.128 112.414C131.959 112.189 131.34 112.189 130.777 112.414C130.74 112.429 130.696 112.448 130.645 112.47C129.915 112.786 127.737 113.728 124.526 111.57C121.091 109.261 117.205 105.038 116.755 104.08C116.663 103.886 116.451 103.527 116.173 103.055C115.077 101.201 112.948 97.596 113.038 95.3515C112.913 94.758 112.838 94.1552 112.813 93.5493C112.813 93.2114 111.743 93.7746 111.912 94.4504C112.081 95.1261 113.714 100.926 114.333 102.109C114.953 103.292 116.417 104.925 118.275 106.839C119.023 107.61 119.825 108.526 120.572 109.378C121.682 110.646 122.67 111.774 123.174 112.077C123.335 112.173 123.508 112.302 123.704 112.448Z" fill="black"/>
<path fill-rule="evenodd" clip-rule="evenodd" d="M132.406 102.785C132.211 102.785 131.925 102.985 131.637 103.186C131.175 103.508 130.708 103.834 130.604 103.348C130.523 102.97 130.701 102.384 130.909 101.702C131.134 100.964 131.392 100.114 131.392 99.2936C131.392 97.717 131.055 94.7323 130.323 93.268C129.59 91.8039 128.858 90.5087 127.563 91.297C126.381 92.0164 126.84 92.5952 127.358 93.2471C127.407 93.3096 127.458 93.3729 127.507 93.437C127.551 93.4942 127.6 93.5571 127.654 93.6251C128.282 94.4265 129.478 95.952 129.478 97.717C129.478 99.6315 129.196 102.109 128.464 102.278C127.732 102.447 125.986 101.884 124.41 100.645C122.725 99.3838 121.161 97.97 119.736 96.4217C119.229 95.6897 118.215 94.0002 118.497 93.7186C118.778 93.437 119.229 93.3245 119.679 94.1128C120.13 94.9011 122.326 97.21 122.889 97.7732C123.83 98.7141 124.827 99.598 125.874 100.42C125.953 100.473 126.035 100.531 126.118 100.589C126.745 101.031 127.467 101.54 128.014 100.645C128.633 99.6315 128.746 97.21 128.239 96.309C128.096 96.0558 127.927 95.7492 127.752 95.4304C127.302 94.6151 126.808 93.7205 126.606 93.437L126.585 93.4077C126.302 93.0106 125.85 92.3766 124.916 92.7613C123.959 93.1554 124.015 93.9438 124.353 94.2254C124.403 94.2668 124.478 94.3251 124.571 94.397C125.108 94.8141 126.228 95.6845 126.324 96.309C126.345 96.4419 126.373 96.5933 126.401 96.7484C126.53 97.4482 126.673 98.2239 126.212 97.717C126.002 97.4863 125.668 97.0606 125.31 96.6052C124.707 95.8378 124.038 94.9862 123.79 94.8449C123.396 94.6195 120.693 92.9301 120.693 92.9301C120.693 92.9301 117.427 91.5786 117.201 91.2407C116.976 90.9028 116.3 90.8465 116.807 92.7613C116.898 93.1048 116.984 93.4611 117.071 93.8246C117.47 95.4865 117.905 97.298 119.06 98.7306C119.849 99.644 120.426 100.721 120.749 101.884C121.031 102.729 123.846 106.896 127.451 107.797C130.749 108.622 132.113 105.202 132.451 104.356C132.482 104.278 132.505 104.222 132.519 104.193C132.688 103.855 132.913 102.785 132.406 102.785ZM128.971 105.319C128.897 105.872 128.197 105.677 127.532 105.492C127.181 105.395 126.839 105.3 126.606 105.319C125.93 105.376 124.691 104.249 123.903 103.348C123.114 102.447 122.495 101.49 122.72 101.377C122.83 101.322 123.128 101.589 123.522 101.943C123.935 102.313 124.454 102.778 124.973 103.067L125.139 103.159C126.13 103.712 127.386 104.412 128.239 104.306C129.14 104.193 128.971 105.319 128.971 105.319ZM135.954 124.297C135.954 123.959 136.686 123.114 136.686 123.114C137.29 122.975 137.319 123.563 137.342 124.026C137.347 124.125 137.352 124.218 137.362 124.297C137.418 124.748 137.418 125.086 137.024 125.367C136.63 125.649 136.348 125.48 136.348 125.142C136.348 124.973 136.25 124.846 136.151 124.719C136.053 124.593 135.954 124.466 135.954 124.297ZM137.418 126.099C137.418 126.099 136.686 126.55 136.686 127.113C136.658 127.582 136.658 128.052 136.686 128.521C136.754 128.711 136.935 128.838 137.137 128.838C137.339 128.838 137.519 128.711 137.587 128.521C137.629 128.437 137.673 128.359 137.715 128.285C137.899 127.956 138.052 127.684 137.869 127.225C137.781 127.051 137.762 126.783 137.744 126.543C137.717 126.165 137.694 125.858 137.418 126.099ZM137.024 131.899C136.968 132.294 137.981 131.562 137.981 131.562L138.058 131.516C138.579 131.206 138.913 131.008 138.375 130.041C137.981 129.33 137.862 129.45 137.711 129.605C137.646 129.671 137.575 129.743 137.475 129.76C137.207 129.804 137.116 130.875 137.061 131.513C137.047 131.68 137.036 131.818 137.024 131.899ZM138.826 132.857C138.826 132.857 139.108 131.787 138.319 132.463C137.989 132.746 137.757 132.871 137.604 132.953C137.391 133.068 137.329 133.102 137.362 133.364C137.418 133.814 137.587 134.603 138.038 134.49C138.088 134.473 138.148 134.463 138.214 134.451C138.586 134.386 139.114 134.294 138.826 132.857ZM138.094 136.461C137.981 135.729 139.277 135.109 139.277 135.109C139.564 134.93 139.576 135.3 139.592 135.753C139.6 136.01 139.609 136.293 139.671 136.517C139.84 137.137 139.389 137.925 139.108 137.925C138.826 137.925 138.207 137.193 138.094 136.461Z" fill="black"/>
<path fill-rule="evenodd" clip-rule="evenodd" d="M39.6582 110.5C39.6582 71.3746 71.3756 39.657 110.501 39.657C129.291 39.6526 147.313 47.115 160.6 60.4015C173.886 73.6882 181.349 91.7099 181.344 110.5C181.344 149.626 149.627 181.343 110.501 181.343C71.3756 181.343 39.6582 149.626 39.6582 110.5ZM44.3323 110.5C44.3479 147.029 73.9727 176.628 110.501 176.613C128.045 176.611 144.868 169.638 157.268 157.227C169.668 144.817 176.627 127.987 176.614 110.444C176.598 73.9152 146.973 44.3157 110.445 44.3311C73.9164 44.3467 44.3167 73.9715 44.3323 110.5Z" fill="black"/>
<path fill-rule="evenodd" clip-rule="evenodd" d="M28 110.5C28 64.9365 64.9365 28 110.5 28C156.062 28.0031 192.996 64.9378 193 110.5C193 156.063 156.063 193 110.5 193C64.9365 193 28 156.063 28 110.5ZM35.715 110.5C35.715 151.803 69.1974 185.285 110.5 185.285C151.795 185.267 185.267 151.795 185.285 110.5C185.285 69.1974 151.803 35.715 110.5 35.715C69.1974 35.715 35.715 69.1974 35.715 110.5Z" fill="#151515"/>
</g>
<defs>
<clipPath id="clip0_4_6090">
<rect width="220" height="220" fill="white" transform="translate(0.5 0.5)"/>
</clipPath>
</defs>
</svg>
