<svg width="221" height="221" viewBox="0 0 221 221" fill="none" xmlns="http://www.w3.org/2000/svg">
<g clip-path="url(#clip0_4_6113)">
<path d="M110.5 220.5C171.251 220.5 220.5 171.251 220.5 110.5C220.5 49.7487 171.251 0.5 110.5 0.5C49.7487 0.5 0.5 49.7487 0.5 110.5C0.5 171.251 49.7487 220.5 110.5 220.5Z" fill="#EDF0F4"/>
<path d="M110.497 163.111C117.37 163.111 122.942 157.539 122.942 150.667C122.942 143.794 117.37 138.222 110.497 138.222C103.624 138.222 98.0527 143.794 98.0527 150.667C98.0527 157.539 103.624 163.111 110.497 163.111Z" fill="#1C1C1C"/>
<path d="M124.001 57.3333H96.9349L59.166 161.556H82.0326L110.499 83.0777L138.904 161.556H161.833L124.001 57.3333Z" fill="#1C1C1C"/>
</g>
<defs>
<clipPath id="clip0_4_6113">
<rect width="220" height="220" fill="white" transform="translate(0.5 0.5)"/>
</clipPath>
</defs>
</svg>
