<svg width="221" height="221" viewBox="0 0 221 221" fill="none" xmlns="http://www.w3.org/2000/svg">
<g clip-path="url(#clip0_4_6117)">
<path d="M110.5 220.5C171.251 220.5 220.5 171.251 220.5 110.5C220.5 49.7487 171.251 0.5 110.5 0.5C49.7487 0.5 0.5 49.7487 0.5 110.5C0.5 171.251 49.7487 220.5 110.5 220.5Z" fill="#EDF0F4"/>
<path fill-rule="evenodd" clip-rule="evenodd" d="M173.046 108.74L169.154 104.836L111.161 46.3333L53.147 104.836L48.166 109.859L49.9658 111.42C51.9959 113.13 54.0888 114.755 56.2444 116.275C79.182 132.567 107.624 137.485 133.889 131.006C144.604 128.389 154.776 123.893 163.963 117.731C166.245 116.211 168.463 114.565 170.64 112.834C171.833 111.864 173.004 110.872 174.156 109.859L173.046 108.74ZM142.93 141.642L111.161 173.68L95.4017 157.788C112.396 156.775 128.804 151.203 142.93 141.642ZM68.927 107.178C89.2277 107.094 109.152 112.729 126.46 123.45C137.531 121.466 148.12 117.309 157.601 111.231C127.841 93.9667 95.3808 95.5496 68.927 107.178Z" fill="#2B71FF"/>
</g>
<defs>
<clipPath id="clip0_4_6117">
<rect width="220" height="220" fill="white" transform="translate(0.5 0.5)"/>
</clipPath>
</defs>
</svg>
