<svg width="221" height="221" viewBox="0 0 221 221" fill="none" xmlns="http://www.w3.org/2000/svg">
<g clip-path="url(#clip0_4_6125)">
<path d="M110.5 220.5C171.253 220.5 220.5 171.253 220.5 110.5C220.5 49.747 171.253 0.5 110.5 0.5C49.747 0.5 0.5 49.747 0.5 110.5C0.5 171.253 49.747 220.5 110.5 220.5Z" fill="#EDF0F4"/>
<path fill-rule="evenodd" clip-rule="evenodd" d="M99.731 187.781C103.121 189.718 106.996 190.784 110.87 190.784C114.841 190.784 118.619 189.718 122.106 187.781L171.601 159.207C178.478 155.236 182.74 147.777 182.74 139.835V82.5907C182.74 74.6483 178.478 67.1901 171.601 63.2187L122.106 34.6451C115.132 30.674 106.608 30.674 99.731 34.6451L50.1388 63.2187C43.2618 67.1901 39 74.6483 39 82.5907V139.738C39 147.777 43.2618 155.139 50.2358 159.207L99.731 187.781ZM103.605 41.3286C105.833 40.0692 108.352 39.3913 110.87 39.3913C113.485 39.3913 116.003 40.0692 118.231 41.3286L167.63 69.999C172.085 72.5174 174.894 77.3603 174.894 82.5907V139.932C174.894 145.162 172.085 149.908 167.63 152.524L118.134 181.097C113.582 183.712 108.061 183.712 103.509 181.097L54.0133 152.427C49.5578 149.811 46.7488 145.065 46.7488 139.835V82.5907C46.7488 77.4571 49.4608 72.6142 54.0133 69.999L103.605 41.3286ZM110.87 164.825C108.739 164.825 106.705 164.243 104.865 163.178L68.8327 142.45C65.1521 140.319 62.8275 136.348 62.8275 131.989V90.4364C62.8275 86.1746 65.0553 82.2033 68.8327 79.9756L104.865 59.2476C108.642 57.1167 113.195 57.1167 116.875 59.2476L152.81 79.9756C156.491 82.1065 158.815 86.0777 158.815 90.4364V131.989C158.815 136.251 156.491 140.319 152.81 142.45L116.778 163.178C115.035 164.243 113.001 164.825 110.87 164.825ZM107.771 64.2843C108.739 63.7031 109.804 63.4125 110.87 63.4125C112.032 63.4125 113.098 63.7031 113.969 64.2843L149.904 85.0123C151.842 86.1746 153.004 88.2085 153.004 90.4364V131.989C153.004 134.217 151.842 136.251 149.904 137.413L113.969 158.141C112.032 159.304 109.708 159.304 107.771 158.141L71.7386 137.413C69.8015 136.251 68.6391 134.217 68.6391 131.989V90.4364C68.6391 88.2085 69.8015 86.1746 71.7386 85.0123L107.771 64.2843ZM110.87 138.479C109.804 138.479 108.739 138.188 107.771 137.704L89.5608 127.049C87.6237 125.984 86.4613 123.853 86.4613 121.722V100.607C86.4613 98.379 87.6237 96.3449 89.5608 95.2793L107.771 84.7217C109.708 83.6562 112.032 83.6562 113.969 84.7217L132.179 95.2793C134.116 96.3449 135.279 98.379 135.279 100.607V121.722C135.279 123.95 134.116 125.984 132.179 127.049L113.969 137.607C113.001 138.188 111.935 138.479 110.87 138.479ZM109.708 88.1117C110.095 87.918 110.483 87.8212 110.87 87.8212C111.257 87.8212 111.645 87.918 112.032 88.1117L130.242 98.6695C130.92 99.0569 131.404 99.8319 131.404 100.607V121.722C131.404 122.497 130.92 123.369 130.242 123.756L112.032 134.314C111.257 134.701 110.386 134.701 109.708 134.314L91.498 123.756C90.8199 123.272 90.3357 122.497 90.3357 121.722V100.607C90.3357 99.8319 90.8199 99.0569 91.498 98.6695L109.708 88.1117Z" fill="url(#paint0_linear_4_6125)"/>
</g>
<defs>
<linearGradient id="paint0_linear_4_6125" x1="39" y1="190.771" x2="182.779" y2="190.771" gradientUnits="userSpaceOnUse">
<stop stop-color="#E168FD"/>
<stop offset="1" stop-color="#7B00FC"/>
</linearGradient>
<clipPath id="clip0_4_6125">
<rect width="220" height="220" fill="white" transform="translate(0.5 0.5)"/>
</clipPath>
</defs>
</svg>
