<svg width="221" height="221" viewBox="0 0 221 221" fill="none" xmlns="http://www.w3.org/2000/svg">
<g clip-path="url(#clip0_4_6128)">
<path fill-rule="evenodd" clip-rule="evenodd" d="M110.5 220.5C50 220.5 0.5 171.001 0.5 109.952C1.05 49.4535 50 -0.0454497 111.05 0.504539C171.55 1.05453 220.5 50.0035 220.5 111.602C219.95 171.551 171 220.5 110.5 220.5Z" fill="black"/>
<path d="M74.5124 165.5L90.4206 137.951L106.329 110.5L122.14 82.9514L124.759 78.5864L125.923 82.9514L130.773 101.091L125.341 110.5L109.433 137.951L93.6218 165.5H112.634L128.542 137.951L136.787 123.692L140.667 137.951L148.04 165.5H165.112L157.74 137.951L150.368 110.5L148.428 103.419L160.262 82.9514H142.996L142.414 80.9144L136.399 58.41L135.623 55.5H119.036L118.648 56.0821L103.128 82.9514L87.2196 110.5L71.4082 137.951L55.5 165.5H74.5124Z" fill="white"/>
</g>
<defs>
<clipPath id="clip0_4_6128">
<rect width="220" height="220" fill="white" transform="translate(0.5 0.5)"/>
</clipPath>
</defs>
</svg>
