<svg width="221" height="221" viewBox="0 0 221 221" fill="none" xmlns="http://www.w3.org/2000/svg">
<g clip-path="url(#clip0_4_6131)">
<path fill-rule="evenodd" clip-rule="evenodd" d="M110.5 220.5C50 220.5 0.5 171.001 0.5 109.952C1.05 49.4535 50 -0.0454497 111.05 0.504539C171.55 1.05453 220.5 50.0035 220.5 111.602C219.95 171.551 171 220.5 110.5 220.5Z" fill="#EDF0F4"/>
<path fill-rule="evenodd" clip-rule="evenodd" d="M107.969 55.7033C105.52 56.3182 104.268 57.5069 103.012 60.4109C102.568 61.4379 100.931 64.893 99.3751 68.0887L96.5454 73.8989L96.5536 75.2547C96.567 77.4743 98.028 80.4795 100.297 82.9548C101.404 84.1625 103.888 85.8918 105.447 86.5407C110.493 88.6406 117.007 86.4459 120.55 81.4524C122.418 78.8196 123.268 76.3853 123.121 74.0907C123.039 72.8152 122.87 72.387 120.561 67.5987C119.201 64.7788 117.776 61.6876 117.395 60.729C116.803 59.2432 116.513 58.7983 115.429 57.7161C114.288 56.5765 114.008 56.4032 112.705 56.0246C110.719 55.4482 109.354 55.3557 107.969 55.7033ZM123.48 84.025C121.897 86.2317 120.63 88.1245 120.666 88.231C120.724 88.4048 132.353 93.9552 133.266 94.2451C133.62 94.3574 133.626 94.329 133.367 93.7185C132.808 92.3993 126.566 80.0001 126.465 80.0061C126.407 80.0096 125.063 81.818 123.48 84.025ZM90.3953 86.7245C87.4911 92.8798 87.197 93.5647 87.4656 93.5464C87.848 93.52 99.0284 88.405 99.0834 88.231C99.1432 88.0412 93.6428 80.9235 93.3544 80.8175C93.2736 80.7878 91.9422 83.446 90.3953 86.7245ZM104.866 91.9279C99.9381 92.6937 94.5379 94.7553 89.27 97.8817L87.43 98.9736L108.686 98.9769C120.449 98.9787 129.942 98.9056 129.942 98.8134C129.942 98.5582 127.253 96.5549 125.481 95.4899C122.441 93.6632 118.051 92.305 113.632 91.8247C111.099 91.5495 106.991 91.5977 104.866 91.9279ZM100.987 103.239L83.7502 103.338L82.9506 103.765C81.7614 104.402 80.6669 105.773 79.9203 107.562L79.2581 109.148L93.2215 109.245C100.901 109.298 107.294 109.412 107.427 109.498C107.619 109.623 107.669 115.402 107.669 137.328C107.669 155.212 107.736 165.042 107.859 165.118C107.964 165.183 108.776 165.287 109.663 165.35C111.497 165.479 111.944 165.328 112.521 164.382C112.889 163.779 112.897 163.155 112.898 136.505L112.899 109.245L119.629 109.218C123.331 109.203 129.614 109.138 133.592 109.073L140.824 108.954L139.675 107.204C138.418 105.291 137.367 104.276 135.873 103.531L134.901 103.047L126.563 103.094C121.977 103.119 110.468 103.184 100.987 103.239ZM78.9083 113.88C77.3949 114.137 76.8588 114.685 75.5401 117.326C73.7647 120.882 73.0006 124.268 73.0022 128.571C73.0028 130.138 73.1341 132.287 73.2936 133.346C74.2117 139.439 76.9446 146.042 80.518 150.803C83.9762 155.411 89.2639 159.576 94.4885 161.806C96.8235 162.803 102.566 164.893 103.585 165.117L104.214 165.255L104.094 140.688C104.028 127.176 103.929 115.752 103.874 115.303C103.804 114.73 103.624 114.367 103.274 114.092C102.785 113.707 102.553 113.7 91.2291 113.724C84.8788 113.737 79.3344 113.807 78.9083 113.88ZM119.344 114.063C117.816 114.156 117.287 114.262 117.02 114.529C116.717 114.833 116.663 115.394 116.572 119.177C116.433 125 116.452 165.35 116.595 165.492C116.782 165.679 125.041 162.571 127.327 161.452C135.546 157.43 141.988 150.263 145.093 141.686C146.8 136.971 147.359 134.232 147.502 129.871C147.626 126.114 147.391 124.274 146.385 121.113C145.75 119.118 144.453 116.32 143.672 115.26C142.717 113.961 143.138 114.007 131.685 113.973C125.986 113.957 120.433 113.997 119.344 114.063ZM150.499 130.888C149.728 134.487 148.481 141.406 148.586 141.511C148.744 141.669 155.502 139.805 155.505 139.602C155.508 139.382 150.904 129.968 150.793 129.968C150.74 129.968 150.608 130.382 150.499 130.888ZM68.3672 132.341C68.1694 132.793 67.2109 134.856 66.2367 136.924C65.2628 138.992 64.5341 140.751 64.6179 140.831C64.7015 140.912 66.0336 141.321 67.5781 141.74C71.6142 142.835 71.4516 142.805 71.4516 142.463C71.4516 142.301 70.9287 139.816 70.2896 136.941C69.6505 134.065 69.1275 131.669 69.1275 131.615C69.1275 131.562 69.0373 131.518 68.9269 131.518C68.8167 131.518 68.5648 131.888 68.3672 132.341ZM153.292 144.61C148.185 145.742 144.141 149.492 142.933 154.217C142.373 156.409 142.279 157.944 142.597 159.698C143.006 161.95 143.605 163.376 144.563 164.375L145.391 165.24L153.822 165.18L162.253 165.12L163.088 164.533C163.547 164.211 164.183 163.526 164.5 163.013C164.994 162.214 165.076 161.894 165.066 160.792C165.051 159.104 164.777 158.417 161.317 151.37C159.402 147.471 158.262 145.37 157.85 144.984C157.312 144.48 157.078 144.403 155.937 144.361C155.221 144.334 154.031 144.446 153.292 144.61ZM62.7363 145.598C62.1291 145.91 61.7942 146.474 59.5247 150.999C56.0388 157.951 55.546 159.162 55.5058 160.874C55.477 162.092 55.5388 162.351 56.0613 163.198C56.4579 163.842 56.9912 164.357 57.699 164.782L58.7488 165.411L65.8266 165.399C69.7193 165.393 73.3343 165.317 73.8597 165.231C75.9669 164.885 77.1635 162.447 77.1447 158.535C77.1364 156.77 77.0469 156.14 76.6222 154.856C75.0811 150.195 71.5541 147.009 66.5781 145.781C64.4389 145.254 63.4926 145.209 62.7363 145.598ZM81.2497 158.39C81.1443 158.727 80.5013 162.538 80.2531 164.297L80.1233 165.217H85.6112H91.0993L87.0373 162.195C81.2972 157.925 81.3782 157.978 81.2497 158.39ZM134.106 161.07C131.869 162.729 129.757 164.276 129.412 164.507C129.067 164.738 128.784 164.97 128.783 165.024C128.783 165.077 131.287 165.12 134.349 165.12C137.944 165.12 139.91 165.052 139.897 164.927C139.838 164.335 138.351 158.053 138.27 158.053C138.217 158.053 136.343 159.41 134.106 161.07Z" fill="black"/>
</g>
<defs>
<clipPath id="clip0_4_6131">
<rect width="220" height="220" fill="white" transform="translate(0.5 0.5)"/>
</clipPath>
</defs>
</svg>
