<svg width="221" height="221" viewBox="0 0 221 221" fill="none" xmlns="http://www.w3.org/2000/svg">
<g clip-path="url(#clip0_4_6134)">
<path d="M110.5 220.5C171.251 220.5 220.5 171.251 220.5 110.5C220.5 49.7487 171.251 0.5 110.5 0.5C49.7487 0.5 0.5 49.7487 0.5 110.5C0.5 171.251 49.7487 220.5 110.5 220.5Z" fill="#EDF0F4"/>
<path fill-rule="evenodd" clip-rule="evenodd" d="M118.504 51.2025C129.123 53.656 137.148 58.0098 144.915 65.5318C149.917 70.3768 153.218 74.8734 156.078 80.7377C159.269 87.2836 160.793 92.6542 161.576 100.109L161.834 102.574L152.063 102.469L142.292 102.363L142.013 100.987C141.027 96.1237 140.31 93.4641 139.419 91.3747C133.436 77.3339 119.704 68.7726 104.575 69.6513C89.4939 70.5269 76.3566 81.326 72.4331 96.0722C71.3263 100.232 71.2196 108.891 72.2254 112.912C75.7819 127.128 87.7328 138.111 101.518 139.833L103.76 140.113V149.941V159.769L101.597 159.642C96.3233 159.332 88.677 157.208 82.8926 154.448C72.4327 149.455 62.6462 139.787 57.2929 129.158C55.5664 125.729 53.49 119.442 52.5788 114.885C51.506 109.517 51.607 99.3007 52.7858 93.9564C55.1649 83.1727 59.6949 74.6516 67.2134 66.8185C75.9041 57.764 87.3137 51.9806 99.8279 50.2871C104.491 49.6561 113.782 50.1113 118.504 51.2025ZM152.417 112.752L161.362 112.783V122.416V132.049H151.532H141.703V122.482C141.703 117.219 141.803 112.813 141.926 112.69C142.049 112.568 142.447 112.524 142.811 112.595C143.174 112.665 147.497 112.736 152.417 112.752ZM133.446 150.136V159.966H123.616H113.786V150.136V140.306H123.616H133.446V150.136ZM161.362 150.136V159.966H151.532H141.703V150.398C141.703 145.136 141.821 140.712 141.965 140.568C142.109 140.424 146.532 140.306 151.795 140.306H161.362V150.136Z" fill="black"/>
</g>
<defs>
<clipPath id="clip0_4_6134">
<rect width="220" height="220" fill="white" transform="translate(0.5 0.5)"/>
</clipPath>
</defs>
</svg>
