<svg width="221" height="221" viewBox="0 0 221 221" fill="none" xmlns="http://www.w3.org/2000/svg">
<g clip-path="url(#clip0_4_6137)">
<path d="M110.5 220.5C171.251 220.5 220.5 171.251 220.5 110.5C220.5 49.7487 171.251 0.5 110.5 0.5C49.7487 0.5 0.5 49.7487 0.5 110.5C0.5 171.251 49.7487 220.5 110.5 220.5Z" fill="#199248"/>
<path fill-rule="evenodd" clip-rule="evenodd" d="M28 110.5C28 64.9395 64.9395 28 110.5 28C156.063 28 193 64.9365 193 110.5C193 156.061 156.061 193 110.5 193C64.9395 193 28 156.061 28 110.5ZM57.61 160.469C75.9659 179.927 103.51 187.76 129.358 180.873C167.015 170.749 190.025 132.77 181.562 94.7056C173.1 56.6412 136.166 31.9884 97.7675 38.7732C71.4357 43.4856 49.8047 62.2507 41.4222 87.6537C33.0396 113.057 39.2541 141.01 57.61 160.469Z" fill="white"/>
<path fill-rule="evenodd" clip-rule="evenodd" d="M130.782 61.2545C130.645 57.7001 130.645 54.1526 130.645 50.5983H130.652L130.666 50.6463C156.4 59.2984 173.742 83.4089 173.759 110.559C173.777 137.709 156.465 161.841 130.741 170.526C130.632 167.043 130.632 163.558 130.741 160.076C125.988 161.855 121.055 163.109 116.029 163.816C116.037 166.996 116.128 170.176 116.304 173.351C112.454 173.901 108.549 173.901 104.699 173.351C104.891 170.161 104.891 166.937 104.891 163.713C99.8684 163.052 94.9445 161.785 90.2269 159.938C90.2957 163.445 90.33 166.951 90.33 170.471C64.5956 161.806 47.2637 137.682 47.2637 110.528C47.2637 83.3737 64.5956 59.2496 90.33 50.5845C90.3782 54.1801 90.3437 57.762 90.2407 61.3508C94.9943 59.4839 99.9436 58.16 104.994 57.4045C104.884 54.077 104.816 50.7495 104.994 47.4358C108.596 47.2664 112.205 47.31 115.802 47.5663C116.389 49.4733 116.252 51.5674 116.116 53.6552C116.033 54.9169 115.951 56.1762 116.029 57.3908C121.078 58.1131 126.028 59.4095 130.782 61.2545ZM109.126 155.552C119.961 155.71 131.759 153.93 140.064 146.401L140.057 146.395C150.383 137.017 149.173 118.235 137.575 110.37C131.541 105.643 124.209 104.264 116.865 102.882C112.051 101.976 107.231 101.069 102.767 99.2183C97.6107 97.3895 96.5519 90.0813 100.677 86.6508C107.923 80.58 122.505 83.0551 124.231 93.4708C128.572 92.738 132.911 91.9812 137.25 91.2242C139.467 90.8376 141.683 90.4511 143.9 90.0675C140.242 80.0645 132.646 71.0308 121.989 68.3358C110.206 65.4758 96.6207 66.3626 86.4594 73.492C73.17 82.732 74.1737 105.433 87.7519 113.993C93.1285 117.712 99.4376 118.859 105.755 120.008C111.021 120.965 116.292 121.923 121.034 124.374C125.482 126.601 125.379 133.112 121.79 136.089C116.73 140.42 109.209 140.152 103.138 138.255C99.1455 136.941 96.1609 133.592 95.3144 129.475C92.4524 130.087 89.5601 130.543 86.6673 130.999C82.7988 131.608 78.9292 132.218 75.1294 133.201C76.9787 137.87 79.0412 142.572 82.685 146.092C89.5532 152.974 99.6182 155.552 109.126 155.552Z" fill="white"/>
</g>
<defs>
<clipPath id="clip0_4_6137">
<rect width="220" height="220" fill="white" transform="translate(0.5 0.5)"/>
</clipPath>
</defs>
</svg>
