<svg width="220" height="221" viewBox="0 0 220 221" fill="none" xmlns="http://www.w3.org/2000/svg">
<g clip-path="url(#clip0_4_11)">
<path d="M110 220.5C170.751 220.5 220 171.251 220 110.5C220 49.7487 170.751 0.5 110 0.5C49.2487 0.5 0 49.7487 0 110.5C0 171.251 49.2487 220.5 110 220.5Z" fill="#00688C"/>
<path fill-rule="evenodd" clip-rule="evenodd" d="M185.167 69.7322V156.843L185.16 156.85L109.888 200.333L109.881 200.326L34.834 156.871V69.7804L109.82 26.2215L109.922 26.1665L185.167 69.7322ZM151.86 142.914L139.031 135.521L110.394 152.231C110.225 152.33 110.016 152.33 109.847 152.231L76.9902 133.087L76.9766 99.7842L48.1134 83.1498L109.642 46.8909C109.692 46.8599 109.755 46.8599 109.806 46.8909L166.951 79.7336L156.844 85.6105L109.833 58.4181L68.1418 83.0191L82.6042 91.3707L109.86 75.4373L109.874 75.4236L143.175 94.5671L143.161 126.255L171.546 142.594L171.539 143.075L109.888 179.258L52.7359 146.457L62.7399 140.566L109.792 167.697L151.86 142.914Z" fill="white"/>
<path d="M118.95 105.112V104.878L118.943 104.727L118.936 104.644L118.923 104.472V104.417L118.902 104.232V104.183L118.875 103.991V103.957L118.848 103.757V103.73L118.813 103.524L118.807 103.51L118.765 103.304L118.759 103.283L118.711 103.077V103.063C118.698 102.994 118.682 102.925 118.663 102.857V102.843L118.601 102.637V102.63L118.54 102.41C118.503 102.27 118.458 102.132 118.403 101.998V101.991L118.321 101.785C118.296 101.715 118.269 101.646 118.239 101.578L118.15 101.372L118.061 101.18L117.965 100.973L117.87 100.781L117.76 100.588C117.723 100.527 117.687 100.465 117.651 100.403V100.396L117.542 100.217L117.535 100.21C117.498 100.152 117.459 100.095 117.418 100.039V100.025L117.302 99.8599C117.302 99.8599 117.302 99.8462 117.289 99.8462L117.172 99.6812L117.159 99.6674C117.117 99.6124 117.09 99.5574 117.042 99.5024L117.036 99.4887L116.906 99.3306L116.892 99.3169L116.769 99.1656L116.755 99.1519L116.618 99.0076C116.613 99.0016 116.608 98.9946 116.605 98.9869L116.475 98.8426C116.469 98.8366 116.464 98.8296 116.461 98.8219L116.331 98.6846C116.279 98.6318 116.226 98.5792 116.174 98.5264L116.153 98.5058L116.017 98.3683C115.964 98.3225 115.912 98.2767 115.859 98.2308L115.839 98.2103C115.792 98.1654 115.744 98.1219 115.695 98.0796L115.675 98.059C115.628 98.0185 115.58 97.9797 115.531 97.9421L115.511 97.9283L115.36 97.8048L115.34 97.791L115.182 97.674L115.162 97.6603L115.005 97.5435L114.984 97.5298L114.827 97.4198L114.806 97.4128L114.642 97.303L114.629 97.2892L114.458 97.186H114.444L114.266 97.076H114.252L114.068 96.966H114.061C109.526 95.0408 104.288 97.0557 102.19 101.532C100.091 106.009 101.881 111.352 106.245 113.642L102.279 131.871H117.282L113.281 113.656C116.714 112.212 118.95 108.844 118.95 105.112Z" fill="white"/>
</g>
<defs>
<clipPath id="clip0_4_11">
<rect width="220" height="220" fill="white" transform="translate(0 0.5)"/>
</clipPath>
</defs>
</svg>
