<svg width="220" height="221" viewBox="0 0 220 221" fill="none" xmlns="http://www.w3.org/2000/svg">
<g clip-path="url(#clip0_4_24)">
<path d="M109.997 216.952C168.788 216.952 216.448 169.292 216.448 110.5C216.448 51.7083 168.788 4.04834 109.997 4.04834C51.2049 4.04834 3.54492 51.7083 3.54492 110.5C3.54492 169.292 51.2049 216.952 109.997 216.952Z" fill="#F2E3EE"/>
<path d="M110 220.5C170.751 220.5 220 171.251 220 110.5C220 49.7487 170.751 0.5 110 0.5C49.2487 0.5 0 49.7487 0 110.5C0 171.251 49.2487 220.5 110 220.5Z" fill="#D9327C"/>
<path fill-rule="evenodd" clip-rule="evenodd" d="M105.741 58.5162C104.854 59.2259 103.79 60.4678 103.08 62.7743C102.37 65.0806 98.4671 76.4356 93.4993 90.629H126.677C121.709 76.4356 117.806 65.0806 117.096 62.7743C116.386 60.4678 115.322 59.2259 114.435 58.5162C113.548 57.8065 112.306 57.2743 109.999 57.2743C107.693 57.2743 106.628 57.8065 105.741 58.5162ZM56.7734 90.629H79.3058C84.8058 74.484 89.5961 61 90.3058 58.5162C91.725 54.2581 94.0315 50.5324 97.5799 47.8709C101.128 45.2097 105.386 43.9678 109.822 43.9678C114.257 43.9678 118.516 45.0324 122.064 47.8709C125.612 50.5324 127.919 54.2581 129.338 58.5162C130.225 61 134.838 74.3065 140.338 90.629H163.225C166.951 90.629 169.967 93.6452 169.967 97.3709C169.967 101.097 166.951 104.113 163.225 104.113H145.306H131.29H88.8865H74.8703H56.7734C53.0477 104.113 50.209 101.097 50.209 97.3709C50.209 93.6452 53.225 90.629 56.7734 90.629ZM56.7734 117.242C53.0477 117.242 50.209 120.258 50.209 123.984C50.209 127.71 53.225 130.726 56.7734 130.726H65.6444L62.0961 141.016L58.5477 151.307L57.1284 155.21C55.8865 158.758 57.838 162.484 61.209 163.726C64.7574 164.968 68.4831 163.016 69.725 159.645L71.1444 155.742L74.6928 145.452C76.1122 141.194 77.8865 136.226 79.838 130.726H140.515C142.29 136.048 144.064 141.194 145.661 145.452L149.209 155.742L150.628 159.645C151.87 163.194 155.596 164.968 159.144 163.726C162.693 162.484 164.467 158.758 163.225 155.21L161.806 151.307L158.257 141.016L154.709 130.726H163.58C167.306 130.726 170.322 127.71 170.322 123.984C170.322 120.258 167.306 117.242 163.58 117.242H150.096H136.08H84.6284H70.6122H56.7734ZM156.661 157.161L162.87 155.032C162.87 155.032 162.87 155.032 156.661 157.161ZM156.661 157.161C150.451 159.29 150.451 159.29 150.451 159.29L156.661 157.161ZM63.5153 157.161L69.725 159.29C69.725 159.29 69.725 159.29 63.5153 157.161ZM63.5153 157.161C57.3058 155.032 57.3058 155.032 57.3058 155.032L63.5153 157.161Z" fill="white"/>
</g>
<defs>
<clipPath id="clip0_4_24">
<rect width="220" height="220" fill="white" transform="translate(0 0.5)"/>
</clipPath>
</defs>
</svg>
