<svg width="220" height="221" viewBox="0 0 220 221" fill="none" xmlns="http://www.w3.org/2000/svg">
<g clip-path="url(#clip0_4_28)">
<path d="M110 220.5C170.751 220.5 220 171.251 220 110.5C220 49.7487 170.751 0.5 110 0.5C49.2487 0.5 0 49.7487 0 110.5C0 171.251 49.2487 220.5 110 220.5Z" fill="#EDF0F4"/>
<path d="M56.9056 165.5C56.8292 163.972 56.8037 162.444 56.8801 160.916C57.3894 160.763 57.8987 160.661 58.4337 160.584C59.9618 160.33 61.4899 159.948 62.9672 159.515C63.3747 159.387 63.7821 159.235 64.1896 159.082C66.1508 158.318 67.8827 157.044 69.2069 155.414C70.124 154.268 70.9134 153.02 71.6011 151.721C72.5689 149.938 73.4093 148.079 74.1734 146.195C75.7015 142.374 77.2298 138.579 78.7324 134.759C83.928 121.617 89.1237 108.475 94.3194 95.3334C99.2347 82.828 104.074 70.3229 108.811 57.7412C108.913 57.4866 109.015 57.232 109.117 56.9771C110.874 56.4933 112.58 55.9838 114.363 55.5C114.465 55.7546 114.567 55.9838 114.644 56.2132C116.655 61.8162 118.668 67.4194 120.654 73.0481C127.505 92.1751 134.356 111.277 141.386 130.328C143.321 135.523 145.257 140.744 147.218 145.94C147.982 148.054 148.899 150.142 149.943 152.129C150.402 152.995 150.886 153.81 151.421 154.625C153.051 157.172 155.572 158.98 158.501 159.744C160.08 160.152 161.659 160.483 163.289 160.686L164.435 160.865C164.588 161.374 164.511 161.858 164.511 162.342C164.511 162.826 164.511 163.386 164.511 163.895C164.537 164.405 164.511 164.889 164.486 165.398C164.333 165.424 164.206 165.449 164.053 165.475C163.875 165.475 163.697 165.475 163.518 165.475H123.761C123.71 165.398 123.685 165.296 123.659 165.194C123.659 163.819 123.659 162.444 123.659 161.068C123.659 161.018 123.685 160.941 123.71 160.89C124.041 160.788 124.372 160.737 124.729 160.686C126.385 160.457 128.015 160.152 129.645 159.719C130.281 159.54 130.944 159.311 131.555 159.056C131.86 158.929 132.166 158.776 132.472 158.598C134.076 157.707 134.713 156.306 134.56 154.523C134.484 153.708 134.356 152.918 134.127 152.129C133.796 150.906 133.363 149.709 132.956 148.538C124.602 125.234 116.35 101.904 108.174 78.5239C108.098 78.2691 108.047 77.989 107.792 77.7598C107.716 77.8108 107.588 77.8617 107.538 77.9127C107.461 78.0399 107.41 78.1673 107.385 78.2946C103.386 89.7811 99.133 101.191 94.9051 112.576C91.7723 121.006 88.6397 129.462 85.7363 137.968C84.5648 141.381 83.444 144.819 82.349 148.258C81.916 149.582 81.6103 150.932 81.4067 152.282C81.2538 153.199 81.2283 154.115 81.3302 155.058C81.4574 156.255 82.0942 157.35 83.0875 158.063C83.7242 158.522 84.4373 158.878 85.2015 159.133C86.3985 159.566 87.6209 159.871 88.8689 160.075C90.2442 160.33 91.6196 160.534 93.0205 160.737C93.1222 160.763 93.1987 160.763 93.3261 160.788C93.3516 160.89 93.377 160.992 93.4023 161.094C93.4023 162.418 93.4023 163.768 93.4023 165.092C93.4023 165.169 93.3769 165.245 93.3516 165.322C93.2241 165.347 93.0967 165.373 92.9695 165.373C92.7911 165.373 92.6129 165.373 92.4345 165.373L56.9056 165.5Z" fill="black"/>
</g>
<defs>
<clipPath id="clip0_4_28">
<rect width="220" height="220" fill="white" transform="translate(0 0.5)"/>
</clipPath>
</defs>
</svg>
