<svg width="220" height="221" viewBox="0 0 220 221" fill="none" xmlns="http://www.w3.org/2000/svg">
<g clip-path="url(#clip0_4_34)">
<path d="M220 110.5C220 49.7487 170.751 0.5 110 0.5C49.2487 0.5 0 49.7487 0 110.5C0 171.251 49.2487 220.5 110 220.5C170.751 220.5 220 171.251 220 110.5Z" fill="#1E1E1E"/>
<path opacity="0.4" d="M172.583 133.473C176.395 140.013 176.411 148.094 172.626 154.65C168.841 161.206 161.835 165.232 154.265 165.201C146.695 165.17 139.722 161.087 135.99 154.5L91.7044 77.7997C85.8971 67.6949 89.381 54.7957 99.4858 48.9885C109.591 43.1814 122.49 46.6651 128.297 56.7699L172.583 133.473Z" fill="#4BDB4B"/>
<path opacity="0.8" d="M84.0176 154.5C78.1722 164.525 65.3308 167.95 55.2691 162.169C45.2074 156.388 41.6997 143.569 47.4162 133.471L91.6978 56.772C95.4128 50.152 102.397 46.0375 109.988 45.9964C117.579 45.9553 124.607 49.9942 128.394 56.5735C132.18 63.1529 132.142 71.259 128.293 77.8018L84.0176 154.5Z" fill="#4BDB4B"/>
<path d="M128.173 56.5581C127.929 56.1423 127.665 55.7441 127.397 55.3503C127.267 55.1611 127.144 54.9675 127.007 54.7827C126.746 54.4241 126.464 54.0853 126.182 53.7487C126.011 53.5419 125.846 53.3307 125.665 53.1305C125.41 52.8489 125.142 52.5871 124.876 52.3209C124.609 52.0547 124.409 51.8501 124.163 51.6257C123.916 51.4013 123.683 51.2209 123.441 51.0207C123.138 50.7699 122.836 50.5169 122.515 50.2815C122.295 50.1187 122.064 49.9713 121.837 49.8195C121.481 49.5775 121.122 49.3377 120.737 49.1155C120.658 49.0693 120.588 49.0143 120.517 48.9681C120.35 48.8713 120.174 48.7987 120.003 48.7063C119.646 48.5149 119.288 48.3279 118.925 48.1585C118.619 48.0133 118.306 47.8835 117.992 47.7559C117.677 47.6283 117.378 47.5073 117.068 47.3973C116.703 47.2682 116.336 47.1494 115.968 47.0409C115.695 46.9595 115.424 46.8825 115.149 46.8209C114.756 46.7219 114.357 46.6361 113.959 46.5591C113.689 46.5085 113.416 46.4601 113.145 46.4183C112.756 46.3611 112.366 46.3149 111.973 46.2775C111.67 46.2481 111.369 46.2261 111.068 46.2115C110.715 46.1939 110.361 46.1851 110.006 46.1851C109.656 46.1851 109.308 46.1851 108.959 46.2115C108.653 46.2269 108.345 46.2489 108.037 46.2775C107.652 46.3149 107.265 46.3589 106.882 46.4183C106.605 46.4601 106.327 46.5085 106.052 46.5613C105.656 46.6361 105.264 46.7219 104.875 46.8187C104.596 46.8891 104.319 46.9683 104.042 47.0497C103.675 47.1582 103.308 47.2755 102.942 47.4017C102.625 47.5139 102.31 47.6393 101.998 47.7669C101.685 47.8945 101.386 48.0199 101.087 48.1607C100.715 48.3345 100.348 48.5259 99.987 48.7217C99.822 48.8119 99.6526 48.8823 99.4898 48.9769C99.4128 49.0209 99.3446 49.0737 99.2698 49.1177C98.8826 49.3377 98.5108 49.5929 98.1456 49.8415C97.9256 49.9867 97.7056 50.1275 97.501 50.2815C97.1644 50.5301 96.841 50.7941 96.5242 51.0603C96.3042 51.2451 96.0842 51.4233 95.8642 51.6191C95.5936 51.8633 95.3406 52.1229 95.0854 52.3781C94.8302 52.6333 94.5838 52.8599 94.3638 53.1107C94.1438 53.3615 93.9656 53.5815 93.7676 53.8191C93.5168 54.1249 93.2616 54.4307 93.0262 54.7519C92.859 54.9719 92.7094 55.2117 92.5532 55.4427C92.3156 55.7925 92.0802 56.1467 91.8624 56.5163C87.9803 63.0587 87.9231 71.1849 91.7128 77.7815L110.01 109.475L128.305 77.7815C132.087 71.1996 132.037 63.0924 128.173 56.5581Z" fill="#4BDB4B"/>
</g>
<defs>
<clipPath id="clip0_4_34">
<rect width="220" height="220" fill="white" transform="translate(0 0.5)"/>
</clipPath>
</defs>
</svg>
