<svg width="220" height="221" viewBox="0 0 220 221" fill="none" xmlns="http://www.w3.org/2000/svg">
<g clip-path="url(#clip0_4_42)">
<path d="M110 220.5C170.751 220.5 220 171.251 220 110.5C220 49.7487 170.751 0.5 110 0.5C49.2487 0.5 0 49.7487 0 110.5C0 171.251 49.2487 220.5 110 220.5Z" fill="#EDF0F4"/>
<path d="M127.161 116.506C147.045 116.506 163.164 100.387 163.164 80.5028C163.164 60.619 147.045 44.5 127.161 44.5C107.277 44.5 91.1582 60.619 91.1582 80.5028C91.1582 100.387 107.277 116.506 127.161 116.506Z" fill="#95BEFA" fill-opacity="0.8"/>
<path d="M127.161 172.981C147.045 172.981 163.164 156.862 163.164 136.978C163.164 117.094 147.045 100.975 127.161 100.975C107.277 100.975 91.1582 117.094 91.1582 136.978C91.1582 156.862 107.277 172.981 127.161 172.981Z" fill="#CADAF8" fill-opacity="0.8"/>
<path d="M76.3368 146.155C96.2206 146.155 112.34 130.036 112.34 110.152C112.34 90.2684 96.2206 74.1494 76.3368 74.1494C56.453 74.1494 40.334 90.2684 40.334 110.152C40.334 130.036 56.453 146.155 76.3368 146.155Z" fill="#85B2F7" fill-opacity="0.8"/>
</g>
<defs>
<clipPath id="clip0_4_42">
<rect width="220" height="220" fill="white" transform="translate(0 0.5)"/>
</clipPath>
</defs>
</svg>
