<svg width="220" height="221" viewBox="0 0 220 221" fill="none" xmlns="http://www.w3.org/2000/svg">
<g clip-path="url(#clip0_4_39)">
<path d="M110 220.5C170.751 220.5 220 171.251 220 110.5C220 49.7487 170.751 0.5 110 0.5C49.2487 0.5 0 49.7487 0 110.5C0 171.251 49.2487 220.5 110 220.5Z" fill="#EDF0F4"/>
<path fill-rule="evenodd" clip-rule="evenodd" d="M117.516 57.15L153.541 75.575C158.766 78.325 162.066 83.55 162.066 89.6V98.125H148.866V89.6C148.866 88.775 148.316 87.95 147.491 87.4L111.466 68.975C110.916 68.7 110.091 68.7 109.266 68.975L73.241 87.4C72.416 87.675 71.866 88.5 71.866 89.6V98.125H58.666V89.6C58.666 83.825 61.966 78.325 67.191 75.575L103.216 57.15C107.616 54.95 112.841 54.95 117.516 57.15ZM121.641 109.95C121.641 103.625 116.416 98.675 110.366 98.675C104.041 98.675 99.091 103.625 99.091 109.95C99.091 116.275 104.316 121.225 110.366 121.225C116.416 121.225 121.641 116.275 121.641 109.95ZM147.216 133.6C148.041 133.325 148.591 132.5 148.591 131.4V122.875H161.791V131.4C161.791 137.175 158.491 142.675 153.266 145.425L117.241 163.85C115.041 164.95 112.566 165.5 110.091 165.5C107.616 165.5 105.141 164.95 102.941 163.85L67.191 145.425C61.966 142.675 58.666 137.45 58.666 131.4V122.875H71.866V131.4C71.866 132.225 72.416 133.05 73.241 133.6L103.766 149V133.6C93.316 130.575 85.891 121.225 85.891 109.95C85.891 96.475 96.891 85.2 110.641 85.2C124.116 85.2 135.391 96.2 135.391 109.95C135.391 121.225 127.691 130.85 117.516 133.6V149L147.216 133.6Z" fill="#245AE5" fill-opacity="0.9"/>
</g>
<defs>
<clipPath id="clip0_4_39">
<rect width="220" height="220" fill="white" transform="translate(0 0.5)"/>
</clipPath>
</defs>
</svg>
