<svg width="220" height="221" viewBox="0 0 220 221" fill="none" xmlns="http://www.w3.org/2000/svg">
<g clip-path="url(#clip0_4_47)">
<path fill-rule="evenodd" clip-rule="evenodd" d="M110 220.5C49.5 220.5 0 171.001 0 109.952C0.55 49.4535 49.5 -0.0454497 110.55 0.504539C171.05 1.05453 220 50.0035 220 111.602C219.45 171.551 170.5 220.5 110 220.5Z" fill="#EDF0F4"/>
<path fill-rule="evenodd" clip-rule="evenodd" d="M79.0387 66.304C87.4637 58.0797 98.6971 53.6665 110.532 53.6665C122.367 53.6665 133.601 58.0797 142.026 66.5046C150.451 74.5286 155.065 85.3606 155.065 96.9953V167.204H66V96.9953C66 85.3606 70.6138 74.5286 79.0387 66.304ZM140.421 67.9088C132.598 60.0856 121.766 55.8731 110.532 55.8731C99.0985 55.8731 88.4668 60.0856 80.6436 67.9088C72.6196 75.7321 68.2066 85.9625 68.2066 96.9953V164.997H152.858V96.9953C152.858 85.9625 148.445 75.7321 140.421 67.9088Z" fill="#070001"/>
<path fill-rule="evenodd" clip-rule="evenodd" d="M134.729 69.9449L136.735 71.9509C143.556 78.9718 147.567 88.1992 147.567 98.229V159.411H73.748V98.0284C73.748 88.1992 77.5594 78.9718 84.5803 71.9509C91.4005 64.93 100.829 61.1187 110.658 61.1187C119.685 61.1187 128.11 64.1277 134.729 69.9449ZM114.268 157.405C118.08 157.405 121.891 156.803 125.301 155.599C126.104 155.399 126.705 155.198 127.307 154.998V108.459C127.307 95.4207 119.484 87.3967 113.065 82.9837C105.843 77.9688 97.4184 75.7622 91.1999 75.1603C90.1969 74.9598 89.1939 74.9598 88.3916 74.9598C82.3737 81.5796 78.9635 90.0045 78.9635 99.0314V122.1C78.9635 129.723 81.3707 137.145 85.9844 143.163C86.3856 143.764 86.9873 144.567 87.5892 145.169V157.405H114.268Z" fill="#070001"/>
<path fill-rule="evenodd" clip-rule="evenodd" d="M113.271 82.9839C106.05 78.1696 97.6248 75.7624 91.4063 75.1605C90.8769 75.1605 90.3474 75.1048 89.8476 75.052C89.4003 75.0047 88.9768 74.96 88.598 74.96C82.5801 81.5798 79.1699 90.0047 79.1699 99.0316V122.1C79.1699 129.723 81.5771 137.145 86.1909 143.163C86.4917 143.464 86.7425 143.815 86.9933 144.166C87.2439 144.517 87.4947 144.868 87.7956 145.169V157.405H114.475C118.286 157.405 121.897 156.803 125.508 155.6C126.31 155.399 126.912 155.199 127.714 154.797V108.259C127.514 95.2203 119.69 87.3969 113.271 82.9839ZM89.8016 155.199V147.375C93.4124 150.785 97.6248 153.594 102.239 155.199H89.8016ZM114.274 155.199C118.086 155.199 121.897 154.597 125.307 153.393H125.106V108.259C125.106 87.3969 103.242 77.7684 89.1997 77.1666C83.9843 83.1845 80.9754 91.0077 80.9754 99.0316V121.9C80.9754 128.92 83.182 135.741 87.3944 141.357C87.9961 142.36 88.7986 143.363 89.601 144.166L90.8046 145.369C97.2237 151.788 105.448 155.199 114.274 155.199Z" fill="#070001"/>
<path d="M102.102 128.369C101.5 128.369 100.898 127.767 100.898 127.165V106.704C100.898 101.288 105.311 96.875 110.727 96.875C116.144 96.875 120.557 101.288 120.557 106.704C120.557 107.306 119.955 107.908 119.353 107.908C118.751 107.908 118.15 107.306 118.15 106.704C118.15 102.692 114.74 99.2822 110.727 99.2822C106.716 99.2822 103.305 102.692 103.305 106.704V127.165C103.305 127.767 102.704 128.369 102.102 128.369Z" fill="#070001"/>
<path d="M114.335 112.521C113.733 112.521 113.132 111.919 113.132 111.318C113.132 109.913 112.129 108.91 110.724 108.91C109.32 108.91 108.317 109.913 108.317 111.318C108.317 111.919 107.716 112.521 107.114 112.521C106.512 112.521 105.91 111.919 105.91 111.318C105.91 108.509 108.117 106.303 110.925 106.303C113.733 106.303 115.94 108.509 115.94 111.318C115.539 111.919 114.937 112.521 114.335 112.521Z" fill="#070001"/>
<path d="M102.104 128.369C98.4932 128.369 95.4844 125.36 95.4844 121.749C95.4844 121.147 96.0861 120.545 96.688 120.545C97.2897 120.545 97.8914 121.147 97.8914 121.749C97.8914 123.956 99.6968 125.761 101.903 125.761C104.11 125.761 105.915 123.956 105.915 121.749C105.915 121.147 106.517 120.545 107.119 120.545C107.721 120.545 108.322 121.147 108.322 121.749C108.523 125.36 105.715 128.369 102.104 128.369Z" fill="#070001"/>
<path d="M95.0782 114.527C94.6769 114.527 94.4763 114.327 94.2757 114.126L88.8597 108.71V113.324C88.8597 113.926 88.2578 114.527 87.6561 114.527C87.0542 114.527 86.252 113.926 86.252 113.123V105.701C86.252 105.099 86.6531 104.698 87.0542 104.497C87.6561 104.297 88.0572 104.297 88.4584 104.698L93.8746 110.114V106.905C93.8746 106.303 94.4763 105.701 95.0782 105.701C95.6799 105.701 96.2818 106.303 96.2818 106.905V113.123C96.2818 113.725 95.8804 114.126 95.4793 114.327C95.4793 114.527 95.2787 114.527 95.0782 114.527Z" fill="#070001"/>
<path d="M101.903 108.108C101.301 108.108 100.7 107.507 100.7 106.905C100.7 106.704 100.7 101.689 97.2895 101.689C96.6876 101.689 96.0859 101.088 96.0859 100.486C96.0859 99.8841 96.6876 99.2822 97.2895 99.2822C101.903 99.2822 103.107 104.297 103.107 106.905C103.107 107.507 102.505 108.108 101.903 108.108Z" fill="#070001"/>
</g>
<defs>
<clipPath id="clip0_4_47">
<rect width="220" height="220" fill="white" transform="translate(0 0.5)"/>
</clipPath>
</defs>
</svg>
