<svg width="220" height="221" viewBox="0 0 220 221" fill="none" xmlns="http://www.w3.org/2000/svg">
<g clip-path="url(#clip0_4_60)">
<path fill-rule="evenodd" clip-rule="evenodd" d="M110 220.5C49.5 220.5 0 171.001 0 109.952C0.55 49.4535 49.5 -0.0454497 110.55 0.504539C171.05 1.05453 220 50.0035 220 111.602C219.45 171.551 170.5 220.5 110 220.5Z" fill="#EDF0F4"/>
<path d="M110 193C155.563 193 192.5 156.063 192.5 110.5C192.5 64.9365 155.563 28 110 28C64.4365 28 27.5 64.9365 27.5 110.5C27.5 156.063 64.4365 193 110 193Z" fill="url(#paint0_linear_4_60)"/>
<path d="M110 184.75C151.007 184.75 184.25 151.507 184.25 110.5C184.25 69.4929 151.007 36.25 110 36.25C68.9929 36.25 35.75 69.4929 35.75 110.5C35.75 151.507 68.9929 184.75 110 184.75Z" stroke="white" stroke-width="3"/>
<path fill-rule="evenodd" clip-rule="evenodd" d="M136.91 114.818L146.065 139.554V139.622C146.543 141.028 146.898 142.473 147.124 143.94C147.148 145.32 146.787 146.68 146.082 147.872C145.272 148.932 144.312 149.872 143.23 150.662C141.982 151.361 140.566 151.715 139.13 151.687C135.272 151.917 131.751 149.533 130.59 145.906L126.986 135.084H93.8327L90.2288 145.654C89.2012 149.413 85.6388 151.951 81.6886 151.737C79.4066 151.756 77.1962 150.956 75.4712 149.486C73.9037 148.041 72.972 146.051 72.875 143.94C72.9243 142.435 73.2422 140.951 73.8144 139.554L83.1233 114.785H77.6404C75.4963 114.775 73.7633 113.063 73.7633 110.953C73.7633 108.893 75.4609 107.223 77.5551 107.223H86.0954L87.5642 103.475H78.0333C75.8637 103.475 74.1048 101.745 74.1048 99.6103C74.1141 97.5566 75.8091 95.8965 77.8967 95.8965H90.4508L97.6076 77.2438C98.639 74.604 100.331 72.2632 102.527 70.438C104.718 68.702 107.469 67.7958 110.281 67.8838C113.086 67.7749 115.834 68.6838 118.002 70.438C120.196 72.2607 121.883 74.6027 122.904 77.2438L129.736 95.7286H142.359C143.406 95.724 144.413 96.1316 145.153 96.8605C145.894 97.5894 146.309 98.5795 146.304 99.6103C146.248 101.705 144.506 103.375 142.376 103.375H132.657L134.023 107.223H142.563C143.56 107.223 144.516 107.612 145.221 108.306C145.925 108.999 146.321 109.939 146.321 110.92C146.312 113.063 144.554 114.8 142.376 114.818H136.91ZM110.213 85.461L99.1448 118.599H121.486L110.213 85.461Z" fill="#FEFEFE"/>
</g>
<defs>
<linearGradient id="paint0_linear_4_60" x1="1.24769" y1="114.336" x2="113.184" y2="235.572" gradientUnits="userSpaceOnUse">
<stop stop-color="#FC8F55"/>
<stop offset="0.44" stop-color="#FE7A6A"/>
<stop offset="1" stop-color="#FE687C"/>
</linearGradient>
<clipPath id="clip0_4_60">
<rect width="220" height="220" fill="white" transform="translate(0 0.5)"/>
</clipPath>
</defs>
</svg>
