<svg width="220" height="221" viewBox="0 0 220 221" fill="none" xmlns="http://www.w3.org/2000/svg">
<g clip-path="url(#clip0_4_65)">
<path d="M110 220.5C170.751 220.5 220 171.251 220 110.5C220 49.7487 170.751 0.5 110 0.5C49.2487 0.5 0 49.7487 0 110.5C0 171.251 49.2487 220.5 110 220.5Z" fill="#EDF0F4"/>
<path d="M166.927 97.4445C167.409 87.3307 160.345 80.6174 152.359 76.0103L147.182 106.483C149.345 106.183 151.531 106.839 153.171 108.282C155.095 110.17 155.266 113.211 153.566 115.303C158.568 114.469 166.356 109.664 166.927 97.4445Z" fill="url(#paint0_linear_4_65)"/>
<path fill-rule="evenodd" clip-rule="evenodd" d="M98.9191 62.0131L92.7762 55.8045C102.078 54.6636 126.628 56.1116 150.388 71.0082C150.605 72.3375 150.605 73.6935 150.388 75.0228L152.384 76.0321C155.608 81.3801 156.541 87.8019 154.973 93.8464C152.91 102.095 149.378 105.737 147.799 106.483C144.618 106.483 139.199 108.326 137.444 116.487C135.688 124.648 132.31 126.425 130.862 126.294L95.7599 126.711L72.5926 113.065L69.2578 84.8295L75.8395 76.0541L87.5987 66.4448L95.9794 63.0224L98.9191 62.0131ZM140.405 73.5748C139.414 74.6255 138.258 75.5074 136.983 76.1857C127.966 74.255 124.697 69.604 124.697 69.604C132.365 69.375 139.95 71.2408 146.636 75.001C144.6 74.3621 142.517 73.8852 140.405 73.5748Z" fill="url(#paint1_linear_4_65)"/>
<path fill-rule="evenodd" clip-rule="evenodd" d="M137.137 116.487C130.458 119.699 123.135 121.343 115.724 121.292C93.5881 121.292 75.6642 107.383 75.6642 90.2487C75.6642 77.5681 85.4488 66.6863 99.4678 61.8599C72.79 63.3955 51.334 84.8297 51.334 111.288C51.334 141.827 78.5601 167.056 112.083 167.056C135.804 166.86 157.568 153.864 168.992 133.073C153.964 136.452 136.215 130.024 137.137 116.487Z" fill="url(#paint2_linear_4_65)"/>
</g>
<defs>
<linearGradient id="paint0_linear_4_65" x1="146.372" y1="88.0135" x2="157.774" y2="122.504" gradientUnits="userSpaceOnUse">
<stop stop-color="#01E8F7"/>
<stop offset="1" stop-color="#00C2FF"/>
</linearGradient>
<linearGradient id="paint1_linear_4_65" x1="59.5811" y1="79.7985" x2="85.9034" y2="141.392" gradientUnits="userSpaceOnUse">
<stop stop-color="#01E8F7"/>
<stop offset="1" stop-color="#00B3EC"/>
</linearGradient>
<linearGradient id="paint2_linear_4_65" x1="160.876" y1="118.368" x2="163.454" y2="25.7243" gradientUnits="userSpaceOnUse">
<stop stop-color="#01E8F7"/>
<stop offset="1" stop-color="#00C2FF"/>
</linearGradient>
<clipPath id="clip0_4_65">
<rect width="220" height="220" fill="white" transform="translate(0 0.5)"/>
</clipPath>
</defs>
</svg>
