<svg width="220" height="221" viewBox="0 0 220 221" fill="none" xmlns="http://www.w3.org/2000/svg">
<g clip-path="url(#clip0_4_70)">
<path d="M110 220.5C170.751 220.5 220 171.251 220 110.5C220 49.7487 170.751 0.5 110 0.5C49.2487 0.5 0 49.7487 0 110.5C0 171.251 49.2487 220.5 110 220.5Z" fill="#3EFFFF"/>
<path fill-rule="evenodd" clip-rule="evenodd" d="M45.834 73.2853L110.917 35.3335L176.001 73.2853V149.548L110.917 187.5L45.834 149.548V73.2853ZM52.082 142.244L78.1839 126.993L91.4266 103.58L52.082 80.5961V142.244ZM107.978 178.488L55.2128 147.716V147.709L80.3144 133.045L107.978 149.043V178.488ZM169.753 80.8106L130.757 103.587L143.993 126.979L169.753 142.03V80.8106ZM114.226 44.5603L166.807 75.2219L127.654 98.0953L114.226 74.3642V44.5603ZM125.38 106.727L117.35 111.417L133.279 120.72L125.38 106.727ZM114.226 86.9871L122.276 101.235L114.226 105.939V86.9871ZM88.9534 120.706L88.9637 120.7L88.9602 120.706H88.9534ZM88.9637 120.7L96.8388 106.741L104.848 111.417L88.9637 120.7ZM107.978 141.76L86.5829 129.393L107.978 116.895V141.76ZM55.206 75.1181L94.5301 98.0815L107.978 74.3228V44.346L55.206 75.1181ZM141.897 133.059L166.807 147.612L114.226 178.273V149.251L141.897 133.059ZM135.649 129.407L135.643 129.404L135.649 129.4V129.407ZM135.643 129.404L114.226 141.947V116.895L135.643 129.404ZM107.978 105.939L99.9423 101.249L107.978 87.0218V105.939Z" fill="white"/>
</g>
<defs>
<clipPath id="clip0_4_70">
<rect width="220" height="220" fill="white" transform="translate(0 0.5)"/>
</clipPath>
</defs>
</svg>
