<svg width="220" height="221" viewBox="0 0 220 221" fill="none" xmlns="http://www.w3.org/2000/svg">
<g clip-path="url(#clip0_4_78)">
<path d="M110 220.5C170.751 220.5 220 171.251 220 110.5C220 49.7487 170.751 0.5 110 0.5C49.2487 0.5 0 49.7487 0 110.5C0 171.251 49.2487 220.5 110 220.5Z" fill="#EDF0F4"/>
<path d="M110.038 92.5526L34.834 170.024L110.416 50L185.998 170.78L110.038 92.5526Z" fill="#F70000"/>
<path fill-rule="evenodd" clip-rule="evenodd" d="M120.929 123.39H120.996V123.465L120.929 123.39ZM120.929 123.39L109.507 110.39L97.414 123.39H120.929ZM129.612 130.948L143.368 144.704H75.6465V144.477L88.949 131.175V131.099L129.612 130.948Z" fill="#F70000"/>
</g>
<defs>
<clipPath id="clip0_4_78">
<rect width="220" height="220" fill="white" transform="translate(0 0.5)"/>
</clipPath>
</defs>
</svg>
