<svg width="220" height="221" viewBox="0 0 220 221" fill="none" xmlns="http://www.w3.org/2000/svg">
<g clip-path="url(#clip0_4_87)">
<path d="M110 220.5C170.751 220.5 220 171.251 220 110.5C220 49.7487 170.751 0.5 110 0.5C49.2487 0.5 0 49.7487 0 110.5C0 171.251 49.2487 220.5 110 220.5Z" fill="#EDF0F4"/>
<path d="M110 190.25C154.045 190.25 189.75 154.545 189.75 110.5C189.75 66.4553 154.045 30.75 110 30.75C65.9553 30.75 30.25 66.4553 30.25 110.5C30.25 154.545 65.9553 190.25 110 190.25Z" stroke="#222326" stroke-width="3"/>
<path fill-rule="evenodd" clip-rule="evenodd" d="M125.099 138.27C125.258 138.835 125.395 139.324 125.709 139.636H143V138.523C142.442 137.409 141.884 135.182 141.327 132.955C140.769 130.728 140.769 127.943 140.769 124.602V96.7614C140.769 92.8637 139.653 89.5228 138.538 86.7387C137.422 83.9546 135.191 81.1705 132.96 79.5C130.171 77.2727 127.382 76.1591 124.035 75.0455C120.689 73.9318 117.342 73.375 113.438 73.375C108.975 73.375 105.071 73.9318 101.724 75.0455C98.3774 76.1591 95.5885 77.8296 93.3574 79.5C90.5683 81.7273 88.895 83.9546 87.7794 86.1818C86.6639 88.4091 86.1062 91.1932 86.1062 93.9773H102.84C102.84 91.7499 103.397 90.0796 105.071 88.4091C106.744 86.7387 108.975 86.1818 112.322 86.1818C116.226 86.1818 119.015 87.2955 121.246 88.9659C122.92 90.6364 124.035 92.8637 124.035 96.2046V100.102H114.553C104.513 100.102 96.7039 101.773 91.6839 105.67C86.6639 109.011 83.875 114.58 83.875 121.261C83.875 124.045 84.4327 126.83 85.5483 129.057C86.6639 131.284 87.7794 133.511 90.0106 135.182C92.2418 136.852 94.4729 137.966 97.2618 139.079C100.051 140.193 102.84 140.75 106.186 140.75C107.86 140.75 110.091 140.75 111.764 140.193C113.252 139.822 114.243 139.451 115.235 139.079C115.731 138.894 116.226 138.708 116.784 138.523C117.048 138.391 117.342 138.26 117.653 138.121C118.659 137.672 119.836 137.146 120.689 136.295C121.246 135.739 121.804 135.321 122.362 134.903C122.92 134.486 123.478 134.068 124.035 133.511C124.035 134.068 124.175 134.625 124.314 135.182C124.454 135.739 124.593 136.295 124.593 136.852C124.838 137.341 124.975 137.829 125.099 138.27ZM113.995 127.386C112.88 127.943 111.206 127.943 109.533 127.943C106.744 127.943 103.955 127.386 102.282 125.716C100.609 124.045 100.051 122.375 100.051 120.148C100.051 119.034 100.051 117.364 100.609 116.25C101.022 115.011 101.743 114.385 102.542 113.689C102.821 113.447 103.109 113.197 103.397 112.909C104.513 111.795 106.186 111.239 107.86 110.682C109.533 110.125 111.764 110.125 114.553 110.125H122.92V121.261L120.689 123.489C120.131 124.602 119.015 125.159 117.9 125.716C116.784 126.273 115.669 126.83 113.995 127.386Z" fill="#222326"/>
</g>
<defs>
<clipPath id="clip0_4_87">
<rect width="220" height="220" fill="white" transform="translate(0 0.5)"/>
</clipPath>
</defs>
</svg>
