<svg width="220" height="221" viewBox="0 0 220 221" fill="none" xmlns="http://www.w3.org/2000/svg">
<g clip-path="url(#clip0_4_91)">
<path d="M110 220.5C170.751 220.5 220 171.251 220 110.5C220 49.7487 170.751 0.5 110 0.5C49.2487 0.5 0 49.7487 0 110.5C0 171.251 49.2487 220.5 110 220.5Z" fill="#FAA00D"/>
<path fill-rule="evenodd" clip-rule="evenodd" d="M179.611 100.318L114.512 176.572L111.59 180.167L42.214 101.086L42.434 100.996L42.166 100.955L69.1298 55.5416L69.1435 55.5554L69.1298 55.5H153.376L153.362 55.5484L179.666 100.311L179.611 100.318ZM89.301 103.497L74.3823 128.943L111.177 171.274L148.048 128.596L133.459 103.42L89.301 103.497ZM82.3023 103.504L70.2023 124.136L52.3135 103.552L82.3023 103.504ZM137.048 97.4987L171.107 97.4434L149.725 61.3733L116.162 61.4424L137.048 97.4987ZM140.472 103.407L169.849 103.358L152.249 123.734L140.472 103.407ZM130.035 97.5127L111.535 65.5703L92.766 97.568L130.035 97.5127ZM50.9798 97.6443L72.2923 61.5394L106.942 61.4701L85.7673 97.582L50.9798 97.6443Z" fill="white"/>
</g>
<defs>
<clipPath id="clip0_4_91">
<rect width="220" height="220" fill="white" transform="translate(0 0.5)"/>
</clipPath>
</defs>
</svg>
