<svg width="220" height="221" viewBox="0 0 220 221" fill="none" xmlns="http://www.w3.org/2000/svg">
<g clip-path="url(#clip0_4_94)">
<path d="M110 220.5C170.751 220.5 220 171.251 220 110.5C220 49.7487 170.751 0.5 110 0.5C49.2487 0.5 0 49.7487 0 110.5C0 171.251 49.2487 220.5 110 220.5Z" fill="#EDF0F4"/>
<path d="M100.833 152.667C100.833 94.6444 100.833 65.5557 100.833 65.5557C83.7223 65.5557 66.611 94.6444 49.5 152.667H100.833Z" fill="url(#paint0_linear_4_94)"/>
<path d="M152.165 152.667C152.165 84.2223 152.165 50 152.165 50C128.365 50 104.409 84.2223 80.6094 152.667H152.165Z" fill="url(#paint1_linear_4_94)"/>
</g>
<defs>
<linearGradient id="paint0_linear_4_94" x1="49.5" y1="65.5557" x2="49.5" y2="152.667" gradientUnits="userSpaceOnUse">
<stop stop-color="#96D9FD"/>
<stop offset="1" stop-color="#329EFC"/>
</linearGradient>
<linearGradient id="paint1_linear_4_94" x1="80.6094" y1="50" x2="80.6094" y2="152.667" gradientUnits="userSpaceOnUse">
<stop stop-color="#61C7FF"/>
<stop offset="1" stop-color="#0087FD"/>
</linearGradient>
<clipPath id="clip0_4_94">
<rect width="220" height="220" fill="white" transform="translate(0 0.5)"/>
</clipPath>
</defs>
</svg>
