<svg width="220" height="221" viewBox="0 0 220 221" fill="none" xmlns="http://www.w3.org/2000/svg">
<g clip-path="url(#clip0_4_98)">
<path d="M110 220.5C170.751 220.5 220 171.251 220 110.5C220 49.7487 170.751 0.5 110 0.5C49.2487 0.5 0 49.7487 0 110.5C0 171.251 49.2487 220.5 110 220.5Z" fill="#EDF0F4"/>
<path d="M56.1094 64.0164C56.1094 64.135 56.1228 64.2513 56.1272 64.3699V63.6831C56.1206 63.7949 56.1094 63.9046 56.1094 64.0164Z" fill="#008C98"/>
<path d="M165.862 63.6811C165.862 63.614 165.862 63.5469 165.851 63.482C165.649 57.9679 161.092 53.6176 155.575 53.6709H155.512H155.447H119.469L154.949 138.31H147.522L119.158 71.8301H102.952L81.8517 121.652H74.4253L98.5791 64.9718H116.474L111.728 53.6821L67.0637 53.6957C66.869 53.6845 66.6723 53.6665 66.4754 53.6665C66.2785 53.6665 66.075 53.6845 65.8759 53.6957C60.6168 53.9096 56.3915 58.1039 56.1387 63.3612V64.0322L56.2505 129.054C55.9504 134.698 58.5125 140.114 63.0663 143.462L64.9005 144.493L70.2222 131.459H89.126L94.8658 118.393H105.332L100.266 105.643L111.07 79.8381L136.219 138.315H128.614L111.226 97.8069L107.851 105.636L115.785 125.24H99.2502L93.6804 138.469H75.1142L70.9491 147.864L72.7028 148.846L103.795 165.974C108.071 168.336 113.261 168.336 117.537 165.974L160.134 142.263C165.988 139.073 165.786 129.105 165.786 129.105L165.856 63.8666C165.851 63.8219 165.862 63.7526 165.862 63.6811Z" fill="#008C98"/>
</g>
<defs>
<clipPath id="clip0_4_98">
<rect width="220" height="220" fill="white" transform="translate(0 0.5)"/>
</clipPath>
</defs>
</svg>
