<svg width="220" height="221" viewBox="0 0 220 221" fill="none" xmlns="http://www.w3.org/2000/svg">
<g clip-path="url(#clip0_4_102)">
<path d="M110 220.5C170.751 220.5 220 171.251 220 110.5C220 49.7487 170.751 0.5 110 0.5C49.2487 0.5 0 49.7487 0 110.5C0 171.251 49.2487 220.5 110 220.5Z" fill="#E41B23"/>
<path d="M80.6046 137.462C86.0318 132.838 90.9065 127.31 94.0222 120.828C95.9318 116.757 97.4396 112.536 98.1932 108.114C99.2487 101.731 99.6507 95.2487 100.002 88.7659C100.203 84.2933 100.304 79.8208 100.304 75.298V59.1665H93.4192C93.4192 61.83 93.4192 64.4934 93.4192 67.1569C93.2181 75.0467 92.7658 82.9364 91.5599 90.7259C90.6051 96.8567 89.2482 102.988 86.6852 108.616C84.474 113.541 81.6096 118.214 77.9914 122.185C74.4736 126.104 70.3026 129.371 65.6793 131.833C61.7594 133.894 57.5381 135.452 53.166 136.105V149.623C56.7843 149.12 60.3523 148.216 63.8199 147.01C69.8503 144.899 75.7299 141.783 80.6046 137.462Z" fill="white"/>
<path d="M102.966 120.828C102.966 130.426 102.915 140.075 103.016 149.673C107.187 149.623 111.408 149.673 115.63 149.673V59.2168C111.408 59.2168 107.187 59.2168 102.966 59.2168C102.966 79.7202 102.966 100.274 102.966 120.828Z" fill="white"/>
<path d="M160.108 134.849C153.777 132.788 147.947 129.321 143.123 124.697C138.097 119.923 134.228 113.943 131.564 107.561C128.75 100.927 127.494 93.7912 126.589 86.7056C125.484 77.5594 125.182 68.3629 125.232 59.1665H118.398V73.9914C118.348 82.7355 118.649 91.4796 119.403 100.173C119.805 104.194 120.257 108.264 121.313 112.184C122.368 116.104 123.926 119.873 125.936 123.441C128.499 127.964 131.916 131.984 135.735 135.552C138.047 137.663 140.459 139.723 143.123 141.432C146.741 143.794 150.711 145.653 154.832 147.06C158.299 148.216 161.817 149.171 165.435 149.623C165.435 145.1 165.435 140.628 165.435 136.105C163.676 135.854 161.867 135.401 160.108 134.849Z" fill="white"/>
</g>
<defs>
<clipPath id="clip0_4_102">
<rect width="220" height="220" fill="white" transform="translate(0 0.5)"/>
</clipPath>
</defs>
</svg>
