<svg width="220" height="221" viewBox="0 0 220 221" fill="none" xmlns="http://www.w3.org/2000/svg">
<g clip-path="url(#clip0_4_111)">
<path d="M110 220.5C170.753 220.5 220 171.253 220 110.5C220 49.747 170.753 0.5 110 0.5C49.247 0.5 0 49.747 0 110.5C0 171.253 49.247 220.5 110 220.5Z" fill="#EDF0F4"/>
<path fill-rule="evenodd" clip-rule="evenodd" d="M98.654 57.0204C99.8356 54.9916 102.786 54.9937 103.965 57.0237L120.226 85.0301L134.59 109.768L165.216 162.513C166.395 164.543 164.918 167.079 162.557 167.077L131.867 167.057L101.236 167.037L76.6718 167.021C74.3114 167.019 72.8379 164.482 74.0193 162.453L85.8804 142.088C86.4288 141.146 87.4413 140.567 88.5369 140.567L116.411 140.586C118.501 140.587 119.896 138.6 119.371 136.735C119.304 136.494 119.205 136.254 119.07 136.021L116.708 131.953L103.93 109.947C102.825 108.044 100.164 107.923 98.8617 109.585C98.7745 109.696 98.6931 109.815 98.6186 109.943L96.7354 113.177L84.4204 134.322C83.872 135.263 82.8591 135.843 81.7639 135.842L58.069 135.826C55.7084 135.825 54.2349 133.287 55.4163 131.259L67.9583 109.725L98.654 57.0204Z" fill="#7E1BCC"/>
</g>
<defs>
<clipPath id="clip0_4_111">
<rect width="220" height="220" fill="white" transform="translate(0 0.5)"/>
</clipPath>
</defs>
</svg>
