<svg width="220" height="221" viewBox="0 0 220 221" fill="none" xmlns="http://www.w3.org/2000/svg">
<g clip-path="url(#clip0_4_114)">
<path d="M110 220.5C170.751 220.5 220 171.251 220 110.5C220 49.7487 170.751 0.5 110 0.5C49.2487 0.5 0 49.7487 0 110.5C0 171.251 49.2487 220.5 110 220.5Z" fill="#0E0E21"/>
<path d="M171.848 135.341L158.838 113.189C158.381 112.275 157.24 112.047 156.555 112.732L148.11 118.213C147.426 118.67 147.197 119.812 147.654 120.497L155.186 133.057C155.414 133.514 155.186 133.971 154.958 134.199L111.135 162.518C110.906 162.747 110.45 162.747 110.222 162.518L66.8555 134.199C66.399 133.971 66.399 133.514 66.6272 133.057L74.1593 120.497C74.6158 119.812 74.3875 118.67 73.7028 118.213L65.2577 112.732C64.3447 112.275 63.4317 112.503 62.9752 113.189L49.9653 135.341C49.0523 136.94 49.5088 138.995 51.1066 139.909L109.309 177.82C110.45 178.505 111.819 178.505 112.961 177.82L171.163 139.909C172.304 138.767 172.761 136.711 171.848 135.341Z" fill="white"/>
<path d="M70.3586 100.908L78.7868 106.432C79.698 106.892 80.6092 106.662 81.0648 105.972L108.399 59.0169C108.627 58.5565 109.538 58.5565 109.766 59.0169L137.101 105.972C137.556 106.892 138.695 107.122 139.379 106.432L147.807 100.908C148.49 100.448 148.718 99.2967 148.262 98.6062L116.144 42.4446C115.461 41.2938 114.55 40.8335 113.183 40.8335H105.438C104.299 40.8335 103.16 41.5239 102.477 42.4446L69.9031 98.6062C69.4475 99.2967 69.6752 100.448 70.3586 100.908Z" fill="#2AE7A8"/>
</g>
<defs>
<clipPath id="clip0_4_114">
<rect width="220" height="220" fill="white" transform="translate(0 0.5)"/>
</clipPath>
</defs>
</svg>
