<svg width="220" height="221" viewBox="0 0 220 221" fill="none" xmlns="http://www.w3.org/2000/svg">
<g clip-path="url(#clip0_4_118)">
<path d="M110 220.5C170.751 220.5 220 171.251 220 110.5C220 49.7487 170.751 0.5 110 0.5C49.2487 0.5 0 49.7487 0 110.5C0 171.251 49.2487 220.5 110 220.5Z" fill="#EDF0F4"/>
<path d="M173.384 126.673L112.046 172.026C111.234 172.622 110.041 172.676 109.229 172.08L46.9153 128.027C45.7232 127.16 45.4523 125.426 46.4276 124.288L107.712 50.8128C108.578 49.7291 110.204 49.7291 111.125 50.8128L173.709 123.855C174.414 124.722 174.306 126.022 173.384 126.673Z" fill="#FFF4FC"/>
<path d="M170.08 125.155L111.776 168.233L111.451 124.342L111.018 55.4185L168.725 123.53L170.08 125.155Z" fill="url(#paint0_linear_4_118)"/>
<path d="M49.2988 126.076L109.12 168.233L107.765 55.4185L49.2988 126.076Z" fill="url(#paint1_linear_4_118)"/>
<path d="M108.632 124.451L49.7322 125.589L49.2988 126.077L109.12 168.233L108.632 124.451Z" fill="url(#paint2_linear_4_118)"/>
<path d="M111.447 124.342L168.721 123.53L170.076 125.155L111.772 168.233L111.447 124.342Z" fill="url(#paint3_linear_4_118)"/>
<path d="M88.3089 95.0827L87.154 93.6585L87.1352 93.6743L88.3089 95.0827ZM95.0821 137.185L96.3154 138.541L96.3236 138.534L95.0821 137.185ZM78.2846 140.761L78.4536 142.587L78.4618 142.586L78.2846 140.761ZM101.151 79.8024L102.813 79.0291L102.812 79.0262L101.151 79.8024ZM157.504 117.949L155.828 118.692L155.829 118.695L157.504 117.949ZM146.938 108.412L146.199 110.09L146.213 110.096L146.226 110.102L146.938 108.412ZM139.189 105.92L138.602 107.657L138.623 107.663L139.189 105.92ZM131.712 103.373L132.373 101.663L132.355 101.656L131.712 103.373ZM118.328 96.7624L119.318 95.2193L119.303 95.2103L118.328 96.7624ZM111.472 125.634L168.746 124.821L168.694 121.155L111.42 121.968L111.472 125.634ZM108.593 122.076L49.6934 123.214L49.7641 126.88L108.664 125.742L108.593 122.076ZM109.471 103.217C103.096 98.3401 98.4455 95.4292 95.0645 93.9515C93.3753 93.213 91.902 92.7868 90.6255 92.7023C89.3249 92.6159 88.1123 92.8818 87.154 93.6585L89.4635 96.5068C89.5077 96.4709 89.7176 96.3167 90.3829 96.3609C91.0724 96.4065 92.1086 96.661 93.596 97.3111C96.5682 98.6104 100.94 101.308 107.244 106.13L109.471 103.217ZM87.1352 93.6743C85.8106 94.7782 85.498 96.4491 85.5154 97.9269C85.5336 99.4458 85.9008 101.209 86.4225 103.046C87.4657 106.72 89.3007 111.255 90.9764 115.685C92.6836 120.199 94.2423 124.644 94.892 128.39C95.5667 132.28 95.1245 134.654 93.8404 135.836L96.3236 138.534C99.1307 135.95 99.1965 131.753 98.5048 127.763C97.7877 123.629 96.1057 118.882 94.406 114.388C92.6746 109.81 90.9368 105.52 89.9497 102.044C89.4563 100.307 89.1942 98.9142 89.1819 97.8835C89.1691 96.8117 89.4254 96.5387 89.4826 96.491L87.1352 93.6743ZM93.8488 135.828C93.0544 136.55 91.6602 137.142 89.0081 137.638C86.3903 138.128 82.8818 138.473 78.1073 138.936L78.4618 142.586C83.1697 142.129 86.868 141.769 89.6822 141.242C92.4623 140.722 94.7257 139.987 96.3154 138.541L93.8488 135.828ZM78.1155 138.936C75.2306 139.203 72.8504 139.307 71.3489 139.307V142.974C72.9899 142.974 75.4863 142.862 78.4536 142.587L78.1155 138.936ZM131.997 122.15L112.545 105.136L110.131 107.896L129.583 124.91L131.997 122.15ZM96.6659 65.9814C96.4918 68.8237 96.6087 74.4128 99.4898 80.5784L102.812 79.0262C100.274 73.5962 100.175 68.6733 100.326 66.2055L96.6659 65.9814ZM99.4885 80.5755C101.799 85.5435 104.974 88.7725 106.979 90.5488L109.411 87.804C107.623 86.2209 104.837 83.3809 102.813 79.0291L99.4885 80.5755ZM156.194 137.036C156.483 136.619 158.232 134.042 159.421 130.43C160.607 126.83 161.306 121.982 159.179 117.203L155.829 118.695C157.441 122.315 156.975 126.137 155.939 129.283C154.907 132.417 153.377 134.662 153.179 134.949L156.194 137.036ZM159.18 117.206C156.095 110.249 148.662 107.149 147.649 106.723L146.226 110.102C147.272 110.542 153.386 113.186 155.828 118.692L159.18 117.206ZM147.676 106.734C146.887 106.387 146.442 106.252 145.457 105.958C144.49 105.669 142.906 105.2 139.755 104.176L138.623 107.663C141.811 108.699 143.425 109.178 144.408 109.471C145.374 109.76 145.633 109.841 146.199 110.09L147.676 106.734ZM139.776 104.183C135.858 102.859 134.005 102.295 132.373 101.663L131.05 105.083C132.778 105.752 134.825 106.38 138.602 107.657L139.776 104.183ZM132.355 101.656C129.798 100.697 124.9 98.8003 119.318 95.2193L117.338 98.3055C123.243 102.094 128.423 104.098 131.068 105.09L132.355 101.656ZM119.303 95.2103C117.48 94.0644 115.105 92.3776 112.395 90.1453L110.064 92.9758C112.88 95.2953 115.382 97.0762 117.352 98.3147L119.303 95.2103Z" fill="#98C9C0"/>
</g>
<defs>
<linearGradient id="paint0_linear_4_118" x1="111.008" y1="168.257" x2="170.093" y2="168.257" gradientUnits="userSpaceOnUse">
<stop stop-color="#3B8270"/>
<stop offset="1" stop-color="#305C6E"/>
</linearGradient>
<linearGradient id="paint1_linear_4_118" x1="49.3217" y1="168.226" x2="109.133" y2="168.226" gradientUnits="userSpaceOnUse">
<stop stop-color="#4E7F98"/>
<stop offset="1" stop-color="#3BC0B5"/>
</linearGradient>
<linearGradient id="paint2_linear_4_118" x1="49.3217" y1="168.225" x2="109.133" y2="168.225" gradientUnits="userSpaceOnUse">
<stop stop-color="#30435C"/>
<stop offset="1" stop-color="#299AA9"/>
</linearGradient>
<linearGradient id="paint3_linear_4_118" x1="111.46" y1="168.252" x2="170.089" y2="168.252" gradientUnits="userSpaceOnUse">
<stop stop-color="#2E2C29"/>
<stop offset="1" stop-color="#323232"/>
</linearGradient>
<clipPath id="clip0_4_118">
<rect width="220" height="220" fill="white" transform="translate(0 0.5)"/>
</clipPath>
</defs>
</svg>
