<svg width="220" height="221" viewBox="0 0 220 221" fill="none" xmlns="http://www.w3.org/2000/svg">
<g clip-path="url(#clip0_4_126)">
<path d="M220 110.5C220 171.251 170.751 220.5 110 220.5C49.2488 220.5 0 171.251 0 110.5C0 49.7487 49.2488 0.5 110 0.5C170.751 0.5 220 49.7487 220 110.5Z" fill="#4958C5"/>
<path d="M155.414 65.7054H125.463V57.2416C125.463 47.9545 135.075 41.0153 141.522 40.4307C147.149 39.9207 150.197 39.2154 161.333 42.8597V27.617C153.714 25.7296 144.57 25.9956 136.95 26.6767C128.627 27.1467 109.754 35.9636 109.754 56.4185V65.7054H98.7349V79.5773H109.754V131.89C109.754 131.89 102.603 125.072 87.9499 125.072C67.5525 125.072 49.5 140.825 49.5 163.395C49.5 185.967 66.2633 202.166 88.4191 202.166C110.575 202.166 126.048 183.145 126.517 163.395C126.986 143.646 126.517 121.193 126.517 121.193V79.5773H155.414V65.7054Z" fill="white"/>
<path d="M87.0827 185.667C99.7392 185.667 109.999 175.407 109.999 162.75C109.999 150.094 99.7392 139.833 87.0827 139.833C74.4262 139.833 64.166 150.094 64.166 162.75C64.166 175.407 74.4262 185.667 87.0827 185.667Z" fill="#4958C5"/>
</g>
<defs>
<clipPath id="clip0_4_126">
<rect width="220" height="220" fill="white" transform="translate(0 0.5)"/>
</clipPath>
</defs>
</svg>
