<svg width="220" height="221" viewBox="0 0 220 221" fill="none" xmlns="http://www.w3.org/2000/svg">
<g clip-path="url(#clip0_4_130)">
<path d="M110 220.5C170.751 220.5 220 171.251 220 110.5C220 49.7487 170.751 0.5 110 0.5C49.2487 0.5 0 49.7487 0 110.5C0 171.251 49.2487 220.5 110 220.5Z" fill="#E84142"/>
<path fill-rule="evenodd" clip-rule="evenodd" d="M116.585 33.1539C112.774 26.5711 106.711 26.5711 102.899 33.1539L33.6948 155.02C29.8839 161.689 33.002 166.973 40.6239 166.973H75.3562C82.372 166.54 88.6948 162.815 92.506 156.926L134.341 84.4295C137.372 78.1932 137.372 70.8311 134.341 64.5948L121.868 42.6813L116.585 33.1539ZM162.577 113.359C158.766 106.776 152.616 106.776 148.805 113.359L124.64 155.02C120.915 161.603 124.033 166.973 131.569 166.973H179.38C187.002 166.973 190.121 161.603 186.309 155.02L162.577 113.359Z" fill="white"/>
</g>
<defs>
<clipPath id="clip0_4_130">
<rect width="220" height="220" fill="white" transform="translate(0 0.5)"/>
</clipPath>
</defs>
</svg>
