<svg width="220" height="221" viewBox="0 0 220 221" fill="none" xmlns="http://www.w3.org/2000/svg">
<g clip-path="url(#clip0_4_133)">
<path d="M110 220.5C170.753 220.5 220 171.253 220 110.5C220 49.747 170.753 0.5 110 0.5C49.247 0.5 0 49.747 0 110.5C0 171.253 49.247 220.5 110 220.5Z" fill="#EDF0F4"/>
<path fill-rule="evenodd" clip-rule="evenodd" d="M107.275 49.9797C108.467 47.5621 111.914 47.5621 113.107 49.9797L131.819 87.9169L119.507 111.577L85.5962 93.9298L107.275 49.9797ZM116.355 117.634L82.5749 100.054L57.1735 151.552C56.1078 153.713 57.6802 156.241 60.0894 156.241H96.2627L116.355 117.634ZM103.96 156.241L122.412 120.786L156.88 138.724L163.208 151.552C164.274 153.713 162.701 156.241 160.292 156.241H103.96ZM125.563 114.729L135.565 95.5102L151.773 128.368L125.563 114.729Z" fill="#1A45D5"/>
</g>
<defs>
<clipPath id="clip0_4_133">
<rect width="220" height="220" fill="white" transform="translate(0 0.5)"/>
</clipPath>
</defs>
</svg>
