<svg width="220" height="221" viewBox="0 0 220 221" fill="none" xmlns="http://www.w3.org/2000/svg">
<g clip-path="url(#clip0_4_136)">
<path fill-rule="evenodd" clip-rule="evenodd" d="M110 0.5C170.742 0.5 220 49.758 220 110.5C220 171.242 170.742 220.5 110 220.5C49.258 220.5 0 171.242 0 110.5C0 49.758 49.258 0.5 110 0.5Z" fill="#0055D5"/>
<path fill-rule="evenodd" clip-rule="evenodd" d="M59.8373 73.2763C59.8373 73.2763 48.0013 63.8163 47.1873 87.1803C46.3733 105.286 46.3953 140.442 54.7773 157.052C58.3193 163.3 63.0493 161.386 71.8493 155.16C79.5053 149.506 107.203 123.986 118.929 112.788C130.655 101.59 154.437 69.4703 159.387 91.2943C161.345 100.468 163.765 108.256 161.917 128.606C161.345 134.876 158.661 139.628 146.429 131.136C137.189 125.196 128.411 118.816 128.411 118.816C128.411 118.816 126.717 115.78 122.713 120.708C119.567 124.646 117.983 125.614 123.021 128.606C128.081 131.598 153.667 149.242 163.479 151.992C171.575 154.346 176.195 154.302 176.437 138.396C176.393 125.768 175.667 89.6223 171.069 74.2223C167.593 64.6303 162.489 60.2743 151.467 71.0543C140.445 81.8343 105.685 115.538 86.6773 130.806C74.0713 140.266 68.6813 148.802 63.9293 133.028C60.5853 121.082 56.2513 83.9023 69.9353 90.9863C78.4933 95.0783 82.7613 95.0563 79.4173 97.6303C76.0733 100.182 66.4593 109.004 66.4593 109.004C66.4593 109.004 63.4893 111.402 64.8753 116.594C66.2613 120.224 66.2613 122.028 73.7193 115.01C81.1773 107.992 86.6773 102.69 86.6773 102.69C86.6773 102.69 87.8653 100.82 91.4073 104.274C94.9493 107.728 95.5213 108.696 95.5213 108.696C95.5213 108.696 96.4673 111.27 100.251 106.804C104.057 102.338 106.499 99.6103 99.3053 95.4303C92.1333 91.2063 59.8373 73.2763 59.8373 73.2763Z" fill="white"/>
</g>
<defs>
<clipPath id="clip0_4_136">
<rect width="220" height="220" fill="white" transform="translate(0 0.5)"/>
</clipPath>
</defs>
</svg>
