<svg width="220" height="221" viewBox="0 0 220 221" fill="none" xmlns="http://www.w3.org/2000/svg">
<g clip-path="url(#clip0_4_139)">
<path d="M110 220.5C170.751 220.5 220 171.251 220 110.5C220 49.7487 170.751 0.5 110 0.5C49.2487 0.5 0 49.7487 0 110.5C0 171.251 49.2487 220.5 110 220.5Z" fill="#EDF0F4"/>
<path fill-rule="evenodd" clip-rule="evenodd" d="M91.1951 55.3699C90.2947 55.82 90.2947 57.1706 90.745 58.071C91.1951 58.9715 92.5457 58.9715 93.446 58.9715L99.2986 54.9197C100.199 54.0193 100.199 53.119 99.7489 51.7684C99.2986 50.868 97.948 50.868 97.0476 51.3181L91.1951 55.3699ZM144.768 109.844C144.768 108.943 143.418 108.043 142.517 108.493C141.167 108.493 140.717 109.844 141.167 110.744L142.968 117.497C142.968 118.397 144.318 119.298 145.219 118.847C146.119 118.847 147.019 117.497 146.569 116.596L144.768 109.844Z" fill="white"/>
<path fill-rule="evenodd" clip-rule="evenodd" d="M120.913 81.9311C114.16 80.5805 106.957 81.4809 100.654 85.5327C109.658 82.3814 120.013 84.6324 127.216 91.8354C137.12 102.19 137.12 118.847 127.216 128.752C125.865 130.102 124.515 131.003 123.164 131.903C126.766 130.552 130.367 128.752 133.068 125.6C140.272 118.397 142.072 108.042 139.371 99.0385C131.718 96.3375 124.965 90.0347 120.913 81.9311Z" fill="#FFAE54"/>
<path d="M163.677 140.456C147.47 170.62 109.654 181.875 79.9409 165.217C49.7778 149.01 38.9732 110.744 55.1803 80.5806C65.9848 60.772 85.7935 49.0669 106.953 48.1665C109.654 48.1665 111.905 49.5171 113.256 52.2184C114.606 54.9194 115.506 58.521 115.056 62.1226C115.056 63.4732 115.056 64.8238 115.056 66.1742C115.056 72.4771 116.857 78.7799 119.558 84.1822C106.502 79.23 91.646 84.6324 84.8931 97.2379C77.2398 111.194 82.6421 128.301 96.1479 135.955C109.654 143.608 127.212 138.206 134.415 124.7C138.466 117.046 138.916 108.042 135.765 100.389C141.168 103.09 147.02 104.441 153.323 104.441C156.924 104.441 160.076 103.991 163.677 103.09C165.478 102.64 167.729 102.64 169.08 103.541C170.43 104.441 171.331 105.341 171.331 106.692C171.781 117.947 169.08 129.652 163.677 140.456Z" fill="url(#paint0_radial_4_139)" stroke="#AC562A" stroke-width="1.0716"/>
<path fill-rule="evenodd" clip-rule="evenodd" d="M89.3965 81.4809C92.9981 83.2818 97.9503 84.1822 104.253 82.3813C109.205 81.4809 114.608 81.9312 119.56 84.1822C116.859 78.7799 115.058 72.4771 115.058 66.1742C115.058 63.9233 115.058 61.6723 115.508 59.8716C115.958 57.1704 115.508 54.0191 114.157 51.7681C112.807 49.5171 111.006 48.1665 108.755 48.1665C101.102 48.1665 92.9981 49.9672 85.3448 53.1187C82.6436 54.4693 80.8429 57.1704 79.9423 60.772C79.042 64.3735 79.4923 68.4254 81.293 72.4771C82.6436 76.0786 85.7949 79.23 89.3965 81.4809ZM147.472 128.301L149.723 127.401C151.334 131.43 149.701 135.098 148.372 138.083C148.216 138.433 148.064 138.775 147.922 139.106V139.556C147.734 139.932 147.546 140.288 147.366 140.629C146.685 141.921 146.121 142.989 146.121 144.058C145.671 146.309 145.671 148.56 146.121 149.911C146.571 151.261 147.922 152.612 149.723 153.062C151.073 153.512 153.324 153.062 156.026 151.261C166.83 138.656 171.782 122.449 170.882 107.142C170.882 105.791 169.982 104.441 168.631 103.54C167.28 102.64 165.029 102.64 163.229 103.09C160.077 103.991 156.476 104.441 153.324 104.441C147.022 104.441 141.169 103.09 135.767 99.9389C138.918 107.592 138.468 116.146 134.866 123.799C134.55 124.747 134.013 125.473 133.41 126.288C133.153 126.635 132.884 126.998 132.615 127.401C134.416 126.951 136.217 126.05 138.918 124.249C142.069 121.999 146.121 124.249 147.472 128.301ZM143.506 143.284C143.978 141.591 144.825 139.898 145.671 138.206C145.831 137.832 145.997 137.459 146.164 137.085C147.404 134.302 148.662 131.476 147.472 128.301L143.506 143.284ZM143.506 143.284C143.476 143.392 143.447 143.5 143.42 143.608L143.506 143.284Z" fill="#AC562A"/>
<path d="M104.255 82.3812L104.079 81.4148L104.032 81.4234L103.985 81.4368L104.255 82.3812ZM89.3984 81.4808L88.8779 82.3139L88.9173 82.3386L88.9591 82.3595L89.3984 81.4808ZM119.562 84.182L119.155 85.0763L121.681 86.2244L120.44 83.7428L119.562 84.182ZM115.51 59.8715L116.463 60.1096L116.472 60.0717L116.479 60.033L115.51 59.8715ZM85.3467 53.1186L84.9727 52.2102L84.9396 52.2239L84.9075 52.2399L85.3467 53.1186ZM81.2949 72.4769L82.2147 72.1321L82.2044 72.1048L82.1927 72.078L81.2949 72.4769ZM149.725 127.401L150.637 127.036L150.272 126.124L149.36 126.489L149.725 127.401ZM147.924 139.106L147.021 138.719L146.942 138.904V139.106H147.924ZM147.924 139.556L148.802 139.995L148.906 139.788V139.556H147.924ZM146.123 144.058L147.086 144.251L147.105 144.155V144.058H146.123ZM149.725 153.062L150.035 152.13L149.999 152.118L149.963 152.109L149.725 153.062ZM156.027 151.261L156.572 152.078L156.685 152.003L156.773 151.9L156.027 151.261ZM170.884 107.142H169.902V107.171L169.903 107.2L170.884 107.142ZM163.231 103.09L162.992 102.137L162.976 102.141L162.961 102.146L163.231 103.09ZM135.769 99.9388L136.264 99.0903L133.754 97.6266L134.86 100.313L135.769 99.9388ZM134.868 123.799L133.979 123.381L133.955 123.434L133.936 123.489L134.868 123.799ZM132.617 127.401L131.8 126.856L130.39 128.97L132.856 128.354L132.617 127.401ZM138.92 124.249L139.465 125.067L139.478 125.058L139.491 125.049L138.92 124.249ZM145.673 138.205L146.551 138.645L146.565 138.619L146.576 138.592L145.673 138.205ZM143.422 143.608L142.469 143.37L144.371 143.859L143.422 143.608ZM103.985 81.4368C97.9159 83.1708 93.2171 82.2919 89.8377 80.6023L88.9591 82.3595C92.7831 84.2713 97.9885 85.1933 104.525 83.3257L103.985 81.4368ZM119.968 83.2877C114.815 80.9457 109.207 80.4824 104.079 81.4148L104.431 83.3477C109.207 82.4792 114.404 82.9165 119.155 85.0763L119.968 83.2877ZM114.077 66.1741C114.077 72.6575 115.927 79.1101 118.683 84.6213L120.44 83.7428C117.793 78.4492 116.042 72.2963 116.042 66.1741H114.077ZM114.557 59.6332C114.071 61.5759 114.077 63.9613 114.077 66.1741H116.042C116.042 63.8852 116.048 61.7686 116.463 60.1096L114.557 59.6332ZM113.317 52.2734C114.527 54.2908 114.96 57.1976 114.541 59.71L116.479 60.033C116.96 57.1429 116.492 53.7471 115.001 51.2625L113.317 52.2734ZM108.757 49.1487C110.542 49.1487 112.071 50.1974 113.317 52.2734L115.001 51.2625C113.546 48.8367 111.474 47.1841 108.757 47.1841V49.1487ZM85.7207 54.0268C93.2757 50.916 101.252 49.1487 108.757 49.1487V47.1841C100.955 47.1841 92.7244 49.0183 84.9727 52.2102L85.7207 54.0268ZM80.8974 61.0102C81.7538 57.5842 83.4227 55.1787 85.786 53.9971L84.9075 52.2399C81.8684 53.7595 79.9357 56.7563 78.9913 60.5337L80.8974 61.0102ZM82.1927 72.078C80.4649 68.1908 80.0589 64.3639 80.8974 61.0102L78.9913 60.5337C78.029 64.383 78.5234 68.6596 80.3973 72.8759L82.1927 72.078ZM89.9191 80.6479C86.422 78.4622 83.4624 75.4592 82.2147 72.1321L80.3751 72.8218C81.8288 76.6978 85.1718 79.9976 88.8779 82.3139L89.9191 80.6479ZM149.36 126.489L147.109 127.389L147.838 129.213L150.089 128.313L149.36 126.489ZM149.271 138.482C150.578 135.548 152.423 131.501 150.637 127.036L148.813 127.766C150.249 131.358 148.828 134.648 147.477 137.683L149.271 138.482ZM148.827 139.493C148.966 139.169 149.115 138.834 149.271 138.482L147.477 137.683C147.321 138.033 147.166 138.38 147.021 138.719L148.827 139.493ZM148.906 139.556V139.106H146.942V139.556H148.906ZM148.237 141.087C148.416 140.748 148.609 140.382 148.802 139.995L147.045 139.117C146.863 139.482 146.68 139.829 146.499 140.171L148.237 141.087ZM147.105 144.058C147.105 143.284 147.518 142.451 148.237 141.087L146.499 140.171C145.856 141.39 145.141 142.695 145.141 144.058H147.105ZM147.055 149.6C146.682 148.482 146.651 146.426 147.086 144.251L145.16 143.865C144.695 146.192 144.664 148.638 145.191 150.221L147.055 149.6ZM149.963 152.109C148.474 151.737 147.395 150.619 147.055 149.6L145.191 150.221C145.752 151.903 147.373 153.487 149.486 154.015L149.963 152.109ZM155.483 150.444C152.864 152.189 150.949 152.434 150.035 152.13L149.414 153.994C151.202 154.59 153.788 153.934 156.572 152.078L155.483 150.444ZM169.903 107.2C170.789 122.263 165.914 138.218 155.282 150.622L156.773 151.9C167.75 139.094 172.779 122.634 171.864 107.084L169.903 107.2ZM168.088 104.358C169.265 105.142 169.902 106.224 169.902 107.142H171.866C171.866 105.359 170.702 103.739 169.178 102.723L168.088 104.358ZM163.469 104.043C164.283 103.84 165.196 103.74 166.043 103.79C166.902 103.84 167.61 104.039 168.088 104.358L169.178 102.723C168.305 102.141 167.212 101.89 166.158 101.828C165.092 101.766 163.979 101.891 162.992 102.137L163.469 104.043ZM153.326 105.423C156.56 105.423 160.253 104.962 163.5 104.035L162.961 102.146C159.905 103.019 156.395 103.458 153.326 103.458V105.423ZM135.274 100.787C140.848 104.039 146.876 105.423 153.326 105.423V103.458C147.171 103.458 141.494 102.142 136.264 99.0903L135.274 100.787ZM135.757 124.217C139.465 116.337 139.942 107.495 136.677 99.5648L134.86 100.313C137.898 107.689 137.474 115.955 133.979 123.381L135.757 124.217ZM134.201 126.872C134.792 126.074 135.427 125.228 135.8 124.11L133.936 123.489C133.677 124.265 133.238 124.872 132.622 125.704L134.201 126.872ZM133.435 127.946C133.688 127.566 133.943 127.221 134.201 126.872L132.622 125.704C132.367 126.048 132.084 126.43 131.8 126.856L133.435 127.946ZM138.375 123.432C135.708 125.21 134.018 126.038 132.379 126.448L132.856 128.354C134.818 127.863 136.729 126.89 139.465 125.067L138.375 123.432ZM148.406 127.991C147.658 125.747 146.147 123.951 144.312 123.033C142.45 122.103 140.255 122.089 138.349 123.45L139.491 125.049C140.736 124.159 142.143 124.145 143.433 124.79C144.749 125.448 145.939 126.803 146.542 128.612L148.406 127.991ZM144.794 137.766C143.957 139.44 143.064 141.219 142.562 143.019L144.454 143.548C144.896 141.963 145.696 140.356 146.551 138.645L144.794 137.766ZM145.268 136.686C145.102 137.058 144.933 137.438 144.77 137.819L146.576 138.592C146.732 138.227 146.896 137.86 147.063 137.485L145.268 136.686ZM146.554 128.646C147.583 131.389 146.536 133.841 145.268 136.686L147.063 137.485C148.276 134.762 149.746 131.563 148.393 127.956L146.554 128.646ZM144.457 143.535L148.423 128.553L146.524 128.05L142.558 143.032L144.457 143.535ZM142.562 143.019C142.529 143.136 142.498 143.253 142.469 143.37L144.375 143.846C144.4 143.747 144.426 143.647 144.454 143.548L142.562 143.019ZM144.371 143.859L144.457 143.535L142.558 143.032L142.472 143.357L144.371 143.859Z" fill="#AC562A"/>
<path d="M62.3838 99.4893C64.1243 99.4893 65.5352 98.0783 65.5352 96.3379C65.5352 94.5974 64.1243 93.1865 62.3838 93.1865C60.6433 93.1865 59.2324 94.5974 59.2324 96.3379C59.2324 98.0783 60.6433 99.4893 62.3838 99.4893Z" fill="#AC562A"/>
<path d="M109.206 155.763C110.947 155.763 112.357 154.352 112.357 152.612C112.357 150.871 110.947 149.46 109.206 149.46C107.466 149.46 106.055 150.871 106.055 152.612C106.055 154.352 107.466 155.763 109.206 155.763Z" fill="#AC562A"/>
<path d="M89.3984 160.715C92.3821 160.715 94.8008 158.297 94.8008 155.313C94.8008 152.329 92.3821 149.911 89.3984 149.911C86.4148 149.911 83.9961 152.329 83.9961 155.313C83.9961 158.297 86.4148 160.715 89.3984 160.715Z" fill="#AC562A"/>
</g>
<defs>
<radialGradient id="paint0_radial_4_139" cx="0" cy="0" r="1" gradientUnits="userSpaceOnUse" gradientTransform="translate(109.367 110.653) rotate(90) scale(64.7288 64.1832)">
<stop offset="0.3335" stop-color="#F7B450"/>
<stop offset="0.6477" stop-color="#FFC977"/>
<stop offset="1" stop-color="#FF9900"/>
</radialGradient>
<clipPath id="clip0_4_139">
<rect width="220" height="220" fill="white" transform="translate(0 0.5)"/>
</clipPath>
</defs>
</svg>
