<svg width="220" height="221" viewBox="0 0 220 221" fill="none" xmlns="http://www.w3.org/2000/svg">
<g clip-path="url(#clip0_4_149)">
<path fill-rule="evenodd" clip-rule="evenodd" d="M110 0.5C170.742 0.5 220 49.758 220 110.5C220 171.242 170.742 220.5 110 220.5C49.258 220.5 0 171.242 0 110.5C0 49.758 49.258 0.5 110 0.5Z" fill="#1E1E1E"/>
<path d="M111.651 156.48C76.4729 156.48 47.9609 146.316 47.9609 132.698C47.9609 125.592 55.7269 119.19 68.1569 114.68C77.8589 120.906 94.1389 124.096 112.597 124.096C130.615 124.096 146.543 120.202 156.333 114.24C168.059 118.706 175.341 124.932 175.341 131.796C175.341 145.436 146.829 156.48 111.651 156.48Z" fill="white"/>
<path d="M112.026 121.038C85.3623 121.038 63.7363 112.678 63.7363 102.36C63.7363 96.6405 70.4023 91.5145 80.8523 88.1045C88.3103 91.9985 99.4863 94.4845 112.026 94.4845C124.566 94.4845 135.742 91.9985 143.2 88.1045C153.672 91.5365 160.316 96.6405 160.316 102.36C160.338 112.678 138.712 121.038 112.026 121.038Z" fill="white"/>
<path d="M111.85 91.382C91.2356 91.382 74.5156 84.474 74.5156 75.982C74.5156 67.49 91.2356 60.582 111.85 60.582C132.464 60.582 149.184 67.49 149.184 75.982C149.184 84.474 132.464 91.382 111.85 91.382Z" fill="white"/>
</g>
<defs>
<clipPath id="clip0_4_149">
<rect width="220" height="220" fill="white" transform="translate(0 0.5)"/>
</clipPath>
</defs>
</svg>
