<svg width="220" height="221" viewBox="0 0 220 221" fill="none" xmlns="http://www.w3.org/2000/svg">
<g clip-path="url(#clip0_4_154)">
<path d="M110 220.5C170.751 220.5 220 171.251 220 110.5C220 49.7487 170.751 0.5 110 0.5C49.2487 0.5 0 49.7487 0 110.5C0 171.251 49.2487 220.5 110 220.5Z" fill="#000D2B"/>
<path fill-rule="evenodd" clip-rule="evenodd" d="M108.843 40.8335L77.985 59.0669L108.843 77.3071L140.281 59.0669L108.843 40.8335ZM113.917 138.193V174.667L155.833 150.551V114.07L113.917 138.193ZM113.91 125.257L145.356 107.017V70.5359L113.91 88.7763V125.257ZM69.666 107.017L101.111 125.257V88.7763L69.666 70.5359V107.017ZM101.111 174.667L69.666 156.433V156.426V119.96L101.111 138.193V174.667Z" fill="white"/>
</g>
<defs>
<clipPath id="clip0_4_154">
<rect width="220" height="220" fill="white" transform="translate(0 0.5)"/>
</clipPath>
</defs>
</svg>
