<svg width="220" height="221" viewBox="0 0 220 221" fill="none" xmlns="http://www.w3.org/2000/svg">
<g clip-path="url(#clip0_4_157)">
<path d="M110 220.5C170.751 220.5 220 171.251 220 110.5C220 49.7487 170.751 0.5 110 0.5C49.2487 0.5 0 49.7487 0 110.5C0 171.251 49.2487 220.5 110 220.5Z" fill="#516AFF"/>
<path d="M128.715 80.0183L148.002 90.9781V36.1794L109.428 17L49.5 50.5641V169.751L109.428 204L168.667 169.066V110.158L111.494 75.9085L92.2071 85.4981L149.38 119.062L150.068 159.476L109.428 182.081L68.0983 158.791V60.1539L109.428 37.5495L128.715 47.8242V80.0183Z" fill="white"/>
<path d="M108.462 113.708L121.384 106.833L135.667 115.771L93.5 139.833V90.3335L108.462 99.271" fill="white"/>
</g>
<defs>
<clipPath id="clip0_4_157">
<rect width="220" height="220" fill="white" transform="translate(0 0.5)"/>
</clipPath>
</defs>
</svg>
