<svg width="220" height="221" viewBox="0 0 220 221" fill="none" xmlns="http://www.w3.org/2000/svg">
<g clip-path="url(#clip0_4_161)">
<path d="M110 220.5C170.751 220.5 220 171.251 220 110.5C220 49.7487 170.751 0.5 110 0.5C49.2487 0.5 0 49.7487 0 110.5C0 171.251 49.2487 220.5 110 220.5Z" fill="#EDF0F4"/>
<path fill-rule="evenodd" clip-rule="evenodd" d="M64.166 46.7915V42.6665H64.6243H83.416C83.416 42.6665 83.8743 42.6665 83.8743 43.1248V43.5832L69.2077 55.0415H68.7493L64.166 46.7915ZM64.166 59.6248C64.166 59.6248 64.166 60.0832 64.6243 60.0832V59.6248L67.8327 56.4165V55.9582L65.0827 50.4582C64.6243 50.4582 64.6243 49.9998 64.6243 49.9998L64.166 50.4582V59.6248ZM64.166 65.1248V62.3748L67.8327 58.2498L68.291 57.7915C68.291 58.2498 68.7493 58.2498 68.7493 58.2498L71.041 66.4998C71.041 66.4998 71.041 66.9582 70.5827 66.9582L64.6243 65.5832C64.3952 65.5832 64.2806 65.5832 64.2232 65.526C64.166 65.4686 64.166 65.354 64.166 65.1248ZM64.166 67.4165V75.2082C64.166 75.4373 64.166 75.5519 64.2232 75.6093C64.2806 75.6665 64.3952 75.6665 64.6243 75.6665L70.1243 68.7915C70.5827 68.7915 70.5827 68.3332 70.5827 68.3332C70.5827 68.3332 70.1243 68.3332 70.1243 67.8748L64.6243 66.9582H64.166V67.4165ZM64.166 79.7915V78.4165V77.9582L70.5827 70.1665H71.041V70.6248L70.5827 80.2498V80.7082L64.6243 80.2498C64.3952 80.2498 64.2806 80.2498 64.2232 80.1926C64.166 80.1353 64.166 80.0207 64.166 79.7915ZM64.166 81.6248V93.9998C64.166 93.9998 64.166 94.4582 64.6243 94.4582L65.0827 93.9998L70.1243 82.5415V82.0832L64.6243 81.6248H64.166ZM71.041 83.4582L64.6243 97.6665V98.1248H65.0827L76.0827 91.2498C76.3118 91.2498 76.4264 91.2498 76.4838 91.1926C76.541 91.1353 76.541 91.0207 76.541 90.7915L71.4993 83.4582V82.9998C71.2702 82.9998 71.1556 82.9998 71.0982 83.057C71.041 83.1144 71.041 83.229 71.041 83.4582ZM85.2493 135.25L89.8327 149.458C89.8327 149.687 89.8327 149.802 89.8899 149.859C89.9473 149.917 90.0618 149.917 90.291 149.917V149.458V135.708L85.7077 134.792H85.2493V135.25ZM89.8327 134.333L85.7077 133.875C85.7077 133.875 85.7077 133.417 85.2493 133.417L89.8327 123.333C89.8327 123.104 89.8327 122.989 89.8899 122.932C89.9473 122.875 90.0618 122.875 90.291 122.875V123.333V133.875V134.333H89.8327ZM76.9993 171.458L64.6243 177.875V178.333C64.6243 178.333 64.6243 178.792 65.0827 178.792L88.4577 180.167C88.916 180.167 88.916 179.708 88.916 179.708V179.25L77.4577 171.458H76.9993ZM64.166 174.208V158.167V157.708H64.6243L75.6243 160.917C75.8535 160.917 75.9681 160.917 76.0255 160.974C76.0827 161.031 76.0827 161.146 76.0827 161.375L64.6243 174.667C64.3952 174.667 64.2806 174.667 64.2232 174.609C64.166 174.552 64.166 174.437 64.166 174.208ZM64.166 154.958V156.333L64.6243 156.792L75.6243 159.542C76.0827 160 76.0827 159.542 76.0827 159.542V159.083L70.1243 142.583V142.125C69.8952 142.125 69.7806 142.125 69.7232 142.182C69.666 142.239 69.666 142.354 69.666 142.583L64.166 154.958ZM64.166 150.375V138.458V138H64.6243L68.7493 140.75V141.208L65.0827 150.375H64.6243H64.166ZM64.166 134.333V136.167V136.625L69.2077 139.833C69.666 139.833 69.666 139.375 69.666 139.375L75.6243 125.625V125.167H75.166L64.166 133.875V134.333ZM64.166 131.583V130.667L70.1243 116H70.5827L76.541 121.958V122.417L64.6243 132.042H64.166V131.583ZM64.166 105.917V125.625C64.166 125.625 64.166 126.083 64.6243 126.083L65.0827 125.625L69.2077 115.083V114.625L65.0827 105.917L64.6243 105.458C64.166 105.458 64.166 105.917 64.166 105.917ZM64.6243 101.792L78.8327 105.917L79.291 106.375L78.8327 106.833L70.5827 113.708H70.1243V113.25L64.166 102.25C64.166 102.25 64.166 101.792 64.6243 101.792ZM88.4577 55.0415L86.166 43.5832H85.7077H85.2493L71.041 55.0415V55.4998H71.4993H87.9993H88.4577V55.0415ZM87.541 42.6665H99.4577H99.916V43.1248L90.291 54.1248C90.291 54.5832 89.8327 54.5832 89.8327 54.5832L89.3743 54.1248L87.0827 43.1248C87.0827 42.8957 87.0827 42.7811 87.1399 42.7237C87.1973 42.6665 87.3118 42.6665 87.541 42.6665ZM72.416 66.4998L86.6243 57.3332V56.8748H86.166H69.666V57.3332L71.9577 66.4998C72.2083 66.7505 72.3218 66.8639 72.3733 66.8407C72.416 66.8212 72.416 66.7076 72.416 66.4998ZM119.166 44.9582L105.416 52.7498H104.958L102.666 43.1248V42.6665H103.124L118.708 44.4998H119.166V44.9582ZM117.333 55.0415L133.374 52.2915V51.8332V51.3748L122.374 44.9582H121.916C121.916 44.9582 121.458 44.9582 121.458 45.4165L116.874 54.5832V55.0415C117.104 55.0415 117.218 55.1561 117.275 55.2135C117.296 55.2342 117.309 55.2474 117.318 55.2448C117.333 55.2404 117.333 55.1874 117.333 55.0415ZM142.541 65.5832L132.916 75.2082H132.458C131.999 75.2082 131.999 74.7498 131.999 74.7498L136.124 54.5832H136.583L142.541 65.1248V65.5832ZM141.166 90.7915L144.374 80.2498L142.999 67.4165C142.999 67.4165 142.999 66.9582 142.541 66.9582V67.4165L131.999 77.4998C131.77 77.729 131.656 77.8436 131.656 77.9582C131.656 78.0728 131.77 78.1873 131.999 78.4165L140.249 91.2498H140.708C140.708 91.2498 141.166 91.2498 141.166 90.7915ZM131.083 102.25L127.874 92.6248V92.1665H128.333L138.874 93.0832C139.333 93.0832 139.333 93.5415 139.333 93.5415V93.9998L131.541 102.25C131.541 102.25 131.541 102.708 131.083 102.25ZM115.041 90.7915L128.791 101.792H129.249C129.708 101.792 129.708 101.333 129.708 101.333L126.499 92.1665L115.499 90.3332H115.041V90.7915ZM127.874 90.3332L131.083 79.7915H131.541L139.333 91.7082V92.1665H138.874L128.333 91.2498C128.333 90.7915 127.874 90.7915 127.874 90.7915V90.3332ZM120.999 73.8332L126.499 88.4998C126.499 88.9582 126.958 88.9582 126.958 88.9582L127.416 88.4998L130.166 78.4165V77.9582L121.458 73.3748H120.999V73.8332ZM130.166 76.5832L120.541 71.5415V71.0832L133.833 55.4998H134.291C134.291 55.4998 134.749 55.4998 134.749 55.9582L130.624 76.5832H130.166ZM114.124 72.4582L115.499 77.4998C115.499 77.4998 115.499 77.9582 115.958 77.9582V77.4998L118.249 72.9165V72.4582C118.249 72.229 118.249 72.1144 118.192 72.057C118.135 71.9998 118.02 71.9998 117.791 71.9998H114.583L114.124 72.4582ZM119.624 73.8332L126.041 90.3332L125.583 90.7915L113.208 88.9582L112.749 88.4998V88.0415L115.958 80.7082L119.166 73.8332H119.624ZM116.416 56.8748L119.624 69.7082H120.083L133.833 54.1248V53.6665C133.833 53.2082 133.374 53.2082 133.374 53.2082L116.874 56.4165C116.645 56.4165 116.531 56.4165 116.473 56.4737C116.416 56.5311 116.416 56.6457 116.416 56.8748ZM114.583 71.0832H114.124V70.6248L115.499 60.9998H115.958H116.416L118.708 70.6248V71.0832H118.249H114.583ZM105.874 55.0415L108.166 64.6665V65.1248C108.395 65.1248 108.51 65.1248 108.567 65.0676C108.624 65.0103 108.624 64.8957 108.624 64.6665L114.124 56.8748V56.4165L106.333 54.5832C106.104 54.5832 105.989 54.5832 105.932 54.6404C105.874 54.6978 105.874 54.8123 105.874 55.0415ZM114.583 59.6248L113.208 69.7082C113.208 69.7082 113.208 70.1665 112.749 70.1665H112.291L109.083 66.9582C108.624 66.9582 108.624 66.4998 109.083 66.4998L113.666 59.6248C113.895 59.6248 114.01 59.5103 114.067 59.4531C114.088 59.4322 114.101 59.419 114.109 59.4215C114.124 59.4259 114.124 59.4789 114.124 59.6248H114.583ZM107.249 53.6665L115.041 55.4998H115.499L119.624 46.7915V46.3332C119.624 45.8748 119.166 45.8748 119.166 45.8748L107.249 53.2082V53.6665ZM101.749 44.0415L104.041 53.2082C104.041 53.2082 103.583 53.2082 103.583 53.6665L92.1243 55.0415H91.666V54.5832L100.833 43.5832H101.291L101.749 44.0415ZM75.6243 66.4998L90.291 64.2082V63.7498L89.3743 57.7915C88.916 57.7915 88.916 57.3332 88.916 57.3332H88.4577L75.6243 66.0415C75.3952 66.0415 75.2806 66.0415 75.2232 66.0987C75.166 66.1561 75.166 66.2707 75.166 66.4998H75.6243ZM91.2077 58.2498L98.541 63.7498H98.9993C98.9993 64.2082 98.541 64.2082 98.541 64.2082H92.1243C91.8952 64.2082 91.7806 64.2082 91.7232 64.151C91.666 64.0936 91.666 63.979 91.666 63.7498L90.291 58.7082C90.291 58.2498 90.7493 58.2498 90.7493 58.2498H91.2077ZM90.7493 90.3332V69.2498H90.291C90.291 68.7915 89.8327 69.2498 89.8327 69.2498L85.7077 79.3332H85.2493L89.8327 90.3332H90.291H90.7493ZM102.666 64.2082L104.499 57.3332H104.958L107.249 65.5832H106.791V66.0415L102.666 64.6665C102.666 64.6665 102.208 64.2082 102.666 64.2082ZM103.583 54.5832L91.666 56.4165L91.2077 56.8748C91.2077 56.8748 91.666 56.8748 91.666 57.3332L100.833 63.7498H101.291V63.2915L104.041 55.0415L103.583 54.5832ZM112.291 89.8748L126.041 100.875V101.333C126.041 101.562 126.041 101.677 125.984 101.734C125.926 101.792 125.812 101.792 125.583 101.792L106.333 94.9165V94.4582L111.374 89.8748H112.291ZM107.249 105.458L104.499 95.8332C104.499 95.3748 104.041 95.3748 104.041 95.3748H93.9577C93.9577 95.3748 93.4993 95.3748 93.4993 95.8332V96.2915L106.333 105.917H106.791C107.249 105.917 107.249 105.458 107.249 105.458ZM106.333 95.8332L126.958 103.167L127.416 103.625C127.416 103.854 127.416 103.969 127.359 104.026C127.301 104.083 127.187 104.083 126.958 104.083L109.083 107.292C108.624 107.292 108.624 106.833 108.624 106.833L105.874 96.2915C105.874 95.8332 106.333 95.8332 106.333 95.8332ZM132.916 115.083L130.624 105L130.166 104.542L111.833 107.75C111.833 107.75 111.374 107.75 111.374 108.208L111.833 108.667L132.458 115.542C132.916 115.542 132.916 115.083 132.916 115.083ZM141.166 109.583L134.749 115.083H134.291C134.062 115.083 133.947 115.083 133.89 115.026C133.833 114.969 133.833 114.854 133.833 114.625L131.999 105.917V105.458H132.458L141.166 108.667L141.624 109.125C141.624 109.125 141.624 109.583 141.166 109.583ZM135.666 116.458L149.874 119.208H150.333C150.333 118.979 150.333 118.864 150.275 118.807C150.218 118.75 150.104 118.75 149.874 118.75L142.999 110.042H142.541L135.666 115.542V116V116.458ZM155.833 134.792L148.958 137.083H148.499V136.625L151.708 123.792L152.166 123.333L152.624 123.792L155.833 134.333V134.792ZM145.749 152.208L153.541 153.125H153.999L155.833 138.917C155.833 138.687 155.833 138.573 155.775 138.515C155.718 138.458 155.604 138.458 155.374 138.458H154.916L145.749 151.292L145.291 151.75C145.749 151.75 145.749 152.208 145.749 152.208ZM145.291 165.042L144.833 153.583V153.125H145.291L153.083 154.5V154.958L146.208 165.042C145.749 165.042 145.749 165.5 145.749 165.5L145.291 165.042ZM128.333 161.833V162.292L129.249 175.125H129.708L142.999 168.25V167.792V167.333L128.791 161.833H128.333ZM115.958 178.333H115.499L103.583 170.542C103.354 170.542 103.239 170.542 103.182 170.484C103.124 170.427 103.124 170.312 103.124 170.083H103.583L125.124 176.042V176.5L115.958 178.333ZM98.0827 168.708V169.167L92.5827 179.25V179.708C92.5827 179.937 92.5827 180.052 92.6399 180.109C92.6973 180.167 92.8118 180.167 93.041 180.167L112.749 178.792C112.749 178.792 113.208 178.792 113.208 178.333C113.208 178.333 113.208 177.875 112.749 177.875L98.541 168.708H98.0827ZM104.958 106.833L82.9577 105.458H82.4993V105L90.7493 95.8332H91.666L105.416 106.375V106.833H104.958ZM78.3743 93.0832L81.1243 104.083V104.542C81.3535 104.542 81.4681 104.542 81.5255 104.484C81.5827 104.427 81.5827 104.312 81.5827 104.083L89.8327 95.8332V95.3748C89.8327 95.3748 89.8327 94.9165 89.3743 94.9165L78.8327 92.6248C78.8327 92.1665 78.3743 92.6248 78.3743 92.6248V93.0832ZM89.8327 117.833L79.291 121.5C79.0618 121.5 78.9473 121.5 78.8899 121.443C78.8327 121.385 78.8327 121.271 78.8327 121.042L81.1243 108.208V107.75H81.5827L89.8327 117.375V117.833ZM105.416 108.208L82.9577 106.833H82.4993V107.292L91.2077 117.375H91.666L105.416 108.667H105.874C105.874 108.208 105.416 108.208 105.416 108.208ZM108.166 109.125L110.916 116.917V117.375C110.458 117.375 110.458 117.833 110.458 117.833H94.8743C94.416 117.833 94.416 117.375 94.416 117.375V116.917L107.708 109.125C107.708 108.896 107.708 108.781 107.765 108.724C107.822 108.667 107.937 108.667 108.166 108.667V109.125ZM128.791 115.542L109.999 109.125H109.541V109.583L112.291 117.375L128.791 116H129.249C129.249 115.771 129.249 115.656 129.192 115.599C129.135 115.542 129.02 115.542 128.791 115.542ZM131.083 117.833L122.374 124.708H121.916L114.124 119.208V118.75H114.583L130.624 117.375H131.083V117.833ZM142.083 136.167L124.208 127H123.749V127.458L126.958 134.333C126.958 134.792 127.416 134.792 127.416 134.792L141.624 136.625H142.083V136.167ZM127.874 137.083L141.166 150.375V150.833H140.708L125.583 147.167C125.583 147.167 125.124 147.167 125.124 146.708L127.416 137.083V136.625C127.416 136.625 127.874 136.625 127.874 137.083ZM126.499 159.083L124.208 149H123.749L116.874 153.583V154.042L126.041 159.542H126.499C126.499 159.312 126.614 159.198 126.671 159.14C126.692 159.12 126.705 159.106 126.703 159.098C126.698 159.083 126.645 159.083 126.499 159.083ZM115.499 154.5L122.374 158.625C122.833 158.625 122.833 159.083 122.833 159.083C122.604 159.083 122.489 159.198 122.432 159.255C122.411 159.276 122.398 159.289 122.389 159.286C122.374 159.282 122.374 159.229 122.374 159.083L108.166 156.792V156.333L115.041 154.5H115.499ZM98.0827 165.958L102.208 157.708V157.25H101.749L93.041 156.333C92.8118 156.333 92.6973 156.333 92.6399 156.39C92.5827 156.448 92.5827 156.562 92.5827 156.792V157.25L97.6243 165.958H98.0827ZM133.833 117.833L145.291 135.708V136.167H144.833L123.749 125.625L123.291 125.167H123.749L133.374 117.375C133.374 117.375 133.833 117.375 133.833 117.833ZM151.249 120.583L135.666 117.375H135.208V117.833L147.124 136.167H147.583L151.249 121.042V120.583ZM146.666 138.917L143.916 150.375C143.916 150.604 143.916 150.719 143.859 150.776C143.801 150.833 143.687 150.833 143.458 150.833L129.249 136.625V136.167H129.708L146.208 138.458C146.666 138.458 146.666 138.917 146.666 138.917ZM146.208 148.542L154.458 137.083C154.665 137.083 154.779 137.083 154.798 137.04C154.822 136.989 154.708 136.875 154.458 136.625L148.041 138.458V138.917L145.749 148.083V148.542H146.208ZM126.041 148.542L141.624 152.208L142.083 152.667C142.083 152.667 142.083 153.125 141.624 153.125L128.791 160H128.333L127.874 159.542L125.583 149V148.542H126.041ZM144.374 166.417L143.458 154.042V153.583H142.999L130.166 160.458C129.937 160.458 129.822 160.458 129.765 160.515C129.708 160.573 129.708 160.687 129.708 160.917H130.166L143.916 166.875H144.374V166.417ZM123.291 161.375L99.916 166.875H99.4577V166.417L103.583 157.708C103.583 157.25 104.041 157.25 104.041 157.25L123.291 160.458V160.917V161.375ZM76.541 92.6248L65.0827 99.9582C64.8535 99.9582 64.7389 99.9582 64.6815 100.015C64.6243 100.073 64.6243 100.187 64.6243 100.417H65.0827L79.291 105H79.7493V104.542L76.9993 93.0832V92.6248H76.541ZM76.9993 120.583L71.041 115.083V114.625L79.291 107.75H79.7493V108.208L77.4577 120.583H76.9993ZM84.791 132.042L89.8327 119.667V119.208H89.3743L79.291 122.417C79.0618 122.417 78.9473 122.416 78.8899 122.474C78.8327 122.531 78.8327 122.646 78.8327 122.875L83.8743 132.042L84.3327 132.5L84.791 132.042ZM78.3743 124.25L83.416 133.417V133.875L71.041 140.292H70.5827V139.833L77.4577 124.25C77.4577 124.25 77.916 124.25 77.916 123.792L78.3743 124.25ZM84.3327 137.083L78.3743 159.083V159.542H78.8327L89.8327 155.417C90.0618 155.417 90.1764 155.417 90.2338 155.359C90.291 155.302 90.291 155.187 90.291 154.958L84.791 137.083H84.3327ZM88.4577 158.167L78.8327 168.708H78.3743C77.916 168.708 77.916 168.25 77.916 168.25V161.375L78.3743 160.917L87.9993 157.708C88.4577 157.25 88.4577 157.708 88.4577 157.708C88.916 157.708 88.916 158.167 88.4577 158.167ZM92.5827 176.958L97.166 168.25V167.792L92.1243 159.083V158.625C91.666 158.625 91.666 159.083 91.666 159.083V176.958H92.1243C92.1243 177.417 92.5827 176.958 92.5827 176.958ZM89.8327 178.792L78.8327 171C78.3743 171 78.3743 170.542 78.3743 170.542L89.8327 158.167H90.291V158.625L90.7493 178.333C90.7493 178.562 90.7493 178.677 90.6921 178.734C90.6348 178.792 90.5202 178.792 90.291 178.792H89.8327ZM76.9993 170.083V163.208L76.541 162.75C76.541 162.75 76.0827 162.75 76.0827 163.208L65.0827 175.583V176.042C65.3118 176.042 65.4264 176.156 65.4836 176.213C65.5045 176.234 65.5177 176.247 65.5262 176.245C65.541 176.24 65.541 176.187 65.541 176.042L76.541 170.542C76.7702 170.542 76.8848 170.542 76.9421 170.484C76.9993 170.427 76.9993 170.312 76.9993 170.083ZM127.416 175.583L101.291 168.25V167.792L126.958 161.833H127.416L127.874 175.125V175.583H127.416ZM82.9577 135.708L71.4993 141.667C71.4993 141.667 71.041 141.667 71.4993 142.125L76.9993 157.708C76.9993 157.708 76.9993 158.167 77.4577 158.167V157.708L83.416 136.167V135.708H82.9577ZM89.8327 66.0415L84.791 77.9582H84.3327L73.791 68.7915V68.3332V67.8748L89.3743 65.5832H89.8327V66.0415ZM72.416 79.7915L74.7077 77.9582V77.4998L72.8743 72.9165C72.8743 72.6873 72.8743 72.5728 72.8171 72.5154C72.7598 72.4582 72.6452 72.4582 72.416 72.4582V72.9165L71.9577 79.3332C71.9577 79.3332 71.9577 79.7915 72.416 79.7915ZM74.2493 70.6248L82.041 77.9582V78.4165H81.5827L76.0827 77.4998L73.791 71.0832C73.3327 71.0832 73.791 70.6248 73.791 70.6248H74.2493ZM78.3743 88.9582L83.416 80.2498V79.7915L76.541 78.8748H76.0827V79.3332L77.4577 88.9582H77.916H78.3743ZM89.3743 93.9998L78.8327 91.2498C78.5821 90.9992 78.4686 90.8857 78.4919 90.8342C78.5113 90.7915 78.625 90.7915 78.8327 90.7915L84.3327 81.1665H84.791H85.2493L89.8327 93.5415C89.8327 93.7707 89.8327 93.8853 89.7755 93.9426C89.7181 93.9998 89.6035 93.9998 89.3743 93.9998ZM71.9577 82.0832L75.6243 87.1248C75.6243 87.354 75.6243 87.4686 75.6815 87.526C75.7389 87.5832 75.8535 87.5832 76.0827 87.5832V87.1248L75.166 79.7915C75.166 79.7915 75.166 79.3332 74.7077 79.3332L72.416 81.6248C72.1868 81.6248 72.0723 81.6248 72.0149 81.682C71.9577 81.7394 71.9577 81.854 71.9577 82.0832Z" fill="url(#paint0_linear_4_161)"/>
</g>
<defs>
<linearGradient id="paint0_linear_4_161" x1="156.094" y1="177.348" x2="150.942" y2="40.4139" gradientUnits="userSpaceOnUse">
<stop stop-color="#11A1BC"/>
<stop offset="1" stop-color="#5FCEB4"/>
</linearGradient>
<clipPath id="clip0_4_161">
<rect width="220" height="220" fill="white" transform="translate(0 0.5)"/>
</clipPath>
</defs>
</svg>
