<svg width="220" height="221" viewBox="0 0 220 221" fill="none" xmlns="http://www.w3.org/2000/svg">
<g clip-path="url(#clip0_4_164)">
<path d="M110 220.5C170.751 220.5 220 171.251 220 110.5C220 49.7487 170.751 0.5 110 0.5C49.2487 0.5 0 49.7487 0 110.5C0 171.251 49.2487 220.5 110 220.5Z" fill="#EDF0F4"/>
<mask id="mask0_4_164" style="mask-type:luminance" maskUnits="userSpaceOnUse" x="0" y="0" width="220" height="221">
<path d="M110 220.5C170.751 220.5 220 171.251 220 110.5C220 49.7487 170.751 0.5 110 0.5C49.2487 0.5 0 49.7487 0 110.5C0 171.251 49.2487 220.5 110 220.5Z" fill="white"/>
</mask>
<g mask="url(#mask0_4_164)">
<path d="M110.759 95.8335H109.982C95.9923 95.8335 84.334 107.453 84.334 122.172V150.833L109.982 131.467L135.631 150.833V122.172C136.408 107.453 124.749 95.8335 110.759 95.8335Z" fill="#FF4339"/>
<path d="M0 0.5V213.167L66.0777 164.269V108.386L54.417 98.2957L110.389 55.6071L166.361 98.2957L153.922 107.61V163.493L220 212.391V0.5H0Z" fill="#FF4339"/>
</g>
</g>
<defs>
<clipPath id="clip0_4_164">
<rect width="220" height="220" fill="white" transform="translate(0 0.5)"/>
</clipPath>
</defs>
</svg>
