<svg width="220" height="221" viewBox="0 0 220 221" fill="none" xmlns="http://www.w3.org/2000/svg">
<g clip-path="url(#clip0_4_172)">
<path d="M110 220.5C170.751 220.5 220 171.251 220 110.5C220 49.7487 170.751 0.5 110 0.5C49.2487 0.5 0 49.7487 0 110.5C0 171.251 49.2487 220.5 110 220.5Z" fill="#EDF0F4"/>
<path d="M170.501 152.292L111.203 118.458L51.334 152.433L170.501 152.292Z" fill="#662D91"/>
<path d="M111.187 50L111.168 118.429L170.498 152.433L111.187 50Z" fill="#9E1F63"/>
<path d="M51.334 152.433L111.152 118.335L111.171 50L51.334 152.433Z" fill="#FF5000"/>
<path d="M110.863 91.5815L86.3242 132.656H135.512L110.863 91.5815Z" fill="#EDF0F4"/>
<path fill-rule="evenodd" clip-rule="evenodd" d="M111.11 90.0605L137.03 133.163H85.3066L111.11 90.0605ZM134.395 131.673L111.113 92.957L87.9356 131.673H134.395Z" fill="#FF5000"/>
</g>
<defs>
<clipPath id="clip0_4_172">
<rect width="220" height="220" fill="white" transform="translate(0 0.5)"/>
</clipPath>
</defs>
</svg>
