<svg width="220" height="221" viewBox="0 0 220 221" fill="none" xmlns="http://www.w3.org/2000/svg">
<g clip-path="url(#clip0_4_198)">
<path d="M110 220.5C170.753 220.5 220 171.253 220 110.5C220 49.747 170.753 0.5 110 0.5C49.247 0.5 0 49.747 0 110.5C0 171.253 49.247 220.5 110 220.5Z" fill="#EDF0F4"/>
<path fill-rule="evenodd" clip-rule="evenodd" d="M76.8501 82.3657H57.4362C57.4329 82.413 57.4268 82.4508 57.4221 82.4818C57.4147 82.5282 57.4096 82.5593 57.4197 82.5846C57.4611 82.7192 57.511 82.8455 57.5691 82.9634C58.8561 85.4461 60.6995 87.2807 63.4066 88.114C64.3864 88.4168 65.059 88.9974 65.1089 90.1169C65.1144 90.2626 65.1125 90.4086 65.1107 90.5545C65.1098 90.6275 65.1089 90.7002 65.1089 90.7732V113.883C65.1089 116.702 66.155 119.008 68.4303 120.683C69.9415 121.802 71.677 122.156 73.5204 122.148C77.4481 122.139 81.3674 122.139 85.2867 122.139C86.4742 122.139 87.6367 121.979 88.7328 121.474C91.1325 120.363 92.6686 118.537 93.25 115.911C93.4814 114.856 93.4531 113.793 93.4251 112.73C93.4108 112.191 93.3965 111.652 93.4161 111.114C93.4243 110.82 93.2333 110.71 92.9677 110.635C89.5133 109.616 86.6069 107.647 84.116 105.08C82.1147 103.018 80.5371 100.62 79.3414 97.9771C78.021 95.0654 77.1574 92.0103 76.9 88.8207C76.8026 87.6243 76.8198 86.4236 76.8373 85.2219C76.845 84.6823 76.8527 84.1426 76.8501 83.603V82.3657ZM71.2038 102.219C69.7921 102.194 68.7708 101.108 68.779 99.6436C68.6463 98.1203 70.0246 97.0936 71.2203 97.1019C72.632 97.1103 73.7695 98.2802 73.7446 99.7109C73.7199 101.099 72.5572 102.244 71.2038 102.219Z" fill="white"/>
<path d="M90.2795 99.686C90.263 100.931 89.1751 102.042 87.9712 102.034C86.7256 102.034 85.5963 100.864 85.6296 99.6185C85.6628 98.3731 86.7505 97.2621 87.9545 97.279C89.2085 97.2957 90.4124 98.474 90.2795 99.686Z" fill="white"/>
<path d="M68.7794 99.6432C68.6549 98.1198 70.0251 97.0932 71.2208 97.1016C72.6323 97.11 73.7701 98.2881 73.745 99.7104C73.7202 101.099 72.5577 102.244 71.2041 102.218C69.7927 102.193 68.7629 101.107 68.7794 99.6432Z" fill="black"/>
<path fill-rule="evenodd" clip-rule="evenodd" d="M163.62 126.128H163.57C163.57 126.128 163.567 126.132 163.56 126.136L163.554 126.141L163.546 126.145C162.948 126.128 162.391 126.053 161.794 125.758C161.794 125.75 161.794 125.741 161.785 125.733C161.021 124.958 160.88 124.007 160.888 122.964C160.913 117.731 160.905 112.491 160.897 107.258V107.255V107.253L160.896 106.797C160.888 102.328 157.359 98.2382 153 97.6407C152.932 97.6291 152.864 97.6374 152.766 97.6489C152.721 97.6544 152.67 97.6605 152.609 97.6658C152.66 97.7437 152.703 97.8141 152.742 97.8785C152.813 97.9949 152.872 98.0926 152.942 98.1793C155.15 100.923 156.379 104.062 156.33 107.622C156.307 109.324 156.204 111.029 156.102 112.734C156.056 113.499 156.011 114.264 155.972 115.028C155.909 116.264 155.85 117.498 155.791 118.732C155.711 120.404 155.631 122.076 155.541 123.747C155.457 125.309 155.364 126.868 155.272 128.428C155.208 129.498 155.145 130.569 155.084 131.641C155.042 132.385 155.007 133.132 154.972 133.879C154.936 134.626 154.901 135.373 154.86 136.118L154.437 143.852C154.402 144.512 154.366 145.172 154.331 145.832V145.834C154.256 147.235 154.18 148.637 154.113 150.038C154.038 151.687 152.601 153.152 150.974 153.16C146.921 153.177 142.861 153.177 138.809 153.16C137.331 153.152 135.994 151.931 135.695 150.45C135.38 148.921 135.045 147.396 134.71 145.87C134.567 145.22 134.425 144.57 134.283 143.919L134.215 143.607C133.989 142.568 133.764 141.535 133.552 140.494C133.469 140.056 133.287 139.846 132.805 139.846C124.452 139.863 116.098 139.863 107.745 139.863C107.704 139.863 107.667 139.876 107.593 139.901L107.557 139.913C107.534 139.921 107.508 139.929 107.479 139.939C107.279 140.842 107.075 141.745 106.871 142.648C106.668 143.546 106.465 144.444 106.267 145.342C106.128 145.977 105.992 146.612 105.856 147.246C105.611 148.391 105.366 149.534 105.104 150.677C104.772 152.108 103.527 153.152 102.09 153.16C98.0379 153.185 93.9772 153.185 89.925 153.16C88.1564 153.143 86.7781 151.645 86.7198 149.726C86.6908 148.764 86.6763 147.799 86.6618 146.834C86.6474 145.867 86.6327 144.901 86.6035 143.936C86.5568 142.338 86.4936 140.736 86.4305 139.135V139.132C86.3929 138.18 86.3553 137.229 86.3212 136.278C86.288 135.437 86.257 134.594 86.2259 133.752V133.749C86.1947 132.906 86.1636 132.062 86.1304 131.22C86.1386 131.161 86.1469 131.102 86.1386 131.035C86.1054 130.597 86.0972 130.151 86.0972 129.713C86.0972 129.638 86.0805 129.562 86.0638 129.495C86.0638 128.897 85.7982 128.232 85.5657 127.744C85.1339 126.835 84.4197 126.406 83.4484 126.372H83.3985C83.2823 126.355 83.1743 126.347 83.0581 126.347V126.322H75.5515C75.3771 126.322 75.211 126.33 75.0367 126.347C74.9168 126.347 74.7965 126.347 74.6761 126.346C74.1955 126.345 73.711 126.344 73.2265 126.364C73.1269 126.355 73.0272 126.355 72.9274 126.355C72.5705 126.339 72.2134 126.322 71.848 126.313C71.7734 126.288 71.6903 126.271 71.5906 126.271C71.588 126.271 71.5853 126.271 71.5827 126.271L71.5787 126.27L71.5715 126.269L71.5658 126.267C71.5612 126.266 71.5567 126.265 71.5521 126.264C71.5484 126.263 71.5446 126.263 71.5409 126.263C71.4743 126.229 71.3997 126.212 71.3165 126.204C71.3027 126.199 71.2882 126.194 71.2736 126.189C71.2351 126.174 71.1948 126.16 71.1588 126.154L71.1319 126.142C71.102 126.13 71.0749 126.118 71.0426 126.111C70.9595 126.061 70.86 126.027 70.7353 126.002C65.9523 125.026 62.8885 122.114 61.4935 117.409C61.2194 116.459 61.1281 115.423 61.1197 114.43C61.0865 107.209 61.0947 99.9971 61.1197 92.7847C61.1281 92.0105 60.9371 91.6149 60.2063 91.2445C56.6441 89.4437 54.3356 86.5065 53.0985 82.7025C52.8493 81.9367 52.6169 81.1372 52.5587 80.3377C52.459 79.0248 53.306 78.2 54.6097 78.1916C57.3747 78.1665 60.1399 78.1496 62.905 78.1327H63.7852C63.7916 78.0137 63.8004 77.9021 63.8088 77.795C63.8224 77.622 63.835 77.4608 63.835 77.2995C63.8433 75.9615 63.8517 74.6234 63.835 73.2936C63.8101 70.9455 65.2053 68.808 67.3724 68.0842C70.9346 66.8975 74.281 69.3802 74.4139 72.9064C74.4482 73.8787 74.4392 74.8549 74.4304 75.8297C74.4262 76.2724 74.4221 76.715 74.4221 77.1565V78.0823H84.1043C84.11 77.9793 84.1168 77.8773 84.1236 77.7761C84.1363 77.5877 84.1487 77.4016 84.154 77.2153C84.1637 76.7403 84.1685 76.2651 84.1733 75.7901V75.7877C84.1848 74.6314 84.1962 73.4764 84.2787 72.3258C84.4364 70.2219 86.2633 68.3198 88.3142 67.8991C91.2621 67.3016 93.861 69.1193 94.5336 71.6273C94.6915 72.1911 94.7329 72.8054 94.7494 73.3947C94.7674 74.3273 94.7639 75.2643 94.7606 76.1995V76.202C94.7591 76.5737 94.7578 76.9458 94.7578 77.3163C94.7578 77.4731 94.7688 77.6335 94.7811 77.8124C94.7874 77.9024 94.7938 77.9976 94.7995 78.099C94.8891 78.1041 94.976 78.11 95.0605 78.1157C95.2572 78.1289 95.4413 78.1412 95.6215 78.1412C97.004 78.1538 98.3866 78.1622 99.7691 78.1705C101.151 78.1789 102.534 78.1874 103.917 78.2C105.362 78.2084 106.092 78.9658 106.043 80.4387C106.001 81.7178 105.544 82.8961 105.046 84.0322C103.659 87.1797 101.534 89.6624 98.4614 91.2445C98.2953 91.3287 98.1207 91.4044 97.9464 91.4719C97.5064 91.6486 97.2987 91.9348 97.4814 92.4817L97.4952 92.485C97.6338 92.518 97.8026 92.5583 97.9713 92.5827C98.0544 92.5939 98.1448 92.5902 98.2351 92.5865C98.2804 92.5845 98.3257 92.5827 98.3699 92.5827C102.854 92.5928 107.337 92.6001 111.82 92.6076C118.562 92.6186 125.303 92.6298 132.041 92.6501C138.593 92.6668 145.144 92.6837 151.696 92.751C157.791 92.81 162.997 96.8074 164.841 102.471C165.364 104.07 165.538 105.711 165.546 107.369C165.562 110.593 165.562 113.82 165.561 117.046C165.56 118.966 165.56 120.886 165.563 122.804V122.856C165.563 123.949 165.563 125.021 164.492 125.775L164.509 125.792C164.417 125.825 164.334 125.876 164.267 125.952C164.152 126.002 164.019 126.053 163.894 126.086C163.811 126.095 163.728 126.103 163.653 126.12C163.651 126.122 163.649 126.123 163.647 126.124C163.644 126.126 163.64 126.127 163.636 126.127C163.63 126.128 163.624 126.128 163.62 126.128ZM89.402 71.8798C88.7959 71.9302 88.2312 72.4604 88.2229 73.1169C88.2017 74.1485 88.2041 75.1799 88.2064 76.2332C88.2079 76.8382 88.2094 77.4505 88.2062 78.0737H90.6475C90.6475 77.5721 90.6503 77.0743 90.653 76.5797V76.5777C90.6598 75.3475 90.6664 74.1351 90.6308 72.9233C90.6143 72.309 89.9499 71.8376 89.402 71.8798ZM87.9655 97.2788C89.2194 97.2956 90.4151 98.4739 90.2906 99.6857C90.2739 100.931 89.1862 102.042 87.982 102.034C86.7365 102.034 85.6071 100.864 85.6403 99.6183C85.6653 98.3729 86.7614 97.2619 87.9655 97.2788ZM68.0533 72.5951C67.9371 72.856 67.8955 73.1673 67.8955 73.4619C67.8872 74.8421 67.8872 76.2224 67.9039 77.611C67.9039 77.72 67.927 77.8253 67.9523 77.94C67.9641 77.9934 67.9763 78.0487 67.9868 78.1074H70.2704C70.2885 78.0462 70.3056 77.9971 70.3199 77.9558C70.345 77.8841 70.3617 77.8357 70.3617 77.7877C70.3617 77.2712 70.3644 76.7557 70.3672 76.2405C70.3729 75.2111 70.3784 74.1826 70.3617 73.1504C70.3534 72.5025 69.8885 72.0059 69.3072 71.8882C68.8837 71.8125 68.2609 72.1238 68.0533 72.5951ZM88.746 121.474C87.6498 121.979 86.4875 122.139 85.3001 122.139C81.3806 122.139 77.4613 122.139 73.5337 122.148C71.6903 122.156 69.9549 121.803 68.4437 120.683C66.1683 119.009 65.122 116.703 65.122 113.883V90.7732C65.122 90.7004 65.1229 90.6274 65.1239 90.5545C65.1259 90.4085 65.1277 90.2628 65.122 90.1169C65.0723 88.9976 64.3997 88.417 63.4198 88.1139C60.7129 87.2807 58.8694 85.4461 57.5824 82.9634C57.5243 82.8455 57.4745 82.7193 57.4328 82.5846C57.4229 82.5595 57.4279 82.5281 57.4352 82.4818C57.4402 82.4508 57.4462 82.413 57.4495 82.3659H76.8634V83.603C76.866 84.1424 76.8583 84.6817 76.8506 85.2209C76.8332 86.423 76.8158 87.6239 76.9133 88.8209C77.1707 92.0105 78.0342 95.0654 79.3546 97.9773C80.5503 100.62 82.128 103.018 84.1291 105.08C86.6202 107.647 89.5264 109.616 92.9808 110.635C93.2466 110.711 93.4375 110.82 93.4292 111.114C93.4098 111.652 93.4239 112.191 93.4382 112.73C93.4664 113.793 93.4947 114.856 93.2631 115.911C92.682 118.537 91.1456 120.363 88.746 121.474ZM151.429 114.202C151.517 112.418 151.605 110.634 151.721 108.851C151.945 105.467 150.816 102.623 148.474 100.199C147.76 99.4669 147.063 98.7095 146.39 97.9353C146.05 97.5396 145.684 97.3629 145.144 97.3629C144.351 97.3629 143.558 97.3649 142.765 97.3671C141.972 97.3692 141.179 97.3714 140.386 97.3714V97.2199H108.534V97.2282H98.5028H97.9381C97.5727 97.2282 97.4066 97.4133 97.4149 97.7837C97.4206 97.9296 97.4188 98.0755 97.4169 98.2213C97.4158 98.2943 97.4149 98.3672 97.4149 98.4402C97.4149 99.8249 97.416 101.209 97.4171 102.593C97.4202 106.735 97.4233 110.875 97.3984 115.019C97.3984 115.962 97.2739 116.938 96.9916 117.83C96.078 120.742 94.2847 122.989 91.6854 124.546C91.262 124.807 91.1125 125.085 91.1209 125.581C91.1541 127.385 91.166 129.194 91.1779 130.999C91.1808 131.452 91.1839 131.904 91.1872 132.356C91.2037 134.902 91.2184 137.445 91.2329 139.989C91.2474 142.533 91.262 145.077 91.2785 147.622C91.2785 148.481 91.3119 148.506 92.1256 148.506H99.9394C100.774 148.506 100.778 148.49 100.961 147.65L100.969 147.614C101.384 145.737 101.808 143.852 102.24 141.975C102.366 141.425 102.493 140.875 102.62 140.325C102.952 138.892 103.283 137.461 103.601 136.025C103.776 135.234 103.809 135.167 104.581 135.167H136.409C136.584 135.167 136.759 135.186 136.944 135.206C137.005 135.213 137.068 135.22 137.132 135.226C137.631 137.297 138.092 139.366 138.551 141.427C139.078 143.788 139.602 146.14 140.179 148.472H149.57C149.659 147.022 149.74 145.652 149.821 144.283L149.828 144.172C149.961 141.925 150.093 139.669 150.218 137.422C150.417 133.711 150.617 129.991 150.808 126.271C150.891 124.633 150.977 122.994 151.062 121.355C151.147 119.737 151.231 118.119 151.314 116.501C151.354 115.734 151.392 114.968 151.429 114.202Z" fill="black"/>
<path fill-rule="evenodd" clip-rule="evenodd" d="M163.634 127.399H163.65L166.391 125.514C166.856 124.606 166.856 123.612 166.856 122.788V116.829C166.864 113.673 166.864 110.509 166.848 107.353C166.84 105.358 166.582 103.633 166.075 102.068C164.041 95.798 158.287 91.5396 151.76 91.4807C145.532 91.4219 139.396 91.3966 132.097 91.3797C124.258 91.3628 116.411 91.3461 108.573 91.3375L100.784 91.3208C103.125 89.6881 104.952 87.4158 106.214 84.5293C106.721 83.3678 107.269 82.0044 107.319 80.4644C107.352 79.3787 107.07 78.5119 106.472 77.8807C105.874 77.2495 105.035 76.9213 103.964 76.9129C102.312 76.896 100.668 76.8876 99.015 76.8793L96.034 76.8624V75.9955C96.034 75.1118 96.034 74.2281 96.0175 73.3445C95.9925 72.503 95.9177 71.8633 95.7601 71.2743C94.8797 67.9752 91.5168 65.9385 88.0958 66.637C85.4221 67.1841 83.2547 69.5826 83.0637 72.2083C82.9806 73.3613 82.9641 74.5143 82.9557 75.6253C82.9517 75.8229 82.9495 76.0187 82.9474 76.2144C82.9454 76.41 82.9434 76.6058 82.9392 76.8034H75.7067C75.7067 76.6393 75.7087 76.4752 75.7109 76.3112C75.7129 76.1471 75.7149 75.9828 75.7149 75.8187L75.7182 75.4669C75.7265 74.6074 75.7349 73.7203 75.6983 72.8396C75.6154 70.7441 74.6105 68.8588 72.9332 67.6807C71.231 66.4856 69.0805 66.191 67.0211 66.8728C64.3556 67.7565 62.5952 70.34 62.6284 73.294C62.6367 74.4049 62.6367 75.5074 62.6284 76.6098V76.854L60.7933 76.8624C58.7341 76.8707 56.6829 76.8876 54.632 76.9044C53.6189 76.9129 52.7305 77.2832 52.1326 77.9395C51.5514 78.5792 51.2774 79.4544 51.3437 80.4054C51.4103 81.3481 51.6759 82.2486 51.9416 83.0732C53.3283 87.3317 55.9357 90.454 59.6806 92.3475C59.7624 92.3913 59.8163 92.424 59.8487 92.4436C59.8724 92.4579 59.8847 92.4654 59.8882 92.4654C59.8882 92.4722 59.8894 92.4835 59.8913 92.5C59.896 92.5437 59.9048 92.6232 59.9048 92.7516C59.8716 100.216 59.8716 107.496 59.9048 114.405C59.9131 115.685 60.0542 116.779 60.3366 117.738C61.8812 122.956 65.3106 126.137 70.4588 127.172L71.015 127.408L71.8455 127.543C72.1152 127.549 72.3849 127.56 72.6832 127.572L72.9831 127.585C73.0256 127.585 73.0638 127.587 73.101 127.589C73.136 127.591 73.1712 127.593 73.2073 127.593H73.2572H73.3069C73.8217 127.576 74.3367 127.576 74.8515 127.576H75.0672L75.1919 127.568C75.3081 127.559 75.4326 127.551 75.582 127.551H81.9178L83.0554 127.576C83.1374 127.576 83.2193 127.585 83.3013 127.593L83.3046 127.593L83.4373 127.601C83.977 127.627 84.2594 127.803 84.4753 128.258C84.7826 128.923 84.849 129.276 84.849 129.461V129.646L84.8823 129.764C84.8823 130.16 84.8906 130.581 84.9238 131.027L84.9071 131.086L85.1977 138.744C85.2147 139.192 85.2325 139.64 85.2501 140.088C85.3011 141.379 85.3517 142.666 85.3887 143.953C85.4136 144.93 85.4303 145.898 85.4468 146.874C85.4635 147.833 85.48 148.784 85.5049 149.744C85.5797 152.336 87.5312 154.381 89.9475 154.398C91.8905 154.406 93.8668 154.414 95.9095 154.414C97.8425 154.414 99.8299 154.407 101.909 154.398L102.129 154.398C104.113 154.381 105.882 152.933 106.347 150.939C106.596 149.845 106.837 148.742 107.07 147.648C107.145 147.305 107.22 146.96 107.295 146.615C107.369 146.274 107.444 145.933 107.518 145.594C107.791 144.344 108.073 143.101 108.355 141.859L108.357 141.85L108.523 141.101H113.912C120.081 141.101 126.251 141.101 132.437 141.092C132.603 141.883 132.769 142.674 132.944 143.465L133.55 146.251C133.614 146.543 133.678 146.835 133.742 147.127L133.743 147.131L133.744 147.135L133.744 147.137C134.005 148.323 134.266 149.509 134.505 150.695C134.937 152.799 136.797 154.398 138.831 154.406C142.883 154.423 146.944 154.423 151.004 154.406C153.271 154.398 155.28 152.42 155.389 150.089C155.459 148.606 155.538 147.131 155.616 145.65L155.616 145.648L155.616 145.644V145.642L155.616 145.639L155.629 145.401L155.887 140.654L155.902 140.384C155.979 138.984 156.058 137.577 156.128 136.177L156.154 135.646L156.176 135.178L156.177 135.159L156.178 135.14C156.195 134.808 156.211 134.475 156.227 134.141C156.241 133.862 156.255 133.584 156.268 133.307V133.305L156.268 133.303C156.293 132.769 156.319 132.236 156.352 131.7L156.551 128.325C156.592 127.572 156.636 126.819 156.68 126.066L156.68 126.058C156.724 125.308 156.767 124.556 156.809 123.806C156.908 121.912 157 120.01 157.091 118.117L157.24 115.087L157.253 114.851C157.29 114.147 157.328 113.443 157.373 112.739C157.473 111.064 157.572 109.348 157.598 107.631C157.63 104.879 156.966 102.27 155.613 99.8545C157.996 101.268 159.665 103.945 159.665 106.781V108.54V108.549C159.673 113.351 159.681 118.146 159.656 122.947C159.656 124.05 159.781 125.304 160.694 126.373L160.77 126.642L161.259 126.886C162.098 127.299 162.871 127.374 163.509 127.399H163.618H163.634ZM87.6556 138.651L87.3816 131.271C87.39 131.153 87.3982 131.027 87.39 130.892C87.3484 130.497 87.3484 130.084 87.3484 129.689C87.3484 129.571 87.3401 129.444 87.3152 129.318C87.282 128.494 86.9498 127.702 86.7007 127.172C86.2025 126.12 85.3887 125.447 84.3175 125.195V125.043H75.5905C75.3912 125.043 75.1919 125.051 74.9926 125.068H74.8348C74.3035 125.068 73.7718 125.068 73.2405 125.085H72.9913C72.8295 125.081 72.6676 125.075 72.5057 125.068C72.3438 125.062 72.1817 125.056 72.0199 125.051C71.9451 125.035 71.8704 125.026 71.7958 125.018C71.7709 125.014 71.7458 125.007 71.721 125.001C71.6961 124.995 71.6712 124.988 71.6462 124.984L71.5714 124.959L71.5663 124.956L71.5601 124.954L71.5507 124.951L71.5417 124.947L71.5357 124.945L71.53 124.942C71.3639 124.858 71.1729 124.799 70.9818 124.757C66.6806 123.882 63.9653 121.357 62.6865 117.04C62.4706 116.316 62.371 115.457 62.3628 114.414C62.3294 107.513 62.3294 100.242 62.3628 92.7851C62.371 91.4976 61.8727 90.6728 60.7601 90.1088C57.6297 88.5267 55.4458 85.901 54.2748 82.3074C54.0508 81.6341 53.8431 80.9104 53.7934 80.2455C53.785 80.0688 53.8017 79.8247 53.9179 79.6733C54.0508 79.5301 54.2998 79.446 54.607 79.446C55.6326 79.4375 56.6582 79.4313 57.6836 79.4251C58.7086 79.4187 59.7351 79.4124 60.7601 79.404L64.937 79.3871L65.0365 77.9395L65.0411 77.8766C65.0561 77.6746 65.0697 77.4907 65.0697 77.3001V76.6351V76.6214C65.0779 75.5067 65.0862 74.3918 65.0697 73.2772C65.0532 71.4341 66.1242 69.8267 67.7519 69.288C69.0638 68.8588 70.4173 69.0356 71.4719 69.7762C72.5015 70.5 73.116 71.6613 73.1657 72.9574C73.1989 73.9 73.1906 74.8762 73.1824 75.8187C73.1824 76.0418 73.1804 76.2648 73.1782 76.4879C73.1762 76.7108 73.174 76.9339 73.174 77.1569V79.3451H85.2642L85.3473 77.8975C85.3638 77.6788 85.3805 77.4597 85.4137 77.2579C85.4247 76.9101 85.4285 76.5585 85.4322 76.2081C85.434 76.0334 85.4358 75.8576 85.4386 75.6842C85.4468 74.5565 85.4635 73.4961 85.5383 72.4272C85.6461 70.9377 87.0079 69.4648 88.5772 69.145C90.9688 68.657 92.8786 70.197 93.352 71.9643C93.4849 72.4608 93.5096 73.0416 93.5181 73.437C93.5379 74.1238 93.5366 74.8104 93.5353 75.497C93.535 75.6688 93.5346 75.8407 93.5346 76.0123V77.3252C93.5346 77.5103 93.5428 77.6955 93.5595 77.906L93.6343 79.3114L95.0293 79.3871C95.1017 79.3901 95.173 79.3939 95.2433 79.3979C95.3745 79.4053 95.5029 79.4122 95.6272 79.4122L98.9818 79.4375L99.0648 79.4381H99.0668C100.683 79.4463 102.307 79.4548 103.923 79.4713C104.271 79.4713 104.545 79.5386 104.653 79.6564C104.761 79.7741 104.819 80.0436 104.811 80.4054C104.778 81.4826 104.354 82.5346 103.923 83.5193C102.577 86.5743 100.609 88.7371 97.9107 90.1257C97.7778 90.1932 97.6367 90.252 97.4955 90.3109C96.3911 90.7569 95.9344 91.7751 96.3163 92.903L96.549 93.5762L97.3461 93.7445C97.4955 93.7782 97.6616 93.812 97.8275 93.8371C97.9536 93.8573 98.0798 93.856 98.2057 93.8545C98.2374 93.8543 98.2692 93.854 98.3009 93.854H98.3924L108.548 93.8708C116.386 93.8791 124.233 93.8959 132.072 93.9128C139.371 93.9297 145.499 93.955 151.718 94.0138C157.174 94.0644 161.99 97.6242 163.692 102.867C164.124 104.172 164.331 105.653 164.34 107.378C164.349 110.534 164.349 113.69 164.349 116.846V122.872C164.357 123.974 164.307 124.395 163.817 124.74L163.742 124.791L163.712 124.811L163.668 124.841C163.654 124.846 163.639 124.848 163.622 124.85C163.607 124.852 163.592 124.854 163.576 124.858L163.194 124.833C162.978 124.807 162.787 124.765 162.588 124.69C162.281 124.311 162.172 123.814 162.172 122.947C162.19 118.142 162.19 113.337 162.18 108.531V106.772C162.172 101.723 158.146 97.052 153.205 96.3704C152.997 96.3451 152.815 96.3618 152.69 96.3786L150.456 96.5385L151.71 98.5079C151.81 98.6846 151.901 98.8194 152.009 98.9539C154.11 101.58 155.156 104.483 155.115 107.589C155.089 109.247 154.99 110.938 154.89 112.579C154.841 113.369 154.799 114.158 154.757 114.948L154.757 114.95L154.757 114.953L154.608 117.982L154.607 117.986C154.517 119.879 154.426 121.771 154.326 123.663C154.251 125.161 154.16 126.667 154.068 128.165L153.869 131.549C153.836 132.091 153.811 132.629 153.785 133.169C153.772 133.45 153.758 133.732 153.744 134.014L153.694 135.03L153.645 136.034C153.57 137.524 153.487 139.013 153.404 140.503L153.147 145.25L153.143 145.308V145.311L153.143 145.312V145.314L153.143 145.316C153.061 146.859 152.979 148.403 152.906 149.954C152.856 150.956 151.951 151.873 151.004 151.873C146.952 151.89 142.9 151.89 138.848 151.873C137.992 151.873 137.137 151.107 136.946 150.173C136.639 148.683 136.315 147.185 135.983 145.695L135.377 142.918C135.177 142.018 134.987 141.126 134.804 140.225C134.588 139.173 133.874 138.567 132.836 138.567H132.827C126.517 138.576 120.214 138.576 113.903 138.576H107.767C107.555 138.576 107.395 138.628 107.286 138.663L107.244 138.677L106.447 138.921L105.907 141.294C105.807 141.74 105.705 142.184 105.604 142.629L105.604 142.631C105.42 143.436 105.237 144.24 105.06 145.048L104.612 147.118L104.609 147.132C104.377 148.213 104.146 149.294 103.898 150.366C103.698 151.233 102.934 151.864 102.087 151.873C97.728 151.898 93.7588 151.898 89.9308 151.873C88.8431 151.864 87.9961 150.922 87.9629 149.668C87.9382 148.73 87.9215 147.784 87.905 146.846L87.9048 146.832C87.9006 146.584 87.8969 146.336 87.8932 146.089C87.8824 145.352 87.8714 144.614 87.8467 143.878C87.7886 142.136 87.7222 140.393 87.6556 138.651ZM92.1147 149.786C90.6201 149.786 90.0305 149.188 90.0221 147.648L89.9308 131.523C89.9225 129.554 89.9059 127.585 89.8727 125.624C89.8562 124.673 90.2381 123.966 91.0519 123.478C93.3852 122.081 94.9877 120.052 95.8097 117.469C96.034 116.762 96.1586 115.92 96.1586 115.037C96.1836 110.896 96.1836 106.755 96.1836 102.615V98.4659V98.2219V97.8514C96.1586 97.1699 96.4327 96.749 96.6568 96.505C96.881 96.2694 97.2795 95.9663 97.9604 95.9916H100.518H107.626H108.539H141.638V96.1431C142.223 96.1431 142.807 96.141 143.39 96.1388C143.973 96.1366 144.556 96.1346 145.142 96.1346H145.158C146.03 96.1346 146.745 96.4628 147.326 97.1446C147.948 97.86 148.629 98.6005 149.36 99.358C151.992 102.051 153.196 105.283 152.956 108.952C152.839 110.728 152.748 112.504 152.665 114.279L152.042 126.356C151.854 130.028 151.657 133.701 151.46 137.373V137.375L151.459 137.386L151.453 137.515C151.358 139.276 151.257 141.03 151.154 142.79L151.137 143.087L150.738 149.769H139.196L138.964 148.818C138.394 146.525 137.871 144.178 137.365 141.904L137.311 141.664C136.93 139.939 136.539 138.205 136.132 136.463C132.647 136.463 129.163 136.462 125.679 136.462C118.712 136.46 111.747 136.458 104.778 136.463C104.512 137.674 104.23 138.884 103.948 140.094L103.947 140.099L103.358 142.649L103.355 142.663C102.957 144.417 102.56 146.171 102.17 147.926C101.855 149.373 101.332 149.803 99.9285 149.803L92.1147 149.786ZM92.4219 131.506C92.4137 129.571 92.397 127.627 92.3638 125.624C95.2121 123.898 97.1716 121.416 98.1597 118.243C98.4587 117.3 98.6246 116.198 98.6331 115.062C98.6608 111.609 98.6597 108.155 98.6584 104.702L98.658 102.615V98.5247H100.51H108.531L139.138 98.5163V98.6677H140.384C141.97 98.6677 143.556 98.6677 145.142 98.6595C145.308 98.6595 145.325 98.6595 145.449 98.8025C146.097 99.5598 146.819 100.343 147.583 101.125C149.717 103.313 150.664 105.813 150.465 108.775C150.371 110.205 150.3 111.639 150.228 113.075C150.21 113.431 150.192 113.788 150.174 114.145L149.551 126.213C149.372 129.708 149.185 133.197 148.998 136.691L148.996 136.713L148.962 137.364C148.862 139.224 148.754 141.075 148.646 142.927L148.389 147.227H141.139C140.65 145.182 140.185 143.104 139.736 141.084L139.599 140.474C139.188 138.637 138.774 136.789 138.333 134.94L138.117 134.056L137.004 133.955C136.797 133.93 136.597 133.913 136.398 133.913H104.57C103.067 133.913 102.644 134.57 102.378 135.765C102.104 137.01 101.822 138.256 101.531 139.501L100.941 142.06C100.832 142.545 100.721 143.029 100.611 143.514C100.328 144.754 100.045 145.997 99.7707 147.261H92.5132L92.4219 131.506ZM73.4979 123.41C71.1646 123.41 69.2631 122.855 67.7102 121.702C65.1694 119.834 63.8823 117.199 63.874 113.875V97.6999V90.5802V90.1679C63.8575 89.8226 63.791 89.5451 63.0519 89.3179C60.2121 88.4425 57.995 86.4986 56.4754 83.5446C56.3841 83.3678 56.3093 83.1742 56.2429 82.9806C56.141 82.671 56.1797 82.4064 56.1982 82.2785L56.2013 82.2568L56.3758 81.2049L57.4469 81.0956H78.1063V83.595C78.1063 83.8685 78.1043 84.1421 78.1023 84.4156C78.1001 84.6891 78.0981 84.9627 78.0981 85.236L78.0977 85.2663C78.0812 86.4587 78.0656 87.5937 78.1562 88.7203C78.3887 91.6237 79.1776 94.5609 80.4897 97.4559C81.6604 100.04 83.1883 102.312 85.0235 104.206C87.5643 106.823 90.2797 108.531 93.3353 109.432C94.6307 109.819 94.6889 110.862 94.6806 111.174C94.6639 111.687 94.6724 112.192 94.6889 112.706C94.722 113.825 94.747 114.986 94.4811 116.198C93.8169 119.177 92.0648 121.34 89.2582 122.628C88.1123 123.158 86.8585 123.402 85.2974 123.402H81.021C78.5299 123.402 76.0305 123.402 73.5395 123.41H73.4979ZM63.7743 86.9109C61.9891 86.3554 60.5526 85.2782 59.4232 83.6287H75.6237C75.6319 84.1505 75.6236 84.6807 75.6154 85.2025C75.5987 86.4143 75.582 87.6683 75.6818 88.9223C75.9392 92.1204 76.7944 95.3435 78.231 98.5079C79.518 101.361 81.212 103.877 83.2465 105.973C85.9202 108.733 88.9179 110.652 92.181 111.712C92.181 112.061 92.1893 112.41 92.1974 112.759L92.1977 112.773L92.1981 112.788C92.223 113.792 92.2465 114.747 92.0483 115.643C91.5667 117.839 90.3127 119.379 88.2285 120.339C87.4149 120.709 86.4849 120.886 85.2974 120.886H81.021C78.5216 120.886 76.0305 120.886 73.5311 120.894C71.7126 120.894 70.3094 120.515 69.1716 119.674C67.2867 118.285 66.3651 116.391 66.3651 113.892V97.7168V90.6139C66.3651 90.4372 66.3651 90.252 66.3567 90.0753C66.3235 89.1747 65.9332 87.5757 63.7743 86.9109ZM87.9796 103.305H87.9711C87.0413 103.305 86.1112 102.893 85.4221 102.177C84.741 101.47 84.3591 100.528 84.3841 99.5936C84.4337 97.6495 86.0529 96.0252 87.9297 96.0252H87.9711C88.9593 96.042 89.9724 96.5218 90.6616 97.3129C91.2926 98.0283 91.5916 98.9035 91.5168 99.7703C91.4754 101.689 89.8644 103.305 87.9796 103.305ZM86.8752 99.6524C86.8917 99.0971 87.4149 98.5416 87.9297 98.5416H87.933C87.935 98.5416 87.9361 98.542 87.9369 98.5425C87.9374 98.5433 87.9378 98.5442 87.9378 98.5456L87.938 98.55C88.237 98.55 88.569 98.7268 88.8015 98.9877C88.9676 99.1728 89.059 99.3915 89.0424 99.5598L89.0341 99.6777C89.0257 100.225 88.4944 100.78 87.9796 100.78C87.7137 100.78 87.4232 100.637 87.2072 100.41C86.9914 100.191 86.8668 99.9049 86.8752 99.6524ZM71.1978 79.3618H66.938L66.7303 78.2004C66.6971 78.049 66.6557 77.8469 66.6557 77.6114C66.6475 76.2228 66.639 74.834 66.6557 73.4455C66.664 72.9237 66.747 72.4692 66.9131 72.0822C67.3449 71.0975 68.5241 70.4494 69.537 70.6515C70.7329 70.8871 71.5797 71.9055 71.5964 73.1342C71.613 74.3376 71.6046 75.5494 71.5964 76.753L71.5881 77.7881C71.5881 78.049 71.5216 78.251 71.4801 78.3689L71.1978 79.3618ZM86.9665 79.3451H91.8989L91.9154 76.6014C91.9236 75.3895 91.9236 74.1355 91.8905 72.8984C91.874 72.2841 91.5999 71.7119 91.1183 71.2743C90.6117 70.8198 89.939 70.5758 89.3082 70.6262C88.0293 70.7272 87.0079 71.8213 86.983 73.1004C86.9632 74.0274 86.9645 74.9543 86.9658 75.8983C86.9661 76.1372 86.9665 76.377 86.9665 76.6182V79.3451Z" fill="black"/>
<path d="M148.477 100.233C147.763 99.5004 147.065 98.743 146.393 97.9688C146.044 97.5732 145.687 97.388 145.147 97.3964C144.043 97.4048 142.947 97.4049 141.842 97.4049V97.287H111.235C110.969 97.2785 110.695 97.2617 110.429 97.2617C106.452 97.2534 102.474 97.2534 98.5053 97.2534C98.3145 97.2534 98.1317 97.2534 97.9408 97.2534C97.5753 97.2534 97.4011 97.4386 97.4176 97.8087C97.4258 98.0276 97.4176 98.2465 97.4176 98.4653C97.4176 103.994 97.4343 109.515 97.4011 115.044C97.3927 115.987 97.2682 116.963 96.9941 117.855C96.0725 120.759 94.2872 123.014 91.6881 124.571C91.2563 124.832 91.1151 125.11 91.1234 125.606C91.1648 127.862 91.1733 130.126 91.1898 132.381C91.2231 137.473 91.2481 142.556 91.2812 147.648C91.2895 148.506 91.3144 148.531 92.1281 148.531C94.7356 148.531 97.3428 148.531 99.9419 148.531C100.789 148.531 100.78 148.514 100.972 147.639C101.387 145.754 101.81 143.877 102.242 142C102.69 140.014 103.164 138.036 103.604 136.05C103.778 135.259 103.811 135.192 104.584 135.192C115.196 135.192 125.8 135.192 136.411 135.192C136.644 135.192 136.877 135.226 137.134 135.251C138.205 139.703 139.094 144.13 140.181 148.497C143.353 148.497 146.409 148.497 149.573 148.497C149.664 147.008 149.747 145.602 149.83 144.197C149.963 141.95 150.096 139.695 150.221 137.447C150.42 133.728 150.619 130.008 150.81 126.296C150.984 123.039 151.151 119.783 151.316 116.526C151.449 113.976 151.557 111.426 151.723 108.876C151.939 105.467 150.81 102.623 148.477 100.233Z" fill="white"/>
<path d="M114.102 111.232C118.752 111.232 122.521 107.411 122.521 102.698C122.521 97.9854 118.752 94.1646 114.102 94.1646C109.451 94.1646 105.682 97.9854 105.682 102.698C105.682 107.411 109.451 111.232 114.102 111.232Z" fill="black"/>
<path d="M138.103 128.089C142.014 128.089 145.186 124.875 145.186 120.91C145.186 116.945 142.014 113.731 138.103 113.731C134.191 113.731 131.02 116.945 131.02 120.91C131.02 124.875 134.191 128.089 138.103 128.089Z" fill="black"/>
<path d="M114.29 137.885C118.185 137.759 122.013 138.297 125.849 138.853C125.949 138.853 126.048 138.853 126.14 138.853C126.223 138.289 126.272 137.708 126.272 137.119C126.272 130.824 121.232 125.716 115.021 125.716C108.81 125.716 103.77 130.824 103.77 137.119C103.77 138.23 103.927 139.299 104.218 140.317C106.85 137.633 110.869 137.995 114.29 137.885Z" fill="black"/>
<path d="M119.559 93.5839C119.301 93.5839 119.061 93.5502 118.82 93.4829C117.848 94.5686 117.275 95.873 117.275 97.27C117.275 101.074 121.477 104.163 126.667 104.163C131.848 104.163 136.058 101.074 136.058 97.27C136.058 95.915 135.527 94.6528 134.605 93.5839H119.559Z" fill="black"/>
<path d="M85.6368 99.6437C85.5123 98.1203 86.8824 97.0937 88.0781 97.1021C89.4897 97.1105 90.6273 98.2886 90.6024 99.7109C90.5775 101.1 89.4149 102.244 88.0616 102.219C86.6499 102.194 85.6286 101.108 85.6368 99.6437Z" fill="white"/>
<path d="M70.5621 76.9795C69.4078 76.9795 68.3034 76.9795 67.1576 76.9795C67.1077 76.7438 67.0331 76.5419 67.0331 76.3399C67.0247 74.5641 67.0164 75.0859 67.0331 73.3103C67.0413 72.94 67.091 72.5359 67.2656 72.1993C67.5728 71.5934 68.5027 71.1895 69.1255 71.2903C69.9974 71.4335 70.6783 72.0814 70.6948 72.9147C70.728 74.9009 70.7032 74.5894 70.6948 76.5756C70.6948 76.668 70.6369 76.7691 70.5621 76.9795Z" fill="white"/>
<path d="M91.1228 76.9795C89.9685 76.9795 88.8641 76.9795 87.7181 76.9795C87.6684 76.7438 87.5936 76.5419 87.5936 76.3399C87.5853 74.5641 87.5769 75.0859 87.5936 73.3103C87.602 72.94 87.6517 72.5359 87.8261 72.1993C88.1333 71.5934 89.0634 71.1895 89.6862 71.2903C90.5581 71.4335 91.239 72.0814 91.2555 72.9147C91.2887 74.9009 91.2639 74.5894 91.2555 76.5756C91.2555 76.668 91.1974 76.7691 91.1228 76.9795Z" fill="white"/>
</g>
<defs>
<clipPath id="clip0_4_198">
<rect width="220" height="220" fill="white" transform="translate(0 0.5)"/>
</clipPath>
</defs>
</svg>
