<svg width="220" height="221" viewBox="0 0 220 221" fill="none" xmlns="http://www.w3.org/2000/svg">
<g clip-path="url(#clip0_4_213)">
<path d="M110 220.5C170.751 220.5 220 171.251 220 110.5C220 49.7487 170.751 0.5 110 0.5C49.2487 0.5 0 49.7487 0 110.5C0 171.251 49.2487 220.5 110 220.5Z" fill="#13A0F6"/>
<path fill-rule="evenodd" clip-rule="evenodd" d="M47.765 65.2931C47.7621 71.5121 51.2197 77.2189 56.7408 80.1077C51.3341 89.4914 48.4963 100.129 48.5123 110.952C48.5123 145.13 76.229 172.833 110.423 172.833C144.617 172.833 172.334 145.123 172.334 110.952C172.334 76.7804 144.61 49.0703 110.423 49.0703C99.4764 49.0545 88.7235 51.9525 79.274 57.4648C79.254 50.537 74.9427 44.3427 68.4426 41.9029C61.9425 39.4629 54.6072 41.2854 50.0136 46.4814C45.4202 51.6777 44.5251 59.1654 47.765 65.2931ZM140.873 110.952C140.873 127.769 127.24 141.396 110.423 141.396C93.6064 141.396 79.973 127.762 79.973 110.952C79.973 94.1422 93.6064 80.5081 110.423 80.5081C127.24 80.5081 140.873 94.1353 140.873 110.952Z" fill="white"/>
</g>
<defs>
<clipPath id="clip0_4_213">
<rect width="220" height="220" fill="white" transform="translate(0 0.5)"/>
</clipPath>
</defs>
</svg>
