<svg width="220" height="221" viewBox="0 0 220 221" fill="none" xmlns="http://www.w3.org/2000/svg">
<g clip-path="url(#clip0_4_216)">
<path d="M110 220.5C170.751 220.5 220 171.251 220 110.5C220 49.7487 170.751 0.5 110 0.5C49.2487 0.5 0 49.7487 0 110.5C0 171.251 49.2487 220.5 110 220.5Z" fill="#EDF0F4"/>
<path fill-rule="evenodd" clip-rule="evenodd" d="M126.333 57.3335C132.536 57.3344 138.607 59.1307 143.812 62.5057C149.017 65.8805 153.134 70.6897 155.666 76.3527C158.198 82.0157 159.036 88.2904 158.081 94.4198C157.126 100.549 154.416 106.271 150.281 110.895C154.358 115.452 157.049 121.078 158.04 127.112C159.03 133.146 158.279 139.338 155.874 144.959C153.469 150.581 149.51 155.4 144.462 158.85C139.413 162.301 133.486 164.239 127.374 164.438L126.333 164.456H84.4697C82.1344 164.456 80.2105 162.69 79.9663 160.423L79.9406 159.926V124.825H101.365V141.022C101.365 142.007 102.072 142.83 103.01 142.997L103.37 143.031H126.333C129.118 143.038 131.795 141.96 133.799 140.026C135.803 138.092 136.974 135.454 137.065 132.67C137.157 129.887 136.161 127.178 134.289 125.116C132.416 123.055 129.815 121.804 127.036 121.628L126.333 121.607H104.579V100.182H126.333C129.118 100.189 131.795 99.1111 133.799 97.1771C135.803 95.2432 136.974 92.6048 137.065 89.8216C137.157 87.0384 136.161 84.3291 134.289 82.2677C132.416 80.2065 129.815 78.9553 127.036 78.7793L126.333 78.7578H103.37C102.901 78.7575 102.446 78.9221 102.086 79.2228C101.726 79.5236 101.483 79.9414 101.399 80.4032L101.365 80.7675V96.9643H79.9406V61.8583C79.9406 59.5274 81.7059 57.6078 83.9726 57.3592L84.4654 57.3335H126.333ZM99.7153 100.182C100.512 100.182 101.172 100.748 101.331 101.498L101.365 101.832V119.957C101.365 120.337 101.233 120.706 100.993 121C100.752 121.294 100.418 121.497 100.045 121.572L99.7153 121.607H81.5902C81.2105 121.608 80.8422 121.477 80.5478 121.237C80.2534 120.997 80.051 120.663 79.9749 120.291L79.9406 119.961V101.832C79.9406 101.035 80.5062 100.371 81.256 100.217L81.586 100.182H99.7111H99.7153ZM76.7225 100.182V121.598H72.472C64.6521 121.075 62.334 110.895 62.334 110.895C62.334 110.895 64.4806 101.451 71.6237 100.285L72.472 100.182H76.7225ZM96.0217 104.699H85.2794C85.0992 104.698 84.924 104.757 84.7806 104.866C84.6372 104.975 84.534 105.129 84.4869 105.303L84.4568 105.521V116.259C84.4568 116.636 84.7139 116.958 85.0567 117.052L85.2794 117.082H96.0132C96.3946 117.082 96.7116 116.825 96.8102 116.482L96.8401 116.259V113.153H92.294C91.7308 113.15 91.1886 112.938 90.7736 112.558C90.3587 112.177 90.1004 111.656 90.0494 111.095C89.9986 110.534 90.1587 109.974 90.4984 109.525C90.8383 109.076 91.3333 108.77 91.8868 108.666L92.294 108.632H96.8445V105.521C96.8445 105.413 96.823 105.306 96.7814 105.205C96.7398 105.105 96.6787 105.014 96.6019 104.938C96.5251 104.861 96.4338 104.801 96.3335 104.76C96.2332 104.719 96.1302 104.698 96.0217 104.699ZM122.378 108.182C121.661 108.182 120.974 108.467 120.466 108.974C119.959 109.481 119.674 110.169 119.674 110.886C119.674 111.603 119.959 112.291 120.466 112.798C120.974 113.305 121.661 113.59 122.378 113.59C123.095 113.59 123.783 113.305 124.29 112.798C124.797 112.291 125.082 111.603 125.082 110.886C125.082 110.169 124.797 109.481 124.29 108.974C123.783 108.467 123.095 108.182 122.378 108.182ZM112.54 108.182C112.185 108.182 111.833 108.252 111.504 108.387C111.176 108.523 110.877 108.722 110.626 108.973C110.118 109.48 109.832 110.168 109.832 110.886C109.831 111.604 110.116 112.292 110.623 112.8C111.13 113.308 111.818 113.594 112.536 113.594C113.253 113.594 113.942 113.31 114.45 112.803C114.957 112.296 115.243 111.608 115.244 110.89C115.244 110.173 114.96 109.484 114.453 108.976C113.946 108.468 113.258 108.183 112.54 108.182Z" fill="#FCB251"/>
</g>
<defs>
<clipPath id="clip0_4_216">
<rect width="220" height="220" fill="white" transform="translate(0 0.5)"/>
</clipPath>
</defs>
</svg>
