<svg width="220" height="221" viewBox="0 0 220 221" fill="none" xmlns="http://www.w3.org/2000/svg">
<g clip-path="url(#clip0_4_219)">
<path d="M110 220.5C170.751 220.5 220 171.251 220 110.5C220 49.7487 170.751 0.5 110 0.5C49.2487 0.5 0 49.7487 0 110.5C0 171.251 49.2487 220.5 110 220.5Z" fill="black"/>
<path fill-rule="evenodd" clip-rule="evenodd" d="M117.071 171.266C117.071 170.303 116.877 169.389 116.517 168.55L159.721 144.192C161.102 145.686 163.052 146.534 165.095 146.53C169.091 146.53 172.333 143.367 172.333 139.462C172.333 136.114 169.95 133.309 166.757 132.573L166.882 84.3109C170.012 83.5341 172.333 80.7566 172.333 77.4566C172.333 73.5516 169.091 70.3891 165.095 70.3891C162.65 70.3891 160.496 71.5716 159.18 73.3866L116.877 49.5304C117.358 47.4109 116.839 45.189 115.468 43.4958C114.096 41.8023 112.022 40.8222 109.833 40.8336C105.844 40.8336 102.596 43.9959 102.596 47.9009C102.594 48.4643 102.664 49.0257 102.803 49.5716L60.749 73.2904C59.4263 71.5304 57.3 70.3891 54.9036 70.3891C50.9073 70.3891 47.666 73.5516 47.666 77.4566C47.6843 80.7035 49.9206 83.5239 53.096 84.3041V132.615C49.9723 133.398 47.666 136.162 47.666 139.462C47.666 143.367 50.9073 146.53 54.9036 146.53C56.8616 146.535 58.7393 145.757 60.112 144.371L103.122 168.619C102.783 169.437 102.596 170.331 102.596 171.266C102.596 175.171 105.837 178.333 109.833 178.333C113.829 178.333 117.071 175.171 117.071 171.266ZM158.128 141.38L114.584 165.938V165.931C113.317 164.851 111.655 164.198 109.833 164.198C108.065 164.194 106.357 164.83 105.027 165.986L61.795 141.614C62.2469 140.239 62.2564 138.759 61.8227 137.379L103.219 109.693C104.852 111.761 107.353 112.966 109.999 112.959C112.368 112.965 114.633 112 116.26 110.291L158.266 137.104C157.769 138.48 157.721 139.976 158.128 141.38ZM115.408 52.4109C114.424 53.5648 113.098 54.3825 111.62 54.7484L111.509 96.3834C115.556 97.0641 118.527 100.531 118.553 104.606C118.553 105.644 118.359 106.648 117.999 107.562L160.039 134.402C160.974 133.508 162.152 132.869 163.467 132.573L163.592 84.3729C159.877 83.621 157.398 80.1227 157.941 76.3979L115.408 52.4109ZM62.0373 76.2672L104.292 52.4454C105.336 53.6583 106.757 54.4927 108.33 54.8172L108.219 96.4384C105.944 96.901 103.961 98.2727 102.736 100.231C101.511 102.19 101.152 104.563 101.744 106.792L60.1534 134.601C59.1561 133.57 57.854 132.841 56.3857 132.539V84.3797C60.1626 83.6269 62.6609 80.0407 62.0373 76.2672Z" fill="white"/>
</g>
<defs>
<clipPath id="clip0_4_219">
<rect width="220" height="220" fill="white" transform="translate(0 0.5)"/>
</clipPath>
</defs>
</svg>
