<svg width="220" height="221" viewBox="0 0 220 221" fill="none" xmlns="http://www.w3.org/2000/svg">
<g clip-path="url(#clip0_4_222)">
<path d="M216.683 137.11C201.993 196.038 142.307 231.902 83.3712 217.207C24.4598 202.515 -11.4034 142.826 3.29433 83.9016C17.9792 24.966 77.6648 -10.8997 136.583 3.79159C195.514 18.4829 231.376 78.1776 216.683 137.11Z" fill="#F3BA2F"/>
<path fill-rule="evenodd" clip-rule="evenodd" d="M109.999 70.3132L81.5156 98.7969L64.9433 82.2225L109.999 37.1665L155.07 82.2361L138.497 98.8094L109.999 70.3132ZM53.2399 93.9236L36.666 110.5L53.2388 127.07L69.8127 110.496L53.2399 93.9236ZM81.5156 122.204L109.999 150.687L138.496 122.191L155.078 138.756L155.07 138.764L109.999 183.833L64.9433 138.777L64.9199 138.754L81.5156 122.204ZM166.76 93.9329L150.186 110.507L166.759 127.08L183.333 110.506L166.76 93.9329Z" fill="white"/>
<path d="M126.805 110.491H126.812L109.996 93.6738L97.5664 106.1L96.1385 107.529L93.1934 110.474L93.1699 110.497L93.1934 110.521L109.996 127.326L126.814 110.509L126.822 110.499L126.805 110.491Z" fill="white"/>
</g>
<defs>
<clipPath id="clip0_4_222">
<rect width="220" height="220" fill="white" transform="translate(0 0.5)"/>
</clipPath>
</defs>
</svg>
