<svg width="220" height="221" viewBox="0 0 220 221" fill="none" xmlns="http://www.w3.org/2000/svg">
<g clip-path="url(#clip0_4_245)">
<path d="M216.683 137.11C201.993 196.038 142.307 231.902 83.3712 217.207C24.4598 202.515 -11.4034 142.826 3.29433 83.9016C17.9792 24.966 77.6648 -10.8997 136.583 3.79159C195.514 18.4829 231.376 78.1776 216.683 137.11Z" fill="#F7931A"/>
<path fill-rule="evenodd" clip-rule="evenodd" d="M142.818 70.483C137.395 56.7108 123.809 55.4687 107.986 58.5425L102.353 38.8979L90.3957 42.3285L95.8814 61.4553C92.7375 62.3566 89.5425 63.3401 86.3677 64.3193L80.8487 45.0647L68.8977 48.4916L74.5253 68.1319C71.9522 68.927 69.4231 69.7049 66.9447 70.4168L66.9256 70.3559L50.4316 75.079L54.097 87.8494C54.097 87.8494 62.8791 85.1495 62.7788 85.3533C67.6219 83.9659 70.0052 86.3261 71.1604 88.6205L77.5785 111C77.9128 110.906 78.3528 110.794 78.8666 110.721L78.5198 110.821C78.2246 110.905 77.9173 110.993 77.6038 111.086L86.5907 142.439C86.816 144.023 86.6171 146.712 83.2344 147.687C83.4269 147.779 74.542 150.178 74.542 150.178L76.2606 165.14L91.8219 160.677C93.5273 160.191 95.2209 159.725 96.8973 159.263L96.9006 159.263C98.0712 158.94 99.2333 158.62 100.385 158.297L106.088 178.165L118.033 174.741L112.395 155.083C115.695 154.21 118.875 153.326 121.974 152.435L127.58 172.004L139.538 168.573L133.853 148.739C153.626 141.821 166.245 132.722 162.577 113.342C159.629 97.7364 150.534 93.0042 138.337 93.5359C144.258 88.0172 146.809 80.5542 142.823 70.4822L142.818 70.483ZM138.27 117.764C142.183 131.384 120.698 137.224 110.868 139.895C109.984 140.136 109.194 140.35 108.525 140.543L100.98 114.217C101.795 113.983 102.779 113.676 103.893 113.328C113.859 110.214 134.277 103.834 138.27 117.764ZM99.4971 101.626C107.704 99.4179 125.607 94.6018 122.059 82.2176C118.426 69.5542 101.424 74.9198 93.1199 77.5408C92.1858 77.8356 91.3617 78.0957 90.679 78.2915L97.5241 102.166C98.0862 102.005 98.7517 101.826 99.4971 101.626Z" fill="white"/>
</g>
<defs>
<clipPath id="clip0_4_245">
<rect width="220" height="220" fill="white" transform="translate(0 0.5)"/>
</clipPath>
</defs>
</svg>
