<svg width="220" height="221" viewBox="0 0 220 221" fill="none" xmlns="http://www.w3.org/2000/svg">
<g clip-path="url(#clip0_4_275)">
<path d="M110 220.5C170.751 220.5 220 171.251 220 110.5C220 49.7487 170.751 0.5 110 0.5C49.2487 0.5 0 49.7487 0 110.5C0 171.251 49.2487 220.5 110 220.5Z" fill="#EDF0F4"/>
<path d="M110.001 202.167C160.627 202.167 201.667 161.126 201.667 110.5C201.667 59.8741 160.627 18.8335 110.001 18.8335C59.3745 18.8335 18.334 59.8741 18.334 110.5C18.334 161.126 59.3745 202.167 110.001 202.167Z" fill="#FB2EA3"/>
<path fill-rule="evenodd" clip-rule="evenodd" d="M148.288 98.5074C146.995 107.324 142.147 111.591 135.714 113.085C144.545 117.72 149.046 124.836 144.762 137.161C139.446 152.474 126.821 153.76 110.031 150.561L105.946 167.028L96.101 164.552L100.123 148.31C97.4991 147.653 94.882 146.967 92.2724 146.253L88.2387 162.577L78.3994 160.107L82.4788 143.606C81.4998 143.354 80.5147 143.095 79.5221 142.834C78.1809 142.482 76.8259 142.126 75.454 141.779L62.6406 138.563L67.529 127.191C67.529 127.191 74.7874 129.143 74.6847 128.994C77.4765 129.689 78.7127 127.857 79.2028 126.639L85.6407 100.609L86.6833 100.868C86.3489 100.736 86.0065 100.627 85.6578 100.541L90.2499 81.9603C90.3694 79.8468 89.6517 77.1932 85.6634 76.1823C85.8173 76.0789 78.5078 74.3904 78.5078 74.3904L81.1285 63.7879L94.7108 67.2052L94.6994 67.2626C96.7392 67.7681 98.8471 68.2563 100.989 68.7502L105.029 52.4443L114.874 54.914L110.92 70.904L111.529 71.0446C113.966 71.6069 116.417 72.1721 118.805 72.7764L122.736 56.8957L132.581 59.3654L128.547 75.6769C140.984 79.996 150.077 86.469 148.288 98.5074ZM125.784 130.315C128.653 118.757 111.632 114.903 103.316 113.02C102.383 112.809 101.56 112.622 100.887 112.453L95.48 134.307C96.0319 134.445 96.6787 134.617 97.4028 134.81L97.4047 134.811C105.443 136.951 122.999 141.626 125.79 130.315H125.784ZM110.312 83.1002C117.254 84.652 131.432 87.8207 128.832 98.3294C126.286 108.621 111.649 104.674 104.961 102.87C104.36 102.708 103.823 102.563 103.365 102.447L108.265 82.6265C108.831 82.7691 109.525 82.9244 110.312 83.1002ZM157.49 142.147C156.525 142.017 155.549 142.279 154.778 142.876C154.037 143.516 153.535 144.391 153.353 145.357C153.236 145.894 153.198 146.446 153.239 146.994C153.288 147.619 153.488 148.222 153.821 148.752C154.162 149.326 154.709 149.866 155.45 150.371C156.19 150.871 157.216 151.273 158.527 151.578C159.233 151.75 159.962 151.83 160.709 151.825C161.461 151.825 162.156 151.704 162.794 151.463C164.167 150.974 165.184 149.794 165.472 148.356C165.743 147.337 165.599 146.251 165.073 145.34C164.548 144.456 163.688 143.778 162.486 143.307L163.363 139.482C165.528 140.361 167.044 141.618 167.921 143.244C168.799 144.875 168.981 146.81 168.468 149.05C168.209 150.293 167.694 151.467 166.958 152.496C165.62 154.335 163.556 155.496 161.301 155.678C160.075 155.79 158.84 155.699 157.643 155.409C156.413 155.132 155.231 154.667 154.14 154.03C153.133 153.449 152.255 152.667 151.559 151.733C150.881 150.804 150.418 149.735 150.203 148.602C149.973 147.303 150.021 145.97 150.345 144.691C150.563 143.72 150.914 142.785 151.388 141.911C151.849 141.061 152.413 140.343 153.091 139.757C153.764 139.172 154.538 138.746 155.416 138.482C156.299 138.212 157.279 138.161 158.367 138.316L157.49 142.147ZM171.294 133.566C172.037 132.497 172.558 131.288 172.827 130.011C173.141 128.745 173.199 127.428 172.998 126.14C172.787 124.951 172.371 123.888 171.744 122.952C171.117 122.016 170.297 121.223 169.272 120.568C168.182 119.893 166.988 119.408 165.739 119.132C164.429 118.828 163.175 118.742 161.979 118.874C160.832 118.989 159.722 119.346 158.72 119.919C157.746 120.482 156.914 121.258 156.208 122.234C155.465 123.303 154.944 124.512 154.675 125.789C154.361 127.053 154.303 128.368 154.504 129.655C154.691 130.797 155.119 131.886 155.758 132.848C156.408 133.806 157.251 134.616 158.23 135.226C159.307 135.9 160.49 136.386 161.728 136.662C162.971 136.965 164.256 137.054 165.528 136.926C166.675 136.81 167.785 136.454 168.787 135.881C169.756 135.312 170.593 134.542 171.294 133.566ZM157.877 113.94L158.703 110.351L162.03 111.126L162.047 111.057C161.583 110.816 161.17 110.484 160.834 110.081C160.061 109.174 159.548 108.072 159.353 106.893C159.257 106.298 159.277 105.689 159.409 105.101C159.513 104.616 159.658 104.142 159.842 103.682L163.506 104.532C163.399 104.796 163.299 105.062 163.204 105.331C163.108 105.596 163.028 105.866 162.965 106.141C162.646 107.417 162.923 108.771 163.717 109.816C164.161 110.395 164.71 110.882 165.335 111.252C166.013 111.672 166.827 111.993 167.785 112.217L175.977 114.124L175.1 117.949L157.877 113.94ZM172.861 101.534C172.194 101.575 171.528 101.523 170.867 101.362L170.861 101.368L173.784 88.6056C172.53 88.1518 171.266 87.945 169.978 87.991C168.746 88.0191 167.532 88.2922 166.406 88.7951C165.304 89.3035 164.326 90.0484 163.54 90.9777C162.701 91.9802 162.12 93.1755 161.848 94.4583C161.557 95.762 161.529 96.9797 161.785 98.1169C162.025 99.2356 162.492 100.292 163.158 101.218C163.843 102.157 164.697 102.956 165.677 103.573C167.819 104.88 170.314 105.474 172.81 105.273C175.099 105.122 177.199 103.941 178.53 102.057C179.213 101.109 179.715 99.9491 180.028 98.5822C180.239 97.6402 180.319 96.7098 180.262 95.7908C180.143 93.0028 178.48 90.5185 175.96 89.3638L175.134 92.988C175.93 93.4549 176.559 94.165 176.929 95.0154C177.256 95.9393 177.29 96.943 177.026 97.8872C176.881 98.6066 176.577 99.2838 176.137 99.8686C175.747 100.368 175.25 100.772 174.684 101.052C174.113 101.33 173.494 101.494 172.861 101.534ZM169.83 129.316C170.212 127.82 169.808 126.231 168.759 125.106C168.261 124.558 167.67 124.103 167.015 123.762C165.656 123.041 164.135 122.685 162.6 122.728C161.863 122.742 161.135 122.892 160.452 123.17C159.026 123.724 157.98 124.974 157.678 126.484C157.292 127.974 157.687 129.559 158.726 130.688C159.199 131.228 159.78 131.671 160.469 132.032C161.83 132.751 163.349 133.106 164.885 133.066C165.623 133.048 166.352 132.898 167.038 132.624C168.469 132.076 169.522 130.827 169.83 129.316ZM168.588 91.8335C169.193 91.7499 169.807 91.7556 170.411 91.8507L168.366 100.788C167.168 100.47 166.124 99.73 165.42 98.7026C165.101 98.2146 164.89 97.6688 164.776 97.0658C164.568 95.8038 164.876 94.5104 165.631 93.4819C166.36 92.5579 167.424 91.9648 168.588 91.8335Z" fill="white"/>
</g>
<defs>
<clipPath id="clip0_4_275">
<rect width="220" height="220" fill="white" transform="translate(0 0.5)"/>
</clipPath>
</defs>
</svg>
