<svg width="220" height="221" viewBox="0 0 220 221" fill="none" xmlns="http://www.w3.org/2000/svg">
<g clip-path="url(#clip0_4_262)">
<path d="M110 220.5C170.75 220.5 220 171.25 220 110.5C220 49.7499 170.75 0.5 110 0.5C49.2499 0.5 0 49.7499 0 110.5C0 171.25 49.2499 220.5 110 220.5Z" fill="white"/>
<path d="M87.8855 69.132C76.8963 68.9528 67.6307 71.9615 60.4482 81.1669C57.252 71.7467 58.2576 63.3295 64.2549 55.8432C69.1391 49.6825 75.6394 46.3873 83.5761 46.3873C105.052 46.3156 126.564 46.3156 148.04 46.3873C154.504 46.3873 159.352 51.2227 159.496 57.491C159.64 63.759 155.007 68.702 148.579 69.1677C147.932 69.2036 147.25 69.2036 146.603 69.2036C140.732 69.2036 134.86 69.2229 128.988 69.2423C115.287 69.2874 101.587 69.3325 87.8855 69.132Z" fill="black"/>
<path fill-rule="evenodd" clip-rule="evenodd" d="M110 220.5C170.751 220.5 220 171.251 220 110.5C220 49.7487 170.751 0.5 110 0.5C49.2487 0.5 0 49.7487 0 110.5C0 171.251 49.2487 220.5 110 220.5ZM163.863 151.691H160.32C160.251 152.343 160.207 152.978 160.164 153.601C160.117 154.269 160.072 154.923 159.998 155.567C157.815 168.012 147.473 176.617 134.553 176.653C113.654 176.688 92.7896 176.688 71.8898 176.653C70.7087 176.653 69.492 176.546 68.3469 176.262C62.6566 174.804 59.2211 169.648 59.9011 163.745C60.4736 158.411 65.2691 154.073 70.9234 154.002C75.6774 153.926 80.4494 153.94 85.2267 153.955C87.1389 153.961 89.0516 153.966 90.9643 153.966C97.1907 153.951 103.423 153.956 109.66 153.96C117.977 153.966 126.301 153.972 134.625 153.931C154.129 153.789 167.979 136.045 162.968 117.661C159.604 105.252 148.296 96.5041 135.305 96.433C127.591 96.4002 119.878 96.413 112.164 96.4257C103.165 96.4402 94.1661 96.455 85.1668 96.3976C75.8978 96.3621 68.7045 92.2373 63.3725 84.3433C63.8592 83.7904 64.3274 83.2262 64.7938 82.6641C65.7672 81.4914 66.7328 80.3276 67.8458 79.2939C72.7844 74.7427 78.6537 72.5735 85.4174 72.5735C106.424 72.609 127.432 72.609 148.439 72.5735C158.996 72.5381 166.225 63.0438 163.291 53.1587C161.358 46.687 155.489 42.5266 148.045 42.5266C127.253 42.4912 106.496 42.4912 85.7393 42.5266C84.1289 42.5266 82.4828 42.6335 80.9081 42.8465C66.1637 44.9802 55.2844 57.7101 56.1433 72.4312C57.0379 88.397 69.4562 99.989 85.0953 99.989C90.6316 99.989 96.1642 99.9849 101.695 99.9811C112.754 99.9732 123.807 99.9651 134.875 99.989C147.437 100.024 157.851 108.807 159.927 121.111C160.678 125.591 160.356 130 158.245 134.801C158.166 134.622 158.105 134.475 158.054 134.352C157.942 134.083 157.878 133.927 157.779 133.805C151.588 126.16 143.5 122.711 133.694 122.746C117.34 122.817 100.985 122.853 84.63 122.746C73.0706 122.675 63.1934 114.781 60.4736 103.651C60.1509 102.37 59.9661 101.037 59.7758 99.6644C59.6913 99.0571 59.6063 98.4418 59.5073 97.8198H56.036C56.1075 102.976 57.2884 107.741 59.9011 112.008C65.7342 121.537 74.3232 126.409 85.5604 126.444C94.8862 126.485 104.2 126.479 113.509 126.473C120.49 126.469 127.468 126.465 134.446 126.48C143.285 126.48 150.336 130 155.632 137.076C156.348 138.036 156.348 138.712 155.632 139.708C151.588 145.148 146.292 148.633 139.599 149.842C137.667 150.162 135.699 150.268 133.73 150.268C123.334 150.286 112.947 150.286 102.564 150.286C92.1813 150.286 81.8028 150.286 71.4245 150.304C62.764 150.34 56.036 156.953 56.0003 165.274C55.9643 173.488 62.6925 180.315 71.1383 180.386C74.9216 180.399 78.7052 180.415 82.4884 180.431C100.141 180.505 117.789 180.579 135.412 180.315C147.294 180.137 155.954 174.235 161.251 163.603C163.076 159.905 163.899 155.922 163.863 151.691Z" fill="black"/>
</g>
<defs>
<clipPath id="clip0_4_262">
<rect width="220" height="220" fill="white" transform="translate(0 0.5)"/>
</clipPath>
</defs>
</svg>
