<svg width="220" height="221" viewBox="0 0 220 221" fill="none" xmlns="http://www.w3.org/2000/svg">
<g clip-path="url(#clip0_4_251)">
<path d="M110 220.5C170.751 220.5 220 171.251 220 110.5C220 49.7487 170.751 0.5 110 0.5C49.2487 0.5 0 49.7487 0 110.5C0 171.251 49.2487 220.5 110 220.5Z" fill="#E7EFF3"/>
<path fill-rule="evenodd" clip-rule="evenodd" d="M114.226 28H105.629C90.1193 28.9652 74.8156 34.105 62.1933 43.2376C45.3385 55.1423 33.2525 73.6139 29.1935 93.8594C25.3985 112.125 28.022 131.694 36.6597 148.251C43.3917 161.435 53.7865 172.688 66.343 180.509C82.6283 190.796 102.601 194.896 121.634 192.182C141.912 189.434 160.912 178.636 173.832 162.779C192.922 140.001 197.831 106.614 186.397 79.2404C178.089 58.6816 161.069 41.86 140.444 33.7502C132.111 30.3842 123.193 28.594 114.226 28ZM40.3887 72.6486C52.351 50.4233 75.4178 34.6165 100.514 31.7372C118.722 29.485 137.655 33.8493 152.992 43.9141C168.42 53.8141 180.176 69.2663 185.662 86.7479C189.506 98.768 190.216 111.72 188.12 124.153C184.483 145.248 171.819 164.57 153.974 176.384C139.421 186.259 121.469 190.936 103.938 189.542C88.4611 188.387 73.3883 182.489 61.2033 172.877C45.1983 160.436 34.2672 141.635 31.5035 121.538C29.0615 104.848 32.2955 87.4244 40.3887 72.6486Z" fill="#00206B"/>
<path fill-rule="evenodd" clip-rule="evenodd" d="M142.553 76.823C132.232 66.5272 116.846 61.8247 102.499 64.2254C85.3145 66.8242 70.2667 79.8507 65.2837 96.5156C61.0267 110.054 63.2872 125.514 71.4877 137.13C78.8962 147.979 91.0978 155.387 104.133 156.955C117.968 158.778 132.562 154.067 142.487 144.2C151.603 135.629 156.974 123.163 156.792 110.631C157.056 98.0336 151.71 85.469 142.553 76.823ZM105.362 67.0825V67.0799C107.408 66.9397 109.462 66.8407 111.508 66.7747C111.525 70.9737 111.516 75.1812 111.508 79.3887C109.462 79.3805 107.416 79.3805 105.37 79.3805C105.379 75.2812 105.37 71.1818 105.362 67.0825ZM120.121 79.5785C125.508 80.3045 131.3 81.1295 135.598 84.7677C142.157 90.6582 141.307 103.025 133.28 107.298C138.089 108.42 142.85 111.63 144.038 116.679C145.58 123.303 144.351 131.256 139.03 135.926C133.899 140.15 127.001 140.801 120.627 141.404L120.105 141.453C120.133 144.739 120.125 148.025 120.117 151.316V151.318L120.113 152.97C133.833 149.612 145.671 139.399 150.704 126.182C155.48 113.989 154.35 99.6423 147.61 88.4142C141.653 78.2832 131.523 70.8417 120.146 67.9872C120.113 71.8482 120.113 75.7092 120.121 79.5785ZM94.5145 79.6337C89.3994 79.6478 84.2849 79.6619 79.1765 79.4135C84.407 74.81 90.3388 70.9325 96.9965 68.771C97.0163 71.6684 97.015 74.5603 97.0136 77.4555C97.0134 78.1793 97.013 78.9035 97.013 79.628C96.1801 79.6291 95.3474 79.6315 94.5145 79.6337ZM78.4672 79.892C76.8914 81.8307 73.9709 85.4937 72.2384 88.736C65.2507 100.641 64.4587 115.92 70.2914 128.443C75.3239 139.671 85.3063 148.408 96.9965 152.17C97.0088 149.46 97.0073 146.75 97.0057 144.044V144.041V144.039C97.0053 143.138 97.0048 142.238 97.0048 141.338C94.9967 141.318 92.9868 141.33 90.9766 141.341C87.016 141.363 83.0533 141.386 79.1024 141.173C79.1683 137.848 79.952 134.597 81.0823 131.462C81.8968 131.446 82.7209 131.474 83.5472 131.503C85.6836 131.576 87.8339 131.649 89.8685 130.959C91.1744 129.862 91.1522 128.197 91.1311 126.61C91.1256 126.191 91.1201 125.778 91.139 125.382C91.0945 120.056 91.1036 114.73 91.1128 109.406C91.1221 103.884 91.1317 98.363 91.0813 92.8445C91.1885 91.0955 90.0913 89.2062 88.2763 88.8597C85.996 88.401 83.663 88.4304 81.343 88.4595C80.616 88.4687 79.8906 88.4778 79.1683 88.472C78.8137 86.03 78.7724 83.5632 78.7394 81.0965C78.7394 81.0965 78.7807 80.321 78.5167 79.8177L78.4672 79.892ZM105.618 105.203V89.2145C106.694 89.2453 107.792 89.2359 108.9 89.2264C113.123 89.1905 117.471 89.1533 121.177 91.343C125.178 93.6282 125.426 100.055 121.548 102.596C117.615 105.208 112.793 105.199 108.181 105.191C107.317 105.189 106.46 105.187 105.618 105.203ZM105.618 113.808V131.545C107.225 131.416 108.88 131.385 110.546 131.353C115.715 131.254 120.999 131.153 125.335 128.146C129.435 125.423 128.94 118.683 124.716 116.324C120.224 113.639 114.975 113.721 109.85 113.801C108.423 113.823 107.006 113.845 105.618 113.808ZM105.362 153.886C105.37 149.786 105.379 145.677 105.379 141.577H111.772C111.772 142.627 111.773 143.676 111.773 144.726C111.775 147.876 111.776 151.025 111.764 154.174C109.627 154.108 107.499 154.026 105.362 153.886Z" fill="#00206B"/>
<path fill-rule="evenodd" clip-rule="evenodd" d="M143.401 43.3366C130.415 36.6707 115.45 34.468 100.996 36.019C78.5727 38.5682 57.6919 51.9331 46.0349 71.2709C36.4979 86.6901 32.9751 105.64 36.1184 123.477C39.1956 141.486 49.1699 158.242 63.5907 169.454C77.1124 180.195 94.4867 186.002 111.754 185.375C141.157 185.335 169.083 165.683 179.659 138.351C186.614 121.01 186.763 101.078 180.047 83.6541C173.463 66.2551 160.107 51.5288 143.401 43.3366ZM68.7882 79.4714C75.9904 69.8106 86.7317 62.8726 98.4797 60.2243C111.523 57.2461 125.713 59.5148 137.081 66.5933C149.225 74.0016 157.954 86.6984 160.602 100.674C162.681 112.199 161.13 124.475 155.462 134.804C147.897 149.283 132.989 159.603 116.778 161.583C103.661 163.382 89.8832 159.884 79.2822 151.914C67.9549 143.656 60.3402 130.506 58.8139 116.563C57.1887 103.536 60.8352 89.9324 68.7882 79.4714Z" fill="#EBA809"/>
</g>
<defs>
<clipPath id="clip0_4_251">
<rect width="220" height="220" fill="white" transform="translate(0 0.5)"/>
</clipPath>
</defs>
</svg>
