<svg width="220" height="221" viewBox="0 0 220 221" fill="none" xmlns="http://www.w3.org/2000/svg">
<g clip-path="url(#clip0_4_239)">
<path d="M216.683 137.11C201.993 196.038 142.307 231.902 83.3712 217.207C24.4598 202.515 -11.4034 142.826 3.29433 83.9016C17.9792 24.966 77.6648 -10.8997 136.583 3.79159C195.514 18.4829 231.376 78.1776 216.683 137.11Z" fill="url(#paint0_linear_4_239)"/>
<path fill-rule="evenodd" clip-rule="evenodd" d="M158.495 94.8275C160.684 80.1889 149.539 72.3202 134.299 67.0708L139.243 47.2417L127.173 44.2339L122.36 63.5411C119.187 62.7497 115.928 62.0039 112.689 61.2647L117.537 41.83L105.473 38.8223L100.527 58.645C97.9009 58.0471 95.3217 57.4563 92.8194 56.8337L92.8333 56.7713L76.1876 52.6146L72.9767 65.5068C72.9767 65.5068 81.9322 67.5596 81.7433 67.6859C86.6314 68.906 87.5152 72.1416 87.3685 74.7063L81.7369 97.2964C82.0735 97.382 82.51 97.5056 82.9918 97.6992L82.6417 97.6118C82.3437 97.5371 82.0339 97.4598 81.716 97.3837L73.8224 129.029C73.2251 130.514 71.7088 132.743 68.2914 131.897C68.4124 132.072 59.5182 129.707 59.5182 129.707L53.5254 143.524L69.2334 147.44C70.9534 147.871 72.6531 148.315 74.3357 148.753L74.339 148.754C75.5138 149.06 76.6802 149.364 77.8392 149.661L72.8443 169.717L84.9011 172.725L89.8476 152.881C93.1413 153.776 96.3379 154.6 99.4671 155.378L94.5372 175.128L106.608 178.136L111.603 158.117C132.186 162.012 147.663 160.442 154.177 141.824C159.426 126.835 153.916 118.189 143.087 112.551C150.974 110.732 156.915 105.545 158.499 94.8291L158.495 94.8275ZM130.916 133.5C127.493 147.252 105.968 141.567 96.1189 138.965C95.233 138.731 94.4415 138.522 93.7661 138.355L100.395 111.783C101.218 111.988 102.223 112.214 103.363 112.47C113.55 114.756 134.422 119.44 130.916 133.5ZM105.406 100.137C113.617 102.329 131.53 107.109 134.649 94.6102C137.834 81.8271 120.428 77.9729 111.926 76.0906C110.969 75.8789 110.126 75.6921 109.437 75.5203L103.427 99.6193C103.994 99.7606 104.66 99.9384 105.406 100.137Z" fill="white"/>
</g>
<defs>
<linearGradient id="paint0_linear_4_239" x1="0" y1="0.5" x2="0" y2="220.5" gradientUnits="userSpaceOnUse">
<stop stop-color="#FCC538"/>
<stop offset="1" stop-color="#F7931A"/>
</linearGradient>
<clipPath id="clip0_4_239">
<rect width="220" height="220" fill="white" transform="translate(0 0.5)"/>
</clipPath>
</defs>
</svg>
