<svg width="220" height="221" viewBox="0 0 220 221" fill="none" xmlns="http://www.w3.org/2000/svg">
<g clip-path="url(#clip0_4_236)">
<path d="M216.706 137.11C202.015 196.038 142.329 231.902 83.3926 217.207C24.4811 202.515 -11.3819 142.826 3.31582 83.9016C18.0007 24.966 77.6863 -10.8997 136.604 3.79159C195.536 18.4829 231.398 78.1787 216.704 137.111L216.706 137.11Z" fill="#F7931A"/>
<path fill-rule="evenodd" clip-rule="evenodd" d="M158.516 94.8275C160.706 80.1889 149.561 72.3202 134.321 67.0708L139.265 47.2417L127.194 44.2339L122.382 63.5411C119.208 62.7497 115.949 62.0039 112.71 61.2647L117.558 41.83L105.495 38.8223L100.548 58.645C97.9223 58.0471 95.3432 57.4563 92.8409 56.8337L92.8548 56.7713L76.2091 52.6146L72.9982 65.5068C72.9982 65.5068 81.9536 67.5596 81.7648 67.6859C86.6528 68.906 87.5367 72.1416 87.39 74.7063L81.7584 97.2964C82.095 97.382 82.5315 97.5056 83.0133 97.6992L82.6631 97.6118C82.3654 97.5371 82.0554 97.4598 81.7375 97.3837L73.8439 129.029C73.2466 130.514 71.7302 132.743 68.3129 131.897C68.4339 132.072 59.5397 129.707 59.5397 129.707L53.5469 143.524L69.2549 147.44C70.9749 147.871 72.6748 148.315 74.3572 148.753L74.3605 148.754C75.5353 149.06 76.7019 149.364 77.8609 149.661L72.8658 169.717L84.9225 172.725L89.8692 152.881C93.163 153.776 96.3594 154.6 99.4886 155.378L94.5587 175.128L106.63 178.136L111.624 158.117C132.208 162.012 147.684 160.442 154.199 141.824C159.448 126.835 153.937 118.189 143.109 112.551C150.996 110.732 156.936 105.545 158.52 94.8291L158.516 94.8275ZM130.938 133.5C127.515 147.252 105.989 141.567 96.1403 138.965C95.2545 138.731 94.463 138.522 93.7876 138.355L100.416 111.783C101.239 111.988 102.245 112.214 103.384 112.47C113.571 114.756 134.444 119.44 130.938 133.5ZM105.428 100.137C113.639 102.329 131.551 107.109 134.671 94.6102C137.856 81.8271 120.449 77.9729 111.947 76.0906C110.991 75.8789 110.147 75.6921 109.458 75.5203L103.449 99.6193C104.016 99.7606 104.682 99.9384 105.428 100.137Z" fill="white"/>
</g>
<defs>
<clipPath id="clip0_4_236">
<rect width="220" height="220" fill="white" transform="translate(0 0.5)"/>
</clipPath>
</defs>
</svg>
