<svg width="220" height="221" viewBox="0 0 220 221" fill="none" xmlns="http://www.w3.org/2000/svg">
<g clip-path="url(#clip0_4_242)">
<path d="M110 220.5C170.751 220.5 220 171.251 220 110.5C220 49.7487 170.751 0.5 110 0.5C49.2487 0.5 0 49.7487 0 110.5C0 171.251 49.2487 220.5 110 220.5Z" fill="#8DC351"/>
<path fill-rule="evenodd" clip-rule="evenodd" d="M145.845 73.45C140.339 59.7686 127.263 59.0844 111.434 61.8208L105.928 42.6665L94.2286 46.087L99.7343 64.5571C98.619 64.8343 97.3909 65.2237 96.0954 65.6343C94.1932 66.2375 92.1463 66.8865 90.0992 67.2933L84.5935 48.1392L72.8937 51.5595L78.3994 70.7138C77.0231 71.0559 75.8188 71.3978 74.6145 71.7399C73.4101 72.082 72.2055 72.4239 70.829 72.766L55 78.2387L58.4412 90.5521C58.4412 90.5521 67.388 87.8158 66.6998 87.8158C71.5172 86.4476 73.5819 88.4998 74.9584 91.2361L81.1523 113.127H82.5288L81.1523 113.811L90.0992 144.594C90.0992 145.963 90.0992 148.699 86.6582 150.067L78.3994 152.803L79.7758 167.169L94.9168 163.064L103.175 161.012L108.681 180.167L120.381 176.746L114.875 157.592C118.316 156.908 121.069 156.224 124.51 154.856L130.016 174.01L141.716 170.589L136.21 151.435C155.48 144.594 167.868 135.701 164.427 116.547C161.674 101.497 152.727 96.7088 140.339 97.3928C147.221 90.5521 149.974 83.7114 145.845 73.45ZM141.716 119.968C145.356 132.631 126 138.384 115.704 141.444C114.321 141.855 113.101 142.218 112.122 142.542L104.552 116.547C105.637 116.277 106.996 115.878 108.549 115.421C118.809 112.403 137.531 106.896 141.716 119.968ZM103.03 104.367C111.258 102.043 128.996 97.0322 125.198 85.0794C122.086 72.7026 104.892 78.2401 96.5463 80.9282C95.6663 81.2116 94.8849 81.4633 94.2286 81.6591L101.111 104.918C101.664 104.753 102.31 104.57 103.03 104.367Z" fill="white"/>
</g>
<defs>
<clipPath id="clip0_4_242">
<rect width="220" height="220" fill="white" transform="translate(0 0.5)"/>
</clipPath>
</defs>
</svg>
