<svg width="220" height="221" viewBox="0 0 220 221" fill="none" xmlns="http://www.w3.org/2000/svg">
<g clip-path="url(#clip0_4_248)">
<path d="M110 220.5C170.751 220.5 220 171.251 220 110.5C220 49.7487 170.751 0.5 110 0.5C49.2487 0.5 0 49.7487 0 110.5C0 171.251 49.2487 220.5 110 220.5Z" fill="#EDF0F4"/>
<path fill-rule="evenodd" clip-rule="evenodd" d="M133.101 59.1665L151.617 68.8832L169.767 93.4498L110.551 160.733L51.334 93.4498L69.8506 69.0665L87.4507 59.1665H133.101ZM140.617 104.083L163.717 92.3498L150.151 72.9165L133.101 81.1665L140.617 104.083ZM88.9173 62.8332H131.634L146.117 70.3498L131.451 77.3165H88.734L75.9007 70.5332L88.9173 62.8332ZM86.1673 81.1665L71.134 72.9165L56.4673 91.7998L80.8506 104.083L86.1673 81.1665ZM61.234 98.7665L80.1173 108.483L103.217 148.266L61.234 98.7665ZM84.1507 107.75L93.5007 123.965V124.433H93.7705L110.367 153.217L136.584 107.016L129.617 81.1665H90.5673L84.1507 107.75ZM93.7705 124.433H101.751V130.667H106.701V125.167H110.184L110.367 130.667H114.951V124.616H119.351C121.027 124.633 122.676 124.189 124.117 123.333C127.601 120.95 128.701 115.816 127.234 111.967C126.236 109.428 124.346 107.342 121.917 106.1C123.415 105.584 124.617 104.449 125.217 102.983C125.584 101.883 125.584 100.967 125.401 99.8665C125.401 99.8665 125.217 98.2165 124.667 96.7498C123.567 94.3665 119.901 92.1665 114.767 91.6165V85.7498H110.184V91.6165H106.701V85.7498H101.934V91.6165H94.4173V95.4665C96.0827 95.6625 97.5677 96.6076 98.4507 98.0332C98.9851 98.8349 99.1301 99.5393 99.2403 100.075C99.2812 100.274 99.3176 100.451 99.3673 100.6L99.734 115.266C99.734 117.1 99.0007 118.75 97.534 119.667C96.0063 120.583 94.4784 120.354 93.7995 120.252C93.6638 120.232 93.5617 120.217 93.5007 120.217V123.965L93.7705 124.433ZM116.967 148.083L140.434 108.667L160.051 98.7665L116.967 148.083ZM112.934 97.4832H107.067V105.367H113.117C115.317 105.367 116.967 103.533 116.967 101.333C116.967 99.1332 115.134 97.4832 112.934 97.4832ZM107.434 119.116H114.401C116.967 118.933 118.801 116.917 118.617 114.533C118.434 112.517 116.601 110.683 114.401 110.5H107.434V119.116Z" fill="#FCC339"/>
</g>
<defs>
<clipPath id="clip0_4_248">
<rect width="220" height="220" fill="white" transform="translate(0 0.5)"/>
</clipPath>
</defs>
</svg>
