<svg width="220" height="221" viewBox="0 0 220 221" fill="none" xmlns="http://www.w3.org/2000/svg">
<g clip-path="url(#clip0_4_256)">
<path d="M110 220.5C170.751 220.5 220 171.251 220 110.5C220 49.7487 170.751 0.5 110 0.5C49.2487 0.5 0 49.7487 0 110.5C0 171.251 49.2487 220.5 110 220.5Z" fill="#F7931A"/>
<path fill-rule="evenodd" clip-rule="evenodd" d="M128.913 110.195C135.574 108.58 140.612 104.052 142.001 94.735C143.918 82.0081 134.547 75.2239 121.706 70.7377L125.97 53.4905L115.791 50.937L111.637 67.7287C108.967 67.0524 106.222 66.4173 103.491 65.7962L107.673 48.8871L97.5013 46.3335L93.237 63.5738C91.0192 63.07 88.8425 62.5662 86.7342 62.0347L86.7479 61.9865L72.7154 58.4527L69.9432 69.6612C69.9432 69.6612 77.4932 71.4073 77.329 71.5108C81.4565 72.5529 82.189 75.355 82.0522 77.5843L77.1922 97.2332C77.5532 97.324 77.9076 97.4393 78.2532 97.5783L77.1717 97.3091L70.3676 124.833C69.8543 126.124 68.5673 128.063 65.6787 127.352C65.7814 127.497 58.2862 125.489 58.2862 125.489L53.166 137.511L66.4111 140.845C67.9038 141.221 69.3764 141.607 70.8348 141.99L70.8377 141.991C71.7863 142.24 72.7286 142.487 73.6669 142.729L69.3545 160.177L79.5127 162.73L83.784 145.476C86.4777 146.212 89.1793 146.919 91.8884 147.595L87.6376 164.78L97.8095 167.333L102.122 149.927C119.481 153.206 132.555 151.77 138.14 135.572C142.638 122.528 138.024 115.046 128.913 110.195ZM175.008 151.17L178.739 136.103L193.682 139.865L196.166 129.816L181.223 126.061L184.948 110.995L174.987 108.49L171.257 123.556L156.314 119.802L153.829 129.844L168.772 133.598L165.048 148.671L175.008 151.17ZM118.543 128.45C121.564 116.228 103.987 112.259 95.3914 110.319C94.4248 110.1 93.5716 109.908 92.8742 109.732L87.1722 132.832C87.7438 132.975 88.4139 133.154 89.1639 133.353C97.4713 135.567 115.606 140.4 118.557 128.443L118.543 128.45ZM102.774 78.6746C109.941 80.2689 124.621 83.5346 121.877 94.6589C119.182 105.54 104.052 101.454 97.1413 99.588C96.5218 99.4206 95.9683 99.2712 95.4959 99.152L100.678 78.1915C101.258 78.3373 101.968 78.4955 102.774 78.6746Z" fill="white"/>
</g>
<defs>
<clipPath id="clip0_4_256">
<rect width="220" height="220" fill="white" transform="translate(0 0.5)"/>
</clipPath>
</defs>
</svg>
