<svg width="220" height="221" viewBox="0 0 220 221" fill="none" xmlns="http://www.w3.org/2000/svg">
<g clip-path="url(#clip0_4_259)">
<path d="M110 220.5C170.751 220.5 220 171.251 220 110.5C220 49.7487 170.751 0.5 110 0.5C49.2487 0.5 0 49.7487 0 110.5C0 171.251 49.2487 220.5 110 220.5Z" fill="#272D63"/>
<path fill-rule="evenodd" clip-rule="evenodd" d="M138.606 50.9165L133.814 70.4553C148.626 75.6528 159.529 83.449 157.401 97.8865C156.785 102.273 155.279 106.666 152.171 109.987C149.509 112.853 145.348 114.373 141.795 115.542C137.536 116.989 133.081 117.775 128.585 117.872C125.574 117.872 122.644 117.783 119.633 117.515C114.759 117.15 109.79 116.703 105.006 115.631C104.436 115.496 103.879 115.373 103.333 115.253C102.437 115.057 101.574 114.867 100.749 114.641L94.2739 140.903L90.4614 155.245L85.6702 174.88L73.8841 171.923L78.7642 152.11C77.5329 151.79 76.2841 151.452 75.0259 151.112C73.4721 150.691 71.9043 150.267 70.3386 149.868L55 146.018L60.852 132.475C60.852 132.475 69.5446 134.812 69.4487 134.633C72.8231 135.438 74.2399 133.197 74.8559 131.767L81.5087 104.872L84.6094 92.414L88.1617 78.0728C88.3328 75.5635 87.4498 72.339 82.6586 71.1703C82.8366 71.0808 74.0619 69.0183 74.0619 69.0183L77.1624 56.2928L93.3839 60.4178C94.7445 60.7556 96.1008 61.071 97.4708 61.3894C98.6095 61.6542 99.7586 61.9213 100.927 62.2053L105.718 42.6665L117.504 45.6228L112.809 64.804C113.449 64.9531 114.093 65.1017 114.739 65.251C117.225 65.8248 119.746 66.4069 122.206 67.0453L126.813 47.9533L138.606 50.9165ZM137.634 121.729C140.912 121.186 144.903 119.845 147.736 118.677C147.78 118.632 147.848 118.61 147.915 118.588C147.983 118.565 148.051 118.543 148.092 118.498C154.211 123.963 157.134 132.839 153.143 144.224C146.847 162.69 131.693 164.21 111.652 160.36L106.779 180.167L95.0746 177.21L99.592 158.297L99.77 157.672L103.322 143.145C113.781 145.482 127.88 147.002 130.536 136.063C131.96 130.24 129.208 126.026 124.773 122.98L129.386 122.705C132.672 122.533 134.348 122.265 137.634 121.722V121.729ZM112.339 79.4738C120.764 81.4256 137.237 85.2415 134.17 97.7008C131.149 110.093 113.445 105.28 105.479 103.114C104.801 102.929 104.193 102.764 103.671 102.63L109.53 78.7945C110.291 78.9995 111.248 79.2212 112.339 79.4738Z" fill="#FEFEFE"/>
</g>
<defs>
<clipPath id="clip0_4_259">
<rect width="220" height="220" fill="white" transform="translate(0 0.5)"/>
</clipPath>
</defs>
</svg>
