<svg width="220" height="221" viewBox="0 0 220 221" fill="none" xmlns="http://www.w3.org/2000/svg">
<g clip-path="url(#clip0_4_266)">
<path d="M219.974 110.504C219.974 171.244 170.727 220.491 109.96 220.5C49.238 220.5 -0.00879564 171.244 4.71637e-06 110.496C-0.017596 49.7468 49.2292 0.5 109.978 0.5C170.727 0.5 219.974 49.7556 219.974 110.504Z" fill="#EAB300"/>
<path fill-rule="evenodd" clip-rule="evenodd" d="M153.261 83.5576C151.844 68.8259 139.128 63.8889 123.058 62.4807V42.0376H110.623V61.9351C107.359 61.9351 104.014 61.9967 100.697 62.0671V42.0376H88.2618L88.253 62.4631L88.1195 62.4659C85.4725 62.5178 82.8685 62.5687 80.3326 62.5687V62.5071L63.1807 62.4983V75.7869C63.1807 75.7869 72.3682 75.6109 72.2098 75.7781C77.2524 75.7781 78.8894 78.6999 79.3646 81.2255V104.511C79.7166 104.511 80.1654 104.529 80.6758 104.599H79.3646L79.3558 137.222C79.1358 138.806 78.2028 141.332 74.6828 141.341C74.8412 141.482 65.6449 141.341 65.6449 141.341L63.1719 156.196H79.3646C81.1904 156.196 83.0001 156.215 84.7898 156.234H84.7944C85.9531 156.247 87.1033 156.259 88.2442 156.266L88.253 176.938H100.679V156.486C104.085 156.557 107.385 156.583 110.615 156.583L110.606 176.938H123.041V156.31C143.95 155.113 158.603 149.842 160.416 130.199C161.886 114.385 154.449 107.319 142.577 104.467C149.803 100.806 154.317 94.338 153.261 83.5576ZM135.854 127.753C135.854 141.939 113.543 141.618 103.367 141.471C102.465 141.458 101.657 141.446 100.969 141.446V114.051C101.829 114.053 102.875 114.029 104.062 114.003C114.522 113.768 135.854 113.289 135.854 127.753ZM103.049 101.551C111.564 101.685 130.063 101.977 130.063 89.1106C130.071 75.942 112.245 76.4139 103.53 76.6445C102.548 76.6704 101.682 76.6933 100.969 76.6933V101.528C101.563 101.527 102.264 101.538 103.049 101.551Z" fill="white"/>
<path d="M79.377 103.966H81.225V105.33H79.377V103.966Z" fill="white"/>
</g>
<defs>
<clipPath id="clip0_4_266">
<rect width="220" height="220" fill="white" transform="translate(0 0.5)"/>
</clipPath>
</defs>
</svg>
