<svg width="220" height="221" viewBox="0 0 220 221" fill="none" xmlns="http://www.w3.org/2000/svg">
<g clip-path="url(#clip0_4_279)">
<path d="M110 220.5C170.751 220.5 220 171.251 220 110.5C220 49.7487 170.751 0.5 110 0.5C49.2487 0.5 0 49.7487 0 110.5C0 171.251 49.2487 220.5 110 220.5Z" fill="#265FAC"/>
<path fill-rule="evenodd" clip-rule="evenodd" d="M144.532 87.1272C144.532 87.1272 161.673 89.2991 163.259 72H180.081V73.3149C180.081 90.1218 166.456 103.746 149.65 103.746H144.567V125.412C144.513 143.601 129.781 158.332 111.593 158.386H106.227C88.0193 158.385 73.2596 143.624 73.2596 125.415V103.869L68.3837 103.737C51.7475 103.279 38.4989 89.6609 38.5 73.0184V72.3223H55.3997C55.3997 72.3223 56.5147 88.1134 73.4175 87.0821V72H90.2462V87.1272H127.345V72H144.532V87.1272ZM118.481 139.889C124.181 136.451 127.596 130.217 127.426 123.563V103.389H90.4041V123.563V124.155C90.447 130.812 94.0601 136.933 99.8672 140.187C105.674 143.442 112.781 143.328 118.481 139.889Z" fill="white"/>
</g>
<defs>
<clipPath id="clip0_4_279">
<rect width="220" height="220" fill="white" transform="translate(0 0.5)"/>
</clipPath>
</defs>
</svg>
