<svg width="220" height="221" viewBox="0 0 220 221" fill="none" xmlns="http://www.w3.org/2000/svg">
<g clip-path="url(#clip0_4_282)">
<path d="M110 220.5C170.751 220.5 220 171.251 220 110.5C220 49.7487 170.751 0.5 110 0.5C49.2487 0.5 0 49.7487 0 110.5C0 171.251 49.2487 220.5 110 220.5Z" fill="#13C2C2"/>
<mask id="mask0_4_282" style="mask-type:luminance" maskUnits="userSpaceOnUse" x="60" y="48" width="97" height="66">
<path fill-rule="evenodd" clip-rule="evenodd" d="M60.5 99.881L125.846 100.408C125.846 100.408 140.268 102.241 152.588 113.061C153.289 113.672 156.03 113.061 156.03 113.061L155.697 48.1665L60.5 48.2776V99.881Z" fill="white"/>
</mask>
<g mask="url(#mask0_4_282)">
<path d="M142.145 62.7837C134.372 56.3844 123.677 53.1777 110.059 53.1777C91.8537 53.1777 83.7819 53.1777 76.1332 53.1777V57.9182C76.1332 57.9182 94.5467 57.9182 109.434 57.9182C121.011 57.9182 131.492 60.3057 137.891 65.8305C144.29 71.3622 149.141 79.5937 149.141 89.7547C149.141 99.5618 144.942 106.829 138.286 112.326C131.63 117.823 119.762 120.245 107.88 120.245C93.7 120.245 69.623 120.245 69.623 120.245V124.985C69.623 124.985 102.195 124.978 108.143 124.978C122.476 124.978 133.671 121.862 141.729 115.643C149.787 109.418 153.812 100.665 153.812 89.3731C153.812 78.053 149.926 69.1897 142.145 62.7837Z" fill="white"/>
</g>
<mask id="mask1_4_282" style="mask-type:luminance" maskUnits="userSpaceOnUse" x="60" y="48" width="97" height="66">
<path fill-rule="evenodd" clip-rule="evenodd" d="M60.5 99.881L125.846 100.408C125.846 100.408 140.268 102.241 152.588 113.061C153.289 113.672 156.03 113.061 156.03 113.061L155.697 48.1665L60.5 48.2776V99.881Z" fill="white"/>
</mask>
<g mask="url(#mask1_4_282)">
<path d="M139.273 69.6543C134.435 65.9827 128.876 63.0259 113.148 63.0259C96.1858 63.0328 94.1104 63.0259 86.9824 63.0259V67.6484C86.9824 67.6484 98.6914 67.4957 112.565 67.6484C125.975 67.7872 130.896 69.3003 135.407 72.6388C141.182 76.9071 144.763 82.175 144.763 89.546C144.763 96.6532 141.126 101.685 135.324 105.954C129.39 110.326 120.318 110.375 116.626 110.458C115.231 110.493 97.199 110.458 97.199 110.458V115.08C97.199 115.08 106.173 115.205 111.719 115.073C124.448 114.789 131.999 114.033 139.03 108.806C145.631 103.913 149.122 97.4513 149.122 89.2684C149.122 78.4757 143.722 73.0342 139.273 69.6543Z" fill="white"/>
</g>
<mask id="mask2_4_282" style="mask-type:luminance" maskUnits="userSpaceOnUse" x="60" y="48" width="97" height="66">
<path fill-rule="evenodd" clip-rule="evenodd" d="M60.5 99.881L125.846 100.408C125.846 100.408 140.268 102.241 152.588 113.061C153.289 113.672 156.03 113.061 156.03 113.061L155.697 48.1665L60.5 48.2776V99.881Z" fill="white"/>
</mask>
<g mask="url(#mask2_4_282)">
<path d="M136.937 75.7552C133.307 73.4788 130.122 71.9448 115.095 71.9448C99.826 71.9448 102.706 71.9448 96.2862 71.9448V74.9849C96.2862 74.9849 102.089 74.9849 114.575 74.9849C127.887 74.9849 132.933 77.3515 134.46 78.2885C137.451 80.1208 141.393 83.1052 141.393 89.1853C141.393 93.072 139.096 97.9512 135.702 99.8669C132.606 101.609 126.95 103.171 116.983 103.171C115.727 103.171 55.5449 103.171 55.5449 103.171V106.211C55.5449 106.211 112.215 106.211 117.212 106.211C129.226 106.211 133.349 104.878 137.583 102.539C141.831 100.2 144.662 95.3902 144.662 89.213C144.662 82.3142 140.81 78.1774 136.937 75.7552Z" fill="white"/>
</g>
<path d="M148.892 109.292C141.118 102.886 130.416 99.6867 116.805 99.6867C98.593 99.6867 101.765 99.6797 94.1094 99.6797V104.42C94.1094 104.42 101.286 104.42 116.174 104.42C127.751 104.42 138.238 106.808 144.637 112.332C151.036 117.864 155.881 126.096 155.881 136.264C155.881 146.064 151.689 153.331 145.033 158.827C138.377 164.324 126.501 166.747 114.619 166.747C100.446 166.747 76.3691 166.747 76.3691 166.747V171.487C76.3691 171.487 108.934 171.48 114.889 171.48C129.222 171.48 140.41 168.371 148.468 162.145C156.526 155.926 160.559 147.167 160.559 135.882C160.559 124.555 156.672 115.692 148.892 109.292Z" fill="white"/>
<path d="M146.021 116.157C141.184 112.492 135.624 109.529 119.897 109.529C102.927 109.536 91.4542 109.529 84.3262 109.529V114.151C84.3262 114.151 105.433 113.998 119.314 114.151C132.723 114.29 137.637 115.803 142.148 119.142C147.93 123.417 151.511 128.678 151.511 136.049C151.511 143.156 147.874 148.188 142.072 152.463C136.138 156.829 127.066 156.885 123.367 156.968C121.972 156.995 103.94 156.968 103.94 156.968V161.583C103.94 161.583 112.914 161.708 118.467 161.583C131.189 161.292 138.747 160.535 145.778 155.316C152.372 150.416 155.863 143.954 155.863 135.771C155.863 124.985 150.47 119.537 146.021 116.157Z" fill="white"/>
<path d="M91.9395 131.843H125.275V129.261H91.9395V131.843Z" fill="white"/>
<path d="M105.689 140.872H125.082V138.651H105.689V140.872Z" fill="white"/>
<path fill-rule="evenodd" clip-rule="evenodd" d="M89.2925 74.7835H77.6046V72.6528H89.2925V74.7835ZM86.2457 131.842H76.3691V129.26H86.2457V131.842Z" fill="white"/>
<path d="M70.2188 141.053H100.216V138.471H70.2188V141.053Z" fill="white"/>
<path d="M69.4668 92.0656H96.2368V89.5879H69.4668V92.0656Z" fill="white"/>
<path d="M70.2188 161.264H98.4462V158.168H70.2188V161.264Z" fill="white"/>
<path d="M63.1777 171.3H70.2364V166.816H63.1777V171.3Z" fill="white"/>
<path d="M80.8242 84.5009H125.147V82.0229H80.8242V84.5009Z" fill="white"/>
<path d="M102.982 92.0656H124.304V89.5879H102.982V92.0656Z" fill="white"/>
<path d="M143.684 122.723C140.047 120.523 136.861 119.044 121.841 119.044C106.572 119.044 104.289 119.044 97.8755 119.044V121.98C97.8755 121.98 108.828 121.98 121.314 121.98C134.626 121.98 139.679 124.264 141.206 125.173C144.19 126.943 148.139 129.816 148.139 135.688C148.139 139.443 145.842 144.148 142.441 145.995C139.346 147.681 133.689 149.187 123.722 149.187C122.466 149.187 62.291 149.187 62.291 149.187V152.123C62.291 152.123 118.961 152.116 123.951 152.116C135.973 152.116 140.095 150.832 144.329 148.577C148.57 146.314 151.401 141.671 151.401 135.709C151.401 129.053 147.556 125.062 143.684 122.723Z" fill="white"/>
</g>
<defs>
<clipPath id="clip0_4_282">
<rect width="220" height="220" fill="white" transform="translate(0 0.5)"/>
</clipPath>
</defs>
</svg>
