<svg width="220" height="221" viewBox="0 0 220 221" fill="none" xmlns="http://www.w3.org/2000/svg">
<g clip-path="url(#clip0_4_311)">
<path d="M109.998 214.389C167.375 214.389 213.887 167.876 213.887 110.5C213.887 53.1235 167.375 6.61084 109.998 6.61084C52.622 6.61084 6.10938 53.1235 6.10938 110.5C6.10938 167.876 52.622 214.389 109.998 214.389Z" fill="white"/>
<path fill-rule="evenodd" clip-rule="evenodd" d="M110 220.5C49.2494 220.5 0 171.251 0 110.5C0 49.7494 49.2494 0.5 110 0.5C170.751 0.5 220 49.7494 220 110.5C220 171.251 170.751 220.5 110 220.5ZM122.919 166.655C147.577 166.655 164.144 151.616 164.047 129.389C164.047 121.243 161.48 113.776 156.909 108.41L157.007 108.312C161.572 102.947 164.144 95.4789 164.144 87.4306C164.144 65.1127 147.583 50.0733 122.919 50.0733H88.2627L81.4061 89.2456H56.369L53.9856 102.568H79.029L77.0306 114.154H51.9873L49.604 127.477H74.6473L67.7906 166.557L122.919 166.655ZM83.6011 153.143L88.165 127.471H103.015C128.346 127.471 141.106 126.419 149.386 121.341C150.339 123.639 150.816 126.413 150.816 129.292C150.816 144.044 140.152 153.241 122.919 153.241L83.6011 153.143ZM90.4506 114.063L90.4517 114.057H103.021C130.252 114.057 139.963 112.718 144.436 108.312C138.533 104.291 131.108 102.568 103.021 102.568H92.5467L90.4517 114.057H90.4444L90.4506 114.063ZM99.4033 63.2917L94.8323 89.154H103.021C129.299 89.154 140.439 90.59 149.288 95.5706C150.339 93.1811 150.816 90.3027 150.816 87.2411C150.816 72.2017 140.342 63.2917 122.919 63.2917H99.4033Z" fill="#E83355"/>
</g>
<defs>
<clipPath id="clip0_4_311">
<rect width="220" height="220" fill="white" transform="translate(0 0.5)"/>
</clipPath>
</defs>
</svg>
