<svg width="220" height="221" viewBox="0 0 220 221" fill="none" xmlns="http://www.w3.org/2000/svg">
<g clip-path="url(#clip0_4_317)">
<path d="M110 220.5C170.751 220.5 220 171.251 220 110.5C220 49.7487 170.751 0.5 110 0.5C49.2487 0.5 0 49.7487 0 110.5C0 171.251 49.2487 220.5 110 220.5Z" fill="#35BAEB"/>
<path fill-rule="evenodd" clip-rule="evenodd" d="M83.5134 103.894C77.9131 98.2594 72.5315 92.8445 69.666 89.9788C69.666 88.7382 69.666 44.5 69.732 44.5L107.265 78.0795V120.536C105.463 120.938 103.741 121.644 102.17 122.614C100.001 120.485 91.5331 111.964 83.5134 103.894ZM136.68 104.419C130.054 98.519 121.619 95.0474 112.756 94.559V120.536C114.749 120.859 116.643 121.598 118.319 122.72L136.68 104.419ZM69.666 98.387L97.8799 126.601C96.7249 128.317 95.9725 130.264 95.6689 132.296H69.666V98.387ZM69.666 137.86H95.6689C95.9527 139.8 96.7117 141.642 97.8799 143.226L79.5194 161.791C73.7248 155.092 70.2666 146.69 69.666 137.86ZM140.97 161.315L122.609 142.955C123.54 141.331 124.173 139.563 124.483 137.721H150.618C150.044 146.426 146.659 154.709 140.97 161.315ZM124.49 132.303H150.493C149.893 123.472 146.434 115.071 140.64 108.372L122.273 126.799C123.428 128.436 124.186 130.323 124.49 132.303ZM107.37 175.498C98.5069 175.016 90.0725 171.545 83.4397 165.645L101.807 147.278C103.483 148.4 105.377 149.139 107.37 149.462V175.498ZM112.756 149.456V175.459C121.619 174.865 130.034 171.354 136.686 165.467L118.451 147.232C116.722 148.347 114.788 149.099 112.756 149.456Z" fill="white"/>
</g>
<defs>
<clipPath id="clip0_4_317">
<rect width="220" height="220" fill="white" transform="translate(0 0.5)"/>
</clipPath>
</defs>
</svg>
