<svg width="220" height="221" viewBox="0 0 220 221" fill="none" xmlns="http://www.w3.org/2000/svg">
<g clip-path="url(#clip0_4_320)">
<path d="M110 220.5C170.751 220.5 220 171.251 220 110.5C220 49.7487 170.751 0.5 110 0.5C49.2487 0.5 0 49.7487 0 110.5C0 171.251 49.2487 220.5 110 220.5Z" fill="black"/>
<path fill-rule="evenodd" clip-rule="evenodd" d="M185.984 78.4316C188.098 83.4213 189.713 88.6084 190.806 93.9164C194.176 110.247 192.493 127.217 185.984 142.569C183.869 147.475 181.326 152.215 178.369 156.609C175.413 160.987 172.042 165.069 168.301 168.798C164.572 172.539 160.49 175.911 156.112 178.866C151.627 181.823 146.977 184.449 142.071 186.481C121.575 195.173 98.4282 195.173 77.9324 186.481C73.0264 184.367 68.2862 181.823 63.8913 178.866C59.5135 175.911 55.4314 172.539 51.7022 168.798C47.962 165.069 44.5903 160.987 41.6345 156.609C38.6769 152.125 36.0512 147.475 34.0197 142.569C25.3268 122.073 25.3268 98.9269 34.0197 78.4316C36.1191 73.5241 38.6681 68.8214 41.6345 64.3838C44.5905 60.0108 47.9622 55.9334 51.7022 52.2087C59.2141 44.6652 68.1234 38.6568 77.9324 34.5196C98.4282 25.8268 121.575 25.8268 142.071 34.5196C146.976 36.6193 151.676 39.1683 156.112 42.1341C160.49 45.0895 164.572 48.4611 168.301 52.2019C172.041 55.9287 175.413 60.0084 178.369 64.3838C181.35 68.8126 183.9 73.5166 185.984 78.4316ZM37.9929 110.583C37.9929 150.349 70.2279 182.673 110.078 182.673C149.851 182.673 182.169 150.349 182.169 110.583C182.169 70.8168 149.844 38.4928 110.078 38.4928C70.3177 38.4928 37.9929 70.8168 37.9929 110.583Z" fill="white"/>
<path d="M111.355 176.413H113.304C113.642 176.413 113.974 176.413 114.313 176.323H114.402C114.741 176.323 114.99 176.323 115.328 176.24H115.584C115.84 176.24 116.095 176.24 116.344 176.157H116.6C116.855 176.157 117.111 176.074 117.45 176.074H117.616C117.954 176.074 118.293 175.984 118.631 175.984C118.97 175.984 119.226 175.901 119.564 175.819H119.73C119.986 175.819 120.241 175.736 120.49 175.736H120.663C121.001 175.646 121.257 175.646 121.596 175.563C122.266 175.48 122.943 175.307 123.537 175.141H123.71C123.959 175.059 124.297 175.059 124.553 174.969H124.636C125.313 174.803 125.907 174.63 126.585 174.464C120.247 174.665 113.909 174.068 107.72 172.688C98.4058 170.657 89.5266 167.022 81.9947 160.755C69.9706 150.749 63.0758 135.871 63.2135 120.229C63.2744 108.705 67.375 97.5672 74.8015 88.7547C84.4477 77.3327 98.157 71.3212 112.198 70.9825H114.147V59.7334H111.949C107.678 59.8117 103.425 60.321 99.2557 61.2536C95.0602 62.2022 90.9768 63.5918 87.0736 65.3995C83.0934 67.2651 79.3688 69.5454 75.9002 72.1711C72.3156 74.8958 69.0516 78.0183 66.1709 81.4786C63.4585 84.6812 61.1043 88.1706 59.1503 91.8847C57.2172 95.4654 55.6567 99.2349 54.4931 103.134C53.3516 106.973 52.5879 110.914 52.2128 114.902L51.957 118.619V120.816C52.0401 125.135 52.5514 129.364 53.4772 133.51C54.4102 137.745 55.8474 141.801 57.6233 145.699C59.7447 150.349 63.5519 157.203 69.2182 162.365C80.7875 171.485 95.0961 176.435 109.828 176.413H111.355Z" fill="white"/>
<path d="M129.799 165.578C125.626 165.429 121.469 164.977 117.361 164.224C99.934 161.094 84.9533 150.432 79.4599 134.36C72.7709 114.812 83.0116 93.6609 102.47 87.2347C106.178 85.9921 110.064 85.3619 113.975 85.3691C118.971 85.3691 123.96 86.3848 128.534 88.2436L133.268 78.1758C131.844 77.6053 130.407 77.0707 128.956 76.5728C124.108 75.0513 119.056 74.28 113.975 74.2857C108.884 74.2952 103.829 75.1235 99.0012 76.7387C92.8401 78.7707 87.1657 82.055 82.3343 86.3848C80.0044 88.4603 77.8801 90.7558 75.991 93.2394C74.1236 95.6944 72.5077 98.3311 71.1679 101.11C68.4395 106.696 66.8293 112.761 66.4276 118.965C66.0061 125.391 66.8491 131.817 68.9637 137.911C71.118 144.181 74.5804 149.921 79.1212 154.751C83.2671 159.235 88.0905 162.621 93.9225 165.751C100.017 168.964 107.549 170.657 115.412 171.763C120.491 172.433 127.263 172.606 131.236 172.606C134.705 171.334 136.142 170.74 138.008 169.98C139.618 169.22 141.221 168.46 142.831 167.527C144.441 166.594 144.697 166.421 147.399 164.653C147.639 164.503 147.866 164.332 148.076 164.141C138.768 165.751 136.398 165.661 129.799 165.578Z" fill="white"/>
<path d="M150.62 152.975C147.994 153.14 144.27 153.389 140.041 153.389C132.509 153.389 123.284 152.719 115.42 150.093C103.231 146.037 91.7262 135.631 91.7262 122.765C91.7207 116.615 94.1614 110.715 98.51 106.366C102.859 102.017 108.759 99.5769 114.909 99.5824C123.623 99.5824 131.154 104.405 135.135 111.426L145.202 106.437C143.624 103.465 141.596 100.754 139.191 98.4008C132.754 91.9528 124.017 88.3296 114.906 88.3296C105.794 88.3296 97.0575 91.9528 90.6205 98.4008C84.1747 104.837 80.5527 113.573 80.5527 122.682C80.5753 127.409 81.5875 132.079 83.524 136.391C85.293 140.281 87.7528 143.923 90.883 147.308C96.3834 153.223 103.908 157.963 111.952 160.672C119.649 163.208 130.988 164.141 141.989 163.381C145.03 163.125 147.317 162.869 151.207 162.026C154.961 159.064 158.369 155.687 161.365 151.959C158.739 152.214 153.916 152.719 150.62 152.975Z" fill="white"/>
</g>
<defs>
<clipPath id="clip0_4_320">
<rect width="220" height="220" fill="white" transform="translate(0 0.5)"/>
</clipPath>
</defs>
</svg>
