<svg width="220" height="221" viewBox="0 0 220 221" fill="none" xmlns="http://www.w3.org/2000/svg">
<g clip-path="url(#clip0_4_326)">
<path fill-rule="evenodd" clip-rule="evenodd" d="M110 220.5C49.5 220.5 0 171.001 0 109.952C0.55 49.4535 49.5 -0.0454497 110.55 0.504539C171.05 1.05453 220 50.0035 220 111.602C219.45 171.551 170.5 220.5 110 220.5Z" fill="#EDF0F4"/>
<path fill-rule="evenodd" clip-rule="evenodd" d="M36.666 110.502C36.666 70.0204 69.5199 37.1665 110.002 37.1665C150.479 37.1665 183.333 70.0252 183.333 110.502C183.333 150.979 150.484 183.833 110.002 183.833C69.5199 183.833 36.666 150.984 36.666 110.502ZM45.4684 110.505C45.4684 142.897 71.7382 169.167 104.13 169.167H104.133C136.409 169.167 162.794 143.061 162.794 110.505C162.794 77.9483 136.409 51.8431 104.133 51.8431C71.7382 51.8431 45.4684 78.1127 45.4684 110.505Z" fill="black"/>
</g>
<defs>
<clipPath id="clip0_4_326">
<rect width="220" height="220" fill="white" transform="translate(0 0.5)"/>
</clipPath>
</defs>
</svg>
