<svg width="220" height="221" viewBox="0 0 220 221" fill="none" xmlns="http://www.w3.org/2000/svg">
<g clip-path="url(#clip0_4_333)">
<path fill-rule="evenodd" clip-rule="evenodd" d="M110 220.5C49.5 220.5 0 171.001 0 109.952C0.55 49.4535 49.5 -0.0454497 110.55 0.504539C171.05 1.05453 220 50.0035 220 111.602C219.45 171.551 170.5 220.5 110 220.5Z" fill="#EDF0F4"/>
<path fill-rule="evenodd" clip-rule="evenodd" d="M110 180.167C148.476 180.167 179.667 148.976 179.667 110.5C179.667 72.0244 148.476 40.8335 110 40.8335V49.3095C143.795 49.3095 171.191 76.7056 171.191 110.5C171.191 144.295 143.795 171.691 110 171.691V180.167Z" fill="#FFBC00"/>
<path fill-rule="evenodd" clip-rule="evenodd" d="M48.81 110.5H40.334C40.334 148.976 71.5249 180.167 110.001 180.167V171.691C76.2149 171.669 48.8315 144.286 48.81 110.5Z" fill="#FFBC00"/>
<path fill-rule="evenodd" clip-rule="evenodd" d="M65.1813 110.5C65.1813 135.253 85.2473 155.319 110 155.319C134.753 155.319 154.819 135.253 154.819 110.5H163.295C163.295 139.934 139.434 163.795 110 163.795C80.5661 163.795 56.7051 139.934 56.7051 110.5H65.1813Z" fill="#FFBC00"/>
<path opacity="0.3" fill-rule="evenodd" clip-rule="evenodd" d="M110 65.6811V57.2051C80.5839 57.2476 56.7478 81.0837 56.7051 110.5H65.1813C65.2026 85.7561 85.2561 65.7024 110 65.6811Z" fill="#FFBC00"/>
<path fill-rule="evenodd" clip-rule="evenodd" d="M110.001 82.0141C94.2687 82.0141 81.5151 94.7677 81.5151 110.5C81.5151 126.232 94.2687 138.986 110.001 138.986V147.462C89.5875 147.462 73.0391 130.914 73.0391 110.5C73.0391 90.0865 89.5875 73.5381 110.001 73.5381" fill="#FFBC00"/>
<path opacity="0.3" fill-rule="evenodd" clip-rule="evenodd" d="M110 73.5381V82.0141C125.724 82.0354 138.465 94.7765 138.486 110.5H146.962C146.919 90.1041 130.396 73.5806 110 73.5381Z" fill="#FFBC00"/>
<path fill-rule="evenodd" clip-rule="evenodd" d="M110 89.9097C121.372 89.9097 130.59 99.1284 130.59 110.5C130.59 121.872 121.372 131.09 110 131.09V122.614C116.691 122.614 122.114 117.191 122.114 110.5C122.114 103.81 116.691 98.3859 110 98.3859" fill="#FFBC00"/>
<path opacity="0.3" fill-rule="evenodd" clip-rule="evenodd" d="M110.001 89.9097C98.6377 89.9309 89.4314 99.1372 89.4102 110.5H97.8862C97.8862 107.287 99.1626 104.206 101.434 101.934C103.706 99.6621 106.788 98.3859 110.001 98.3859V89.9097Z" fill="#FFBC00"/>
<path fill-rule="evenodd" clip-rule="evenodd" d="M135.968 136.702L129.969 130.703C127.548 133.098 124.717 135.038 121.609 136.431L125.17 144.172C129.135 142.333 132.749 139.818 135.852 136.741" fill="#FFBC00"/>
<path fill-rule="evenodd" clip-rule="evenodd" d="M80.6595 47.2964C73.1819 50.7317 66.3792 55.4765 60.5723 61.3071L66.3779 67.4997C71.5152 62.2819 77.5618 58.0454 84.2202 54.9984L80.6595 47.2964Z" fill="#FFBC00"/>
<path fill-rule="evenodd" clip-rule="evenodd" d="M158.225 88.2453C155.615 82.4796 151.983 77.2346 147.504 72.7637L141.389 78.7627C145.215 82.5075 148.312 86.9302 150.523 91.806L158.225 88.2453Z" fill="#FFBC00"/>
</g>
<defs>
<clipPath id="clip0_4_333">
<rect width="220" height="220" fill="white" transform="translate(0 0.5)"/>
</clipPath>
</defs>
</svg>
