<svg width="220" height="221" viewBox="0 0 220 221" fill="none" xmlns="http://www.w3.org/2000/svg">
<g clip-path="url(#clip0_4_346)">
<path d="M110 220.5C170.751 220.5 220 171.251 220 110.5C220 49.7487 170.751 0.5 110 0.5C49.2487 0.5 0 49.7487 0 110.5C0 171.251 49.2487 220.5 110 220.5Z" fill="#EF494D"/>
<path fill-rule="evenodd" clip-rule="evenodd" d="M40.334 78.3556C40.334 76.8717 41.5235 75.6665 42.9947 75.6665H77.5365C93.4735 75.6665 103.443 83.9986 103.443 95.7653C103.443 100.677 101.229 105.142 96.8012 109.162C102.996 112.736 106.097 118.094 106.097 125.234C106.097 141.989 90.1528 145.333 79.5235 145.333H42.9879C41.5222 145.333 40.334 144.129 40.334 142.644V134.632C40.334 133.142 41.5235 131.936 42.9879 131.936H79.5235C87.0519 131.936 90.8196 129.477 90.8196 124.566C90.8196 119.654 87.0519 116.972 79.5235 116.526H42.9879C41.5249 116.526 40.3378 115.326 40.334 113.844V105.832C40.334 104.341 41.5235 103.136 42.9879 103.136H79.5235C84.8382 102.244 87.4989 100.015 87.4989 96.4411C87.4989 91.5296 84.8382 89.0704 79.5235 89.0704H42.9879C42.2828 89.0704 41.6067 88.786 41.1089 88.2802C40.611 87.7744 40.3322 87.0887 40.334 86.3743V78.3626V78.3556ZM112.078 78.3556C112.078 76.8717 113.268 75.6665 114.732 75.6665H149.941C151.405 75.6665 152.601 76.8717 152.601 78.3556V142.644C152.601 143.358 152.321 144.043 151.822 144.548C151.323 145.052 150.646 145.335 149.941 145.333H139.971C138.506 145.333 137.318 144.129 137.318 142.644V91.7595C137.319 91.0451 137.041 90.3594 136.543 89.8536C136.045 89.3478 135.369 89.0634 134.664 89.0634H114.725C113.26 89.0634 112.071 87.8595 112.071 86.3743L112.078 78.3556ZM175.18 75.6665H161.89C160.426 75.6665 159.236 76.8717 159.236 78.3626V86.3743C159.236 87.8595 160.424 89.0634 161.89 89.0634H175.18C175.885 89.0634 176.561 88.7791 177.059 88.2732C177.557 87.7674 177.836 87.0818 177.834 86.3673V78.3556C177.834 76.8717 176.645 75.6665 175.18 75.6665Z" fill="white"/>
</g>
<defs>
<clipPath id="clip0_4_346">
<rect width="220" height="220" fill="white" transform="translate(0 0.5)"/>
</clipPath>
</defs>
</svg>
