<svg width="220" height="221" viewBox="0 0 220 221" fill="none" xmlns="http://www.w3.org/2000/svg">
<g clip-path="url(#clip0_4_349)">
<path d="M110 220.5C170.751 220.5 220 171.251 220 110.5C220 49.7487 170.751 0.5 110 0.5C49.2487 0.5 0 49.7487 0 110.5C0 171.251 49.2487 220.5 110 220.5Z" fill="#EDF0F4"/>
<path d="M124.979 149.741L110.597 177.435C110.096 178.398 108.721 178.409 108.206 177.453L51.4975 72.1601C51.0124 71.2592 51.6649 70.1665 52.6883 70.1665H82.2383C82.737 70.1665 83.1953 70.441 83.4307 70.8806L124.972 148.479C125.182 148.872 125.185 149.344 124.979 149.741Z" fill="url(#paint0_linear_4_349)"/>
<mask id="mask0_4_349" style="mask-type:luminance" maskUnits="userSpaceOnUse" x="51" y="70" width="75" height="109">
<path fill-rule="evenodd" clip-rule="evenodd" d="M124.979 149.741L110.597 177.435C110.096 178.398 108.721 178.409 108.206 177.453L51.4975 72.1601C51.0124 71.2592 51.6649 70.1665 52.6883 70.1665H82.2383C82.737 70.1665 83.1953 70.441 83.4307 70.8806L124.972 148.479C125.182 148.872 125.185 149.344 124.979 149.741Z" fill="white"/>
</mask>
<g mask="url(#mask0_4_349)">
<path d="M48.4647 63.6886L56.8305 17.7585C56.9315 17.2034 57.4665 16.8372 58.0207 16.9444L130.569 30.9594C131.046 31.0518 131.391 31.4692 131.391 31.9554V157.82C131.391 158.67 130.412 159.143 129.752 158.607C120.66 151.233 102.3 135.444 89.9766 121.723C76.9669 107.238 57.1174 77.6989 48.602 64.4071C48.4637 64.1915 48.4186 63.9407 48.4647 63.6886Z" fill="#768B97"/>
</g>
<path d="M147.115 110.736C158.318 110.736 167.4 101.654 167.4 90.4512C167.4 79.2483 158.318 70.1665 147.115 70.1665C135.912 70.1665 126.83 79.2483 126.83 90.4512C126.83 101.654 135.912 110.736 147.115 110.736Z" fill="url(#paint1_linear_4_349)"/>
</g>
<defs>
<linearGradient id="paint0_linear_4_349" x1="50.441" y1="70.1665" x2="50.441" y2="179.704" gradientUnits="userSpaceOnUse">
<stop stop-color="#758A96"/>
<stop offset="1" stop-color="#42515A"/>
</linearGradient>
<linearGradient id="paint1_linear_4_349" x1="126.83" y1="70.1665" x2="126.83" y2="110.736" gradientUnits="userSpaceOnUse">
<stop stop-color="#7C919D"/>
<stop offset="1" stop-color="#6F8490"/>
</linearGradient>
<clipPath id="clip0_4_349">
<rect width="220" height="220" fill="white" transform="translate(0 0.5)"/>
</clipPath>
</defs>
</svg>
