<svg width="220" height="221" viewBox="0 0 220 221" fill="none" xmlns="http://www.w3.org/2000/svg">
<g clip-path="url(#clip0_4_329)">
<path d="M110 220.5C170.751 220.5 220 171.251 220 110.5C220 49.7487 170.751 0.5 110 0.5C49.2487 0.5 0 49.7487 0 110.5C0 171.251 49.2487 220.5 110 220.5Z" fill="#101341"/>
<path fill-rule="evenodd" clip-rule="evenodd" d="M147.123 48.1665H76.5826H76.5758L111.543 110.5L75.9551 172.833H147.123L183.332 110.5L147.123 48.1665ZM137.144 110.5L114.032 70.0939H114.039H134.633L157.738 110.5L134.647 150.906H114.039L137.144 110.5Z" fill="white"/>
<path opacity="0.5" d="M84.1087 76.0506L64.0941 110.5L83.9295 144.645L71.2461 166.87L38.5 110.5L71.529 53.6313L84.1087 76.0506Z" fill="white"/>
</g>
<defs>
<clipPath id="clip0_4_329">
<rect width="220" height="220" fill="white" transform="translate(0 0.5)"/>
</clipPath>
</defs>
</svg>
