<svg width="220" height="221" viewBox="0 0 220 221" fill="none" xmlns="http://www.w3.org/2000/svg">
<g clip-path="url(#clip0_4_358)">
<path d="M110 220.5C170.751 220.5 220 171.251 220 110.5C220 49.7487 170.751 0.5 110 0.5C49.2487 0.5 0 49.7487 0 110.5C0 171.251 49.2487 220.5 110 220.5Z" fill="#EDF0F4"/>
<path d="M66.9431 137.969C71.1784 133.756 78.0257 133.769 82.2446 137.999C86.4633 142.229 86.4589 149.076 82.2345 153.3C78.0103 157.525 71.1628 157.529 66.9332 153.311C62.7033 149.092 62.6899 142.244 66.9031 138.009L66.9431 137.969Z" fill="#FDBA4D"/>
<path d="M141.068 67.6002C144.167 64.5004 148.829 63.5731 152.878 65.2506C156.928 66.9279 159.569 70.8796 159.569 75.2631C159.569 79.6466 156.928 83.5984 152.878 85.2757C148.829 86.9532 144.167 86.0259 141.068 82.9261C136.842 78.7028 136.836 71.8548 141.054 67.624H141.068" fill="#FDBA4D"/>
<path d="M80.8457 129.632L92.2804 141.067L102.755 130.591C97.5316 128.494 93.3914 124.354 91.2942 119.13L80.8457 129.632Z" fill="#FDBA4D"/>
<path d="M132.263 101.653L142.738 91.1783L131.303 79.7437L120.828 90.2188C123.413 91.2561 125.762 92.8065 127.732 94.7766C129.699 96.7326 131.241 99.0738 132.263 101.653Z" fill="#FDBA4D"/>
<path d="M140.704 152.754C137.604 149.655 136.677 144.993 138.354 140.944C140.032 136.894 143.984 134.253 148.367 134.253C152.751 134.253 156.702 136.894 158.38 140.944C160.057 144.993 159.13 149.655 156.03 152.754C154.001 154.787 151.248 155.93 148.377 155.933C145.505 155.935 142.75 154.797 140.717 152.768L140.704 152.754Z" fill="#5DA9DD"/>
<path d="M68.0284 81.961C64.9286 78.8616 64.0013 74.2002 65.6788 70.1503C67.3561 66.1007 71.3079 63.46 75.6914 63.46C80.0749 63.46 84.0266 66.1007 85.7039 70.1503C87.3814 74.2002 86.4541 78.8616 83.3543 81.961C81.3239 83.992 78.5699 85.1329 75.698 85.1329C72.8262 85.1329 70.0722 83.992 68.0416 81.961" fill="#5DA9DD"/>
<path d="M130.435 140.611L141.87 129.176L131.395 118.701C129.298 123.925 125.157 128.065 119.934 130.162" fill="#5DA9DD"/>
<path d="M103.628 89.6245L93.1532 79.1494L81.7188 90.5841L92.1937 101.059C93.231 98.4737 94.7814 96.1252 96.7515 94.1556C98.7075 92.1883 101.049 90.6457 103.628 89.6245Z" fill="#5DA9DD"/>
<path d="M122.778 59.0147C122.774 65 117.919 69.8492 111.934 69.847C105.948 69.8448 101.098 64.9919 101.098 59.0066C101.098 53.0214 105.948 48.1687 111.934 48.1665C117.919 48.1643 122.774 53.0135 122.778 58.9988V59.0147Z" fill="#18568C"/>
<path d="M122.778 162.629C122.774 168.615 117.919 173.464 111.934 173.462C105.948 173.46 101.098 168.607 101.098 162.621C101.098 156.636 105.948 151.783 111.934 151.781C117.919 151.779 122.774 156.628 122.778 162.614V162.629Z" fill="#18568C"/>
<path d="M115.87 75.5405H109.047V88.9741C111.305 88.5823 113.613 88.5823 115.87 88.9741" fill="#18568C"/>
<path d="M115.87 133.262C113.613 133.654 111.305 133.654 109.047 133.262V146.696H115.87" fill="#18568C"/>
<path d="M159.926 118.701C153.941 118.697 149.092 113.843 149.094 107.857C149.096 101.872 153.949 97.021 159.934 97.021C165.919 97.021 170.772 101.872 170.774 107.857C170.776 113.843 165.927 118.697 159.942 118.701H159.926Z" fill="#18578C"/>
<path d="M60.3482 120.543C54.3572 120.543 49.5006 115.687 49.5 109.696C49.4995 103.705 54.3554 98.8478 60.3464 98.8467C66.3373 98.8458 71.1949 103.701 71.1964 109.692C71.1971 112.57 70.0544 115.33 68.02 117.365C65.9855 119.4 63.2258 120.543 60.3482 120.543Z" fill="#18578C"/>
<path d="M132.344 113.106H145.777V106.272H132.344C132.736 108.53 132.736 110.838 132.344 113.096V113.106Z" fill="#18578C"/>
<path d="M90.6056 113.106C90.2138 110.849 90.2138 108.541 90.6056 106.283H77.1719V113.106" fill="#18578C"/>
<path d="M126.979 110.494C126.979 118.988 120.094 125.873 111.6 125.873C103.106 125.873 96.2207 118.988 96.2207 110.494C96.2207 102 103.106 95.1147 111.6 95.1147C120.093 95.1177 126.977 102.002 126.979 110.494Z" fill="#18568B"/>
</g>
<defs>
<clipPath id="clip0_4_358">
<rect width="220" height="220" fill="white" transform="translate(0 0.5)"/>
</clipPath>
</defs>
</svg>
