<svg width="220" height="221" viewBox="0 0 220 221" fill="none" xmlns="http://www.w3.org/2000/svg">
<g clip-path="url(#clip0_4_384)">
<path d="M110 220.5C170.751 220.5 220 171.251 220 110.5C220 49.7487 170.751 0.5 110 0.5C49.2487 0.5 0 49.7487 0 110.5C0 171.251 49.2487 220.5 110 220.5Z" fill="#EDF0F4"/>
<path d="M126.491 42.9332C119.61 41.2861 112.334 40.9394 108.395 40.8527C106.58 40.8095 105.496 40.8527 105.496 40.8527H64.9261C51.4192 40.8527 40.334 51.9217 40.334 65.5155V108.106C40.334 108.496 40.334 108.843 40.3773 109.238C40.3773 109.629 40.334 109.975 40.334 110.365C40.334 148.746 71.3357 179.835 109.608 179.835C147.881 179.835 178.883 148.746 178.883 110.365C178.926 77.8034 156.582 50.4913 126.491 42.9332Z" fill="#4C66FF"/>
<path fill-rule="evenodd" clip-rule="evenodd" d="M84.4112 70.5049C84.4112 66.3385 81.0358 62.9521 76.8802 62.9521H76.8749C72.7193 62.9521 69.3438 66.333 69.3438 70.5049V94.1707C69.3452 96.1899 70.1495 98.1259 71.5795 99.5517C73.0095 100.978 74.9475 101.776 76.9669 101.772C80.1109 101.773 82.9315 99.8394 84.0645 96.9068C89.8246 85.1197 102.956 78.8657 115.738 81.8219C128.519 84.778 137.571 96.1622 137.571 109.281C137.571 122.401 128.519 133.785 115.738 136.741C102.956 139.697 89.8246 133.443 84.0645 121.656C84.0381 121.593 84.0117 121.529 83.9849 121.464C83.8799 121.208 83.7692 120.939 83.6311 120.697C82.3307 118.356 79.8222 116.791 76.9669 116.791C72.7626 116.791 69.3438 120.177 69.3438 124.392C69.3767 125.942 69.8585 127.45 70.7308 128.732C78.8635 144.901 96.1971 154.304 114.186 152.305C132.175 150.306 147.021 137.327 151.405 119.766C155.789 102.206 148.785 83.7713 133.847 73.5518C118.909 63.3322 99.1895 63.4847 84.4112 73.9346V70.5049ZM121.086 109.276C121.086 102.856 115.89 97.6815 109.524 97.6815C103.114 97.6815 97.9615 102.899 97.9615 109.276C97.9822 115.658 103.141 120.832 109.524 120.87C115.933 120.87 121.086 115.664 121.086 109.276Z" fill="white"/>
</g>
<defs>
<clipPath id="clip0_4_384">
<rect width="220" height="220" fill="white" transform="translate(0 0.5)"/>
</clipPath>
</defs>
</svg>
