<svg width="220" height="221" viewBox="0 0 220 221" fill="none" xmlns="http://www.w3.org/2000/svg">
<g clip-path="url(#clip0_4_388)">
<path d="M110 220.5C170.751 220.5 220 171.251 220 110.5C220 49.7487 170.751 0.5 110 0.5C49.2487 0.5 0 49.7487 0 110.5C0 171.251 49.2487 220.5 110 220.5Z" fill="#00A8D6"/>
<path fill-rule="evenodd" clip-rule="evenodd" d="M98.4602 117.654V130.931V130.938H116.828C144.054 130.938 157.667 123.444 157.667 108.457V70.6481C157.667 55.6604 144.054 48.1665 116.828 48.1665H67.834V82.9069H86.2154V61.4505H118.873C132.486 61.4505 139.293 64.8579 139.293 71.6662V107.432C139.293 114.247 132.486 117.654 118.873 117.654H98.4602ZM139.3 139.111H139.293L139.3 139.104V139.111ZM157.667 139.111H139.3V149.333C139.3 156.142 132.493 159.549 118.88 159.549H86.2154V106.407H118.873C120.92 106.4 122.965 106.492 125.002 106.684V93.3789C122.425 93.2128 119.709 93.1296 116.828 93.1296H67.834V172.833H116.828C144.054 172.833 157.667 165.339 157.667 150.352V139.111Z" fill="white"/>
</g>
<defs>
<clipPath id="clip0_4_388">
<rect width="220" height="220" fill="white" transform="translate(0 0.5)"/>
</clipPath>
</defs>
</svg>
