<svg width="220" height="221" viewBox="0 0 220 221" fill="none" xmlns="http://www.w3.org/2000/svg">
<g clip-path="url(#clip0_4_610)">
<path d="M110 220.5C170.751 220.5 220 171.251 220 110.5C220 49.7487 170.751 0.5 110 0.5C49.2487 0.5 0 49.7487 0 110.5C0 171.251 49.2487 220.5 110 220.5Z" fill="#1B2B57"/>
<path d="M127.307 121.124L110.701 130.785L127.307 99.687V121.124Z" fill="#DF3121"/>
<path d="M109.191 137.428V99.0833L153.273 69.7965L129.421 39L176.219 73.7215L129.421 117.501V102.706L109.191 137.428Z" fill="#EFBF43"/>
<path d="M109.191 181.207V145.58L174.407 81.8735L109.191 181.207Z" fill="#EFBF43"/>
<path d="M91.0801 121.124L107.686 130.785L91.0801 99.687V121.124Z" fill="#DF3121"/>
<path d="M109.194 137.428V99.0833L65.1124 69.7965L88.9646 39L42.166 73.7215L88.9646 117.501V102.706L109.194 137.428Z" fill="#F8D749"/>
<path d="M109.195 181.207V145.58L43.9785 81.8735L109.195 181.207Z" fill="#F8D749"/>
<path fill-rule="evenodd" clip-rule="evenodd" d="M116.209 87.5396C120.051 85.573 120.377 84.9046 118.886 82.0356C117.384 79.1461 112.557 73.5839 110.68 72.5791C109.325 71.8543 109.178 71.9218 106.602 74.4448C103.548 77.4368 99.7551 82.8421 99.7551 84.2022C99.7551 84.7073 100.194 85.5173 100.73 86.0027C104.44 89.3598 111.318 90.043 116.209 87.5396ZM98.1754 81.4388C98.1922 79.6887 99.959 76.0787 102.936 71.7101L105.56 67.8608L103.753 66.2751C100.164 63.124 98.6665 63.5818 96.5365 68.4794C95.0187 71.9686 94.8919 76.6575 96.2208 80.1126C97.2526 82.7942 98.1563 83.4075 98.1754 81.4388ZM123.113 80.3779C124.709 76.8623 124.528 71.4576 122.692 67.8322C120.417 63.3389 119.346 63.1427 115.479 66.5082L113.961 67.8296L116.142 70.9371C118.579 74.413 121.506 80.2857 121.506 81.7041C121.507 83.2071 122.021 82.7832 123.113 80.3779ZM112.032 63.0159C113.304 62.4387 114.942 61.9516 115.671 61.9336C116.987 61.9006 116.985 61.8933 115.406 61.0181C114.317 60.4142 112.555 60.1348 109.835 60.1348C107.115 60.1348 105.353 60.4142 104.265 61.0181C102.679 61.897 102.678 61.9006 103.999 61.9611C105.015 62.0079 107.626 62.9623 109.645 64.0258C109.685 64.0477 110.76 63.593 112.032 63.0159Z" fill="#F5BB43"/>
</g>
<defs>
<clipPath id="clip0_4_610">
<rect width="220" height="220" fill="white" transform="translate(0 0.5)"/>
</clipPath>
</defs>
</svg>
