<svg width="220" height="221" viewBox="0 0 220 221" fill="none" xmlns="http://www.w3.org/2000/svg">
<g clip-path="url(#clip0_4_626)">
<path d="M110 220.5C170.751 220.5 220 171.251 220 110.5C220 49.7487 170.751 0.5 110 0.5C49.2487 0.5 0 49.7487 0 110.5C0 171.251 49.2487 220.5 110 220.5Z" fill="#FD7A3D"/>
<path fill-rule="evenodd" clip-rule="evenodd" d="M177.65 149.749C181.184 144.52 179.417 137.838 174.124 134.934L174.13 134.94C170.893 132.907 166.775 133.197 163.544 134.65C163.47 134.209 163.264 133.801 162.952 133.481L150.015 111.417L162.952 89.3457C163.102 89.1992 163.176 88.9788 163.249 88.759C163.321 88.5431 163.394 88.3276 163.537 88.1837C166.775 89.9267 170.597 89.9267 174.124 87.8933C176.641 86.4978 178.495 84.1429 179.27 81.358C180.044 78.573 179.674 75.5918 178.242 73.0846C175.299 67.8557 168.542 66.1196 163.248 69.0247C160.01 71.0512 157.955 74.2467 157.659 78.0163H130.608L117.677 55.9521C117.381 55.6615 117.086 55.3711 117.086 55.0805C120.021 53.0472 122.083 49.8517 122.083 46.075C122.083 39.9815 117.086 35.3335 111.208 35.3335C105.323 35.3335 100.326 40.2652 100.326 46.075C100.326 49.7459 102.218 53.154 105.323 55.0805L105.304 55.1003C105.021 55.3843 104.739 55.6681 104.739 55.9521L91.8011 78.0232H64.4612C64.1655 74.5371 62.3987 71.0512 58.8721 69.0177C53.5787 66.1126 46.8142 67.8557 43.8787 73.0846C42.446 75.5911 42.0743 78.5716 42.8475 81.3564C43.6204 84.1412 45.4733 86.4967 47.9898 87.8933C51.2276 89.9267 55.3455 89.6363 58.5765 88.1837C58.6501 88.625 58.8563 89.0331 59.1678 89.3527L72.1056 111.417L58.8721 133.488C58.723 133.634 58.6491 133.855 58.5754 134.075C58.503 134.291 58.4308 134.506 58.2878 134.65C55.0499 132.907 51.2276 132.907 47.701 134.94C42.4076 137.845 40.6409 144.52 43.5832 149.749C46.5255 154.978 53.2832 156.714 58.5765 153.809C61.8144 151.782 63.8699 148.587 64.1655 144.817H91.2169L104.148 166.882C104.443 167.172 104.739 167.463 104.739 167.753C101.804 169.787 99.7411 172.982 99.7411 176.759C99.7411 182.852 104.739 187.5 110.617 187.5C116.501 187.5 121.499 182.568 121.499 176.759C121.499 172.982 119.437 169.496 116.501 167.753L116.521 167.733C116.803 167.449 117.086 167.166 117.086 166.882L130.024 144.81H157.075C157.331 148.561 159.426 151.938 162.664 153.816C167.957 156.721 174.715 154.978 177.65 149.749ZM113.855 93.1222C120.028 93.1222 125.026 98.0608 125.026 104.154C125.026 107.059 123.85 109.383 122.379 111.707C124.146 113.45 125.026 116.065 125.026 118.679C125.026 124.773 120.028 129.711 113.855 129.711H99.7411C98.27 129.711 97.0945 128.549 97.0945 127.097V95.7367C97.0982 95.036 97.3796 94.3657 97.8766 93.875C98.3736 93.384 99.0448 93.113 99.7411 93.1222H113.855Z" fill="white"/>
</g>
<defs>
<clipPath id="clip0_4_626">
<rect width="220" height="220" fill="white" transform="translate(0 0.5)"/>
</clipPath>
</defs>
</svg>
