<svg width="220" height="221" viewBox="0 0 220 221" fill="none" xmlns="http://www.w3.org/2000/svg">
<g clip-path="url(#clip0_4_619)">
<path d="M110 220.5C170.751 220.5 220 171.251 220 110.5C220 49.7487 170.751 0.5 110 0.5C49.2487 0.5 0 49.7487 0 110.5C0 171.251 49.2487 220.5 110 220.5Z" fill="black"/>
<path d="M135.032 119.003C137.355 118.095 139.974 119.242 140.882 121.564C141.77 123.835 140.693 126.389 138.474 127.35L138.321 127.413L84.141 148.599C81.8185 149.507 79.1998 148.36 78.2917 146.038C77.4038 143.767 78.4802 141.213 80.6994 140.252L80.8525 140.189L135.032 119.003Z" fill="white"/>
<path d="M135.032 95.0388C137.355 94.1307 139.974 95.2771 140.882 97.5996C141.77 99.8703 140.693 102.424 138.474 103.386L138.321 103.449L84.141 124.635C81.8185 125.543 79.1998 124.396 78.2917 122.074C77.4038 119.803 78.4802 117.249 80.6994 116.288L80.8525 116.225L135.032 95.0388Z" fill="white"/>
<path d="M135.032 71.0745C137.355 70.1663 139.974 71.3128 140.882 73.6351C141.77 75.9059 140.693 78.4601 138.474 79.4213L138.321 79.4844L84.141 100.67C81.8185 101.578 79.1998 100.432 78.2917 98.1094C77.4038 95.8388 78.4802 93.2846 80.6994 92.3232L80.8525 92.2603L135.032 71.0745Z" fill="white"/>
<path d="M138.414 146.13C140.908 146.13 142.929 148.152 142.929 150.645C142.929 153.085 140.995 155.072 138.576 155.158L138.414 155.16H113.755C111.262 155.16 109.24 153.139 109.24 150.645C109.24 148.206 111.175 146.218 113.593 146.133L113.755 146.13H138.414Z" fill="white"/>
<path d="M107.162 64.166C109.656 64.166 111.677 66.1874 111.677 68.681C111.677 71.1204 109.743 73.1079 107.324 73.1932L107.162 73.1961H82.5032C80.0097 73.1961 77.9883 71.1745 77.9883 68.681C77.9883 66.2417 79.9228 64.254 82.3414 64.1688L82.5032 64.166H107.162Z" fill="white"/>
</g>
<defs>
<clipPath id="clip0_4_619">
<rect width="220" height="220" fill="white" transform="translate(0 0.5)"/>
</clipPath>
</defs>
</svg>
