<svg width="220" height="221" viewBox="0 0 220 221" fill="none" xmlns="http://www.w3.org/2000/svg">
<g clip-path="url(#clip0_4_629)">
<path d="M110 220.5C170.751 220.5 220 171.251 220 110.5C220 49.7487 170.751 0.5 110 0.5C49.2487 0.5 0 49.7487 0 110.5C0 171.251 49.2487 220.5 110 220.5Z" fill="#EDF0F4"/>
<path fill-rule="evenodd" clip-rule="evenodd" d="M124.634 51.6421C114.962 49.4682 104.789 49.4106 95.1343 51.7217C82.2937 54.7221 70.4797 61.863 61.7939 71.7655C54.7055 79.7902 49.6746 89.6178 47.3604 100.073C45.4668 108.49 45.3516 117.297 46.9224 125.772C49.0993 137.761 54.8826 149.02 63.1922 157.919C63.2998 157.933 63.4644 157.954 63.6258 157.973L63.6281 157.974L63.6303 157.974L63.6355 157.975C63.7757 157.992 63.9127 158.009 64.0064 158.021C67.6169 158.365 71.2275 158.626 74.8513 158.675C78.4 158.754 81.9397 158.52 85.4796 158.268C84.4796 156.147 83.5458 154 82.6609 151.83C82.6211 151.72 82.5327 151.503 82.4884 151.393C77.223 151.751 71.9309 151.627 66.6744 151.176C62.4312 146.108 58.8736 140.403 56.6215 134.172C58.8428 129.365 61.3515 124.685 64.2806 120.266C68.3292 125.211 72.8249 129.785 77.6788 133.947C80.6301 136.378 83.6432 138.741 86.851 140.823C87.112 141.017 87.6342 141.402 87.8952 141.592C88.0991 143.987 89.5766 146.232 91.7403 147.31C93.6741 148.335 96.0367 148.264 98.0105 147.385C98.7004 147.707 99.3908 148.03 100.081 148.366C103.356 149.939 106.736 151.304 110.165 152.515C116.116 154.61 122.271 156.099 128.501 157.088C126.191 161.622 123.51 165.961 120.563 170.111L121.324 169.943C124.643 169.263 127.895 168.286 131.054 167.057C132.357 164.915 133.521 162.696 134.685 160.478C135.135 159.622 135.584 158.766 136.041 157.915C141.007 158.353 145.989 158.244 150.969 158.136C152.826 158.096 154.684 158.055 156.541 158.043C163.324 151.11 168.288 142.418 171.235 133.183L171.076 132.829C169.642 129.502 168.049 126.249 166.364 123.041C165.749 126.44 164.983 129.824 163.784 133.072C161.527 139.502 158.054 145.48 153.691 150.708C148.789 151.163 143.864 151.273 138.943 151.048C141.253 144.99 143.023 138.733 144.187 132.356L144.251 131.96C144.584 129.918 144.917 127.875 145.129 125.821C145.333 124.221 145.452 122.617 145.559 121.009L145.579 120.758L145.623 120.214L145.623 120.209C145.644 119.956 145.664 119.708 145.678 119.537C148.054 117.536 148.948 113.974 147.598 111.146C147.391 110.546 146.975 110.06 146.567 109.583C145.915 108.82 145.281 108.079 145.545 106.926C145.333 103.25 144.828 99.5997 144.235 95.9719C143.072 89.6836 141.373 83.502 139.107 77.5235C144.121 77.3156 149.151 77.3907 154.138 77.9475C158.094 82.8874 161.302 88.4067 163.54 94.3282C164.881 91.2304 166.045 88.0666 167.103 84.8583C164.54 79.9224 161.364 75.3092 157.638 71.1735L157.28 71.1514C156.581 71.0876 155.883 71.0192 155.184 70.9508C152.841 70.7214 150.498 70.4921 148.142 70.431C144.151 70.1967 140.151 70.3825 136.169 70.6166C134.674 67.5632 133.129 64.5365 131.364 61.6287C129.391 58.2837 127.165 55.1022 124.868 51.9736C124.807 51.8896 124.691 51.7261 124.634 51.6421ZM90.5325 60.5107C93.8554 59.2382 97.3378 58.4163 100.838 57.8153C107.364 56.8077 114.05 56.8475 120.545 58.0494C123.634 62.2694 126.315 66.7677 128.7 71.4165C122.479 72.4505 116.329 73.9573 110.342 75.9325C109.598 76.2275 108.85 76.5172 108.103 76.807C105.515 77.8106 102.923 78.8154 100.431 80.0465C100.112 80.1895 99.7952 80.3342 99.4788 80.4786L99.4766 80.4797C99.2663 80.5756 99.0564 80.6713 98.8467 80.7665C95.7406 78.7162 91.1566 79.6709 89.1608 82.8169C88.3246 84.0278 87.9616 85.499 87.953 86.9573C87.4706 87.3107 86.9841 87.6512 86.4883 87.9782L86.4927 88.0532C83.9983 89.5677 81.7138 91.3943 79.4329 93.2175C78.7524 93.7617 78.0721 94.3056 77.3868 94.8408C72.692 98.9764 68.2408 103.44 64.285 108.309C61.3293 103.829 58.7498 99.1049 56.5639 94.2088C58.7276 88.1106 62.1213 82.4282 66.2894 77.4701C68.5858 74.62 71.2761 72.1148 74.0726 69.7639C79.0371 65.8576 84.5679 62.6273 90.5325 60.5107ZM121.271 80.1437C117.722 81.0008 114.227 82.0745 110.811 83.3516L110.953 83.4092C108.788 83.9975 106.722 84.9422 104.663 85.884C103.83 86.2648 102.998 86.6452 102.161 87.0014C101.917 88.9811 101.09 90.9611 99.4705 92.2072C97.3422 93.9919 94.174 94.2618 91.7273 92.9757C88.8203 94.9246 85.935 96.9306 83.2982 99.2419C80.2805 101.624 77.4885 104.288 74.8293 107.059C72.6124 109.352 70.5592 111.796 68.577 114.288C70.7539 117.028 73.0152 119.705 75.4885 122.184L75.4751 122.242C78.1256 124.849 80.8026 127.443 83.7361 129.736C86.0548 131.676 88.5193 133.43 91.0104 135.131C93.2139 133.673 96.2184 133.576 98.4926 134.928C100.807 136.228 102.121 138.874 102.041 141.49C104.869 142.825 107.718 144.115 110.66 145.171C114.13 146.479 117.683 147.566 121.284 148.445C124.674 149.285 128.116 149.886 131.572 150.381C132.921 147.049 134.134 143.66 135.09 140.191L135.138 140.169C136.103 136.537 136.961 132.873 137.536 129.157C137.997 126.334 138.28 123.488 138.519 120.633C136.687 119.834 135.16 118.313 134.51 116.409C133.2 112.975 135.116 108.853 138.51 107.514C138.288 104.615 138.001 101.721 137.51 98.8572C136.961 95.1453 136.085 91.4911 135.103 87.8767C134.134 84.5934 133.023 81.359 131.758 78.1815C128.231 78.6633 124.723 79.2732 121.271 80.1437ZM53.7632 124.062C52.6745 117.593 52.6835 110.965 53.7278 104.491C55.6038 107.841 57.617 111.106 59.7763 114.283C57.6436 117.465 55.586 120.695 53.7632 124.062Z" fill="#874FA9"/>
<path opacity="0.19" d="M124.867 51.9739C125.522 51.722 126.177 52.0798 126.814 52.2124C132.141 53.7148 137.389 55.743 142.088 58.6905C140.393 60.5861 138.017 61.6689 136.19 63.423C134.624 62.7295 133.128 61.6467 131.362 61.6289C129.389 58.2838 127.163 55.1025 124.867 51.9739Z" fill="#874FA9"/>
<path opacity="0.2" d="M90.53 60.5108C93.8529 59.2383 97.3353 58.4164 100.835 57.8154C97.9194 62.1282 94.9905 66.4763 92.7868 71.2089C98.1052 72.0615 103.353 73.3298 108.468 75.0222C109.136 75.2257 109.751 75.5526 110.34 75.9326C107.017 77.2495 103.641 78.46 100.428 80.0466C96.9018 79.1054 93.3086 78.3763 89.6848 77.93C88.4151 81.0009 87.2427 84.1337 86.4153 87.3508L86.486 87.9784L86.4903 88.0533C83.2515 90.02 80.3666 92.5122 77.3843 94.8409C78.2338 88.7647 80.34 82.9631 82.2116 77.1523C76.9019 76.8339 71.579 76.9666 66.2871 77.4702C68.5835 74.6201 71.2738 72.1149 74.0702 69.764C77.7913 69.9847 81.5302 69.9319 85.2515 70.2324C86.9548 66.9625 88.6673 63.6969 90.53 60.5108Z" fill="#874FA9"/>
<path opacity="0.16" d="M142.088 58.6899L142.163 58.6016C147.345 61.6416 152.101 65.4021 156.26 69.7327C156.645 70.1659 157.136 70.5589 157.278 71.1509C154.234 70.8728 151.198 70.5103 148.141 70.431C146.477 70.4132 145.216 69.2906 143.99 68.3186C141.548 66.4495 138.867 64.9251 136.189 63.4225C138.017 61.6682 140.393 60.5856 142.088 58.6899Z" fill="#874FA9"/>
<path opacity="0.16" d="M110.809 83.3513C114.225 82.0744 117.72 81.0006 121.269 80.1436C124.41 81.8095 127.578 83.4399 130.565 85.3843C128.76 87.1648 126.437 88.2738 124.578 89.9975C120.242 87.4081 115.627 85.318 110.95 83.4091L110.809 83.3513Z" fill="#874FA9"/>
<path opacity="0.16" d="M74.8301 107.058C77.4893 104.288 80.2813 101.623 83.299 99.2412C83.6928 100.474 83.3963 101.756 83.2414 103.002C82.153 111.884 82.4628 120.894 83.737 129.736C80.8034 127.442 78.1264 124.849 75.476 122.241L75.4893 122.184C75.8124 121.331 75.6707 120.416 75.6443 119.533C75.3832 115.33 75.4496 111.115 75.6796 106.908C75.4672 106.948 75.0424 107.023 74.8301 107.058Z" fill="#874FA9"/>
<path opacity="0.07" d="M163.538 94.3281C164.879 91.2303 166.043 88.0664 167.1 84.8584C170.304 90.9432 172.361 97.6202 173.383 104.412C173.197 105.221 173.41 106.369 172.516 106.807C170.676 108 169.003 109.489 166.976 110.368C166.782 108.667 166.72 106.926 166.197 105.278C164.791 107.076 163.87 109.193 162.565 111.058C161.936 112.167 160.813 113.17 160.959 114.553C159.866 116.232 158.052 117.12 156.357 118.061C153.454 120.346 150.286 122.277 147.463 124.663C146.751 125.167 145.923 125.472 145.127 125.821C145.33 124.221 145.45 122.617 145.556 121.009C148.127 119.149 150.136 116.55 151.835 113.904C150.521 112.034 148.844 110.457 147.508 108.601C149.153 106.93 151.671 106.188 152.746 103.987C153.994 105.194 155.052 106.573 156.145 107.916C159.104 103.678 161.335 98.9899 163.538 94.3281Z" fill="#874FA9"/>
<path opacity="0.07" d="M88.5564 147.354C89.0344 148.414 89.2907 149.611 90.0696 150.504C93.4545 150.071 96.8306 149.439 100.079 148.365C103.353 149.939 106.733 151.304 110.162 152.515C109.746 152.815 109.299 153.054 108.817 153.226C103.755 154.985 98.5341 156.253 93.264 157.225C93.1847 158.811 94.6757 160.04 95.1181 161.542C93.2376 162.855 91.1447 163.885 89.5517 165.572C87.9281 163.292 86.8261 160.707 85.477 158.268C84.4767 156.147 83.5432 154 82.6582 151.83C84.4945 150.155 86.95 149.284 88.5564 147.354Z" fill="#874FA9"/>
<path opacity="0.14" d="M130.567 85.3838C132.147 86.0821 133.35 87.6467 135.102 87.876C136.085 91.4908 136.961 95.145 137.509 98.857C133.315 95.7372 129.111 92.622 124.58 89.9974C126.439 88.2739 128.762 87.1647 130.567 85.3838Z" fill="#874FA9"/>
<path opacity="0.1" d="M144.232 95.9717C144.993 96.303 145.732 96.7098 146.321 97.3106C148.524 99.4757 150.768 101.61 152.746 103.988C151.67 106.188 149.153 106.93 147.507 108.601C146.927 107.96 146.246 107.417 145.542 106.926C145.33 103.25 144.825 99.5998 144.232 95.9717Z" fill="#874FA9"/>
<path opacity="0.04" d="M173.385 104.412C174.354 108.905 174.221 113.607 174.035 118.198C173.451 123.13 172.889 128.176 171.075 132.829C169.642 129.502 168.049 126.249 166.363 123.041C165.748 126.439 164.983 129.824 163.783 133.072C162.005 130.655 160.991 127.796 159.5 125.211C161.323 123.837 163.27 122.599 165.266 121.508C165.522 121.685 166.035 122.038 166.288 122.215C167.164 118.362 166.964 114.314 166.978 110.368C169.005 109.489 170.677 108 172.518 106.807C173.412 106.369 173.199 105.22 173.385 104.412Z" fill="#874FA9"/>
<path opacity="0.05" d="M160.963 114.553C162.738 116.639 164.061 119.065 165.269 121.508C163.273 122.599 161.326 123.837 159.503 125.211C158.494 123.581 157.6 121.862 156.357 120.395C154.278 121.809 153.096 124.142 151.247 125.812C148.884 127.982 146.941 130.66 144.189 132.356C144.543 130.182 144.906 128.008 145.132 125.821C145.928 125.472 146.756 125.167 147.468 124.663C150.291 122.277 153.459 120.346 156.361 118.061C158.056 117.12 159.871 116.232 160.963 114.553Z" fill="#874FA9"/>
<path opacity="0.05" d="M95.1174 161.542C96.1531 162.828 96.808 164.371 97.7547 165.718C98.6798 167.239 99.8476 168.613 100.609 170.226C96.6574 170.327 92.7018 170.212 88.7506 170.319C86.7771 170.283 84.7903 170.473 82.8301 170.164C83.4983 169.854 84.0868 169.404 84.5912 168.869C85.4407 167.91 87.0026 167.804 87.5203 166.527C88.3435 166.854 89.193 167.093 90.0648 167.252C89.9143 166.686 89.7551 166.121 89.5513 165.573C91.1441 163.885 93.237 162.855 95.1174 161.542Z" fill="#874FA9"/>
<path opacity="0.06" d="M118.375 141.605C125.295 138.343 131.592 133.938 137.534 129.157C136.959 132.873 136.1 136.536 135.136 140.168L135.087 140.191C132.623 141.233 130.627 143.067 128.286 144.327C126.008 145.798 123.406 146.753 121.282 148.445C117.68 147.565 114.127 146.478 110.658 145.17C113.207 143.929 115.897 142.988 118.375 141.605Z" fill="#874FA9"/>
<path opacity="0.11" d="M77.6797 133.947C80.631 136.378 83.6443 138.741 86.8522 140.823C86.6663 141.282 86.6485 141.742 86.7947 142.206C87.3212 143.942 87.9139 145.657 88.5602 147.354C86.9538 149.285 84.4982 150.155 82.662 151.83C82.622 151.72 82.5336 151.503 82.4893 151.393C80.6088 146.412 78.9716 141.331 77.8256 136.13C77.6929 135.41 77.6929 134.672 77.6797 133.947Z" fill="#874FA9"/>
<path opacity="0.08" d="M64.002 158.021C67.6125 158.365 71.2231 158.626 74.847 158.675C76.577 160.517 78.816 161.745 80.9309 163.089C83.0239 164.419 85.2583 165.515 87.5194 166.527C87.0015 167.804 85.4399 167.91 84.5903 168.869C84.0858 169.403 83.4972 169.854 82.8292 170.163C81.2008 170.256 79.3867 170.552 77.9576 169.567C72.9222 166.664 68.1744 163.164 64.1922 158.922C64.1435 158.696 64.0507 158.246 64.002 158.021Z" fill="#874FA9"/>
</g>
<defs>
<clipPath id="clip0_4_629">
<rect width="220" height="220" fill="white" transform="translate(0 0.5)"/>
</clipPath>
</defs>
</svg>
