<svg width="220" height="221" viewBox="0 0 220 221" fill="none" xmlns="http://www.w3.org/2000/svg">
<g clip-path="url(#clip0_4_647)">
<path d="M110 220.5C170.751 220.5 220 171.251 220 110.5C220 49.7487 170.751 0.5 110 0.5C49.2487 0.5 0 49.7487 0 110.5C0 171.251 49.2487 220.5 110 220.5Z" fill="#EDF0F4"/>
<path d="M103.177 45.4925L44.9921 103.677C41.224 107.445 41.224 113.554 44.9921 117.322L103.177 175.507C106.945 179.275 113.054 179.275 116.822 175.507L175.007 117.322C178.775 113.554 178.774 107.445 175.007 103.677L116.822 45.4925C113.054 41.7245 106.945 41.7245 103.177 45.4925Z" fill="#F0B80B"/>
<path fill-rule="evenodd" clip-rule="evenodd" d="M113.472 81.0369C112.363 80.9658 111.328 80.8994 110.4 80.8228L110.396 80.8229C102.287 81.2303 95.455 81.5737 88.9406 83.8182C85.7218 84.9408 82.5665 86.3706 80.0746 88.7228C76.2347 92.3544 74.3359 97.0087 73.9969 102.306C73.8206 104.959 74.2653 105.402 76.8628 105.23C76.9488 105.224 77.0335 105.212 77.118 105.2C77.2348 105.183 77.3512 105.166 77.47 105.166C78.4149 105.04 79.3591 104.908 80.3034 104.776C82.675 104.444 85.047 104.113 87.4301 103.872C88.0813 103.853 88.7155 103.655 89.2657 103.302C89.8158 102.949 90.2621 102.452 90.5572 101.863C91.8065 99.6469 95.6889 99.3251 96.9101 101.513C97.7793 103.071 98.8247 103.06 100.073 103.046C100.193 103.044 100.315 103.043 100.439 103.043C101.977 103.068 103.515 103.093 105.053 103.117C111.23 103.214 117.407 103.311 123.578 103.5L123.766 103.506C125.352 103.556 126.732 103.598 128.117 102.457C129.557 101.27 131.428 101.835 132.557 103.414C132.903 103.894 133.402 104.237 133.969 104.387C137.449 105.052 140.915 105.652 144.444 106.224C145.63 106.424 146.195 105.781 145.997 104.601C145.602 102.228 145.185 99.8469 144.691 97.4949C143.809 93.3054 141.289 90.174 138.014 87.7001C133.404 84.2472 128.025 82.6742 122.484 81.8665C119.355 81.4146 116.191 81.2114 113.472 81.0369ZM104.011 85.5427C103.642 85.7612 103.251 85.9924 102.875 86.2634C102.68 85.981 102.47 85.7374 102.284 85.5209C101.951 85.1344 101.692 84.8343 101.724 84.5547C101.865 83.1249 103.072 83.1249 104.138 83.1249C104.851 83.1318 106.08 83.2607 105.698 84.1185C105.442 84.6962 104.772 85.0922 104.011 85.5427ZM115.87 82.617L113.604 84.0472C114.438 84.589 115.343 85.0077 116.294 85.2911C116.605 85.3405 116.991 84.9503 117.377 84.5607C117.55 84.3857 117.723 84.2108 117.889 84.0758L115.87 82.617ZM92.6324 86.3063L89.7524 88.6441L89.7383 88.6084C89.5322 88.3207 89.3386 88.0855 89.1716 87.8827C88.8695 87.5159 88.6542 87.2545 88.6088 86.9782C88.4676 86.2276 90.0914 85.2409 91.3406 85.3911C91.6561 85.4255 91.9451 85.6934 92.2347 85.9618C92.3662 86.0837 92.498 86.2058 92.6324 86.3063ZM108.233 87.8646C108.487 87.8287 108.697 87.8131 108.871 87.8001C109.18 87.7771 109.374 87.7627 109.496 87.6574C110.044 87.1507 110.568 86.6163 111.063 86.056C110.435 85.797 109.795 85.5726 109.143 85.3839C108.994 85.3538 108.84 85.354 108.691 85.3846C108.542 85.4153 108.4 85.4759 108.275 85.5628C107.78 85.9843 107.309 86.4329 106.863 86.9069L108.233 87.8646ZM129.839 87.6433C128.526 87.9005 127.433 87.1355 126.832 85.5843L126.818 85.5484C127.381 85.2158 128.034 85.0744 128.682 85.1454C129.33 85.216 129.938 85.4952 130.418 85.9414C130.68 86.1704 130.99 86.7496 130.884 86.9281C130.643 87.2972 130.267 87.5542 129.839 87.6433ZM119.562 88.2294C119.812 88.1913 120.025 88.175 120.207 88.1609C120.537 88.1354 120.762 88.118 120.917 87.9935L121.002 87.9251C121.486 87.5357 122.151 87.0018 122.117 86.5635C122.039 85.6556 121.228 85.434 120.374 85.7343C120.026 85.8074 119.693 85.9429 119.392 86.1345C119.037 86.4945 118.716 86.8872 118.433 87.3071L119.562 88.2294ZM98.6894 88.263C98.4464 88.4593 98.1718 88.6815 97.9124 88.9442L95.604 86.971C95.7612 86.8739 95.921 86.7486 96.0811 86.6232C96.4388 86.3431 96.7972 86.0622 97.1288 86.0918C97.2616 86.1035 97.4053 86.1092 97.5538 86.1149C98.3931 86.1469 99.3869 86.1851 99.4229 87.4002C99.4319 87.6624 99.1075 87.9247 98.6894 88.263Z" fill="#1E2125"/>
<path d="M107.987 140.177C102.621 139.884 97.2418 139.782 91.904 139.25C85.2714 138.568 79.7536 135.902 76.8111 129.567C76.3491 128.435 76.1025 127.228 76.084 126.008C76.084 125.646 76.9288 124.883 77.358 124.903C80.7297 125.087 84.0874 125.462 87.4591 125.687C90.637 125.892 93.8149 125.987 96.9926 126.117C98.0174 126.158 98.7583 126.376 99.118 127.528C99.4641 128.34 99.9514 129.085 100.558 129.731C101.825 131.36 103.258 131.51 104.913 130.263C105.515 129.927 106.073 129.519 106.575 129.049C108.472 126.608 110.992 126.206 113.955 126.192C123.011 126.113 132.049 125.363 140.991 123.949C142.064 123.785 143.109 123.458 144.176 123.267C145.429 123.049 145.99 123.574 146.031 124.869C146.19 129.69 143.262 133.808 138.879 135.936C131.817 139.345 124.215 139.584 116.648 140.068C113.775 140.252 110.881 140.068 107.994 140.068L107.987 140.177Z" fill="#1E2125"/>
<path d="M147.583 114.739C145.124 113.785 142.777 113.024 140.536 111.968C139.035 111.25 137.823 110.913 136.35 112.076C135.64 112.642 134.771 112.962 133.869 112.989C132.968 113.016 132.082 112.749 131.34 112.227C130.803 111.852 130.169 111.648 129.519 111.639C128.868 111.63 128.229 111.817 127.683 112.177C126.468 112.828 125.119 113.178 123.746 113.198C122.373 113.218 121.016 112.907 119.783 112.291C119.219 111.96 118.588 111.767 117.938 111.729C117.288 111.69 116.639 111.807 116.041 112.069C115.405 112.411 114.681 112.542 113.968 112.444C113.256 112.346 112.591 112.024 112.067 111.523C111.683 111.107 111.17 110.84 110.614 110.768C110.059 110.696 109.496 110.823 109.022 111.128C107.827 111.703 106.521 112 105.199 112C103.877 112 102.572 111.703 101.376 111.128C100.242 110.655 99.4879 110.525 98.5577 111.796C97.8953 112.715 96.4928 113.232 95.3162 113.584C94.2297 113.958 93.0795 114.101 91.9366 114.005C90.7937 113.908 89.6821 113.575 88.6707 113.024C88.0739 112.686 87.4132 112.482 86.733 112.424C86.0529 112.365 85.3683 112.455 84.7244 112.686C82.6808 113.261 80.6374 113.332 78.6924 112.191C77.5999 111.552 76.7262 112.191 75.7466 112.736C74.4886 113.444 73.1281 113.943 71.7158 114.215C71.314 114.207 70.9213 114.093 70.5755 113.884C70.2299 113.675 69.943 113.379 69.7428 113.024C69.692 112.592 69.7479 112.155 69.9054 111.751C70.0631 111.347 70.3172 110.99 70.6448 110.712C72.5474 109.7 74.5628 108.594 76.6416 108.307C81.5744 107.589 86.6131 107.316 91.6163 106.957C102.638 106.045 113.713 106.028 124.737 106.907C130.374 107.417 136.012 107.905 141.649 108.63C143.919 108.924 146.11 109.829 148.337 110.453C149.598 110.812 150.663 111.595 150.141 112.945C149.859 113.706 148.605 114.065 147.583 114.739Z" fill="#1E2125"/>
<path d="M96.4106 123.219C90.1831 122.866 84.0176 122.526 77.8178 122.139C76.5587 122.067 76.0327 121.132 76.0879 119.523C76.1363 118.319 76.8975 117.978 77.9771 118.044C82.6822 118.332 87.3875 118.698 92.0997 118.921C103.676 119.392 115.252 119.536 126.808 118.391C132.385 117.834 137.976 117.403 143.56 116.925C144.605 116.834 145.76 116.631 146.016 118.044C146.196 119.025 145.186 120.164 143.864 120.366C140.892 120.925 137.889 121.329 134.869 121.577C123.846 122.094 112.817 122.454 101.794 122.846C100.002 122.911 98.2166 122.846 96.4245 122.846L96.4106 123.219Z" fill="#1E2125"/>
</g>
<defs>
<clipPath id="clip0_4_647">
<rect width="220" height="220" fill="white" transform="translate(0 0.5)"/>
</clipPath>
</defs>
</svg>
