<svg width="220" height="221" viewBox="0 0 220 221" fill="none" xmlns="http://www.w3.org/2000/svg">
<g clip-path="url(#clip0_4_654)">
<path d="M110 220.5C170.751 220.5 220 171.251 220 110.5C220 49.7487 170.751 0.5 110 0.5C49.2487 0.5 0 49.7487 0 110.5C0 171.251 49.2487 220.5 110 220.5Z" fill="#2D2D2D"/>
<path fill-rule="evenodd" clip-rule="evenodd" d="M80.4782 133.16L27.5 115.794H62.9404L66.4464 98.998L97.92 99.0187L105.771 55.5H137.437C158.873 55.5 167.563 64.1282 164.352 81.9343L163.665 85.75C161.788 96.1245 157.051 103.02 148.911 107.001C156.976 111.126 159.684 118.929 157.656 130.169L156.089 138.873C152.954 156.239 140.18 165.5 119.432 165.5H85.9162L94.5993 117.423H84.0807L80.4782 133.16ZM115.307 114.274L108.817 150.231H122.189C130.122 150.231 134.529 146.711 136.028 138.406L137.712 129.104C139.623 118.496 135.952 114.274 125.55 114.274H115.307ZM117.5 102.14L123.165 70.7625H124.437H134.13C142.249 70.7625 145.453 75.0318 143.906 83.605L142.827 89.5587C141.239 98.3588 136.062 102.14 127.207 102.14H117.5Z" fill="white"/>
</g>
<defs>
<clipPath id="clip0_4_654">
<rect width="220" height="220" fill="white" transform="translate(0 0.5)"/>
</clipPath>
</defs>
</svg>
