<svg width="220" height="221" viewBox="0 0 220 221" fill="none" xmlns="http://www.w3.org/2000/svg">
<g clip-path="url(#clip0_4_657)">
<path d="M110 220.5C170.751 220.5 220 171.251 220 110.5C220 49.7487 170.751 0.5 110 0.5C49.2487 0.5 0 49.7487 0 110.5C0 171.251 49.2487 220.5 110 220.5Z" fill="#F04086"/>
<path fill-rule="evenodd" clip-rule="evenodd" d="M143.182 106.458C151.354 107.608 157.607 110.568 161.956 115.336C166.359 120.214 168.754 126.556 168.664 133.105C168.664 143.004 165.289 151.067 158.104 156.526C150.912 161.986 140.545 165.5 126.983 165.5H73.6511V133.023H97.1663V147.23H124.94C131.29 147.23 136.08 145.525 139.255 142.942C142.437 140.353 144.031 136.229 144.031 131.399C144.031 126.57 142.416 123.303 139.255 120.775C136.094 118.247 131.31 117.802 124.94 117.802H44V99.5321H73.6511V51.8335H125.285C138.958 51.8335 149.049 53.594 155.771 58.9373C162.494 64.2873 165.738 71.0895 165.738 81.0979C165.777 87.1123 163.669 92.9464 159.788 97.566C155.965 102.224 150.339 105.135 143.182 106.286V106.458ZM97.1663 99.484H121.972C134.727 99.484 141.091 94.545 141.091 84.7697C141.091 74.9944 134.727 70.0552 121.972 70.0552H97.1663V99.484Z" fill="white"/>
</g>
<defs>
<clipPath id="clip0_4_657">
<rect width="220" height="220" fill="white" transform="translate(0 0.5)"/>
</clipPath>
</defs>
</svg>
