<svg width="220" height="221" viewBox="0 0 220 221" fill="none" xmlns="http://www.w3.org/2000/svg">
<g clip-path="url(#clip0_4_660)">
<path d="M110 220.5C170.751 220.5 220 171.251 220 110.5C220 49.7487 170.751 0.5 110 0.5C49.2487 0.5 0 49.7487 0 110.5C0 171.251 49.2487 220.5 110 220.5Z" fill="#EDF0F4"/>
<g opacity="0.8">
<path fill-rule="evenodd" clip-rule="evenodd" d="M125.195 101.032L90.2745 66.1109L70.8069 71.3213L95.5734 46.3335L125.195 101.032ZM94.806 119.969L129.727 154.889L149.18 149.679L124.428 174.667L94.806 119.969ZM65.6114 130.226L88.0017 82.7596L53.7303 117.046L45.834 124.927L70.8218 149.679L65.6114 130.226ZM119.469 125.695L154.405 90.7594L149.18 71.3064L174.167 96.0729L119.469 125.695Z" fill="#040000"/>
</g>
<g opacity="0.8">
<path fill-rule="evenodd" clip-rule="evenodd" d="M103.457 54.2298L137.728 88.4864L125.197 101.032L95.5753 46.3335L103.457 54.2298ZM124.43 174.667L82.2766 132.499L94.8078 119.969L124.43 174.667ZM100.534 95.3055L88.0036 82.7596L65.6133 130.226L100.534 95.3055ZM174.169 96.0729L132.001 138.226L119.471 125.695L174.169 96.0729Z" fill="#323333"/>
</g>
<g opacity="0.8">
<path fill-rule="evenodd" clip-rule="evenodd" d="M124.428 46.3335L163.659 56.842L135.926 67.7644L124.428 46.3335ZM45.834 96.0729L56.3573 56.842L67.2649 84.5607L45.834 96.0729ZM174.167 124.927L163.659 164.158L152.737 136.425L174.167 124.927ZM56.3573 164.143L95.5734 174.667L84.076 153.222L56.3573 164.143Z" fill="#555555"/>
</g>
<g opacity="0.8">
<path fill-rule="evenodd" clip-rule="evenodd" d="M95.5734 46.3335L70.8069 71.3213L67.2649 84.5607L56.3573 56.842L95.5734 46.3335ZM124.428 174.667L149.18 149.679L152.737 136.425L163.659 164.158L124.428 174.667ZM70.8218 149.679L45.834 124.927L56.3573 164.143L84.076 153.222L70.8218 149.679ZM174.167 96.0729L149.18 71.3064L135.926 67.7644L163.659 56.842L174.167 96.0729Z" fill="#323333"/>
</g>
<g opacity="0.8">
<path fill-rule="evenodd" clip-rule="evenodd" d="M119.469 51.3077L124.428 46.3335L135.926 67.7644L119.469 51.3077ZM45.834 96.0729L67.2649 84.5607L50.8082 101.032L45.834 96.0729ZM174.167 124.927L152.737 136.426L169.193 119.969L174.167 124.927ZM95.5734 174.667L100.532 169.693L84.076 153.222L95.5734 174.667Z" fill="#040000"/>
</g>
</g>
<defs>
<clipPath id="clip0_4_660">
<rect width="220" height="220" fill="white" transform="translate(0 0.5)"/>
</clipPath>
</defs>
</svg>
