<svg width="220" height="221" viewBox="0 0 220 221" fill="none" xmlns="http://www.w3.org/2000/svg">
<g clip-path="url(#clip0_4_672)">
<path d="M110 220.5C170.751 220.5 220 171.251 220 110.5C220 49.7487 170.751 0.5 110 0.5C49.2487 0.5 0 49.7487 0 110.5C0 171.251 49.2487 220.5 110 220.5Z" fill="#EDF0F4"/>
<path d="M45.834 72.0002C45.834 57.8835 57.384 46.3335 71.5006 46.3335H148.501C162.617 46.3335 174.167 57.8835 174.167 72.0002V149C174.167 163.117 162.617 174.667 148.501 174.667H71.5006C57.384 174.667 45.834 163.117 45.834 149V72.0002Z" fill="url(#paint0_linear_4_672)"/>
<path d="M97.1673 46.3335H84.334V75.8502H97.1673V46.3335Z" fill="white"/>
<path d="M118.824 137.289H101.819C92.1944 137.289 84.334 129.429 84.334 119.804V107.292H97.1673V119.644C97.1673 122.21 99.2527 124.296 101.819 124.296H118.824C121.39 124.296 123.476 122.21 123.476 119.644V102.8C123.476 100.233 121.39 98.1478 118.824 98.1478H45.834V85.3145H118.824C128.449 85.3145 136.309 93.1749 136.309 102.8V119.804C136.309 129.429 128.449 137.289 118.824 137.289Z" fill="white"/>
</g>
<defs>
<linearGradient id="paint0_linear_4_672" x1="217.159" y1="114.992" x2="114.492" y2="12.3252" gradientUnits="userSpaceOnUse">
<stop offset="0.1594" stop-color="#003CDA"/>
<stop offset="1" stop-color="#33DFCC"/>
</linearGradient>
<clipPath id="clip0_4_672">
<rect width="220" height="220" fill="white" transform="translate(0 0.5)"/>
</clipPath>
</defs>
</svg>
