<svg width="220" height="221" viewBox="0 0 220 221" fill="none" xmlns="http://www.w3.org/2000/svg">
<g clip-path="url(#clip0_4_677)">
<path d="M110 220.5C170.751 220.5 220 171.251 220 110.5C220 49.7487 170.751 0.5 110 0.5C49.2487 0.5 0 49.7487 0 110.5C0 171.251 49.2487 220.5 110 220.5Z" fill="#EDF0F4"/>
<path d="M76.8739 109.94C76.5609 115.376 80.7457 120.03 86.1819 120.343C86.3775 120.343 86.573 120.343 86.7686 120.343C92.2438 120.343 96.6633 115.924 96.624 110.449C96.624 104.973 92.2048 100.554 86.7293 100.593C81.4888 100.593 77.1476 104.7 76.8739 109.94Z" fill="#0033AD"/>
<path d="M40.0327 107.399C38.2727 107.281 36.7476 108.65 36.6693 110.41C36.591 112.17 37.9207 113.695 39.6807 113.773C41.4405 113.891 42.9268 112.522 43.0442 110.762C43.1615 109.002 41.7925 107.516 40.0327 107.399Z" fill="#0033AD"/>
<path d="M76.2463 52.6063C77.8105 51.824 78.4364 49.8686 77.6541 48.3042C76.872 46.7398 74.9166 46.1141 73.3522 46.8964C71.7878 47.6785 71.1619 49.5949 71.9442 51.1592C72.7263 52.7627 74.6427 53.4276 76.2463 52.6063Z" fill="#0033AD"/>
<path d="M86.2645 70.0879C88.6894 68.8755 89.6671 65.9033 88.4547 63.4785C87.2424 61.0537 84.27 60.076 81.8452 61.2884C79.4204 62.5008 78.4427 65.473 79.6551 67.8978C80.8675 70.3225 83.8397 71.3002 86.2645 70.0879Z" fill="#0033AD"/>
<path d="M52.5505 82.0947C54.4279 83.3071 56.9309 82.7987 58.1823 80.9214C59.3947 79.0442 58.8863 76.5412 57.009 75.2897C55.1319 74.0774 52.6288 74.5857 51.3774 76.4629C50.1258 78.3402 50.6734 80.8823 52.5505 82.0947Z" fill="#0033AD"/>
<path d="M58.534 105.639C55.7963 105.482 53.4889 107.555 53.3325 110.293C53.1761 113.03 55.2489 115.338 57.9864 115.494C60.7241 115.651 63.0316 113.578 63.188 110.84C63.3445 108.142 61.2718 105.795 58.534 105.639Z" fill="#0033AD"/>
<path d="M53.0974 138.764C51.103 139.781 50.2816 142.206 51.2984 144.239C52.3154 146.234 54.7401 147.055 56.7738 146.039C58.7683 145.022 59.5896 142.597 58.5729 140.563C57.5559 138.569 55.0921 137.747 53.0974 138.764Z" fill="#0033AD"/>
<path d="M72.2582 95.4308C74.9567 97.1908 78.5548 96.4478 80.2755 93.7491C82.0355 91.0506 81.2923 87.4525 78.5938 85.7317C75.8953 83.9717 72.2972 84.7148 70.5765 87.4135C68.8165 90.0729 69.5595 93.671 72.2582 95.4308Z" fill="#0033AD"/>
<path d="M133.075 69.6969C135.344 71.183 138.433 70.5572 139.919 68.2888C141.406 66.0206 140.78 62.9309 138.512 61.4448C136.243 59.9585 133.153 60.5845 131.667 62.8527C130.142 65.1601 130.768 68.2108 133.075 69.6969Z" fill="#0033AD"/>
<path d="M143.161 52.2937C144.647 53.2714 146.603 52.8411 147.58 51.355C148.558 49.8689 148.128 47.9133 146.642 46.9356C145.156 45.9579 143.2 46.3881 142.223 47.8352C141.284 49.3213 141.714 51.316 143.161 52.2937Z" fill="#0033AD"/>
<path d="M133.818 100.515C128.382 100.202 123.689 104.387 123.415 109.823C123.102 115.259 127.287 119.952 132.723 120.226C132.919 120.226 133.114 120.226 133.27 120.226C138.707 120.226 143.126 115.807 143.126 110.331C143.165 105.13 139.059 100.789 133.818 100.515Z" fill="#0033AD"/>
<path d="M89.5083 94.7273C91.19 98.0517 94.5927 100.164 98.3471 100.164C103.783 100.164 108.203 95.7443 108.203 90.2688C108.203 88.7437 107.851 87.2183 107.147 85.8105C104.683 80.9218 98.7382 78.9663 93.8887 81.4301C88.9999 83.9332 87.0444 89.8778 89.5083 94.7273Z" fill="#0033AD"/>
<path d="M166.903 82.0947C168.898 81.0777 169.68 78.6139 168.663 76.6192C167.646 74.6248 165.182 73.8425 163.188 74.8594C161.193 75.8762 160.411 78.301 161.389 80.2956C162.445 82.2901 164.869 83.1114 166.903 82.0947Z" fill="#0033AD"/>
<path d="M141.876 85.2232C139.021 86.6703 137.847 90.1509 139.295 93.0059C140.742 95.861 144.222 97.0341 147.077 95.5871C149.932 94.14 151.106 90.6594 149.659 87.8044C148.212 84.9493 144.731 83.8152 141.876 85.2232Z" fill="#0033AD"/>
<path d="M109.606 50.807C111.835 50.9243 113.752 49.2035 113.908 46.9742C114.064 44.7451 112.304 42.8287 110.075 42.6723C107.846 42.555 105.93 44.2365 105.773 46.4658C105.656 48.7342 107.377 50.6506 109.606 50.807Z" fill="#0033AD"/>
<path d="M109.566 76.3456C112.773 76.541 115.511 74.0772 115.668 70.8702C115.863 67.6633 113.399 64.9256 110.192 64.7692C106.985 64.5736 104.248 67.0376 104.091 70.2444C103.935 73.4515 106.36 76.189 109.566 76.3456Z" fill="#0033AD"/>
<path d="M78.128 135.635C80.9831 134.188 82.1562 130.707 80.7092 127.852C79.2621 124.997 75.7816 123.824 72.9265 125.271C70.0715 126.718 68.8983 130.199 70.3454 133.054C71.7922 135.909 75.273 137.082 78.128 135.635Z" fill="#0033AD"/>
<path d="M113.321 84.8325C110.349 89.4083 111.6 95.5095 116.176 98.4817C120.752 101.454 126.853 100.202 129.825 95.6268C132.798 91.051 131.546 84.9498 126.97 81.9776C125.367 80.9216 123.49 80.374 121.573 80.374C118.249 80.374 115.159 82.0557 113.321 84.8325Z" fill="#0033AD"/>
<path d="M130.492 126.132C128.028 121.243 122.084 119.288 117.234 121.752C112.346 124.215 110.39 130.16 112.854 135.01C115.318 139.898 121.263 141.854 126.112 139.39C130.962 136.965 132.956 131.099 130.531 126.21C130.531 126.171 130.531 126.171 130.492 126.132Z" fill="#0033AD"/>
<path d="M147.738 125.428C145.04 123.668 141.442 124.411 139.721 127.11C137.961 129.808 138.704 133.406 141.403 135.127C144.101 136.887 147.699 136.144 149.42 133.445C151.18 130.786 150.437 127.188 147.738 125.428Z" fill="#0033AD"/>
<path d="M166.671 110.606C166.827 107.868 164.754 105.56 162.016 105.404C159.279 105.247 156.971 107.32 156.815 110.058C156.659 112.796 158.731 115.103 161.469 115.259C164.168 115.416 166.514 113.304 166.671 110.606Z" fill="#0033AD"/>
<path d="M180.318 107.086C178.558 106.968 177.033 108.337 176.954 110.097C176.876 111.857 178.206 113.382 179.966 113.46C181.726 113.578 183.212 112.209 183.329 110.449C183.408 108.689 182.078 107.203 180.318 107.086Z" fill="#0033AD"/>
<path d="M167.451 138.764C165.574 137.552 163.07 138.06 161.819 139.938C160.607 141.815 161.115 144.318 162.992 145.569C164.87 146.782 167.373 146.273 168.624 144.396C169.876 142.519 169.328 139.977 167.451 138.764Z" fill="#0033AD"/>
<path d="M76.7979 168.566C75.3118 167.588 73.3562 168.018 72.3784 169.465C71.4007 170.951 71.831 172.907 73.2781 173.884C74.7642 174.862 76.7196 174.432 77.6973 172.985C78.7143 171.538 78.284 169.543 76.7979 168.566Z" fill="#0033AD"/>
<path d="M143.749 168.252C142.184 169.034 141.558 170.99 142.341 172.554C143.123 174.119 145.078 174.744 146.643 173.962C148.207 173.18 148.833 171.264 148.051 169.699C147.268 168.096 145.352 167.431 143.749 168.252Z" fill="#0033AD"/>
<path d="M106.673 136.027C109.645 131.451 108.394 125.35 103.818 122.338C99.2421 119.366 93.1409 120.618 90.1295 125.193C87.1181 129.769 88.4087 135.87 92.9845 138.882C94.588 139.938 96.4653 140.485 98.3817 140.485C101.745 140.524 104.835 138.843 106.673 136.027Z" fill="#0033AD"/>
<path d="M86.9276 151.162C84.6592 149.676 81.5697 150.302 80.0836 152.57C78.5973 154.838 79.223 157.928 81.4914 159.414C83.7598 160.9 86.8495 160.274 88.3356 158.006C89.8609 155.738 89.235 152.648 86.9276 151.162Z" fill="#0033AD"/>
<path d="M109.958 170.052C107.729 169.935 105.813 171.656 105.656 173.885C105.5 176.114 107.26 178.03 109.489 178.187C111.718 178.304 113.634 176.623 113.791 174.393C113.908 172.125 112.187 170.209 109.958 170.052Z" fill="#0033AD"/>
<path d="M110.002 144.513C106.796 144.317 104.058 146.781 103.902 149.988C103.706 153.195 106.17 155.933 109.377 156.089C112.584 156.246 115.321 153.821 115.478 150.614C115.673 147.446 113.21 144.669 110.002 144.513Z" fill="#0033AD"/>
<path d="M133.738 150.77C131.313 152.022 130.335 154.994 131.587 157.419C132.838 159.844 135.81 160.821 138.235 159.57C140.66 158.358 141.638 155.385 140.425 152.96C139.174 150.536 136.202 149.519 133.738 150.77Z" fill="#0033AD"/>
</g>
<defs>
<clipPath id="clip0_4_677">
<rect width="220" height="220" fill="white" transform="translate(0 0.5)"/>
</clipPath>
</defs>
</svg>
