<svg width="220" height="221" viewBox="0 0 220 221" fill="none" xmlns="http://www.w3.org/2000/svg">
<g clip-path="url(#clip0_4_709)">
<path opacity="0.98" d="M110 220.5C170.751 220.5 220 171.251 220 110.5C220 49.7487 170.751 0.5 110 0.5C49.2487 0.5 0 49.7487 0 110.5C0 171.251 49.2487 220.5 110 220.5Z" fill="#243F8D"/>
<path d="M158.898 55.8867H147.984V66.8008H158.898V55.8867Z" fill="white"/>
<path d="M180.727 55.8867H169.812V66.8008H180.727V55.8867Z" fill="#8DDB2E"/>
<path d="M169.812 66.8008H158.898V77.7148H169.812V66.8008Z" fill="#8DDB2E"/>
<path d="M180.727 143.285H169.812V154.199H180.727V143.285Z" fill="#8DDB2E"/>
<path d="M169.812 121.457H158.898V132.371H169.812V121.457Z" fill="#8DDB2E"/>
<path d="M147.984 99.6289H137.07V110.543H147.984V99.6289Z" fill="#8DDB2E"/>
<path d="M158.898 88.7148H147.984V99.6289H158.898V88.7148Z" fill="#8DDB2E"/>
<path d="M180.727 99.6289H169.812V110.543H180.727V99.6289Z" fill="#8DDB2E"/>
<path fill-rule="evenodd" clip-rule="evenodd" d="M158.898 143.285V154.199H169.813V165.113H159.758H158.898H147.984H144.805H142.656H127.703L108.281 134.262L88.7735 165.113H73.8203H71.6718H56.7188L92.125 110.027L57.578 55.8867H72.5313H74.5078H89.461L108.281 85.9649L127.016 55.9727H158.898V66.8867H147.984V88.7149H137.07V77.8009H126.156V88.7149H137.07V99.629H126.156V110.543H137.07V121.457H147.984V143.285H137.07V154.199H147.984V143.285H158.898ZM126.07 121.457V132.371H136.984V121.457H126.07ZM115.156 110.543V121.457H126.07V110.543H115.156ZM115.156 110.543V99.629H104.242V110.543H115.156Z" fill="#8DDB2E"/>
</g>
<defs>
<clipPath id="clip0_4_709">
<rect width="220" height="220" fill="white" transform="translate(0 0.5)"/>
</clipPath>
</defs>
</svg>
