<svg width="220" height="221" viewBox="0 0 220 221" fill="none" xmlns="http://www.w3.org/2000/svg">
<g clip-path="url(#clip0_4_720)">
<path d="M110 220.5C170.751 220.5 220 171.251 220 110.5C220 49.7487 170.751 0.5 110 0.5C49.2487 0.5 0 49.7487 0 110.5C0 171.251 49.2487 220.5 110 220.5Z" fill="#EDF0F4"/>
<path fill-rule="evenodd" clip-rule="evenodd" d="M172.642 68.4339C173.572 67.9999 174.563 69.0537 174.006 70.0456L165.327 84.9234C162.475 89.7589 157.268 92.8583 151.565 92.8583H84.3664C82.1347 92.8583 79.903 93.0444 77.7952 93.6023C76.8653 93.7882 76.1835 92.8583 76.6175 91.9904L81.7007 83.4357C85.7302 76.3687 93.2311 72.0292 101.414 72.0292H145.18C151.999 71.9053 165.451 71.4094 172.642 68.4339ZM156.338 100.731C157.206 100.731 157.702 101.661 157.268 102.405L150.263 114.431C147.411 119.267 142.204 122.366 136.501 122.366H69.3025C67.0707 122.366 64.8392 122.552 62.7314 123.11H62.5455C61.6776 123.11 61.1817 122.18 61.6157 121.436L70.1084 106.744C72.0301 103.459 75.5017 101.475 79.3451 101.475H149.643C151.875 101.475 154.106 101.289 156.214 100.731H156.338ZM141.398 131.789C141.77 130.921 141.026 129.991 140.096 130.177C138.113 130.735 136.067 131.169 133.897 131.169H63.2893C59.4459 131.169 55.9743 133.153 54.0526 136.438L45.9938 150.262C45.5599 151.006 46.0558 151.936 46.9237 151.936L117.098 151.75C124.971 151.75 132.286 147.535 136.191 140.778L141.398 131.789Z" fill="#35C480"/>
</g>
<defs>
<clipPath id="clip0_4_720">
<rect width="220" height="220" fill="white" transform="translate(0 0.5)"/>
</clipPath>
</defs>
</svg>
