<svg width="220" height="221" viewBox="0 0 220 221" fill="none" xmlns="http://www.w3.org/2000/svg">
<g clip-path="url(#clip0_4_730)">
<path d="M110 220.5C170.753 220.5 220 171.253 220 110.5C220 49.747 170.753 0.5 110 0.5C49.247 0.5 0 49.747 0 110.5C0 171.253 49.247 220.5 110 220.5Z" fill="#EDF0F4"/>
<path d="M160.219 145.296C157.108 145.296 154.468 147.464 153.808 150.481L129.061 149.302C129.155 148.831 129.202 148.36 129.202 147.888C129.202 147.04 129.061 146.191 128.825 145.343L137.828 140.158C140.044 142.892 144.051 143.457 146.926 141.383C149.802 139.309 150.556 135.35 148.623 132.38C146.69 129.41 142.778 128.467 139.714 130.211C136.65 131.956 135.472 135.821 137.074 138.979L128.354 144.023C126.28 139.639 121.142 137.659 116.663 139.498C112.185 141.336 109.923 146.38 111.525 150.952L95.3098 154.865C95.2154 152.649 94.2727 150.575 92.7171 148.972L95.6397 144.919C98.9395 146.05 102.569 144.4 103.889 141.148C105.209 137.895 103.748 134.171 100.589 132.71C97.431 131.201 93.6127 132.474 91.9629 135.538C90.3131 138.602 91.3502 142.467 94.3198 144.306L91.6329 148.03C89.7475 146.616 87.3435 146.003 84.9865 146.286L82.2054 130.4C85.6935 129.646 88.3804 126.912 89.1346 123.471C89.8889 119.983 88.569 116.4 85.7408 114.279C82.9123 112.11 79.0942 111.828 75.983 113.477L68.9595 99.7601C70.4678 99.0059 71.6934 97.8274 72.5891 96.4134L78.4342 97.969C78.3871 98.2988 78.34 98.5817 78.34 98.9117C78.34 102.306 80.9327 105.181 84.3265 105.511C87.7206 105.841 90.8316 103.531 91.4444 100.137C92.0571 96.7432 90.0302 93.4907 86.7306 92.5951C83.4309 91.6524 79.9898 93.3965 78.7642 96.6019L73.249 95.1405C74.0032 93.3493 74.1447 91.3695 73.6732 89.4839L89.936 81.9891C92.9529 85.7601 98.4208 86.5614 102.38 83.7331C106.34 80.9049 107.377 75.4839 104.737 71.43L115.108 61.2953C116.381 62.0967 117.842 62.6152 119.303 62.7094V67.1875C115.862 67.5646 113.27 70.5815 113.458 74.0698C113.646 77.5579 116.522 80.292 120.01 80.292C123.498 80.292 126.374 77.5579 126.562 74.0698C126.751 70.5815 124.206 67.5646 120.717 67.1875V62.7094C122.037 62.6152 123.263 62.238 124.394 61.6252L135.754 74.5883C133.115 78.0766 133.303 82.9318 136.179 86.1843C139.101 89.4368 143.909 90.1911 147.68 87.9284C151.451 85.6658 153.054 81.0933 151.593 76.9923L155.128 75.0125C157.391 77.6523 161.303 78.1237 164.085 76.0025C166.866 73.9283 167.526 70.016 165.593 67.1404C163.66 64.265 159.795 63.3694 156.825 65.1606C153.855 66.9519 152.771 70.7229 154.374 73.8341L151.027 75.7196C149.66 73.2214 147.209 71.5242 144.428 71.1C141.647 70.6758 138.771 71.5714 136.744 73.5512L125.62 60.8711C126.704 60.0225 127.599 58.8913 128.212 57.6657L137.97 59.2684C138.724 62.6623 142.024 64.8779 145.418 64.265C148.859 63.6994 151.216 60.5411 150.839 57.0999C150.462 53.659 147.445 51.0663 144.004 51.2549C140.515 51.4434 137.829 54.2717 137.781 57.7599L128.731 56.2515C130.003 51.9147 127.929 47.2953 123.828 45.3626C119.727 43.4299 114.872 44.8439 112.374 48.6151C109.875 52.3861 110.535 57.4299 113.929 60.4469L103.842 70.2987C102.286 68.5075 100.071 67.3761 97.7139 67.1875V60.3053C101.155 59.9282 103.748 56.9115 103.559 53.4232C103.37 49.9349 100.542 47.248 97.0539 47.248C93.5656 47.248 90.6902 49.982 90.5015 53.4703C90.3131 56.9586 92.8585 59.9753 96.3468 60.3525V67.1875C93.2356 67.4233 90.4544 69.2617 88.9933 71.9956C87.5319 74.7768 87.579 78.0766 89.1346 80.8106L73.2961 88.0699C72.7305 86.7028 71.8349 85.5243 70.7036 84.5816L76.8786 73.4569C77.4444 73.5983 77.9628 73.6927 78.5284 73.6927C81.8754 73.6927 84.6565 71.1942 85.0808 67.8946C85.505 64.595 83.3367 61.5309 80.1313 60.7296C76.8786 59.9282 73.579 61.6725 72.4005 64.7834C71.222 67.8946 72.5891 71.3829 75.5117 72.9385L69.5251 83.7803C65.8955 81.612 61.3229 82.2247 58.3533 85.2416C55.4308 88.2584 54.9121 92.8309 57.1277 96.4134C59.3431 99.9959 63.6799 101.599 67.6866 100.326L74.8045 114.232C73.0134 115.552 71.7405 117.531 71.3163 119.7L66.1311 118.191C66.2726 117.673 66.3197 117.107 66.3197 116.588C66.3197 113.242 63.8214 110.461 60.5216 110.083C57.222 109.706 54.1579 111.827 53.3566 115.08C52.5552 118.333 54.3466 121.632 57.5048 122.764C60.616 123.895 64.1041 122.528 65.6126 119.558L71.1278 121.161C71.1278 121.302 71.1278 121.444 71.1278 121.585C71.1278 124.696 72.6834 127.572 75.323 129.222L71.7878 133.841C69.1951 131.531 65.2355 131.673 62.7843 134.171C60.3331 136.67 60.2389 140.582 62.5958 143.175C64.9526 145.767 68.8651 146.05 71.5992 143.834C74.3332 141.619 74.8046 137.706 72.7776 134.878L76.5959 129.882C77.7271 130.4 79 130.636 80.2727 130.636C80.4611 130.636 80.6498 130.636 80.8382 130.589L83.6665 146.568C79.8955 147.7 77.2557 151.141 77.1144 155.053C77.0201 159.013 79.4713 162.548 83.1952 163.868C86.9192 165.188 91.0673 163.963 93.4714 160.804L106.67 166.697C106.576 167.168 106.482 167.686 106.482 168.158C106.482 171.505 108.98 174.333 112.327 174.71C115.674 175.087 118.737 172.919 119.492 169.666C120.246 166.414 118.407 163.114 115.249 161.983C112.091 160.851 108.603 162.313 107.141 165.329L94.2727 159.579C94.8383 158.542 95.2154 157.41 95.3098 156.232L112.091 152.131C113.364 154.488 115.626 156.138 118.266 156.703C120.906 157.222 123.64 156.562 125.714 154.912L131.983 160.333C130.522 163.538 131.795 167.309 134.906 168.912C138.017 170.562 141.835 169.478 143.627 166.461C145.418 163.444 144.569 159.579 141.694 157.599C138.771 155.619 134.859 156.279 132.738 159.06L126.751 153.922C127.647 152.979 128.307 151.801 128.731 150.575L153.667 151.801C153.714 155.431 156.637 158.306 160.266 158.306C163.896 158.306 166.819 155.336 166.772 151.754C166.772 148.218 163.849 145.296 160.219 145.296Z" fill="#FF473E"/>
</g>
<defs>
<clipPath id="clip0_4_730">
<rect width="220" height="220" fill="white" transform="translate(0 0.5)"/>
</clipPath>
</defs>
</svg>
