<svg width="220" height="221" viewBox="0 0 220 221" fill="none" xmlns="http://www.w3.org/2000/svg">
<g clip-path="url(#clip0_4_733)">
<path d="M110 220.5C170.751 220.5 220 171.251 220 110.5C220 49.7487 170.751 0.5 110 0.5C49.2487 0.5 0 49.7487 0 110.5C0 171.251 49.2487 220.5 110 220.5Z" fill="#EDF0F4"/>
<path d="M165.193 149.716C149.829 164.775 136.5 172.101 114.725 172.101C78.2984 172.101 53.166 146.663 53.166 110.847C53.166 74.1149 81.6562 50 115.03 50C134.465 50 152.983 58.547 165.702 73.3009L150.134 88.2582C139.654 77.0657 128.156 71.2659 114.522 71.2659C92.6452 71.2659 74.839 88.0547 74.839 110.949C74.839 134.962 92.0347 150.937 115.03 150.937C129.479 150.937 139.145 145.137 150.134 134.148L165.193 149.716Z" fill="black"/>
</g>
<defs>
<clipPath id="clip0_4_733">
<rect width="220" height="220" fill="white" transform="translate(0 0.5)"/>
</clipPath>
</defs>
</svg>
