<svg width="220" height="221" viewBox="0 0 220 221" fill="none" xmlns="http://www.w3.org/2000/svg">
<g clip-path="url(#clip0_4_741)">
<path d="M110 220.5C170.751 220.5 220 171.251 220 110.5C220 49.7487 170.751 0.5 110 0.5C49.2487 0.5 0 49.7487 0 110.5C0 171.251 49.2487 220.5 110 220.5Z" fill="#45CD85"/>
<path fill-rule="evenodd" clip-rule="evenodd" d="M125.894 125.102H134.635V118.237C147.529 116.687 155.834 109.158 155.834 98.9725C155.834 84.8007 144.688 81.7007 134.198 79.7079V60.886C139.225 61.3289 144.688 62.879 149.715 65.3147V54.2431C144.907 52.4715 139.662 51.3644 134.635 51.1429V44.5H125.894V51.1429C112.563 52.693 104.914 60.2217 104.914 69.7433C104.914 84.1365 115.841 87.4579 126.331 89.4509V108.273C119.993 107.387 113.218 104.73 105.351 100.522V112.258C112.125 115.58 119.119 117.794 125.894 118.237V125.102ZM152.337 135.952C145.563 155.216 127.423 169.167 106.006 169.167C78.9068 169.167 56.834 146.802 56.834 119.344C56.834 97.6439 70.6021 79.2649 89.6154 72.4006V85.9079C77.377 91.8865 69.0724 104.73 69.0724 119.344C69.0724 139.937 85.6817 156.766 106.006 156.766C120.43 156.766 133.105 148.352 139.006 135.952H152.337ZM134.198 90.1152V108.273C140.973 107.387 145.125 103.844 145.125 98.9725C145.125 93.6581 140.317 91.6652 134.198 90.1152ZM115.622 69.7433C115.622 75.2791 120.211 77.4934 126.331 78.822V60.886C119.556 61.5504 115.622 64.6503 115.622 69.7433Z" fill="white"/>
</g>
<defs>
<clipPath id="clip0_4_741">
<rect width="220" height="220" fill="white" transform="translate(0 0.5)"/>
</clipPath>
</defs>
</svg>
