<svg width="220" height="221" viewBox="0 0 220 221" fill="none" xmlns="http://www.w3.org/2000/svg">
<g clip-path="url(#clip0_4_736)">
<path d="M110 220.5C170.751 220.5 220 171.251 220 110.5C220 49.7487 170.751 0.5 110 0.5C49.2487 0.5 0 49.7487 0 110.5C0 171.251 49.2487 220.5 110 220.5Z" fill="#E7EFF3"/>
<path fill-rule="evenodd" clip-rule="evenodd" d="M45.834 124.009C45.834 151.985 68.5152 174.666 96.4919 174.666C124.469 174.666 147.15 151.985 147.15 124.009C147.15 96.0319 124.469 73.3506 96.4919 73.3506C68.5152 73.3506 45.834 96.0319 45.834 124.009ZM133.641 124.009C133.641 144.528 117.012 161.158 96.4919 161.158C75.972 161.158 59.3427 144.528 59.3427 124.009C59.3427 103.489 75.972 86.8593 96.4919 86.8593C117.012 86.8593 133.641 103.489 133.641 124.009Z" fill="#FBCC5C"/>
<path fill-rule="evenodd" clip-rule="evenodd" d="M72.8535 96.9914C72.8535 124.968 95.5348 147.649 123.511 147.649C151.488 147.649 174.169 124.968 174.169 96.9914C174.169 69.0148 151.488 46.3335 123.511 46.3335C95.5348 46.3335 72.8535 69.0148 72.8535 96.9914ZM160.661 96.9914C160.661 117.511 144.031 134.14 123.511 134.14C102.992 134.14 86.3622 117.511 86.3622 96.9914C86.3622 76.4715 102.992 59.8422 123.511 59.8422C144.031 59.8422 160.661 76.4715 160.661 96.9914Z" fill="#35D07F"/>
<path fill-rule="evenodd" clip-rule="evenodd" d="M72.8535 95.3159C77.1222 91.8036 82.1071 89.291 87.4566 87.9536C88.794 82.5906 91.3066 77.6059 94.8189 73.3506C88.6317 73.5532 82.5122 74.8906 76.7981 77.2952C74.3799 83.0093 73.0427 89.1154 72.8535 95.3159ZM132.549 133.046C131.211 138.409 128.699 143.394 125.187 147.649C131.387 147.46 137.493 146.122 143.207 143.718C145.625 137.99 146.963 131.884 147.152 125.684C142.883 129.196 137.898 131.709 132.549 133.046Z" fill="#5EA33B"/>
</g>
<defs>
<clipPath id="clip0_4_736">
<rect width="220" height="220" fill="white" transform="translate(0 0.5)"/>
</clipPath>
</defs>
</svg>
