<svg width="220" height="221" viewBox="0 0 220 221" fill="none" xmlns="http://www.w3.org/2000/svg">
<g clip-path="url(#clip0_4_744)">
<path d="M110 220.5C170.751 220.5 220 171.251 220 110.5C220 49.7487 170.751 0.5 110 0.5C49.2487 0.5 0 49.7487 0 110.5C0 171.251 49.2487 220.5 110 220.5Z" fill="white"/>
<path d="M165 91.9102C168.038 91.9102 170.5 89.4477 170.5 86.4102C170.5 83.3726 168.038 80.9102 165 80.9102C161.962 80.9102 159.5 83.3726 159.5 86.4102C159.5 89.4477 161.962 91.9102 165 91.9102Z" fill="url(#paint0_linear_4_744)"/>
<path fill-rule="evenodd" clip-rule="evenodd" d="M110 0.5C49.28 0.5 0 49.78 0 110.5C0 171.22 49.28 220.5 110 220.5C170.72 220.5 220 171.22 220 110.5C220 49.78 170.72 0.5 110 0.5ZM159.94 156.48C146.96 170.78 128.48 179.03 109.34 179.03H109.23C89.76 179.03 71.17 170.67 58.19 156.15C44.99 141.41 38.94 122.49 41.03 102.8C44.44 71.34 69.74 45.93 101.2 42.3C103.84 41.97 106.59 41.86 109.23 41.86C124.41 41.86 138.93 46.81 151.03 56.16C151.8 56.71 152.24 57.59 152.24 58.58C152.24 59.57 151.91 60.45 151.14 61.11L143.88 67.6C143.11 68.26 142.12 68.7 141.02 68.7C140.14 68.7 139.26 68.48 138.6 67.93C129.91 61.88 119.68 58.69 109.23 58.69C94.49 58.69 80.41 65.07 70.62 76.07C60.72 87.18 56.1 101.59 57.86 116.44C60.5 140.09 79.64 159.23 103.4 161.87C105.38 162.09 107.36 162.2 109.34 162.2C123.2 162.2 136.18 156.7 146.08 146.8C146.85 146.03 147.95 145.48 149.16 145.48C149.93 145.48 150.81 145.7 151.47 146.14L159.5 151.42C160.27 151.97 160.82 152.74 160.93 153.73C160.93 154.83 160.6 155.82 159.94 156.48ZM148.39 86.41C148.39 95.54 155.87 103.02 165 103.02C174.13 103.02 181.61 95.54 181.61 86.41C181.61 77.28 174.13 69.8 165 69.8C155.87 69.8 148.39 77.28 148.39 86.41Z" fill="url(#paint1_linear_4_744)"/>
</g>
<defs>
<linearGradient id="paint0_linear_4_744" x1="1.02445e-05" y1="220.5" x2="220" y2="220.5" gradientUnits="userSpaceOnUse">
<stop offset="0.05" stop-color="#F76C1D"/>
<stop offset="0.95" stop-color="#F7CC69"/>
</linearGradient>
<linearGradient id="paint1_linear_4_744" x1="-4.91333e-09" y1="220.5" x2="220" y2="220.5" gradientUnits="userSpaceOnUse">
<stop offset="0.05" stop-color="#F76C1D"/>
<stop offset="0.95" stop-color="#F7CC69"/>
</linearGradient>
<clipPath id="clip0_4_744">
<rect width="220" height="220" fill="white" transform="translate(0 0.5)"/>
</clipPath>
</defs>
</svg>
