<svg width="220" height="221" viewBox="0 0 220 221" fill="none" xmlns="http://www.w3.org/2000/svg">
<g clip-path="url(#clip0_4_748)">
<path d="M110 220.5C170.751 220.5 220 171.251 220 110.5C220 49.7487 170.751 0.5 110 0.5C49.2487 0.5 0 49.7487 0 110.5C0 171.251 49.2487 220.5 110 220.5Z" fill="#0886FB"/>
<path fill-rule="evenodd" clip-rule="evenodd" d="M154.765 113.247C154.847 112.46 154.681 111.667 154.292 110.978C153.204 109.041 150.51 108.238 148.714 109.087C148.318 109.283 147.965 109.556 147.676 109.89L129.15 126.29V145.208C129.15 145.208 110.906 142.419 106.844 141.332C101.645 139.961 97.9499 138.968 94.5558 135.803C93.3739 134.716 90.02 131.597 89.8306 127.196V125.4L89.7358 77.0515L113.698 80.6837C115.589 81.0137 120.409 82.1011 124.19 85.5611C125.41 86.707 126.471 88.0105 127.346 89.4372C128.812 91.7525 129.047 93.0751 129.093 93.9272V109.133C129.176 110.054 129.538 110.928 130.132 111.638C130.738 112.409 131.619 112.917 132.591 113.055C133.534 113.15 134.292 112.768 135.049 112.441C135.504 112.222 135.932 111.953 136.326 111.638L155.184 95.8064V79.5075C154.995 74.7335 152.536 71.285 150.929 69.0155C150.031 67.7875 145.401 61.5962 136.986 58.7129C136.228 58.4775 135.614 58.2883 135.19 58.1391L114.498 54.3606C112.911 54.0344 111.3 53.8293 109.681 53.7466C108.737 53.7007 104.861 53.4597 101.175 54.1253C94.2719 55.4078 85.0077 60.3625 83.6851 67.6871C83.6048 68.1557 83.5579 68.6292 83.5445 69.1044H81.3239C79.1898 69.8792 77.1579 70.911 75.2732 72.1771C73.3825 73.4538 69.6011 76.0533 66.9072 81.0711C65.1532 84.4294 64.2145 88.1535 64.1672 91.9419V137.777C64.1592 138.566 64.1909 139.356 64.2618 140.141C64.2618 140.141 64.5488 144.018 65.5844 147.314C66.7665 150.952 70.4044 156.957 76.8339 160.784C78.7246 161.932 82.9765 162.91 91.4859 164.895C96.6959 166.146 101.984 167.045 107.314 167.586C110.671 167.916 112.278 167.916 113.695 167.822C116.435 167.681 120.17 167.443 124.328 165.458C131.463 162.015 134.725 155.815 135.517 154.208C135.752 153.735 135.942 153.31 136.091 153.026H137.035C141.727 151.586 145.909 148.831 149.084 145.088C150.312 143.67 154.472 138.566 154.897 131.239C154.944 130.405 154.944 129.568 154.897 128.734C154.756 123.487 154.756 118.383 154.756 113.242L154.765 113.247ZM94.6965 67.1191C96.1034 65.9025 97.6593 64.87 99.3271 64.0464C100.888 63.2889 104.904 61.4011 109.489 62.4855C110.063 62.6261 110.528 62.7724 110.812 62.8643L132.174 66.8839C135.968 67.3752 139.474 69.1622 142.101 71.9419C142.905 72.8026 146.072 76.2913 146.451 81.3953C146.499 82.0083 146.499 82.6241 146.451 83.2372V91.698L137.798 98.4086V94.1998C137.732 93.3282 137.622 92.4607 137.468 91.6005C136.84 88.2943 135.466 85.1749 133.451 82.4799C132.694 81.3925 128.347 75.3905 120.454 72.7911C120.03 72.6506 119.697 72.5558 119.416 72.4612L94.2719 68.0658L94.6965 67.122V67.1191ZM124.046 154.837C121.872 158.193 116.911 158.713 114.452 158.948C113.322 159.06 112.185 159.092 111.05 159.043L85.197 154.553L84.4885 154.223C82.6757 153.863 80.9547 153.139 79.4303 152.094C77.8085 150.972 76.4401 149.523 75.4136 147.839C74.4662 146.36 73.7792 144.73 73.3825 143.019C73.0727 141.655 72.9454 140.256 73.0037 138.859L72.9579 91.5057V90.7971C73.1473 85.8825 76.8339 82.1011 79.7172 79.8318L80.8993 79.2178C80.9452 94.5298 80.9452 109.845 80.9939 125.157C80.9939 125.581 80.9481 126.195 80.9939 126.952C81.3239 133.993 85.484 139.051 86.7607 140.517C92.0081 146.66 98.8594 148.551 103.303 149.733C106.138 150.49 124.712 153.609 124.712 153.609C124.526 154.036 124.304 154.447 124.049 154.837H124.046ZM146.448 130.215C146.155 133.211 144.988 136.054 143.091 138.391C141.76 139.993 140.121 141.311 138.271 142.267V129.506C141.011 127.237 143.754 124.97 146.448 122.747C146.494 125.205 146.494 127.71 146.448 130.206V130.215Z" fill="#FFFDFC"/>
</g>
<defs>
<clipPath id="clip0_4_748">
<rect width="220" height="220" fill="white" transform="translate(0 0.5)"/>
</clipPath>
</defs>
</svg>
