<svg width="220" height="221" viewBox="0 0 220 221" fill="none" xmlns="http://www.w3.org/2000/svg">
<g clip-path="url(#clip0_4_751)">
<path d="M110 220.5C170.751 220.5 220 171.251 220 110.5C220 49.7487 170.751 0.5 110 0.5C49.2487 0.5 0 49.7487 0 110.5C0 171.251 49.2487 220.5 110 220.5Z" fill="#EDF0F4"/>
<path fill-rule="evenodd" clip-rule="evenodd" d="M58.5638 45.8654C72.2188 34.9848 87.7248 30.5694 104.679 28.3488C111.719 27.4269 119.452 28.4728 126.361 29.8511C162.986 37.1571 190.789 69.593 192.423 106.818C194.251 148.451 163.251 186.598 121.543 192.202C111.032 193.614 100.197 193.191 89.8812 190.618C81.2638 188.47 72.8959 185.016 65.4469 180.166C28.9289 156.386 16.8582 108.565 37.6504 70.4286C42.8298 60.9285 50.1136 52.5989 58.5638 45.8654ZM117.827 64.7519C115.082 63.6948 111.903 62.4707 109.497 62.6767C107.232 62.8707 104.793 63.7545 102.483 64.5915C101.584 64.9174 100.704 65.2362 99.8613 65.5045C93.9259 67.3943 87.945 69.223 81.9658 70.9696L81.9533 70.9733C80.5185 71.3922 72.4082 73.7598 76.8546 76.2502C78.4021 77.117 81.5637 75.8866 83.8937 74.9799C84.6177 74.6981 85.2614 74.4476 85.7514 74.301C91.1484 72.6858 96.5455 71.0576 101.926 69.3902C102.588 69.1851 103.297 68.9211 104.031 68.6479C106.05 67.8966 108.257 67.0753 110.186 67.2148C112.007 67.3466 113.894 68.026 115.717 68.6825C116.528 68.9746 117.327 69.2621 118.101 69.4949C119.409 69.8878 120.717 70.2777 122.026 70.6677C125.772 71.7842 129.519 72.901 133.244 74.0868C133.769 74.2542 134.436 74.514 135.179 74.8031C137.586 75.7405 140.784 76.9861 142.517 76.3869C144.796 75.5986 143.922 73.0662 142.176 72.3369C137.925 70.5615 133.371 69.3391 128.837 68.1221C126.028 67.368 123.227 66.616 120.51 65.7358C119.705 65.4748 118.793 65.1237 117.827 64.7519ZM64.0891 76.8218C66.6259 75.9299 68.6501 80.7761 69.8549 83.6611C70.118 84.291 70.3422 84.8278 70.5239 85.1904C72.05 88.2352 73.6103 91.2622 75.1709 94.2896C76.7303 97.3148 78.2903 100.341 79.816 103.385C80.2998 104.351 80.7682 105.374 81.244 106.413C82.4532 109.055 83.7107 111.802 85.3956 113.977C86.7625 115.741 91.0563 115.417 94.147 115.184C95.0372 115.117 95.828 115.057 96.4199 115.057H123.607C124.264 115.057 125.112 115.124 126.046 115.198C128.785 115.414 132.268 115.689 133.858 114.507C134.94 113.703 135.608 112.172 136.204 110.805C136.396 110.365 136.581 109.941 136.77 109.564L142.276 98.5789C143.774 95.5909 145.307 92.6193 146.84 89.6473L146.842 89.6449C148.372 86.6784 149.902 83.7117 151.398 80.7275C151.467 80.5908 151.54 80.4388 151.619 80.276C152.464 78.5285 153.91 75.5409 156.157 77.013C157.559 77.9315 157.62 80.6515 157.664 82.608C157.674 83.0632 157.684 83.477 157.708 83.8173C158.176 90.1754 157.95 96.3574 157.36 102.699C155.343 124.33 144.367 144.65 127.393 158.175C127.151 158.368 126.905 158.565 126.654 158.766C122.1 162.403 116.092 167.204 110.53 168.587C109.137 168.933 107.579 168.048 106.258 167.297C105.946 167.12 105.648 166.951 105.368 166.806C100.996 164.555 96.9034 161.727 92.9784 158.784C75.4759 145.663 64.7902 124.906 62.3667 103.385C61.6137 96.699 61.6189 90.1767 61.9932 83.4739C62.0074 83.2212 62.0154 82.9312 62.0244 82.6162C62.0814 80.5767 62.1678 77.4972 64.0891 76.8218ZM66.4547 102.536C65.6781 97.3199 64.731 90.9586 66.1351 86.2202L71.3823 96.1759L80.6742 114.371L104.679 161.402C99.9005 159.346 95.4767 155.589 91.6019 152.186C77.7504 140.023 69.3053 122.891 66.7786 104.758C66.6798 104.049 66.5691 103.304 66.4547 102.536ZM135.004 122.721C131.56 129.089 128.125 135.444 124.899 141.834C123.856 143.901 122.635 146.002 121.397 148.132C118.886 152.454 116.306 156.894 115.004 161.402C135.713 151.746 148.939 128.527 152.543 106.818C153.371 101.837 153.892 96.7622 153.892 91.7131C153.892 91.3396 153.911 90.9447 153.93 90.5401C154.002 89.0248 154.081 87.3747 153.204 86.2202C148.009 98.6667 141.492 110.72 135.004 122.721ZM109.497 161.746L87.8163 119.177H131.867L110.186 161.746H109.497Z" fill="#E1A94C"/>
</g>
<defs>
<clipPath id="clip0_4_751">
<rect width="220" height="220" fill="white" transform="translate(0 0.5)"/>
</clipPath>
</defs>
</svg>
