<svg width="220" height="221" viewBox="0 0 220 221" fill="none" xmlns="http://www.w3.org/2000/svg">
<g clip-path="url(#clip0_4_754)">
<path d="M110 220.5C170.751 220.5 220 171.251 220 110.5C220 49.7487 170.751 0.5 110 0.5C49.2487 0.5 0 49.7487 0 110.5C0 171.251 49.2487 220.5 110 220.5Z" fill="#2A5ADA"/>
<path fill-rule="evenodd" clip-rule="evenodd" d="M95.9562 44.9035L109.412 37.1665L122.868 44.9035L159.534 66.0961L172.99 73.8332V147.167L159.534 154.904L123.204 176.096L109.748 183.833L96.2926 176.096L59.2896 154.904L45.834 147.167V73.8332L59.2896 66.0961L95.9562 44.9035ZM72.7453 89.3072V131.692L109.412 152.885L146.079 131.692V89.3072L109.412 68.1145L72.7453 89.3072Z" fill="white"/>
</g>
<defs>
<clipPath id="clip0_4_754">
<rect width="220" height="220" fill="white" transform="translate(0 0.5)"/>
</clipPath>
</defs>
</svg>
