<svg width="220" height="221" viewBox="0 0 220 221" fill="none" xmlns="http://www.w3.org/2000/svg">
<g clip-path="url(#clip0_4_757)">
<path fill-rule="evenodd" clip-rule="evenodd" d="M110 220.5C49.5 220.5 0 171.001 0 109.952C0.55 49.4535 49.5 -0.0454497 110.55 0.504539C171.05 1.05453 220 50.0035 220 111.602C219.45 171.551 170.5 220.5 110 220.5Z" fill="#EDF0F4"/>
<path d="M109.921 103.625C108.34 104.099 106.76 105.047 105.496 106.154C104.389 107.26 103.599 108.84 103.125 110.421C103.599 112.002 104.547 113.582 105.654 114.846C106.918 115.953 108.34 116.901 109.921 117.375C111.502 116.901 113.082 115.953 114.346 114.846C115.453 113.74 116.401 112.16 116.875 110.579C116.401 108.998 115.453 107.418 114.346 106.154C113.082 104.889 111.66 104.099 109.921 103.625Z" fill="#172026"/>
<path fill-rule="evenodd" clip-rule="evenodd" d="M27.5 110.5C27.5 64.96 64.46 28 110 28C155.54 28 192.5 64.96 192.5 110.5C192.5 156.04 155.54 193 110 193C64.46 193 27.5 156.04 27.5 110.5ZM144.485 144.82C147.455 141.85 149.27 138.055 149.6 133.765C149.93 129.64 148.445 125.515 145.475 122.545L133.43 110.5L140.855 103.57L135.575 98.29L128.48 105.385L122.705 99.61L121.88 98.785C121.715 98.62 121.591 98.455 121.467 98.29C121.344 98.125 121.22 97.96 121.055 97.795L115.28 92.02L127.325 79.975C128.81 78.655 130.79 77.995 132.77 78.16C138.05 78.655 142.175 82.945 142.34 88.225C142.505 90.04 141.68 91.69 140.525 93.01L137.885 95.65L143.165 100.93L145.805 98.125C151.745 92.35 151.085 82.285 144.65 75.85C141.68 72.88 137.885 71.065 133.595 70.735C129.305 70.24 125.345 71.725 122.375 74.695L110.33 86.74L103.235 79.645L97.955 84.925L105.05 92.02L99.275 97.795L98.45 98.62C98.285 98.785 98.12 98.9087 97.955 99.0325C97.79 99.1562 97.625 99.28 97.46 99.445L91.685 105.22L79.64 93.175C78.32 91.69 77.66 89.71 77.825 87.73C78.32 82.45 82.61 78.325 87.89 78.16C89.705 77.995 91.355 78.82 92.675 79.975L95.315 82.615L100.595 77.335L97.955 74.695C92.18 68.755 82.115 69.415 75.68 75.85C72.71 78.82 70.895 82.615 70.565 86.905C70.07 91.195 71.555 95.155 74.525 98.125L86.57 110.17L79.475 117.265L84.755 122.545L91.85 115.45L97.625 121.225L98.45 122.05C98.615 122.215 98.7388 122.38 98.8625 122.545C98.9863 122.71 99.11 122.875 99.275 123.04L105.05 128.815L93.005 140.86C91.52 142.18 89.54 142.84 87.56 142.675C82.28 142.18 78.155 137.89 77.99 132.61C77.825 130.795 78.65 129.145 79.805 127.825L82.445 125.185L77.165 119.905L74.525 122.545C68.585 128.32 69.245 138.385 75.68 144.82C78.65 147.79 82.445 149.605 86.735 149.935C91.025 150.43 94.985 148.945 97.955 145.975L110 133.93L116.765 141.025L122.045 135.745L114.95 128.65L120.725 122.875L121.55 122.05C121.715 121.885 121.88 121.761 122.045 121.637C122.21 121.514 122.375 121.39 122.54 121.225L128.315 115.45L140.36 127.495C141.68 128.98 142.34 130.96 142.175 132.94C141.68 138.22 137.39 142.345 132.11 142.51C130.295 142.675 128.645 141.85 127.325 140.695L124.685 138.055L119.405 143.335L122.21 145.975C127.985 151.915 138.05 151.255 144.485 144.82Z" fill="#172026"/>
</g>
<defs>
<clipPath id="clip0_4_757">
<rect width="220" height="220" fill="white" transform="translate(0 0.5)"/>
</clipPath>
</defs>
</svg>
