<svg width="220" height="221" viewBox="0 0 220 221" fill="none" xmlns="http://www.w3.org/2000/svg">
<g clip-path="url(#clip0_4_761)">
<path fill-rule="evenodd" clip-rule="evenodd" d="M110 220.5C49.5 220.5 0 171.001 0 109.952C0.55 49.4535 49.5 -0.0454497 110.55 0.504539C171.05 1.05453 220 50.0035 220 111.602C219.45 171.551 170.5 220.5 110 220.5Z" fill="#EDF0F4"/>
<path d="M110 193C155.563 193 192.5 156.063 192.5 110.5C192.5 64.9365 155.563 28 110 28C64.4365 28 27.5 64.9365 27.5 110.5C27.5 156.063 64.4365 193 110 193Z" fill="#1C98F7"/>
<path fill-rule="evenodd" clip-rule="evenodd" d="M59.125 104.097C59.125 115.447 64.436 126.037 73.6347 133.81C75.335 135.244 77.1337 136.558 79.0178 137.741V150.546C79.0178 153.777 82.7561 155.632 85.391 153.711C92.6664 148.418 97.7143 145.428 98.9776 145.13C101.896 145.592 104.876 145.824 107.888 145.824C134.695 145.824 156.655 127.29 156.655 104.097C156.655 80.9084 134.7 62.375 107.888 62.375C81.0803 62.375 59.125 80.9084 59.125 104.097ZM122.877 147.077C119.357 147.988 115.759 148.573 112.131 148.824H112.136C117.432 152.477 124.156 154.651 131.436 154.651C133.246 154.651 135.04 154.517 136.794 154.255C137.448 154.532 138.082 154.853 138.691 155.216C140.819 156.503 142.884 157.892 144.879 159.378C146.987 160.914 149.978 159.429 149.978 156.845V149.338C151.048 148.646 152.073 147.888 153.046 147.067C158.878 142.145 162.25 135.414 162.25 128.195C162.238 123.556 160.853 119.023 158.269 115.164C157.47 117.893 156.382 120.523 155.036 123.026C155.573 124.68 155.856 126.412 155.856 128.195C155.856 133.507 153.34 138.522 148.885 142.283C147.756 143.234 146.518 144.097 145.188 144.847C144.198 145.402 143.586 146.445 143.584 147.576V150.787C140.527 148.834 138.428 147.91 136.83 147.91C136.65 147.908 136.471 147.922 136.293 147.951C131.814 148.697 127.221 148.398 122.877 147.077ZM99.1529 137.233C99.3747 137.233 99.6015 137.248 99.8234 137.284C102.453 137.726 105.155 137.952 107.888 137.952C130.534 137.952 148.658 122.65 148.658 104.097C148.658 85.548 130.534 70.2466 107.888 70.2466C85.2517 70.2466 67.1172 85.548 67.1172 104.097C67.1172 113.068 71.3504 121.515 78.8374 127.835C80.7195 129.417 82.7871 130.856 85.0041 132.11C86.2468 132.809 87.0151 134.114 87.0151 135.522V142.905C92.7696 139.057 96.5542 137.233 99.1529 137.233ZM80.709 105.674C80.709 109.148 83.5709 111.973 87.1028 111.973C90.6349 111.973 93.4965 109.153 93.4965 105.674C93.4965 102.196 90.6349 99.3748 87.1028 99.3748C83.5709 99.3748 80.709 102.196 80.709 105.674ZM107.888 111.973C104.356 111.973 101.494 109.148 101.494 105.674C101.494 102.196 104.356 99.3748 107.888 99.3748C111.42 99.3748 114.281 102.196 114.281 105.674C114.281 109.153 111.42 111.973 107.888 111.973ZM122.279 105.674C122.279 109.148 125.14 111.973 128.672 111.973C132.205 111.973 135.066 109.153 135.066 105.674C135.066 102.196 132.205 99.3748 128.672 99.3748C125.14 99.3748 122.279 102.196 122.279 105.674Z" fill="white"/>
</g>
<defs>
<clipPath id="clip0_4_761">
<rect width="220" height="220" fill="white" transform="translate(0 0.5)"/>
</clipPath>
</defs>
</svg>
