<svg width="220" height="221" viewBox="0 0 220 221" fill="none" xmlns="http://www.w3.org/2000/svg">
<g clip-path="url(#clip0_4_765)">
<path d="M110 220.5C170.751 220.5 220 171.251 220 110.5C220 49.7487 170.751 0.5 110 0.5C49.2487 0.5 0 49.7487 0 110.5C0 171.251 49.2487 220.5 110 220.5Z" fill="white"/>
<path d="M131.171 115.785C131.171 114.322 131.171 113.59 129.714 112.859C124.616 109.202 118.79 105.545 113.692 101.888C112.589 101.149 111.152 101.149 110.05 101.888L94.0277 113.59C92.663 114.289 91.8149 115.709 91.8429 117.247C91.8086 118.824 91.301 120.354 90.3863 121.636C89.6499 122.743 89.6499 124.186 90.3863 125.293C96.2127 136.995 101.311 148.697 107.137 160.4C109.322 164.057 110.778 168.445 112.963 172.833C113.692 172.102 113.692 171.371 114.42 170.639C120.975 156.011 126.801 141.384 133.356 126.756C134.084 125.293 134.084 124.561 132.627 123.83C130.969 121.501 130.435 118.55 131.171 115.785Z" fill="#CD0124"/>
<path d="M106.334 96.5485C91.6673 86.2881 77.0007 76.0277 63.0673 66.5L62.334 67.233C63.0673 68.6987 63.0673 69.4315 63.8006 70.8972L79.2007 103.877C80.6673 106.809 81.4006 109.74 85.8007 110.473C87.068 110.587 88.3413 110.333 89.4673 109.74C93.8673 106.076 99.0007 103.144 103.401 99.48L106.334 96.5485Z" fill="#CD0124"/>
<path fill-rule="evenodd" clip-rule="evenodd" d="M0 110.5C0 49.7487 49.2487 0.5 110 0.5C139.174 0.5 167.153 12.0893 187.781 32.7183C208.412 53.3473 220 81.3262 220 110.5C220 171.251 170.751 220.5 110 220.5C49.2487 220.5 0 171.251 0 110.5ZM166.467 66.5C167.2 65.0333 167.933 64.3 169.4 64.3C174.086 63.5707 177.523 59.5084 177.467 54.7667C177.156 50.8028 174.585 47.3745 170.867 45.9667C167.008 44.5154 162.666 46.0662 160.6 49.6333C159.867 51.8333 158.4 51.8333 156.933 51.8333H63.8C61.6 51.8333 60.8667 51.8333 60.1333 50.3667C57.8224 46.6621 53.2048 45.1228 49.1333 46.7C45.3455 48.4197 42.8096 52.0825 42.5333 56.2333C42.7704 60.719 46.152 64.408 50.6 65.0333C52.8 65.0333 53.5333 65.7667 53.5333 66.5C60.8667 81.1667 67.4667 95.1 74.0667 109.767C74.8083 110.876 74.8083 112.324 74.0667 113.433C72.5357 116.1 72.4077 119.347 73.7238 122.126C75.0402 124.904 77.6336 126.862 80.6667 127.367C82.2906 127.695 83.6561 128.788 84.3333 130.3C88 137.633 91.4833 144.967 94.9667 152.3C98.45 159.633 101.933 166.967 105.6 174.3C106.33 175.676 106.33 177.324 105.6 178.7C104.334 180.547 103.854 182.822 104.267 185.023C104.679 187.223 105.951 189.17 107.8 190.433C111.345 193.154 116.354 192.84 119.533 189.7C123.203 186.565 123.842 181.134 121 177.233C120.259 176.124 120.259 174.676 121 173.567C126.867 158.9 133.467 143.5 140.067 128.833C140.8 127.367 141.533 126.633 142.267 126.633C144.923 125.832 147.099 123.913 148.225 121.378C149.352 118.843 149.319 115.942 148.133 113.433V110.5C151.067 103.167 154.183 95.8332 157.3 88.4998C160.417 81.1665 163.533 73.8333 166.467 66.5Z" fill="#CD0124"/>
<path d="M109.999 91.6073C111.1 92.353 112.536 92.353 113.637 91.6073C127.46 81.2853 141.282 71.7005 154.378 61.3784C155.105 60.6411 155.833 60.6411 155.833 59.9039V59.1665H64.166C64.9983 59.476 65.7465 59.9814 66.3486 60.6411L109.999 91.6073Z" fill="#CD0124"/>
<path d="M117.334 96.7041C123.096 101.069 128.858 104.706 134.62 108.343C136.06 109.071 138.221 108.343 140.382 108.343C141.102 108.343 141.822 106.889 141.822 106.161C146.864 94.5219 151.905 82.1552 156.947 70.5159C156.947 69.7884 157.667 69.061 157.667 68.3335H156.947C144.703 77.0629 131.019 86.5198 117.334 96.7041Z" fill="#CD0124"/>
</g>
<defs>
<clipPath id="clip0_4_765">
<rect width="220" height="220" fill="white" transform="translate(0 0.5)"/>
</clipPath>
</defs>
</svg>
