<svg width="220" height="221" viewBox="0 0 220 221" fill="none" xmlns="http://www.w3.org/2000/svg">
<g clip-path="url(#clip0_4_772)">
<path d="M110 220.5C170.753 220.5 220 171.253 220 110.5C220 49.747 170.753 0.5 110 0.5C49.247 0.5 0 49.747 0 110.5C0 171.253 49.247 220.5 110 220.5Z" fill="#EDF0F4"/>
<path fill-rule="evenodd" clip-rule="evenodd" d="M161.272 97.5637C163.138 98.3636 168.471 101.03 168.471 105.829C168.471 107.51 168.536 109.17 168.599 110.745C168.754 114.664 168.888 118.058 167.937 119.96C166.871 123.426 163.938 125.826 160.205 126.093C158.072 133.558 154.073 140.49 148.741 146.089C139.142 155.954 125.811 161.02 109.813 161.02C93.816 161.02 80.4849 155.954 70.8865 146.089C65.5539 140.49 61.5546 133.558 59.4216 126.093C55.9555 125.826 52.7559 123.426 51.6895 119.96C51.1765 118.25 51.3215 115.334 51.4915 111.915C51.5866 110.002 51.6895 107.933 51.6895 105.829C51.6895 101.07 56.6314 98.6639 58.556 97.7269C58.68 97.6664 58.7914 97.6121 58.8884 97.5637C65.2873 74.634 86.3507 58.9033 110.08 59.1698C133.81 58.9033 154.873 74.634 161.272 97.5637ZM110.347 157.021C139.409 157.021 159.139 138.091 159.139 109.829C159.139 83.9659 137.276 62.9027 110.347 62.9027C83.4177 62.9027 61.5546 83.9659 61.5546 109.829C61.5546 138.091 81.2848 157.021 110.347 157.021Z" fill="#3B3F4C"/>
<path d="M102.663 102.256C102.663 98.257 99.4638 95.0576 95.4644 95.0576C91.4652 95.0576 88.2656 98.257 88.2656 102.256C88.2656 106.256 91.4652 109.455 95.4644 109.455C99.4638 109.455 102.663 106.256 102.663 102.256Z" fill="#3B3F4C"/>
<path d="M113.061 121.72C113.86 121.72 114.66 120.92 114.66 120.12C114.66 119.32 113.86 118.521 113.061 118.521C112.261 118.521 111.461 119.32 111.461 120.12C111.461 120.92 111.994 121.72 113.061 121.72Z" fill="#3B3F4C"/>
<path d="M99.1934 128.652C99.1934 134.518 103.993 139.051 109.592 139.051H109.858C115.724 139.317 120.523 134.785 120.79 128.919V128.652C117.324 129.986 113.591 130.785 109.858 131.052C106.126 131.052 102.66 130.252 99.1934 128.652Z" fill="#3B3F4C"/>
<path d="M107.188 121.72C107.988 121.72 108.787 120.92 108.787 120.12C108.787 119.32 107.988 118.521 107.188 118.521C106.388 118.521 105.588 119.32 105.588 120.12C105.588 120.92 106.388 121.72 107.188 121.72Z" fill="#3B3F4C"/>
<path d="M125.592 94.791C121.592 94.791 118.393 97.9906 118.393 101.99C118.393 105.989 121.592 109.189 125.592 109.189C129.591 109.189 132.79 105.989 132.79 101.99C132.79 98.2571 129.591 95.0578 125.592 94.791Z" fill="#3B3F4C"/>
<path fill-rule="evenodd" clip-rule="evenodd" d="M110.127 82.2595C117.326 81.7262 124.792 82.2595 131.991 83.5926C149.588 88.1251 150.388 100.123 149.854 113.188C149.854 125.986 145.055 139.584 129.858 145.716C124.792 147.849 118.393 148.116 110.394 148.116C102.395 148.116 95.9964 147.849 90.6638 145.716C75.4664 139.584 69.8672 125.986 69.8672 113.188C69.8672 100.39 70.6671 88.3919 87.731 83.8591C95.1965 82.2596 102.662 81.9928 110.127 82.2595ZM123.992 118.52H125.058C134.124 118.52 141.322 111.055 141.322 102.256C141.322 93.4577 134.124 85.9922 125.058 85.9922C118.393 85.9922 112.527 89.7249 110.127 95.8574C107.728 89.9916 101.595 85.9922 95.1965 85.9922C86.1312 85.9922 78.9325 93.191 78.9325 102.256C78.9325 111.055 86.1312 118.52 95.1965 118.52H95.7297C94.3966 121.986 93.8633 125.453 93.5968 129.185C93.5968 137.984 100.796 145.449 109.861 145.449C118.926 145.449 126.125 138.25 126.125 129.185C125.858 125.719 125.325 121.986 123.992 118.52Z" fill="#3B3F4C"/>
</g>
<defs>
<clipPath id="clip0_4_772">
<rect width="220" height="220" fill="white" transform="translate(0 0.5)"/>
</clipPath>
</defs>
</svg>
