<svg width="220" height="221" viewBox="0 0 220 221" fill="none" xmlns="http://www.w3.org/2000/svg">
<g clip-path="url(#clip0_4_781)">
<path d="M110 220.5C170.751 220.5 220 171.251 220 110.5C220 49.7487 170.751 0.5 110 0.5C49.2487 0.5 0 49.7487 0 110.5C0 171.251 49.2487 220.5 110 220.5Z" fill="#000D17"/>
<path d="M131.157 125.71C127.126 133.349 119.138 138.56 109.926 138.56C96.6621 138.56 85.9099 127.766 85.9099 114.45C85.9099 101.135 96.6621 90.3401 109.926 90.3401C119.138 90.3401 127.126 95.5508 131.157 103.19H156.158C151.142 82.2006 132.375 66.5801 109.926 66.5801C83.6412 66.5801 62.334 87.9712 62.334 114.357C62.334 140.743 83.6412 162.132 109.926 162.132C132.307 162.132 151.028 146.604 156.111 125.71H131.157Z" fill="#FFB0C2"/>
<path d="M147.553 85.2226C152.921 80.8273 156.349 74.1342 156.349 66.6383C156.349 53.3987 145.658 42.6665 132.47 42.6665C119.281 42.6665 108.59 53.3987 108.59 66.6383V66.6564C109.033 66.6443 109.477 66.6373 109.923 66.6373C125.252 66.6373 138.863 73.9206 147.553 85.2226Z" fill="#CC91F0"/>
<path d="M132.488 90.6372C138.209 90.6361 143.46 88.6171 147.572 85.2487C138.884 73.9475 125.272 66.6655 109.943 66.6675C109.497 66.667 109.054 66.6737 108.611 66.6862C108.619 79.917 119.306 90.6383 132.488 90.6372Z" fill="#CC66B8"/>
</g>
<defs>
<clipPath id="clip0_4_781">
<rect width="220" height="220" fill="white" transform="translate(0 0.5)"/>
</clipPath>
</defs>
</svg>
