<svg width="220" height="221" viewBox="0 0 220 221" fill="none" xmlns="http://www.w3.org/2000/svg">
<g clip-path="url(#clip0_4_786)">
<path d="M110 220.5C170.753 220.5 220 171.253 220 110.5C220 49.747 170.753 0.5 110 0.5C49.247 0.5 0 49.747 0 110.5C0 171.253 49.247 220.5 110 220.5Z" fill="#EDF0F4"/>
<path fill-rule="evenodd" clip-rule="evenodd" d="M25.666 109.577C25.6629 155.643 63.0004 192.991 109.066 193C131.195 193.003 152.419 184.216 168.067 168.568C183.716 152.92 192.503 131.696 192.499 109.566C192.49 63.5009 155.142 26.1634 109.077 26.1665C63.0117 26.1696 25.6691 63.5122 25.666 109.577ZM185.971 109.589C185.967 152.06 151.537 186.488 109.066 186.488V186.403C66.6223 186.394 32.2072 152.01 32.1606 109.566C32.1698 67.0949 66.6056 32.6717 109.077 32.678C151.549 32.6842 185.975 67.1173 185.971 109.589Z" fill="black"/>
<path d="M109.999 117.833C114.049 117.833 117.333 114.55 117.333 110.5C117.333 106.45 114.049 103.167 109.999 103.167C105.949 103.167 102.666 106.45 102.666 110.5C102.666 114.55 105.949 117.833 109.999 117.833Z" fill="black"/>
</g>
<defs>
<clipPath id="clip0_4_786">
<rect width="220" height="220" fill="white" transform="translate(0 0.5)"/>
</clipPath>
</defs>
</svg>
