<svg width="220" height="221" viewBox="0 0 220 221" fill="none" xmlns="http://www.w3.org/2000/svg">
<g clip-path="url(#clip0_4_790)">
<path d="M110 220.5C170.751 220.5 220 171.251 220 110.5C220 49.7487 170.751 0.5 110 0.5C49.2487 0.5 0 49.7487 0 110.5C0 171.251 49.2487 220.5 110 220.5Z" fill="#EDF0F4"/>
<path fill-rule="evenodd" clip-rule="evenodd" d="M56.7761 110.5C56.7761 140.829 81.3692 165.5 111.602 165.5C136.273 165.5 157.18 149.073 164.047 126.543H182.942C175.651 159.327 146.479 183.833 111.602 183.833C71.2294 183.833 38.5 151.001 38.5 110.5C38.5 69.9986 71.2294 37.1665 111.602 37.1665C146.479 37.1665 175.651 61.6723 182.942 94.456H164.046C157.185 71.9309 136.273 55.5042 111.602 55.5042C81.3729 55.5042 56.7761 80.1706 56.7761 110.5ZM128.732 100.76C128.738 107.322 125.009 113.315 119.12 116.209L119.12 137.428H104.086V116.208C98.1928 113.318 94.4605 107.324 94.468 100.76C94.468 91.2696 102.145 83.5792 111.602 83.5792C121.059 83.5792 128.732 91.2704 128.732 100.76Z" fill="#3AB03E"/>
</g>
<defs>
<clipPath id="clip0_4_790">
<rect width="220" height="220" fill="white" transform="translate(0 0.5)"/>
</clipPath>
</defs>
</svg>
