<svg width="220" height="221" viewBox="0 0 220 221" fill="none" xmlns="http://www.w3.org/2000/svg">
<g clip-path="url(#clip0_4_793)">
<path d="M110 220.5C170.753 220.5 220 171.253 220 110.5C220 49.747 170.753 0.5 110 0.5C49.247 0.5 0 49.747 0 110.5C0 171.253 49.247 220.5 110 220.5Z" fill="#EDF0F4"/>
<path fill-rule="evenodd" clip-rule="evenodd" d="M98.7448 100.845C101.651 127.377 106.345 155.613 107.216 160.765C108.394 160.643 109.578 160.582 110.763 160.582H111.402C112.319 155.018 116.655 127.368 119.387 102.221C122.238 75.9922 122.459 49.965 122.459 42.6307V41.4385C120.14 39.376 114.767 35.3335 108.186 35.3335C101.605 35.3335 96.3522 39.376 94.0604 41.4385V42.5852C94.2987 47.5451 95.5824 71.9859 98.7448 100.855V100.845ZM124.937 42.6225C124.937 50.002 124.708 76.1481 121.847 102.505C119.391 125.069 115.632 149.63 114.27 158.536C114.132 159.436 114.019 160.177 113.934 160.739C115.118 160.853 116.293 161.04 117.454 161.298C119.774 156.485 131.389 132.337 136.706 114.195C142.794 93.4203 146.305 65.725 146.406 54.5223V52.505C144.363 49.342 139.981 43.5663 134.278 42.0077C129.3 40.6507 126.404 41.2372 124.937 41.8701V42.6225ZM123.332 163.333C122.199 162.787 121.029 162.321 119.83 161.939H119.823C122.629 156.173 133.822 132.704 139.057 114.854C145.19 93.8691 148.756 65.8528 148.857 54.5124V54.4117C153.263 54.4537 157.555 55.8173 161.177 58.3264C166.43 61.746 169.134 68.2644 170.262 71.7664L169.74 73.8289C168.456 78.8715 158.977 104.852 148.791 124.435C140.155 141.037 126.34 159.4 123.332 163.333ZM125.523 164.534C126.958 165.408 128.306 166.418 129.547 167.55L130.101 166.997C134.571 162.534 149.124 148.003 158.93 135.647C170.775 120.721 182.556 99.7664 184.481 95.2289L185.48 92.8635C185.205 89.8563 184.371 85.0804 181.813 81.5412C179.309 78.3297 175.941 75.8998 172.104 74.5368C170.491 80.7681 160.682 106.944 151.019 125.589C142.456 141.953 128.991 159.968 125.515 164.529H125.524L125.523 164.534ZM101.128 162.04C98.8348 157.089 88.6236 134.656 81.7571 112.168C74.1018 87.1033 69.7104 63.8266 68.7954 56.4834C68.7494 56.1275 68.7065 55.7878 68.6656 55.4631L68.6653 55.4602L68.6651 55.4582L68.6647 55.4563C68.6079 55.0057 68.5549 54.5846 68.5017 54.1913C70.4687 49.5976 74.0032 45.8517 78.4752 43.6214C84.6818 40.7613 89.4758 41.5771 91.7313 42.1727V42.6677C91.86 47.6458 93.152 72.1789 96.315 101.121C99.2126 127.606 103.879 155.769 104.795 161.123C103.554 161.347 102.329 161.654 101.128 162.04ZM89.3843 174.041C91.1993 171.052 97.3324 163.039 110.763 163.039V163.042V163.051C124.103 163.051 130.244 171.265 132.105 174.4C121.993 181.597 113.761 186.061 110.864 186.061C107.968 186.061 100.744 182.374 89.3843 174.041ZM186.653 96.3261C184.527 101.204 172.7 122.216 160.831 137.177C150.499 150.195 135.024 165.597 131.257 169.264C132.299 170.4 133.238 171.627 134.062 172.931C142.127 167.03 149.818 160.634 157.091 153.779C176.487 135.444 191.922 117.339 192.458 108.198C192.843 103.476 190.615 98.9221 186.653 96.3261ZM91.6184 167.549C79.9606 157.304 69.1711 146.112 59.3607 134.086C47.1342 119.09 38.687 105.75 34.269 94.5514C33.6689 93.0355 33.1002 91.5074 32.5638 89.9677C32.5561 87.2597 33.2106 84.5909 34.4703 82.1937C37.3026 76.9962 44.4629 74.6218 47.3049 73.8612V73.9114L47.5887 75.0021L47.5968 75.0308C49.6648 82.344 54.4932 99.4206 67.1586 124.084C74.6769 138.805 83.7596 152.674 94.2492 165.449C93.3274 166.091 92.4485 166.792 91.6184 167.549ZM57.4542 135.645C45.5361 120.976 37.1204 107.885 32.4813 96.6915C30.7396 98.2227 27.1271 102.301 27.5313 109.526C28.0534 119.005 41.6678 133.995 66.558 155.557C74.5523 162.487 81.5195 168.117 87.4512 172.552C88.1835 171.4 89.0114 170.311 89.9262 169.298C78.1942 158.991 67.331 147.736 57.4467 135.647H57.4559L57.4542 135.645ZM69.3515 122.926C56.7752 98.481 51.9992 81.5568 49.964 74.3331L49.6422 73.2045C49.3304 72.0865 49.0829 71.1691 48.8906 70.3995C49.5324 67.3371 51.0909 62.7451 54.9321 59.9121C58.2237 57.4778 62.2572 56.2597 66.3461 56.4652V56.749C67.2816 64.1658 71.7003 87.6387 79.3992 112.859C86.2295 135.219 96.3414 157.534 98.8166 162.878C97.9738 163.238 97.1507 163.642 96.3506 164.089C85.8814 151.39 76.828 137.587 69.3515 122.926Z" fill="url(#paint0_linear_4_793)"/>
</g>
<defs>
<linearGradient id="paint0_linear_4_793" x1="8.76516" y1="96.4629" x2="91.9343" y2="204.165" gradientUnits="userSpaceOnUse">
<stop stop-color="white"/>
<stop offset="0.16" stop-color="#D5AC51"/>
<stop offset="0.18" stop-color="#D2A644"/>
<stop offset="0.26" stop-color="#CC9B2E"/>
<stop offset="0.29" stop-color="#E6DE5F"/>
<stop offset="0.45" stop-color="#9D9A62"/>
<stop offset="0.63" stop-color="#787864"/>
<stop offset="0.7" stop-color="#517E69" stop-opacity="0.96"/>
<stop offset="0.89" stop-color="#4F99CA"/>
</linearGradient>
<clipPath id="clip0_4_793">
<rect width="220" height="220" fill="white" transform="translate(0 0.5)"/>
</clipPath>
</defs>
</svg>
