<svg width="220" height="221" viewBox="0 0 220 221" fill="none" xmlns="http://www.w3.org/2000/svg">
<g clip-path="url(#clip0_4_796)">
<path d="M110 220.5C170.751 220.5 220 171.251 220 110.5C220 49.7487 170.751 0.5 110 0.5C49.2487 0.5 0 49.7487 0 110.5C0 171.251 49.2487 220.5 110 220.5Z" fill="#FF3A00"/>
<path fill-rule="evenodd" clip-rule="evenodd" d="M185.167 111.438C185.181 69.5433 151.068 35.4026 109.104 35.3335C67.1684 35.3335 33.0207 69.4326 33 111.32C32.9793 153.283 67.0716 187.458 108.987 187.5H109.056C151.012 187.5 185.152 153.38 185.167 111.438ZM42.8632 111.403C42.8771 74.8691 72.5841 45.1413 109.083 45.1413H109.097C126.675 45.1042 143.538 52.1032 155.923 64.5772C168.389 76.9648 175.377 93.8284 175.324 111.403C175.297 147.923 145.541 177.637 109 177.637C72.5219 177.609 42.8562 147.895 42.8632 111.403ZM141.785 104.618C144.13 116.507 141.114 126.495 132.572 135.169L131.396 136.351L129.902 135.618C129.075 135.214 128.236 134.835 127.385 134.484L124.003 133.073L126.728 130.624C132.047 125.852 134.876 119.62 135.145 112.109C135.422 104.597 132.759 98.0469 127.24 92.645C122.402 87.8985 115.888 85.2495 109.111 85.2718C101.617 85.266 94.4843 88.4897 89.5369 94.1182C84.0173 100.412 81.9078 108.076 83.4502 116.272C84.4037 121.695 87.1107 126.654 91.1554 130.389L93.832 132.872L90.4499 134.235C89.606 134.574 88.7207 134.94 87.773 135.342L86.3207 135.95L85.2139 134.823C79.5216 128.957 76.4366 122.207 75.7935 114.184C74.4308 97.2723 85.3937 82.3737 101.869 78.7633C104.3 78.2254 106.781 77.9517 109.27 77.9471C125.075 77.9623 138.676 89.1209 141.778 104.618H141.785ZM56.3092 94.0075C48.9084 116.542 57.1875 136.739 67.3966 148.124L69.0773 150.012L75.4131 143.192L74.0573 141.622C69.276 136.118 65.8843 129.548 64.1665 122.463C62.1016 114.189 62.3891 105.502 64.9964 97.3828C67.5629 89.2144 72.3787 81.9345 78.892 76.3771C87.2984 69.1306 98.0263 65.1422 109.125 65.1374C121.208 65.0967 132.814 69.8443 141.405 78.3413C149.912 86.7244 154.56 96.9056 155.225 108.595C155.937 121.391 151.994 132.734 143.501 142.3L142.131 143.842L148.335 150.773L150.065 148.926C163.642 134.359 168.193 112.558 161.65 93.3851C153.957 70.9025 132.811 55.8069 109.049 55.8346C85.0736 55.8457 63.8103 71.236 56.3092 94.0075Z" fill="white"/>
</g>
<defs>
<clipPath id="clip0_4_796">
<rect width="220" height="220" fill="white" transform="translate(0 0.5)"/>
</clipPath>
</defs>
</svg>
