<svg width="220" height="221" viewBox="0 0 220 221" fill="none" xmlns="http://www.w3.org/2000/svg">
<g clip-path="url(#clip0_4_799)">
<path d="M110 220.5C170.753 220.5 220 171.253 220 110.5C220 49.747 170.753 0.5 110 0.5C49.247 0.5 0 49.747 0 110.5C0 171.253 49.247 220.5 110 220.5Z" fill="#EDF0F4"/>
<path fill-rule="evenodd" clip-rule="evenodd" d="M123.983 52.1096C117.219 49.8148 110.093 48.3051 102.725 48.1843C94.9348 48.0031 87.6878 49.2109 80.9844 51.6868C74.0395 54.2233 65.8867 59.2961 59.5457 66.5431C51.7554 75.4204 46.1995 87.0758 45.8973 97.5838C45.5954 108.273 46.0786 117.996 54.0502 134.06C59.3041 144.749 68.9667 153.385 75.5493 158.277C83.5208 164.195 99.2829 173.012 115.649 173.012C136.001 173.012 146.931 168.785 160.64 156.163C170.906 146.742 173.805 135.147 174.167 117.09C174.167 116.758 174.137 116.456 174.107 116.154C174.077 115.852 174.047 115.55 174.047 115.218C173.624 108.213 171.873 101.087 168.913 94.0812C166.075 87.1967 162.15 81.0369 157.741 75.6621C153.272 70.2873 148.018 65.4559 142.523 61.5306C136.786 57.6052 130.565 54.4044 123.983 52.1096ZM124.768 53.8005C130.928 55.9746 136.846 59.0546 142.221 62.678C147.595 66.4826 152.427 71.012 156.594 75.9035C160.942 81.0972 164.384 86.8947 167.102 93.3565C169.94 100.12 171.389 106.824 171.812 113.406C172.235 120.291 171.269 126.994 169.276 133.335C166.981 140.099 163.478 146.259 158.526 151.513C153.272 157.069 146.569 161.598 138.476 164.316C129.901 167.275 120.722 168.06 111.603 166.731C102.182 165.403 93.0626 161.9 84.7286 156.646C76.274 151.271 69.027 144.266 63.3503 135.932C57.7944 127.9 54.171 118.721 52.8424 109.058C51.5137 99.7579 52.5404 91.1825 55.258 83.5128C57.7944 76.266 61.8405 69.9853 67.0945 64.852C71.9259 59.9605 77.8441 56.2163 84.4267 53.8005C90.5867 51.5057 97.4712 50.2979 104.597 50.4187C111.603 50.4187 118.427 51.6265 124.768 53.8005Z" fill="#338FFF"/>
<path fill-rule="evenodd" clip-rule="evenodd" d="M109.308 53.257C107.979 53.1362 106.59 53.1362 105.141 53.1362C103.812 53.1362 102.363 53.257 100.974 53.4382C101.592 55.5263 102.186 57.6394 102.787 59.7771L102.788 59.7791C103.125 60.9792 103.465 62.187 103.812 63.4027C105.261 63.1008 106.65 62.9799 108.1 62.9799C109.549 62.9799 110.938 62.9799 112.387 63.1008C111.931 61.6801 111.506 60.2807 111.087 58.8982C110.507 56.9897 109.938 55.1131 109.308 53.257ZM144.697 68.4756C137.691 62.3157 129.236 57.726 120.238 55.1896C121.174 58.2162 122.31 61.3936 123.418 64.4926L123.741 65.3955C127.666 66.7847 131.29 68.6567 134.792 71.0723C139.624 74.2731 143.911 78.6212 147.293 83.5732C145.55 83.7951 143.79 83.967 142.005 84.1414C140.389 84.2994 138.752 84.4593 137.087 84.6602C135.034 82.2446 132.739 80.2518 130.203 78.5004C124.707 74.575 117.943 72.4009 111.24 72.8237C104.114 73.3673 98.1957 76.4471 94.4514 81.2784C90.4053 86.4116 88.6539 93.5378 90.5259 101.207C92.2773 109.3 97.4709 116.184 104.355 120.593C111.119 125.062 119.151 126.934 126.7 125.303C133.947 123.673 139.201 119.143 142.039 113.346C143.247 110.689 143.911 107.85 144.032 104.891C146.157 104.572 148.24 104.212 150.282 103.859C151.722 103.61 153.142 103.365 154.54 103.14C155.204 109.179 154.419 114.976 152.245 120.23C150.615 124.095 148.32 127.598 145.361 130.437C146.991 135.389 148.562 140.22 150.192 145.353C157.983 138.77 162.814 129.893 164.565 120.23C166.196 111.232 165.109 101.268 161.364 91.8467C157.62 82.4862 151.823 74.8165 144.697 68.4756ZM139.684 151.996C138.053 152.66 136.604 153.204 134.974 153.747C133.343 154.291 131.592 154.714 130.022 155.076L129.504 153.2C128.239 148.611 127.01 144.15 125.734 139.737C127.485 139.616 129.116 139.314 130.686 138.77C131.815 138.478 132.857 138.127 133.893 137.779C134.353 137.624 134.811 137.47 135.276 137.321C136.075 139.814 136.823 142.375 137.583 144.977C138.259 147.29 138.945 149.636 139.684 151.996ZM80.018 139.978C90.224 149.158 102.846 154.774 115.89 155.861C115.068 152.571 114.284 149.339 113.517 146.177C112.933 143.767 112.358 141.397 111.784 139.072C106.529 137.864 101.577 135.69 96.9879 132.731C86.6006 125.968 78.8102 115.339 76.3946 103.261C74.0996 91.7259 77.1796 81.3388 83.5206 74.0918C86.1778 71.012 89.4389 68.5964 93.0623 66.7242C92.0962 62.7988 91.1903 59.1754 90.1032 55.4312C80.7427 58.511 72.6504 64.5502 67.2756 72.6425C61.478 81.5199 58.6397 92.5111 60.8136 105.435C62.8066 118.479 69.9328 130.859 80.018 139.978Z" fill="#338FFF"/>
</g>
<defs>
<clipPath id="clip0_4_799">
<rect width="220" height="220" fill="white" transform="translate(0 0.5)"/>
</clipPath>
</defs>
</svg>
