<svg width="220" height="221" viewBox="0 0 220 221" fill="none" xmlns="http://www.w3.org/2000/svg">
<g clip-path="url(#clip0_4_803)">
<path d="M110 220.5C170.751 220.5 220 171.251 220 110.5C220 49.7487 170.751 0.5 110 0.5C49.2487 0.5 0 49.7487 0 110.5C0 171.251 49.2487 220.5 110 220.5Z" fill="#13BF99"/>
<path fill-rule="evenodd" clip-rule="evenodd" d="M95.351 75.5655H95.358H126.481L142.101 48.1665H79.731L95.351 75.5655ZM79.731 172.833H110.916H142.101L126.481 145.427H95.351L79.731 172.833ZM164.101 141.632L148.474 169.045L132.909 141.639H132.916L148.474 114.226H179.666L164.101 141.632ZM73.351 51.8995L57.731 79.3055L42.166 106.704H73.351L88.916 79.3055L73.351 51.8995ZM88.9092 141.639H88.916L73.351 169.045L57.731 141.639L42.166 114.219H73.351L88.916 141.625L88.9092 141.639ZM179.666 106.711L164.101 79.3055L148.474 51.8995L132.909 79.3055L148.481 106.711H179.666Z" fill="white"/>
</g>
<defs>
<clipPath id="clip0_4_803">
<rect width="220" height="220" fill="white" transform="translate(0 0.5)"/>
</clipPath>
</defs>
</svg>
