<svg width="220" height="221" viewBox="0 0 220 221" fill="none" xmlns="http://www.w3.org/2000/svg">
<g clip-path="url(#clip0_4_809)">
<path d="M110 220.5C170.753 220.5 220 171.253 220 110.5C220 49.747 170.753 0.5 110 0.5C49.247 0.5 0 49.747 0 110.5C0 171.253 49.247 220.5 110 220.5Z" fill="#EDF0F4"/>
<path d="M110.917 28C156.834 28 194.333 65.1637 194.333 110.727C194.333 156.291 156.834 193.455 110.917 193.455C64.7442 193.455 27.5 156.545 27.5 110.727C27.5 64.909 64.7442 28 110.917 28Z" fill="#32407B"/>
<path d="M110.918 40.4092C150.138 40.4092 181.925 71.8034 181.925 110.6C181.925 149.396 149.882 181.045 110.918 181.045C71.6969 181.045 39.9102 149.396 39.9102 110.6C39.9102 71.8034 71.6969 40.4092 110.918 40.4092Z" fill="#32407B"/>
<path fill-rule="evenodd" clip-rule="evenodd" d="M38.5293 110.727C38.5293 150.275 71.0136 182.424 110.916 182.424C150.562 182.424 183.302 150.275 183.302 110.727C183.302 71.1791 150.818 39.0303 110.916 39.0303C71.0136 39.0303 38.5293 71.1791 38.5293 110.727ZM41.8544 110.727C41.8544 72.9651 72.804 42.0919 110.916 42.0919C149.027 42.0919 179.977 72.9651 179.977 110.727C179.977 148.489 149.027 179.362 110.916 179.362C72.804 179.362 41.8544 148.489 41.8544 110.727Z" fill="white"/>
<path fill-rule="evenodd" clip-rule="evenodd" d="M80.0545 138.303H141.528C142.552 138.303 143.064 137.547 143.321 136.791V83.8632C143.321 75.0419 135.893 67.9849 126.928 67.9849H94.9105C85.6894 67.9849 78.5176 75.0419 78.5176 83.8632V136.791C78.5176 137.547 79.2861 138.303 80.0545 138.303ZM139.991 135.279H81.8475V84.1153C81.8475 77.0582 87.7385 71.2614 94.9105 71.2614H126.928C134.1 71.2614 139.991 77.0582 139.991 84.1153V135.279Z" fill="white"/>
<path fill-rule="evenodd" clip-rule="evenodd" d="M101.766 80.6297H120.205C121.216 80.6297 121.721 79.8813 121.721 79.133C121.721 78.3846 120.963 77.6362 120.205 77.6362H101.766C101.009 77.6362 100.251 78.3846 100.251 79.133C100.251 79.8813 101.009 80.6297 101.766 80.6297ZM94.9463 129.772C91.4102 129.772 88.6317 127.028 88.6317 123.535C88.6317 120.043 91.4102 117.299 94.9463 117.299C98.4826 117.299 101.261 120.043 101.261 123.535C101.261 127.028 98.23 129.772 94.9463 129.772ZM94.9463 120.293C93.1782 120.293 91.6628 121.789 91.6628 123.535C91.6628 125.282 93.1782 126.778 94.9463 126.778C96.7145 126.778 98.23 125.282 98.23 123.535C97.9775 121.54 96.7145 120.293 94.9463 120.293ZM120.963 123.535C120.963 127.028 123.741 129.772 127.278 129.772C130.814 129.772 133.592 127.028 133.592 123.535C133.592 120.043 130.814 117.299 127.278 117.299C123.741 117.299 120.963 120.043 120.963 123.535ZM127.278 120.293C125.51 120.293 123.994 121.789 123.994 123.535C123.994 125.282 125.51 126.778 127.278 126.778C129.046 126.778 130.561 125.282 130.561 123.535C130.561 121.54 129.046 120.293 127.278 120.293ZM140.412 153.47C139.907 153.47 139.402 153.22 139.149 152.971L129.298 139.251C128.793 138.503 129.046 137.754 129.804 137.255C130.561 136.756 131.319 137.006 131.824 137.754L141.675 151.474C142.18 152.222 141.928 152.971 141.17 153.47H140.412ZM80.5488 153.22C81.054 153.47 81.3067 153.47 81.5591 153.47C82.0644 153.47 82.5695 153.22 82.5695 152.721L92.4205 139.001C92.9256 138.503 92.4205 137.505 91.9152 137.006C91.4102 136.507 90.3998 136.756 89.8945 137.505L80.0437 151.225C79.791 151.723 79.791 152.721 80.5488 153.22Z" fill="white"/>
<path fill-rule="evenodd" clip-rule="evenodd" d="M141.807 93.0843H81.4027C80.6475 93.0843 79.8926 92.3246 79.8926 91.5649C79.8926 90.8051 80.6475 90.0454 81.4027 90.0454H141.807C142.562 90.0454 143.317 90.8051 143.317 91.5649C143.317 92.3246 142.813 93.0843 141.807 93.0843ZM84.9262 152.091C84.6745 152.091 84.4229 152.091 83.9195 151.838C83.1645 151.331 83.1645 150.318 83.4161 149.812L90.7149 139.429C91.2184 138.669 92.225 138.416 92.7285 138.922C93.2317 139.429 93.7352 140.442 93.2317 140.948L85.933 151.331C85.933 151.838 85.4296 152.091 84.9262 152.091ZM81.4027 112.584H141.807C142.813 112.584 143.317 111.825 143.317 111.065C143.317 110.305 142.562 109.545 141.807 109.545H81.4027C80.6475 109.545 79.8926 110.305 79.8926 111.065C79.8926 111.825 80.6475 112.584 81.4027 112.584Z" fill="white"/>
<path fill-rule="evenodd" clip-rule="evenodd" d="M102.984 111.085C103.235 111.587 103.486 111.587 103.988 111.587C104.49 111.587 104.741 111.336 104.992 111.085L119.05 95.2845C119.803 94.7829 119.552 93.7797 119.05 93.2781C118.548 92.5257 117.543 92.7765 117.042 93.2781L102.984 109.079C102.231 109.58 102.482 110.584 102.984 111.085ZM93.9468 111.085C94.1978 111.587 94.4488 111.587 94.951 111.587C95.2019 111.587 95.7041 111.336 95.7041 111.085L102.733 103.31C103.486 102.809 103.235 101.805 102.733 101.304C102.231 100.551 101.227 100.802 100.725 101.304L93.6959 109.079C93.1937 109.58 93.1937 110.584 93.9468 111.085ZM132.856 144.191H88.9263C88.1731 144.191 87.42 143.439 87.42 142.687C87.42 141.934 88.1731 141.182 88.9263 141.182H132.856C133.61 141.182 134.362 141.934 134.362 142.687C134.362 143.439 133.861 144.191 132.856 144.191ZM84.1567 150.712H137.626C138.63 150.712 139.383 149.96 139.132 149.207C139.132 148.455 138.379 147.703 137.626 147.703H84.1567C83.4035 147.703 82.6504 148.455 82.6504 149.207C82.6504 149.96 83.4035 150.712 84.1567 150.712Z" fill="white"/>
<path fill-rule="evenodd" clip-rule="evenodd" d="M48.1816 110.727C48.1816 145.056 76.0388 172.773 110.48 172.773C144.669 172.773 172.273 145.056 172.273 110.727C172.273 76.3987 144.416 48.6816 110.227 48.6816C76.0388 48.6816 48.1816 76.653 48.1816 110.727ZM51.4739 110.727C51.4739 78.1787 77.8116 51.733 110.48 51.733C142.896 51.733 169.487 78.1787 169.487 110.727C169.487 143.276 142.896 169.721 110.48 169.721C78.0648 169.721 51.4739 143.276 51.4739 110.727Z" fill="white"/>
</g>
<defs>
<clipPath id="clip0_4_809">
<rect width="220" height="220" fill="white" transform="translate(0 0.5)"/>
</clipPath>
</defs>
</svg>
