<svg width="220" height="221" viewBox="0 0 220 221" fill="none" xmlns="http://www.w3.org/2000/svg">
<g clip-path="url(#clip0_4_806)">
<path d="M110 220.5C170.751 220.5 220 171.251 220 110.5C220 49.7487 170.751 0.5 110 0.5C49.2487 0.5 0 49.7487 0 110.5C0 171.251 49.2487 220.5 110 220.5Z" fill="#EDF0F4"/>
<path d="M131.218 94.0431C121.632 84.6596 106.423 84.6596 96.8843 94.0431C87.392 103.582 87.5629 119.102 96.993 128.641C106.423 138.179 121.881 138.288 131.373 128.749C131.529 128.594 132.197 127.879 133.408 126.59L121.99 115.063C120.856 116.461 120.172 117.176 120.11 117.176C116.879 120.407 111.659 120.407 108.427 117.176C105.196 113.944 105.196 108.662 108.318 105.493C111.441 102.37 116.677 102.37 119.939 105.602C119.939 105.602 130.161 115.824 150.544 136.315C142.155 148.48 128.095 156.17 112.964 156.17C87.9048 156.17 67.5375 135.632 67.5375 110.262C67.5375 84.8926 87.9202 64.3856 112.964 64.3856C127.598 64.3856 141.036 71.4388 149.379 82.9661C148.027 84.5197 144.594 88.4657 139.048 94.8043L150.358 106.114L169.094 84.8926C159.337 62.8165 137.463 48.1665 112.901 48.1665C78.9251 48.1665 51.334 76.0218 51.334 110.293C51.334 144.565 78.8629 172.482 112.901 172.482C128.359 172.482 141.176 167.588 153.682 156.869C165.039 147.175 170.43 133.69 170.43 133.69L131.218 94.0431Z" fill="url(#paint0_linear_4_806)"/>
</g>
<defs>
<linearGradient id="paint0_linear_4_806" x1="170.441" y1="48.1617" x2="51.334" y2="48.1617" gradientUnits="userSpaceOnUse">
<stop stop-color="#22E6B8"/>
<stop offset="1" stop-color="#00C1CE"/>
</linearGradient>
<clipPath id="clip0_4_806">
<rect width="220" height="220" fill="white" transform="translate(0 0.5)"/>
</clipPath>
</defs>
</svg>
