<svg width="220" height="221" viewBox="0 0 220 221" fill="none" xmlns="http://www.w3.org/2000/svg">
<g clip-path="url(#clip0_4_819)">
<path d="M110 220.5C170.751 220.5 220 171.251 220 110.5C220 49.7487 170.751 0.5 110 0.5C49.2487 0.5 0 49.7487 0 110.5C0 171.251 49.2487 220.5 110 220.5Z" fill="#77C3B0"/>
<path fill-rule="evenodd" clip-rule="evenodd" d="M175.939 92.0347L164.364 80.4688C160.851 76.9405 156.069 74.9662 151.088 74.9871H149.305V73.1371C149.305 69.8961 148.537 66.8128 146.919 64.0379C146.086 62.4284 144.99 60.9694 143.675 59.7211L132.1 48.1482C128.585 44.6185 123.801 42.644 118.818 42.6667H65.4811C60.4617 42.6667 55.7575 44.599 52.2054 48.1482L40.6301 59.7143C37.0885 63.1865 35.1087 67.9464 35.1442 72.9042L34.8357 122.889C34.7671 127.898 36.7695 132.756 40.3216 136.305L51.8969 147.878C55.4108 151.404 60.1925 153.376 65.1726 153.352H67.2573V155.202C67.2573 158.443 68.032 161.527 69.6505 164.302C70.5008 165.926 71.5773 167.385 72.894 168.618L84.4692 180.198C87.9864 183.719 92.7666 185.687 97.7449 185.667H151.164C156.183 185.667 160.887 183.741 164.439 180.191L176.021 168.625C179.547 165.112 181.519 160.335 181.501 155.36V105.225C181.474 100.266 179.476 95.5206 175.946 92.0347H175.939ZM65.1726 136.38C64.6827 136.381 64.2123 136.189 63.8629 135.846L58.0752 130.056L52.2808 124.273C52.0322 123.981 51.8477 123.64 51.739 123.273V72.9864C51.739 72.4382 51.9722 71.9791 52.2877 71.6708L63.8629 60.1048C64.0079 59.9532 64.1593 59.8779 64.3049 59.8053L64.3223 59.7965C64.6083 59.6474 64.9255 59.5676 65.2479 59.5634H118.667C118.975 59.5634 119.208 59.639 119.517 59.7965C119.732 59.8661 119.877 60.0056 120.022 60.1453L120.059 60.1802L131.634 71.7531C131.803 71.8977 131.935 72.0811 132.018 72.2875C132.1 72.3696 132.1 72.4452 132.1 72.5205C132.1 72.5581 132.117 72.5975 132.135 72.6369C132.152 72.6764 132.169 72.7158 132.169 72.7534C132.169 72.7847 132.183 72.8428 132.199 72.911C132.223 73.0075 132.251 73.1242 132.251 73.2124V75.6792C132.251 76.7618 131.401 77.5292 130.4 77.5292H121.142C120.65 77.5316 120.177 77.3396 119.826 76.9948L114.573 71.7531H69.3418L67.4149 73.6717L64.7885 76.3027V119.723L69.3418 124.273H114.498L119.75 118.956L119.819 118.874C119.9 118.835 119.982 118.774 120.062 118.714C120.137 118.657 120.212 118.602 120.285 118.565C120.518 118.415 120.834 118.415 121.06 118.415H130.317C130.934 118.415 131.483 118.723 131.867 119.182C132.107 119.493 132.242 119.872 132.251 120.265V122.889C132.25 123.379 132.055 123.849 131.709 124.198L125.922 129.98L120.134 135.764C120.094 135.807 120.031 135.849 119.969 135.89C119.915 135.926 119.861 135.961 119.826 135.997C119.826 135.997 119.75 136.072 119.668 136.072C119.592 136.154 119.517 136.154 119.435 136.154C119.366 136.154 119.366 136.154 119.284 136.229C119.246 136.229 119.207 136.248 119.167 136.267C119.128 136.286 119.088 136.305 119.051 136.305H65.1726V136.38ZM164.048 156.511C164.397 156.164 164.594 155.694 164.597 155.202C164.597 155.202 164.597 105.225 164.515 105.375V104.992C164.447 104.747 164.343 104.514 164.206 104.3C164.141 104.164 164.072 104.089 164.01 104.023C164 104.012 163.99 104.002 163.98 103.991L158.185 98.2083L152.398 92.4252C152.089 92.1101 151.623 91.877 151.088 91.877H97.2854C97.2479 91.877 97.2084 91.8976 97.1688 91.9183C97.1294 91.9388 97.09 91.9594 97.0524 91.9594C97.0026 92.005 96.9828 92.023 96.9598 92.0301C96.9448 92.0347 96.9285 92.0347 96.9015 92.0347C96.8192 92.0347 96.7437 92.0347 96.6683 92.1168C96.593 92.1168 96.5107 92.1854 96.5107 92.1854C96.4687 92.2311 96.4036 92.2747 96.3398 92.3172C96.2888 92.3513 96.2386 92.3849 96.2021 92.4184L90.4145 98.2083L84.6268 103.991C84.2798 104.338 84.0849 104.809 84.0851 105.3V107.924C84.0959 108.315 84.2305 108.691 84.4692 109C84.8428 109.478 85.412 109.762 86.0189 109.774H95.2763C95.5095 109.774 95.818 109.774 96.0512 109.617C96.1304 109.577 96.2117 109.517 96.2927 109.456C96.366 109.402 96.439 109.347 96.5107 109.308L96.593 109.233L101.839 103.909H146.919L151.472 108.466V151.886L148.846 154.51L146.919 156.436H101.763L96.5107 151.194C96.2021 150.886 95.7427 150.653 95.194 150.653H85.9366C84.9354 150.653 84.0851 151.427 84.0851 152.503V154.969C84.0851 155.063 84.1139 155.182 84.1373 155.28C84.1536 155.347 84.1674 155.405 84.1674 155.435C84.1674 155.472 84.1839 155.509 84.2006 155.547C84.2182 155.586 84.236 155.626 84.236 155.668C84.236 155.744 84.236 155.826 84.3183 155.894C84.3936 156.127 84.5515 156.285 84.7024 156.436L96.2843 168.009C96.4291 168.178 96.6126 168.309 96.8192 168.392C97.0783 168.541 97.3709 168.621 97.6695 168.625H151.088C151.411 168.621 151.728 168.541 152.014 168.392C152.183 168.316 152.339 168.212 152.473 168.084L164.048 156.511Z" fill="white"/>
</g>
<defs>
<clipPath id="clip0_4_819">
<rect width="220" height="220" fill="white" transform="translate(0 0.5)"/>
</clipPath>
</defs>
</svg>
