<svg width="220" height="221" viewBox="0 0 220 221" fill="none" xmlns="http://www.w3.org/2000/svg">
<g clip-path="url(#clip0_4_822)">
<path d="M110 220.5C170.751 220.5 220 171.251 220 110.5C220 49.7487 170.751 0.5 110 0.5C49.2487 0.5 0 49.7487 0 110.5C0 171.251 49.2487 220.5 110 220.5Z" fill="#2FD2E5"/>
<path fill-rule="evenodd" clip-rule="evenodd" d="M61.7204 44.3832C76.6247 33.1698 94.9439 27.4027 113.608 28.049L113.601 28.0559C148.777 29.3286 179.2 52.8673 189.153 86.5138C199.108 120.16 186.365 156.381 157.508 176.467C128.65 196.553 90.1385 196.009 61.8654 175.113C58.8909 172.935 57.0513 169.543 56.852 165.87C56.6527 162.197 58.1146 158.628 60.8362 156.142C65.1827 152.124 71.7997 151.805 76.5156 155.385C100.449 173.719 134.484 170.74 154.844 148.529C157.131 146.014 158.106 142.577 157.48 139.24C156.854 135.903 154.698 133.049 151.653 131.527C147.312 129.349 142.044 130.345 138.805 133.957C128.74 144.956 112.927 148.66 98.9994 143.282C85.0714 137.903 75.8919 124.548 75.8919 109.662C75.8919 94.7766 85.0714 81.4213 98.9994 76.0427C112.927 70.6642 128.74 74.3683 138.805 85.3672L139.337 85.904C141.465 87.8829 144.294 88.938 147.202 88.8373C150.11 88.7365 152.859 87.4884 154.844 85.3672C158.753 81.0169 158.629 74.4019 154.554 70.203C134.112 48.277 100.244 45.5577 76.5433 63.939C71.874 67.5529 65.2569 67.2363 60.9605 63.1888C58.2206 60.7696 56.7165 57.2516 56.8637 53.6064C57.011 49.9613 58.794 46.5752 61.7204 44.3832ZM94.5813 119.681C98.1766 125.941 104.85 129.814 112.088 129.841H112.095C123.284 129.881 132.386 120.874 132.426 109.724C132.467 98.574 123.429 89.5027 112.24 89.4629C105.002 89.4357 98.2996 93.2588 94.6572 99.4918C91.0149 105.725 90.9859 113.421 94.5813 119.681Z" fill="white"/>
</g>
<defs>
<clipPath id="clip0_4_822">
<rect width="220" height="220" fill="white" transform="translate(0 0.5)"/>
</clipPath>
</defs>
</svg>
