<svg width="220" height="221" viewBox="0 0 220 221" fill="none" xmlns="http://www.w3.org/2000/svg">
<g clip-path="url(#clip0_4_845)">
<path d="M110 220.5C170.751 220.5 220 171.251 220 110.5C220 49.7487 170.751 0.5 110 0.5C49.2487 0.5 0 49.7487 0 110.5C0 171.251 49.2487 220.5 110 220.5Z" fill="#EDF0F2"/>
<path d="M109.973 192.981C155.509 192.981 192.424 156.066 192.424 110.529C192.424 64.9928 155.509 28.0781 109.973 28.0781C64.4362 28.0781 27.5215 64.9928 27.5215 110.529C27.5215 156.066 64.4362 192.981 109.973 192.981Z" fill="#C8D2D9"/>
<path d="M162.315 174.156C149.744 184.536 134.337 190.917 118.092 192.465C96.3669 194.591 74.6421 188.017 57.6876 174.156C40.7977 160.296 30.0965 140.312 27.9047 118.523C26.2931 102.277 29.5162 85.9676 37.1876 71.5917C44.859 57.216 56.6562 45.4189 71.0321 37.7475C85.4078 30.0761 101.717 26.7884 117.963 28.3999C134.208 30.0116 149.551 36.3292 162.186 46.7081L145.554 67.0146C136.98 59.988 126.472 55.6043 115.384 54.5729C104.296 53.4769 93.2081 55.7332 83.4093 60.9549C73.6107 66.1766 65.617 74.2349 60.3307 84.0337C55.109 93.8323 52.9173 104.985 54.0131 116.008C55.4959 130.836 62.7804 144.502 74.3198 153.914C85.859 163.39 100.686 167.839 115.513 166.356C126.601 165.26 137.045 160.876 145.618 153.85L162.315 174.156Z" fill="url(#paint0_linear_4_845)"/>
<path d="M110.228 178.024C147.424 178.024 177.53 147.854 177.53 110.722C177.53 73.5257 147.424 43.356 110.228 43.356C73.031 43.356 42.8613 73.5257 42.8613 110.722C42.8613 147.919 73.031 178.024 110.228 178.024Z" fill="white"/>
<path d="M121.448 116.073C121.448 109.755 117.58 107.628 110.037 106.661C104.493 105.887 103.397 104.598 103.397 102.019C103.397 99.4405 105.267 97.8933 108.877 97.8933C112.164 97.8933 114.034 98.9893 114.808 101.632C114.872 101.89 115.066 102.148 115.323 102.342C115.581 102.535 115.839 102.599 116.161 102.599H119.062C119.256 102.599 119.449 102.535 119.578 102.47C119.771 102.406 119.9 102.277 120.029 102.148C120.158 102.019 120.223 101.826 120.287 101.697C120.352 101.503 120.352 101.31 120.287 101.117C119.385 96.9908 116.548 94.5411 112.164 93.7676V89.4485C112.164 89.0616 112.036 88.7393 111.778 88.4814C111.52 88.2236 111.198 88.0947 110.811 88.0947H108.039C107.652 88.0947 107.33 88.2236 107.072 88.4814C106.814 88.7393 106.685 89.0616 106.685 89.4485V93.6387C101.205 94.4122 97.7242 97.9579 97.7242 102.535C97.7242 108.466 101.399 110.722 109.006 111.754C114.227 112.592 115.71 113.687 115.71 116.588C115.71 119.489 113.196 121.423 109.65 121.423C104.88 121.423 103.268 119.36 102.688 116.717C102.624 116.395 102.43 116.137 102.237 115.944C101.979 115.75 101.657 115.621 101.399 115.621H98.2399C98.0465 115.621 97.8533 115.686 97.7242 115.75C97.5308 115.815 97.4019 115.944 97.273 116.073C97.1441 116.202 97.0796 116.395 97.0151 116.524C96.9507 116.717 96.9507 116.911 97.0151 117.04C97.7887 121.552 100.754 124.84 106.749 125.614V129.868C106.749 130.255 106.878 130.577 107.136 130.835C107.394 131.093 107.716 131.222 108.103 131.222H110.875C111.262 131.222 111.584 131.093 111.842 130.835C112.1 130.577 112.229 130.255 112.229 129.868V125.614C117.838 124.711 121.448 120.908 121.448 116.073Z" fill="#283947"/>
<path d="M100.624 135.412C95.4018 133.543 90.8892 130.062 87.6661 125.549C84.4427 121.037 82.7667 115.622 82.7667 110.142C82.7667 104.662 84.5072 99.2474 87.6661 94.7348C90.8892 90.2222 95.4018 86.7411 100.624 84.8717C100.946 84.7426 101.268 84.4848 101.462 84.1625C101.655 83.84 101.784 83.5177 101.784 83.1311V80.6169C101.784 80.4234 101.784 80.1657 101.655 79.9722C101.591 79.7788 101.397 79.5854 101.204 79.4565C101.01 79.3275 100.817 79.2631 100.559 79.1986C100.301 79.1342 100.108 79.1986 99.9144 79.3275C93.3389 81.3905 87.6015 85.5162 83.4758 91.0602C79.4144 96.6042 77.2227 103.244 77.2227 110.142C77.2227 116.975 79.4144 123.68 83.4758 129.224C87.537 134.768 93.2744 138.829 99.9144 140.956C100.108 141.021 100.366 141.085 100.559 141.085C100.752 141.085 101.01 140.956 101.204 140.828C101.397 140.699 101.526 140.505 101.655 140.312C101.719 140.118 101.784 139.86 101.784 139.667V137.153C101.784 136.766 101.655 136.444 101.462 136.122C101.268 135.799 101.01 135.541 100.624 135.412Z" fill="#657786"/>
<path d="M119.317 79.3921C119.123 79.3275 118.866 79.2632 118.672 79.2632C118.479 79.2632 118.221 79.3921 118.028 79.5209C117.834 79.6498 117.705 79.8432 117.576 80.0367C117.512 80.2301 117.447 80.488 117.447 80.6814V83.1955C117.447 83.5823 117.576 83.9046 117.77 84.2269C117.963 84.5492 118.285 84.7426 118.608 84.9361C123.829 86.8055 128.342 90.2867 131.565 94.7992C134.788 99.3118 136.465 104.727 136.465 110.207C136.465 115.686 134.724 121.101 131.565 125.614C128.342 130.126 123.829 133.607 118.608 135.477C118.285 135.606 117.963 135.864 117.77 136.122C117.576 136.444 117.447 136.766 117.447 137.153V139.667C117.447 139.861 117.447 140.118 117.576 140.312C117.641 140.505 117.834 140.699 118.028 140.828C118.221 140.956 118.414 141.021 118.672 141.085C118.866 141.085 119.123 141.085 119.317 140.957C125.892 138.894 131.63 134.768 135.755 129.224C139.817 123.68 142.009 117.04 142.009 110.142C142.009 103.309 139.817 96.6043 135.755 91.0603C131.63 85.5807 125.892 81.4549 119.317 79.3921Z" fill="#657786"/>
</g>
<defs>
<linearGradient id="paint0_linear_4_845" x1="28.1636" y1="52.9354" x2="65.9451" y2="193.018" gradientUnits="userSpaceOnUse">
<stop stop-color="#27D3A2"/>
<stop offset="1" stop-color="#9388FD"/>
</linearGradient>
<clipPath id="clip0_4_845">
<rect width="220" height="220" fill="white" transform="translate(0 0.5)"/>
</clipPath>
</defs>
</svg>
