<svg width="220" height="221" viewBox="0 0 220 221" fill="none" xmlns="http://www.w3.org/2000/svg">
<g clip-path="url(#clip0_4_828)">
<path d="M110 220.5C170.751 220.5 220 171.251 220 110.5C220 49.7487 170.751 0.5 110 0.5C49.2487 0.5 0 49.7487 0 110.5C0 171.251 49.2487 220.5 110 220.5Z" fill="#EDF0F2"/>
<path d="M109.967 183.806C150.442 183.806 183.253 150.995 183.253 110.521C183.253 70.0464 150.442 37.2354 109.967 37.2354C69.4927 37.2354 36.6816 70.0464 36.6816 110.521C36.6816 150.995 69.4927 183.806 109.967 183.806Z" fill="#C8D2D9"/>
<path d="M156.494 167.075C145.321 176.3 131.627 181.973 117.187 183.348C97.8773 185.239 78.5676 179.395 63.4979 167.075C48.4855 154.756 38.974 136.993 37.0257 117.626C35.5933 103.187 38.4583 88.6902 45.2768 75.9124C52.0953 63.1348 62.5811 52.649 75.3589 45.8303C88.1365 39.0118 102.633 36.0894 117.073 37.522C131.512 38.9544 145.149 44.5697 156.38 53.7949L141.597 71.8442C133.976 65.5986 124.636 61.7022 114.781 60.7854C104.925 59.8113 95.0698 61.8168 86.3603 66.4581C77.6507 71.0993 70.5456 78.2616 65.8472 86.9712C61.2059 95.6807 59.2578 105.593 60.2319 115.392C61.5498 128.57 68.0246 140.718 78.281 149.083C88.5376 157.506 101.717 161.46 114.895 160.142C124.751 159.168 134.033 155.272 141.654 149.026L156.494 167.075Z" fill="url(#paint0_linear_4_828)"/>
<path d="M110.202 170.513C143.263 170.513 170.022 143.697 170.022 110.693C170.022 77.6314 143.263 50.8154 110.202 50.8154C77.1402 50.8154 50.3242 77.6314 50.3242 110.693C50.3242 143.755 77.1402 170.513 110.202 170.513Z" fill="white"/>
<path fill-rule="evenodd" clip-rule="evenodd" d="M130.71 102.958H136.269V108.115H131.914C131.971 108.917 132.028 109.719 132.028 110.579V110.693C132.028 111.61 131.971 112.527 131.856 113.444H136.269V118.543H130.596C127.444 126.909 119.308 132.639 108.65 132.639H90.8875V118.543H84.6992V113.444H90.8875V108.057H84.6992V102.958H90.8875V88.6904H108.65C119.48 88.6904 127.674 94.4775 130.71 102.958ZM108.65 93.2743H95.8727V102.958H125.21C122.459 97.1707 116.558 93.2743 108.65 93.2743ZM108.65 128.055H95.8727V118.543H125.21C122.459 124.273 116.558 128.055 108.65 128.055ZM126.699 113.444C126.814 112.584 126.871 111.725 126.871 110.808V110.636C126.871 109.777 126.814 108.917 126.699 108.057H95.8727V113.444H126.699Z" fill="url(#paint1_linear_4_828)"/>
</g>
<defs>
<linearGradient id="paint0_linear_4_828" x1="37.2558" y1="59.3299" x2="70.8375" y2="183.841" gradientUnits="userSpaceOnUse">
<stop stop-color="#27D3A2"/>
<stop offset="1" stop-color="#9388FD"/>
</linearGradient>
<linearGradient id="paint1_linear_4_828" x1="78.3414" y1="82.4952" x2="78.3414" y2="137.28" gradientUnits="userSpaceOnUse">
<stop stop-color="#283947"/>
<stop offset="1" stop-color="#657786"/>
</linearGradient>
<clipPath id="clip0_4_828">
<rect width="220" height="220" fill="white" transform="translate(0 0.5)"/>
</clipPath>
</defs>
</svg>
