<svg width="220" height="221" viewBox="0 0 220 221" fill="none" xmlns="http://www.w3.org/2000/svg">
<g clip-path="url(#clip0_4_853)">
<path d="M110 220.5C170.751 220.5 220 171.251 220 110.5C220 49.7487 170.751 0.5 110 0.5C49.2487 0.5 0 49.7487 0 110.5C0 171.251 49.2487 220.5 110 220.5Z" fill="#EDF0F2"/>
<path d="M109.973 192.981C155.509 192.981 192.424 156.066 192.424 110.529C192.424 64.9928 155.509 28.0781 109.973 28.0781C64.4362 28.0781 27.5215 64.9928 27.5215 110.529C27.5215 156.066 64.4362 192.981 109.973 192.981Z" fill="#C8D2D9"/>
<path d="M162.315 174.156C149.744 184.536 134.337 190.917 118.092 192.465C96.3669 194.591 74.6421 188.017 57.6876 174.156C40.7977 160.296 30.0965 140.312 27.9047 118.523C26.2931 102.277 29.5162 85.9676 37.1876 71.5917C44.859 57.216 56.6562 45.4189 71.0321 37.7475C85.4078 30.0761 101.717 26.7884 117.963 28.3999C134.208 30.0116 149.551 36.3292 162.186 46.7081L145.554 67.0146C136.98 59.988 126.472 55.6043 115.384 54.5729C104.296 53.4769 93.2081 55.7332 83.4093 60.9549C73.6107 66.1766 65.617 74.2349 60.3307 84.0337C55.109 93.8323 52.9173 104.985 54.0131 116.008C55.4959 130.836 62.7804 144.502 74.3198 153.914C85.859 163.39 100.686 167.839 115.513 166.356C126.601 165.26 137.045 160.876 145.618 153.85L162.315 174.156Z" fill="url(#paint0_linear_4_853)"/>
<path d="M110.228 178.024C147.424 178.024 177.53 147.854 177.53 110.722C177.53 73.5257 147.424 43.356 110.228 43.356C73.031 43.356 42.8613 73.5257 42.8613 110.722C42.8613 147.919 73.031 178.024 110.228 178.024Z" fill="white"/>
<path fill-rule="evenodd" clip-rule="evenodd" d="M116.288 112.527C115.902 112.527 114.097 112.656 109.971 112.656C106.683 112.656 104.362 112.527 103.524 112.527C90.8246 111.947 81.4127 109.82 81.4127 107.177C81.4127 104.534 90.889 102.406 103.524 101.826V110.4C104.362 110.464 106.748 110.593 110.035 110.593C113.968 110.593 115.966 110.4 116.288 110.4V101.89C128.924 102.471 138.4 104.598 138.4 107.241C138.4 109.82 128.988 112.012 116.288 112.527ZM116.288 100.988V93.3811H133.952V81.7773H85.9252V93.3811H103.589V100.988C89.213 101.633 78.4473 104.469 78.4473 107.821C78.4473 111.174 89.213 114.01 103.589 114.655V139.087H116.353V114.655C130.664 114.01 141.43 111.174 141.43 107.821C141.43 104.469 130.664 101.633 116.288 100.988Z" fill="#283947"/>
</g>
<defs>
<linearGradient id="paint0_linear_4_853" x1="28.1636" y1="52.9354" x2="65.9451" y2="193.018" gradientUnits="userSpaceOnUse">
<stop stop-color="#27D3A2"/>
<stop offset="1" stop-color="#9388FD"/>
</linearGradient>
<clipPath id="clip0_4_853">
<rect width="220" height="220" fill="white" transform="translate(0 0.5)"/>
</clipPath>
</defs>
</svg>
