<svg width="220" height="221" viewBox="0 0 220 221" fill="none" xmlns="http://www.w3.org/2000/svg">
<g clip-path="url(#clip0_4_825)">
<path d="M110 220.5C170.753 220.5 220 171.253 220 110.5C220 49.747 170.753 0.5 110 0.5C49.247 0.5 0 49.747 0 110.5C0 171.253 49.247 220.5 110 220.5Z" fill="#070A0E"/>
<path fill-rule="evenodd" clip-rule="evenodd" d="M63.5461 147.383C60.2571 145.37 58.2441 141.795 58.2441 137.945V116.451C58.2441 113.899 60.3231 111.831 62.8751 111.842C63.6891 111.842 64.4921 112.062 65.1961 112.469L113.695 140.75C116.533 142.4 118.282 145.436 118.282 148.725V170.989C118.293 174.047 115.818 176.533 112.76 176.533C111.737 176.533 110.725 176.247 109.856 175.719L63.5461 147.383ZM135.838 106.584C138.676 108.234 140.414 111.281 140.425 114.559V159.747C140.425 161.078 139.71 162.31 138.544 162.959L127.929 168.932C127.797 169.009 127.654 169.064 127.5 169.108V144.017C127.5 140.772 125.795 137.758 123.001 136.086L80.4091 110.61V82.2851C80.4091 79.7331 82.4881 77.6651 85.0401 77.6761C85.8541 77.6761 86.6571 77.8961 87.3611 78.3031L135.838 106.584ZM157.068 73.2101C159.917 74.8601 161.666 77.9071 161.666 81.1961V147.196C161.655 148.549 160.907 149.792 159.719 150.441L149.654 155.875V109.928C149.654 106.683 147.949 103.68 145.177 102.008L101.639 75.8941V49.0321C101.639 48.2181 101.859 47.4151 102.255 46.7111C103.542 44.5111 106.369 43.7631 108.569 45.0391L157.068 73.2101Z" fill="#00D395"/>
</g>
<defs>
<clipPath id="clip0_4_825">
<rect width="220" height="220" fill="white" transform="translate(0 0.5)"/>
</clipPath>
</defs>
</svg>
