<svg width="220" height="221" viewBox="0 0 220 221" fill="none" xmlns="http://www.w3.org/2000/svg">
<g clip-path="url(#clip0_4_859)">
<path d="M110 220.5C170.751 220.5 220 171.251 220 110.5C220 49.7487 170.751 0.5 110 0.5C49.2487 0.5 0 49.7487 0 110.5C0 171.251 49.2487 220.5 110 220.5Z" fill="#EDF0F4"/>
<path d="M63.6152 139.856L110.753 92.7183L125.099 107.064L92.3078 139.856L110.753 158.301L143.545 125.51L157.891 139.856L110.753 186.994L63.6152 139.856Z" fill="#1A1A1A"/>
<path d="M49.5 96.362V125.51L110.529 64.4815L171.557 125.51V96.362L110.529 35.3335L49.5 96.362Z" fill="#57A0D6"/>
</g>
<defs>
<clipPath id="clip0_4_859">
<rect width="220" height="220" fill="white" transform="translate(0 0.5)"/>
</clipPath>
</defs>
</svg>
