<svg width="220" height="221" viewBox="0 0 220 221" fill="none" xmlns="http://www.w3.org/2000/svg">
<g clip-path="url(#clip0_4_863)">
<path fill-rule="evenodd" clip-rule="evenodd" d="M110 220.5C49.5 220.5 0 171.001 0 109.952C0.55 49.4535 49.5 -0.0454497 110.55 0.504539C171.05 1.05453 220 50.0035 220 111.602C219.45 171.551 170.5 220.5 110 220.5Z" fill="#EDF0F4"/>
<path fill-rule="evenodd" clip-rule="evenodd" d="M33 66.5L110.67 22.5L188.338 66.5V154.5L187.574 154.883L186.809 155.265L185.662 156.03L110.67 198.5L33 154.5V66.5ZM181.452 66.1174L111.435 26.3262L88.0957 66.1174H181.452ZM37.9738 67.2652L106.844 28.2391L60.9305 107.056L37.9738 67.2652ZM184.895 69.1783H137.452L184.895 149.144V69.1783ZM87.3305 69.1783H130.948L87.3305 93.6652V69.1783ZM83.1217 151.822L36.0609 70.3262V151.822H83.1217ZM113.73 82.5695L134.774 70.7088L156.2 106.674L113.73 82.5695ZM84.2695 73.0043L62.8436 109.735L84.2695 121.978V73.0043ZM111.052 84.4826L129.417 94.8131H104.93L111.052 84.4826ZM106.844 86.3957L88.0957 96.7262L94.2174 107.822L106.844 86.3957ZM121.765 97.8738H134.009V118.917L121.765 97.8738ZM103.017 98.2565L95.7478 110.883L102.252 123.126H117.174L124.826 110.5L117.939 98.2565H103.017ZM137.07 99.0217L158.496 110.883L137.07 147.23V99.0217ZM99.5738 123.126L87.3305 102.083V123.126H99.5738ZM127.122 113.178L133.244 123.891L114.496 134.222L127.122 113.178ZM184.131 153.352L160.409 113.561L114.113 193.143L184.131 153.352ZM65.1391 114.326L107.609 138.43L85.8 150.674L65.1391 114.326ZM116.026 125.804H91.5391L109.904 136.135L116.026 125.804ZM134.009 127.335V152.204H90.0088L134.009 127.335ZM132.861 154.883H39.8869L109.522 194.674L132.861 154.883Z" fill="url(#paint0_linear_4_863)"/>
</g>
<defs>
<linearGradient id="paint0_linear_4_863" x1="188.864" y1="200.447" x2="188.864" y2="23.1715" gradientUnits="userSpaceOnUse">
<stop stop-color="#0B2B85"/>
<stop offset="1" stop-color="#5C25A7"/>
</linearGradient>
<clipPath id="clip0_4_863">
<rect width="220" height="220" fill="white" transform="translate(0 0.5)"/>
</clipPath>
</defs>
</svg>
