<svg width="220" height="221" viewBox="0 0 220 221" fill="none" xmlns="http://www.w3.org/2000/svg">
<g clip-path="url(#clip0_4_866)">
<path d="M110 220.5C170.751 220.5 220 171.251 220 110.5C220 49.7487 170.751 0.5 110 0.5C49.2487 0.5 0 49.7487 0 110.5C0 171.251 49.2487 220.5 110 220.5Z" fill="black"/>
<path d="M110.204 30.7394C109.194 28.4684 112.846 26.8582 113.856 29.019C137.594 69.7032 161.332 110.408 185.069 151.154C183.804 151.154 182.587 150.741 181.37 150.549L118.013 137.983C115.938 137.88 115.481 134.542 117.508 134.047L142.367 127.234C142.966 127.083 143.467 126.673 143.732 126.116C143.997 125.56 143.998 124.915 143.736 124.357L110.204 30.6844V30.7326V30.7394Z" fill="white"/>
<path d="M106.56 30.9458C106.788 31.2762 106.989 31.634 107.162 32.0057C114.673 53.201 122.378 74.3965 129.834 95.5919C130.498 97.3535 128.008 98.8195 126.791 97.505C120.4 90.8436 114.313 83.9827 108.026 77.3213C107.009 76.4128 105.536 77.0184 104.879 77.9748L39.5512 154.334C38.7903 155.139 38.1333 156.35 36.8606 156.501C35.9476 156.501 35.3389 155.793 34.834 155.091V153.921C58.7726 112.947 82.6834 71.9604 106.56 30.9458Z" fill="white"/>
<path d="M86.5699 103.664C87.7873 103.313 89.4057 104.166 89.0046 105.632C86.4662 114.413 83.7825 123.146 81.1403 131.872C80.7392 132.987 81.749 133.991 82.8142 134.046C117.003 140.859 151.192 147.92 185.374 154.733C186.039 154.836 186.496 155.338 187 155.744V157.155L186.032 158.167H40.9199C56.1366 139.999 71.3049 121.728 86.5699 103.664Z" fill="white"/>
</g>
<defs>
<clipPath id="clip0_4_866">
<rect width="220" height="220" fill="white" transform="translate(0 0.5)"/>
</clipPath>
</defs>
</svg>
