<svg width="220" height="221" viewBox="0 0 220 221" fill="none" xmlns="http://www.w3.org/2000/svg">
<g clip-path="url(#clip0_4_871)">
<path d="M110 220.5C170.751 220.5 220 171.251 220 110.5C220 49.7487 170.751 0.5 110 0.5C49.2487 0.5 0 49.7487 0 110.5C0 171.251 49.2487 220.5 110 220.5Z" fill="#2E3148"/>
<path d="M109.997 174.327C145.248 174.327 173.825 145.751 173.825 110.5C173.825 75.2493 145.248 46.6729 109.997 46.6729C74.7464 46.6729 46.1699 75.2493 46.1699 110.5C46.1699 145.751 74.7464 174.327 109.997 174.327Z" fill="#1B1E36"/>
<path fill-rule="evenodd" clip-rule="evenodd" d="M88.7227 110.727C88.7227 57.6003 98.3508 14.5332 110.225 14.5332C122.098 14.5332 131.727 57.6003 131.727 110.727C131.727 163.853 122.098 206.92 110.225 206.92C98.3508 206.92 88.7227 163.853 88.7227 110.727ZM108.993 201.945C108.993 201.945 110.351 203.303 111.709 201.492C111.709 201.492 118.087 196.056 122.641 170.254C122.641 170.254 128.558 136.303 127.652 105.974C127.652 105.974 128.558 71.1181 118.558 33.9987C118.558 33.9987 115.172 22.0344 111.135 19.1735C110.463 18.6954 109.544 18.7697 108.957 19.3495C106.175 22.1011 97.9979 34.4959 93.5029 86.9652C93.5029 86.9652 91.2263 153.056 100.791 183.837C100.791 183.837 103.525 195.609 108.993 201.945Z" fill="#6F7390"/>
<path fill-rule="evenodd" clip-rule="evenodd" d="M99.5005 92.0721C145.605 65.6351 187.749 52.553 193.661 62.8561C199.568 73.1547 167.047 102.94 120.943 129.377C74.8385 155.814 32.6902 168.892 26.7826 158.593C20.8753 148.294 53.3966 118.509 99.5005 92.0721ZM30.4849 155.034C30.4849 155.034 29.9736 156.895 32.237 157.18C32.237 157.18 40.1234 160.009 64.7713 151.127C64.7713 151.127 97.1641 139.371 123.021 123.487C123.021 123.487 153.708 106.924 180.91 79.7679C180.91 79.7679 189.624 70.8799 190.077 65.9519C190.163 65.1285 189.643 64.3633 188.845 64.1409C185.083 63.1051 170.253 62.1679 122.51 84.3809C122.51 84.3809 64.0462 115.294 42.0965 138.91C42.0965 138.91 33.2613 147.14 30.4849 155.034Z" fill="#6F7390"/>
<path fill-rule="evenodd" clip-rule="evenodd" d="M121.027 92.1029C166.969 118.739 199.408 148.661 193.451 158.936C187.498 169.231 145.412 155.986 99.4439 129.35C53.4753 102.714 21.041 72.8098 26.9933 62.5164C32.9458 52.223 75.0846 65.467 121.027 92.1029ZM31.9188 63.898C31.9188 63.898 30.0611 64.4005 30.9411 66.487L30.9473 66.5098C30.9473 66.5098 32.4537 74.744 52.5073 91.6286C52.5073 91.6286 78.8985 113.778 105.588 128.173C105.588 128.173 135.292 146.42 172.435 156.379C172.435 156.379 184.486 159.448 188.985 157.388C189.737 157.047 190.135 156.214 189.926 155.415C188.934 151.639 182.317 138.34 139.168 108.146C139.168 108.146 83.1251 73.0412 51.6959 65.8842C51.6959 65.8842 40.1433 62.3448 31.9188 63.898Z" fill="#6F7390"/>
<path d="M110.002 121.817C116.252 121.817 121.319 116.75 121.319 110.5C121.319 104.25 116.252 99.1831 110.002 99.1831C103.752 99.1831 98.6855 104.25 98.6855 110.5C98.6855 116.75 103.752 121.817 110.002 121.817Z" fill="#B7B9C8"/>
<path d="M156.396 73.8331C160.021 73.8331 162.96 70.7931 162.96 67.043C162.96 63.2929 160.021 60.2529 156.396 60.2529C152.771 60.2529 149.832 63.2929 149.832 67.043C149.832 70.7931 152.771 73.8331 156.396 73.8331Z" fill="#B7B9C8"/>
<path d="M48.6596 96.92C52.2848 96.92 55.2235 93.88 55.2235 90.1299C55.2235 86.3799 52.2848 83.3398 48.6596 83.3398C45.0345 83.3398 42.0957 86.3799 42.0957 90.1299C42.0957 93.88 45.0345 96.92 48.6596 96.92Z" fill="#B7B9C8"/>
<path d="M96.6479 180.212C100.273 180.212 103.212 177.171 103.212 173.421C103.212 169.671 100.273 166.631 96.6479 166.631C93.0227 166.631 90.084 169.671 90.084 173.421C90.084 177.171 93.0227 180.212 96.6479 180.212Z" fill="#B7B9C8"/>
</g>
<defs>
<clipPath id="clip0_4_871">
<rect width="220" height="220" fill="white" transform="translate(0 0.5)"/>
</clipPath>
</defs>
</svg>
