<svg width="220" height="221" viewBox="0 0 220 221" fill="none" xmlns="http://www.w3.org/2000/svg">
<g clip-path="url(#clip0_4_886)">
<path d="M110 220.5C170.751 220.5 220 171.251 220 110.5C220 49.7487 170.751 0.5 110 0.5C49.2487 0.5 0 49.7487 0 110.5C0 171.251 49.2487 220.5 110 220.5Z" fill="#0648B3"/>
<path fill-rule="evenodd" clip-rule="evenodd" d="M136.109 23.2298C128.515 20.845 120.493 19.4295 112.19 19.1152L111.632 22.6065C119.717 22.8765 127.771 24.2519 135.548 26.7397L136.109 23.2298ZM64.3518 30.4935C63.5888 29.9163 62.6386 29.5737 61.6079 29.5737C59.0944 29.5737 57.0568 31.6111 57.0568 34.1247C57.0568 34.4078 57.0828 34.6848 57.1323 34.9538C33.0427 51.4208 17.2305 79.1052 17.2305 110.489C17.2305 144.814 36.1471 174.718 64.1204 190.356L64.71 186.664C58.1997 182.9 52.065 178.24 46.4953 172.67C12.1551 138.33 12.1551 82.6465 46.4953 48.3061C50.419 44.3824 54.6218 40.9079 59.0392 37.8812C59.7705 38.3821 60.6545 38.6754 61.6077 38.6754C64.1215 38.6754 66.1591 36.6379 66.1591 34.1244C66.1591 33.9165 66.145 33.7122 66.1179 33.5119C74.4482 28.9025 83.3679 25.7471 92.5052 24.0475L93.0928 20.3696C82.8254 22.1331 73.145 25.6113 64.3518 30.4935ZM48.1252 159.938C50.6385 159.938 52.6759 161.976 52.6759 164.489C52.6759 165.15 52.5349 165.778 52.2817 166.344C52.3233 166.386 52.3644 166.429 52.4053 166.471C52.4526 166.52 52.5 166.569 52.5484 166.618C56.764 170.833 61.3373 174.47 66.1675 177.539L65.5679 181.295C59.7822 177.765 54.465 173.544 49.7264 168.75C49.2286 168.937 48.6889 169.04 48.1253 169.04C45.6115 169.04 43.5741 167.003 43.5741 164.489C43.5741 163.743 43.7539 163.039 44.072 162.417C32.6353 148.208 25.7908 130.148 25.7908 110.489C25.7908 70.5445 54.0454 37.2036 91.6584 29.3533L91.0626 33.0839C76.9479 36.2807 63.5373 43.3704 52.5484 54.3589C23.6236 83.2836 21.6936 128.982 46.7502 160.149C47.1839 160.012 47.6457 159.938 48.1252 159.938ZM151.035 177.639C150.277 177.075 149.338 176.742 148.321 176.742C145.808 176.742 143.77 178.779 143.77 181.293C143.77 181.43 143.777 181.565 143.788 181.699C138.363 184.374 132.696 186.391 126.905 187.751L126.308 191.489C133.017 190.035 139.422 187.767 145.417 184.797C146.205 185.45 147.217 185.842 148.321 185.842C150.835 185.842 152.872 183.806 152.872 181.292C152.872 181.071 152.856 180.853 152.826 180.641C176.099 165.966 191.564 140.037 191.564 110.488C191.564 95.4246 187.543 81.3021 180.52 69.13C181.065 68.3797 181.386 67.4569 181.386 66.4587C181.386 63.945 179.349 61.9076 176.836 61.9076C176.518 61.9076 176.207 61.9403 175.907 62.0024C169.566 53.2262 161.549 45.7413 152.324 40.0165L151.723 43.7822C156.356 46.7769 160.748 50.3001 164.807 54.3591C167.842 57.3941 170.577 60.6153 173.016 63.9841C172.553 64.6963 172.285 65.5462 172.285 66.4589C172.285 68.9722 174.322 71.0099 176.836 71.0099C177.071 71.0099 177.302 70.992 177.528 70.9575C194.968 101.293 190.731 140.693 164.807 166.618C160.547 170.877 155.923 174.551 151.035 177.639ZM123.795 147.716C123.606 150.056 121.648 151.896 119.259 151.896C117.762 151.896 116.434 151.173 115.604 150.057C92.8414 153.906 68.5875 137.149 68.5875 110.489C68.5875 88.3485 86.5373 70.3985 108.678 70.3985C144.277 70.3985 162.22 113.643 137.025 138.836C132.994 142.867 128.499 145.789 123.795 147.716ZM122.701 144.366C121.866 143.403 120.634 142.794 119.259 142.794C116.989 142.794 115.108 144.455 114.765 146.629C94.0634 149.987 72.0973 134.728 72.0973 110.489C72.0973 77.9986 111.56 61.637 134.545 84.6215C148.83 98.9058 148.83 122.071 134.545 136.355C130.931 139.968 126.911 142.607 122.701 144.366ZM118.868 120.679C127.927 111.62 121.473 96.0766 108.678 96.0766C100.719 96.0766 94.2658 102.53 94.2658 110.489C94.2658 123.283 109.809 129.738 118.868 120.679ZM54.1554 72.3763C54.4498 72.3763 54.7374 72.4046 55.0163 72.4579C63.1886 60.949 74.9699 52.182 88.7113 47.8087L88.0871 51.717C79.5289 54.7078 71.4928 59.624 64.653 66.4635C62.1575 68.9592 59.9223 71.616 57.939 74.3974C58.4237 75.1208 58.7068 75.9911 58.7068 76.9274C58.7068 79.4405 56.6694 81.4781 54.1557 81.4781C53.9645 81.4781 53.776 81.4664 53.5907 81.4433C41.1865 104.952 44.8739 134.733 64.653 154.512C66.1124 155.971 67.6272 157.341 69.1885 158.625L68.5542 162.597C52.9587 150.572 42.9093 131.705 42.9093 110.488C42.9093 99.3641 45.6729 88.8866 50.5485 79.7021C49.9567 78.9342 49.6048 77.9722 49.6048 76.9276C49.6048 74.4137 51.6419 72.3763 54.1554 72.3763ZM41.0124 131.416C43.3796 131.577 45.2494 133.548 45.2494 135.956C45.2494 137.214 44.7386 138.353 43.9134 139.177C47.3469 146.937 52.2412 154.206 58.6006 160.565C61.4482 163.413 64.4811 165.963 67.6555 168.224L67.0415 172.068C55.5393 164.275 46.3378 153.345 40.6628 140.506C38.1656 140.487 36.1478 138.457 36.1478 135.956C36.1478 134.6 36.7402 133.384 37.6801 132.55C35.5159 125.58 34.3497 118.171 34.3497 110.489C34.3497 75.8162 58.0902 46.6906 90.2018 38.476L89.5941 42.2809C78.2433 45.4447 67.5264 51.4859 58.6006 60.4114C39.3868 79.6251 33.5272 107.136 41.0124 131.416ZM199.614 100.794C201.442 101.385 202.762 103.1 202.762 105.124C202.762 106.958 201.676 108.539 200.113 109.26C200.118 109.669 200.124 110.078 200.124 110.489C200.124 155.468 167.65 192.862 124.868 200.505L125.457 196.819C142.092 193.603 157.977 185.553 170.859 172.67C188.311 155.219 196.888 132.255 196.602 109.382C194.882 108.731 193.661 107.071 193.661 105.124C193.661 103.37 194.653 101.848 196.107 101.088C194.048 81.8099 185.635 63.0822 170.859 48.3065C165.443 42.8905 159.495 38.3306 153.185 34.6232L153.776 30.9225C178.795 45.133 196.453 70.8017 199.614 100.794ZM157.67 125.497C157.67 124.062 157.006 122.783 155.969 121.949C156.857 118.273 157.328 114.436 157.328 110.488C157.328 106.257 156.786 102.152 155.771 98.2373L152.778 100.829C154.224 107.465 154.161 114.364 152.587 120.977C150.324 121.241 148.568 123.163 148.568 125.497C148.568 126.782 149.102 127.943 149.959 128.771C148.905 131.151 147.637 133.459 146.151 135.664L148.273 138.757C150.211 136.048 151.878 133.131 153.234 130.046C155.695 129.985 157.67 127.972 157.67 125.497ZM95.5223 89.2901C96.4806 89.2901 97.3694 89.5864 98.1026 90.092C101.268 88.4475 104.864 87.5167 108.678 87.5167C129.074 87.5167 139.358 112.294 124.921 126.731C110.484 141.168 85.7061 130.885 85.7061 110.489C85.7061 104.756 87.8066 99.5139 91.2794 95.4895C91.0807 94.9786 90.9713 94.4227 90.9713 93.8414C90.9713 91.3275 93.0086 89.2901 95.5223 89.2901ZM100.073 93.8412C100.073 93.5878 100.052 93.3399 100.013 93.0979C106.992 89.643 115.951 90.2376 122.44 96.7263C130.039 104.326 130.039 116.651 122.44 124.25C110.213 136.477 89.2158 127.776 89.2158 110.489C89.2158 105.524 90.9487 101.271 93.7062 98.0149C94.2625 98.2573 94.8766 98.3919 95.5223 98.3919C98.036 98.3919 100.073 96.3549 100.073 93.8412ZM108.678 78.9574C120.696 78.9574 130.153 85.2263 135.468 93.9475C135.62 93.9319 135.775 93.9239 135.931 93.9239C138.445 93.9239 140.482 95.9612 140.482 98.4749C140.482 99.8268 139.892 101.041 138.956 101.874C141.923 112.131 139.869 123.887 130.973 132.784C111.159 152.597 77.1472 138.488 77.1472 110.488C77.1472 93.0743 91.2639 78.9574 108.678 78.9574ZM165.887 110.488C165.887 104.053 164.824 97.8672 162.865 92.0947L159.978 94.5943C165.008 110.881 162.116 129.089 151.297 143.165L153.374 146.193C161.203 136.406 165.887 123.995 165.887 110.488ZM108.678 44.7196C116.89 44.7196 124.748 46.2288 131.997 48.9786L131.431 52.5233C123.774 49.5233 115.645 48.0958 107.538 48.2431L108.099 44.7276C108.152 44.7271 108.205 44.7264 108.257 44.7254L108.331 44.724C108.446 44.7219 108.562 44.7196 108.678 44.7196ZM133.372 40.3665C125.88 37.7287 117.839 36.2576 109.466 36.1704L108.907 39.6726C117.006 39.6994 125.099 41.1079 132.808 43.8949L133.372 40.3665ZM110.83 27.6283C119.166 27.8412 127.193 29.2882 134.742 31.7874L134.18 35.3058C126.433 32.6848 118.363 31.2915 110.271 31.1294L110.83 27.6283ZM135.689 103.02C133.288 102.894 131.38 100.908 131.38 98.4751C131.38 97.378 131.768 96.3715 132.414 95.5856C131.318 93.8414 130.01 92.1921 128.492 90.6734C110.887 73.0693 80.6566 85.5978 80.6566 110.489C80.6566 135.379 110.888 147.907 128.492 130.303C135.881 122.914 138.279 112.423 135.689 103.02ZM81.809 197.92C89.4146 200.256 97.4442 201.622 105.752 201.884L106.31 198.392C98.2232 198.173 90.1609 196.846 82.3694 194.411L81.809 197.92ZM107.114 193.355C98.7752 193.201 90.7366 191.815 83.1743 189.372L83.7353 185.859C91.4993 188.422 99.5795 189.751 107.673 189.854L107.114 193.355ZM183.005 110.489C183.005 85.0976 170.273 62.6842 150.846 49.2772L150.229 53.1318C153.212 55.2974 156.065 57.7221 158.755 60.4113C186.41 88.0665 186.41 132.91 158.755 160.565C149.991 169.329 139.501 175.312 128.38 178.52L127.77 182.337C159.568 173.909 183.005 144.937 183.005 110.489ZM108.479 184.814C100.101 184.792 92.0505 183.384 84.5425 180.807L85.105 177.285C92.833 180.006 100.939 181.343 109.04 181.303L108.479 184.814ZM174.446 110.489C174.446 89.5099 164.624 70.8248 149.327 58.7833L148.688 62.7876C150.065 63.945 151.406 65.1682 152.702 66.4642C177.015 90.7767 177.015 130.201 152.702 154.513C146.03 161.185 138.218 166.023 129.895 169.032L129.267 172.965C155.505 164.324 174.446 139.62 174.446 110.489ZM109.721 176.244C109.374 176.251 109.027 176.257 108.678 176.257C100.676 176.257 93.0081 174.827 85.9155 172.209L86.4803 168.671C94.1607 171.596 102.303 172.945 110.41 172.721L109.847 176.242L109.721 176.244ZM97.7753 110.489C97.7753 100.803 109.538 95.9303 116.387 102.779C120.644 107.036 120.644 113.941 116.387 118.198C109.539 125.047 97.7753 120.174 97.7753 110.489Z" fill="white"/>
</g>
<defs>
<clipPath id="clip0_4_886">
<rect width="220" height="220" fill="white" transform="translate(0 0.5)"/>
</clipPath>
</defs>
</svg>
