<svg width="220" height="221" viewBox="0 0 220 221" fill="none" xmlns="http://www.w3.org/2000/svg">
<g clip-path="url(#clip0_4_889)">
<path d="M110 220.5C170.751 220.5 220 171.251 220 110.5C220 49.7487 170.751 0.5 110 0.5C49.2487 0.5 0 49.7487 0 110.5C0 171.251 49.2487 220.5 110 220.5Z" fill="#EDF0F4"/>
<path d="M183.333 115.51L161.986 136.871H141.704C139.412 136.875 137.555 138.732 137.551 141.024V153.197C137.527 154.532 136.439 155.601 135.104 155.6H119.619C118.97 155.6 118.348 155.343 117.889 154.884C117.43 154.425 117.172 153.802 117.173 153.153V123.581L129.849 110.905C130.809 110.002 132.313 110.021 133.249 110.949L138.844 116.545H153.511L162.971 107.091V94.6818L153.279 84.9476H140.241L88.4056 136.782H58.1967L36.666 115.267V86.2338L58.2194 64.6812H87.6811L100.454 77.4529C101.363 78.4009 101.363 79.8973 100.454 80.8453L89.5958 91.6664C88.7298 92.6652 87.2187 92.7744 86.2181 91.9106C86.1587 91.8585 86.1 91.7998 86.0406 91.7478L79.2705 85.0011H66.6307L56.9852 94.6452V106.87L66.6007 116.501H79.987L131.83 64.6665H161.699L183.333 86.2998V115.51Z" fill="#EC1550"/>
</g>
<defs>
<clipPath id="clip0_4_889">
<rect width="220" height="220" fill="white" transform="translate(0 0.5)"/>
</clipPath>
</defs>
</svg>
