<svg width="220" height="221" viewBox="0 0 220 221" fill="none" xmlns="http://www.w3.org/2000/svg">
<g clip-path="url(#clip0_4_892)">
<path d="M109.091 220.5C169.342 220.5 218.182 172.06 218.182 112.303C218.182 52.5461 169.342 4.10645 109.091 4.10645C48.84 4.10645 0 52.5461 0 112.303C0 172.06 48.84 220.5 109.091 220.5Z" fill="white"/>
<path fill-rule="evenodd" clip-rule="evenodd" d="M1.81836 108.697C1.81836 48.9413 50.66 0.5 110.909 0.5C139.842 0.5 167.59 11.8993 188.047 32.1901C208.507 52.481 220 80.0011 220 108.697C220 168.452 171.159 216.893 110.909 216.893C50.66 216.893 1.81836 168.452 1.81836 108.697ZM157.949 151.745L119.695 113.804V114.034C119.016 113.37 118.481 112.575 118.124 111.697C117.729 110.787 117.531 109.804 117.542 108.812C117.537 107.824 117.724 106.844 118.095 105.927C118.459 105.053 118.993 104.259 119.666 103.59L157.949 65.62C159.415 64.1985 160.202 62.2253 160.113 60.1936C160.025 58.162 159.068 56.2639 157.484 54.9734C129.216 32.7336 88.456 35.8003 63.8944 62.0151C39.3329 88.2297 39.2342 128.772 63.668 155.104C88.1016 181.436 128.846 184.698 157.222 162.593C158.885 161.325 159.919 159.408 160.058 157.332C160.197 155.256 159.429 153.22 157.949 151.745Z" fill="#69E2DC"/>
</g>
<defs>
<clipPath id="clip0_4_892">
<rect width="220" height="220" fill="white" transform="translate(0 0.5)"/>
</clipPath>
</defs>
</svg>
