<svg width="220" height="221" viewBox="0 0 220 221" fill="none" xmlns="http://www.w3.org/2000/svg">
<g clip-path="url(#clip0_4_895)">
<path d="M110 220.5C170.751 220.5 220 171.251 220 110.5C220 49.7487 170.751 0.5 110 0.5C49.2487 0.5 0 49.7487 0 110.5C0 171.251 49.2487 220.5 110 220.5Z" fill="#EDF0F4"/>
<path d="M160.778 139.896C150.625 157.396 131.687 169.167 110 169.167C77.5988 169.167 51.3327 142.9 51.3327 110.5C51.3327 78.0984 77.5988 51.8332 110 51.8332C131.708 51.8332 150.662 63.6252 160.808 81.1535L173.502 73.802C160.817 51.9005 137.13 37.1665 110 37.1665C69.4984 37.1665 36.666 69.9988 36.666 110.5C36.666 151.001 69.4984 183.833 110 183.833C137.116 183.833 160.793 169.114 173.481 147.231L160.778 139.896Z" fill="#202020"/>
<path d="M183.334 103.166H122.689C120.152 98.7867 115.426 95.833 110.001 95.833C101.9 95.833 95.334 102.399 95.334 110.5C95.334 118.6 101.9 125.166 110.001 125.166C115.426 125.166 120.152 122.213 122.689 117.833H183.334V103.166Z" fill="#202020"/>
</g>
<defs>
<clipPath id="clip0_4_895">
<rect width="220" height="220" fill="white" transform="translate(0 0.5)"/>
</clipPath>
</defs>
</svg>
