<svg width="220" height="221" viewBox="0 0 220 221" fill="none" xmlns="http://www.w3.org/2000/svg">
<g clip-path="url(#clip0_4_899)">
<path d="M110 220.5C170.751 220.5 220 171.251 220 110.5C220 49.7487 170.751 0.5 110 0.5C49.2487 0.5 0 49.7487 0 110.5C0 171.251 49.2487 220.5 110 220.5Z" fill="#EDF0F4"/>
<path d="M110 186.125C151.767 186.125 185.625 152.267 185.625 110.5C185.625 68.7335 151.767 34.875 110 34.875C68.2335 34.875 34.375 68.7335 34.375 110.5C34.375 152.267 68.2335 186.125 110 186.125Z" fill="white"/>
<path d="M102.657 80.3248C97.0115 83.2202 92.7182 88.3671 90.7441 94.6063C87.5585 103.815 87.1357 113.82 89.5321 123.286C90.6856 128.749 93.3405 133.742 97.171 137.651C99.937 140.553 103.431 142.58 107.25 143.5L106.596 78.875C105.113 79.4582 103.821 79.7583 102.657 80.3248Z" fill="black"/>
<path fill-rule="evenodd" clip-rule="evenodd" d="M27.5 110.5C27.5 64.9365 64.4365 28 110 28C131.88 28 152.865 36.692 168.336 52.1637C183.808 67.6354 192.5 88.6197 192.5 110.5C192.5 156.063 155.563 193 110 193C64.4365 193 27.5 156.063 27.5 110.5ZM142.39 138.005C143.277 137.087 143.987 136.013 144.485 134.838C144.853 133.878 144.648 132.793 143.957 132.033C143.201 131.441 142.233 131.19 141.284 131.339C140.353 131.72 139.506 132.281 138.793 132.989C137.944 133.606 137.109 134.245 136.275 134.884C134.563 136.196 132.852 137.507 131.021 138.616C126.978 140.873 122.553 142.366 117.97 143.021L117.326 77.8135C118.365 77.8795 119.389 77.995 120.412 78.16C125.294 79.0618 129.525 82.0839 131.961 86.41C132.569 87.4891 133.13 88.5953 133.691 89.7023C134.289 90.8804 134.887 92.0596 135.542 93.208C136.142 94.7504 137.866 95.5283 139.419 94.957C140.756 94.4455 141.135 93.34 140.871 91.2445C140.52 89.5525 140.398 87.8209 140.509 86.0965C141.063 82.782 139.47 79.4772 136.532 77.8465C131.928 74.8112 126.711 72.8281 121.253 72.0385L117.441 71.3785C117.607 70.2231 117.749 69.1066 117.887 68.0184C118.161 65.8587 118.422 63.8109 118.828 61.792C119.342 57.8672 120.822 54.1312 123.134 50.9185C125.725 47.734 129.289 47.305 132.919 49.7965C132.758 50.0345 132.591 50.268 132.424 50.502C132.127 50.917 131.829 51.3334 131.566 51.7765C130.214 53.9584 130.47 56.7711 132.193 58.6735C133.872 60.6069 136.618 61.2163 138.957 60.175C141.364 59.2488 142.795 56.7652 142.39 54.2185C142.075 52.4479 141.395 50.7619 140.393 49.2685C136.812 44.256 130.357 42.2008 124.537 44.2195C118.393 46.355 113.422 50.9612 110.825 56.9245C108.602 61.51 107.307 66.4892 107.013 71.5765C106.906 71.6464 106.82 71.7188 106.745 71.7813C106.626 71.8812 106.537 71.956 106.436 71.956L103.747 72.55C94.2478 74.4766 86.0303 80.3814 81.1745 88.7695C74.8039 99.3 73.5887 112.163 77.8745 123.7C82.5605 137.345 91.85 145.876 106.139 148.73C106.576 148.864 106.997 149.046 107.393 149.275C107.229 153.883 106.435 158.446 105.034 162.838C104.284 165.196 103.17 167.423 101.734 169.438C99.341 172.54 95.513 172.721 92.213 170.246C92.3468 170.066 92.4854 169.888 92.6244 169.709C92.9309 169.314 93.2389 168.918 93.5 168.498C94.8072 166.385 94.648 163.679 93.1024 161.734C91.5567 159.788 88.9564 159.022 86.603 159.819C84.1287 160.56 82.516 162.938 82.742 165.511C82.9072 167.265 83.4717 168.958 84.392 170.461C88.07 176.155 95.3001 178.393 101.552 175.774C108.449 173.134 112.723 167.854 115.28 161.254C116.22 158.749 116.886 156.16 117.567 153.513C117.891 152.256 118.218 150.985 118.58 149.704C118.448 149.77 118.613 149.621 118.778 149.621L120.94 149.259C129.167 148.074 136.739 144.102 142.39 138.005Z" fill="black"/>
</g>
<defs>
<clipPath id="clip0_4_899">
<rect width="220" height="220" fill="white" transform="translate(0 0.5)"/>
</clipPath>
</defs>
</svg>
