<svg width="220" height="221" viewBox="0 0 220 221" fill="none" xmlns="http://www.w3.org/2000/svg">
<g clip-path="url(#clip0_4_904)">
<path d="M110 220.5C170.751 220.5 220 171.251 220 110.5C220 49.7487 170.751 0.5 110 0.5C49.2487 0.5 0 49.7487 0 110.5C0 171.251 49.2487 220.5 110 220.5Z" fill="#EDF0F4"/>
<path d="M110 193C155.563 193 192.5 156.063 192.5 110.5C192.5 64.9365 155.563 28 110 28C64.4365 28 27.5 64.9365 27.5 110.5C27.5 156.063 64.4365 193 110 193Z" fill="#0F1529"/>
<path fill-rule="evenodd" clip-rule="evenodd" d="M64.7931 107.052L65.023 106.76C65.6419 106.885 66.2603 107.012 66.8787 107.139C68.2625 107.423 69.6461 107.706 71.0347 107.968C75.4268 108.792 79.8241 109.005 84.2008 107.942C89.7767 106.589 94.5224 103.625 98.7558 99.6962C103.491 95.3013 107.074 89.9423 110.63 84.5314C112.224 82.1059 112.67 80.0225 110.779 77.6798C110.55 77.396 110.352 77.0844 110.12 76.7174C110.004 76.5348 109.88 76.3384 109.739 76.125L108.954 77.5451C105.731 83.412 102.174 89.0405 97.7922 94.0574C95.0556 97.1827 92.0165 99.9242 88.3263 101.785C82.3968 104.775 76.2518 104.594 70.03 103.029C65.182 101.816 60.6052 99.8258 56.0798 97.6854C55.5955 97.4557 55.1047 97.2413 54.613 97.0267C54.3503 96.9119 54.0872 96.7971 53.8248 96.6798L53.625 96.9493C53.6903 97.0798 53.7539 97.2116 53.8173 97.3435C53.9735 97.6672 54.1297 97.9912 54.3118 98.297L59.6622 107.393C60.6987 109.155 61.7353 110.918 62.772 112.681C68.3366 122.146 73.9024 131.612 79.4756 141.07C80.4063 142.646 80.78 143.347 81.2975 143.477C81.8202 143.609 82.4894 143.16 84.0264 142.444C85.4462 141.785 85.4462 141.744 84.6261 140.365L67.3856 111.446C66.5146 109.984 65.6539 108.518 64.7931 107.052ZM154.319 106.633C154.606 106.571 154.919 106.503 155.269 106.423C155.145 106.662 155.047 106.853 154.965 107.015C154.831 107.28 154.737 107.467 154.628 107.647C153.793 109.037 152.953 110.425 152.112 111.813C150.925 113.772 149.739 115.732 148.566 117.701C144.819 123.983 141.093 130.275 137.367 136.566C136.947 137.271 136.501 137.639 135.661 137.199C129.788 134.151 123.407 133.198 117.006 132.472C110.166 131.698 103.25 131.982 96.4957 133.317C95.2877 133.552 94.679 133.654 94.505 133.985C94.3298 134.318 94.5951 134.883 95.1324 136.048C96.1112 138.173 96.4751 138.349 98.5252 137.992C111.635 135.711 124.335 136.857 136.46 142.879C138.295 143.786 138.69 143.651 139.745 141.858C148.345 127.258 156.935 112.653 165.524 98.0482C165.698 97.7558 165.856 97.4505 166.07 97.0362C166.16 96.8629 166.26 96.6704 166.375 96.4519C166.132 96.5492 165.954 96.6163 165.814 96.669C165.626 96.7395 165.508 96.7841 165.396 96.8406C159.513 99.7895 153.511 102.417 147.013 103.516C142.416 104.299 137.839 104.552 133.344 102.821C128.768 101.054 125.298 97.7424 122.054 94.104L119.804 91.6058L118.139 94.3371C117.488 95.4049 117.693 96.3379 118.548 97.1566C119.049 97.6395 119.546 98.1277 120.042 98.6161C121.295 99.8472 122.547 101.079 123.868 102.225C128.435 106.175 133.611 108.626 139.638 108.859C144.148 109.03 148.509 108.123 152.84 106.978C153.297 106.855 153.76 106.754 154.319 106.633Z" fill="white"/>
</g>
<defs>
<clipPath id="clip0_4_904">
<rect width="220" height="220" fill="white" transform="translate(0 0.5)"/>
</clipPath>
</defs>
</svg>
