<svg width="220" height="221" viewBox="0 0 220 221" fill="none" xmlns="http://www.w3.org/2000/svg">
<g clip-path="url(#clip0_4_908)">
<path d="M110 220.5C170.751 220.5 220 171.251 220 110.5C220 49.7487 170.751 0.5 110 0.5C49.2487 0.5 0 49.7487 0 110.5C0 171.251 49.2487 220.5 110 220.5Z" fill="#2992FB"/>
<path fill-rule="evenodd" clip-rule="evenodd" d="M132.515 85.8784L130.407 87.9867C125.187 83.6636 118.613 81.3141 111.835 81.3501C96.4864 81.3514 83.754 93.2268 82.6852 108.538H79.6602C80.6806 91.5308 94.7969 78.275 111.835 78.3251C119.402 78.3641 126.72 81.0346 132.534 85.8784H132.515ZM111.835 89.0501C118.765 89.0493 125.279 92.3605 129.362 97.9601L131.47 95.8334C125.13 87.3814 114.093 83.9343 104.069 87.276C94.0455 90.6178 87.2847 99.9984 87.2847 110.564C87.2847 121.13 94.0455 130.511 104.069 133.853C114.093 137.194 125.13 133.747 131.47 125.295L129.362 123.187C123.42 131.49 112.471 134.491 103.125 130.38C93.7794 126.269 88.5944 116.17 90.6998 106.179C92.8054 96.188 101.625 89.0404 111.835 89.0501ZM134.954 88.1517L132.827 90.3334C133.524 91.0532 134.178 91.8124 134.789 92.6067L136.897 90.3334C136.287 89.5387 135.632 88.7797 134.935 88.0601L134.954 88.1517ZM79.4952 112.608C80.2504 124.747 87.7775 135.425 98.9559 140.216C110.134 145.006 123.058 143.093 132.369 135.268L130.169 133.16C124.973 137.481 118.427 139.842 111.67 139.833C96.301 139.841 83.5529 127.942 82.5019 112.608H79.4952ZM132.809 130.942L134.917 133.05C135.623 132.295 136.284 131.499 136.897 130.667L134.789 128.558C134.179 129.353 133.524 130.112 132.827 130.832L132.809 130.942ZM111.835 147.057C91.6454 147.057 75.2785 130.69 75.2785 110.5C75.2785 90.3105 91.6454 73.9434 111.835 73.9434C122.717 73.9379 133.027 78.8168 139.922 87.2351L142.03 85.1267C130.242 71.0984 110.359 67.0108 93.993 75.2511C77.6272 83.4914 69.0702 101.899 73.32 119.723C77.5697 137.546 93.512 150.113 111.835 150.082C123.527 150.115 134.617 144.899 142.049 135.873L139.94 133.765C133.084 142.244 122.739 147.137 111.835 147.057Z" fill="white"/>
</g>
<defs>
<clipPath id="clip0_4_908">
<rect width="220" height="220" fill="white" transform="translate(0 0.5)"/>
</clipPath>
</defs>
</svg>
