<svg width="220" height="221" viewBox="0 0 220 221" fill="none" xmlns="http://www.w3.org/2000/svg">
<g clip-path="url(#clip0_4_911)">
<path d="M110 220.5C170.753 220.5 220 171.253 220 110.5C220 49.747 170.753 0.5 110 0.5C49.247 0.5 0 49.747 0 110.5C0 171.253 49.247 220.5 110 220.5Z" fill="#141414"/>
<path d="M73.7746 83.3384L114.59 59.7771C115.999 58.963 117.731 58.963 119.14 59.7771L144.846 74.6143C147.431 76.1008 147.896 79.642 145.79 81.7616L137.079 90.5243C135.631 91.9848 133.369 92.2821 131.586 91.2481L119.178 84.0881C117.744 83.2609 115.973 83.2609 114.538 84.0881L71.5 109.187V87.2803C71.5 85.6519 72.3659 84.1526 73.7746 83.3384Z" fill="#FA8C16"/>
<path d="M144.937 146.423L119.127 161.312C117.718 162.126 115.986 162.126 114.59 161.312L73.7746 137.75C72.3659 136.936 71.5 135.437 71.5 133.821V113.944L92.5281 101.756V121.672C92.5281 123.301 93.394 124.8 94.8028 125.601L114.59 137.027C115.999 137.841 117.731 137.841 119.127 137.027L131.65 129.802C133.434 128.768 135.683 129.065 137.13 130.526L145.867 139.263C147.987 141.382 147.522 144.924 144.937 146.423Z" fill="white"/>
</g>
<defs>
<clipPath id="clip0_4_911">
<rect width="220" height="220" fill="white" transform="translate(0 0.5)"/>
</clipPath>
</defs>
</svg>
