<svg width="220" height="221" viewBox="0 0 220 221" fill="none" xmlns="http://www.w3.org/2000/svg">
<g clip-path="url(#clip0_4_915)">
<path d="M110 215C167.714 215 214.5 168.214 214.5 110.5C214.5 52.7862 167.714 6 110 6C52.2862 6 5.5 52.7862 5.5 110.5C5.5 168.214 52.2862 215 110 215Z" fill="white"/>
<path d="M110 220.5C170.751 220.5 220 171.251 220 110.5C220 49.7487 170.751 0.5 110 0.5C49.2487 0.5 0 49.7487 0 110.5C0 171.251 49.2487 220.5 110 220.5Z" fill="url(#paint0_linear_4_915)"/>
<path d="M109.065 136.167C102.457 136.167 96.249 133.564 91.5931 128.909C86.8873 124.204 84.334 118.048 84.334 111.392C84.334 104.785 86.9373 98.5786 91.5931 93.9238C96.2991 89.2191 102.507 86.6665 109.115 86.6665C115.724 86.6665 121.931 89.2191 126.587 93.8737C136.25 103.534 136.25 119.249 126.587 128.909C121.931 133.564 115.674 136.167 109.065 136.167Z" fill="#FEFEFE"/>
<path d="M44.4837 134.333C37.999 134.333 31.9072 131.826 27.2894 127.204C22.7206 122.583 20.166 116.536 20.166 110.046C20.166 103.557 22.7206 97.4603 27.2894 92.8881C29.3035 90.8232 31.9072 89.1516 34.5601 87.9716C48.5612 81.7279 59.0743 92.3964 75.63 75.3367C93.5611 56.9001 78.4301 41.7086 92.3821 27.7952C97.0001 23.1738 103.092 20.6665 109.576 20.6665C116.061 20.6665 122.153 23.2231 126.722 27.7952C136.203 37.2838 136.203 52.7212 126.722 62.2098C112.77 76.0741 96.7544 60.7842 78.3809 79.7121C60.7938 97.8537 75.7772 113.045 61.6289 127.303C57.06 131.826 50.9684 134.333 44.4837 134.333Z" fill="#FEFEFE"/>
<path d="M110.492 200.333C104.005 200.333 97.9111 197.777 93.2916 193.205C88.6724 188.633 86.166 182.536 86.166 176.046C86.166 169.557 88.6724 163.46 93.2916 158.888C95.3065 156.872 97.9111 155.152 100.565 153.972C114.57 147.728 125.087 158.446 141.648 141.386C159.585 122.949 144.449 107.709 158.406 93.7952C163.025 89.1738 169.07 86.6665 175.605 86.6665C182.092 86.6665 188.186 89.1738 192.756 93.7952C202.192 103.235 202.192 118.672 192.756 128.161C178.8 142.025 162.779 126.784 144.4 145.663C126.807 163.755 141.746 178.996 127.642 193.253C123.023 197.777 116.978 200.333 110.492 200.333Z" fill="#FEFEFE"/>
</g>
<defs>
<linearGradient id="paint0_linear_4_915" x1="106.443" y1="264.417" x2="263.917" y2="114.057" gradientUnits="userSpaceOnUse">
<stop stop-color="#744196"/>
<stop offset="1" stop-color="#6FCDE5"/>
</linearGradient>
<clipPath id="clip0_4_915">
<rect width="220" height="220" fill="white" transform="translate(0 0.5)"/>
</clipPath>
</defs>
</svg>
