<svg width="220" height="221" viewBox="0 0 220 221" fill="none" xmlns="http://www.w3.org/2000/svg">
<g clip-path="url(#clip0_4_921)">
<path d="M110 220.5C170.751 220.5 220 171.251 220 110.5C220 49.7487 170.751 0.5 110 0.5C49.2487 0.5 0 49.7487 0 110.5C0 171.251 49.2487 220.5 110 220.5Z" fill="#EDF0F4"/>
<path fill-rule="evenodd" clip-rule="evenodd" d="M42.166 70.8012L109.999 31.6665L177.833 70.8012V149.07L109.999 188.206L42.166 149.07V70.8012ZM83.2195 65.5016H136.643L143.032 92.6784H76.9663L83.2195 65.5016ZM96.8133 129.095L98.5804 112.11L92.7352 96.8908H127.263L121.554 112.11L123.185 129.095H109.863H96.8133ZM136.779 157.631H127.128L115.573 147.032V141.597L127.535 130.183V112.11L143.168 101.919L160.976 115.371L136.779 157.631ZM93.1429 157.767L104.698 147.032V141.597L92.7352 130.183V112.11L76.9663 102.054L59.0224 115.371L83.3553 157.767H93.1429Z" fill="#03316C"/>
</g>
<defs>
<clipPath id="clip0_4_921">
<rect width="220" height="220" fill="white" transform="translate(0 0.5)"/>
</clipPath>
</defs>
</svg>
