<svg width="220" height="221" viewBox="0 0 220 221" fill="none" xmlns="http://www.w3.org/2000/svg">
<g clip-path="url(#clip0_4_2452)">
<path d="M110 220.5C170.751 220.5 220 171.251 220 110.5C220 49.7487 170.751 0.5 110 0.5C49.2487 0.5 0 49.7487 0 110.5C0 171.251 49.2487 220.5 110 220.5Z" fill="#C1A05C"/>
<path fill-rule="evenodd" clip-rule="evenodd" d="M110.986 180.164C94.9923 180.123 80.6742 175.228 67.8872 165.865C64.4871 163.376 64.3835 161.946 67.2804 158.845L67.5424 158.57L67.5449 158.568C69.3141 156.656 70.1932 155.707 71.156 155.612C72.1066 155.519 73.139 156.259 75.1907 157.73L75.2602 157.78C84.9392 164.829 96.5411 168.776 108.524 169.096C121.256 169.536 132.953 166.504 143.526 159.705C156.21 151.551 164.858 140.194 168.479 125.695C173.024 107.49 169.645 90.6326 157.672 75.8172C149.285 65.4362 138.388 58.7469 125.222 55.5776C113.469 52.7451 101.924 53.4396 90.5782 57.3306C84.5709 59.3931 79.019 62.4319 74.0049 66.3367C71.529 68.2617 70.5908 68.2205 68.4873 65.8692C67.4753 64.7734 66.5265 63.6212 65.6458 62.4182C64.3491 60.5894 64.5284 59.5031 66.2803 58.1144C74.6042 51.5331 84.3023 46.8957 94.6612 44.5433C104.036 42.3283 113.769 42.0709 123.249 43.7871C136.133 46.1108 147.595 51.3908 157.437 59.9431C164.721 66.2817 170.611 73.693 174.707 82.3553C180.349 94.2901 182.646 106.789 180.956 119.975C179.448 132.007 174.706 143.408 167.231 152.974C159.596 162.888 149.823 170.12 138.14 174.871C129.532 178.418 120.301 180.218 110.986 180.164ZM106.192 136.935C105.957 137.323 105.766 137.641 105.51 137.904C103.179 140.345 100.331 141.809 96.8959 141.919C95.6749 141.955 94.452 141.919 93.2292 141.884C92.0693 141.85 90.9089 141.817 89.7506 141.844C88.8303 141.835 87.9232 142.063 87.116 142.504C76.1222 149.378 64.2871 150.382 51.8173 147.742C47.7136 146.876 44.0376 145.302 40.9064 142.62C38.5477 140.606 36.8854 138.227 36.6854 134.886C36.3405 129.063 40.665 125.09 45.1203 123.79C53.3485 121.384 61.1765 122.848 68.6666 126.471C71.2415 127.713 73.6914 129.212 76.1396 130.71C76.9441 131.203 77.7483 131.695 78.5568 132.178C80.4329 133.284 80.9915 133.243 81.9294 131.332C86.171 122.697 83.433 113.175 73.0737 109.655C63.9837 106.562 55.0935 106.871 46.3412 110.893C46.13 110.99 45.9153 111.102 45.6973 111.216C44.5922 111.792 43.4027 112.412 42.141 111.402C40.8692 110.374 41.3222 109.188 41.7516 108.064C41.8508 107.804 41.9487 107.548 42.0237 107.297C44.8998 97.6451 47.8172 88.0133 50.776 78.3885C51.4243 76.2778 53.114 75.1917 55.5832 75.3222C57.1376 75.4075 58.6885 75.5556 60.2387 75.7038C62.313 75.902 64.3865 76.0999 66.4666 76.1472C71.915 76.2847 77.3844 76.3328 82.8261 76.0648C86.8745 75.8585 90.4266 74.0847 93.5508 71.5135C93.9303 71.2042 94.6957 70.8467 94.9441 71.0117C95.3095 71.2522 95.5302 71.926 95.5647 72.4348C95.8199 76.601 94.0267 79.8115 90.7023 82.3071C86.7711 85.2633 82.2813 86.6383 77.3775 86.7553C72.2944 86.8721 67.2115 86.9408 62.1351 86.9615C60.9904 86.9753 60.3834 87.3876 60.1144 88.4601C59.6592 90.2476 59.1765 92.0421 58.6591 93.8226C58.2661 95.1494 58.7695 95.6788 60.1144 95.6238C61.0487 95.5897 61.983 95.5474 62.917 95.505C65.1825 95.4024 67.447 95.2999 69.7081 95.3144C77.0585 95.2717 84.1562 97.9859 89.592 102.918C94.9234 107.648 97.0821 113.753 97.4063 120.573C97.6615 126.038 96.6132 131.27 93.5992 135.979C92.7784 137.265 93.1507 137.822 94.5371 138.186C98.2201 139.156 101.62 138.496 104.869 136.687C104.969 136.633 105.066 136.575 105.164 136.517C105.334 136.417 105.503 136.317 105.683 136.234C105.74 136.209 105.815 136.216 106.008 136.235C106.14 136.247 106.327 136.265 106.6 136.282C106.443 136.519 106.312 136.737 106.192 136.935ZM74.9842 137.169L75.0946 137.836C74.5813 138.053 74.0723 138.288 73.5627 138.523C72.4632 139.031 71.3616 139.539 70.2115 139.877C63.6456 141.816 57.1074 141.747 50.6656 139.272C50.0311 139.025 49.3759 138.736 48.8448 138.331C47.1482 137.038 45.6929 135.56 46.2997 133.188C46.8446 131.036 48.7206 130.562 50.5967 130.129C54.7624 129.16 58.7418 130.156 62.5696 131.552C65.2615 132.528 67.8788 133.725 70.4929 134.919C71.5224 135.39 72.5514 135.86 73.5841 136.316C73.9213 136.464 74.2276 136.669 74.5319 136.874C74.6819 136.975 74.8315 137.076 74.9842 137.169Z" fill="white"/>
</g>
<defs>
<clipPath id="clip0_4_2452">
<rect width="220" height="220" fill="white" transform="translate(0 0.5)"/>
</clipPath>
</defs>
</svg>
