<svg width="220" height="221" viewBox="0 0 220 221" fill="none" xmlns="http://www.w3.org/2000/svg">
<g clip-path="url(#clip0_4_2455)">
<path d="M110 0.5C170.742 0.5 220 49.758 220 110.5C220 171.242 170.742 220.5 110 220.5C49.258 220.5 0 171.242 0 110.5C0 49.758 49.258 0.5 110 0.5Z" fill="#1E0B49"/>
<path d="M71.4096 88.4999C76.2716 80.2279 84.0596 75.3219 90.9016 75.4539L93.6736 70.7679C98.4476 62.6499 96.7976 52.7499 89.9776 48.7459C83.1576 44.7419 73.7196 48.1299 68.9236 56.2039L66.1736 60.8899C69.6056 66.8079 69.0776 75.9599 64.2156 84.2759C59.3536 92.5919 51.5656 97.4539 44.7236 97.3219L41.9516 102.008C37.1776 110.126 38.8276 120.026 45.6476 124.03C52.4456 128.034 61.9056 124.668 66.7016 116.572L69.4516 111.886C66.0196 105.968 66.5476 96.7719 71.4096 88.4999Z" fill="#1E90FF"/>
<path d="M64.2371 135.998C59.3751 127.726 51.5871 122.82 44.7451 122.952L41.9731 118.266C37.1991 110.148 38.8491 100.248 45.6691 96.2438C52.4891 92.2398 61.9271 95.5838 66.7231 103.702L69.4731 108.388C66.0411 114.306 66.5691 123.458 71.4311 131.774C76.3151 140.09 84.0811 144.952 90.9231 144.82L93.6951 149.506C98.4691 157.624 96.8191 167.524 89.9991 171.528C83.2011 175.532 73.7411 172.188 68.9451 164.07L66.1951 159.384C69.6051 153.466 69.0771 144.27 64.2371 135.998Z" fill="url(#paint0_linear_4_2455)"/>
<path d="M119.618 135.998C114.756 127.726 106.968 122.82 100.126 122.952L97.354 118.266C92.58 110.148 94.23 100.248 101.05 96.2438C107.87 92.2398 117.308 95.5838 122.082 103.702L124.854 108.388C121.422 114.306 121.95 123.458 126.812 131.774C131.696 140.09 139.462 144.952 146.304 144.82L149.076 149.506C153.85 157.624 152.2 167.524 145.38 171.528C138.582 175.532 129.122 172.188 124.326 164.07L121.576 159.384C125.03 153.466 124.524 144.27 119.618 135.998Z" fill="url(#paint1_linear_4_2455)"/>
<path d="M154.24 136.812C159.102 128.562 166.89 123.634 173.732 123.766L176.504 119.08C181.278 110.962 179.628 101.062 172.808 97.0578C165.988 93.0538 156.55 96.4198 151.754 104.516L149.004 109.202C152.436 115.12 151.908 124.272 147.046 132.588C142.162 140.904 134.396 145.766 127.554 145.634L124.782 150.32C120.008 158.438 121.658 168.338 128.478 172.342C135.298 176.346 144.736 172.98 149.532 164.884L152.282 160.198C148.806 154.258 149.378 145.062 154.24 136.812Z" fill="url(#paint2_linear_4_2455)"/>
<path d="M81.8162 45.6001C72.5982 45.6001 65.1402 53.1901 65.3602 62.4521C65.5582 71.1861 72.6862 78.2921 81.4202 78.5121C90.6822 78.7321 98.2722 71.2741 98.2722 62.0561C98.2722 52.9701 90.9022 45.6001 81.8162 45.6001Z" fill="#1E90FF"/>
<path d="M81.8157 142.18C72.5977 142.18 65.1617 149.77 65.3817 159.054C65.6017 167.964 72.9937 175.136 81.9037 175.092C90.9457 175.048 98.2717 167.722 98.2937 158.658C98.2937 149.572 90.9237 142.18 81.8157 142.18Z" fill="#4B0082"/>
<path d="M136.974 45.6001C127.756 45.6001 120.298 53.1901 120.518 62.4521C120.716 71.1861 127.844 78.2921 136.578 78.5121C145.84 78.7321 153.43 71.2741 153.43 62.0561C153.43 52.9701 146.06 45.6001 136.974 45.6001Z" fill="#1E90FF"/>
<path d="M136.974 142.18C127.756 142.18 120.298 149.77 120.518 159.032C120.716 167.942 128.13 175.136 137.04 175.092C146.082 175.048 153.408 167.722 153.43 158.658C153.43 149.572 146.082 142.202 136.974 142.18Z" fill="#4B0082"/>
<path d="M109.008 93.8896C99.7896 93.8896 92.3316 101.48 92.5516 110.742C92.7496 119.476 99.8776 126.582 108.612 126.802C117.874 127.022 125.464 119.564 125.464 110.346C125.464 101.26 118.094 93.8896 109.008 93.8896Z" fill="#8B008B"/>
<path d="M164.781 93.8896C155.563 93.8896 148.105 101.458 148.325 110.742C148.523 119.476 155.651 126.604 164.363 126.802C173.625 127.022 181.215 119.586 181.215 110.368C181.215 101.26 173.867 93.9116 164.781 93.8896Z" fill="#8B008B"/>
<path d="M53.242 93.8896C44.024 93.8896 36.566 101.48 36.786 110.742C36.984 119.476 44.112 126.582 52.846 126.802C62.108 127.022 69.698 119.564 69.698 110.346C69.698 101.26 62.328 93.8896 53.242 93.8896Z" fill="#1E90FF"/>
</g>
<defs>
<linearGradient id="paint0_linear_4_2455" x1="54.2614" y1="132.099" x2="71.4106" y2="147.602" gradientUnits="userSpaceOnUse">
<stop offset="0.21" stop-color="#1E90FF"/>
<stop offset="1" stop-color="#4B0082"/>
</linearGradient>
<linearGradient id="paint1_linear_4_2455" x1="110.115" y1="131.552" x2="126.191" y2="146.134" gradientUnits="userSpaceOnUse">
<stop stop-color="#8B008B"/>
<stop offset="1" stop-color="#4B0082"/>
</linearGradient>
<linearGradient id="paint2_linear_4_2455" x1="150.311" y1="116.615" x2="133.178" y2="129.607" gradientUnits="userSpaceOnUse">
<stop stop-color="#8B008B"/>
<stop offset="1" stop-color="#4B0082"/>
</linearGradient>
<clipPath id="clip0_4_2455">
<rect width="220" height="220" fill="white" transform="translate(0 0.5)"/>
</clipPath>
</defs>
</svg>
