<svg width="220" height="221" viewBox="0 0 220 221" fill="none" xmlns="http://www.w3.org/2000/svg">
<g clip-path="url(#clip0_4_2468)">
<path d="M110 0.5C170.757 0.5 220 49.753 220 110.5C220 171.257 170.757 220.5 110 220.5C49.253 220.5 0 171.252 0 110.5C0 49.753 49.253 0.5 110 0.5Z" fill="#F5AC37"/>
<path fill-rule="evenodd" clip-rule="evenodd" d="M57.6124 171.138V171.549L57.5926 171.564V171.633H105.306C110.707 171.707 116.087 171.277 121.394 170.326C126.982 169.232 132.427 167.51 137.62 165.173C139.872 164.13 142.032 162.87 144.211 161.599C144.763 161.277 145.316 160.954 145.872 160.634C148.436 158.807 150.891 156.827 153.227 154.724C159.623 148.942 164.573 141.73 167.667 133.686C167.875 132.785 168.756 132.206 169.662 132.379H182.656C183.69 132.379 184.032 132.033 184.032 130.864V122.543C184.1 121.746 184.1 120.94 184.032 120.143C184.032 119.934 184.086 119.727 184.139 119.519C184.245 119.106 184.351 118.693 184.032 118.281H173.176C171.864 118.281 171.864 118.143 171.864 116.974C172.241 112.787 172.241 108.584 171.864 104.397C171.795 103.159 172.072 103.159 173.033 103.159H182.522C183.625 103.159 184.036 102.882 184.036 101.783V90.5066C184.003 89.7597 183.985 89.381 183.787 89.1892C183.583 88.9919 183.189 88.9919 182.388 88.9919H170.082C169.122 89.1553 168.201 88.5068 168.028 87.5465C166.617 83.8588 164.821 80.3293 162.657 77.0276C160.479 73.7705 158.024 70.7114 155.302 67.885C151.683 64.2715 147.619 61.133 143.204 58.5342C136.546 54.6683 129.264 51.9606 121.686 50.5598C118.008 49.8816 114.29 49.4708 110.548 49.3223H58.9885C57.6124 49.3223 57.6124 49.5995 57.6124 50.6984V87.7544C57.6124 89.0612 57.3352 89.0612 56.3056 89.0612H41.5247C40.4258 89.0612 40.4258 89.2642 40.4258 90.0215V102.12C40.4258 103.218 40.7673 103.218 41.594 103.218H56.5135C57.6124 103.218 57.6124 103.421 57.6124 104.248V117.172C57.6124 118.341 57.2659 118.341 56.3749 118.341H40.4258V131.404C40.4258 132.503 40.7673 132.503 41.594 132.503H56.5135C57.6124 132.503 57.6124 132.636 57.6124 133.532V149.689V155.12V171.138ZM152.559 87.8831C152.678 88.19 152.678 88.5316 152.559 88.8434H152.891C152.752 89.2543 152.064 89.3929 152.064 89.3929H72.7298C71.423 89.3929 71.423 89.1157 71.423 88.0861V63.6822C71.423 62.7863 71.5616 62.3754 72.5912 62.3754H109.509C113.439 62.3408 117.359 62.7516 121.196 63.6129C128.799 65.4149 135.873 68.9987 141.823 74.0625C143.011 74.9486 144.07 75.993 144.986 77.1563C146.926 79.0818 148.629 81.2252 150.074 83.5519C151.035 84.9131 151.861 86.3635 152.559 87.8831ZM155.851 118.266H114.053H73.0763C72.2403 118.266 71.8284 118.266 71.6253 118.061C71.428 117.86 71.428 117.466 71.428 116.687V104.451C71.428 103.486 71.7052 103.144 72.7348 103.144H155.92C156.816 103.144 157.227 103.486 157.227 104.312C157.569 108.569 157.569 112.846 157.227 117.098C157.163 118.266 156.742 118.266 155.851 118.266ZM152.559 132.567C151.391 132.438 150.213 132.438 149.045 132.567H72.8041C71.7745 132.567 71.428 132.567 71.428 133.943V157.803C71.428 158.902 71.428 159.179 72.8041 159.179H108.004C109.687 159.307 111.37 159.189 113.018 158.837C118.127 158.471 123.151 157.362 127.943 155.535C129.685 154.931 131.368 154.144 132.957 153.199H133.437C141.689 148.907 148.391 142.165 152.619 133.889C152.619 133.889 153.099 132.849 152.559 132.577V132.567Z" fill="#FEFEFD"/>
</g>
<defs>
<clipPath id="clip0_4_2468">
<rect width="220" height="220" fill="white" transform="translate(0 0.5)"/>
</clipPath>
</defs>
</svg>
