<svg width="220" height="221" viewBox="0 0 220 221" fill="none" xmlns="http://www.w3.org/2000/svg">
<g clip-path="url(#clip0_4_2471)">
<path opacity="0.98" d="M110 220.5C170.751 220.5 220 171.251 220 110.5C220 49.7487 170.751 0.5 110 0.5C49.2487 0.5 0 49.7487 0 110.5C0 171.251 49.2487 220.5 110 220.5Z" fill="#2B2D42"/>
<path d="M26.8906 168.825L87.4975 56.9719L141.024 33.5337L80.3325 145.387L26.8906 168.825Z" fill="url(#paint0_linear_4_2471)"/>
<path d="M87.3262 143.302L133.35 58.3066L159.65 83.9137L114.131 169.076L87.3262 143.302Z" fill="url(#paint1_linear_4_2471)"/>
<path d="M164.714 86.4155L198.769 98.7603L181.741 129.789L140.438 131.207L164.714 86.4155Z" fill="url(#paint2_linear_4_2471)"/>
</g>
<defs>
<linearGradient id="paint0_linear_4_2471" x1="26.8906" y1="168.825" x2="141.024" y2="168.825" gradientUnits="userSpaceOnUse">
<stop stop-color="#4086FF"/>
<stop offset="1" stop-color="#48D4FF"/>
</linearGradient>
<linearGradient id="paint1_linear_4_2471" x1="87.3262" y1="169.075" x2="159.65" y2="169.075" gradientUnits="userSpaceOnUse">
<stop stop-color="#4086FF"/>
<stop offset="1" stop-color="#48D4FF"/>
</linearGradient>
<linearGradient id="paint2_linear_4_2471" x1="140.438" y1="131.207" x2="198.769" y2="131.207" gradientUnits="userSpaceOnUse">
<stop stop-color="#4086FF"/>
<stop offset="1" stop-color="#48D4FF"/>
</linearGradient>
<clipPath id="clip0_4_2471">
<rect width="220" height="220" fill="white" transform="translate(0 0.5)"/>
</clipPath>
</defs>
</svg>
