<svg width="220" height="221" viewBox="0 0 220 221" fill="none" xmlns="http://www.w3.org/2000/svg">
<g clip-path="url(#clip0_4_2476)">
<path d="M109.929 220.5C170.702 220.5 219.929 171.273 219.929 110.5C219.929 49.7274 170.702 0.5 109.929 0.5C49.1564 0.5 0 49.7274 0 110.5C0 171.273 49.2274 220.5 109.929 220.5Z" fill="#008CE3"/>
<path d="M126.715 62.335H83.5085L79.9671 82.3091L118.924 82.3799C138.119 82.3799 143.785 89.3214 143.644 100.867C143.573 106.817 141.023 116.804 139.89 120.062C136.915 128.703 130.894 138.62 108.087 138.549H70.1925L66.5801 158.594H109.645C124.803 158.594 131.319 156.823 138.119 153.636C153.277 146.623 162.343 131.678 165.956 112.129C171.409 83.0175 164.68 62.335 126.715 62.335Z" fill="white"/>
<path d="M64.95 100.442C53.6173 100.442 51.9882 107.809 50.9256 112.271C49.509 118.079 49.084 120.488 49.084 120.488H93.2824C104.615 120.488 106.244 113.121 107.307 108.659C108.723 102.851 109.148 100.442 109.148 100.442H64.95Z" fill="white"/>
</g>
<defs>
<clipPath id="clip0_4_2476">
<rect width="220" height="220" fill="white" transform="translate(0 0.5)"/>
</clipPath>
</defs>
</svg>
