<svg width="220" height="221" viewBox="0 0 220 221" fill="none" xmlns="http://www.w3.org/2000/svg">
<g clip-path="url(#clip0_4_2480)">
<path d="M110 220.5C170.751 220.5 220 171.251 220 110.5C220 49.7487 170.751 0.5 110 0.5C49.2487 0.5 0 49.7487 0 110.5C0 171.251 49.2487 220.5 110 220.5Z" fill="#2D9CDB"/>
<path fill-rule="evenodd" clip-rule="evenodd" d="M144.2 41.4599C142.554 39.8246 140.377 39.0036 137.677 39.0036C135.261 38.9358 132.916 39.8187 131.153 41.4599C129.507 43.0951 128.68 45.2504 128.68 47.9393V95.2311C120.361 85.0584 107.837 79.1931 94.6423 79.2891C86.183 79.2891 78.4812 81.3965 71.5442 85.5974C64.7242 89.7985 59.3166 95.6415 55.321 103.113C51.4358 110.468 49.5 118.706 49.5 127.813C49.5 136.919 51.6149 145.212 55.8446 152.683C59.9945 159.957 66.0196 166.003 73.3009 170.198C80.8304 174.4 89.1176 176.5 98.1695 176.5C107.228 176.5 115.398 174.4 122.687 170.198C129.968 166.003 135.993 159.957 140.143 152.683C144.497 145.212 146.667 136.912 146.667 127.813V47.9393C146.667 45.2504 145.847 43.0951 144.2 41.4599ZM114.041 156.535C109.344 159.34 104.055 160.736 98.1728 160.736C92.2913 160.736 86.9466 159.34 82.1254 156.535C77.3967 153.59 73.509 149.489 70.8347 144.623C68.1342 139.601 66.7839 134.004 66.7839 127.813C66.7839 121.62 68.1342 116.072 70.8347 111.173C73.4785 106.333 77.3734 102.28 82.1185 99.432C86.9407 96.5173 92.2933 95.053 98.1695 95.053C104.052 95.053 109.343 96.5173 114.041 99.432C118.84 102.213 122.751 106.283 125.325 111.173C128.032 116.072 129.39 121.627 129.39 127.813C129.39 133.998 128.032 139.601 125.332 144.63C122.727 149.543 118.824 153.659 114.041 156.535ZM98.1728 160.736C98.1717 160.736 98.1706 160.736 98.1695 160.736H98.1763C98.1752 160.736 98.1741 160.736 98.1728 160.736Z" fill="white"/>
</g>
<defs>
<clipPath id="clip0_4_2480">
<rect width="220" height="220" fill="white" transform="translate(0 0.5)"/>
</clipPath>
</defs>
</svg>
