<svg width="220" height="221" viewBox="0 0 220 221" fill="none" xmlns="http://www.w3.org/2000/svg">
<g clip-path="url(#clip0_4_2483)">
<path d="M110 220.5C170.751 220.5 220 171.251 220 110.5C220 49.7487 170.751 0.5 110 0.5C49.2487 0.5 0 49.7487 0 110.5C0 171.251 49.2487 220.5 110 220.5Z" fill="#2A2463"/>
<path fill-rule="evenodd" clip-rule="evenodd" d="M93.2828 219.237C89.8561 201.71 89.7161 183.689 96.484 168.837C102.708 155.18 109.952 144.584 116.38 135.182C130.642 114.322 140.892 99.331 127.085 69.7997C123.352 61.8154 119.484 54.4494 115.848 47.5254C106.748 30.1968 99.1014 15.6361 98.6666 1.07707C102.394 0.695507 106.176 0.5 110.003 0.5C170.754 0.5 220.003 49.7485 220.003 110.5C220.003 171.251 170.754 220.5 110.003 220.5C104.319 220.5 98.7348 220.069 93.2828 219.237Z" fill="#954C5D"/>
<path fill-rule="evenodd" clip-rule="evenodd" d="M99.9805 0.950142C101.137 15.6949 106.022 31.838 118.179 45.3196C148.781 79.2593 166.585 99.8458 166.585 129.891C166.585 154.388 145.133 195.53 106.45 220.443C107.629 220.482 108.811 220.5 110 220.5C170.751 220.5 220 171.251 220 110.5C220 49.7485 170.751 0.5 110 0.5C106.623 0.5 103.281 0.652207 99.9805 0.950142Z" fill="#ED7B69"/>
<path fill-rule="evenodd" clip-rule="evenodd" d="M205.46 165.194C205.722 162.402 205.935 159.536 206.091 156.598C208.302 115.014 184.487 89.6102 164.566 68.3606C159.432 62.8837 154.555 57.6827 150.451 52.5519C140.469 40.0741 133.71 19.8951 129.586 2.23779C180.993 11.4761 220 56.4323 220 110.499C220 130.409 214.711 149.083 205.46 165.194Z" fill="#EC877B"/>
</g>
<defs>
<clipPath id="clip0_4_2483">
<rect width="220" height="220" fill="white" transform="translate(0 0.5)"/>
</clipPath>
</defs>
</svg>
