<svg width="220" height="221" viewBox="0 0 220 221" fill="none" xmlns="http://www.w3.org/2000/svg">
<g clip-path="url(#clip0_4_2499)">
<path d="M110 220.5C170.751 220.5 220 171.251 220 110.5C220 49.7487 170.751 0.5 110 0.5C49.2487 0.5 0 49.7487 0 110.5C0 171.251 49.2487 220.5 110 220.5Z" fill="#EDF0F4"/>
<path d="M102.695 120.587H131.509C142.215 120.587 150.984 111.931 150.984 101.112C150.984 90.2923 142.329 81.7505 131.623 81.7505H122.398L102.695 64.6671H131.509C151.668 64.5532 168.068 80.8395 168.068 100.998C168.182 115.917 159.071 129.356 145.176 134.937L167.954 154.64H141.987L102.695 120.587Z" fill="url(#paint0_linear_4_2499)"/>
<path d="M116.821 98.8339H88.0074C77.3018 98.8339 68.5323 107.489 68.5323 118.309C68.5323 129.128 77.1878 137.784 88.0074 137.784H97.2324L116.821 154.867H88.0074C67.849 154.867 51.4489 138.581 51.335 118.537C51.2212 103.503 60.3323 90.0643 74.2268 84.4839L51.4489 64.667H77.5295L116.821 98.8339Z" fill="#4971FA"/>
<path d="M116.821 98.8339H88.0074C77.3018 98.8339 68.5323 107.489 68.5323 118.309C68.5323 129.128 77.1878 137.784 88.0074 137.784H97.2324L116.821 154.867H88.0074C67.849 154.867 51.4489 138.581 51.335 118.537C51.2212 103.503 60.3323 90.0643 74.2268 84.4839L51.4489 64.667H77.5295L116.821 98.8339Z" fill="url(#paint1_linear_4_2499)"/>
</g>
<defs>
<linearGradient id="paint0_linear_4_2499" x1="102.751" y1="154.59" x2="168.043" y2="154.59" gradientUnits="userSpaceOnUse">
<stop stop-color="#62D0C9"/>
<stop offset="1" stop-color="#7DE2AC"/>
</linearGradient>
<linearGradient id="paint1_linear_4_2499" x1="51.5391" y1="154.677" x2="116.832" y2="154.677" gradientUnits="userSpaceOnUse">
<stop stop-color="#3268FB"/>
<stop offset="1" stop-color="#4795FA"/>
</linearGradient>
<clipPath id="clip0_4_2499">
<rect width="220" height="220" fill="white" transform="translate(0 0.5)"/>
</clipPath>
</defs>
</svg>
