<svg width="220" height="221" viewBox="0 0 220 221" fill="none" xmlns="http://www.w3.org/2000/svg">
<g clip-path="url(#clip0_4_2504)">
<path d="M110 220.5C170.751 220.5 220 171.251 220 110.5C220 49.7487 170.751 0.5 110 0.5C49.2487 0.5 0 49.7487 0 110.5C0 171.251 49.2487 220.5 110 220.5Z" fill="#5BC1D4"/>
<path fill-rule="evenodd" clip-rule="evenodd" d="M76.7265 84.1702C76.7539 83.8833 76.8331 83.6037 76.9605 83.3452L84.1655 67.5538C84.6651 66.4584 85.1669 65.3637 85.6688 64.2692C86.6726 62.08 87.6763 59.8909 88.6615 57.6954C89.0053 56.9392 89.5073 56.5612 90.3598 56.5267C91.7903 56.4831 93.2211 56.4198 94.6516 56.3566C95.4691 56.3204 96.2866 56.2843 97.1042 56.2519L110.373 55.7499C111.232 55.712 112.093 55.6634 112.955 55.6148C113.652 55.5756 114.35 55.5363 115.048 55.5024C116.162 55.4544 116.925 56.1281 116.932 57.2212C116.98 57.8879 116.554 58.3212 116.004 58.6992L111.755 61.5935L86.3585 78.8697L78.246 84.397C78.0568 84.5402 77.8542 84.6645 77.641 84.7683C77.1598 84.9745 76.6992 84.6858 76.7265 84.1702ZM80.4185 86.2327C83.6223 84.0395 86.826 81.8602 90.0365 79.681L121.043 58.5617C122.074 57.8604 122.727 58.0049 123.243 59.1187C124.763 62.3739 126.276 65.6329 127.79 68.8927L127.791 68.8951L127.792 68.8973L127.794 68.9002L127.795 68.903C128.408 70.2243 129.023 71.5468 129.637 72.8681C129.76 73.1341 129.881 73.4014 130.002 73.6695C130.151 73.9973 130.3 74.3265 130.455 74.6556C130.682 75.1369 130.53 75.5286 130.242 75.9617C129.866 76.4926 129.548 77.0619 129.293 77.6599C129.066 78.2304 128.722 78.5397 128.104 78.6497C125.771 79.0642 123.44 79.4859 121.11 79.9076L121.107 79.9081C118.879 80.3113 116.65 80.7144 114.422 81.111L98.2385 84.019L80.5698 87.1951C80.4049 87.2226 80.2372 87.2136 80.0683 87.2044C79.9836 87.1998 79.8986 87.1951 79.8135 87.1951L79.6623 86.9133C79.7503 86.8348 79.835 86.7523 79.9195 86.6698C80.0794 86.5138 80.2387 86.3585 80.4185 86.2327ZM138.794 84.3077C137.467 82.259 138.966 79.4267 141.173 79.0622C144.616 78.4886 148.052 77.8654 151.487 77.2426L151.489 77.2423C153.939 76.798 156.389 76.3536 158.842 75.9274C160.141 75.7004 161.172 76.2986 161.887 77.3711C162.859 78.829 163.819 80.2913 164.778 81.7545L165.565 82.9535L166.624 84.5578C168.857 87.942 171.091 91.3274 173.3 94.7231C173.531 95.0797 173.685 95.4865 173.838 95.8926C173.912 96.0891 173.987 96.2856 174.07 96.4761L173.919 96.5449C173.876 97.5484 173.504 98.5102 172.86 99.2809C171.231 101.469 169.594 103.653 167.957 105.837L167.953 105.841C165.97 108.487 163.987 111.133 162.018 113.787C161.329 114.66 160.254 115.137 159.144 115.061C158.035 114.985 157.034 114.367 156.47 113.409C152.564 106.924 148.627 100.455 144.692 93.9868L144.69 93.9843L144.688 93.9819L144.687 93.9795L144.686 93.9773L144.681 93.97L144.677 93.9624L144.672 93.9551L144.668 93.9478C143.312 91.7199 141.957 89.492 140.602 87.2638C140.453 87.0167 140.305 86.7686 140.156 86.5208C139.71 85.7757 139.263 85.0295 138.794 84.3077ZM95.6878 116.88L84.344 128.733C83.4668 129.648 82.5971 130.568 81.7277 131.487C80.5742 132.706 79.4214 133.925 78.253 135.133C78.02 135.375 77.7209 135.551 77.4217 135.727C77.2793 135.811 77.1369 135.894 77.0017 135.985C76.108 135.841 75.4205 135.284 75.3035 134.473C75.1138 133.238 74.9442 132.001 74.7948 130.761C74.5885 129.124 74.0865 128.671 72.4298 128.464C69.0986 128.062 65.774 127.627 62.443 127.192L62.186 127.158L54.3898 126.148C52.836 125.941 52.2723 124.828 53.0835 123.501C54.5137 121.198 55.9518 118.903 57.3887 116.61L57.4027 116.588C57.8401 115.89 58.2773 115.192 58.714 114.495L70.1953 96.1529C70.6492 95.4104 71.1578 94.9017 72.134 94.9292C72.753 94.9429 73.399 94.7918 74.011 94.6336C74.7398 94.4549 75.3105 94.6749 75.8192 95.1561C76.1558 95.4722 76.4945 95.7875 76.8333 96.1029C77.4007 96.6309 77.9683 97.1592 78.5278 97.6929L88.8955 107.531C90.0124 108.589 91.1343 109.644 92.2563 110.699C93.3787 111.754 94.502 112.811 95.6191 113.869C96.7741 114.955 96.774 115.739 95.6878 116.88ZM171.932 132.823C171.982 132.864 172.032 132.906 172.082 132.947C172.683 133.44 173.29 133.938 173.417 134.782C173.589 135.951 173.121 136.797 172.131 137.436C168.625 139.705 165.119 141.981 161.612 144.257C159.275 145.774 156.937 147.292 154.6 148.807L143.304 156.128C142.948 156.354 142.608 156.604 142.287 156.878C141.709 157.352 141.391 158.071 141.427 158.816C141.444 159.251 141.464 159.685 141.483 160.119V160.122C141.527 161.095 141.571 162.068 141.585 163.038C141.606 164.653 140.417 165.664 138.794 165.478C138.21 165.401 137.679 165.097 137.316 164.632C135.957 163.065 134.6 161.495 133.246 159.923C132.613 159.191 131.982 158.456 131.35 157.722C130.286 156.485 129.221 155.247 128.152 154.018C127.44 153.307 127.097 152.307 127.224 151.309L127.457 143.094C127.485 142.131 128.055 141.513 128.825 141.018L138.162 135.05C139.495 134.199 140.83 133.349 142.165 132.499C146.059 130.018 149.956 127.536 153.837 125.027C154.937 124.319 155.961 124.106 157.171 124.724C158.065 125.178 159.075 125.261 160.045 124.958C161.495 124.498 162.609 124.903 163.73 125.893C165.571 127.517 167.461 129.089 169.352 130.663L169.355 130.665L169.357 130.667L169.36 130.669L169.362 130.671L169.365 130.673C170.223 131.387 171.083 132.103 171.939 132.823H171.932ZM122.631 141.155C122.484 140.58 122.182 140.057 121.758 139.643C120.047 137.919 118.32 136.213 116.593 134.508C115.531 133.46 114.469 132.411 113.412 131.359L101.037 119.06C100.509 118.551 99.7948 118.284 99.0632 118.32C98.3315 118.357 97.6473 118.694 97.1728 119.252C94.0791 122.511 90.9785 125.769 87.878 129.014C87.3465 129.571 86.8156 130.128 86.285 130.684C83.9453 133.138 81.6089 135.588 79.2498 138.02C77.9641 139.333 77.9848 140.976 79.3323 142.2C80.9834 143.705 82.5925 145.252 84.2018 146.799C84.9445 147.513 85.6873 148.227 86.434 148.937C86.6858 149.177 86.9448 149.408 87.2039 149.64C87.3766 149.795 87.5493 149.949 87.7198 150.106C88.1583 150.539 88.754 150.775 89.3698 150.759H90.7173C91.2339 150.732 91.7624 150.703 92.3 150.673C93.6651 150.597 95.0872 150.518 96.5128 150.464C97.9837 150.403 99.4546 150.352 100.925 150.302H100.927C102.818 150.236 104.708 150.171 106.599 150.086L106.632 150.084C107.455 150.043 108.355 149.999 109.074 149.673C112.361 148.152 115.622 146.576 118.881 145.002L118.896 144.995L118.91 144.988L118.925 144.98C119.672 144.619 120.419 144.258 121.167 143.898C122.377 143.314 122.885 142.441 122.631 141.155ZM127.416 117.767L128.447 108.589L129.492 99.4872L130.379 91.7118L131.067 85.662C131.05 85.6338 131.031 85.5878 131.008 85.5331C130.937 85.3619 130.831 85.1058 130.654 85.0433C130.39 84.9595 130.023 85.0931 129.712 85.2066L129.65 85.229C129.536 85.2686 129.447 85.3762 129.358 85.4846C129.323 85.5265 129.288 85.5687 129.252 85.607L124.742 90.3506L115.55 100.003L102.089 114.096C101.147 115.079 101.154 115.368 102.13 116.275C105.072 119.025 108.008 121.775 110.937 124.546C112.968 126.461 114.992 128.384 117.018 130.308L117.029 130.319L117.035 130.324C118.362 131.586 119.691 132.848 121.022 134.109L121.373 134.441L121.374 134.443C122.191 135.219 123.008 135.995 123.862 136.735C124.082 136.92 124.522 137.058 124.769 136.962C125.017 136.865 125.237 136.487 125.305 136.192C125.393 135.788 125.425 135.369 125.457 134.948L125.457 134.947C125.473 134.738 125.489 134.529 125.512 134.322L126.529 125.384C126.674 124.113 126.823 122.844 126.973 121.575C127.122 120.307 127.272 119.039 127.416 117.767ZM154.614 115.602C155.054 116.31 155.122 116.983 154.641 117.719C154.116 118.544 153.893 119.526 154.009 120.496C154.091 121.363 153.734 121.892 152.998 122.353C148.395 125.273 143.809 128.211 139.223 131.148C138.077 131.883 136.93 132.618 135.783 133.352C133.982 134.507 132.18 135.655 130.372 136.797C129.657 137.25 128.922 137.216 128.53 136.638C128.367 136.405 128.31 136.104 128.266 135.873C128.251 135.792 128.237 135.72 128.22 135.662L128.977 130.108L130.661 117.857L132.517 104.451L134.325 91.3406L135.013 86.4595L135.018 86.4131C135.029 86.2943 135.042 86.1664 135.102 86.0815C135.137 86.0369 135.173 85.988 135.21 85.9381C135.36 85.7339 135.525 85.5095 135.707 85.4765C135.955 85.4352 136.34 85.6277 136.498 85.8408C136.799 86.2461 137.058 86.6834 137.318 87.1219C137.419 87.2933 137.521 87.4651 137.625 87.6351L151.066 109.744C151.432 110.349 151.797 110.954 152.161 111.558L152.162 111.56C152.975 112.908 153.788 114.257 154.614 115.595V115.602ZM126.964 82.0071C126.883 81.9647 126.808 81.9261 126.749 81.8877L121.765 82.761L101.346 86.3427L84.0553 89.3676C82.2541 89.6768 80.4528 89.9931 78.6585 90.3163C77.6753 90.4813 77.1803 90.9693 77.1115 91.8288C77.0635 92.4611 77.4073 92.9081 77.8403 93.3206C81.0855 96.3661 84.3303 99.4117 87.5615 102.464C89.7703 104.549 91.9759 106.644 94.1806 108.737L94.1823 108.739C95.2984 109.799 96.4144 110.859 97.5303 111.917C98.6028 112.934 99.4278 112.934 100.459 111.862C102.037 110.208 103.61 108.548 105.183 106.888L105.185 106.886L105.187 106.884L105.189 106.882C106.453 105.549 107.717 104.215 108.984 102.883L122.61 88.6251L127.285 83.7097C127.636 83.3452 127.932 82.919 127.595 82.4652C127.436 82.2518 127.177 82.1173 126.964 82.0071ZM45.9198 92.9081C44.9505 94.7161 46.1535 96.6824 48.1748 96.7236L48.1815 96.7304C48.3201 96.6958 48.4595 96.6683 48.5984 96.6409C48.8459 96.592 49.092 96.5434 49.3298 96.4554C51.0951 95.8273 52.8602 95.1972 54.6257 94.5669C58.3674 93.2311 62.1114 91.8946 65.8573 90.5776C66.7045 90.3315 67.3566 89.6532 67.5691 88.797C67.9905 87.0598 69.3503 85.7055 71.089 85.2908C72.0189 85.0684 72.7858 84.4141 73.1515 83.531C74.8472 80.0236 76.559 76.5273 78.2728 73.0272L78.906 71.7338C79.2346 71.0505 79.5651 70.3678 79.8958 69.6851C80.6033 68.2245 81.3112 66.7631 81.9998 65.292C82.4559 64.4326 82.3644 63.3852 81.766 62.6178C81.2248 61.832 80.2684 61.443 79.3323 61.6279C78.8437 61.7312 78.3764 61.9172 77.9503 62.1778C75.0545 63.8454 72.1612 65.5153 69.2682 67.1851L69.2664 67.1862C65.4567 69.3851 61.6476 71.5837 57.8342 73.7756C57.1198 74.1718 56.526 74.7539 56.1155 75.4599C54.5559 78.14 52.9858 80.8149 51.415 83.4908L51.4141 83.4925L51.4124 83.495C50.4498 85.1353 49.4865 86.7761 48.5255 88.4188C48.3093 88.7851 48.0915 89.1501 47.8739 89.5151C47.2053 90.6362 46.5369 91.7569 45.9198 92.9081ZM65.1027 99.1174C65.8558 97.9182 66.6089 96.7189 67.356 95.5136L67.3987 95.4462C67.6079 95.1169 67.8235 94.7777 67.521 94.3724C67.1885 93.9247 66.7904 94.0541 66.3878 94.185L66.2973 94.2143L64.4753 94.7781L50.6223 99.1779C48.1748 99.9547 45.7273 100.731 43.2798 101.522C42.4617 101.79 42.1728 102.161 42.166 103.035C42.1739 103.065 42.1832 103.102 42.1937 103.144C42.2377 103.32 42.3041 103.585 42.393 103.846L46.9923 116.784C47.1103 117.114 47.2282 117.444 47.3461 117.775L47.3466 117.776C47.7566 118.925 48.1671 120.076 48.5941 121.218C48.9378 122.133 49.9073 122.497 50.636 121.975C50.9162 121.738 51.1494 121.451 51.3235 121.129C54.6268 115.862 57.9259 110.587 61.2243 105.313L63.9735 100.917C64.3494 100.317 64.7259 99.7171 65.1027 99.1174ZM178.167 113.45L179.556 121.397C179.587 121.589 179.61 121.784 179.638 122.013L179.666 122.25L179.634 122.411C179.573 122.719 179.505 123.067 179.412 123.404L177.59 129.977C177.067 131.867 175.569 132.314 174.056 131.036C170.955 128.423 167.841 125.811 164.727 123.212C164.019 122.621 163.723 121.94 163.888 121.005C164.09 120.074 163.979 119.103 163.572 118.242C163.145 117.396 163.283 116.647 163.84 115.904C165.271 113.985 166.696 112.062 168.121 110.139L168.127 110.131C169.232 108.64 170.336 107.149 171.444 105.661L172.99 103.571C173.506 102.863 174.187 102.519 175.053 102.711C175.96 102.918 176.428 103.536 176.579 104.423L178.16 113.45H178.167ZM126.027 58.5479L126.165 58.8367L129.912 66.9628C130.29 67.7758 130.671 68.588 131.052 69.4004C131.66 70.6963 132.268 71.9927 132.868 73.2944C133.102 73.8099 133.418 74.1744 134.037 74.2019C135.643 74.2664 137.141 75.0269 138.141 76.2849C138.279 76.4427 138.474 76.5474 138.631 76.6321C138.693 76.6655 138.75 76.6957 138.794 76.7249L139.337 76.6149C141.082 76.3014 142.826 75.9873 144.571 75.6731C148.375 74.9882 152.18 74.3031 155.989 73.6244C156.49 73.5349 156.924 73.4111 157.02 72.8406C157.116 72.2631 156.752 71.9951 156.291 71.7681L152.187 69.7058L129.073 58.1629C128.91 58.0825 128.749 57.9967 128.588 57.9112C128.187 57.6975 127.786 57.4842 127.354 57.3517C126.969 57.2311 126.553 57.2554 126.185 57.4204C125.766 57.6542 125.842 58.1354 126.027 58.5479Z" fill="white"/>
</g>
<defs>
<clipPath id="clip0_4_2504">
<rect width="220" height="220" fill="white" transform="translate(0 0.5)"/>
</clipPath>
</defs>
</svg>
