<svg width="220" height="221" viewBox="0 0 220 221" fill="none" xmlns="http://www.w3.org/2000/svg">
<g clip-path="url(#clip0_4_2507)">
<path d="M110 220.5C170.751 220.5 220 171.251 220 110.5C220 49.7487 170.751 0.5 110 0.5C49.2487 0.5 0 49.7487 0 110.5C0 171.251 49.2487 220.5 110 220.5Z" fill="#EDF0F4"/>
<path fill-rule="evenodd" clip-rule="evenodd" d="M109.953 59.6217C109.897 86.571 109.781 98.831 109.579 99.0329C109.552 99.0597 107.424 96.9713 104.85 94.392L100.169 89.7025L99.5655 78.0808L98.9622 66.4591L103.837 51.9412L108.712 37.4232L108.153 37.3992C107.472 37.37 104.926 37.5022 103.377 37.647C99.3842 38.0205 95.376 38.7036 91.4822 39.6741L90.8421 39.8336L88.5219 46.804C87.2457 50.6377 86.1809 53.7967 86.1556 53.824C86.1303 53.8513 83.1585 52.3747 79.5514 50.5427C75.9441 48.7106 72.9618 47.2117 72.9237 47.2117C72.7624 47.2117 68.1074 50.2789 66.5899 51.3851C64.0562 53.2322 61.4303 55.3985 59.067 57.5915L58.4939 58.1233L60.1303 58.9636C61.0301 59.4259 64.5382 61.1982 67.9257 62.9025C79.6022 68.7763 83.078 70.5455 83.1046 70.6285C83.1469 70.7616 83.9323 84.5664 83.8995 84.6024C83.8832 84.62 82.823 84.5758 81.5437 84.5039C74.5112 84.1086 69.8732 83.8289 69.8431 83.7981C69.8243 83.779 67.0304 78.2532 63.6346 71.5184C60.2385 64.7837 57.4436 59.2569 57.4234 59.2367C57.4032 59.2166 56.992 59.6126 56.5093 60.1165C53.5991 63.1562 50.755 66.7923 48.3242 70.5808C47.4823 71.893 46.5836 73.3668 46.5127 73.5521C46.487 73.6187 47.8321 76.3454 49.8147 80.2456C51.6546 83.8652 53.1332 86.8509 53.1006 86.8806C53.0678 86.9103 49.9018 87.9795 46.0648 89.2568C39.8705 91.319 39.0848 91.5973 39.0525 91.7406C39.0325 91.8295 38.8996 92.3476 38.7571 92.892C38.0082 95.7554 37.2331 100.53 36.9123 104.257C36.7909 105.668 36.6206 109.528 36.6772 109.585C36.6968 109.604 36.8233 109.589 36.9581 109.551C37.1658 109.492 46.1946 106.568 55.6806 103.488C57.0921 103.029 60.0332 102.075 62.2163 101.366L66.1856 100.078L77.7853 100.689L89.385 101.3L94.0897 106.005L98.7946 110.71L94.102 115.399L89.4094 120.09L77.8242 120.701L66.2392 121.311L51.5446 116.415L36.8501 111.52L36.8965 113.04C37.0426 117.821 37.7741 123.026 39.0448 128.321L39.3031 129.398L46.2821 131.721C50.1205 132.999 53.2845 134.066 53.3133 134.092C53.3419 134.116 52.1421 136.546 50.6472 139.49C49.1523 142.433 47.6466 145.406 47.3014 146.097L46.6735 147.352L47.2909 148.318C50.0556 152.647 51.6372 154.846 54.1978 157.92C55.2724 159.21 57.5389 161.744 57.6152 161.74C57.6401 161.739 60.4282 156.237 63.8109 149.514C67.1936 142.791 70.0015 137.256 70.0507 137.216C70.1583 137.127 83.9934 136.321 84.0709 136.399C84.1208 136.449 83.3911 149.923 83.3191 150.28C83.2857 150.446 82.616 150.789 65.3594 159.472C61.7299 161.298 58.7438 162.807 58.7236 162.825C58.6681 162.873 60.3835 164.516 61.6122 165.592C64.0172 167.697 66.6825 169.713 69.5388 171.587C71.171 172.657 72.9875 173.767 73.1079 173.767C73.1545 173.767 74.6472 173.029 76.425 172.127C78.2028 171.225 81.1642 169.722 83.0057 168.788C84.8473 167.854 86.369 167.115 86.387 167.147C86.4051 167.179 87.4653 170.344 88.743 174.181L91.0658 181.157L91.8873 181.382C95.7525 182.442 99.9063 183.194 103.881 183.555C105.227 183.676 109.017 183.844 109.077 183.783C109.098 183.762 106.921 177.203 104.238 169.206L99.3604 154.667L99.9742 143.046L100.588 131.427L105.282 126.732L109.976 122.038V152.936V183.833L111.645 183.783C120.672 183.511 128.682 181.916 136.666 178.805C145.912 175.202 154.577 169.547 161.632 162.512C169.082 155.083 174.74 146.391 178.485 136.617C180.812 130.543 182.372 123.795 182.964 117.235C183.36 112.843 183.362 108.201 182.965 103.744C182.293 96.1833 180.372 88.6016 177.327 81.4903C176.63 79.863 174.874 76.2957 174.042 74.8179C165.791 60.1638 153.23 49.0133 137.803 42.6465C131.066 39.8668 123.72 38.098 116.273 37.463C114.866 37.3429 111.356 37.1702 110.263 37.1672L110 37.1665L109.953 59.6217ZM128.711 56.6343C134.52 58.6946 139.949 61.6562 144.768 65.3916C156.846 74.7539 164.682 88.404 166.577 103.377C166.915 106.049 166.981 107.242 166.98 110.526C166.978 113.804 166.918 114.839 166.577 117.602C165.517 126.171 162.449 134.485 157.663 141.748C150.991 151.877 141.357 159.654 130.137 163.966C128.92 164.433 126.501 165.262 126.353 165.262C126.27 165.262 126.254 156.435 126.254 110.568V55.8744L126.896 56.0464C127.25 56.141 128.067 56.4055 128.711 56.6343Z" fill="#FF00AF"/>
</g>
<defs>
<clipPath id="clip0_4_2507">
<rect width="220" height="220" fill="white" transform="translate(0 0.5)"/>
</clipPath>
</defs>
</svg>
