<svg width="220" height="221" viewBox="0 0 220 221" fill="none" xmlns="http://www.w3.org/2000/svg">
<g clip-path="url(#clip0_4_2510)">
<path d="M110 220.5C170.751 220.5 220 171.251 220 110.5C220 49.7487 170.751 0.5 110 0.5C49.2487 0.5 0 49.7487 0 110.5C0 171.251 49.2487 220.5 110 220.5Z" fill="#EDF0F4"/>
<path d="M60.5 77.5061H84.3396V53.6665H60.5V77.5061Z" fill="#EC5F75"/>
<path d="M60.5 101.346H84.3396V77.5063H60.5V101.346Z" fill="#F9D779"/>
<path d="M60.5 144.746H84.3396V101.346H60.5V144.746Z" fill="#67D5A1"/>
<path d="M136.909 77.5061V53.6665H136.603H84.3398V77.5061H136.909Z" fill="#4F4F4F"/>
<path d="M160.746 77.5061L136.906 53.6665V77.5061H160.746Z" fill="#787878"/>
<path d="M160.746 144.746H136.906V77.5063H160.746V144.746Z" fill="#4F4F4F"/>
<path d="M160.746 144.746H136.906V168.585L160.746 144.746Z" fill="#787878"/>
<path d="M60.5 168.585V144.746H136.909V168.585H60.5Z" fill="#4F4F4F"/>
</g>
<defs>
<clipPath id="clip0_4_2510">
<rect width="220" height="220" fill="white" transform="translate(0 0.5)"/>
</clipPath>
</defs>
</svg>
