<svg width="220" height="221" viewBox="0 0 220 221" fill="none" xmlns="http://www.w3.org/2000/svg">
<g clip-path="url(#clip0_4_2523)">
<path d="M110 220.5C170.751 220.5 220 171.251 220 110.5C220 49.7487 170.751 0.5 110 0.5C49.2487 0.5 0 49.7487 0 110.5C0 171.251 49.2487 220.5 110 220.5Z" fill="#EDF0F4"/>
<path d="M110.916 196.667C157.998 196.667 196.166 158.499 196.166 111.417C196.166 64.3342 157.998 26.1665 110.916 26.1665C63.8337 26.1665 25.666 64.3342 25.666 111.417C25.666 158.499 63.8337 196.667 110.916 196.667Z" fill="#136485"/>
<path fill-rule="evenodd" clip-rule="evenodd" d="M110.367 26.4281H111.025L110.627 26.1665L110.367 26.4281ZM51.334 172.817C59.8278 181.153 69.9629 187.608 81.0868 191.766C93.6748 156.068 103.061 129.47 109.252 111.968L110.07 111.979C118.972 138.969 127.824 165.976 136.626 193C148.57 189.133 159.513 182.65 168.667 174.018C164.367 167.129 161.325 162.204 159.535 159.267C144.208 134.036 132.634 107.118 124.405 78.7423C121.318 68.1031 118.375 57.4192 115.432 46.7345C114.067 41.7784 112.702 36.8224 111.323 31.8706C111.1 31.0747 110.834 30.2897 110.101 29.4458C109.877 30.1568 109.646 30.8661 109.415 31.5756C108.947 33.0136 108.479 34.4526 108.063 35.9083C101.129 60.2627 93.8501 84.5211 84.7555 108.154C76.181 130.437 64.7929 151.293 52.1144 171.444L51.334 172.817Z" fill="white"/>
</g>
<defs>
<clipPath id="clip0_4_2523">
<rect width="220" height="220" fill="white" transform="translate(0 0.5)"/>
</clipPath>
</defs>
</svg>
