<svg width="220" height="221" viewBox="0 0 220 221" fill="none" xmlns="http://www.w3.org/2000/svg">
<g clip-path="url(#clip0_4_2520)">
<path d="M110 220.5C170.751 220.5 220 171.251 220 110.5C220 49.7487 170.751 0.5 110 0.5C49.2487 0.5 0 49.7487 0 110.5C0 171.251 49.2487 220.5 110 220.5Z" fill="#666666"/>
<path fill-rule="evenodd" clip-rule="evenodd" d="M141.603 111.417L172.002 128.757C175.509 130.721 178.082 134.023 179.139 137.919C180.196 141.815 179.649 145.974 177.619 149.458C173.384 156.707 163.998 159.19 156.661 155.006L126.256 137.666V172.346C126.256 180.715 119.386 187.5 110.915 187.5C102.444 187.5 95.5749 180.715 95.5749 172.346V137.666L65.1691 155.006C57.8324 159.19 48.4467 156.707 44.2111 149.458C42.1824 145.974 41.6355 141.813 42.6939 137.917C43.7524 134.022 46.3268 130.72 49.8356 128.757L80.2275 111.417L49.8356 94.0768C46.3281 92.1129 43.755 88.8102 42.6979 84.9145C41.6408 81.0191 42.1888 76.8594 44.2179 73.3752C48.4467 66.1265 57.8324 63.6435 65.1691 67.828L95.5749 85.1681V50.4878C95.5749 42.1187 102.444 35.3335 110.915 35.3335C119.386 35.3335 126.256 42.1187 126.256 50.481V85.1681L156.661 67.828C163.998 63.6435 173.384 66.1265 177.619 73.3752C179.649 76.8594 180.196 81.0191 179.139 84.9145C178.082 88.8102 175.509 92.1129 172.002 94.0768L141.603 111.417ZM100.484 50.4878C100.484 44.7955 105.16 40.1821 110.915 40.1821C116.677 40.1821 121.346 44.7955 121.346 50.4878V87.9624L110.915 93.9177L100.484 87.9694V50.4878ZM47.434 83.6475C48.1521 86.2958 49.9 88.5418 52.2835 89.8783L85.137 108.615L95.5749 102.667V90.7706L62.7144 72.0264C57.734 69.1834 51.4083 70.8602 48.4674 75.8029C47.0884 78.1717 46.716 80.9993 47.434 83.6475ZM62.7144 150.807C57.734 153.65 51.4083 151.973 48.4674 147.031C47.0884 144.662 46.716 141.834 47.434 139.186C48.1521 136.538 49.9 134.292 52.2835 132.955L85.137 114.211L95.5749 120.166V132.063L62.7144 150.807ZM159.116 150.807C164.095 153.651 170.42 151.978 173.363 147.038V147.031C176.244 142.106 174.539 135.798 169.547 132.955L136.693 114.218L126.256 120.166V132.063L159.116 150.807ZM110.915 182.652C116.677 182.652 121.346 178.038 121.346 172.346V134.864L110.915 128.916L100.484 134.864V172.346C100.484 178.038 105.153 182.652 110.915 182.652ZM131.784 111.417L126.256 108.27V114.564L131.784 111.417ZM115.825 96.719L121.346 93.5649V99.8659L115.825 96.719ZM106.006 96.719L100.484 93.5719V99.8659L106.006 96.719ZM95.5749 114.564L90.0465 111.417L95.5749 108.27V114.564ZM100.484 129.269L106.006 126.115L100.484 122.968V129.269ZM121.346 122.968V129.262L115.825 126.115L121.346 122.968ZM100.484 117.365L110.915 123.314L121.346 117.365V105.469L110.915 99.5201L100.484 105.469V117.365ZM159.116 72.0264C164.096 69.1834 170.422 70.8602 173.363 75.8029C176.251 80.7276 174.532 87.0355 169.547 89.8783L136.693 108.622L126.256 102.667V90.7706L159.116 72.0264Z" fill="white"/>
</g>
<defs>
<clipPath id="clip0_4_2520">
<rect width="220" height="220" fill="white" transform="translate(0 0.5)"/>
</clipPath>
</defs>
</svg>
