<svg width="220" height="221" viewBox="0 0 220 221" fill="none" xmlns="http://www.w3.org/2000/svg">
<g clip-path="url(#clip0_4_2527)">
<path d="M110 220.5C170.751 220.5 220 171.251 220 110.5C220 49.7487 170.751 0.5 110 0.5C49.2487 0.5 0 49.7487 0 110.5C0 171.251 49.2487 220.5 110 220.5Z" fill="#EDF0F4"/>
<path d="M36.666 84.8335H59.0389C72.0897 84.8335 82.6546 95.3984 82.6546 108.449H36.666V84.8335Z" fill="#2D1680"/>
<path d="M87.3203 84.8335H109.693C122.744 84.8335 133.309 95.3984 133.309 108.449H87.3203V84.8335Z" fill="#2D1680"/>
<path d="M36.666 137.037H59.0389C72.0897 137.037 82.6546 126.472 82.6546 113.421H36.666V137.037Z" fill="#2D1680"/>
<path d="M87.3203 137.037H109.693C122.744 137.037 133.309 126.472 133.309 113.421H87.3203V137.037Z" fill="#2D1680"/>
<path d="M131.441 84.8335H148.004L183.334 137.037H165.84L131.441 84.8335Z" fill="#2D1680"/>
<path opacity="0.9329" d="M168.575 105.342L154.902 85.2993H182.558L168.575 105.342Z" fill="#EF88AA"/>
<path opacity="0.9329" d="M145.423 116.839L131.906 136.26H158.319L145.423 116.839Z" fill="#EF88AA"/>
</g>
<defs>
<clipPath id="clip0_4_2527">
<rect width="220" height="220" fill="white" transform="translate(0 0.5)"/>
</clipPath>
</defs>
</svg>
