<svg width="220" height="221" viewBox="0 0 220 221" fill="none" xmlns="http://www.w3.org/2000/svg">
<g clip-path="url(#clip0_4_2536)">
<path d="M110 220.5C170.751 220.5 220 171.251 220 110.5C220 49.7487 170.751 0.5 110 0.5C49.2487 0.5 0 49.7487 0 110.5C0 171.251 49.2487 220.5 110 220.5Z" fill="#3C80F1"/>
<path d="M109.999 28C72.5575 28.0273 42.2071 58.3343 42.166 95.7323C42.2003 99.384 42.611 103.022 43.3844 106.592C43.4644 106.935 43.7108 107.215 44.041 107.338C44.371 107.462 44.7411 107.413 45.0271 107.207C47.6185 105.353 50.7247 104.354 53.912 104.348C54.2238 104.359 54.524 104.229 54.7295 103.994C54.935 103.76 55.0245 103.446 54.9729 103.138C54.5221 100.72 54.2886 98.2671 54.2746 95.8077C54.2746 65.0658 79.2204 40.1447 109.993 40.1447C140.765 40.1447 165.71 65.0658 165.71 95.8077C165.71 126.511 126.393 165.728 112.32 179.576C111.031 180.839 108.968 180.839 107.679 179.576C101.721 173.767 95.939 167.781 90.3407 161.625H90.067C84.6827 161.097 79.397 159.831 74.3577 157.864L73.4269 157.488C72.9827 157.284 72.4558 157.416 72.1612 157.806C71.8664 158.196 71.8832 158.738 72.2015 159.109C80.9148 169.511 90.161 179.456 99.903 188.903C105.51 194.366 114.455 194.366 120.061 188.903C144.84 164.45 177.833 128.275 177.833 95.7323C177.792 58.3274 147.441 28.0273 109.999 28Z" fill="white"/>
<path fill-rule="evenodd" clip-rule="evenodd" d="M149.395 92.074C149.908 94.4839 150.204 96.9349 150.278 99.3976H150.292C150.294 99.5632 150.298 99.7352 150.303 99.9084C150.315 100.365 150.327 100.829 150.292 101.196V102.913C150.251 104.075 150.189 105.176 150.093 106.393C149.759 111.249 148.638 116.018 146.774 120.514C144.807 124.929 142.175 129.018 138.97 132.638L138.895 132.577C133.086 139.424 125.725 144.785 117.423 148.216C109.088 151.761 100.001 153.18 90.9806 152.346C86.4367 151.899 81.9756 150.831 77.7219 149.173C73.4842 147.513 69.4877 145.293 65.8392 142.574C58.7647 137.189 52.9021 130.38 48.6309 122.586C47.2169 119.986 47.8949 116.745 50.2329 114.929C52.571 113.112 55.882 113.253 58.0565 115.262C61.7224 118.63 66.3862 120.713 71.3425 121.198C72.7319 121.328 74.1216 121.218 75.47 120.876C76.3729 120.671 77.1934 120.199 77.8246 119.523C78.0831 119.21 78.2908 118.86 78.4408 118.483C78.6323 117.977 78.7623 117.457 78.8309 116.924C78.9403 116.138 78.9952 115.344 78.9952 114.551V69.2138C79.342 64.1775 82.2592 59.6741 86.7162 57.295C88.3111 56.447 90.0498 55.9 91.8362 55.6948C92.2811 55.5991 92.7329 55.5991 93.171 55.5991H106.847C107.532 55.6675 108.134 55.6675 108.757 55.6675C113.704 56.0455 118.54 57.3298 123.022 59.4557C131.794 63.5787 139.129 70.2306 144.084 78.5548C146.583 82.7403 148.378 87.3075 149.395 92.074ZM138.039 105.408C138.129 104.479 138.204 103.542 138.204 102.584L138.197 102.591V99.8149C138.149 98.0575 137.944 96.3068 137.581 94.5837C137.218 92.8603 136.712 91.1508 136.075 89.5097C135.411 87.8548 134.617 86.2547 133.714 84.7229C130 78.4929 124.512 73.5099 117.95 70.4106C114.801 68.9062 111.399 67.9967 107.922 67.7231H93.2532C92.1462 67.8702 91.2594 68.7119 91.0559 69.8087V70.0414C91.0528 70.0847 91.0528 70.1279 91.0559 70.1712V114.551C91.1038 115.864 91.0697 117.184 90.9327 118.483C90.7136 120.042 90.3098 121.56 89.7143 123.017C88.4394 126.206 86.1496 128.888 83.1979 130.648C81.8326 131.463 80.3637 132.091 78.8309 132.515C77.1332 132.987 75.3879 133.254 73.6286 133.308C79.0755 137.244 85.4688 139.667 92.1579 140.331C99.1772 140.95 106.241 139.817 112.713 137.035C119.25 134.275 125.093 130.105 129.826 124.822L129.757 124.761C132.146 122.073 134.117 119.044 135.596 115.762C136.968 112.466 137.793 108.969 138.039 105.408Z" fill="white"/>
</g>
<defs>
<clipPath id="clip0_4_2536">
<rect width="220" height="220" fill="white" transform="translate(0 0.5)"/>
</clipPath>
</defs>
</svg>
