<svg width="220" height="221" viewBox="0 0 220 221" fill="none" xmlns="http://www.w3.org/2000/svg">
<g clip-path="url(#clip0_4_2553)">
<path fill-rule="evenodd" clip-rule="evenodd" d="M0 110.5C0 49.7488 49.2494 0.5 110.001 0.5C170.752 0.5 220 49.7488 220 110.5C220 171.251 170.752 220.5 110.001 220.5C49.2494 220.5 0 171.251 0 110.5Z" fill="#278DC1"/>
<path fill-rule="evenodd" clip-rule="evenodd" d="M78.4749 101.907C71.2004 101.907 65.3048 96.0109 65.3048 88.7366C65.3048 81.4631 71.2004 75.5669 78.4749 75.5669C85.7483 75.5669 91.6445 81.4631 91.6445 88.7366C91.6445 96.0109 85.7483 101.907 78.4749 101.907ZM102.293 52.3096H91.6705V68.9086C87.8929 66.3892 83.3563 64.9185 78.4749 64.9185C65.3204 64.9185 54.6562 75.5826 54.6562 88.7366C54.6562 101.891 65.3204 112.555 78.4749 112.555C91.6289 112.555 102.293 101.891 102.293 88.7366C102.293 88.6666 102.288 88.5965 102.288 88.5269H102.293V52.3096Z" fill="#FFFFFE"/>
<path fill-rule="evenodd" clip-rule="evenodd" d="M141.524 119.093C148.798 119.093 154.694 124.989 154.694 132.264C154.694 139.537 148.798 145.433 141.524 145.433C134.25 145.433 128.354 139.537 128.354 132.264C128.354 124.989 134.25 119.093 141.524 119.093ZM117.705 168.69H128.329V152.091C132.106 154.61 136.642 156.081 141.524 156.081C154.678 156.081 165.342 145.417 165.342 132.264C165.342 119.109 154.678 108.445 141.524 108.445C128.369 108.445 117.705 119.109 117.705 132.264C117.705 132.333 117.711 132.403 117.711 132.473H117.705V168.69Z" fill="#FFFFFE"/>
<path fill-rule="evenodd" clip-rule="evenodd" d="M129.17 69.2618C136.443 69.2618 142.34 75.1583 142.34 82.4319C142.34 89.7051 136.443 95.6022 129.17 95.6022C121.896 95.6022 116 89.7051 116 82.4319C116 75.1583 121.896 69.2618 129.17 69.2618ZM129.381 58.6138V58.6191C129.31 58.6182 129.241 58.6138 129.17 58.6138C116.016 58.6138 105.352 69.2779 105.352 82.4319C105.352 95.5866 116.016 106.251 129.17 106.251C142.325 106.251 152.989 95.5866 152.989 82.4319C152.989 77.5506 151.518 73.0141 148.999 69.2367H165.598V58.6138H129.381Z" fill="#FFFFFE"/>
<path fill-rule="evenodd" clip-rule="evenodd" d="M90.8264 151.738C83.5525 151.738 77.6568 145.841 77.6568 138.568C77.6568 131.295 83.5525 125.398 90.8264 125.398C98.0998 125.398 103.997 131.295 103.997 138.568C103.997 145.841 98.0998 151.738 90.8264 151.738ZM90.6156 162.387V162.381C90.6862 162.381 90.7564 162.387 90.8264 162.387C103.981 162.387 114.644 151.723 114.644 138.568C114.644 125.414 103.981 114.75 90.8264 114.75C77.6722 114.75 67.0083 125.414 67.0083 138.568C67.0083 143.449 68.479 147.986 70.9982 151.764H54.3984V162.387H90.6156Z" fill="#FFFFFE"/>
</g>
<defs>
<clipPath id="clip0_4_2553">
<rect width="220" height="220" fill="white" transform="translate(0 0.5)"/>
</clipPath>
</defs>
</svg>
