<svg width="220" height="221" viewBox="0 0 220 221" fill="none" xmlns="http://www.w3.org/2000/svg">
<g clip-path="url(#clip0_4_2562)">
<path d="M110 220.5C170.751 220.5 220 171.251 220 110.5C220 49.7487 170.751 0.5 110 0.5C49.2487 0.5 0 49.7487 0 110.5C0 171.251 49.2487 220.5 110 220.5Z" fill="#F4D029"/>
<path fill-rule="evenodd" clip-rule="evenodd" d="M86.7777 96.5667V75.6667H38.5V96.5667H86.7777ZM107.468 75.6667H93.6745V103.533H38.5V145.333H107.468V75.6667ZM52.2936 117.467V131.4H93.6745V117.467H52.2936ZM128.159 89.6001H183.333V75.6667H114.365V145.333H183.333V103.533H141.952V117.467H169.54V131.4H128.159V89.6001Z" fill="white"/>
</g>
<defs>
<clipPath id="clip0_4_2562">
<rect width="220" height="220" fill="white" transform="translate(0 0.5)"/>
</clipPath>
</defs>
</svg>
