<svg width="220" height="221" viewBox="0 0 220 221" fill="none" xmlns="http://www.w3.org/2000/svg">
<g clip-path="url(#clip0_4_2545)">
<path d="M110 220.5C170.751 220.5 220 171.251 220 110.5C220 49.7487 170.751 0.5 110 0.5C49.2487 0.5 0 49.7487 0 110.5C0 171.251 49.2487 220.5 110 220.5Z" fill="#002352"/>
<path fill-rule="evenodd" clip-rule="evenodd" d="M0 110.5C0 49.7487 49.2487 0.5 110 0.5C170.751 0.5 220 49.7487 220 110.5C220 171.251 170.751 220.5 110 220.5C49.2487 220.5 0 171.251 0 110.5ZM201.293 110.5C201.293 60.0808 160.419 19.2079 110 19.2079C59.5808 19.2079 18.7079 60.0808 18.7079 110.5C18.7079 160.919 59.5808 201.793 110 201.793C160.419 201.793 201.293 160.919 201.293 110.5Z" fill="#0066CC"/>
<path d="M47.9161 81.9669H125.452C125.452 81.9669 152.214 81.7152 133.706 116.451C133.706 116.451 120.199 143.635 86.6841 143.132L104.742 96.717C105.185 95.5999 105.056 94.3359 104.398 93.3323C103.74 92.3287 102.635 91.7127 101.441 91.6828L77.6799 91.2801L47.666 164.779C47.666 164.779 57.6707 165.785 63.1733 165.282L60.1717 172.833H74.3284C75.1328 172.84 75.8541 172.335 76.1292 171.575L78.6803 164.779L84.683 164.275L81.1816 172.833H94.9878C96.0283 172.841 96.9645 172.199 97.3389 171.222L101.191 161.255C101.191 161.255 143.21 154.207 162.219 119.975C162.219 119.975 187.731 80.2049 157.717 66.1093C151.867 63.4101 145.613 61.7088 139.208 61.0752L142.71 52.3661C142.926 51.8414 142.869 51.2432 142.558 50.7691C142.247 50.295 141.724 50.007 141.159 50H128.203L124.201 60.5717H118.699L121.8 52.3661C121.994 51.833 121.92 51.2388 121.603 50.7698C121.286 50.3007 120.763 50.0141 120.199 50H107.194L103.192 60.5717H62.773C60.5597 60.5642 58.5219 61.7832 57.4705 63.7432L47.9161 81.9669Z" fill="white"/>
</g>
<defs>
<clipPath id="clip0_4_2545">
<rect width="220" height="220" fill="white" transform="translate(0 0.5)"/>
</clipPath>
</defs>
</svg>
