<svg width="220" height="221" viewBox="0 0 220 221" fill="none" xmlns="http://www.w3.org/2000/svg">
<g clip-path="url(#clip0_4_2559)">
<path d="M110 220.5C170.751 220.5 220 171.251 220 110.5C220 49.7487 170.751 0.5 110 0.5C49.2487 0.5 0 49.7487 0 110.5C0 171.251 49.2487 220.5 110 220.5Z" fill="#4F7AA2"/>
<path fill-rule="evenodd" clip-rule="evenodd" d="M34.834 83H47.8926V96.75H34.834V83ZM92.3046 83H111.242C120.386 83 136.717 88.5205 136.717 110.5C136.717 132.479 120.393 138 111.242 138H92.3115L92.3046 83ZM102.749 126.863H110.592C117.122 126.863 124.958 122.889 124.958 110.5C124.958 98.1113 117.122 94.1375 110.592 94.1375H102.756L102.749 126.863ZM147.825 83H143.91L143.896 138H147.818V90.755L183.079 138H187.001V83H183.086V131.304L147.825 83ZM67.4807 83H54.4288V96.75H67.4807V83ZM74.0169 83H87.0825V96.75H74.0169V83ZM87.0825 103.625H74.0169V117.375H87.0825V103.625ZM74.0169 124.25H87.0825V138H74.0169V124.25ZM67.4807 103.625H54.4288V117.375H67.4807V103.625Z" fill="white"/>
</g>
<defs>
<clipPath id="clip0_4_2559">
<rect width="220" height="220" fill="white" transform="translate(0 0.5)"/>
</clipPath>
</defs>
</svg>
