<svg width="220" height="221" viewBox="0 0 220 221" fill="none" xmlns="http://www.w3.org/2000/svg">
<g clip-path="url(#clip0_4_2549)">
<path d="M110 220.5C170.751 220.5 220 171.251 220 110.5C220 49.7487 170.751 0.5 110 0.5C49.2487 0.5 0 49.7487 0 110.5C0 171.251 49.2487 220.5 110 220.5Z" fill="#EDF0F4"/>
<path d="M74.8086 41.7072L81.211 34.0156L109.957 68.6055L138.66 34.0156L145.062 41.7072L87.5702 110.93L109.957 137.871L132.344 110.93L115.371 90.5197L121.773 82.8281L141.883 107.063C142.012 107.235 142.141 107.363 142.226 107.535L145.062 110.973L116.316 145.563L145.062 180.152L138.66 187.845L74.8086 110.973L75.9687 109.555C76.0547 109.426 76.0976 109.34 76.1836 109.211L103.512 76.2971L74.8086 41.7072Z" fill="black"/>
<path d="M74.8516 180.152L98.8712 151.234L105.274 158.926L81.211 187.845L74.8516 180.152Z" fill="black"/>
</g>
<defs>
<clipPath id="clip0_4_2549">
<rect width="220" height="220" fill="white" transform="translate(0 0.5)"/>
</clipPath>
</defs>
</svg>
