<svg width="220" height="221" viewBox="0 0 220 221" fill="none" xmlns="http://www.w3.org/2000/svg">
<g clip-path="url(#clip0_4_2565)">
<path fill-rule="evenodd" clip-rule="evenodd" d="M110 220.5C49.5 220.5 0 171.001 0 109.952C0.55 49.4535 49.5 -0.0454497 110.55 0.504539C171.05 1.05453 220 50.0035 220 111.602C219.45 171.551 170.5 220.5 110 220.5Z" fill="#EDF0F4"/>
<path d="M175.102 98.1419C174.17 93.6525 172.523 89.3417 170.224 85.3742C165.49 77.4841 155.161 66.0076 142.25 56.9698C142.25 56.9698 132.495 50.6577 127.905 48.5059C111.12 40.7591 92.3272 39.1812 76.2601 53.3833C49.2903 77.3407 35.8052 110.766 49.2903 144.048C49.5772 144.765 57.0368 165.136 101.795 178.765C121.449 179.339 132.926 178.191 145.55 170.875C162.047 161.406 171.659 144.192 175.102 126.69C176.106 121.382 176.25 103.45 175.102 98.1419Z" fill="#04FFCC"/>
<path d="M122.898 50.9447V82.9356L85.8857 80.6403L70.6793 99.8635L68.8145 136.158L81.4386 149.643L100.375 159.111L125.193 161.837L152.163 154.951V88.2435L146.998 60.5563C146.998 60.5563 132.509 49.2232 123.041 46.4976" fill="#7DF8FB"/>
<path fill-rule="evenodd" clip-rule="evenodd" d="M162.721 122.271C162.892 126.897 163.01 130.099 166.208 130.276C169.492 130.118 172.627 128.854 175.102 126.69C171.659 144.192 162.047 161.406 145.55 170.875C132.926 178.191 117.145 180.63 101.795 178.765C99.5001 172.166 93.4749 165.136 83.0025 159.828C76.6112 156.549 71.533 152.344 67.3013 148.84C60.6102 143.299 56.0351 139.511 51.729 143.905C51.0745 144.518 50.5395 145.248 50.151 146.056C49.8641 145.483 49.5772 144.765 49.2903 144.048C35.8052 110.766 49.2903 77.3407 76.2601 53.3833C92.3272 39.1812 111.12 40.7591 127.905 48.5059C125.864 50.1423 124.698 52.6331 124.749 55.2483V88.8172C110.333 80.4609 91.9882 83.7664 81.3965 96.6287C70.8048 109.491 71.0796 128.13 82.0459 140.674C93.0122 153.219 111.447 155.982 125.609 147.204C127.352 150.907 131.431 152.903 135.424 152.008C139.418 151.113 142.254 147.566 142.25 143.474V56.9698C155.161 66.0076 165.49 77.4841 170.224 85.3742C172.523 89.3417 174.17 93.6525 175.102 98.1419C173.069 96.649 170.708 95.6651 168.216 95.2728C162.908 94.9858 158.891 102.159 161.617 112.488C162.491 116.039 162.616 119.425 162.721 122.271ZM117.59 68.8768C117.447 66.7248 113.86 62.1342 109.987 62.2777C105.956 62.4211 103.101 67.2987 103.244 69.4506C103.388 71.6024 106.4 72.8934 110.561 71.4589C111.968 70.9716 113.335 70.7908 114.484 70.639C116.379 70.3884 117.679 70.2164 117.59 68.8768Z" fill="#2C398F"/>
<path d="M101.51 130.85C109.831 135.584 119.872 133.719 121.738 123.103C122.742 116.935 122.168 107.323 116.717 104.31C98.641 93.9816 83.4344 120.521 101.51 130.85Z" fill="#2C398F"/>
</g>
<defs>
<clipPath id="clip0_4_2565">
<rect width="220" height="220" fill="white" transform="translate(0 0.5)"/>
</clipPath>
</defs>
</svg>
