<svg width="220" height="221" viewBox="0 0 220 221" fill="none" xmlns="http://www.w3.org/2000/svg">
<g clip-path="url(#clip0_4_2574)">
<path d="M110 220.5C170.751 220.5 220 171.251 220 110.5C220 49.7487 170.751 0.5 110 0.5C49.2487 0.5 0 49.7487 0 110.5C0 171.251 49.2487 220.5 110 220.5Z" fill="#EDF0F4"/>
<path opacity="0.25" d="M100.82 105.29L85.9387 79.5442L70.8084 53.5417C69.9433 52.0743 68.7435 50.8322 67.3069 49.917H67.1817C65.6476 50.8052 64.3916 52.1038 63.555 53.6667L52.3011 73.1662C50.6757 75.9459 50.6757 79.3862 52.3011 82.1661L65.806 105.54C66.8064 107.164 67.1817 109.039 67.1817 110.914C67.1709 112.792 66.6985 114.637 65.806 116.289L52.4261 139.411C50.8009 142.191 50.8009 145.631 52.4261 148.411L63.6802 167.91C64.5555 169.41 65.806 170.785 67.3069 171.66H67.4353C68.936 170.785 70.0615 169.535 70.9368 168.035L85.9426 142.037L100.82 116.039C102.695 112.702 102.695 108.628 100.82 105.29Z" fill="url(#paint0_linear_4_2574)"/>
<path opacity="0.25" d="M172.599 104.539L157.593 78.6651L142.213 52.0414C141.503 50.8344 140.569 49.7738 139.462 48.9165C138.836 48.4168 138.211 48.1665 137.461 48.1665C129.582 48.1665 124.205 48.4168 120.204 48.4168C119.579 48.4168 119.203 49.1668 119.328 49.7918L123.205 71.5441C123.205 71.7943 123.205 72.0438 123.08 72.2941C121.579 75.0443 121.704 78.4187 123.33 81.1689L137.085 105.167C138.085 106.917 138.586 108.792 138.586 110.667C138.586 112.541 138.085 114.416 137.085 116.166L123.205 140.164C121.579 142.914 121.579 146.289 122.955 149.039C123.083 149.289 123.083 149.539 123.083 149.789L119.207 171.413C119.078 172.038 119.457 172.788 120.082 172.788C123.709 172.788 118.581 173.163 137.838 173.163C138.214 173.163 138.714 173.034 139.089 172.913C140.465 172.413 141.34 170.787 142.09 169.413L157.471 142.664L172.352 116.79C174.726 113.038 174.726 108.414 172.602 104.539" fill="url(#paint1_linear_4_2574)"/>
<path d="M166.472 105.29L136.585 53.5411C134.71 50.2917 131.208 48.1665 127.332 48.1665H67.5591C65.5583 48.1665 63.6828 48.7915 61.9316 49.7912V49.9162C63.3682 50.8316 64.5682 52.0737 65.4331 53.5411L80.439 79.5436C81.8147 78.9187 83.4401 78.5439 84.9409 78.5439H109.7C113.576 78.5439 117.079 80.5439 118.953 83.9183L131.333 105.29C133.208 108.539 133.208 112.664 131.333 116.039L118.953 137.414C117.078 140.663 113.451 142.788 109.7 142.788H85.0654C83.5103 142.783 81.9746 142.442 80.5634 141.788L65.5583 167.787C64.6932 169.254 63.4935 170.496 62.0569 171.412V171.54C63.6821 172.54 65.6834 173.165 67.6841 173.165H127.579C131.455 173.165 134.958 171.165 136.832 167.79L166.72 116.039C168.473 112.664 168.473 108.664 166.472 105.29Z" fill="url(#paint2_linear_4_2574)"/>
<path d="M95.3217 105.29L80.441 79.5437L65.4352 53.5412C64.5701 52.0738 63.3703 50.8317 61.9337 49.9165H61.8111C60.2769 50.8048 59.0209 52.1033 58.1844 53.6662L47.0529 73.0405C45.4277 75.8204 45.4277 79.2607 47.0529 82.0404L60.558 105.414C61.5583 107.039 61.9337 108.914 61.9337 110.789C61.9229 112.666 61.4505 114.512 60.558 116.163L47.0529 139.41C45.4277 142.19 45.4277 145.631 47.0529 148.41L58.3076 167.912C59.1828 169.412 60.4335 170.786 61.9343 171.662H62.0626C63.5636 170.786 64.6889 169.536 65.5641 168.037L80.5668 142.041L95.4469 116.292C97.3224 112.664 97.3224 108.664 95.3217 105.29Z" fill="url(#paint3_linear_4_2574)"/>
</g>
<defs>
<linearGradient id="paint0_linear_4_2574" x1="51.1954" y1="171.496" x2="102.202" y2="171.496" gradientUnits="userSpaceOnUse">
<stop stop-color="#00BA96"/>
<stop offset="0.52" stop-color="#00D9AF"/>
<stop offset="1" stop-color="#00D9AF"/>
</linearGradient>
<linearGradient id="paint1_linear_4_2574" x1="119.269" y1="173.164" x2="174.253" y2="173.164" gradientUnits="userSpaceOnUse">
<stop stop-color="#008D85"/>
<stop offset="1" stop-color="#00FFE0"/>
</linearGradient>
<linearGradient id="paint2_linear_4_2574" x1="61.9316" y1="173.163" x2="168.006" y2="173.163" gradientUnits="userSpaceOnUse">
<stop stop-color="#008D94"/>
<stop offset="1" stop-color="#00FFE0"/>
</linearGradient>
<linearGradient id="paint3_linear_4_2574" x1="45.8338" y1="171.662" x2="96.8386" y2="171.662" gradientUnits="userSpaceOnUse">
<stop stop-color="#00BA96"/>
<stop offset="0.52" stop-color="#00D9AF"/>
<stop offset="1" stop-color="#00FAAF"/>
</linearGradient>
<clipPath id="clip0_4_2574">
<rect width="220" height="220" fill="white" transform="translate(0 0.5)"/>
</clipPath>
</defs>
</svg>
