<svg width="220" height="221" viewBox="0 0 220 221" fill="none" xmlns="http://www.w3.org/2000/svg">
<g clip-path="url(#clip0_4_2580)">
<path d="M110 220.5C170.751 220.5 220 171.251 220 110.5C220 49.7487 170.751 0.5 110 0.5C49.2487 0.5 0 49.7487 0 110.5C0 171.251 49.2487 220.5 110 220.5Z" fill="#786DBC"/>
<path d="M109.062 74.8072L97.8618 63.6392C95.8305 61.7067 94.9899 58.8429 95.6569 56.1268C96.3238 53.4105 98.397 51.2545 101.095 50.471C103.794 49.6874 106.708 50.3952 108.739 52.3279L109 52.5877L134 77.4538C137.074 80.5107 137.074 85.4552 134 88.5121L108.973 113.378C105.885 116.309 101.009 116.252 97.9909 113.25C94.9727 110.248 94.9155 105.398 97.8618 102.326L109.599 90.6527C93.4006 87.8088 77.1424 95.3368 68.9027 109.496C60.6629 123.656 62.1983 141.428 72.7461 153.982C83.2936 166.535 100.605 171.194 116.077 165.644C131.55 160.093 141.886 145.515 141.948 129.155V43.1503C141.948 38.8331 145.467 35.3335 149.807 35.3335C154.148 35.3335 157.666 38.8331 157.666 43.1503V130.202C157.217 152.807 142.834 172.809 121.471 180.537C100.108 188.265 76.1669 182.125 61.2232 165.087C46.2793 148.05 43.4118 123.624 54.007 103.62C64.6022 83.6163 86.4774 72.1558 109.055 74.7797L109.062 74.8072Z" fill="white"/>
</g>
<defs>
<clipPath id="clip0_4_2580">
<rect width="220" height="220" fill="white" transform="translate(0 0.5)"/>
</clipPath>
</defs>
</svg>
