<svg width="220" height="221" viewBox="0 0 220 221" fill="none" xmlns="http://www.w3.org/2000/svg">
<g clip-path="url(#clip0_4_2583)">
<path d="M110 220.5C170.753 220.5 220 171.253 220 110.5C220 49.747 170.753 0.5 110 0.5C49.247 0.5 0 49.747 0 110.5C0 171.253 49.247 220.5 110 220.5Z" fill="#EDF0F4"/>
<path fill-rule="evenodd" clip-rule="evenodd" d="M78.1645 28.6303C75.7852 29.7485 73.438 31.734 72.0791 33.7779C69.4085 37.7951 68.8842 40.4177 68.8842 49.7567C68.8842 54.8803 68.7912 56.7481 68.5023 57.4397C68.2924 57.9422 67.3948 58.9667 66.5072 59.7163C62.9662 62.7079 57.5802 68.1979 54.7913 71.6588C51.3844 75.8863 49.1555 79.355 46.6178 84.3776C43.3082 90.9284 42.1424 94.8355 40.7636 103.998C40.0555 108.706 40.1705 111.04 41.5013 118.968C43.0079 127.943 47.1885 137.634 53.7559 147.374C58.9403 155.064 65.3469 160.46 74.9787 165.251C81.2967 168.394 92.4482 171.993 101.081 173.674C106.001 174.633 107.965 174.741 108.618 174.088C108.858 173.848 109.084 173.63 109.121 173.603C109.157 173.576 109.251 148.291 109.328 117.415C109.465 62.7032 109.482 61.2611 109.997 60.6927C110.964 59.6237 113.872 60.0129 120.486 62.0971C121.975 62.566 124.905 63.79 126.997 64.8172C137.317 69.8838 144.273 76.4915 149.475 86.1698C151.952 90.7788 154.448 98.7454 155.054 103.978C155.216 105.372 155.466 107.347 155.61 108.366C155.754 109.386 155.869 112.503 155.865 115.292C155.861 119.254 155.743 120.889 155.328 122.766C153.669 130.268 150.203 137.054 145.462 142.084C142.534 145.19 140.975 145.813 140.336 144.133C140.188 143.741 140.081 134.21 140.081 121.385C140.081 102.814 140.014 98.9575 139.661 97.0932C138.444 90.6753 136.693 87.5159 131.562 82.4799C128.561 79.5341 127.522 79.0695 126.852 79.8771C126.623 80.1534 126.8 95.1055 126.852 136.312V192.369V192.776C127.527 193.156 128.511 193.114 130.497 192.171C132.963 191 135.477 188.761 136.551 186.781C137.837 184.409 138.142 181.95 138.142 173.953C138.142 165.494 138.143 165.49 140.742 163.514C143.65 161.303 149.268 156.381 151.47 154.115C156.332 149.113 159.889 144.04 161.566 139.716C162.808 136.517 163.167 136.016 164.218 136.016C165.209 136.016 167.411 137.902 172.603 143.196C174.721 145.355 176.684 147.245 176.966 147.396C177.55 147.708 178.429 147.358 178.676 146.714C178.76 146.494 178.98 145.33 179.164 144.128C179.454 142.233 179.434 141.651 179.016 139.773C177.793 134.275 176.36 131.758 172.423 128.188C171.037 126.932 169.334 125.383 168.637 124.746L167.369 123.587L167.369 113.665C167.368 103.155 167.226 101.333 165.953 95.5695C165.085 91.642 163.952 88.0334 162.368 84.1565C160.621 79.8802 159.79 78.3364 156.94 74.0706C152.515 67.4488 146.462 61.7625 139.16 57.3691C131.664 52.8584 122.682 49.7404 111.962 47.928C104.316 46.6353 98.5218 46.3511 97.6952 47.1778C97.237 47.6359 97.8259 50.7948 97.6952 103.861C97.5602 158.633 97.5434 160.074 97.0289 160.642C96.2626 161.489 94.7248 161.395 90.7747 160.257C76.6326 156.187 64.8761 147.408 58.3911 136.075C54.306 128.937 52.1482 121.384 51.6864 112.607C51.1758 102.904 52.3194 97.179 56.3141 89.4383C57.8827 86.3986 61.2364 81.3687 63.5292 78.6167C66.4878 75.0652 67.5682 74.4218 68.4528 75.6852C68.8343 76.2291 68.8842 78.7744 68.8842 97.6355C68.8842 115.734 68.9514 119.433 69.3273 122.022C70.1767 127.872 72.5484 132.431 77.0016 136.778C79.4773 139.194 80.4767 139.624 81.0637 138.527C81.254 138.172 81.3523 130.883 81.356 116.85C81.3591 105.222 81.2183 94.8978 81.356 93.9073C81.4936 92.9169 81.3065 77.8537 81.356 60.4335C81.4449 29.3462 82.033 28.7533 81.5054 28.3672C80.7376 27.8062 79.754 27.8834 78.1645 28.6303Z" fill="#F4657B"/>
</g>
<defs>
<clipPath id="clip0_4_2583">
<rect width="220" height="220" fill="white" transform="translate(0 0.5)"/>
</clipPath>
</defs>
</svg>
