<svg width="220" height="221" viewBox="0 0 220 221" fill="none" xmlns="http://www.w3.org/2000/svg">
<g clip-path="url(#clip0_4_2586)">
<path d="M110 220.5C170.751 220.5 220 171.251 220 110.5C220 49.7487 170.751 0.5 110 0.5C49.2487 0.5 0 49.7487 0 110.5C0 171.251 49.2487 220.5 110 220.5Z" fill="#FFF706"/>
<path fill-rule="evenodd" clip-rule="evenodd" d="M110.011 46.655C108.693 47.1261 107.382 48.6201 106.551 50.5985C106.101 51.6719 105.396 54.9504 105.384 56.0312C105.377 56.6083 105.33 56.6567 105.078 56.3436C104.914 56.1395 104.31 55.606 103.736 55.158C102.914 54.5159 102.394 54.3161 101.282 54.2153C100.011 54.0998 99.7947 54.1522 99.0889 54.746C98.0742 55.5996 97.7161 56.9413 97.8774 59.283C98.0074 61.1656 98.6746 63.2325 99.5483 64.4596C99.8189 64.8398 99.9812 65.2468 99.9088 65.364C99.836 65.4815 99.086 65.7105 98.2417 65.8729C87.199 67.9983 77.6471 74.5743 71.484 84.2942C69.894 86.8022 67.8066 90.8548 67.1038 92.7974C65.7965 96.4135 65.1858 98.2098 64.8582 99.4026C63.2802 105.149 62.1247 112.243 62.0288 116.772L61.969 119.585L68.5177 119.65L75.066 119.715L75.3062 119.084C75.438 118.736 75.5462 117.785 75.5462 116.969C75.5462 112.315 77.832 102.831 80.1304 97.9495C81.6101 94.8069 84.0416 91.1701 86.1645 88.9245C89.0351 85.8881 93.7649 82.9902 98.0523 81.6416C101.669 80.5038 103.936 80.2149 109.183 80.2226C113.468 80.229 114.775 80.3199 117.059 80.7698C119.993 81.3479 122.793 82.2051 124.962 83.1895C125.702 83.5255 126.528 83.8997 126.797 84.0212C127.066 84.1432 127.616 84.46 128.02 84.7256C128.424 84.9913 128.919 85.2844 129.121 85.3774C131.051 86.2649 136.003 90.9848 137.859 93.7057C139.076 95.4895 140.944 98.9391 141.475 100.381C143.578 106.096 144.303 109.743 144.686 116.527C144.777 118.143 144.961 119.418 145.117 119.522C145.267 119.622 148.251 119.677 151.749 119.645L158.11 119.585L158.19 116.772C158.31 112.563 157.55 105.48 156.625 102.194C156.433 101.51 156.275 100.794 156.275 100.603C156.275 100.028 154.443 94.5371 153.467 92.186C150.192 84.2963 144.672 77.3772 137.928 72.7076C136.454 71.6869 135.596 71.1634 133.23 69.8406C131.095 68.6473 125.141 66.3976 123.129 66.0247C122.592 65.925 122.075 65.7957 121.98 65.7372C121.886 65.6788 122.091 65.0681 122.437 64.3798C124.272 60.7262 124.136 55.7923 122.165 54.5009C121.183 53.8572 119.379 54.1209 118.16 55.0863C117.624 55.5107 117.128 55.8581 117.057 55.8581C116.986 55.8581 116.852 55.1149 116.759 54.2068C116.558 52.241 115.481 49.4886 114.4 48.177C113.654 47.2726 112.037 46.3222 111.263 46.3336C111.061 46.3365 110.498 46.481 110.011 46.655ZM99.2829 97.5017C98.9507 97.6766 98.4276 98.1922 98.1209 98.6472C97.6004 99.42 97.5632 99.7258 97.5632 103.247C97.5632 107.092 97.6591 107.587 98.6031 108.625C99.7269 109.86 101.788 109.536 102.658 107.987C103.139 107.132 103.19 106.687 103.19 103.332C103.19 99.4596 103.047 98.79 102.022 97.8626C101.382 97.2834 100.035 97.1059 99.2829 97.5017ZM119.446 97.5448C118.008 98.1711 117.868 98.6861 117.868 103.331C117.868 107.142 117.912 107.585 118.361 108.215C119.031 109.155 120.292 109.558 121.411 109.189C123.068 108.642 123.25 108.065 123.25 103.331C123.25 98.7402 123.126 98.2631 121.758 97.5553C120.922 97.1235 120.419 97.1211 119.446 97.5448ZM55.1602 125.741C54.9564 125.945 54.9422 151.816 55.1455 152.346C55.2752 152.683 56.0338 152.733 61.127 152.733C68.6468 152.733 70.2469 152.419 73.4158 150.326C77.1235 147.877 79.2156 143.848 79.2156 139.155C79.2156 132.841 75.3953 127.811 69.2023 125.973C68.1311 125.655 66.6583 125.578 61.5983 125.578C58.1471 125.578 55.2497 125.652 55.1602 125.741ZM91.2026 126.027C89.4967 126.545 87.4843 127.579 86.6188 128.381C86.2499 128.723 85.8709 129.003 85.7765 129.003C85.4143 129.003 83.3092 132.016 82.6547 133.471C81.4473 136.156 81.1578 138.99 81.7861 141.977C82.346 144.638 83.4746 146.705 85.4539 148.694C90.3896 153.653 97.9774 154.062 103.676 149.677C104.485 149.055 105.147 148.468 105.147 148.373C105.147 148.279 105.429 147.898 105.774 147.526C106.554 146.684 107.661 144.472 108.179 142.719C108.421 141.9 108.57 140.493 108.569 139.05C108.563 135.132 107.292 132.075 104.544 129.37C102.891 127.742 101.309 126.795 99.0216 126.065C97.0774 125.444 93.185 125.425 91.2026 126.027ZM112.056 139.094L112.119 152.61L117.745 152.688C121.358 152.738 123.985 152.66 125.084 152.472C131.485 151.376 136.251 145.564 136.206 138.911C136.174 134.194 133.501 129.633 129.353 127.216C126.816 125.738 125.765 125.578 118.568 125.578H111.992L112.056 139.094ZM147.542 126.066C144.413 127.179 142.507 128.488 140.837 130.673C138.314 133.972 137.435 137.883 138.296 141.977C140.357 151.775 151.95 155.969 159.987 149.823C162.207 148.126 163.514 146.203 164.607 143.029C165.271 141.097 165.26 137.297 164.583 135.137C163.186 130.681 159.678 127.233 155.259 125.973C153.312 125.418 149.226 125.467 147.542 126.066ZM68.1886 132.174C72.1153 134.177 73.3812 140.228 70.6592 143.982C69.1421 146.074 67.7186 146.661 64.3973 146.565L61.969 146.494L61.9041 139.094L61.8396 131.694H64.5438C66.7476 131.694 67.4221 131.783 68.1886 132.174ZM97.6992 132.275C100.068 133.378 101.572 136.037 101.566 139.112C101.562 141.453 100.901 143.073 99.2975 144.675C98.0872 145.885 97.7577 146.075 96.428 146.336C93.3467 146.941 90.7826 145.678 89.2971 142.825C88.7344 141.744 88.6602 141.317 88.662 139.155C88.6635 137.132 88.7588 136.507 89.2133 135.541C90.7861 132.199 94.4816 130.777 97.6992 132.275ZM125.172 132.166C126.382 132.783 127.724 134.289 128.381 135.768C129.086 137.356 129.132 140.407 128.48 142.245C127.896 143.891 125.962 145.897 124.553 146.319C124.007 146.483 122.499 146.617 121.203 146.617H118.846V139.155V131.694H121.547C123.731 131.694 124.424 131.784 125.172 132.166ZM154.196 132.277C155.761 133.017 156.577 133.899 157.389 135.731C157.879 136.836 158.044 137.621 158.061 138.911C158.092 141.471 157.483 143.013 155.783 144.68C154.587 145.852 154.185 146.088 152.947 146.349C149.942 146.98 147.303 145.679 145.8 142.825C145.226 141.735 145.157 141.336 145.166 139.155C145.175 137.146 145.275 136.5 145.725 135.541C147.303 132.179 150.987 130.76 154.196 132.277Z" fill="black"/>
</g>
<defs>
<clipPath id="clip0_4_2586">
<rect width="220" height="220" fill="white" transform="translate(0 0.5)"/>
</clipPath>
</defs>
</svg>
