<svg width="220" height="221" viewBox="0 0 220 221" fill="none" xmlns="http://www.w3.org/2000/svg">
<g clip-path="url(#clip0_4_2589)">
<path d="M110 220.5C170.751 220.5 220 171.251 220 110.5C220 49.7487 170.751 0.5 110 0.5C49.2487 0.5 0 49.7487 0 110.5C0 171.251 49.2487 220.5 110 220.5Z" fill="#988430"/>
<path d="M110 216.976C168.805 216.976 216.476 169.305 216.476 110.5C216.476 51.6946 168.805 4.02344 110 4.02344C51.1946 4.02344 3.52344 51.6946 3.52344 110.5C3.52344 169.305 51.1946 216.976 110 216.976Z" fill="#7A6A2A"/>
<path d="M109.999 214.733C167.565 214.733 214.232 168.066 214.232 110.5C214.232 52.9333 167.565 6.2666 109.999 6.2666C52.4324 6.2666 5.76562 52.9333 5.76562 110.5C5.76562 168.066 52.4324 214.733 109.999 214.733Z" fill="#BA9F33"/>
<path fill-rule="evenodd" clip-rule="evenodd" d="M48.0917 98.7527C47.4687 98.1837 46.8103 97.6135 46.205 97.0444C45.5996 96.4754 44.9777 95.9052 44.3546 95.3361L42.5031 93.5761C42.2004 93.2733 41.8801 93.0071 41.5773 92.7031C41.2746 92.4367 40.9191 92.134 40.6164 91.8665C38.1594 89.5351 35.6884 87.2036 33.2655 84.8711C35.7751 87.1673 38.2322 89.4471 40.742 91.7773L41.6138 92.6503C41.9164 92.9519 42.2367 93.2194 42.5394 93.522L44.3898 95.2305C45.0129 95.7996 45.6183 96.3698 46.2413 96.9905C46.8644 97.6111 47.4698 98.1826 48.0929 98.7505L48.0917 98.7527ZM15.4836 98.4007C15.4836 98.4007 24.4186 99.3255 28.7799 99.9484C32.8196 100.519 45.4575 102.458 45.4575 102.458L15.4836 98.4007ZM15.4836 98.4007C17.9934 98.6143 20.5031 98.8807 23.0129 99.1482C24.2941 99.2727 25.5226 99.4146 26.7511 99.5389L28.6367 99.7537C29.2597 99.8417 29.8652 99.9308 30.4882 100.02L37.9647 101.212L41.7018 101.835C42.9303 102.049 44.1586 102.281 45.4399 102.495C44.2114 102.37 42.9303 102.192 41.7018 102.013L37.9647 101.48L30.4882 100.377C29.8652 100.288 29.2597 100.162 28.6367 100.074L26.75 99.8569C25.5215 99.7325 24.2402 99.5543 23.0117 99.4111C20.502 99.1095 17.9922 98.7879 15.4824 98.3972L15.4836 98.4007ZM44.5682 104.786C44.5682 104.786 35.0279 107.208 31.8058 108.134C28.6378 109.005 19.0434 111.925 19.0434 111.925L44.5682 104.786Z" fill="#CFB66C"/>
<path fill-rule="evenodd" clip-rule="evenodd" d="M44.5653 104.786C42.4474 105.409 40.3413 106.015 38.1928 106.585L31.8205 108.293C29.7026 108.916 27.5965 109.522 25.4845 110.145L22.3165 111.017C21.2663 111.319 20.1986 111.586 19.1133 111.89C20.1623 111.538 21.2311 111.177 22.2813 110.875L25.4493 109.861C27.5671 109.201 29.6733 108.578 31.7853 107.92C33.9383 107.386 36.0573 106.816 38.2104 106.3C40.2568 105.783 42.4109 105.267 44.5653 104.786ZM20.377 117.798C21.4258 117.406 33.5301 111.765 36.3424 110.447C37.7506 109.788 41.8431 108.335 41.8431 108.335L20.377 117.798Z" fill="#CFB66C"/>
<path fill-rule="evenodd" clip-rule="evenodd" d="M20.3821 117.798C21.3067 117.446 22.1795 117.015 23.0691 116.606L25.7032 115.377L30.9902 112.832C32.7502 111.996 34.4609 111.072 36.276 110.286C37.2019 109.896 38.1275 109.575 39.0521 109.273L40.4601 108.828C40.94 108.704 41.3859 108.56 41.8681 108.436C40.1081 109.273 38.2555 109.985 36.4931 110.803C34.7331 111.676 32.9331 112.388 31.1169 113.17L25.7419 115.537C23.9373 116.268 22.1786 117.051 20.3821 117.798ZM21.5555 122.726C21.5555 122.726 32.519 116.301 36.2925 114.236C38.2683 113.133 44.6584 109.964 44.6584 109.964L21.5555 122.726Z" fill="#CFB66C"/>
<path fill-rule="evenodd" clip-rule="evenodd" d="M21.5566 122.729C23.407 121.589 25.2937 120.432 27.1804 119.258L29.9964 117.548C30.9574 116.979 31.8833 116.446 32.863 115.876C33.8238 115.306 34.7497 114.737 35.7281 114.203C36.194 113.916 36.6822 113.666 37.1878 113.456L38.6827 112.708C40.6585 111.747 42.6345 110.768 44.7171 109.931C42.8305 111.124 40.8897 112.139 38.9502 113.188C37.9892 113.722 37.0094 114.203 36.0486 114.737C35.0876 115.271 34.1617 115.841 33.182 116.358C32.2211 116.927 31.2953 117.46 30.3169 117.977L27.4151 119.561L21.559 122.729H21.5566ZM44.5705 111.372C44.5705 111.372 37.7534 116.605 35.5463 118.278C33.3393 119.951 26.8425 124.651 26.8425 124.651L44.5705 111.372Z" fill="#CFB66C"/>
<path fill-rule="evenodd" clip-rule="evenodd" d="M83.6895 153.574L80.2012 146.971L82.2299 138.712L96.7006 133.123L90.5417 120.486L93.5854 107.724L99.2996 96.2956L116.957 93.5196L129.932 81.1492L157.949 83.267L163.448 113.223L152.857 150.94L146.824 170.467L122.367 171.393L111.012 163.525L97.7156 157.971L83.6895 153.574Z" fill="#E2CC85"/>
<path fill-rule="evenodd" clip-rule="evenodd" d="M126.591 153.361C126.591 153.361 123.208 154.909 117.439 154.553C115.769 152.31 104.076 151.26 104.076 151.26C104.076 151.26 102.616 150.816 100.035 151.883C97.4373 152.939 94.9802 152.809 92.684 153.378C90.3877 153.947 88.108 150.958 86.348 150.335C84.588 149.676 82.2543 148.092 82.2543 148.092L77.3263 147.611L67.4304 143.428L51.7088 127.766L47.4368 134.454L46.1191 142.73L50.8722 152.538L63.6698 164.196L88.6242 170.532L103.415 166.175L121.945 158.343L126.591 153.361Z" fill="#F1D789"/>
<path fill-rule="evenodd" clip-rule="evenodd" d="M37.9277 98.0054L41.0957 88.4123L44.8704 82.2171L57.0261 81.2021L53.377 91.8467L43.2149 109.931L47.433 126.075L39.9576 129.812L37.6602 126.289L35.8098 118.208L35.6855 109.13L37.9277 98.0054Z" fill="#F4ECB4"/>
<path fill-rule="evenodd" clip-rule="evenodd" d="M51.5644 152.702L49.2329 149.445C49.2329 149.445 48.6099 147.896 48.9667 146.543C49.3187 145.173 49.2681 145.084 49.091 144.567C48.9139 144.051 47.4179 142.271 47.507 140.74C47.595 139.191 47.3827 138.675 48.5208 137.448C49.7129 136.256 49.3574 134.19 49.3574 134.19L50.9062 135.152L51.2582 134.617C51.2582 134.617 51.8273 135.062 51.8273 135.757C51.9516 134.796 51.4353 130.345 52.6099 129.332C53.7843 128.318 55.867 134.084 55.867 134.084L54.5857 125.718L51.2921 117.14L45.4361 109.308L45.0841 100.674V99.9268C45.0841 99.9268 42.396 104.057 41.6486 107.319C41.1147 109.561 42.396 112.284 42.1297 115.506C41.915 118.711 41.6486 118.461 42.4312 119.73C43.2137 121 45.1193 123.61 44.3718 125.497C43.7137 127.118 41.4702 125.978 41.4702 125.978C41.4702 125.978 41.0254 127.295 40.4201 127.776C40.2065 126.993 39.9753 126.495 39.5483 126.016C39.5118 126.319 39.4238 126.728 39.4238 126.728C39.4238 126.728 39.0321 125.5 38.6401 123.951C38.1075 121.887 37.5372 119.164 37.0209 117.704C36.8073 118.541 36.2734 121.085 36.2734 121.085L36.5763 125.002L38.0358 130.377L39.4438 133.897L40.8142 138.204L42.0052 141.098L42.9662 143.305L43.8028 148.272L47.8425 152.543L49.9969 153.505L51.562 152.703L51.5644 152.702Z" fill="#F3E19D"/>
<path fill-rule="evenodd" clip-rule="evenodd" d="M40.0454 90.1734C40.0454 90.1734 37.1438 95.1014 36.3084 100.069C35.4731 105.037 34.7244 110.287 35.2524 117.05C35.7862 123.868 36.8012 128.05 37.6203 131.041C39.0283 136.007 42.675 142.913 42.675 142.913L42.7993 142.646C42.1864 141.484 41.6971 140.261 41.3398 138.997C40.8587 137.11 40.6803 134.868 40.2355 133.853C39.8438 132.839 39.1854 131.966 38.8651 130.72C38.5624 129.528 38.5131 127.641 37.5838 126.236C37.192 125.665 36.711 124.171 36.5689 122.676C36.3905 120.432 36.6582 117.923 36.4446 115.859C36.0526 112.423 35.7862 110.092 36.1419 108.293C36.4974 106.494 38.35 101.388 39.4894 97.3295C40.2368 94.7305 39.791 92.5412 41.1614 90.2801C42.5318 88.0379 43.3696 86.062 43.671 84.6915C44.023 83.4454 40.0408 90.1734 40.0408 90.1734H40.0454Z" fill="#F2E8B0"/>
<path fill-rule="evenodd" clip-rule="evenodd" d="M53.8095 88.1973C53.8095 88.1973 52.3148 88.6431 51.6026 89.4256C50.8903 90.1731 50.5876 90.7962 49.6266 92.0597C48.6657 93.3234 48.6117 94.356 47.8279 95.94C47.0453 97.4888 45.3181 99.8202 45.1047 100.657C44.8911 101.493 44.5356 105.409 44.0908 107.26C43.6989 109.112 44.5356 111.39 44.5356 111.39L45.5493 111.176C45.5493 111.176 45.5493 112.493 46.5642 113.384C47.578 114.256 47.7564 110.428 47.7564 110.428L51.5474 97.6309L57.2604 93.7506L57.8834 90.6178L53.8071 88.1973H53.8095Z" fill="#F5EEC0"/>
<path fill-rule="evenodd" clip-rule="evenodd" d="M56.5845 94.0006C56.5845 94.0006 53.8964 94.1777 52.5799 95.1399C52.046 95.5307 51.8325 95.851 51.2634 96.3321C50.2133 97.2038 49.1444 98.0052 48.6293 99.1481C48.0591 100.286 47.4359 102.013 47.009 105.27C46.8306 106.641 46.8306 107.905 46.7061 109.009C46.5279 110.504 46.2615 111.696 46.4034 112.529C46.5818 114.237 48.3442 115.128 48.5154 117.067L52.1645 115.217L55.6 101.671L62.8981 97.0947L58.768 92.467L56.5797 93.9924L56.5845 94.0006Z" fill="#E6DB9D"/>
<path fill-rule="evenodd" clip-rule="evenodd" d="M37.3331 185.216C37.3485 185.082 37.3637 184.95 37.379 184.812C37.9117 180.236 38.0019 176.767 38.3928 174.595C38.9619 171.517 39.3536 170.372 39.2645 169.219C39.1401 167.369 38.9982 166.016 39.1765 164.592C39.4429 162.705 41.2944 160.463 41.2416 158.914C41.2051 157.685 40.5822 156.885 40.0483 156.138C39.5144 155.39 39.0873 154.767 39.0873 154.767C39.0873 154.767 42.7363 152.257 42.7011 142.147C42.7757 142.168 42.8474 142.198 42.9147 142.236L44.7123 147.344L45.9408 148.838L50.6576 157.631L56.7272 163.524L65.6974 169.557L71.3224 175.678L71.8915 192.001L64.5405 201.541L63.3366 203.721C53.7724 198.92 45.0032 192.679 37.3331 185.216Z" fill="#E5CB7A"/>
<path fill-rule="evenodd" clip-rule="evenodd" d="M59.791 200.832C59.791 200.832 59.9155 198.802 61.5886 197.484C61.8561 197.93 62.0334 198.359 61.9806 198.678C62.2832 198.144 64.4011 194.727 69.1894 193.836C73.9779 192.965 75.1347 189.476 75.1347 189.476L85.2969 180.238L96.92 169.541L111.053 164.574L117.657 162.954C117.657 162.954 117.782 163.435 117.533 164.503C118.76 164.415 121.484 163.792 124.314 162.794C125.453 162.35 126.522 162.171 127.091 162.759C127.928 163.542 128.052 165.393 128.105 166.496C129.475 166.194 131.059 164.877 132.329 165.001C134.359 165.215 136.156 167.6 138.221 167.6C140.945 167.6 142.172 165.927 144.077 164.61C145.217 163.827 146.854 162.85 147.779 162.189C149.986 160.569 173.339 153.431 173.339 153.431L181.527 153.965L182.844 162.758L182.14 185.744C182.054 185.826 181.967 185.914 181.879 185.997L144.651 205.441L93.048 213.352C81.4887 211.462 70.3338 207.626 60.0585 202.003L59.7945 200.83L59.791 200.832Z" fill="#D8C173"/>
<path fill-rule="evenodd" clip-rule="evenodd" d="M40.4629 188.14C41.1962 186.607 41.8557 185.324 41.9719 184.866C42.0634 185.792 42.2311 187.819 42.569 189.975C41.8595 189.372 41.1575 188.762 40.4629 188.14Z" fill="#F1D789"/>
<path fill-rule="evenodd" clip-rule="evenodd" d="M78.1606 209.772L84.8345 207.916L85.4035 208.094C85.4035 208.094 85.7062 208.274 85.7062 208.877C86.5428 208.397 87.255 208.485 87.7713 208.166C88.0377 208.736 88.3041 210.622 89.4798 210.853C90.707 211.121 92.0246 210.32 93.3598 209.306C94.6764 208.255 96.1758 206.937 97.3105 206.404C97.7268 207.17 98.0955 207.96 98.4147 208.771C99.9094 207.579 102.508 202.737 106.21 202.825C107.28 200.297 109.068 198.137 111.352 196.614C114.787 194.282 116.94 194.104 119.629 194.317C120.696 192.931 122.012 191.754 123.509 190.846C123.953 191.026 125.182 191.772 126.713 191.061C128.262 190.349 130.005 187.59 132.302 187.234C133.539 187.064 134.797 187.328 135.862 187.981C135.862 187.981 142.55 181.341 147.164 179.134C146.986 178.6 146.63 176.589 152.041 172.139C152.343 172.406 152.13 173.154 152.343 173.195C152.431 173.195 153.751 172.626 155.422 171.343C157.487 169.796 159.961 168.175 161.456 167.731C164.272 166.894 167.259 168.602 167.259 168.602C167.513 168.424 167.796 168.292 168.095 168.211C168.806 168.086 169.323 167.997 169.715 167.859C169.679 168.784 170.196 170.368 169.715 171.739C170.272 172.052 170.862 172.303 171.474 172.486C171.173 173.144 170.514 174.818 169.411 175.619C170.335 176.064 170.46 176.58 171.777 177.027C171.243 177.774 170.369 179.057 169.98 179.843C169.588 180.68 168.181 184.151 167.558 185.467C166.9 186.785 166.01 189.205 165.582 189.691C165.154 190.177 163.606 192.236 162.414 193.25C163.47 192.857 167.79 191.541 169.623 191.042C169.077 191.843 166.312 195.946 163.653 199.892C137.9 215.327 106.751 218.933 78.1523 209.79L78.1606 209.772Z" fill="#E0CD81"/>
<path fill-rule="evenodd" clip-rule="evenodd" d="M57.0262 93.5199C57.0262 93.5199 55.4785 93.5199 55.1758 93.7335C54.8731 93.9471 56.7246 94.393 57.2936 94.6064C57.8627 94.82 59.0912 95.7986 59.4115 96.5823C59.7142 97.3298 70.5358 101.69 70.5358 101.69L78.1894 101.298L80.8283 97.6525L75.8088 93.2559L79.3288 82.8789L74.6659 83.6264L63.4524 90.3144L57.8275 92.4687L57.0262 93.5199Z" fill="#DFC57C"/>
<path fill-rule="evenodd" clip-rule="evenodd" d="M73.8301 96.9549C74.0552 97.3193 74.4577 97.5362 74.8861 97.5239C76.4701 97.5239 77.9285 97.9157 78.5339 98.716C79.5488 99.9984 82.3613 104.092 82.3613 104.092L89.0893 106.513L89.5234 98.5904L82.1725 93.4829L73.8066 96.5618V96.9536H73.8253L73.8301 96.9549Z" fill="#E5CC7C"/>
<path fill-rule="evenodd" clip-rule="evenodd" d="M72.5133 99.8917C72.5133 99.8917 73.7405 99.981 75.2893 99.4106C76.8381 98.8405 79.3831 97.6132 80.4872 98.0943C82.0349 98.7524 81.7144 100.818 83.3888 102.67C84.4026 103.81 86.2541 103.774 87.3042 105.003C88.3544 106.231 91.9671 105.661 91.9671 105.661L93.3376 113.053L87.8381 120.102L86.0394 128.859H78.6029L71.8093 126.164L68.4629 118.068L70.136 109.88L72.5133 99.8917Z" fill="#D2C281"/>
<path fill-rule="evenodd" clip-rule="evenodd" d="M86.898 100.247C87.0824 100.304 87.274 100.334 87.4671 100.336C87.2535 100.515 86.8076 100.905 86.986 101.92C87.1644 102.935 87.7335 104.216 87.2535 104.999C87.6367 105.418 87.9223 105.917 88.09 106.459C88.3927 107.332 88.482 108.132 90.4567 108.257C90.1716 108.433 89.9089 108.642 89.674 108.88C89.674 108.88 91.0445 110.073 91.7391 111.176C92.4503 111.145 94.3369 110.558 94.3369 110.558L94.7287 110.826L95.5655 110.474C95.5655 110.474 94.7828 110.171 95.3519 108.267C95.8857 106.594 96.3668 106.683 96.4079 106.559C96.4489 106.434 96.7997 104.672 96.7997 103.96C97.066 103.035 97.2796 100.223 97.2796 100.223L96.7106 94.0108L93.5074 92.0701L90.9026 89.5557L88.4455 94.1834L86.8276 95.7967L86.7031 99.8012L86.898 100.247Z" fill="#E2C270"/>
<path fill-rule="evenodd" clip-rule="evenodd" d="M94.6035 95.0507C94.6035 95.0507 95.1726 96.6698 95.3873 97.9158C95.463 97.6736 95.5048 97.4221 95.5117 97.1685C95.5117 97.1685 95.9563 99.6254 96.0443 100.64C96.2227 100.604 96.3963 100.551 96.4363 100.728C96.4761 100.906 96.8822 102.883 96.7883 103.986C97.5295 102.763 98.5551 101.737 99.7779 100.996C100.49 100.55 101.327 100.07 102.2 100.034C103.57 99.9984 104.566 100.907 106.204 100.907C110.155 100.907 113.734 98.0051 116.368 97.1157C118.307 96.4563 119.98 95.9763 121.155 94.9075C121.725 94.4275 122.74 93.3598 123.665 91.7747C124.893 89.6627 126.174 87.824 127.457 87.5928C126.877 87.6995 126.286 87.7412 125.697 87.7173C125.697 87.7173 126.089 87.3253 126.753 86.7915C127.417 86.2576 128.213 85.5994 129.351 85.5994C131.381 85.5994 132.394 85.9008 133.534 85.9008C134.673 85.8656 135.331 85.5994 135.331 85.5994C135.331 85.5994 136.524 86.436 139.211 86.436C141.899 86.4712 143.697 86.7024 145.104 86.8278C146.511 86.9534 151.226 86.436 152.579 86.4758C153.461 86.5099 154.327 86.7218 155.125 87.0989L150.764 74.4269L135.098 60.7341L125.771 67.3376L111.423 81.684L97.5403 86.8278L94.6387 90.0851V95.0507H94.6035Z" fill="#CCB360"/>
<path fill-rule="evenodd" clip-rule="evenodd" d="M125.753 87.7877C125.753 87.7877 126.145 87.397 126.802 86.8632C127.459 86.3293 128.263 85.6699 129.401 85.6699C131.43 85.6699 132.445 85.9725 133.584 85.9725C134.723 85.9373 135.382 85.6699 135.382 85.6699C135.382 85.6699 136.576 86.5053 139.262 86.5053C141.95 86.5405 143.748 86.7717 145.154 86.896C146.561 87.0205 151.277 86.5053 152.63 86.544C153.511 86.5772 154.377 86.7891 155.175 87.1671L153.199 81.453L150.904 77.0928L144.353 69.9191C144.353 69.9191 136.492 65.2914 136.432 65.2562C136.397 65.221 133.708 64.5088 133.708 64.5088L126.589 68.8162L120.128 85.5303L120.004 89.0503L124.186 91.0261C125.236 89.2661 126.394 87.8581 127.479 87.6797C126.5 87.7866 125.753 87.7877 125.753 87.7877Z" fill="#D5B457"/>
<path fill-rule="evenodd" clip-rule="evenodd" d="M125.663 88.981C125.04 89.0162 124.525 88.8917 124.382 88.4471C123.848 86.9522 123.421 86.7386 122.974 86.7386C122.527 86.7386 121.923 87.6997 121.566 87.7877C121.208 87.8757 120.783 86.6847 120.783 86.6847L120.391 86.5063C120.391 86.5063 118.095 88.0012 116.476 89.7634C114.856 91.5258 112.203 94.5167 111.011 95.0493C109.819 95.5821 105.724 95.7616 104.323 96.0642C102.922 96.3671 101.369 97.382 101.155 97.613C100.942 97.8442 101.78 98.093 101.904 98.3242C102.028 98.5378 100.532 98.4485 100.408 98.6762C100.32 98.8546 100.76 99.8682 100.978 100.384C101.36 100.195 101.779 100.091 102.206 100.082C103.576 100.047 104.573 100.955 106.21 100.955C110.162 100.955 113.739 98.053 116.374 97.1626C118.314 96.5042 119.987 96.0232 121.162 94.9554C121.731 94.4757 122.746 93.4066 123.672 91.8226C124.347 90.7373 125.007 89.7224 125.666 88.9751L125.663 88.981Z" fill="#D2B257"/>
<path fill-rule="evenodd" clip-rule="evenodd" d="M68.9914 177.07C68.9914 177.07 68.6394 175.753 65.3775 172.353C64.4517 171.392 63.8826 170.593 63.2596 170.022C61.7108 168.561 60.8026 168.17 59.6997 167.334C57.2791 165.536 54.645 165.536 52.6164 163.329C50.5876 161.122 48.2234 156.905 46.5807 152.596C44.9615 148.288 44.5156 146.918 44.5156 146.793C44.5156 146.669 44.9615 145.833 45.5306 145.957C46.0996 146.081 46.0996 147.184 46.2428 147.452C46.5262 147.888 46.8478 148.299 47.2037 148.679C48.0404 149.641 49.2324 150.791 49.8378 152.506C49.7135 151.047 49.2148 149.428 49.2148 149.428C49.2148 149.428 52.3476 151.404 55.017 153.467C57.705 155.532 58.8079 156.245 59.593 157.561C60.378 158.878 62.2271 162.349 63.113 163.364C63.9988 164.379 76.137 168.206 76.137 168.206L81.9109 172.511L84.7775 178.794L82.534 182.314L78.2266 183.24L71.2313 180.107L68.9914 177.07Z" fill="#D2B159"/>
<path fill-rule="evenodd" clip-rule="evenodd" d="M53.4531 155.426C53.4531 155.426 54.9126 157.757 58.4726 159.964C61.6769 161.905 66.7494 163.668 71.2713 164.718C73.8691 165.341 76.4681 165.821 78.7995 165.857C85.0827 165.945 89.4075 164.149 94.7662 163.561C97.6678 163.258 101.228 163.027 104.93 162.153C109.682 161.013 112.494 159.731 116.321 157.929C119.098 156.647 121.644 155.686 123.708 154.458C126.609 152.75 128.727 150.845 131.184 150.276C130.881 151.113 130.561 152.608 128.14 154.156C129.422 154.12 131.184 154.032 131.184 154.032C131.184 154.032 129.476 155.046 126.467 157.324C124.616 158.732 122.16 161.116 119.65 162.7C118.03 163.714 116.268 164.46 115.111 165.067C112.295 166.616 111.159 167.399 109.308 169.291C109.967 169.256 110.021 169.291 110.021 169.291C110.021 169.291 107.688 169.594 106.016 170.483C105.664 170.483 105.054 170.359 103.986 170.662C103.15 170.928 102.045 171.535 100.907 171.854C99.287 172.335 98.7542 172.121 98.7542 172.121L99.0206 172.655C99.0206 172.655 96.9086 172.619 96.2046 172.69C96.3291 172.726 96.2939 172.78 96.2939 172.78C96.1702 172.8 96.051 172.842 95.9419 172.904C95.6031 173.123 95.2304 173.286 94.839 173.384C94.6254 173.419 94.447 173.419 94.1795 173.473C94.2686 173.687 94.9633 174.881 95.2836 175.585C95.0172 175.763 91.0115 178.789 91.0115 178.789C91.1356 178.985 91.2372 179.194 91.3142 179.412C91.4385 179.803 91.4926 180.373 91.6169 180.64C91.9185 181.174 92.0969 181.263 92.0969 181.263C92.0969 181.263 91.6169 181.352 90.7792 181.565C90.0681 181.744 89.1952 182.045 87.9632 182.224C87.5852 182.273 87.205 182.303 86.8238 182.313C87.0022 182.705 87.7849 184.2 86.3428 185.925C84.9008 187.652 84.4561 187.903 84.0113 189.005C83.7875 188.837 83.5491 188.686 83.2992 188.56C82.8193 188.345 82.1598 188.026 81.9286 187.599C81.7939 188.169 81.6155 188.728 81.3948 189.271C80.9502 190.465 80.2918 191.64 80.1675 192.529C79.6865 191.995 78.7971 190.945 77.5686 191.159C76.3401 191.372 75.3616 193.046 75.1481 193.526C75.1481 193.224 74.9345 192.993 74.8817 193.348C74.8454 193.741 74.1694 197.833 70.3961 201.144C70.3609 200.308 70.3609 198.456 70.2716 197.851C69.9196 198.203 69.4891 198.724 66.9254 199.827C64.4155 200.929 64.8134 202.035 64.8134 202.035C64.8134 202.035 64.5998 200.275 65.9526 198.421C67.323 196.57 68.1596 195.697 68.1596 195.556C68.1376 195.411 68.0758 195.275 67.9814 195.163C67.803 194.986 67.4475 194.771 67.4475 194.63C67.6609 194.542 69.7788 193.526 69.6545 191.425C69.5302 189.539 68.7299 188.56 68.1596 187.867C68.0716 187.777 68.9974 187.119 68.8718 186.906C68.7827 186.781 67.6446 185.944 67.5014 185.498C67.535 185.23 67.5947 184.968 67.6798 184.715C67.8041 184.323 67.8934 184.055 67.8582 183.789C67.7689 183.344 67.2878 182.116 67.1459 181.991C67.2702 182.027 68.1596 181.991 68.1596 181.991C68.1596 181.991 67.4486 180.852 67.323 180.318C67.1974 179.784 66.9312 178.377 66.7892 178.111C67.0918 178.146 67.8393 178.199 67.8393 178.111C67.8758 177.844 67.1811 177.399 67.4873 177.055C67.7009 177.09 68.1104 177.269 68.5011 177.767C68.2875 177.197 67.9321 176.094 67.1835 175.649C67.5355 175.525 68.7323 175.204 69.7824 175.827C70.8326 176.45 71.1904 177.321 71.1904 177.321C71.1904 177.321 71.8134 177.803 72.7755 178.515C73.8785 179.387 75.2841 180.627 77.5275 181.504C78.0086 181.772 79.2358 181.772 80.1265 181.594C80.5142 181.501 80.886 181.351 81.2294 181.149C81.3533 181.076 81.4848 181.016 81.6214 180.971C81.43 180.587 81.21 180.217 80.963 179.866C81.2657 179.866 81.6214 179.903 81.6214 179.903C81.6214 179.903 81.8348 179.422 80.8739 178.495C81.0875 178.281 81.355 178.143 81.355 177.783C81.0523 177.748 80.5184 177.303 80.394 177.124C80.5712 177 80.8387 176.591 81.1414 176.466C80.8739 176.253 80.2156 175.362 79.9129 175.274C80.2022 175.167 80.482 175.036 80.7494 174.882C80.7494 174.882 79.2547 174.49 78.7737 174.17C78.2926 173.818 77.5814 173.209 77.1545 173.031C76.7086 172.852 75.9259 172.764 75.6057 172.408C75.9072 172.497 76.3883 172.408 76.7449 172.408C77.0113 172.408 77.1369 172.443 77.2249 172.443C77.1897 172.318 77.1897 172.051 77.8843 171.963C78.2183 171.913 78.5425 171.81 78.8452 171.66C78.8452 171.66 78.1857 171.625 77.4372 170.913C76.6886 170.201 76.0667 169.632 75.6396 169.542C75.195 169.453 74.3584 169.845 73.8422 169.809C73.1299 169.721 72.8272 169.364 72.8272 169.364C72.8272 169.364 70.4606 169.577 65.2099 166.374C60.6702 163.597 58.6944 161.141 58.6944 161.141C58.2695 160.987 57.8588 160.796 57.467 160.571C55.7587 159.682 53.391 157.83 53.4625 155.408L53.4531 155.426Z" fill="#C2A44D"/>
<path fill-rule="evenodd" clip-rule="evenodd" d="M118.933 48.5939C119.345 48.7276 119.711 48.9743 119.989 49.306C120.826 50.267 121.36 52.0822 119.456 54.0228C120.203 54.2892 120.512 54.3748 121.164 54.2892C120.506 55.0729 119.011 56.7462 118.922 58.2057C118.833 59.3979 119.58 59.7545 119.58 59.7545C119.58 59.7545 118.441 61.071 118.388 63.2745C118.926 62.6679 119.515 62.1082 120.148 61.6014C121.466 60.5513 123.281 59.3593 124.509 58.6118C124.493 58.9249 124.535 59.2386 124.634 59.5364C124.634 59.5364 126.929 57.6497 128.857 58.4873C129.729 58.8793 129.337 60.1065 129.337 60.1065C129.337 60.1065 130.531 59.6619 131.367 60.4985C132.204 61.335 133.387 63.4929 133.993 64.3294C134.26 64.7214 134.954 65.4687 135.665 66.6257C136.637 68.2454 137.448 69.9559 138.087 71.7332C138.122 70.8073 138.353 69.3665 140.989 70.2735C143.623 71.1993 146.612 73.1401 149.122 76.9615C151.632 80.783 152.254 85.0974 153.517 86.7401C154.799 88.3241 156.116 90.9582 156.206 92.0623C156.295 93.1665 155.814 96.7252 158.448 106.355C159.195 103.365 160.335 96.7252 160.335 96.7252L160.958 90.8691L161.67 72.7492L142.749 57.0302L127.958 46.2964L118.328 47.2222L118.933 48.5939Z" fill="#CAA13E"/>
<path fill-rule="evenodd" clip-rule="evenodd" d="M154.088 75.5589C154.088 75.5589 153.82 73.7989 149.371 70.8069C144.92 67.8523 141.45 67.8523 138.247 65.3427C135.79 63.3667 133.227 58.8272 131.559 57.3323C129.938 55.855 129.672 51.583 129.672 51.583L135.136 47.007L143.263 35.2608L150.132 27.6963L153.425 32.2723L158.001 37.6473L160.546 48.4337L161.471 64.2222L154.079 75.56L154.088 75.5589Z" fill="#B59544"/>
<path fill-rule="evenodd" clip-rule="evenodd" d="M159.59 94.4842C159.725 92.0898 159.429 89.6907 158.717 87.4009C157.544 83.7518 154.98 77.2727 153.789 74.8462C153.308 72.158 153.665 71.9444 154.181 71.6418C154.698 71.3391 156.638 70.2338 157.701 66.3559C158.764 62.478 162.063 62.3513 162.063 62.3513L164.091 60.8564L167.171 68.563L169.858 75.5231L170.695 80.8455L171.318 85.3839L169.858 94.9783L162.651 101.493L159.59 94.4842Z" fill="#C89D3A"/>
<path fill-rule="evenodd" clip-rule="evenodd" d="M59.0039 201.42V201.224C59.1537 201.129 59.2859 201.01 59.3946 200.872C59.5189 200.693 59.6093 200.48 59.6973 200.427C59.8757 200.337 60.7122 200.075 61.157 200.159C61.6016 200.243 62.7773 200.727 63.4002 200.693C64.6816 200.658 66.1765 199.679 68.5442 200.124C72.1042 200.782 72.9407 203.202 75.0058 204.574C76.4138 205.536 77.8711 205.107 78.0845 205.107H78.5645C78.6536 205.107 79.3119 204.359 79.6685 204.396C80.3808 204.431 80.4512 205.019 80.8959 205.054C81.9461 205.179 83.9759 204.521 84.9909 204.788C85.6017 204.979 86.0802 205.457 86.2722 206.068C86.4856 206.726 86.3074 207.562 85.7911 208.044C84.6882 209.058 83.638 210.021 83.4245 210.86C83.696 211.067 83.9569 211.287 84.2058 211.522C75.399 209.278 66.9257 205.885 59.0039 201.431V201.42Z" fill="#CEB052"/>
<path fill-rule="evenodd" clip-rule="evenodd" d="M153.785 165.857C153.785 165.857 156.561 162.155 157.524 160.321C158.484 158.431 154.48 134.495 154.48 134.495L162.525 108.135L162.311 99.5554C162.311 99.5554 162.702 91.6341 163.628 88.1986C164.732 90.1746 168.168 92.5599 168.915 93.8236C169.267 91.4018 170.463 86.2943 170.286 80.8477C170.944 81.8615 172.528 92.0612 172.528 92.0612L174.112 98.9311L176.177 106.229L178.473 113.937L179.844 119.259L180.626 120.54L181.286 122.783L181.909 125.204L183.706 130.882L184.762 135.545L185.6 144C185.781 144.647 185.912 145.308 185.99 145.976C186.025 146.902 185.866 147.436 185.866 147.596C185.866 147.757 186.17 149.625 186.045 151.032C185.866 152.44 185.866 153.542 184.762 154.552C183.658 155.562 182.965 161.6 182.965 161.6L180.989 160.284C180.989 160.284 181.381 158.485 180.455 156.848C179.529 155.211 177.732 154.872 176.717 155.14C175.703 155.353 173.674 155.672 173.015 156.243C172.392 156.812 170.862 158.574 169.455 159.375C167.695 160.431 164.828 160.515 163.297 160.87C161.749 161.222 160.04 162.278 158.242 163.504C156.831 164.417 155.342 165.203 153.792 165.851L153.785 165.857Z" fill="#CCA847"/>
<path fill-rule="evenodd" clip-rule="evenodd" d="M153.785 204.748C153.785 204.748 153.902 204.825 154.129 204.95C166.775 199.024 178.105 190.626 187.452 180.25C187.349 176.648 187.217 172.955 187.072 171.587C186.77 168.686 186.984 165.731 186.894 164.023C186.804 162.315 185.844 155.354 185.4 153.557C184.918 151.759 183.992 150.869 183.851 150.869C183.726 150.905 182.978 154.251 182.978 155.093C182.978 155.934 182.799 157.959 182.799 158.475C182.675 158.439 182.622 158.123 182.622 157.994C182.444 158.439 182.23 159.223 182.141 159.312C182.052 159.401 182.266 158.564 182.141 158.386C182.017 158.208 181.789 158.297 181.838 157.852C181.86 157.589 181.901 157.327 181.963 157.07C181.963 157.07 181.429 157.852 181.038 159.846C180.646 161.822 180.646 161.876 180.504 162.053C180.38 162.268 179.668 162.979 179.631 163.246C179.596 163.726 180.291 164.207 180.344 164.473C180.379 164.919 179.721 166.983 179.507 167.993C179.293 169.004 179.383 170.983 179.155 171.998C178.977 172.924 178.803 173.458 178.194 173.848C178.639 173.937 179.066 174.062 179.066 174.062C179.066 174.062 179.689 176.696 178.105 178.939C177.536 179.722 177.394 180.079 176.788 180.791C175.595 182.107 174.669 183.607 174.58 184.581C174.519 184.293 174.477 184.002 174.456 183.709C174.456 183.709 172.605 185.863 171.822 187.091C170.808 188.675 169.401 188.587 169.006 188.978C168.61 189.37 168.525 190.081 168.654 190.651C168.302 190.739 167.64 190.866 167.194 192.235C166.981 192.947 166.447 193.643 165.61 194.122C164.773 194.6 163.758 194.745 163.242 194.87C163.687 194.995 163.865 194.995 164.079 195.136C163.813 195.581 162.584 196.276 161.214 197.165C159.843 198.003 159.184 199.23 158.846 200.031C158.494 200.779 157.974 201.259 157.137 201.349C157.489 201.562 158.01 202.06 158.277 202.222C157.885 202.31 157.221 202.31 156.034 203.325C154.788 204.357 154.361 204.66 153.791 204.75L153.785 204.748Z" fill="#C39D3C"/>
<path fill-rule="evenodd" clip-rule="evenodd" d="M129.02 212.996C129.701 212.518 130.439 212.127 131.217 211.832C133.993 210.728 136.93 210.514 138.087 210.16C139.191 209.808 140.063 209.322 141.433 209.054C141.397 209.368 141.366 209.661 141.334 209.938C137.293 211.207 133.179 212.23 129.014 212.996H129.02Z" fill="#D2BA6B"/>
<path fill-rule="evenodd" clip-rule="evenodd" d="M180.224 139.976C180.224 139.976 179.655 143.055 178.64 144.996C177.625 146.937 176.528 149.623 176.528 149.623C176.535 149.018 176.606 148.415 176.741 147.825C175.46 148.572 172.345 150.371 171.461 151.171C170.625 151.919 169.218 153.236 168.862 153.859C169.699 151.403 170.571 149.196 170.714 148.182C169.433 149.107 163.451 154.038 160.337 157.295L150.636 165.144C149.516 165.748 148.364 166.288 147.183 166.761C145.511 167.472 143.535 168.078 142.075 168.648C142.467 167.598 143.089 166.671 143.962 165.782C144.888 164.91 147.664 161.901 148.091 160.502C148.483 159.042 148.572 158.17 148.056 156.942C147.575 157.066 146.472 157.12 145.724 157.334C144.977 157.547 144.176 158.347 144.176 158.347C144.176 158.347 144.745 155.09 145.973 152.011C145.047 152.046 143.463 152.313 143.463 152.313C143.463 152.313 145.67 148.611 149.447 146.031C148.291 146.277 147.159 146.628 146.066 147.08C143.859 148.006 141.438 149.376 139.641 150.123C140.654 148.715 147.774 138.554 152.011 129.084C156.235 119.633 157.813 117.213 158.739 112.14C159.219 109.63 159.091 105.922 159.219 102.6C159.343 99.3064 159.753 96.3518 159.486 94.376C160.589 95.7464 164.72 99.609 164.861 108.242C164.986 116.875 160.911 128.534 156.585 134.816C157.641 135.119 160.377 135.475 163.188 130.592C166 125.709 165.966 124.345 166.981 122.315C167.105 123.33 167.069 123.686 167.069 123.686C167.069 123.686 171.164 118.72 173.103 112.472C173.495 115.16 174.652 117.528 172.836 122.458C171.216 126.908 169.098 127.994 169.098 127.994C169.098 127.994 170.149 127.816 171.696 126.89C171.964 127.548 171.911 128.298 172.356 128.563C172.8 128.829 173.406 129.275 173.495 129.703C173.975 128.99 174.722 128.082 174.954 127.406C174.776 128.814 174.652 134.971 175.306 138.104C176.678 137.979 178.084 137.89 179.045 135.416C178.386 137.837 178.386 139.296 178.831 141.361C179.561 140.863 180.219 139.973 180.219 139.973L180.224 139.976Z" fill="#C0993A"/>
<path fill-rule="evenodd" clip-rule="evenodd" d="M133.973 41.8659C133.973 41.8659 132.602 42.435 130.271 42.435C128.242 42.435 128.811 41.6523 125.643 41.6523C120.767 41.6523 103.732 44.4683 100.741 44.4284C98.8009 44.3932 107.291 45.2649 107.291 45.2649L128.989 45.5678L133.35 45.2158L134.97 41.9187L133.973 41.8659Z" fill="#A88F33"/>
<path fill-rule="evenodd" clip-rule="evenodd" d="M77.7115 84.2817C77.7115 84.2817 74.9342 86.3996 73.7598 88.0201C72.5851 89.6404 71.9622 90.707 70.627 92.0246C70.9403 92.0365 71.2534 91.9946 71.5526 91.9001C71.5526 91.9001 71.5526 92.2521 71.339 92.3449C71.7128 92.3031 72.0856 92.4325 72.3529 92.6969C71.9609 92.9105 70.8932 93.9793 71.7299 95.243C72.3529 96.2041 73.6705 96.2921 73.6705 96.2921C73.6705 96.2921 73.3678 97.1649 74.6315 97.0758C77.3547 96.9513 80.3984 95.7582 81.8041 96.0609C83.2121 96.4129 84.0123 96.542 85.0083 98.2691C86.0643 99.9774 86.9843 100.245 86.9843 100.245C86.9843 100.245 87.6075 98.6598 87.4654 96.2932C87.9763 95.0175 88.2594 93.6622 88.3019 92.2886L87.3763 85.4716L83.3364 80.3628L78.1035 83.2644L77.7115 84.2782V84.2817Z" fill="#E3C571"/>
<path fill-rule="evenodd" clip-rule="evenodd" d="M82.6797 83.2673C82.6797 83.2673 83.0717 84.1932 84.7096 84.2812C84.5312 84.6729 84.5312 84.727 84.5853 85.0284C84.6205 85.3313 84.6733 85.7759 84.6733 85.7759C84.8535 85.6886 85.0166 85.5694 85.1543 85.4239C85.2434 85.8158 85.065 86.4377 85.1543 86.8836C85.2093 87.1547 85.2988 87.4178 85.4207 87.6662C85.4466 87.6054 85.4764 87.5461 85.5098 87.4889C85.545 87.3998 85.8618 88.45 86.7383 89.2489C86.7376 89.1261 86.7678 89.0051 86.8263 88.8969C86.8397 89.1202 86.9136 89.3355 87.0399 89.5201C86.9743 89.4887 86.9143 89.4468 86.8626 89.3956C86.8626 89.3956 86.9506 92.2116 87.4317 93.6678C87.5122 93.5736 87.5837 93.4724 87.6453 93.365C87.6453 93.277 87.6101 94.1489 87.521 94.773C87.3965 95.3961 87.4858 96.2679 87.4858 96.2679C87.8066 96.0152 88.1593 95.8057 88.5346 95.6449C89.0685 95.43 89.9426 94.7719 90.4754 93.3122C90.7843 92.4857 91.0226 91.6343 91.1876 90.7673C91.3596 91.0986 91.4784 91.455 91.5396 91.8233C91.5759 92.2679 92.4125 92.0369 92.4125 92.0369L92.5909 90.0961L93.6469 85.6996L94.6079 82.9764L99.2354 75.7686L107.597 69.3292L114.895 71.0025L121.052 62.6366L110.444 56.2642L100.405 57.3143L91.2943 69.9335L83.9973 81.3794L82.6797 83.2673Z" fill="#D8B65B"/>
<path fill-rule="evenodd" clip-rule="evenodd" d="M135.256 65.0054C135.256 65.0054 134.633 65.1297 132.835 66.0614C131.038 66.9929 129.792 67.2887 129.097 68.6591C128.402 70.0297 128.35 71.1161 128.35 71.1161C128.35 71.1161 129.578 70.5822 130.29 70.4039C131.038 70.2268 131.874 70.2796 131.785 70.5822C131.699 70.7898 131.581 70.9821 131.433 71.1513C131.433 71.1513 132.841 71.1161 132.803 71.8108C132.766 72.5054 132.537 73.2703 132.271 73.6083C132.003 73.9603 130.9 74.4812 130.776 74.8908C130.473 75.7273 130.9 75.7625 130.74 76.4383C130.615 77.0977 130.029 78.379 128.106 80.6212C126.13 82.8647 125.29 84.4487 125.29 84.4487C125.29 84.4487 124.328 82.6511 123.83 81.1023C123.478 81.2796 121.588 82.3297 121.588 82.3297L117.209 67.0764L117.297 66.0614C117.297 66.0614 117.689 65.5815 117.778 64.691C117.12 64.4774 117.03 64.299 116.158 63.4636C115.284 62.6281 114.574 61.6121 113.115 60.9175C112.902 60.5257 112.634 59.9929 111.566 59.7782C110.498 59.5635 109.858 59.3875 109.858 59.3875C109.858 59.3875 110.427 59.1727 110.694 58.7281C110.035 58.8172 109.502 59.0308 108.06 58.9956C106.601 58.9593 106.44 58.9065 105.64 59.0308C104.839 59.1551 103.88 59.5118 103.522 58.2833C103.13 57.9806 102.293 58.2481 101.581 59.2972C100.869 60.346 100.62 61.1838 99.2498 61.5934C99.1533 62.1975 98.9418 62.7774 98.6266 63.3017C98.2348 63.9612 97.6117 64.6193 96.7751 65.598C95.4575 67.1468 95.6711 69.6916 93.5708 71.6324C91.453 73.5719 93.9228 66.2561 93.9228 66.2561L97.3042 58.1601L106.934 48.7441L121.886 47.7305L123.345 55.4745L130.643 57.9841L135.254 65.0148L135.256 65.0054Z" fill="#D3AE4D"/>
<path fill-rule="evenodd" clip-rule="evenodd" d="M137.624 66.7135L131.341 57.6543L126.944 54.2716C126.944 54.2716 123.811 48.5058 123.598 48.3274C123.419 48.2031 120.465 47.8828 118.578 47.7583L118.93 48.6302C119.342 48.7639 119.708 49.0107 119.986 49.3423C120.823 50.3033 121.357 52.1185 119.453 54.0591C120.2 54.3255 120.509 54.4111 121.161 54.3255C120.503 55.1092 119.008 56.7825 118.919 58.242C118.829 59.4343 119.577 59.7897 119.577 59.7897C119.577 59.7897 118.438 61.1073 118.385 63.3097C118.923 62.7031 119.512 62.1432 120.145 61.6366C121.462 60.5806 123.278 59.3932 124.506 58.6457C124.489 58.9594 124.531 59.2735 124.63 59.5716C124.63 59.5716 126.925 57.6847 128.854 58.5214C129.726 58.9132 129.334 60.1417 129.334 60.1417C129.334 60.1417 130.527 59.697 131.364 60.5337C132.201 61.3703 133.393 63.5233 133.998 64.361C134.265 64.7529 134.959 65.5004 135.67 66.6561C136.642 68.2761 137.453 69.9871 138.092 71.7647C138.127 71.0526 138.27 70.0564 139.5 70.0564L137.631 66.71L137.624 66.7135Z" fill="#CAA13E"/>
<path fill-rule="evenodd" clip-rule="evenodd" d="M43.432 92.4518C43.432 92.4518 42.9873 91.3478 43.432 89.1947C43.8768 87.0416 44.5713 86.0267 44.8025 82.8587C45.0336 79.6907 47.0987 75.7389 47.0987 75.7389L52.8117 73.1411L56.8526 74.244L58.0448 79.6555L52.936 82.4715C52.936 82.4715 52.6697 83.6635 51.2277 84.6246C49.7856 85.5856 47.7921 86.3329 47.3123 87.3126C47.0254 87.9126 46.816 88.5466 46.6891 89.1995C46.6891 89.1995 45.2296 88.8966 44.3579 89.8576C43.432 90.8374 43.4672 91.7091 43.432 92.4566V92.4518Z" fill="#F4EFC8"/>
<path fill-rule="evenodd" clip-rule="evenodd" d="M54.968 91.0101C54.968 91.0101 54.4869 91.3128 54.1314 92.0661C53.7794 91.4971 52.9381 88.1144 52.9029 85.0707C52.8677 82.027 52.6858 81.2726 53.3898 80.2237C54.0938 79.1747 56.8546 78.0694 56.4629 76.1803C56.0709 74.3827 54.433 73.6354 52.4218 74.1517C51.0138 74.5037 49.9661 77.4979 48.5064 78.9928C47.4023 80.132 46.0858 79.9538 45.7303 80.5768C45.2493 81.4134 45.694 82.2499 45.552 82.7838C45.5157 82.9622 45.0709 83.9232 44.2695 85.08C42.6503 87.4115 39.9095 90.7051 39.5527 93.6595C39.677 91.9864 39.589 91.9512 40.0338 90.0995L39.7663 89.6549L41.5263 83.888L42.6655 79.136L45.2117 71.1784L49.6962 63.0448L54.0575 58.1672L58.5959 58.4701L59.1298 65.2872L61.7287 78.0859L67.193 84.8136L58.4352 90.7074L54.9645 91.0101H54.968Z" fill="#EBCC73"/>
<path fill-rule="evenodd" clip-rule="evenodd" d="M57.6869 93.428C57.6869 93.428 56.9395 93.6064 56.672 93.4645C56.4045 93.3224 56.1392 93.1618 56.2272 92.9834C56.3152 92.805 56.7963 92.5035 56.7963 92.3603C56.8168 92.0915 56.6199 91.8548 56.3517 91.8264C55.9421 91.7736 55.8178 92.04 55.8178 92.04C55.8178 92.04 55.4259 91.7384 55.1067 91.688C55.2955 91.6649 55.4856 91.6528 55.6758 91.6517C55.1839 91.4289 54.6621 91.279 54.127 91.2069C54.5717 90.9405 55.4446 90.1568 56.0136 90.1568C56.5827 90.1568 56.9395 90.0688 56.8504 89.7661C56.7611 89.4634 56.3165 89.0187 55.8365 88.8403C56.0136 88.6269 56.1392 88.3064 55.7122 87.4323C55.2664 86.5605 55.4446 85.9728 55.5878 85.7603C55.7122 85.4928 56.1568 85.013 56.3704 84.7101C56.584 84.4075 56.7624 83.9981 57.1179 83.7845C57.2962 83.66 57.8653 83.4325 58.4355 83.2154C59.0584 83.0018 59.5747 82.7344 59.9304 83.0018C60.3222 83.2682 60.1438 83.6248 60.1438 83.6248C60.1438 83.6248 61.3723 83.1789 62.4752 83.7493C63.5794 84.2819 66.2675 84.621 66.2675 84.621L67.2307 86.5618L60.8584 92.0259L58.2243 93.3437L57.6904 93.4317L57.6869 93.428Z" fill="#E5C66B"/>
<path fill-rule="evenodd" clip-rule="evenodd" d="M66.5352 84.4955C66.5352 84.4955 64.5593 85.8131 64.1147 86.2931C64.3809 86.3294 64.8256 86.5078 64.6473 86.7742C64.4337 87.0405 63.1525 87.9662 62.4403 88.8392C61.6928 89.711 60.9806 90.815 60.7318 91.3489C60.4656 91.8288 58.4357 93.2357 57.7422 93.4128C59.2019 93.4128 62.1387 91.6152 63.2416 91.6152C63.2064 92.1491 63.5443 92.7547 64.1675 92.8075C64.7904 92.8603 66.588 93.1993 69.0086 91.7045C71.4291 90.2448 70.6289 89.1584 71.6427 88.4472C73.5835 87.1648 74.3659 86.0256 75.4337 85.3145C76.5014 84.6035 77.0542 84.4416 77.0542 84.4416C77.0542 84.4416 77.0894 83.9077 77.4062 83.9616C77.5829 83.9818 77.7338 84.0984 77.7979 84.2643C77.7979 84.2643 79.6496 82.9467 82.0219 82.5912C81.9666 82.5665 81.9224 82.5221 81.8976 82.4667C81.8976 82.4667 82.0747 82.3776 82.1112 82.2885C82.1112 82.2885 82.2355 82.1102 82.3248 82.1993C82.4139 82.2885 82.5382 82.9467 82.7166 83.2142C83.1086 83.0358 83.856 81.3627 83.856 81.3627L85.6547 76.2187V71.5195L84.2467 71.7872L73.6867 76.2715L67.2779 82.9115L66.5305 84.4955H66.5352Z" fill="#E6BD62"/>
<path fill-rule="evenodd" clip-rule="evenodd" d="M96.9314 61.4452C97.5027 61.3066 98.0503 61.0844 98.5565 60.7857C98.3429 61.3561 98.3429 61.979 97.4172 63.3318C96.4914 64.6848 96.4562 64.8806 95.7087 66.2864C94.9613 67.746 94.8722 69.8462 94.1599 70.7708C94.4791 70.6157 94.8216 70.5139 95.1738 70.4694C95.1738 70.4694 94.4626 71.0923 94.1599 71.7505C93.8573 72.4089 93.3234 73.7793 92.0069 74.6171C90.6904 75.4548 89.0162 75.9875 87.2186 77.9633C85.4199 79.903 83.5695 82.3598 82.6426 83.2433C83.1236 82.4068 83.7818 80.7337 83.9602 79.6307C84.1386 78.5278 83.9239 77.2089 84.2266 75.7505C84.5293 74.2921 84.5293 73.2406 85.9866 70.6945C87.4439 68.1484 89.9383 59.3027 89.9383 59.3027L95.3133 57.5942L96.9338 61.4393L96.9314 61.4452Z" fill="#B6933F"/>
<path fill-rule="evenodd" clip-rule="evenodd" d="M93.0564 58.1883C93.0564 58.1883 91.4373 60.5196 90.9925 62.5846C90.5479 64.6497 90.9562 64.4715 90.6898 65.4864C90.5305 66.1052 90.5305 66.7544 90.6898 67.3731C91.2506 66.4697 92.0184 65.7127 92.9298 65.1649C94.461 64.2403 95.7069 63.5809 96.4498 62.7982C97.197 61.9617 97.8202 60.5913 99.4394 59.5411C98.781 59.4518 97.8554 59.1492 97.6794 59.1891C98.3388 58.4417 100.314 57.3024 102.307 55.9318C104.283 54.5238 104.159 53.9561 107.363 52.5504C106.313 52.7286 105.814 52.4612 104.941 52.5504C105.293 51.803 106.525 51.4462 107.757 50.219C108.989 48.9916 106.975 47.1753 106.975 47.1753L97.5879 52.8531L93.0493 58.1929L93.0564 58.1883Z" fill="#C49937"/>
<path fill-rule="evenodd" clip-rule="evenodd" d="M67.582 53.9513L67.7956 52.2428L70.4837 47.9356L73.2962 40.3711V30.0292L73.0826 24.0487L73.5273 20.1322L73.8652 18.8873L74.222 18.4062L76.517 19.5983L79.6863 23.9057L79.9889 32.2188L76.9089 45.3367L68.1159 54.9309L67.582 53.9513Z" fill="#DFC068"/>
<path fill-rule="evenodd" clip-rule="evenodd" d="M74.578 17.925C74.578 17.925 73.17 17.9613 72.8697 23.8174C72.5693 29.6737 72.4239 32.7524 72.2103 35.654C71.9967 38.5558 71.4991 40.3169 71.2493 42.0265C70.9994 43.7361 70.8575 46.0662 70.0572 47.4907C69.7052 48.1489 68.953 50.214 67.1908 51.7628C65.2148 53.4711 62.2628 54.6644 61.8157 54.7537C61.0319 54.9308 57.0626 55.3227 55.4434 56.2132C54.8743 56.5159 53.8946 56.8715 52.8092 57.8865C50.6549 59.8259 47.7897 63.2966 45.7247 67.4796C42.5567 73.7276 39.3887 91.3662 39.3887 91.3662L40.1007 90.1742C40.1007 90.1742 40.19 88.5902 41.774 85.8129C43.3228 83.0369 42.8781 79.9217 45.0311 74.5993C45.8677 72.5707 46.9178 69.9366 48.1991 67.6931C50.229 64.0441 52.6847 60.9113 55.1594 59.2028C59.1991 56.4268 63.6495 55.8214 63.6495 55.8214L68.438 52.6534C68.438 52.6534 69.2746 51.0342 70.3786 49.1825C71.9263 46.5849 73.8986 43.6833 74.3293 39.4651C74.9887 33.2171 73.4036 29.1233 73.4927 25.4214C73.5818 21.7196 73.617 18.9963 74.3657 18.3368C75.1143 17.6774 74.5791 17.9273 74.5791 17.9273L74.578 17.925Z" fill="#A88F33"/>
<path fill-rule="evenodd" clip-rule="evenodd" d="M74.5774 45.8706C74.5774 45.8706 76.6894 40.6728 77.6563 36.0628C77.8347 35.137 78.1902 34.2125 78.2793 33.465C78.7241 29.1037 78.8484 27.3061 78.2793 24.9208C77.8347 23.1608 76.1262 21.5744 75.2358 20.3448C74.364 19.0623 73.9545 18.5848 74.1328 18.3149C74.3112 18.0451 75.0046 17.6039 75.6804 17.6567C77.1322 17.6989 78.5031 18.3352 79.4726 19.4167C80.843 21.0007 81.9284 26.377 81.9284 26.377L83.0702 33.4709L85.9718 42.4058L74.5798 45.8778L74.5774 45.8706Z" fill="#C99E3D"/>
<path fill-rule="evenodd" clip-rule="evenodd" d="M94.4224 40.4601C94.4224 40.4601 94.0306 40.6374 93.3194 40.4601C93.3812 41.0526 93.1062 41.6298 92.6072 41.955C91.8599 41.6523 84.8632 42.2577 84.8632 42.2577C84.8632 42.2577 81.6061 41.6875 80.5911 37.3801C79.8802 34.5137 81.125 30.563 80.7154 27.9641C80.0925 24.1368 79.2207 23.3881 79.1314 22.1972C79.0423 21.0062 78.9532 20.7024 78.9532 19.955C78.5613 19.8659 78.3301 19.7414 77.9394 19.7414C77.8503 19.3894 78.0274 19.082 77.6367 18.459C77.8503 18.5482 79.3098 18.7265 81.0183 20.3457C82.4263 21.6633 82.4263 22.1433 82.6386 22.4107C82.905 22.6771 85.0592 24.5227 85.985 26.3625C86.9106 28.2024 88.7082 34.0691 89.1178 35.0299C89.2421 35.4219 89.5096 35.8137 90.1738 36.7032C91.2063 37.9856 92.7186 40.1059 94.4271 40.4579L94.4224 40.4601Z" fill="#B58634"/>
<path fill-rule="evenodd" clip-rule="evenodd" d="M82.8945 22.5C83.9729 24.2419 84.9414 26.0492 85.795 27.9115C86.8452 30.2781 87.4681 32.2187 88.7859 33.8027C88.0737 31.7389 86.81 27.6803 86.0625 26.2382C85.226 24.7128 83.5177 23.0691 82.8945 22.5Z" fill="#A88F33"/>
<path fill-rule="evenodd" clip-rule="evenodd" d="M70.7846 51.763C70.7846 51.763 68.9872 52.2076 65.6409 53.97C64.5366 54.539 63.4878 55.019 62.4729 55.4649C59.8364 56.6569 57.0086 57.7587 54.7652 58.3665C54.9436 58.5801 55.0316 58.6681 55.0316 58.6681C55.0316 58.6681 55.0315 59.5409 55.5126 60.0385C55.2462 60.306 51.6852 62.7265 52.7366 70.8249C53.4475 70.5585 54.2841 70.2019 54.4086 70.2019C54.6233 70.2382 54.6761 70.8249 54.9424 70.8249C55.2086 70.8249 56.0817 70.4729 57.0075 69.2761C56.9723 69.7572 56.4384 74.5985 59.3036 77.8556C59.8374 77.2326 61.1904 75.1675 61.1904 75.1675L61.2256 74.5092C61.2256 74.5092 61.35 72.2129 62.0985 70.1127C62.8471 68.0124 64.3056 66.4636 64.3056 66.4636L71.9217 55.5881L70.7824 51.7617L70.7846 51.763Z" fill="#E6C367"/>
<path fill-rule="evenodd" clip-rule="evenodd" d="M63.6684 67.7321C63.3197 67.9785 62.9356 68.1703 62.5291 68.3012C62.4046 67.8564 62.2264 66.3252 63.2766 64.8303C64.5049 63.0316 67.1918 60.7002 67.9393 58.8463C68.4204 57.6532 68.2068 54.6634 72.479 50.8361C76.751 47.0086 78.423 45.6921 78.423 45.6921L85.3294 42.2214L93.8195 45.5678L89.6014 62.1001L86.3267 69.8441L73.3027 67.3882L63.6684 67.7321Z" fill="#DCBA5A"/>
<path fill-rule="evenodd" clip-rule="evenodd" d="M68.6426 63.2429L70.2631 61.2141V59.7722C70.2631 59.7722 72.0606 59.2911 74.0001 57.3151C75.9396 55.3394 78.6276 51.5482 80.9956 51.7794C83.3633 52.0469 83.5945 56.9234 83.6836 58.2949C83.7727 59.6666 84.0756 62.7794 84.5554 64.4538C85.0892 66.1269 78.7884 72.4629 78.7884 72.4629L74.5092 75.7202L68.6426 63.2429Z" fill="#E9CE77"/>
<path fill-rule="evenodd" clip-rule="evenodd" d="M73.6562 80.1343C73.6562 80.1343 74.9739 78.0692 74.0082 77.6245C74.5773 76.3433 75.6274 74.9903 75.6274 74.9903C75.6274 74.9903 76.3749 73.1401 78.7955 70.8615C81.216 68.5828 82.712 67.0692 83.104 65.5391C83.3456 64.542 83.4769 63.5214 83.4958 62.4956C83.7576 62.7094 84.0375 62.8999 84.3325 63.0647C84.7243 63.2431 86.5747 64.773 86.3083 67.853C86.0419 70.933 84.9003 72.2143 84.9003 72.2143C84.9003 72.2143 83.7973 73.3172 83.0147 73.8874C82.177 74.4565 81.8754 75.1148 80.4685 75.1687C80.6132 75.0538 80.7758 74.9634 80.9496 74.9012C80.9496 74.9012 79.4901 74.7241 78.7064 75.4351C77.9224 76.1461 76.2563 78.3367 75.4197 78.9962C74.5832 79.53 73.6597 80.1354 73.6597 80.1354L73.6562 80.1343Z" fill="#CDAE50"/>
<path fill-rule="evenodd" clip-rule="evenodd" d="M132.839 45.5135C130.736 44.7472 128.526 44.3149 126.289 44.2324C122.551 44.1079 117.087 44.3215 111.729 44.3567C105.962 44.3919 100.729 42.3809 93.4673 42.0252C92.2753 41.313 89.2433 38.1979 79.7793 44.8014C80.3484 44.7662 86.6503 43.3417 88.8385 46.0838C91.0457 48.8071 90.4225 53.4348 90.1211 54.5377C89.5508 56.9947 87.6993 60.5721 86.9531 63.082C86.2068 65.5916 86.3828 66.9105 85.8489 68.6705C85.315 70.4305 84.1406 71.3046 84.834 73.3334C85.7598 72.7643 86.242 72.7643 87.7884 69.2935C89.335 65.8228 89.0169 63.3483 91.5806 60.4113C94.0905 57.4569 98.2686 53.4159 99.8574 52.4011C101.446 51.3862 114.061 44.8366 127.269 51.0846C130.454 50.7467 132.839 45.5135 132.839 45.5135Z" fill="#D2A83E"/>
<path fill-rule="evenodd" clip-rule="evenodd" d="M85.0968 43.0922C85.0836 42.9585 85.0541 42.8269 85.0088 42.7004C84.8852 42.4401 84.723 42.1999 84.5277 41.9881C84.5277 41.9881 81.3949 41.4191 79.8109 41.5962C77.0336 41.8989 74.5238 45.3345 73.3494 47.0967C72.1747 48.8591 70.7152 51.5812 69.1312 52.9881C69.1485 52.851 69.1169 52.7122 69.0419 52.5962C69.0419 52.5962 69.1312 52.7207 68.9539 52.8989C68.7768 53.0772 68.7757 53.1652 68.8648 53.2509L69.1323 53.5172C69.2203 53.5172 71.6774 52.4132 75.0237 49.2932C78.5835 46.0361 81.3069 44.3652 82.7313 43.7927C83.491 43.4698 84.2839 43.2348 85.0968 43.0922Z" fill="#C29637"/>
<path fill-rule="evenodd" clip-rule="evenodd" d="M145.863 29.709C145.863 29.709 145.292 30.4201 144.58 31.2039C142.996 32.877 140.931 34.7626 139.169 36.7033C137.497 38.5548 135.61 39.9967 133.491 42.4175C131.372 44.838 128.915 47.525 128.293 48.3087C127.724 49.0925 127.279 50.3738 127.279 51.0319C126.977 50.8185 126.621 50.5873 126.621 50.5873C126.771 50.8667 126.95 51.1295 127.155 51.3711C127.6 51.9941 128.293 52.7791 128.65 53.2578C129.087 53.8672 129.402 54.5565 129.574 55.2865C129.788 55.3217 131.158 55.5892 132.868 52.7767C134.578 49.9642 136.819 46.8855 136.819 46.8855L140.378 41.5983L142.622 37.114L145.438 32.0943L145.866 29.709H145.863Z" fill="#AC8132"/>
<path fill-rule="evenodd" clip-rule="evenodd" d="M149.516 26.1138C149.516 26.1138 147.362 27.8738 146.525 28.9298C145.688 29.9858 143.709 32.7572 143.709 32.7572L144.421 32.6679L148.035 29.4647L149.443 26.9551L149.515 26.1185L149.516 26.1138Z" fill="#A88F33"/>
<path fill-rule="evenodd" clip-rule="evenodd" d="M148.853 167.565C148.853 167.565 148.818 166.105 149.637 165.234C150.474 164.361 152.591 163.079 154.657 158.273C156.722 153.467 156.951 152.382 156.951 152.382C156.951 152.382 153.25 155.55 150.967 156.298C151.501 155.193 151.804 154.411 152.072 153.841C151.769 153.574 150.488 153.272 150.363 153.13C151.074 152.417 151.466 150.673 152.908 149.516C154.76 148.108 158.141 145.688 160.77 143.532C163.398 141.375 168.565 136.359 169.225 134.899C169.617 135.468 169.705 135.824 169.705 135.824C169.705 135.824 167.107 139.207 165.754 141.36C164.561 143.211 164.65 144.262 164.65 144.262L167.107 143.206C167.107 143.206 167.818 145.84 164.597 149.845C166.005 149.312 166.573 149.632 167.373 149.186C166.055 150.024 164.24 151.163 162.532 154.295C160.859 157.427 158.58 161.076 154.736 163.354C150.998 165.757 148.844 167.555 148.844 167.555L148.853 167.565Z" fill="#A67A2E"/>
<path fill-rule="evenodd" clip-rule="evenodd" d="M139.212 47.3661C139.212 47.3661 137.752 50.4087 137.538 52.7765C137.503 53.3467 137.36 53.7914 137.36 54.4496C137.325 56.5675 137.484 58.9352 137.008 60.0381C136.83 59.5935 136.74 59.2909 136.562 59.1136C136.296 59.861 135.815 62.1925 135.423 63.0642C135.246 62.4952 134.854 60.5192 134.89 58.1879C134.926 55.8565 134.978 55.4106 134.978 54.9307C134.89 55.6418 134.409 56.6039 134.231 57.173C133.964 56.693 133.662 56.0701 133.305 55.5538C133.091 55.9058 132.825 56.4256 132.594 56.693C132.557 56.4795 132.469 55.9093 132.416 55.109C132.38 54.1832 132.326 52.9912 132.38 52.7413C132.468 52.2613 133.217 50.3746 134.801 48.6475C136.688 46.5824 138.628 42.6141 139.197 41.3858C139.766 40.1573 142.187 35.0498 142.187 35.0498H144.038L141.35 41.1722C141.35 41.1722 139.731 44.5186 138.895 45.7482C138.058 46.9778 136.296 50.5013 135.512 51.8717C136.081 51.1245 136.562 50.7325 137.132 50.0203C137.684 49.5216 139.214 47.3685 139.214 47.3685L139.212 47.3661Z" fill="#8C6228"/>
<path fill-rule="evenodd" clip-rule="evenodd" d="M149.554 25.8816C149.252 26.8124 148.774 27.6766 148.146 28.4277C147.042 29.7453 144.674 31.5064 143.518 32.9122C142.462 34.2827 140.35 38.0208 141.31 42.4525C141.662 41.4915 142.325 39.5872 144.087 37.4331C145.85 35.2787 147.736 32.8054 148.663 30.8835C149.588 28.9427 149.712 27.4128 149.712 27.4128L150.064 26.968L149.851 25.9531L149.548 25.8816H149.554Z" fill="#CBA94C"/>
<path fill-rule="evenodd" clip-rule="evenodd" d="M185.592 143.945C185.592 143.945 184.88 142.005 184.666 140.243C184.453 138.48 185.018 138.131 184.363 136.114C183.971 134.885 183.261 135.058 183.082 134.885C182.904 134.713 182.78 132.857 182.815 131.842C182.85 130.827 182.78 129.51 182.601 128.94C182.335 128.727 182.157 128.548 181.765 127.232C181.32 125.914 181.106 125.256 180.893 124.865C180.679 124.475 180.055 124.118 180.055 123.726C180.055 122.942 180.767 122.534 180.767 122.318C180.732 121.873 180.198 122.23 180.055 122.104C179.878 121.891 180.501 120.609 180.27 120.431C180.181 120.343 179.558 121.091 179.397 120.877C179.219 120.662 179.005 118.544 178.685 117.139C178.383 115.768 178.062 114.772 178.026 114.363C177.991 113.971 175.57 107.064 174.983 105.391C174.51 103.977 174.112 102.54 173.791 101.084C173.612 100.247 173.488 98.538 173.399 98.7162C173.31 98.8945 173.364 99.7663 173.221 99.7311C173.096 99.6948 172.651 96.6524 172.509 96.1713C172.385 95.6902 171.637 94.0593 171.453 92.8788C171.275 91.6857 170.884 88.5705 170.617 86.4526C170.349 84.3348 170.225 83.4628 170.225 82.9326C170.269 81.6354 170.197 80.3368 170.011 79.0524C169.659 76.8089 168.955 74.0857 168.338 72.5028C167.146 69.5119 163.977 61.8583 163.41 59.954C163.41 59.4729 164.033 59.7404 164.033 59.7404C164.033 59.7404 165.581 63.6207 166.72 66.6103C167.824 69.6012 168.874 72.2353 169.142 72.5028C169.355 72.7692 171.029 75.706 171.776 80.5119C172.523 85.318 172.79 89.7497 173.236 92.7041C173.449 94.1121 173.628 95.6057 174.072 97.1006C174.552 98.7209 175.3 100.394 176.279 102.957C177.116 105.111 177.739 106.908 178.077 108.457C178.469 110.433 178.469 111.928 178.7 112.908C178.915 113.744 179.234 115.416 179.982 117.836C180.731 120.255 181.833 123.372 182.58 125.311C184.041 129.191 184.691 132.431 184.913 134.158C185.108 135.938 185.768 142.097 185.588 143.947L185.592 143.945Z" fill="#A88F33"/>
<path fill-rule="evenodd" clip-rule="evenodd" d="M149.64 25.6682L149.551 25.8818C149.551 25.8818 149.817 25.9709 149.764 26.3276C149.768 26.8155 149.738 27.3033 149.675 27.7872C149.587 28.4103 149.409 28.8901 149.374 29.2821C149.374 30.1186 149.498 31.0796 148.318 33.465C147.966 34.1232 147.749 34.6922 147.57 35.0842C147.126 36.045 147.036 36.1882 146.645 36.633C147.267 36.281 149.511 34.873 150.649 35.0842C149.866 35.5288 148.673 36.4018 147.926 37.541C148.104 37.5762 148.851 37.7194 150.038 37.541C152.014 37.2384 154.221 36.5261 156.16 36.6682C158.279 36.7925 157.443 34.1232 157.443 34.1232L154.998 28.7482L150.37 25.4922L149.64 25.6682Z" fill="#BE9C44"/>
<path fill-rule="evenodd" clip-rule="evenodd" d="M161.71 65.9311C161.71 65.9311 159.645 63.866 158.809 56.7791C157.972 49.6593 158.15 39.1791 158.15 39.1791L156.477 35.0852C156.477 35.0852 156.125 32.362 155.249 31.3482C154.372 30.3345 152.651 28.6249 151.867 27.7884C151.084 26.9518 150.194 25.8124 149.66 25.634C149.927 25.1894 151.12 22.6796 155.693 22.6444C160.267 22.6092 161.677 25.1542 162.155 26.0799C162.633 27.0057 164.789 31.0079 165.589 38.6346C166.337 46.2519 166.373 46.8222 166.249 49.4564C166.16 50.9159 165.679 54.2975 164.841 57.91C164.076 60.9726 163.239 64.3905 161.708 65.938L161.71 65.9311Z" fill="#A17C34"/>
<path fill-rule="evenodd" clip-rule="evenodd" d="M155.232 72.0006C155.92 72.0502 156.608 71.8951 157.208 71.5547C157.866 71.5195 160.252 71.8222 162.084 69.4907C162.209 70.0235 162.53 71.4667 161.693 72.748C162.138 72.3021 162.797 72.1249 162.886 72.0006C162.921 72.6587 163.544 74.6875 160.91 79.6179C161.621 78.8352 162.458 78.8704 163.205 78.7813C163.241 79.707 163.739 82.8211 162.422 84.4955C161.551 85.6347 160.126 85.2779 160.126 85.2779C160.147 85.0293 160.147 84.7793 160.126 84.5307C160.091 84.0496 159.913 83.5696 160.038 83.2493C159.35 82.9349 158.723 82.5006 158.187 81.9669C156.638 80.5072 154.627 78.0163 154.485 76.1648C154.306 74.0997 156.158 73.6549 156.158 73.6549C156.003 73.5162 155.871 73.3539 155.766 73.1739C155.677 72.8723 155.588 72.3912 155.232 72.0006Z" fill="#8C6228"/>
<path fill-rule="evenodd" clip-rule="evenodd" d="M141.507 49.6088C141.507 49.6088 141.417 49.4845 140.938 50.0536C141.027 49.4845 141.116 48.9494 141.151 48.4331C141.378 47.9552 141.672 47.5121 142.024 47.1168C141.757 47.6494 141.578 48.1304 141.578 48.1304C141.578 48.1304 142.238 46.9019 143.199 46.1547C143.857 45.6208 144.693 45.372 145.049 44.8733C145.441 44.3395 145.352 44.2502 145.441 44.1611C145.441 44.1611 146.314 43.592 147.649 41.9176C147.826 41.7041 148.094 41.4731 148.272 41.2595C148.574 41.135 149.286 40.8147 150.123 40.3864C150.995 39.9067 151.974 39.2483 152.579 38.9784C153.772 38.4446 155.036 38.4987 155.623 37.6608C156.068 37.5365 156.548 36.2011 156.46 35.063C157.118 35.3294 160.499 37.4296 161.657 42.0221C162.494 45.2792 160.998 50.2987 160.375 52.7206C159.752 55.1424 159.664 56.9387 158.791 58.0416C157.687 59.5024 154.128 61.5616 153.255 62.5813C152.508 63.4179 150.266 65.5357 150.354 67.0656C150.443 68.2051 151.848 68.8257 152.152 69.0416C152.456 69.2576 152.454 69.5227 153.024 69.3936C153.594 69.2646 153.807 69.0016 154.039 69.0016C154.305 69.0368 154.305 69.0909 154.43 69.0909C154.52 69.0882 154.61 69.0761 154.697 69.0545C154.697 69.0545 154.608 70.6749 150.817 71.1665C150.549 71.2029 150.283 71.2909 149.944 71.3448C150.39 71.1313 150.656 71.1312 151.137 70.4731C150.604 70.384 149.072 70.2947 148.68 70.1704C148.805 69.9568 149.214 69.3867 149.552 69.1203C149.855 68.8539 149.517 68.7683 149.251 68.9067C148.792 69.2187 148.352 69.5572 147.933 69.9205C147.488 70.3123 147.096 70.8462 146.384 71.3285C146.171 70.6163 146.206 69.2635 147.044 68.2848C146.829 68.32 146.419 68.943 146.029 68.8187C145.958 68.1695 146 67.513 146.153 66.8779C146.367 66.0766 147.524 64.671 147.524 64.671L153.112 54.6848L154.304 47.1203L141.507 49.6065V49.6088Z" fill="#92723A"/>
<path fill-rule="evenodd" clip-rule="evenodd" d="M141.204 50.036C141.204 50.036 140.901 50.2495 141.507 50.6589C141.417 50.7834 141.204 51.228 140.936 51.5309C140.635 51.8829 140.313 52.101 140.189 52.4037C139.923 53.0269 139.709 53.4538 139.709 53.7213C139.709 53.989 139.62 55.6973 138.872 56.8002C138.605 57.1922 138.302 57.8504 138.089 58.2951C137.644 59.0776 137.252 59.7031 137.163 60.0551C136.986 60.6781 136.861 62.3864 136.861 62.3864C136.861 62.3864 137.253 61.9053 137.395 61.7282C137.18 62.173 136.949 62.6528 136.611 63.0095C136.825 62.8312 137.448 62.3864 138.498 61.4607C139.958 60.2333 142.236 58.1683 145.014 56.5327C144.176 56.8354 143.465 56.8354 142.896 56.9245C143.34 56.4799 147.345 51.7807 149.445 51.336C149.573 51.1743 149.636 50.9713 149.624 50.7658L147.825 50.5885L144.176 51.3712L143.643 48.5552L141.204 50.0325V50.036Z" fill="#B18E3E"/>
<path fill-rule="evenodd" clip-rule="evenodd" d="M147.008 66.0555C147.008 66.0555 146.527 66.5353 146.082 67.7286C145.74 67.3711 145.446 66.97 145.209 66.5353C144.551 65.4324 143.537 64.0257 141.17 64.827C141.134 64.0796 141.08 63.6878 141.17 63.1539C141.562 63.0659 142.754 62.1049 143.946 60.698C144.783 59.7371 145.566 58.6329 146.1 57.2273C146.452 56.9598 147.061 56.515 147.86 55.9988C148.999 55.2163 150.37 54.1473 150.583 52.9553C150.049 53.1689 148.91 53.7027 147.201 53.6147C147.86 53.3118 148.874 52.9916 148.749 51.674C149.017 51.4956 149.23 51.3713 149.23 51.3713C149.03 51.3044 148.819 51.2741 148.607 51.282C148.571 51.1577 148.518 50.9806 148.215 51.0686C147.913 51.1566 147.863 51.1577 147.824 51.282C147.699 51.3185 147.29 51.282 146.987 51.4969C146.684 51.7115 145.848 52.4214 145.527 52.5457C145.652 52.3321 145.829 52.0131 145.829 52.0131C145.829 52.0131 144.957 52.1011 144.334 52.3651C143.195 52.7569 141.878 53.4691 140.543 54.1625C140.667 53.9491 140.721 53.8105 140.809 53.7707C140.897 53.7308 141.112 53.6827 141.112 53.6463C141.112 53.61 141.024 53.2943 141.077 53.1665C141.476 52.3208 141.947 51.511 142.485 50.7459C143.108 49.9081 143.232 48.7161 143.232 48.7161L145.956 47.3455L153.609 45.5854L158.576 45.8883L157.953 49.3238L155.02 55.3219L152.51 60.786L149.643 64.1337L147.008 66.0555Z" fill="#543E26"/>
<path fill-rule="evenodd" clip-rule="evenodd" d="M159.408 51.1881C159.408 51.1881 156.417 54.8899 155.581 55.4603C156.115 54.3209 159.408 47.539 160.6 45.6523C160.334 45.4387 159.977 45.4387 160.814 42.1323C160.103 43.8043 159.853 44.6774 159.266 45.1219C158.68 45.5667 158.607 45.4246 158.21 45.4246C158.285 45.2891 158.316 45.1339 158.298 44.98C158.298 44.98 155.788 44.6774 154.074 44.6774C152.36 44.6774 148.967 45.603 147.079 46.3505C145.584 46.9734 144.747 46.9734 144.213 47.3643C143.68 47.8089 143.377 48.2899 143.109 48.4144C142.896 48.5387 141.882 48.859 141.65 49.1969C141.436 49.5489 141.081 49.9443 141.081 50.0336C141.081 50.1227 140.992 50.2483 141.259 50.1579C141.347 50.1227 142.006 49.766 142.754 49.3214C143.768 48.7523 144.996 48.094 145.887 47.7022C148.432 46.6872 149.233 46.8656 150.371 46.652C151.563 46.4385 153.273 45.9398 154.411 45.9398C155.55 45.9046 157.704 45.9398 158.203 46.0289C157.989 46.2073 157.811 46.4209 157.9 47.1683C157.9 47.3819 157.722 47.6129 157.548 48.1292C157.016 49.5889 156.001 52.0094 155.436 53.2379C154.654 54.9099 153.764 56.3168 153.324 57.1886C152.884 58.0603 151.916 60.3566 150.958 61.5851C149.999 62.8134 149.498 63.5609 149.198 63.8284C148.897 64.096 146.741 65.6787 146.901 66.2491C147.293 66.1246 149.768 65.1931 151.564 63.1702C153.361 61.1473 153.719 59.9131 155.124 58.8089C156.53 57.7048 157.634 55.8545 158.292 54.3244C158.844 52.9 158.719 52.4553 159.413 51.1916L159.408 51.1881Z" fill="#806031"/>
<path fill-rule="evenodd" clip-rule="evenodd" d="M94.9625 78.8175C94.9625 78.8175 94.5707 80.4367 93.6801 81.238C92.8083 82.022 91.2595 82.6977 91.0824 84.0153C90.8688 85.3319 92.6312 85.9913 92.6312 85.9913C92.6312 85.9913 91.6691 87.5753 91.6691 88.7673C91.6691 89.9959 91.6339 90.227 91.7582 91.4015C91.617 91.4922 91.4969 91.6123 91.4062 91.7535C91.4062 91.7535 91.4942 92.8929 92.3672 93.6039C93.2401 94.3148 93.9864 94.7431 94.431 94.5649C94.499 94.7099 94.5584 94.8588 94.6094 95.0108C94.6094 95.0108 95.2688 93.3375 95.7134 91.878C96.1582 90.3831 96.5501 90.5954 96.7272 88.5844C96.9043 86.5732 98.8392 83.1201 98.8392 83.1201L100.159 80.1692L98.0062 78.4961L94.9625 78.8175Z" fill="#B6903C"/>
<path fill-rule="evenodd" clip-rule="evenodd" d="M98.9641 81.7183C98.5201 82.174 98.1103 82.6619 97.738 83.1778C97.1689 83.9617 96.7242 84.6727 95.8876 84.9766C95.0511 85.2804 94.5172 85.278 94.57 86.1159C94.6228 86.9537 95.4066 87.3079 95.8513 87.7351C96.3324 88.1798 96.7242 88.9271 96.5106 89.7649C96.777 89.6406 97.258 89.4975 97.7028 88.5364C98.1474 87.5756 101.258 81.7194 101.258 81.7194L98.9641 81.7183Z" fill="#685026"/>
<path fill-rule="evenodd" clip-rule="evenodd" d="M111.235 68.2084C111.235 68.2084 111.501 67.4974 111.235 66.9812C110.967 66.4473 109.348 66.2689 108.547 65.6635C107.71 65.0404 106.695 64.6075 105.859 64.8809C105.983 64.5782 106.482 63.9187 106.072 63.7767C105.68 63.6524 104.222 64.3105 103.83 64.6134C103.438 64.9161 102.547 65.2716 102.37 65.4862C102.193 65.7009 101.889 66.1094 101.711 65.931C101.533 65.8065 101.445 65.4863 101.142 65.6635C100.839 65.8406 99.3819 67.034 99.1133 67.7286C98.8445 68.4231 98.2403 69.9719 96.4251 71.7332C94.6099 73.4943 93.8261 74.6348 94.36 75.2929C94.8939 75.9513 95.1438 75.4713 95.233 76.0404C95.3016 76.599 95.2714 77.1653 95.1438 77.7137C94.9304 78.6393 94.5747 79.5111 95.0547 79.6894C96.2832 80.0814 97.4765 79.3374 97.7427 79.5651C98.2766 80.0449 97.44 81.7721 98.7037 82.11C99.9861 82.462 101.25 81.8073 101.25 81.8073L105.913 79.2977L110.398 76.931L112.693 72.3913L111.463 68.6003L111.228 68.2084H111.235Z" fill="#D4B968"/>
<path fill-rule="evenodd" clip-rule="evenodd" d="M106.834 79.0491C106.834 79.0491 106.05 77.857 107.013 76.8056C107.975 75.7544 109.344 75.3109 109.878 74.6526C109.776 74.5272 109.64 74.4346 109.486 74.3862C109.84 73.7522 110.381 73.2422 111.035 72.9254C110.768 72.6592 110.412 72.4456 110.021 72.4456C109.148 72.4456 108.613 72.9795 107.813 72.9795C107.03 72.9795 106.941 72.5875 106.941 72.5875C106.941 72.5875 108.258 72.4632 108.133 71.8752C108.009 71.2523 107.781 71.2523 107.781 71.2523C107.781 71.2523 110.326 70.1963 110.771 69.6331C111.215 69.0699 111.162 68.4046 111.252 68.1382C111.553 68.1382 113.316 67.2125 114.028 67.6043C114.74 67.9963 114.241 69.064 114.241 69.064C114.241 69.064 116.397 67.4437 117.495 65.8549C118.456 65.944 118.903 65.1968 119.607 65.1968C120.48 65.1968 121.85 66.3888 122.117 68.9338C122.295 70.3934 122.561 71.2299 122.295 73.8112C122.171 75.2709 122.206 78.3872 122.647 79.9338C122.949 81.1622 123.661 81.0379 123.661 81.0379C123.552 81.4122 123.335 81.7463 123.038 81.9989C122.557 82.4435 122.504 83.6192 122.557 84.064C122.628 84.389 122.717 84.7099 122.824 85.0248C122.824 85.0248 122.255 85.6832 122.112 86.129C121.988 86.5736 121.401 86.8763 120.973 86.8763C120.545 86.8763 120.759 86.84 120.19 86.8763C119.621 86.9128 119.443 87.0008 119.086 86.8763C118.729 86.752 118.463 86.6088 118.606 85.4683C118.73 84.3291 114.21 81.6773 114.21 81.6773L106.818 79.0432L106.834 79.0491Z" fill="#CCA849"/>
<path fill-rule="evenodd" clip-rule="evenodd" d="M98.3399 90.2976C98.3399 90.2976 99.959 92.4517 106.617 92.4517C109.785 92.4517 110.889 92.149 111.545 91.9707C112.257 91.7923 114.926 90.7434 117.614 87.5741C120.035 84.709 119.501 83.5344 119.501 83.5344L118.093 83.3208L113.517 83.944L99.9767 89.7109L98.334 90.2976H98.3399Z" fill="#585136"/>
<path fill-rule="evenodd" clip-rule="evenodd" d="M103.306 90.8317C103.306 90.8317 97.5391 92.1141 97.5391 88.4651C97.5391 84.9051 101.099 81.1669 101.989 80.5086C102.915 79.8493 105.122 79.1006 105.122 79.1006H110.444L111.458 81.7888L111.014 87.5909L103.306 90.8317Z" fill="#252211"/>
<path fill-rule="evenodd" clip-rule="evenodd" d="M108.628 80.1881C108.628 80.1881 107.525 79.1732 105.015 80.5401C102.506 81.9071 100.476 84.7641 100.351 87.3585C100.227 89.6534 102.238 91.363 105.371 91.4521C107.702 91.5401 109.109 91.2739 109.821 91.1001C109.643 90.8867 108.717 89.7297 108.717 89.7297L108.628 80.1881Z" fill="#C3B378"/>
<path fill-rule="evenodd" clip-rule="evenodd" d="M107.544 80.756C107.544 80.756 107.277 80.5426 106.488 80.9695C105.829 81.3215 104.868 82.252 104.121 82.9103C103.64 83.3021 103.337 83.4794 103.065 83.7821C101.961 85.0997 101.035 87.254 101.57 88.3218C102.105 89.3895 103.866 90.6178 108.352 89.7813L107.531 80.7572L107.544 80.756Z" fill="#E6D89C"/>
<path fill-rule="evenodd" clip-rule="evenodd" d="M106.085 82.9643C106.085 82.9643 105.373 84.0684 105.373 85.8308C105.373 87.6283 106.388 90.4935 110.126 90.7071C112.991 90.8854 114.913 86.5782 116.996 84.9049C118.58 83.6236 119.541 83.5873 119.541 83.5873C119.541 83.5873 117.922 81.8273 113.597 79.5476C109.325 77.2513 104.536 76.9486 101.938 80.4732C103.166 80.3841 107.135 79.3692 107.135 79.3692L109.076 79.9921L106.085 82.9643Z" fill="#252211"/>
<path fill-rule="evenodd" clip-rule="evenodd" d="M111.673 85.2955C111.549 85.0291 111.46 84.6725 111.976 84.5845C112.492 84.4965 112.723 84.548 112.902 84.9365C113.08 85.3248 113.254 85.6486 112.99 85.8094C112.723 85.9515 112.029 85.8094 111.672 85.2931L111.673 85.2955ZM110.837 82.7857C110.837 82.7857 110.658 82.9101 110.748 82.6614C110.783 82.3598 111.015 81.8248 111.584 81.9504C112.153 82.0758 112.03 82.6977 111.936 82.876C111.842 83.0544 111.367 83.356 111.01 83.228C110.919 83.2046 110.844 83.1388 110.808 83.051C110.773 82.9631 110.782 82.8638 110.832 82.7835L110.837 82.7857Z" fill="#6F674D"/>
<path fill-rule="evenodd" clip-rule="evenodd" d="M62.6562 83.9236C62.6562 83.9236 64.0643 84.9796 65.7 84.9386C67.3192 84.9023 69.4018 83.2303 70.3627 82.1613C70.9317 81.5383 71.4187 80.8801 71.9467 80.3639C72.3925 79.9191 72.6941 79.7055 72.9077 79.4028C73.2104 79.0508 73.5307 78.389 73.6915 78.1743C73.2997 78.477 72.7306 79.0121 72.1426 79.3676C71.5736 79.7196 70.3451 80.3815 69.8464 80.5597C69.3666 80.738 64.3823 83.3757 64.3823 83.3757L62.6562 83.9236Z" fill="#AC924C"/>
<path fill-rule="evenodd" clip-rule="evenodd" d="M64.8105 70.7719C64.8105 70.7719 65.593 70.238 67.1066 69.8988C68.5663 69.5468 71.5031 69.2759 71.5031 69.2759L73.9237 70.3319L74.8847 73.981L73.1247 77.773L70.8825 79.181L68.3364 75.0874L64.8164 70.7788L64.8105 70.7719Z" fill="#9F8E57"/>
<path fill-rule="evenodd" clip-rule="evenodd" d="M61.6386 74.0292L60.8008 74.6546C60.8008 74.6546 61.0155 74.2626 61.1928 73.0706C61.3699 71.8786 62.2968 68.9768 63.6496 67.3037C65.0024 65.6306 64.9672 65.7197 64.9672 65.7197C64.7155 65.6736 64.4559 65.7382 64.2551 65.8968C64.4333 65.5026 65.5728 64.0946 66.712 63.3906C67.8514 62.6866 68.296 62.4648 69.4882 63.0386C70.6803 63.6124 70.9829 63.9103 71.856 63.8751C72.7288 63.8399 73.4752 62.9143 73.4752 62.9143C73.4752 62.9143 73.6535 63.4834 72.9952 64.801C72.337 66.1186 69.7381 68.8055 69.7381 68.8055L64.3267 72.5074L61.6386 74.0327V74.0292Z" fill="#EAC970"/>
<path fill-rule="evenodd" clip-rule="evenodd" d="M65.6472 70.3275C65.6472 70.3275 69.5639 70.8614 70.7559 69.7584C70.7911 69.8827 70.9343 69.8827 70.9343 69.972C70.9248 70.0391 70.8934 70.1014 70.845 70.1491C70.9748 70.1284 71.1057 70.1167 71.237 70.1139C71.3937 70.1607 71.5551 70.1905 71.7181 70.203C71.8493 70.2003 71.9804 70.1882 72.11 70.1667C72.0849 70.3455 71.9885 70.5064 71.8424 70.6126C72.0207 70.6126 72.1944 70.6478 72.1944 70.7897C72.1944 70.9318 72.2296 71.36 72.0162 71.4491C71.8392 71.4981 71.6508 71.4852 71.4823 71.4128C71.4964 71.7498 71.5879 72.0791 71.7498 72.375C72.1018 73.0331 72.8527 73.783 73.8618 73.567C73.8618 73.567 74.3944 74.8483 72.1522 77.696C71.8506 78.0878 71.5292 78.6217 71.1384 79.0664C70.984 79.403 70.8661 79.755 70.7864 80.1166C70.7864 80.1166 74.5786 78.6569 75.6639 75.3283C76.7682 71.9819 76.9816 68.6894 76.7682 65.6107C76.7317 64.7377 76.5898 64.1158 76.3762 63.6699C75.8423 62.5659 74.3463 62.7443 73.7421 63.3672C72.869 64.2403 71.4095 66.4109 69.3807 67.9057C67.3157 69.4006 67.2277 69.6657 65.6426 70.3275H65.6472Z" fill="#D7BC6B"/>
<path fill-rule="evenodd" clip-rule="evenodd" d="M60.9471 75.1337C60.9471 75.1337 60.1996 75.5784 59.8077 77.2456C59.4159 78.9541 60.1597 81.0368 60.5903 81.695C61.021 82.3533 61.9983 84.152 64.0258 84.2411C64.5278 84.2385 65.0241 84.1355 65.4855 83.9384C66.1934 83.6139 66.8572 83.2011 67.4613 82.7099C68.3343 82.0517 69.0453 81.4827 68.9562 81.4286C68.7426 81.3395 63.5812 77.0674 63.5812 77.0674L61.6405 74.9014L60.9458 75.136L60.9471 75.1337Z" fill="#585136"/>
<path fill-rule="evenodd" clip-rule="evenodd" d="M65.8273 82.2169C65.8273 82.2169 66.8775 82.1289 67.5006 81.7369C68.1236 81.3451 63.8516 77.1094 63.8516 77.1094L64.1542 81.6854L65.8273 82.2169Z" fill="#453A25"/>
<path fill-rule="evenodd" clip-rule="evenodd" d="M61.28 74.8119C61.28 74.8119 60.7462 75.8269 60.7462 76.0943C60.6569 76.9661 60.9246 79.7071 61.138 80.5789C61.3515 81.5047 62.5086 82.9103 64.0046 82.9103C64.9291 82.9103 66.2115 82.3412 66.2115 82.1992C66.2115 82.021 64.8939 81.8472 64.5384 81.1842C64.3248 80.8322 64.2356 79.957 64.1864 79.0722C64.1512 78.5032 64.1512 77.8802 64.3646 77.6642C64.8457 77.1304 64.9337 75.5992 64.9337 75.5992L66.6422 72.4253H64.3952L61.707 74.0986L61.28 74.8119Z" fill="#84754B"/>
<path fill-rule="evenodd" clip-rule="evenodd" d="M60.6211 75.7917C60.6211 75.7917 62.3811 73.4602 63.9675 72.9253C65.5539 72.3901 66.2637 72.7117 66.2637 72.7117L65.3379 75.0794L64.0203 76.5391L64.1094 77.2866C64.1094 77.2866 63.8947 79.2624 65.2123 80.6328C66.5301 82.0034 67.5086 81.9506 68.0789 81.9506C68.6491 81.9506 70.2859 81.4695 71.1224 79.4936C71.8699 77.6432 72.4928 75.2696 70.9981 72.8901C69.5373 70.5223 66.9571 70.4307 66.4584 70.4307C65.9598 70.4307 62.0443 70.6266 60.6211 75.7882V75.7917Z" fill="#252211"/>
<path fill-rule="evenodd" clip-rule="evenodd" d="M105.819 83.7115C105.161 83.4087 105.784 81.5585 106.442 80.9881C107.1 80.4179 107.937 79.7609 109.398 79.6705C109.93 79.6353 110.447 79.9732 110.359 80.33C110.234 80.9881 109.309 81.914 108.472 82.5721C107.315 83.4804 106.566 84.0494 105.819 83.7115Z" fill="#F7F7E7"/>
<path fill-rule="evenodd" clip-rule="evenodd" d="M70.2195 73.6199C70.7006 73.5847 71.3235 73.9719 71.448 74.4929C71.5723 75.062 71.1451 76.2012 70.2195 76.2012C69.472 76.2012 69.0801 75.2756 69.0801 75.0092C69.0885 74.7901 69.1497 74.5765 69.2585 74.3862C69.2937 74.3321 69.3829 73.7092 70.2195 73.6199Z" fill="#F8F6DE"/>
<path fill-rule="evenodd" clip-rule="evenodd" d="M63.2737 74.0293C63.2737 74.0293 62.0452 74.5984 61.4761 75.7893C61.0695 76.6687 60.9464 77.6529 61.1241 78.6053C61.2132 79.0501 61.658 80.153 61.9606 80.545C62.2633 80.9367 62.6729 81.2042 62.9756 81.1679C63.2783 81.1316 63.9001 80.3314 63.9001 79.8514C63.9001 79.3716 63.9366 77.3418 64.5233 76.2376C65.0395 75.1346 63.2772 74.0306 63.2772 74.0306L63.2737 74.0293Z" fill="#D4C38B"/>
<path fill-rule="evenodd" clip-rule="evenodd" d="M63.4577 73.9403C63.2443 74.0646 62.8886 74.243 62.9766 74.4741C63.0659 74.6877 63.8134 74.8261 64.0808 75.3472C64.3835 75.881 64.3835 76.4501 64.2944 76.7176C64.5269 76.607 64.7377 76.4562 64.9174 76.2717C65.3094 75.827 65.7891 75.2227 66.1987 75.2227C66.4662 75.2227 66.7326 75.3472 66.9825 75.3472C67.3744 75.3472 67.7651 75.2227 67.819 74.8133C67.907 74.2794 67.0716 73.7984 66.5905 73.8875C66.6798 73.5355 66.8041 73.0157 66.4123 72.659C66.0203 72.3024 64.7931 72.9264 64.5254 73.1048C64.2579 73.2832 63.4577 73.9403 63.4577 73.9403Z" fill="#E2D59D"/>
<path fill-rule="evenodd" clip-rule="evenodd" d="M91.7421 111.336L94.3763 110.559L95.1237 111.092C95.1237 111.092 95.6565 112.232 96.4941 112.374C96.2266 112.943 95.532 113.43 95.5685 113.833C95.6048 114.237 95.9603 114.546 95.9603 114.546C95.9603 114.546 93.5925 118.461 98.2565 122.407C97.1525 122.852 95.7469 123.463 94.9994 123.815C95.532 123.939 96.6714 124.167 97.1525 124.599C97.6335 125.03 97.6335 125.168 98.0781 125.435C98.5229 125.703 98.7893 126.058 98.7013 126.218C98.3986 126.039 97.3837 125.507 97.2064 126.004C97.0293 126.502 92.8099 126.307 92.8099 126.307L85.6901 127.678C85.6901 127.678 85.9565 126.965 85.209 126.307C84.3373 125.524 83.2696 126.342 82.1303 125.47C80.6354 124.331 80.5815 123.014 80.1016 122.516C80.5815 122.213 81.5613 121.769 83.8925 121.46C83.8034 121.282 83.5007 120.748 83.6791 120.268C83.8925 119.645 84.7821 119.253 84.5157 118.508C84.9075 118.419 85.0847 118.419 86.0645 117.19C86.9901 115.962 87.5592 115.695 88.2714 115.606C88.9837 115.517 89.4109 115.606 90.7285 114.378C91.653 113.506 91.3514 112.759 91.3514 112.759C91.3514 112.759 91.9557 112.563 91.7434 111.334L91.7421 111.336Z" fill="#CBAC5A"/>
<path fill-rule="evenodd" clip-rule="evenodd" d="M83.962 111.732C83.9972 111.554 84.1404 111.464 85.1015 111.554C86.0623 111.643 92.1497 110.985 93.8052 110.895C95.4783 110.771 101.37 110.859 104.236 111.465C107.103 112.07 110.003 112.782 111.409 113.138C112.817 113.53 113.26 113.67 113.206 113.849C113.171 114.027 112.854 114.201 112.672 114.151C112.495 114.116 107.831 112.692 106.39 112.391C104.949 112.091 99.9641 111.287 97.2383 111.335C94.6935 111.372 93.6785 111.3 91.5255 111.549C89.3711 111.817 85.8113 112.172 84.7436 112.03C83.6876 111.906 83.9058 111.906 83.9598 111.727L83.962 111.732Z" fill="#D6BC6F"/>
<path fill-rule="evenodd" clip-rule="evenodd" d="M98.2873 125.683C98.2873 125.683 101.936 127.659 103.254 130.079C104.215 131.877 102.685 132.767 102.685 132.767C102.685 132.767 104.75 132.767 104.482 133.907C104.358 134.618 100.923 136.54 98.6264 137.555C96.295 138.57 96.3841 138.517 95.2449 138.694C94.1408 138.872 91.1147 138.342 90.4918 139.228C89.8686 140.114 90.1398 141.026 90.3134 141.169C90.4918 141.293 91.9337 141.471 91.9337 141.471C91.9337 141.471 91.631 142.308 88.6414 142.397C85.6518 142.486 84.903 142.698 84.7248 143.02C84.5464 143.322 85.2939 143.144 86.6654 143.372C88.0358 143.586 89.9579 143.724 89.9579 143.724C89.9579 143.724 89.3347 144.258 87.7155 144.685C85.8641 145.165 82.9624 145.611 82.0907 146.145C82.5353 146.447 83.1947 146.892 83.4987 146.927C82.7512 147.106 81.6998 147.497 81.5227 147.639C81.7891 147.818 82.1457 148.031 82.1457 148.031C82.1457 148.031 80.6497 149.829 79.7779 150.275C78.9062 150.721 73.8867 153.051 72.1595 152.606C67.8523 151.467 67.3184 146.75 66.2683 146.394C64.6843 145.861 63.9368 146.927 62.5299 146.18C63.1531 145.735 63.4921 145.469 64.1504 145.166C63.4382 144.814 59.7539 142.478 59.7539 142.478C59.3685 141.638 58.941 140.819 58.4726 140.022C57.7603 138.794 56.7126 137.156 55.9265 135.714C54.2182 132.546 54.1289 131.086 52.5801 129.289C52.8476 128.937 53.7723 128.986 53.7723 128.986L66.7494 133.258L89.7595 133.924L95.7435 125.381L98.2873 125.683Z" fill="#DFC677"/>
<path fill-rule="evenodd" clip-rule="evenodd" d="M64.2031 138.712C64.3421 138.866 64.504 138.999 64.6831 139.104C65.129 139.406 65.7871 139.763 66.2319 140.296C66.4103 140.03 66.8549 139.548 67.6399 140.296C68.4249 141.043 69.3999 140.511 70.0065 140.688C70.6295 140.902 70.6647 140.99 70.6647 140.99C70.6647 140.99 71.0167 140.688 71.8041 140.367C72.2852 140.189 72.8543 140.065 73.4772 139.887C74.0463 139.763 74.6693 139.585 75.0975 139.585C75.4895 139.851 76.8951 141.345 82.5377 139.14C87.8599 137.075 89.0873 136.844 89.9778 137.163C90.0671 136.95 90.1562 136.54 91.5266 136.594C91.5266 136.025 90.3873 134.084 90.3873 134.084L84.1041 131.931H80.6674L70.362 133.818L64.6514 137.076L64.2068 138.719L64.2031 138.712Z" fill="#C4A859"/>
<path fill-rule="evenodd" clip-rule="evenodd" d="M60.7656 135.099C60.7656 135.099 60.8899 136.06 62.3144 137.075C63.7224 138.089 64.1648 138.694 64.1648 138.694C64.1648 138.694 64.4323 138.342 64.6459 137.983C64.8595 137.592 65.0377 137.147 65.3933 137.022C66.1054 136.72 67.7246 137.289 68.0814 137.2C68.384 137.112 68.2949 136.489 68.6152 136.489C69.3627 136.452 69.8425 136.968 70.1101 136.968C70.3776 136.968 71.0347 136.933 71.1238 136.791C71.2131 136.649 71.2483 135.171 72.2632 134.459C73.3672 133.676 74.72 134.014 75.0792 134.192C75.0792 134.459 75.1144 135.118 75.8265 135.153C76.5387 135.189 76.6091 135.064 77.2345 135.278C77.86 135.491 78.6051 135.242 78.9429 136.291C79.2456 136.203 79.9579 136.114 79.7795 135.099C80.1315 134.833 80.4389 134.655 81.1875 133.605C81.3659 133.338 81.6675 133.035 81.8997 132.644C82.5227 132.644 83.2702 132.519 84.2664 133.391C83.9635 133.605 83.7853 133.743 83.6973 133.96C83.9578 134.218 84.1956 134.498 84.4083 134.797C84.6758 135.149 84.8542 135.58 85.192 135.67C85.9395 135.883 87.168 135.58 88.5384 135.67C89.856 135.759 90.959 136.239 91.44 136.541C91.6184 136.453 91.6184 136.417 92.0632 136.506C92.5078 136.595 92.8457 136.63 92.3659 136.061C92.6323 136.186 92.9349 136.453 93.2024 136.186C93.4699 135.918 93.6824 135.528 94.4297 135.438C95.1771 135.349 95.4446 135.474 95.7475 134.691C96.1392 133.73 94.7864 133.73 94.7864 133.73C94.7864 133.73 95.4094 133.16 96.104 132.412C96.9406 131.63 97.9016 130.615 98.1328 129.369C98.5246 127.073 96.2824 126.771 96.2824 126.771L85.4067 130.117L72.1107 129.458L60.7726 135.101L60.7656 135.099Z" fill="#927D49"/>
<path fill-rule="evenodd" clip-rule="evenodd" d="M50.9936 103.683C50.9936 103.683 50.6416 104.128 50.4246 105.178C50.2075 106.228 50.3001 106.104 50.1217 106.851C49.9435 107.598 47.7529 115.039 48.5742 117.548C49.3955 120.058 50.8176 120.984 51.707 123.013C51.8854 123.457 52.059 123.725 52.1516 124.117C52.4544 125.433 52.1881 126.448 52.5435 127.766C52.6678 128.21 52.9894 128.727 53.4694 129.261C54.5254 130.363 56.2465 131.414 56.9894 132.161C58.0382 133.265 59.5342 135.509 61.4385 135.721C62.4534 135.845 63.8955 135.418 65.0876 134.707C66.1436 134.048 66.7961 133.123 67.9036 132.595C68.6862 132.203 69.5228 132.061 70.2702 131.883C71.819 131.58 73.2259 131.531 74.0625 131.705C75.3438 131.972 78.3697 132.898 80.0465 132.898C81.3566 132.877 82.6595 132.697 83.9267 132.364C86.4716 131.617 89.5505 130.334 91.5803 129.765C92.7724 129.413 93.7334 129.32 94.7131 129.107C96.3862 128.715 97.792 128.181 98.5934 127.166C98.0595 126.543 97.4012 125.582 93.8401 125.617C89.8004 125.706 85.1364 127.949 82.8401 128.305C80.544 128.662 79.5478 128.964 76.9841 128.038C74.4708 127.103 74.3875 126.485 74.3875 126.485C74.3875 126.485 71.7486 124.639 70.6446 119.934C69.5404 115.229 70.6446 111.8 73.511 108.542C74.2585 107.705 74.0801 106.958 74.0801 106.958C74.0801 106.958 75.9668 104.413 75.4505 102.03C74.8814 99.6621 71.2324 100.143 71.2324 100.143L50.9936 103.683Z" fill="#6E6342"/>
<path fill-rule="evenodd" clip-rule="evenodd" d="M54.0422 111.604C53.8852 111.899 53.8115 112.231 53.8286 112.565C53.8638 113.045 54.007 113.668 55.4478 115.075C56.6763 116.302 56.4088 117.673 56.4088 117.673C56.4088 117.673 57.0272 117.797 58.7051 117.012C60.0227 116.389 60.4651 117.493 60.4651 117.493C60.8486 117.292 61.2644 117.159 61.6936 117.101C62.0824 117.065 62.4588 116.945 62.7965 116.749C62.7965 116.749 64.3453 118.333 65.6981 119.081C66.9266 119.74 67.6387 120.185 68.2443 119.74C68.8133 119.348 68.8133 118.547 68.7768 118.191C68.6357 117.863 68.4569 117.552 68.2443 117.265C67.8523 116.696 67.2293 116.037 67.1883 115.505C67.099 114.278 68.1139 112.817 67.8992 112.462C67.6845 112.106 66.8856 112.017 64.9096 112.729C62.8632 113.405 54.0339 111.607 54.0339 111.607L54.0422 111.604Z" fill="#39331F"/>
<path fill-rule="evenodd" clip-rule="evenodd" d="M58.6988 119.56C58.6988 119.56 57.6849 118.599 58.0404 113.935C58.4709 113.929 58.9006 113.971 59.3217 114.059C59.3217 114.059 59.8745 117.673 58.6988 119.56Z" fill="#292311"/>
<path fill-rule="evenodd" clip-rule="evenodd" d="M51.4778 100.123C51.6194 100.018 51.7504 99.9002 51.8698 99.7705C51.5178 100.429 49.8927 103.063 51.2103 107.211C52.528 111.34 55.838 114.419 59.9141 114.562C63.9903 114.705 66.1328 112.71 68.5827 109.72C69.5437 108.528 70.6477 107.032 71.6263 106.019C73.086 104.433 74.2253 103.989 74.2253 102.459C74.2253 99.326 71.021 97.9191 66.3042 96.5134C61.5874 95.1078 57.3328 95.2814 55.1258 96.2436C52.9727 97.2926 52.048 98.3954 51.4778 100.123Z" fill="#252211"/>
<path fill-rule="evenodd" clip-rule="evenodd" d="M66.6265 120.966L66.9785 120.788C66.9785 120.788 67.0665 119.38 67.6369 119.417C68.2059 119.507 68.4734 120.255 68.4193 120.521C68.3841 120.788 68.2422 121.234 67.6721 121.18C66.9246 121.197 66.623 120.966 66.623 120.966H66.6265Z" fill="#3F3824"/>
<path fill-rule="evenodd" clip-rule="evenodd" d="M65.041 114.986C65.041 114.986 65.393 114.861 65.8237 115.288C66.1757 115.288 67.7103 115.11 68.1914 115.413C68.6725 115.715 68.8146 115.982 68.8146 115.982C68.8146 115.982 67.017 116.374 66.0372 115.982C65.041 115.644 65.041 114.986 65.041 114.986Z" fill="#2D2815"/>
<path fill-rule="evenodd" clip-rule="evenodd" d="M72.9598 115.252C72.9598 115.163 71.9988 114.504 70.9838 114.29C70.8054 114.255 70.7691 114.379 70.6318 114.379C70.5427 114.344 70.5075 114.076 70.5075 114.076L69.9302 114.38C69.9302 114.38 69.8411 114.504 70.1438 114.732C70.4102 114.946 70.856 115.124 70.9803 115.479C71.1046 115.835 71.1046 115.959 71.1587 116.013C71.1939 116.048 71.8169 116.013 72.1196 115.835C72.4224 115.657 72.9926 115.366 72.9563 115.248L72.9598 115.252Z" fill="#82764F"/>
<path fill-rule="evenodd" clip-rule="evenodd" d="M63.9727 118.866C63.9727 118.866 64.1498 117.639 65.3431 117.585C66.5703 117.496 66.8026 118.688 66.8026 118.688L66.0905 119.4C66.0905 119.382 65.5567 118.635 63.9785 118.866H63.9727Z" fill="#2D2816"/>
<path fill-rule="evenodd" clip-rule="evenodd" d="M71.7177 113.579C71.7177 113.579 71.0582 114.291 69.5998 114.504C69.4753 114.326 69.2079 113.971 69.5998 113.402C69.9916 112.832 70.4364 112.654 70.881 112.831C71.2817 112.896 71.6081 113.188 71.7177 113.579Z" fill="#574F35"/>
<path fill-rule="evenodd" clip-rule="evenodd" d="M74.401 114.452C74.4375 114.273 74.313 114.238 74.401 114.149C74.489 114.06 74.9714 113.883 75.0605 113.971C75.0957 114.007 75.0605 114.149 75.0605 114.323C75.0605 114.496 75.0605 114.675 74.9714 114.802C74.8469 114.981 74.4914 115.07 74.313 115.017C74.1348 114.964 74.0996 114.714 74.0996 114.665C74.1876 114.63 74.401 114.541 74.401 114.452ZM77.4399 112.53C77.4399 112.441 77.7428 112.262 77.921 112.262C78.1874 112.262 78.1874 112.476 78.2239 112.53C78.3119 112.565 78.3119 112.493 78.401 112.654C78.4901 112.815 78.6157 113.099 78.5253 113.277C78.4351 113.456 78.0807 113.579 77.9927 113.544C77.8682 113.454 77.4764 112.654 77.4399 112.53Z" fill="#82764F"/>
<path fill-rule="evenodd" clip-rule="evenodd" d="M71.3203 114.861C71.3203 114.861 71.7121 114.949 72.246 115.395C72.0678 115.519 71.8001 115.661 71.8001 115.661C71.8001 115.661 71.7649 115.253 71.3203 114.861Z" fill="#6E6342"/>
<path fill-rule="evenodd" clip-rule="evenodd" d="M70.4535 110.945C70.3644 110.857 70.7199 110.643 70.9335 110.678C71.1469 110.714 71.2361 110.857 71.4673 110.892C71.6983 110.927 71.7348 110.803 71.8193 110.714C71.9037 110.624 72.2111 110.678 72.2639 110.714C72.2969 110.753 72.3266 110.794 72.3532 110.838C72.3607 110.701 72.4249 110.574 72.5303 110.486C72.6685 110.384 72.8458 110.352 73.0114 110.397C73.0466 110.521 73.225 110.966 73.1898 111.055C73.1546 111.144 72.6207 111.27 72.5303 111.179C72.6194 111.394 73.0114 111.839 73.0642 111.927C73.117 112.015 72.6722 112.229 72.4951 112.194C72.2463 112.177 70.7151 111.286 70.4487 110.948L70.4535 110.945ZM72.7849 107.99C72.7519 107.901 72.6889 107.825 72.6066 107.777C72.4823 107.741 72.0727 107.777 72.0727 107.99C72.0727 108.204 72.4247 109.398 72.8201 110.02C73.266 110.643 73.5676 111.158 73.8703 111.301C74.0674 111.391 74.3006 111.313 74.4042 111.123C74.4394 111.034 74.5285 110.376 74.4933 108.827C74.4581 107.278 74.4041 105.783 74.3149 105.694C74.2258 105.605 73.8703 105.606 73.7458 105.783C73.6215 105.96 72.8214 107.724 72.7849 107.99Z" fill="#585136"/>
<path fill-rule="evenodd" clip-rule="evenodd" d="M71.2003 117.104C71.2003 117.104 70.5773 116.712 69.9718 116.979C69.4027 117.247 69.4379 118.297 69.4379 118.297C69.6979 118.399 69.9912 118.365 70.2217 118.208C70.6136 117.941 71.1112 117.496 71.2003 117.104Z" fill="#574F35"/>
<path fill-rule="evenodd" clip-rule="evenodd" d="M72.3754 118.51C72.3402 118.158 72.0234 118.158 72.0234 117.977C72.0684 117.798 72.2297 117.673 72.4143 117.674C72.5925 117.674 72.7663 117.887 72.9845 118.026C73.1981 118.15 73.5183 118.378 73.5535 118.649C73.5887 118.92 73.2015 119.662 72.7709 119.662C72.3402 119.662 72.4682 118.861 72.3791 118.506L72.3754 118.51ZM75.8111 118.029C75.8111 118.029 75.0989 118.243 75.1517 118.029C75.2045 117.816 75.3663 117.763 75.5975 117.763C75.7148 117.64 75.8729 117.564 76.0421 117.548C76.1391 117.544 76.2341 117.575 76.3085 117.637C76.3085 117.637 76.7896 117.424 76.9316 117.548C77.0735 117.673 76.9679 117.673 77.0559 117.816C77.168 117.975 77.2415 118.157 77.2706 118.35C77.2706 118.492 76.7368 118.794 76.3085 118.741C75.8111 118.635 75.8991 118.118 75.8111 118.029ZM79.9575 117.228C79.9575 117.228 80.1711 117.352 79.994 117.495C79.8696 117.62 79.2466 117.847 78.7114 117.887C78.1776 117.887 77.6978 117.975 77.6978 117.798C77.6978 117.621 78.1424 117.264 78.4088 117.175C78.5169 117.04 78.6812 116.961 78.8546 116.962C79.0682 116.962 79.9037 116.872 80.1359 116.837C80.3495 116.801 80.5279 116.925 80.4023 117.104C80.3495 117.228 79.9575 117.228 79.9575 117.228ZM81.1861 111.732C81.1861 111.732 80.9186 112.301 80.617 112.301C80.3143 112.266 80.3143 112.177 80.3143 112.088C80.3143 111.963 80.617 111.643 80.5807 111.554C80.4927 111.554 80.2778 111.554 80.3143 111.34C80.3143 111.162 80.617 110.948 80.8834 110.988C81.0847 110.823 81.3351 110.729 81.5956 110.722C81.8983 110.722 82.1647 110.81 82.1647 110.988C82.1647 111.166 81.8127 111.557 81.6836 111.648C81.5416 111.789 81.3632 111.882 81.1861 111.736V111.732ZM77.1274 122.251C77.1274 122.251 76.7754 122.287 76.7754 122.465C76.7754 122.554 76.8634 122.554 76.989 122.501C77.0614 122.497 77.1329 122.485 77.2026 122.465C77.2378 122.501 77.2378 122.678 77.5053 122.678C77.7249 122.648 77.9367 122.576 78.1284 122.465C78.3418 122.377 78.5202 122.286 78.5202 122.113C78.4311 121.81 78.2527 121.667 77.9864 121.667C77.85 121.658 77.7137 121.689 77.5946 121.756C77.5946 121.756 77.5053 121.577 77.2026 121.756C76.8999 121.934 76.9351 121.934 77.0242 122.023C77.1839 122.165 77.1311 122.258 77.1311 122.258L77.1274 122.251ZM75.1165 124.102C75.1165 124.013 75.561 123.835 75.6855 123.889C75.8098 123.924 76.1653 124.6 76.1653 124.672C76.1653 124.761 75.7207 124.974 75.5423 124.974C75.364 124.974 75.0624 124.672 75.0624 124.622C75.0624 124.587 75.2759 124.534 75.2759 124.498C75.3287 124.41 75.1165 124.195 75.1165 124.106V124.102ZM73.7085 121.504C73.7976 121.468 73.7976 121.379 73.922 121.29C74.0009 121.237 74.0997 121.224 74.1895 121.255C74.253 121.141 74.3642 121.063 74.4922 121.04C74.7058 121.005 74.8842 121.04 74.8442 121.129C74.8442 121.397 75.0226 121.574 75.0226 121.787C75.0226 122.001 74.8981 122.269 74.4535 122.447C74.0088 122.571 73.4034 122.571 73.3141 122.536C73.225 122.501 73.1359 122.144 73.225 121.966C73.3141 121.787 73.5629 121.593 73.7061 121.504H73.7085Z" fill="#82764F"/>
<path fill-rule="evenodd" clip-rule="evenodd" d="M74.274 121.625C74.274 121.625 73.9713 121.803 73.9713 121.892C73.9446 121.978 73.9327 122.068 73.9361 122.158C73.9361 122.211 74.3281 122.123 74.3809 122.069C74.3985 122.034 74.274 121.717 74.274 121.625Z" fill="#6E6342"/>
<path fill-rule="evenodd" clip-rule="evenodd" d="M71.6274 120.788C71.8045 120.824 72.1072 120.788 72.3384 120.877C72.5168 120.966 72.6411 121.145 72.4629 121.358C72.2845 121.572 72.1109 121.892 71.7154 121.838C71.2707 121.803 70.8437 121.572 70.8437 121.393C70.8285 121.165 70.9055 120.941 71.0571 120.77C71.2355 120.628 71.3248 120.718 71.6274 120.788Z" fill="#585136"/>
<path fill-rule="evenodd" clip-rule="evenodd" d="M71.4103 120.966C71.4103 120.966 70.8412 121.411 70.698 121.625C70.5198 121.839 69.6479 122.942 69.3817 123.173C69.4701 123.017 69.5709 122.868 69.6831 122.728C69.3311 122.953 69.0673 123.293 68.9358 123.689C68.7222 124.349 70.129 124.704 71.0537 124.972C71.9782 125.239 72.3361 125.324 72.3361 125.324C71.9957 124.812 71.7034 124.27 71.4631 123.704C71.1111 122.868 70.9292 122.779 71.1604 122.387C71.3388 121.995 71.6063 121.728 71.6063 121.426C71.4996 121.144 71.4103 120.966 71.4103 120.966Z" fill="#574F35"/>
<path fill-rule="evenodd" clip-rule="evenodd" d="M51.1215 122.373C51.2511 122.397 51.3839 122.397 51.5135 122.373C51.7797 122.337 54.557 121.317 57.4586 121.5C59.6309 121.631 61.784 121.985 63.8839 122.556C67.533 123.517 72.0714 125.421 75.0082 126.508C75.7909 126.809 76.557 127.344 77.1202 127.557C79.3637 128.43 79.4517 128.43 80.7693 128.661C82.3181 128.874 83.9021 128.358 85.5578 128.003C87.5863 127.557 91.057 127.343 94.1007 126.899C95.0849 126.762 96.0556 126.542 97.0023 126.24C97.0023 126.24 94.5818 128.661 88.7786 129.533C86.4328 129.889 84.0491 129.919 81.6951 129.622C79.8436 129.443 78.6162 129.176 77.6906 128.91C76.6404 128.607 74.4861 127.806 71.8343 127.15C69.9829 126.669 67.9178 126.313 65.5511 125.868C59.7127 124.799 53.3767 123.572 51.1191 122.38L51.1215 122.373Z" fill="#252211"/>
<path fill-rule="evenodd" clip-rule="evenodd" d="M44.5662 111.373C43.1582 112.565 41.6646 113.704 40.2061 114.807L35.8096 118.185C34.3149 119.288 32.8552 120.428 31.3592 121.532C29.8632 122.636 28.3696 123.685 26.7832 124.7C28.1912 123.508 29.6848 122.403 31.1797 121.318C32.6744 120.233 34.2245 119.169 35.6664 118.068L40.063 114.685C41.5755 113.582 43.035 112.443 44.5662 111.375V111.373ZM36.7883 123.833C36.7883 123.833 38.3723 122.515 40.348 120.665C42.804 118.37 45.8123 115.431 46.7733 114.899L36.7883 123.833Z" fill="#CFB66C"/>
<path fill-rule="evenodd" clip-rule="evenodd" d="M36.7891 123.831C37.5728 123.048 38.4094 122.284 39.2459 121.535L40.5272 120.432C40.9192 120.08 41.3651 119.685 41.7557 119.293C42.5384 118.51 43.3045 117.672 44.0872 116.872C44.4751 116.47 44.8852 116.089 45.3157 115.733C45.5308 115.542 45.7698 115.381 46.0267 115.252C46.2414 115.127 46.4725 114.9 46.7741 114.86C46.5968 115.127 46.3834 115.252 46.2051 115.483C45.9915 115.661 45.8131 115.875 45.636 116.052C45.244 116.444 44.7994 116.799 44.4075 117.156C43.5709 117.868 42.6992 118.564 41.8624 119.309C41.0259 120.054 40.2432 120.858 39.4056 121.605C38.4986 122.372 37.6619 123.119 36.7891 123.835V123.831ZM47.4336 116.711C47.4336 116.711 41.6314 122.39 40.4381 123.315L47.4336 116.711Z" fill="#CFB66C"/>
<path fill-rule="evenodd" clip-rule="evenodd" d="M47.4369 116.712C46.9149 117.316 46.3554 117.887 45.7614 118.42L44.0014 120.093C43.4323 120.663 42.8973 121.233 42.2931 121.802C41.6699 122.336 41.1009 122.858 40.4414 123.351L42.1499 121.678C42.7201 121.108 43.3432 120.628 43.9486 120.058L45.6569 118.385C46.2435 117.798 46.8139 117.228 47.4369 116.712ZM47.7032 119.791C47.1685 121.283 46.5382 122.74 45.8166 124.152C44.3217 127.143 42.0795 130.88 41.0998 132.785L47.7032 119.791Z" fill="#CFB66C"/>
<path fill-rule="evenodd" clip-rule="evenodd" d="M47.6992 119.792C47.6992 120.45 47.5208 121.02 47.3072 121.589C47.0991 122.159 46.8617 122.717 46.5962 123.262C46.3287 123.796 46.0259 124.366 45.7232 124.883C45.4205 125.399 45.065 125.932 44.7975 126.467L43 129.635C42.3768 130.691 41.7714 131.753 41.1133 132.767C41.5579 131.628 42.1634 130.56 42.7336 129.51C43.3565 128.454 43.9256 127.398 44.4936 126.306C44.7708 125.762 45.0203 125.203 45.241 124.634C45.5074 124.064 45.7736 123.53 45.9885 123.014C46.2547 122.445 46.4683 121.909 46.7358 121.394C47.0373 120.842 47.2872 120.308 47.6968 119.792H47.6992Z" fill="#CFB66C"/>
<path fill-rule="evenodd" clip-rule="evenodd" d="M54.0397 134.387C54.0397 134.387 52.2797 136.718 52.4557 139.673C52.9357 138.125 53.5411 135.757 54.0397 134.387ZM55.713 136.724C55.713 136.724 55.0899 143.06 54.5736 146.175C55.3034 142.574 55.4453 142.877 55.713 136.724ZM67.3712 146.549C67.3712 146.549 64.737 154.293 64.6831 156.445C65.2533 154.232 66.3562 149.712 67.3712 146.544V146.549Z" fill="#DEC270"/>
<path fill-rule="evenodd" clip-rule="evenodd" d="M73.5273 133.908C73.5273 133.908 77.7996 140.956 81.0039 146.972C80.1369 143.945 78.1422 138.393 73.5273 133.908Z" fill="#CBAF59"/>
<path fill-rule="evenodd" clip-rule="evenodd" d="M85.0137 144.284C87.3592 148.43 89.4745 152.702 91.3497 157.081C90.9942 154.055 90.0321 148.876 85.0137 144.284Z" fill="#E3C677"/>
<path fill-rule="evenodd" clip-rule="evenodd" d="M118.756 154.676C119.467 154.232 120.874 151.81 122.102 151.206C123.33 150.583 124.256 150.458 125.36 149.23C126.463 147.947 126.768 147.165 129.186 146.151C132.569 144.69 130.242 142.803 130.242 142.803C130.615 142.437 131.013 142.099 131.434 141.79C132.307 141.131 133.321 140.33 133.233 138.923C133.108 136.557 132.664 133.121 130.723 131.128C132.61 130.736 136.222 130.469 138.467 129.9C141.065 129.241 142.258 128.315 142.258 128.315C142.258 128.315 140.763 125.77 143.184 123.208C145.604 120.645 147.58 119.114 149.04 116.247C147.367 116.034 144.816 115.144 138.306 117.618C138.658 117.783 138.997 117.973 139.321 118.187C139.321 118.187 135.317 119.291 133.857 120.52C131.311 122.673 130.99 124.435 128.232 125.753C125.474 127.07 122.696 126.714 120.401 127.781C118.106 128.849 117.767 129.757 116.929 130.149C117.108 130.363 116.894 130.718 117.232 131.021C117.018 131.324 115.772 133.352 114.509 133.352C114.633 133.833 115.701 134.189 115.701 134.189C115.701 134.189 114.918 134.759 112.925 134.901C113.938 135.957 114.901 137.108 117.552 138.781C117.339 139.226 116.448 139.885 116.805 140.722C117.197 141.559 118.213 142.698 122.269 143.624C120.204 143.712 117.785 144.193 114.525 143.748C111.268 143.356 110.734 143.125 108.723 143.624C108.937 143.837 109.506 143.837 110.004 144.406C109.47 144.441 106.124 144.014 104.985 145.51C103.793 147.058 103.276 149.604 103.366 151.312C102.742 151.615 102.137 152.149 102.44 153.253C102.742 154.357 104.326 154.713 105.341 155.406C106.355 156.154 106.444 156.42 107.406 156.243C108.42 156.029 109.915 155.016 110.788 155.016C111.661 155.016 112.283 155.674 112.283 155.674C112.283 155.674 114.651 154.535 114.882 154.748C115.095 154.962 114.917 156.332 115.148 156.546C115.383 156.706 118.05 155.122 118.762 154.676H118.756Z" fill="#ECD592"/>
</g>
<defs>
<clipPath id="clip0_4_2589">
<rect width="220" height="220" fill="white" transform="translate(0 0.5)"/>
</clipPath>
</defs>
</svg>
