<svg width="220" height="221" viewBox="0 0 220 221" fill="none" xmlns="http://www.w3.org/2000/svg">
<g clip-path="url(#clip0_4_2713)">
<path d="M110 220.5C170.751 220.5 220 171.251 220 110.5C220 49.7487 170.751 0.5 110 0.5C49.2487 0.5 0 49.7487 0 110.5C0 171.251 49.2487 220.5 110 220.5Z" fill="#EDF0F4"/>
<path d="M97.1541 80.2394C94.7473 80.1618 92.4181 80.783 90.3218 82.0252C86.9056 84.1215 82.7907 87.3047 79.0641 91.9632C69.2814 104.23 69.359 118.128 69.5142 122.32C69.6695 125.581 71.0671 143.439 86.2069 156.327C98.0083 166.342 111.052 167.429 115.322 167.585C118.428 167.74 134.654 168.051 148.319 155.55C162.527 142.584 163.226 125.504 163.304 122.553C163.459 120.069 163.537 116.808 162.915 113.004C162.372 109.587 161.44 106.715 160.586 104.463C158.257 103.221 154.918 101.202 151.658 97.8637C148.241 94.37 146.223 90.7984 145.058 88.3139C144.825 87.3047 144.437 85.9071 143.505 84.432C141.953 81.9475 139.934 80.7052 138.847 80.1618C140.866 79.8513 145.291 79.5407 150.105 81.7147C152.667 82.8792 154.53 84.432 155.773 85.5966C156.005 84.9754 156.394 83.6556 156.161 82.1028C155.928 80.2394 155.074 78.9195 154.608 78.376C156.161 79.1524 161.596 82.0252 164.313 88.4692C166.099 92.8171 165.943 96.6992 165.711 98.5624C167.574 101.435 169.903 105.705 171.534 111.218C173.086 116.342 173.475 120.923 173.475 124.261C173.63 128.066 174.173 148.718 158.335 165.488C139.313 185.597 112.993 182.725 110.198 182.336C111.828 183.268 113.925 184.2 116.409 184.899C122.62 186.607 127.977 185.674 131.005 184.899C124.406 186.761 111.906 189.168 97.7753 184.822C65.244 174.728 56.0825 138.392 55.4614 135.985C56.0048 140.1 56.8589 144.526 58.0235 149.184C59.8093 156.715 62.1384 163.314 64.4676 168.982C60.7408 164.945 55.7719 158.501 51.8123 149.572C47.1538 139.091 46.0668 129.774 45.834 123.873C45.9115 117.429 46.921 106.171 52.8216 93.9817C61.2067 76.5903 74.5609 67.5841 80.3839 64.0903C79.918 64.0903 79.2969 63.935 78.5982 63.6244C77.2007 63.0033 76.4243 61.994 76.1137 61.5282C78.2877 61.2176 81.005 60.5965 84.033 59.4318C87.0609 58.2672 89.4679 56.8697 91.2535 55.7052C86.4398 53.764 80.9273 51.2797 75.1044 47.8634C69.5142 44.6025 64.7006 41.1864 60.8186 38.0808L68.4273 42.1957L62.6042 37.1491C67.5733 40.4876 73.8622 44.0591 81.3931 47.1648C86.595 49.3385 91.4864 50.8914 95.8343 52.0561C93.4275 50.7361 90.5547 48.8727 87.682 46.3106C82.8684 42.1181 79.7628 37.6149 77.8994 34.2764C79.918 36.0621 82.0143 37.7702 84.033 39.5559L78.7535 33.5C83.1013 37.7702 89.2349 42.8946 97.3094 47.32C101.89 49.8044 106.238 51.6678 110.042 53.0653C113.381 53.6087 116.642 54.1523 119.98 54.6957C120.99 54.851 122.775 55.3168 124.483 56.7144C125.182 57.258 125.726 57.8791 126.114 58.3448C126.58 58.9659 127.201 59.6648 127.9 60.3635C129.064 61.5282 130.151 62.4599 131.238 63.1586L146.922 62.9256C147.931 62.9256 148.63 63.8573 148.397 64.789C147.62 67.8946 145.99 72.3201 142.03 75.8139C141.099 76.668 140.089 77.3667 139.157 77.9101C139.779 77.0562 140.633 75.8139 141.176 74.1058C141.564 72.8635 141.797 71.7767 141.875 70.9226C141.254 71.5437 140.555 72.2426 139.546 72.8635C138.071 73.8729 136.595 74.4163 135.586 74.7269C136.13 74.0282 136.673 73.0965 137.216 72.0873C137.76 71.0778 138.148 70.0686 138.459 69.2144C137.372 69.2922 135.819 69.4475 133.956 70.2239C131.937 71.0003 130.539 72.0873 129.685 72.8635C129.685 72.1648 129.841 71.3109 130.151 70.3014C130.384 69.6027 130.695 68.9816 130.928 68.5157C130.462 68.2052 129.996 67.9722 129.453 67.6616C127.512 66.8076 125.726 66.8076 124.561 66.8854C123.397 66.8854 120.291 67.1182 117.263 69.2922C116.176 70.0686 115.322 70.9226 114.623 71.7767C113.148 73.6399 113.226 76.3575 114.856 78.1431V78.2207C115.555 78.9196 116.331 79.463 117.03 79.7735C119.437 80.9382 122.232 80.7052 124.561 79.463C124.639 79.3854 124.716 79.3854 124.794 79.3077C125.726 78.7643 126.425 78.1431 126.89 77.5995C126.968 78.1431 127.046 79.2301 126.657 80.5499C126.347 81.6369 125.803 82.4133 125.415 82.8015C126.347 82.9567 127.434 83.0345 128.676 83.0345C130.85 82.9567 132.558 82.4133 133.723 81.9475C132.946 83.6556 131.238 86.9941 127.589 89.7892C124.794 91.9632 121.999 92.9724 120.291 93.3605C120.912 92.4288 121.611 91.109 122.077 89.4009C122.232 88.9351 122.31 88.4692 122.387 88.0811C122.62 86.9166 122.154 85.7518 121.223 84.9754C120.136 84.0437 118.971 83.9662 118.583 83.8884H112.139C109.887 83.8884 107.713 84.199 105.539 84.8201C104.375 85.1307 103.132 85.4413 101.813 85.6743C98.5517 86.2954 95.6013 86.606 93.1169 86.6835C94.9026 86.373 98.0083 85.5966 100.958 83.2673C102.045 82.4133 102.9 81.4816 103.521 80.7052L97.1541 80.2394Z" fill="#EFB13B"/>
</g>
<defs>
<clipPath id="clip0_4_2713">
<rect width="220" height="220" fill="white" transform="translate(0 0.5)"/>
</clipPath>
</defs>
</svg>
