<svg width="220" height="221" viewBox="0 0 220 221" fill="none" xmlns="http://www.w3.org/2000/svg">
<g clip-path="url(#clip0_4_2716)">
<path d="M110 220.5C170.751 220.5 220 171.251 220 110.5C220 49.7487 170.751 0.5 110 0.5C49.2487 0.5 0 49.7487 0 110.5C0 171.251 49.2487 220.5 110 220.5Z" fill="#EDF0F4"/>
<path fill-rule="evenodd" clip-rule="evenodd" d="M77.0266 50.3995C76.8147 50.7418 77.8799 51.1063 79.7893 51.345C87.1261 52.2616 96.5958 55.8808 103.725 60.4931C108.394 63.5128 115.405 70.1238 119.025 74.9194C122.649 79.7198 126.759 88.212 128.488 94.4745C130.255 100.869 130.902 112.698 129.846 119.289C126.072 142.842 108.223 162.223 85.411 167.536C75.516 169.842 75.9576 169.643 79.6287 170.135C83.9106 170.708 93.2826 169.662 99.309 167.939C119.73 162.101 135.525 146.06 141.092 125.504C142.384 120.733 143.334 119.292 143.355 110.197C143.376 100.861 142.459 99.7919 141.062 94.7456C135.105 73.2287 118.774 57.2998 96.7564 51.5321C92.0405 50.297 77.6023 49.4682 77.0266 50.3995Z" fill="#372687"/>
</g>
<defs>
<clipPath id="clip0_4_2716">
<rect width="220" height="220" fill="white" transform="translate(0 0.5)"/>
</clipPath>
</defs>
</svg>
