<svg width="220" height="221" viewBox="0 0 220 221" fill="none" xmlns="http://www.w3.org/2000/svg">
<g clip-path="url(#clip0_4_2719)">
<path d="M110 220.5C170.751 220.5 220 171.251 220 110.5C220 49.7487 170.751 0.5 110 0.5C49.2487 0.5 0 49.7487 0 110.5C0 171.251 49.2487 220.5 110 220.5Z" fill="#49158C"/>
<path d="M177.833 86.6665L118.249 179.25H97.166L155.833 86.6665H177.833Z" fill="white"/>
<path d="M84.334 40.8335L102.667 179.25H81.584L62.334 40.8335H84.334Z" fill="white"/>
<path d="M79.75 40.8333H100.421L177.854 86.9245L175.979 90.0753L99.4125 44.4999H79.75V40.8333Z" fill="white"/>
<path d="M101.734 42.4019L119.15 161.569L115.522 162.099L98.1055 42.9321L101.734 42.4019Z" fill="white"/>
<path d="M81.5928 50.2505L140.748 84.8332H173.251V88.4999H139.754L79.7422 53.4159L81.5928 50.2505Z" fill="white"/>
<path d="M138.703 85.6785L141.792 87.655L97.7916 156.405L94.7031 154.428L138.703 85.6785Z" fill="white"/>
</g>
<defs>
<clipPath id="clip0_4_2719">
<rect width="220" height="220" fill="white" transform="translate(0 0.5)"/>
</clipPath>
</defs>
</svg>
