<svg width="220" height="221" viewBox="0 0 220 221" fill="none" xmlns="http://www.w3.org/2000/svg">
<g clip-path="url(#clip0_4_2727)">
<path d="M110 220.5C170.751 220.5 220 171.251 220 110.5C220 49.7487 170.751 0.5 110 0.5C49.2487 0.5 0 49.7487 0 110.5C0 171.251 49.2487 220.5 110 220.5Z" fill="#1693D4"/>
<path fill-rule="evenodd" clip-rule="evenodd" d="M68.502 114.446C68.3238 111.975 68.3122 109.494 68.4675 107.021H49.1007L27.5 89.8476H72.4168C80.9978 69.0413 101.392 55.4652 124.015 55.5001C154.753 55.5001 179.667 80.1263 179.667 110.5C179.667 140.874 154.753 165.5 124.015 165.5C101.578 165.533 81.3124 152.177 72.6105 131.62H27.5L49.1007 114.446H68.502ZM155.714 111.524C155.714 105.818 154.94 100.841 153.383 96.5919C151.827 92.3431 149.669 88.7819 146.916 85.9356C144.156 83.0826 140.892 80.9308 137.108 79.487C133.325 78.0433 129.223 77.3145 124.776 77.3145C119.976 77.3145 115.508 78.1258 111.372 79.7483C107.235 81.3708 103.659 83.6533 100.637 86.5888C97.6142 89.5313 95.2419 93.0788 93.5057 97.2451C91.7697 101.411 90.9051 106.045 90.9051 111.133C90.9051 116.303 91.7697 120.929 93.5057 125.006C95.2349 129.083 97.6351 132.527 100.699 135.332C103.77 138.144 107.394 140.31 111.572 141.85C115.977 143.424 120.628 144.204 125.309 144.153C137.309 144.153 146.474 139.939 152.782 131.517L142.109 123.102C140.332 125.646 138.07 127.639 135.31 129.083C132.557 130.527 129.175 131.256 125.177 131.256C122.867 131.256 120.64 130.864 118.509 130.073C116.379 129.282 114.463 128.21 112.769 126.849C109.329 124.127 107.2 120.092 106.903 115.732H155.583C155.673 115.031 155.714 114.329 155.714 113.628V111.524ZM106.903 104.416H139.709C139.719 102.454 139.428 100.501 138.845 98.6269C138.264 96.7844 137.357 95.1618 136.112 93.7593C134.867 92.3568 133.284 91.2431 131.374 90.4044C129.465 89.5656 127.218 89.1531 124.645 89.1531C119.837 89.1531 115.777 90.5831 112.437 93.4294C109.103 96.2826 107.263 99.9468 106.903 104.416Z" fill="white"/>
</g>
<defs>
<clipPath id="clip0_4_2727">
<rect width="220" height="220" fill="white" transform="translate(0 0.5)"/>
</clipPath>
</defs>
</svg>
