<svg width="220" height="221" viewBox="0 0 220 221" fill="none" xmlns="http://www.w3.org/2000/svg">
<g clip-path="url(#clip0_4_2730)">
<path d="M110 220.5C170.751 220.5 220 171.251 220 110.5C220 49.7487 170.751 0.5 110 0.5C49.2487 0.5 0 49.7487 0 110.5C0 171.251 49.2487 220.5 110 220.5Z" fill="#2B1544"/>
<path fill-rule="evenodd" clip-rule="evenodd" d="M172.324 133.113V87.3326C172.324 84.5952 171.681 81.8647 170.568 79.3886C168.806 75.4612 166.094 71.7815 162.399 69.5806C154.994 65.2004 147.581 60.8398 140.168 56.4789L140.166 56.4778C133.705 52.6767 127.243 48.8753 120.786 45.0605C119.208 44.1251 117.418 43.6025 115.663 43.1071C111.717 42.3439 107.646 42.5754 103.811 43.7812C102.193 44.3407 100.717 45.2295 99.2427 46.1176C98.6509 46.474 98.0593 46.8302 97.4587 47.1652C84.7262 54.6622 71.9867 62.1593 59.2475 69.6286C57.5802 70.6573 56.1033 71.97 54.8827 73.508C51.8703 77.1464 49.7528 81.7065 49.5 86.5212V135.946C49.5 139.255 50.5998 142.432 52.1026 145.321C53.94 148.65 56.4401 151.745 59.787 153.623C67.0723 157.898 74.3595 162.18 81.6475 166.463L81.6594 166.47L81.6814 166.483C88.0898 170.249 94.499 174.016 100.908 177.778C102.933 178.921 105.161 179.655 107.466 179.938C111.878 180.488 116.578 180.124 120.553 177.985C125.45 175.108 130.342 172.23 135.234 169.353C143.347 164.581 151.458 159.81 159.584 155.047C159.947 154.831 160.313 154.619 160.679 154.408C162.249 153.503 163.817 152.598 165.124 151.332C168.55 148.072 170.933 143.858 171.968 139.227C172.355 137.535 172.342 135.788 172.328 134.058C172.326 133.743 172.324 133.426 172.324 133.113ZM100.348 82.4081C104.158 78.7537 107.563 74.6951 110.505 70.3028C110.945 70.4524 111.298 70.7858 111.475 71.2176C113.948 75.8534 117.425 79.8563 121.045 83.6049C123.395 85.9158 125.13 88.9421 125.717 92.2435C126.489 95.9164 124.344 99.9813 120.895 101.309C118.361 102.292 115.43 102.113 113.005 100.917C112.913 100.885 112.808 100.837 112.698 100.787C112.257 100.588 111.721 100.345 111.503 100.862C111.918 103.746 113.284 106.307 114.621 108.813C114.757 109.068 114.893 109.322 115.027 109.576C115.315 110.052 114.938 110.414 114.603 110.737C114.517 110.82 114.433 110.9 114.365 110.979C113.77 111.534 113.212 112.131 112.652 112.728C111.796 113.642 110.939 114.557 109.952 115.326C109.582 115.207 109.305 114.913 109.04 114.632C108.952 114.539 108.865 114.447 108.777 114.363C108.126 113.672 107.456 112.993 106.785 112.312C106.014 111.529 105.24 110.743 104.488 109.934L104.419 109.466C104.734 108.897 105.066 108.331 105.399 107.762C106.712 105.519 108.046 103.242 108.449 100.642C107.946 100.568 107.432 100.639 106.967 100.848C104.385 101.866 101.448 102.1 98.8521 101.054C96.2975 100.064 94.3301 97.6152 94.0227 94.8366C93.7633 92.7732 94.378 90.7235 95.2934 88.9215C96.4341 86.3697 98.3534 84.3133 100.348 82.4081ZM85.6893 115.078C81.5909 117.321 78.8517 121.716 78.1755 126.386C77.2396 132.941 81.0443 139.791 86.9392 142.474C90.6688 144.09 94.9995 144.056 98.7565 142.577C100.696 141.793 102.356 140.513 103.784 139.007C103.897 138.886 104.02 138.768 104.145 138.649C104.618 138.197 105.109 137.728 105.109 137.026C105.059 136.37 104.613 135.933 104.177 135.505C104.023 135.353 103.87 135.203 103.736 135.045C103.488 134.823 103.258 134.577 103.029 134.33C102.639 133.912 102.25 133.494 101.769 133.195C100.827 132.779 100.173 133.477 99.5628 134.13C99.3767 134.329 99.1943 134.523 99.0092 134.681C95.9013 137.858 90.3069 137.886 87.1237 134.784C85.0408 132.811 84.0723 129.921 84.5418 127.081C84.9242 124.446 86.4816 121.95 88.8041 120.698C90.3069 119.941 91.9941 119.528 93.6538 119.604C95.9968 119.755 98.1416 121.007 99.7264 122.727C102.576 125.582 105.369 128.492 108.162 131.403C110.671 134.017 113.18 136.632 115.731 139.207C118.586 142.047 122.541 143.87 126.571 143.712C129.645 143.78 132.603 142.542 135.103 140.795C138.785 138.216 141.025 133.738 141.25 129.213C141.742 122.046 136.585 114.817 129.638 113.435C125.205 112.527 120.198 113.462 116.783 116.64C115.447 117.864 114.177 119.172 112.904 120.481C111.861 121.555 110.817 122.63 109.733 123.662C108.43 122.582 107.271 121.351 106.112 120.121C105.065 119.01 104.019 117.9 102.869 116.901C101.833 115.912 100.63 115.118 99.3166 114.556C99.2684 114.525 99.2266 114.497 99.1881 114.471C99.0293 114.366 98.9245 114.296 98.6608 114.191C94.4438 112.387 89.6251 112.717 85.6893 115.078ZM126.858 119.707C124.365 119.501 121.865 120.54 120.096 122.314C119.15 123.305 118.193 124.274 117.237 125.244C116.281 126.214 115.324 127.184 114.378 128.174C114.393 128.244 114.408 128.359 114.422 128.474C114.435 128.575 114.448 128.675 114.46 128.745C115.421 129.648 116.331 130.603 117.241 131.557C118.48 132.857 119.72 134.158 121.086 135.327C124.276 138.065 129.358 137.7 132.323 134.805C135.205 131.971 135.861 127.026 133.62 123.587C132.186 121.241 129.563 119.783 126.858 119.707Z" fill="white"/>
</g>
<defs>
<clipPath id="clip0_4_2730">
<rect width="220" height="220" fill="white" transform="translate(0 0.5)"/>
</clipPath>
</defs>
</svg>
