<svg width="220" height="221" viewBox="0 0 220 221" fill="none" xmlns="http://www.w3.org/2000/svg">
<g clip-path="url(#clip0_4_2743)">
<path d="M110 220.5C170.751 220.5 220 171.251 220 110.5C220 49.7487 170.751 0.5 110 0.5C49.2487 0.5 0 49.7487 0 110.5C0 171.251 49.2487 220.5 110 220.5Z" fill="#EDF0F4"/>
<path fill-rule="evenodd" clip-rule="evenodd" d="M110.081 31.7646L109.934 31.6665L42.2478 70.737H42.166V149.042L109.934 188.162L177.702 149.042V70.7862L110.081 31.7646ZM155.058 83.8261L132.464 96.915L110.049 83.8916H109.934L87.4048 96.9805L110 110.069L87.4048 123.158L109.967 136.247L132.48 123.158L155.075 136.247L109.967 162.065L64.7772 136.002V83.8261L109.934 57.7462L110.065 57.8282L155.058 83.8261Z" fill="#231F20"/>
</g>
<defs>
<clipPath id="clip0_4_2743">
<rect width="220" height="220" fill="white" transform="translate(0 0.5)"/>
</clipPath>
</defs>
</svg>
