<svg width="220" height="221" viewBox="0 0 220 221" fill="none" xmlns="http://www.w3.org/2000/svg">
<g clip-path="url(#clip0_4_2746)">
<path d="M110 220.5C170.751 220.5 220 171.251 220 110.5C220 49.7487 170.751 0.5 110 0.5C49.2487 0.5 0 49.7487 0 110.5C0 171.251 49.2487 220.5 110 220.5Z" fill="#030000"/>
<path fill-rule="evenodd" clip-rule="evenodd" d="M193.088 182.588C173.782 199.352 148.576 209.5 121 209.5C60.2486 209.5 11 160.251 11 99.4999C11 71.9237 21.1473 46.7175 37.9117 27.4116C14.6861 47.5799 0 77.3249 0 110.5C0 171.251 49.2486 220.5 110 220.5C143.175 220.5 172.92 205.813 193.088 182.588Z" fill="#53710C"/>
<path d="M146.727 167.333C143.129 167.333 139.831 166.921 138.631 166.715C138.831 164.859 139.291 160.716 139.531 158.984C139.831 156.819 139.531 153.108 137.732 150.634C136.293 148.655 134.534 143.831 133.834 141.667L141.03 142.903C143.909 143.398 147.027 143.522 148.226 143.522C148.026 146.202 147.746 152.242 148.226 154.964C148.826 158.365 151.824 159.911 152.124 162.385C152.424 164.859 151.224 167.333 146.727 167.333Z" fill="#96BD3F"/>
<path d="M103.531 53.6665L104.501 54.3619C103.653 55.443 101.996 57.0338 100.908 57.45L100.679 57.5411L100.501 57.6161L99.9501 57.8581L99.3888 58.114L95.9276 59.7288L95.2188 60.0538L94.6513 60.3105L94.1126 60.5503L93.6022 60.7734L93.1186 60.9802L92.6604 61.1713L92.2268 61.3467C92.1564 61.3746 92.0872 61.4019 92.0188 61.4287L91.8164 61.5068C90.3902 62.0524 88.4957 62.9047 86.7771 63.7357L85.9987 64.1165C85.7449 64.2421 85.4978 64.3662 85.2593 64.4872L84.9087 64.6665L84.334 63.6459C85.1496 63.2261 86.0881 62.7635 87.0495 62.3096L87.8771 61.9238C88.9817 61.4155 90.0791 60.9371 91.0207 60.565L91.5626 60.3547L91.9731 60.1915L92.4082 60.0126L92.8687 59.8181L93.6099 59.4956L94.1392 59.26L95.1602 58.7958L98.8718 57.0655L99.5767 56.7454L100.022 56.5509L100.298 56.4365L100.457 56.3738C100.897 56.2055 101.543 55.7136 102.26 55.0252L102.482 54.8083L102.701 54.5868L102.91 54.3683L103.104 54.1597L103.276 53.9683L103.42 53.8014C103.442 53.7761 103.462 53.7521 103.48 53.7296L103.531 53.6665Z" fill="#96BD3F"/>
<path d="M88 63.9023C88.0502 63.8836 88.1056 63.865 88.1656 63.8467C88.7258 63.6645 89.7468 63.3829 90.3945 63.3829C91.2925 63.3829 94.585 62.3437 97.2789 63.1231C99.4339 63.7464 101.769 65.634 102.667 66.4999C102.168 66.4999 100.512 66.448 97.8776 66.2401C94.585 65.9803 93.0884 65.7206 91.5919 64.4218C90.4807 63.4575 88.9398 63.6119 88.1656 63.8467C88.1045 63.8667 88.0489 63.8852 88 63.9023Z" fill="#96BD3F"/>
<path d="M102.853 60.2834C102.135 58.7533 98.7625 58.371 97.166 58.371C97.3657 58.1585 98.1237 57.6698 99.5605 57.4147C101.356 57.0959 104.649 57.7336 106.744 59.0085C108.42 60.0285 110.835 61.5584 111.833 62.1961C111.733 62.4086 110.995 62.8335 108.839 62.8335C106.146 62.8335 103.751 62.1961 102.853 60.2834Z" fill="#96BD3F"/>
<path d="M87.5333 60.5347C86.0953 61.5014 84.945 60.857 84.3697 59.568C84.274 58.8159 84.3123 56.9252 85.2325 55.3784C86.1528 53.8315 88.6836 52.3707 89.834 51.8335C89.5463 52.6928 88.9712 54.8627 88.9712 56.6674C88.9712 58.9234 88.9712 59.568 87.5333 60.5347Z" fill="#96BD3F"/>
<path d="M98.0397 54.672C96.3635 56.5643 94.3149 57.2348 93.5 57.3334C93.6164 55.7564 94.1287 52.2472 95.2461 50.828C96.3635 49.4086 99.4365 48.4625 100.833 48.1667C100.601 49.5467 99.7159 52.7794 98.0397 54.672Z" fill="#96BD3F"/>
<path d="M107.885 53.7561C106.531 55.603 105.064 55.625 104.5 55.4051C104.5 54.8555 104.556 53.4922 104.782 52.437C105.064 51.1179 105.91 48.8092 107.603 47.1603C108.956 45.841 110.987 46.3908 111.833 46.8305C111.551 47.0503 110.874 47.6879 110.423 48.4794C109.859 49.4688 109.577 51.4475 107.885 53.7561Z" fill="#96BD3F"/>
<path d="M114.757 58.9731C111.665 58.4102 110.297 56.8622 110 56.1585C110.793 55.2204 113.033 53.4148 115.649 53.6962C118.265 53.9776 120.306 56.8622 121 58.2693C120.207 58.7384 117.849 59.5359 114.757 58.9731Z" fill="#96BD3F"/>
<path d="M94.0651 55.5L95.3327 55.9523L92.9336 61L91.666 60.5477L94.0651 55.5Z" fill="#96BD3F"/>
<path d="M102.721 55.5L109.999 56.2339L109.944 59.1667L102.666 58.4328L102.721 55.5Z" fill="#96BD3F"/>
<path d="M86.7331 59.1665L88.0007 59.6188L85.6015 64.6665L84.334 64.2142L86.7331 59.1665Z" fill="#96BD3F"/>
<path d="M74.585 108.876C72.7732 110.205 70.0556 111.201 63.1104 109.872C57.5543 108.809 52.9444 106.33 51.334 105.223C52.5418 105.555 55.3803 106.352 57.0712 106.883C59.1851 107.547 63.7143 107.215 66.1301 106.883C68.5457 106.551 73.0751 103.562 74.585 103.23C76.0948 102.898 77.0006 103.894 77.0006 105.555C77.0006 107.215 76.3967 107.547 74.585 108.876Z" fill="#96BD3F"/>
<path d="M62.648 104.987C59.0276 105.19 53.5969 103.042 51.334 101.943C52.196 102.113 54.4373 102.502 56.5062 102.704C59.0923 102.958 63.6179 102.958 64.9109 102.704C66.204 102.451 68.7901 100.929 70.4063 101.436C72.0226 101.943 71.6994 103.212 70.4063 103.719C69.1133 104.226 67.1736 104.733 62.648 104.987Z" fill="#96BD3F"/>
<path fill-rule="evenodd" clip-rule="evenodd" d="M90.8576 110.439C91.5845 112.817 94.367 119.955 97.4809 120.847C101.22 121.917 104.878 122.848 112.044 121.607C118.417 120.503 119.861 118.664 121.199 116.961C121.365 116.75 121.53 116.539 121.703 116.333C122.676 115.17 123.65 113.4 124.623 111.631C125.208 110.57 125.792 109.508 126.376 108.577C127.934 106.096 129.261 103.473 129.884 99.4405C130.507 95.4075 129.492 89.9633 126.376 88.1019C123.26 86.2407 119.833 86.8611 118.587 87.1713C118.416 87.2138 118.251 87.2683 118.084 87.3229C117.037 87.6668 115.936 88.0289 112.979 85.6201C109.552 82.8281 101.762 77.8644 93.6617 79.4156C85.7815 80.9244 81.1444 84.7821 79.1769 86.4189L79.0181 86.5509C77.1487 88.1021 71.8522 91.5146 67.8018 89.9635C63.7514 88.4123 59.3895 84.0691 60.6358 78.7952C61.8821 73.5212 65.3094 71.6598 70.6059 71.97C71.5957 72.028 72.5635 72.1077 73.4996 72.1847C77.5729 72.5198 81.0418 72.8051 83.0685 71.0392C85.5609 68.8677 85.8726 67.0063 85.8726 65.4551C85.8726 63.9041 85.2494 62.3529 82.7568 62.9733C81.4979 63.2868 80.7954 64.2334 80.1273 65.1333C79.4728 66.0154 78.8513 66.8526 77.7718 67.0063C76.347 67.2089 73.4595 67.1467 70.3254 67.0792C68.6622 67.0435 66.9295 67.0063 65.3094 67.0063C60.6358 67.0063 55.6508 70.729 52.8467 75.3824C50.0427 80.036 48.1732 87.1713 50.6658 90.8941C52.2841 93.3111 54.6905 95.4666 56.5206 97.1059C57.5091 97.9913 58.3293 98.7262 58.7664 99.2702C59.7634 100.511 60.4281 101.856 60.6358 102.373C61.6744 102.579 64.2499 102.807 66.244 102.062C66.8228 101.846 67.3678 101.613 67.8795 101.395C69.571 100.672 70.8954 100.107 71.8522 100.821C73.0985 101.752 73.0985 102.993 72.4753 103.614C72.2397 103.848 72.4493 103.728 72.8684 103.488C73.5583 103.093 74.8158 102.373 75.5909 102.373C76.8372 102.373 78.0835 103.303 78.395 104.234C78.4118 104.284 78.4294 104.336 78.4476 104.389C78.7682 105.331 79.2627 106.782 78.0835 107.957C77.0865 108.95 76.4218 109.198 76.214 109.198C77.3566 109.818 80.7006 110.935 84.938 110.439C89.1752 109.942 93.7656 107.543 95.5311 106.406C95.0118 107.13 93.724 108.639 92.7271 108.888C91.7301 109.136 91.0653 110.025 90.8576 110.439ZM125.123 175.184C125.356 175.103 125.567 175.028 125.753 174.967C127.249 174.47 127.83 173.933 127.934 173.726C126.792 169.175 124.756 159.083 125.753 155.112C126.75 151.141 129.492 142.496 130.738 138.67C133.231 140.014 139.275 142.765 143.512 143.013C147.749 143.261 153.171 143.116 155.352 143.013C156.079 144.667 158.093 148.473 160.337 150.459C163.141 152.94 165.633 159.766 164.387 162.868C163.141 165.97 162.206 173.105 162.829 174.346C163.452 175.587 169.06 175.587 172.488 174.967C175.915 174.346 178.096 172.175 178.408 170.624C178.719 169.073 178.096 163.178 175.292 158.214C172.488 153.251 172.488 146.115 172.799 140.841C173.049 136.622 173.734 127.502 174.045 123.469C176.434 125.123 182.333 128.618 186.82 129.363C192.042 130.229 194.022 128.137 194.773 127.345L194.775 127.343C194.801 127.315 194.825 127.29 194.847 127.266C194.872 127.239 194.898 127.214 194.92 127.191C195.419 126.695 195.959 125.743 196.167 125.33H190.87C190.23 125.33 189.537 125.748 188.793 126.199C187.724 126.845 186.547 127.557 185.262 127.191C183.081 126.571 175.915 123.779 174.045 118.815C173.433 117.189 173.155 115.229 172.85 113.079C172.224 108.667 171.483 103.447 167.503 98.6498C161.583 91.5145 154.105 88.4121 145.381 88.1019C138.403 87.8537 132.088 89.4463 129.803 90.2735C130.738 93.2724 131.753 97.8893 130.818 101.302C130.063 104.061 127.622 109.508 125.441 112.61C125.172 112.993 124.891 113.407 124.595 113.841C122.496 116.923 119.725 120.992 116.175 121.777C110.567 123.018 107.059 123.158 103.943 122.848C101.451 122.6 99.1661 122.744 98.3352 122.848C99.4776 125.02 101.513 129.983 100.516 132.465C99.2699 135.567 96.7774 139.911 93.3502 141.462C89.923 143.013 92.7271 153.251 96.1543 156.973C96.5298 157.381 96.9017 157.797 97.2715 158.21C100.276 161.566 103.141 164.767 106.747 162.558C110.328 160.364 110.5 158.412 110.707 156.06C110.734 155.751 110.762 155.435 110.798 155.112C111.047 152.878 110.902 150.251 110.798 149.218C109.759 149.114 107.371 148.908 106.124 148.908H103.943C104.463 147.459 106 144.192 107.994 142.703C109.988 141.214 113.394 139.393 114.848 138.67C114.848 142.909 114.724 152.258 114.225 155.732C113.727 159.207 111.525 169.175 110.486 173.726L115.471 175.897C119.119 177.294 123.018 175.924 125.123 175.184ZM90.0035 97.5791C91.3799 97.5791 92.4959 96.7457 92.4959 95.7177C92.4959 94.6896 91.3799 93.8564 90.0035 93.8564C88.6268 93.8564 87.5109 94.6896 87.5109 95.7177C87.5109 96.7457 88.6268 97.5791 90.0035 97.5791Z" fill="#96BD3F"/>
<path fill-rule="evenodd" clip-rule="evenodd" d="M193.089 182.588C173.782 199.353 148.576 209.5 121 209.5C60.2487 209.5 11 160.251 11 99.5C11 71.9237 21.1473 46.7176 37.9117 27.4117C57.2176 10.6473 82.4237 0.5 110 0.5C170.751 0.5 220 49.7487 220 110.5C220 138.076 209.853 163.282 193.089 182.588ZM216.333 111.417C216.333 163.562 174.062 205.833 121.917 205.833C69.7717 205.833 27.5 163.562 27.5 111.417C27.5 59.2717 69.7717 17 121.917 17C174.062 17 216.333 59.2717 216.333 111.417Z" fill="#8AC014"/>
<path fill-rule="evenodd" clip-rule="evenodd" d="M219.999 110.5C219.999 125.349 217.057 139.51 211.724 152.433C206.772 159.923 200.779 166.665 193.953 172.454C207.912 155.995 216.333 134.689 216.333 111.417C216.333 59.2717 174.061 17 121.916 17C98.6437 17 77.338 25.42 60.8789 39.3795C78.1979 18.9598 104.043 6 132.916 6C137.98 6 142.95 6.39858 147.797 7.16605C189.929 22.5814 219.999 63.0291 219.999 110.5Z" fill="#53710C"/>
</g>
<defs>
<clipPath id="clip0_4_2746">
<rect width="220" height="220" fill="white" transform="translate(0 0.5)"/>
</clipPath>
</defs>
</svg>
