<svg width="220" height="221" viewBox="0 0 220 221" fill="none" xmlns="http://www.w3.org/2000/svg">
<g clip-path="url(#clip0_4_2765)">
<path d="M110 220.5C170.751 220.5 220 171.251 220 110.5C220 49.7487 170.751 0.5 110 0.5C49.2487 0.5 0 49.7487 0 110.5C0 171.251 49.2487 220.5 110 220.5Z" fill="#EDF0F4"/>
<path d="M110.269 186.036C155.005 186.036 191.269 152.289 191.269 110.661C191.269 69.0326 155.005 35.2861 110.269 35.2861C65.5345 35.2861 29.2695 69.0326 29.2695 110.661C29.2695 152.289 65.5345 186.036 110.269 186.036Z" fill="white"/>
<path fill-rule="evenodd" clip-rule="evenodd" d="M27.5 110.5C27.5 64.9107 64.4107 28 110 28C155.589 28 192.5 64.9107 192.5 110.5C192.5 156.089 155.589 193 110 193C64.4107 193 27.5 156.089 27.5 110.5ZM41.6964 111.625C41.6964 150.25 73.0358 181.589 111.661 181.589C150.286 181.589 181.625 150.25 181.625 111.625C181.625 73.0001 150.286 41.6607 111.661 41.6607C73.0358 41.6607 41.6964 73.0001 41.6964 111.625Z" fill="#F6BE1D"/>
<path d="M111.711 177.464C148.044 177.464 177.497 148.011 177.497 111.679C177.497 75.3463 148.044 45.8931 111.711 45.8931C75.379 45.8931 45.9258 75.3463 45.9258 111.679C45.9258 148.011 75.379 177.464 111.711 177.464Z" fill="#F6BE1D"/>
<path fill-rule="evenodd" clip-rule="evenodd" d="M68.2138 124.75C66.6067 129.036 63.3387 138.09 65.2672 149.768C66.4994 157.215 69.3387 162.84 71.5352 166.215C71.2138 161.607 70.5173 143.018 83.8567 126.465C93.4994 114.518 105.5 109.857 110.642 108.197C111.982 107.715 117.982 105.732 119.374 105.304C126.751 102.868 129.246 102.06 130.162 101.763C130.657 101.603 130.691 101.591 130.785 101.554C135.392 99.9467 145.892 96.2502 153.821 86.9823C157.639 82.5361 159.517 78.3453 161.548 73.8115L161.696 73.4824C165.017 65.8753 166.517 59.0717 167.214 54.3574C162.178 60.6252 157.249 65.3395 153.392 68.6609C149.642 71.8753 145.678 75.2503 139.732 78.5717C135.387 81.0088 131.933 82.2932 125.587 84.6533L125.375 84.7325C120.017 86.7145 115.357 88.2145 111.714 89.2859C110.749 89.5538 109.732 89.8216 108.767 90.0359C103.839 91.1073 96.3387 93.4646 88.678 98.7681C83.6423 102.25 73.5709 110.447 68.2138 124.75ZM127.678 125.125C122.589 124.857 116.696 124.857 110.267 125.5C100.946 126.411 92.9102 128.286 86.4816 130.322C86.7495 129.465 87.2316 128.286 87.9817 126.893C90.928 121.536 95.4817 118.59 101.375 115.589C106.732 112.804 114.232 109.429 123.767 106.482C128.589 105.09 132.499 103.643 135.392 102.464C139.464 100.857 142.142 99.786 145.41 97.7502C148.946 95.6074 151.571 93.3574 153.285 91.6967C153.232 95.0182 152.749 100.054 150.606 105.786L150.565 105.896C148.965 110.109 146.972 115.359 141.767 119.607C136.571 123.839 130.785 124.857 127.678 125.125ZM86.5887 143.179C88.5174 142.857 90.8745 142.643 100.249 143.607C102.714 143.875 105.017 144.143 107.053 144.411C113.267 145.214 119.589 144.09 125.053 140.929C127.035 139.804 129.017 138.357 130.892 136.429C134.321 133 136.142 129.357 137.16 126.786C134.053 127.322 130.517 127.804 126.607 127.964C124.249 128.072 122 128.072 119.91 127.964C111.339 127.643 104.482 128.929 99.928 130.107L99.8362 130.131C92.1938 132.109 83.0348 134.478 78.4995 142.322C77.4281 144.197 76.8387 145.965 76.5173 147.143C80.5352 144.679 84.0708 143.607 86.5887 143.179ZM80.6876 157.451C80.1108 157.498 79.4658 157.551 78.8209 157.643C76.5173 157.965 74.6423 158.661 73.2494 159.25C74.1602 156.304 75.6067 154.429 76.7316 153.25C81.4458 148.322 89.5352 146.982 97.7852 149.286C98.0474 149.352 98.3096 149.422 98.5732 149.493C99.1718 149.654 99.7781 149.817 100.41 149.929C103.41 150.518 105.928 150.625 107.857 150.572C110.589 150.518 113.214 150.465 116.321 149.232C118.517 148.375 120.178 147.25 121.25 146.393C120.66 148.107 118.196 154.536 111.339 158.286C109.625 159.197 107.964 159.786 106.41 160.161C104.053 160.697 101.642 160.857 99.2315 160.59C97.7315 160.429 96.1779 160.214 94.5708 159.947C91.8923 159.465 89.428 158.875 87.1779 158.232C85.1424 157.643 83.0529 157.375 80.9637 157.429C80.8736 157.436 80.7816 157.444 80.6876 157.451Z" fill="#FDFFFA"/>
</g>
<defs>
<clipPath id="clip0_4_2765">
<rect width="220" height="220" fill="white" transform="translate(0 0.5)"/>
</clipPath>
</defs>
</svg>
