<svg width="220" height="221" viewBox="0 0 220 221" fill="none" xmlns="http://www.w3.org/2000/svg">
<g clip-path="url(#clip0_4_2771)">
<path d="M110 220.5C170.751 220.5 220 171.251 220 110.5C220 49.7487 170.751 0.5 110 0.5C49.2487 0.5 0 49.7487 0 110.5C0 171.251 49.2487 220.5 110 220.5Z" fill="#EDF0F4"/>
<path fill-rule="evenodd" clip-rule="evenodd" d="M73.4793 88.3533L87.3393 61H119.533L105.673 88.3533H73.4793ZM68.9327 97.2267L55.0727 124.58H87.3393L101.199 97.2267H68.9327ZM50.526 133.527L36.666 160.88H68.9327L82.7927 133.527H50.526Z" fill="#0175B0"/>
<path fill-rule="evenodd" clip-rule="evenodd" d="M105.598 88.28L119.458 61H151.725L137.865 88.28H105.598ZM101.052 97.2267L87.1918 124.58H119.458L133.318 97.2267H101.052ZM82.7185 133.453L68.7852 160.88H101.052L114.912 133.453H82.7185Z" fill="#00A2D0"/>
<path fill-rule="evenodd" clip-rule="evenodd" d="M137.209 88.28L151.069 61H183.335L169.475 88.28H137.209ZM132.735 97.2267L118.875 124.58H151.142L164.929 97.2267H132.735ZM114.329 133.453L100.469 160.88H132.662L146.595 133.453H114.329Z" fill="#00CCFF"/>
</g>
<defs>
<clipPath id="clip0_4_2771">
<rect width="220" height="220" fill="white" transform="translate(0 0.5)"/>
</clipPath>
</defs>
</svg>
