<svg width="220" height="221" viewBox="0 0 220 221" fill="none" xmlns="http://www.w3.org/2000/svg">
<g clip-path="url(#clip0_4_2776)">
<path d="M110 220.5C170.751 220.5 220 171.251 220 110.5C220 49.7487 170.751 0.5 110 0.5C49.2487 0.5 0 49.7487 0 110.5C0 171.251 49.2487 220.5 110 220.5Z" fill="#EDF0F4"/>
<path d="M110.029 111.931L139.376 94.9879L110.029 77.9434V111.931Z" fill="#2A3D58"/>
<path d="M110.029 111.931L80.6816 94.9879L110.029 77.9434V111.931Z" fill="#0F2631"/>
<path d="M139.376 61L110.029 77.9435L139.376 94.988V61Z" fill="#0F2631"/>
<path d="M139.377 61L168.725 77.9435L139.377 94.988V61Z" fill="#2A3D58"/>
<path d="M80.6805 61L51.334 77.9435L80.6805 94.988V61Z" fill="#0F2631"/>
<path d="M80.6816 61L110.029 77.9435L80.6816 94.988V61Z" fill="#2A3D58"/>
<path d="M110.029 158.665L139.376 141.721L110.029 124.678V158.665Z" fill="#2A3D58"/>
<path d="M110.029 158.665L80.6816 141.721L110.029 124.678V158.665Z" fill="#0F2631"/>
<path d="M139.376 107.734L110.029 124.678L139.376 141.721V107.734Z" fill="#0F2631"/>
<path d="M139.377 107.734L168.725 124.678L139.377 141.721V107.734Z" fill="#2A3D58"/>
<path d="M80.6805 107.734L51.334 124.678L80.6805 141.721V107.734Z" fill="#0F2631"/>
<path d="M80.6816 107.734L110.029 124.678L80.6816 141.721V107.734Z" fill="#2A3D58"/>
</g>
<defs>
<clipPath id="clip0_4_2776">
<rect width="220" height="220" fill="white" transform="translate(0 0.5)"/>
</clipPath>
</defs>
</svg>
