<svg width="220" height="221" viewBox="0 0 220 221" fill="none" xmlns="http://www.w3.org/2000/svg">
<g clip-path="url(#clip0_4_2790)">
<path d="M110 220.5C170.751 220.5 220 171.251 220 110.5C220 49.7487 170.751 0.5 110 0.5C49.2487 0.5 0 49.7487 0 110.5C0 171.251 49.2487 220.5 110 220.5Z" fill="#AA15DD"/>
<path fill-rule="evenodd" clip-rule="evenodd" d="M106.938 42.0628C106.922 43.7203 108.284 45.0836 109.997 45.125C111.27 45.1426 112.425 44.4074 112.913 43.2697C113.409 42.1286 113.157 40.8113 112.271 39.9178C111.394 39.0304 110.042 38.7565 108.871 39.2281C107.708 39.6972 106.938 40.8212 106.938 42.0628ZM172.584 79.4021C171.867 79.8036 171.015 79.9107 170.216 79.6993C169.418 79.4881 168.74 78.976 168.335 78.2779C167.697 77.2003 167.781 75.8592 168.549 74.8639C169.308 73.8759 170.614 73.4381 171.842 73.7604C173.075 74.0975 173.98 75.1147 174.142 76.3439C174.303 77.5733 173.69 78.7773 172.584 79.4021ZM47.396 79.4021C45.898 78.5353 45.391 76.6689 46.2553 75.2019C46.8793 74.1283 48.117 73.5316 49.3787 73.6958C50.6406 73.8599 51.6713 74.7518 51.98 75.9468C52.3077 77.1443 51.8677 78.4159 50.8606 79.1813C49.8627 79.9378 48.4877 80.0252 47.396 79.4021ZM109.994 177.709C111.703 177.718 113.091 179.09 113.098 180.771C113.114 182.444 111.727 183.814 109.997 183.833C109.165 183.826 108.37 183.499 107.787 182.925C107.204 182.351 106.881 181.576 106.889 180.771C106.881 179.966 107.204 179.192 107.787 178.617C108.37 178.043 109.163 177.717 109.994 177.709ZM109.994 177.709L109.99 177.709H109.997L109.994 177.709ZM49.7634 143.204C48.9649 142.992 48.1123 143.099 47.396 143.501C45.904 144.362 45.3971 146.219 46.2553 147.68C46.6579 148.381 47.3355 148.896 48.1352 149.107C48.9349 149.319 49.7888 149.21 50.5042 148.805C51.9962 147.943 52.5029 146.086 51.6449 144.625C51.2396 143.927 50.562 143.415 49.7634 143.204ZM165.604 143.018C164.043 145.683 164.713 149.051 167.187 150.963L116.206 179.93C115.8 176.91 113.151 174.645 110.004 174.626C106.857 174.645 104.208 176.91 103.802 179.93L52.8069 150.963C55.2718 149.047 55.9362 145.685 54.3753 143.025C52.8489 140.374 49.5179 139.24 46.6117 140.384V82.4504C49.514 83.5907 52.8397 82.461 54.3681 79.8159C55.9298 77.1623 55.2749 73.8051 52.8212 71.8845L103.802 42.918C104.208 45.9372 106.857 48.2022 110.004 48.2217C113.154 48.2017 115.803 45.9331 116.206 42.9111L167.201 71.8775C164.74 73.7925 164.076 77.1506 165.633 79.8089C167.159 82.4603 170.49 83.5936 173.396 82.4504V140.349C170.477 139.205 167.134 140.351 165.611 143.018H165.604ZM88.0036 127.287C95.8323 137.702 110.555 140.669 122.031 134.142H122.024C127.533 131.013 131.685 126.059 133.708 120.196C136.738 111.465 150.362 116.334 145.272 127.673C145.272 127.748 145.225 127.82 145.182 127.887C145.172 127.902 145.163 127.917 145.154 127.931C145.145 127.946 145.136 127.961 145.129 127.976L161.897 137.494C163.308 138.333 163.775 140.104 162.952 141.494C162.132 142.887 160.336 143.377 158.91 142.59L142.249 133.156C138.914 138.308 134.356 142.616 128.953 145.722C124.165 148.486 118.809 150.205 113.262 150.756V168.688C113.27 169.485 112.949 170.253 112.372 170.822C111.794 171.391 111.007 171.715 110.182 171.723C108.478 171.723 107.095 170.364 107.095 168.688V150.908C94.6727 150.181 83.2936 143.945 76.2618 134.011L61.0981 142.604C60.4115 142.994 59.592 143.1 58.8239 142.899C58.0557 142.698 57.4032 142.206 57.0131 141.535C56.1811 140.133 56.6631 138.345 58.0968 137.514L73.2034 128.928C72.2197 126.921 71.4139 124.838 70.7724 122.7L69.3395 114.81C68.7877 107.668 70.241 100.515 73.5455 94.106L58.0968 85.3195C56.6732 84.492 56.1896 82.7184 57.0059 81.3194C57.392 80.648 58.0414 80.1554 58.8074 79.953C59.5735 79.7506 60.3916 79.8553 61.0767 80.2434L76.6468 89.0782C79.9571 84.5693 84.2192 80.7916 89.1512 77.995C94.616 74.8796 100.781 73.0951 107.117 72.7949V54.1459C107.109 53.3473 107.43 52.5784 108.009 52.0092C108.589 51.4399 109.378 51.1169 110.204 51.1114C111.028 51.1187 111.816 51.4425 112.393 52.0115C112.971 52.5806 113.291 53.3484 113.283 54.1459V72.9673C124.965 74.2737 135.464 80.4766 142 89.9335L158.981 80.2434C159.663 79.8384 160.487 79.7235 161.259 79.9259C162.031 80.1283 162.682 80.63 163.059 81.3124C163.872 82.7193 163.373 84.5125 161.947 85.3195L138.849 98.4647L138.535 98.6095L133.102 101.713L121.639 108.224L88.0036 127.287ZM172.591 143.501C174.08 144.367 174.586 146.223 173.731 147.687C173.328 148.387 172.649 148.9 171.85 149.11C171.05 149.321 170.197 149.21 169.482 148.805C167.99 147.943 167.484 146.086 168.342 144.625C168.744 143.924 169.422 143.409 170.222 143.198C171.021 142.986 171.875 143.096 172.591 143.501ZM95.8669 89.5472C84.6101 95.9474 83.1984 103.968 83.5049 115.465L125.282 91.7267C116.915 85.1158 105.177 84.2463 95.8669 89.5472Z" fill="white"/>
</g>
<defs>
<clipPath id="clip0_4_2790">
<rect width="220" height="220" fill="white" transform="translate(0 0.5)"/>
</clipPath>
</defs>
</svg>
