<svg width="220" height="221" viewBox="0 0 220 221" fill="none" xmlns="http://www.w3.org/2000/svg">
<g clip-path="url(#clip0_4_2793)">
<path d="M110 220.5C170.751 220.5 220 171.251 220 110.5C220 49.7487 170.751 0.5 110 0.5C49.2487 0.5 0 49.7487 0 110.5C0 171.251 49.2487 220.5 110 220.5Z" fill="#EDF0F4"/>
<path d="M137.581 95.5285L149.549 104.617L157.117 110.355L148.663 114.667L131.684 123.363L137.51 127.39L145.644 133.057L136.835 137.618L82.8438 165.559C91.8212 170.516 101.902 173.115 112.148 173.115C145.716 173.115 172.927 145.815 172.927 112.134C172.958 97.8543 167.964 84.0214 158.825 73.0742L137.581 95.5285Z" fill="#091B26"/>
<path d="M84.2321 130.226L72.2643 121.103L64.6963 115.365L73.1502 111.053L90.1287 102.356L84.3031 98.2942L76.1691 92.6265L84.9783 88.0646L141.847 58.627C132.215 52.5641 121.068 49.3635 109.698 49.3965C76.131 49.3965 48.9199 76.6956 48.9199 110.377C48.9199 126.022 54.8165 140.313 64.4781 151.112L84.2321 130.226Z" fill="#091B26"/>
<path d="M59.8608 154.169C49.1338 142.373 42.5978 126.691 42.5978 109.513C42.5978 72.9123 72.2932 43.1179 108.773 43.1179C122.235 43.1179 135.342 47.2165 146.39 54.9491L152.286 51.8841C140.211 42.6548 125.113 37.1665 108.773 37.1665C69.0256 37.1665 36.666 69.6337 36.666 109.513C36.666 128.401 43.9124 145.58 55.7407 158.479L59.8608 154.167V154.169Z" fill="#091B26"/>
<path d="M161.592 68.504C171.431 80.0868 177.399 95.1264 177.399 111.484C177.399 148.086 147.703 177.88 111.224 177.88C98.8625 177.88 86.7498 174.423 76.3066 167.865L70.2324 171.001C82.2741 179.377 96.5886 183.833 111.224 183.833C150.971 183.833 183.33 151.366 183.33 111.486C183.33 93.4159 176.688 76.8453 165.712 64.1577L161.592 68.5058L161.592 68.504Z" fill="#091B26"/>
<path d="M76.7609 116.084L94.0416 129.188L55 170.389L132.621 130.293L118.611 120.572L144.461 107.325L127.181 94.2199L166.222 53.0557L88.6019 93.1519L102.611 102.875L76.7609 116.084Z" fill="#23BEE2"/>
</g>
<defs>
<clipPath id="clip0_4_2793">
<rect width="220" height="220" fill="white" transform="translate(0 0.5)"/>
</clipPath>
</defs>
</svg>
