<svg width="220" height="221" viewBox="0 0 220 221" fill="none" xmlns="http://www.w3.org/2000/svg">
<g clip-path="url(#clip0_4_2800)">
<path d="M110 220.5C170.751 220.5 220 171.251 220 110.5C220 49.7487 170.751 0.5 110 0.5C49.2487 0.5 0 49.7487 0 110.5C0 171.251 49.2487 220.5 110 220.5Z" fill="black"/>
<path fill-rule="evenodd" clip-rule="evenodd" d="M110 215C167.714 215 214.5 168.214 214.5 110.5C214.5 52.7863 167.714 6 110 6C52.2863 6 5.5 52.7863 5.5 110.5C5.5 168.214 52.2863 215 110 215ZM110 220.5C170.752 220.5 220 171.252 220 110.5C220 49.7487 170.752 0.5 110 0.5C49.2487 0.5 0 49.7487 0 110.5C0 171.252 49.2487 220.5 110 220.5Z" fill="#57D56C"/>
<path fill-rule="evenodd" clip-rule="evenodd" d="M76.9151 100.777H159.496V118.288H76.9151V160H59.4049V118.288L59.3965 100.777L59.4049 59.8999H76.9151V100.777ZM159.496 77.4104H100.274V59.8999H159.496V77.4104ZM100.274 160H159.496V142.489H100.274V160Z" fill="#57D56C"/>
</g>
<defs>
<clipPath id="clip0_4_2800">
<rect width="220" height="220" fill="white" transform="translate(0 0.5)"/>
</clipPath>
</defs>
</svg>
