<svg width="220" height="221" viewBox="0 0 220 221" fill="none" xmlns="http://www.w3.org/2000/svg">
<g clip-path="url(#clip0_4_2804)">
<path d="M110 220.5C170.751 220.5 220 171.251 220 110.5C220 49.7487 170.751 0.5 110 0.5C49.2487 0.5 0 49.7487 0 110.5C0 171.251 49.2487 220.5 110 220.5Z" fill="#396A28"/>
<path fill-rule="evenodd" clip-rule="evenodd" d="M125.256 92.1331L110.917 77.8017L96.4822 92.2301L81.5145 77.2624L110.917 35.3335L140.521 76.868L125.256 92.1331ZM91.4814 97.2376L77.3022 111.417L91.6336 125.755L76.7213 140.667L34.834 111.417L76.2647 82.021L91.4814 97.2376ZM144.532 111.417L130.104 125.852L145.196 140.944L187.001 111.417L145.653 81.7443L130.256 97.1408L144.532 111.417ZM96.6413 130.763L110.917 145.032L125.097 130.853L140.189 145.952L110.917 187.5L81.8397 145.558L96.6413 130.763ZM134.932 111.417L110.917 87.3952L86.9027 111.417L110.917 135.431L134.932 111.417Z" fill="white"/>
</g>
<defs>
<clipPath id="clip0_4_2804">
<rect width="220" height="220" fill="white" transform="translate(0 0.5)"/>
</clipPath>
</defs>
</svg>
