<svg width="220" height="221" viewBox="0 0 220 221" fill="none" xmlns="http://www.w3.org/2000/svg">
<g clip-path="url(#clip0_4_2807)">
<mask id="mask0_4_2807" style="mask-type:luminance" maskUnits="userSpaceOnUse" x="0" y="0" width="220" height="221">
<path d="M220 0.5H0V220.5H220V0.5Z" fill="white"/>
</mask>
<g mask="url(#mask0_4_2807)">
<path d="M110 220.5C170.751 220.5 220 171.251 220 110.5C220 49.7487 170.751 0.5 110 0.5C49.2487 0.5 0 49.7487 0 110.5C0 171.251 49.2487 220.5 110 220.5Z" fill="#EDF0F4"/>
<path fill-rule="evenodd" clip-rule="evenodd" d="M148.284 71.7705C147.783 71.2698 147.482 70.7691 147.482 70.068C147.482 69.367 147.783 68.8663 148.284 68.3654C149.285 67.4641 150.887 67.4641 151.989 68.3654C152.49 68.8663 152.79 69.367 152.79 70.068C152.79 70.7691 152.49 71.2698 151.989 71.7705C151.488 72.171 150.787 72.4715 150.186 72.4715C149.485 72.5716 148.784 72.3714 148.284 71.7705Z" fill="#0D022B"/>
<path fill-rule="evenodd" clip-rule="evenodd" d="M141.875 78.6806C141.474 78.1797 141.174 77.6791 141.174 76.978C141.174 76.2769 141.474 75.7762 141.875 75.2756C142.776 74.3743 144.378 74.3743 145.28 75.2756C145.68 75.7762 145.981 76.2769 145.981 76.978C145.981 77.6791 145.68 78.1797 145.28 78.6806C144.779 79.0812 144.278 79.3815 143.577 79.3815C142.876 79.3815 142.376 79.0812 141.875 78.6806Z" fill="#0D022B"/>
<path fill-rule="evenodd" clip-rule="evenodd" d="M134.863 85.2904C134.463 84.8898 134.162 84.2891 134.162 83.588C134.162 82.8869 134.463 82.3862 134.863 81.8856C135.764 80.9841 137.367 80.9841 138.268 81.8856C138.669 82.2861 138.969 82.8869 138.969 83.588C138.969 84.2891 138.669 84.7897 138.268 85.2904C137.767 85.7913 137.267 85.9915 136.566 85.9915C135.865 85.9915 135.264 85.691 134.863 85.2904Z" fill="#0D022B"/>
<path fill-rule="evenodd" clip-rule="evenodd" d="M128.153 92.0004C127.652 91.5998 127.352 90.999 127.352 90.298C127.352 89.5969 127.652 89.0962 128.153 88.5955C129.154 87.6941 130.757 87.6941 131.858 88.5955C132.359 88.9961 132.659 89.5969 132.659 90.298C132.659 90.999 132.359 91.5998 131.858 92.0004C131.358 92.5013 130.657 92.7014 130.056 92.7014C129.354 92.7014 128.754 92.6014 128.153 92.0004Z" fill="#0D022B"/>
<path fill-rule="evenodd" clip-rule="evenodd" d="M121.744 98.7104C121.243 98.3098 121.043 97.7088 121.043 97.0078C121.043 96.3067 121.343 95.806 121.744 95.3053C122.645 94.4041 124.248 94.4041 125.149 95.3053C125.65 95.7059 125.85 96.3067 125.85 97.0078C125.85 97.7088 125.55 98.3098 125.149 98.7104C124.748 99.2111 124.148 99.4113 123.446 99.4113C122.846 99.5116 122.145 99.3112 121.744 98.7104Z" fill="#0D022B"/>
<path fill-rule="evenodd" clip-rule="evenodd" d="M114.031 103.718C114.031 103.017 114.332 102.516 114.732 102.015C115.634 101.114 117.236 101.114 118.137 102.015C118.638 102.516 118.838 103.017 118.838 103.718C118.838 104.419 118.538 104.919 118.137 105.42C117.737 105.821 117.136 106.121 116.435 106.121C115.734 106.121 115.233 105.821 114.732 105.42C114.231 105.02 114.031 104.419 114.031 103.718Z" fill="#0D022B"/>
<path fill-rule="evenodd" clip-rule="evenodd" d="M101.514 118.539C101.113 118.139 100.812 117.538 100.812 116.837C100.812 116.136 101.113 115.635 101.514 115.134C102.415 114.233 104.017 114.233 104.919 115.134C105.419 115.635 105.62 116.136 105.62 116.837C105.62 117.538 105.319 118.039 104.919 118.539C104.518 119.04 103.917 119.241 103.216 119.241C102.615 119.341 102.014 119.14 101.514 118.539Z" fill="#0D022B"/>
<path fill-rule="evenodd" clip-rule="evenodd" d="M94.6021 125.249C94.1013 124.849 93.8008 124.248 93.8008 123.547C93.8008 122.846 94.1013 122.345 94.6021 121.844C95.6035 120.943 97.2058 120.943 98.3075 121.844C98.8082 122.345 99.1086 122.846 99.1086 123.547C99.1086 124.248 98.8082 124.749 98.3075 125.249C97.8068 125.75 97.1057 125.951 96.5048 125.951C95.7036 126.051 95.1028 125.75 94.6021 125.249Z" fill="#0D022B"/>
<path fill-rule="evenodd" clip-rule="evenodd" d="M88.0917 132.059C87.6911 131.658 87.3906 131.058 87.3906 130.357C87.3906 129.655 87.6911 129.055 88.0917 128.654C88.993 127.753 90.5953 127.753 91.4966 128.654C91.8971 129.055 92.1976 129.655 92.1976 130.357C92.1976 131.058 91.8971 131.558 91.4966 132.059C90.9959 132.56 90.4952 132.76 89.7941 132.76C89.0931 132.76 88.6925 132.46 88.0917 132.059Z" fill="#0D022B"/>
<path fill-rule="evenodd" clip-rule="evenodd" d="M81.3884 138.769C80.8877 138.368 80.6875 137.767 80.6875 137.066C80.6875 136.365 80.9878 135.865 81.3884 135.364C82.2898 134.463 83.8922 134.463 84.7934 135.364C85.194 135.865 85.4945 136.365 85.4945 137.066C85.4945 137.767 85.194 138.368 84.7934 138.769C84.2928 139.27 83.7921 139.47 83.091 139.47C82.49 139.47 81.789 139.27 81.3884 138.769Z" fill="#0D022B"/>
<path fill-rule="evenodd" clip-rule="evenodd" d="M74.4789 145.478C73.9782 145.078 73.6777 144.477 73.6777 143.776C73.6777 143.075 73.9782 142.574 74.4789 142.073C75.4804 141.172 77.0828 141.172 77.9841 142.073C78.4847 142.574 78.7852 143.075 78.7852 143.776C78.7852 144.477 78.4847 145.078 77.9841 145.478C77.4834 145.879 76.7823 146.179 76.1815 146.179C75.4805 146.179 74.8795 145.979 74.4789 145.478Z" fill="#0D022B"/>
<path fill-rule="evenodd" clip-rule="evenodd" d="M67.8689 152.189C67.3682 151.688 67.168 151.187 67.168 150.486C67.168 149.785 67.4683 149.285 67.8689 148.784C68.7703 147.883 70.3726 147.883 71.2739 148.784C71.7746 149.285 71.975 149.785 71.975 150.486C71.975 151.187 71.6745 151.688 71.2739 152.189C70.8733 152.589 70.2724 152.89 69.5715 152.89C69.0706 152.99 68.4698 152.69 67.8689 152.189Z" fill="#0D022B"/>
<path fill-rule="evenodd" clip-rule="evenodd" d="M71.2739 71.7705C71.6745 71.2698 71.975 70.7691 71.975 70.068C71.975 69.367 71.6745 68.8663 71.2739 68.3654C70.3726 67.4641 68.7703 67.4641 67.8689 68.3654C67.3682 68.8663 67.168 69.367 67.168 70.068C67.168 70.7691 67.4683 71.2698 67.8689 71.7705C68.2694 72.171 68.8704 72.4715 69.5715 72.4715C70.2724 72.5716 70.8733 72.3714 71.2739 71.7705Z" fill="#0D022B"/>
<path fill-rule="evenodd" clip-rule="evenodd" d="M77.9831 78.6806C78.4838 78.1797 78.7843 77.6791 78.7843 76.978C78.7843 76.2769 78.4838 75.7762 77.9831 75.2756C76.9817 74.3743 75.3792 74.3743 74.2777 75.2756C73.7769 75.7762 73.4766 76.2769 73.4766 76.978C73.4766 77.6791 73.7769 78.1797 74.2777 78.6806C74.7784 79.0812 75.4795 79.3815 76.0803 79.3815C76.7813 79.2814 77.4824 79.0812 77.9831 78.6806Z" fill="#0D022B"/>
<path fill-rule="evenodd" clip-rule="evenodd" d="M84.7934 85.2904C85.194 84.8898 85.4945 84.2891 85.4945 83.588C85.4945 82.8869 85.194 82.3862 84.7934 81.8856C83.8922 80.9841 82.2898 80.9841 81.3884 81.8856C80.9878 82.2861 80.6875 82.8869 80.6875 83.588C80.6875 84.2891 80.9878 84.7897 81.3884 85.2904C81.8893 85.7913 82.3899 85.9915 83.091 85.9915C83.6918 85.9915 84.2928 85.691 84.7934 85.2904Z" fill="#0D022B"/>
<path fill-rule="evenodd" clip-rule="evenodd" d="M91.4966 92.0004C91.8971 91.5998 92.1976 90.999 92.1976 90.298C92.1976 89.5969 91.8971 89.0962 91.4966 88.5955C90.5953 87.6941 88.993 87.6941 88.0917 88.5955C87.6911 88.9961 87.3906 89.5969 87.3906 90.298C87.3906 90.999 87.6911 91.5998 88.0917 92.0004C88.5924 92.5013 89.0931 92.7014 89.7941 92.7014C90.3949 92.7014 90.9959 92.6014 91.4966 92.0004Z" fill="#0D022B"/>
<path fill-rule="evenodd" clip-rule="evenodd" d="M98.1073 98.7104C98.608 98.3098 98.9084 97.7088 98.9084 97.0078C98.9084 96.3067 98.608 95.806 98.1073 95.3053C97.2058 94.4041 95.5034 94.4041 94.6021 95.3053C94.1013 95.7059 93.8008 96.3067 93.8008 97.0078C93.8008 97.7088 94.1013 98.3098 94.6021 98.7104C95.1028 99.2111 95.8039 99.4113 96.4047 99.4113C97.0056 99.5116 97.7065 99.3112 98.1073 98.7104Z" fill="#0D022B"/>
<path fill-rule="evenodd" clip-rule="evenodd" d="M105.62 103.718C105.62 103.017 105.319 102.516 104.919 102.015C104.017 101.114 102.415 101.114 101.514 102.015C101.013 102.516 100.812 103.017 100.812 103.718C100.812 104.419 101.113 104.919 101.514 105.42C101.914 105.821 102.515 106.121 103.216 106.121C103.917 106.121 104.418 105.821 104.919 105.42C105.419 105.02 105.62 104.419 105.62 103.718Z" fill="#0D022B"/>
<path fill-rule="evenodd" clip-rule="evenodd" d="M111.628 112.23C112.128 111.73 112.328 111.229 112.328 110.528C112.328 109.827 112.028 109.326 111.628 108.825C110.726 107.924 109.124 107.924 108.223 108.825C107.722 109.326 107.521 109.827 107.521 110.528C107.521 111.229 107.822 111.73 108.223 112.23C108.623 112.631 109.224 112.931 109.925 112.931C110.626 112.931 111.227 112.631 111.628 112.23Z" fill="#0D022B"/>
<path fill-rule="evenodd" clip-rule="evenodd" d="M118.338 118.539C118.838 118.139 119.139 117.538 119.139 116.837C119.139 116.136 118.838 115.635 118.338 115.134C117.336 114.233 115.734 114.233 114.832 115.134C114.332 115.635 114.031 116.136 114.031 116.837C114.031 117.538 114.332 118.039 114.832 118.539C115.333 119.04 116.034 119.241 116.635 119.241C117.136 119.341 117.837 119.14 118.338 118.539Z" fill="#0D022B"/>
<path fill-rule="evenodd" clip-rule="evenodd" d="M125.149 125.249C125.55 124.849 125.85 124.248 125.85 123.547C125.85 122.846 125.55 122.345 125.149 121.844C124.248 120.943 122.645 120.943 121.744 121.844C121.343 122.345 121.043 122.846 121.043 123.547C121.043 124.248 121.343 124.749 121.744 125.249C122.245 125.75 122.745 125.951 123.446 125.951C123.947 126.051 124.648 125.75 125.149 125.249Z" fill="#0D022B"/>
<path fill-rule="evenodd" clip-rule="evenodd" d="M131.86 132.059C132.261 131.658 132.561 131.058 132.561 130.357C132.561 129.655 132.261 129.055 131.86 128.654C130.959 127.753 129.356 127.753 128.455 128.654C128.054 129.055 127.754 129.655 127.754 130.357C127.754 131.058 128.054 131.558 128.455 132.059C128.956 132.56 129.457 132.76 130.158 132.76C130.858 132.76 131.359 132.46 131.86 132.059Z" fill="#0D022B"/>
<path fill-rule="evenodd" clip-rule="evenodd" d="M138.169 138.769C138.669 138.368 138.87 137.767 138.87 137.066C138.87 136.365 138.569 135.865 138.169 135.364C137.267 134.463 135.665 134.463 134.764 135.364C134.363 135.865 134.062 136.365 134.062 137.066C134.062 137.767 134.363 138.368 134.764 138.769C135.264 139.27 135.765 139.47 136.466 139.47C137.067 139.47 137.768 139.27 138.169 138.769Z" fill="#0D022B"/>
<path fill-rule="evenodd" clip-rule="evenodd" d="M145.28 145.479C145.78 145.078 145.981 144.477 145.981 143.776C145.981 143.075 145.68 142.575 145.28 142.074C144.378 141.173 142.776 141.173 141.875 142.074C141.374 142.575 141.174 143.075 141.174 143.776C141.174 144.477 141.474 145.078 141.875 145.479C142.275 145.88 142.876 146.18 143.577 146.18C144.278 146.18 144.879 145.98 145.28 145.479Z" fill="#0D022B"/>
<path fill-rule="evenodd" clip-rule="evenodd" d="M151.99 152.189C152.491 151.688 152.791 151.187 152.791 150.486C152.791 149.785 152.491 149.285 151.99 148.784C150.989 147.883 149.386 147.883 148.485 148.784C147.984 149.285 147.684 149.785 147.684 150.486C147.684 151.187 147.984 151.688 148.485 152.189C148.986 152.589 149.687 152.89 150.287 152.89C150.788 152.99 151.389 152.69 151.99 152.189Z" fill="#0D022B"/>
<path fill-rule="evenodd" clip-rule="evenodd" d="M87.1961 73.6734C94.006 69.1667 101.517 67.0637 109.829 66.9636C117.941 66.9636 125.452 69.1667 132.463 73.6734L146.884 59.2522C135.567 50.6396 123.349 46.3333 109.829 46.3333C96.3094 46.3333 83.8911 50.6396 72.875 59.2522L87.1961 73.6734Z" fill="#0D022B"/>
<path fill-rule="evenodd" clip-rule="evenodd" d="M72.7735 132.86C68.1667 125.85 65.9636 118.439 65.9636 110.427C65.9636 102.316 68.1667 94.8045 72.7735 87.9944L58.4524 73.6733C50.0402 84.6897 45.834 96.9075 45.834 110.528C45.834 123.947 50.0402 136.265 58.5527 147.482L72.7735 132.86Z" fill="#0D022B"/>
<path fill-rule="evenodd" clip-rule="evenodd" d="M132.363 147.182C125.553 151.788 118.042 154.192 109.93 154.292C101.618 154.292 94.0067 152.089 87.1966 147.282L72.7754 161.603C83.8918 170.316 96.3101 174.622 109.93 174.522C123.45 174.421 135.668 170.015 146.684 161.603L132.363 147.182Z" fill="#0D022B"/>
<path fill-rule="evenodd" clip-rule="evenodd" d="M146.48 87.7942C151.087 94.8045 153.491 102.416 153.29 110.628C153.19 118.639 150.887 125.95 146.48 132.66L160.902 146.981C169.414 135.965 173.821 123.747 173.821 110.327C173.921 96.7073 169.614 84.289 160.902 73.1726L146.48 87.7942Z" fill="#0D022B"/>
<path fill-rule="evenodd" clip-rule="evenodd" d="M161.502 151.688C167.01 151.688 171.616 156.194 171.616 161.803C171.616 167.311 167.11 171.918 161.502 171.918C155.994 171.918 151.387 167.411 151.387 161.803C151.387 156.194 155.893 151.688 161.502 151.688Z" fill="#0D022B"/>
<path fill-rule="evenodd" clip-rule="evenodd" d="M58.3546 151.688C63.8627 151.688 68.3692 156.194 68.3692 161.803C68.3692 167.311 63.8627 171.917 58.3546 171.917C52.8465 171.917 48.3398 167.411 48.3398 161.803C48.3398 156.194 52.8465 151.688 58.3546 151.688Z" fill="#0D022B"/>
<path fill-rule="evenodd" clip-rule="evenodd" d="M161.702 48.5361C167.21 48.5361 171.717 53.0427 171.717 58.651C171.717 64.2592 167.21 68.7657 161.702 68.7657C156.194 68.7657 151.688 64.2592 151.688 58.651C151.688 53.0427 156.194 48.5361 161.702 48.5361Z" fill="#0D022B"/>
<path fill-rule="evenodd" clip-rule="evenodd" d="M58.1539 48.5361C63.662 48.5361 68.2688 53.0426 68.2688 58.5507C68.2688 64.0588 63.7621 68.5655 58.1539 68.5655C52.6459 68.5655 48.0391 64.0588 48.0391 58.5507C48.0391 53.0426 52.5456 48.5361 58.1539 48.5361Z" fill="#0D022B"/>
</g>
</g>
<defs>
<clipPath id="clip0_4_2807">
<rect width="220" height="220" fill="white" transform="translate(0 0.5)"/>
</clipPath>
</defs>
</svg>
