<svg width="220" height="221" viewBox="0 0 220 221" fill="none" xmlns="http://www.w3.org/2000/svg">
<g clip-path="url(#clip0_4_2849)">
<path d="M110 220.5C170.751 220.5 220 171.251 220 110.5C220 49.7487 170.751 0.5 110 0.5C49.2487 0.5 0 49.7487 0 110.5C0 171.251 49.2487 220.5 110 220.5Z" fill="#070510"/>
<path fill-rule="evenodd" clip-rule="evenodd" d="M59.1488 130.793C67.5792 151.139 87.4359 164.403 109.459 164.399C139.513 164.36 163.865 140.004 163.899 109.95C163.899 87.9271 150.632 68.0725 130.285 59.6454C109.938 51.2183 86.5177 55.8784 70.9461 71.4524C55.3745 87.0264 50.7184 110.447 59.1488 130.793ZM63.4735 109.968C63.4735 84.5708 84.062 63.9825 109.459 63.9825C134.856 63.9825 155.445 84.5708 155.445 109.968C155.445 135.365 134.856 155.954 109.459 155.954C84.062 155.954 63.4735 135.365 63.4735 109.968Z" fill="white"/>
</g>
<defs>
<clipPath id="clip0_4_2849">
<rect width="220" height="220" fill="white" transform="translate(0 0.5)"/>
</clipPath>
</defs>
</svg>
