<svg width="220" height="221" viewBox="0 0 220 221" fill="none" xmlns="http://www.w3.org/2000/svg">
<g clip-path="url(#clip0_4_2852)">
<path fill-rule="evenodd" clip-rule="evenodd" d="M110 0.5C170.751 0.5 220 49.7487 220 110.5C220 171.251 170.751 220.5 110 220.5C49.2487 220.5 0 171.251 0 110.5C0 49.7487 49.2487 0.5 110 0.5Z" fill="#0D251D"/>
<path d="M61.0852 124.907L46.7285 110.557L110.026 47.2593L124.382 61.6159L61.0852 124.907Z" fill="#0BC98D"/>
<path d="M109.977 173.803L95.627 159.447L158.918 96.156L173.274 110.506L109.977 173.803Z" fill="#0BC98D"/>
<path d="M109.405 173.225L47.3086 111.129L61.6652 96.7783L123.762 158.869L109.405 173.225Z" fill="#0BC98D"/>
<path d="M134.069 100.022L95.6699 61.6159L110.026 47.2593L148.426 85.665L134.069 100.022Z" fill="#0BC98D"/>
<path d="M108.96 125.133L94.6035 110.777L133.003 72.3711L147.36 86.7276L108.96 125.133Z" fill="#0BC98D"/>
</g>
<defs>
<clipPath id="clip0_4_2852">
<rect width="220" height="220" fill="white" transform="translate(0 0.5)"/>
</clipPath>
</defs>
</svg>
