<svg width="220" height="221" viewBox="0 0 220 221" fill="none" xmlns="http://www.w3.org/2000/svg">
<g clip-path="url(#clip0_4_2859)">
<path d="M110 220.5C170.751 220.5 220 171.251 220 110.5C220 49.7487 170.751 0.5 110 0.5C49.2487 0.5 0 49.7487 0 110.5C0 171.251 49.2487 220.5 110 220.5Z" fill="white"/>
<path fill-rule="evenodd" clip-rule="evenodd" d="M109.999 0.5C49.2615 0.5 0 49.7615 0 110.499C0 171.238 49.2615 220.498 109.999 220.498C170.738 220.498 219.998 171.238 219.998 110.499C220.176 49.7615 170.914 0.5 109.999 0.5ZM105.056 164.705C99.0526 168.942 91.8133 171.414 84.5742 171.414C71.8617 171.414 60.2085 164.528 51.3803 151.816C43.4348 139.633 39.0207 125.507 38.6676 111.029C38.6676 110.499 39.0207 109.97 39.5503 109.793L48.202 105.909C48.9084 105.556 49.6146 105.909 49.9677 106.615C49.9677 106.703 50.0119 106.792 50.0561 106.88C50.1001 106.968 50.1442 107.056 50.1442 107.145C50.1442 121.623 54.0287 135.218 60.9147 145.283C67.4476 154.817 75.9226 159.937 84.7508 159.937C89.518 159.937 94.2852 158.525 98.1697 155.876C98.6993 155.523 99.5823 155.7 99.9354 156.23C101.701 158.525 103.467 160.644 105.409 162.762C105.585 163.292 105.585 164.175 105.056 164.705ZM135.601 171.414C148.314 171.414 160.144 164.352 168.795 151.816C177.094 139.809 181.508 123.742 181.508 106.968C181.508 90.1946 176.917 74.3038 168.619 62.2974C166.853 59.8256 164.911 57.3537 162.616 55.0584C162.262 54.5287 161.733 54.5287 161.203 54.7053L152.551 58.5897C152.375 58.5897 152.198 58.7663 152.022 58.9428C151.669 59.4725 151.669 60.3552 152.198 60.8851C154.847 63.1804 157.319 65.8288 159.261 68.8303C166.147 78.8946 170.031 92.4899 170.031 106.968C170.031 121.446 166.147 135.042 159.261 145.106C152.728 154.464 144.253 159.761 135.425 159.761C126.597 159.761 118.121 154.641 111.589 145.106C104.703 135.042 100.818 121.446 100.818 106.968C100.818 99.3761 104.703 90.7244 109.823 90.7244C114.943 90.7244 118.828 99.3761 118.828 106.968C118.828 117.032 116.885 127.097 112.825 136.454C112.648 136.808 112.648 137.337 112.825 137.69C113.707 139.456 114.59 140.869 115.65 142.458C116.532 143.694 117.592 144.929 118.651 146.165C118.719 146.233 118.76 146.3 118.796 146.358C118.854 146.451 118.895 146.519 119.004 146.519C119.534 146.872 120.417 146.695 120.77 145.989C127.126 133.983 130.304 120.74 130.128 107.145C130.128 91.6071 121.123 79.4243 109.823 79.4243C98.5228 79.4243 89.518 91.6071 89.518 107.145C89.518 123.918 94.1087 139.809 102.407 151.816C111.235 164.352 122.889 171.414 135.601 171.414Z" fill="#A566FF"/>
</g>
<defs>
<clipPath id="clip0_4_2859">
<rect width="220" height="220" fill="white" transform="translate(0 0.5)"/>
</clipPath>
</defs>
</svg>
