<svg width="220" height="221" viewBox="0 0 220 221" fill="none" xmlns="http://www.w3.org/2000/svg">
<g clip-path="url(#clip0_4_2862)">
<path d="M110 220.5C170.751 220.5 220 171.251 220 110.5C220 49.7487 170.751 0.5 110 0.5C49.2487 0.5 0 49.7487 0 110.5C0 171.251 49.2487 220.5 110 220.5Z" fill="#EDF0F4"/>
<path d="M110.974 83.2573L134.434 97.4074L110.974 110.82L86.4531 97.4074L110.974 83.2573Z" fill="#EA259E"/>
<path d="M86.4531 97.9146L110.974 111.281L110.835 138.567L86.4531 125.662V97.9146Z" fill="#014C99"/>
<path d="M110.975 111.281L134.712 97.9146L135.403 125.662L111.297 139.074L110.975 111.281Z" fill="#08B0F9"/>
<path fill-rule="evenodd" clip-rule="evenodd" d="M159.739 81.5519L159.37 81.3215L135.955 67.909L111.435 53.8512L111.112 53.6667L110.836 53.805C110.375 53.9694 109.928 54.1698 109.499 54.4043L88.1126 66.895L61.6561 82.3817C60.5915 82.8695 60.5942 83.9552 60.5959 84.6525L60.5961 84.7324V85.2393L60.5499 124.509L60.5039 139.074C60.4578 139.95 60.8265 140.733 61.4719 141.01L91.892 158.294L109.868 168.526C110.236 168.757 110.651 168.895 111.02 168.895C111.335 168.909 111.646 168.811 111.896 168.619L137.891 153.639L160.015 140.918C160.845 140.549 161.352 139.719 161.213 138.936L161.306 83.7644C161.444 82.4739 160.384 81.8746 159.739 81.5519ZM110.928 85.0549L132.36 97.4995L110.974 109.806L103.691 105.704L89.311 97.5457L110.928 85.0549ZM112.034 82.2895L135.264 95.7942L156.927 83.3035L139.504 73.3017L110.974 56.9392L79.9544 75.0531L65.0208 83.7644L86.4072 95.8864L109.914 82.2435C110.56 81.8101 111.408 81.8286 112.034 82.2895ZM63.5459 86.2993L84.8401 98.3753L85.255 124.924C85.2088 125.754 85.6236 126.491 86.269 126.814L100.419 134.926L109.499 140.134V164.977L63.4537 138.797L63.5459 86.2993ZM109.545 112.341L87.7899 100.035L88.2048 124.555L109.499 136.77L109.545 112.341ZM112.449 140.18L121.529 134.926L135.541 126.906L135.679 126.814C135.955 126.675 136.278 126.445 136.509 126.122L136.647 125.938V125.708L136.601 108.101V98.4215L158.356 85.8384V107.271L158.31 138.521L129.134 155.298L112.403 164.931L112.449 140.18ZM112.449 112.341V136.816L133.881 124.509V99.9885L112.449 112.341Z" fill="#2F2F2F"/>
<path fill-rule="evenodd" clip-rule="evenodd" d="M110.331 59.7969C109.686 59.8891 109.133 60.304 108.856 60.8571C108.579 61.5025 108.626 62.1938 108.948 62.6547C109.317 63.2078 109.916 63.5303 110.607 63.5303C110.731 63.5219 110.854 63.5065 110.976 63.4843C111.76 63.3921 112.359 62.839 112.497 62.1476C112.692 61.532 112.533 60.8588 112.082 60.3962C111.643 59.9045 110.979 59.6776 110.331 59.7969ZM111.575 67.863C110.884 67.4942 110.101 67.5404 109.547 67.909C109.04 68.1857 108.718 68.7386 108.626 69.3379C108.579 69.9831 108.856 70.5362 109.225 70.8589C109.584 71.2008 110.066 71.3836 110.561 71.366C110.848 71.361 111.13 71.2983 111.391 71.1815C112.129 70.9051 112.543 70.2137 112.543 69.5222C112.589 68.877 112.175 68.2317 111.575 67.863ZM109.593 75.6985C110.193 75.3758 110.976 75.3758 111.621 75.7907C112.218 76.1347 112.566 76.7892 112.517 77.4761C112.468 78.1629 112.03 78.7615 111.391 79.017C111.13 79.134 110.848 79.1967 110.561 79.2015C110.132 79.2185 109.709 79.0883 109.363 78.8328C108.856 78.5101 108.579 77.8188 108.626 77.1734C108.672 76.5281 109.04 75.975 109.593 75.6985ZM80.3254 127.459C79.634 127.643 79.1271 128.197 78.9889 128.888C78.8504 129.625 79.0809 130.317 79.588 130.732C79.9075 131.008 80.318 131.156 80.7402 131.146C80.8799 131.147 81.0191 131.132 81.1551 131.1C81.7543 130.962 82.2614 130.547 82.4456 130.04C82.7683 129.395 82.6761 128.611 82.1229 128.012C81.6888 127.484 80.9813 127.266 80.3254 127.459ZM140.336 131.1C140.188 131.153 140.033 131.185 139.876 131.192C139.415 131.192 139 131.054 138.723 130.732C138.216 130.317 137.94 129.625 138.078 128.888C138.216 128.197 138.723 127.643 139.368 127.459C140.043 127.24 140.784 127.439 141.258 127.966C141.765 128.565 141.904 129.395 141.581 130.086C141.443 130.547 140.936 130.962 140.336 131.1ZM73.5961 131.423C72.9048 131.653 72.4439 132.299 72.3977 133.036C72.3056 133.82 72.6743 134.557 73.2734 134.88C73.5488 135.056 73.8682 135.152 74.1952 135.156C74.4666 135.15 74.7335 135.088 74.9788 134.972C75.5779 134.695 75.9928 134.142 76.039 133.635C76.1773 132.944 75.9006 132.206 75.3475 131.746C74.8758 131.307 74.193 131.182 73.5961 131.423ZM147.066 135.018C146.858 135.088 146.639 135.119 146.421 135.11C146.006 135.121 145.6 134.991 145.268 134.742C144.755 134.289 144.511 133.604 144.623 132.929C144.736 132.254 145.189 131.684 145.821 131.423C146.455 131.178 147.174 131.321 147.665 131.792C148.218 132.299 148.402 132.99 148.218 133.681C148.172 134.234 147.711 134.788 147.066 135.018ZM68.526 135.525C67.9729 135.202 67.2816 135.202 66.7746 135.525C66.1753 135.848 65.8066 136.447 65.8066 137.184C65.8066 137.922 66.1753 138.567 66.7746 138.844C67.0251 138.994 67.312 139.074 67.6042 139.074C67.9615 139.08 68.3132 138.984 68.6182 138.798C69.2174 138.383 69.54 137.691 69.494 137.092C69.494 136.447 69.1252 135.848 68.526 135.479V135.525ZM153.012 139.074C152.604 139.076 152.211 138.929 151.905 138.659C151.444 138.337 151.168 137.737 151.214 137.092C151.242 136.449 151.587 135.862 152.136 135.525C152.689 135.156 153.426 135.156 154.026 135.571C154.671 135.986 154.993 136.723 154.855 137.461C154.809 138.014 154.348 138.659 153.703 138.936C153.484 139.027 153.249 139.074 153.012 139.074Z" fill="#2F2F2F"/>
</g>
<defs>
<clipPath id="clip0_4_2862">
<rect width="220" height="220" fill="white" transform="translate(0 0.5)"/>
</clipPath>
</defs>
</svg>
