<svg width="220" height="221" viewBox="0 0 220 221" fill="none" xmlns="http://www.w3.org/2000/svg">
<g clip-path="url(#clip0_4_2869)">
<path d="M110 220.5C170.751 220.5 220 171.251 220 110.5C220 49.7487 170.751 0.5 110 0.5C49.2487 0.5 0 49.7487 0 110.5C0 171.251 49.2487 220.5 110 220.5Z" fill="#7866D5"/>
<path d="M154.525 56.9739C158.249 57.4394 162.127 57.7496 165.851 58.3702C173.143 59.7667 175.625 63.4902 174.384 70.9372C174.074 73.7299 171.902 75.902 169.109 76.3675C167.402 76.6777 165.541 76.8328 163.834 76.6777C139.631 76.6777 115.583 76.8328 91.3799 76.8328C87.8115 76.8328 84.0878 77.1432 80.5194 77.7638C68.573 79.6255 63.9185 84.5904 62.9878 96.6918C62.5223 102.277 62.5223 102.277 68.2628 102.277H164.455C165.385 102.277 166.316 102.277 167.247 102.277C168.799 102.277 170.195 102.743 171.591 103.518C175.936 106.311 174.85 110.81 174.694 114.844C174.539 118.102 172.522 119.964 169.109 120.585C167.713 120.895 166.316 120.895 164.765 120.895C131.873 120.895 98.9821 120.895 66.0907 120.895C62.5223 120.895 62.5223 120.895 62.8325 124.463C62.9878 127.721 63.298 130.98 64.0738 134.238C65.6252 140.133 69.1936 143.857 75.2443 145.564C81.7605 147.425 88.5871 147.735 95.2585 147.891C118.686 147.891 142.268 147.891 165.851 147.891C168.799 147.891 171.591 148.201 173.453 150.994C176.401 155.648 174.85 161.699 170.195 164.647C169.574 165.112 168.954 165.422 168.178 165.578C163.058 167.284 157.783 167.595 152.353 167.75C130.167 168.215 108.136 168.215 86.1048 167.75C79.2782 167.595 72.4518 166.819 65.7803 165.422C50.1104 162.164 42.1979 154.097 39.5603 138.271C38.9397 134.703 38.6294 130.98 38.1641 127.256V98.3985C38.4743 95.6058 38.7846 92.6579 39.0948 89.8652C41.1119 72.0232 49.1795 63.1798 66.7113 59.1461C72.9171 57.7496 79.4333 57.4394 85.6393 56.8188L154.525 56.9739Z" fill="white"/>
<path fill-rule="evenodd" clip-rule="evenodd" d="M85.9493 170.542C96.9649 170.697 107.98 170.852 119.151 170.852C124.756 170.852 130.361 170.813 135.946 170.775C141.492 170.736 147.019 170.697 152.508 170.697C157.473 170.542 163.368 170.232 169.109 168.37C170.04 168.06 170.97 167.594 171.746 167.129C174.694 165.267 176.711 162.475 177.487 159.216C178.262 155.958 177.797 152.545 175.935 149.597C173.143 145.098 168.333 145.098 166.006 145.098H150.491C132.339 145.098 113.721 145.098 95.4133 144.943C89.5177 144.943 82.6913 144.633 76.0199 142.771C71.0551 141.374 68.1073 138.426 66.8661 133.617C66.0904 130.514 65.78 127.411 65.6249 124.153V123.998V123.532H66.2455H164.765C166.316 123.532 167.868 123.532 169.574 123.222C174.384 122.291 177.021 119.343 177.332 114.999C177.332 114.766 177.37 114.495 177.409 114.223C177.448 113.952 177.487 113.68 177.487 113.448L177.493 113.371C177.803 109.654 178.226 104.581 172.987 101.191C171.281 100.26 169.264 99.6396 167.247 99.6396H68.2624H65.6249C65.6249 99.2692 65.6603 98.8637 65.6972 98.4397C65.7377 97.9753 65.78 97.4887 65.78 97.002C66.711 86.1417 70.2794 82.2629 80.9846 80.5562C84.3979 79.9356 87.9663 79.6254 91.3794 79.6254C115.427 79.6254 139.631 79.4702 163.679 79.3151C165.695 79.3151 167.557 79.16 169.419 78.8496C173.608 78.229 176.711 74.971 177.176 71.0922C178.728 62.0937 175.315 57.129 166.471 55.4223C164.395 54.9609 162.405 54.7568 160.436 54.555C159.757 54.4853 159.08 54.4158 158.404 54.3363C157.317 54.3363 156.076 54.1812 154.99 54.0259H154.835H85.7942H85.484L80.8295 54.4914C76.0199 54.9568 71.2102 55.4223 66.2455 56.5084C47.4726 60.6974 38.474 70.4716 36.3019 89.555C36.2289 90.432 36.1213 91.3091 36.0118 92.2025C35.8888 93.2053 35.7634 94.2287 35.6813 95.2953L35.3711 98.088V127.256V127.566C35.5262 128.807 35.6813 129.893 35.8366 130.979C35.9917 133.462 36.3019 136.099 36.7674 138.737C39.5601 155.493 48.2484 164.491 65.1595 168.06C71.9861 169.611 78.9676 170.387 85.9493 170.542ZM41.2667 130.359C41.2667 129.273 41.1114 128.187 40.9563 127.101V98.7086L41.2667 96.0712C41.3487 95.0044 41.4743 93.981 41.5971 92.9782C41.7067 92.0848 41.8142 91.2077 41.8873 90.3306C43.7491 73.5747 50.8859 65.662 67.1765 61.6282C71.1686 60.6966 75.0468 60.3358 79.1045 59.9584C79.7775 59.8957 80.4555 59.8326 81.1397 59.7664L85.7942 59.3009H154.37C155.456 59.3009 156.697 59.4562 157.783 59.6113C160.265 59.7664 162.748 60.0768 165.23 60.5421C171.126 61.7834 172.677 63.8003 171.591 70.0061C171.436 71.5577 170.195 72.7988 168.643 72.9539C167.092 73.2643 165.54 73.2643 163.834 73.2643C151.732 73.2643 139.669 73.3032 127.607 73.3419C115.544 73.3807 103.481 73.4194 91.3794 73.4194C87.5008 73.5747 83.7773 73.8849 80.0536 74.5055C66.8661 76.5223 61.2809 82.5733 60.1948 95.9159C60.1785 96.258 60.1605 96.588 60.1431 96.9064C59.995 99.6233 59.8921 101.509 61.2809 102.898C62.8322 104.449 64.8493 104.449 68.2624 104.449H167.557C168.488 104.449 169.574 104.759 170.35 105.225C172.522 106.621 172.522 108.483 172.212 112.362C172.212 112.672 172.173 112.944 172.134 113.215C172.095 113.487 172.057 113.758 172.057 114.068C171.901 115.62 171.281 116.706 168.798 117.171C167.557 117.482 166.161 117.482 164.92 117.482H66.2455C64.0734 117.482 62.3667 117.482 61.1256 118.878C59.9233 120.23 60.0313 121.729 60.1803 123.796C60.1851 123.862 60.1898 123.93 60.1948 123.998V124.153C60.1948 127.566 60.6603 131.135 61.436 134.548C63.1426 141.529 67.4867 146.029 74.4684 147.891C81.7603 150.063 89.0524 150.373 95.2582 150.373C113.566 150.528 132.339 150.528 150.336 150.528H165.851C168.798 150.528 170.04 150.993 170.97 152.39C172.057 154.097 172.367 155.958 171.901 157.82C171.436 159.682 170.195 161.233 168.643 162.319C168.411 162.397 168.178 162.513 167.945 162.63C167.712 162.746 167.48 162.862 167.247 162.94C162.282 164.491 156.852 164.802 152.353 164.957C130.322 165.422 107.98 165.422 86.1046 164.957C79.4331 164.802 72.7617 164.026 66.2455 162.63C51.6615 159.527 44.68 152.39 42.1975 137.806L41.2667 130.359Z" fill="white"/>
</g>
<defs>
<clipPath id="clip0_4_2869">
<rect width="220" height="220" fill="white" transform="translate(0 0.5)"/>
</clipPath>
</defs>
</svg>
