<svg width="220" height="221" viewBox="0 0 220 221" fill="none" xmlns="http://www.w3.org/2000/svg">
<g clip-path="url(#clip0_4_2873)">
<path d="M110 220.5C170.751 220.5 220 171.251 220 110.5C220 49.7487 170.751 0.5 110 0.5C49.2487 0.5 0 49.7487 0 110.5C0 171.251 49.2487 220.5 110 220.5Z" fill="url(#paint0_linear_4_2873)"/>
<path fill-rule="evenodd" clip-rule="evenodd" d="M132.199 53.2093C137.128 53.9578 141.385 57.1333 143.548 61.6729C143.843 62.2922 144.212 63.2435 144.369 63.7869C145.004 65.9898 144.977 64.8377 144.978 89.0456V111.326H129.995H115.013V89.0456C115.014 70.0074 115.037 66.6199 115.175 65.7698C116.227 59.2873 121.263 54.2334 127.682 53.2184C128.941 53.0193 130.922 53.0153 132.199 53.2093ZM175.494 71.615C176.475 71.848 178.053 72.6404 178.878 73.3154C179.833 74.0951 180.601 75.0749 181.171 76.2389C182.112 78.1657 182.037 76.6052 182.075 94.9944L182.109 111.326H173.458H164.808V95.3072C164.808 77.966 164.789 78.5435 165.404 76.9143C166.159 74.9106 167.693 73.2478 169.71 72.2459C171.471 71.3715 173.524 71.1475 175.494 71.615ZM75.7713 72.7209C77.6165 73.0962 79.1994 73.971 80.6411 75.4126C82.2979 77.069 83.2234 78.9229 83.4995 81.1383C83.5759 81.7515 83.6159 87.0907 83.6159 96.6992V111.326H73.8085H64.0013L64.0313 95.9859L64.0616 80.6455L64.3655 79.6764C65.4993 76.0619 68.2577 73.4753 71.7731 72.7297C72.8068 72.5106 74.716 72.5064 75.7713 72.7209ZM30.3583 92.4937C33.7265 93.0903 36.4574 95.309 37.7223 98.4765C38.341 100.026 38.3625 100.26 38.4178 106.066L38.4692 111.437H28.8742H19.2793V106.199C19.2793 101.849 19.309 100.818 19.454 100.113C20.2354 96.3135 23.1506 93.371 26.9358 92.561C27.8547 92.3643 29.4506 92.3331 30.3583 92.4937ZM63.8957 119.176C63.8949 127.678 63.8638 128.196 63.2406 130.057C62.5999 131.969 61.7474 133.391 60.3815 134.828C55.7843 139.663 48.4916 140.169 43.2644 136.016C41.2384 134.405 39.6304 131.931 38.9141 129.321L38.6167 128.237L38.5836 119.837L38.5506 111.437H51.2233H63.8964L63.8957 119.176ZM114.874 134.323L114.84 157.21L114.589 158.312C113.921 161.24 112.814 163.469 110.977 165.582C108.708 168.19 105.463 170.032 102.013 170.669C100.464 170.955 97.8033 170.926 96.2973 170.607C93.0325 169.916 90.3848 168.455 88.1046 166.087C85.9811 163.883 84.7495 161.575 83.985 158.367C83.7996 157.589 83.786 156.178 83.7552 134.489L83.7226 111.437H99.3155H114.908L114.874 134.323ZM164.672 129.641L164.642 147.846L164.338 148.814C162.962 153.202 159.304 155.976 154.893 155.976C150.41 155.976 146.702 153.101 145.4 148.614L145.145 147.736L145.113 129.586L145.083 111.437H154.893H164.702L164.672 129.641ZM200.912 116.807C200.853 122.672 200.837 122.844 200.171 124.507C199.515 126.15 198.167 127.835 196.706 128.839C194.316 130.484 191.034 130.939 188.291 130.005C185.041 128.9 182.651 126.17 181.948 122.76C181.803 122.054 181.773 121.029 181.773 116.674V111.437H191.369H200.963L200.912 116.807Z" fill="white"/>
</g>
<defs>
<linearGradient id="paint0_linear_4_2873" x1="71.6624" y1="-49.7353" x2="-45.5534" y2="153.85" gradientUnits="userSpaceOnUse">
<stop stop-color="#6B6EEC"/>
<stop offset="1" stop-color="#7CEECA"/>
</linearGradient>
<clipPath id="clip0_4_2873">
<rect width="220" height="220" fill="white" transform="translate(0 0.5)"/>
</clipPath>
</defs>
</svg>
