<svg width="220" height="221" viewBox="0 0 220 221" fill="none" xmlns="http://www.w3.org/2000/svg">
<g clip-path="url(#clip0_4_2876)">
<path fill-rule="evenodd" clip-rule="evenodd" d="M110 220.5C49.5 220.5 0 171.001 0 109.952C0.55 49.4535 49.5 -0.0454497 110.55 0.504539C171.05 1.05453 220 50.0035 220 111.602C219.45 171.551 170.5 220.5 110 220.5Z" fill="black"/>
<path fill-rule="evenodd" clip-rule="evenodd" d="M74.8733 84.3934L109.193 37.1667L143.22 84.1001L157.887 154.207L109.193 183.833L60.5 154.207L74.8733 84.3934ZM79.2733 97.8867L68.42 150.98L103.913 172.687L79.2733 97.8867ZM82.7933 85.8601L109.193 49.4867L135.593 85.8601L109.193 165.647L82.7933 85.8601ZM138.82 97.8867L114.18 172.687L149.673 150.98L138.82 97.8867Z" fill="white"/>
</g>
<defs>
<clipPath id="clip0_4_2876">
<rect width="220" height="220" fill="white" transform="translate(0 0.5)"/>
</clipPath>
</defs>
</svg>
