<svg width="220" height="221" viewBox="0 0 220 221" fill="none" xmlns="http://www.w3.org/2000/svg">
<g clip-path="url(#clip0_4_2879)">
<path d="M110 220.5C170.751 220.5 220 171.251 220 110.5C220 49.7487 170.751 0.5 110 0.5C49.2487 0.5 0 49.7487 0 110.5C0 171.251 49.2487 220.5 110 220.5Z" fill="#EDF0F4"/>
<path fill-rule="evenodd" clip-rule="evenodd" d="M109.224 183.536C109.709 183.73 110.228 183.83 110.751 183.829C111.309 183.83 111.861 183.716 112.372 183.492L161.097 162.679C162.101 162.259 162.892 161.453 163.293 160.442L183.034 111.266C183.443 110.255 183.432 109.123 183.001 108.121L162.191 59.3986C161.767 58.3971 160.96 57.6064 159.95 57.203L110.778 37.4617C109.767 37.056 108.636 37.069 107.634 37.4976L58.9015 58.3082C57.8999 58.7322 57.1094 59.5391 56.7059 60.5492L36.9645 109.724C36.5551 110.733 36.5673 111.865 36.9983 112.865L57.811 161.597C58.2323 162.6 59.0388 163.391 60.0491 163.793L109.224 183.536ZM110.706 175.293L64.6875 156.82L45.2072 111.217L63.6799 65.203L109.293 45.7205L155.311 64.1968L174.788 109.799L156.308 155.817L110.706 175.293Z" fill="black"/>
<path d="M120.585 109.728L100.876 131.433H131.937V140.785H88.0723V131.433L107.597 109.819L88.1595 89.5656V80.2134H131.937V89.5656H101.328L120.585 109.728Z" fill="black"/>
</g>
<defs>
<clipPath id="clip0_4_2879">
<rect width="220" height="220" fill="white" transform="translate(0 0.5)"/>
</clipPath>
</defs>
</svg>
