<svg width="220" height="221" viewBox="0 0 220 221" fill="none" xmlns="http://www.w3.org/2000/svg">
<g clip-path="url(#clip0_4_2883)">
<path d="M110 220.5C170.751 220.5 220 171.251 220 110.5C220 49.7487 170.751 0.5 110 0.5C49.2487 0.5 0 49.7487 0 110.5C0 171.251 49.2487 220.5 110 220.5Z" fill="#EDF0F4"/>
<path fill-rule="evenodd" clip-rule="evenodd" d="M172.111 139.395L167.636 104.556L166.861 98.5312L166.622 96.324C165.094 82.4503 153.494 71.8731 139.539 71.6268V46.3333L126.773 53.6708V49.7933L121.464 52.9549L115.438 56.4149V51.7618L104.223 58.0853V49.3757L91.6958 56.6535V51.5232L75.1714 61.1873V71.7462C61.868 72.7809 51.1762 83.122 49.6989 96.3836L49.4602 98.5312C49.3911 99.1006 49.3271 99.6801 49.2623 100.267C49.103 101.708 48.939 103.192 48.6847 104.676L44.2106 139.454C42.8541 148.571 48.164 157.366 56.8632 160.411C65.5623 163.457 75.1985 159.894 79.8244 151.922L90.6816 133.549C92.0536 131.222 94.5592 129.731 97.2436 129.731H119.077C121.762 129.731 124.267 131.162 125.639 133.549L136.497 151.922C141.122 159.917 150.784 163.488 159.497 160.423C168.21 157.358 173.509 148.525 172.111 139.395ZM75.6486 85.9441C70.0478 85.9441 65.5073 90.4845 65.5073 96.0853C65.5073 101.686 70.0478 106.227 75.6486 106.227C81.2494 106.227 85.7899 101.686 85.7899 96.0853C85.7899 90.4845 81.2494 85.9441 75.6486 85.9441ZM130.65 96.0853C130.65 90.4845 135.191 85.9441 140.792 85.9441C146.393 85.9441 150.933 90.4845 150.933 96.0853C150.933 101.686 146.393 106.227 140.792 106.227C135.191 106.227 130.65 101.686 130.65 96.0853ZM135.84 96.0853C135.84 98.8297 138.048 101.064 140.792 101.096C143.536 101.096 145.743 98.8295 145.743 96.0853C145.743 93.3412 143.536 91.0743 140.792 91.0743C138.048 91.0743 135.84 93.3412 135.84 96.0853ZM70.6973 96.0853C70.6971 98.8297 72.9045 101.064 75.6486 101.096C78.3927 101.096 80.5999 98.8295 80.5999 96.0853C80.5999 93.3412 78.3927 91.0743 75.6486 91.0743C72.9045 91.0743 70.6973 93.3412 70.6973 96.0853ZM104.879 111.655H97.9595V104.676H104.939V111.655H104.879ZM110.606 111.655H117.586V104.676H110.606V111.655ZM151.711 156.116C156.188 156.553 160.602 154.816 163.58 151.445C166.324 148.343 167.577 144.167 167.099 140.051L162.625 105.272L161.85 99.1278L161.611 96.9802C160.367 85.5481 150.74 76.8707 139.241 76.8168C134.084 76.8223 129.088 78.614 125.102 81.8875C120.449 85.7054 114.782 87.7934 109.115 87.7934H107.385C101.529 87.7534 95.8728 85.6639 91.3975 81.8875C84.9715 76.7571 76.2664 75.5199 68.6654 78.6571C61.0644 81.7941 55.7659 88.8108 54.8291 96.9802L54.5904 99.0682C54.5235 99.6383 54.4609 100.218 54.3981 100.803C54.2371 102.299 54.0723 103.831 53.8149 105.332L49.3408 140.051C48.8011 144.17 50.0619 148.322 52.8009 151.445C55.7514 154.867 60.181 156.641 64.6776 156.201C69.1742 155.763 73.1769 153.165 75.4101 149.238L86.2673 130.864C88.534 126.987 92.7695 124.541 97.2436 124.541H119.137C123.654 124.569 127.823 126.97 130.113 130.864L140.971 149.238C143.24 153.121 147.235 155.679 151.711 156.116Z" fill="url(#paint0_linear_4_2883)"/>
<path d="M94.7383 144.943C101.42 151.505 115.14 151.445 121.702 144.764" stroke="url(#paint1_linear_4_2883)" stroke-width="8"/>
</g>
<defs>
<linearGradient id="paint0_linear_4_2883" x1="14.5388" y1="117.075" x2="101.914" y2="214.712" gradientUnits="userSpaceOnUse">
<stop stop-color="#8D5AE9"/>
<stop offset="1" stop-color="#63D1DF"/>
</linearGradient>
<linearGradient id="paint1_linear_4_2883" x1="60.0025" y1="140.538" x2="60.6122" y2="156.138" gradientUnits="userSpaceOnUse">
<stop stop-color="#7B8DE5"/>
<stop offset="1" stop-color="#70ADE2"/>
</linearGradient>
<clipPath id="clip0_4_2883">
<rect width="220" height="220" fill="white" transform="translate(0 0.5)"/>
</clipPath>
</defs>
</svg>
