<svg width="220" height="221" viewBox="0 0 220 221" fill="none" xmlns="http://www.w3.org/2000/svg">
<g clip-path="url(#clip0_4_2914)">
<path d="M110 220.5C170.751 220.5 220 171.251 220 110.5C220 49.7487 170.751 0.5 110 0.5C49.2487 0.5 0 49.7487 0 110.5C0 171.251 49.2487 220.5 110 220.5Z" fill="#4096D0"/>
<path fill-rule="evenodd" clip-rule="evenodd" d="M131.795 68.3336H176.449C178.211 68.3222 179.651 69.7401 179.666 71.503V114.678C179.666 116.307 178.325 117.627 176.675 117.627H132.813L118.554 150.834H98.1835L111.425 117.627H76.7955V134.739H98.1835L92.0717 150.834H61.471C59.8073 150.834 58.4598 149.5 58.4598 147.864V117.634H42.166L48.2848 101.533H58.4598V71.2693C58.4711 69.6393 59.7997 68.326 61.4298 68.3336H124.666L118.554 84.4418H76.7955V101.54H118.554L131.795 68.3336ZM159.784 101.54C161.207 101.54 162.355 100.399 162.355 98.9961L162.362 86.9786C162.343 85.5651 161.183 84.4333 159.77 84.4486H146.054L138.925 101.54H159.784Z" fill="white"/>
</g>
<defs>
<clipPath id="clip0_4_2914">
<rect width="220" height="220" fill="white" transform="translate(0 0.5)"/>
</clipPath>
</defs>
</svg>
