<svg width="220" height="221" viewBox="0 0 220 221" fill="none" xmlns="http://www.w3.org/2000/svg">
<g clip-path="url(#clip0_4_2900)">
<mask id="mask0_4_2900" style="mask-type:luminance" maskUnits="userSpaceOnUse" x="0" y="0" width="220" height="221">
<path d="M220 0.5H0V220.5H220V0.5Z" fill="white"/>
</mask>
<g mask="url(#mask0_4_2900)">
<path d="M110 220.5C170.751 220.5 220 171.251 220 110.5C220 49.7487 170.751 0.5 110 0.5C49.2487 0.5 0 49.7487 0 110.5C0 171.251 49.2487 220.5 110 220.5Z" fill="#EDF0F4"/>
<path fill-rule="evenodd" clip-rule="evenodd" d="M69.666 103.655L110.246 82.2931L150.493 103.788L110.069 44.5L69.666 103.655ZM71.2139 109.825L110.29 88.9734L148.857 109.672L110.312 130.546L71.2139 109.825ZM69.666 115.796C83.9075 123.359 98.7682 131.276 110.246 137.402L150.493 115.796C135.92 137.446 123.778 155.469 110.246 175.416C107.699 171.677 105.102 167.864 102.483 164.021L102.424 163.935C91.1259 147.349 79.4368 130.191 69.666 115.796Z" fill="#3AB83A"/>
<path fill-rule="evenodd" clip-rule="evenodd" d="M110.072 44.5L110.249 82.2945L150.497 103.788L110.072 44.5ZM110.293 88.9734L148.861 109.672L110.315 130.546L110.293 88.9734ZM110.249 137.402L150.497 115.796C135.924 137.446 110.249 175.416 110.249 175.416V137.402Z" fill="#0B8311"/>
<path d="M71.2129 109.825L110.291 113.032L148.858 109.692L110.311 130.568L71.2129 109.825Z" fill="#0B8311"/>
<path d="M110.293 113.032L148.86 109.692L110.315 130.568L110.293 113.032Z" fill="#146714"/>
</g>
</g>
<defs>
<clipPath id="clip0_4_2900">
<rect width="220" height="220" fill="white" transform="translate(0 0.5)"/>
</clipPath>
</defs>
</svg>
