<svg width="220" height="221" viewBox="0 0 220 221" fill="none" xmlns="http://www.w3.org/2000/svg">
<g clip-path="url(#clip0_4_2892)">
<path d="M110 220.5C170.751 220.5 220 171.251 220 110.5C220 49.7487 170.751 0.5 110 0.5C49.2487 0.5 0 49.7487 0 110.5C0 171.251 49.2487 220.5 110 220.5Z" fill="#EDF0F4"/>
<path d="M109.701 44.5L108.826 47.4724V133.715L109.701 134.589L149.734 110.925L109.701 44.5Z" fill="#343434"/>
<path d="M109.699 44.5L69.666 110.925L109.699 134.589V92.7284V44.5Z" fill="#8C8C8C"/>
<path d="M109.698 142.168L109.205 142.769V173.491L109.698 174.93L149.755 118.517L109.698 142.168Z" fill="#3C3C3B"/>
<path d="M109.699 174.93V142.168L69.666 118.517L109.699 174.93Z" fill="#8C8C8C"/>
<path d="M109.699 134.588L149.732 110.925L109.699 92.7285V134.588Z" fill="#141414"/>
<path d="M69.666 110.925L109.699 134.588V92.7285L69.666 110.925Z" fill="#393939"/>
</g>
<defs>
<clipPath id="clip0_4_2892">
<rect width="220" height="220" fill="white" transform="translate(0 0.5)"/>
</clipPath>
</defs>
</svg>
