<svg width="220" height="221" viewBox="0 0 220 221" fill="none" xmlns="http://www.w3.org/2000/svg">
<g clip-path="url(#clip0_4_2910)">
<path d="M110 220.5C170.751 220.5 220 171.251 220 110.5C220 49.7487 170.751 0.5 110 0.5C49.2487 0.5 0 49.7487 0 110.5C0 171.251 49.2487 220.5 110 220.5Z" fill="#06233A"/>
<path d="M152.263 93.7145C142.852 84.3035 127.167 84.3035 117.756 93.7145L114.096 97.3744L117.494 100.773L121.154 97.113C128.735 89.5318 141.283 89.5318 148.864 97.113C152.524 100.773 154.615 105.74 154.615 110.968C154.615 116.196 152.524 121.163 148.864 124.823C145.204 128.483 140.237 130.574 135.009 130.574C129.781 130.574 124.814 128.483 121.154 124.823L117.494 121.163L114.096 124.562L117.756 128.222C122.461 132.927 128.735 135.28 135.009 135.28C141.283 135.28 147.557 132.927 152.263 128.222C156.968 123.516 159.321 117.504 159.321 110.968C159.321 104.433 156.968 98.42 152.263 93.7145Z" fill="#11DCBE"/>
<path fill-rule="evenodd" clip-rule="evenodd" d="M127.95 103.91L117.493 114.367L107.559 124.301L103.899 127.96C99.1937 132.666 92.9197 135.019 86.6458 135.019C80.3718 135.019 74.0977 132.666 69.3923 127.96C64.9481 123.255 62.334 117.242 62.334 110.707C62.334 104.172 64.6867 98.1589 69.3923 93.4533C78.8032 84.0423 94.4883 84.0423 103.899 93.4533L114.356 103.91L114.094 104.172L110.957 107.308L107.559 110.707L103.638 114.628L96.841 121.425C93.9654 124.301 90.3055 125.869 86.3844 125.869C82.4631 125.869 78.8032 124.301 75.9276 121.425C73.052 118.549 71.4836 114.89 71.4836 110.968C71.4836 107.047 73.052 103.387 75.9276 100.512C78.8032 97.6361 82.4631 96.0675 86.3844 96.0675C89.5214 96.0675 92.397 97.1132 95.0111 98.943C95.7953 99.4659 96.3181 99.9888 96.841 100.512L98.9323 102.341L96.0567 105.217L81.6788 119.595C82.9859 120.379 84.5544 120.902 86.3844 120.902C88.9985 120.902 91.6127 119.856 93.4425 118.027L93.9654 117.504L107.298 104.172L100.239 97.1132C96.5796 93.4533 91.6127 91.362 86.3844 91.362C81.1559 91.362 76.189 93.4533 72.7906 97.1132C69.1309 100.773 67.0394 105.74 67.0394 110.968C67.0394 116.197 69.1309 121.164 72.7906 124.823C80.3718 132.404 92.9197 132.404 100.501 124.823L101.024 124.301L103.115 122.209L104.161 121.164L114.356 110.968L122.983 102.08L124.551 100.512C127.427 97.6361 131.087 96.0675 135.008 96.0675C138.929 96.0675 142.589 97.6361 145.464 100.512C148.34 103.387 149.909 107.047 149.909 110.968C149.909 114.89 148.34 118.549 145.464 121.425C142.589 124.301 138.929 125.869 135.008 125.869C131.087 125.869 127.427 124.301 124.551 121.425L120.891 117.765L124.29 114.367L127.95 118.027C129.78 119.856 132.394 120.902 135.008 120.902C137.622 120.902 140.236 119.856 142.066 118.027C143.896 116.197 144.942 113.582 144.942 110.968C144.942 108.354 143.896 105.74 142.066 103.91C140.236 102.08 137.622 101.035 135.008 101.035C132.394 101.035 129.78 102.08 127.95 103.91ZM79.326 103.91C77.4962 105.74 76.4505 108.354 76.4505 110.968C76.4505 112.798 76.9733 114.628 78.0191 116.197L91.6127 102.603C90.0441 101.557 88.2142 101.035 86.3844 101.035C83.7702 101.035 81.1559 102.08 79.326 103.91Z" fill="#11DCBE"/>
</g>
<defs>
<clipPath id="clip0_4_2910">
<rect width="220" height="220" fill="white" transform="translate(0 0.5)"/>
</clipPath>
</defs>
</svg>
