<svg width="220" height="221" viewBox="0 0 220 221" fill="none" xmlns="http://www.w3.org/2000/svg">
<g clip-path="url(#clip0_4_2887)">
<path d="M110 220.5C170.751 220.5 220 171.251 220 110.5C220 49.7487 170.751 0.5 110 0.5C49.2487 0.5 0 49.7487 0 110.5C0 171.251 49.2487 220.5 110 220.5Z" fill="#EDF0F4"/>
<path d="M126.656 110.965L110.711 127.124L94.5527 110.965L110.711 95.02L126.656 110.965Z" fill="url(#paint0_linear_4_2887)" stroke="url(#paint1_linear_4_2887)" stroke-width="2"/>
<path fill-rule="evenodd" clip-rule="evenodd" d="M64.166 111.213L110.77 64.6089L157.374 111.213L110.77 157.817L64.166 111.213Z" stroke="url(#paint2_linear_4_2887)" stroke-width="1.2"/>
<path fill-rule="evenodd" clip-rule="evenodd" d="M110.71 46.3335L73.291 110.966L110.71 175.811L147.916 110.966L110.71 46.3335Z" stroke="url(#paint3_linear_4_2887)" stroke-width="1.2" stroke-linecap="round"/>
</g>
<defs>
<linearGradient id="paint0_linear_4_2887" x1="94.6164" y1="111.051" x2="110.689" y2="127.124" gradientUnits="userSpaceOnUse">
<stop offset="0.03" stop-color="#00FDFA"/>
<stop offset="1" stop-color="#0168E5"/>
</linearGradient>
<linearGradient id="paint1_linear_4_2887" x1="129.76" y1="92.0117" x2="91.6399" y2="92.0117" gradientUnits="userSpaceOnUse">
<stop stop-color="#00FDFA"/>
<stop offset="0.07" stop-color="#00FDFA" stop-opacity="0.86"/>
<stop offset="0.5" stop-color="#00FDFA" stop-opacity="0.01"/>
<stop offset="0.63" stop-color="#00FAFA" stop-opacity="0.27"/>
<stop offset="0.71" stop-color="#00F2F8" stop-opacity="0.43"/>
<stop offset="0.78" stop-color="#00E4F6" stop-opacity="0.56"/>
<stop offset="0.84" stop-color="#00CFF4" stop-opacity="0.68"/>
<stop offset="0.89" stop-color="#00B5F0" stop-opacity="0.79"/>
<stop offset="0.94" stop-color="#0195EB" stop-opacity="0.89"/>
<stop offset="0.99" stop-color="#016FE6" stop-opacity="0.98"/>
<stop offset="1" stop-color="#0168E5"/>
</linearGradient>
<linearGradient id="paint2_linear_4_2887" x1="110.796" y1="159.653" x2="159.185" y2="111.242" gradientUnits="userSpaceOnUse">
<stop offset="0.03" stop-color="#00FDFA"/>
<stop offset="1" stop-color="#017EE5"/>
</linearGradient>
<linearGradient id="paint3_linear_4_2887" x1="96.4484" y1="203.029" x2="177.088" y2="176.233" gradientUnits="userSpaceOnUse">
<stop offset="0.03" stop-color="#00FDFA"/>
<stop offset="1" stop-color="#019AE5"/>
</linearGradient>
<clipPath id="clip0_4_2887">
<rect width="220" height="220" fill="white" transform="translate(0 0.5)"/>
</clipPath>
</defs>
</svg>
