<svg width="220" height="221" viewBox="0 0 220 221" fill="none" xmlns="http://www.w3.org/2000/svg">
<g clip-path="url(#clip0_4_2920)">
<path d="M110 220.5C170.751 220.5 220 171.251 220 110.5C220 49.7487 170.751 0.5 110 0.5C49.2487 0.5 0 49.7487 0 110.5C0 171.251 49.2487 220.5 110 220.5Z" fill="#55DDFF"/>
<path fill-rule="evenodd" clip-rule="evenodd" d="M94.9021 34.8719C86.1199 44.4817 81.2289 57.0266 81.1848 70.0561C81.1521 78.6112 83.4271 87.0161 87.769 94.3826C90.3067 99.1929 90.924 101.254 89.8953 101.254C88.053 102.165 86.2869 103.222 84.614 104.416C71.1857 112.808 62.5315 127.09 61.2944 142.898C59.6211 155.597 63.6095 168.39 72.1998 177.876C73.0972 178.673 73.841 179.628 74.3946 180.694C74.3946 183.168 64.9295 177.67 56.4934 170.798C40.6919 157.753 30.4812 139.136 27.9613 118.778C27.0627 109.603 27.4784 100.347 29.1958 91.2903C31.2671 81.4571 35.2273 72.1212 40.8555 63.8026C52.5131 46.2602 70.3842 33.8073 90.8554 28.9621C92.5914 28.519 94.3562 28.1976 96.1367 28C97.577 28 97.577 28.1375 97.577 30.0616C97.577 31.9857 97.3027 32.4667 94.9021 34.8719ZM145.862 35.4217C167.376 46.9906 182.653 67.5327 187.563 91.4964C188.65 96.922 189.042 102.464 188.729 107.989C189.198 116.678 187.915 125.372 184.958 133.553C176.859 157.345 158.454 176.19 134.888 184.818C125.766 188.046 110.746 190.521 110.746 188.734C110.746 188.184 111.774 187.703 114.175 187.084C126.497 183.292 136.949 175.003 143.462 163.858C144.49 162.14 144.628 161.727 144.079 161.04C143.53 160.353 142.981 160.697 140.17 163.72C133.971 170.376 125.499 174.449 116.438 175.128C109.587 176.448 102.509 174.549 97.2341 169.974C92.5824 165.307 90.0949 158.902 90.3753 152.313C90.0352 145.399 91.157 138.49 93.6676 132.041C97.5194 120.816 105.73 111.623 116.438 106.546C117.267 106.322 118.039 105.924 118.702 105.378C118.132 104.691 117.467 104.086 116.713 103.591C112.941 100.449 109.679 96.7395 107.042 92.596C103.262 85.3868 101.263 77.3746 101.212 69.2315C101.461 63.9135 102.383 58.6487 103.955 53.5635C105.426 46.418 110.37 40.4846 117.124 37.7581C121.865 36.3439 126.997 37.6956 130.43 41.2627C134.18 44.9928 136.045 50.2213 135.506 55.4877C135.8 61.9552 133.995 68.3443 130.362 73.6982C128.647 76.2409 128.647 77.6151 131.39 79.608C134.38 82.3163 138.982 82.1332 141.747 79.1956C146.984 73.3579 149.48 65.5555 148.606 57.7554C148.383 50.359 145.998 43.1906 141.747 37.1397C141.021 36.2392 140.464 35.2149 140.101 34.116C140.101 32.8103 142.021 33.2914 145.862 35.4217Z" fill="white"/>
</g>
<defs>
<clipPath id="clip0_4_2920">
<rect width="220" height="220" fill="white" transform="translate(0 0.5)"/>
</clipPath>
</defs>
</svg>
