<svg width="220" height="221" viewBox="0 0 220 221" fill="none" xmlns="http://www.w3.org/2000/svg">
<g clip-path="url(#clip0_4_2917)">
<path d="M110 220.5C170.751 220.5 220 171.251 220 110.5C220 49.7487 170.751 0.5 110 0.5C49.2487 0.5 0 49.7487 0 110.5C0 171.251 49.2487 220.5 110 220.5Z" fill="#044AAC"/>
<path fill-rule="evenodd" clip-rule="evenodd" d="M50.0427 137.907L68.1506 119.786V119.779C71.9001 122.242 76.7614 122.215 80.483 119.71L88.1882 127.415L96.2323 119.378L85.2832 108.436C84.3261 103.099 79.6861 99.2139 74.2649 99.2086C68.7607 99.2143 64.0745 103.215 63.2051 108.65L45.9966 125.865C44.9314 121.218 44.3711 116.383 44.3711 111.417C44.3711 75.7265 73.4003 46.7043 109.083 46.7043C144.766 46.7043 173.796 75.7265 173.796 111.417C173.797 116.583 173.18 121.731 171.956 126.751L145.161 99.9557C144.576 94.2432 139.767 89.8975 134.025 89.892C128.189 89.898 123.333 94.3805 122.861 100.198L64.6439 158.415L56.6066 166.459C59.3667 169.09 62.3191 171.51 65.4392 173.701C77.8062 182.389 92.8569 187.5 109.083 187.5C151.033 187.5 185.167 153.366 185.167 111.417C185.167 69.467 151.033 35.3333 109.083 35.3333C67.1338 35.3333 33.0001 69.467 33.0001 111.417C32.9854 123.6 35.9134 135.606 41.5353 146.415L50.0427 137.907ZM73.6216 165.519L128.388 110.753C131.918 112.826 136.301 112.794 139.8 110.67L167.778 138.654C157.479 160.767 135.042 176.129 109.083 176.129C96.4787 176.143 84.1475 172.453 73.6216 165.519ZM134.226 96.1169C132.383 96.0512 130.652 96.9974 129.713 98.5836C128.774 100.17 128.777 102.143 129.72 103.726C130.664 105.31 132.397 106.252 134.239 106.181C136.946 106.077 139.085 103.85 139.081 101.142C139.078 98.4338 136.932 96.2135 134.226 96.1169ZM69.2918 110.331C69.2918 107.55 71.5463 105.295 74.3272 105.295C77.108 105.295 79.3625 107.55 79.3625 110.331C79.3625 113.112 77.108 115.366 74.3272 115.366C71.5463 115.366 69.2918 113.112 69.2918 110.331Z" fill="white"/>
</g>
<defs>
<clipPath id="clip0_4_2917">
<rect width="220" height="220" fill="white" transform="translate(0 0.5)"/>
</clipPath>
</defs>
</svg>
