<svg width="220" height="221" viewBox="0 0 220 221" fill="none" xmlns="http://www.w3.org/2000/svg">
<g clip-path="url(#clip0_4_2923)">
<path d="M110 220.5C170.751 220.5 220 171.251 220 110.5C220 49.7487 170.751 0.5 110 0.5C49.2487 0.5 0 49.7487 0 110.5C0 171.251 49.2487 220.5 110 220.5Z" fill="#25AAE3"/>
<path fill-rule="evenodd" clip-rule="evenodd" d="M187.001 111.417C187.001 153.436 152.936 187.5 110.917 187.5C68.8986 187.5 34.834 153.436 34.834 111.417C34.834 69.3911 68.8986 35.3335 110.917 35.3335C152.936 35.3335 187.001 69.3981 187.001 111.417ZM160.925 113.808C160.948 113.396 160.949 113.379 160.944 113.376C160.944 113.376 160.943 113.376 160.944 113.376C160.938 113.375 160.925 113.371 160.925 112.932C160.925 87.9832 142.492 65.8222 118.581 62.0941V47.5692L103.088 52.3969V62.1011C79.1906 65.8222 60.8822 86.4477 60.8822 111.382C60.8822 136.905 80.0412 157.931 104.762 160.94V175.244L120.255 170.416V160.414C137.647 157.052 151.963 144.739 157.888 128.044H141.835C135.723 139.477 123.812 146.616 110.848 146.616C92.3867 146.602 77.0659 132.341 75.7322 113.928L160.925 113.81L160.925 113.808ZM110.848 76.1488C96.3684 76.1477 83.3627 85.0075 78.0631 98.4827L78.07 98.4896H143.612C138.315 85.0212 125.321 76.1613 110.848 76.1488Z" fill="white"/>
</g>
<defs>
<clipPath id="clip0_4_2923">
<rect width="220" height="220" fill="white" transform="translate(0 0.5)"/>
</clipPath>
</defs>
</svg>
