<svg width="220" height="221" viewBox="0 0 220 221" fill="none" xmlns="http://www.w3.org/2000/svg">
<g clip-path="url(#clip0_4_2926)">
<path d="M110 220.5C170.751 220.5 220 171.251 220 110.5C220 49.7487 170.751 0.5 110 0.5C49.2487 0.5 0 49.7487 0 110.5C0 171.251 49.2487 220.5 110 220.5Z" fill="#FFAA5C"/>
<path fill-rule="evenodd" clip-rule="evenodd" d="M112.979 35.3335C113.164 35.4459 113.348 35.5606 113.533 35.6756C113.883 35.8934 114.234 36.1119 114.594 36.3156L176.806 71.4868C176.944 71.5646 177.077 71.6471 177.23 71.7413C177.335 71.8066 177.451 71.8782 177.583 71.9573C177.533 71.9897 177.485 72.0209 177.44 72.0506L177.339 72.1173C177.173 72.2275 177.036 72.3188 176.889 72.3998L145.14 90.238C144.316 90.6967 144.315 90.6947 143.781 89.9294L143.765 89.906C136.725 79.9807 127.072 74.3089 114.807 72.8703C114.442 72.8244 114.075 72.8013 113.707 72.8011C113.061 72.8011 112.814 72.552 112.814 71.8672C112.809 67.4876 112.792 63.1052 112.774 58.7235V58.721C112.763 56.0936 112.752 53.4666 112.745 50.8407L112.724 36.3226C112.724 36.0956 112.759 35.8718 112.795 35.6466C112.811 35.5429 112.828 35.4382 112.841 35.3335H112.979ZM179.654 102.65L179.643 102.75C179.62 102.948 179.597 103.145 179.597 103.345C179.563 111.783 179.529 120.229 179.515 128.674L179.487 146.014C179.487 146.394 179.465 146.774 179.439 147.198C179.432 147.322 179.424 147.45 179.417 147.582C179.414 147.625 179.412 147.669 179.41 147.713C179.408 147.746 179.406 147.779 179.405 147.812C179.328 147.777 179.257 147.745 179.19 147.715C178.992 147.627 178.83 147.554 178.676 147.467L146.68 129.518C146.109 129.2 146.061 128.916 146.336 128.349C151.788 117.088 151.809 105.8 146.439 94.5126C146.185 93.973 146.233 93.7032 146.783 93.3988L178.793 75.3256C178.98 75.2197 179.186 75.1506 179.394 75.0811C179.485 75.0506 179.576 75.0204 179.666 74.9867V102.543C179.662 102.579 179.658 102.614 179.654 102.65ZM108.493 187.328C108.566 187.386 108.64 187.443 108.716 187.5H109.129C109.137 187.449 109.147 187.396 109.157 187.344C109.181 187.223 109.204 187.102 109.204 186.981L109.17 169.372L109.159 166.282C109.141 161.112 109.123 155.939 109.129 150.766C109.129 150.074 108.867 149.894 108.207 149.867C107.045 149.811 105.87 149.721 104.722 149.535C93.4535 147.688 84.4748 142.265 77.9023 133.094C77.5103 132.547 77.2148 132.409 76.5823 132.769C68.694 137.214 60.8055 141.648 52.9172 146.081L52.9152 146.082C50.2855 147.56 47.6557 149.038 45.026 150.517C44.8955 150.591 44.776 150.677 44.6363 150.777C44.5554 150.835 44.4669 150.898 44.366 150.966C44.5532 151.075 44.7142 151.172 44.8621 151.261L44.8641 151.262C45.0361 151.365 45.1906 151.458 45.3492 151.547L108.029 186.996C108.191 187.089 108.341 187.207 108.493 187.328ZM42.166 142.196C42.1779 142.124 42.1941 142.051 42.2102 141.978C42.2406 141.84 42.2716 141.7 42.276 141.56L42.3035 132.824L42.3517 113.271L42.441 82.4291L42.4755 75.7821C42.4755 75.663 42.4857 75.5436 42.4986 75.397C42.5066 75.3053 42.5156 75.2032 42.5235 75.0836C42.6256 75.1326 42.7182 75.1753 42.8042 75.2149C42.9729 75.2925 43.1157 75.3585 43.2523 75.4364L47.3938 77.7634L47.3967 77.7651C56.4777 82.8678 65.5562 87.9691 74.6505 93.06C75.2623 93.3988 75.3448 93.6617 75.0423 94.3051C69.5423 105.655 69.5698 117.019 75.0423 128.383L75.0619 128.423C75.4894 129.296 75.4896 129.297 74.6092 129.794C64.1042 135.743 53.599 141.677 43.0873 147.605C42.9039 147.709 42.6821 147.748 42.4634 147.787C42.3622 147.805 42.2617 147.823 42.166 147.847V142.203V142.196ZM136.03 123.756C136.278 127.809 135.914 131.8 134.793 135.763V135.757C134.772 135.473 134.752 135.189 134.745 134.906C134.628 131.371 134.14 127.899 132.909 124.559C131.589 120.927 129.671 117.69 126.447 115.325C125.69 114.771 125.656 114.778 125.189 115.594C123.377 118.753 121.214 121.693 118.74 124.358C108.902 134.83 95.8391 136.677 83.9453 132.561C83.8128 132.513 83.6824 132.457 83.5517 132.401C83.4591 132.362 83.3656 132.322 83.2715 132.284C85.7398 132.464 88.1598 132.609 90.5798 132.243C95.7842 131.454 99.9985 129.144 102.687 124.552C103.195 123.68 103.195 123.673 102.247 123.251C94.9865 120.028 90.016 114.73 87.376 107.371C85.2515 101.471 84.901 95.384 85.5542 89.2005C85.6091 88.6472 85.6778 88.0939 85.7603 87.5404C85.8138 87.182 85.8789 86.8291 85.9442 86.4747C85.9796 86.2826 86.0153 86.0888 86.049 85.8943C86.1953 86.0719 86.2443 86.2442 86.2918 86.4111L86.3105 86.4752C86.5255 87.2221 86.7312 87.9723 86.9371 88.7229C87.3889 90.3702 87.841 92.0185 88.3935 93.634C89.284 96.3241 90.7614 98.7797 92.7178 100.821C93.7052 101.873 94.9286 102.672 96.286 103.151C97.3448 103.518 97.386 103.511 97.936 102.529C101.67 95.7064 107.829 90.5553 115.179 88.1076C121.167 86.0396 127.34 85.6246 133.617 86.2195C134.287 86.2837 134.954 86.3722 135.622 86.4608C135.962 86.5057 136.302 86.551 136.642 86.593L136.787 86.3717L135.625 85.3756C125.36 76.5637 113.632 73.7349 100.411 77.2831C82.811 82.014 71.0135 99.9352 74.9185 118.465C79.0985 138.26 99.5103 150.724 119.634 145.744C137.77 141.262 149.45 124.337 146.817 106.306C145.788 99.1803 142.572 92.5568 137.619 87.3608C137.329 87.0586 136.935 86.8802 136.519 86.8626C133.565 86.9713 130.647 87.5454 127.87 88.5641C123.882 90.1135 120.644 92.5344 118.795 96.4284L118.773 96.4752C118.382 97.3 118.223 97.6368 118.324 97.8483C118.394 97.9941 118.588 98.0806 118.915 98.2266C119.077 98.2993 119.273 98.3866 119.503 98.5034C124.714 101.132 128.99 104.749 131.947 109.743C134.518 114.073 135.742 118.79 136.03 123.756ZM177.885 151.063L112.827 187.368C112.814 187.216 112.797 187.086 112.783 186.972C112.762 186.8 112.745 186.662 112.745 186.525C112.745 174.559 112.745 162.593 112.731 150.627C112.731 150.095 112.889 149.901 113.46 149.853C126.11 148.801 136.14 143.227 143.504 133.094L143.52 133.07C144.143 132.201 144.144 132.199 145.085 132.727L177.005 150.537C177.151 150.619 177.297 150.708 177.471 150.814L177.472 150.814C177.593 150.888 177.728 150.97 177.885 151.063ZM109.14 35.9026C109.134 35.8074 109.128 35.7022 109.122 35.5825H109.115C108.892 35.7031 108.693 35.8058 108.507 35.9016C108.31 36.0038 108.127 36.0982 107.946 36.1981L45.3148 71.1687C45.0581 71.3117 44.8258 71.4854 44.5937 71.659C44.4775 71.7459 44.3614 71.8328 44.2423 71.9158C44.3398 71.9813 44.4364 72.0476 44.5327 72.114C44.7825 72.2863 45.0312 72.4576 45.2942 72.6074L76.376 89.9683C76.8048 90.2079 77.0181 90.3273 77.1957 90.2877C77.377 90.2471 77.5213 90.0414 77.8198 89.6293C85.2998 79.2959 95.509 73.6725 108.42 72.7318C109.094 72.6834 109.177 72.4068 109.177 71.8535C109.163 60.0536 109.163 48.2469 109.163 36.4401C109.163 36.2777 109.153 36.1152 109.14 35.9026Z" fill="white"/>
</g>
<defs>
<clipPath id="clip0_4_2926">
<rect width="220" height="220" fill="white" transform="translate(0 0.5)"/>
</clipPath>
</defs>
</svg>
