<svg width="220" height="221" viewBox="0 0 220 221" fill="none" xmlns="http://www.w3.org/2000/svg">
<g clip-path="url(#clip0_4_2929)">
<path d="M110 220.5C170.751 220.5 220 171.251 220 110.5C220 49.7487 170.751 0.5 110 0.5C49.2487 0.5 0 49.7487 0 110.5C0 171.251 49.2487 220.5 110 220.5Z" fill="#EDF0F4"/>
<path fill-rule="evenodd" clip-rule="evenodd" d="M158.072 64.6665H111.551C108.45 64.6665 106.013 67.1034 106.013 70.2046V118.055H89.1771C86.0757 118.055 83.4173 120.27 83.4173 123.15C83.4173 126.03 86.0757 128.245 89.1771 128.245H111.773C114.874 128.245 117.311 125.808 117.311 122.707V98.1171H144.78C147.66 98.1171 149.876 95.9019 149.876 93.0221C149.876 90.1421 147.66 87.9269 144.78 87.9269H117.09V74.8567H158.072C160.952 74.8567 163.167 72.6415 163.167 69.7617C163.167 66.8817 160.952 64.6665 158.072 64.6665ZM111.994 145.303H88.2909C85.4111 145.303 83.1959 147.518 83.1959 150.398C83.1959 153.278 85.4111 155.493 88.2909 155.493H111.994C114.874 155.493 117.09 153.278 117.09 150.398C117.09 147.518 114.874 145.303 111.994 145.303ZM61.9292 87.9269H85.6325C88.5125 87.9269 90.7277 90.3638 90.7277 93.0221C90.7277 95.9019 88.5125 98.1171 85.6325 98.1171H61.9292C59.0492 98.1171 56.834 95.9019 56.834 93.0221C56.834 90.1421 59.0492 87.9269 61.9292 87.9269Z" fill="#06142E"/>
</g>
<defs>
<clipPath id="clip0_4_2929">
<rect width="220" height="220" fill="white" transform="translate(0 0.5)"/>
</clipPath>
</defs>
</svg>
