<svg width="220" height="221" viewBox="0 0 220 221" fill="none" xmlns="http://www.w3.org/2000/svg">
<g clip-path="url(#clip0_4_2932)">
<path d="M110 220.5C170.751 220.5 220 171.251 220 110.5C220 49.7487 170.751 0.5 110 0.5C49.2487 0.5 0 49.7487 0 110.5C0 171.251 49.2487 220.5 110 220.5Z" fill="#EDF0F4"/>
<path fill-rule="evenodd" clip-rule="evenodd" d="M110.322 58.142C109.039 62.597 102.989 68.6653 95.0324 73.762L94.7208 74.0737C94.4091 75.027 96.0041 77.5753 97.9108 76.622C107.077 70.572 114.154 63.5503 115.437 58.4537C116.391 54.3103 113.842 52.4037 108.434 52.0737C106.729 52.0185 105.023 52.1228 103.337 52.3853H102.054C108.104 52.0737 111.606 53.9803 110.341 58.1237L110.322 58.142Z" fill="#1D1D1D"/>
<path fill-rule="evenodd" clip-rule="evenodd" d="M133.583 64.21C130.723 75.045 109.365 91.93 85.7885 102.123C81.7619 103.932 77.5997 105.422 73.3401 106.578C72.9577 106.676 72.6207 106.902 72.3868 107.22C71.4335 108.503 71.7451 111.675 73.9818 111.363C78.1251 110.141 82.5862 108.546 87.3651 106.578C112.225 96.0734 135.178 77.905 138.038 66.4834C139.208 63.3209 137.659 59.8007 134.537 58.5267C132.942 57.885 131.035 56.9317 129.44 56.29C131.073 56.7603 132.441 57.8803 133.224 59.388C134.008 60.8957 134.137 62.6589 133.583 64.265V64.21Z" fill="#1D1D1D"/>
<path fill-rule="evenodd" clip-rule="evenodd" d="M162.905 89.0704C162.928 87.8719 162.71 86.681 162.263 85.5687L161.621 84.2854L159.385 80.7837C160.073 81.9391 160.405 83.2721 160.338 84.6154C160.849 86.2698 161.72 87.7909 162.886 89.0704H162.905Z" fill="#1D1D1D"/>
<path fill-rule="evenodd" clip-rule="evenodd" d="M165.45 98.2921C162.26 109.769 142.515 126.984 118.609 139.414C117.701 139.706 117.058 140.515 116.977 141.465C116.897 142.415 117.394 143.32 118.24 143.762C119.085 144.203 120.112 144.093 120.845 143.484C144.422 131.054 163.855 114.48 166.679 103.004C167.24 101.472 167.349 99.8106 166.99 98.2187C166.679 96.6237 165.707 94.3871 165.395 92.7188C166.066 94.4908 166.066 96.4466 165.395 98.2187L165.45 98.2921Z" fill="#1D1D1D"/>
<path fill-rule="evenodd" clip-rule="evenodd" d="M145.373 134.94C144.81 135.444 144.37 136.072 144.089 136.773C143.778 138.057 144.731 139.963 146.638 138.607C158.426 130.008 167.024 120.768 168.638 113.747C168.882 112.808 168.987 111.838 168.949 110.868V109.035L168.674 105.313C168.717 106.598 168.613 107.884 168.363 109.145C166.529 116.478 157.528 126.03 145.428 134.958L145.373 134.94Z" fill="#1D1D1D"/>
<path fill-rule="evenodd" clip-rule="evenodd" d="M79.7385 76.6402C82.5864 75.4504 85.3491 74.0658 88.0068 72.4969C88.2413 72.2983 88.3766 72.0066 88.3766 71.6994C88.3766 71.3921 88.2413 71.1004 88.0068 70.9019C87.5839 70.3086 86.9021 69.9542 86.1735 69.9485C84.01 71.2398 81.7761 72.4087 79.4818 73.4502C72.1485 76.6402 66.4102 76.9519 65.1452 75.0452C64.7065 74.3858 64.5919 73.5626 64.8335 72.8085C65.2761 71.6568 65.8945 70.5807 66.6668 69.6185L71.1218 65.1635C75.3944 62.1233 79.9867 59.5598 84.8168 57.5185C85.5586 56.8316 86.423 56.2904 87.3652 55.9235C94.6985 53.6869 99.4835 54.3285 98.5118 57.7569C98.1406 59.2133 97.3653 60.5353 96.2752 61.5702C97.6007 62.4097 99.2217 62.6433 100.73 62.2119C102.072 60.8838 103.056 59.2377 103.59 57.4269C104.874 53.2835 99.7585 51.9269 92.1135 54.2369C91.488 54.4068 90.8753 54.6213 90.2802 54.8785L88.4468 55.5202C87.8704 55.8225 87.2528 56.0387 86.6135 56.1619C85.9726 56.4187 85.3586 56.7381 84.7802 57.1152C84.1385 57.4269 83.8268 57.4269 83.1852 57.7569C82.5435 58.0869 82.2318 58.0685 81.5902 58.3985C81.0888 58.7645 80.5549 59.0835 79.9952 59.3519L78.7118 59.9935C78.2605 60.1431 77.8342 60.3595 77.4468 60.6352C76.9551 60.8475 76.5214 61.1744 76.1818 61.5885C75.6995 61.8252 75.2644 62.1484 74.8985 62.5419C74.2568 62.8535 74.2568 63.1835 73.6152 63.4952C73.133 63.7323 72.6981 64.0553 72.3318 64.4485C71.8499 64.686 71.415 65.009 71.0485 65.4019C70.4068 66.0435 70.0952 66.0435 69.4535 66.6852C68.8118 67.3269 68.5002 67.3269 67.8585 67.9685C66.2653 68.9954 64.8632 70.2919 63.7152 71.8002C62.8953 72.6023 62.2685 73.5802 61.8818 74.6602C61.8818 74.9719 61.5702 75.3019 61.5702 75.6135V76.2552C61.4912 77.0149 61.5982 77.7826 61.8818 78.4919C63.7152 81.0402 71.0485 80.3252 80.0502 76.6585L79.7385 76.6402Z" fill="#1D1D1D"/>
<path fill-rule="evenodd" clip-rule="evenodd" d="M54.5533 87.1454V87.787C54.5843 88.0292 54.6938 88.2545 54.865 88.4287C56.6983 90.6654 61.245 90.977 64.4167 90.262C75.5633 88.997 75.8933 87.072 75.8933 85.807C75.8933 85.807 75.8933 83.5704 74.61 83.5704C65.6817 86.4304 59.32 86.4304 57.395 83.882C56.9237 82.7771 56.8146 81.5511 57.0833 80.3804C57.4456 79.4019 57.868 78.4467 58.3483 77.5204C58.66 76.8787 59.3017 76.2554 59.9433 75.2837L58.99 76.237C58.5485 76.9212 58.0115 77.5385 57.395 78.0704C56.9328 78.6567 56.5044 79.2688 56.1117 79.9037C55.8 80.5454 55.1583 81.4987 54.8283 82.1404C54.4983 82.782 54.5167 83.0937 54.1867 83.7354C54.2307 84.0839 54.1163 84.4337 53.875 84.6887C54.0457 85.446 54.2598 86.1928 54.5167 86.9254L54.5533 87.1454Z" fill="#1D1D1D"/>
<path fill-rule="evenodd" clip-rule="evenodd" d="M83.8831 95.8171C105.223 86.8337 124.675 71.5254 127.205 61.6621C128.158 58.1604 126.893 55.6121 123.373 54.6587C122.64 54.4024 121.894 54.1881 121.136 54.0171C120.498 53.8218 119.84 53.6988 119.175 53.6504C120.513 53.9705 121.641 54.8661 122.257 56.0968C122.872 57.3277 122.912 58.7676 122.365 60.0304C119.816 68.9587 102.29 82.9837 82.8565 91.1971C67.5665 97.5771 55.7781 98.5304 52.5881 94.3871C51.7127 93.0749 51.4769 91.4378 51.9465 89.9321C52.2581 89.2904 52.2581 88.6487 52.5881 88.0987C51.9465 89.6937 50.9931 91.9304 50.3515 93.5987C50.3515 93.9104 50.0398 94.2404 50.0398 94.5521C50.0398 94.8637 49.7281 95.5054 49.7281 95.8354C49.345 97.1913 49.7076 98.6488 50.6815 99.6671C53.9265 104.03 66.9798 103.15 83.8831 95.8171Z" fill="#1D1D1D"/>
<path fill-rule="evenodd" clip-rule="evenodd" d="M47.2378 119.651C47.1938 119.999 47.3082 120.349 47.5495 120.604V121.246C47.5495 121.484 47.8612 121.484 47.8612 121.887L47.5495 121.484C47.8612 121.796 47.8612 122.437 48.1912 122.749C52.6462 128.817 69.5312 127.626 91.2012 118.367C118.921 106.579 144.111 86.8339 147.613 73.8172C148.6 71.0284 147.886 67.92 145.78 65.8422L143.231 63.6056L141.398 62.3406C143.337 63.5788 144.437 65.7849 144.258 68.0789C143.305 88.1539 65.5528 135.912 48.0262 117.469C47.2223 116.35 46.7749 115.015 46.7428 113.637C46.6877 115.342 46.792 117.048 47.0545 118.734V119.046C47.2345 119.213 47.3456 119.442 47.3662 119.687L47.2378 119.651Z" fill="#1D1D1D"/>
<path fill-rule="evenodd" clip-rule="evenodd" d="M96.299 128.817C125.632 116.387 152.381 95.3585 156.212 81.6451C157.103 79.1907 156.747 76.4568 155.259 74.3118C154.07 72.8519 152.79 71.4681 151.427 70.1685C153.261 72.0018 153.664 74.6235 153.022 77.8135C149.521 91.1968 123.066 111.913 94.3557 124.013C71.769 133.675 54.554 135.27 49.7873 128.817C49.2084 128.212 48.8696 127.417 48.834 126.58C49.2144 128.454 49.7477 130.294 50.429 132.08V133.033C50.7407 133.345 50.7407 133.675 51.0707 133.987C55.214 140.367 73.0707 138.772 96.3173 128.89L96.299 128.817Z" fill="#1D1D1D"/>
<path fill-rule="evenodd" clip-rule="evenodd" d="M55.5248 144.822C55.5248 144.51 55.2131 144.51 55.2131 144.18C55.1775 144.437 55.3005 144.691 55.5248 144.822Z" fill="#1D1D1D"/>
<path fill-rule="evenodd" clip-rule="evenodd" d="M102.033 140.037C119.559 132.392 136.444 121.869 147.866 111.675C148.629 110.808 148.874 109.6 148.508 108.504C148.304 107.871 147.83 107.362 147.214 107.114C146.597 106.866 145.902 106.905 145.318 107.22C131.585 118.969 116.126 128.535 99.4843 135.582C75.9077 145.152 57.7393 146.747 52.9727 140.037C53.5313 140.926 53.9632 141.889 54.256 142.897C54.287 143.139 54.3964 143.365 54.5677 143.539C54.5677 143.85 54.8793 143.85 54.8793 144.18C54.8793 143.869 54.5677 143.869 54.5677 143.539C54.5677 143.85 54.8793 143.85 54.8793 144.18C59.3343 151.514 77.8143 150.23 102.033 140.037Z" fill="#1D1D1D"/>
<path fill-rule="evenodd" clip-rule="evenodd" d="M82.2933 157.564C83.5766 157.252 83.2466 156.281 82.9349 155.731C82.158 154.561 80.8372 153.869 79.4333 153.897C69.5516 155.492 62.5483 154.539 59.6699 151.019V150.561C60.358 151.239 60.9725 151.989 61.5033 152.797C62.1449 153.439 62.7866 154.392 63.3366 155.034C65.8849 158.224 72.5033 159.177 82.1466 157.582L82.2933 157.564Z" fill="#1D1D1D"/>
<path fill-rule="evenodd" clip-rule="evenodd" d="M110.009 158.847C110.977 158.579 111.549 157.581 111.292 156.61C110.463 155.336 108.79 154.92 107.46 155.657C88.3387 163.302 73.6903 164.567 68.2637 160.112C69.826 161.19 71.3143 162.373 72.7187 163.65C78.2187 167.464 92.152 165.887 110.009 158.884V158.847Z" fill="#1D1D1D"/>
<path fill-rule="evenodd" clip-rule="evenodd" d="M79.0977 167.445C80.8582 168.165 82.5621 169.017 84.1943 169.994C90.2443 172.542 102.986 170.635 118.936 163.944C143.136 153.75 165.136 136.15 167.996 125.15C167.952 124.802 168.066 124.452 168.308 124.197C168.619 122.914 168.619 121.007 168.949 119.412V118.385C165.759 140.385 100.438 176.374 79.116 167.464L79.0977 167.445Z" fill="#1D1D1D"/>
<path fill-rule="evenodd" clip-rule="evenodd" d="M121.8 166.492C108.416 172.23 97.2695 174.137 91.2012 172.542C92.7962 172.854 95.3445 173.495 96.9395 173.807C113.439 176.355 155.606 155.639 164.498 136.847C165.14 135.252 165.781 133.034 166.331 131.347C163.178 141.65 143.469 157.252 121.8 166.492Z" fill="#1D1D1D"/>
<path fill-rule="evenodd" clip-rule="evenodd" d="M150.8 155.015C143.335 160.919 135.077 165.745 126.27 169.352C117.341 173.183 109.77 174.852 104.6 174.448H110.98C116.927 173.732 122.731 172.119 128.195 169.663C135.919 166.294 143.197 161.983 149.865 156.83C150.818 156.188 151.13 155.235 151.46 155.235C151.46 154.923 151.771 154.923 151.771 154.593V154.392C151.13 154.703 150.818 154.703 150.818 155.033L150.8 155.015Z" fill="#1D1D1D"/>
<path fill-rule="evenodd" clip-rule="evenodd" d="M47.2382 107.532V109.127C47.2026 109.384 47.3257 109.638 47.5499 109.769V110.08C47.5499 110.484 47.8615 110.484 47.8615 110.722V111.034C48.4598 111.805 49.2243 112.432 50.0982 112.867C50.7553 112.63 51.154 111.963 51.0515 111.272C51.233 110.097 51.1262 108.895 50.7399 107.77C49.8054 107.435 49.0153 106.788 48.5032 105.937C47.8135 104.782 47.4819 103.449 47.5499 102.105C47.6221 101.568 47.7262 101.035 47.8615 100.51V101.152L47.5499 103.389L46.9082 106.579C47.2199 106.579 47.2199 107.22 47.2199 107.532H47.2382Z" fill="#1D1D1D"/>
<path fill-rule="evenodd" clip-rule="evenodd" d="M167.354 150.249C166.037 149.275 164.184 149.527 163.174 150.817C157.521 159.03 150.145 165.913 141.559 170.984C131.472 176.784 120.049 179.861 108.413 179.912H108.174C86.9117 179.943 66.8963 169.881 54.2377 152.797H53.926C53.926 152.625 53.7865 152.485 53.6143 152.485L53.3027 152.174C53.0454 152.209 52.7921 152.086 52.661 151.862H50.8277C50.5704 151.827 50.3171 151.95 50.186 152.174H49.7827V152.467C49.6105 152.467 49.471 152.606 49.471 152.779L49.1593 153.09C49.1949 153.348 49.0719 153.601 48.8477 153.732V166.804C48.8477 167.65 49.1837 168.461 49.7819 169.059C50.3801 169.658 51.1916 169.994 52.0377 169.994C52.8991 170.048 53.7425 169.729 54.353 169.119C54.9635 168.509 55.2819 167.665 55.2277 166.804V163.302C69.1291 178.028 88.5098 186.338 108.761 186.255H109.073C121.741 186.226 134.171 182.815 145.079 176.374C154.597 171.05 162.691 163.509 168.674 154.392C169.377 152.886 168.822 151.093 167.391 150.249H167.354Z" fill="#407BA4"/>
<path fill-rule="evenodd" clip-rule="evenodd" d="M105.226 43.1818V42.5401C105.261 42.2829 105.138 42.0297 104.914 41.8984C104.934 41.6196 104.771 41.36 104.511 41.2568L104.199 40.9451C104.199 40.6334 103.888 40.6334 103.558 40.6334L103.246 40.3218L92.1726 33.9418C91.466 33.4976 90.6016 33.3817 89.803 33.6244C89.0044 33.8672 88.3506 34.4445 88.0109 35.2068C87.5742 35.9143 87.4648 36.7761 87.7108 37.5701C87.9568 38.3643 88.5342 39.0133 89.2943 39.3501L92.7959 41.1834C85.1962 42.8745 77.8922 45.6923 71.1259 49.5434C60.3144 56.0028 51.3241 65.1068 45.0009 75.9984C32.4147 97.2196 31.4551 123.377 42.4526 145.463C43.0614 146.459 44.146 147.063 45.3126 147.058C45.7577 147.105 46.2049 146.995 46.5776 146.747C47.3511 146.425 47.9416 145.776 48.1894 144.976C48.4373 144.175 48.3169 143.306 47.8609 142.603C32.1857 110.876 43.744 72.4282 74.3159 54.6034C82.8572 49.5717 92.4705 46.6374 102.366 46.0418C102.714 46.0858 103.064 45.9716 103.319 45.7301C103.631 45.4184 103.961 45.4184 104.273 45.0884L104.511 44.7768L104.914 44.4834V44.1351C104.879 43.8779 105.002 43.6247 105.226 43.4934V43.1818Z" fill="#D37D41"/>
<path fill-rule="evenodd" clip-rule="evenodd" d="M184.88 134.94C184.035 133.509 182.242 132.954 180.736 133.657L177.839 135.27C184.24 115.615 181.918 94.1591 171.459 76.3284C159.307 55.8536 138.152 42.3676 114.461 39.9918C113.649 39.9203 112.844 40.19 112.239 40.7359C111.634 41.2819 111.283 42.055 111.271 42.8701C111.2 43.6788 111.467 44.4811 112.009 45.0855C112.551 45.69 113.319 46.0429 114.131 46.0601C135.869 48.0495 155.322 60.3788 166.399 79.1884C177.177 98.1541 178.239 121.129 169.259 141.008V143.245C169.219 143.503 169.343 143.759 169.571 143.887V144.198L169.883 144.51V144.822C170.194 145.133 170.524 145.133 170.836 145.463H173.073C173.245 145.463 173.384 145.324 173.384 145.152L183.909 139.102C185.135 138.101 185.527 136.395 184.862 134.958L184.88 134.94Z" fill="#E9B520"/>
</g>
<defs>
<clipPath id="clip0_4_2932">
<rect width="220" height="220" fill="white" transform="translate(0 0.5)"/>
</clipPath>
</defs>
</svg>
