<svg width="220" height="221" viewBox="0 0 220 221" fill="none" xmlns="http://www.w3.org/2000/svg">
<g clip-path="url(#clip0_4_2955)">
<path d="M110 220.5C170.751 220.5 220 171.251 220 110.5C220 49.7487 170.751 0.5 110 0.5C49.2487 0.5 0 49.7487 0 110.5C0 171.251 49.2487 220.5 110 220.5Z" fill="#13B5EC"/>
<path fill-rule="evenodd" clip-rule="evenodd" d="M119.166 88.5093L143.916 73.9994V103.019L119.166 88.5093ZM143.916 150.695L110.916 170.042L77.916 150.695V116.839L110.916 136.185L143.916 116.839V150.695ZM77.916 73.9994L102.666 88.5093L77.916 103.019V73.9994ZM115.041 95.419L139.791 109.929L115.041 124.439V95.419ZM106.791 124.439L82.041 109.929L106.791 95.419V124.439ZM139.791 67.0898L110.916 83.6726L82.041 67.0898L110.916 49.8159L139.791 67.0898ZM69.666 64.326V154.841L110.916 178.333L152.166 154.841V64.326L110.916 40.8335L69.666 64.326Z" fill="white"/>
</g>
<defs>
<clipPath id="clip0_4_2955">
<rect width="220" height="220" fill="white" transform="translate(0 0.5)"/>
</clipPath>
</defs>
</svg>
