<svg width="220" height="221" viewBox="0 0 220 221" fill="none" xmlns="http://www.w3.org/2000/svg">
<g clip-path="url(#clip0_4_2958)">
<path d="M110 220.5C170.751 220.5 220 171.251 220 110.5C220 49.7487 170.751 0.5 110 0.5C49.2487 0.5 0 49.7487 0 110.5C0 171.251 49.2487 220.5 110 220.5Z" fill="#154284"/>
<path fill-rule="evenodd" clip-rule="evenodd" d="M67.188 211.861C80.74 217.596 95.1573 220.5 110 220.5C124.843 220.5 139.26 217.596 152.812 211.832C165.909 206.288 177.672 198.368 187.777 188.263C197.868 178.157 205.803 166.395 211.347 153.297C217.081 139.745 219.985 125.328 219.985 110.485C219.985 95.6427 217.081 81.24 211.347 67.6733C205.803 54.576 197.883 42.8133 187.777 32.708C177.672 22.6173 165.909 14.6827 152.812 9.13867C139.26 3.404 124.843 0.5 110 0.5C95.1573 0.5 80.74 3.404 67.1733 9.15333C54.076 14.6973 42.3133 22.6173 32.208 32.7227C22.1173 42.828 14.1827 54.5907 8.63867 67.688C2.904 81.24 0 95.6573 0 110.5C0 125.343 2.904 139.76 8.65333 153.327C14.1973 166.424 22.1173 178.187 32.2227 188.292C42.328 198.383 54.0907 206.317 67.188 211.861ZM35.86 36.3747C55.6747 16.5747 82.0013 5.66267 110 5.66267C137.999 5.66267 164.355 16.5453 184.155 36.36C203.955 56.1747 214.867 82.5013 214.867 110.5C214.867 138.513 203.955 164.84 184.155 184.64C164.34 204.44 138.013 215.352 110.015 215.352C82.0013 215.352 55.6747 204.44 35.8747 184.64C16.0747 164.825 5.16267 138.499 5.16267 110.5C5.16267 82.5013 16.06 56.1747 35.86 36.3747Z" fill="#FAC32C"/>
<path d="M134.306 42.2705L135.098 42.7985C143.854 48.5918 150.908 49.6625 161.63 49.6625C165.414 49.6625 169.476 48.9438 173.363 47.6092L174.375 47.2572L179.464 54.3852L178.936 55.0892C160.031 80.1985 174.771 107.317 185.199 118.141L186.167 119.139L185.184 120.121C183.82 121.485 181.444 123.949 179.684 125.797L179.083 126.428L179.127 127.293L179.142 127.587C179.156 127.807 179.156 128.027 179.2 128.423L179.215 128.584C180.095 145.333 175.754 159.091 166.308 169.475C156.276 180.504 140.451 187.148 121.736 188.175L121.018 188.219L120.49 188.703C115.723 193.044 110.898 196.637 110.839 196.681L110.003 197.312L109.167 196.681C108.962 196.535 104.195 192.985 99.4869 188.703L98.9589 188.219L98.2402 188.175C79.5402 187.148 63.7002 180.504 53.6682 169.475C44.2229 159.091 39.8816 145.333 40.7762 128.584L40.7909 128.423C40.8349 128.056 40.8496 127.851 40.8496 127.616V127.557L40.8642 127.293L40.9082 126.428L40.3069 125.797C38.6496 124.052 36.2149 121.515 34.8069 120.121L33.8242 119.139L34.7922 118.141C45.2202 107.317 59.9602 80.1985 41.0696 55.0892L40.5416 54.3852L45.6309 47.2572L46.6429 47.6092C50.5296 48.9585 54.5922 49.6625 58.3762 49.6625C69.1122 49.6625 76.1522 48.6065 84.9082 42.7985L85.7149 42.2705L86.5069 42.8132C94.2362 48.1812 101.702 50.6745 110.018 50.6745C118.334 50.6745 125.799 48.1812 133.528 42.8132L134.306 42.2705Z" fill="#E8B909"/>
<path d="M52.4505 104.281C58.3759 90.6998 60.5759 73.2612 50.6172 56.2185C53.1105 56.6585 55.7212 56.9372 58.3612 56.9372C68.5545 56.9372 76.5772 56.0132 85.5972 50.9238C92.6959 55.2212 100.66 57.9492 109.988 57.9638C119.345 57.9492 127.309 55.2212 134.408 50.9238C143.428 56.0132 151.451 56.9372 161.644 56.9372C164.284 56.9372 166.909 56.6585 169.417 56.1745C159.429 73.2612 161.644 90.6998 167.555 104.281H52.4505Z" fill="white"/>
<path d="M167.551 104.281C161.626 90.6998 159.426 73.2612 169.414 56.1745C166.906 56.6585 164.295 56.9372 161.641 56.9372C151.447 56.9372 143.425 56.0132 134.405 50.9238C127.291 55.2212 119.342 57.9492 109.985 57.9638C109.897 57.9638 109.809 57.9638 109.721 57.9638V104.296L167.551 104.281Z" fill="#FFDD00"/>
<path d="M154.881 169.9C166.218 161.613 172.921 148.369 171.938 129.053C171.821 127.953 171.748 127.894 171.66 126.78H154.881V169.9Z" fill="#0054A4"/>
<path d="M136.928 178.201C143.674 176.382 149.761 173.64 154.88 169.885V126.78H136.928V178.201Z" fill="#A30046"/>
<path d="M65.1191 169.885C70.2525 173.64 76.3245 176.368 83.0711 178.201V126.78H65.1191V169.885Z" fill="#A30046"/>
<path d="M48.0618 129.053C47.0792 148.369 53.7818 161.598 65.1192 169.9V126.794H48.3405C48.2672 127.894 48.1792 127.953 48.0618 129.053Z" fill="#0054A4"/>
<path d="M110.047 136.313C113.333 136.313 116.383 137.266 118.979 138.88V126.78H101.027V138.938C103.638 137.296 106.733 136.313 110.047 136.313Z" fill="#A30046"/>
<path d="M110.047 170.149C106.733 170.149 103.638 169.181 101.027 167.524V180.915C101.35 180.929 101.658 180.959 101.981 180.973C107.95 181.003 113.347 181.032 118.041 180.973C118.363 180.959 118.671 180.929 118.994 180.915V167.583C116.383 169.196 113.333 170.149 110.047 170.149Z" fill="#A30046"/>
<path d="M118.973 126.78V138.88C123.754 141.872 126.951 147.167 126.951 153.224C126.951 159.282 123.754 164.576 118.973 167.568V180.9C125.309 180.578 131.351 179.698 136.925 178.187V126.766L118.973 126.78Z" fill="#0054A4"/>
<path d="M93.1336 153.238C93.1336 147.21 96.2869 141.945 101.024 138.938V126.78H83.0723V178.201C88.6456 179.697 94.6883 180.592 101.024 180.914V167.524C96.2869 164.532 93.1336 159.252 93.1336 153.238Z" fill="#0054A4"/>
<path d="M56.4961 71.443C57.6988 77.3243 57.7428 83.0883 56.9654 88.5737H74.4041V104.282H91.5348V88.5737H109.78V71.443H91.5348V54.019C89.4814 53.1097 87.5014 52.0683 85.5948 50.9097C81.7668 53.0657 78.1148 54.4737 74.4041 55.383V71.4283L56.4961 71.443Z" fill="#E31837"/>
<path d="M146.654 104.281V55.6322C144.586 55.1775 142.547 54.5762 140.494 53.7988V104.281H146.654Z" fill="#E31837"/>
<path d="M122.025 104.282V56.3362C120.045 56.8788 117.992 57.3042 115.865 57.5828V104.296L122.025 104.282Z" fill="#E31837"/>
<path d="M158.957 104.281V56.9081C156.83 56.8641 154.792 56.7761 152.797 56.5854V104.281H158.957Z" fill="#E31837"/>
<path d="M134.328 104.281V50.9531C132.348 52.1558 130.295 53.2118 128.168 54.1358V104.266L134.328 104.281Z" fill="#E31837"/>
<path fill-rule="evenodd" clip-rule="evenodd" d="M186.674 116.675L189.021 119.109L186.615 121.515C185.339 122.805 183.051 125.181 181.159 127.161C181.159 127.224 181.164 127.283 181.167 127.337C181.171 127.384 181.174 127.428 181.174 127.469C181.174 127.675 181.174 127.851 181.218 128.188L181.233 128.408C182.157 145.744 177.639 160 167.813 170.809C157.385 182.264 141.105 189.113 121.847 190.169C117.081 194.525 112.27 198.119 112.05 198.28L109.997 199.805L107.943 198.28C107.926 198.267 107.878 198.231 107.8 198.172C106.938 197.519 102.49 194.153 98.1167 190.169C78.8593 189.113 62.5647 182.264 52.1513 170.809C42.3247 160 37.8073 145.729 38.7313 128.408L38.746 128.188C38.7781 127.942 38.7867 127.782 38.7948 127.633C38.7979 127.578 38.8006 127.525 38.8047 127.469C38.8047 127.42 38.8081 127.373 38.8116 127.326C38.8155 127.275 38.8193 127.222 38.8193 127.161C36.942 125.167 34.654 122.805 33.3633 121.515L30.9727 119.124L33.3193 116.689C43.322 106.291 57.49 80.2867 39.4207 56.2627L37.998 54.3707L44.8327 44.7934L47.282 45.644C50.9633 46.9054 54.7913 47.58 58.3553 47.58C68.6807 47.58 75.4567 46.5827 83.7727 41.068L85.7233 39.7774L87.6447 41.112C95.0073 46.2307 102.121 48.6067 109.997 48.6067C117.873 48.6067 124.971 46.216 132.334 41.0827L134.255 39.748L136.206 41.0387C144.537 46.5534 151.298 47.5654 161.623 47.5654C165.187 47.5654 169.015 46.9054 172.697 45.6294L175.146 44.7787L181.981 54.356L180.558 56.248C162.489 80.272 176.657 106.276 186.674 116.675ZM177.73 127.585C177.719 127.245 177.705 126.833 177.61 125.885L177.808 125.678C179.698 123.7 182.623 120.637 184.181 119.065C172.521 106.965 158.91 79.2747 177.801 54.18L173.811 48.8854C170.042 50.1907 165.847 51.012 161.623 51.012C150.785 51.012 143.393 49.9414 134.299 43.9134C127.113 48.9 119.31 52.024 109.982 52.024C100.639 52.024 92.8513 48.9 85.6647 43.9134C76.5713 49.9414 69.1647 51.012 58.3407 51.012C54.1313 51.012 49.922 50.1907 46.1527 48.8854L42.1633 54.18C61.054 79.2747 47.4433 106.965 35.7833 119.065C37.4113 120.693 40.4913 123.92 42.354 125.885C42.2583 126.826 42.2449 127.238 42.2339 127.581C42.2246 127.869 42.2169 128.108 42.1633 128.569C40.11 167.187 67.0087 185.417 99.5247 186.767C104.497 191.416 109.997 195.493 109.997 195.493C109.997 195.493 115.467 191.416 120.439 186.767C152.955 185.417 179.854 167.187 177.801 128.569C177.747 128.107 177.739 127.871 177.73 127.585Z" fill="#231F20"/>
<path fill-rule="evenodd" clip-rule="evenodd" d="M47.6954 127.939C47.7541 127.616 47.7981 127.337 47.8421 126.751V126.267H172.098L172.142 126.751C172.19 127.233 172.229 127.507 172.265 127.768C172.273 127.825 172.281 127.881 172.289 127.939C172.333 128.217 172.377 128.511 172.435 129.009C173.198 143.881 169.487 155.893 161.421 164.752C152.166 174.916 137.162 180.695 118.051 181.487C116.071 181.516 113.959 181.531 111.745 181.531C109.059 181.531 106.202 181.517 103.199 181.503L102.71 181.501H101.977C82.8368 180.709 67.8328 174.916 58.5781 164.767C50.4968 155.908 46.7861 143.896 47.5488 129.039C47.6074 128.496 47.6514 128.203 47.6954 127.939ZM48.7221 128.1C48.6781 128.349 48.6341 128.628 48.5901 129.112C47.8421 143.647 51.4648 155.409 59.3554 164.048C68.4194 173.992 83.1741 179.668 102.006 180.445H102.71L103.215 180.448C108.679 180.476 113.668 180.502 118.022 180.445C136.839 179.668 151.594 173.992 160.658 164.048C168.534 155.409 172.157 143.647 171.409 129.083C171.365 128.628 171.321 128.349 171.277 128.1C171.267 128.019 171.255 127.94 171.243 127.858C171.219 127.7 171.193 127.529 171.174 127.308H48.8248C48.7954 127.645 48.7661 127.865 48.7221 128.1Z" fill="#231F20"/>
<path fill-rule="evenodd" clip-rule="evenodd" d="M51.9756 104.076L51.6529 104.795H168.326L168.018 104.076C162.958 92.4601 159.145 74.7574 169.852 56.4388L170.424 55.4561L169.309 55.6761C166.728 56.1748 164.146 56.4241 161.638 56.4241C151.225 56.4241 143.481 55.4561 134.666 50.4694L134.402 50.3228L134.138 50.4841C126.409 55.1628 118.504 57.4361 109.982 57.4508C101.49 57.4508 93.5996 55.1628 85.8556 50.4841L85.5916 50.3228L85.3276 50.4694C76.5129 55.4414 68.7689 56.4241 58.3556 56.4241C55.9209 56.4241 53.3543 56.1894 50.6996 55.7201L49.5996 55.5294L50.1569 56.4974C60.8489 74.7574 57.0503 92.4454 51.9756 104.076ZM110.29 58.4628C118.782 58.4041 126.688 56.1308 134.402 51.5108C143.305 56.4681 151.137 57.4508 161.624 57.4508C163.838 57.4508 166.112 57.2601 168.4 56.8788C158.382 74.8454 161.829 92.1228 166.757 103.768H110.29V58.4628ZM58.3703 57.4508C56.2143 57.4508 53.9409 57.2748 51.6089 56.9081C61.6116 74.8454 58.1503 92.1228 53.2516 103.768H109.278V58.4628C100.948 58.3308 93.1889 56.0574 85.5916 51.5108C76.6889 56.4681 68.8569 57.4508 58.3703 57.4508Z" fill="#231F20"/>
<path d="M95.2751 110.984V107.582H83.7324V123.583H87.1937V116.983H91.9164V113.595H87.1937V110.984H95.2751Z" fill="#231F20"/>
<path d="M108.799 110.779C110.06 110.779 110.955 111.307 111.512 112.392L111.586 112.539L114.798 111.057L114.724 110.896C113.595 108.564 111.556 107.332 108.843 107.332C104.648 107.332 101.715 110.72 101.715 115.575C101.715 120.591 104.472 123.817 108.726 123.817C111.498 123.817 113.507 122.6 114.68 120.18L114.754 120.033L111.835 118.303L111.747 118.449C110.911 119.843 110.119 120.356 108.828 120.356C106.702 120.356 105.279 118.42 105.279 115.56C105.279 112.627 106.628 110.779 108.799 110.779Z" fill="#231F20"/>
<path fill-rule="evenodd" clip-rule="evenodd" d="M135.622 111.894C135.622 109.195 133.701 107.582 130.489 107.582H123.141V123.583H130.43C134.023 123.583 136.179 121.632 136.179 118.362C136.179 116.836 135.446 115.604 134.155 114.915C135.079 114.226 135.622 113.14 135.622 111.894ZM126.529 110.808H130.342C131.897 110.808 132.102 111.527 132.102 112.143C132.102 113.023 131.574 113.448 130.503 113.448H126.529V110.808ZM126.529 120.268H130.518C131.882 120.268 132.586 119.623 132.586 118.406C132.586 117.144 131.926 116.558 130.518 116.558H126.529V120.268Z" fill="#231F20"/>
<path fill-rule="evenodd" clip-rule="evenodd" d="M109.939 170.428C119.473 170.428 127.217 162.67 127.217 153.151C127.217 143.618 119.458 135.874 109.939 135.874C100.406 135.874 92.6621 143.632 92.6621 153.151C92.6475 162.67 100.406 170.428 109.939 170.428ZM109.939 169.387C106.581 169.387 103.471 168.36 100.875 166.615C104.307 166.454 108.869 165.588 111.699 163.902C114.442 162.274 117.346 160.235 117.889 157.507C119.883 156.51 123.697 156.979 124.181 160.998C121.394 165.999 116.055 169.387 109.939 169.387ZM104.806 157.888C103.662 157.742 102.709 157.39 101.917 156.862C100.655 159.032 98.3821 160.25 95.7128 160.279C95.6468 160.279 95.5808 160.275 95.5148 160.272C95.4488 160.268 95.3826 160.264 95.3168 160.264C96.3435 162.376 97.8101 164.224 99.5995 165.706C102.987 165.72 108.194 164.87 111.186 163.095C115.043 160.792 118.035 158.328 116.613 154.926C115.894 153.195 113.503 151.2 110.394 153.4C110.203 155.938 107.065 158.182 104.806 157.888ZM99.3355 148.663C99.2997 146.082 99.8811 143.762 100.486 141.35C100.626 140.788 100.769 140.22 100.905 139.643C103.119 138.162 105.715 137.208 108.517 136.959C106.639 138.998 107.035 142.004 108.957 143.544C108.502 143.882 108.091 144.322 107.739 144.879C106.302 147.152 106.111 150.966 109.426 153.386C109.221 155.292 106.683 157.155 104.923 156.935C101.169 156.451 99.3941 152.96 99.3355 148.663ZM117.507 154.53C117.786 155.19 117.918 155.82 117.947 156.422C120.162 155.644 123.741 156.158 124.841 159.59C125.501 158.05 125.941 156.378 126.102 154.632C125.178 151.274 121.849 147.548 118.666 145.774C114.735 143.574 110.453 142.386 108.561 145.378C107.343 147.299 107.182 150.467 109.925 152.535C113.665 149.954 116.642 152.462 117.507 154.53ZM119.135 144.938C116.305 143.354 112.579 141.902 109.895 143.016C107.871 141.755 107.519 138.572 110.071 136.9C118.651 136.974 125.647 143.691 126.146 152.154C124.621 149.235 121.819 146.434 119.135 144.938ZM99.4917 141.285C99.5558 141.041 99.6213 140.792 99.6875 140.538C96.0355 143.515 93.6888 148.062 93.6888 153.136C93.6888 155.292 94.0995 157.346 94.8621 159.223C95.1408 159.267 95.4195 159.282 95.7128 159.282C98.1181 159.282 100.083 158.167 101.154 156.26C98.0448 153.43 98.0301 147.666 98.8661 143.838C99.0388 143.008 99.2568 142.179 99.4917 141.285Z" fill="#231F20"/>
</g>
<defs>
<clipPath id="clip0_4_2958">
<rect width="220" height="220" fill="white" transform="translate(0 0.5)"/>
</clipPath>
</defs>
</svg>
