<svg width="220" height="221" viewBox="0 0 220 221" fill="none" xmlns="http://www.w3.org/2000/svg">
<g clip-path="url(#clip0_4_2984)">
<path d="M110 220.5C170.751 220.5 220 171.251 220 110.5C220 49.7487 170.751 0.5 110 0.5C49.2487 0.5 0 49.7487 0 110.5C0 171.251 49.2487 220.5 110 220.5Z" fill="#EDF0F4"/>
<path fill-rule="evenodd" clip-rule="evenodd" d="M20.166 111.417C20.166 61.2967 60.7962 20.6665 110.916 20.6665C161.036 20.6665 201.666 61.2967 201.666 111.417C201.666 161.536 161.036 202.167 110.916 202.167C60.7962 202.167 20.166 161.536 20.166 111.417ZM193.728 111.417C193.728 65.6811 156.651 28.6052 110.916 28.6052C65.1806 28.6052 28.1047 65.6811 28.1047 111.417C28.1047 157.152 65.1806 194.228 110.916 194.228C156.651 194.228 193.728 157.152 193.728 111.417Z" fill="#384A53"/>
<path d="M63.6172 168.67C63.6172 168.67 75.9924 156.389 69.6345 152.558C68.045 149.291 66.4555 151.995 64.866 157.854C63.9576 161.685 63.1629 150.643 65.5471 149.854C67.8179 148.953 57.5998 139.94 55.5562 139.151C53.3989 138.25 57.8268 136.222 63.5035 141.517C69.0668 146.812 68.9533 148.277 69.6345 147.488C70.3156 146.7 69.8615 143.883 68.8398 142.644C67.8179 141.404 63.1629 131.49 63.8441 131.715C64.5254 131.94 70.9969 139.038 72.8134 143.77C74.7435 148.39 74.63 134.982 74.63 134.982C74.63 134.982 76.106 129.574 76.7871 127.997C77.4684 126.419 78.8307 131.602 78.8307 131.602C78.8307 131.602 79.8526 137.912 82.9181 140.165C85.9835 142.418 85.1887 137.123 85.1887 137.123L84.0533 111.773L89.3896 107.041C89.3896 107.041 88.8218 126.983 92.0008 125.856C95.1798 124.729 95.7476 115.941 95.7476 115.941C95.7476 115.941 97.9047 101.632 97.7912 100.844C97.6776 100.055 100.516 98.4778 100.516 98.4778L107.669 92.0557C107.669 92.0557 107.442 99.1538 110.394 100.618C113.345 102.196 113.459 93.295 113.459 93.295L114.481 84.6197C114.481 84.6197 153.31 53.636 161.144 51.8333C167.956 58.7061 167.842 70.0856 165.004 73.4655C162.279 76.8456 137.074 110.533 137.074 110.533C137.074 110.533 125.948 109.745 124.585 112.899C123.223 116.054 133.895 115.265 133.895 115.265L116.297 138.475C104.036 133.63 87.1189 142.08 85.1887 145.122C85.1887 145.122 83.8264 147.038 87.9136 147.263C92.0008 147.488 121.066 147.714 121.066 147.714L109.145 150.868C109.145 150.868 85.9835 150.643 83.9399 149.516C81.8962 148.39 83.1451 151.432 83.1451 151.432C83.1451 151.432 87.2323 158.53 95.407 160.332C103.581 162.135 87.2323 159.431 87.2323 159.431C87.2323 159.431 80.7609 157.854 78.9444 152.896C77.1277 148.052 76.7871 154.248 76.7871 154.248C76.7871 154.248 80.0798 161.797 85.7565 163.375C91.3198 164.952 82.4638 163.487 82.4638 163.487C82.4638 163.487 74.8572 160.558 74.1759 158.643C73.4946 156.727 72.2458 160.783 72.2458 160.783C72.2458 160.783 65.5471 168.895 63.7307 169.121C61.914 169.346 63.6172 168.67 63.6172 168.67Z" fill="#384A53"/>
<path d="M101.876 122.702C101.876 122.702 139.683 77.1837 152.967 67.945C153.534 67.607 153.421 68.2829 153.421 68.2829C153.421 68.2829 128.33 100.619 103.238 123.04C100.4 125.631 101.876 122.702 101.876 122.702Z" fill="white"/>
</g>
<defs>
<clipPath id="clip0_4_2984">
<rect width="220" height="220" fill="white" transform="translate(0 0.5)"/>
</clipPath>
</defs>
</svg>
