<svg width="220" height="221" viewBox="0 0 220 221" fill="none" xmlns="http://www.w3.org/2000/svg">
<g clip-path="url(#clip0_4_2989)">
<path d="M110 220.5C170.751 220.5 220 171.251 220 110.5C220 49.7487 170.751 0.5 110 0.5C49.2487 0.5 0 49.7487 0 110.5C0 171.251 49.2487 220.5 110 220.5Z" fill="#24996E"/>
<path fill-rule="evenodd" clip-rule="evenodd" d="M113.106 54.6564C115.466 56.5119 119.6 62.6884 121.899 67.2C124.268 71.8495 123.685 74.8949 120.011 77.0593C118.718 77.8205 117.566 77.9538 111.099 78.0895C102.57 78.2679 99.7524 77.8275 97.8109 76.0136C96.2606 74.5656 95.7009 72.1695 96.3816 69.8967C96.9534 67.9878 101.892 59.9428 104.154 57.2371C107.181 53.6132 110.218 52.7385 113.106 54.6564ZM132.193 93.4004C133.619 94.0448 135.364 95.3813 136.788 96.9185C139.048 99.3605 160.968 132.845 163.482 137.698C166.808 144.118 164.549 149.624 157.873 151.362C155.621 151.949 149.394 152.036 110.001 152.036C70.6084 152.036 64.3811 151.949 62.1292 151.362C55.572 149.654 53.2614 144.292 56.3597 137.97C58.3218 133.965 80.5201 99.9228 82.9011 97.2665C85.3231 94.5645 87.5598 93.1828 90.4784 92.5845C91.4778 92.3799 100.755 92.2457 111.094 92.2868C129.876 92.3607 129.895 92.3616 132.193 93.4004Z" fill="white"/>
</g>
<defs>
<clipPath id="clip0_4_2989">
<rect width="220" height="220" fill="white" transform="translate(0 0.5)"/>
</clipPath>
</defs>
</svg>
