<svg width="220" height="221" viewBox="0 0 220 221" fill="none" xmlns="http://www.w3.org/2000/svg">
<g clip-path="url(#clip0_4_2992)">
<path d="M110 220.5C170.751 220.5 220 171.251 220 110.5C220 49.7487 170.751 0.5 110 0.5C49.2487 0.5 0 49.7487 0 110.5C0 171.251 49.2487 220.5 110 220.5Z" fill="#EDF0F4"/>
<path fill-rule="evenodd" clip-rule="evenodd" d="M60.5 59.1667V160.894H160.6V59.1667H60.5ZM95.4943 70.9672H104.853V80.733H95.4943V70.9672ZM81.6594 70.9672H71.8934V80.733H81.6594V70.9672ZM81.2524 94.568V104.334H71.4866V94.568H81.2524ZM74.7419 148.28H78.4041V144.618H74.7419V148.28ZM81.6594 128.749H71.8934V119.39H81.6594V128.749ZM98.7496 148.28H102.412V144.618H98.7496V148.28ZM102.412 125.493H98.7496V121.831H102.412V125.493ZM95.4943 104.741H105.26V94.9749H95.4943V104.741ZM126.013 148.28H122.35V144.618H126.013V148.28ZM122.35 125.493H126.013V121.831H122.35V125.493ZM126.013 101.485H122.35V97.8233H126.013V101.485ZM119.502 80.733H129.268V70.9672H119.502V80.733ZM150.02 148.28H146.358V144.618H150.02V148.28ZM146.358 125.493H150.02V121.831H146.358V125.493ZM150.02 101.485H146.358V97.8233H150.02V101.485ZM146.358 77.8847H150.02V74.2224H146.358V77.8847Z" fill="#202944"/>
</g>
<defs>
<clipPath id="clip0_4_2992">
<rect width="220" height="220" fill="white" transform="translate(0 0.5)"/>
</clipPath>
</defs>
</svg>
