<svg width="220" height="221" viewBox="0 0 220 221" fill="none" xmlns="http://www.w3.org/2000/svg">
<g clip-path="url(#clip0_4_2995)">
<path fill-rule="evenodd" clip-rule="evenodd" d="M110 220.5C49.5 220.5 0 171.001 0 109.952C0.55 49.4535 49.5 -0.0454497 110.55 0.504539C171.05 1.05453 220 50.0035 220 111.602C219.45 171.551 170.5 220.5 110 220.5Z" fill="#0090FF"/>
<path fill-rule="evenodd" clip-rule="evenodd" d="M119.543 97.6022L116.272 115.225L147.354 119.631L145.172 127.891L114.636 123.486C112.455 130.645 111.364 138.355 108.637 144.964C105.911 152.674 103.184 160.384 99.9125 167.543C95.5501 176.905 87.916 183.514 77.5554 185.166C71.5571 186.266 65.0134 185.716 60.1057 181.861C58.4699 180.76 56.834 178.557 56.834 176.905C56.834 174.702 57.9246 171.949 59.5605 170.847C60.6512 170.296 63.3775 170.847 65.0134 171.398C66.6493 173.05 68.2854 175.253 69.3758 177.456C72.6476 181.861 77.01 182.412 81.3724 179.108C86.2801 174.702 89.0066 168.644 90.6425 162.586C93.9143 149.369 97.1862 136.703 99.9125 123.486V121.283L71.0117 116.877L72.1024 108.616L102.094 113.022L105.911 95.95L74.8289 90.9935L75.9195 82.1822L108.092 86.5879C109.183 83.2835 109.728 80.53 110.819 77.7763C113.545 67.8635 116.272 57.9506 122.815 49.1393C129.359 40.3277 136.993 34.8206 148.444 35.3713C153.352 35.3713 158.26 37.0235 161.531 40.8785C162.077 41.4292 163.167 42.5307 163.167 43.6321C163.167 45.8349 163.167 48.5885 161.531 50.2407C159.35 51.8928 156.624 51.342 154.442 49.1393C152.807 47.4871 151.716 45.8349 150.08 44.1829C146.808 39.777 141.901 39.2264 138.083 43.0814C135.357 45.8349 132.631 49.69 130.995 53.545C127.178 65.11 124.451 77.2258 120.634 89.3413L150.625 93.747L148.444 102.008L119.543 97.6022Z" fill="white"/>
</g>
<defs>
<clipPath id="clip0_4_2995">
<rect width="220" height="220" fill="white" transform="translate(0 0.5)"/>
</clipPath>
</defs>
</svg>
