<svg width="220" height="221" viewBox="0 0 220 221" fill="none" xmlns="http://www.w3.org/2000/svg">
<g clip-path="url(#clip0_4_2998)">
<path d="M110 220.5C170.753 220.5 220 171.253 220 110.5C220 49.747 170.753 0.5 110 0.5C49.247 0.5 0 49.747 0 110.5C0 171.253 49.247 220.5 110 220.5Z" fill="#EDF0F4"/>
<path d="M112.921 127.125V167.069C112.921 169.19 111.589 170.205 109.944 169.31L87.3499 156.92C85.5207 155.686 84.4068 153.638 84.3555 151.432V112.4C84.6853 112.666 85.0365 112.897 85.405 113.103L112.921 127.125Z" fill="#425CC7"/>
<mask id="mask0_4_2998" style="mask-type:luminance" maskUnits="userSpaceOnUse" x="84" y="50" width="51" height="59">
<path fill-rule="evenodd" clip-rule="evenodd" d="M84.334 50H134.708V108.278H84.334V50Z" fill="white"/>
</mask>
<g mask="url(#mask0_4_2998)">
<path d="M86.8601 108.037L132.22 84.7793C133.732 83.8239 134.67 82.1703 134.708 80.3797V52.1093C134.708 50.3572 133.586 49.5516 132.22 50.2499L90.4201 71.6873C86.1061 74.0008 84.1097 75.0888 84.3539 79.9769V106.178C84.3539 107.845 85.4935 108.74 86.8601 108.037Z" fill="#005CB9"/>
</g>
<path d="M86.8616 75.6828L132.221 98.9408C133.738 99.9048 134.671 101.563 134.71 103.358V131.611C134.71 133.363 133.588 134.186 132.221 133.487L86.8616 110.225C85.3407 109.27 84.3984 107.612 84.3555 105.812V77.555C84.3555 75.8241 85.4951 74.9802 86.8616 75.6828Z" fill="#3CB4E5"/>
<path d="M86.8616 108.037L118.409 91.8605L86.8616 75.6839C86.3303 75.3326 85.6406 75.3326 85.1095 75.6839C84.651 76.5235 84.394 77.4574 84.3555 78.417V105.809C84.3725 106.413 84.4968 107.005 84.7238 107.566C85.1394 108.277 86.0518 108.517 86.763 108.101C86.7931 108.08 86.8273 108.058 86.8616 108.037Z" fill="#00A0DF"/>
</g>
<defs>
<clipPath id="clip0_4_2998">
<rect width="220" height="220" fill="white" transform="translate(0 0.5)"/>
</clipPath>
</defs>
</svg>
