<svg width="220" height="221" viewBox="0 0 220 221" fill="none" xmlns="http://www.w3.org/2000/svg">
<g clip-path="url(#clip0_4_3008)">
<path d="M110 220.5C170.751 220.5 220 171.251 220 110.5C220 49.7487 170.751 0.5 110 0.5C49.2487 0.5 0 49.7487 0 110.5C0 171.251 49.2487 220.5 110 220.5Z" fill="#EDF0F4"/>
<path d="M109.948 192.841C155.424 192.841 192.29 155.976 192.29 110.5C192.29 65.0243 155.424 28.1589 109.948 28.1589C64.4728 28.1589 27.6074 65.0243 27.6074 110.5C27.6074 155.976 64.4728 192.841 109.948 192.841Z" fill="#FEFEFE"/>
<path d="M75.9297 146.637C77.8371 146.637 79.6387 145.577 80.4864 143.882L92.6204 120.832H73.8632C71.0019 120.832 68.7234 118.501 68.7234 115.693V105.36C68.7234 102.499 71.0549 100.221 73.8632 100.221H103.536L126.585 56.5597C127.486 54.8642 129.234 53.8043 131.142 53.8043H169.981C154.933 37.9084 133.685 28 110.053 28C64.4846 28 27.5 64.9316 27.5 110.553C27.5 123.482 30.4672 135.775 35.8189 146.69H75.9297V146.637Z" fill="#9B1C2E"/>
<path d="M144.067 74.363C142.159 74.363 140.358 75.4229 139.51 77.1184L127.376 100.168H146.133C148.994 100.168 151.273 102.499 151.273 105.307V115.64C151.273 118.501 148.941 120.779 146.133 120.779H116.461L93.4115 164.44C92.5108 166.136 90.7622 167.196 88.8548 167.196H50.0156C65.0638 183.091 86.3114 193 109.943 193C155.512 193 192.496 156.068 192.496 110.447C192.496 97.5182 189.528 85.2254 184.177 74.3101H144.067V74.363Z" fill="#9B1C2E"/>
</g>
<defs>
<clipPath id="clip0_4_3008">
<rect width="220" height="220" fill="white" transform="translate(0 0.5)"/>
</clipPath>
</defs>
</svg>
