<svg width="220" height="221" viewBox="0 0 220 221" fill="none" xmlns="http://www.w3.org/2000/svg">
<g clip-path="url(#clip0_4_3013)">
<path d="M110 220.5C170.751 220.5 220 171.251 220 110.5C220 49.7487 170.751 0.5 110 0.5C49.2487 0.5 0 49.7487 0 110.5C0 171.251 49.2487 220.5 110 220.5Z" fill="#EDF0F4"/>
<path d="M90.3509 83.3229L89.6392 84.0346L73.3339 100.34L68.4164 105.257C68.1573 105.64 67.8279 105.969 67.4458 106.228C65.9234 107.228 63.8787 106.805 62.8777 105.283C62.515 104.74 62.3256 104.099 62.3343 103.446V87.9815C62.6127 80.4299 68.8182 74.4534 76.3748 74.4585H90.3509L86.2747 78.5995L81.5513 83.3229H90.3509Z" fill="url(#paint0_linear_4_3013)"/>
<path d="M157.192 92.2519V93.2872C156.956 102.077 153.556 110.486 147.616 116.969L101.352 163.232C98.7894 165.523 95.4727 166.79 92.035 166.791C91.1026 166.773 90.1727 166.686 89.2527 166.532L86.5352 165.691C83.629 164.682 80.7967 163.471 78.0591 162.067L77.4767 161.744C76.9692 161.364 76.6794 160.76 76.7003 160.126C76.6937 159.685 76.8299 159.254 77.0886 158.897L128.981 106.94C129.233 106.666 129.45 106.361 129.628 106.034C129.951 105.414 130.211 104.764 130.404 104.093C130.501 103.667 130.566 103.234 130.599 102.799C130.656 102.522 130.677 102.24 130.663 101.958C130.663 97.1691 126.781 93.2872 121.993 93.2872H103.035L115.781 80.5406C116.164 80.2815 116.493 79.9521 116.752 79.57C117.095 79.0285 117.275 78.3994 117.27 77.7583C117.27 75.9358 115.792 74.4585 113.97 74.4585H86.9235C86.9235 74.4585 89.5116 71.6115 90.5469 70.5762C92.8763 68.0528 95.7233 64.8176 98.829 62.5528C105.091 57.9471 112.667 55.4747 120.44 55.5002C125.043 55.5059 129.606 56.3615 133.898 58.0236L135.646 58.7355C138.753 60.1653 141.648 62.0159 144.251 64.2353L144.769 64.6881H144.834C152.689 71.6707 157.186 81.6773 157.192 92.1874V92.2519Z" fill="url(#paint1_linear_4_3013)"/>
<path fill-rule="evenodd" clip-rule="evenodd" d="M87.1163 74.4585H119.727C121.55 74.4585 123.027 75.9358 123.027 77.7583C123.042 78.4104 122.837 79.0486 122.445 79.57L108.792 93.2872H73.4638C72.6018 93.296 71.8189 92.7856 71.4794 91.9932C71.1397 91.2009 71.31 90.282 71.9108 89.6638L87.1163 74.4585ZM104.004 81.8347C104.039 82.9886 104.985 83.9057 106.139 83.9051C107.283 83.8873 108.195 82.9459 108.177 81.8023C108.159 80.6588 107.218 79.7462 106.074 79.7642C105.684 79.7634 105.302 79.8758 104.975 80.0877C104.713 80.252 104.492 80.4731 104.327 80.7347C104.124 81.0664 104.013 81.4459 104.004 81.8347Z" fill="#E35CC7"/>
<path d="M91.3199 74.4585H86.8554L71.8441 89.4049C71.1824 90.0532 70.982 91.0388 71.3384 91.8939C71.6946 92.7489 72.5356 93.3008 73.4616 93.2872H80.385L99.2139 74.4585H91.3199Z" fill="#8961D0"/>
<path d="M106.076 83.9052C107.22 83.9052 108.147 82.9782 108.147 81.8347C108.147 80.6912 107.22 79.7642 106.076 79.7642C104.933 79.7642 104.006 80.6912 104.006 81.8347C104.006 82.9782 104.933 83.9052 106.076 83.9052Z" fill="#8961D0"/>
<path opacity="0.48" d="M106.076 83.9052C107.22 83.9052 108.147 82.9782 108.147 81.8347C108.147 80.6912 107.22 79.7642 106.076 79.7642C104.933 79.7642 104.006 80.6912 104.006 81.8347C104.006 82.9782 104.933 83.9052 106.076 83.9052Z" fill="url(#paint2_linear_4_3013)"/>
<path opacity="0.48" d="M108.081 81.8347C108.082 80.716 107.194 79.7992 106.075 79.7642C105.336 79.7838 104.656 80.1724 104.264 80.7994C104.658 80.4577 105.165 80.2733 105.687 80.2817C106.795 80.2817 107.693 81.1799 107.693 82.2876V82.3523C107.706 82.6944 107.615 83.0324 107.434 83.3228C107.85 82.94 108.085 82.3998 108.081 81.8347Z" fill="#480061"/>
<path opacity="0.75" fill-rule="evenodd" clip-rule="evenodd" d="M87.1164 74.4585H119.727C121.55 74.4585 123.027 75.9358 123.027 77.7583C123.042 78.4104 122.837 79.0486 122.445 79.57L108.792 93.2872H73.4639C72.6136 93.2703 71.8544 92.7504 71.5312 91.9637C71.2082 91.177 71.3827 90.2736 71.9756 89.6638L87.1164 74.4585ZM104.611 83.2988C104.999 83.6871 105.525 83.9051 106.075 83.9051C107.18 83.8417 108.052 82.9415 108.08 81.8347C108.081 80.716 107.193 79.7992 106.075 79.7642C105.684 79.7634 105.302 79.8758 104.975 80.0877C104.713 80.252 104.492 80.4731 104.328 80.7347C104.124 81.0664 104.013 81.4459 104.004 81.8347C104.004 82.3838 104.222 82.9105 104.611 83.2988Z" fill="url(#paint3_linear_4_3013)"/>
<path d="M91.3199 74.4585H86.8554L71.8441 89.4049C71.1824 90.0532 70.982 91.0388 71.3384 91.8939C71.6946 92.7489 72.5356 93.3008 73.4616 93.2872H80.385L99.2139 74.4585H91.3199Z" fill="url(#paint4_linear_4_3013)"/>
<path opacity="0.43" d="M112.671 93.2872L122.183 79.8936L108.789 93.2872H112.671Z" fill="url(#paint5_linear_4_3013)"/>
</g>
<defs>
<linearGradient id="paint0_linear_4_3013" x1="62.3343" y1="106.771" x2="90.3509" y2="106.771" gradientUnits="userSpaceOnUse">
<stop stop-color="#4750D9"/>
<stop offset="0.41" stop-color="#5C45DC"/>
<stop offset="1" stop-color="#8131E1"/>
</linearGradient>
<linearGradient id="paint1_linear_4_3013" x1="76.7003" y1="166.79" x2="157.192" y2="166.79" gradientUnits="userSpaceOnUse">
<stop stop-color="#E96161"/>
<stop offset="0.2" stop-color="#E65B76"/>
<stop offset="0.61" stop-color="#DF4AAC"/>
<stop offset="1" stop-color="#D739E6"/>
</linearGradient>
<linearGradient id="paint2_linear_4_3013" x1="103.999" y1="83.8825" x2="108.095" y2="83.8825" gradientUnits="userSpaceOnUse">
<stop stop-color="#B100D3"/>
<stop offset="0.23" stop-color="#9C00C0"/>
<stop offset="0.69" stop-color="#67008E"/>
<stop offset="1" stop-color="#40006A"/>
</linearGradient>
<linearGradient id="paint3_linear_4_3013" x1="71.3739" y1="93.2866" x2="123.027" y2="93.2866" gradientUnits="userSpaceOnUse">
<stop stop-color="#D0D7D3"/>
<stop offset="0.52" stop-color="#D9C5E8"/>
<stop offset="1" stop-color="#E3B1FF"/>
</linearGradient>
<linearGradient id="paint4_linear_4_3013" x1="71.2035" y1="93.272" x2="99.2073" y2="93.272" gradientUnits="userSpaceOnUse">
<stop stop-color="#B277EC"/>
<stop offset="0.77" stop-color="#9336E7"/>
<stop offset="1" stop-color="#8921E6"/>
</linearGradient>
<linearGradient id="paint5_linear_4_3013" x1="108.77" y1="93.3002" x2="122.189" y2="93.3002" gradientUnits="userSpaceOnUse">
<stop stop-opacity="0.5"/>
<stop offset="0.1" stop-color="#201322" stop-opacity="0.59"/>
<stop offset="0.25" stop-color="#4A2C4E" stop-opacity="0.72"/>
<stop offset="0.4" stop-color="#6D4173" stop-opacity="0.82"/>
<stop offset="0.55" stop-color="#885190" stop-opacity="0.9"/>
<stop offset="0.7" stop-color="#9B5DA4" stop-opacity="0.95"/>
<stop offset="0.85" stop-color="#A664B0" stop-opacity="0.99"/>
<stop offset="1" stop-color="#AA66B4"/>
</linearGradient>
<clipPath id="clip0_4_3013">
<rect width="220" height="220" fill="white" transform="translate(0 0.5)"/>
</clipPath>
</defs>
</svg>
