<svg width="220" height="221" viewBox="0 0 220 221" fill="none" xmlns="http://www.w3.org/2000/svg">
<g clip-path="url(#clip0_4_3025)">
<path d="M110 220.5C170.751 220.5 220 171.251 220 110.5C220 49.7487 170.751 0.5 110 0.5C49.2487 0.5 0 49.7487 0 110.5C0 171.251 49.2487 220.5 110 220.5Z" fill="#00EF8B"/>
<path d="M158.178 93.3398H127.158V124.36H158.178V93.3398Z" fill="white"/>
<path d="M96.1408 136.02C96.1408 142.4 90.8608 147.68 84.4808 147.68C78.1008 147.68 72.8208 142.4 72.8208 136.02C72.8208 129.64 78.1008 124.36 84.4808 124.36H96.1408V93.3398H84.4808C60.9408 93.3398 41.8008 112.48 41.8008 136.02C41.8008 159.56 60.9408 178.7 84.4808 178.7C108.021 178.7 127.161 159.56 127.161 136.02V124.36H96.1408V136.02Z" fill="white"/>
<path d="M138.823 77.7199H173.803V46.7H138.823C115.283 46.7 96.1426 65.8399 96.1426 89.3799V93.3399H127.163V89.3799C127.163 82.9999 132.443 77.7199 138.823 77.7199Z" fill="white"/>
<path d="M127.163 93.3401H96.1426V124.36H127.163V93.3401Z" fill="#16FF99"/>
</g>
<defs>
<clipPath id="clip0_4_3025">
<rect width="220" height="220" fill="white" transform="translate(0 0.5)"/>
</clipPath>
</defs>
</svg>
