<svg width="220" height="221" viewBox="0 0 220 221" fill="none" xmlns="http://www.w3.org/2000/svg">
<path d="M109.999 218.697C169.755 218.697 218.196 170.255 218.196 110.5C218.196 50.7445 169.755 2.30322 109.999 2.30322C50.2441 2.30322 1.80273 50.7445 1.80273 110.5C1.80273 170.255 50.2441 218.697 109.999 218.697Z" fill="black" stroke="black" stroke-width="1.2373"/>
<path fill-rule="evenodd" clip-rule="evenodd" d="M41.9501 59.215C41.9882 59.1389 45.7518 55.1091 50.3139 50.319L58.5636 41.499L60.2365 43.1337C61.1487 44.0462 64.9885 47.6958 68.7523 51.2694C70.5597 53.0038 72.376 54.7295 73.8684 56.1474C75.4835 57.682 76.7193 58.8563 77.1541 59.2911L78.7127 60.8116L80.0814 59.9752C80.8416 59.5192 82.7805 58.4545 84.4532 57.6562C90.2318 54.767 95.8965 53.0562 102.816 52.0677C105.705 51.6495 115.057 51.7256 118.175 52.1818C124.181 53.0562 129.351 54.6148 134.902 57.1621C136.727 57.9985 139.996 59.7852 141.289 60.6596C141.745 61.0018 142.239 61.23 142.315 61.1919C142.429 61.1539 146.687 56.7438 151.82 51.3835C156.952 45.985 161.248 41.613 161.4 41.613C161.628 41.613 178.736 57.7704 178.888 58.1505C178.926 58.2645 174.554 62.9407 169.193 68.5291L159.423 78.7558L160.145 80.0104C161.628 82.5195 164.175 87.9939 165.012 90.427C170.79 107.04 168.927 125.061 159.993 139.925L158.929 141.674L161.248 143.879C168.243 150.456 179.686 161.443 179.724 161.557C179.762 161.785 163.073 179.235 162.921 179.159C162.769 179.083 147.562 164.636 143.494 160.683L141.631 158.858L139.882 159.922C133.153 163.99 124.942 166.765 116.654 167.716C112.358 168.248 104.678 168.058 100.649 167.336C92.627 165.891 85.3657 163.154 79.1689 159.2L77.9524 158.44L76.6598 159.732C75.9755 160.454 71.4514 165.207 66.6233 170.263L57.8414 179.425L57.2712 178.931C55.7883 177.714 40.2394 162.698 40.2774 162.584C40.2902 162.571 40.4278 162.425 40.6741 162.163C41.8984 160.863 45.8075 156.711 50.4281 151.901C55.9786 146.084 60.5786 141.218 60.6546 141.066C60.7306 140.914 60.3885 140.077 59.6282 138.785C58.0695 136.162 56.2445 132.17 55.1801 129.052C49.5156 112.553 51.3784 94.6088 60.3885 79.7062L61.4149 77.9954L60.8447 77.4633C60.6088 77.2568 57.9041 74.673 54.3435 71.2717C53.3126 70.2867 52.2097 69.2331 51.0744 68.149C46.018 63.3589 41.9121 59.3289 41.9501 59.215ZM130.568 81.3789C125.588 77.8814 120.189 75.8284 114.145 75.1062C99.5461 73.3574 85.3657 81.0368 78.8268 94.1906C77.192 97.5363 76.3176 99.9314 75.6713 103.277C74.9871 106.66 74.9871 113.047 75.6713 116.469C77.8383 127.228 84.6054 136.2 94.1857 141.104C107.454 147.871 123.231 145.59 134.142 135.401C146.915 123.426 148.854 103.885 138.704 89.5146C136.917 86.9674 133.115 83.1658 130.568 81.3789Z" fill="white"/>
</svg>
