<svg width="220" height="221" viewBox="0 0 220 221" fill="none" xmlns="http://www.w3.org/2000/svg">
<path d="M109.999 218.697C169.755 218.697 218.196 170.255 218.196 110.5C218.196 50.7445 169.755 2.30322 109.999 2.30322C50.2441 2.30322 1.80273 50.7445 1.80273 110.5C1.80273 170.255 50.2441 218.697 109.999 218.697Z" fill="black" stroke="black" stroke-width="0.436504"/>
<path d="M62.049 48.841L54.7949 56.0948L63.9727 65.2726L73.1703 74.4502L72.4088 76.6946C71.4269 79.6402 71.0262 82.105 71.0262 85.3714C71.0262 96.0119 76.5969 105.069 86.456 110.46C90.4236 112.624 97.2367 115.069 104.791 117.012C119.54 120.8 121.804 121.461 124.71 122.824C128.677 124.707 130.641 126.751 131.463 129.837C131.823 131.18 131.803 134.185 131.443 135.628C130.521 139.135 127.535 142.662 123.828 144.586C118.818 147.211 110.101 147.932 103.529 146.249C101.084 145.647 97.6176 143.944 95.8741 142.521C92.3273 139.596 89.562 134.546 88.3395 128.715C88.1392 127.793 87.9789 127.012 87.9588 126.971C87.8988 126.891 67.3791 128.895 67.279 129.015C67.1988 129.076 67.259 129.917 67.3993 130.879C68.0405 135.508 69.6637 141.019 71.5272 144.846L72.6093 147.07L63.6921 155.987L54.7949 164.905L62.069 172.179L69.3229 179.433L78.5207 170.235L87.6984 161.057L89.2814 161.718C97.6576 165.245 110.222 166.347 122.405 164.584C125.331 164.163 129.559 163.161 131.783 162.34L133.106 161.859L141.903 170.656L150.68 179.433L157.934 172.179L165.208 164.905L157.052 156.749L148.916 148.613L149.938 146.529C152.063 142.261 152.944 138.634 153.124 133.644C153.445 124.126 150.98 116.952 145.369 111.041C139.518 104.889 132.926 101.963 114.31 97.2743C101.184 93.988 95.5335 91.7237 93.2892 88.8781C91.0648 86.0727 90.8645 82.1452 92.8082 79.2796C93.9304 77.6164 96.6957 75.833 99.7014 74.8311C103.088 73.6889 108.779 73.1677 113.007 73.6086C121.924 74.5505 126.413 78.3577 128.377 86.6939C128.617 87.7159 128.838 88.5775 128.858 88.6175C128.898 88.6777 143.406 88.1568 147.754 87.9362L150.239 87.8161L150.099 86.0727C149.818 82.5259 149.117 79.3598 147.834 76.0533L147.133 74.1898L156.17 65.1323L165.208 56.0948L157.954 48.8209L150.68 41.5669L141.542 50.7045L132.385 59.8622L130.16 59.0205C124.69 56.9766 119.4 56.0748 111.605 55.8545C103.088 55.6341 95.6136 56.7361 89.8826 59.0607L87.7585 59.9223L78.5407 50.7445L69.3229 41.5669L62.049 48.841Z" fill="white"/>
</svg>
