<svg width="220" height="221" viewBox="0 0 220 221" fill="none" xmlns="http://www.w3.org/2000/svg">
<g clip-path="url(#clip0_4_3037)">
<path d="M219.974 110.504C219.974 171.244 170.727 220.491 109.96 220.5C49.238 220.5 -0.00879564 171.244 4.71637e-06 110.496C-0.017596 49.7468 49.2292 0.5 109.978 0.5C170.727 0.5 219.974 49.7556 219.974 110.504Z" fill="#02A6C2"/>
<path d="M85.5652 61.0062C112.96 60.9979 140.356 60.9979 167.754 61.0062C167.763 69.8612 167.763 78.7147 167.754 87.5668C140.359 87.5752 112.963 87.5752 85.5652 87.5668C85.5564 78.7118 85.5564 69.8583 85.5652 61.0062Z" fill="white"/>
<path d="M53.2005 97.5598C62.0387 97.5139 70.8784 97.5139 79.7197 97.5598C79.7655 106.398 79.7655 115.238 79.7197 124.079C70.8788 124.124 62.039 124.125 53.2005 124.081C53.1545 115.242 53.1545 106.401 53.2005 97.5598Z" fill="white"/>
<path d="M85.5817 97.5593C105.355 97.5173 125.126 97.5173 144.897 97.5593C144.939 106.397 144.939 115.237 144.897 124.078C125.124 124.12 105.352 124.12 85.5817 124.078C85.5405 115.24 85.5405 106.4 85.5817 97.5593Z" fill="white"/>
<path d="M85.6083 134.121C94.4316 134.025 103.253 134.025 112.074 134.121C112.165 142.938 112.167 151.76 112.078 160.586C103.254 160.673 94.4327 160.672 85.6129 160.581C85.5213 151.765 85.5196 142.944 85.6083 134.121Z" fill="white"/>
</g>
<defs>
<clipPath id="clip0_4_3037">
<rect width="220" height="220" fill="white" transform="translate(0 0.5)"/>
</clipPath>
</defs>
</svg>
