<svg width="220" height="221" viewBox="0 0 220 221" fill="none" xmlns="http://www.w3.org/2000/svg">
<g clip-path="url(#clip0_4_3043)">
<path d="M110 220.5C170.751 220.5 220 171.251 220 110.5C220 49.7487 170.751 0.5 110 0.5C49.2487 0.5 0 49.7487 0 110.5C0 171.251 49.2487 220.5 110 220.5Z" fill="#EDF0F4"/>
<path d="M110 176.5C146.451 176.5 176 146.951 176 110.5C176 74.0492 146.451 44.5 110 44.5C73.5492 44.5 44 74.0492 44 110.5C44 146.951 73.5492 176.5 110 176.5Z" fill="#00AFEC"/>
<path fill-rule="evenodd" clip-rule="evenodd" d="M93.636 91.3726L93.8217 91.4138V91.4178H93.834C89.3746 100.407 83.9381 108.877 77.623 116.675L77.594 116.704C71.5761 115.743 65.7837 113.694 60.5 110.657V109.667C60.8186 94.5169 68.0504 80.3451 80.131 71.1971V71.1806C87.2375 65.8012 95.667 62.4446 104.526 61.4663C102.605 69.8952 99.8741 78.1188 96.371 86.0223H96.3505C95.3935 85.7873 94.4322 85.5603 93.471 85.3541L92.1718 91.0178H92.1925V91.0426L93.636 91.3726ZM128.155 92.5287C128.028 92.7967 127.9 93.0686 127.762 93.2906L127.016 93.1008C121.863 83.0813 118.299 72.4471 115.783 61.4663C122.581 62.2128 128.831 64.3661 134.75 67.7816C134.743 76.3247 132.532 84.7216 128.331 92.1603C128.272 92.2786 128.214 92.4034 128.155 92.5287ZM124.809 99.7668C125.894 100.344 126.298 101.169 126.813 102.786C127.527 105.228 127.045 107.798 126.537 110.211L132.523 111.602L134.007 105.154C140.051 114.456 146.754 124.063 154.892 131.604C153.486 134.798 152.588 136.012 150.628 138.665L150.326 139.074C137.002 134.974 122.812 132.8 108.87 132.936L110.062 128.172L106.085 127.244C105.467 127.087 104.835 126.81 104.464 126.266C103.998 125.647 103.998 124.83 104.155 124.1L106.642 113.285C106.938 113.356 107.237 113.421 107.536 113.487C108.54 113.706 109.551 113.928 110.479 114.369C111.622 114.828 112.478 115.804 112.784 116.997C113.017 118.168 112.729 119.306 112.443 120.435C112.328 120.889 112.213 121.342 112.133 121.794L117.487 123.032L121.95 103.694L121.496 103.541L121.146 103.475C122.383 102.176 123.464 101.021 124.582 99.6101L124.813 99.7668H124.809ZM77.8785 117.768L77.7507 117.946C73.77 122.85 69.6038 127.623 64.9757 131.913C66.0719 134.448 66.8695 135.474 68.1268 137.09C68.5346 137.614 68.9909 138.201 69.5215 138.921C76.8737 136.7 84.3892 135.06 91.9985 134.017C92.2788 132.797 92.4038 132.218 92.5919 131.347C92.664 131.013 92.7454 130.636 92.8482 130.164L83.7073 128.048C83.8299 127.518 83.9538 126.986 84.0779 126.454C84.3922 125.106 84.7081 123.752 85.0065 122.401C85.7496 122.543 86.4879 122.717 87.2239 122.89C87.8524 123.038 88.48 123.185 89.107 123.312C89.7747 123.477 90.4807 123.354 91.054 122.974C91.6272 122.553 91.9202 121.86 92.077 121.192L92.9555 117.818C92.6627 117.83 92.3657 117.859 92.077 117.9C88.286 118.437 84.59 118.362 80.7825 118.024C80.3798 117.982 80.0147 117.968 79.6602 117.955C79.0783 117.933 78.5246 117.912 77.8785 117.768ZM98.974 131.575L102.641 132.425L102.517 133.151L98.6025 133.431L98.974 131.575ZM93.071 116.737C92.7839 116.747 92.4975 116.772 92.213 116.811L92.2088 116.816C88.418 117.348 84.5775 117.443 80.762 117.092C80.4842 117.063 80.2932 117.047 80.1422 117.033C79.7308 116.998 79.618 116.988 78.8603 116.828C85.1202 109.134 90.5049 100.768 94.9148 91.8841C94.9593 91.8921 95.077 91.8644 95.1958 91.8368C95.3194 91.8078 95.4441 91.7786 95.4882 91.7891C95.8872 91.882 95.935 91.8912 95.982 91.9037C96.0287 91.916 96.0747 91.9317 96.4658 92.0366L96.6185 92.0861C97.2937 92.3138 97.8243 92.8431 98.054 93.5176C98.283 94.2428 98.1061 94.9683 97.9293 95.6937C97.88 95.8963 97.8305 96.0991 97.79 96.3018L93.071 116.721V116.737Z" fill="white"/>
<path d="M102.701 87.4701V87.4866C103.427 84.4219 104.108 81.3446 104.85 78.2839L110.947 79.6864L108.827 88.8934L112.477 89.7431C112.84 88.2126 113.199 86.6781 113.55 85.1436L114.082 82.8419L114.614 80.5401L120.707 81.9304C120.624 82.3429 120.534 82.7553 120.443 83.1678C119.853 85.8366 119.197 88.4809 118.607 91.1579L125.624 92.7914C120.472 82.7676 117.06 72.2901 114.548 61.3094C112.972 61.1239 112.308 61.1856 110.712 61.1568H109.738C107.989 61.1568 107.342 61.1114 105.626 61.3094C103.695 69.7369 101.418 78.5766 97.9121 86.4801L102.701 87.4701Z" fill="white"/>
<path fill-rule="evenodd" clip-rule="evenodd" d="M135.831 68.5488C144.877 73.7876 150.961 80.9733 155.231 90.5186V90.5144C157.891 96.5017 159.342 102.956 159.5 109.506V111.828C159.356 118.28 157.945 124.636 155.354 130.543C147.232 122.995 140.504 112.756 134.474 103.459L136.297 95.2623V95.2334C134.125 94.7459 132.58 94.4089 130.7 93.9988C130.13 93.8747 129.53 93.7438 128.872 93.5999C129.082 93.112 129.314 92.6344 129.569 92.1686C133.768 84.7229 135.823 77.0958 135.831 68.5488ZM107.975 107.608L110.804 95.3406L117.718 96.9494C119.727 97.319 121.674 97.9702 123.501 98.8841C122.562 100.07 121.419 101.29 120.341 102.44L120.338 102.443C120.139 102.656 119.941 102.867 119.747 103.075L119.673 103.133L119.662 103.145C119.657 103.135 119.642 103.126 119.607 103.12L116.621 102.361C116.491 102.832 116.386 103.308 116.281 103.786C116.144 104.406 116.007 105.028 115.816 105.641C115.467 106.827 114.55 107.761 113.37 108.132C111.874 108.552 110.361 108.183 108.887 107.824C108.581 107.749 108.277 107.675 107.975 107.608ZM119.65 103.172C119.657 103.169 119.668 103.157 119.662 103.145C119.64 103.169 119.643 103.175 119.65 103.172ZM60.5 111.738V112.451C60.595 119.047 62.0055 124.471 64.6457 130.519C69.0254 126.478 73.0945 122.114 76.8185 117.463C70.8167 116.506 65.7595 114.79 60.5 111.738ZM106.626 143.046L108.701 134.013C122.648 133.876 136.533 135.897 149.864 140.002C140.764 152.325 126.489 159.762 111.176 160.157H109.15C93.718 159.879 79.2957 152.428 70.1402 140.002C77.1733 137.832 84.3755 136.244 91.6727 135.254C91.3383 136.595 91.0393 137.925 90.7337 139.285L90.7115 139.383L96.8412 140.79H96.8495L98.2932 134.508L102.191 134.231L100.488 141.644L106.613 143.046H106.626Z" fill="white"/>
</g>
<defs>
<clipPath id="clip0_4_3043">
<rect width="220" height="220" fill="white" transform="translate(0 0.5)"/>
</clipPath>
</defs>
</svg>
