<svg width="220" height="221" viewBox="0 0 220 221" fill="none" xmlns="http://www.w3.org/2000/svg">
<g clip-path="url(#clip0_4_3049)">
<path d="M220 110.5C220 49.7487 170.751 0.5 110 0.5C49.2487 0.5 0 49.7487 0 110.5C0 171.251 49.2487 220.5 110 220.5C170.751 220.5 220 171.251 220 110.5Z" fill="#181818"/>
<path d="M55.8486 102.65H40.334V93.3807H55.8486C55.8486 93.1268 55.8486 92.9163 55.8486 92.7059C55.8884 90.0006 55.8209 87.2931 55.9908 84.5926C56.3175 79.4072 57.6474 74.5212 60.7702 70.2583C64.0399 65.7947 68.5466 63.2411 73.8515 61.966C78.174 60.9292 82.5553 60.8233 86.9645 61.1975C91.5295 61.5935 96.0165 62.6243 100.296 64.2599C100.537 64.3513 100.778 64.4535 101.071 64.5726L98.4472 72.942C97.8251 72.7014 97.2416 72.4609 96.6472 72.2418C90.9901 70.1406 85.1511 69.5956 79.2192 70.517C72.4675 71.5624 68.3911 75.8095 67.2831 82.5635C66.8829 85.0137 66.9153 87.4735 66.9142 89.9381C66.9142 91.0555 66.9142 92.1742 66.9142 93.3517H94.3962V102.593H66.96V159.848H55.8486V102.65Z" fill="white"/>
<path fill-rule="evenodd" clip-rule="evenodd" d="M113.833 157.578L113.826 157.584C112.808 158.404 111.795 159.219 110.828 160C95.3568 145.963 93.6362 118.995 110.766 102.675C111.791 103.496 112.855 104.359 113.921 105.224C114.715 105.868 115.51 106.514 116.292 107.144L116.18 107.272C115.738 107.777 115.318 108.259 114.902 108.746C111.164 113.125 108.575 117.955 107.482 123.637C106.794 127.219 106.667 130.828 106.92 134.462C107.206 138.552 108.15 142.476 109.909 146.193C111.441 149.39 113.431 152.348 115.817 154.973C115.921 155.083 116.019 155.195 116.14 155.332C116.2 155.4 116.266 155.475 116.34 155.558C115.515 156.224 114.672 156.902 113.833 157.578ZM144.707 131.431C144.684 131.393 144.665 131.353 144.649 131.311C144.665 131.27 144.685 131.229 144.707 131.191C146.321 128.286 147.973 125.291 149.615 122.312C150.72 120.308 151.822 118.309 152.906 116.351C153.396 115.464 153.904 114.569 154.421 113.66C154.997 112.646 155.582 111.615 156.161 110.562H145.672C145.672 110.562 141.032 120.906 138.92 125.521H138.679C136.346 120.876 131.324 110.562 131.324 110.562L120.286 110.502C120.441 110.793 128.298 124.824 131.927 131.191C131.952 131.235 131.974 131.275 131.993 131.311L131.927 131.431C128.298 137.707 120.32 152.016 120.166 152.302L131.324 152.243C131.324 152.243 136.346 142.075 138.679 137.505H138.92C141.032 142.051 145.672 152.249 145.672 152.249H156.282C155.968 151.688 155.117 150.151 153.996 148.129L153.991 148.121C151.167 143.027 146.639 134.859 144.707 131.431ZM162.759 157.735C161.855 157.007 160.946 156.275 160.058 155.558C160.09 155.521 160.121 155.485 160.15 155.451C160.319 155.257 160.443 155.114 160.576 154.973C162.961 152.347 164.951 149.389 166.484 146.193C168.243 142.476 169.186 138.552 169.472 134.462C169.725 130.828 169.598 127.219 168.91 123.637C167.819 117.955 165.229 113.125 161.491 108.746C161.039 108.218 160.583 107.696 160.101 107.144C160.992 106.427 161.901 105.691 162.805 104.959C163.762 104.183 164.714 103.412 165.632 102.675C182.762 118.995 181.04 145.963 165.569 160C164.661 159.267 163.713 158.504 162.759 157.735Z" fill="#F7D509"/>
</g>
<defs>
<clipPath id="clip0_4_3049">
<rect width="220" height="220" fill="white" transform="translate(0 0.5)"/>
</clipPath>
</defs>
</svg>
