<svg width="220" height="221" viewBox="0 0 220 221" fill="none" xmlns="http://www.w3.org/2000/svg">
<g clip-path="url(#clip0_4_3053)">
<path d="M110 220.5C170.751 220.5 220 171.251 220 110.5C220 49.7487 170.751 0.5 110 0.5C49.2487 0.5 0 49.7487 0 110.5C0 171.251 49.2487 220.5 110 220.5Z" fill="#ED1968"/>
<path fill-rule="evenodd" clip-rule="evenodd" d="M153.579 102.436C153.326 101.306 153.027 100.187 152.683 99.0809C152.566 99.1726 152.144 99.4982 151.477 100.012C146.815 103.604 130.219 116.391 123.042 122.552C119.596 118.065 116.149 113.75 112.702 109.436C109.256 105.121 105.809 100.807 102.363 96.3197C105.287 94.0189 108.274 91.7181 111.286 89.398C118.215 84.0611 125.277 78.6224 132.003 72.8486C122.353 60.4229 112.702 47.9967 102.363 34.8807C102.363 34.5355 102.19 34.3629 102.018 34.1902C101.846 34.0177 101.673 33.8452 101.673 33.5H111.324C129.005 33.6654 146.073 40.0142 159.576 51.4485C166.156 56.8941 171.752 63.4323 176.119 70.7775C181.263 78.6849 184.562 87.651 185.77 97.01C187.616 107.77 187.383 118.784 185.081 129.455C183.107 138.397 179.356 146.849 174.051 154.307C169.422 161.467 163.592 167.773 156.818 172.946C150.222 178.686 142.461 182.925 134.071 185.371C127.867 177.778 122.353 170.875 116.838 163.281C114.778 160.92 112.933 158.378 111.324 155.688C124.544 155.732 137.031 149.607 145.1 139.12C149.071 134.033 151.893 128.145 153.372 121.862C154.654 116.622 154.723 110.147 153.579 102.436ZM87.8871 186.063C79.0803 183.618 70.8686 179.389 63.7612 173.636C56.7578 168.233 50.7011 161.701 45.8389 154.307C40.6544 146.529 36.9179 137.876 34.8099 128.765C32.3967 117.852 32.3967 106.542 34.8099 95.6293C36.8665 86.3979 40.3556 77.5462 45.1497 69.397C52.1683 58.12 62.1964 49.0337 74.1008 43.1646C78.2814 40.9113 82.6669 39.062 87.1978 37.6419C94.0909 45.9258 100.984 54.8999 107.877 63.8741C108.222 64.5645 108.739 65.0825 109.256 65.6002C109.773 66.1179 110.29 66.6357 110.635 67.3259C103.72 67.6163 96.9295 69.2579 90.6444 72.1582C85.088 75.0674 80.1668 79.057 76.1688 83.8937C72.235 89.1015 69.2054 94.9359 67.2077 101.152C65.3668 108.667 65.6051 116.543 67.897 123.933L97.5376 100.462C100.984 104.948 104.43 109.263 107.877 113.577L107.878 113.579C111.324 117.893 114.771 122.207 118.217 126.694C115.293 128.995 112.306 131.296 109.293 133.616C102.364 138.952 95.3026 144.391 88.5764 150.165C90.3168 152.406 92.0796 154.669 93.8568 156.951C101.934 167.322 110.307 178.073 118.217 188.824C108.025 190.03 97.6943 189.09 87.8871 186.063ZM135.843 179.359C130.725 173.125 125.783 166.749 121.022 160.237L120.774 159.947C132.069 157.693 142.165 151.417 149.195 142.282C153.615 136.612 156.757 130.051 158.404 123.049C160.459 114.633 160.187 105.815 157.618 97.5416L155.392 90.3621L149.491 95.008C147.042 96.9332 139.687 102.611 136.345 105.191C135.444 105.886 134.835 106.356 134.692 106.467C130.514 109.712 127.026 112.487 123.828 115.131C122.015 112.818 119.913 110.175 116.742 106.205C113.53 102.181 111.427 99.5434 109.614 97.2309C112.287 95.1587 115.499 92.6809 117.716 90.9706C119.148 89.8666 120.164 89.0821 120.354 88.9332C125.458 85.0062 130.464 80.9527 135.367 76.7766L139.117 73.5666L136.084 69.6731C124.8 55.1348 118.327 46.8302 111.937 38.6843C128.186 38.9872 143.833 44.8923 156.239 55.4041C162.381 60.4801 167.604 66.5772 171.68 73.4285C176.455 80.7302 179.521 89.0179 180.648 97.6727C182.406 107.993 182.192 118.341 180.028 128.365C178.202 136.616 174.737 144.415 169.84 151.297C165.505 158.033 160.039 163.965 153.682 168.832C148.439 173.418 142.39 176.988 135.843 179.359Z" fill="white"/>
</g>
<defs>
<clipPath id="clip0_4_3053">
<rect width="220" height="220" fill="white" transform="translate(0 0.5)"/>
</clipPath>
</defs>
</svg>
