<svg width="220" height="221" viewBox="0 0 220 221" fill="none" xmlns="http://www.w3.org/2000/svg">
<g clip-path="url(#clip0_4_3056)">
<path d="M110 220.5C170.751 220.5 220 171.251 220 110.5C220 49.7487 170.751 0.5 110 0.5C49.2487 0.5 0 49.7487 0 110.5C0 171.251 49.2487 220.5 110 220.5Z" fill="#EDF0F4"/>
<path fill-rule="evenodd" clip-rule="evenodd" d="M110 0.5C170.751 0.5 220 49.7487 220 110.5C220 171.251 170.751 220.5 110 220.5C49.2487 220.5 0 171.251 0 110.5C0 49.7487 49.2487 0.5 110 0.5Z" fill="#1E9ADA"/>
<path fill-rule="evenodd" clip-rule="evenodd" d="M37.5115 173.431C45.3754 148.806 61.2828 98.9933 85.4438 61.9357L85.4137 61.8954C144.674 59.156 173.8 80.024 173.8 80.024C159.328 40.2318 109.051 40.8462 101.286 41.1483C117.229 23.6543 135.922 12.9081 157.384 16.4935C157.384 16.4935 122.033 -24.6381 74.9293 44.2201L74.7278 44.6331C14.5411 54.352 4.11719 86.379 4.11719 86.379C23.4241 66.4276 58.2712 63.9702 64.8076 63.6681C50.5967 93.6506 31.1892 144.37 34.8652 181.634C35.6132 179.375 36.4953 176.614 37.5115 173.431ZM99.2251 123.411C102.624 115.231 110.617 109.904 119.475 109.916C125.281 109.911 130.85 112.217 134.953 116.325C139.055 120.433 141.354 126.005 141.34 131.811C141.34 140.67 136.002 148.656 127.817 152.043C119.631 155.43 110.212 153.551 103.952 147.283C97.6923 141.015 95.8265 131.592 99.2251 123.411Z" fill="#FEFEFE"/>
</g>
<defs>
<clipPath id="clip0_4_3056">
<rect width="220" height="220" fill="white" transform="translate(0 0.5)"/>
</clipPath>
</defs>
</svg>
