<svg width="220" height="221" viewBox="0 0 220 221" fill="none" xmlns="http://www.w3.org/2000/svg">
<g clip-path="url(#clip0_4_3065)">
<path d="M110 220.5C170.751 220.5 220 171.251 220 110.5C220 49.7487 170.751 0.5 110 0.5C49.2487 0.5 0 49.7487 0 110.5C0 171.251 49.2487 220.5 110 220.5Z" fill="#EDF0F4"/>
<path d="M80.8195 130.873C80.8195 139.077 84.1447 146.504 89.5196 151.878C94.8946 157.253 102.321 160.578 110.525 160.578C118.728 160.578 126.155 157.254 131.53 151.878C136.905 146.504 140.23 139.076 140.23 130.873L140.273 130.243C140.277 130.208 141.851 117.826 131.01 109.726L137.654 100.824C152.256 111.734 151.583 128.192 151.345 131.065C151.294 142.259 146.735 152.392 139.389 159.738C132.002 167.125 121.796 171.695 110.525 171.695C99.2537 171.695 89.0479 167.125 81.6605 159.738C74.2727 152.35 69.7031 142.145 69.7031 130.873H80.8195Z" fill="#FDB813"/>
<path d="M125.182 65.5192C125.182 61.2658 123.458 57.4144 120.671 54.6273C117.884 51.8403 114.033 50.1166 109.779 50.1166C105.525 50.1166 101.674 51.8403 98.8869 54.6273C96.1002 57.4136 94.376 61.2655 94.376 65.5192H83.2598C83.2598 58.1968 86.2287 51.5671 91.0278 46.7678C95.8271 41.9687 102.457 39 109.779 39C117.101 38.9998 123.731 41.9689 128.53 46.7678C133.329 51.5671 136.298 58.1972 136.298 65.5192H125.182Z" fill="#FDB813"/>
<path d="M71.7625 118.564C69.5858 124.583 69.7945 131.1 69.7945 131.1L80.8177 131.088C80.8177 131.088 80.9336 123.815 82.555 118.552L71.7625 118.564Z" fill="#FDB813"/>
<path d="M138.844 101.528C135.106 97.9276 130.687 95.0352 125.804 93.0664C121.115 91.1756 115.968 90.1345 110.552 90.1345C88.0358 90.1345 69.7822 108.388 69.7822 130.904C69.7822 153.42 88.0358 171.674 110.552 171.674C133.068 171.674 151.322 153.42 151.322 130.904C151.322 129.64 151.26 127.155 151.139 124.748C151.056 123.101 150.955 121.629 150.844 120.908L161.83 119.258C162.021 120.501 162.161 122.341 162.256 124.227C162.376 126.634 162.438 129.378 162.438 130.904C162.438 159.56 139.208 182.79 110.552 182.79C81.8964 182.79 58.666 159.56 58.666 130.904C58.666 102.249 81.8965 79.0181 110.552 79.0181C117.379 79.0181 123.921 80.3522 129.929 82.7749C136.156 85.2855 141.781 88.9654 146.53 93.539L138.844 101.528Z" fill="#A80532"/>
<path d="M134.943 119.17L161.499 119.201V130.318L134.943 130.286V119.17Z" fill="#A80532"/>
<path d="M91.709 120.811H92.0423C94.2933 120.811 94.8944 119.641 94.9446 118.756H96.8662V130.595H94.5268V122.432H91.7092L91.709 120.811Z" fill="#363636"/>
<path fill-rule="evenodd" clip-rule="evenodd" d="M104.235 130.911C102.213 130.911 100.759 129.739 100.559 127.858L102.881 127.857V127.874C103.015 128.686 103.533 129.034 104.252 129.035C105.221 129.035 106.191 128.222 106.208 125.742L106.174 125.708C105.639 126.513 104.72 126.713 103.917 126.713C101.644 126.713 100.324 124.988 100.324 123.002C100.324 120.101 102.045 118.756 104.369 118.756C108.475 118.756 108.542 123.169 108.542 124.837C108.542 129.42 106.374 130.911 104.235 130.911ZM104.352 120.666C103.75 120.666 102.664 120.967 102.664 122.668C102.664 124.454 103.533 124.837 104.419 124.837C105.238 124.837 106.141 124.253 106.141 122.852C106.141 121.5 105.556 120.666 104.352 120.666Z" fill="#363636"/>
<path fill-rule="evenodd" clip-rule="evenodd" d="M113.73 130.911C110.938 130.911 109.621 128.968 109.621 124.826C109.621 120.684 110.937 118.758 113.73 118.758C116.523 118.758 117.84 120.684 117.84 124.826C117.84 128.968 116.523 130.911 113.73 130.911ZM113.73 120.634C112.39 120.634 112.021 121.782 112.021 124.826C112.021 127.87 112.39 129.034 113.73 129.035C115.07 129.035 115.439 127.87 115.439 124.826C115.439 121.782 115.07 120.634 113.73 120.634Z" fill="#363636"/>
<path d="M121.265 123.493C121.698 123.191 122.232 122.839 123.383 122.839C124.967 122.839 126.968 123.945 126.968 126.659C126.969 128.27 126.152 130.911 122.666 130.911C120.814 130.911 118.926 129.805 118.809 127.423H121.148C121.248 128.387 121.765 129.035 122.799 129.035C123.917 129.034 124.567 128.088 124.567 126.825C124.567 125.779 124.067 124.716 122.833 124.716C122.516 124.715 121.715 124.733 121.265 125.563L119.176 125.463L119.995 118.958H126.502V120.926H121.681L121.265 123.493Z" fill="#363636"/>
<path d="M94.3229 65.4028L83.2259 65.4422C82.4537 77.7929 93.5705 84.7408 93.5705 84.7408L131.145 109.868L137.919 101.01L102.371 78.4107C102.371 78.4107 94.3229 73.5859 94.3229 65.4028Z" fill="#FDB813"/>
</g>
<defs>
<clipPath id="clip0_4_3065">
<rect width="220" height="220" fill="white" transform="translate(0 0.5)"/>
</clipPath>
</defs>
</svg>
