<svg width="220" height="221" viewBox="0 0 220 221" fill="none" xmlns="http://www.w3.org/2000/svg">
<g clip-path="url(#clip0_4_3060)">
<path d="M110 220.5C170.751 220.5 220 171.251 220 110.5C220 49.7487 170.751 0.5 110 0.5C49.2487 0.5 0 49.7487 0 110.5C0 171.251 49.2487 220.5 110 220.5Z" fill="#EDF0F4"/>
<path d="M123.083 86.5492C118.604 89.3269 109.633 94.8964 109.578 94.9514L68.3739 70.69L109.595 47.8543L160.507 76.1196L170.559 70.3977L109.664 37.1667L48.4766 70.3633L109.337 105.519L132.963 92.4084L123.083 86.5492Z" fill="black"/>
<path d="M83.1791 108.802V98.2277L106.512 111.192V183.788L44 145.07V75.0483L53.8542 81.2487V139.903L96.6627 166.338V116.729L83.1791 108.802Z" fill="black"/>
<path d="M112.529 183.833V172.245L164.854 140.016V92.2965L122.425 117.044V132.788L112.521 139.138V111.264L175.17 74.698V145.139L112.529 183.833Z" fill="black"/>
</g>
<defs>
<clipPath id="clip0_4_3060">
<rect width="220" height="220" fill="white" transform="translate(0 0.5)"/>
</clipPath>
</defs>
</svg>
