<svg width="220" height="221" viewBox="0 0 220 221" fill="none" xmlns="http://www.w3.org/2000/svg">
<g clip-path="url(#clip0_4_3077)">
<path d="M110 220.5C170.751 220.5 220 171.251 220 110.5C220 49.7487 170.751 0.5 110 0.5C49.2487 0.5 0 49.7487 0 110.5C0 171.251 49.2487 220.5 110 220.5Z" fill="#2D475B"/>
<path fill-rule="evenodd" clip-rule="evenodd" d="M165.001 117.115H164.682H87.9164V134.221H144.93V150.275C137.284 156.82 122.31 160.202 122.31 160.202C78.3519 167.806 64.3341 130.433 64.3341 130.433C51.5906 87.3595 82.4936 70.2608 82.4936 70.2608C120.399 47.449 148.753 76.5859 148.753 76.5859L162.133 63.6056C139.832 38.2636 105.432 43.0213 105.432 43.0213C49.6792 48.7207 42.3517 95.2729 42.3517 95.2729C33.1126 132.647 58.5996 158.305 58.5996 158.305C105.113 205.173 165.001 162.1 165.001 162.1V117.115ZM164.682 88.6245H87.9095V105.73H164.682V88.6245Z" fill="white"/>
</g>
<defs>
<clipPath id="clip0_4_3077">
<rect width="220" height="220" fill="white" transform="translate(0 0.5)"/>
</clipPath>
</defs>
</svg>
