<svg width="220" height="221" viewBox="0 0 220 221" fill="none" xmlns="http://www.w3.org/2000/svg">
<g clip-path="url(#clip0_4_3083)">
<path d="M110 220.5C170.751 220.5 220 171.251 220 110.5C220 49.7487 170.751 0.5 110 0.5C49.2487 0.5 0 49.7487 0 110.5C0 171.251 49.2487 220.5 110 220.5Z" fill="#7F27FF"/>
<path fill-rule="evenodd" clip-rule="evenodd" d="M106.862 70.3974H112.34C117.77 61.0796 122.743 54.7438 127.418 51.3204C133.18 47.0895 139.081 47.055 143.708 51.5826C148.03 55.8066 148.84 61.1073 145.993 66.2148C145.19 67.6366 144.123 69.0306 142.787 70.3974H162.927C167.63 70.3974 172.333 74.2485 172.333 79.5976C172.333 84.2011 168.392 88.8046 162.927 88.8046H113.518V76.5332H105.678V88.8046H57.0714C52.3757 88.8046 47.666 84.9535 47.666 79.5976C47.666 75.0009 51.6069 70.3974 57.0714 70.3974H77.4337C76.1595 69.2141 75.0256 67.8896 74.0537 66.4495C70.6809 61.3143 71.0894 55.8895 75.4874 51.5826C80.114 47.055 86.0149 47.0964 91.7841 51.3204C96.4523 54.7438 101.425 61.0866 106.862 70.3974ZM105.678 96.4797H54.7304V146.325C54.675 151.426 56.7251 156.333 60.4097 159.936C64.0943 163.539 69.1156 165.547 74.3307 165.499H105.684L105.678 96.4797ZM87.0814 57.4562C90.1427 59.6993 93.7303 64.0269 97.7474 70.3974H90.683C85.724 67.5951 82.2817 64.7861 80.6473 62.2944C79.2136 60.1135 79.3174 58.6778 81.0283 57.0007C82.6973 55.3719 84.2487 55.3857 87.0814 57.4562ZM121.455 70.3974H129.898C134.628 67.6917 137.752 64.9586 139.109 62.5291C140.286 60.431 140.037 58.8366 138.167 57.0076C136.498 55.3719 134.947 55.3787 132.121 57.4562C129.053 59.6993 125.458 64.0269 121.455 70.3974ZM164.472 96.4727H113.518V165.499H144.871C150.068 165.557 155.076 163.556 158.792 159.936C162.465 156.358 164.516 151.443 164.472 146.325V96.4727Z" fill="white"/>
</g>
<defs>
<clipPath id="clip0_4_3083">
<rect width="220" height="220" fill="white" transform="translate(0 0.5)"/>
</clipPath>
</defs>
</svg>
