<svg width="220" height="221" viewBox="0 0 220 221" fill="none" xmlns="http://www.w3.org/2000/svg">
<g clip-path="url(#clip0_4_3089)">
<path d="M110 220.5C170.751 220.5 220 171.251 220 110.5C220 49.7487 170.751 0.5 110 0.5C49.2487 0.5 0 49.7487 0 110.5C0 171.251 49.2487 220.5 110 220.5Z" fill="#16B9AD"/>
<path d="M179.666 91.1521C179.666 128.107 148.818 158.167 110.916 158.167C73.0142 158.167 42.166 128.1 42.166 91.1659C42.166 88.4461 42.331 85.7197 42.6748 83.0137H55.0223C54.6098 85.7128 54.4035 88.4393 54.4035 91.1659C54.4035 121.54 79.7585 146.256 110.923 146.256C140.664 146.256 165.112 123.761 167.298 95.3136H79.841C81.6973 108.598 92.2365 119.148 105.808 121.328C119.386 123.501 132.827 116.791 138.959 104.792H152.194C146.178 122.025 129.575 133.614 110.902 133.628C86.8673 133.628 67.3078 114.57 67.3078 91.1521C67.3078 88.4188 67.583 85.6855 68.1123 83H179.157C179.501 85.706 179.666 88.4258 179.666 91.1521Z" fill="white"/>
</g>
<defs>
<clipPath id="clip0_4_3089">
<rect width="220" height="220" fill="white" transform="translate(0 0.5)"/>
</clipPath>
</defs>
</svg>
