<svg width="220" height="221" viewBox="0 0 220 221" fill="none" xmlns="http://www.w3.org/2000/svg">
<g clip-path="url(#clip0_4_3092)">
<path d="M110 220.5C170.751 220.5 220 171.251 220 110.5C220 49.7487 170.751 0.5 110 0.5C49.2487 0.5 0 49.7487 0 110.5C0 171.251 49.2487 220.5 110 220.5Z" fill="#008DDE"/>
<path fill-rule="evenodd" clip-rule="evenodd" d="M170.177 117.814C169.24 119.389 167.515 120.327 165.682 120.259V120.266H154.244V131.567H187.302C189.136 131.499 190.861 132.437 191.798 134.012C192.735 135.586 192.735 137.547 191.798 139.122C190.861 140.696 189.136 141.634 187.302 141.566H154.134C153.135 152.577 144.827 161.532 133.906 163.369V175.399C133.974 177.23 133.034 178.951 131.457 179.886C129.879 180.822 127.915 180.822 126.338 179.886C124.76 178.951 123.82 177.23 123.889 175.399V163.7H112.568V186.349C112.468 189.038 110.255 191.167 107.559 191.167C104.864 191.167 102.651 189.038 102.551 186.349V163.7H91.2303V171.139C91.2983 172.97 90.359 174.691 88.7812 175.627C87.2034 176.562 85.2397 176.562 83.6621 175.627C82.0844 174.691 81.145 172.97 81.213 171.139V163.362C70.292 161.525 61.9837 152.57 60.9851 141.56H39.0891C37.2552 141.627 35.5309 140.69 34.5937 139.115C33.6567 137.54 33.6567 135.58 34.5937 134.005C35.5309 132.43 37.2552 131.492 39.0891 131.56H60.8956V120.259H49.4511C47.6174 120.327 45.8929 119.389 44.9559 117.814C44.0189 116.239 44.0189 114.279 44.9559 112.704C45.8929 111.129 47.6174 110.191 49.4511 110.259H60.8956V98.9588H32.6981C30.8642 99.0268 29.1399 98.0889 28.2029 96.514C27.2657 94.939 27.2657 92.9788 28.2029 91.4038C29.1399 89.8289 30.8642 88.891 32.6981 88.959H60.9851C61.9837 77.9484 70.292 68.9935 81.213 67.1563V55.1124C81.3129 52.4233 83.5259 50.2946 86.2217 50.2946C88.9174 50.2946 91.1304 52.4233 91.2303 55.1124V66.8122H102.558V40.5222C102.49 38.6916 103.429 36.9703 105.007 36.0349C106.584 35.0994 108.548 35.0994 110.126 36.0349C111.704 36.9703 112.643 38.6916 112.575 40.5222V66.819H123.895V55.1194C123.827 53.2888 124.767 51.5675 126.345 50.6319C127.922 49.6965 129.886 49.6965 131.464 50.6319C133.041 51.5675 133.981 53.2888 133.913 55.1194V67.1563C144.834 68.9935 153.142 77.9484 154.141 88.959H178.167C180.001 88.891 181.725 89.8289 182.662 91.4038C183.599 92.9788 183.599 94.939 182.662 96.514C181.725 98.0889 180.001 99.0268 178.167 98.9588H154.237V110.259H165.682C167.515 110.191 169.24 111.129 170.177 112.704C171.114 114.279 171.114 116.239 170.177 117.814ZM129.9 155.716C138.921 155.709 146.232 148.411 146.24 139.405V139.399V91.1062C146.232 82.1013 138.921 74.8031 129.9 74.7954H85.2254C76.2045 74.8031 68.8935 82.1013 68.886 91.1062V139.405C68.8935 148.411 76.2045 155.709 85.2254 155.716H129.9Z" fill="white"/>
<path fill-rule="evenodd" clip-rule="evenodd" d="M90.0551 86.7979C91.9832 86.634 93.9185 86.5675 95.8532 86.5984L95.8464 86.5915C96.3627 86.5951 96.8795 86.6008 97.3965 86.6063C98.819 86.6219 100.242 86.6373 101.658 86.6122H122.865C125.954 86.4125 129.449 88.0162 130.145 91.2714C130.588 93.4289 130.552 95.6337 130.516 97.8344C130.499 98.8911 130.482 99.9468 130.518 100.996C130.51 105.575 130.513 110.153 130.516 114.73C130.521 122.22 130.526 129.708 130.483 137.196C130.49 140.162 128.525 143.149 125.464 143.638C123.194 143.97 120.897 143.938 118.6 143.906C117.423 143.89 116.247 143.874 115.074 143.906H85.4705L89.2968 132.448H119.046V128.628C116.106 128.626 113.167 128.628 110.227 128.631C103.928 128.637 97.6295 128.643 91.3306 128.6C88.3593 128.607 85.3671 126.639 84.8776 123.583C84.5393 121.315 84.5709 119.014 84.6024 116.714C84.6184 115.545 84.6343 114.376 84.6019 113.212C84.6173 110.672 84.6096 108.131 84.6019 105.589C84.5888 101.353 84.576 97.1144 84.6708 92.8818C84.7672 89.895 87.0079 87.142 90.0551 86.7979ZM119.039 98.0709H96.0807V117.169H119.039V98.0709Z" fill="white"/>
</g>
<defs>
<clipPath id="clip0_4_3092">
<rect width="220" height="220" fill="white" transform="translate(0 0.5)"/>
</clipPath>
</defs>
</svg>
