<svg width="220" height="221" viewBox="0 0 220 221" fill="none" xmlns="http://www.w3.org/2000/svg">
<g clip-path="url(#clip0_4_3096)">
<path d="M110 220.5C170.751 220.5 220 171.251 220 110.5C220 49.7487 170.751 0.5 110 0.5C49.2487 0.5 0 49.7487 0 110.5C0 171.251 49.2487 220.5 110 220.5Z" fill="#1AE3AE"/>
<path fill-rule="evenodd" clip-rule="evenodd" d="M144.555 97.0564C148.884 103.125 151.235 110.495 151.173 117.926C151.173 125.234 148.823 132.541 144.555 138.486L153.585 145.36C159.337 137.433 162.491 127.773 162.491 117.988C162.554 107.646 159.151 97.4901 152.905 89.3157L147.726 93.9841L144.555 97.0564Z" fill="#0E0333"/>
<path fill-rule="evenodd" clip-rule="evenodd" d="M161.628 151.449L131.259 128.35C133.424 125.501 134.66 122.033 134.846 118.441C134.97 114.85 134.042 111.32 132.125 108.285L146.66 95.1568L161.875 80.9135C162.865 79.9843 162.927 78.3743 161.937 77.3834L159.834 75.2778C149.01 64.3167 134.413 57.9381 119.074 57.4428L119.136 49.0826C119.198 48.5253 119.136 47.9679 119.012 47.4106C118.827 46.8533 118.579 46.3577 118.208 45.9243C117.837 45.4909 117.404 45.1813 116.847 44.9334C116.353 44.6857 115.796 44.562 115.239 44.562C114.682 44.562 114.126 44.6857 113.631 44.9334C113.136 45.1813 112.642 45.4909 112.27 45.9243C111.899 46.3577 111.59 46.8533 111.466 47.3486C111.281 47.906 111.219 48.4633 111.342 49.0206L111.281 57.6287C107.631 58.0001 103.982 58.6814 100.457 59.7341L100.518 49.0206C100.58 48.4633 100.518 47.906 100.395 47.3486C100.21 46.7913 99.9616 46.2959 99.5908 45.8623C99.2197 45.4289 98.7865 45.1193 98.2301 44.8716C97.7352 44.6239 97.1781 44.5 96.6217 44.5C96.0653 44.5 95.5081 44.6239 95.0138 44.8716C94.519 45.1193 94.0242 45.4289 93.6526 45.8623C93.2817 46.2959 92.9722 46.7913 92.849 47.2867C92.663 47.844 92.6014 48.4013 92.7253 48.9589L92.5398 62.6447C80.0456 68.2182 69.7782 77.9407 63.5311 90.1407C57.2842 102.34 55.3049 116.336 58.0263 129.774C60.7477 143.213 67.9845 155.35 78.4992 164.144C89.0143 172.937 102.25 177.892 115.919 178.14L160.143 178.325C161.504 178.325 162.617 177.21 162.617 175.848V153.492C162.617 152.687 162.246 151.944 161.628 151.449ZM116.786 167.364C105.9 167.302 95.3226 163.649 86.7255 157.022C78.1281 150.334 71.943 140.983 69.1596 130.455C66.3764 119.928 67.1804 108.719 71.3244 98.6867C75.5305 88.6542 82.8907 80.232 92.3542 74.7824L92.2921 91.0692C92.2303 91.6269 92.2921 92.1841 92.4158 92.741C92.6014 93.2987 92.849 93.7943 93.2201 94.2275C93.591 94.6613 94.0242 94.9707 94.5806 95.2184C95.0756 95.4661 95.632 95.59 96.189 95.59C96.7456 95.59 97.302 95.4661 97.7968 95.2184C98.2917 94.9707 98.7865 94.6613 99.1575 94.2275C99.5284 93.7943 99.8379 93.2988 99.9616 92.8034C100.147 92.2462 100.21 91.6885 100.086 91.1316L100.147 71.1288C105.591 69.1471 111.342 68.2182 117.157 68.2182C127.857 68.2182 138.248 71.7481 146.721 78.1884C147.34 78.684 147.402 79.5509 146.845 80.1083L123.713 101.349C121.61 100.482 119.321 99.9869 117.033 99.9869C114.497 99.9869 111.961 100.482 109.611 101.535C107.261 102.588 105.219 104.136 103.549 106.056C101.879 107.975 100.642 110.267 99.9 112.682C99.1575 115.159 98.972 117.698 99.3431 120.237C99.7147 122.777 100.58 125.192 101.941 127.359C103.302 129.526 105.157 131.322 107.261 132.747C109.425 134.109 111.837 135.038 114.373 135.409C116.909 135.781 119.507 135.595 121.919 134.852L151.484 157.332C151.794 157.58 151.979 157.951 151.979 158.322L151.917 166.249C151.917 166.931 151.36 167.488 150.68 167.488L116.786 167.364ZM124.022 117.822C124.022 119.184 123.589 120.547 122.847 121.723C122.043 122.9 120.992 123.767 119.693 124.324C118.393 124.882 116.971 125.005 115.672 124.696C114.373 124.386 113.074 123.767 112.084 122.776C111.095 121.785 110.414 120.547 110.167 119.184C109.92 117.822 110.043 116.398 110.6 115.159C111.157 113.859 112.023 112.806 113.198 112.001C114.373 111.258 115.734 110.824 117.095 110.824C118.95 110.824 120.744 111.568 122.043 112.93C123.28 114.168 124.022 115.902 124.022 117.822Z" fill="#0E0333"/>
</g>
<defs>
<clipPath id="clip0_4_3096">
<rect width="220" height="220" fill="white" transform="translate(0 0.5)"/>
</clipPath>
</defs>
</svg>
