<svg width="220" height="221" viewBox="0 0 220 221" fill="none" xmlns="http://www.w3.org/2000/svg">
<g clip-path="url(#clip0_4_3100)">
<path d="M110 220.5C170.751 220.5 220 171.251 220 110.5C220 49.7487 170.751 0.5 110 0.5C49.2487 0.5 0 49.7487 0 110.5C0 171.251 49.2487 220.5 110 220.5Z" fill="#FF0060"/>
<path d="M172.534 84.0058H109.996C96.567 83.9849 85.2457 94.0129 83.6456 107.346C82.0455 120.679 90.6724 133.101 103.725 136.258C116.777 139.415 130.127 132.309 134.797 119.719H109.996C108.14 119.72 106.36 118.984 105.048 117.672C103.736 116.36 103 114.581 103.002 112.725V111.877C103 110.022 103.736 108.242 105.048 106.93C106.36 105.618 108.14 104.882 109.996 104.884H151.334C151.635 106.812 151.779 108.76 151.758 110.708C151.645 133.746 132.898 152.341 109.86 152.266C86.8215 152.191 68.1959 133.474 68.2333 110.435C68.2709 87.397 86.9574 68.7406 109.996 68.7404L111.274 68.5285C111.541 68.6515 111.821 68.7199 112.122 68.7404H149.215C169.457 68.7404 177.722 57.9322 177.722 42.6667H109.996C72.5875 42.6667 42.2345 72.9721 42.1661 110.394C42.1115 147.816 72.3688 178.21 109.79 178.333C147.212 178.449 177.654 148.24 177.832 110.818V89.4065C177.859 87.9836 177.313 86.6095 176.317 85.5937C175.32 84.5778 173.957 84.0057 172.534 84.0058Z" fill="white"/>
</g>
<defs>
<clipPath id="clip0_4_3100">
<rect width="220" height="220" fill="white" transform="translate(0 0.5)"/>
</clipPath>
</defs>
</svg>
