<svg width="220" height="221" viewBox="0 0 220 221" fill="none" xmlns="http://www.w3.org/2000/svg">
<g clip-path="url(#clip0_4_3103)">
<path d="M110 220.5C170.751 220.5 220 171.251 220 110.5C220 49.7487 170.751 0.5 110 0.5C49.2487 0.5 0 49.7487 0 110.5C0 171.251 49.2487 220.5 110 220.5Z" fill="#00A6C4"/>
<path d="M129.359 97.2765L127.527 99.1076C129.053 101.455 129.392 104.381 128.443 107.015C126.755 111.694 121.603 114.131 116.915 112.466C116.27 112.237 115.655 111.93 115.084 111.551L109.216 117.419L104.098 112.258C101.654 113.887 98.587 114.272 95.8163 113.299C93.5057 112.476 91.6181 110.766 90.5717 108.548C89.525 106.33 89.4057 103.786 90.2398 101.48C90.4936 100.757 90.8436 100.071 91.2801 99.4406L89.0746 97.2349L88.6584 97.9423C84.1158 105.373 83.9365 114.677 88.1894 122.277C92.4424 129.877 100.466 134.591 109.175 134.606H109.216C117.917 134.61 125.945 129.922 130.214 122.34C134.483 114.758 134.332 105.463 129.816 98.0256L129.359 97.2765Z" fill="white"/>
<path d="M93.9832 102.146C93.3349 103.01 92.9844 104.062 92.9844 105.142C92.989 107.852 95.1849 110.048 97.895 110.053C98.9834 110.058 100.041 109.691 100.891 109.012L93.9832 102.146Z" fill="white"/>
<path d="M118.078 108.596C118.886 109.149 119.845 109.44 120.825 109.429C123.535 109.424 125.731 107.228 125.736 104.518C125.741 103.539 125.451 102.582 124.903 101.771L118.078 108.596Z" fill="white"/>
<path fill-rule="evenodd" clip-rule="evenodd" d="M89.4043 93.7808L109.297 113.756L128.939 94.1967L128.19 93.3646C123.302 87.9431 116.347 84.8438 109.047 84.8334H109.005C101.881 84.8121 95.068 87.7513 90.1948 92.9484L89.4043 93.7808ZM109.297 110.468L92.6502 93.7808C97.0344 89.5069 102.924 87.13 109.047 87.1637H109.088C115.338 87.1852 121.325 89.6846 125.735 94.1135L109.297 110.468Z" fill="white"/>
<path d="M87.3665 126.616L85.036 126.45C75.1314 125.825 61.4815 123.37 52.6589 115.421C47.2073 110.552 46.1669 105.933 46.1253 105.725L45.834 104.31H81.8733L81.6652 105.642C81.4991 106.855 81.4157 108.079 81.4155 109.304C81.3962 114.768 83.0043 120.114 86.0348 124.66L87.3665 126.616Z" fill="white"/>
<path d="M130.977 126.616L132.267 124.66C135.291 120.142 136.899 114.824 136.886 109.387C136.887 108.134 136.804 106.883 136.636 105.642L136.47 104.31H172.509L172.218 105.725C172.176 105.933 171.136 110.552 165.726 115.421C156.903 123.37 143.212 125.825 133.307 126.45L130.977 126.616Z" fill="white"/>
</g>
<defs>
<clipPath id="clip0_4_3103">
<rect width="220" height="220" fill="white" transform="translate(0 0.5)"/>
</clipPath>
</defs>
</svg>
