<svg width="220" height="221" viewBox="0 0 220 221" fill="none" xmlns="http://www.w3.org/2000/svg">
<g clip-path="url(#clip0_4_3111)">
<path d="M110 220.5C170.751 220.5 220 171.251 220 110.5C220 49.7487 170.751 0.5 110 0.5C49.2487 0.5 0 49.7487 0 110.5C0 171.251 49.2487 220.5 110 220.5Z" fill="#EDF0F4"/>
<path d="M109.996 192.991C155.557 192.991 192.491 156.057 192.491 110.496C192.491 64.9345 155.557 28 109.996 28C64.4345 28 27.5 64.9345 27.5 110.496C27.5 156.057 64.4345 192.991 109.996 192.991Z" fill="#1666AE"/>
<path fill-rule="evenodd" clip-rule="evenodd" d="M73.2109 49.0727C72.4849 50.1485 72.7753 51.6071 73.8511 52.3329C74.9267 53.0589 76.3853 52.7685 77.1113 51.6929C77.8373 50.6171 77.5469 49.1585 76.4711 48.4327C75.8177 47.9971 74.9927 47.9113 74.2669 48.2083L69.4887 43.5753L61.8792 43.5225C61.2588 43.9713 60.6386 44.4333 60.0314 44.8953L68.9607 44.9613L73.2109 49.0727ZM42.8789 137.046C43.3805 138.241 42.8129 139.613 41.6183 140.115L41.5127 146.774L37.8961 150.45C37.6585 150.021 37.4275 149.599 37.2031 149.17L40.1599 146.167L40.2655 140.254C39.4933 140.102 38.8531 139.574 38.5495 138.854C38.0479 137.66 38.6155 136.287 39.8101 135.786C41.0045 135.284 42.3773 135.852 42.8789 137.046ZM80.2593 169.12C79.7709 170.321 78.3981 170.896 77.1971 170.401L70.8285 176.763H60.9224C60.3086 176.307 59.708 175.845 59.1074 175.377H70.3005L76.1411 169.536C75.7055 168.889 75.6197 168.064 75.9167 167.338C76.4051 166.137 77.7779 165.563 78.9789 166.058C80.1801 166.546 80.7543 167.919 80.2593 169.12ZM73.9501 60.2657C74.2339 60.1535 74.5375 60.0941 74.8411 60.0941C75.3095 60.0941 75.7649 60.2327 76.1543 60.4835C77.2301 61.2095 77.5205 62.668 76.7945 63.7438C76.0685 64.8196 74.6101 65.11 73.5343 64.384C72.4585 63.658 72.1681 62.1995 72.8941 61.1237L68.6373 57.0187L50.1848 56.9395V55.5535L69.1719 55.6327L73.9501 60.2657ZM73.6663 149.156C72.3727 149.156 71.3169 150.212 71.3235 151.506C71.3235 151.968 71.4621 152.423 71.7193 152.806L67.4627 156.918L49.0034 156.997V158.383L67.9907 158.304L72.7687 153.677C73.9699 154.166 75.3425 153.591 75.8309 152.397C76.3193 151.196 75.7451 149.823 74.5507 149.335C74.2735 149.216 73.9765 149.156 73.6663 149.156ZM146.295 82.7772L145.312 83.7605L145.305 83.7473L145.299 81.7806L146.295 82.7772ZM138.257 74.7454L125.196 74.6398C124.695 73.4452 123.322 72.8776 122.128 73.3792C120.933 73.8808 120.365 75.2536 120.867 76.448C121.369 77.6426 122.741 78.2102 123.936 77.7086C124.655 77.405 125.183 76.7648 125.335 75.9994L137.65 76.1048L143.722 82.1766V80.2164L138.257 74.7454ZM108.407 79.8204C108.123 79.9392 107.819 79.9986 107.509 79.9986C107.041 79.9986 106.579 79.86 106.196 79.596C105.114 78.8702 104.823 77.405 105.549 76.3226C106.275 75.2404 107.74 74.95 108.823 75.676C109.905 76.4018 110.195 77.867 109.469 78.9494L113.066 82.5066H128.226V83.8991H112.532L108.407 79.8204Z" fill="#7290C9"/>
<path fill-rule="evenodd" clip-rule="evenodd" d="M138.17 60.2525L138.064 45.7002C137.345 45.3966 136.817 44.7566 136.672 43.991C136.421 42.7238 137.246 41.4898 138.52 41.239C139.787 40.9882 141.021 41.813 141.272 43.0868C141.523 44.354 140.698 45.588 139.424 45.8388L139.529 59.6519L145.271 65.3937L145.298 81.7872V83.7472L145.317 97.7913H143.72V65.8819L138.17 60.2525ZM161.091 73.1416C162.166 73.8676 162.457 75.3262 161.731 76.4018L168.337 81.8004L187.285 81.873C187.426 82.2501 187.564 82.6362 187.701 83.0201C187.729 83.0999 187.758 83.1794 187.785 83.2588L167.802 83.1796L160.675 77.2664C159.949 77.5634 159.124 77.4776 158.471 77.042C157.395 76.316 157.104 74.8576 157.83 73.7818C158.556 72.7061 160.015 72.4157 161.091 73.1416Z" fill="#7290C9"/>
<path fill-rule="evenodd" clip-rule="evenodd" d="M126.619 48.142L122.165 43.1528L101.884 43.1594L98.9338 39.7803C98.2078 40.0772 97.3828 39.9914 96.7294 39.5559C95.6538 38.8299 95.3634 37.3713 96.0892 36.2957C96.8152 35.2199 98.2738 34.9295 99.3494 35.6555C100.425 36.3815 100.716 37.8399 99.9896 38.9157L102.418 41.7668H122.699L127.675 47.2774C128.401 46.9804 129.226 47.0662 129.88 47.5018C130.955 48.2278 131.246 49.6864 130.52 50.762C129.794 51.8378 128.335 52.1282 127.259 51.4022C126.184 50.6762 125.893 49.2178 126.619 48.142ZM162.422 64.3111C163.142 63.2355 162.858 61.7769 161.782 61.0575C160.707 60.3382 159.248 60.6219 158.528 61.6977C157.809 62.7735 158.093 64.2319 159.169 64.9513C159.816 65.3869 160.641 65.4727 161.366 65.1757L167.834 71.0097L182.406 71.1087C182.155 70.6403 181.891 70.1783 181.627 69.7163L168.369 69.6173L162.422 64.3111ZM186.644 87.3044L165.029 87.2252L157.466 80.9819C158.192 79.9061 157.902 78.4475 156.826 77.7215C155.75 76.9957 154.291 77.2861 153.566 78.3617C152.84 79.4375 153.13 80.8961 154.206 81.622C154.859 82.0576 155.684 82.1434 156.41 81.8464L164.501 88.611L186.598 88.6902C186.479 88.2348 186.491 87.7532 186.644 87.3044ZM40.2497 77.5699C39.9989 76.2961 40.8303 75.0685 42.1041 74.8177L41.6553 66.8587L40.6787 65.8819C40.9359 65.4859 41.1933 65.0899 41.4573 64.6939L43.0017 66.2581L43.4571 74.9563C44.1831 75.2599 44.7044 75.9001 44.8562 76.6723C45.107 77.9459 44.2754 79.1735 43.0017 79.4243C41.7279 79.6751 40.5005 78.8435 40.2497 77.5699ZM126.217 163.431C124.917 163.431 123.867 164.481 123.867 165.781C123.867 166.249 124.006 166.705 124.263 167.087L121.835 169.939H101.56L96.5842 175.449C95.3832 174.954 94.0104 175.528 93.522 176.73C93.027 177.931 93.6012 179.303 94.8024 179.792C96.0034 180.28 97.3762 179.713 97.8646 178.511C98.1616 177.785 98.0758 176.961 97.6402 176.314L102.095 171.324H122.369L125.319 167.945C126.52 168.44 127.893 167.866 128.381 166.665C128.876 165.464 128.302 164.091 127.101 163.603C126.83 163.491 126.52 163.431 126.217 163.431ZM178.011 121.233C177.093 122.151 177.093 123.635 178.011 124.553C178.341 124.883 178.756 125.107 179.218 125.193L179.304 133.726L172.434 139.527L172.17 147.374C170.976 147.876 170.408 149.249 170.91 150.443C171.411 151.638 172.784 152.205 173.978 151.704C175.173 151.202 175.74 149.829 175.239 148.635C174.935 147.915 174.295 147.387 173.53 147.236L173.794 140.134L180.664 134.333L180.578 125.054C181.772 124.553 182.34 123.18 181.838 121.986C181.337 120.791 179.964 120.223 178.77 120.725C178.486 120.844 178.229 121.015 178.011 121.233ZM76.3035 164.632C75.8151 165.834 74.4491 166.408 73.2479 165.919L66.8727 172.288H55.4024C54.8876 171.833 54.3796 171.371 53.878 170.902H66.3447L72.1853 165.061C71.7497 164.415 71.6641 163.59 71.9609 162.864C72.4493 161.663 73.8155 161.088 75.0167 161.577C76.2177 162.065 76.7919 163.431 76.3035 164.632Z" fill="#7290C9"/>
<path fill-rule="evenodd" clip-rule="evenodd" d="M90.2671 44.057L90.2605 44.0504L90.2737 44.0372L90.2539 30.3824C90.7817 30.2505 91.3163 30.1251 91.8509 30.0063V43.6808L98.2327 50.056H109.908C110.059 49.2838 110.587 48.6436 111.307 48.34C112.501 47.8384 113.874 48.406 114.376 49.6006C114.877 50.7952 114.31 52.1679 113.115 52.6695C111.92 53.1711 110.548 52.6035 110.046 51.4089H97.6255L91.8509 45.6342V60.3515L96.7347 65.1757L96.6423 80.3682C97.3683 80.6652 97.8895 81.312 98.0413 82.0774C98.2921 83.3512 97.4673 84.5854 96.1935 84.8362C94.9197 85.087 93.6857 84.262 93.4349 82.9882C93.1841 81.7146 94.0091 80.4804 95.2827 80.2296L95.3751 65.7829L90.2869 60.9125L90.2671 44.057ZM111.056 165.86C109.789 166.111 108.555 165.286 108.304 164.012L96.6291 164.006L90.2473 170.387V184.662H88.6501L88.6699 170.024L88.6633 170.018L88.6699 170.011L88.6897 153.156L93.7781 148.279L93.6857 133.832C92.9135 133.687 92.2733 133.159 91.9697 132.433C91.4747 131.232 92.0357 129.859 93.2369 129.357C94.4379 128.862 95.8107 129.423 96.3123 130.624C96.8073 131.826 96.2463 133.198 95.0451 133.7L95.1375 148.892L90.2539 153.717V168.434L96.0285 162.659H108.442C108.739 161.933 109.386 161.412 110.152 161.26C111.419 161.009 112.653 161.834 112.904 163.108C113.155 164.375 112.33 165.609 111.056 165.86ZM143.704 165.015C143.17 163.834 141.777 163.313 140.596 163.854C139.415 164.388 138.893 165.781 139.434 166.962C139.969 168.143 141.362 168.665 142.543 168.124C143.256 167.8 143.757 167.14 143.889 166.368L157.168 166.375L163.754 173.014C164.104 172.71 164.454 172.407 164.797 172.103L157.729 165.002L143.704 165.015ZM153.624 173.667C154.515 172.724 156 172.677 156.943 173.562C157.168 173.773 157.346 174.017 157.478 174.294L162.236 174.288C161.669 174.75 161.101 175.205 160.527 175.654H157.656C157.577 176.116 157.366 176.545 157.049 176.881C156.158 177.825 154.673 177.871 153.729 176.987C152.785 176.096 152.739 174.611 153.624 173.667ZM120.553 157.096C121.437 156.152 121.391 154.667 120.447 153.776C120.104 153.459 119.682 153.248 119.22 153.169L119.226 139.25L117.847 139.224L117.867 153.347C116.685 153.888 116.164 155.281 116.705 156.456C117.246 157.637 118.639 158.158 119.814 157.617C120.091 157.498 120.342 157.314 120.553 157.096ZM48.2603 147.414C49.2041 148.305 49.2503 149.79 48.3659 150.734C48.1547 150.958 47.9039 151.136 47.6267 151.262L47.3627 164.091C46.9073 163.563 46.4585 163.029 46.0229 162.488L46.2737 151.446C45.8119 151.367 45.3829 151.156 45.0463 150.839C44.1025 149.948 44.0563 148.463 44.9407 147.52C45.8317 146.576 47.3165 146.53 48.2603 147.414ZM171.245 59.2625C170.301 58.3715 168.816 58.4243 167.925 59.3681C167.034 60.3119 167.087 61.7967 168.031 62.6877C168.974 63.5787 170.459 63.5259 171.35 62.5821C171.667 62.2389 171.878 61.8165 171.957 61.3545H176.181C175.838 60.8993 175.495 60.4439 175.145 59.9885L171.773 59.9951C171.647 59.7179 171.469 59.4737 171.245 59.2625ZM158.111 50.9338C158.996 49.99 160.481 49.9438 161.424 50.8282C161.649 51.0393 161.827 51.2901 161.946 51.5673L167.635 51.5541C168.097 52.0095 168.552 52.4649 169.001 52.9269L162.131 52.9203C162.058 53.3757 161.847 53.8047 161.53 54.1413C160.646 55.0849 159.161 55.1311 158.217 54.2469C157.273 53.3625 157.227 51.8775 158.111 50.9338ZM77.3052 46.281C77.3448 47.5744 78.4272 48.5974 79.7274 48.5578C81.0209 48.5182 82.0439 47.436 82.0043 46.1358C81.9647 44.8422 80.8823 43.8194 79.5822 43.859C79.1136 43.8722 78.6648 44.024 78.282 44.301L71.5174 37.5298C71.095 37.7542 70.6792 37.9786 70.2568 38.2162L77.4504 45.39C77.3448 45.6738 77.292 45.9774 77.3052 46.281ZM46.8479 66.7531C45.9043 65.8621 45.8515 64.3773 46.7423 63.4335C46.9535 63.2091 47.2043 63.0309 47.4815 62.8989L47.4683 56.7679C47.9237 56.2465 48.3791 55.7251 48.8411 55.2103L48.8345 62.7207C49.2965 62.7999 49.7187 63.0111 50.0619 63.3279C51.0057 64.2189 51.0585 65.7037 50.1675 66.6475C49.2767 67.5913 47.7917 67.6441 46.8479 66.7531ZM155.379 146.107L141.362 146.127C140.827 144.946 139.434 144.424 138.253 144.966C137.072 145.5 136.55 146.893 137.092 148.074C137.626 149.255 139.019 149.777 140.2 149.236C140.913 148.912 141.414 148.252 141.546 147.48H154.825L161.622 154.33L147.347 154.337C146.813 153.156 145.42 152.634 144.239 153.176C143.058 153.71 142.536 155.103 143.077 156.284C143.619 157.465 145.005 157.987 146.186 157.446C146.899 157.122 147.4 156.462 147.532 155.69L178.94 155.697C179.237 155.241 179.534 154.779 179.824 154.324L163.582 154.33L155.379 146.107ZM71.5042 83.4964C70.5604 84.3874 69.069 84.3346 68.1846 83.3908C67.8612 83.0542 67.65 82.6252 67.584 82.1632L32.5926 82.1698C32.7576 81.7146 32.9292 81.2526 33.1074 80.7972H51.5337L59.7173 72.574L73.7348 72.5938C74.0648 71.881 74.7182 71.3795 75.4904 71.2541C76.7708 71.0429 77.9784 71.9074 78.1896 73.1878C78.4008 74.4682 77.5362 75.6758 76.256 75.887C74.9756 76.0982 73.7678 75.2336 73.5566 73.9534L60.2782 73.96L53.4805 80.8104L67.7556 80.817C67.8876 80.5332 68.0658 80.2824 68.2902 80.0712C69.234 79.1802 70.7254 79.233 71.6098 80.1768C72.5008 81.1206 72.448 82.612 71.5042 83.4964ZM55.8763 150.945C56.1931 150.608 56.4041 150.179 56.4833 149.717L62.2912 149.724C62.6806 150.958 63.9938 151.651 65.2346 151.262C66.4688 150.872 67.1616 149.559 66.7722 148.318C66.383 147.084 65.0696 146.391 63.8288 146.781C63.0832 147.012 62.509 147.599 62.2846 148.345L56.3051 148.364C55.7707 147.183 54.3781 146.662 53.1967 147.203C52.0155 147.737 51.4941 149.13 52.0353 150.311C52.5699 151.493 53.9623 152.014 55.1437 151.473C55.4143 151.347 55.6651 151.169 55.8763 150.945ZM64.0928 64.4697C64.3898 63.4731 65.3072 62.7933 66.3434 62.7933C67.3728 62.7933 68.277 63.4533 68.5872 64.4433C68.9766 65.6773 68.2836 66.9973 67.0494 67.3867C65.8154 67.7761 64.4954 67.0831 64.106 65.8489L58.2983 65.8423C58.1663 66.6145 57.6647 67.2745 56.9519 67.5979C55.7707 68.1391 54.3781 67.6177 53.8435 66.4363C53.3023 65.2549 53.8237 63.8691 55.0051 63.3279C56.1865 62.7867 57.5789 63.3081 58.1135 64.4895L64.0928 64.4697ZM140.504 121.636C139.302 121.141 137.93 121.715 137.441 122.916C136.946 124.117 137.521 125.49 138.722 125.978C139.923 126.473 141.296 125.899 141.784 124.698C142.081 123.972 141.995 123.147 141.56 122.5L147.842 116.369L186.576 116.29V114.904L147.308 114.983L140.504 121.636ZM137.738 123.833C137.738 124.837 138.55 125.648 139.553 125.648C140.556 125.648 141.368 124.837 141.368 123.833C141.368 122.83 140.556 122.019 139.553 122.019C138.55 122.019 137.738 122.83 137.738 123.833ZM58.5095 142.042L72.7252 142.148C73.2268 143.342 74.5994 143.91 75.794 143.408C76.9884 142.906 77.556 141.534 77.0544 140.339C76.553 139.145 75.1802 138.577 73.9856 139.079C73.2664 139.382 72.7384 140.022 72.5866 140.788L59.5325 140.682L51.8373 131.918H30.4082C30.5534 132.466 30.7052 133.007 30.8636 133.548H51.2961L58.5095 142.042ZM76.2362 139.976C75.5234 139.27 74.375 139.27 73.6688 139.976C72.9562 140.689 72.9628 141.831 73.6688 142.544C74.3816 143.25 75.53 143.25 76.2362 142.544C76.9422 141.831 76.9422 140.682 76.2362 139.976Z" fill="#7290C9"/>
<path fill-rule="evenodd" clip-rule="evenodd" d="M186.646 87.3045C186.217 88.5915 186.91 89.9839 188.197 90.4129C188.758 90.5977 189.372 90.578 189.913 90.3536C189.517 88.7696 189.075 87.2055 188.586 85.6611C187.689 85.7997 186.936 86.4333 186.646 87.3045ZM74.4782 89.951C72.9734 89.3372 71.2574 90.0499 70.6438 91.5547C70.03 93.0594 70.7428 94.7754 72.2474 95.3892C73.7522 96.0028 75.468 95.2902 76.0818 93.7854C76.4514 92.8746 76.3525 91.8452 75.8047 91.0268L78.4115 89.06L77.6064 87.4629L74.4782 89.951ZM88.8389 120.045L92.4555 116.686L110.803 116.719L117.25 110.502L116.716 109.222L110.202 115.412H91.8155L87.7831 119.187C86.5819 118.692 85.2091 119.267 84.7143 120.468C84.2193 121.669 84.7935 123.042 85.9945 123.537C87.1957 124.032 88.5683 123.457 89.0633 122.256C89.3603 121.524 89.2811 120.692 88.8389 120.045ZM143.148 111.882L136.865 118.013C137.307 118.666 137.386 119.491 137.082 120.217C136.594 121.418 135.221 121.992 134.02 121.497C132.819 121.009 132.245 119.636 132.74 118.435C133.228 117.234 134.601 116.66 135.802 117.155L142.613 110.496L161.6 110.416V111.802L143.148 111.882ZM133.156 119.352C133.156 120.355 133.967 121.167 134.971 121.167C135.974 121.167 136.785 120.355 136.785 119.352C136.785 118.349 135.974 117.537 134.971 117.537C133.967 117.537 133.156 118.349 133.156 119.352ZM85.1299 121.378C85.1299 122.382 85.9417 123.193 86.9449 123.193C87.9481 123.193 88.7597 122.382 88.7597 121.372C88.7531 120.375 87.9481 119.564 86.9449 119.564C85.9417 119.564 85.1299 120.375 85.1299 121.378ZM71.4356 92.703C71.4356 93.8052 72.3266 94.6962 73.4288 94.6962C74.531 94.6962 75.4218 93.8052 75.4218 92.703C75.4218 91.6009 74.531 90.7099 73.4288 90.7099C72.3266 90.7099 71.4356 91.6009 71.4356 92.703ZM40.9453 122.553H46.2845V120.956H41.9089L34.1213 113.162H37.6455V111.241H27.6074C27.614 111.921 27.6272 112.594 27.647 113.267H31.9764L40.9453 122.553ZM44.5751 103.031L44.3639 104.629L34.2203 94.4916H29.1518C29.2376 94.0626 29.3234 93.6402 29.4158 93.2112H34.7615L44.5751 103.031ZM116.511 122.877H104.876V124.368H116.511V122.877Z" fill="#7290C9"/>
<path fill-rule="evenodd" clip-rule="evenodd" d="M125.223 91.5016V79.2263H172.325V141.764H115.014V91.5016H125.223ZM128.312 127.252H159.02V93.7388H128.312V127.252Z" fill="#FFFFFA"/>
<path d="M88.4429 129.595V141.758H72.5378C72.5378 141.758 56.4741 141.969 47.0763 127.51C42.0869 119.821 40.5691 110.384 42.8987 101.514C45.1887 92.802 51.5575 82.4802 68.479 79.22H105.727V90.8618H72.861C72.861 90.8618 55.5303 96.8147 55.7547 111.189C55.8537 117.511 59.411 123.24 64.8888 126.401C67.357 127.82 70.0562 128.79 72.861 129.278L88.4429 129.595Z" fill="white"/>
<path d="M72.8613 104.628V116.046H93.5644V141.765H105.734V104.628H72.8613Z" fill="white"/>
</g>
<defs>
<clipPath id="clip0_4_3111">
<rect width="220" height="220" fill="white" transform="translate(0 0.5)"/>
</clipPath>
</defs>
</svg>
