<svg width="220" height="221" viewBox="0 0 220 221" fill="none" xmlns="http://www.w3.org/2000/svg">
<g clip-path="url(#clip0_4_3122)">
<path d="M110 220.5C170.751 220.5 220 171.251 220 110.5C220 49.7487 170.751 0.5 110 0.5C49.2487 0.5 0 49.7487 0 110.5C0 171.251 49.2487 220.5 110 220.5Z" fill="#EEF4F4"/>
<path fill-rule="evenodd" clip-rule="evenodd" d="M140.485 31.6667L123.899 48.098C118.308 44.221 111.412 41.8208 103.958 41.8208C84.9481 41.8208 69.666 57.1446 69.666 75.7912C69.666 92.5917 81.9662 106.623 98.1802 109.392V121.762C81.9662 124.531 69.666 138.378 69.666 155.363C69.666 174.194 85.1346 189.333 103.958 189.333C122.781 189.333 138.249 174.01 138.249 155.363C138.249 138.563 125.949 124.531 109.735 121.762V109.392C125.949 106.623 138.249 92.7765 138.249 75.7912C138.249 68.4064 135.826 61.5754 131.913 56.0367L148.499 39.6054L140.485 31.6667ZM126.881 154.994C126.881 167.548 116.631 177.702 103.958 177.702C91.4709 177.702 81.2208 167.548 81.2208 154.994C81.2208 142.44 91.4709 132.285 104.144 132.285C116.631 132.285 126.881 142.44 126.881 154.994ZM81.2208 75.6066C81.2208 88.1609 91.4709 98.315 104.144 98.315C116.631 98.315 126.881 88.1609 127.067 75.7912C127.067 63.2369 116.817 53.0828 104.144 53.0828C91.4709 53.0828 81.2208 63.2369 81.2208 75.6066Z" fill="#181EA9"/>
</g>
<defs>
<clipPath id="clip0_4_3122">
<rect width="220" height="220" fill="white" transform="translate(0 0.5)"/>
</clipPath>
</defs>
</svg>
