<svg width="220" height="221" viewBox="0 0 220 221" fill="none" xmlns="http://www.w3.org/2000/svg">
<g clip-path="url(#clip0_4_3125)">
<path d="M110 220.5C170.751 220.5 220 171.251 220 110.5C220 49.7487 170.751 0.5 110 0.5C49.2487 0.5 0 49.7487 0 110.5C0 171.251 49.2487 220.5 110 220.5Z" fill="#EDF0F4"/>
<path fill-rule="evenodd" clip-rule="evenodd" d="M127.194 64.3558C127.194 67.7856 126.804 71.1375 126.228 74.0217C125.934 75.4847 125.575 76.9598 125.197 78.3029L123.914 82.3324C122.924 85.3183 121.155 88.5204 119.303 91.0028C117.792 93.0235 116.275 95.0262 114.416 96.7471L111.496 99.1395C109.199 100.86 106.747 102.473 104.132 103.685C102.537 104.422 100.9 104.86 99.1736 105.424C96.1996 106.395 93.3154 106.713 90.2334 107.114C86.9174 107.546 83.1879 107.39 79.7881 107.408L73.7139 107.102C70.3081 106.725 70.3802 107.018 66.3987 106.023C64.306 105.501 61.9735 104.722 60.1986 103.829C59.6831 103.571 59.3831 103.385 58.8914 103.121C58.052 102.665 56.2232 101.088 55.7436 100.944C55.4737 100.86 55.0301 100.758 55.0301 101.034C55.0301 103.511 58.4058 109.015 60.3185 111.156L63.1308 114.082C63.3646 114.31 63.4187 114.328 63.6524 114.514L66.3267 116.624C67.8377 117.758 69.5046 118.615 71.1236 119.586C71.5493 119.838 71.9391 120.006 72.3888 120.234L73.3242 120.684C78.2351 122.95 82.9541 124.425 88.2726 125.505C89.25 125.702 90.6052 126.032 91.5944 126.116C91.6364 128.041 91.3845 129.936 91.0607 131.855C90.6052 134.613 89.8676 136.981 89.1 139.572C88.0928 142.959 85.5384 147.606 83.4218 150.263C82.3904 151.552 81.455 152.541 80.1838 153.615C79.878 153.872 79.6141 154.076 79.2904 154.316C75.381 157.242 74.0018 157.686 69.0549 157.686C66.5606 157.686 63.9342 157.146 61.5657 156.457C60.5104 156.151 59.4491 155.593 58.5917 155.078C57.9442 154.688 56.4691 153.573 55.8754 153.435L55 154.25C55.1799 155.941 56.9068 159.485 57.7522 161.008C61.8656 168.401 70.0143 169.9 78.0852 169.9C78.6009 169.9 79.1465 169.942 79.6501 169.87C81.0172 169.684 82.6782 169.69 84.0572 169.492C86.042 169.204 87.637 168.947 89.4359 168.497C94.4486 167.238 98.4781 165.055 102.885 162.813L104.93 161.667C105.637 161.248 106.261 160.93 106.963 160.51L110.974 158.148C111.682 157.722 112.275 157.368 112.965 156.954L121.851 151.384C122.199 151.162 122.457 150.964 122.804 150.748L132.626 144.518C134.935 143.061 137.399 141.718 139.911 140.639C140.337 140.459 140.607 140.339 141.033 140.171C143.569 139.164 145.722 138.228 148.762 138.228C153.067 138.228 155.447 139.65 157.54 143.055C158.841 145.178 159.573 148.164 160.106 150.688C160.43 152.217 160.292 152.038 161.408 152.787L162.061 151.42C162.229 150.916 162.445 150.407 162.619 149.849C162.961 148.758 163.278 147.798 163.596 146.683C165.107 141.418 165.473 135.266 163.248 130.116C162.451 128.263 161.354 126.542 159.819 125.259L159.645 125.115C159.561 125.043 159.549 125.031 159.477 124.965C157.918 123.544 156.053 122.567 153.805 121.817C153.451 121.697 153.349 121.697 152.959 121.601C145.434 119.736 138.334 120.947 131.229 123.772C130.521 124.054 127.463 125.433 126.978 125.475C127.062 125.157 127.877 123.754 128.105 123.412C128.549 122.74 128.926 122.099 129.31 121.433C131.007 118.483 132.2 115.737 133.418 112.571C134.035 110.952 134.539 109.447 135.097 107.768C136.176 104.524 137.099 101.112 137.669 97.3707C139.228 87.1533 139.648 72.2648 134.083 63.1027C132.638 60.7221 131.403 59.3011 129.664 57.3164C129.07 56.6389 128.321 56.1053 127.697 55.4517C127.397 55.1338 127.421 55.0139 126.87 55.002C126.636 55.9973 126.57 56.0332 126.72 57.0646C127.068 59.523 127.194 61.8795 127.194 64.3558Z" fill="#367EC7"/>
<path fill-rule="evenodd" clip-rule="evenodd" d="M85.421 60.7341C85.1092 60.4344 84.6476 59.6129 84.4556 59.1452C84.1379 58.3717 84.9053 58.2399 85.5589 57.898C86.6321 57.3344 87.8434 56.8068 89.0787 56.417C95.1229 54.5281 101.994 55.8173 106.743 59.7208C108.326 61.0219 109.184 61.4058 108.464 62.3111C107.013 64.128 107.307 63.5703 105.196 61.8015C104.573 61.2799 103.793 60.7282 103.02 60.2606C98.8044 57.712 92.4125 57.4664 87.9034 59.607C87.3158 59.8827 85.8827 60.7161 85.421 60.7341ZM71.39 74.1356C71.39 79.1184 73.3748 84.9526 76.4328 88.862C76.8946 89.4557 77.3023 89.8454 77.752 90.4092C78.8133 91.7222 79.0711 92.088 77.0863 93.647L72.0615 97.0229C71.0602 97.6166 68.5538 99.0675 67.7505 99.7271C67.4326 99.9909 67.1807 100.117 67.1387 100.603C68.35 101.244 70.7305 101.028 72.3494 101.028C74.9637 101.028 77.2183 100.926 79.7907 100.926L87.016 100.501C89.0067 100.405 91.8969 100.057 93.7856 99.7271C98.1328 98.9655 102.852 97.6945 106.641 95.4699C108.098 94.6183 110.365 93.0474 111.498 91.8242C111.69 91.6203 111.768 91.5244 111.96 91.3324C112.278 91.0147 112.632 90.7089 112.913 90.3731C113.789 89.3299 114.634 88.2565 115.348 87.0633C119.107 80.7853 120.271 74.6332 118.34 67.366C117.662 64.8116 116.163 61.9214 114.586 59.7448L110.953 55.7275C110.005 54.8819 107.517 53.251 106.353 52.6695C100.927 49.9591 95.6685 49.2996 89.6724 50.7507C87.4238 51.2963 85.2771 52.1657 83.2984 53.3049C81.1816 54.5222 78.2976 56.8247 76.8526 58.7614C73.4886 63.2705 71.39 68.3672 71.39 74.1356Z" fill="#F72222"/>
<path fill-rule="evenodd" clip-rule="evenodd" d="M85.422 60.7344C85.8836 60.7162 87.3168 59.8828 87.9043 59.601C92.4076 57.4604 98.7995 57.7063 103.021 60.2546C103.8 60.7223 104.574 61.2739 105.197 61.7957C107.308 63.5645 107.014 64.1222 108.465 62.3054C109.185 61.4059 108.327 61.0162 106.744 59.7149C101.989 55.8174 95.1178 54.5284 89.0737 56.4171C87.8385 56.8008 86.6272 57.3345 85.554 57.8982C84.9063 58.2399 84.1328 58.3659 84.4507 59.1452C84.6485 59.6129 85.1102 60.4344 85.422 60.7344Z" fill="white"/>
</g>
<defs>
<clipPath id="clip0_4_3125">
<rect width="220" height="220" fill="white" transform="translate(0 0.5)"/>
</clipPath>
</defs>
</svg>
