<svg width="220" height="221" viewBox="0 0 220 221" fill="none" xmlns="http://www.w3.org/2000/svg">
<g clip-path="url(#clip0_4_3130)">
<path d="M110 220.5C170.751 220.5 220 171.251 220 110.5C220 49.7487 170.751 0.5 110 0.5C49.2487 0.5 0 49.7487 0 110.5C0 171.251 49.2487 220.5 110 220.5Z" fill="#5411B3"/>
<path fill-rule="evenodd" clip-rule="evenodd" d="M111.281 35.3333C112.45 36.0437 113.616 36.7589 114.782 37.4742C117.237 38.9807 119.693 40.4869 122.173 41.9455C139.54 52.113 156.907 62.2667 174.295 72.3928C175.439 73.0568 175.946 73.7968 175.946 75.2147C175.912 99.3677 175.918 123.521 176.001 147.674C176.001 149.251 175.288 149.908 174.151 150.572C153.482 162.648 132.826 174.746 112.171 186.844C111.951 186.974 111.747 187.135 111.544 187.295L111.543 187.296C111.456 187.364 111.369 187.434 111.281 187.5H110.527C108.668 186.394 106.809 185.285 104.95 184.178L104.949 184.176C100.573 181.567 96.1932 178.955 91.8034 176.378C77.0468 167.725 62.2763 159.086 47.4921 150.489C46.2383 149.763 45.8273 148.933 45.8341 147.48C45.9026 123.521 45.9164 99.5613 45.8683 75.5951C45.8683 73.8798 46.4508 73.0152 47.8483 72.206C67.0716 61.0118 86.2648 49.7812 105.462 38.5482L105.464 38.5467L109.218 36.35C109.54 36.1616 109.831 35.9153 110.119 35.6704C110.254 35.5556 110.389 35.4412 110.527 35.3333H111.281ZM130.504 156.237C132.719 157.769 134.896 159.361 137.105 160.975C137.717 161.423 138.332 161.873 138.951 162.323L139.025 162.291C139.176 162.225 139.373 162.14 139.554 162.04C141.393 160.965 143.233 159.892 145.074 158.818L145.079 158.815C152.491 154.49 159.908 150.162 167.293 145.786C167.841 145.46 168.321 144.506 168.321 143.849C168.369 122.227 168.362 100.613 168.3 78.9981C168.237 78.2367 167.847 77.5414 167.232 77.096C162.175 74.0941 157.103 71.1221 152.032 68.1503C147.965 65.7677 143.899 63.3849 139.842 60.9871C138.896 60.4338 138.369 60.5999 137.567 61.2293C135.354 62.9792 113.596 76.3975 105.074 81.5642C98.4146 85.5897 91.9063 89.8366 86.7544 95.8818C79.6501 104.216 78.9855 115.767 85.1992 124.828C88.2754 129.324 92.3789 132.741 96.7773 135.777C99.1841 137.433 101.643 139.008 104.1 140.583L104.102 140.584C105.225 141.303 106.347 142.022 107.465 142.749C107.449 142.771 107.435 142.793 107.421 142.815C107.409 142.836 107.396 142.856 107.384 142.876C107.33 142.966 107.284 143.043 107.218 143.081C106.284 143.628 105.35 144.176 104.417 144.725C100.653 146.935 96.8871 149.147 93.0778 151.291C92.6187 151.547 91.6665 151.291 91.1458 150.959C86.0946 147.668 81.4611 143.766 77.3482 139.339C65.4962 126.792 63.0846 106.229 71.7305 91.2268C75.7126 84.3062 81.2511 78.4278 87.8984 74.0666C94.5263 69.6907 110.241 60.181 118.624 55.1085C121.158 53.5749 123.023 52.4461 123.763 51.9885C123.656 51.8483 123.579 51.7333 123.517 51.6398C123.419 51.4937 123.357 51.4002 123.269 51.3454C122.402 50.8346 121.537 50.3219 120.671 49.8091C117.762 48.0857 114.853 46.3624 111.897 44.7262C111.335 44.4149 110.315 44.5324 109.705 44.8506C108.115 45.6793 106.575 46.6022 105.037 47.5247C104.533 47.8265 104.03 48.1281 103.525 48.4266C102.078 49.2787 100.636 50.1398 99.0537 51.084L97.8391 51.8087L107.691 58.0615C106.467 58.7908 105.26 59.5127 104.064 60.2279C100.339 62.4561 96.7236 64.618 93.0778 66.728C92.6941 66.9493 91.872 66.7764 91.454 66.486C89.0688 64.8653 86.7427 63.1581 84.4798 61.3675C83.4865 60.5722 82.8289 60.4961 81.719 61.1532C72.7595 66.4429 63.7756 71.6903 54.7677 76.8955C53.7742 77.4697 53.4523 78.1405 53.4523 79.3025C53.4866 100.73 53.4798 122.158 53.4455 143.579C53.4455 144.727 53.7401 145.405 54.7608 146C63.7082 151.174 72.6279 156.403 81.5272 161.666C82.5138 162.254 83.1714 162.227 84.1649 161.556C90.5498 157.246 119.762 138.758 127.88 133.661C128.834 133.061 129.683 132.283 130.529 131.507C130.905 131.163 131.279 130.82 131.662 130.493L131.456 130.009H101.134C101.719 128.983 102.296 127.968 102.868 126.962L102.872 126.956L102.873 126.954C105.315 122.661 107.661 118.537 110.075 114.453C110.349 113.996 111.356 113.803 112.027 113.803C122.722 113.776 133.42 113.778 144.117 113.781C147.172 113.781 150.228 113.782 153.283 113.782C153.63 113.782 153.977 113.807 154.354 113.834C154.572 113.85 154.8 113.866 155.044 113.879C155.055 114.088 155.077 114.291 155.099 114.486C155.146 114.903 155.189 115.287 155.106 115.636C154.85 116.711 154.618 117.795 154.386 118.881C153.798 121.629 153.21 124.381 152.228 126.979C148.981 135.597 142.959 142.223 135.622 147.328C128.563 152.231 107.93 164.59 100.148 169.252C99.0926 169.884 98.2738 170.374 97.7568 170.686C97.8423 170.838 97.8971 170.953 97.9381 171.04C97.9959 171.162 98.0269 171.227 98.0789 171.26C98.8988 171.748 99.7374 172.211 100.576 172.674C102.434 173.702 104.294 174.729 105.951 176.025C109.41 178.723 112.425 178.709 115.884 176.025C117.588 174.707 119.491 173.653 121.489 172.546C122.414 172.033 123.361 171.509 124.318 170.941L114.288 164.613C114.386 164.526 114.468 164.446 114.544 164.374C114.679 164.242 114.791 164.135 114.918 164.059L116.589 163.08C120.623 160.714 124.661 158.345 128.73 156.036C129.168 155.794 130.059 155.925 130.504 156.237ZM154.715 105.53C154.455 101.332 152.694 95.8886 150.33 91.6556C145.521 83.0513 138.362 76.8401 130.347 71.5212C129.792 71.1548 128.558 71.3898 127.873 71.7772C125.05 73.3449 122.272 74.9835 119.494 76.6218C118.497 77.2099 117.5 77.798 116.501 78.3827C116.03 78.6601 115.567 78.9433 115.054 79.257C114.761 79.4359 114.453 79.6248 114.117 79.8283C114.257 79.926 114.383 80.0145 114.499 80.0957C114.842 80.3365 115.094 80.5136 115.35 80.6789C116.63 81.5329 117.921 82.3713 119.212 83.2095C122.02 85.0324 124.828 86.8554 127.517 88.8406C133.046 92.9214 137.725 97.777 139.917 104.611C140.047 105.012 140.691 105.489 141.102 105.496C144.527 105.544 147.948 105.539 151.441 105.534C152.525 105.532 153.615 105.53 154.715 105.53Z" fill="white"/>
</g>
<defs>
<clipPath id="clip0_4_3130">
<rect width="220" height="220" fill="white" transform="translate(0 0.5)"/>
</clipPath>
</defs>
</svg>
