<svg width="220" height="221" viewBox="0 0 220 221" fill="none" xmlns="http://www.w3.org/2000/svg">
<g clip-path="url(#clip0_4_3133)">
<path d="M110 220.5C170.751 220.5 220 171.251 220 110.5C220 49.7487 170.751 0.5 110 0.5C49.2487 0.5 0 49.7487 0 110.5C0 171.251 49.2487 220.5 110 220.5Z" fill="black"/>
<path d="M109.767 208.751C164.03 208.751 208.018 164.762 208.018 110.5C208.018 56.2371 164.03 12.2485 109.767 12.2485C55.5042 12.2485 11.5156 56.2371 11.5156 110.5C11.5156 164.762 55.5042 208.751 109.767 208.751Z" fill="#FEF102"/>
<path fill-rule="evenodd" clip-rule="evenodd" d="M156.306 73.6413C155.793 72.4597 155.285 71.0258 154.739 69.4858C152.838 64.12 150.479 57.4626 145.825 55.6726C138.108 52.6778 133.27 72.1438 132.118 77.0967H130.966L130.873 76.6976C128.923 68.3141 126.214 56.6677 117.144 54.0602C112.883 72.0287 121.636 91.4946 129.814 107.044C138.568 102.898 142.83 89.7669 143.636 80.5522H144.788L154.003 108.196C161.091 106.203 163.813 99.311 166.367 92.8451C166.469 92.586 166.571 92.3279 166.673 92.0705C172.432 77.7879 177.27 60.1648 173.584 44.8455C163.632 47.6446 159.931 60.8008 157.191 70.5413C156.887 71.6229 156.594 72.6626 156.306 73.6413ZM45.7306 110.5C55.6363 105.777 60.359 90.8035 61.8563 80.5522H63.0082C64.16 85.5051 67.2699 98.2904 73.4899 99.0967C81.3222 100.133 85.4689 82.6255 86.0447 77.0967H87.1966C87.3858 77.7417 87.5757 78.4015 87.7686 79.0721L87.7692 79.074C90.16 87.3834 93.0255 97.3419 101.019 101.285C104.244 87.8087 100.443 73.5261 95.4899 60.9711C95.3296 60.5635 95.1492 60.0676 94.9474 59.5123C93.5509 55.6731 91.121 48.9921 87.1966 48.9921C80.2362 48.9921 76.137 66.6898 74.696 72.9118C74.635 73.1758 74.578 73.4207 74.5264 73.6413H73.3746L64.16 45.9972C47.9191 53.7146 39.1651 94.9501 45.7306 110.5ZM145.94 184.332C95.9506 206.563 40.4321 176.845 28.4531 124.322C33.4061 122.94 38.9348 123.861 42.6208 126.626C45.7059 129.056 47.6527 133.08 49.447 136.789C49.8633 137.65 50.2713 138.493 50.6836 139.296C55.2909 148.165 62.2019 155.536 69.9191 161.756C104.359 189.746 153.197 174.311 171.28 139.296L161.259 138.489H160.914C158.38 138.144 156.652 135.725 156.998 133.191C157.228 132.269 157.804 131.463 158.61 131.118C164.485 128.584 188.327 118.563 190.747 124.667C193.123 130.665 189.163 138.998 186.946 143.658C186.908 143.741 186.869 143.822 186.831 143.903C178.537 161.872 164.139 176.269 145.94 184.332Z" fill="black"/>
</g>
<defs>
<clipPath id="clip0_4_3133">
<rect width="220" height="220" fill="white" transform="translate(0 0.5)"/>
</clipPath>
</defs>
</svg>
