<svg width="220" height="221" viewBox="0 0 220 221" fill="none" xmlns="http://www.w3.org/2000/svg">
<g clip-path="url(#clip0_4_3137)">
<path d="M110 220.5C170.751 220.5 220 171.251 220 110.5C220 49.7487 170.751 0.5 110 0.5C49.2487 0.5 0 49.7487 0 110.5C0 171.251 49.2487 220.5 110 220.5Z" fill="#EDF0F4"/>
<path d="M110 193C155.563 193 192.5 156.063 192.5 110.5C192.5 64.9365 155.563 28 110 28C64.4365 28 27.5 64.9365 27.5 110.5C27.5 156.063 64.4365 193 110 193Z" fill="#377E96"/>
<path fill-rule="evenodd" clip-rule="evenodd" d="M84.9046 31.8878C93.0365 29.3802 101.491 28.0706 110 28C101.484 27.9922 93.0187 29.3037 84.9046 31.8878ZM149.316 183.044L149.345 183.023C152.889 181.1 156.263 178.926 159.464 176.527C159.062 176.821 158.66 177.104 158.257 177.388C156.551 171.134 152.658 166.854 147.161 163.951C142.892 161.688 138.215 160.853 133.476 160.569C129.275 160.317 125.069 160.151 120.862 159.985C117.238 159.843 113.613 159.7 109.99 159.502C106.153 159.291 102.321 158.973 98.4894 158.655L98.4834 158.655L98.4775 158.655L98.4718 158.654L98.4659 158.653L98.4603 158.653L98.4546 158.653L98.4489 158.652C96.7685 158.513 95.0882 158.374 93.4072 158.244L93.2474 158.223C87.6168 157.037 85.8997 153.624 88.8543 148.715C90.1653 146.536 92.037 144.672 93.8698 142.847C94.0405 142.677 94.2121 142.507 94.3818 142.337C94.8202 141.899 96.0885 142.064 96.9083 142.259C106.164 144.472 115.414 144.585 124.427 141.398C135.467 137.5 143.057 130.003 145.826 118.402C147.702 110.539 146.718 102.831 143.005 95.5606L142.227 94.0138H149.084C149.589 94.0138 150.094 94.0171 150.599 94.0202C152.002 94.0294 153.405 94.0383 154.808 93.9777C155.313 93.9571 156.107 93.6631 156.241 93.3023C157.566 89.7139 158.818 86.0964 160.07 82.4774L160.071 82.4739C160.31 81.7831 160.549 81.0923 160.789 80.4016L160.428 79.9015C160.227 79.9858 160 80.0522 159.774 80.1188C159.281 80.2634 158.788 80.4081 158.562 80.7368C156.824 83.2272 154.323 84.1603 151.508 84.212C147.595 84.2944 143.68 84.2762 139.764 84.2581H139.761C138.28 84.2513 136.799 84.2443 135.317 84.2428C135.265 84.2428 135.213 84.2014 135.144 84.1473C135.105 84.1162 135.061 84.081 135.008 84.047C136.02 82.9608 137.032 81.8762 138.043 80.7925L138.047 80.7881L138.055 80.7802L138.061 80.7733C140.572 78.0825 143.078 75.397 145.573 72.7035C149.404 68.5684 152.952 64.2269 155.385 59.0967C158.252 53.0329 158.835 47.0777 154.282 41.4628C154.251 41.425 154.248 41.3665 154.241 41.2255C154.237 41.1348 154.231 41.0094 154.215 40.8335C147.444 36.5272 140.078 33.237 132.352 31.0679C136.466 32.2422 140.486 33.7244 144.377 35.5022C144.773 35.6839 145.163 35.8781 145.547 36.0849C145.601 36.1083 145.637 36.167 145.685 36.2436C145.71 36.2845 145.738 36.3303 145.774 36.3787C145.123 36.3787 144.473 36.3558 143.827 36.3331C142.414 36.2834 141.015 36.2341 139.654 36.4251C133.549 37.2811 129.908 41.1172 127.949 46.7374C127.562 47.8512 127.335 49.0472 127.16 50.223C127.115 50.5134 127.233 50.8276 127.352 51.1448C127.409 51.2947 127.466 51.4456 127.506 51.5945C127.672 51.5127 127.859 51.4449 128.045 51.3774C128.445 51.2319 128.843 51.0872 129.037 50.8056C129.409 50.2644 129.706 49.6739 130.004 49.0845C130.321 48.4555 130.638 47.8277 131.043 47.2632C135.028 41.6895 142.845 41.0295 147.388 45.9227C150.482 49.2535 150.894 53.265 149.925 57.5343C148.682 63.0101 145.681 67.5474 142.134 71.7239C139.682 74.614 137.059 77.3521 134.438 80.0882L134.436 80.0907L134.433 80.0931L134.431 80.0955C134.001 80.5441 133.57 80.994 133.141 81.4432C132.811 81.7886 131.904 82.0309 131.543 81.8247C125.103 78.1485 118.188 76.5139 110.789 76.3438C100.791 76.117 91.6799 78.4217 83.9456 84.9854C76.0102 91.7245 71.5242 100.258 71.6479 110.797C71.7871 123.105 77.1547 132.535 87.921 138.743L88.9007 139.31C88.9209 139.325 88.9346 139.352 88.9651 139.412C88.9893 139.46 89.0243 139.53 89.0811 139.63C88.9434 139.757 88.7995 139.885 88.6525 140.017L88.6499 140.019L88.6472 140.021L88.6451 140.023C88.3877 140.253 88.1199 140.493 87.8592 140.744C86.8776 141.701 85.8825 142.646 84.8872 143.592C82.4839 145.875 80.0794 148.159 77.8664 150.612C75.2213 153.551 73.4217 157.052 73.1639 161.162C72.9938 163.838 73.8083 166.174 75.7575 167.937C77.1993 169.24 78.7393 170.437 80.3269 171.671L80.3317 171.675L80.3332 171.676L80.3368 171.679C81.0454 172.23 81.7633 172.788 82.4864 173.366C81.8638 174.02 81.2419 174.676 80.6197 175.332L80.6179 175.334C78.102 177.986 75.581 180.644 72.9938 183.235C72.7307 183.498 72.0294 183.581 71.4932 183.478C74.4306 185.029 77.4594 186.402 80.5631 187.586L80.0217 187.278C80.241 186.838 80.4463 186.385 80.6523 185.931C81.1103 184.922 81.5718 183.905 82.1977 182.998C84.0539 180.317 86.0493 177.718 88.1118 175.192C88.5036 174.702 89.4885 174.444 90.1743 174.495C93.694 174.726 97.2105 174.986 100.726 175.247H100.729L100.731 175.247L100.733 175.247C105.08 175.569 109.426 175.891 113.774 176.156C116.889 176.345 120.007 176.473 123.125 176.601L123.127 176.602L123.129 176.602H123.131L123.134 176.602C127.083 176.765 131.034 176.928 134.977 177.213C138.153 177.434 141.319 178.12 144.433 178.863C146.615 179.383 148.553 180.533 149.75 182.725L149.345 183.023L149.306 183.044H149.316ZM124.309 191.759C119.304 192.633 114.23 193.048 109.149 192.996C114.225 192.945 119.292 192.533 124.309 191.759ZM192.5 110.498V110.756V110.761C192.461 103.727 191.591 96.7229 189.906 89.8941C191.598 96.4783 192.5 103.382 192.5 110.498ZM173.319 57.6219C173.241 57.5284 173.162 57.4349 173.084 57.3418C173.164 57.4349 173.244 57.5284 173.324 57.6219H173.319ZM156.876 42.6073C163.043 47.0673 168.459 51.9755 173.084 57.3418C168.356 51.7358 162.906 46.7813 156.876 42.6073ZM58.747 175.14C62.3841 178.027 66.2581 180.602 70.3279 182.838C69.37 182.219 68.4048 181.607 67.4391 180.995C64.4809 179.12 61.5188 177.243 58.747 175.14ZM27.5002 110.658C27.5103 106.263 27.8498 101.875 28.516 97.5303C27.8309 101.871 27.4914 106.258 27.5002 110.653V110.658ZM53.4154 50.4653C49.4136 54.3023 45.7719 58.4981 42.5357 62.9998V62.9945C45.7343 58.4651 49.3792 54.2675 53.4154 50.4653ZM128.078 113.803L128.387 113.88H128.392C128.201 115.099 128.042 116.327 127.883 117.554C127.533 120.26 127.183 122.963 126.485 125.574C124.716 132.221 120.374 136.691 113.465 137.836C106.19 139.052 100.337 136.361 96.1402 130.199C92.8761 125.399 91.2571 120.001 90.5714 114.329C89.8597 108.368 89.7464 102.382 91.1489 96.4732C92.6235 90.2292 95.8978 85.3309 102.07 82.9487C109.587 80.0407 117.425 82.9694 122.117 90.2292C125.288 95.1275 126.923 100.562 127.531 106.316C127.712 107.99 127.815 109.673 127.919 111.356C127.969 112.172 128.019 112.988 128.078 113.803Z" fill="white"/>
</g>
<defs>
<clipPath id="clip0_4_3137">
<rect width="220" height="220" fill="white" transform="translate(0 0.5)"/>
</clipPath>
</defs>
</svg>
