<svg width="220" height="221" viewBox="0 0 220 221" fill="none" xmlns="http://www.w3.org/2000/svg">
<g clip-path="url(#clip0_4_3141)">
<path d="M110 220.5C170.751 220.5 220 171.251 220 110.5C220 49.7487 170.751 0.5 110 0.5C49.2487 0.5 0 49.7487 0 110.5C0 171.251 49.2487 220.5 110 220.5Z" fill="#2AB0FD"/>
<path d="M176.329 101.367C177.463 101.354 178.185 101.505 178.639 101.917C179.12 102.357 179.313 103.072 179.416 104.193C182.62 141.172 154.652 174.597 117.555 178.027C79.3032 181.568 46.0973 153.966 42.4673 115.605C38.9335 78.3508 66.9078 44.5546 104.245 41.1585C125.393 39.2335 143.653 45.8746 159.025 60.5178C159.183 60.669 159.149 61.3015 158.97 61.4803C155.518 64.997 152.035 68.4827 148.52 71.9367C148.321 72.1292 147.606 72.1017 147.386 71.9022C131.525 57.3692 113.149 53.0654 93.0532 60.387C72.7308 67.7911 61.1053 83.1218 58.8021 104.708C55.7085 133.919 77.7564 159.665 107.167 161.886C133.828 163.893 157.987 145.022 162.407 118.678C162.449 118.417 161.857 117.764 161.555 117.764C145.089 117.716 128.624 117.729 112.165 117.667C111.739 117.667 110.949 116.877 110.935 116.444C110.848 111.843 110.848 107.24 110.935 102.639C110.942 102.227 111.677 101.484 112.083 101.477C123.055 101.416 165.886 101.512 176.322 101.361L176.329 101.367Z" fill="white"/>
</g>
<defs>
<clipPath id="clip0_4_3141">
<rect width="220" height="220" fill="white" transform="translate(0 0.5)"/>
</clipPath>
</defs>
</svg>
