<svg width="220" height="221" viewBox="0 0 220 221" fill="none" xmlns="http://www.w3.org/2000/svg">
<g clip-path="url(#clip0_4_3144)">
<path d="M110 220.5C170.751 220.5 220 171.251 220 110.5C220 49.7487 170.751 0.5 110 0.5C49.2487 0.5 0 49.7487 0 110.5C0 171.251 49.2487 220.5 110 220.5Z" fill="#B3B3B3"/>
<path fill-rule="evenodd" clip-rule="evenodd" d="M46.3894 48.566C55.3984 39.143 71.854 38.7685 81.1684 47.9252C90.8937 57.4303 100.515 67.0258 110.034 76.7115C114.953 72.0381 119.718 67.2139 124.482 62.3897C129.534 57.2732 134.587 52.1567 139.825 47.2205C149.509 38.4777 165.945 39.5322 174.565 49.3297C183.381 58.5655 183.239 74.686 174.072 83.6554C167.292 90.5599 160.451 97.3876 153.607 104.218L153.604 104.22L153.598 104.226C150.938 106.881 148.278 109.535 145.621 112.195C149.925 116.633 154.31 120.991 158.697 125.352C164.202 130.823 169.709 136.297 175.063 141.933C183.696 151.4 182.869 167.516 173.52 176.219C164.309 185.515 147.809 185.538 138.618 176.219C133.121 170.836 127.693 165.365 122.267 159.896L122.265 159.894C118.253 155.85 114.243 151.808 110.206 147.802C105.677 152.16 101.243 156.612 96.8073 161.066C91.3144 166.581 85.8201 172.098 80.1434 177.436C70.336 186.14 53.7916 184.829 45.3445 174.854C36.8382 165.638 37.0403 149.932 45.9211 141.001C54.2598 132.446 62.7463 124.033 71.2576 115.69C73.0392 117.466 74.822 119.249 76.6049 121.032C78.3876 122.815 80.1705 124.597 81.952 126.374C78.3702 130.074 74.7085 133.706 71.0453 137.338C66.175 142.168 61.302 147.001 56.6107 152.001C51.0664 157.684 55.9502 168.265 63.7371 168.142C67.8976 168.507 70.923 165.508 73.686 162.77C74.0551 162.404 74.4195 162.043 74.7814 161.695C78.8863 157.513 83.0239 153.369 87.1612 149.225C91.2244 145.155 95.288 141.085 99.3195 136.98C91.6956 129.29 84.0189 121.645 76.3416 114C66.1531 103.853 55.9639 93.7063 45.8966 83.4534C36.6855 74.1734 36.9763 57.6192 46.3894 48.6103V48.566ZM56.6896 72.6703C62.6301 78.8666 68.7127 84.9129 74.7989 90.9629C78.3361 94.4792 81.8746 97.9967 85.3871 101.545C89.9869 96.8732 94.6293 92.2308 99.3146 87.6178C97.0685 85.3551 94.8249 83.0873 92.5807 80.8187C85.5816 73.7439 78.5772 66.6636 71.4794 59.7187C68.4927 56.4955 63.3821 55.2831 59.4839 57.6094C54.0628 60.2362 52.3576 68.2939 56.6797 72.6752L56.6896 72.6703ZM118.389 90.0059C128.393 79.9525 138.395 69.9003 148.514 59.9651H148.509C151.372 56.7419 156.217 55.298 160.194 57.3432C166.103 59.7827 167.961 68.4025 163.324 72.9068C158.184 78.396 152.828 83.6725 147.472 88.9483C143.249 93.1081 139.027 97.2676 134.912 101.531C131.284 98.0561 127.741 94.5225 124.198 90.9888C120.662 94.5702 117.112 98.1382 113.547 101.693C129.121 117.322 144.727 132.919 160.367 148.483C163.688 151.563 167.202 155.796 165.659 160.695C164.22 167.614 154.536 170.803 149.549 165.549C142.363 158.781 135.442 151.749 128.522 144.718C125.974 142.129 123.427 139.541 120.866 136.965C124.409 133.451 127.913 129.937 131.393 126.384C129.001 124.028 126.629 121.653 124.257 119.278C123.071 118.091 121.886 116.903 120.699 115.719L120.695 115.723C117.172 119.255 113.65 122.788 110.108 126.281C105.495 121.569 100.778 116.961 96.0371 112.373C103.521 104.948 110.955 97.4766 118.389 90.0059Z" fill="url(#paint0_linear_4_3144)"/>
</g>
<defs>
<linearGradient id="paint0_linear_4_3144" x1="181.066" y1="183.227" x2="181.066" y2="41.2721" gradientUnits="userSpaceOnUse">
<stop stop-color="#2F75BB"/>
<stop offset="1" stop-color="#0A4185"/>
</linearGradient>
<clipPath id="clip0_4_3144">
<rect width="220" height="220" fill="white" transform="translate(0 0.5)"/>
</clipPath>
</defs>
</svg>
