<svg width="220" height="221" viewBox="0 0 220 221" fill="none" xmlns="http://www.w3.org/2000/svg">
<g clip-path="url(#clip0_4_3147)">
<path d="M110 220.5C170.751 220.5 220 171.251 220 110.5C220 49.7487 170.751 0.5 110 0.5C49.2487 0.5 0 49.7487 0 110.5C0 171.251 49.2487 220.5 110 220.5Z" fill="#EDF0F4"/>
<path fill-rule="evenodd" clip-rule="evenodd" d="M76.0859 149.1V158.496H73.0769V155.134H68.9418V158.496H66V149.116H68.9418V152.31H73.0769V149.1H76.0859ZM107.604 149.1V151.772H99.7539V155.823H107.554V158.496H96.8121V149.116H107.554L107.604 149.1ZM146.384 149.1L150.486 153.151V149.1H153.41V158.496H150.452L146.334 154.327V158.496H143.325V149.1H146.384ZM122.649 149.1V152.31L119.791 155.134H122.649V158.496H119.522V155.134H114.933V158.496H111.857V149.116H114.933V152.31H119.522V149.1H122.649ZM91.2146 149.1H91.7187V158.496H88.8611V156.462H84.6923V158.496H81.7674V149.116H91.2146V149.1ZM137.576 149.1V151.772H130.549V152.478H137.626V155.134H130.549V155.84H137.626V158.496H127.54V149.116H137.626L137.576 149.1ZM88.8611 151.772H84.6923V153.689H88.8611V151.772ZM71.043 61V99.8472H76.0859V61H81.1287V99.8472H148.367V94.216H86.7768V61H91.8198V89.089H148.367V84.0461H96.0894V61H101.132V78.9359H117.555V61H122.598V78.9359H127.641V61H132.684V78.9359H138.416V61H143.459V78.9359H148.502V61H153.545V143.367H148.367V105.058H142.669V143.367H137.626V105.058H71.043V110.101H132.634V143.367H127.591V115.245H71.043V120.288H123.321V143.367H118.278V125.398H101.822V143.367H96.7786V125.398H91.7356V143.367H86.6927V125.398H81.1287V143.367H76.0859V125.398H71.043V143.367H66V61H71.043Z" fill="#4ADDA5"/>
</g>
<defs>
<clipPath id="clip0_4_3147">
<rect width="220" height="220" fill="white" transform="translate(0 0.5)"/>
</clipPath>
</defs>
</svg>
