<svg width="220" height="221" viewBox="0 0 220 221" fill="none" xmlns="http://www.w3.org/2000/svg">
<g clip-path="url(#clip0_4_3150)">
<path fill-rule="evenodd" clip-rule="evenodd" d="M110 220.5C49.5 220.5 0 171.001 0 109.952C0.55 49.4535 49.5 -0.0454497 110.55 0.504539C171.05 1.05453 220 50.0035 220 111.602C219.45 171.551 170.5 220.5 110 220.5Z" fill="#EDF0F4"/>
<path fill-rule="evenodd" clip-rule="evenodd" d="M94.0064 39C93.8348 39 93.2925 39 92.8736 39.7551C92.3313 40.7164 50.4595 115.844 42.3789 130.364H60.881L72.1128 109.315C72.566 108.478 73.4377 107.942 74.3922 107.935L74.4092 107.932C74.4358 107.926 74.4585 107.921 74.4813 107.921H142.311L142.121 107.589C141.19 105.968 140.033 103.95 138.659 101.537L138.472 101.209C136.599 97.9263 134.453 94.1643 133.283 92.1381L87.704 92.1998H87.6903H86.5231H86.5164H86.5094C86.3035 92.1998 86.1044 92.1723 85.9121 92.1243C85.8848 92.1173 85.8589 92.1089 85.8333 92.1003C85.8074 92.0917 85.7817 92.0831 85.7542 92.0763C85.6101 92.035 85.4659 91.9732 85.3285 91.9045C85.3124 91.8948 85.2961 91.8896 85.2805 91.8847C85.2633 91.8794 85.247 91.8742 85.2325 91.8634L85.1502 91.8016C85.0746 91.7536 84.9991 91.6986 84.9236 91.6436L84.9074 91.631L84.8651 91.5983C84.8189 91.5629 84.7751 91.5296 84.7314 91.4858C84.6696 91.424 84.6146 91.3622 84.5598 91.3006C84.498 91.2388 84.443 91.1701 84.395 91.1013C84.3503 91.0454 84.3145 90.9849 84.2806 90.9273L84.2577 90.8885C84.2164 90.8199 84.1752 90.7511 84.1409 90.6688C84.1066 90.5865 84.0791 90.511 84.0516 90.4285C84.0241 90.3462 83.9968 90.2637 83.9761 90.1813C83.9556 90.099 83.9418 90.0235 83.935 89.941C83.9213 89.8449 83.9075 89.7489 83.9075 89.6528L83.9046 89.6381C83.8989 89.6103 83.8938 89.5859 83.8938 89.5566C83.8938 89.5316 83.8974 89.5085 83.9011 89.4863C83.9044 89.4658 83.9075 89.446 83.9075 89.4262C83.9075 89.3232 83.9213 89.2271 83.935 89.131C83.944 89.076 83.9563 89.0273 83.9695 88.9745C83.9761 88.9481 83.9831 88.9204 83.9898 88.8907C84.0104 88.8014 84.0379 88.7191 84.0654 88.6368C84.0997 88.5477 84.1341 88.465 84.1752 88.3827C84.1831 88.3645 84.1899 88.3475 84.1963 88.331C84.2071 88.3036 84.2174 88.2778 84.2302 88.2521L111.74 39H94.0064ZM151.792 69.9491L160.704 85.7806H179.48C178.61 84.3517 177.33 82.2425 175.997 80.0458L175.977 80.014L175.972 80.0058L175.934 79.9433L175.885 79.8623C175.14 78.635 174.382 77.3858 173.672 76.2172C172.167 73.7459 170.891 71.6397 170.437 70.8895L170.433 70.882L170.308 70.6769C170.061 70.2649 169.519 69.956 169.059 69.956L151.792 69.9491ZM127.626 182.411C127.805 182.411 128.347 182.411 128.766 181.662L179.268 91.0533H160.731L149.506 111.807C149.225 112.315 148.785 112.714 148.257 112.94C148.227 112.951 148.196 112.964 148.165 112.977L148.124 112.994L148.085 113.009C147.982 113.05 147.865 113.084 147.756 113.112C147.604 113.146 147.453 113.167 147.302 113.174L147.291 113.174C147.283 113.175 147.275 113.176 147.267 113.177L147.252 113.18C147.234 113.183 147.214 113.187 147.193 113.187H147.172H147.151H79.0468L88.3493 129.287L135.103 129.225C135.549 129.225 135.988 129.342 136.38 129.561C137.65 130.268 138.11 131.882 137.396 133.152L109.962 182.404C111.12 182.404 112.631 182.405 114.284 182.407L114.309 182.407H114.322H114.34H114.362C116.353 182.409 118.545 182.411 120.569 182.411H127.626ZM105.403 179.788L104.72 178.666L104.694 178.622C104.238 177.873 103.726 177.03 103.185 176.143C100.35 171.461 96.7183 165.467 96.3064 164.808C96.169 164.588 96.1073 164.046 96.3956 163.524C96.7764 162.842 101.083 155.083 105.235 147.603L105.24 147.594L105.261 147.556C108.284 142.11 111.221 136.819 112.495 134.525L130.626 134.504L105.403 179.788ZM65.4739 132.96L74.4882 148.97C76.4174 145.351 80.8387 137.037 83.6672 131.703L74.5568 115.933L65.4739 132.96ZM62.3914 151.462H52.5738C52.1276 151.462 51.5853 151.146 51.3382 150.741L48.4067 145.908C47.1087 143.771 45.589 141.268 44.2698 139.095L44.2628 139.084L42.166 135.63H60.9359L69.8471 151.462H62.3914ZM116.271 41.6844L117.919 44.3962C120.809 49.1677 124.894 55.9026 125.326 56.6027C125.464 56.8226 125.525 57.3649 125.237 57.8866L109.145 86.8722L91.0199 86.8929L116.271 41.6844ZM156.159 88.4444L147.145 72.4275C146.147 74.2462 144.513 77.2369 142.847 80.2856C140.892 83.8653 138.892 87.525 137.828 89.4605C138.865 91.2592 140.705 94.479 143.231 98.9003C143.514 99.3968 143.802 99.9006 144.089 100.405C145.098 102.175 146.111 103.951 146.966 105.436L156.159 88.4444Z" fill="black"/>
</g>
<defs>
<clipPath id="clip0_4_3150">
<rect width="220" height="220" fill="white" transform="translate(0 0.5)"/>
</clipPath>
</defs>
</svg>
