<svg width="220" height="221" viewBox="0 0 220 221" fill="none" xmlns="http://www.w3.org/2000/svg">
<g clip-path="url(#clip0_4_3153)">
<path d="M110 220.5C170.751 220.5 220 171.251 220 110.5C220 49.7487 170.751 0.5 110 0.5C49.2487 0.5 0 49.7487 0 110.5C0 171.251 49.2487 220.5 110 220.5Z" fill="#E7EFF3"/>
<path fill-rule="evenodd" clip-rule="evenodd" d="M141.271 55.5C128.189 55.4899 117.569 66.0741 117.535 79.1561V105.385C115.091 105.55 112.591 105.654 110 105.654C107.409 105.654 104.922 105.758 102.465 105.904V79.1561C102.257 66.1975 91.6929 55.8014 78.7325 55.8014C65.7721 55.8014 55.2079 66.1975 55 79.1561V141.844C55.2079 154.803 65.7721 165.199 78.7325 165.199C91.6929 165.199 102.257 154.803 102.465 141.844V115.615C104.909 115.45 107.409 115.346 110 115.346C112.591 115.346 115.078 115.242 117.535 115.096V141.844C117.743 154.803 128.307 165.199 141.268 165.199C154.228 165.199 164.792 154.803 165 141.844V79.1561C164.966 66.0765 154.35 55.4932 141.271 55.5ZM78.7294 65.1923C86.4497 65.1888 92.7159 71.4357 92.7361 79.1561V106.931C85.7925 107.937 79.0119 109.854 72.5694 112.633C69.7781 113.858 67.1504 115.426 64.7473 117.302V79.1561C64.7675 71.4452 71.0186 65.2024 78.7294 65.1923ZM78.7294 155.851C86.4651 155.851 92.7361 149.58 92.7361 141.844V116.715C87.1495 117.626 81.6963 119.221 76.499 121.463C69.1227 124.739 64.7227 130.001 64.7227 135.556V141.844C64.7227 149.58 70.9938 155.851 78.7294 155.851ZM141.271 155.808C133.55 155.811 127.284 149.564 127.264 141.844V114.069C134.208 113.063 140.988 111.146 147.431 108.367C150.222 107.142 152.85 105.574 155.253 103.698V141.844C155.233 149.555 148.981 155.798 141.271 155.808ZM127.264 104.248C132.85 103.337 138.304 101.742 143.501 99.5C150.877 96.2367 155.277 90.975 155.277 85.4444V79.1561C155.277 71.4205 149.006 65.1494 141.271 65.1494C133.535 65.1494 127.264 71.4205 127.264 79.1561V104.248Z" fill="url(#paint0_linear_4_3153)"/>
</g>
<defs>
<linearGradient id="paint0_linear_4_3153" x1="109.818" y1="204.744" x2="205.255" y2="109.043" gradientUnits="userSpaceOnUse">
<stop stop-color="#00AEE9"/>
<stop offset="1" stop-color="#69FABD"/>
</linearGradient>
<clipPath id="clip0_4_3153">
<rect width="220" height="220" fill="white" transform="translate(0 0.5)"/>
</clipPath>
</defs>
</svg>
