<svg width="220" height="221" viewBox="0 0 220 221" fill="none" xmlns="http://www.w3.org/2000/svg">
<g clip-path="url(#clip0_4_3156)">
<path d="M110 220.5C170.751 220.5 220 171.251 220 110.5C220 49.7487 170.751 0.5 110 0.5C49.2487 0.5 0 49.7487 0 110.5C0 171.251 49.2487 220.5 110 220.5Z" fill="#EDF0F4"/>
<path opacity="0.98" d="M110 193C155.563 193 192.5 156.063 192.5 110.5C192.5 64.9365 155.563 28 110 28C64.4365 28 27.5 64.9365 27.5 110.5C27.5 156.063 64.4365 193 110 193Z" fill="black"/>
<path fill-rule="evenodd" clip-rule="evenodd" d="M105.491 43.6889C99.3051 44.0943 92.6486 45.5197 86.8291 47.6775C75.2034 51.993 64.8984 59.5126 57.2741 69.2683C42.0521 88.7145 38.7827 114.882 48.7346 137.506C53.1025 147.458 60.1381 156.482 68.7693 163.23C88.2153 178.452 114.383 181.721 137.007 171.769C146.933 167.414 155.904 160.431 162.665 151.826C177.927 132.38 181.235 106.16 171.27 83.4967C166.902 73.5446 159.867 64.5213 151.236 57.7733C138.236 47.5991 122.02 42.6034 105.491 43.6889ZM99.0173 81.6527L99.0827 101.504L99.7367 100.484C102.849 95.5671 107.531 92.1538 113.076 90.7546C115.286 90.1922 117.012 89.97 119.68 89.8783C127.827 89.6299 134.248 92.0231 139.544 97.3064C143.651 101.413 146.005 106.604 146.972 113.692C147.168 115.105 147.195 117.707 147.234 137.206L147.286 159.15H140.277H133.28V139.494C133.28 127.031 133.228 119.277 133.136 118.283C132.796 114.268 131.593 110.724 129.749 108.265C128.925 107.154 127.16 105.48 126.088 104.774C124.218 103.544 122.269 102.812 119.745 102.367C118.385 102.145 117.823 102.106 115.56 102.171C113.612 102.223 112.644 102.302 111.768 102.511C108.42 103.257 105.961 104.604 103.764 106.879C101.986 108.723 100.94 110.488 100.142 112.986C99.3049 115.576 99.0173 117.642 99.0173 121.12V123.448H104.379H109.741V129.398V135.349H91.4324H73.124V129.398V123.448H79.0088H84.8936V92.5854V61.7227L91.9294 61.7489L98.952 61.7882L99.0173 81.6527ZM109.741 159.15V153.199V147.249H91.4324H73.124V153.199V159.15H91.4324H109.741Z" fill="white"/>
</g>
<defs>
<clipPath id="clip0_4_3156">
<rect width="220" height="220" fill="white" transform="translate(0 0.5)"/>
</clipPath>
</defs>
</svg>
