<svg width="220" height="221" viewBox="0 0 220 221" fill="none" xmlns="http://www.w3.org/2000/svg">
<g clip-path="url(#clip0_4_3160)">
<path d="M110 220.5C170.751 220.5 220 171.251 220 110.5C220 49.7487 170.751 0.5 110 0.5C49.2487 0.5 0 49.7487 0 110.5C0 171.251 49.2487 220.5 110 220.5Z" fill="#EDF0F4"/>
<path fill-rule="evenodd" clip-rule="evenodd" d="M119.166 55.5L119.204 85.5973L64.166 117.375V165.5H100.833V135.746L100.718 135.67L155.833 103.892V55.5H119.166ZM128.333 90.8681V64.6667H146.666V98.6215L91.666 130.399V156.333H73.3327V122.608L128.333 90.8681ZM64.166 106.757V55.5H100.833V85.5973L91.666 90.8681V64.6667H73.3327V101.448L64.166 106.757ZM128.333 130.361L119.166 135.746V165.5H155.833V114.358L146.666 119.667V156.333H128.333V130.361Z" fill="black"/>
</g>
<defs>
<clipPath id="clip0_4_3160">
<rect width="220" height="220" fill="white" transform="translate(0 0.5)"/>
</clipPath>
</defs>
</svg>
