<svg width="220" height="221" viewBox="0 0 220 221" fill="none" xmlns="http://www.w3.org/2000/svg">
<g clip-path="url(#clip0_4_3169)">
<path d="M110 220.5C170.751 220.5 220 171.251 220 110.5C220 49.7487 170.751 0.5 110 0.5C49.2487 0.5 0 49.7487 0 110.5C0 171.251 49.2487 220.5 110 220.5Z" fill="white"/>
<path fill-rule="evenodd" clip-rule="evenodd" d="M110 0.5C170.756 0.5 220 49.7435 220 110.5C220 171.256 170.756 220.5 110 220.5C49.2435 220.5 0 171.256 0 110.5C0 49.7435 49.2435 0.5 110 0.5ZM162.549 57.7227C156.166 51.3394 145.679 51.3394 139.295 57.7227C135.534 61.4844 133.824 66.8419 134.622 71.9716C134.85 73.6814 134.736 75.5051 133.938 77.1011C132.912 79.1529 131.202 80.6346 129.15 81.4327C127.098 82.2306 124.705 82.2305 122.653 81.2046C110.798 75.7332 96.5492 78.2409 87.2021 87.5881C77.8549 96.8213 75.3471 111.07 80.8187 123.039C81.8446 125.205 81.8446 127.598 81.0467 129.65C80.3627 131.588 78.8808 133.298 76.7151 134.324C75.5751 134.894 74.4352 135.122 73.1813 135.122C72.6114 135.122 72.0414 135.008 71.4716 134.894H71.2435C66.114 134.21 61.0984 135.806 57.3368 139.567C54.2591 142.645 52.5492 146.863 52.5492 151.194C52.5492 155.64 54.2591 159.744 57.3368 162.821C63.7202 169.205 74.2073 169.205 80.5906 162.821C84.2384 159.06 86.0622 153.702 85.1503 148.459V147.661C85.0362 146.179 85.3781 144.811 85.9481 143.443C86.86 141.391 88.57 139.909 90.6219 139.111C92.6735 138.314 94.9533 138.314 97.1192 139.339C108.974 144.811 123.223 142.303 132.57 132.956C141.917 123.723 144.425 109.36 138.953 97.5052C138.041 95.4533 137.928 93.1735 138.725 91.1219C139.523 89.07 141.005 87.36 143.171 86.3343C144.767 85.6503 146.363 85.4222 147.845 85.6503H148.642C153.772 86.3343 158.788 84.7384 162.549 80.9767C168.933 74.5933 168.933 64.1062 162.549 57.7227ZM122.995 97.6192C130.062 104.801 130.062 116.314 122.995 123.381C115.928 130.448 104.415 130.448 97.2332 123.381C90.1657 116.199 90.1657 104.686 97.2332 97.6192C104.415 90.5519 115.928 90.5519 122.995 97.6192ZM168.591 51.9094C178.28 61.7124 178.28 77.443 168.591 87.1321C164.943 90.6657 160.497 92.9457 155.938 94.0854C162.435 111.64 158.218 131.702 144.767 145.153C135.534 154.386 123.109 159.288 110.456 159.288C104.756 159.288 99.057 158.262 93.5854 156.21C92.6735 160.883 90.3938 165.443 86.7462 169.091C76.943 178.78 61.2124 178.78 51.5233 169.091C41.8343 159.288 41.8343 143.557 51.5233 133.868C55.1711 130.22 59.6165 127.941 64.2902 127.028C57.5648 109.36 61.7824 89.07 75.2332 75.6192C88.684 62.1684 108.86 57.9508 126.528 64.5622C127.554 60.0027 129.72 55.557 133.368 51.9094C143.171 42.2203 158.902 42.2203 168.591 51.9094Z" fill="#38A2FF"/>
</g>
<defs>
<clipPath id="clip0_4_3169">
<rect width="220" height="220" fill="white" transform="translate(0 0.5)"/>
</clipPath>
</defs>
</svg>
