<svg width="220" height="221" viewBox="0 0 220 221" fill="none" xmlns="http://www.w3.org/2000/svg">
<g clip-path="url(#clip0_4_3172)">
<path d="M110 220.5C170.751 220.5 220 171.251 220 110.5C220 49.7487 170.751 0.5 110 0.5C49.2487 0.5 0 49.7487 0 110.5C0 171.251 49.2487 220.5 110 220.5Z" fill="#EDF0F4"/>
<path fill-rule="evenodd" clip-rule="evenodd" d="M148.909 49.3359L182.605 107.724H182.618C183.571 109.61 183.571 111.838 182.618 113.724L148.909 172.112C147.751 173.882 145.822 174.996 143.71 175.115H128.299L150.694 136.328C151.327 135.081 151.327 133.607 150.694 132.359L125.257 88.3001C124.492 87.1284 123.214 86.3914 121.817 86.3157H70.9465C69.5491 86.3914 68.2714 87.1284 67.5062 88.3001L45.106 127.104L37.3809 113.724C36.4277 111.838 36.4277 109.61 37.3809 107.724L71.0895 49.3359C72.2474 47.5662 74.1772 46.4517 76.2886 46.3333H143.71C145.822 46.4517 147.751 47.5662 148.909 49.3359ZM142.744 132.892L120.777 94.8598C120.236 94.0445 119.344 93.5297 118.368 93.469H74.4342C73.4578 93.5297 72.5662 94.0445 72.0252 94.8598L50.0584 132.91C49.6208 133.785 49.6208 134.816 50.0584 135.691L56.4969 146.852L67.7618 127.355C68.3809 126.405 69.4154 125.806 70.5477 125.743H99.4904C100.623 125.806 101.657 126.405 102.276 127.355L116.752 152.424C117.263 153.436 117.263 154.631 116.752 155.644L105.487 175.141H118.355C119.333 175.08 120.225 174.564 120.764 173.746L142.731 135.7C143.181 134.819 143.186 133.777 142.744 132.892ZM71.1371 172.186L61.2065 154.985C60.8948 154.35 60.8948 153.606 61.2065 152.97L72.2333 133.876C72.6263 133.278 73.2783 132.901 73.9924 132.858H96.0415C96.7567 132.901 97.4099 133.278 97.805 133.876L108.832 152.97C109.148 153.612 109.148 154.365 108.832 155.007L97.805 174.101C97.4121 174.685 96.7739 175.059 96.0719 175.115H76.2497C74.1839 174.983 72.296 173.901 71.1371 172.186Z" fill="url(#paint0_linear_4_3172)"/>
</g>
<defs>
<linearGradient id="paint0_linear_4_3172" x1="145.646" y1="206.435" x2="204.984" y2="73.1868" gradientUnits="userSpaceOnUse">
<stop stop-color="#FFDC00"/>
<stop offset="0.33" stop-color="#E58E2F"/>
<stop offset="0.67" stop-color="#DB2D72"/>
<stop offset="1" stop-color="#FF00FF"/>
</linearGradient>
<clipPath id="clip0_4_3172">
<rect width="220" height="220" fill="white" transform="translate(0 0.5)"/>
</clipPath>
</defs>
</svg>
