<svg width="220" height="221" viewBox="0 0 220 221" fill="none" xmlns="http://www.w3.org/2000/svg">
<g clip-path="url(#clip0_4_3175)">
<path d="M110 220.5C170.751 220.5 220 171.251 220 110.5C220 49.7487 170.751 0.5 110 0.5C49.2487 0.5 0 49.7487 0 110.5C0 171.251 49.2487 220.5 110 220.5Z" fill="#7833F6"/>
<path fill-rule="evenodd" clip-rule="evenodd" d="M70.5834 110.971C72.348 112.73 74.7383 113.719 77.2304 113.719C79.7222 113.719 82.1125 112.73 83.8771 110.971L110.472 84.3764C112.231 82.6118 113.219 80.2215 113.219 77.7296C113.219 75.2376 112.231 72.8473 110.472 71.0827C108.707 69.322 106.316 68.3333 103.823 68.3333C101.33 68.3333 98.9391 69.322 97.1743 71.0827L70.5834 97.6736C68.8227 99.4383 67.834 101.829 67.834 104.322C67.834 106.815 68.8227 109.206 70.5834 110.971ZM107.703 134.794L134.294 108.203C136.059 106.442 138.45 105.453 140.943 105.453C143.436 105.453 145.827 106.442 147.591 108.203C149.352 109.967 150.341 112.358 150.341 114.851C150.341 117.344 149.352 119.735 147.591 121.5L121.001 148.091C119.236 149.851 116.845 150.84 114.352 150.84C111.859 150.84 109.468 149.851 107.703 148.091C105.943 146.326 104.954 143.935 104.954 141.442C104.954 138.949 105.943 136.558 107.703 134.794ZM105.758 122.304C103.265 122.304 100.874 121.315 99.1094 119.554C97.3486 117.79 96.3599 115.399 96.3599 112.906C96.3599 110.413 97.3486 108.022 99.1094 106.257L105.758 99.6086C107.523 97.8479 109.914 96.8592 112.407 96.8592C114.899 96.8592 117.29 97.8479 119.055 99.6086C120.816 101.373 121.805 103.764 121.805 106.257C121.805 108.75 120.816 111.141 119.055 112.906L112.407 119.554C110.642 121.315 108.251 122.304 105.758 122.304Z" fill="white"/>
</g>
<defs>
<clipPath id="clip0_4_3175">
<rect width="220" height="220" fill="white" transform="translate(0 0.5)"/>
</clipPath>
</defs>
</svg>
