<svg width="220" height="221" viewBox="0 0 220 221" fill="none" xmlns="http://www.w3.org/2000/svg">
<g clip-path="url(#clip0_4_3178)">
<path d="M110 220.5C170.751 220.5 220 171.251 220 110.5C220 49.7487 170.751 0.5 110 0.5C49.2487 0.5 0 49.7487 0 110.5C0 171.251 49.2487 220.5 110 220.5Z" fill="#1591CA"/>
<path fill-rule="evenodd" clip-rule="evenodd" d="M113.082 106.402C113.082 106.402 122.214 86.0856 104.308 66.4581C104.308 66.4581 94.1239 53.373 73.0666 54.4061L77.2712 52.7532C77.9732 52.4778 78.7095 52.285 79.4527 52.1885L83.5953 51.6514L112.731 47.1749C112.731 47.1749 123.033 45.1502 130.843 47.3815C133.066 48.0219 135.089 49.2271 136.692 50.8661C141 55.2324 149.65 66.7817 143.987 85.0525C143.987 85.0525 138.365 105.369 117.301 110.189C117.301 110.189 112.029 111.567 113.082 106.402ZM111.782 117.724C111.782 117.724 124.946 135.788 151.295 130.699C151.295 130.699 167.962 128.777 177.795 110.472L177.094 114.873C176.976 115.603 176.77 116.319 176.474 117.001L174.836 120.768L163.909 147.627C163.909 147.627 160.434 157.344 154.495 162.798C152.79 164.352 150.714 165.441 148.467 165.959C142.445 167.357 127.905 168.769 114.761 154.679C114.761 154.679 99.808 139.583 106.318 119.349C106.318 119.335 107.791 114.205 111.782 117.724ZM71.3187 138.577C79.7486 113.571 102.251 111.202 102.251 111.202H102.258C107.35 109.528 103.51 105.741 103.496 105.741C88.7358 90.2245 67.9744 95.5756 67.9744 95.5756C49.0023 99.8592 43.1048 112.965 41.3914 118.798C40.7444 120.988 40.6894 123.316 41.24 125.533C43.1461 133.268 50.0757 141.029 50.0757 141.029L68.5456 163.57L71.0918 166.82C71.5514 167.41 72.0831 167.94 72.6745 168.397L76.2321 171.152C64.8227 153.756 71.3187 138.577 71.3187 138.577Z" fill="white"/>
<path opacity="0.5" fill-rule="evenodd" clip-rule="evenodd" d="M116.759 112.511C116.759 112.511 139.193 109.591 146.969 84.3778C146.969 84.3778 153.073 69.0409 141.209 51.9338L144.843 54.5991C145.441 55.0467 145.992 55.5633 146.467 56.1349L149.088 59.3165L168.15 81.3959C168.15 81.3959 175.265 88.9714 177.385 96.6708C177.984 98.8747 177.984 101.189 177.385 103.392C175.823 109.267 170.269 122.524 151.407 127.276C151.407 127.276 130.791 133.13 115.638 118.006C115.638 118.006 115.632 117.999 115.619 117.986C115.33 117.692 111.932 114.237 116.759 112.511ZM105.488 116.67C105.488 116.67 95.8466 136.752 113.243 156.814C113.243 156.814 123.077 170.14 144.175 169.623L139.922 171.173C139.214 171.429 138.477 171.598 137.727 171.676L133.578 172.116L104.331 175.877C104.331 175.877 93.9887 177.646 86.2333 175.222C84.0339 174.527 82.0502 173.278 80.4735 171.593C76.2757 167.116 67.9286 155.368 74.06 137.248C74.06 137.248 80.1844 117.07 101.372 112.772C101.372 112.772 101.392 112.77 101.429 112.764C101.995 112.663 106.619 111.845 105.488 116.67ZM66.5385 93.6889C92.8051 88.2069 106.238 106.085 106.238 106.085C110.165 109.453 111.601 104.664 111.678 104.408C111.68 104.401 111.681 104.398 111.681 104.398C117.895 84.0747 102.721 69.1923 102.721 69.1923C89.385 55.2877 74.8652 56.8925 68.8645 58.3868C66.6199 58.9289 64.5531 60.0414 62.8638 61.6168C57.0078 67.1538 53.6702 76.9194 53.6702 76.9194L43.1416 103.943L41.5588 107.731C41.2741 108.416 41.0752 109.133 40.967 109.866L40.334 114.281C49.8992 95.8376 66.5385 93.6889 66.5385 93.6889Z" fill="white"/>
</g>
<defs>
<clipPath id="clip0_4_3178">
<rect width="220" height="220" fill="white" transform="translate(0 0.5)"/>
</clipPath>
</defs>
</svg>
