<svg width="220" height="221" viewBox="0 0 220 221" fill="none" xmlns="http://www.w3.org/2000/svg">
<g clip-path="url(#clip0_4_3182)">
<path d="M110 220.5C170.751 220.5 220 171.251 220 110.5C220 49.7487 170.751 0.5 110 0.5C49.2487 0.5 0 49.7487 0 110.5C0 171.251 49.2487 220.5 110 220.5Z" fill="#EDF0F4"/>
<path fill-rule="evenodd" clip-rule="evenodd" d="M119.725 104.259C119.816 104.406 119.976 104.497 120.149 104.502H134.934C135.109 104.503 135.27 104.409 135.357 104.257C135.444 104.105 135.442 103.918 135.353 103.768L110.765 61.2443C110.673 61.0975 110.514 61.0062 110.341 61.0012H95.5556C95.3807 61.0009 95.219 61.0945 95.1323 61.2465C95.0456 61.3985 95.0472 61.5853 95.1365 61.7358L119.725 104.259ZM134.929 116.745C134.844 116.599 134.693 116.503 134.525 116.489H119.74C119.567 116.489 119.408 116.582 119.321 116.732L95.1365 158.557C95.0472 158.707 95.0456 158.894 95.1323 159.046C95.219 159.198 95.3807 159.292 95.5556 159.291H110.341C110.514 159.286 110.673 159.195 110.765 159.048L134.949 117.223C135.021 117.07 135.013 116.892 134.929 116.745Z" fill="#E31337"/>
<path fill-rule="evenodd" clip-rule="evenodd" d="M123.076 61.2323C122.981 61.3865 122.98 61.5804 123.073 61.7357L151.117 110.146L123.099 158.556C123.009 158.708 123.008 158.896 123.096 159.048C123.184 159.2 123.347 159.293 123.523 159.291H138.329C138.502 159.291 138.662 159.198 138.748 159.048L166.936 110.389C167.024 110.239 167.024 110.053 166.936 109.903L138.748 61.2442C138.662 61.0937 138.502 61.0007 138.329 61.0011H123.523C123.343 60.989 123.17 61.0779 123.076 61.2323ZM111.04 110.415C111.133 110.255 111.133 110.058 111.04 109.898L82.4068 61.2442C82.3103 61.1034 82.1507 61.0193 81.98 61.0193C81.8093 61.0193 81.6496 61.1034 81.5532 61.2442L53.2353 109.877C53.1429 110.037 53.1429 110.234 53.2353 110.394L81.8687 159.048C81.9651 159.189 82.1248 159.273 82.2955 159.273C82.4662 159.273 82.6259 159.189 82.7223 159.048L111.04 110.415Z" fill="#E31337"/>
</g>
<defs>
<clipPath id="clip0_4_3182">
<rect width="220" height="220" fill="white" transform="translate(0 0.5)"/>
</clipPath>
</defs>
</svg>
