<svg width="220" height="221" viewBox="0 0 220 221" fill="none" xmlns="http://www.w3.org/2000/svg">
<g clip-path="url(#clip0_4_3186)">
<path d="M110 220.5C170.751 220.5 220 171.251 220 110.5C220 49.7487 170.751 0.5 110 0.5C49.2487 0.5 0 49.7487 0 110.5C0 171.251 49.2487 220.5 110 220.5Z" fill="#EDF0F4"/>
<path fill-rule="evenodd" clip-rule="evenodd" d="M175.4 92.5C175.4 92.5 175.4 93.1 174.8 93.1C173.6 97.9001 159.8 124.3 155 129.1L154.4 129.7L149.6 134.5L176 147.1C161 164.5 137.6 175.9 110.6 175.9C83.6 175.9 60.2001 164.5 45.1999 147.1L44 145.9L69.2001 134.5L66.8001 132.1L63.8 129.7C60.2001 126.7 47.0001 100.9 45.1999 94.2999L44.6 93.7001C52.4 99.1 73.9999 104.5 99.8001 105.7H102.2H104.6H108.8H113H114.8H117.2C143 104.5 163.4 99.7 172.4 94.2999L173 93.7001L175.4 92.5ZM73.9999 110.5L75.8001 116.5C77 120.1 78.1999 123.7 79.4 126.7L80.5999 129.1L83.6 134.5C84.2 135.1 84.2001 135.7 84.7999 136.3L85.4 136.9L87.8 138.7C92 141.1 96.2 143.5 101.6 144.7L103.4 145.3L108.8 146.5H110H110.6H111.8L117.2 145.3C122.6 144.1 126.8 142.3 131 139.9L132.8 138.7L135.2 136.9C135.8 136.3 136.4 135.7 136.4 135.1L137 134.5L140 129.1C141.8 125.5 143 122.5 144.2 118.9L144.8 115.9L146 110.5C142.4 117.1 135.8 121.3 128 122.5H126.8H125.6C119.6 121.9 114.2 118.3 111.2 113.5L110.6 112.3H110L109.4 113.5C106.4 118.3 101 121.3 95 122.5H93.7999H92.6H91.3999C83.6 121.9 77 117.1 73.9999 110.5ZM110 44.5C114.8 44.5 121.4 48.0999 131 55.9L132.2 57.0999L136.4 60.7001L147.8 70.3L155.6 72.7C156.8 73.3 158 73.3 159.2 73.9001L161.6 74.4999H163.4L165.8 75.1L167 75.7L168.2 76.3001C173.6 78.1001 176 80.5001 176 83.5V84.1V84.7L175.4 85.2999L174.8 85.9C166.4 91.8999 144.8 97.3 118.4 98.4999H116H114.2H110H105.8H102.8C75.2 97.3 53 91.8999 44.6 85.9C44 85.2999 44 84.1 44 83.5C44 79.9 47.0001 77.5 53 75.1C51.7999 73.9001 51.7999 73.3 50.6 72.0999C52.4 70.3 55.4 68.5 57.8001 67.8999C62.6001 67.3001 65.6 68.5 68.6 69.1C66.2 67.8999 61.4 63.1001 60.2001 61.2999C57.8 56.5001 59.6 52.9 60.7999 51.1V50.4999L61.4 49.9001L62 49.3H62.6001C63.8 49.3 68.6 49.3 70.4 51.1C73.9999 56.5001 73.4001 62.5 75.2 65.4999C76.4 62.5 75.8001 59.5 78.1999 55.9C80.0001 51.7001 87.1999 46.9 92.6 48.0999C92.6 49.9001 93.7999 51.1 93.2001 53.5C100.4 47.5001 105.8 44.5 110 44.5Z" fill="#06803F"/>
</g>
<defs>
<clipPath id="clip0_4_3186">
<rect width="220" height="220" fill="white" transform="translate(0 0.5)"/>
</clipPath>
</defs>
</svg>
