<svg width="220" height="221" viewBox="0 0 220 221" fill="none" xmlns="http://www.w3.org/2000/svg">
<g clip-path="url(#clip0_4_3189)">
<path d="M110 220.5C170.751 220.5 220 171.251 220 110.5C220 49.7487 170.751 0.5 110 0.5C49.2487 0.5 0 49.7487 0 110.5C0 171.251 49.2487 220.5 110 220.5Z" fill="#EDF0F4"/>
<path d="M109.872 182.228C149.666 182.228 181.924 150.01 181.924 110.267C181.924 70.5244 149.666 38.3064 109.872 38.3064C70.0791 38.3064 37.8203 70.5244 37.8203 110.267C37.8203 150.01 70.0791 182.228 109.872 182.228Z" fill="white"/>
<path fill-rule="evenodd" clip-rule="evenodd" d="M104.288 28.3476C69.163 30.731 38.9893 55.67 30.1939 89.5879C24.314 112.262 28.1543 136.156 40.7861 155.493C47.4738 165.731 57.0757 175.008 67.4331 181.237C94.5441 197.543 128.854 196.848 155.333 179.457C184.961 159.998 198.748 124.06 189.809 89.5879C183.92 66.8839 168.055 47.4082 146.853 36.8589C139.415 33.1579 131.712 30.6395 123.61 29.2592C120.644 28.7541 110.534 27.8865 109.079 28.0123C108.775 28.0385 106.619 28.1894 104.288 28.3476ZM120.477 54.4501C129.6 56.3069 138.808 60.9074 145.085 66.7448C149.275 70.6406 149.139 70.1768 148.901 79.7475L148.699 87.9231L147.155 86.7411C145.918 85.7951 145.533 85.211 145.225 83.8155C144.168 79.0371 141.256 74.15 137.029 70.0591C133.244 66.3952 128.689 64.2509 120.689 62.367C112.72 60.4905 99.7548 59.3445 90.6519 59.7119L85.6764 59.9125L87.3975 59.0325C92.1857 56.5839 99.2539 54.4649 105.059 53.7371C108.97 53.2469 116.21 53.5814 120.477 54.4501ZM99.6833 67.0629C101.666 70.5552 105.685 77.6361 108.614 82.7985C111.543 87.961 114.364 92.9217 114.885 93.8224L115.831 95.4595L114.758 94.6388C112.191 92.6725 107.952 89.8871 105.438 88.5156L102.719 87.0315L95.764 73.994C91.9387 66.8232 88.809 60.9019 88.809 60.835C88.809 60.7679 90.4444 60.7131 92.4431 60.7131H96.0769L99.6833 67.0629ZM111.538 80.7272C117.905 91.6341 123.067 100.601 123.008 100.654C122.949 100.707 121.764 99.8999 120.375 98.8604L117.851 96.9698L107.574 79.1176C101.922 69.299 97.295 61.1309 97.2917 60.9672C97.2884 60.8029 97.8871 60.7201 98.6225 60.7831L99.9595 60.8972L111.538 80.7272ZM85.0314 73.0133C88.5282 79.1548 91.3889 84.283 91.3889 84.4093C91.3889 84.5354 90.5991 84.639 89.6335 84.639C88.1666 84.639 87.8183 84.5028 87.5143 83.8107C86.7551 82.0826 84.7082 81.5334 78.4811 81.3872C73.0581 81.2596 72.7399 81.2109 72.3756 80.4609C72.1646 80.0258 70.4526 76.8072 68.5714 73.3092C66.6088 69.6596 65.2426 66.7112 65.3658 66.3908C65.672 65.5938 69.6391 63.8338 73.5141 62.7767C78.9318 61.2981 77.7771 60.2715 85.0314 73.0133ZM122.947 70.0693C125.404 73.9324 130.674 82.2111 134.656 88.4659C141.424 99.0963 141.858 99.8821 141.302 100.495C140.702 101.157 138.233 102.475 138.02 102.246C137.957 102.179 133.478 95.1662 128.067 86.6634C122.656 78.1606 117 69.2794 115.497 66.9277C113.994 64.5754 112.765 62.4995 112.765 62.3143C112.765 62.1277 114.038 62.2157 115.621 62.5116L118.477 63.0457L122.947 70.0693ZM155.358 75.9789C162.208 83.0231 170.5 95.4295 173.758 103.509C176.412 110.09 176.334 116.972 173.506 125.865C170.713 134.645 165.87 141.461 160.741 143.828C155.625 146.19 149.757 144.068 148.488 139.397C147.821 136.944 148.29 129.47 149.569 122.184C151.734 109.84 151.832 108.46 151.832 90.1414C151.832 77.593 151.941 73.2284 152.258 73.2284C152.492 73.2284 153.887 74.4662 155.358 75.9789ZM82.3594 83.1452C83.6099 83.4034 83.3563 83.456 80.6914 83.4919C74.4595 83.5759 69.0708 84.5459 67.9483 85.7849C67.2457 86.56 67.1847 88.8458 67.8155 90.7543C68.0511 91.4669 68.1554 92.1379 68.0478 92.2459C67.7998 92.4932 66.8246 89.2438 66.5021 87.0951C66.286 85.6571 66.3588 85.3947 67.1216 84.859C69.4028 83.2583 78.1449 82.2744 82.3594 83.1452ZM97.4701 88.4733C101.593 89.547 107.441 92.8161 113.7 97.5466C123.587 105.019 125.696 105.991 132.01 105.984C136.822 105.978 140.566 104.997 142.625 103.203C143.1 102.788 143.619 102.966 146.05 104.373L148.915 106.031L148.684 108.31C148.557 109.563 147.771 114.647 146.936 119.607C145.612 127.478 145.416 129.374 145.4 134.515C145.383 139.937 145.447 140.527 146.211 141.953C146.667 142.806 147.04 143.847 147.04 144.266C147.04 146.313 143.104 152.26 139.613 155.488C135.672 159.133 131.349 160.571 126.785 159.757C119.257 158.413 115.061 154.105 106.637 139.069C97.7221 123.158 92.457 116.865 84.8564 113.033C82.3955 111.792 77.818 110.405 76.1843 110.405C74.7989 110.405 74.3466 109.201 74.2932 105.37C74.2364 101.317 73.5848 102.483 73.5443 106.71L73.5141 109.853L70.5472 110.259C63.0357 111.288 58.533 115.601 56.879 123.351C56.434 125.435 56.3482 127.389 56.5015 131.938C56.7112 138.158 57.2788 141.549 59.3279 148.826C59.9481 151.03 60.4089 152.877 60.3511 152.93C60.2935 152.984 59.3483 152.692 58.2503 152.281C55.1921 151.136 51.8327 147.579 49.6402 143.165C46.6213 137.087 45.32 130.468 45.32 121.192C45.32 108.317 47.9891 98.9663 53.1694 93.6928C56.1407 90.6681 59.3404 89.0134 62.6844 88.7723L65.1225 88.5963L65.3585 89.8532C65.7708 92.0473 68.0614 96.3131 69.6591 97.8618C71.3964 99.5453 73.5031 100.284 75.5076 99.9131C79.1743 99.2347 83.2337 95.5285 85.8858 90.4375L87.4243 87.4834L91.3414 87.6908C93.4959 87.8045 96.2538 88.1568 97.4701 88.4733ZM92.303 90.172C92.16 90.4032 92.2163 90.7658 92.4282 90.9774C92.9236 91.472 94.0782 91.0403 93.8767 90.4357C93.6718 89.8206 92.6288 89.6457 92.303 90.172ZM61.3521 90.5284C61.0436 91.0267 61.4597 91.6326 62.1109 91.6326C62.4032 91.6326 62.642 91.3014 62.642 90.8964C62.642 90.1344 61.7527 89.8805 61.3521 90.5284ZM56.7451 92.8987C56.7451 93.1908 56.8775 93.5113 57.0392 93.611C57.5105 93.9021 58.3383 93.2271 58.0605 92.7781C57.695 92.1869 56.7451 92.2741 56.7451 92.8987ZM89.2428 93.7186C89.4219 94.6421 90.2832 94.7684 90.2832 93.8713C90.2832 93.4192 90.0452 93.105 89.7035 93.105C89.3599 93.105 89.172 93.3552 89.2428 93.7186ZM98.3915 95.3134C98.3915 95.8678 98.5838 96.0666 99.0365 95.9797C99.3912 95.9113 99.6814 95.6115 99.6814 95.3134C99.6814 95.0153 99.3912 94.7158 99.0365 94.6472C98.5838 94.5603 98.3915 94.7592 98.3915 95.3134ZM62.8263 95.3134C62.5178 95.8119 62.9339 96.4176 63.5851 96.4176C63.8773 96.4176 64.1162 96.0864 64.1162 95.6816C64.1162 94.9196 63.2269 94.6657 62.8263 95.3134ZM57.1774 96.6604C57.3325 97.4659 58.4036 97.5798 58.4036 96.7909C58.4036 96.4899 58.0985 96.1852 57.725 96.1133C57.2328 96.0187 57.0826 96.1685 57.1774 96.6604ZM60.1322 98.5342C60.2006 98.8886 60.5007 99.1785 60.7992 99.1785C61.0976 99.1785 61.3978 98.8886 61.4663 98.5342C61.5532 98.0821 61.3543 97.89 60.7992 97.89C60.2442 97.89 60.0451 98.0821 60.1322 98.5342ZM89.9147 99.0245C89.9147 99.9215 90.776 99.7952 90.9551 98.8717C91.0259 98.5084 90.838 98.2581 90.4944 98.2581C90.1529 98.2581 89.9147 98.5725 89.9147 99.0245ZM94.5338 98.9748C94.2095 99.4986 94.6229 100.099 95.3073 100.099C95.6301 100.099 95.8153 99.8394 95.7464 99.4846C95.603 98.7451 94.8669 98.4363 94.5338 98.9748ZM78.9813 113.931C82.5805 114.859 86.6767 117.199 89.8111 120.116C94.4623 124.445 97.3168 128.612 105.095 142.428C110.549 152.115 114.997 157.728 119.055 160.043C121.284 161.314 121.392 161.196 116.141 163.222C103.783 167.989 90.0814 167.034 76.4626 160.459C70.1589 157.414 65.4505 154.18 63.9234 151.844C60.8072 147.077 58.3399 131.115 59.673 124.348C60.5762 119.762 62.7783 116.27 65.7395 114.729C69.163 112.947 74.0265 112.654 78.9813 113.931Z" fill="black"/>
</g>
<defs>
<clipPath id="clip0_4_3189">
<rect width="220" height="220" fill="white" transform="translate(0 0.5)"/>
</clipPath>
</defs>
</svg>
