<svg width="220" height="221" viewBox="0 0 220 221" fill="none" xmlns="http://www.w3.org/2000/svg">
<g clip-path="url(#clip0_4_3193)">
<path d="M110 220.5C170.751 220.5 220 171.251 220 110.5C220 49.7487 170.751 0.5 110 0.5C49.2487 0.5 0 49.7487 0 110.5C0 171.251 49.2487 220.5 110 220.5Z" fill="#007F88"/>
<path d="M40.5041 57.4497C38.2832 57.6244 36.5738 57.9739 36.6699 58.2358C37.5557 60.3445 43.0332 72.7593 43.1082 72.8341C43.183 72.9091 44.4557 72.9964 45.953 73.0587C52.5909 73.3084 57.8438 74.606 63.5209 77.4134C67.601 79.4222 70.6205 81.5808 73.7646 84.7125C78.3938 89.3292 81.4133 94.4572 83.185 100.733C83.3847 101.457 83.5469 102.106 83.5469 102.206C83.5469 102.343 82.5362 102.368 78.0693 102.368C75.0498 102.368 72.4545 102.418 72.2925 102.48C72.0552 102.567 71.4315 103.915 68.8363 109.867C67.0895 113.872 65.642 117.241 65.6171 117.353C65.5297 117.677 66.5778 117.964 69.198 118.351C69.7346 118.438 72.9537 118.526 76.7592 118.576L83.3847 118.651L82.9854 120.023C78.5185 135.17 64.6563 145.764 47.6748 147.036C46.714 147.099 45.4539 147.161 44.8674 147.161H43.8069L40.5378 154.685C37.7305 161.111 37.2938 162.209 37.4809 162.271C38.3294 162.583 40.2258 162.695 44.6179 162.695C50.2327 162.695 52.9651 162.446 57.5943 161.497C76.4972 157.617 92.2059 145.589 99.318 129.518C100.691 126.424 102.3 121.333 102.587 119.2L102.674 118.588H116.861L116.911 118.863C117.934 123.879 119.044 127.26 120.966 131.253C126.743 143.281 137.573 153.1 150.986 158.49C159.131 161.752 167.856 163.319 176.627 163.094C180.295 162.982 183.215 162.57 183.065 162.184C182.94 161.859 176.727 147.598 176.689 147.56C176.652 147.523 175.367 147.473 173.807 147.411C169.428 147.236 166.134 146.724 162.415 145.664C156.688 144.017 151.024 141.035 146.682 137.391C141.217 132.787 137.261 127.06 135.165 120.709C134.928 119.986 134.691 119.225 134.654 119L134.566 118.601L139.907 118.563C142.839 118.538 145.334 118.476 145.434 118.426C145.596 118.339 151.985 103.853 151.985 103.566C151.985 103.378 150.375 102.904 148.915 102.667C147.842 102.493 146.482 102.443 141.054 102.405L134.479 102.343L134.728 101.457C138.372 88.5555 149.551 78.3118 163.963 74.6808C167.144 73.8822 170.239 73.4705 174.256 73.3084C176.652 73.2085 176.951 73.1711 177.101 72.9714C177.201 72.8341 178.673 69.5277 180.37 65.6223C182.454 60.8436 183.415 58.4854 183.327 58.423C183.053 58.2732 181.306 57.9614 179.934 57.8241C177.937 57.612 172.11 57.6494 169.54 57.8739C154.842 59.184 141.591 65.1108 131.659 74.793C125.595 80.7074 121.34 87.3451 118.72 95.0063C118.046 96.9403 117.235 99.9847 116.986 101.457L116.836 102.368H102.89L102.84 102.081C102.803 101.931 102.666 101.22 102.516 100.496C100.457 90.2649 94.6428 80.3205 86.4328 72.9964C77.0874 64.6492 65.4336 59.4213 52.607 57.8329C48.7515 57.3624 43.7819 57.2002 40.5041 57.4497Z" fill="white"/>
</g>
<defs>
<clipPath id="clip0_4_3193">
<rect width="220" height="220" fill="white" transform="translate(0 0.5)"/>
</clipPath>
</defs>
</svg>
