<svg width="220" height="221" viewBox="0 0 220 221" fill="none" xmlns="http://www.w3.org/2000/svg">
<g clip-path="url(#clip0_4_3196)">
<path d="M110 220.5C170.751 220.5 220 171.251 220 110.5C220 49.7487 170.751 0.5 110 0.5C49.2487 0.5 0 49.7487 0 110.5C0 171.251 49.2487 220.5 110 220.5Z" fill="#EDF0F4"/>
<path d="M146.494 110.393C139.166 108.844 114.383 104.585 88.0514 118.038C65.8072 129.411 54.8499 147.08 50.9777 154.122C29.0346 124.018 32.7922 82.2403 59.0378 57.1851C84.05 33.2916 123.433 30.3515 152.446 50.7169C146.236 54.7612 140.012 58.7914 133.802 62.8358C129.858 60.8279 123.433 58.1459 115.157 57.3141C98.693 55.6506 86.3303 62.4055 82.3862 64.7719C79.0303 66.7941 62.8957 77.0054 57.8617 97.8299C54.4627 111.899 57.8905 123.516 59.5827 128.278C61.5619 125.84 64.043 123.129 67.1122 120.418C69.3065 118.482 71.4579 116.847 73.437 115.485C72.9493 111.655 72.39 102.864 77.0798 93.7137C82.9601 82.2546 95.4517 73.3914 110.195 73.5204C126.387 73.6638 138.994 84.6211 143.899 96.4673C146.207 102.018 146.552 107.123 146.494 110.393Z" fill="#041742"/>
<path fill-rule="evenodd" clip-rule="evenodd" d="M145.919 174.473C131.548 182.605 117.536 183.967 108.702 183.824C87.5903 183.494 72.6461 174.157 66.9668 170.17C70.122 168.112 73.2771 166.058 76.4323 164.003C79.5876 161.949 82.7428 159.894 85.898 157.836C106.407 168.263 131.462 164.276 147.711 148.012C163.946 131.763 167.919 106.765 157.536 86.2704C159.551 83.1796 161.562 80.0855 163.574 76.9912C165.585 73.8968 167.596 70.8025 169.611 67.7119C173.355 72.9897 183.595 88.8662 183.265 111.44C182.892 136.84 169.368 153.734 165.424 158.338C161.623 162.798 155.298 169.166 145.919 174.473ZM104.7 118.181C93.743 121.365 85.3531 126.6 79.5876 131.103C81.4234 133.857 85.726 139.479 93.4275 143.365C100.283 146.822 106.565 147.238 109.835 147.238C112.932 147.252 123.144 146.893 132.653 139.421C143.151 131.175 145.546 119.945 146.062 117.12C141.415 116.144 135.033 115.169 127.418 115.184C122.957 115.198 114.711 115.269 104.7 118.181Z" fill="url(#paint0_linear_4_3196)"/>
</g>
<defs>
<linearGradient id="paint0_linear_4_3196" x1="137.252" y1="231.33" x2="233.463" y2="129.211" gradientUnits="userSpaceOnUse">
<stop stop-color="#0E9DE5"/>
<stop offset="0.1857" stop-color="#10A3DC"/>
<stop offset="0.4884" stop-color="#17B4C4"/>
<stop offset="0.8684" stop-color="#22D09C"/>
<stop offset="1" stop-color="#26DB8D"/>
</linearGradient>
<clipPath id="clip0_4_3196">
<rect width="220" height="220" fill="white" transform="translate(0 0.5)"/>
</clipPath>
</defs>
</svg>
