<svg width="220" height="221" viewBox="0 0 220 221" fill="none" xmlns="http://www.w3.org/2000/svg">
<g clip-path="url(#clip0_4_3200)">
<path d="M110 220.5C170.751 220.5 220 171.251 220 110.5C220 49.7487 170.751 0.5 110 0.5C49.2487 0.5 0 49.7487 0 110.5C0 171.251 49.2487 220.5 110 220.5Z" fill="#CFA967"/>
<path fill-rule="evenodd" clip-rule="evenodd" d="M58.9968 168.037L47.666 44.5H172.333L161.002 168.037L109.861 182L58.9968 168.037ZM110.138 116.309V171.261L151.326 160.248L161.002 54.4413H110.138V99.3488L101.016 127.584H106.474L110.138 116.303V99.3488L112.243 92.8382H117.756L110.138 116.309ZM94.7554 116.241V121.335L70.3346 111.49V107.42L94.7623 97.5682V102.669L77.6553 109.476L94.7554 116.241ZM149.699 111.49L125.271 121.335V116.241L142.378 109.455L125.271 102.669V97.5682L149.699 107.42V111.49Z" fill="white"/>
</g>
<defs>
<clipPath id="clip0_4_3200">
<rect width="220" height="220" fill="white" transform="translate(0 0.5)"/>
</clipPath>
</defs>
</svg>
