<svg width="220" height="221" viewBox="0 0 220 221" fill="none" xmlns="http://www.w3.org/2000/svg">
<g clip-path="url(#clip0_4_3203)">
<path d="M110 220.5C170.753 220.5 220 171.253 220 110.5C220 49.747 170.753 0.5 110 0.5C49.247 0.5 0 49.747 0 110.5C0 171.253 49.247 220.5 110 220.5Z" fill="#EDF0F4"/>
<mask id="mask0_4_3203" style="mask-type:luminance" maskUnits="userSpaceOnUse" x="69" y="61" width="24" height="24">
<path fill-rule="evenodd" clip-rule="evenodd" d="M69.3652 61H92.7226V84.3607H69.3652V61Z" fill="white"/>
</mask>
<g mask="url(#mask0_4_3203)">
<path d="M92.7226 72.68C92.7226 66.2307 87.4938 60.9988 81.0414 60.9988C74.5939 60.9988 69.3652 66.2307 69.3652 72.68C69.3652 79.1325 74.5939 84.3611 81.0414 84.3611C87.4938 84.3611 92.7226 79.1325 92.7226 72.68Z" fill="#FF9E1F"/>
</g>
<mask id="mask1_4_3203" style="mask-type:luminance" maskUnits="userSpaceOnUse" x="127" y="61" width="25" height="24">
<path fill-rule="evenodd" clip-rule="evenodd" d="M127.682 61H151.039V84.359H127.682V61Z" fill="white"/>
</mask>
<g mask="url(#mask1_4_3203)">
<path d="M127.682 72.6784C127.682 66.2307 132.909 60.9988 139.365 60.9988C145.812 60.9988 151.039 66.2307 151.039 72.6784C151.039 79.1292 145.812 84.3595 139.365 84.3595C132.909 84.3595 127.682 79.1292 127.682 72.6784Z" fill="#24C0FB"/>
</g>
<mask id="mask2_4_3203" style="mask-type:luminance" maskUnits="userSpaceOnUse" x="67" y="94" width="28" height="68">
<path fill-rule="evenodd" clip-rule="evenodd" d="M67.834 94.5615V161.614H94.3V96.3741V94.5615H67.834Z" fill="white"/>
</mask>
<g mask="url(#mask2_4_3203)">
<path d="M67.834 94.5615V161.614H94.3V96.3741V94.5615H67.834Z" fill="url(#paint0_linear_4_3203)"/>
</g>
<mask id="mask3_4_3203" style="mask-type:luminance" maskUnits="userSpaceOnUse" x="126" y="94" width="27" height="68">
<path fill-rule="evenodd" clip-rule="evenodd" d="M126.127 94.5615V161.614H152.595V96.3741V94.5615H126.127Z" fill="white"/>
</mask>
<g mask="url(#mask3_4_3203)">
<path d="M126.127 94.5615V161.614H152.595V96.3741V94.5615H126.127Z" fill="url(#paint1_linear_4_3203)"/>
</g>
<path d="M126.131 94.5789C124.246 101.286 117.506 106.207 110.194 106.207C102.882 106.207 96.1909 101.286 94.3027 94.5789V129.761C99.2157 131.736 104.576 132.831 110.194 132.831C132.248 132.831 150.381 116.063 152.551 94.5789H126.131Z" fill="#24C0FB"/>
<path d="M67.834 94.5789C69.446 110.587 79.9347 123.976 94.3002 129.761V94.5789H67.834Z" fill="#FF9E1F"/>
</g>
<defs>
<linearGradient id="paint0_linear_4_3203" x1="99.3444" y1="158.046" x2="99.3444" y2="65.4359" gradientUnits="userSpaceOnUse">
<stop stop-color="#FB5059"/>
<stop offset="1" stop-color="#FF9E1F"/>
</linearGradient>
<linearGradient id="paint1_linear_4_3203" x1="156.957" y1="157.956" x2="156.957" y2="68.7981" gradientUnits="userSpaceOnUse">
<stop stop-color="#9350D4"/>
<stop offset="1" stop-color="#23BFFB"/>
</linearGradient>
<clipPath id="clip0_4_3203">
<rect width="220" height="220" fill="white" transform="translate(0 0.5)"/>
</clipPath>
</defs>
</svg>
