<svg width="220" height="221" viewBox="0 0 220 221" fill="none" xmlns="http://www.w3.org/2000/svg">
<g clip-path="url(#clip0_4_3231)">
<path fill-rule="evenodd" clip-rule="evenodd" d="M110 0.5C170.742 0.5 220 49.758 220 110.5C220 171.242 170.742 220.5 110 220.5C49.258 220.5 0 171.242 0 110.5C0 49.758 49.258 0.5 110 0.5Z" fill="#203091"/>
<path d="M128.06 76.6723C128.06 51.4337 115.894 29.6898 106.575 22.5713C106.575 22.5713 105.928 22.183 105.928 23.2185C105.151 72.0128 80.4303 85.3439 66.7109 103.076C35.2599 144.234 64.5107 189.275 94.2791 197.558C110.975 202.218 90.3963 189.275 87.8078 162.095C84.7014 129.091 128.06 103.982 128.06 76.6723Z" fill="white"/>
<path d="M144.37 93.3683C144.241 93.2389 143.982 93.2389 143.723 93.3683C143.723 93.3683 143.723 93.3683 143.594 93.4978C143.076 99.5808 136.346 112.782 127.933 124.819C99.3294 165.718 115.637 185.392 124.827 196.005C130.133 202.218 124.827 196.005 138.158 189.663C139.193 189.144 164.043 175.943 166.761 146.045C169.479 116.924 150.971 98.6749 144.37 93.3683Z" fill="white"/>
</g>
<defs>
<clipPath id="clip0_4_3231">
<rect width="220" height="220" fill="white" transform="translate(0 0.5)"/>
</clipPath>
</defs>
</svg>
