<svg width="220" height="221" viewBox="0 0 220 221" fill="none" xmlns="http://www.w3.org/2000/svg">
<g clip-path="url(#clip0_4_3227)">
<path d="M110 220.5C170.751 220.5 220 171.251 220 110.5C220 49.7487 170.751 0.5 110 0.5C49.2487 0.5 0 49.7487 0 110.5C0 171.251 49.2487 220.5 110 220.5Z" fill="#EDF0F4"/>
<path fill-rule="evenodd" clip-rule="evenodd" d="M124.719 82.2911C124.719 61.2679 114.585 43.1557 106.822 37.2261C106.822 37.2261 106.283 36.9027 106.283 37.7651C105.636 78.4098 85.0446 89.5145 73.6167 104.285C47.4185 138.568 71.7839 176.086 96.5803 182.986C110.488 186.868 93.3459 176.086 91.1897 153.446C88.6023 125.954 124.719 105.039 124.719 82.2911Z" fill="#282E5B"/>
<path fill-rule="evenodd" clip-rule="evenodd" d="M138.3 96.1985C138.192 96.0907 137.977 96.0907 137.761 96.1985L137.653 96.3063C137.222 101.373 131.616 112.37 124.608 122.396C100.782 156.465 114.366 172.852 122.021 181.693C126.441 186.867 122.021 181.693 133.125 176.41C133.988 175.978 154.687 164.982 156.951 140.078C159.216 115.82 143.799 100.619 138.3 96.1985Z" fill="#059BDC"/>
</g>
<defs>
<clipPath id="clip0_4_3227">
<rect width="220" height="220" fill="white" transform="translate(0 0.5)"/>
</clipPath>
</defs>
</svg>
