<svg width="220" height="221" viewBox="0 0 220 221" fill="none" xmlns="http://www.w3.org/2000/svg">
<g clip-path="url(#clip0_4_3235)">
<path d="M110 220.5C170.751 220.5 220 171.251 220 110.5C220 49.7487 170.751 0.5 110 0.5C49.2487 0.5 0 49.7487 0 110.5C0 171.251 49.2487 220.5 110 220.5Z" fill="white"/>
<path fill-rule="evenodd" clip-rule="evenodd" d="M30.8867 102.085L64.7007 21.708L160.753 32.774L180.421 92.097L170.587 174.157C156.452 189.326 147.432 196.905 143.538 196.905C139.644 196.905 110.142 191.526 55.0207 180.768L30.8977 121.137L30.8867 102.085Z" fill="#F9F9F9"/>
<path fill-rule="evenodd" clip-rule="evenodd" d="M156.09 174.234H132.671V133.919C132.671 127.462 127.446 122.215 120.989 122.215H120.978H87.318C74.393 122.215 63.91 111.732 63.91 98.807V46.777H87.318V87.103C87.318 93.56 92.554 98.807 99.011 98.807H132.671C145.596 98.818 156.068 109.29 156.079 122.215L156.09 174.234ZM88.132 174.234H64.713V134.92C77.638 134.92 88.121 145.392 88.121 158.328L88.132 174.234ZM131.868 46.766H155.276V86.102C142.34 86.102 131.868 75.619 131.868 62.694V46.766ZM110 0.5C49.247 0.5 0 49.758 0 110.5C0 171.242 49.247 220.5 110 220.5C170.753 220.5 220 171.253 220 110.5C220 49.747 170.753 0.5 110 0.5Z" fill="#005FFA"/>
</g>
<defs>
<clipPath id="clip0_4_3235">
<rect width="220" height="220" fill="white" transform="translate(0 0.5)"/>
</clipPath>
</defs>
</svg>
