<svg width="220" height="221" viewBox="0 0 220 221" fill="none" xmlns="http://www.w3.org/2000/svg">
<g clip-path="url(#clip0_4_3239)">
<path d="M110 220.5C170.751 220.5 220 171.251 220 110.5C220 49.7487 170.751 0.5 110 0.5C49.2487 0.5 0 49.7487 0 110.5C0 171.251 49.2487 220.5 110 220.5Z" fill="#292929"/>
<path fill-rule="evenodd" clip-rule="evenodd" d="M103.214 65.7732C103.217 65.819 103.22 65.865 103.223 65.912C104.591 63.7945 106.439 62.6947 108.917 62.6947C111.422 62.6877 113.256 63.8289 114.584 66.1112L114.618 65.7813C114.614 63.6484 114.615 61.5147 114.617 59.3809C114.62 55.1122 114.623 50.8405 114.577 46.5738C114.585 44.8708 113.837 43.2531 112.536 42.1615C111.234 41.0698 109.516 40.6182 107.849 40.9297C105.18 41.404 103.209 43.8377 103.202 46.725V65.5063C103.202 65.5968 103.208 65.6846 103.214 65.7732ZM103.204 125.142C103.203 126.045 103.202 126.948 103.202 127.852V136.906L103.202 137.011C103.201 137.362 103.201 137.717 103.257 138.061C103.667 141.067 106.319 143.245 109.335 143.051C112.351 142.776 114.649 140.216 114.611 137.174C114.625 133.847 114.618 130.512 114.605 127.178C114.591 126.927 114.501 126.687 114.345 126.491C113.802 125.811 113.242 125.155 112.682 124.499C112.556 124.351 112.43 124.204 112.305 124.057L111.059 122.581C109.526 120.764 107.994 118.948 106.453 117.141C105.796 116.371 105.009 116.138 104.256 116.468C103.442 116.825 103.188 117.499 103.195 118.379C103.21 120.632 103.207 122.886 103.204 125.142ZM103.202 152.621C104.598 154.752 106.46 155.838 108.958 155.831C111.45 155.824 113.263 154.683 114.618 152.566V168.474C114.617 168.83 114.618 169.188 114.619 169.545C114.624 170.752 114.628 171.96 114.523 173.148C114.247 176.202 111.616 178.489 108.568 178.325C105.567 178.123 103.231 175.627 103.216 172.605C103.191 168.141 103.195 163.677 103.199 159.211C103.2 157.535 103.202 155.858 103.202 154.181V152.621ZM114.618 103.365V91.9459C114.618 88.1925 114.618 84.4389 114.605 80.6853C114.605 80.1973 114.57 79.7023 114.468 79.228C113.838 76.382 111.155 74.3607 108.452 74.6632C105.47 74.9279 103.19 77.4457 103.209 80.4516C103.188 85.3602 103.195 90.2753 103.209 95.1839C103.225 95.4363 103.321 95.6771 103.483 95.8714C104.21 96.7556 104.947 97.6195 105.685 98.485L106.035 98.896L110.991 104.726C111.577 105.469 112.582 105.733 113.455 105.372C114.276 105.042 114.618 104.451 114.618 103.365ZM126.466 68.7305V53.469C126.48 50.7054 128.047 48.4504 130.484 47.6806C134.179 46.505 137.875 49.3099 137.896 53.352C137.91 55.8915 137.905 58.4311 137.9 60.9686V60.9717V60.9746C137.898 62.24 137.896 63.5066 137.896 64.7707V83.9852C137.896 86.8244 136.199 89.1205 133.604 89.8285C130.23 90.7428 126.788 88.2475 126.507 84.6794C126.482 84.3295 126.471 83.9786 126.473 83.6277V68.7305H126.466ZM91.943 159.942V142.309H91.9362C91.9362 140.334 91.9386 138.358 91.9408 136.382C91.9454 132.429 91.95 128.475 91.9362 124.525C91.9434 122.753 91.1345 121.077 89.7452 119.986C88.3559 118.894 86.5422 118.509 84.8319 118.942C82.2858 119.602 80.5336 121.919 80.5336 124.662V157.337C80.5336 157.632 80.5318 157.927 80.53 158.222C80.5256 158.91 80.5214 159.598 80.5404 160.286C80.6363 163.716 83.9147 166.398 87.2 165.765C89.9878 165.254 91.996 162.788 91.943 159.942ZM91.943 77.3718V101.426C91.9962 104.176 90.1222 106.586 87.4532 107.201C85.7735 107.56 84.0221 107.142 82.6823 106.063C81.3425 104.984 80.5562 103.357 80.5404 101.632C80.5184 99.3962 80.5219 97.1632 80.5254 94.9292V94.9265C80.5272 93.6862 80.5292 92.4447 80.5269 91.2035V53.352C80.5269 50.5197 82.3611 48.1549 84.9962 47.5568C86.6931 47.1826 88.4674 47.6041 89.8176 48.7023C91.1679 49.8005 91.9476 51.4558 91.9362 53.2007C91.95 57.3208 91.9454 61.4375 91.9408 65.5554V65.5642C91.9386 67.6205 91.9362 69.6773 91.9362 71.7346L91.943 77.3718ZM126.466 107.524V133.647L126.473 133.633V159.427C126.47 159.794 126.481 160.161 126.507 160.527C126.794 164.108 130.299 166.597 133.68 165.621C136.26 164.878 137.896 162.596 137.896 159.722V107.146C137.759 102.932 133.598 100.175 129.888 101.9C127.575 102.987 126.466 104.918 126.466 107.524ZM161.331 107.07V147.905C161.4 150.712 159.471 153.172 156.738 153.762C153.371 154.498 150.017 151.796 149.921 148.269V66.3243C149.921 63.6777 151.242 61.5672 153.474 60.6322C157.238 59.0511 161.324 61.8972 161.324 66.1182V107.063L161.331 107.07ZM70.0756 147.905V107.008V107.001V79.4205C70.0756 78.0327 70.0781 76.6449 70.0807 75.2572C70.0866 72.1358 70.0923 69.0153 70.0686 65.8982C70.0589 64.1261 69.2339 62.4582 67.8338 61.3798C66.4337 60.3016 64.6159 59.9342 62.9095 60.3846C60.343 61.0996 58.666 63.382 58.666 66.1938V148.256C58.7619 151.865 62.1908 154.573 65.6131 153.748C68.296 153.109 70.0756 150.792 70.0756 147.905Z" fill="white"/>
</g>
<defs>
<clipPath id="clip0_4_3239">
<rect width="220" height="220" fill="white" transform="translate(0 0.5)"/>
</clipPath>
</defs>
</svg>
