<svg width="220" height="221" viewBox="0 0 220 221" fill="none" xmlns="http://www.w3.org/2000/svg">
<g clip-path="url(#clip0_4_3242)">
<path d="M110 220.5C170.751 220.5 220 171.251 220 110.5C220 49.7487 170.751 0.5 110 0.5C49.2487 0.5 0 49.7487 0 110.5C0 171.251 49.2487 220.5 110 220.5Z" fill="#1E1E1E"/>
<path fill-rule="evenodd" clip-rule="evenodd" d="M169.729 53.8801C163.733 60.8358 158.74 66.6341 158.634 66.7655C158.115 67.4079 156.182 69.6551 138.663 89.9798C128.316 101.984 119.622 112.073 119.343 112.399L118.836 112.992L127.327 127.878C131.997 136.064 135.817 142.778 135.817 142.797C135.817 142.815 132.355 142.83 128.123 142.828L120.429 142.827L114.985 133.32L109.541 123.814L109.329 124.036C108.627 124.772 82.7444 154.913 82.782 154.95C82.8073 154.975 88.2205 150.411 94.8114 144.806C101.402 139.201 106.818 134.638 106.847 134.667C106.876 134.696 108.887 138.228 111.316 142.513L115.732 150.307L132.142 150.332C141.168 150.345 148.552 150.338 148.552 150.315C148.552 150.293 143.775 141.906 137.936 131.678C132.097 121.449 127.332 113.032 127.347 112.972C127.377 112.858 178.774 43.8967 179.015 43.6492C179.196 43.4628 181.271 40.2445 156.462 78.6232C144.56 97.0363 134.758 112.21 134.68 112.343C134.543 112.577 134.847 113.119 144.739 130.336C150.351 140.099 154.975 148.125 155.017 148.17C155.103 148.262 155.171 148.041 155.931 145.172L156.473 143.124L146.863 127.872L137.254 112.62L158.969 77.0084C170.913 57.422 180.673 41.3601 180.658 41.3152C180.643 41.2705 175.725 46.9247 169.729 53.8801ZM62.0105 156.5C60.339 158.442 58.9299 160.134 58.8793 160.262C58.7946 160.474 58.9215 160.627 60.423 162.136C63.8799 165.609 67.0179 168.202 70.9832 170.86C73.872 172.796 76.3831 174.242 79.7641 175.919C88.6963 180.348 98.2155 182.979 107.693 183.64C109.557 183.771 114.704 183.77 116.57 183.64C132.049 182.561 146.215 176.564 157.744 166.206C159.053 165.029 162.867 161.165 162.793 161.09C162.765 161.062 162.593 161.165 162.41 161.318C162.226 161.47 161.45 162.125 160.684 162.772C155.984 166.737 150.308 170.284 144.67 172.775C137.699 175.855 130.71 177.66 122.889 178.4C120.364 178.639 114.041 178.639 111.842 178.4C105.333 177.692 99.4994 176.171 93.4168 173.592C91.5605 172.806 87.7536 170.908 85.8891 169.84C81.3806 167.258 76.8323 164.003 72.7538 160.44C71.0736 158.972 67.5693 155.541 66.2007 154.023C65.6737 153.439 65.1992 152.963 65.146 152.965C65.0931 152.967 63.6821 154.558 62.0105 156.5Z" fill="#EA39C4"/>
<path fill-rule="evenodd" clip-rule="evenodd" d="M106.586 37.203C97.7918 37.8086 89.9279 39.7849 82.1766 43.3377C75.9339 46.199 70.169 50.0147 64.8408 54.812C63.3536 56.1511 59.84 59.749 59.9755 59.7941C60.0294 59.8123 60.4773 59.4692 60.9708 59.032C61.4642 58.5947 62.5372 57.7023 63.3554 57.0487C72.488 49.7531 83.4132 44.9414 95.0567 43.0866C98.7945 42.4911 101.242 42.31 105.525 42.3113C110.187 42.3127 112.642 42.5503 116.909 43.4135C124.757 45.0006 132.6 48.2487 140.077 53.0088C143.368 55.1043 147.07 57.8874 150.098 60.543C151.679 61.9298 155.362 65.5539 156.637 66.9789C157.149 67.55 157.599 68.0058 157.638 67.9919C157.782 67.9402 163.991 60.6668 163.991 60.5496C163.991 60.387 159.963 56.416 158.684 55.3195C151.196 48.8909 142.517 44.0177 132.828 40.8002C127.53 39.0408 122.511 37.967 116.813 37.3735C115.393 37.2258 108.037 37.1031 106.586 37.203ZM125.364 80.1833C119.322 85.753 114.339 90.2969 114.29 90.2806C114.241 90.2643 112.209 86.7348 109.774 82.4372L105.346 74.6236L88.8859 74.599L72.4253 74.5746L72.5402 74.7921C72.6035 74.9116 77.2508 83.0074 82.8676 92.7827L93.0802 110.556L66.7291 145.895C52.2361 165.331 40.3157 181.298 40.2391 181.378C40.1627 181.457 50.1169 166.023 62.3597 147.08C74.6024 128.136 84.6373 112.567 84.6595 112.482C84.6905 112.364 75.8479 96.5673 65.5824 78.4004C65.3508 77.9909 65.2421 77.8735 65.1866 77.9729C65.1444 78.0484 64.7196 79.2258 64.2426 80.5894L63.3756 83.0686L72.69 97.6948C80.7393 110.334 81.9918 112.349 81.9102 112.527C81.8583 112.64 72.1642 128.558 60.3676 147.9C35.9337 187.962 38.5018 183.732 38.6401 183.683C38.6993 183.662 43.2619 178.392 48.7793 171.972C54.2967 165.551 59.0271 160.058 59.2911 159.767C59.5551 159.475 60.9094 157.912 62.3007 156.294C63.692 154.675 64.9354 153.23 65.0637 153.084C65.1921 152.937 73.506 143.285 83.5391 131.635C95.9664 117.205 101.767 110.402 101.737 110.291C101.713 110.201 98.1011 103.901 93.7105 96.2903C89.3196 88.6796 85.7052 82.3951 85.6783 82.3249C85.6379 82.2194 86.9809 82.1973 93.3339 82.198L101.038 82.1989L106.053 90.8819C108.811 95.6576 111.097 99.5538 111.134 99.54C111.22 99.5076 136.494 70.1609 136.494 70.0927C136.494 70.0641 136.462 70.0443 136.422 70.0487C136.382 70.0529 131.406 74.6135 125.364 80.1833Z" fill="#75FA4C"/>
</g>
<defs>
<clipPath id="clip0_4_3242">
<rect width="220" height="220" fill="white" transform="translate(0 0.5)"/>
</clipPath>
</defs>
</svg>
