<svg width="220" height="221" viewBox="0 0 220 221" fill="none" xmlns="http://www.w3.org/2000/svg">
<g clip-path="url(#clip0_4_3246)">
<path d="M110 220.5C170.751 220.5 220 171.251 220 110.5C220 49.7487 170.751 0.5 110 0.5C49.2487 0.5 0 49.7487 0 110.5C0 171.251 49.2487 220.5 110 220.5Z" fill="#EDF0F4"/>
<path d="M110 186.125C151.767 186.125 185.625 152.267 185.625 110.5C185.625 68.7335 151.767 34.875 110 34.875C68.2335 34.875 34.375 68.7335 34.375 110.5C34.375 152.267 68.2335 186.125 110 186.125Z" fill="white"/>
<path fill-rule="evenodd" clip-rule="evenodd" d="M35.4759 75.1139C49.8293 44.8857 81.0214 26.3217 114.437 28.1199C159.482 30.6449 194.188 68.8085 192.436 113.888C191.061 147.322 169.626 176.614 138.173 188.039C106.719 199.464 71.48 190.76 48.9658 166.002C26.4513 141.246 21.1226 105.342 35.4759 75.1139ZM69.6747 112.012C62.9737 137.742 83.3448 164.544 109.881 164.544V164.652C132.476 164.106 150.769 146.118 151.695 123.537C151.963 113.352 148.21 104.239 143.385 95.394C134.947 81.1366 124.872 67.9138 113.365 55.9944C110.953 53.5821 109.076 53.5821 106.664 56.2624C96.8675 66.6426 87.989 77.8523 80.1282 89.7655C75.4719 96.5716 71.9422 104.083 69.6747 112.012Z" fill="#168DFF"/>
</g>
<defs>
<clipPath id="clip0_4_3246">
<rect width="220" height="220" fill="white" transform="translate(0 0.5)"/>
</clipPath>
</defs>
</svg>
