<svg width="220" height="221" viewBox="0 0 220 221" fill="none" xmlns="http://www.w3.org/2000/svg">
<g clip-path="url(#clip0_4_3250)">
<path d="M110 220.5C170.751 220.5 220 171.251 220 110.5C220 49.7487 170.751 0.5 110 0.5C49.2487 0.5 0 49.7487 0 110.5C0 171.251 49.2487 220.5 110 220.5Z" fill="#EDF0F4"/>
<path fill-rule="evenodd" clip-rule="evenodd" d="M104.772 61H79.3721C82.6004 65.735 84.1661 71.1845 84.1276 76.8858C77.6904 76.9436 71.2537 76.9436 64.8165 76.9436C62.1561 81.6717 59.4435 86.3755 56.7306 91.0802C53.0562 97.4516 49.3811 103.824 45.834 110.261V110.28C49.6585 117.254 53.6326 124.145 57.6073 131.038C60.0212 135.224 62.4354 139.41 64.8165 143.616H82.0773V130.205H76.4307C72.605 123.57 68.7978 116.928 65.009 110.28C68.8051 103.645 72.6069 97.0039 76.414 90.3557H122.304V103.516H100.326V92.0369H83.7579C83.7352 99.383 83.7513 106.73 83.7673 114.076C83.792 125.376 83.8168 136.675 83.7002 147.965C84.1136 151.742 81.5128 154.053 78.928 156.351C77.7699 157.38 76.6149 158.406 75.7358 159.561H108.387C103.341 155.521 98.9918 150.69 99.9004 143.675C111.725 143.604 123.543 143.613 135.359 143.621C142.877 143.627 150.394 143.632 157.911 143.617C158.973 141.805 159.989 139.954 161.007 138.101C164.655 131.458 168.318 124.787 174.167 119.769C168.859 119.064 163.512 119.053 158.168 119.043C155.903 119.038 153.638 119.034 151.377 118.977C150.064 122.845 148.42 126.572 146.565 130.224C144.034 130.205 141.502 130.205 138.99 130.205H138.987C139.012 121.735 138.997 113.262 138.981 104.788C138.961 93.985 138.941 83.1806 139.006 72.3826C138.794 69.2271 140.344 66.5583 141.88 63.9139C142.441 62.9468 143.001 61.9832 143.472 61H117.898C121.204 65.6965 122.75 71.1653 122.653 76.8858C115.095 76.9628 107.518 76.9628 99.9595 76.8858C99.8427 71.1268 101.718 65.8125 104.772 61ZM100.327 130.205V117.044H122.305V130.205H100.327Z" fill="#56428E"/>
<path d="M140.669 76.9436H157.87C162.587 84.4808 165.834 93.178 172.639 99.2096C172.774 99.6542 173.024 100.562 173.16 101.006C165.892 101.953 158.53 101.219 151.201 101.584C150.273 97.5644 148.437 93.8728 146.407 90.3367C144.957 90.3367 142.096 90.3559 140.666 90.3559L140.669 76.9436Z" fill="#56428E"/>
<path d="M122.899 145.298C127.983 145.318 133.086 145.298 138.171 145.279C138.055 151.734 142.598 155.735 147.063 159.561H114.182C118.395 155.582 123.325 151.811 122.899 145.298Z" fill="#56428E"/>
</g>
<defs>
<clipPath id="clip0_4_3250">
<rect width="220" height="220" fill="white" transform="translate(0 0.5)"/>
</clipPath>
</defs>
</svg>
