<svg width="220" height="221" viewBox="0 0 220 221" fill="none" xmlns="http://www.w3.org/2000/svg">
<g clip-path="url(#clip0_4_3255)">
<path d="M110 220.5C170.751 220.5 220 171.251 220 110.5C220 49.7487 170.751 0.5 110 0.5C49.2487 0.5 0 49.7487 0 110.5C0 171.251 49.2487 220.5 110 220.5Z" fill="#EDF0F4"/>
<path d="M155.676 75.9827C160.826 75.9827 165.001 71.8079 165.001 66.658C165.001 61.5081 160.826 57.3333 155.676 57.3333C150.526 57.3333 146.352 61.5081 146.352 66.658C146.352 71.8079 150.526 75.9827 155.676 75.9827Z" fill="#18A0B1"/>
<path d="M83.9902 127.418C76.7666 115.156 78.7505 99.5603 88.8138 89.4972C98.877 79.4338 114.472 77.4502 126.735 84.6735L134.194 77.2137L133.821 76.9152C117.276 66.0096 95.3324 68.3049 81.4022 82.3983C67.4722 96.4917 65.4326 118.461 76.5303 134.878L83.9902 127.418Z" fill="#18A0B1"/>
<path d="M137.847 95.8256C145.07 108.088 143.086 123.683 133.023 133.746C122.96 143.81 107.365 145.793 95.1024 138.57L87.6426 146.03C104.124 157.219 126.229 155.124 140.315 141.038C154.401 126.953 156.496 104.847 145.307 88.366L137.847 95.8256Z" fill="#18A0B1"/>
<path d="M66.1587 165.5C71.3086 165.5 75.4834 161.325 75.4834 156.175C75.4834 151.025 71.3086 146.851 66.1587 146.851C61.0088 146.851 56.834 151.025 56.834 156.175C56.834 161.325 61.0088 165.5 66.1587 165.5Z" fill="#18A0B1"/>
</g>
<defs>
<clipPath id="clip0_4_3255">
<rect width="220" height="220" fill="white" transform="translate(0 0.5)"/>
</clipPath>
</defs>
</svg>
