<svg width="220" height="221" viewBox="0 0 220 221" fill="none" xmlns="http://www.w3.org/2000/svg">
<g clip-path="url(#clip0_4_3261)">
<path d="M110 220.5C170.751 220.5 220 171.251 220 110.5C220 49.7487 170.751 0.5 110 0.5C49.2487 0.5 0 49.7487 0 110.5C0 171.251 49.2487 220.5 110 220.5Z" fill="#EDF0F4"/>
<path d="M110.003 190.747C154.322 190.747 190.25 154.819 190.25 110.5C190.25 66.1811 154.322 30.2534 110.003 30.2534C65.6836 30.2534 29.7559 66.1811 29.7559 110.5C29.7559 154.819 65.6836 190.747 110.003 190.747Z" fill="white"/>
<path fill-rule="evenodd" clip-rule="evenodd" d="M192.5 110.5C192.5 64.9364 155.563 28.0003 110 28.0003C64.7095 27.8839 27.9442 64.6385 27.5 109.622V110.5C27.5 156.063 64.4364 193 110 193C155.563 193 192.5 156.063 192.5 110.5ZM33.5394 110.024C33.7192 68.1989 67.9353 34.0079 111.735 33.9867C131.08 34.2618 149.229 41.7503 164.153 56.5577C176.987 69.0185 184.817 85.7455 186.164 103.583C188.089 127.19 180.706 147.804 163.857 164.611C149.049 179.387 130.952 186.801 110 186.875C67.6922 187.023 33.3491 152.268 33.5394 110.024ZM111.735 33.9867C111.742 33.9867 111.748 33.9867 111.755 33.9867H111.735C111.735 33.9867 111.735 33.9867 111.735 33.9867Z" fill="#333333"/>
<path fill-rule="evenodd" clip-rule="evenodd" d="M162.968 58.0282C175.047 69.8492 182.543 85.5711 184.121 102.398C186.501 126.059 179.267 146.546 162.502 163.321C147.906 177.938 129.978 185.174 109.311 185.025C68.8173 183.934 36.5958 150.724 36.7309 110.215C36.8658 69.7067 69.3079 36.7111 109.808 35.8909C130.56 35.9226 148.361 43.3687 162.968 58.0282ZM144.436 54.7808C144.46 53.5253 143.461 52.4884 142.205 52.4648C140.952 52.447 139.918 53.443 139.889 54.6965C139.866 55.9521 140.865 56.9887 142.12 57.012C143.376 57.0354 144.413 56.0365 144.436 54.7808ZM131.999 47.7157C133.285 47.7216 134.326 48.7664 134.325 50.0532C134.309 50.6536 134.054 51.2229 133.618 51.6355C133.181 52.048 132.599 52.2702 131.999 52.2532C131.415 52.2618 130.852 52.038 130.434 51.6313C130.015 51.2247 129.775 50.6685 129.767 50.0851V49.9793C129.778 48.746 130.766 47.7443 131.999 47.7157ZM123.569 47.0388C123.416 45.8418 122.454 44.9105 121.253 44.7965C119.984 44.7781 118.93 45.7711 118.873 47.0388C118.866 48.2725 119.84 49.2883 121.073 49.334C122.385 49.3595 123.484 48.3482 123.569 47.0388ZM109.999 43.8659C111.247 43.86 112.265 44.8665 112.273 46.1152C112.28 47.3639 111.276 48.3828 110.027 48.3926C108.778 48.4023 107.758 47.3991 107.746 46.1504C107.746 44.901 108.749 43.8831 109.999 43.8659ZM101.114 47.0388C101.051 45.8336 100.088 44.8704 98.8824 44.8071L98.8402 44.7965C97.5999 44.8177 96.5901 45.7997 96.5344 47.0388C96.5287 47.6336 96.7595 48.2061 97.1761 48.6307C97.5926 49.0551 98.1608 49.2968 98.7555 49.3023H98.8402C99.4423 49.3052 100.021 49.068 100.447 48.6432C100.874 48.2184 101.114 47.6411 101.114 47.0388ZM88.0094 47.7157C89.257 47.7331 90.2576 48.7526 90.2518 50.0004C90.2815 51.2036 89.3389 52.2074 88.1363 52.2532H88.0305C87.4238 52.2761 86.8331 52.0552 86.39 51.6401C85.9471 51.2249 85.6884 50.6498 85.6719 50.0427C85.6668 50.0112 85.6668 49.9789 85.6719 49.9476C85.7337 48.7004 86.7607 47.7199 88.0094 47.7157ZM79.8362 53.4617C79.3819 52.7882 78.6028 52.4081 77.7921 52.4648C76.5991 52.5463 75.6731 53.5378 75.6731 54.7335C75.6731 55.9292 76.5991 56.9209 77.7921 57.0023H78.1094C78.9199 56.9456 79.6388 56.4609 79.995 55.7305C80.351 55.0003 80.2905 54.1353 79.8362 53.4617ZM68.6643 58.8849C69.9106 58.9133 70.911 59.9229 70.9277 61.1696C70.922 62.4172 69.912 63.4272 68.6643 63.433C68.0818 63.4559 67.5142 63.2455 67.0872 62.8484C66.6604 62.4513 66.4094 61.9004 66.3902 61.3175C66.3845 61.279 66.3845 61.2398 66.3902 61.2013C66.3486 59.9589 67.3166 58.9153 68.5585 58.8638L68.6643 58.8849ZM62.974 69.1446C63.0037 67.8946 62.0234 66.8529 60.774 66.8071H60.7633C59.4952 66.8117 58.4557 67.814 58.4047 69.081C58.4377 70.3247 59.4353 71.3268 60.6788 71.3657C61.9247 71.3833 62.9507 70.3905 62.974 69.1446ZM54.2904 76.0301C55.4894 76.0062 56.4867 76.9471 56.5325 78.1455C56.5432 78.1763 56.5432 78.2097 56.5325 78.2407C56.5503 79.4925 55.5526 80.5232 54.3008 80.5465C53.0212 80.5237 51.991 79.4886 51.974 78.209C52.0196 76.9687 53.0386 75.987 54.2797 75.9877L54.2904 76.0301ZM51.8258 88.4896C51.8319 87.2244 50.8171 86.1907 49.5519 86.1733C48.3111 86.1836 47.2968 87.1654 47.2462 88.4051C47.2836 89.6178 48.2585 90.5919 49.4713 90.6283C50.684 90.6646 51.7158 89.7509 51.8258 88.5426V88.4896ZM46.5904 96.9935C47.8708 96.9992 48.9106 98.0295 48.9279 99.3097C48.8932 100.555 47.8677 101.543 46.6221 101.531C46.0415 101.534 45.4834 101.306 45.0709 100.897C44.6582 100.489 44.4248 99.9327 44.4221 99.3521C44.4096 98.1243 45.3741 97.1083 46.601 97.0569L46.5904 96.9935ZM45.6279 108.194C44.3851 108.249 43.3965 109.256 43.3644 110.5C43.4002 111.713 44.3537 112.698 45.5644 112.774H45.7971C47.026 112.711 47.9723 111.666 47.9124 110.437C47.9069 109.836 47.6631 109.263 47.2346 108.842C46.8062 108.422 46.2281 108.189 45.6279 108.194ZM44.4221 121.659C44.4219 120.413 45.4192 119.397 46.6644 119.374C47.9423 119.397 48.9695 120.434 48.9807 121.712C48.9642 122.312 48.7095 122.881 48.2732 123.294C47.8367 123.706 47.2542 123.929 46.6538 123.912C45.4544 123.941 44.4567 122.995 44.4221 121.796V121.669V121.659ZM47.2779 132.542C47.3182 133.792 48.355 134.777 49.6047 134.753L49.5624 134.732C50.8102 134.726 51.8201 133.716 51.8258 132.468C51.7939 131.242 50.8195 130.249 49.5941 130.194C48.3146 130.223 47.2889 131.263 47.2779 132.542ZM54.3325 144.938C53.0903 144.922 52.0774 143.938 52.0269 142.696C52.0268 141.437 53.0415 140.412 54.3008 140.401H54.3538C55.5528 140.377 56.5501 141.318 56.5962 142.516C56.6013 142.555 56.6013 142.594 56.5962 142.633C56.5989 143.229 56.3639 143.802 55.9431 144.225C55.5222 144.648 54.9504 144.885 54.3538 144.885H54.2904L54.3325 144.938ZM54.3331 127.168L54.449 126.757H78.5643C81.6809 126.757 83.2464 126.757 84.0325 125.974C84.8258 125.184 84.8258 123.598 84.8258 120.411V104.545C84.8258 102.821 85.0585 102.017 87.121 102.102C91.6585 102.292 96.2171 102.229 100.755 102.102C102.341 102.102 102.87 102.589 102.87 104.143C102.828 113.014 102.828 121.895 102.87 130.787C102.87 132.479 102.341 133.336 100.554 133.166C100.033 133.113 99.5086 133.113 98.9881 133.166C96.9469 133.388 96.2488 132.595 96.2488 130.596C96.3122 126.317 96.2911 122.043 96.2699 117.768V117.766C96.2594 115.627 96.2488 113.487 96.2488 111.346C96.2488 109.58 95.6988 108.766 93.8055 108.766C91.9122 108.766 91.2881 109.358 91.32 111.24C91.3637 114.554 91.3622 117.868 91.3607 121.18V121.182C91.3595 124.286 91.3582 127.39 91.3939 130.49C91.3939 132.606 90.7488 133.198 88.7075 133.166C86.3273 133.128 83.9444 133.157 81.5629 133.186C77.4461 133.237 73.3334 133.288 69.246 132.987C67.004 132.823 64.8135 131.852 62.6366 130.886C61.856 130.54 61.077 130.195 60.298 129.888C58.914 129.346 57.535 128.687 56.1472 128.024C55.5446 127.737 54.9401 127.448 54.3331 127.168ZM61.0066 154.161C60.3921 154.233 59.7744 154.057 59.2901 153.671C58.8059 153.286 58.4949 152.724 58.4258 152.11C58.4157 151.99 58.4157 151.87 58.4258 151.75C58.5021 150.475 59.5396 149.47 60.8163 149.434C62.0901 149.601 63.0612 150.657 63.1221 151.94C62.9463 153.046 62.1035 153.927 61.0066 154.151V154.161ZM66.4325 159.831C66.4325 161.04 67.4128 162.02 68.6219 162.02L68.6643 162.01H68.749C69.3464 162.012 69.9206 161.778 70.3451 161.357C70.7695 160.937 71.0096 160.365 71.0124 159.767C70.9904 158.521 69.9947 157.511 68.749 157.472C68.143 157.464 67.5586 157.696 67.1241 158.119C66.6898 158.541 66.441 159.119 66.4325 159.725V159.831ZM77.9085 168.461C77.3249 168.484 76.7562 168.274 76.3276 167.877C75.8991 167.481 75.646 166.93 75.624 166.346C75.6186 166.318 75.6186 166.289 75.624 166.261C75.5882 165.002 76.5749 163.949 77.8344 163.903H77.8978C79.1443 163.931 80.1446 164.941 80.1613 166.187C80.1699 166.786 79.9387 167.363 79.5196 167.79C79.1005 168.217 78.528 168.459 77.9296 168.461H77.9085ZM85.6825 171.074C85.7674 172.318 86.8385 173.262 88.0835 173.189L88.1363 173.179C89.3373 173.138 90.2815 172.138 90.2518 170.936C90.2402 169.687 89.2271 168.679 87.9777 168.673C86.7363 168.716 85.737 169.706 85.6825 170.947V171.074ZM75.4177 136.972L75.4159 136.971L75.4142 136.97C74.8021 136.672 74.1886 136.374 73.5719 136.086L73.8152 135.44H104.71C105.112 135.44 105.476 135.443 105.805 135.446H105.807C107.425 135.459 108.209 135.466 108.588 135.077C108.944 134.712 108.941 133.997 108.937 132.611V132.609V132.607C108.935 132.201 108.934 131.738 108.941 131.21V89.7905C108.941 87.5166 109.565 86.8291 111.839 86.9136C116.239 87.0829 120.639 87.0194 125.05 86.9136C126.636 86.9136 127.345 87.3261 127.345 89.0291V140.295C127.345 142.135 126.562 142.707 124.87 142.41C124.296 142.258 123.707 142.17 123.114 142.146L123.055 142.148C120.311 142.241 120.301 142.242 120.301 139.322V97.0146C120.301 96.834 120.311 96.6452 120.322 96.4538C120.381 95.4135 120.444 94.3016 118.809 94.0426C116.546 93.6829 115.869 94.2118 115.869 96.581V139.565C115.869 142.485 115.869 142.495 112.865 142.495C110.376 142.495 107.887 142.483 105.399 142.472H105.397C100.423 142.448 95.4509 142.425 90.4738 142.495C87.4224 142.617 84.9212 141.391 82.4223 140.166C81.4567 139.693 80.4915 139.22 79.495 138.825H79.4738C78.0957 138.274 76.7573 137.623 75.4177 136.972ZM96.5449 173.898C96.5909 175.144 97.6361 176.118 98.8824 176.077C100.148 176.053 101.156 175.009 101.135 173.743C101.113 172.477 100.071 171.468 98.8048 171.487C97.5389 171.506 96.5276 172.547 96.5449 173.813C96.5397 173.841 96.5397 173.87 96.5449 173.898ZM109.999 177.134C108.718 177.111 107.696 176.057 107.714 174.776C107.749 173.516 108.794 172.519 110.054 172.545C111.314 172.57 112.319 173.606 112.303 174.867C112.288 176.127 111.259 177.14 109.999 177.134ZM118.883 173.76C118.858 174.973 119.789 175.992 120.999 176.077L121.115 176.045C122.346 176.099 123.394 175.159 123.474 173.93C123.504 173.11 123.094 172.336 122.399 171.9C121.704 171.463 120.829 171.431 120.104 171.815C119.379 172.199 118.914 172.94 118.883 173.76ZM131.988 173.179C130.791 173.197 129.797 172.259 129.746 171.063V170.957C129.751 169.714 130.745 168.702 131.988 168.673C133.266 168.696 134.293 169.732 134.304 171.01C134.247 172.241 133.22 173.203 131.988 173.179ZM140.593 167.821C141.024 168.232 141.6 168.454 142.195 168.44L142.226 168.482H142.322C143.526 168.431 144.467 167.424 144.437 166.219C144.455 164.967 143.457 163.937 142.205 163.913C140.924 163.925 139.894 164.97 139.9 166.251C139.913 166.845 140.163 167.41 140.593 167.821ZM144.084 105.164C144.024 95.5079 143.968 86.613 143.972 81.6569C143.972 81.5717 143.972 81.4866 143.973 81.4023C143.981 80.1175 143.989 78.983 141.994 79.0127C140.28 79.0127 139.878 79.6368 139.878 81.255C139.942 88.6588 139.762 144.378 139.762 144.378V151.38C139.514 151.406 139.28 151.436 139.056 151.464L139.054 151.464L139.052 151.465C138.56 151.527 138.11 151.584 137.647 151.591C134.923 151.591 132.199 151.606 129.475 151.621H129.473H129.471H129.469C122.503 151.66 115.537 151.698 108.581 151.485C106.787 151.431 104.998 150.576 103.232 149.733C102.605 149.433 101.978 149.134 101.357 148.873C98.6068 147.774 95.971 146.406 93.4881 144.79C93.8055 144.79 94.1228 144.761 94.4402 144.732C94.7574 144.703 95.0747 144.674 95.3921 144.674L127.842 144.811C130.347 144.811 131.571 144.811 132.169 144.2C132.74 143.615 132.74 142.473 132.739 140.238V140.031V74.6551C132.739 72.8252 133.152 71.9791 135.225 72.0426C139.921 72.1907 144.628 72.1377 149.324 72.0426C150.9 72.0426 151.439 72.5819 151.439 74.158V148.577C151.439 150.068 151.439 150.822 151.062 151.204C150.678 151.594 149.9 151.597 148.329 151.602C143.592 151.602 143.6 151.52 144.079 146.835L144.099 146.641L144.109 146.62C144.331 144.42 144.199 123.433 144.084 105.168V105.166V105.164ZM149.07 159.767C149.093 161.011 150.111 162.005 151.354 161.999L151.344 162.01H151.502C152.086 162.01 152.644 161.77 153.045 161.346C153.445 160.921 153.653 160.35 153.618 159.767C153.632 159.167 153.407 158.585 152.992 158.151C152.578 157.717 152.008 157.465 151.407 157.451C150.129 157.462 149.093 158.489 149.07 159.767ZM151.428 63.4224C150.197 63.4347 149.179 62.4639 149.133 61.233C149.128 61.2087 149.128 61.1834 149.133 61.159C149.161 59.9169 150.155 58.9135 151.397 58.8744C151.996 58.8688 152.573 59.1022 153 59.5229C153.426 59.9438 153.668 60.5173 153.671 61.1166C153.743 62.3228 152.825 63.3593 151.619 63.433H151.492L151.428 63.4224ZM157.136 151.819C157.136 153.014 158.062 154.006 159.255 154.087C160.103 154.145 160.912 153.726 161.353 153C161.795 152.274 161.795 151.363 161.353 150.637C160.912 149.911 160.103 149.492 159.255 149.55C158.062 149.631 157.136 150.623 157.136 151.819ZM159.255 71.3974C157.988 71.3974 156.96 70.3698 156.96 69.1022C156.96 67.8347 157.988 66.8071 159.255 66.8071C160.523 66.8071 161.55 67.8347 161.55 69.1022C161.533 70.3573 160.511 71.3659 159.255 71.3657V71.3974ZM173.46 101.552C174.659 101.517 175.605 100.52 175.575 99.3204C175.607 98.1036 174.674 97.078 173.46 96.9935C172.832 96.9792 172.223 97.2153 171.769 97.6498C171.315 98.0841 171.052 98.6814 171.038 99.3097C171.061 100.559 172.084 101.558 173.333 101.552H173.46ZM165.697 76.0511C166.944 76.0568 167.958 77.0571 167.981 78.3041C167.952 79.5819 166.911 80.6044 165.633 80.6099C164.388 80.5639 163.409 79.5288 163.433 78.2828C163.409 77.082 164.348 76.0816 165.548 76.0301H165.707L165.697 76.0511ZM163.444 142.685C163.444 143.93 164.452 144.938 165.697 144.938L165.728 144.928C166.963 144.912 167.968 143.93 168.013 142.696V142.643C168.002 142.036 167.749 141.459 167.31 141.04C166.871 140.621 166.282 140.395 165.675 140.412H165.559C164.348 140.457 163.402 141.474 163.444 142.685ZM170.435 86.1733C171.353 86.1733 172.181 86.7283 172.529 87.578C172.877 88.4278 172.678 89.4037 172.024 90.0485C171.37 90.6932 170.391 90.879 169.547 90.5187C168.702 90.1583 168.159 89.3232 168.172 88.4051C168.216 87.1791 169.209 86.2005 170.435 86.1733ZM168.172 132.542C168.223 133.788 169.263 134.762 170.509 134.732C171.754 134.709 172.752 133.693 172.751 132.447C172.762 132.349 172.762 132.249 172.751 132.151C172.643 130.886 171.53 129.949 170.266 130.057C169.001 130.165 168.064 131.278 168.172 132.542ZM173.312 123.891C172.071 123.862 171.076 122.857 171.059 121.616C171.111 120.335 172.177 119.329 173.46 119.353C174.683 119.438 175.618 120.476 175.575 121.701C175.578 122.281 175.35 122.838 174.941 123.248C174.532 123.659 173.976 123.891 173.397 123.891H173.312ZM172.793 112.137C173.219 112.534 173.787 112.744 174.37 112.721H174.38H174.518C175.107 112.724 175.672 112.491 176.088 112.073C176.503 111.656 176.734 111.089 176.728 110.5V110.405C176.682 109.764 176.383 109.167 175.897 108.747C175.411 108.326 174.778 108.116 174.137 108.163H173.989C173.431 108.219 172.917 108.494 172.563 108.929C172.207 109.363 172.04 109.921 172.096 110.479C172.09 110.521 172.09 110.564 172.096 110.606C172.115 111.189 172.366 111.74 172.793 112.137Z" fill="#004B6A"/>
</g>
<defs>
<clipPath id="clip0_4_3261">
<rect width="220" height="220" fill="white" transform="translate(0 0.5)"/>
</clipPath>
</defs>
</svg>
