<svg width="220" height="221" viewBox="0 0 220 221" fill="none" xmlns="http://www.w3.org/2000/svg">
<g clip-path="url(#clip0_4_3266)">
<path d="M216.683 137.11C201.993 196.038 142.307 231.902 83.3712 217.207C24.4598 202.515 -11.4034 142.826 3.29433 83.9016C17.9792 24.966 77.6648 -10.8997 136.583 3.79159C195.514 18.4829 231.376 78.1776 216.683 137.11Z" fill="black"/>
<mask id="mask0_4_3266" style="mask-type:luminance" maskUnits="userSpaceOnUse" x="51" y="88" width="137" height="101">
<path fill-rule="evenodd" clip-rule="evenodd" d="M163.828 88.9034C152.038 90.1917 143.325 100.493 144.01 112.333C144.212 115.447 142.655 118.413 139.976 120.015C138.638 120.837 137.092 121.257 135.521 121.225C133.964 121.205 132.437 120.789 131.085 120.015C127.508 117.967 123.472 116.857 119.351 116.788H116.931C105.216 118.142 96.6521 128.493 97.5163 140.255C97.7262 143.366 96.1758 146.333 93.5013 147.937C92.1699 148.759 90.6292 149.179 89.0646 149.147C87.6205 149.179 86.203 148.756 85.013 147.937C81.4537 145.896 77.4369 144.786 73.3346 144.71H70.823C59.3069 146.192 50.8952 156.324 51.5559 167.916C52.2165 179.509 61.7247 188.618 73.3346 188.783H75.3513C85.8266 187.751 94.1032 179.444 95.0963 168.965V165.298C94.8987 162.185 96.4546 159.222 99.1296 157.617C100.468 156.795 102.014 156.375 103.585 156.407C105.142 156.427 106.669 156.843 108.021 157.617C111.593 159.678 115.631 160.795 119.755 160.862H122.175C132.515 159.685 140.616 151.423 141.59 141.062V137.395C141.389 134.271 142.953 131.298 145.641 129.695C146.973 128.873 148.513 128.452 150.078 128.485C151.522 128.453 152.94 128.876 154.13 129.695C157.695 131.756 161.727 132.873 165.845 132.94H168.283C179.191 130.923 187.68 121.94 187.68 110.702C187.733 104.861 185.461 99.2379 181.366 95.0731C177.27 90.9083 171.686 88.5435 165.845 88.5001C165.146 88.3948 164.432 88.5375 163.828 88.9034Z" fill="white"/>
</mask>
<g mask="url(#mask0_4_3266)">
<path d="M153.998 88.0782L59.5817 145.095C47.7349 152.25 43.8722 167.619 50.9284 179.525C54.3587 185.337 59.9761 189.53 66.5231 191.167C73.0701 192.804 79.9999 191.746 85.7617 188.233L180.417 130.666C191.936 123.49 195.663 108.458 188.832 96.7315C185.413 90.9059 179.791 86.7039 173.236 85.0753C166.68 83.447 159.745 84.5294 153.998 88.0782Z" fill="url(#paint0_linear_4_3266)"/>
</g>
<mask id="mask1_4_3266" style="mask-type:luminance" maskUnits="userSpaceOnUse" x="51" y="60" width="91" height="73">
<path fill-rule="evenodd" clip-rule="evenodd" d="M117.333 60.9999C105.535 62.2884 96.8195 72.6007 97.5149 84.4483C97.7434 87.5732 96.1898 90.5599 93.4999 92.1666C92.1686 92.989 90.6278 93.4091 89.0633 93.3766C87.6067 93.4168 86.175 92.9931 84.9749 92.1666C81.4298 90.1188 77.4262 88.9964 73.3333 88.9033H70.8216C60.0157 90.2808 51.897 99.4418 51.8283 110.335C51.7872 122.465 61.5341 132.359 73.6633 132.5H75.6799C86.1589 131.507 94.4663 123.23 95.4983 112.755V109.088C95.292 105.973 96.8502 103.005 99.5316 101.407C100.865 100.57 102.413 100.143 103.987 100.178C105.428 100.144 106.842 100.574 108.02 101.407C111.596 103.454 115.633 104.564 119.753 104.633H122.173C133.476 102.952 141.64 92.9406 141.012 81.5305C140.384 70.1206 131.172 61.065 119.753 60.6333C118.928 60.5222 118.088 60.6494 117.333 60.9999Z" fill="white"/>
</mask>
<g mask="url(#mask1_4_3266)">
<path d="M137.117 65.675C129.502 58.0498 117.693 56.5415 108.407 62.0083L61.6565 90.1683C55.3359 93.9047 51.0903 100.346 50.1483 107.627C49.2064 114.909 51.6731 122.218 56.8349 127.44C64.518 135.108 76.4117 136.615 85.7649 131.107L132.552 102.598C138.781 98.8591 142.943 92.4602 143.834 85.2493C144.726 78.0386 142.248 70.8188 137.117 65.675Z" fill="url(#paint1_linear_4_3266)"/>
</g>
<mask id="mask2_4_3266" style="mask-type:luminance" maskUnits="userSpaceOnUse" x="51" y="33" width="44" height="44">
<path d="M72.8604 76.7667C84.9195 76.7667 94.6954 66.9908 94.6954 54.9317C94.6954 42.8725 84.9195 33.0967 72.8604 33.0967C60.8013 33.0967 51.0254 42.8725 51.0254 54.9317C51.0254 66.9908 60.8013 76.7667 72.8604 76.7667Z" fill="white"/>
</mask>
<g mask="url(#mask2_4_3266)">
<path d="M56.7882 38.184L56.088 38.8841C47.2244 47.7477 47.2244 62.1185 56.088 70.9821L56.7882 71.6822C65.6518 80.5458 80.0225 80.5458 88.8861 71.6822L89.5863 70.9821C98.4499 62.1185 98.4499 47.7477 89.5863 38.8841L88.8861 38.184C80.0225 29.3204 65.6518 29.3204 56.7882 38.184Z" fill="url(#paint2_linear_4_3266)"/>
</g>
</g>
<defs>
<linearGradient id="paint0_linear_4_3266" x1="50.3417" y1="38.6645" x2="128.423" y2="38.6645" gradientUnits="userSpaceOnUse">
<stop stop-color="#F4C503"/>
<stop offset="1" stop-color="#FFE800"/>
</linearGradient>
<linearGradient id="paint1_linear_4_3266" x1="20.1132" y1="39.4635" x2="94.1982" y2="39.4635" gradientUnits="userSpaceOnUse">
<stop stop-color="#F4C503"/>
<stop offset="1" stop-color="#FFE800"/>
</linearGradient>
<linearGradient id="paint2_linear_4_3266" x1="12.2909" y1="99.6494" x2="60.4756" y2="51.4647" gradientUnits="userSpaceOnUse">
<stop stop-color="#F4C503"/>
<stop offset="1" stop-color="#FFE800"/>
</linearGradient>
<clipPath id="clip0_4_3266">
<rect width="220" height="220" fill="white" transform="translate(0 0.5)"/>
</clipPath>
</defs>
</svg>
