<svg width="220" height="221" viewBox="0 0 220 221" fill="none" xmlns="http://www.w3.org/2000/svg">
<g clip-path="url(#clip0_4_3288)">
<path d="M110 220.5C170.753 220.5 220 171.253 220 110.5C220 49.747 170.753 0.5 110 0.5C49.247 0.5 0 49.747 0 110.5C0 171.253 49.247 220.5 110 220.5Z" fill="#EDF0F4"/>
<path d="M127.196 171.081C126.874 170.759 126.553 170.438 126.231 170.438C118.835 168.83 111.439 166.257 105.007 162.399C91.5011 154.359 82.497 142.461 82.1755 128.633C82.1755 123.488 83.1402 118.343 85.3911 113.519C86.6774 110.303 94.3952 99.3698 95.3601 97.4404C100.505 89.4011 98.8973 90.0442 91.5011 80.0755L81.2108 64.9615L74.4577 54.6711C70.5987 57.2437 66.7399 60.4593 63.2025 63.6752C56.1278 70.7498 50.6612 79.7539 47.4454 89.4011C44.2297 99.0483 43.265 109.339 44.5513 119.308C45.8375 129.276 49.6965 138.923 55.4847 147.285C61.2731 155.645 68.9909 162.72 77.6734 167.544C54.8416 150.822 44.2297 125.417 52.9122 100.013C55.1631 93.2601 58.7006 86.8285 63.2025 81.0402L70.5987 91.9736C70.9203 92.6167 71.2418 93.2601 71.2418 94.2248C71.2418 94.8679 70.9203 95.8326 70.5987 96.4757C67.0615 100.978 64.1672 105.801 62.2378 111.268C52.5906 139.245 78.6381 168.187 105.972 173.01C111.117 173.975 120.764 174.94 125.91 173.654C126.231 173.654 126.553 173.332 126.553 173.332C126.874 173.01 126.874 173.01 126.874 172.689C126.874 172.367 126.874 172.046 126.874 171.724C127.517 171.724 127.517 171.403 127.196 171.081Z" fill="url(#paint0_linear_4_3288)"/>
<path d="M92.4681 49.5258C92.7896 49.8474 93.1112 50.169 93.4327 50.169C100.829 51.7768 108.225 54.3495 114.657 58.2083C128.163 66.2477 137.167 78.146 137.488 91.9737C137.488 97.1188 136.524 102.264 134.273 107.088C132.986 110.303 125.269 121.237 124.304 123.166C119.159 131.206 120.767 130.563 128.163 140.531L138.453 155.645L145.528 165.936C149.387 163.363 153.246 160.147 156.783 156.932C163.857 149.857 169.324 140.853 172.54 131.206C175.756 121.558 176.721 111.268 175.434 101.299C174.148 91.3304 170.289 81.6832 164.501 73.3223C158.712 64.9614 150.995 57.8867 142.312 53.0631C165.144 69.7851 175.756 95.1894 166.752 120.594C164.501 127.347 160.963 133.778 156.461 139.567L149.065 128.633C148.743 127.99 148.422 127.347 148.422 126.382C148.422 125.739 148.743 124.774 149.065 124.131C152.602 119.629 155.497 114.806 157.426 109.339C167.073 81.3617 141.026 52.4199 113.692 47.5964C108.547 46.6317 98.8996 45.6668 93.7543 46.9533C93.4327 46.9533 93.1112 47.2749 93.1112 47.2749C92.468 47.2749 92.1465 47.5964 92.1465 47.918C92.1465 48.2396 92.1465 48.5611 92.1465 48.8827C92.1465 48.8827 92.1465 49.2043 92.4681 49.5258Z" fill="url(#paint1_linear_4_3288)"/>
</g>
<defs>
<linearGradient id="paint0_linear_4_3288" x1="97.6501" y1="197.03" x2="166.937" y2="138.663" gradientUnits="userSpaceOnUse">
<stop stop-color="#174E5B"/>
<stop offset="0.07" stop-color="#195A6C"/>
<stop offset="0.21" stop-color="#1E779A"/>
<stop offset="0.4" stop-color="#27A7E3"/>
<stop offset="0.47" stop-color="#2ABAFF"/>
<stop offset="0.7" stop-color="#1DDAF0"/>
<stop offset="1" stop-color="#0EFFE0"/>
</linearGradient>
<linearGradient id="paint1_linear_4_3288" x1="121.874" y1="23.7547" x2="52.7577" y2="82.5739" gradientUnits="userSpaceOnUse">
<stop stop-color="#174E5B"/>
<stop offset="0.07" stop-color="#195A6C"/>
<stop offset="0.21" stop-color="#1E779A"/>
<stop offset="0.4" stop-color="#27A7E3"/>
<stop offset="0.47" stop-color="#2ABAFF"/>
<stop offset="0.7" stop-color="#1DDAF0"/>
<stop offset="1" stop-color="#0EFFE0"/>
</linearGradient>
<clipPath id="clip0_4_3288">
<rect width="220" height="220" fill="white" transform="translate(0 0.5)"/>
</clipPath>
</defs>
</svg>
