<svg width="220" height="221" viewBox="0 0 220 221" fill="none" xmlns="http://www.w3.org/2000/svg">
<g clip-path="url(#clip0_4_3292)">
<path d="M110 220.5C170.751 220.5 220 171.251 220 110.5C220 49.7487 170.751 0.5 110 0.5C49.2487 0.5 0 49.7487 0 110.5C0 171.251 49.2487 220.5 110 220.5Z" fill="#DF1A14"/>
<path fill-rule="evenodd" clip-rule="evenodd" d="M108.461 82.1384C107.588 80.0468 105.188 78.8485 103.078 79.5204V79.5272C101.21 80.0301 100.301 81.7965 99.441 83.4665C99.2944 83.7512 99.149 84.0337 99.0009 84.3061C93.4814 94.9193 87.9053 105.498 82.3454 116.047C79.2485 121.922 76.1559 127.789 73.0817 133.646C71.9662 135.516 72.2369 137.908 73.7417 139.478C75.0069 140.894 76.8164 140.852 78.5698 140.812C79.1316 140.799 79.6876 140.786 80.218 140.821C80.4879 140.821 80.7673 140.827 81.0523 140.832C83.1488 140.872 85.5535 140.918 86.77 138.882C88.2449 136.242 89.6213 133.521 91.0018 130.792C92.2789 128.268 93.5593 125.737 94.9239 123.257C96.5946 120.12 101.613 120.639 102.782 123.929C103.688 126.236 104.517 128.592 105.347 130.952C106.318 133.712 107.291 136.48 108.392 139.18C109.774 142.47 114.793 142.47 116.326 139.332C120.99 130.547 125.673 121.782 130.355 113.018L130.358 113.012C134.88 104.545 139.403 96.0787 143.909 87.5959C145.807 84.6801 143.331 80.4208 139.983 80.6424C139.084 80.7258 138.105 80.6683 137.111 80.6096C134.56 80.4594 131.904 80.3031 130.227 82.5054C128.928 84.7659 127.735 87.0728 126.543 89.3764C125.132 92.1051 123.723 94.8289 122.142 97.4653C120.403 100.153 115.955 99.7786 114.649 96.8626C113.421 94.1365 112.286 91.3621 111.154 88.5923C110.269 86.4297 109.386 84.27 108.461 82.1384ZM80.7267 80.7948C78.1806 80.6452 75.6279 80.6452 73.0817 80.7948H73.0885C71.411 80.8708 70.1735 82.2908 69.4448 83.7105C67.8395 86.7492 66.2346 89.7882 64.6299 92.8269L64.6169 92.8517L64.5762 92.9289C57.3182 106.672 50.0633 120.409 42.8037 134.096C40.913 136.86 43.5324 140.974 46.6607 140.828C47.3443 140.828 48.0329 140.844 48.7237 140.86C50.61 140.904 52.5127 140.948 54.3746 140.669C56.1537 140.19 57.0131 138.518 57.8236 136.942C58.0092 136.581 58.192 136.225 58.3826 135.89C62.1014 128.833 65.8346 121.778 69.5707 114.717C74.3858 105.617 79.2058 96.5077 84.0062 87.3742C85.3882 84.7562 83.5662 81.0925 80.7267 80.7948ZM163.421 80.9401C165.167 80.4195 166.973 80.4682 168.783 80.5172C169.838 80.5456 170.893 80.574 171.939 80.4899C172.33 80.5036 172.74 80.5003 173.158 80.497C175.074 80.4818 177.176 80.4649 178.491 82.0621C180.457 84.0845 179.866 87.8938 177.391 89.1681C175.325 90.4907 173.271 91.8509 171.214 93.2128C168.274 95.16 165.328 97.1111 162.334 98.9613C159.124 101.198 154.394 97.3892 155.775 93.6492C156.502 91.8927 157.404 90.2172 158.306 88.5417C158.94 87.3634 159.575 86.1848 160.148 84.9779C160.266 84.7575 160.381 84.5274 160.499 84.2935C161.182 82.9396 161.931 81.4538 163.421 80.9401ZM143.985 125.799C142.603 125.051 140.781 124.746 139.323 125.647C138.01 126.252 137.35 127.711 136.755 129.028C136.689 129.173 136.624 129.316 136.559 129.456C136.226 130.169 135.861 130.861 135.497 131.552C134.906 132.674 134.315 133.793 133.864 134.997C132.847 137.684 135.033 140.974 137.797 140.974C141.484 141.02 145.202 141.004 148.93 140.989C150.797 140.981 152.668 140.974 154.538 140.974C157.157 141.195 159.419 138.584 159.124 135.89C159.055 133.875 157.309 132.455 155.631 131.707C153.165 130.534 150.729 129.272 148.305 128.016C146.862 127.268 145.423 126.522 143.985 125.799Z" fill="white"/>
</g>
<defs>
<clipPath id="clip0_4_3292">
<rect width="220" height="220" fill="white" transform="translate(0 0.5)"/>
</clipPath>
</defs>
</svg>
