<svg width="220" height="221" viewBox="0 0 220 221" fill="none" xmlns="http://www.w3.org/2000/svg">
<g clip-path="url(#clip0_4_3295)">
<path d="M110 220.5C170.751 220.5 220 171.251 220 110.5C220 49.7487 170.751 0.5 110 0.5C49.2487 0.5 0 49.7487 0 110.5C0 171.251 49.2487 220.5 110 220.5Z" fill="#EDF0F4"/>
<path d="M55 145.404C55 147.383 55.4398 149.142 56.5395 150.682C58.0789 152.881 60.7182 154.201 63.3572 154.201C66.2163 154.201 68.8554 152.881 70.3949 150.902C71.4945 149.362 72.1543 147.383 72.1543 145.404V77.0065C72.1543 72.828 69.2952 69.0891 64.8967 68.4294C64.4569 68.4294 64.2369 68.4294 63.7971 68.4294C63.3573 68.4294 62.9174 68.4294 62.6974 68.4294C58.2989 68.8693 55 72.828 55 77.2265V145.404Z" fill="#353C46"/>
<path d="M137.913 90.2019C141.212 91.5216 144.951 90.6418 147.37 88.0027C148.25 86.9031 148.909 85.5834 149.129 84.044C149.789 81.4049 148.47 78.7658 146.71 77.0064C145.171 75.4669 143.191 73.9275 140.772 72.3878C133.075 67.9893 125.377 68.2093 122.078 68.4293C117.9 68.4293 106.024 69.0889 95.0274 77.6662C79.1927 89.9819 78.093 108.456 77.873 111.315C77.873 114.394 77.873 129.129 89.5292 141.225C102.505 154.641 119.219 154.201 121.858 154.201C125.817 154.421 134.834 153.981 144.291 148.483C148.47 146.063 151.549 143.204 153.748 140.565C156.387 137.706 157.267 133.308 155.287 129.789C155.067 129.569 154.848 129.129 154.628 128.909C154.408 128.689 154.188 128.249 153.968 128.029C150.669 124.511 144.951 124.95 141.432 128.249C139.453 130.009 137.033 131.988 133.515 133.747C133.515 133.747 133.295 133.747 133.295 133.967C124.498 138.146 113.941 137.046 106.024 131.108C105.584 130.669 105.144 130.449 104.704 130.009C101.845 127.589 99.8657 124.73 98.5463 122.091C95.0274 115.054 94.8075 106.476 98.3263 99.4388C99.2061 97.6794 100.306 95.9201 101.845 94.1607C109.543 85.3636 120.539 85.3636 122.078 85.3636C124.278 85.3636 127.797 85.5834 131.755 86.9031C134.394 87.7827 136.374 89.1023 137.913 90.2019Z" fill="#353C46"/>
<path d="M155.946 115.934C161.047 115.934 165.183 111.798 165.183 106.697C165.183 101.595 161.047 97.4597 155.946 97.4597C150.844 97.4597 146.709 101.595 146.709 106.697C146.709 111.798 150.844 115.934 155.946 115.934Z" fill="#2C96DF"/>
</g>
<defs>
<clipPath id="clip0_4_3295">
<rect width="220" height="220" fill="white" transform="translate(0 0.5)"/>
</clipPath>
</defs>
</svg>
