<svg width="220" height="221" viewBox="0 0 220 221" fill="none" xmlns="http://www.w3.org/2000/svg">
<g clip-path="url(#clip0_4_3300)">
<path d="M110 220.5C170.751 220.5 220 171.251 220 110.5C220 49.7487 170.751 0.5 110 0.5C49.2487 0.5 0 49.7487 0 110.5C0 171.251 49.2487 220.5 110 220.5Z" fill="#EDF0F4"/>
<path d="M61.5173 51.9659C75.1822 40.5723 92.9811 34.1627 110.788 34.5421C132.521 34.4838 153.892 44.6688 167.89 61.2341C195.099 93.2063 191.227 141.185 159.259 168.394C137.958 186.514 108.428 191.476 82.3751 181.313C75.8906 178.76 69.7781 175.349 64.2011 171.17C65.5262 161.193 70.4522 151.779 77.6451 144.769C85.5528 137.031 95.9782 132.391 107.021 131.696C109.938 131.425 112.855 131.663 115.793 131.526C127.086 131.243 138.257 133.912 148.203 139.268C149.541 139.973 151.308 140.723 151.391 142.486C151.616 144.744 149.228 145.715 147.84 147.003C151.466 146.87 154.846 145.207 157.913 143.39C160.83 141.723 161.697 137.268 159.338 134.768C155.329 130.3 151.004 126.141 146.932 121.724C145.811 120.474 144.257 119.382 143.94 117.602C140.361 104.178 131.791 92.6274 119.982 85.3091C112.784 80.6876 104.4 78.0329 95.9024 77.2411C77.6658 75.0116 59.1503 75.6784 41.043 78.6873C45.5937 68.3311 52.8575 59.2547 61.5173 51.9659Z" fill="white"/>
<path d="M117.742 98.3032C118.97 99.1882 120.099 100.203 121.109 101.329C124.793 105.004 128.494 108.663 132.149 112.372C132.932 113.093 133.631 113.899 134.232 114.777C131.357 114.877 128.481 114.844 125.61 114.777C123.877 111.026 121.905 107.376 120.105 103.65C119.276 101.887 118.225 100.208 117.742 98.3032Z" fill="white"/>
<path fill-rule="evenodd" clip-rule="evenodd" d="M105.955 28.0992C130.927 26.8742 155.105 37.0461 171.691 55.7539C201.931 89.789 198.851 141.894 164.811 172.132C159.824 176.563 154.317 180.373 148.412 183.476C127.805 194.491 102.463 195.979 80.6673 187.594C52.9948 177.044 33.0889 152.485 28.4958 123.228C25.3328 103.333 29.7709 82.3254 40.8688 65.5058C51.0585 49.8794 66.2306 38.1556 83.9221 32.2374C91.0482 29.8786 98.4586 28.4868 105.955 28.0992ZM61.514 51.9659C52.8542 59.2547 45.5904 68.3312 41.0397 78.7122C59.1469 75.7034 77.6625 75.0366 95.899 77.2661C104.396 78.0579 112.781 80.7126 119.978 85.3342C131.788 92.6523 140.357 104.203 143.937 117.627C144.175 118.97 145.119 119.909 146.05 120.835C146.352 121.137 146.654 121.437 146.929 121.749C148.778 123.76 150.684 125.717 152.589 127.674C154.87 130.016 157.151 132.359 159.335 134.793C161.694 137.293 160.844 141.744 157.91 143.415C154.843 145.232 151.463 146.895 147.837 147.028C148.18 146.71 148.584 146.411 148.994 146.108C150.245 145.182 151.557 144.212 151.388 142.511C151.312 140.918 149.862 140.162 148.597 139.502C148.462 139.432 148.329 139.363 148.2 139.293C138.255 133.929 127.082 131.254 115.786 131.534C114.548 131.592 113.309 131.583 112.071 131.574C110.392 131.561 108.713 131.549 107.034 131.705C95.9916 132.399 85.5662 137.039 77.6585 144.778C70.4656 151.779 65.5396 161.201 64.2145 171.178C69.7915 175.357 75.904 178.769 82.3885 181.322C121.512 196.562 165.586 177.196 180.822 138.068C190.965 112.029 186.004 82.5241 167.903 61.2341C153.905 44.6647 132.531 34.4836 110.81 34.5628C93.0027 34.1837 75.2038 40.593 61.5389 51.9866L61.514 51.9659ZM119.417 102.25C118.764 100.982 118.11 99.7131 117.757 98.3239L117.744 98.303C118.981 99.1913 120.117 100.211 121.133 101.345C122.083 102.294 123.035 103.241 123.987 104.189C126.724 106.913 129.46 109.637 132.172 112.389C132.955 113.109 133.654 113.916 134.256 114.794C131.38 114.898 128.505 114.864 125.633 114.794C124.633 112.65 123.569 110.545 122.506 108.441C121.704 106.854 120.902 105.268 120.128 103.666C119.902 103.191 119.659 102.72 119.417 102.25Z" fill="#333333"/>
</g>
<defs>
<clipPath id="clip0_4_3300">
<rect width="220" height="220" fill="white" transform="translate(0 0.5)"/>
</clipPath>
</defs>
</svg>
