<svg width="220" height="221" viewBox="0 0 220 221" fill="none" xmlns="http://www.w3.org/2000/svg">
<g clip-path="url(#clip0_4_3305)">
<path d="M110 220.5C170.751 220.5 220 171.251 220 110.5C220 49.7487 170.751 0.5 110 0.5C49.2487 0.5 0 49.7487 0 110.5C0 171.251 49.2487 220.5 110 220.5Z" fill="#EDF0F4"/>
<path d="M148.161 73.8333C139.826 73.8333 130.726 78.2685 121.091 87.0622C116.503 91.1916 112.527 95.6268 109.621 99.2209C109.621 99.2209 114.286 104.497 119.409 110.156C122.162 106.715 126.215 102.05 130.803 97.8444C139.367 90.0445 144.95 88.4387 148.161 88.4387C160.167 88.4387 169.955 98.3031 169.955 110.538C169.955 122.62 160.243 132.485 148.161 132.638C147.626 132.638 146.861 132.561 146.097 132.408C149.614 134.014 153.361 135.161 156.955 135.161C178.978 135.161 183.26 120.25 183.566 119.179C184.178 116.426 184.56 113.597 184.56 110.615C184.407 90.274 168.196 73.8333 148.161 73.8333Z" fill="url(#paint0_linear_4_3305)"/>
<path d="M71.233 147.167C79.568 147.167 88.6678 142.732 98.3029 133.938C102.891 129.809 106.867 125.373 109.773 121.779C109.773 121.779 105.109 116.503 99.9851 110.844C97.2324 114.285 93.1794 118.95 88.5914 123.156C80.0269 130.956 74.4446 132.561 71.233 132.561C59.2274 132.561 49.4394 122.697 49.4394 110.462C49.4394 98.3798 59.151 88.5154 71.233 88.3625C71.7683 88.3625 72.533 88.439 73.2977 88.5919C69.7801 86.986 66.0331 85.8391 62.4392 85.8391C40.4161 85.8391 36.134 100.751 35.828 101.821C35.2164 104.574 34.834 107.403 34.834 110.385C34.9104 130.65 51.1983 147.167 71.233 147.167Z" fill="url(#paint1_linear_4_3305)"/>
<path fill-rule="evenodd" clip-rule="evenodd" d="M62.5131 86.2211C73.8304 86.5271 85.6067 95.8562 87.9772 98.1502C93.6143 103.579 98.935 109.64 99.9034 110.744C99.9991 110.853 100.052 110.914 100.059 110.92C105.183 116.579 109.847 121.856 109.847 121.856L109.924 121.779C120.4 133.785 134.393 147.167 148.311 147.167C165.363 147.09 179.739 135.085 183.563 118.95C183.181 120.097 177.522 135.161 156.875 134.626C145.634 134.32 133.858 125.067 131.488 122.773C125.294 116.809 119.482 110.079 119.482 110.079C114.359 104.421 109.694 99.1443 109.694 99.1443C109.618 99.1443 109.618 99.2209 109.618 99.2209C99.2181 87.1389 85.2242 73.8333 71.307 73.8333C54.2545 73.9097 39.8784 85.8388 36.055 101.897C36.5138 99.9856 42.402 85.7624 62.5131 86.2211ZM35.9785 101.974V101.821C36.055 101.897 36.055 101.974 35.9785 101.974Z" fill="#29ABE2"/>
</g>
<defs>
<linearGradient id="paint0_linear_4_3305" x1="97.3719" y1="99.8116" x2="135.982" y2="159.206" gradientUnits="userSpaceOnUse">
<stop offset="0.21" stop-color="#F15A24"/>
<stop offset="0.6841" stop-color="#FBB03B"/>
</linearGradient>
<linearGradient id="paint1_linear_4_3305" x1="122.016" y1="121.169" x2="83.4052" y2="61.7751" gradientUnits="userSpaceOnUse">
<stop offset="0.21" stop-color="#ED1E79"/>
<stop offset="0.8929" stop-color="#522785"/>
</linearGradient>
<clipPath id="clip0_4_3305">
<rect width="220" height="220" fill="white" transform="translate(0 0.5)"/>
</clipPath>
</defs>
</svg>
