<svg width="220" height="221" viewBox="0 0 220 221" fill="none" xmlns="http://www.w3.org/2000/svg">
<g clip-path="url(#clip0_4_3310)">
<path d="M110 220.5C170.751 220.5 220 171.251 220 110.5C220 49.7487 170.751 0.5 110 0.5C49.2487 0.5 0 49.7487 0 110.5C0 171.251 49.2487 220.5 110 220.5Z" fill="#4CB8D1"/>
<path fill-rule="evenodd" clip-rule="evenodd" d="M73.2452 52.0868L70.509 57.0527L45.5868 79.8528V102.244L43.1461 106.67C41.8393 109.049 41.8393 111.938 43.1461 114.316L45.5868 118.742V168.609H73.0735L73.2452 168.913C74.5564 171.322 77.0631 172.824 79.7904 172.833H141.357C144.056 172.821 146.541 171.348 147.861 168.976L151.931 161.766L175.56 141.14V119.864L178.647 114.392C180.006 111.978 180.006 109.022 178.647 106.608L175.56 101.136V51.6851H147.661C146.28 49.4965 143.908 48.1667 141.357 48.1667H79.7904C77.0631 48.1763 74.5564 49.6776 73.2452 52.0868ZM49.6911 110.5L79.7904 55.9168H141.357L172.137 110.5L141.357 165.083H79.7904L49.6911 110.5ZM82.5749 60.8481H138.6L166.602 110.5L138.6 160.159H82.5749L55.1913 110.5L82.5749 60.8481ZM80.471 110.147L95.5206 81.9721H127.669L142.725 110.147L127.675 138.321H95.5276L80.471 110.147Z" fill="white"/>
</g>
<defs>
<clipPath id="clip0_4_3310">
<rect width="220" height="220" fill="white" transform="translate(0 0.5)"/>
</clipPath>
</defs>
</svg>
