<svg width="220" height="221" viewBox="0 0 220 221" fill="none" xmlns="http://www.w3.org/2000/svg">
<g clip-path="url(#clip0_4_3317)">
<path d="M110 220.5C170.751 220.5 220 171.251 220 110.5C220 49.7487 170.751 0.5 110 0.5C49.2487 0.5 0 49.7487 0 110.5C0 171.251 49.2487 220.5 110 220.5Z" fill="#57BEEA"/>
<path fill-rule="evenodd" clip-rule="evenodd" d="M48.4299 130.396C43.1052 131.016 37.7695 129.329 33.7695 125.76C29.7695 122.191 27.4878 117.081 27.5 111.721C27.4768 101.425 35.7557 93.0349 46.0506 92.9211C52.6906 62.4186 79.7347 39.5867 112.077 39.5867C118.115 39.5867 123.974 40.3822 129.542 41.8692C133 36.6423 138.85 33.4991 145.118 33.5C155.475 33.5268 163.85 41.9425 163.827 52.2995C163.827 55.5434 163.011 58.5938 161.572 61.2497C173.231 73.8242 179.696 90.3469 179.667 107.494C179.698 125.636 172.465 143.035 159.581 155.807C161.835 158.906 163.163 162.731 163.163 166.867C163.174 171.842 161.209 176.618 157.699 180.143C154.189 183.669 149.422 185.656 144.447 185.667C136.738 185.658 129.823 180.925 127.024 173.742C122.121 174.85 117.11 175.407 112.084 175.402C82.7503 175.402 57.7812 156.631 48.4299 130.396ZM51.819 129.669C60.8106 154.348 84.3965 171.965 112.077 171.965C116.884 171.965 121.567 171.432 126.069 170.429C124.993 164.933 126.43 159.243 129.986 154.916C133.542 150.589 138.846 148.077 144.447 148.068C149.427 148.068 153.964 150.025 157.312 153.214C169.457 141.102 176.27 124.647 176.243 107.494C176.243 90.8254 169.949 75.6364 159.608 64.1962C156.178 68.4153 150.962 71.1059 145.118 71.1059C140.142 71.0949 135.374 69.1072 131.864 65.58C128.353 62.0529 126.388 57.2756 126.401 52.2995C126.401 49.7127 126.927 47.2434 127.868 44.9956C122.706 43.6864 117.402 43.0265 112.077 43.0311C81.533 43.0311 55.969 64.4797 49.5019 93.2117C58.4452 94.8353 64.9417 102.631 64.9261 111.721C64.9391 119.924 59.6312 127.188 51.8121 129.669H51.819ZM98.8125 120.787C102.325 124.318 107.096 126.309 112.077 126.322C117.059 126.311 121.832 124.321 125.346 120.79C128.86 117.259 130.827 112.476 130.814 107.494C130.814 97.0987 122.424 88.6742 112.077 88.6742C101.73 88.6742 93.3466 97.0987 93.3466 107.494C93.3338 112.475 95.2998 117.257 98.8125 120.787Z" fill="white"/>
</g>
<defs>
<clipPath id="clip0_4_3317">
<rect width="220" height="220" fill="white" transform="translate(0 0.5)"/>
</clipPath>
</defs>
</svg>
