<svg width="220" height="221" viewBox="0 0 220 221" fill="none" xmlns="http://www.w3.org/2000/svg">
<g clip-path="url(#clip0_4_3320)">
<path d="M110 220.5C170.751 220.5 220 171.251 220 110.5C220 49.7487 170.751 0.5 110 0.5C49.2487 0.5 0 49.7487 0 110.5C0 171.251 49.2487 220.5 110 220.5Z" fill="#EDF0F4"/>
<path fill-rule="evenodd" clip-rule="evenodd" d="M51.334 76.4978L109.933 42.6667L168.532 76.4978V144.16L109.933 177.991L51.334 144.16V76.4978ZM66.153 126.606L111.131 152.26L154.286 127.284L128.971 112.673L134.076 109.704L123.893 103.87L118.84 106.813L111.73 102.698L117.954 99.1041L107.771 93.2702L101.599 96.8643L89.5144 89.8844L111.105 77.4354L140.951 94.5464L151.89 88.1915L111.105 64.9344L67.8719 89.8844L90.8166 103.141L86.4933 105.641L96.6765 111.475L100.974 108.975L108.084 113.09L102.641 116.241L112.798 122.075L118.215 118.95L132.695 127.31L111.105 139.759L66.3352 114.131L66.153 126.606Z" fill="black"/>
</g>
<defs>
<clipPath id="clip0_4_3320">
<rect width="220" height="220" fill="white" transform="translate(0 0.5)"/>
</clipPath>
</defs>
</svg>
