<svg width="220" height="221" viewBox="0 0 220 221" fill="none" xmlns="http://www.w3.org/2000/svg">
<g clip-path="url(#clip0_4_3323)">
<path d="M110 220.5C170.751 220.5 220 171.251 220 110.5C220 49.7487 170.751 0.5 110 0.5C49.2487 0.5 0 49.7487 0 110.5C0 171.251 49.2487 220.5 110 220.5Z" fill="#102044"/>
<path fill-rule="evenodd" clip-rule="evenodd" d="M171.493 141.871C171.465 138.578 169.415 135.636 166.32 134.446V88.5426C169.483 88.5085 172.324 86.5985 173.548 83.6828C174.772 80.7671 174.145 77.4033 171.953 75.1235C169.76 72.8438 166.422 72.0844 163.458 73.191C161.47 73.1842 159.564 73.913 158.099 75.233L118.007 52.2846C118.503 49.9306 117.909 47.4785 116.391 45.6118C114.872 43.7449 112.592 42.6627 110.185 42.6666C107.847 42.6585 105.624 43.6749 104.101 45.4477C102.579 47.2206 101.911 49.5711 102.274 51.8789L61.2046 75.391C58.7909 73.1087 55.2219 72.5435 52.2202 73.968C49.2141 75.391 47.4185 78.5053 47.6937 81.7915C47.9826 85.0882 50.284 87.8617 53.4722 88.7558V134.24C49.6447 135.31 47.1989 139.044 47.7487 142.978C48.3216 146.913 51.7081 149.825 55.6874 149.805C57.3038 149.809 58.8831 149.319 60.2139 148.402L81.5259 160.578V160.818H81.9868L102.212 172.389C102.321 176.791 105.979 180.272 110.384 180.164C112.605 180.128 114.71 179.167 116.193 177.514C117.675 175.86 118.4 173.664 118.192 171.454L159.674 148.835C162.153 150.177 165.154 150.125 167.585 148.698C170.008 147.277 171.496 144.679 171.493 141.871ZM137.991 155.607V116.537H137.963L137.929 116.352L137.901 115.925L136.945 115.472L130.939 111.897L137.22 108.143L138.204 107.682L138.273 105.304H138.3V68.9767L155.726 78.959C155.526 79.6673 155.423 80.396 155.423 81.1246C155.439 84.9198 158.129 88.1778 161.855 88.9139V134.082C159.397 134.581 157.318 136.206 156.24 138.469C155.162 140.732 155.211 143.369 156.372 145.59L137.991 155.607ZM110.199 58.5407C107.915 58.5407 105.741 57.5782 104.221 55.8801L85.9906 66.323V104.905L93.4752 109.36L102.927 103.805C102.532 101.736 103.084 99.5989 104.432 97.9793C105.78 96.3598 107.781 95.4275 109.889 95.4381C111.945 95.4336 113.9 96.3253 115.243 97.8803C116.586 99.4352 117.183 101.498 116.878 103.53L126.64 109.332L133.877 105.001V66.4399L115.895 56.1482C114.395 57.6772 112.341 58.5372 110.199 58.5339V58.5407ZM122.327 111.958L114.877 116.441C112.167 113.779 107.843 113.713 105.053 116.29L97.7265 111.924L105.087 107.655C107.87 110.186 112.143 110.117 114.842 107.497L122.327 111.958ZM63.0895 144.951L81.5259 155.511V117.754L81.5603 116.537L81.8698 116.228L83.4109 115.313L89.1344 111.958L83.9611 108.906L81.5603 107.682V106.218H81.5328V68.853L63.4541 79.2065C64.5204 83.3315 62.0782 87.5526 57.9507 88.7283V134.267C60.1314 134.9 61.9407 136.433 62.9243 138.468C63.9081 140.51 63.97 142.868 63.0895 144.951ZM116.569 167.329C115.069 165.321 112.71 164.153 110.199 164.153C107.385 164.146 104.778 165.603 103.333 167.996L85.9631 158.048V118.765L93.3514 114.461L102.934 120.14C102.572 122.192 103.137 124.298 104.478 125.894C105.819 127.49 107.797 128.411 109.882 128.41C113.803 128.41 116.968 125.268 116.968 121.384C116.968 121.04 116.94 120.697 116.871 120.353L126.64 114.488L133.561 118.613V158.048L116.569 167.329Z" fill="white"/>
</g>
<defs>
<clipPath id="clip0_4_3323">
<rect width="220" height="220" fill="white" transform="translate(0 0.5)"/>
</clipPath>
</defs>
</svg>
