<svg width="220" height="221" viewBox="0 0 220 221" fill="none" xmlns="http://www.w3.org/2000/svg">
<g clip-path="url(#clip0_4_3326)">
<path d="M110 220.5C170.751 220.5 220 171.251 220 110.5C220 49.7487 170.751 0.5 110 0.5C49.2487 0.5 0 49.7487 0 110.5C0 171.251 49.2487 220.5 110 220.5Z" fill="black"/>
<path fill-rule="evenodd" clip-rule="evenodd" d="M149.615 47.2326C149.615 51.7743 145.977 55.471 141.5 55.471C137.022 55.471 133.384 51.7978 133.384 47.256C133.384 42.7143 137.022 39.0235 141.5 39C145.977 39 149.615 42.6909 149.615 47.2326ZM150.765 69.9006C150.794 73.7244 147.717 76.8479 143.894 76.8768C140.091 76.8768 137.022 73.7616 137.022 69.9006C137.022 66.0396 140.097 62.9237 143.894 62.9237C147.69 62.9237 150.765 66.0631 150.765 69.9006ZM162.759 79.6054C166.538 79.6054 169.612 76.4897 169.612 72.6463C169.612 68.8029 166.538 65.6869 162.759 65.6869C158.98 65.6869 155.905 68.8029 155.905 72.6463C155.905 76.4897 158.986 79.6054 162.759 79.6054ZM166.356 91.9749C166.356 95.2549 163.733 97.9189 160.494 97.9189C157.255 97.9189 154.632 95.2549 154.632 91.9749C154.632 88.6947 157.255 86.0307 160.494 86.0307C163.733 86.0307 166.356 88.6947 166.356 91.9749ZM175.598 103.857C178.86 103.857 181.501 101.176 181.501 97.872C181.501 94.5685 178.86 91.8869 175.598 91.8869C174.021 91.8977 172.513 92.5344 171.407 93.6568C170.299 94.7794 169.684 96.2955 169.695 97.872C169.695 101.176 172.341 103.857 175.598 103.857ZM145.775 93.6476C144.648 94.7878 143.114 95.4335 141.511 95.4428C138.19 95.4428 135.503 92.6967 135.503 89.3519C135.503 85.9837 138.184 83.2611 141.511 83.2611C144.838 83.2611 147.52 85.9896 147.52 89.3519V89.3637C147.529 90.9666 146.902 92.5077 145.775 93.6476ZM136.066 110.013C138.853 110.013 141.101 107.724 141.101 104.913C141.123 102.12 138.877 99.8371 136.084 99.8142H136.066C133.279 99.8142 131.031 102.103 131.031 104.913C131.031 107.724 133.279 110.013 136.066 110.013ZM158.506 111.091C157.569 112.041 156.294 112.579 154.96 112.589H154.912C153.584 112.571 152.316 112.027 151.389 111.075C150.461 110.124 149.95 108.842 149.967 107.513C149.967 104.709 152.197 102.438 154.96 102.438C157.724 102.438 159.954 104.709 159.954 107.513V107.526C159.963 108.859 159.442 110.142 158.506 111.091ZM170.023 118.503C172.81 118.503 175.058 116.215 175.058 113.387C175.058 110.558 172.81 108.27 170.023 108.27C167.236 108.27 164.989 110.558 164.989 113.387C164.959 116.183 167.202 118.474 169.999 118.503H170.023ZM166.837 125.245C166.837 127.616 164.936 129.558 162.583 129.558C160.23 129.558 158.329 127.616 158.329 125.245C158.329 122.875 160.23 120.933 162.583 120.933C164.936 120.933 166.837 122.875 166.837 125.245ZM147.45 123.737C149.844 123.737 151.804 121.754 151.804 119.319C151.804 116.884 149.861 114.901 147.45 114.901C145.038 114.901 143.096 116.884 143.096 119.319C143.096 121.754 145.055 123.737 147.45 123.737ZM132.888 116.664C132.886 119.054 130.968 121.001 128.579 121.038H128.573C126.183 120.997 124.268 119.048 124.269 116.658C124.271 114.268 126.189 112.321 128.579 112.283H128.584C130.974 112.324 132.889 114.274 132.888 116.664ZM139.07 131.424C141.153 131.424 142.826 129.711 142.826 127.628C142.845 125.551 141.177 123.851 139.1 123.831H139.07C136.987 123.831 135.315 125.545 135.315 127.628C135.292 129.702 136.955 131.401 139.029 131.424H139.07ZM157.994 133.507C157.994 135.632 156.281 137.345 154.198 137.345C152.078 137.345 150.36 135.627 150.36 133.507C150.36 131.388 152.078 129.67 154.198 129.67C156.304 129.67 157.994 131.383 157.994 133.507ZM145.678 141.787C147.326 141.787 148.67 140.426 148.67 138.753C148.68 137.09 147.341 135.733 145.678 135.72C144.029 135.72 142.685 137.081 142.685 138.753C142.682 140.414 144.017 141.768 145.678 141.787ZM139.523 143.36C139.016 143.874 138.325 144.165 137.603 144.169L137.55 144.169C136.06 144.143 134.872 142.914 134.898 141.423V141.416C134.894 140.694 135.176 140 135.683 139.486C136.191 138.973 136.881 138.681 137.603 138.677C139.088 138.677 140.308 139.898 140.308 141.423V141.43C140.313 142.152 140.03 142.846 139.523 143.36ZM130.533 136.271C132.31 136.271 133.754 134.804 133.754 133.009C133.754 131.213 132.31 129.746 130.533 129.746C128.755 129.746 127.311 131.213 127.311 133.009C127.308 134.796 128.745 136.252 130.533 136.271ZM123.914 124.993C123.914 127.1 122.224 128.79 120.158 128.79C118.076 128.77 116.4 127.075 116.403 124.993C116.403 122.887 118.093 121.197 120.158 121.197C122.241 121.197 123.914 122.887 123.914 124.993ZM150.923 176.354C155.383 176.354 158.997 172.681 158.997 168.157C158.997 163.633 155.383 159.96 150.923 159.96C146.464 159.96 142.849 163.633 142.849 168.157C142.849 172.681 146.464 176.354 150.923 176.354ZM137.146 159.15C137.146 162.923 134.13 165.98 130.415 165.98C126.695 165.98 123.685 162.923 123.685 159.15C123.685 155.377 126.701 152.32 130.415 152.32C134.13 152.32 137.146 155.377 137.146 159.15ZM118.697 180.996C122.453 180.996 125.486 177.921 125.486 174.101C125.486 170.305 122.453 167.206 118.697 167.206C114.942 167.206 111.908 170.281 111.908 174.101C111.879 177.88 114.919 180.967 118.697 180.996ZM119.349 151.564C118.246 152.683 116.742 153.318 115.171 153.329C111.932 153.329 109.291 150.647 109.285 147.361C109.274 145.79 109.888 144.278 110.992 143.159C112.096 142.04 113.599 141.405 115.171 141.394C116.742 141.405 118.246 142.04 119.349 143.159C120.453 144.278 121.067 145.79 121.056 147.361C121.067 148.933 120.453 150.445 119.349 151.564ZM103.482 168.55C106.721 168.55 109.344 165.886 109.344 162.606C109.344 159.326 106.721 156.662 103.482 156.662C100.243 156.662 97.6198 159.326 97.6198 162.606C97.5877 165.856 100.196 168.517 103.446 168.55H103.482ZM96.7281 172.951C96.7281 176.214 94.1227 178.878 90.8836 178.878C87.6622 178.878 85.0393 176.214 85.0393 172.951C85.0393 169.689 87.6446 167.025 90.8836 167.025C94.1051 167.025 96.7281 169.671 96.7281 172.951ZM80.3978 165.434C83.1702 165.409 85.4013 163.149 85.3913 160.376C85.3913 157.589 83.1616 155.318 80.3978 155.318C77.6343 155.36 75.4161 157.612 75.4161 160.376C75.4161 163.14 77.6343 165.392 80.3978 165.434ZM98.013 150.002C98.0294 152.777 95.7945 155.041 93.0194 155.06H93.0018C90.2382 155.013 88.0238 152.757 88.0285 149.993C88.0335 147.229 90.2558 144.981 93.0194 144.944C95.7832 144.944 98.013 147.197 98.013 150.002ZM104.796 139.845C106.13 139.836 107.405 139.297 108.342 138.348C109.278 137.398 109.799 136.116 109.79 134.782V134.77C109.79 131.965 107.56 129.694 104.796 129.694C103.463 129.703 102.187 130.242 101.251 131.191C100.314 132.14 99.7936 133.423 99.8027 134.757V134.769C99.8027 137.574 102.032 139.845 104.796 139.845ZM91.1182 137.544C91.1182 139.98 89.176 141.939 86.782 141.939C84.3879 141.939 82.4457 139.98 82.4457 137.544C82.4457 135.109 84.3879 133.15 86.782 133.15C89.176 133.15 91.1182 135.109 91.1182 137.544ZM74.2248 152.273C75.3703 152.267 76.4662 151.806 77.2718 150.991C78.0772 150.177 78.5264 149.076 78.5201 147.931V147.919C78.5429 145.537 76.6307 143.588 74.2488 143.565H74.2248C73.0793 143.571 71.9834 144.032 71.1778 144.846C70.3724 145.661 69.9233 146.762 69.9295 147.907V147.919C69.9218 149.066 70.3699 150.169 71.1754 150.985C71.981 151.802 73.0779 152.265 74.2248 152.273ZM75.0522 136.406C75.0586 138.467 73.3985 140.145 71.3379 140.161C69.2959 140.161 67.6235 138.489 67.6235 136.406C67.6235 134.341 69.2959 132.651 71.3379 132.651C73.3798 132.651 75.0522 134.323 75.0522 136.406ZM71.2323 129.535C72.0835 129.527 72.8967 129.181 73.4933 128.574C74.0897 127.967 74.4204 127.147 74.4125 126.296C74.4125 124.518 72.9868 123.057 71.2323 123.057C69.4778 123.057 68.0518 124.5 68.0518 126.296C68.0518 128.091 69.4778 129.535 71.2323 129.535ZM75.686 117.952C75.686 119.46 74.4888 120.698 72.9809 120.698C71.4728 120.698 70.2758 119.46 70.2758 117.952C70.2758 116.444 71.4728 115.206 72.9809 115.206C74.4653 115.206 75.686 116.444 75.686 117.952ZM83.8069 119.219C85.5849 119.219 87.0284 117.752 87.0284 115.957C87.0284 114.161 85.5849 112.694 83.8069 112.694C82.0289 112.694 80.5855 114.161 80.5855 115.957C80.5789 117.745 82.0185 119.203 83.8069 119.219ZM99.4447 110.793C99.4447 112.876 97.7549 114.589 95.6893 114.589H95.6717C94.6727 114.582 93.7175 114.177 93.0165 113.465C92.3156 112.753 91.9262 111.792 91.9339 110.793C91.9339 108.71 93.6239 106.996 95.6893 106.996H95.7194C97.7963 107.016 99.4643 108.716 99.4447 110.793ZM98.5176 126.642C100.871 126.637 102.775 124.727 102.772 122.374C102.77 120.021 100.862 118.115 98.5088 118.115C96.1559 118.115 94.2477 120.021 94.2454 122.374C94.2428 124.727 96.1471 126.637 98.5 126.642H98.5176ZM87.674 126.073C87.674 128.162 86.0251 129.852 83.9596 129.852L83.9173 129.851C82.9293 129.837 81.9873 129.431 81.2987 128.723C80.6101 128.014 80.2312 127.061 80.2453 126.073V126.055C80.2389 125.063 80.6268 124.11 81.3235 123.405C82.0199 122.7 82.9683 122.3 83.9596 122.294C86.0016 122.294 87.674 123.984 87.674 126.073ZM42.8847 124.248C47.3208 124.248 50.9354 120.592 50.9354 116.092C50.9354 111.591 47.3208 107.935 42.8847 107.935C38.4486 107.935 34.834 111.597 34.834 116.098C34.834 120.598 38.4486 124.248 42.8847 124.248ZM68.0518 102.684C68.0518 106.545 64.9771 109.684 61.1572 109.684C57.3607 109.684 54.2624 106.568 54.2624 102.684V102.671C54.2367 98.8378 57.3235 95.7092 61.1572 95.6834C64.9536 95.6834 68.0518 98.8226 68.0518 102.684ZM54.0277 91.7285C57.8242 91.7285 60.8813 88.6126 60.8813 84.7692C60.8813 80.9258 57.8066 77.8098 54.0277 77.8098C52.1977 77.8221 50.4474 78.5609 49.162 79.8637C47.8767 81.1667 47.1615 82.9267 47.174 84.7569V84.7692C47.1353 88.5735 50.1876 91.6891 53.992 91.7285H54.0277ZM77.5285 77.2525C77.5285 80.556 74.882 83.22 71.6429 83.22C68.404 83.22 65.7576 80.556 65.7576 77.2525C65.7576 73.9488 68.3981 71.2848 71.6429 71.2848C74.8879 71.2848 77.5285 73.9488 77.5285 77.2525ZM78.8428 101.135C82.1054 101.135 84.7458 98.453 84.7458 95.1493C84.7458 91.8458 82.1054 89.1642 78.8428 89.1642C75.5802 89.1642 72.9398 91.8458 72.9398 95.1493C72.9398 98.453 75.5802 101.135 78.8428 101.135ZM99.8907 92.3157C99.9129 95.109 97.6669 97.3915 94.8738 97.4144L94.8379 97.415C92.0545 97.3821 89.8245 95.0993 89.8567 92.3157V92.1621C89.8842 90.3696 90.8658 88.7281 92.4318 87.8556C93.9979 86.9833 95.9102 87.0124 97.4487 87.9326C98.9873 88.8525 99.9182 90.5234 99.8907 92.3157ZM108.722 97.4613C111.116 97.4613 113.058 95.5015 113.058 93.0839C113.058 90.6663 111.116 88.7064 108.722 88.7064C106.304 88.7064 104.344 90.6663 104.344 93.0839C104.344 95.5015 106.304 97.4613 108.722 97.4613ZM123.82 96.3993C123.82 98.4471 122.165 100.096 120.164 100.096C118.157 100.096 116.532 98.4236 116.508 96.3993C116.502 94.3707 118.136 92.7183 120.164 92.7025C122.188 92.7025 123.82 94.3513 123.82 96.3993ZM121.655 86.6117C123.422 86.599 124.845 85.1575 124.835 83.3901C124.835 81.6122 123.409 80.1688 121.655 80.1688C119.9 80.1688 118.474 81.6122 118.474 83.3901C118.464 85.1575 119.887 86.599 121.655 86.6117ZM116.509 78.5294C116.511 80.5518 114.875 82.1941 112.853 82.199H112.835C110.812 82.1941 109.176 80.5518 109.179 78.5294C109.181 76.5071 110.821 74.869 112.844 74.869C114.866 74.869 116.506 76.5071 116.509 78.5294ZM101.546 79.5233C103.933 79.504 105.854 77.5565 105.841 75.1693C105.841 72.7518 103.922 70.8155 101.546 70.8155C99.169 70.8155 97.2502 72.7753 97.2502 75.1693C97.2408 76.3147 97.6869 77.4169 98.4903 78.2335C99.2934 79.0501 100.388 79.5139 101.534 79.5233H101.546ZM92.7554 74.4418C92.7554 77.2525 90.5081 79.5409 87.7209 79.5409C84.9258 79.515 82.6765 77.2369 82.6862 74.4418C82.6862 71.6311 84.9337 69.3426 87.7209 69.3426C90.5081 69.3426 92.7554 71.6311 92.7554 74.4418ZM69.1021 66.79C72.2591 66.79 74.7999 64.2081 74.7999 61.0103C74.7999 57.8124 72.2415 55.2305 69.1021 55.2305C65.9453 55.2305 63.4045 57.8124 63.4045 61.0103C63.4045 64.2081 65.9629 66.79 69.1021 66.79ZM90.1618 58.1879C90.1618 60.9985 87.9145 63.2869 85.1273 63.2869C82.3401 63.2869 80.0926 60.9985 80.0926 58.1879C80.0926 55.3772 82.3401 53.0886 85.1273 53.0886C87.9145 53.0886 90.1618 55.3772 90.1618 58.1879ZM98.9695 63.3516C101.364 63.3516 103.306 61.3916 103.306 58.9566C103.306 56.5214 101.364 54.5615 98.9695 54.5615C97.8132 54.5677 96.7068 55.0331 95.8935 55.8551C95.0802 56.677 94.6269 57.7885 94.6331 58.9448V58.9566C94.623 61.3652 96.561 63.3292 98.9695 63.3516ZM113.985 62.2718C113.985 64.3198 112.354 65.9685 110.33 65.9685C108.288 65.9685 106.633 64.3136 106.633 62.2718C106.633 60.2302 108.288 58.575 110.33 58.575C112.354 58.575 113.985 60.2239 113.985 62.2718ZM119.055 70.4985C120.868 70.4857 122.327 69.0075 122.318 67.195C122.318 65.3584 120.851 63.8913 119.055 63.8913C117.26 63.8913 115.793 65.376 115.793 67.195C115.793 69.0141 117.26 70.4985 119.055 70.4985ZM127.36 74.8945C126.857 75.4039 126.173 75.6929 125.457 75.6975L125.416 75.6969C124.705 75.6863 124.027 75.3935 123.532 74.8829C123.036 74.3723 122.764 73.6859 122.775 72.9748V72.9689C122.771 72.253 123.051 71.5646 123.553 71.0551C124.056 70.5456 124.741 70.2567 125.457 70.2521H125.463C126.179 70.2583 126.863 70.5487 127.365 71.0593C127.866 71.5699 128.145 72.2589 128.139 72.9748V72.9806C128.143 73.6966 127.863 74.385 127.36 74.8945Z" fill="white"/>
</g>
<defs>
<clipPath id="clip0_4_3326">
<rect width="220" height="220" fill="white" transform="translate(0 0.5)"/>
</clipPath>
</defs>
</svg>
