<svg width="220" height="221" viewBox="0 0 220 221" fill="none" xmlns="http://www.w3.org/2000/svg">
<g clip-path="url(#clip0_4_3329)">
<path d="M110 220.5C170.751 220.5 220 171.251 220 110.5C220 49.7487 170.751 0.5 110 0.5C49.2487 0.5 0 49.7487 0 110.5C0 171.251 49.2487 220.5 110 220.5Z" fill="#00D4D5"/>
<path d="M112.678 35.3333V72.8313L145.26 54.1064L112.678 35.3333Z" fill="white"/>
<path opacity="0.9" d="M145.256 54.1064V91.6045L177.831 72.8314L145.256 54.1064Z" fill="white"/>
<path opacity="0.8" fill-rule="evenodd" clip-rule="evenodd" d="M112.678 110.329V72.8313L145.26 91.6045L112.678 110.329ZM145.26 129.103V91.6112L177.835 110.329L145.26 129.103Z" fill="white"/>
<path opacity="0.8" d="M112.678 110.33V147.828L145.26 129.103L112.678 110.33Z" fill="white"/>
<path d="M145.256 129.103V166.601L177.831 147.828L145.256 129.103Z" fill="white"/>
<path opacity="0.4" d="M28.4668 71.5671V109.065L61.0486 90.2923L28.4668 71.5671Z" fill="white"/>
<path opacity="0.2" d="M69.5664 85.5095V123.008L102.093 104.283L69.5664 85.5095Z" fill="white"/>
<path opacity="0.3" d="M45.418 109.223V146.721L77.993 127.948L45.418 109.223Z" fill="white"/>
<path opacity="0.9" d="M66.8809 137.521V175.019L99.4079 156.245L66.8809 137.521Z" fill="white"/>
<path opacity="0.7" d="M112.406 153.662V191.167L144.933 172.387L112.406 153.662Z" fill="white"/>
<path opacity="0.9" d="M74.9941 66.9905V104.495L107.521 85.7704L74.9941 66.9905Z" fill="white"/>
<path opacity="0.8" d="M112.676 35.3333V72.8313L80.0938 54.1064L112.676 35.3333Z" fill="white"/>
<path opacity="0.6" d="M74.9909 51.2754V88.7667L42.4023 69.9935L74.9909 51.2754Z" fill="white"/>
<path opacity="0.6" d="M107.576 69.8286V107.333L74.9941 88.5535L107.576 69.8286Z" fill="white"/>
<path opacity="0.95" d="M69.414 85.5095V123.008L36.832 104.283L69.414 85.5095Z" fill="white"/>
<path opacity="0.6" d="M112.677 110.33V147.828L80.1504 129.103L112.677 110.33Z" fill="white"/>
<path opacity="0.55" d="M45.4158 119.063V156.561L12.834 137.781L45.4158 119.063Z" fill="white"/>
<path d="M177.831 72.8313V110.329L145.256 91.6045L177.831 72.8313Z" fill="white"/>
<path opacity="0.95" d="M145.26 91.6113V129.103L112.678 110.329L145.26 91.6113Z" fill="white"/>
<path opacity="0.9" d="M177.831 110.33V147.828L145.256 129.103L177.831 110.33Z" fill="white"/>
<path opacity="0.7" d="M145.26 129.103V166.601L112.678 147.828L145.26 129.103Z" fill="white"/>
<path opacity="0.4" d="M105.464 144.729V182.227L72.8887 163.501L105.464 144.729Z" fill="white"/>
<path d="M145.26 54.1064V91.6045L112.678 72.8314L145.26 54.1064Z" fill="white"/>
</g>
<defs>
<clipPath id="clip0_4_3329">
<rect width="220" height="220" fill="white" transform="translate(0 0.5)"/>
</clipPath>
</defs>
</svg>
