<svg width="220" height="221" viewBox="0 0 220 221" fill="none" xmlns="http://www.w3.org/2000/svg">
<g clip-path="url(#clip0_4_3354)">
<path d="M110 220.5C170.751 220.5 220 171.251 220 110.5C220 49.7487 170.751 0.5 110 0.5C49.2487 0.5 0 49.7487 0 110.5C0 171.251 49.2487 220.5 110 220.5Z" fill="black"/>
<path d="M56.9552 88.8348C60.2313 85.4919 65.3364 84.7485 69.4301 87.018L112.063 111.241L69.3089 135.465C65.2138 137.725 60.1142 136.983 56.834 133.648C56.9552 133.648 56.9552 85.9281 56.9552 88.8348Z" fill="url(#paint0_linear_4_3354)"/>
<path d="M158.451 76.481C159.618 80.839 157.671 85.4326 153.727 87.6236L112.063 111.241L69.3089 87.0181C65.2138 84.7572 60.1142 85.4999 56.834 88.8349C56.8916 83.5281 59.8091 78.6657 64.4643 76.1176L103.706 53.8323C108.401 51.1672 114.151 51.1672 118.845 53.8323L158.451 76.481Z" fill="url(#paint1_linear_4_3354)"/>
<path d="M69.3089 135.464L153.727 87.6236C157.724 85.3224 158.693 80.72 157.603 76.481C162.084 79.1455 163.901 83.9901 163.901 89.0771V133.527C163.901 138.856 161.842 143.7 157.239 146.365L118.482 168.529C113.874 171.193 108.193 171.193 103.585 168.529L64.3431 146.365C59.7934 143.726 56.9477 138.906 56.834 133.648C60.1142 136.983 65.2138 137.725 69.3089 135.464Z" fill="url(#paint2_linear_4_3354)"/>
</g>
<defs>
<linearGradient id="paint0_linear_4_3354" x1="85.0002" y1="148.491" x2="105.906" y2="106.114" gradientUnits="userSpaceOnUse">
<stop stop-color="#00DAD9"/>
<stop offset="1" stop-color="#095FA7"/>
</linearGradient>
<linearGradient id="paint1_linear_4_3354" x1="53.4438" y1="67.0061" x2="63.3803" y2="117.694" gradientUnits="userSpaceOnUse">
<stop stop-color="#0BF7DF"/>
<stop offset="1" stop-color="#0095FF"/>
</linearGradient>
<linearGradient id="paint2_linear_4_3354" x1="132.865" y1="51.9632" x2="45.4796" y2="131.265" gradientUnits="userSpaceOnUse">
<stop stop-color="#00FCC6"/>
<stop offset="1" stop-color="#0095FF"/>
</linearGradient>
<clipPath id="clip0_4_3354">
<rect width="220" height="220" fill="white" transform="translate(0 0.5)"/>
</clipPath>
</defs>
</svg>
