<svg width="220" height="221" viewBox="0 0 220 221" fill="none" xmlns="http://www.w3.org/2000/svg">
<g clip-path="url(#clip0_4_3359)">
<path d="M110 220.5C170.751 220.5 220 171.251 220 110.5C220 49.7487 170.751 0.5 110 0.5C49.2487 0.5 0 49.7487 0 110.5C0 171.251 49.2487 220.5 110 220.5Z" fill="#EDF0F4"/>
<path fill-rule="evenodd" clip-rule="evenodd" d="M81.1811 143.456L47.5357 147.24L67.2917 101.656L47.0664 74.0828L96.2437 68.4801L109.605 37.7534L138.88 77.5441L172.525 73.7601L152.857 119.124L172.936 146.507L124.008 152.08L110.441 183.247L81.1811 143.456ZM95.1584 140.435C93.8677 141.065 92.4891 141.593 91.0664 141.989L89.7757 142.341L108.74 168.125L115.472 152.637L114.254 152.476C107.625 151.64 101.597 148.061 97.7104 142.693L95.8184 140.083L95.1584 140.435ZM103.856 138.22L88.5584 117.056L108.329 114.577L128.129 140.787L139.51 115.076L140.449 115.853C141.461 116.704 142.37 117.672 143.162 118.743L159.061 140.435L119.138 144.981C118.537 145.055 117.921 145.084 117.305 145.084C111.996 145.084 106.965 142.517 103.856 138.22ZM89.2184 91.2868C83.2931 91.9174 78.1304 95.7161 75.7544 101.201L59.7237 138.205L86.3584 135.213C87.6784 135.067 88.9691 134.759 90.2157 134.304L91.3597 133.879L74.8744 111.116L107.376 106.995L115.105 88.5294L89.2184 91.2868ZM126.413 125.9L114.372 109.957L127.073 79.6121L99.2211 82.5601L99.4264 81.3574C99.6611 80.0374 100.042 78.7614 100.57 77.5441L111.306 52.8748L135.169 85.3467C138.718 90.1574 139.408 96.5374 136.988 102.008L133.761 109.312L126.413 125.9ZM143.632 84.6721L144.101 85.8014C146.682 91.9761 146.624 99.0161 143.925 105.103L142.62 108.036L143.25 108.461C144.453 109.268 145.582 110.207 146.624 111.248L147.577 112.187L160.322 82.7801L143.632 84.6721ZM71.0904 94.0001L60.9411 80.1548L92.8411 76.5174L92.4744 77.8374C92.0491 79.3921 91.7704 80.9908 91.6677 82.5894L91.6091 83.3668L88.4264 83.7041C81.9291 84.3934 75.8717 87.7961 71.8384 93.0321L71.0904 94.0001Z" fill="url(#paint0_linear_4_3359)"/>
<path d="M102.902 183.833C81.7822 181.795 62.8035 170.809 50.3809 153.4L58.8875 152.447C60.2955 154.177 61.7915 155.835 63.3315 157.389C72.5569 166.659 84.0995 172.907 96.7569 175.488L102.902 183.833Z" fill="url(#paint1_linear_4_3359)"/>
<path d="M120.622 175.957C134.321 173.743 146.773 167.333 156.673 157.389C157.553 156.495 158.448 155.541 159.342 154.544L169.653 153.371C157.274 170.765 138.325 181.765 117.205 183.833L120.622 175.957Z" fill="url(#paint2_linear_4_3359)"/>
<path d="M171.746 134.011C174.562 126.516 175.999 118.611 175.999 110.5C175.999 103.343 174.87 96.3027 172.655 89.5853L176.791 80.052C181.133 89.6293 183.333 99.8667 183.333 110.5C183.333 121.119 181.133 131.341 176.806 140.919L171.746 134.011Z" fill="url(#paint3_linear_4_3359)"/>
<path d="M43.2367 141.021C38.8807 131.415 36.666 121.163 36.666 110.5C36.666 99.7787 38.8954 89.468 43.31 79.832L48.3553 86.7254C45.466 94.2934 43.9993 102.287 43.9993 110.5C43.9993 117.687 45.1287 124.741 47.358 131.488L43.2367 141.021Z" fill="url(#paint4_linear_4_3359)"/>
<path d="M50.6895 67.1747C63.0975 50.0441 81.9295 39.1907 102.859 37.1667L99.4414 45.0281C85.7281 47.2281 73.2468 53.6521 63.3321 63.6107C62.5841 64.3587 61.8361 65.1654 61.0881 65.9867L50.6895 67.1747Z" fill="url(#paint5_linear_4_3359)"/>
<path d="M161.125 68.5534C159.717 66.8227 158.221 65.1654 156.666 63.6107C147.456 54.3561 135.928 48.1081 123.3 45.5267L117.154 37.1667C138.26 39.2201 157.209 50.2054 169.617 67.6001L161.125 68.5534Z" fill="url(#paint6_linear_4_3359)"/>
</g>
<defs>
<linearGradient id="paint0_linear_4_3359" x1="100.246" y1="235.651" x2="228.449" y2="139.699" gradientUnits="userSpaceOnUse">
<stop stop-color="#009DDE"/>
<stop offset="0.5" stop-color="#694D9F"/>
<stop offset="1" stop-color="#ED3554"/>
</linearGradient>
<linearGradient id="paint1_linear_4_3359" x1="158.957" y1="216.197" x2="208.13" y2="78.5066" gradientUnits="userSpaceOnUse">
<stop stop-color="#009DDE"/>
<stop offset="0.5" stop-color="#694D9F"/>
<stop offset="1" stop-color="#ED3554"/>
</linearGradient>
<linearGradient id="paint2_linear_4_3359" x1="194.363" y1="247.875" x2="240.7" y2="110.518" gradientUnits="userSpaceOnUse">
<stop stop-color="#009DDE"/>
<stop offset="0.5" stop-color="#694D9F"/>
<stop offset="1" stop-color="#ED3554"/>
</linearGradient>
<linearGradient id="paint3_linear_4_3359" x1="95.1437" y1="503.503" x2="213.532" y2="499.213" gradientUnits="userSpaceOnUse">
<stop stop-color="#009DDE"/>
<stop offset="0.5" stop-color="#694D9F"/>
<stop offset="1" stop-color="#ED3554"/>
</linearGradient>
<linearGradient id="paint4_linear_4_3359" x1="28.3902" y1="435.649" x2="146.804" y2="431.328" gradientUnits="userSpaceOnUse">
<stop stop-color="#009DDE"/>
<stop offset="0.5" stop-color="#694D9F"/>
<stop offset="1" stop-color="#ED3554"/>
</linearGradient>
<linearGradient id="paint5_linear_4_3359" x1="105.306" y1="157.538" x2="150.708" y2="20.3131" gradientUnits="userSpaceOnUse">
<stop stop-color="#009DDE"/>
<stop offset="0.5" stop-color="#694D9F"/>
<stop offset="1" stop-color="#ED3554"/>
</linearGradient>
<linearGradient id="paint6_linear_4_3359" x1="134.103" y1="191.493" x2="183.391" y2="53.7909" gradientUnits="userSpaceOnUse">
<stop stop-color="#009DDE"/>
<stop offset="0.5" stop-color="#694D9F"/>
<stop offset="1" stop-color="#ED3554"/>
</linearGradient>
<clipPath id="clip0_4_3359">
<rect width="220" height="220" fill="white" transform="translate(0 0.5)"/>
</clipPath>
</defs>
</svg>
