<svg width="220" height="221" viewBox="0 0 220 221" fill="none" xmlns="http://www.w3.org/2000/svg">
<g clip-path="url(#clip0_4_3368)">
<path fill-rule="evenodd" clip-rule="evenodd" d="M110 0.5C170.742 0.5 220 49.758 220 110.5C220 171.242 170.742 220.5 110 220.5C49.258 220.5 0 171.242 0 110.5C0 49.758 49.258 0.5 110 0.5Z" fill="#B41514"/>
<path d="M109.121 182C100.98 182 94.3809 175.401 94.3809 167.26C94.3809 159.119 100.98 152.52 109.121 152.52C117.262 152.52 123.861 159.119 123.861 167.26C123.861 175.401 117.262 182 109.121 182Z" fill="white"/>
<path d="M109.121 80.3599C100.98 80.3599 94.3809 73.7606 94.3809 65.6199C94.3809 57.4792 100.98 50.8799 109.121 50.8799C117.262 50.8799 123.861 57.4792 123.861 65.6199C123.861 73.7606 117.262 80.3599 109.121 80.3599Z" fill="white"/>
<path d="M48.8418 142.62V122.16H169.402V142.62H48.8418Z" fill="white"/>
<path d="M109.118 112.04C74.732 112.04 46.748 84.7599 45.582 50.6599H67.384C68.528 72.7259 86.788 90.2599 109.118 90.2599C131.448 90.2599 149.708 72.7259 150.852 50.6599H172.654C171.488 84.7599 143.504 112.04 109.118 112.04Z" fill="white"/>
</g>
<defs>
<clipPath id="clip0_4_3368">
<rect width="220" height="220" fill="white" transform="translate(0 0.5)"/>
</clipPath>
</defs>
</svg>
