<svg width="220" height="221" viewBox="0 0 220 221" fill="none" xmlns="http://www.w3.org/2000/svg">
<g clip-path="url(#clip0_4_3374)">
<path d="M110 220.5C170.751 220.5 220 171.251 220 110.5C220 49.7487 170.751 0.5 110 0.5C49.2487 0.5 0 49.7487 0 110.5C0 171.251 49.2487 220.5 110 220.5Z" fill="black"/>
<path d="M187.733 108.3L166.099 108.85H165.916H165.733H165.366H165.183L164.816 109.033H164.633C164.449 109.033 164.449 109.217 164.266 109.217L143.916 126.083L113.483 108.667V92.1668L143.733 94.9168H144.099C144.283 94.9168 144.283 94.9168 144.466 94.9168H144.649C144.833 94.9168 145.016 94.9168 145.199 94.7334H145.383L145.566 94.5501L160.049 86.1168L183.883 96.5668C185.349 97.1168 186.999 96.5668 187.733 95.1001C188.466 93.6334 187.733 91.9834 186.266 91.2501L166.283 82.6334L178.566 75.6668C180.033 74.9334 180.399 73.1001 179.666 71.6334C178.933 70.1667 177.099 69.8001 175.633 70.5334L146.116 87.4001L142.266 66.1334L166.099 61.3668C167.199 61.1834 168.116 60.4501 168.299 59.5334C168.666 58.4334 168.483 57.3334 167.749 56.6001C167.016 55.8668 165.916 55.5001 164.999 55.6834L144.649 59.9001L152.533 46.3334C153.083 45.4167 153.083 44.3167 152.533 43.4001C151.983 42.4834 151.066 41.9334 149.966 41.9334C148.866 41.9334 147.949 42.4834 147.399 43.4001L136.766 61.3668C136.583 61.5501 136.583 61.7334 136.583 61.9168C136.033 62.6501 135.666 63.3834 135.849 64.3001L140.249 88.6834L113.299 86.3001V55.1334L132.549 39.3668C133.833 38.2667 134.016 36.4334 133.099 35.3334C132.183 34.2334 130.349 33.8667 129.249 34.7834L113.666 47.6168V34.4167C113.666 32.9501 112.383 31.6667 110.733 31.6667C109.083 31.6667 107.983 32.9501 107.799 34.4167V67.2334L87.9994 60.8168L94.416 37.7167C94.7827 36.2501 94.0494 34.6001 92.3994 34.0501C90.7494 33.5001 89.2827 34.4167 88.7327 36.0667L83.2327 55.8668L74.616 43.0334C73.6994 41.7501 71.866 41.3834 70.5827 42.3001C69.2993 43.2167 68.9327 45.0501 69.8493 46.3334L81.9494 64.3001L82.1327 64.4834L82.316 64.6668L82.4994 64.8501L82.6827 65.0334C82.866 65.0334 82.866 65.2167 83.0493 65.2167H83.2327C83.416 65.2167 83.416 65.4001 83.5993 65.4001L107.983 73.2834V108.667L93.1327 117.283L80.116 90.3334C79.9327 90.1501 79.9327 89.9668 79.7494 89.7834C79.7494 89.7834 79.7494 89.7834 79.566 89.6001C79.3827 89.4168 79.1993 89.2334 79.016 89.2334L64.5327 80.8001L61.2327 54.7668C61.0494 53.6668 60.4994 52.9334 59.3994 52.3834C58.4827 52.0167 57.3827 52.2001 56.466 52.7501C55.5493 53.3001 55.1827 54.4001 55.366 55.5001L58.116 77.1334L45.8327 69.9834C44.366 69.2501 42.716 69.8001 41.9827 71.0834C41.2493 72.3668 41.616 74.2001 42.8993 74.9334L72.5993 92.1668L56.2827 106.283L39.966 87.9501C38.866 86.6668 37.0327 86.6667 35.9327 87.7668C34.8327 88.8668 34.6493 90.7001 35.7493 91.8001L49.6827 107.2H34.0993C32.4493 107.383 31.166 108.667 31.166 110.317C31.166 111.967 32.4493 113.25 34.0993 113.25H54.9993C55.1827 113.25 55.366 113.25 55.5493 113.25C56.466 113.433 57.3827 113.25 57.9327 112.517L76.6327 96.2001L87.816 120.217L59.9494 136.35L39.0493 126.45C37.5827 125.9 35.9327 126.45 35.3827 127.917C34.8327 129.383 35.1993 131.033 36.666 131.767L53.8993 140.017L43.0827 146.25C41.616 146.983 41.2493 148.817 41.9827 150.283C42.716 151.75 44.5493 152.117 46.016 151.383L61.5993 142.4L75.166 134.517L78.0993 155.783L54.6327 159.817C53.166 160.183 52.066 161.65 52.4327 163.117C52.616 164.583 54.0827 165.683 55.5493 165.5L75.5327 161.833L67.6494 175.217C66.916 176.683 67.2827 178.333 68.7493 179.25C70.216 179.983 71.866 179.617 72.7827 178.15L83.7827 159.45V159.267L83.966 159.083C83.966 158.9 83.966 158.9 84.1494 158.717V158.533C84.1494 158.35 84.1494 158.35 84.1494 158.167V157.983C84.1494 157.8 84.1494 157.617 84.1494 157.433L80.666 131.033L110.916 113.617L123.383 120.95L106.883 146.617C106.883 146.617 106.883 146.617 106.883 146.8V146.983C106.883 147.167 106.699 147.167 106.699 147.35C106.699 147.533 106.699 147.717 106.516 147.9C106.516 147.9 106.516 147.9 106.516 148.083C106.516 148.267 106.516 148.267 106.516 148.45L106.883 165.317L86.5327 181.633C85.2494 182.55 85.066 184.383 86.166 185.667C87.0827 186.95 88.916 187.133 90.1994 186.033L107.066 172.467L107.433 186.767C107.616 188.233 108.899 189.517 110.366 189.517C111.833 189.517 113.116 188.233 113.116 186.583L112.016 152.3L132.549 158.9L125.583 182.367C125.216 183.467 125.399 184.567 126.133 185.3C126.866 186.033 127.966 186.4 128.883 186.217C129.799 186.033 130.716 185.117 130.899 184.017L136.766 164.033L144.833 177.233C145.383 178.15 146.299 178.7 147.399 178.7C148.499 178.7 149.416 178.15 149.783 177.233C150.333 176.317 150.149 175.217 149.783 174.3L139.333 156.333C139.149 156.15 139.149 155.967 138.966 155.783C138.599 154.867 138.049 154.317 137.133 153.95L113.666 146.433L128.333 123.7L158.399 141.3L160.233 165.683C160.416 167.15 161.699 168.25 163.349 168.25C164.999 168.25 166.099 166.783 166.099 165.317L164.633 144.967L175.449 151.2C176.366 151.75 177.466 151.75 178.383 151.2C179.299 150.65 179.849 149.733 179.849 148.633C179.849 147.533 179.299 146.617 178.383 146.067L162.799 137.083L149.599 129.383L166.099 115.633L181.866 133.6C182.966 134.883 184.799 134.883 185.899 133.783C187.183 132.683 187.183 130.85 186.083 129.75L172.333 114.533L187.733 114.167C189.383 114.167 190.666 112.7 190.666 111.233C190.666 109.4 189.199 108.117 187.733 108.3Z" fill="#1AEEC2"/>
</g>
<defs>
<clipPath id="clip0_4_3374">
<rect width="220" height="220" fill="white" transform="translate(0 0.5)"/>
</clipPath>
</defs>
</svg>
