<svg width="220" height="221" viewBox="0 0 220 221" fill="none" xmlns="http://www.w3.org/2000/svg">
<g clip-path="url(#clip0_4_3377)">
<path d="M110 220.5C170.751 220.5 220 171.251 220 110.5C220 49.7487 170.751 0.5 110 0.5C49.2487 0.5 0 49.7487 0 110.5C0 171.251 49.2487 220.5 110 220.5Z" fill="#EDF0F4"/>
<path d="M46.0292 113.258H45.9319H45.834V107.273C45.9009 107.273 45.9678 107.273 46.0346 107.273C46.2582 107.472 46.3818 107.761 46.371 108.061C46.4306 109.531 46.4306 111.002 46.371 112.474C46.3818 112.774 46.2562 113.061 46.0292 113.258Z" fill="#FEF5F6"/>
<path d="M98.1067 88.2938C100.698 89.2321 103.393 89.8016 106.046 90.5125C119.905 94.2258 133.766 97.928 147.631 101.619C156.14 103.888 164.653 106.147 173.167 108.396C173.901 108.589 174.185 108.906 174.134 109.687C174.054 110.901 174.118 112.123 174.078 113.341C174.051 114.145 173.776 114.485 172.829 114.201C170.408 113.474 167.943 112.893 165.501 112.229C164.912 112.068 164.647 112.149 164.844 112.817C164.876 112.922 164.882 113.036 164.911 113.141C165.454 115.091 165.097 114.725 166.978 114.793C169.033 114.866 171.087 114.979 173.142 115.02C173.816 115.034 173.963 115.335 173.897 115.91C173.737 117.297 173.595 118.686 173.421 120.072C173.354 120.606 173.071 120.76 172.491 120.678C170.819 120.44 169.112 120.678 167.437 120.376C166.755 120.256 166.643 120.543 166.805 121.178C167.16 122.567 167.453 123.973 167.745 125.378C167.865 125.96 168.188 126.123 168.753 126.131C169.669 126.143 170.582 126.269 171.498 126.305C172.004 126.324 172.128 126.471 171.965 126.976C171.501 128.41 171.087 129.862 170.649 131.306C170.575 131.547 170.526 131.887 170.2 131.848C169.053 131.709 169.413 132.432 169.53 132.999C169.597 133.32 169.779 133.635 169.651 133.968C168.623 136.739 167.349 139.414 165.847 141.96C165.274 139.558 164.747 137.406 164.248 135.247C162.808 129.009 161.373 122.77 159.944 116.529C159.54 114.772 159.071 113.029 158.726 111.261C158.655 110.665 158.187 110.196 157.592 110.124C156.168 109.769 154.739 109.421 153.339 108.987C152.434 108.707 152.421 109.028 152.596 109.765C153.569 113.883 154.511 118.008 155.465 122.131C157.447 130.698 159.435 139.264 161.427 147.829C161.572 148.251 161.501 148.718 161.236 149.077C160.105 150.529 158.991 151.995 157.732 153.342C157.16 153.954 157.003 153.816 156.829 153.058C155.332 146.53 153.797 140.012 152.284 133.488C150.847 127.287 149.417 121.084 147.994 114.88C147.448 112.514 146.871 110.155 146.365 107.783C146.322 107.341 145.989 106.982 145.552 106.907C144.023 106.518 142.49 106.141 140.975 105.7C140.124 105.452 140.071 105.7 140.253 106.467C141.449 111.479 142.604 116.498 143.768 121.516C146.203 132.019 148.636 142.522 151.065 153.026C151.121 153.352 151.157 153.681 151.172 154.012C151.062 154.163 150.875 154.238 150.691 154.204C148.734 153.687 146.721 153.343 144.92 152.335C144.69 151.921 144.545 151.464 144.495 150.993C144.148 149.361 144.121 149.343 142.461 149.757C141.545 149.986 140.634 150.238 139.707 150.427C137.878 150.135 136.322 149.127 134.631 148.469C133.757 148.1 132.908 147.676 132.087 147.2C131.726 147.004 131.23 146.892 131.261 146.311C131.589 145.895 132.091 145.864 132.544 145.747C135.391 145.011 138.268 144.399 141.112 143.651C141.399 143.586 141.683 143.507 141.961 143.413C142.242 143.307 142.529 143.19 142.489 142.808C142.467 142.501 142.233 142.25 141.927 142.21C141.393 142.072 140.845 141.992 140.294 141.972C138.307 142.003 136.334 141.774 134.354 141.72C133.399 141.716 132.445 141.659 131.497 141.552C129.605 141.295 127.768 141.636 125.953 142.171C125.395 142.358 124.818 142.483 124.232 142.543C123.714 142.526 123.215 142.347 122.804 142.031C119.847 140.097 116.92 138.12 114.143 135.927C113.814 135.689 113.518 135.411 113.261 135.098C113.031 134.793 113.199 134.636 113.485 134.527C115.764 134.228 118.031 134.624 120.296 134.722C122.305 134.808 124.33 134.935 126.339 135.017C130.079 135.171 133.811 135.526 137.558 135.532C138.331 135.532 139.085 135.743 139.862 135.736C140.572 135.73 140.881 135.46 140.698 134.714C140.443 133.676 140.164 132.643 139.952 131.595C139.878 131.02 139.361 130.608 138.785 130.665C135.667 130.557 132.552 130.37 129.439 130.189C125.74 129.974 122.033 129.917 118.337 129.607C116.548 129.457 114.744 129.42 112.95 129.367C110.93 129.306 108.922 129.062 106.904 129.059C106.644 129.051 106.395 128.959 106.192 128.797C104.37 127.091 102.517 125.412 100.996 123.414C100.763 123.109 100.566 122.758 101.134 122.555C103.231 122.38 105.322 122.639 107.404 122.756C109.271 122.861 111.15 122.972 113.015 123.055C116.834 123.224 120.652 123.405 124.47 123.599C128.102 123.779 131.744 123.836 135.368 124.19C136.029 124.241 136.692 124.244 137.354 124.2C137.918 124.175 138.143 123.891 138.039 123.332C137.825 122.208 137.554 121.095 137.225 119.998C137.018 119.3 136.442 119.16 135.827 119.156C134.391 119.15 132.961 118.977 131.533 118.947C126.166 118.835 120.813 118.44 115.454 118.199C110.39 117.972 105.322 117.764 100.264 117.39C98.7522 117.278 98.6671 117.35 98.4867 118.829C98.504 119.165 98.3733 119.491 98.1298 119.723C97.5862 119.528 97.6159 119.034 97.6159 118.613C97.6159 111.389 97.5176 104.164 97.6559 96.9428C97.8058 96.1464 98.6471 96.0642 99.0862 95.5623C99.2406 95.3859 99.5977 95.3217 99.4872 95.0009C99.4113 94.7824 99.1339 94.7895 98.9342 94.7178C98.4887 94.5574 97.8683 94.7178 97.7011 94.0393C97.621 92.1468 97.4505 90.2546 97.7959 88.3708C97.8315 88.2711 97.9413 88.219 98.0412 88.2546C98.0653 88.263 98.0878 88.2766 98.1067 88.2938Z" fill="#ABACAC"/>
<path d="M100.825 122.83C102.567 124.948 104.462 126.934 106.494 128.774C107.644 129.263 108.333 130.315 109.229 131.104C110.587 132.301 112.126 133.309 113.247 134.77C116.576 137.6 120.153 140.125 123.934 142.314C125.184 142.659 126.18 143.488 127.294 144.095C128.347 144.67 129.383 145.273 130.466 145.793C130.817 145.905 131.112 146.147 131.288 146.469C133.978 147.94 136.777 149.202 139.659 150.245C141.526 150.67 143.361 151.18 145.001 152.222C147.011 152.968 149.073 153.566 151.17 154.012C152.64 154.619 154.23 154.765 155.97 155.284C155.088 156.128 154.297 156.915 153.475 157.668C150.958 159.975 150.953 159.97 147.747 159.047C109.469 148.023 80.6998 117.261 72.1779 78.2259C71.0193 72.7006 70.2614 67.0983 69.9114 61.4633C69.7959 60.7337 70.1274 60.0055 70.7534 59.613C72.2694 58.5251 73.741 57.3752 75.4587 56.3186C75.4851 67.3276 77.4042 78.2503 81.1319 88.6088V87.4941C81.1319 76.379 81.1252 65.2633 81.112 54.1482C81.1099 53.3334 81.3173 52.869 82.0794 52.5528C83.598 51.9229 85.0839 51.2143 86.5843 50.5374C86.7672 50.9389 86.8254 51.3859 86.7515 51.8206C86.7575 68.364 86.7599 84.908 86.7595 101.452C86.7214 101.781 86.7544 102.114 86.8562 102.429C88.4255 105.619 90.2792 108.662 92.3952 111.519V110.37C92.3952 90.208 92.3879 70.0454 92.3739 49.8827C92.3739 48.9224 92.5499 48.4549 93.5872 48.2564C95.0559 47.9757 96.4955 47.5285 97.981 47.3025C98.3479 47.7352 98.2637 48.2648 98.289 48.7688C98.39 50.7737 98.179 52.77 98.0776 54.7693C98.3299 57.0122 98.4553 59.2533 97.981 61.4859C97.979 63.5011 97.9773 65.5163 97.9757 67.5317C98.1381 67.7759 98.2296 68.06 98.2397 68.3532C98.2665 70.1379 98.2665 71.9231 98.2397 73.7078C98.2104 74.0717 98.1202 74.4283 97.9729 74.7623L97.9821 81.0318C98.1378 81.2811 98.2263 81.5662 98.2397 81.8597C98.2665 83.6509 98.2665 85.4417 98.2397 87.2327C98.2135 87.5984 98.1229 87.9565 97.9726 88.2909L98.0488 94.3323C98.3979 95.0139 98.3931 95.8231 98.036 96.5007C98.0171 104.066 97.9995 111.63 97.9834 119.195C98.0026 119.337 98.0404 119.476 98.0961 119.608C99.2341 120.466 100.166 121.567 100.825 122.83Z" fill="#EE1D55"/>
<path d="M46.0321 113.258L46.0374 107.272C45.8821 104.459 47.551 102.398 48.9244 100.215C49.2544 99.6888 49.5659 99.15 49.883 98.6171C50.3241 97.2247 51.2749 96.1368 52.1144 95.0008C52.6129 94.407 52.7419 93.5866 52.4497 92.8685C52.1846 92.0845 51.7508 91.3171 51.9644 90.4311C51.9028 90.0312 51.804 89.6383 51.6705 89.2566C50.6052 86.898 51.0402 84.7173 52.292 82.5604C53.155 81.0728 53.8181 79.4697 54.8983 77.835C58.861 98.9832 67.4735 117.787 80.9283 134.296C94.3987 150.825 111.077 163.035 130.929 171.181C128.199 172.138 125.406 172.907 122.57 173.482C122.202 173.521 121.832 173.429 121.525 173.222C120 172.498 118.476 171.769 116.954 171.036C115.815 170.832 114.9 170.138 113.918 169.604C110.991 168.013 108.189 166.212 105.38 164.425C103.408 163.005 101.356 161.698 99.4382 160.2C99.012 159.791 98.4357 159.548 98.127 159.016C98.0902 158.961 98.0548 158.841 98.0271 158.841C97.9301 158.841 97.9638 158.873 98.0324 158.953C98.1433 159.1 98.2128 159.274 98.2328 159.456C98.2828 163.257 98.2805 167.054 98.226 170.849C98.1991 171.725 98.1105 172.598 97.9605 173.46C96.2396 173.302 94.6017 172.76 92.9288 172.378C92.2352 172.217 92.4039 171.682 92.4035 171.232C92.398 165.917 92.3832 160.602 92.4184 155.287C92.4589 154.595 92.1538 153.927 91.6033 153.505C90.0191 152.141 88.4965 150.707 86.9308 149.283C86.6293 149.659 86.7704 150.038 86.7704 150.381C86.7596 156.619 86.7567 162.856 86.762 169.094C86.762 170.309 86.7528 170.323 85.5991 169.82C84.3882 169.294 83.2022 168.707 81.9821 168.204C81.2965 167.921 81.1188 167.489 81.1216 166.763C81.15 159.271 81.1307 151.778 81.1524 144.286C81.1833 143.631 80.9476 142.99 80.4984 142.511C78.8886 140.709 77.3381 138.855 75.6142 136.844C75.5865 137.428 75.5534 137.81 75.553 138.192C75.5501 146.607 75.5416 155.022 75.5284 163.437C75.5284 163.687 75.9728 164.313 75.1575 164.251C75.0802 163.703 75.0622 163.148 75.1035 162.597C75.1011 154.56 75.0859 146.523 75.1187 138.486C75.1636 137.341 74.7667 136.223 74.0104 135.362C72.5384 133.57 71.1695 131.696 69.9105 129.748C69.4214 128.764 68.8527 127.821 68.2112 126.929C68.1883 126.901 68.1711 126.868 68.148 126.841C67.8515 126.506 67.7822 125.81 67.2509 125.891C66.8359 125.954 66.7994 126.579 66.6278 126.973C65.8411 128.698 65.07 130.427 64.3522 132.18C63.6306 134.103 62.8751 136.012 62.2512 137.97C61.9891 138.775 61.6932 139.569 61.4831 140.391C60.7384 142.912 60.0732 145.453 59.4602 148.009C59.3727 148.374 59.4116 148.844 58.9025 148.978C57.3498 147.151 56.1426 145.089 54.875 143.066C54.5848 142.603 54.7668 142.224 54.879 141.81C56.9096 134.316 59.7641 127.069 63.3905 120.203C63.7573 119.655 63.761 118.94 63.4 118.388C62.4907 116.793 61.6871 115.137 60.841 113.506C60.6001 113.169 60.437 112.783 60.3631 112.376C60.2588 112.804 60.7934 113.078 60.6438 113.505C56.7104 120.347 53.4901 127.576 51.0334 135.076C50.3329 134.002 50.0515 132.897 49.6722 131.847C47.8277 126.743 47.8502 126.743 50.0847 121.783C52.2002 117.04 54.6293 112.444 57.3559 108.024C57.7484 107.491 57.8045 106.782 57.5011 106.195C56.75 104.484 56.0804 102.736 55.3053 100.824C51.9549 105.813 48.9656 111.036 46.3614 116.453L46.0321 113.258Z" fill="#EE1D55"/>
<path d="M64.5497 65.1829C68.7843 112.521 101.287 151.129 145.005 164.138C144.404 164.846 143.593 165.193 142.865 165.629C138.635 168.158 138.605 168.213 134.044 166.327C97.9803 151.415 74.2856 125.225 62.9594 87.7558C61.433 82.4771 60.3119 77.0893 59.605 71.6397C59.4999 71.2833 59.5613 70.8986 59.7714 70.5923C61.2671 68.7054 62.8621 66.8998 64.5497 65.1829Z" fill="#EE1D55"/>
<path d="M158.311 68.0892C159.359 69.5009 159.361 69.5038 157.974 70.5824C157.25 71.1438 156.517 71.6983 155.788 72.2557C155.112 72.2808 155.547 72.6702 155.571 72.9239C155.941 74.4601 156.352 75.9878 156.668 77.5351C156.855 78.4529 157.09 78.5436 157.814 77.9196C159.206 76.7191 160.701 75.6393 162.1 74.4469C162.661 73.9676 162.945 74.0736 163.287 74.639C163.954 75.7412 164.637 76.8346 165.349 77.908C165.747 78.5095 165.736 78.9105 165.088 79.3543C164.179 79.9745 163.339 80.6984 162.485 81.3969C162.306 81.5432 161.986 81.6704 162.104 81.9887C162.191 82.222 162.468 82.1892 162.677 82.2464C164.271 82.6767 165.853 83.1503 167.458 83.5343C168.082 83.6343 168.599 84.0744 168.795 84.6752C169.374 86.2277 169.998 87.7626 170.594 89.3088C170.684 89.5409 170.9 89.8095 170.735 90.0385C170.505 90.356 170.196 90.0931 169.932 90.0225C162.519 88.0581 155.106 86.0906 147.694 84.1203C138.687 81.7208 129.681 79.3162 120.677 76.9065C120.039 76.736 119.401 76.5664 118.762 76.3975C118.725 76.1117 118.948 76.0122 119.137 75.9297C121.963 74.641 124.893 73.5947 127.897 72.8022C128.531 72.9067 129.032 73.4112 129.677 73.394C129.436 73.1245 128.497 73.5383 128.853 72.5969C129.881 72.0234 130.938 71.5619 132.158 71.6934C132.656 71.9986 132.714 72.5398 132.819 73.031C132.91 73.7068 133.44 74.2392 134.115 74.3327C135.544 74.6229 136.911 75.1723 138.454 75.426C138.374 74.201 138.003 73.1005 137.763 71.9777C137.651 71.4565 137.352 70.932 137.679 70.3807C139.497 69.6461 141.442 69.2765 143.403 69.2932C143.961 70.3868 144.038 71.6133 144.332 72.7789C144.619 73.9196 144.923 75.0599 145.123 76.2212C145.206 76.9385 145.75 77.5162 146.46 77.6426C147.634 77.9377 148.816 78.2039 149.979 78.5427C150.678 78.7457 150.857 78.487 150.692 77.8334C150.043 75.264 149.474 72.6759 148.888 70.092C148.755 69.5062 148.15 69.2992 148.059 68.7382C148.227 68.5395 148.474 68.4244 148.734 68.4227C151.601 68.2139 154.474 68.1197 157.343 67.938C157.67 67.9521 157.995 68.0029 158.311 68.0892Z" fill="#ABACAC"/>
<path d="M110.954 80.102C116.623 81.6257 122.292 83.1493 127.96 84.673C142.529 88.5727 157.099 92.4645 171.67 96.3479C172.373 96.5347 172.719 96.7994 172.833 97.5568C173.042 98.9362 173.304 100.309 173.528 101.687C173.674 102.583 173.558 102.722 172.691 102.481C169.439 101.578 166.169 100.737 162.908 99.8664C143.518 94.6871 124.127 89.5062 104.737 84.3238C104.489 84.2576 104.238 84.2035 103.988 84.1437C103.917 83.8049 104.199 83.705 104.396 83.5692C106.271 82.2763 108.293 81.2326 110.272 80.1209C110.474 80.0057 110.721 79.8213 110.954 80.102Z" fill="#ABACAC"/>
<path d="M110.958 80.102C108.556 81.308 106.229 82.6581 103.99 84.1445L98.4566 87.8169C98.1631 87.8624 98.0581 87.6891 98.0645 87.4405C98.1186 85.3399 97.9219 83.2347 98.1692 81.1373C111.319 72.1897 126.304 66.2987 142.027 63.8957C145.479 63.3573 148.957 63.0432 152.442 62.8011C152.918 62.777 153.38 62.9727 153.694 63.332C155.321 64.8328 156.824 66.4531 158.313 68.0886C157.167 68.5297 155.956 68.3372 154.779 68.407C152.568 68.5385 150.352 68.5817 148.151 68.8677C147.651 69.4583 146.921 69.3004 146.296 69.3681C145.329 69.4727 144.355 69.8845 143.369 69.4555C141.469 69.6916 139.584 70.0433 137.726 70.5077C135.969 71.2679 134.093 71.7153 132.182 71.8308C131.046 72.0202 129.933 72.3239 128.86 72.7386C128.645 72.988 128.304 73.0866 127.99 72.9904C124.841 73.9178 121.758 75.0565 118.762 76.3987C116.078 77.4488 113.469 78.6865 110.958 80.102Z" fill="#EE1D55"/>
<path d="M98.597 67.5829C104.84 63.8481 111.439 60.7437 118.296 58.3154C124.759 55.9902 131.413 54.2357 138.182 53.0721C138.536 52.9775 138.913 53.0094 139.246 53.163C141.782 54.461 144.222 55.9365 146.549 57.5784C144.38 57.8962 142.372 58.1688 140.371 58.4863C125.815 60.7862 111.863 65.9595 99.3269 73.7046C99.0152 73.8958 98.6909 74.0654 98.3721 74.2447C97.891 74.2018 98.0681 73.8201 98.0657 73.5783C98.0494 71.8894 98.0754 70.1997 98.0454 68.5113C97.9759 68.1084 98.2096 67.7146 98.597 67.5829Z" fill="#EE1D55"/>
<path d="M98.3892 54.7826C104.451 51.5444 110.787 48.8474 117.324 46.7235C118.443 46.3553 119.566 46.839 120.672 47.0133C123.629 47.4737 126.544 48.1789 129.384 49.122C125.681 50.0587 122.184 51.0367 118.741 52.2007C111.914 54.5047 105.3 57.3991 98.9759 60.8515C98.7196 60.9916 98.4473 61.101 98.1828 61.2248C97.9153 59.22 98.1153 57.2072 98.0794 55.1984C98.0905 55.0103 98.2125 54.8471 98.3892 54.7826Z" fill="#EE1D55"/>
<path d="M105.469 164.223C109.238 166.595 113.077 168.844 116.952 171.035C116.868 171.928 116.783 172.821 116.698 173.714C116.477 174.012 116.444 174.434 115.875 174.44C114.484 174.454 113.095 174.56 111.705 174.646C111.053 174.686 110.69 174.65 110.894 173.761C111.22 172.334 111.342 170.861 111.58 169.412C111.678 168.81 111.526 168.57 110.893 168.73C109.402 169.111 107.908 169.482 106.413 169.843C105.965 169.895 105.632 170.284 105.651 170.735C105.575 171.721 105.35 172.695 105.239 173.679C105.176 174.234 104.932 174.481 104.386 174.421C102.932 174.261 101.477 174.106 100.026 173.93C99.6963 173.89 99.481 173.704 99.6044 173.317C99.6185 173.283 99.629 173.248 99.6354 173.211C99.7982 171.482 99.7982 171.482 98.21 171.768C97.8851 170.324 98.1429 168.86 98.0664 167.407C98.0452 167.006 98.0624 166.6 98.064 166.197C98.1009 165.935 98.3037 165.726 98.5651 165.682C100.652 165.042 102.779 164.54 104.932 164.18C105.112 164.152 105.296 164.167 105.469 164.223Z" fill="#ABACAC"/>
<path d="M97.9688 54.7003C97.9728 52.2348 97.9772 49.7688 97.982 47.3033C101.487 46.5724 105.065 46.2524 108.644 46.3505C106.519 47.7593 104.393 49.1678 102.266 50.5764C101.318 51.2039 100.399 51.8868 99.405 52.4313C98.4744 52.9414 97.9424 53.5869 98.0967 54.6847C98.0701 54.8262 98.0269 54.8246 97.9688 54.7003Z" fill="#ABABAC"/>
<path d="M51.9629 90.4304C53.1405 92.7962 53.1124 94.9846 51.0939 96.943C50.6405 97.4633 50.2346 98.0235 49.881 98.6164L46.8281 100.482C47.1629 97.9429 47.6986 95.4339 48.4295 92.9793C48.5714 92.4982 49.0311 92.3506 49.3827 92.1088C50.2279 91.5278 51.1013 90.9874 51.9629 90.4304Z" fill="#ABACAC"/>
<path d="M98.5976 67.583C98.4397 67.8532 98.1502 68.0241 98.1567 68.4163C98.1823 70.2346 98.1686 72.0538 98.1838 73.8726C98.1838 73.9973 98.3074 74.1207 98.3735 74.2446L97.9746 74.7631C97.9746 72.3533 97.9753 69.9431 97.9774 67.533C98.1719 67.6981 98.3867 67.6155 98.5976 67.583Z" fill="#EF4464"/>
<path d="M98.1729 81.1372C98.1729 82.9973 98.1634 84.8574 98.1729 86.7175C98.1749 87.1001 98.0391 87.5372 98.46 87.817L98.1117 88.2929L98.0442 88.2801L97.9766 88.2918C97.98 85.8723 97.9833 83.4533 97.9865 81.0342C98.0594 81.0435 98.1265 81.0804 98.1729 81.1372Z" fill="#EF4263"/>
<path d="M97.9688 54.7004C98.0113 54.7176 98.0593 54.7119 98.0971 54.6855L98.3873 54.7829C97.9499 55.6919 98.2122 56.6588 98.1776 57.5974C98.1332 58.805 98.1756 60.0156 98.1805 61.2249L97.9832 61.4867C97.9783 59.2256 97.9735 56.9638 97.9688 54.7004Z" fill="#EF4263"/>
<path d="M155.575 72.9241C155.199 72.5985 155.431 72.1314 155.268 71.7324C155.703 71.6882 155.508 72.2032 155.792 72.2536L155.575 72.9241Z" fill="#B1B2B2"/>
<path d="M69.9147 129.439C71.3024 131.274 72.6031 133.184 74.1072 134.917C75.183 136.157 75.4428 137.458 75.4303 139.034C75.3702 147.026 75.4055 155.018 75.3947 163.01C75.3947 163.427 75.5731 163.905 75.1496 164.249C73.4725 163.221 71.8646 162.085 70.336 160.847C69.9873 160.58 69.8067 160.147 69.863 159.712C69.8654 158.322 69.8405 156.932 69.826 155.542C69.6192 155.238 69.5253 154.871 69.5611 154.505C69.5429 152.756 69.5486 151.008 69.5561 149.26C69.571 148.859 69.6632 148.464 69.8276 148.097C69.8256 145.713 69.8232 143.328 69.8212 140.944C69.6016 140.598 69.5081 140.188 69.5561 139.781C69.5561 137.381 69.5161 134.98 69.5743 132.58C69.6577 131.531 69.2639 130.43 69.9147 129.439Z" fill="#ED1A47"/>
<path d="M69.8274 132.553C69.8274 135.351 69.8274 138.149 69.8274 140.947C66.6093 143.498 63.4015 146.062 60.1565 148.578C59.8438 148.819 59.551 149.621 58.9023 148.974C59.6718 146.085 60.2372 143.14 61.2415 140.313C62.1292 139.453 62.9789 138.541 64.1655 138.074C64.6286 137.963 65.1065 137.927 65.5808 137.968C65.0479 137.923 64.5111 137.964 63.9909 138.089C63.3073 138.173 62.6125 138.349 62.0177 137.811C62.6196 135.886 63.3249 133.996 64.1314 132.148C66.0351 131.824 67.9885 131.963 69.8274 132.553Z" fill="#ABACAC"/>
<path d="M69.8298 148.1C69.8298 150.581 69.8298 153.063 69.8298 155.543C68.5791 155.652 67.3979 156.078 66.1863 156.361C65.7725 156.531 65.2973 156.424 64.9957 156.094C63.8286 154.818 62.6501 153.553 61.4601 152.298C61.0438 151.857 61.2308 151.697 61.7226 151.599C62.2968 151.484 62.8569 151.278 63.4352 151.205C65.8519 150.907 68.1008 149.814 69.8298 148.1Z" fill="#ABACAC"/>
<path d="M98.1952 166.011C98.1978 167.93 98.2002 169.85 98.2029 171.77C97.9888 172.314 98.3593 172.945 97.9551 173.46C97.9685 168.618 97.9817 163.777 97.9952 158.937C98.0321 158.819 98.0891 158.802 98.1692 158.902L99.4868 159.956C98.6103 160.511 98.4691 161.331 98.4651 162.314C98.4576 163.545 98.7694 164.817 98.1952 166.011Z" fill="#C1A0A4"/>
<path d="M60.6407 113.5C60.512 113.13 60.189 112.831 60.2397 112.229C60.5718 112.577 60.7828 113.024 60.8413 113.502L60.7419 113.491L60.6407 113.5Z" fill="#EF3C60"/>
<path d="M100.827 122.831C99.8289 121.835 98.9159 120.757 98.0977 119.61C98.1096 119.388 98.1316 119.169 98.1336 118.947C98.1521 116.98 98.1521 116.954 100.163 117.048C106.286 117.334 112.41 117.613 118.531 117.951C122.929 118.194 127.327 118.443 131.728 118.627C133.231 118.69 134.736 118.788 136.238 118.824C137.021 118.843 137.502 119.121 137.642 119.999C137.842 121.231 138.151 122.449 138.472 123.657C138.651 124.331 138.531 124.623 137.78 124.583C133.602 124.358 129.423 124.144 125.244 123.941C123.557 123.858 121.87 123.809 120.183 123.714C114.757 123.411 109.325 123.233 103.898 122.963C102.876 122.913 101.858 122.728 100.827 122.831Z" fill="white"/>
<path d="M113.251 134.771C110.843 132.956 108.585 130.95 106.498 128.774C112.183 128.953 117.861 129.246 123.539 129.608C125.297 129.72 127.059 129.714 128.82 129.837C132.297 130.077 135.784 130.188 139.269 130.311C139.723 130.251 140.14 130.57 140.199 131.024C140.203 131.051 140.205 131.079 140.206 131.107C140.491 132.475 140.838 133.829 141.175 135.186C141.345 135.87 141.118 136.125 140.408 136.082C136.82 135.863 133.231 135.681 129.642 135.463C128.103 135.37 126.563 135.378 125.021 135.277C121.102 135.02 117.174 134.929 113.251 134.771Z" fill="white"/>
<path d="M110.304 101.48C108.118 102.966 106.142 104.728 104.062 106.35C102.132 107.855 100.227 109.392 98.1406 111.05C98.1406 108.644 98.1426 106.449 98.1406 104.252C98.1406 103.823 98.4277 103.599 98.7189 103.37C101.369 101.272 104.027 99.1831 106.66 97.0623C106.935 96.762 107.37 96.6707 107.743 96.835C107.884 96.8751 108.028 96.9048 108.173 96.9237C111.12 97.6922 111.119 97.6926 110.564 100.712C110.54 100.894 110.524 101.078 110.519 101.262C110.481 101.361 110.403 101.44 110.304 101.48Z" fill="white"/>
<path d="M118.531 112.36C117.433 112.292 116.336 112.2 115.237 112.166C114.699 112.149 114.578 112.01 114.668 111.444C115.194 108.141 115.624 104.823 116.172 101.524C116.566 99.1522 116.636 99.1218 118.948 99.8142C119.924 100.106 121.254 99.9926 121.79 100.777C122.292 101.51 121.656 102.671 121.533 103.642C121.213 106.193 120.721 108.725 120.434 111.28C120.274 112.699 119.348 112.333 118.531 112.36Z" fill="white"/>
<path d="M131.29 146.469C128.723 145.298 126.262 143.907 123.936 142.312C124.972 142.071 126.027 141.894 127.04 141.58C128.736 141.053 130.433 141.179 132.163 141.318C134.394 141.499 136.639 141.523 138.876 141.629C139.823 141.741 140.775 141.794 141.728 141.789C142.694 141.713 142.811 142.298 142.944 142.959C143.121 143.843 142.326 143.67 141.935 143.77C138.558 144.63 135.167 145.436 131.781 146.264C131.612 146.319 131.448 146.388 131.29 146.469Z" fill="white"/>
<path d="M132.847 104.238C132.416 106.962 131.973 109.685 131.564 112.413C131.479 112.974 131.169 113.084 130.722 112.985C129.523 112.787 128.304 112.731 127.092 112.82C126.156 112.837 125.838 112.535 125.992 111.61C126.342 109.506 126.653 107.395 126.976 105.287C127.098 104.487 127.224 103.687 127.319 102.884C127.386 102.323 127.6 102.107 128.195 102.277C129.535 102.661 130.89 102.994 132.239 103.348C132.626 103.387 132.909 103.733 132.869 104.121C132.865 104.16 132.857 104.2 132.847 104.238Z" fill="white"/>
<path d="M145.004 152.223C143.177 151.696 141.391 151.035 139.662 150.245C140.95 149.721 142.329 149.54 143.66 149.178C143.978 149.044 144.344 149.194 144.477 149.512C144.509 149.587 144.525 149.667 144.526 149.747C144.672 150.575 144.843 151.398 145.004 152.223Z" fill="#FDFCFC"/>
<path d="M109.093 109.596C109.3 111.869 109.173 111.973 106.635 111.624C107.387 110.87 108.21 110.191 109.093 109.596Z" fill="#F6F6F5"/>
<path d="M98.041 96.502C98.0449 95.7802 98.0489 95.0577 98.0533 94.3345C98.7626 94.3849 99.7587 94.3392 99.9715 94.9455C100.161 95.4843 99.1027 95.743 98.6885 96.2234C98.5184 96.4155 98.3329 96.5926 98.041 96.502Z" fill="#FBF1F0"/>
<path d="M110.3 101.48L110.514 101.261C110.497 102.458 110.312 103.647 109.963 104.792C109.824 103.664 110.126 102.577 110.3 101.48Z" fill="#B0B1B1"/>
<path d="M111.702 111.87C111.173 112.262 110.614 112.094 109.863 112.167C110.546 111.436 111.151 111.825 111.702 111.87Z" fill="#B0B1B1"/>
<path d="M136.238 114.438C136.113 113.243 135.308 113.099 134.334 113.218C136.117 112.863 136.368 113.028 136.238 114.438Z" fill="#B2B3B3"/>
<path d="M134.97 108.574C134.562 107.82 134.361 106.971 134.387 106.115C134.77 106.878 134.97 107.72 134.97 108.574Z" fill="#B1B2B2"/>
<path d="M101.986 111.453C101.508 111.752 100.91 111.782 100.404 111.533C100.99 111.075 101.496 111.327 101.986 111.453Z" fill="#B0B1B1"/>
<path d="M146.854 107.355C147.583 107.291 148.315 107.45 148.952 107.81C148.303 107.891 147.715 107.707 146.854 107.355Z" fill="#B1B2B2"/>
<path d="M139.27 105.243C138.465 105.25 137.67 105.061 136.955 104.69C137.765 104.628 138.575 104.821 139.27 105.243Z" fill="#B1B2B2"/>
<path d="M168.576 128.313L169.08 130.271C168.511 129.734 168.558 129.026 168.576 128.313Z" fill="#B1B2B2"/>
<path d="M123.957 140.918H122.493L122.49 140.807H123.954L123.957 140.918Z" fill="#B5B6B6"/>
<path d="M126.194 141.118H124.896L124.898 141.015H126.196L126.194 141.118Z" fill="#B3B4B4"/>
<path d="M122.49 112.483C122.948 112.337 123.439 112.335 123.898 112.477C123.441 112.626 122.949 112.628 122.49 112.483Z" fill="#B4B4B5"/>
<path d="M114.01 112.107H112.767L112.764 111.996H114.028L114.01 112.107Z" fill="#B5B6B6"/>
<path d="M104.29 111.658H103.039C103.43 111.449 103.9 111.449 104.29 111.658Z" fill="#B5B6B6"/>
<path d="M99.4505 111.344C99.108 111.509 98.7139 111.531 98.3555 111.404C98.7456 111.125 99.1124 111.344 99.4505 111.344Z" fill="#B5B6B7"/>
<path d="M93.3789 113.459C93.9735 113.643 94.0341 114.208 94.3328 114.603C93.7406 114.418 93.6788 113.853 93.3789 113.459Z" fill="#EE365D"/>
<path d="M83.7717 95.686L84.2969 96.789C83.8633 96.6119 83.6356 96.1343 83.7717 95.686Z" fill="#EE375E"/>
<path d="M85.7395 100.311C85.4487 100.037 85.2844 99.6541 85.2852 99.2544C85.63 99.4878 85.8073 99.9006 85.7395 100.311Z" fill="#EE365E"/>
<path d="M96.9796 118.146C96.5827 118.048 96.2731 117.737 96.1777 117.339C96.5567 117.468 96.8533 117.766 96.9796 118.146Z" fill="#EE355D"/>
<path d="M95.4431 116.132C95.0972 116.136 94.962 115.944 94.9043 115.635C95.284 115.639 95.3289 115.915 95.4431 116.132Z" fill="#EF385E"/>
<path d="M82.5041 93.0323C82.2471 92.5463 81.9704 92.325 82.1321 91.9373C82.4808 92.1774 82.4713 92.5278 82.5041 93.0323Z" fill="#EF395E"/>
<path d="M82.4648 92.7009C82.7228 93.1904 83.0022 93.4102 82.8394 93.798C82.4861 93.5593 82.501 93.208 82.4648 92.7009Z" fill="#EE375D"/>
<path d="M98.1988 166.011C98.1829 164.33 98.19 162.649 98.1415 160.969C98.1118 159.934 98.8862 160.087 99.4888 159.957L105.468 164.223L98.1988 166.011Z" fill="#FFFDFD"/>
<path d="M68.3412 126.764C67.718 126.753 67.0954 126.741 66.4727 126.73C66.6972 126.236 66.9213 125.745 67.1944 125.144C67.6883 125.595 68.0798 126.148 68.3412 126.764Z" fill="#B4A9AA"/>
<path d="M86.5924 148.736L84.0182 146.145L83.9316 146.229L86.396 148.93L86.5924 148.736Z" fill="#EE355C"/>
<path d="M54.4492 98.6835L53.7676 96.6883L53.9857 96.6082L54.6914 98.5729L54.4492 98.6835Z" fill="#EE375E"/>
<path d="M92.8203 154.594C93.2433 154.634 93.4152 154.935 93.787 155.355C93.3547 155.285 92.9895 154.997 92.8203 154.594Z" fill="#EE365D"/>
<path d="M95.0771 156.469C95.5774 156.492 95.802 156.853 96.189 157.374C95.7118 157.234 95.3118 156.907 95.0771 156.469Z" fill="#EE345C"/>
<path d="M58.6392 108.824C58.1178 108.604 58.2085 108.094 58.0938 107.681C58.4852 107.962 58.5341 108.407 58.6392 108.824Z" fill="#EE365E"/>
<path d="M95.0698 156.47C94.7068 156.453 94.3913 156.217 94.2734 155.873C94.6328 155.898 94.9435 156.132 95.0698 156.47Z" fill="#EE375E"/>
<path d="M98.1699 158.902C98.1161 158.93 98.056 158.941 97.9959 158.936C97.7612 158.792 97.4717 158.696 97.4453 158.326C97.8595 158.327 97.9946 158.64 98.1699 158.902Z" fill="#EF395E"/>
<path d="M58.6439 108.824C58.9455 109.033 59.089 109.405 59.0067 109.763C58.7256 109.538 58.5878 109.179 58.6439 108.824Z" fill="#EF385E"/>
<path d="M143.373 69.4554L148.155 68.8677C148.587 68.7963 148.995 69.0882 149.067 69.5205C149.07 69.5368 149.072 69.5533 149.073 69.5698C149.739 72.5004 150.448 75.4215 151.127 78.3509C151.247 78.8698 151.189 79.221 150.468 79.0097C148.96 78.5686 147.432 78.1946 145.916 77.7804C145.53 77.6748 145.114 77.5727 145.018 77.0836C144.527 74.5273 143.726 72.0401 143.373 69.4554Z" fill="white"/>
<path d="M132.186 71.8295C133.988 71.2164 135.844 70.7735 137.729 70.5063C138.084 72.0372 138.429 73.5706 138.797 75.0983C138.939 75.6864 138.852 75.9195 138.177 75.7213C136.742 75.3011 135.303 74.8869 133.844 74.5666C133.092 74.4013 132.69 74.0854 132.593 73.3018C132.495 72.8015 132.359 72.3091 132.186 71.8295Z" fill="#FFFEFE"/>
<path d="M127.99 72.9894C128.28 72.9091 128.515 72.6284 128.86 72.7375C128.951 73.4092 129.752 72.9692 129.993 73.533C129.284 73.57 128.583 73.3795 127.99 72.9894Z" fill="#B1B2B1"/>
<path d="M153.814 79.9958C154.436 79.8407 155.093 80.0119 155.559 80.4501L153.814 79.9958Z" fill="#B1B1B1"/>
<path d="M154.971 70.1516C155.274 70.3866 155.405 70.7825 155.301 71.1521C154.892 70.9663 154.909 70.6376 154.971 70.1516Z" fill="#B1B2B2"/>
<path d="M154.695 69.1777C154.927 69.318 155.035 69.4888 154.94 69.6989C154.935 69.7101 154.789 69.6885 154.782 69.6628C154.74 69.5033 154.72 69.3396 154.695 69.1777Z" fill="#B1B2B2"/>
<path d="M103.672 170.511C103.143 171.038 102.389 170.801 101.764 171.068C102.314 170.621 102.982 170.569 103.672 170.511Z" fill="#B1B2B2"/>
<path d="M64.123 138.285C64.1291 138.144 64.1355 138.003 64.1416 137.863H65.6495C65.1616 138.12 64.5929 138 64.123 138.285Z" fill="#B6B6B7"/>
<path d="M68.3605 138.168C67.7819 138.328 67.1729 138.342 66.5879 138.208C67.1665 138.049 67.7755 138.035 68.3605 138.168Z" fill="#B2B4B3"/>
</g>
<defs>
<clipPath id="clip0_4_3377">
<rect width="220" height="220" fill="white" transform="translate(0 0.5)"/>
</clipPath>
</defs>
</svg>
