<svg width="220" height="221" viewBox="0 0 220 221" fill="none" xmlns="http://www.w3.org/2000/svg">
<g clip-path="url(#clip0_4_3453)">
<path d="M110 220.5C170.751 220.5 220 171.251 220 110.5C220 49.7487 170.751 0.5 110 0.5C49.2487 0.5 0 49.7487 0 110.5C0 171.251 49.2487 220.5 110 220.5Z" fill="#00AEEF"/>
<path d="M108.846 100.688C110.475 100.406 111.913 99.794 113.172 98.8658C114.431 97.9377 115.622 96.3702 116.738 94.2252L141.549 46.1899C142.521 44.5811 143.712 43.3024 145.081 42.2986C146.487 41.3215 148.162 40.8096 149.872 40.8344H165.607L134.711 97.3327C133.343 99.6565 131.789 101.547 130.057 103.011C128.327 104.457 126.355 105.581 124.233 106.332C127.545 107.191 130.317 108.587 132.583 110.546C134.814 112.471 136.943 115.194 138.921 118.693L168.667 178.333H151.35C147.853 178.333 145.04 176.443 142.918 172.696L118.538 122.158C117.279 119.903 115.91 118.301 114.431 117.332C112.96 116.37 111.084 115.799 108.853 115.655V141.298H95.2395V115.545H85.2329V178.333H66V40.8344H85.2329V100.908H95.2395V71.1942H108.853V100.688H108.846Z" fill="white"/>
</g>
<defs>
<clipPath id="clip0_4_3453">
<rect width="220" height="220" fill="white" transform="translate(0 0.5)"/>
</clipPath>
</defs>
</svg>
