<svg width="220" height="221" viewBox="0 0 220 221" fill="none" xmlns="http://www.w3.org/2000/svg">
<g clip-path="url(#clip0_4_3456)">
<path d="M110 220.5C170.753 220.5 220 171.253 220 110.5C220 49.747 170.753 0.5 110 0.5C49.247 0.5 0 49.747 0 110.5C0 171.253 49.247 220.5 110 220.5Z" fill="#EDF0F4"/>
<path d="M45.8828 82.2102L68.2744 132.294L105.485 169.149L68.6011 54.8818L45.8828 82.2102Z" fill="#9C2131"/>
<path d="M45.8828 82.21L84.891 105.455L68.6011 54.8271L45.8828 82.21Z" fill="#576B98"/>
<path d="M82.3848 51.8333L95.2966 91.9002L103.36 94.7855L112.84 64.7353L82.3848 51.8333Z" fill="#D71B2A"/>
<path d="M175.112 89.5606L157.243 114.439L116.273 99.5772L127.932 63.8109L159.585 55.7539L175.112 89.5606Z" fill="#C41A24"/>
<path d="M148.798 126.197L119.651 166.263L100.855 108.885L148.798 126.197Z" fill="#C71C26"/>
<path d="M98.9004 68.6558L103.368 94.7864L112.847 64.7361L98.9004 68.6558Z" fill="#A71927"/>
<path d="M95.137 91.9002L103.364 94.7855L98.8962 68.6548L82.4434 51.8333L95.137 91.9002Z" fill="#61395F"/>
<path d="M84.8963 105.457L68.2254 132.295L45.834 82.2109L84.8963 105.457Z" fill="#614268"/>
<path d="M127.878 63.8096L142.751 86.6742L116.273 99.5761L127.878 63.8096Z" fill="#DA1728"/>
<path d="M159.54 55.7539L142.705 86.6755L127.832 63.8109L159.54 55.7539Z" fill="#E42735"/>
<path d="M157.248 114.438L142.756 86.7288L175.172 89.6141L157.248 114.438Z" fill="#A61D1E"/>
<path d="M120.69 131.042L119.6 166.263L100.805 108.885L120.69 131.042Z" fill="#D71B2A"/>
<path d="M119.654 166.265L120.743 131.043L148.856 126.198L119.654 166.265Z" fill="#A51C1C"/>
<path d="M105.649 169.148L68.2207 132.293L95.0794 137.302L105.649 169.148Z" fill="#721919"/>
</g>
<defs>
<clipPath id="clip0_4_3456">
<rect width="220" height="220" fill="white" transform="translate(0 0.5)"/>
</clipPath>
</defs>
</svg>
