<svg width="220" height="221" viewBox="0 0 220 221" fill="none" xmlns="http://www.w3.org/2000/svg">
<g clip-path="url(#clip0_4_3472)">
<path d="M110 220.5C170.751 220.5 220 171.251 220 110.5C220 49.7487 170.751 0.5 110 0.5C49.2487 0.5 0 49.7487 0 110.5C0 171.251 49.2487 220.5 110 220.5Z" fill="#EDF0F4"/>
<path d="M111.336 64.9511C111.336 64.9511 123.348 69.7561 133.759 93.5141C135.027 97.6842 135.833 101.981 136.162 106.327C136.162 106.327 136.696 122.077 125.217 126.882C122.195 127.753 120.265 130.705 120.679 133.822C121.213 139.428 122.281 148.237 122.281 150.106C121.944 153.257 119.31 155.662 116.141 155.712C112.157 156.281 108.112 156.281 104.128 155.712C100.124 154.644 99.5903 152.509 99.5903 152.509C99.5903 152.509 97.7218 149.839 99.0565 138.094C99.0565 138.094 101.726 129.818 93.9845 126.615C86.2433 123.412 83.5738 109.264 83.5738 109.264C83.5738 109.264 81.1714 95.3826 96.1202 75.8959C96.1202 75.8959 105.463 64.1503 111.069 64.6842" fill="url(#paint0_linear_4_3472)"/>
<path d="M91.0478 80.9679C86.9474 78.0639 82.3248 75.9793 77.4339 74.8281C72.5192 73.7818 67.5098 73.2452 62.485 73.2265H59.0147C56.6693 73.1396 54.4112 74.1214 52.8751 75.896C51.51 77.5242 51.013 79.7105 51.5404 81.7687C53.1457 92.7979 57.975 103.107 65.4213 111.399C69.1622 115.369 73.3758 118.866 77.9677 121.81C82.7054 124.543 87.8384 126.524 93.1835 127.683C85.1751 124.213 82.5058 109.798 82.5058 109.798C74.7643 104.993 69.6924 97.7853 65.9552 87.1076H66.2223C73.0042 87.2577 79.5933 89.3923 85.1751 93.2472C86.4667 88.8676 88.4493 84.7224 91.0478 80.9679Z" fill="url(#paint1_linear_4_3472)"/>
<path d="M134.557 93.2472C140.122 89.359 146.722 87.221 153.51 87.1075H153.777C150.04 97.7852 144.701 104.993 136.96 109.798V108.196C136.693 112.467 135.091 123.946 125.748 127.95C131.373 126.748 136.777 124.676 141.765 121.81C146.574 119.174 150.833 115.64 154.311 111.399C161.554 102.973 166.354 92.7267 168.192 81.7687C168.719 79.7104 168.223 77.5241 166.857 75.8959C165.248 74.2228 163.038 73.262 160.718 73.2264H157.247C152.221 73.2174 147.209 73.7544 142.298 74.828C137.273 75.9663 132.544 78.1493 128.418 81.2348C130.859 85.0241 132.916 89.0483 134.557 93.2472Z" fill="url(#paint2_linear_4_3472)"/>
</g>
<defs>
<linearGradient id="paint0_linear_4_3472" x1="83.3068" y1="156.137" x2="136.028" y2="156.137" gradientUnits="userSpaceOnUse">
<stop stop-color="#29DCE8"/>
<stop offset="1" stop-color="#29DC93"/>
</linearGradient>
<linearGradient id="paint1_linear_4_3472" x1="51.7005" y1="155.368" x2="93.2636" y2="155.368" gradientUnits="userSpaceOnUse">
<stop stop-color="#29DCE8"/>
<stop offset="1" stop-color="#29DC93"/>
</linearGradient>
<linearGradient id="paint2_linear_4_3472" x1="125.828" y1="155.368" x2="168.192" y2="155.368" gradientUnits="userSpaceOnUse">
<stop stop-color="#29DCE8"/>
<stop offset="1" stop-color="#29DC93"/>
</linearGradient>
<clipPath id="clip0_4_3472">
<rect width="220" height="220" fill="white" transform="translate(0 0.5)"/>
</clipPath>
</defs>
</svg>
