<svg width="220" height="221" viewBox="0 0 220 221" fill="none" xmlns="http://www.w3.org/2000/svg">
<g clip-path="url(#clip0_4_3478)">
<path d="M110 220.5C170.751 220.5 220 171.251 220 110.5C220 49.7487 170.751 0.5 110 0.5C49.2487 0.5 0 49.7487 0 110.5C0 171.251 49.2487 220.5 110 220.5Z" fill="#EDF0F4"/>
<path opacity="0.2" d="M70.3807 147.148L76.5079 165.5L118.567 110.5L76.5079 55.5L70.082 73.4535L98.02 110.49L70.3807 147.148Z" fill="#FF564F"/>
<path d="M160.032 165.49H140.073L98.0039 110.49L140.073 55.5H160.032L118.556 110.49L160.032 165.49Z" fill="#F08179"/>
<path d="M60.5 55.5H76.4973V165.49H60.5V55.5Z" fill="#FF564F"/>
<path d="M160.048 165.49H140.088L98.0195 110.49L140.088 55.5H160.048L118.571 110.49L160.048 165.49Z" fill="#FF564F"/>
<path d="M160.048 165.49H140.088L98.0195 110.49L140.088 55.5H160.048L118.571 110.49L160.048 165.49Z" fill="#FF564F"/>
<path d="M160.048 165.49H140.088L98.0195 110.49L140.088 55.5H160.048L118.571 110.49L160.048 165.49Z" fill="#FF564F"/>
<path d="M160.048 165.49H140.088L98.0195 110.49L140.088 55.5H160.048L118.571 110.49L160.048 165.49Z" fill="#FF564F"/>
</g>
<defs>
<clipPath id="clip0_4_3478">
<rect width="220" height="220" fill="white" transform="translate(0 0.5)"/>
</clipPath>
</defs>
</svg>
