<svg width="220" height="221" viewBox="0 0 220 221" fill="none" xmlns="http://www.w3.org/2000/svg">
<g clip-path="url(#clip0_4_3487)">
<path d="M110 220.5C170.753 220.5 220 171.253 220 110.5C220 49.747 170.753 0.5 110 0.5C49.247 0.5 0 49.747 0 110.5C0 171.253 49.247 220.5 110 220.5Z" fill="white"/>
<path fill-rule="evenodd" clip-rule="evenodd" d="M0 110.5C0 49.9153 49.4153 0.5 110 0.5C170.585 0.5 220 49.9153 220 110.5C220 171.085 170.585 220.5 110 220.5C49.4153 220.5 0 171.085 0 110.5ZM149.262 85.7924H156.031L156.708 66.5H112.031V85.7924H118.8L104.923 102.038H99.1692V85.7924H106.954V66.5H96.4616V73.9461H90.7076V66.5H80.2153V73.9461H74.4616V66.5H63.6308V86.1308H73.1077V110.838V135.208H63.6308V154.838H106.615V135.208H98.8308V118.962H104.585L118.462 134.531H111.692V154.162H156.031V134.531H149.262L128.277 110.162L149.262 85.7924Z" fill="black"/>
</g>
<defs>
<clipPath id="clip0_4_3487">
<rect width="220" height="220" fill="white" transform="translate(0 0.5)"/>
</clipPath>
</defs>
</svg>
