<svg width="220" height="221" viewBox="0 0 220 221" fill="none" xmlns="http://www.w3.org/2000/svg">
<g clip-path="url(#clip0_4_3490)">
<path d="M110 220.5C170.751 220.5 220 171.251 220 110.5C220 49.7487 170.751 0.5 110 0.5C49.2487 0.5 0 49.7487 0 110.5C0 171.251 49.2487 220.5 110 220.5Z" fill="#E7EFF3"/>
<path fill-rule="evenodd" clip-rule="evenodd" d="M78.3035 90.4998H87.7781V81.0273C87.7781 77.6657 85.0531 74.9407 81.6915 74.9407H78.3035C76.6888 74.9396 75.14 75.5803 73.9982 76.7221C72.8564 77.8639 72.2157 79.4127 72.2168 81.0273V84.4131C72.2168 87.7747 74.9419 90.4998 78.3035 90.4998ZM132.218 90.4998H141.692C145.053 90.4998 147.777 87.776 147.779 84.4153V81.0273C147.779 77.6657 145.054 74.9407 141.692 74.9407H138.305C134.943 74.9407 132.218 77.6657 132.218 81.0273V90.4998ZM81.6915 148.278H78.3042C76.6899 148.278 75.1417 147.636 74.0003 146.495C72.8588 145.354 72.2175 143.805 72.2175 142.191V138.807C72.2175 137.192 72.8588 135.644 74.0003 134.503C75.1417 133.361 76.6899 132.72 78.3042 132.72H87.7781V142.191C87.7781 145.553 85.0531 148.278 81.6915 148.278ZM138.305 148.278H141.692L141.69 148.281C145.051 148.281 147.777 145.556 147.777 142.195V138.807C147.777 135.445 145.051 132.72 141.69 132.72H132.218V142.191C132.218 145.553 134.943 148.278 138.305 148.278Z" fill="#005FFF"/>
<path fill-rule="evenodd" clip-rule="evenodd" d="M109.419 74.9444H112.807L112.806 74.9481C116.168 74.9481 118.893 72.223 118.893 68.8614V65.4734C118.893 62.1118 116.168 59.3867 112.806 59.3867H109.419C106.057 59.3867 103.332 62.1118 103.332 65.4734V68.8577C103.332 72.2193 106.057 74.9444 109.419 74.9444ZM109.419 163.833H112.806C116.168 163.833 118.893 161.108 118.893 157.747V154.359C118.893 150.997 116.168 148.272 112.806 148.272H109.419C106.057 148.272 103.332 150.997 103.332 154.359V157.747C103.332 161.108 106.057 163.833 109.419 163.833ZM157.251 119.389H153.864C150.503 119.389 147.777 116.664 147.777 113.302V109.913C147.777 106.552 150.503 103.827 153.864 103.827H157.251C160.613 103.827 163.338 106.552 163.338 109.913V113.301C163.338 116.663 160.613 119.389 157.251 119.389ZM64.9753 119.389H68.3626C71.7242 119.389 74.4493 116.663 74.4493 113.301V109.913C74.4493 108.299 73.808 106.751 72.6665 105.609C71.5251 104.468 69.9769 103.827 68.3626 103.827H64.9753C61.6137 103.827 58.8887 106.552 58.8887 109.913V113.302C58.8887 116.664 61.6137 119.389 64.9753 119.389Z" fill="#00CCEE"/>
<path fill-rule="evenodd" clip-rule="evenodd" d="M83.8571 50.8389C81.59 51.7783 80.5139 54.3776 81.4533 56.6447C82.3932 58.911 84.992 59.987 87.2591 59.0485C89.526 58.1091 90.6021 55.5098 89.6627 53.2427C88.7233 50.9758 86.124 49.8995 83.8571 50.8389ZM130.52 164.173C128.253 165.112 127.177 167.711 128.116 169.978C129.056 172.245 131.655 173.321 133.922 172.382C136.189 171.443 137.265 168.844 136.325 166.576C135.386 164.31 132.787 163.233 130.52 164.173ZM167.258 92.3866C164.991 93.326 162.392 92.2497 161.453 89.9827C160.513 87.7156 161.589 85.1163 163.856 84.1769C166.123 83.2375 168.723 84.3139 169.662 86.5808C170.601 88.8479 169.525 91.4467 167.258 92.3866ZM50.3416 136.645C51.281 138.912 53.8803 139.989 56.1474 139.049C58.4138 138.109 59.4897 135.511 58.5513 133.244C57.6119 130.977 55.0124 129.9 52.7455 130.84C50.4784 131.779 49.4022 134.378 50.3416 136.645Z" fill="#005FFF"/>
<path fill-rule="evenodd" clip-rule="evenodd" d="M136.328 56.6447C135.389 58.9118 132.79 59.9881 130.523 59.0489C128.256 58.1097 127.179 55.5106 128.118 53.2435C129.057 50.9764 131.656 49.8998 133.923 50.8389C135.012 51.2897 135.878 52.1547 136.329 53.2437C136.78 54.3325 136.779 55.5559 136.328 56.6447ZM50.3414 86.5812C49.4022 88.8483 50.4787 91.4474 52.7457 92.3866C53.8345 92.838 55.0579 92.8382 56.1467 92.3872C57.2357 91.9362 58.1006 91.071 58.5515 89.982C59.4905 87.7149 58.414 85.1158 56.1469 84.1768C53.8798 83.2375 51.2806 84.3141 50.3414 86.5812ZM161.452 133.244C160.513 135.511 161.59 138.11 163.857 139.049C164.945 139.501 166.169 139.501 167.258 139.05C168.347 138.599 169.212 137.734 169.662 136.645C170.601 134.378 169.525 131.779 167.258 130.839C164.991 129.9 162.392 130.977 161.452 133.244ZM83.857 172.383C86.1241 173.322 88.7232 172.246 89.6624 169.978C90.1138 168.89 90.1139 167.666 89.6629 166.577C89.2119 165.488 88.3468 164.623 87.2578 164.173C84.9907 163.234 82.3916 164.31 81.4525 166.577C80.5133 168.844 81.5899 171.443 83.857 172.383Z" fill="#002DAE"/>
<path fill-rule="evenodd" clip-rule="evenodd" d="M160.461 63.1823C159.825 63.8178 158.87 64.0079 158.039 63.6639C157.209 63.3202 156.667 62.5099 156.667 61.6112C156.667 60.7125 157.209 59.9023 158.039 59.5584C158.87 59.2144 159.825 59.4046 160.461 60.04C160.878 60.4565 161.112 61.0217 161.112 61.6112C161.112 62.2006 160.878 62.7658 160.461 63.1823ZM56.8372 60.7609C56.4932 61.5912 56.6834 62.5469 57.319 63.1823C57.7355 63.5992 58.3007 63.8333 58.8901 63.8333C59.4794 63.8333 60.0446 63.5992 60.4613 63.1823C61.0968 62.5469 61.2869 61.5912 60.9429 60.7609C60.599 59.9305 59.7888 59.3892 58.8901 59.3892C57.9913 59.3892 57.1811 59.9305 56.8372 60.7609ZM156.837 160.76C156.493 161.591 156.683 162.546 157.319 163.182C157.735 163.599 158.3 163.833 158.89 163.833C159.479 163.833 160.044 163.599 160.461 163.182C161.096 162.546 161.286 161.591 160.942 160.76C160.599 159.93 159.788 159.389 158.89 159.389C157.991 159.389 157.181 159.93 156.837 160.76ZM58.0397 163.663C58.87 164.007 59.8257 163.817 60.4613 163.182C60.878 162.765 61.1123 162.2 61.1123 161.611C61.1123 161.021 60.878 160.456 60.4613 160.04C59.8257 159.404 58.87 159.214 58.0397 159.558C57.2094 159.902 56.668 160.712 56.668 161.611C56.668 162.509 57.2094 163.32 58.0397 163.663Z" fill="#0099C0"/>
<path d="M181.109 112.722C179.882 112.722 178.887 111.727 178.887 110.5C178.887 109.273 179.882 108.278 181.109 108.278C182.336 108.278 183.331 109.273 183.331 110.5C183.33 111.727 182.336 112.721 181.109 112.722Z" fill="#0029C0"/>
<mask id="mask0_4_3490" style="mask-type:luminance" maskUnits="userSpaceOnUse" x="36" y="108" width="6" height="5">
<path fill-rule="evenodd" clip-rule="evenodd" d="M36.666 112.722V108.278H41.1107V112.722H36.666Z" fill="white"/>
</mask>
<g mask="url(#mask0_4_3490)">
<path d="M38.888 112.722C37.6608 112.722 36.666 111.727 36.666 110.5C36.666 109.273 37.6608 108.278 38.888 108.278C40.1152 108.278 41.11 109.273 41.11 110.5C41.1096 111.727 40.1151 112.722 38.888 112.722Z" fill="#0029C0"/>
</g>
<path d="M112.223 39.3887C112.223 40.616 111.229 41.6107 110.001 41.6107C108.774 41.6107 107.779 40.616 107.779 39.3887C107.779 38.1615 108.774 37.1667 110.001 37.1667C111.228 37.1671 112.223 38.1617 112.223 39.3887Z" fill="#0029C0"/>
<mask id="mask1_4_3490" style="mask-type:luminance" maskUnits="userSpaceOnUse" x="107" y="179" width="6" height="5">
<path fill-rule="evenodd" clip-rule="evenodd" d="M112.223 183.833H107.779V179.388H112.223V183.833Z" fill="white"/>
</mask>
<g mask="url(#mask1_4_3490)">
<path d="M112.223 181.611C112.223 182.838 111.229 183.833 110.001 183.833C108.774 183.833 107.779 182.838 107.779 181.611C107.779 180.384 108.774 179.389 110.001 179.389C111.228 179.389 112.223 180.384 112.223 181.611Z" fill="#0029C0"/>
</g>
<path d="M124.827 103.093H128.144C130.394 103.092 132.217 101.267 132.217 99.0175V88.28H121.481C119.23 88.28 117.405 90.1038 117.404 92.3544V95.6867C117.404 99.7772 114.088 103.093 109.997 103.093C105.907 103.093 102.591 99.7772 102.591 95.6867V92.207C102.589 90.0376 100.83 88.28 98.6607 88.28H87.7773V132.72H98.5793C100.794 132.719 102.59 130.924 102.591 128.709V125.313C102.591 121.223 105.907 117.907 109.997 117.907V117.921C114.088 117.921 117.404 121.237 117.404 125.328V128.677C117.404 130.91 119.214 132.721 121.448 132.721H132.217V121.951C132.217 120.879 131.791 119.85 131.033 119.092C130.275 118.333 129.246 117.907 128.174 117.907H124.811C120.72 117.907 117.404 114.591 117.404 110.501H117.419C117.419 106.41 120.736 103.093 124.827 103.093Z" fill="#003EC5"/>
</g>
<defs>
<clipPath id="clip0_4_3490">
<rect width="220" height="220" fill="white" transform="translate(0 0.5)"/>
</clipPath>
</defs>
</svg>
