<svg width="220" height="221" viewBox="0 0 220 221" fill="none" xmlns="http://www.w3.org/2000/svg">
<g clip-path="url(#clip0_4_3513)">
<path d="M216.683 137.11C201.993 196.038 142.307 231.902 83.3712 217.207C24.4598 202.515 -11.4034 142.826 3.29433 83.9016C17.9792 24.966 77.6648 -10.8997 136.583 3.79159C195.514 18.4829 231.376 78.1776 216.683 137.11Z" fill="#4F473B"/>
<path d="M113.889 110.175L158.289 154.25C181.623 129.5 181.623 90.8504 158.289 66.0999" fill="white"/>
<path d="M110.653 113.093L66.9023 156.518L110.653 174.666L154.403 156.518" fill="white"/>
<path d="M109.035 108.557L154.41 63.5072L112.596 46.3333L71.1133 146.479L109.035 108.557Z" fill="white"/>
<path d="M45.8341 110.175C45.8015 126.569 52.0656 142.346 63.3329 154.25L106.758 49.5693" fill="white"/>
</g>
<defs>
<clipPath id="clip0_4_3513">
<rect width="220" height="220" fill="white" transform="translate(0 0.5)"/>
</clipPath>
</defs>
</svg>
