<svg width="220" height="221" viewBox="0 0 220 221" fill="none" xmlns="http://www.w3.org/2000/svg">
<g clip-path="url(#clip0_4_3549)">
<path d="M110 220.5C170.751 220.5 220 171.251 220 110.5C220 49.7487 170.751 0.5 110 0.5C49.2487 0.5 0 49.7487 0 110.5C0 171.251 49.2487 220.5 110 220.5Z" fill="#EDF0F4"/>
<path d="M36.6661 110.386C36.5977 150.87 69.3609 183.745 109.845 183.813C150.329 183.881 183.203 151.118 183.271 110.634V110.079C183.269 104.441 182.604 98.822 181.29 93.3387C180.177 89.2459 176.022 86.7702 171.892 87.7391C167.763 88.708 165.143 92.7734 165.966 96.9344C172.057 122.034 160.716 148.123 138.208 160.791C115.701 173.46 87.5144 169.619 69.2171 151.39C50.9199 133.16 46.974 104.989 59.5586 82.4338C72.1433 59.879 98.1895 48.4416 123.312 54.4388C127.531 55.4233 131.752 52.8101 132.752 48.5943C133.245 46.5784 132.909 44.449 131.82 42.6824C130.731 40.9158 128.979 39.6592 126.957 39.1937C108.066 34.6538 88.1447 37.8092 71.581 47.9647C55.0174 58.1203 43.1697 74.4432 38.6472 93.3387C37.3366 98.9267 36.6718 104.647 36.6661 110.386Z" fill="url(#paint0_linear_4_3549)"/>
<path d="M147.199 56.4396C147.071 56.5685 147.011 56.6972 146.942 56.7566C145.137 58.6722 144.028 61.1386 143.792 63.7599V65.0179C143.792 65.3349 143.732 65.5826 143.732 65.8996C143.189 71.4924 140.441 76.6383 136.095 80.2C131.749 83.7616 126.163 85.4453 120.573 84.879C119.639 84.7976 118.713 84.6518 117.799 84.4432C117.261 84.3314 116.732 84.1825 116.214 83.9975C113.968 83.4308 111.655 83.1775 109.34 83.2446C102.588 83.3766 96.1178 85.9773 91.1528 90.555C90.9051 90.8027 90.5881 91.0009 90.3305 91.3079C82.9305 98.1446 79.8651 108.483 82.3425 118.248C84.8199 128.014 92.4427 135.64 102.207 138.123C111.971 140.605 122.311 137.545 129.151 130.148C130.287 129.002 131.321 127.759 132.242 126.434C136.722 119.989 138.239 111.938 136.412 104.304C136.256 103.807 136.126 103.301 136.026 102.789C136.026 102.719 135.966 102.66 135.966 102.531C134.693 97.0525 135.654 91.2924 138.638 86.5244C141.621 81.7563 146.381 78.373 151.865 77.1229C152.84 76.8838 153.835 76.7379 154.837 76.6869L155.273 76.6176C155.713 76.5681 156.157 76.5483 156.6 76.5582H156.729C159.467 76.2957 162.03 75.0914 163.98 73.1506C164.426 72.6455 164.871 72.1601 165.248 71.635C167.071 69.0823 167.796 65.9058 167.262 62.8146C166.728 59.7235 164.979 56.9747 162.405 55.1816C157.7 51.8638 151.295 52.3936 147.199 56.4396Z" fill="url(#paint1_linear_4_3549)"/>
</g>
<defs>
<linearGradient id="paint0_linear_4_3549" x1="110.835" y1="2.08151" x2="1.84223" y2="109.529" gradientUnits="userSpaceOnUse">
<stop offset="0.09" stop-color="#00EDD3"/>
<stop offset="0.41" stop-color="#1B456E"/>
</linearGradient>
<linearGradient id="paint1_linear_4_3549" x1="125.973" y1="16.9831" x2="49.6753" y2="94.2246" gradientUnits="userSpaceOnUse">
<stop offset="0.4" stop-color="#00EDD3"/>
<stop offset="0.89" stop-color="#1B456E"/>
</linearGradient>
<clipPath id="clip0_4_3549">
<rect width="220" height="220" fill="white" transform="translate(0 0.5)"/>
</clipPath>
</defs>
</svg>
