<svg width="220" height="221" viewBox="0 0 220 221" fill="none" xmlns="http://www.w3.org/2000/svg">
<g clip-path="url(#clip0_4_3553)">
<path d="M110 220.5C170.751 220.5 220 171.251 220 110.5C220 49.7487 170.751 0.5 110 0.5C49.2487 0.5 0 49.7487 0 110.5C0 171.251 49.2487 220.5 110 220.5Z" fill="#0093DD"/>
<path fill-rule="evenodd" clip-rule="evenodd" d="M93.6192 110.5L129.258 147.005L151.875 124.275C155.987 120.143 162.155 120.143 165.582 124.275C169.694 128.408 169.694 135.296 165.582 139.428L136.112 169.734C131.999 173.866 125.831 173.866 121.719 169.734L79.2268 125.653V151.826C79.2268 157.336 74.4292 162.158 68.9464 162.158C63.4635 162.158 58.666 157.336 58.666 151.826V69.1741C58.666 63.6639 63.4635 58.8426 68.9464 58.8426C74.4292 58.8426 79.2268 63.6639 79.2268 69.1741V95.3472L121.719 51.2661C125.831 47.1336 131.999 47.1336 136.112 51.2661L165.582 81.5719C169.694 85.7044 169.694 92.592 165.582 96.7247C161.47 100.857 155.302 100.857 151.875 96.7247L129.258 73.3067L93.6192 110.5ZM129.258 100.168C134.741 100.168 139.538 104.99 139.538 110.5C139.538 116.01 134.741 120.832 129.258 120.832C123.775 120.832 118.978 116.01 118.978 110.5C118.978 104.99 123.775 100.168 129.258 100.168Z" fill="white"/>
</g>
<defs>
<clipPath id="clip0_4_3553">
<rect width="220" height="220" fill="white" transform="translate(0 0.5)"/>
</clipPath>
</defs>
</svg>
