<svg width="220" height="221" viewBox="0 0 220 221" fill="none" xmlns="http://www.w3.org/2000/svg">
<g clip-path="url(#clip0_4_3556)">
<path d="M110 220.5C170.751 220.5 220 171.251 220 110.5C220 49.7487 170.751 0.5 110 0.5C49.2487 0.5 0 49.7487 0 110.5C0 171.251 49.2487 220.5 110 220.5Z" fill="black"/>
<path d="M172.951 72.1371C170.803 70.4433 168.241 68.1297 163.573 67.5512C159.193 66.9728 154.731 69.9062 151.715 71.848C148.699 73.7897 142.998 79.4912 140.643 81.2264C138.288 82.9615 132.256 84.5728 122.547 90.3982C112.838 96.2235 74.7464 120.682 74.7464 120.682L84.662 120.806L40.4554 143.57H44.8761L38.5137 148.404C38.5137 148.404 44.1325 149.891 48.8423 146.916V148.28C48.8423 148.28 101.477 127.54 111.64 132.911L105.443 134.729C105.98 134.729 115.978 135.39 115.978 135.39C116.47 139.581 118.802 143.337 122.341 145.636C128.373 149.602 128.497 151.792 128.497 151.792C128.497 151.792 125.357 153.072 125.357 154.684C125.357 154.684 129.984 153.279 134.281 153.403C137.008 153.506 139.712 153.936 142.337 154.684C142.337 154.684 142.006 152.948 137.834 151.792C133.661 150.635 129.529 146.09 127.505 143.611C124.982 140.401 124.339 136.099 125.811 132.291C127.257 128.531 132.297 126.466 142.709 121.095C154.979 114.732 157.789 110.023 159.524 106.346C161.259 102.669 163.821 95.3559 165.266 91.9269C167.084 87.5062 169.315 85.1512 171.174 83.7465C173.034 82.3418 181.297 79.2433 181.297 79.2433C181.297 79.2433 174.975 73.7485 172.951 72.1371Z" fill="white"/>
</g>
<defs>
<clipPath id="clip0_4_3556">
<rect width="220" height="220" fill="white" transform="translate(0 0.5)"/>
</clipPath>
</defs>
</svg>
