<svg width="220" height="221" viewBox="0 0 220 221" fill="none" xmlns="http://www.w3.org/2000/svg">
<g clip-path="url(#clip0_4_3559)">
<path d="M110 220.5C170.751 220.5 220 171.251 220 110.5C220 49.7487 170.751 0.5 110 0.5C49.2487 0.5 0 49.7487 0 110.5C0 171.251 49.2487 220.5 110 220.5Z" fill="#EDF0F4"/>
<path d="M102.666 109.623L148.499 135.876C149.249 136.327 150.184 136.337 150.944 135.904C151.705 135.471 152.172 134.661 152.166 133.786V85.4225C152.177 84.5456 151.709 83.7325 150.946 83.3012C150.183 82.8698 149.245 82.8888 148.499 83.3508L102.666 109.623Z" fill="#31CB9E"/>
<path d="M147.529 71.7275L116.197 48.6825C115.538 48.1767 114.671 48.032 113.884 48.2969C113.097 48.5619 112.493 49.2013 112.274 50.0025L100.834 101.336L147.254 75.6692C147.972 75.2996 148.445 74.5816 148.502 73.7757C148.558 72.9698 148.189 72.1932 147.529 71.7275Z" fill="#31CB9E"/>
<path d="M116.161 170.544L147.529 147.499C148.198 147.029 148.574 146.244 148.521 145.429C148.469 144.613 147.996 143.883 147.272 143.502L100.834 117.835L112.274 169.169C112.467 169.979 113.054 170.638 113.837 170.922C114.62 171.207 115.493 171.078 116.161 170.58" fill="#31CB9E"/>
<path d="M90.7507 108.669L102.667 52.9358C102.853 51.9911 102.448 51.0278 101.643 50.5002C100.837 49.9726 99.7924 49.9859 99.0007 50.5341L68.4757 73.9458C66.909 75.1479 65.9934 77.0128 66.0007 78.9874V138.387C65.9703 140.388 66.8882 142.285 68.4757 143.502L98.8541 166.841C99.6457 167.389 100.691 167.402 101.496 166.875C102.302 166.347 102.707 165.384 102.521 164.439L90.7507 108.669Z" fill="#31CB9E"/>
</g>
<defs>
<clipPath id="clip0_4_3559">
<rect width="220" height="220" fill="white" transform="translate(0 0.5)"/>
</clipPath>
</defs>
</svg>
