<svg width="220" height="221" viewBox="0 0 220 221" fill="none" xmlns="http://www.w3.org/2000/svg">
<g clip-path="url(#clip0_4_3565)">
<path d="M110 220.5C170.751 220.5 220 171.251 220 110.5C220 49.7487 170.751 0.5 110 0.5C49.2487 0.5 0 49.7487 0 110.5C0 171.251 49.2487 220.5 110 220.5Z" fill="#EDF0F4"/>
<path d="M59.3275 95.5999L45.834 109.091H72.8188L59.3275 95.5999Z" fill="#A02870"/>
<path d="M72.8166 111.909H45.8398L59.3277 125.399L72.8166 111.909Z" fill="#80286C"/>
<path d="M91.1155 93.608L77.623 80.1165V107.098L91.1155 93.608Z" fill="#C42C79"/>
<path d="M74.8077 107.098V80.1165L61.3164 93.608L74.8077 107.098Z" fill="#A02870"/>
<path d="M93.1146 91.6142L106.605 78.1255H79.6211L93.1146 91.6142Z" fill="#C42C79"/>
<path d="M93.1083 61.8164L79.6133 75.3088H106.597L93.1083 61.8164Z" fill="#E4327F"/>
<path d="M124.9 59.8248L111.41 46.3333V73.3146L124.9 59.8248Z" fill="#0A8B4B"/>
<path d="M108.589 73.3155V46.3333L95.0977 59.8248L108.589 73.3155Z" fill="#E4327F"/>
<path d="M91.1155 127.389L77.623 113.9V140.881L91.1155 127.389Z" fill="#632A69"/>
<path d="M61.3164 127.389L74.8074 140.879V113.9L61.3164 127.389Z" fill="#80286C"/>
<path d="M126.893 91.6142L140.384 78.1255H113.402L126.893 91.6142Z" fill="#167B55"/>
<path d="M113.402 75.3079H140.385L126.894 61.8164L113.402 75.3079Z" fill="#0A8B4B"/>
<path d="M106.598 145.688H79.6133L93.1046 159.181L106.598 145.688Z" fill="#402863"/>
<path d="M93.1135 129.383L79.6211 142.872H106.6L93.1135 129.383Z" fill="#632A69"/>
<path d="M158.682 93.6078L145.191 80.1179V107.097L158.682 93.6078Z" fill="#21695E"/>
<path d="M128.885 93.6079L142.377 107.099V80.1165L128.885 93.6079Z" fill="#167B55"/>
<path d="M95.1035 161.173L108.593 174.663V147.682L95.1035 161.173Z" fill="#402863"/>
<path fill-rule="evenodd" clip-rule="evenodd" d="M140.385 145.689L126.892 159.181L113.4 145.689H140.385ZM111.41 174.662V147.683L124.901 161.173L111.41 174.662Z" fill="#223160"/>
<path d="M126.891 129.383L113.402 142.872H140.38L126.891 129.383Z" fill="#1E4561"/>
<path d="M145.191 113.9V140.88L158.681 127.389L145.191 113.9Z" fill="#245661"/>
<path d="M128.885 127.389L142.377 140.88V113.899L128.885 127.389Z" fill="#1E4561"/>
<path d="M160.671 125.399L174.164 111.908H147.182L160.671 125.399Z" fill="#245661"/>
<path d="M160.675 95.5999L147.182 109.091H174.168L160.675 95.5999Z" fill="#21695E"/>
</g>
<defs>
<clipPath id="clip0_4_3565">
<rect width="220" height="220" fill="white" transform="translate(0 0.5)"/>
</clipPath>
</defs>
</svg>
