<svg width="220" height="221" viewBox="0 0 220 221" fill="none" xmlns="http://www.w3.org/2000/svg">
<g clip-path="url(#clip0_4_3590)">
<path d="M110 220.5C170.751 220.5 220 171.251 220 110.5C220 49.7487 170.751 0.5 110 0.5C49.2487 0.5 0 49.7487 0 110.5C0 171.251 49.2487 220.5 110 220.5Z" fill="#EDF0F4"/>
<path fill-rule="evenodd" clip-rule="evenodd" d="M34.834 110.5C34.834 151.963 68.5378 185.667 110.001 185.667C151.463 185.667 185.167 151.963 185.167 110.5C185.167 69.0371 151.463 35.3333 110.001 35.3333C68.5378 35.3333 34.834 69.0371 34.834 110.5ZM41.1383 110.5C41.1383 72.4317 71.9324 41.6375 110.001 41.6375C148.069 41.6375 178.863 72.4317 178.863 110.5C178.863 148.568 148.069 179.362 110.001 179.362C71.9324 179.362 41.1383 148.568 41.1383 110.5Z" fill="url(#paint0_linear_4_3590)"/>
<path d="M118.731 65.3999C125.52 68.3096 128.915 76.0686 126.005 83.1004L104.425 135.96C101.515 142.991 93.7561 136.445 86.9669 133.535C80.1776 130.625 76.783 132.565 79.6926 125.533L101.273 72.674C103.94 65.8848 111.699 62.4902 118.731 65.3999Z" fill="url(#paint1_linear_4_3590)"/>
<path d="M127.946 144.689H91.3321C84.058 144.689 77.9961 138.869 77.9961 131.353C77.9961 129.656 78.2386 127.958 78.9661 126.261L88.665 103.226C88.665 103.226 87.9375 117.774 103.456 118.017H127.946C135.22 118.017 141.282 123.836 141.282 131.353C141.282 138.869 135.22 144.689 127.946 144.689Z" fill="url(#paint2_linear_4_3590)"/>
</g>
<defs>
<linearGradient id="paint0_linear_4_3590" x1="3.7368" y1="110.5" x2="110.001" y2="216.764" gradientUnits="userSpaceOnUse">
<stop stop-color="#324BCD"/>
<stop offset="1" stop-color="#3DBA8A"/>
</linearGradient>
<linearGradient id="paint1_linear_4_3590" x1="71.3305" y1="100.221" x2="116.021" y2="132.68" gradientUnits="userSpaceOnUse">
<stop stop-color="#3DFFEF"/>
<stop offset="1" stop-color="#A80DE9"/>
</linearGradient>
<linearGradient id="paint2_linear_4_3590" x1="52.4094" y1="121.038" x2="74.6917" y2="172.949" gradientUnits="userSpaceOnUse">
<stop stop-color="#50D3EE"/>
<stop offset="1" stop-color="#324BCD"/>
</linearGradient>
<clipPath id="clip0_4_3590">
<rect width="220" height="220" fill="white" transform="translate(0 0.5)"/>
</clipPath>
</defs>
</svg>
