<svg width="220" height="221" viewBox="0 0 220 221" fill="none" xmlns="http://www.w3.org/2000/svg">
<g clip-path="url(#clip0_4_3595)">
<path d="M110 220.5C170.751 220.5 220 171.251 220 110.5C220 49.7487 170.751 0.5 110 0.5C49.2487 0.5 0 49.7487 0 110.5C0 171.251 49.2487 220.5 110 220.5Z" fill="#EDF0F4"/>
<path d="M119.625 118.75H136.125L127.948 95.375L119.625 118.75Z" fill="#161F37"/>
<path fill-rule="evenodd" clip-rule="evenodd" d="M27.5 110.5C27.5 64.9365 64.4365 28 110 28C155.537 28.0653 192.434 64.9635 192.5 110.5C192.5 156.063 155.563 193 110 193C64.4365 193 27.5 156.063 27.5 110.5ZM141.252 133.754L146.881 149.602H163.766L135.624 71.5457H118.739L96.3734 133.754H79.6365L102.002 71.5457H85.2648L57.2711 149.602H107.63L113.259 133.754H141.252Z" fill="#161F37"/>
</g>
<defs>
<clipPath id="clip0_4_3595">
<rect width="220" height="220" fill="white" transform="translate(0 0.5)"/>
</clipPath>
</defs>
</svg>
