<svg width="220" height="221" viewBox="0 0 220 221" fill="none" xmlns="http://www.w3.org/2000/svg">
<g clip-path="url(#clip0_4_3599)">
<path d="M110 220.5C170.751 220.5 220 171.251 220 110.5C220 49.7487 170.751 0.5 110 0.5C49.2487 0.5 0 49.7487 0 110.5C0 171.251 49.2487 220.5 110 220.5Z" fill="#EDF0F4"/>
<path d="M171.501 93.5069V99.8803L108.758 138.437L61.4729 115.248L61.5633 111.677L108.575 134.821L168.336 98.1157V95.4959L111.922 68.2852L48.9981 107.204V124.608L108.577 154.081L170.777 115.928L172.54 118.64L108.758 157.696L45.834 126.596V105.44L111.741 64.6667L171.501 93.5069Z" fill="url(#paint0_linear_4_3599)"/>
<path d="M170.687 122.887L171.591 117.191L166.074 116.244L166.434 114.029L174.168 115.34L172.903 123.251L170.687 122.887Z" fill="url(#paint1_linear_4_3599)"/>
</g>
<defs>
<linearGradient id="paint0_linear_4_3599" x1="290.404" y1="21.8665" x2="46.3293" y2="20.3578" gradientUnits="userSpaceOnUse">
<stop stop-color="#006149"/>
<stop offset="1" stop-color="#2F4246"/>
</linearGradient>
<linearGradient id="paint1_linear_4_3599" x1="290.047" y1="-20.3202" x2="45.9719" y2="-20.9501" gradientUnits="userSpaceOnUse">
<stop stop-color="#006149"/>
<stop offset="1" stop-color="#2F4246"/>
</linearGradient>
<clipPath id="clip0_4_3599">
<rect width="220" height="220" fill="white" transform="translate(0 0.5)"/>
</clipPath>
</defs>
</svg>
