<svg width="220" height="221" viewBox="0 0 220 221" fill="none" xmlns="http://www.w3.org/2000/svg">
<g clip-path="url(#clip0_4_3603)">
<path d="M110 220.5C170.751 220.5 220 171.251 220 110.5C220 49.7487 170.751 0.5 110 0.5C49.2487 0.5 0 49.7487 0 110.5C0 171.251 49.2487 220.5 110 220.5Z" fill="#EDF0F4"/>
<path fill-rule="evenodd" clip-rule="evenodd" d="M110.032 53.6667L138.551 98.3145L110.032 114.933L81.5195 98.3145L110.032 53.6667ZM90.2497 96.1995L110.032 65.2206L129.821 96.1995L110.032 107.736L90.2497 96.1938V96.1995Z" fill="#273852"/>
<path d="M109.992 124.747L76.9152 105.471L76.0104 106.883C72.1161 112.979 69.9326 120.01 69.6889 127.239C69.4453 134.468 71.1501 141.63 74.6252 147.974C78.1002 154.317 83.2174 159.61 89.4407 163.297C95.6639 166.983 102.764 168.929 109.997 168.929C117.231 168.929 124.331 166.983 130.555 163.297C136.778 159.61 141.895 154.317 145.37 147.974C148.845 141.63 150.55 134.468 150.306 127.239C150.062 120.01 147.879 112.979 143.985 106.883L143.08 105.471L109.992 124.753V124.747Z" fill="#273852"/>
</g>
<defs>
<clipPath id="clip0_4_3603">
<rect width="220" height="220" fill="white" transform="translate(0 0.5)"/>
</clipPath>
</defs>
</svg>
