<svg width="220" height="221" viewBox="0 0 220 221" fill="none" xmlns="http://www.w3.org/2000/svg">
<g clip-path="url(#clip0_4_3607)">
<path d="M110 220.5C170.751 220.5 220 171.251 220 110.5C220 49.7487 170.751 0.5 110 0.5C49.2487 0.5 0 49.7487 0 110.5C0 171.251 49.2487 220.5 110 220.5Z" fill="#EDF0F4"/>
<path fill-rule="evenodd" clip-rule="evenodd" d="M105.069 97.0355C104.189 97.0534 103.394 96.5148 103.083 95.6913C102.773 94.8676 103.016 93.9377 103.689 93.3708C107.179 90.4298 110.194 86.969 112.631 83.11C114.353 80.0929 117.138 78.5415 120.045 78.9326C120.826 78.9821 121.513 79.4635 121.827 80.18C122.14 80.8966 122.027 81.7284 121.533 82.3351C121.04 82.9419 120.249 83.222 119.483 83.0613C117.785 82.8292 116.649 84.466 116.234 85.1745C113.588 89.4328 110.291 93.2496 106.462 96.4857C106.084 96.8388 105.586 97.0353 105.069 97.0355ZM69.9875 132.301C69.1212 132.289 68.3518 131.745 68.0535 130.931C67.7554 130.118 67.9901 129.205 68.6436 128.636C71.0624 126.731 73.6274 125.02 76.3149 123.518C77.2911 123.193 78.3583 123.632 78.8234 124.55C79.2885 125.468 79.0111 126.588 78.1715 127.182C75.7768 128.542 73.4862 130.077 71.3188 131.775C70.9456 132.088 70.4746 132.261 69.9875 132.264" fill="#28646E"/>
<path fill-rule="evenodd" clip-rule="evenodd" d="M122.324 112.549C123.154 113.318 124.119 112.988 124.999 112.146C131.033 106.38 137.422 97.3775 139.547 92.6869C139.697 92.2141 140.033 91.8228 140.478 91.6037C140.923 91.3847 141.438 91.3568 141.905 91.5264C143.065 91.9906 143.053 93.9695 142.002 96.1561C138.384 103.559 133.554 110.306 127.711 116.116C127.377 116.417 127.187 116.845 127.187 117.294C127.187 117.744 127.377 118.172 127.711 118.473C128.382 119.072 129.482 119.035 130.496 117.997C133.753 114.774 136.739 111.289 139.425 107.577C139.805 106.842 140.608 106.426 141.428 106.539C142.43 106.734 142.589 107.699 142.283 108.86C141.782 110.729 136.518 117.643 134.429 119.963C128.773 126.279 123.118 129.736 112.234 135.391C108.472 137.346 105.625 139.263 103.854 142.232C102.279 144.87 101.814 145.738 101.656 146.067C101.053 147.368 101.587 148.911 102.865 149.561C103.482 149.857 104.191 149.895 104.835 149.665C105.48 149.436 106.006 148.958 106.297 148.339C106.297 148.339 106.297 148.241 106.297 148.205C106.297 148.168 106.224 148.205 108.276 144.785C109.808 142.307 112.04 140.339 114.689 139.129C125.61 134.157 130.068 130.236 136.395 123.909C139.377 120.534 142.039 116.891 144.347 113.025C147.389 107.895 145.789 103.51 143.041 102.764C142.857 102.711 142.749 102.522 142.796 102.337C142.791 102.305 142.791 102.272 142.796 102.239C144.396 99.7434 145.581 97.004 146.302 94.1282C146.839 91.4776 146.082 88.2528 142.454 87.471C142.267 87.4283 142.147 87.2441 142.185 87.0558C142.418 86.2128 142.65 85.1502 142.796 84.4539C143.585 81.3794 141.806 78.2305 138.765 77.3202C137.065 76.9505 135.287 77.3237 133.879 78.3464C133.679 78.4829 133.408 78.4518 133.244 78.273C132.541 77.5111 131.557 77.0698 130.52 77.0515C128.236 77.0515 126 77.7111 124.412 81.2168C123.191 83.6599 121.493 87.0923 116.375 92.7725C111.724 97.6963 106.523 102.069 100.874 105.806C100.153 106.27 99.1514 106.16 99.2614 105.207C99.4569 103.681 101.094 93.3709 101.411 90.3904C101.863 85.5044 99.2248 83.2324 96.2564 82.8415C93.8133 82.5117 90.1488 83.208 88.0966 88.7659C85.7611 94.3559 83.8341 100.108 82.3312 105.977C80.7418 112.953 80.584 120.18 81.867 127.219C81.9553 127.707 81.8642 128.21 81.6105 128.636C79.6418 131.588 77.867 134.665 76.2967 137.846C75.7537 139.076 76.2219 140.518 77.3839 141.193C78.6262 141.867 80.179 141.414 80.8652 140.18L80.9385 140.033C81.7203 138.384 83.3817 135.269 83.9679 133.925C84.7653 132.412 85.4749 130.854 86.0933 129.259C86.5003 127.925 86.5003 126.501 86.0933 125.167C85.0734 119.497 85.219 113.678 86.5209 108.066C88.194 101.579 90.2332 95.1927 92.6284 88.9368C93.2514 87.3977 94.131 86.9214 95.0715 87.0068C96.012 87.0923 97.6367 87.5077 97.1603 90.6715C96.2931 96.2782 95.0715 103.4 94.7173 105.806C94.5219 107.028 94.3019 109.727 96.4641 110.985C98.162 111.962 100.031 111.425 102.083 110.045C108.499 105.697 114.418 100.659 119.734 95.02C124.999 89.1078 126.672 85.5778 128.028 82.3896C128.529 81.3655 129.694 80.8501 130.789 81.168C131.351 81.3268 132.01 82.0842 131.558 83.6843C130.337 87.581 125.573 96.4859 116.314 104.841C115.896 105.131 115.62 105.583 115.55 106.086C115.48 106.59 115.624 107.099 115.947 107.492C116.274 107.852 116.737 108.058 117.224 108.058C117.71 108.058 118.174 107.852 118.5 107.492C124.889 101.87 130.039 94.9815 133.623 87.2633C134.334 85.7508 134.942 84.1919 135.443 82.5971C135.654 81.5835 136.584 80.8833 137.617 80.9603C138.631 81.168 139.303 82.1819 138.985 83.9287C138.465 86.1116 137.703 88.2297 136.713 90.244C134.05 95.9117 128.407 103.497 122.324 110.008C121.979 110.333 121.784 110.786 121.784 111.26C121.784 111.734 121.979 112.187 122.324 112.512M84.6886 84.3316C85.0062 84.0508 84.8841 83.6843 84.7986 83.4034C84.3465 81.9621 81.7936 75.9766 81.134 74.7794C81.0447 74.5457 80.8638 74.3587 80.6329 74.2617C80.4023 74.1649 80.142 74.1665 79.9124 74.2665C79.0106 74.7305 78.1863 75.3322 77.4695 76.0499C76.657 76.6773 75.9517 77.4323 75.3806 78.2853C75.2636 78.4938 75.235 78.7405 75.3018 78.9702C75.3683 79.2 75.5244 79.3932 75.735 79.5067C76.8343 80.3374 82.441 83.6476 83.7969 84.2706C84.078 84.405 84.4199 84.576 84.7376 84.2706L84.6886 84.3316ZM72.4735 86.3472C71.7772 86.3472 71.4841 86.6404 71.3986 87.1168C71.3183 88.1406 71.3966 89.1707 71.6305 90.1706C71.7504 91.1881 72.0265 92.1811 72.4491 93.1144C72.6904 93.5465 73.2312 93.7088 73.6705 93.4809C74.892 92.9679 80.6821 89.9019 81.928 89.0712C82.1845 88.9001 82.5022 88.6926 82.4289 88.2651M130.862 137.346C130.435 137.346 130.312 137.749 130.202 138.03C129.689 139.434 128.089 145.75 127.881 147.106C127.807 147.346 127.836 147.605 127.961 147.823C128.086 148.041 128.296 148.197 128.541 148.254C129.552 148.448 130.586 148.481 131.607 148.351C132.633 148.339 133.65 148.17 134.624 147.851C134.854 147.757 135.035 147.574 135.127 147.343C135.219 147.113 135.214 146.855 135.113 146.629C134.734 145.31 132.303 139.3 131.607 137.944C131.461 137.675 131.29 137.333 130.862 137.358V137.346ZM134.527 134.426C134.319 134.805 134.527 135.098 134.759 135.33C135.699 136.552 140.256 141.157 141.306 142.036C141.479 142.219 141.72 142.323 141.972 142.323C142.224 142.323 142.464 142.219 142.637 142.036C143.322 141.274 143.883 140.408 144.299 139.471C144.813 138.583 145.18 137.618 145.386 136.613C145.386 136.124 145.264 135.733 144.592 135.55C143.273 135.184 136.848 134.133 135.345 134.047C135.04 134.047 134.661 134.047 134.465 134.365L134.527 134.426ZM112.197 169.423C112.202 170.369 111.636 171.224 110.763 171.588C109.89 171.952 108.883 171.753 108.214 171.085C107.546 170.416 107.347 169.409 107.711 168.536C108.075 167.663 108.93 167.097 109.876 167.102C110.492 167.102 111.082 167.346 111.517 167.782C111.953 168.217 112.197 168.807 112.197 169.423ZM112.197 51.3507C112.197 52.2956 111.627 53.147 110.754 53.5074C109.881 53.8679 108.876 53.666 108.21 52.9961C107.544 52.3264 107.347 51.3208 107.712 50.4494C108.077 49.5781 108.932 49.0127 109.876 49.0176C110.494 49.0176 111.086 49.2638 111.522 49.7018C111.957 50.1396 112.201 50.7331 112.197 51.3507ZM127.393 166.809C127.72 168.047 126.982 169.315 125.744 169.644C124.507 169.973 123.237 169.237 122.907 168C122.576 166.763 123.31 165.492 124.547 165.159C125.143 164.999 125.778 165.083 126.312 165.393C126.847 165.702 127.235 166.212 127.393 166.809ZM96.855 52.7556C97.0732 53.5584 96.8464 54.417 96.2601 55.0073C95.6738 55.5978 94.8171 55.8306 94.0124 55.6182C93.2079 55.4057 92.578 54.78 92.3599 53.977C92.0225 52.7358 92.7553 51.4559 93.9966 51.1186C95.238 50.7813 96.5177 51.5142 96.855 52.7556ZM141.416 160.347C141.851 161.066 141.863 161.964 141.448 162.695C141.033 163.425 140.255 163.874 139.415 163.869C138.574 163.863 137.802 163.404 137.397 162.668C136.788 161.561 137.175 160.17 138.269 159.538C139.363 158.906 140.762 159.266 141.416 160.347ZM82.3678 58.0935C83.0221 59.1965 82.6584 60.6211 81.5555 61.2756C80.4523 61.93 79.0278 61.5662 78.3733 60.4633C77.7638 59.3565 78.1515 57.9656 79.2456 57.3336C80.3398 56.7018 81.7382 57.0612 82.3922 58.1425M153.24 150.538C154.148 151.445 154.148 152.916 153.24 153.824C152.333 154.731 150.862 154.731 149.954 153.824C149.047 152.916 149.047 151.445 149.954 150.538C150.862 149.631 152.333 149.631 153.24 150.538ZM69.7739 66.9984C70.3609 67.5854 70.5901 68.4409 70.3753 69.2428C70.1604 70.0445 69.5341 70.6707 68.7324 70.8856C67.9305 71.1005 67.0751 70.8713 66.488 70.2843C65.5807 69.377 65.5807 67.9057 66.488 66.9984C67.3953 66.0911 68.8666 66.0911 69.7739 66.9984ZM162.157 137.846C163.277 138.474 163.676 139.89 163.049 141.01C162.422 142.13 161.005 142.529 159.885 141.902C158.772 141.261 158.389 139.839 159.03 138.726C159.671 137.613 161.093 137.23 162.206 137.871M59.8796 78.8593C60.6157 79.2649 61.0751 80.0365 61.0806 80.8769C61.0861 81.7171 60.6371 82.4948 59.9064 82.9101C59.1758 83.3251 58.2778 83.313 57.5588 82.8782C56.4777 82.2242 56.1181 80.8256 56.7499 79.7314C57.3819 78.6373 58.773 78.2497 59.8796 78.8593ZM167.495 123.42C168.74 123.731 169.498 124.991 169.187 126.236C168.877 127.481 167.616 128.238 166.372 127.928H166.298C165.497 127.709 164.874 127.081 164.662 126.278C164.451 125.475 164.684 124.621 165.273 124.037C165.863 123.452 166.719 123.227 167.52 123.445M53.4789 92.9067C54.2841 93.125 54.9116 93.7561 55.1252 94.5626C55.3388 95.369 55.106 96.2281 54.5145 96.8163C53.9229 97.4044 53.0625 97.6323 52.2573 97.4141C51.0862 97.0209 50.4245 95.7828 50.7485 94.5906C51.0724 93.3984 52.2696 92.6654 53.4789 92.919M168.912 108.029C170.194 108.029 171.233 109.068 171.233 110.35C171.233 111.632 170.194 112.671 168.912 112.671C167.63 112.671 166.591 111.632 166.591 110.35C166.591 109.068 167.63 108.029 168.912 108.029ZM50.8403 108.029C51.6696 108.029 52.4357 108.472 52.8504 109.19C53.2649 109.908 53.2649 110.792 52.8504 111.51C52.4357 112.229 51.6696 112.671 50.8403 112.671C49.5587 112.671 48.5195 111.632 48.5195 110.35C48.5195 109.068 49.5587 108.029 50.8403 108.029ZM166.298 92.8213C167.503 92.5629 168.699 93.2906 169.024 94.479C169.348 95.6671 168.688 96.9021 167.52 97.292H167.459C166.217 97.6294 164.938 96.8966 164.6 95.6552C164.263 94.4139 164.996 93.1342 166.237 92.7969M52.184 123.335C52.9996 123.062 53.8991 123.264 54.5211 123.857C55.1434 124.451 55.3863 125.34 55.1523 126.167C54.9186 126.995 54.2463 127.625 53.4055 127.805C52.6047 128.024 51.7484 127.798 51.159 127.214C50.5696 126.629 50.3369 125.775 50.5483 124.972C50.7597 124.17 51.3832 123.541 52.184 123.323M159.775 78.7616C160.494 78.3267 161.392 78.3145 162.123 78.7297C162.854 79.145 163.303 79.9227 163.297 80.7629C163.292 81.6033 162.832 82.3749 162.096 82.7805C160.99 83.39 159.598 83.0023 158.967 81.9082C158.335 80.814 158.694 79.4156 159.775 78.7616ZM57.5832 137.883C58.3953 137.401 59.4183 137.46 60.1705 138.031C60.9226 138.602 61.2537 139.571 61.008 140.483C60.7622 141.395 59.9887 142.067 59.0515 142.183C58.1143 142.298 57.2004 141.835 56.7404 141.01C56.1181 139.905 56.4923 138.506 57.5832 137.859M149.979 67.0107C150.886 66.1057 152.354 66.1068 153.26 67.0131C154.165 67.9193 154.165 69.3878 153.26 70.294C152.354 71.2002 150.886 71.2013 149.979 70.2966C149.077 69.3869 149.077 67.9202 149.979 67.0107ZM66.488 150.489C67.395 149.584 68.8635 149.585 69.769 150.492C70.6746 151.398 70.6746 152.866 69.769 153.773C68.8635 154.679 67.395 154.68 66.488 153.775C66.0486 153.341 65.8013 152.749 65.8013 152.132C65.8013 151.515 66.0486 150.923 66.488 150.489ZM137.336 58.0935C137.977 56.9851 139.395 56.6056 140.504 57.2452C141.614 57.8849 141.995 59.3022 141.357 60.4123C140.719 61.5226 139.302 61.9061 138.191 61.2694C137.081 60.6259 136.7 59.2073 137.336 58.0935ZM78.349 160.347C78.7354 159.588 79.5069 159.101 80.3585 159.08C81.2101 159.058 82.005 159.505 82.4296 160.243C82.854 160.982 82.8397 161.894 82.3922 162.619C81.7382 163.7 80.3398 164.059 79.2456 163.428C78.1515 162.796 77.7638 161.405 78.3733 160.298M122.91 52.7556C123.102 51.9482 123.71 51.3045 124.505 51.0673C125.3 50.8299 126.162 51.0346 126.765 51.6046C127.368 52.1746 127.622 53.0231 127.43 53.8305V53.9649C127.092 55.2027 125.815 55.9328 124.577 55.5956C123.339 55.2583 122.609 53.9812 122.947 52.7433M92.4086 166.796C92.7223 165.552 93.9857 164.797 95.2303 165.111C96.475 165.424 97.2297 166.688 96.916 167.932C96.6979 168.733 96.069 169.357 95.2664 169.568C94.4638 169.78 93.6093 169.547 93.0248 168.957C92.4405 168.368 92.2148 167.512 92.433 166.711" fill="#28646E"/>
<path fill-rule="evenodd" clip-rule="evenodd" d="M177.506 138.386C166.176 165.743 139.482 183.58 109.872 183.58C69.4656 183.533 36.7199 150.793 36.666 110.387C36.6611 80.7766 54.4939 54.0794 81.8485 42.7449C109.203 31.4101 140.692 37.6704 161.631 58.6059C182.571 79.5417 188.836 111.03 177.506 138.386ZM176.884 110.387C176.884 73.3767 146.881 43.3742 109.872 43.3742C72.8784 43.4146 42.8995 73.3934 42.8592 110.387C42.8592 147.397 72.8615 177.399 109.872 177.399C146.881 177.399 176.884 147.397 176.884 110.387Z" fill="#28646E"/>
</g>
<defs>
<clipPath id="clip0_4_3607">
<rect width="220" height="220" fill="white" transform="translate(0 0.5)"/>
</clipPath>
</defs>
</svg>
