<svg width="220" height="221" viewBox="0 0 220 221" fill="none" xmlns="http://www.w3.org/2000/svg">
<g clip-path="url(#clip0_4_3612)">
<path d="M110 220.5C170.753 220.5 220 171.253 220 110.5C220 49.747 170.753 0.5 110 0.5C49.247 0.5 0 49.747 0 110.5C0 171.253 49.247 220.5 110 220.5Z" fill="#EDF0F4"/>
<path fill-rule="evenodd" clip-rule="evenodd" d="M56.84 117.577C56.84 121.729 59.2578 125.661 64.1666 129.544L119.507 74.2038C122.608 70.8579 123.805 67.1214 123.072 62.9697C122.196 58.5599 119.77 54.6097 116.234 51.8333L60.7476 107.32C59.4542 108.689 58.4434 110.3 57.773 112.06C57.1025 113.82 56.7854 115.695 56.84 117.577ZM83.8995 149.277C79.0395 145.443 76.5729 141.462 76.6217 137.359C76.5672 135.476 76.8842 133.602 77.5547 131.841C78.2251 130.081 79.236 128.471 80.5293 127.102L136.016 71.6151C139.538 74.3893 141.954 78.3297 142.829 82.7269C143.562 86.8787 142.366 90.6154 139.264 93.9611L83.8995 149.277ZM103.681 169.059C98.7724 165.176 96.3546 161.243 96.3791 157.116C96.3247 155.234 96.6417 153.359 97.3121 151.599C97.9824 149.839 98.9933 148.228 100.287 146.859L155.773 91.3724C159.295 94.1466 161.712 98.087 162.587 102.484C163.32 106.636 162.123 110.373 159.022 113.718L103.681 169.059Z" fill="url(#paint0_linear_4_3612)"/>
</g>
<defs>
<linearGradient id="paint0_linear_4_3612" x1="69.5212" y1="116.155" x2="119.483" y2="156.977" gradientUnits="userSpaceOnUse">
<stop stop-color="#7EB5FF"/>
<stop offset="0.9997" stop-color="#1A38F8"/>
</linearGradient>
<clipPath id="clip0_4_3612">
<rect width="220" height="220" fill="white" transform="translate(0 0.5)"/>
</clipPath>
</defs>
</svg>
