<svg width="220" height="221" viewBox="0 0 220 221" fill="none" xmlns="http://www.w3.org/2000/svg">
<g clip-path="url(#clip0_4_3615)">
<path d="M110 220.5C170.751 220.5 220 171.251 220 110.5C220 49.7487 170.751 0.5 110 0.5C49.2487 0.5 0 49.7487 0 110.5C0 171.251 49.2487 220.5 110 220.5Z" fill="#EDF0F4"/>
<path d="M102.42 159.336C129.574 159.336 151.588 137.322 151.588 110.168C151.588 83.0132 129.574 61 102.42 61C75.2651 61 53.252 83.0132 53.252 110.168C53.252 137.322 75.2651 159.336 102.42 159.336Z" fill="#2EB6EA"/>
<path d="M102.149 159.336C53.2483 159.336 33.9488 95.0037 77.1429 67.8926C72.0061 121.661 99.3317 122.85 124.689 121.661C167.179 119.668 167.207 159.336 167.207 159.336H102.149Z" fill="#1542CD"/>
<path fill-rule="evenodd" clip-rule="evenodd" d="M148.891 126.252C141.494 145.211 123.303 158.769 101.871 159.372C102.375 159.386 102.882 159.393 103.392 159.393H168.042C168.042 159.393 168.025 136.143 148.891 126.252Z" fill="#745DDF"/>
</g>
<defs>
<clipPath id="clip0_4_3615">
<rect width="220" height="220" fill="white" transform="translate(0 0.5)"/>
</clipPath>
</defs>
</svg>
