<svg width="220" height="221" viewBox="0 0 220 221" fill="none" xmlns="http://www.w3.org/2000/svg">
<g clip-path="url(#clip0_4_3620)">
<path d="M110 220.5C170.751 220.5 220 171.251 220 110.5C220 49.7487 170.751 0.5 110 0.5C49.2487 0.5 0 49.7487 0 110.5C0 171.251 49.2487 220.5 110 220.5Z" fill="#EDF0F4"/>
<path d="M176.891 130.03C169.529 155.412 148.423 174.431 122.415 179.12V159.293C127.116 157.502 131.348 154.662 134.786 150.988C136.697 148.939 138.329 146.648 139.643 144.173C142.143 139.459 143.437 134.199 143.41 128.863C143.41 111.335 130.756 104.327 118.893 99.1298L112.885 96.4746C106.462 93.5939 101.549 91.0313 101.549 86.6448C101.549 80.582 106.84 77.3236 111.83 77.3236C117.141 77.3236 120.153 79.2833 123.335 84.7996L125.802 89.0738L141.676 78.8869L139.608 75.0461C135.968 68.1047 129.82 62.8104 122.416 60.2399V42.0547C123.959 42.3181 125.484 42.6566 127.029 43.0529C127.18 43.0911 127.35 43.1281 127.519 43.1618C127.691 43.1945 127.861 43.2385 128.028 43.2935C128.079 43.2995 128.13 43.3124 128.178 43.3316C128.593 43.4405 129.025 43.5384 129.458 43.6702C147.201 48.8314 162.166 60.83 171.061 77.0259C179.957 93.2216 182.054 112.288 176.891 130.03Z" fill="#745DDF"/>
<path d="M123.922 129.824C123.922 137.809 116.709 142.741 110.043 142.741C102.041 142.741 97.4649 136.132 96.5797 129.993L95.8262 124.664L76.6199 130.073L77.4907 134.366C80.2396 147.905 89.4858 157.641 102.046 160.579V179.767C98.6386 179.368 95.2652 178.719 91.9528 177.827C91.4825 177.718 91.0295 177.582 90.5593 177.45C60.8222 168.791 40.3633 141.552 40.334 110.58V43.6366C40.3358 42.1191 41.5654 40.8893 43.0829 40.8877H102.042V60.0572C95.1424 62.0548 89.2638 66.6066 85.6025 72.786C83.2543 76.8956 82.0332 81.5527 82.0621 86.2856V86.6624C82.2482 102.294 93.7372 108.828 104.584 113.742L110.01 116.096L110.462 116.303C119.064 120.239 123.922 122.819 123.922 129.824Z" fill="#2EB6EA"/>
<path d="M143.409 128.863C143.437 134.199 142.143 139.458 139.644 144.172C138.33 146.647 136.696 148.939 134.785 150.988C131.346 154.661 127.115 157.5 122.413 159.291L122.422 179.213L116.853 179.705C116.853 179.705 104.911 180.064 102.068 179.705L102.038 160.574C89.4792 157.636 80.233 147.901 77.4841 134.36L76.6133 130.066L95.8198 124.662L96.5731 129.991C97.4625 136.132 102.038 142.743 110.041 142.743C116.707 142.743 123.92 137.809 123.92 129.825C123.92 122.821 119.061 120.245 110.456 116.305L110.004 116.098L104.582 113.744C93.735 108.828 82.2482 102.294 82.0599 86.6645V86.2878C82.0308 81.5547 83.2521 76.8978 85.6003 72.7882C89.2609 66.6082 95.1391 62.0555 102.038 60.0572V40.868C114.597 40.7613 115.559 40.8352 122.413 42.0393V60.2455C129.818 62.816 135.965 68.1101 139.606 75.0515L141.674 78.8925L125.803 89.0704L123.336 84.7964C120.154 79.2789 117.141 77.3204 111.831 77.3204C106.841 77.3204 101.55 80.5777 101.55 86.6416C101.55 91.029 106.464 93.5896 112.886 96.4714L118.891 99.1299C130.758 104.327 143.409 111.332 143.409 128.863Z" fill="white"/>
</g>
<defs>
<clipPath id="clip0_4_3620">
<rect width="220" height="220" fill="white" transform="translate(0 0.5)"/>
</clipPath>
</defs>
</svg>
