<svg width="220" height="221" viewBox="0 0 220 221" fill="none" xmlns="http://www.w3.org/2000/svg">
<g clip-path="url(#clip0_4_3625)">
<path d="M110 220.5C170.751 220.5 220 171.251 220 110.5C220 49.7487 170.751 0.5 110 0.5C49.2487 0.5 0 49.7487 0 110.5C0 171.251 49.2487 220.5 110 220.5Z" fill="#EDF0F4"/>
<path fill-rule="evenodd" clip-rule="evenodd" d="M100.904 71.9324L110.784 55.5L157.294 134.939C157.294 134.939 130.441 165.259 130.244 165.498C130.267 165.365 107.636 165.499 107.636 165.499L136.57 133.053L100.904 71.9324ZM130.244 165.498C130.242 165.5 130.243 165.499 130.244 165.498ZM64.166 135.209L97.8102 77.9924L107.626 93.7433L84.7487 132.651L99.0283 148.534H115.225L100.648 165.499H90.6771L64.166 135.209Z" fill="#04183D"/>
</g>
<defs>
<clipPath id="clip0_4_3625">
<rect width="220" height="220" fill="white" transform="translate(0 0.5)"/>
</clipPath>
</defs>
</svg>
