<svg width="220" height="221" viewBox="0 0 220 221" fill="none" xmlns="http://www.w3.org/2000/svg">
<g clip-path="url(#clip0_4_3628)">
<path d="M110.917 207.667C165.087 207.667 209.001 163.753 209.001 109.583C209.001 55.4134 165.087 11.5 110.917 11.5C56.7474 11.5 12.834 55.4134 12.834 109.583C12.834 163.753 56.7474 207.667 110.917 207.667Z" fill="white"/>
<path fill-rule="evenodd" clip-rule="evenodd" d="M0 110.5C0 49.7487 49.2485 0.5 109.999 0.5H110.639C139.728 0.584643 167.592 12.2215 188.1 32.8505C208.61 53.4795 220.084 81.4109 219.998 110.5C219.998 171.251 170.751 220.5 109.999 220.5C49.2485 220.5 0 171.251 0 110.5ZM100.411 152.849L111.864 114.229L129.709 109.168L133.438 96.3837L115.859 101.711L134.503 38.3207V37.3087C134.475 36.4891 134.123 35.7143 133.523 35.1548C132.924 34.5952 132.127 34.2969 131.307 34.3257H107.602C105.756 34.2687 104.108 35.4773 103.607 37.2554L81.5008 112.364L63.9223 117.691L59.9271 129.943L77.5056 124.616L61.7916 178.151H155.544C157.397 178.228 159.056 177.011 159.539 175.222L164.866 156.844V155.832C164.838 155.012 164.486 154.237 163.886 153.678C163.287 153.118 162.49 152.82 161.67 152.849H100.411Z" fill="#345D9D"/>
</g>
<defs>
<clipPath id="clip0_4_3628">
<rect width="220" height="220" fill="white" transform="translate(0 0.5)"/>
</clipPath>
</defs>
</svg>
