<svg width="220" height="221" viewBox="0 0 220 221" fill="none" xmlns="http://www.w3.org/2000/svg">
<g clip-path="url(#clip0_4_3631)">
<path d="M110 220.5C170.751 220.5 220 171.251 220 110.5C220 49.7487 170.751 0.5 110 0.5C49.2487 0.5 0 49.7487 0 110.5C0 171.251 49.2487 220.5 110 220.5Z" fill="#EDF0F4"/>
<path fill-rule="evenodd" clip-rule="evenodd" d="M64.166 138V156.333H82.4993V138H64.166ZM64.166 101.333V119.667H82.4993V101.333H64.166ZM137.499 101.333V119.667H155.833V101.333H137.499ZM64.166 83.0001V64.6667H82.4993V83.0001H64.166ZM100.833 101.333V83.0001H119.166V101.333H100.833ZM100.833 119.667V138H119.166V119.667H100.833Z" fill="#131418"/>
</g>
<defs>
<clipPath id="clip0_4_3631">
<rect width="220" height="220" fill="white" transform="translate(0 0.5)"/>
</clipPath>
</defs>
</svg>
