<svg width="220" height="221" viewBox="0 0 220 221" fill="none" xmlns="http://www.w3.org/2000/svg">
<g clip-path="url(#clip0_4_3634)">
<path d="M110 220.5C170.751 220.5 220 171.251 220 110.5C220 49.7487 170.751 0.5 110 0.5C49.2487 0.5 0 49.7487 0 110.5C0 171.251 49.2487 220.5 110 220.5Z" fill="#EDF0F4"/>
<path fill-rule="evenodd" clip-rule="evenodd" d="M55.5244 105.726L143.229 167.292L164.473 152.458C170.539 148.204 174.151 141.259 174.151 133.85C174.151 126.44 170.539 119.495 164.473 115.241L76.7685 53.6667L55.5244 68.5087C49.4544 72.7609 45.8398 79.7061 45.8398 87.1174C45.8398 94.5284 49.4544 101.474 55.5244 105.726ZM60.2016 75.1516L76.7605 63.5668L159.811 121.876C163.715 124.612 166.039 129.079 166.039 133.846C166.039 138.612 163.715 143.08 159.811 145.815L143.253 157.392L60.2016 99.0912C56.295 96.3576 53.9681 91.8896 53.9681 87.1214C53.9681 82.3533 56.295 77.8853 60.2016 75.1516Z" fill="#4BC0C8"/>
<path d="M76.6824 157.336L60.1477 145.727C56.2444 142.991 53.9201 138.524 53.9201 133.757C53.9201 128.99 56.2444 124.523 60.1477 121.787L102.949 91.8626L95.8888 86.9207L55.5186 115.144C49.4486 119.397 45.834 126.342 45.834 133.753C45.834 141.164 49.4486 148.11 55.5186 152.362L76.7064 167.236L102.917 148.896L95.8567 143.938L76.6824 157.336Z" fill="#02819B"/>
<path d="M164.517 68.5971L143.321 53.7229L117.087 72.0788L124.147 77.0369L143.313 63.655L159.856 75.2638C163.759 77.9997 166.084 82.467 166.084 87.2337C166.084 92.0003 163.759 96.4676 159.856 99.2035L117.047 129.104L124.107 134.062L164.485 105.814C170.555 101.562 174.17 94.6169 174.17 87.2056C174.17 79.7946 170.555 72.8491 164.485 68.5971H164.517Z" fill="#02819B"/>
<path d="M60.5645 111.591L93.9181 88.2544L98.568 94.9L65.2145 118.237L60.5645 111.591Z" fill="#02819B"/>
<path d="M155.537 102.164L139.291 113.54L143.936 120.183L160.784 108.381C159.019 106.344 157.278 104.258 155.537 102.164Z" fill="#02819B"/>
</g>
<defs>
<clipPath id="clip0_4_3634">
<rect width="220" height="220" fill="white" transform="translate(0 0.5)"/>
</clipPath>
</defs>
</svg>
