<svg width="220" height="221" viewBox="0 0 220 221" fill="none" xmlns="http://www.w3.org/2000/svg">
<g clip-path="url(#clip0_4_3644)">
<path d="M110 220.5C170.751 220.5 220 171.251 220 110.5C220 49.7487 170.751 0.5 110 0.5C49.2487 0.5 0 49.7487 0 110.5C0 171.251 49.2487 220.5 110 220.5Z" fill="#EDF0F4"/>
<path fill-rule="evenodd" clip-rule="evenodd" d="M121.297 61.9409L110.58 72.658L112.78 74.8589C113.374 75.4608 114.184 75.7998 115.029 75.7998C115.874 75.7998 116.684 75.4608 117.278 74.8589L127.995 64.1416L125.794 61.9409C125.201 61.3388 124.391 61 123.545 61C122.7 61 121.89 61.3388 121.297 61.9409ZM94.0253 61.9409L91.4416 64.1416L102.637 74.8589C103.214 75.4553 104.008 75.7919 104.838 75.7919C105.668 75.7919 106.462 75.4553 107.039 74.8589L109.24 72.658L98.427 61.9409C97.85 61.3445 97.0558 61.0077 96.2261 61.0077C95.3965 61.0077 94.6021 61.3445 94.0253 61.9409ZM111.058 96.389L131.44 76.0071H131.536C133.845 73.7334 137.551 73.7334 139.86 76.0071L143.975 80.1218L123.593 100.599C121.251 102.885 117.514 102.885 115.173 100.599L111.058 96.389ZM79.8634 76.0071L75.7486 80.1218L96.1304 100.504C97.2311 101.65 98.7517 102.298 100.341 102.298C101.93 102.298 103.451 101.65 104.551 100.504L108.666 96.389L88.2839 76.0071C85.9422 73.7219 82.2051 73.7219 79.8634 76.0071ZM105.508 77.7295L107.613 75.5286H107.709C108.286 74.9322 109.08 74.5956 109.91 74.5956C110.739 74.5956 111.534 74.9322 112.111 75.5286L114.311 77.7295L109.91 82.1312L105.508 77.7295ZM145.889 95.9105L111.919 129.784L118.713 136.674C120.522 138.606 123.051 139.703 125.698 139.703C128.346 139.703 130.874 138.606 132.684 136.674L166.558 102.8L159.764 95.9105C157.955 93.978 155.426 92.8815 152.779 92.8815C150.131 92.8815 147.602 93.978 145.793 95.9105H145.889ZM53.166 102.704L59.7686 95.9105H60.0557C61.8648 93.978 64.3937 92.8815 67.0409 92.8815C69.6882 92.8815 72.2171 93.978 74.0262 95.9105L107.9 129.784L101.011 136.674C99.2014 138.606 96.6725 139.703 94.0253 139.703C91.3782 139.703 88.8493 138.606 87.04 136.674L53.166 102.704ZM105.412 101.843L101.298 105.958L109.623 114.283L118.235 105.958L114.12 101.843C113.006 100.721 111.491 100.09 109.91 100.09C108.329 100.09 106.813 100.721 105.699 101.843H105.412ZM96.0349 145.573L102.924 138.779C104.734 136.847 107.263 135.75 109.91 135.75C112.557 135.75 115.086 136.847 116.895 138.779L123.689 145.573L109.91 159.448L96.0349 145.573Z" fill="url(#paint0_linear_4_3644)"/>
</g>
<defs>
<linearGradient id="paint0_linear_4_3644" x1="95.2454" y1="159.187" x2="189.361" y2="159.187" gradientUnits="userSpaceOnUse">
<stop stop-color="#7CB7FF"/>
<stop offset="1" stop-color="#BA6DF6"/>
</linearGradient>
<clipPath id="clip0_4_3644">
<rect width="220" height="220" fill="white" transform="translate(0 0.5)"/>
</clipPath>
</defs>
</svg>
