<svg width="220" height="221" viewBox="0 0 220 221" fill="none" xmlns="http://www.w3.org/2000/svg">
<g clip-path="url(#clip0_4_3647)">
<path d="M110 220.5C170.751 220.5 220 171.251 220 110.5C220 49.7487 170.751 0.5 110 0.5C49.2487 0.5 0 49.7487 0 110.5C0 171.251 49.2487 220.5 110 220.5Z" fill="#F55749"/>
<path fill-rule="evenodd" clip-rule="evenodd" d="M108.704 41.1666C109.505 40.7222 110.48 40.7222 111.281 41.1666L168.246 72.914C169.039 73.3483 169.532 74.1744 169.535 75.0728C169.535 75.9665 169.05 76.7915 168.253 77.2315L118.698 104.964C116.951 102.992 114.57 101.68 111.959 101.252V86.1754C117.327 85.2887 121.42 80.7788 121.42 75.3271C121.42 69.243 116.323 64.3069 110.027 64.3069C103.731 64.3069 98.634 69.243 98.634 75.3271C98.634 80.7444 102.686 85.2404 108.012 86.1617V101.272C105.437 101.712 103.091 103.012 101.363 104.957L51.8147 77.3415C51.0194 76.9109 50.524 76.084 50.5227 75.1848C50.5213 74.2857 51.0139 73.4572 51.8077 73.024L108.711 41.1873L108.704 41.1666ZM168.413 81.1776C169.211 80.7282 170.188 80.7257 170.989 81.1706C171.782 81.6053 172.277 82.4305 172.284 83.3294L172.333 144.968C172.333 145.862 171.848 146.68 171.044 147.127L115.879 177.994C114.169 178.957 112.022 177.754 112.022 175.836L111.973 122.948C114.647 122.508 117.071 121.154 118.809 119.133L132.592 126.798C132.212 128.205 132.125 129.674 132.335 131.116C133.208 137.145 138.977 141.338 145.204 140.493C151.437 139.64 155.773 134.065 154.9 128.036C154.027 122.007 148.251 117.813 142.025 118.665C138.897 119.081 136.083 120.766 134.254 123.32L120.748 115.806C121.718 113.255 121.649 110.443 120.575 107.934L168.42 81.1638L168.413 81.1776ZM50.2979 80.8269C48.9543 80.8269 47.7214 81.8651 47.7214 83.3224L47.666 144.961C47.6689 145.86 48.1619 146.686 48.9543 147.12L104.126 177.987C105.844 178.95 107.991 177.754 107.991 175.836L108.032 122.935C105.387 122.481 102.99 121.133 101.266 119.126L87.49 126.791C87.871 128.201 87.9581 129.672 87.7463 131.116C86.8597 137.138 81.1113 141.338 74.878 140.486C68.6447 139.633 64.302 134.058 65.1817 128.036C66.0613 122.013 71.8167 117.813 78.05 118.665C81.1779 119.082 83.9919 120.767 85.821 123.32L99.3196 115.806C98.3637 113.262 98.4193 110.471 99.4789 107.968L51.5861 81.1706C51.1983 80.9438 50.748 80.8269 50.2979 80.8269Z" fill="white"/>
</g>
<defs>
<clipPath id="clip0_4_3647">
<rect width="220" height="220" fill="white" transform="translate(0 0.5)"/>
</clipPath>
</defs>
</svg>
