<svg width="220" height="221" viewBox="0 0 220 221" fill="none" xmlns="http://www.w3.org/2000/svg">
<g clip-path="url(#clip0_4_3659)">
<path fill-rule="evenodd" clip-rule="evenodd" d="M110 220.5C49.5 220.5 0 171.001 0 109.952C0.55 49.4535 49.5 -0.0454497 110.55 0.504539C171.05 1.05453 220 50.0035 220 111.602C219.45 171.551 170.5 220.5 110 220.5Z" fill="#EDF0F4"/>
<path d="M136.814 88.7463V174.626L64.2402 132.485C42.9313 120.219 44.5286 112.216 44 95.1465L118.659 138.357V98.8808L136.797 88.7463H136.814Z" fill="#99BEE7"/>
<path d="M118.659 138.356L44 95.1463L116.545 53.5335C137.866 41.2732 143.749 46.6106 159.215 55.1712L84.5383 98.3464L118.659 118.087V138.356Z" fill="#5592D7"/>
<path d="M84.541 98.3466L159.247 55.1655V138.397C159.247 163.469 151.755 165.601 136.84 174.667V88.7461L102.836 108.951L84.541 98.3466Z" fill="#29578A"/>
</g>
<defs>
<clipPath id="clip0_4_3659">
<rect width="220" height="220" fill="white" transform="translate(0 0.5)"/>
</clipPath>
</defs>
</svg>
