<svg width="220" height="221" viewBox="0 0 220 221" fill="none" xmlns="http://www.w3.org/2000/svg">
<g clip-path="url(#clip0_4_3664)">
<path d="M110 220.5C170.751 220.5 220 171.251 220 110.5C220 49.7487 170.751 0.5 110 0.5C49.2487 0.5 0 49.7487 0 110.5C0 171.251 49.2487 220.5 110 220.5Z" fill="url(#paint0_linear_4_3664)"/>
<path fill-rule="evenodd" clip-rule="evenodd" d="M55.8587 91.7267V143.5H45.834V83.3667C45.8443 81.1544 47.0983 79.1361 49.077 78.1467C51.0557 77.1574 53.4227 77.3653 55.1987 78.6844L102.814 114.533C104.277 115.635 105.139 117.359 105.142 119.19V143.5H95.1213V121.276L55.8587 91.7267ZM164.443 91.7267V143.5H174.468V83.3667C174.452 81.157 173.196 79.1438 171.219 78.158C169.241 77.1724 166.877 77.3814 165.103 78.699L117.488 114.533C116.025 115.635 115.163 117.359 115.16 119.19V143.5H125.181V121.276L164.443 91.7267Z" fill="white"/>
</g>
<defs>
<linearGradient id="paint0_linear_4_3664" x1="0" y1="0.5" x2="0" y2="220.5" gradientUnits="userSpaceOnUse">
<stop stop-color="#4FA89B"/>
<stop offset="1" stop-color="#6ACEBB"/>
</linearGradient>
<clipPath id="clip0_4_3664">
<rect width="220" height="220" fill="white" transform="translate(0 0.5)"/>
</clipPath>
</defs>
</svg>
