<svg width="220" height="221" viewBox="0 0 220 221" fill="none" xmlns="http://www.w3.org/2000/svg">
<g clip-path="url(#clip0_4_3667)">
<path d="M110 220.5C170.751 220.5 220 171.251 220 110.5C220 49.7487 170.751 0.5 110 0.5C49.2487 0.5 0 49.7487 0 110.5C0 171.251 49.2487 220.5 110 220.5Z" fill="#EDF0F4"/>
<path d="M109.999 183.833C150.5 183.833 183.333 151.001 183.333 110.5C183.333 69.9992 150.5 37.1667 109.999 37.1667C69.4985 37.1667 36.666 69.9992 36.666 110.5C36.666 151.001 69.4985 183.833 109.999 183.833Z" fill="white"/>
<path fill-rule="evenodd" clip-rule="evenodd" d="M33.7812 110.5C33.7812 68.4046 67.9065 34.2793 110.002 34.2793C152.098 34.2793 186.223 68.4046 186.223 110.5C186.223 152.596 152.098 186.721 110.002 186.721C67.9065 186.721 33.7812 152.596 33.7812 110.5ZM178.058 110.5C178.058 72.9139 147.588 42.4442 110.002 42.4442C72.4158 42.4442 41.9462 72.9139 41.9462 110.5C41.9462 148.086 72.4158 178.556 110.002 178.556C147.588 178.556 178.058 148.086 178.058 110.5Z" fill="#EB1A6B"/>
<path d="M128.033 124.008C129.953 125.384 130.93 126.217 132.017 126.905C138.608 131.287 145.778 131.721 150.45 127.303C155.411 122.487 155.809 116.439 153.492 110.246C151.029 103.221 145.235 98.9839 138.246 100.07C135.095 100.614 131.365 102.968 129.59 105.575C125.209 111.912 123.688 120.024 116.409 124.261C115.431 124.805 115.721 127.955 115.721 129.911C115.865 143.672 105.834 154.246 91.3847 155.623C79.9773 156.709 62.9205 147.511 63.0654 134.727C69.1132 137.479 74.8711 141.318 81.3534 142.694C86.7132 143.926 93.1592 143.382 98.555 141.608C105.581 139.254 108.876 132.518 108.043 126.47C107.21 121.256 105.146 119.88 94.5716 118.069C93.8835 115.027 93.1955 111.731 92.5074 108.037C93.5939 107.893 94.4267 107.639 95.2596 107.639C100.076 107.241 105.291 107.096 105.689 100.36C106.088 95.0004 101.018 88.663 95.1148 89.2423C89.3568 89.7855 83.9971 92.8276 77.37 95.1453C76.1387 93.2259 74.0745 90.0754 72.155 86.8885C80.5568 77.002 94.2819 75.0827 104.313 82.3618C113.512 88.9526 114.344 99.5634 106.232 111.912C108.586 114.121 110.904 116.294 114.2 119.481C115.286 116.186 115.865 113.832 116.662 111.659C117.749 108.508 118.581 105.068 120.356 102.171C124.738 94.6021 130.822 89.3873 140.274 90.4736C149.472 91.56 154.18 97.0285 157.693 105.575C161.531 115.57 159.974 123.103 157.693 128.824C155.411 134.546 147.009 140.377 140.962 139.399C132.995 138.168 128.468 133.097 128.033 124.008Z" fill="black"/>
<path d="M101.527 71.3526C114.166 80.1526 125.32 78.9213 136.583 71.2078C138.647 74.5032 140.421 77.2554 142.232 80.0078C128.869 90.4735 107.14 85.114 101.527 71.3526Z" fill="black"/>
<path d="M111.555 66.2828C114.017 63.2407 115.937 61.0681 118.29 58.3157C121.043 61.2129 122.817 63.1322 125.026 65.5947C122.962 67.9486 121.043 69.9766 118.58 72.6203C116.226 70.5561 114.162 68.6005 111.555 66.2828Z" fill="#F01871"/>
</g>
<defs>
<clipPath id="clip0_4_3667">
<rect width="220" height="220" fill="white" transform="translate(0 0.5)"/>
</clipPath>
</defs>
</svg>
