<svg width="220" height="221" viewBox="0 0 220 221" fill="none" xmlns="http://www.w3.org/2000/svg">
<g clip-path="url(#clip0_4_3674)">
<path d="M110 220.5C170.753 220.5 220 171.253 220 110.5C220 49.747 170.753 0.5 110 0.5C49.247 0.5 0 49.747 0 110.5C0 171.253 49.247 220.5 110 220.5Z" fill="#EDF0F4"/>
<path fill-rule="evenodd" clip-rule="evenodd" d="M31.166 110.5C31.166 66.9617 66.461 31.6667 109.999 31.6667C153.538 31.6667 188.833 66.9617 188.833 110.5C188.833 154.038 153.538 189.333 109.999 189.333C66.461 189.333 31.166 154.038 31.166 110.5ZM177.833 110.5C177.833 73.0368 147.463 42.6667 109.999 42.6667C72.5361 42.6667 42.166 73.0368 42.166 110.5C42.166 147.963 72.5361 178.333 109.999 178.333C147.463 178.333 177.833 147.963 177.833 110.5Z" fill="#3740C2"/>
<path d="M120.733 80.3344C119.61 79.2113 118.086 78.5819 116.498 78.586H116.482C114.89 78.5856 113.365 79.2241 112.249 80.3586L65.4497 127.381C64.324 128.505 63.6943 130.032 63.7012 131.623C63.7053 133.225 64.3345 134.73 65.4695 135.861C66.5898 136.984 68.112 137.613 69.6984 137.61C71.3046 137.61 72.8186 136.981 73.9538 135.844L120.751 88.8187C123.083 86.4684 123.075 82.675 120.733 80.3344Z" fill="#2DB8E3"/>
<path d="M147.901 79.1576C145.657 78.2204 143.069 78.7398 141.36 80.4701L94.5569 127.497C92.2225 129.847 92.2324 133.644 94.5787 135.981C96.9299 138.315 100.727 138.304 103.065 135.957L139.61 99.2375V131.726C139.612 135.038 142.297 137.723 145.609 137.725C148.921 137.723 151.606 135.038 151.608 131.726V84.7034C151.616 82.2728 150.15 80.0801 147.901 79.1576Z" fill="#3840C7"/>
</g>
<defs>
<clipPath id="clip0_4_3674">
<rect width="220" height="220" fill="white" transform="translate(0 0.5)"/>
</clipPath>
</defs>
</svg>
