<svg width="220" height="221" viewBox="0 0 220 221" fill="none" xmlns="http://www.w3.org/2000/svg">
<g clip-path="url(#clip0_4_3679)">
<path d="M110 220.5C170.751 220.5 220 171.251 220 110.5C220 49.7487 170.751 0.5 110 0.5C49.2487 0.5 0 49.7487 0 110.5C0 171.251 49.2487 220.5 110 220.5Z" fill="#47B95C"/>
<path fill-rule="evenodd" clip-rule="evenodd" d="M40.334 111.417C40.334 73.4667 71.1448 42.6667 109.108 42.6667C147.071 42.6667 177.882 73.4667 177.834 111.417C177.834 112.035 177.793 112.635 177.751 113.242C177.732 113.531 177.712 113.823 177.696 114.119H145.421L129.83 87.306L109.108 117.054L88.3382 87.306L72.7471 114.119H40.4715C40.4559 113.823 40.4361 113.531 40.4163 113.242C40.3749 112.635 40.334 112.035 40.334 111.417ZM109.108 63.7042C133.543 63.7042 153.722 82.1292 156.514 105.827H164.863C162.016 77.5437 138.131 55.4062 109.108 55.4062C80.0854 55.4062 56.152 77.5437 53.3529 105.827H61.702C64.4944 82.1775 84.6726 63.7042 109.108 63.7042Z" fill="white"/>
<path fill-rule="evenodd" clip-rule="evenodd" d="M109.104 131.581L129.234 102.706L140.692 122.369H176.915C171.64 155.142 143.354 180.167 109.104 180.167C74.8547 180.167 46.568 155.142 41.293 122.417H77.5163L88.9741 102.706L109.104 131.581ZM161.648 130.667H152.755C145.327 147.394 128.588 159.129 109.104 159.129C89.6206 159.129 72.8809 147.394 65.4534 130.667H56.561C64.4493 152.069 84.9852 167.427 109.104 167.427C133.223 167.427 153.759 152.069 161.648 130.667Z" fill="white"/>
</g>
<defs>
<clipPath id="clip0_4_3679">
<rect width="220" height="220" fill="white" transform="translate(0 0.5)"/>
</clipPath>
</defs>
</svg>
