<svg width="220" height="221" viewBox="0 0 220 221" fill="none" xmlns="http://www.w3.org/2000/svg">
<g clip-path="url(#clip0_4_3683)">
<path d="M110 220.5C170.751 220.5 220 171.251 220 110.5C220 49.7487 170.751 0.5 110 0.5C49.2487 0.5 0 49.7487 0 110.5C0 171.251 49.2487 220.5 110 220.5Z" fill="#1C68F3"/>
<path fill-rule="evenodd" clip-rule="evenodd" d="M176 57.7C176 50.4098 170.09 44.5 162.8 44.5H57.2C49.9098 44.5 44 50.4098 44 57.7V73.8333H176V57.7ZM176 84.8333V121.5H66L61.2672 121.501C66.2765 143.748 86.1558 160.367 109.917 160.367C129.56 160.367 146.551 149.008 154.68 132.501L176 132.5V163.3C176 170.59 170.09 176.5 162.8 176.5H57.2C49.9098 176.5 44 170.59 44 163.3V84.8333H176ZM142.02 132.501C135.019 142.735 123.252 149.452 109.917 149.452C96.5809 149.452 84.8138 142.735 77.8134 132.501H142.02ZM61.4412 111.234C62.8646 101.283 71.4223 93.6333 81.7667 93.6333C92.1111 93.6333 100.669 101.283 102.092 111.234H90.8402C89.6031 107.404 86.0084 104.633 81.7667 104.633C77.5249 104.633 73.9303 107.404 72.6931 111.234H61.4412ZM138.233 93.6333C127.889 93.6333 119.331 101.283 117.908 111.234H129.16C130.397 107.404 133.992 104.633 138.233 104.633C142.475 104.633 146.07 107.404 147.307 111.234H158.559C157.135 101.283 148.578 93.6333 138.233 93.6333Z" fill="white"/>
</g>
<defs>
<clipPath id="clip0_4_3683">
<rect width="220" height="220" fill="white" transform="translate(0 0.5)"/>
</clipPath>
</defs>
</svg>
