<svg width="220" height="221" viewBox="0 0 220 221" fill="none" xmlns="http://www.w3.org/2000/svg">
<g clip-path="url(#clip0_4_3686)">
<path d="M110 220.5C170.753 220.5 220 171.253 220 110.5C220 49.747 170.753 0.5 110 0.5C49.247 0.5 0 49.747 0 110.5C0 171.253 49.247 220.5 110 220.5Z" fill="#EDF0F4"/>
<path fill-rule="evenodd" clip-rule="evenodd" d="M165.748 158.145C176.712 145.329 183.333 128.688 183.333 110.5C183.333 69.9992 150.5 37.1667 109.999 37.1667C69.4984 37.1667 36.666 69.9992 36.666 110.5C36.666 151.001 69.4984 183.833 109.999 183.833C127.912 183.833 144.326 177.411 157.061 166.743L111.745 121.427L77.7847 155.388C76.1201 157.052 73.6169 157.55 71.442 156.649L68.1953 155.304C66.0206 154.403 64.6025 152.281 64.6025 149.927V75.6414C64.6025 73.2874 66.0206 71.1652 68.1953 70.2643L71.442 68.9195C73.6169 68.0186 76.1201 68.5166 77.7847 70.1811L111.745 104.142L144.251 71.6362C145.916 69.9717 148.419 69.4737 150.594 70.3745L153.84 71.7194C156.015 72.6201 157.433 74.7424 157.433 77.0964V137.229L145.211 125.007V87.9611L120.388 112.784L165.748 158.145ZM76.8248 86.506L103.103 112.784L76.8248 139.062V86.506Z" fill="#D55139"/>
</g>
<defs>
<clipPath id="clip0_4_3686">
<rect width="220" height="220" fill="white" transform="translate(0 0.5)"/>
</clipPath>
</defs>
</svg>
