<svg width="220" height="221" viewBox="0 0 220 221" fill="none" xmlns="http://www.w3.org/2000/svg">
<g clip-path="url(#clip0_4_3689)">
<path d="M110 220.5C170.753 220.5 220 171.253 220 110.5C220 49.747 170.753 0.5 110 0.5C49.247 0.5 0 49.747 0 110.5C0 171.253 49.247 220.5 110 220.5Z" fill="#EDF0F4"/>
<path d="M85.7002 94.7703C89.4568 94.7703 92.502 91.7251 92.502 87.9685C92.502 84.212 89.4568 81.1667 85.7002 81.1667C81.9437 81.1667 78.8984 84.212 78.8984 87.9685C78.8984 91.7251 81.9437 94.7703 85.7002 94.7703Z" fill="black"/>
<path d="M134.282 94.7703C138.039 94.7703 141.084 91.7251 141.084 87.9685C141.084 84.212 138.039 81.1667 134.282 81.1667C130.526 81.1667 127.48 84.212 127.48 87.9685C127.48 91.7251 130.526 94.7703 134.282 94.7703Z" fill="black"/>
<path d="M73.6475 107.037C77.404 107.037 80.4493 103.992 80.4493 100.235C80.4493 96.4786 77.404 93.4333 73.6475 93.4333C69.891 93.4333 66.8457 96.4786 66.8457 100.235C66.8457 103.992 69.891 107.037 73.6475 107.037Z" fill="black"/>
<path d="M85.7002 119.068C89.4568 119.068 92.502 116.022 92.502 112.266C92.502 108.509 89.4568 105.464 85.7002 105.464C81.9437 105.464 78.8984 108.509 78.8984 112.266C78.8984 116.022 81.9437 119.068 85.7002 119.068Z" fill="black"/>
<path d="M134.282 119.068C138.039 119.068 141.084 116.022 141.084 112.266C141.084 108.509 138.039 105.464 134.282 105.464C130.526 105.464 127.48 108.509 127.48 112.266C127.48 116.022 130.526 119.068 134.282 119.068Z" fill="black"/>
<path d="M61.3132 117.24C64.06 117.24 66.2866 115.013 66.2866 112.266C66.2866 109.519 64.06 107.293 61.3132 107.293C58.5665 107.293 56.3398 109.519 56.3398 112.266C56.3398 115.013 58.5665 117.24 61.3132 117.24Z" fill="black"/>
<path d="M73.3503 129.59C76.0971 129.59 78.3237 127.363 78.3237 124.617C78.3237 121.87 76.0971 119.643 73.3503 119.643C70.6036 119.643 68.377 121.87 68.377 124.617C68.377 127.363 70.6036 129.59 73.3503 129.59Z" fill="black"/>
<path d="M97.7722 129.59C100.519 129.59 102.746 127.363 102.746 124.617C102.746 121.87 100.519 119.643 97.7722 119.643C95.0255 119.643 92.7988 121.87 92.7988 124.617C92.7988 127.363 95.0255 129.59 97.7722 129.59Z" fill="black"/>
<path d="M122.214 129.59C124.96 129.59 127.187 127.363 127.187 124.617C127.187 121.87 124.96 119.643 122.214 119.643C119.467 119.643 117.24 121.87 117.24 124.617C117.24 127.363 119.467 129.59 122.214 129.59Z" fill="black"/>
<path d="M146.354 129.59C149.101 129.59 151.328 127.363 151.328 124.617C151.328 121.87 149.101 119.643 146.354 119.643C143.608 119.643 141.381 121.87 141.381 124.617C141.381 127.363 143.608 129.59 146.354 129.59Z" fill="black"/>
<path d="M49.1414 127.924C50.9681 127.924 52.4489 126.443 52.4489 124.617C52.4489 122.79 50.9681 121.309 49.1414 121.309C47.3148 121.309 45.834 122.79 45.834 124.617C45.834 126.443 47.3148 127.924 49.1414 127.924Z" fill="black"/>
<path d="M61.3153 140.024C63.1419 140.024 64.6227 138.544 64.6227 136.717C64.6227 134.89 63.1419 133.409 61.3153 133.409C59.4886 133.409 58.0078 134.89 58.0078 136.717C58.0078 138.544 59.4886 140.024 61.3153 140.024Z" fill="black"/>
<path d="M109.792 140.024C111.618 140.024 113.099 138.544 113.099 136.717C113.099 134.89 111.618 133.409 109.792 133.409C107.965 133.409 106.484 134.89 106.484 136.717C106.484 138.544 107.965 140.024 109.792 140.024Z" fill="black"/>
<path d="M158.575 140.024C160.402 140.024 161.882 138.544 161.882 136.717C161.882 134.89 160.402 133.409 158.575 133.409C156.748 133.409 155.268 134.89 155.268 136.717C155.268 138.544 156.748 140.024 158.575 140.024Z" fill="black"/>
<path d="M170.856 127.924C172.683 127.924 174.164 126.443 174.164 124.617C174.164 122.79 172.683 121.309 170.856 121.309C169.03 121.309 167.549 122.79 167.549 124.617C167.549 126.443 169.03 127.924 170.856 127.924Z" fill="black"/>
<path d="M109.796 117.24C112.542 117.24 114.769 115.013 114.769 112.266C114.769 109.519 112.542 107.293 109.796 107.293C107.049 107.293 104.822 109.519 104.822 112.266C104.822 115.013 107.049 117.24 109.796 117.24Z" fill="black"/>
<path d="M158.673 117.24C161.419 117.24 163.646 115.013 163.646 112.266C163.646 109.519 161.419 107.293 158.673 107.293C155.926 107.293 153.699 109.519 153.699 112.266C153.699 115.013 155.926 117.24 158.673 117.24Z" fill="black"/>
<path d="M97.753 107.037C101.509 107.037 104.555 103.992 104.555 100.235C104.555 96.4786 101.509 93.4333 97.753 93.4333C93.9964 93.4333 90.9512 96.4786 90.9512 100.235C90.9512 103.992 93.9964 107.037 97.753 107.037Z" fill="black"/>
<path d="M122.159 107.037C125.916 107.037 128.961 103.992 128.961 100.235C128.961 96.4786 125.916 93.4333 122.159 93.4333C118.403 93.4333 115.357 96.4786 115.357 100.235C115.357 103.992 118.403 107.037 122.159 107.037Z" fill="black"/>
<path d="M146.565 107.037C150.322 107.037 153.367 103.992 153.367 100.235C153.367 96.4786 150.322 93.4333 146.565 93.4333C142.809 93.4333 139.764 96.4786 139.764 100.235C139.764 103.992 142.809 107.037 146.565 107.037Z" fill="black"/>
</g>
<defs>
<clipPath id="clip0_4_3689">
<rect width="220" height="220" fill="white" transform="translate(0 0.5)"/>
</clipPath>
</defs>
</svg>
