<svg width="220" height="221" viewBox="0 0 220 221" fill="none" xmlns="http://www.w3.org/2000/svg">
<g clip-path="url(#clip0_4_3711)">
<path d="M110 220.5C170.751 220.5 220 171.251 220 110.5C220 49.7487 170.751 0.5 110 0.5C49.2487 0.5 0 49.7487 0 110.5C0 171.251 49.2487 220.5 110 220.5Z" fill="#103F68"/>
<path fill-rule="evenodd" clip-rule="evenodd" d="M176.001 72.8311L110.78 35.3333H110.328L45.834 72.8311V148.059L110.328 185.536L110.856 185.667L176.001 148.059V72.8311ZM52.6848 76.7635L110.568 43.1159L117.631 47.0279L169.15 76.7772V144.106L117.631 173.685L110.561 177.768L52.6848 144.127V76.7635ZM61.6527 115.677L78.7867 102.888L93.9341 112.545V129.916L105.395 140.94L105.389 146.11L94.3451 156.437H85.0209L61.6595 115.677H61.6527ZM115.775 140.926L115.795 146.124L126.825 156.321H136.033L159.278 115.684L142.178 102.765L127.195 112.545V129.916L115.775 140.926ZM99.5585 112.545L93.9819 97.9709H127.127L121.66 112.545L123.276 128.835L110.486 128.862L97.8458 128.883L99.5585 112.545ZM78.9854 93.9634L110.486 93.977L142.144 93.9975L135.978 67.8386H84.8429L78.9854 93.9634Z" fill="white"/>
</g>
<defs>
<clipPath id="clip0_4_3711">
<rect width="220" height="220" fill="white" transform="translate(0 0.5)"/>
</clipPath>
</defs>
</svg>
