<svg width="220" height="221" viewBox="0 0 220 221" fill="none" xmlns="http://www.w3.org/2000/svg">
<g clip-path="url(#clip0_4_3714)">
<path d="M110 220.5C170.751 220.5 220 171.251 220 110.5C220 49.7487 170.751 0.5 110 0.5C49.2487 0.5 0 49.7487 0 110.5C0 171.251 49.2487 220.5 110 220.5Z" fill="#0FD297"/>
<path d="M117.003 123.922C118.836 126.416 120.612 128.873 122.651 131.207C126.325 135.413 130.526 138.862 135.985 140.511C138.983 141.417 142.066 141.823 145.169 142.109C145.414 142.131 145.597 142.157 145.737 142.425C147.358 145.521 148.256 148.766 147.834 152.293C147.801 152.569 147.757 152.841 147.705 153.182C147.694 153.252 147.608 153.28 147.558 153.231C146.821 152.506 146.119 151.855 145.354 151.278C142.793 149.35 139.976 148.038 136.729 147.908C132.407 147.735 128.698 150.302 127.179 154.436C125.942 157.801 125.994 161.215 126.819 164.655C126.859 164.822 126.901 164.989 126.932 165.158C126.947 165.237 126.935 165.338 126.872 165.321C125.597 164.948 124.455 164.305 123.375 163.561C121.382 162.188 119.841 160.392 118.557 158.354C118.345 158.017 118.479 157.789 118.602 157.521C119.657 155.22 120.591 152.876 121.301 150.441C122.737 145.52 122.519 140.614 121.234 135.708C120.227 131.867 118.667 128.234 117.074 124.611C116.987 124.415 116.911 124.213 116.83 124.014C116.774 123.873 116.936 123.81 117.003 123.922Z" fill="white"/>
<path d="M109.617 169.061C109.541 169.276 109.236 169.278 109.159 169.065C107.482 164.444 105.2 160.29 103.303 155.965C102.052 153.113 100.877 150.232 100.442 147.115V147.113C100.416 146.923 100.609 146.782 100.785 146.859C106.509 149.387 112.193 149.385 117.91 146.83C118.085 146.751 118.276 146.899 118.25 147.089C117.936 149.394 117.242 151.448 116.451 153.474C114.964 157.282 113.07 160.906 111.405 164.634C110.772 166.048 110.18 167.482 109.617 169.061Z" fill="white"/>
<path d="M109.018 116.303C109.122 116.049 109.482 116.053 109.582 116.308C109.814 116.901 110.039 117.483 110.286 118.054C111.93 121.858 113.597 125.652 115.226 129.464C115.718 130.613 116.094 131.812 116.558 132.974C116.723 133.389 116.648 133.561 116.228 133.722C111.627 135.473 107.031 135.483 102.425 133.744C101.99 133.579 101.966 133.398 102.104 132.991C103.514 128.833 105.403 124.876 107.129 120.848C107.775 119.34 108.387 117.817 109.018 116.303Z" fill="white"/>
<path d="M150.153 142.554C150.105 142.432 150.199 142.302 150.329 142.31C153.403 142.517 156.384 142.822 159.334 143.41C159.731 143.489 159.72 143.741 159.764 144.009C160.461 148.308 160.339 152.587 159.408 156.837C158.289 161.938 156.17 166.566 152.621 170.44C147.198 176.358 140.361 178.906 132.429 178.49C125.175 178.111 118.777 175.42 113.129 170.888C112.85 170.665 112.789 170.48 112.906 170.131C113.861 167.293 115.103 164.581 116.412 161.896L116.414 161.894C116.469 161.781 116.629 161.775 116.707 161.874C123.306 170.261 134.225 172.518 142.794 167.153C150.622 162.249 154.041 152.427 150.153 142.554Z" fill="white"/>
<path d="M101.769 124.086C100.525 126.92 99.2865 129.687 98.2847 132.619C96.4793 137.904 95.593 143.266 96.8947 148.82C97.6088 151.869 98.7984 154.741 100.103 157.573C100.206 157.795 100.275 157.967 100.112 158.223C98.2416 161.175 95.8807 163.574 92.615 164.973C92.3605 165.082 92.1011 165.181 91.7802 165.306C91.7139 165.332 91.6464 165.272 91.6647 165.203C91.9242 164.202 92.1379 163.269 92.2547 162.318C92.6443 159.137 92.3715 156.041 90.861 153.164C88.8502 149.335 84.772 147.405 80.4319 148.158C76.8994 148.77 73.9681 150.521 71.4018 152.955C71.2764 153.073 71.1523 153.193 71.022 153.305C70.9605 153.357 70.8683 153.398 70.8511 153.335C70.5365 152.044 70.5216 150.735 70.6274 149.426C70.8203 147.015 71.6046 144.781 72.7268 142.65C72.9123 142.299 73.1778 142.301 73.4715 142.273C75.9912 142.037 78.4888 141.673 80.9518 141.071C85.931 139.852 90.0719 137.211 93.6768 133.646C96.5002 130.853 98.8674 127.686 101.206 124.496C101.334 124.323 101.469 124.156 101.602 123.986C101.698 123.863 101.833 123.973 101.769 124.086Z" fill="white"/>
<path d="M58.985 140.26C58.7601 140.302 58.6064 140.039 58.7527 139.864C61.9163 136.102 64.3721 132.049 67.1696 128.243C69.0133 125.734 70.9207 123.275 73.4036 121.339L73.406 121.338C73.5573 121.221 73.776 121.318 73.7969 121.508C74.4704 127.728 77.3134 132.651 82.3859 136.324C82.5408 136.435 82.5089 136.675 82.3318 136.747C80.1785 137.628 78.0533 138.054 75.9025 138.382C71.8611 138.999 67.7755 139.17 63.7157 139.593C62.1721 139.754 60.6345 139.958 58.985 140.26Z" fill="white"/>
<path d="M104.376 113.36C104.648 113.325 104.825 113.638 104.654 113.852C104.256 114.35 103.865 114.835 103.494 115.335C101.021 118.661 98.5688 122.002 96.0836 125.318C95.3337 126.319 94.4844 127.244 93.7101 128.227C93.4348 128.578 93.2467 128.599 92.8976 128.315C89.0801 125.205 86.7743 121.231 85.9779 116.371C85.9029 115.913 86.0479 115.802 86.4694 115.718C90.775 114.86 95.1482 114.517 99.498 113.997C101.125 113.801 102.749 113.57 104.376 113.36Z" fill="white"/>
<path d="M102.211 162.11C102.292 162.008 102.451 162.024 102.509 162.142C103.867 164.908 105.094 167.641 106.059 170.49C106.189 170.874 105.965 170.991 105.755 171.161C102.381 173.915 98.6141 175.949 94.4671 177.266C89.4905 178.848 84.4241 179.327 79.2939 178.19C71.4571 176.453 65.8326 171.805 62.2264 164.728C58.9288 158.257 58.0598 151.37 59.1611 144.213C59.2152 143.859 59.3443 143.714 59.7056 143.642C62.6406 143.049 65.6115 142.77 68.5909 142.561H68.5932C68.7186 142.553 68.8046 142.688 68.7568 142.805C64.7927 152.714 68.2983 163.298 77.2277 168.036C85.3877 172.365 95.6041 170.417 102.211 162.11Z" fill="white"/>
<path d="M101.647 97.5588C99.8149 95.0649 98.0387 92.6079 95.9997 90.2739C92.3259 86.0679 88.1248 82.619 82.6651 80.9696C79.6673 80.0637 76.5847 79.6582 73.4812 79.3718C73.2367 79.3496 73.0535 79.3238 72.9135 79.0559C71.2922 75.9598 70.395 72.715 70.8165 69.1874C70.8497 68.9121 70.894 68.6393 70.9456 68.2988C70.9567 68.2286 71.0427 68.2004 71.0931 68.2495C71.8294 68.9748 72.5312 69.6262 73.2968 70.2026C75.8571 72.131 78.6742 73.4426 81.9215 73.5728C86.2431 73.7462 89.9525 71.1784 91.4717 67.045C92.7081 63.6797 92.6564 60.2653 91.8318 56.8262C91.7913 56.6592 91.7495 56.492 91.7187 56.3224C91.704 56.2437 91.715 56.1429 91.779 56.1601C93.0535 56.5325 94.1953 57.1753 95.2757 57.9201C97.2682 59.2931 98.8095 61.0889 100.094 63.1266C100.305 63.4634 100.171 63.692 100.048 63.9601C98.9937 66.2609 98.0596 68.6048 97.3492 71.0397C95.9137 75.9611 96.1312 80.8663 97.4169 85.7729C98.4236 89.6139 99.9832 93.2472 101.576 96.8693C101.663 97.066 101.74 97.2675 101.821 97.4666C101.876 97.608 101.714 97.6707 101.647 97.5588Z" fill="white"/>
<path d="M109.024 52.4185C109.1 52.2035 109.405 52.2011 109.483 52.4148C111.159 57.035 113.442 61.1894 115.338 65.5147C116.589 68.3661 117.764 71.2472 118.199 74.3642V74.3666C118.225 74.556 118.032 74.6974 117.857 74.6198C112.133 72.0929 106.448 72.094 100.731 74.6493C100.557 74.728 100.365 74.5806 100.391 74.3901C100.706 72.0854 101.399 70.0317 102.19 68.0048C103.678 64.1971 105.572 60.5737 107.236 56.8458C107.87 55.4323 108.461 53.9992 109.024 52.4185Z" fill="white"/>
<path d="M109.629 105.177C109.525 105.43 109.165 105.426 109.065 105.172C108.833 104.578 108.608 103.997 108.361 103.426C106.718 99.6214 105.05 95.8272 103.421 92.0157C102.93 90.8665 102.553 89.6681 102.089 88.5054C101.924 88.0912 101.999 87.9191 102.419 87.7581C107.02 86.0065 111.616 85.9968 116.222 87.7359C116.657 87.9007 116.681 88.0813 116.543 88.4881C115.133 92.6463 113.244 96.6039 111.519 100.632C110.872 102.141 110.261 103.664 109.629 105.177Z" fill="white"/>
<path d="M68.4947 78.9268C68.5427 79.0485 68.4481 79.1788 68.3178 79.1702C65.2438 78.9638 62.2632 78.6589 59.3134 78.0702C58.9163 77.9916 58.9274 77.7395 58.8831 77.4717C58.1862 73.1721 58.308 68.8937 59.2397 64.6435C60.358 59.5426 62.477 54.9151 66.0267 51.0409C71.4495 45.1227 78.2858 42.5749 86.2184 42.9903C93.4726 43.37 99.8702 46.0606 105.518 50.5922C105.797 50.8159 105.858 51.0003 105.742 51.3494C104.787 54.1874 103.544 56.9 102.235 59.5844L102.234 59.5869C102.178 59.6999 102.019 59.7061 101.94 59.6065C95.3409 51.219 84.4227 48.9624 75.8533 54.3275C68.0241 59.2316 64.6045 69.0533 68.4947 78.9268Z" fill="white"/>
<path d="M116.877 97.3953C118.121 94.561 119.36 91.7943 120.362 88.8617C122.168 83.5766 123.054 78.2152 121.752 72.6607C121.038 69.6113 119.848 66.7401 118.544 63.9084C118.441 63.6858 118.372 63.5138 118.534 63.2581C120.405 60.3059 122.766 57.9066 126.032 56.5079C126.286 56.3985 126.546 56.3002 126.866 56.1748C126.933 56.149 127 56.2091 126.982 56.278C126.723 57.2785 126.509 58.2115 126.392 59.1628C126.002 62.3436 126.275 65.4398 127.786 68.3172C129.797 72.1457 133.875 74.0755 138.215 73.3233C141.747 72.7111 144.679 70.9597 147.245 68.526C147.37 68.4081 147.494 68.2877 147.625 68.1758C147.686 68.1241 147.778 68.0823 147.795 68.1463C148.11 69.4368 148.125 70.7458 148.019 72.0548C147.826 74.4664 147.042 76.6995 145.92 78.831C145.734 79.1824 145.469 79.18 145.175 79.2083C142.655 79.4442 140.158 79.808 137.695 80.4102C132.716 81.6283 128.575 84.2697 124.97 87.8354C122.147 90.6279 119.779 93.7952 117.44 96.9848C117.312 97.1581 117.177 97.3253 117.045 97.4949C116.949 97.6177 116.815 97.5084 116.877 97.3953Z" fill="white"/>
<path d="M159.661 81.219C159.886 81.1772 160.039 81.4403 159.893 81.6149C156.729 85.3772 154.273 89.4307 151.476 93.2362C149.632 95.746 147.725 98.2041 145.242 100.14L145.239 100.141C145.088 100.258 144.87 100.161 144.849 99.9716C144.175 93.7511 141.332 88.8285 136.26 85.1559C136.105 85.0441 136.137 84.8045 136.314 84.7319C138.467 83.8519 140.592 83.4253 142.743 83.0971C146.784 82.4802 150.87 82.3093 154.93 81.8866C156.474 81.7267 158.011 81.5226 159.661 81.219Z" fill="white"/>
<path d="M114.269 108.121C113.997 108.156 113.82 107.843 113.991 107.629C114.389 107.131 114.78 106.646 115.151 106.146C117.624 102.82 120.076 99.4789 122.562 96.1628C123.311 95.1623 124.161 94.2367 124.935 93.2535C125.21 92.9031 125.399 92.8822 125.748 93.1662C129.565 96.2759 131.871 100.249 132.667 105.109C132.742 105.568 132.597 105.679 132.176 105.763C127.87 106.621 123.497 106.964 119.147 107.484C117.52 107.678 115.895 107.911 114.269 108.121Z" fill="white"/>
<path d="M116.436 59.3706C116.355 59.4725 116.195 59.4566 116.137 59.3385C114.779 56.5731 113.552 53.8396 112.587 50.9904C112.457 50.6071 112.681 50.4903 112.891 50.3194C116.265 47.5661 120.032 45.5321 124.179 44.2144C129.156 42.6326 134.222 42.1545 139.352 43.2914C147.189 45.0281 152.814 49.6754 156.42 56.7526C159.717 63.2237 160.586 70.1105 159.485 77.2676C159.431 77.6216 159.302 77.7666 158.941 77.839C156.006 78.4316 153.035 78.7106 150.055 78.9194H150.053C149.928 78.9281 149.842 78.7929 149.89 78.6761C153.853 68.7672 150.348 58.1833 141.419 53.4451C133.259 49.1149 123.042 51.0643 116.436 59.3706Z" fill="white"/>
<path d="M124.689 110.576C127.765 110.236 130.78 109.926 133.821 109.328C139.3 108.248 144.388 106.335 148.547 102.431C150.831 100.288 152.722 97.8219 154.523 95.2765C154.664 95.0761 154.779 94.9298 155.081 94.9421C158.573 95.086 161.831 95.9316 164.675 98.0604C164.897 98.2264 165.112 98.4022 165.381 98.6159C165.436 98.6601 165.418 98.75 165.349 98.7683C164.353 99.0437 163.438 99.3251 162.555 99.7C159.605 100.954 157.061 102.737 155.324 105.484C153.014 109.14 153.382 113.637 156.203 117.019C158.499 119.773 161.482 121.436 164.873 122.441C165.038 122.49 165.204 122.537 165.366 122.595C165.442 122.622 165.524 122.681 165.477 122.727C164.517 123.644 163.39 124.313 162.204 124.876C160.018 125.914 157.693 126.352 155.286 126.445C154.889 126.461 154.758 126.23 154.587 125.989C153.122 123.926 151.558 121.944 149.806 120.112C146.261 116.408 141.904 114.143 137.013 112.804C133.183 111.754 129.257 111.288 125.324 110.858C125.11 110.835 124.898 110.8 124.684 110.771C124.531 110.75 124.559 110.579 124.689 110.576Z" fill="white"/>
<path d="M160.086 139.54C160.234 139.713 160.085 139.979 159.86 139.939C155.02 139.082 150.282 138.981 145.588 138.461C142.493 138.118 139.41 137.696 136.492 136.514L136.49 136.513C136.313 136.44 136.287 136.202 136.442 136.09C141.492 132.397 144.333 127.473 144.978 121.244C144.998 121.053 145.22 120.961 145.373 121.079C147.211 122.505 148.643 124.131 150.003 125.829C152.557 129.021 154.748 132.474 157.145 135.779C158.054 137.034 159 138.263 160.086 139.54Z" fill="white"/>
<path d="M114.095 113.683C113.928 113.466 114.111 113.156 114.382 113.197C115.011 113.293 115.628 113.389 116.246 113.46C120.362 113.938 124.482 114.391 128.598 114.885C129.839 115.034 131.064 115.308 132.303 115.487C132.745 115.55 132.856 115.703 132.785 116.147C132.001 121.006 129.712 124.991 125.902 128.111C125.542 128.406 125.373 128.334 125.091 128.012C122.195 124.712 119.712 121.097 117.087 117.59C116.104 116.278 115.091 114.988 114.095 113.683Z" fill="white"/>
<path d="M157.397 91.1836C157.268 91.164 157.202 91.0177 157.274 90.9095C158.99 88.3505 160.745 85.9219 162.729 83.6614C162.996 83.358 163.208 83.4918 163.463 83.589C167.535 85.1352 171.179 87.3796 174.394 90.3122C178.252 93.8311 181.2 97.9794 182.781 102.99C185.195 110.645 183.983 117.84 179.656 124.501C175.701 130.593 170.171 134.789 163.422 137.414C163.089 137.543 162.898 137.505 162.655 137.228C160.675 134.983 158.947 132.55 157.277 130.074L157.275 130.071C157.205 129.967 157.28 129.825 157.404 129.807C167.967 128.285 175.381 119.958 175.02 109.855C174.689 100.624 167.894 92.752 157.397 91.1836Z" fill="white"/>
<path d="M94.1551 110.814C91.0786 111.154 88.0637 111.464 85.0229 112.062C79.5435 113.142 74.4563 115.055 70.2968 118.959C68.0132 121.102 66.1216 123.568 64.3211 126.113C64.1797 126.314 64.0653 126.46 63.763 126.448C60.2711 126.304 57.0127 125.458 54.1686 123.33C53.9474 123.164 53.7323 122.988 53.4632 122.774C53.4078 122.73 53.4261 122.64 53.4951 122.622C54.4906 122.346 55.4063 122.065 56.2889 121.69C59.2387 120.436 61.7829 118.653 63.5196 115.906C65.8303 112.25 65.4616 107.753 62.6408 104.371C60.3448 101.617 57.3618 99.9544 53.9706 98.949C53.806 98.8999 53.6401 98.8531 53.4778 98.7954C53.4016 98.7684 53.3205 98.7094 53.3673 98.6626C54.3272 97.7458 55.4542 97.0772 56.6403 96.5141C58.8257 95.4756 61.1511 95.0379 63.5577 94.9446C63.9548 94.9287 64.0862 95.1597 64.2571 95.4006C65.7221 97.4644 67.2856 99.4456 69.0383 101.278C72.583 104.982 76.9403 107.247 81.8309 108.586C85.6607 109.636 89.5864 110.102 93.5197 110.532C93.7334 110.555 93.9461 110.59 94.1601 110.619C94.3124 110.64 94.2855 110.811 94.1551 110.814Z" fill="white"/>
<path d="M58.7543 81.8497C58.6069 81.6764 58.7556 81.411 58.9806 81.4502C63.8207 82.3082 68.559 82.4088 73.2529 82.9288C76.3477 83.2718 79.4303 83.6933 82.3482 84.8758L82.3508 84.8769C82.5277 84.9495 82.5536 85.188 82.3986 85.2998C77.3482 88.9933 74.5065 93.917 73.8625 100.146C73.8428 100.337 73.6205 100.429 73.4679 100.311C71.6293 98.885 70.1973 97.259 68.8378 95.5603C66.2838 92.3684 64.0923 88.9157 61.6955 85.6108C60.786 84.3558 59.8409 83.1268 58.7543 81.8497Z" fill="white"/>
<path d="M104.741 107.706C104.908 107.924 104.725 108.234 104.454 108.193C103.825 108.097 103.208 108.001 102.59 107.93C98.4736 107.452 94.3537 106.998 90.2386 106.504C88.9973 106.356 87.7719 106.081 86.5329 105.903C86.0916 105.839 85.9798 105.687 86.0511 105.243C86.8352 100.383 89.1238 96.3985 92.9342 93.2791C93.2942 92.9841 93.4625 93.0553 93.7452 93.3774C96.641 96.6776 99.1239 100.292 101.749 103.8C102.733 105.112 103.745 106.403 104.741 107.706Z" fill="white"/>
<path d="M61.4424 130.206C61.5715 130.226 61.6379 130.372 61.5653 130.48C59.8495 133.039 58.0942 135.468 56.1106 137.728C55.8438 138.032 55.6311 137.898 55.3767 137.801C51.3047 136.255 47.6604 134.01 44.4451 131.078C40.587 127.559 37.6396 123.41 36.0589 118.399C33.6449 110.745 34.8569 103.549 39.1832 96.8888C43.1386 90.7973 48.6683 86.6012 55.4174 83.9759C55.7505 83.8468 55.941 83.8849 56.1843 84.1614C58.1644 86.407 59.8925 88.8395 61.5629 91.3162L61.564 91.3185C61.6342 91.423 61.5592 91.5644 61.4351 91.5827C50.872 93.1044 43.4582 101.432 43.8195 111.535C44.1501 120.765 50.9459 128.638 61.4424 130.206Z" fill="white"/>
</g>
<defs>
<clipPath id="clip0_4_3714">
<rect width="220" height="220" fill="white" transform="translate(0 0.5)"/>
</clipPath>
</defs>
</svg>
