<svg width="220" height="221" viewBox="0 0 220 221" fill="none" xmlns="http://www.w3.org/2000/svg">
<g clip-path="url(#clip0_4_3743)">
<path d="M110 220.5C170.751 220.5 220 171.251 220 110.5C220 49.7487 170.751 0.5 110 0.5C49.2487 0.5 0 49.7487 0 110.5C0 171.251 49.2487 220.5 110 220.5Z" fill="#1E252C"/>
<path fill-rule="evenodd" clip-rule="evenodd" d="M98.6717 52.0824C96.9475 52.1482 95.3253 51.266 94.4437 49.7828C93.5619 48.2995 93.5619 46.4529 94.4437 44.9698C95.3253 43.4866 96.9475 42.6042 98.6717 42.6702C101.273 42.6702 103.381 44.7787 103.381 47.3797C103.381 49.9806 101.273 52.0891 98.6717 52.0891V52.0824ZM98.6716 80.3392C95.9267 80.4222 93.3538 79.005 91.9568 76.6406C90.5598 74.2761 90.5598 71.3388 91.9568 68.9743C93.3538 66.6099 95.9267 65.1927 98.6716 65.2758C102.743 65.3988 105.979 68.7345 105.979 72.8075C105.979 76.8804 102.743 80.2161 98.6716 80.3392ZM88.3178 98.2285C88.3178 103.951 92.9565 108.589 98.6785 108.589C104.401 108.589 109.039 103.951 109.039 98.2285C109.039 92.5063 104.401 87.8676 98.6785 87.8676C92.9565 87.8676 88.3178 92.5063 88.3178 98.2285ZM113.742 98.2285C113.742 103.951 118.38 108.589 124.102 108.589C129.824 108.589 134.463 103.951 134.463 98.2285C134.463 92.5063 129.824 87.8676 124.102 87.8676C118.38 87.8676 113.742 92.5063 113.742 98.2285ZM98.6717 134.021C92.9497 134.021 88.311 129.382 88.311 123.66C88.311 117.938 92.9497 113.299 98.6717 113.299C104.394 113.299 109.032 117.938 109.032 123.66C109.032 129.382 104.394 134.021 98.6717 134.021ZM113.742 123.66C113.742 129.382 118.38 134.021 124.102 134.021C129.824 134.021 134.463 129.382 134.463 123.66C134.463 117.938 129.824 113.299 124.102 113.299C118.38 113.299 113.742 117.938 113.742 123.66ZM149.526 105.764C146.834 105.764 144.346 104.327 143 101.996C141.655 99.6647 141.655 96.7922 143 94.4608C144.346 92.1295 146.834 90.6933 149.526 90.6933C153.687 90.6933 157.061 94.0668 157.061 98.2285C157.061 102.39 153.687 105.764 149.526 105.764ZM141.991 123.66C141.991 127.821 145.365 131.195 149.526 131.195C153.687 131.195 157.061 127.821 157.061 123.66C157.061 119.498 153.687 116.125 149.526 116.125C145.365 116.125 141.991 119.498 141.991 123.66ZM72.306 105.764C68.1445 105.764 64.771 102.39 64.771 98.2285C64.771 94.0668 68.1445 90.6933 72.306 90.6933C76.4675 90.6933 79.841 94.0668 79.841 98.2285C79.841 102.39 76.4675 105.764 72.306 105.764ZM64.771 123.66C64.771 127.821 68.1445 131.195 72.306 131.195C76.4675 131.195 79.841 127.821 79.841 123.66C79.841 119.498 76.4675 116.125 72.306 116.125C68.1445 116.125 64.771 119.498 64.771 123.66ZM98.6716 156.619C95.9267 156.702 93.3538 155.285 91.9568 152.921C90.5598 150.556 90.5598 147.619 91.9568 145.254C93.3538 142.89 95.9267 141.473 98.6716 141.556C102.743 141.679 105.979 145.015 105.979 149.088C105.979 153.16 102.743 156.496 98.6716 156.619ZM117.387 152.921C118.784 155.285 121.357 156.702 124.102 156.619C128.173 156.496 131.41 153.16 131.41 149.088C131.41 145.015 128.173 141.679 124.102 141.556C121.357 141.473 118.784 142.89 117.387 145.254C115.99 147.619 115.99 150.556 117.387 152.921ZM117.387 76.6406C118.784 79.005 121.357 80.4222 124.102 80.3392C128.173 80.2161 131.41 76.8804 131.41 72.8075C131.41 68.7345 128.173 65.3988 124.102 65.2758C121.357 65.1927 118.784 66.6099 117.387 68.9743C115.99 71.3388 115.99 74.2761 117.387 76.6406ZM119.874 49.7828C120.756 51.266 122.378 52.1482 124.102 52.0824V52.0891C126.703 52.0891 128.812 49.9806 128.812 47.3797C128.812 44.7787 126.703 42.6702 124.102 42.6702C122.378 42.6042 120.756 43.4866 119.874 44.9698C118.993 46.4529 118.993 48.2995 119.874 49.7828ZM174.957 102.945C172.356 102.945 170.247 100.836 170.247 98.2352C170.247 95.6343 172.356 93.5258 174.957 93.5258C177.557 93.5258 179.666 95.6343 179.666 98.2352C179.666 100.836 177.557 102.945 174.957 102.945ZM170.247 123.667C170.247 126.267 172.356 128.376 174.957 128.376C177.557 128.376 179.666 126.267 179.666 123.667C179.666 121.066 177.557 118.957 174.957 118.957C172.356 118.957 170.247 121.066 170.247 123.667ZM46.8753 102.945C44.2745 102.945 42.166 100.836 42.166 98.2352C42.166 95.6343 44.2745 93.5258 46.8753 93.5258C49.4763 93.5258 51.5848 95.6343 51.5848 98.2352C51.5848 100.836 49.4763 102.945 46.8753 102.945ZM42.166 123.667C42.166 126.267 44.2745 128.376 46.8753 128.376C49.4763 128.376 51.5848 126.267 51.5848 123.667C51.5848 121.066 49.4763 118.957 46.8753 118.957C44.2745 118.957 42.166 121.066 42.166 123.667ZM98.6717 180.167C96.0708 180.167 93.9623 178.058 93.9623 175.457C93.9623 172.856 96.0708 170.748 98.6717 170.748C101.273 170.748 103.381 172.856 103.381 175.457C103.381 178.058 101.273 180.167 98.6717 180.167ZM119.393 175.457C119.393 178.058 121.501 180.167 124.102 180.167C126.703 180.167 128.812 178.058 128.812 175.457C128.812 172.856 126.703 170.748 124.102 170.748C121.501 170.748 119.393 172.856 119.393 175.457Z" fill="white"/>
</g>
<defs>
<clipPath id="clip0_4_3743">
<rect width="220" height="220" fill="white" transform="translate(0 0.5)"/>
</clipPath>
</defs>
</svg>
