<svg width="220" height="221" viewBox="0 0 220 221" fill="none" xmlns="http://www.w3.org/2000/svg">
<g clip-path="url(#clip0_4_3740)">
<path d="M110 220.5C170.751 220.5 220 171.251 220 110.5C220 49.7487 170.751 0.5 110 0.5C49.2487 0.5 0 49.7487 0 110.5C0 171.251 49.2487 220.5 110 220.5Z" fill="#00B0FF"/>
<path fill-rule="evenodd" clip-rule="evenodd" d="M126.081 71.686L141.969 62.068L110 42.6667L78.038 62.068L93.9195 71.686L110 62.068L126.081 71.686ZM165 84.3362V145.627L147.565 155.802V114.895L110 137.377L72.435 114.875V155.802L55 145.627V84.3292L110 117.364L165 84.3292V84.3362ZM126.294 151.147L110.21 160.763L94.1325 151.147L78.2512 160.766L110.206 180.167L142.175 160.766L126.294 151.147Z" fill="white"/>
</g>
<defs>
<clipPath id="clip0_4_3740">
<rect width="220" height="220" fill="white" transform="translate(0 0.5)"/>
</clipPath>
</defs>
</svg>
