<svg width="220" height="221" viewBox="0 0 220 221" fill="none" xmlns="http://www.w3.org/2000/svg">
<g clip-path="url(#clip0_4_3746)">
<path d="M110 220.5C170.751 220.5 220 171.251 220 110.5C220 49.7487 170.751 0.5 110 0.5C49.2487 0.5 0 49.7487 0 110.5C0 171.251 49.2487 220.5 110 220.5Z" fill="black"/>
<path fill-rule="evenodd" clip-rule="evenodd" d="M109.566 42.1183L82.6443 82.8322L74.5685 78.6082L106.104 31.3698C110.334 27.9125 113.028 31.3698 113.028 31.3698L143.796 77.4512L137.256 83.2156L109.566 42.1183ZM107.256 182.3L59.5684 152.341L65.7247 146.583L109.95 173.852L152.64 146.583L159.948 152.341L113.028 182.3H107.256Z" fill="white" fill-opacity="0.703"/>
<path d="M110.333 165.02C111.869 159.639 113.795 154.648 115.338 149.274C122.262 127.763 129.179 105.869 136.104 84.3656C136.487 83.2155 136.871 81.6752 137.255 80.5319C138.023 78.2179 139.175 77.0676 141.485 77.0676C143.559 77.0132 145.359 78.4844 145.715 80.5249C147.635 88.2064 149.177 96.2711 151.097 103.952C154.559 118.548 157.637 133.528 161.099 148.117C161.867 151.574 160.715 153.881 158.021 154.648C155.327 155.415 153.407 153.498 152.639 150.041C148.793 133.528 144.947 117.008 141.485 100.112C141.485 99.345 141.101 98.9617 140.718 97.8046C140.398 98.8555 140.011 99.8846 139.559 100.885C132.258 123.156 125.333 145.433 118.025 167.704C116.874 171.928 115.331 175.768 114.179 179.992C113.411 182.683 111.869 183.833 109.566 183.833C107.255 183.833 105.72 182.683 104.952 179.999C96.4918 153.498 88.0251 126.997 79.9493 100.495C79.5654 99.7284 79.5654 99.345 79.1815 97.8046C78.4955 101.28 77.7275 104.738 76.8779 108.177C73.793 122.006 70.7216 136.212 67.6434 150.041C66.8756 153.874 63.8044 155.798 60.7193 153.874C58.7998 152.724 58.4159 150.807 58.7998 148.5C63.0297 129.297 67.6434 110.093 71.8735 90.8968C72.6413 87.8161 73.4159 84.7491 73.793 81.6752C74.5676 78.608 76.1033 77.0676 78.4137 77.0676C80.7241 77.0676 82.2527 78.608 83.0275 81.6752C91.8713 109.334 100.715 137.369 109.182 165.02H110.333Z" fill="white"/>
</g>
<defs>
<clipPath id="clip0_4_3746">
<rect width="220" height="220" fill="white" transform="translate(0 0.5)"/>
</clipPath>
</defs>
</svg>
