<svg width="220" height="221" viewBox="0 0 220 221" fill="none" xmlns="http://www.w3.org/2000/svg">
<g clip-path="url(#clip0_4_3753)">
<path d="M110 220.5C170.751 220.5 220 171.251 220 110.5C220 49.7487 170.751 0.5 110 0.5C49.2487 0.5 0 49.7487 0 110.5C0 171.251 49.2487 220.5 110 220.5Z" fill="#EDF0F4"/>
<path d="M61.9344 68.3333C58.0921 68.3333 55 71.4437 55 75.2676V109.922V124.834V144.795C55 148.619 58.0921 151.73 61.9344 151.73C65.7767 151.73 68.869 148.619 68.869 144.795V75.2676C68.8506 71.4437 65.7585 68.3333 61.9344 68.3333Z" fill="url(#paint0_linear_4_3753)"/>
<path d="M158.063 68.3333C154.239 68.3333 151.129 71.4437 151.129 75.2676V144.795C151.129 148.619 154.239 151.73 158.063 151.73C161.887 151.73 164.998 148.619 164.998 144.795V75.2676C164.998 71.4437 161.887 68.3333 158.063 68.3333Z" fill="url(#paint1_linear_4_3753)"/>
<path d="M93.9754 82.7876C90.1514 82.7876 87.041 85.8797 87.041 89.7222V130.341C87.041 134.165 90.1514 137.275 93.9754 137.275C97.7996 137.275 100.91 134.165 100.91 130.341V89.7222C100.91 85.898 97.7996 82.7876 93.9754 82.7876Z" fill="url(#paint2_linear_4_3753)"/>
<path d="M126.03 94.4609C122.206 94.4609 119.096 97.5714 119.096 101.395V118.539C119.096 122.364 122.206 125.474 126.03 125.474C129.854 125.474 132.965 122.364 132.965 118.539V101.395C132.946 97.553 129.854 94.4609 126.03 94.4609Z" fill="url(#paint3_linear_4_3753)"/>
</g>
<defs>
<linearGradient id="paint0_linear_4_3753" x1="56.1075" y1="554.13" x2="203.614" y2="553.705" gradientUnits="userSpaceOnUse">
<stop stop-color="#4400E2"/>
<stop offset="0.0411" stop-color="#7013C5"/>
<stop offset="0.0866" stop-color="#9A25AA"/>
<stop offset="0.1333" stop-color="#BC3494"/>
<stop offset="0.1804" stop-color="#D73F82"/>
<stop offset="0.2284" stop-color="#EA4876"/>
<stop offset="0.2776" stop-color="#F54C6E"/>
<stop offset="0.33" stop-color="#F94E6C"/>
<stop offset="1" stop-color="#FFD402"/>
</linearGradient>
<linearGradient id="paint1_linear_4_3753" x1="57.1315" y1="564.008" x2="204.636" y2="563.584" gradientUnits="userSpaceOnUse">
<stop stop-color="#4400E2"/>
<stop offset="0.0411" stop-color="#7013C5"/>
<stop offset="0.0866" stop-color="#9A25AA"/>
<stop offset="0.1333" stop-color="#BC3494"/>
<stop offset="0.1804" stop-color="#D73F82"/>
<stop offset="0.2284" stop-color="#EA4876"/>
<stop offset="0.2776" stop-color="#F54C6E"/>
<stop offset="0.33" stop-color="#F94E6C"/>
<stop offset="1" stop-color="#FFD402"/>
</linearGradient>
<linearGradient id="paint2_linear_4_3753" x1="57.1289" y1="403.734" x2="204.688" y2="402.741" gradientUnits="userSpaceOnUse">
<stop stop-color="#4400E2"/>
<stop offset="0.0411" stop-color="#7013C5"/>
<stop offset="0.0866" stop-color="#9A25AA"/>
<stop offset="0.1333" stop-color="#BC3494"/>
<stop offset="0.1804" stop-color="#D73F82"/>
<stop offset="0.2284" stop-color="#EA4876"/>
<stop offset="0.2776" stop-color="#F54C6E"/>
<stop offset="0.33" stop-color="#F94E6C"/>
<stop offset="1" stop-color="#FFD402"/>
</linearGradient>
<linearGradient id="paint3_linear_4_3753" x1="58.9376" y1="282.155" x2="206.656" y2="279.086" gradientUnits="userSpaceOnUse">
<stop stop-color="#4400E2"/>
<stop offset="0.0411" stop-color="#7013C5"/>
<stop offset="0.0866" stop-color="#9A25AA"/>
<stop offset="0.1333" stop-color="#BC3494"/>
<stop offset="0.1804" stop-color="#D73F82"/>
<stop offset="0.2284" stop-color="#EA4876"/>
<stop offset="0.2776" stop-color="#F54C6E"/>
<stop offset="0.33" stop-color="#F94E6C"/>
<stop offset="1" stop-color="#FFD402"/>
</linearGradient>
<clipPath id="clip0_4_3753">
<rect width="220" height="220" fill="white" transform="translate(0 0.5)"/>
</clipPath>
</defs>
</svg>
