<svg width="220" height="221" viewBox="0 0 220 221" fill="none" xmlns="http://www.w3.org/2000/svg">
<g clip-path="url(#clip0_4_3759)">
<path d="M110 220.5C170.751 220.5 220 171.251 220 110.5C220 49.7487 170.751 0.5 110 0.5C49.2487 0.5 0 49.7487 0 110.5C0 171.251 49.2487 220.5 110 220.5Z" fill="#EDF0F4"/>
<path d="M60.2952 165.997C68.5307 165.832 75.0732 159.023 74.9085 150.787C74.7438 142.552 67.9341 136.009 59.6987 136.174C51.4632 136.339 44.9207 143.149 45.0854 151.384C45.2501 159.619 52.0598 166.162 60.2952 165.997Z" fill="#DE2813"/>
<path d="M46.7942 131.043C52.3879 131.043 56.9224 126.508 56.9224 120.914C56.9224 115.321 52.3879 110.786 46.7942 110.786C41.2006 110.786 36.666 115.321 36.666 120.914C36.666 126.508 41.2006 131.043 46.7942 131.043Z" fill="#E71619"/>
<path d="M52.6093 97.1538C57.5421 97.1538 61.541 93.1549 61.541 88.2221C61.541 83.2893 57.5421 79.2905 52.6093 79.2905C47.6766 79.2905 43.6777 83.2893 43.6777 88.2221C43.6777 93.1549 47.6766 97.1538 52.6093 97.1538Z" fill="#EB6617" fill-opacity="0.01"/>
<path d="M71.3642 68.9061C75.6125 68.9061 79.0565 65.4621 79.0565 61.2138C79.0565 56.9654 75.6125 53.5215 71.3642 53.5215C67.1158 53.5215 63.6719 56.9654 63.6719 61.2138C63.6719 65.4621 67.1158 68.9061 71.3642 68.9061Z" fill="#EC6816"/>
<path d="M102.907 54.3761C106.141 54.3761 108.762 51.7549 108.762 48.5214C108.762 45.288 106.141 42.6667 102.907 42.6667C99.674 42.6667 97.0527 45.288 97.0527 48.5214C97.0527 51.7549 99.674 54.3761 102.907 54.3761Z" fill="#F2961B"/>
<path d="M135.725 58.0085C138.416 58.0085 140.597 55.8273 140.597 53.1367C140.597 50.4461 138.416 48.2649 135.725 48.2649C133.035 48.2649 130.854 50.4461 130.854 53.1367C130.854 55.8273 133.035 58.0085 135.725 58.0085Z" fill="#F1C621"/>
<path d="M162.222 77.8377C164.228 77.8377 165.855 76.2114 165.855 74.2052C165.855 72.1991 164.228 70.5728 162.222 70.5728C160.216 70.5728 158.59 72.1991 158.59 74.2052C158.59 76.2114 160.216 77.8377 162.222 77.8377Z" fill="#F3C620"/>
<path d="M174.872 113.564C179.545 113.564 183.333 109.776 183.333 105.102C183.333 100.429 179.545 96.6409 174.872 96.6409C170.199 96.6409 166.41 100.429 166.41 105.102C166.41 109.776 170.199 113.564 174.872 113.564Z" fill="#156192"/>
<path d="M170.3 145.273C174.478 145.273 177.865 141.887 177.865 137.709C177.865 133.532 174.478 130.145 170.3 130.145C166.123 130.145 162.736 133.532 162.736 137.709C162.736 141.887 166.123 145.273 170.3 145.273Z" fill="#2090C0"/>
<path d="M150.173 169.59C153.43 169.59 156.07 166.949 156.07 163.692C156.07 160.435 153.43 157.795 150.173 157.795C146.916 157.795 144.275 160.435 144.275 163.692C144.275 166.949 146.916 169.59 150.173 169.59Z" fill="#338DCC"/>
<path d="M118.715 179.547C120.863 179.547 122.604 177.806 122.604 175.658C122.604 173.51 120.863 171.769 118.715 171.769C116.567 171.769 114.826 173.51 114.826 175.658C114.826 177.806 116.567 179.547 118.715 179.547Z" fill="#38BAE8"/>
<path d="M87.3915 173.778C88.8784 173.778 90.0838 172.573 90.0838 171.086C90.0838 169.599 88.8784 168.393 87.3915 168.393C85.9046 168.393 84.6992 169.599 84.6992 171.086C84.6992 172.573 85.9046 173.778 87.3915 173.778Z" fill="#36BBE6"/>
<path d="M53.488 102.52C61.4064 102.081 67.47 95.3068 67.0314 87.3885C66.5929 79.4701 59.8183 73.4066 51.8999 73.8451C43.9816 74.2836 37.918 81.0582 38.3566 88.9766C38.7951 96.8949 45.5697 102.959 53.488 102.52Z" fill="#EB6617"/>
<path d="M85.1699 100.402L97.093 93.6067L97.0503 133.137L85.1699 139.846V100.402Z" fill="#3F3F3F"/>
<path d="M132.695 100.402L144.618 93.6067L144.576 133.137L132.695 139.846V100.402Z" fill="#3F3F3F"/>
<path d="M108.891 100.402L120.814 93.6067L120.771 133.137L108.891 139.846V100.402Z" fill="#3F3F3F"/>
<path d="M73.6348 93.3505L85.3014 86.4702L97.0963 93.607L85.1732 100.402L73.6348 93.3505Z" fill="#686A69"/>
<path d="M97.3105 93.3505L108.977 86.4702L120.772 93.607L108.892 100.402L97.3105 93.3505Z" fill="#686A69"/>
<path d="M121.158 93.3934L132.825 86.5129L144.62 93.6497L132.697 100.445L121.158 93.3934Z" fill="#686A69"/>
</g>
<defs>
<clipPath id="clip0_4_3759">
<rect width="220" height="220" fill="white" transform="translate(0 0.5)"/>
</clipPath>
</defs>
</svg>
