<svg width="220" height="221" viewBox="0 0 220 221" fill="none" xmlns="http://www.w3.org/2000/svg">
<g clip-path="url(#clip0_4_3750)">
<path d="M110 220.5C170.751 220.5 220 171.251 220 110.5C220 49.7487 170.751 0.5 110 0.5C49.2487 0.5 0 49.7487 0 110.5C0 171.251 49.2487 220.5 110 220.5Z" fill="#EDF0F4"/>
<path fill-rule="evenodd" clip-rule="evenodd" d="M65.8303 96.4702V82.1927C65.8309 81.4343 65.5299 80.7066 64.9934 80.1702C64.457 79.6337 63.7293 79.3327 62.9709 79.3333H48.6934C47.935 79.3327 47.2073 79.6337 46.6709 80.1702C46.1345 80.7066 45.8334 81.4343 45.834 82.1927V96.4702C45.8334 97.2286 46.1345 97.9563 46.6709 98.4927C47.2073 99.0291 47.935 99.3302 48.6934 99.3296H62.9709C63.7293 99.3302 64.457 99.0291 64.9934 98.4927C65.5299 97.9563 65.8309 97.2286 65.8303 96.4702ZM71.4084 101.343H85.6859C86.4443 101.343 87.172 101.644 87.7084 102.18C88.2447 102.717 88.5459 103.444 88.5453 104.203V138.557C88.5459 139.316 88.2447 140.043 87.7084 140.58C87.172 141.116 86.4443 141.417 85.6859 141.417H71.4084C70.6498 141.417 69.9222 141.116 69.3859 140.58C68.8495 140.043 68.5484 139.316 68.549 138.557V104.203C68.5484 103.444 68.8495 102.717 69.3859 102.18C69.9222 101.644 70.6498 101.343 71.4084 101.343ZM128.216 101.343H117.442C115.407 101.344 113.456 100.536 112.017 99.0968C110.578 97.6578 109.769 95.706 109.77 93.671V82.1927C109.771 81.4343 109.47 80.7066 108.933 80.1702C108.397 79.6337 107.669 79.3327 106.911 79.3333H92.6331C91.8747 79.3327 91.147 79.6337 90.6106 80.1702C90.0743 80.7066 89.7731 81.4343 89.7737 82.1927V96.4702C89.7731 97.2286 90.0743 97.9563 90.6106 98.4927C91.147 99.0291 91.8747 99.3302 92.6331 99.3296H97.8689C98.1559 99.2895 98.4452 99.2693 98.7348 99.2693H103.407C105.442 99.2687 107.393 100.077 108.832 101.516C110.271 102.955 111.08 104.907 111.079 106.942V138.537C111.078 139.296 111.38 140.023 111.916 140.56C112.452 141.096 113.18 141.397 113.938 141.397H128.216C128.974 141.397 129.702 141.096 130.238 140.56C130.775 140.023 131.076 139.296 131.075 138.537V104.203C131.076 103.444 130.775 102.717 130.238 102.18C129.702 101.644 128.974 101.343 128.216 101.343ZM158.784 101.343H169.558C170.316 101.338 171.045 101.638 171.579 102.176C172.113 102.714 172.408 103.445 172.397 104.203V138.537C172.398 139.296 172.097 140.023 171.56 140.56C171.024 141.096 170.296 141.397 169.538 141.397H155.26C154.502 141.397 153.774 141.096 153.238 140.56C152.701 140.023 152.4 139.296 152.401 138.537V106.942C152.401 104.907 151.593 102.955 150.154 101.516C148.715 100.077 146.764 99.2687 144.729 99.2693H140.057C139.767 99.2693 139.478 99.2895 139.191 99.3296H133.955C133.197 99.3302 132.469 99.0291 131.932 98.4927C131.396 97.9563 131.095 97.2286 131.096 96.4702V82.1927C131.095 81.4343 131.396 80.7066 131.932 80.1702C132.469 79.6337 133.197 79.3327 133.955 79.3333H148.253C149.011 79.3327 149.739 79.6337 150.275 80.1702C150.812 80.7066 151.113 81.4343 151.112 82.1927V93.671C151.112 95.706 151.92 97.6578 153.359 99.0968C154.798 100.536 156.749 101.344 158.784 101.343Z" fill="#231F20"/>
</g>
<defs>
<clipPath id="clip0_4_3750">
<rect width="220" height="220" fill="white" transform="translate(0 0.5)"/>
</clipPath>
</defs>
</svg>
