<svg width="220" height="221" viewBox="0 0 220 221" fill="none" xmlns="http://www.w3.org/2000/svg">
<g clip-path="url(#clip0_4_3780)">
<path d="M110 220.5C170.751 220.5 220 171.251 220 110.5C220 49.7487 170.751 0.5 110 0.5C49.2487 0.5 0 49.7487 0 110.5C0 171.251 49.2487 220.5 110 220.5Z" fill="#7967EF"/>
<path fill-rule="evenodd" clip-rule="evenodd" d="M110 87.033C104.97 80.1344 97.0539 75.6667 88.0948 75.6667C72.7718 75.6667 60.5 88.7355 60.5 104.684V137.969L60.5022 138.128C60.5865 141.196 63.1006 143.658 66.1896 143.658C69.3319 143.658 71.8793 141.111 71.8793 137.969V104.684L71.8815 104.39C72.0263 94.71 79.3107 87.0461 88.0948 87.0461C96.9676 87.0461 104.31 94.8656 104.31 104.684V137.969L104.312 138.128C104.397 141.196 106.911 143.658 110 143.658C113.142 143.658 115.69 141.111 115.69 137.969V104.684L115.692 104.39C115.837 94.71 123.121 87.0461 131.905 87.0461C140.778 87.0461 148.121 94.8656 148.121 104.684V137.969L148.123 138.128C148.207 141.196 150.721 143.658 153.81 143.658C156.953 143.658 159.5 141.111 159.5 137.969V104.684L159.496 104.206C159.254 88.4753 147.075 75.6667 131.905 75.6667C122.946 75.6667 115.03 80.1344 110 87.033Z" fill="white"/>
</g>
<defs>
<clipPath id="clip0_4_3780">
<rect width="220" height="220" fill="white" transform="translate(0 0.5)"/>
</clipPath>
</defs>
</svg>
