<svg width="220" height="221" viewBox="0 0 220 221" fill="none" xmlns="http://www.w3.org/2000/svg">
<g clip-path="url(#clip0_4_3783)">
<path d="M110 220.5C170.751 220.5 220 171.251 220 110.5C220 49.7487 170.751 0.5 110 0.5C49.2487 0.5 0 49.7487 0 110.5C0 171.251 49.2487 220.5 110 220.5Z" fill="#EDF0F4"/>
<path fill-rule="evenodd" clip-rule="evenodd" d="M117.707 55.7288L154.216 76.0072C159.41 78.9095 162.617 84.4088 162.617 90.3281V129.777C162.617 135.735 159.371 141.196 154.178 144.098L117.669 164.376C112.743 167.126 106.709 167.126 101.782 164.376L65.2737 144.098C60.0801 141.196 56.834 135.735 56.834 129.777V90.3281C56.834 84.4088 60.0801 78.9095 65.2737 76.0072L101.821 55.7288C106.747 52.9794 112.781 52.9794 117.707 55.7288ZM86.1631 140.05C91.5859 140.05 96.0158 135.62 96.0158 130.197V95.5217C96.0158 90.0989 91.5859 85.669 86.1631 85.669C80.7403 85.669 76.3104 90.0989 76.3104 95.5217V130.197C76.3104 135.62 80.7403 140.05 86.1631 140.05ZM109.726 112.287C104.265 112.287 99.8346 107.857 99.8346 102.396C99.8346 96.9348 104.265 92.5048 109.726 92.5048C115.187 92.5048 119.617 96.9348 119.617 102.396C119.617 107.857 115.187 112.287 109.726 112.287ZM133.326 140.05C138.749 140.05 143.179 135.62 143.179 130.197V95.5217C143.179 90.0989 138.749 85.669 133.326 85.669C127.904 85.669 123.474 90.0989 123.474 95.5217V130.197C123.474 135.62 127.904 140.05 133.326 140.05Z" fill="#26A5A4"/>
</g>
<defs>
<clipPath id="clip0_4_3783">
<rect width="220" height="220" fill="white" transform="translate(0 0.5)"/>
</clipPath>
</defs>
</svg>
