<svg width="220" height="221" viewBox="0 0 220 221" fill="none" xmlns="http://www.w3.org/2000/svg">
<g clip-path="url(#clip0_4_3786)">
<path d="M110 220.5C170.751 220.5 220 171.251 220 110.5C220 49.7487 170.751 0.5 110 0.5C49.2487 0.5 0 49.7487 0 110.5C0 171.251 49.2487 220.5 110 220.5Z" fill="#EDF0F4"/>
<path d="M105.11 118.895L84.2472 139.758C81.2668 142.739 76.4414 142.739 73.461 139.758L49.9014 116.057C46.9209 113.076 46.9209 108.251 49.9014 105.27L73.6029 81.5688C76.5833 78.5884 81.4088 78.5884 84.3891 81.5688L105.252 102.432C108.233 105.412 113.058 105.412 116.038 102.432L136.76 81.5688C139.74 78.5884 144.566 78.5884 147.546 81.5688L171.106 105.27C174.086 108.251 174.086 113.076 171.106 116.057L147.546 139.758C144.566 142.739 139.74 142.739 136.76 139.758L115.897 118.895C112.916 115.915 108.091 115.915 105.11 118.895Z" fill="url(#paint0_linear_4_3786)"/>
</g>
<defs>
<linearGradient id="paint0_linear_4_3786" x1="351.222" y1="40.4028" x2="69.5253" y2="40.4028" gradientUnits="userSpaceOnUse">
<stop stop-color="#3600C9"/>
<stop offset="1" stop-color="#9E00E7"/>
</linearGradient>
<clipPath id="clip0_4_3786">
<rect width="220" height="220" fill="white" transform="translate(0 0.5)"/>
</clipPath>
</defs>
</svg>
