<svg width="220" height="221" viewBox="0 0 220 221" fill="none" xmlns="http://www.w3.org/2000/svg">
<g clip-path="url(#clip0_4_3789)">
<path d="M110 220.5C170.753 220.5 220 171.253 220 110.5C220 49.747 170.753 0.5 110 0.5C49.247 0.5 0 49.747 0 110.5C0 171.253 49.247 220.5 110 220.5Z" fill="url(#paint0_linear_4_3789)"/>
<path fill-rule="evenodd" clip-rule="evenodd" d="M107.398 141.679H109.837H112.276C113.937 141.679 114.999 141.313 115.325 141.069C117.215 124.687 121.495 90.4716 123.495 84.6668C125.495 78.8619 131.442 76.1099 134.166 75.4594C134.247 71.8619 136.02 64.6667 142.459 64.6667C148.898 64.6667 149.613 72.5123 149.166 76.4351C150.182 76.7805 152.934 78.1302 155.812 80.7643C158.69 83.3985 159.247 90.3985 159.166 93.5692V153.63H146.605V78.2033C145.792 77.8985 143.605 77.2399 141.361 77.0449C139.117 76.8496 137.296 77.248 136.666 77.4717C135.385 88.7522 132.41 114.313 130.751 126.313C129.093 138.313 120.995 142.858 117.154 143.63C117.702 144.321 118.276 146.776 116.178 151.069C114.092 155.338 111.083 155.338 109.857 155.337H109.837H109.816C108.576 155.338 105.581 155.338 103.495 151.069C101.398 146.776 101.971 144.321 102.52 143.63C98.6781 142.858 90.5806 138.313 88.922 126.313C87.2636 114.313 84.2879 88.7522 83.0075 77.4717C82.3774 77.248 80.5563 76.8496 78.3123 77.0449C76.0685 77.2399 73.8813 77.8985 73.0684 78.2033V153.63H60.5074V93.5692C60.4262 90.3985 60.9829 83.3985 63.8611 80.7643C66.7391 78.1302 69.4911 76.7805 70.5075 76.4351C70.0603 72.5123 70.7757 64.6667 77.2147 64.6667C83.6537 64.6667 85.426 71.8619 85.5073 75.4594C88.231 76.1099 94.1782 78.8619 96.178 84.6668C98.1782 90.4716 102.459 124.687 104.349 141.069C104.674 141.313 105.736 141.679 107.398 141.679Z" fill="#FFFFFD"/>
</g>
<defs>
<linearGradient id="paint0_linear_4_3789" x1="-55.9975" y1="75.0138" x2="77.3691" y2="279.66" gradientUnits="userSpaceOnUse">
<stop stop-color="#E1804D"/>
<stop offset="1" stop-color="#9069DD"/>
</linearGradient>
<clipPath id="clip0_4_3789">
<rect width="220" height="220" fill="white" transform="translate(0 0.5)"/>
</clipPath>
</defs>
</svg>
