<svg width="220" height="221" viewBox="0 0 220 221" fill="none" xmlns="http://www.w3.org/2000/svg">
<g clip-path="url(#clip0_4_3792)">
<path d="M110 220.5C170.751 220.5 220 171.251 220 110.5C220 49.7487 170.751 0.5 110 0.5C49.2487 0.5 0 49.7487 0 110.5C0 171.251 49.2487 220.5 110 220.5Z" fill="#EDF0F4"/>
<path fill-rule="evenodd" clip-rule="evenodd" d="M128.334 48.1667V69.4333L146.667 74.5667V142.767L128.334 138.367V159.633L110.001 155.233V176.5L91.6673 172.1V150.833L73.334 146.433V78.2333L91.6673 82.6333V61.3667L110.001 65.7667V44.5L128.334 48.1667ZM88.0007 136.167L113.667 142.033V101.7L88.0007 95.8333V136.167Z" fill="#232C45"/>
</g>
<defs>
<clipPath id="clip0_4_3792">
<rect width="220" height="220" fill="white" transform="translate(0 0.5)"/>
</clipPath>
</defs>
</svg>
