<svg width="220" height="221" viewBox="0 0 220 221" fill="none" xmlns="http://www.w3.org/2000/svg">
<g clip-path="url(#clip0_4_3795)">
<path d="M110 220.5C170.751 220.5 220 171.251 220 110.5C220 49.7487 170.751 0.5 110 0.5C49.2487 0.5 0 49.7487 0 110.5C0 171.251 49.2487 220.5 110 220.5Z" fill="#2C9FEF"/>
<path fill-rule="evenodd" clip-rule="evenodd" d="M108.93 59.1665L123.247 62.3879V78.4952L137.565 82.0744V135.049L123.247 131.47V147.935L108.93 144.355V161.536L94.6125 157.957V141.85L80.2949 138.27V85.6538L94.6125 88.8753V72.4101L108.93 75.6317V59.1665ZM92.1069 129.322L111.793 133.975L112.151 103.193L92.1069 98.5395V129.322Z" fill="white"/>
</g>
<defs>
<clipPath id="clip0_4_3795">
<rect width="220" height="220" fill="white" transform="translate(0 0.5)"/>
</clipPath>
</defs>
</svg>
