<svg width="220" height="221" viewBox="0 0 220 221" fill="none" xmlns="http://www.w3.org/2000/svg">
<g clip-path="url(#clip0_4_3798)">
<path d="M110 220.5C170.751 220.5 220 171.251 220 110.5C220 49.7487 170.751 0.5 110 0.5C49.2487 0.5 0 49.7487 0 110.5C0 171.251 49.2487 220.5 110 220.5Z" fill="#00316D"/>
<path fill-rule="evenodd" clip-rule="evenodd" d="M96.5833 145.319C101.345 145.319 106.106 145.32 110.867 145.32C116.845 145.32 122.823 145.319 128.801 145.319C146.734 145.317 164.667 145.316 182.6 145.326C184.212 145.326 185.747 145.036 186.577 143.516C187.421 141.947 186.889 140.392 185.989 138.976C185.43 138.095 184.858 137.225 184.286 136.355C184.095 136.066 183.904 135.776 183.714 135.486C181.801 132.548 179.85 129.634 177.899 126.721C173.577 120.266 169.255 113.811 165.357 107.098C158.565 95.4021 152.068 83.5243 145.573 71.6494C143.119 67.1625 140.665 62.676 138.195 58.1999C137.303 56.569 136.148 55.4151 134.246 55.5049C132.427 55.5878 131.493 56.8938 130.788 58.428L112.846 97.4717C111.96 99.3929 111.532 99.4481 110.335 97.7619C108.713 95.4613 107.09 93.1616 105.467 90.8622C101.27 84.9151 97.0731 78.9692 92.8981 73.0088C91.902 71.5854 90.5672 70.6871 89.0041 71.2675C87.8696 71.682 86.7907 72.7393 86.0852 73.7829C81.6178 80.4093 77.1849 87.0624 72.7521 93.7158C70.0474 97.7753 67.3425 101.835 64.6297 105.889C64.0744 106.715 63.531 107.553 62.9874 108.392C61.344 110.927 59.6984 113.465 57.7131 115.688C52.5255 121.503 47.1747 127.178 41.8238 132.853C40.0401 134.745 38.2565 136.636 36.4789 138.533C35.2408 139.853 34.3555 141.249 35.1164 143.136C35.9188 145.126 37.5926 145.333 39.4461 145.333C58.4919 145.317 77.5377 145.318 96.5833 145.319ZM136.176 70.5557L136.701 70.4658C136.797 70.5967 136.898 70.7258 136.998 70.8549C137.238 71.1623 137.478 71.4707 137.663 71.8065C143.659 82.6421 149.642 93.4914 155.611 104.341C155.783 104.656 155.852 105.031 155.921 105.405C155.954 105.587 155.988 105.77 156.033 105.944C155.862 105.946 155.688 105.959 155.514 105.972C155.132 106.001 154.75 106.029 154.394 105.944C151.85 105.319 149.309 104.684 146.768 104.049L146.763 104.047C143.322 103.188 139.883 102.328 136.438 101.494C135.449 101.259 135.166 100.761 135.2 99.8076L135.968 73.7484C135.991 73.0288 136.046 72.3125 136.1 71.5992C136.126 71.2507 136.153 70.9029 136.176 70.5557ZM86.1543 87.2443L86.5832 88.1426C86.4818 89.1412 86.3861 90.1164 86.2922 91.0741C86.0273 93.7752 85.7756 96.3378 85.4489 98.8884C85.3139 99.5841 84.915 100.201 84.3353 100.609C81.0371 102.727 77.7076 104.796 74.3477 106.815C74.0745 106.982 73.7315 107.024 73.3855 107.066C73.2325 107.084 73.0783 107.103 72.9298 107.132C72.9694 106.976 72.9941 106.81 73.0189 106.645C73.0673 106.32 73.1153 105.997 73.2755 105.751C77.189 99.8281 81.1268 93.922 85.0892 88.0321C85.2512 87.7941 85.5248 87.6315 85.797 87.4698C85.9199 87.3968 86.0425 87.3239 86.1543 87.2443ZM125.748 137.48C125.766 137.52 125.79 137.572 125.828 137.642C124.708 138.513 107.769 138.506 106.427 137.518C106.882 137.014 107.336 136.51 107.789 136.006L107.79 136.005L107.793 136.002C109.183 134.457 110.567 132.919 111.974 131.409C112.119 131.25 112.583 131.222 112.811 131.333C116.494 133.042 120.167 134.777 123.839 136.512L125.69 137.386C125.71 137.398 125.723 137.426 125.748 137.48ZM169.562 138.243H175.275C176.375 138.243 176.797 137.829 176.098 136.771C175.104 135.254 174.111 133.735 173.117 132.217L173.022 132.071L173.009 132.051L172.996 132.032L172.983 132.012C170.394 128.055 167.807 124.1 165.205 120.159C165.07 119.948 164.816 119.82 164.563 119.692C164.45 119.636 164.338 119.58 164.236 119.516C164.183 119.623 164.117 119.73 164.051 119.837L164.05 119.839C163.904 120.079 163.755 120.321 163.731 120.573C163.501 123.521 163.284 126.469 163.066 129.417C162.884 131.873 162.703 134.329 162.514 136.785C162.438 137.815 162.798 138.278 163.849 138.257C165.206 138.227 166.563 138.233 167.922 138.239H167.925C168.47 138.241 169.016 138.243 169.562 138.243ZM47.729 138.05C47.5016 137.984 47.234 137.908 46.9023 137.829L47.6136 137.047C48.7479 135.801 49.6899 134.766 50.6511 133.731C51.671 132.641 52.6922 131.553 53.7135 130.465L53.715 130.464C56.0037 128.025 58.2935 125.586 60.5696 123.13C61.4205 122.218 61.9184 122.156 62.458 123.448C64.3105 127.875 66.2057 132.284 68.1435 136.674C68.6484 137.829 68.3441 138.25 67.1474 138.25C64.0625 138.243 60.9761 138.243 57.8886 138.243C54.8012 138.243 51.713 138.243 48.6245 138.236C48.3633 138.232 48.0993 138.156 47.729 138.05ZM138.167 105.951C138.315 106.237 138.425 106.464 138.517 106.65C138.674 106.973 138.774 107.177 138.901 107.361L147.256 119.481L148.541 121.346L148.542 121.348C151.564 125.736 154.584 130.121 157.631 134.491C157.791 134.727 158.055 134.889 158.317 135.049C158.438 135.123 158.559 135.198 158.669 135.279C158.727 135.144 158.797 135.012 158.867 134.88C159.012 134.605 159.157 134.331 159.194 134.042C159.29 133.224 159.333 132.407 159.376 131.59C159.394 131.232 159.413 130.875 159.436 130.517C159.549 128.902 159.665 127.287 159.782 125.672L159.783 125.659C160.052 121.926 160.321 118.195 160.543 114.465C160.681 112.184 159.692 111.009 157.527 110.47C156.169 110.131 154.81 109.79 153.451 109.45C149.034 108.344 144.616 107.238 140.194 106.144C139.866 106.066 139.527 106.045 139.079 106.018C138.818 106.002 138.521 105.984 138.167 105.951ZM109.987 122.921C110.086 122.441 110.162 122.07 110.176 121.7C110.212 120.541 110.235 119.383 110.257 118.225C110.291 116.488 110.325 114.75 110.404 113.013C110.528 110.807 109.872 108.628 108.551 106.856C103.059 99.2431 97.5832 91.6186 92.1235 83.9826C91.9545 83.7483 91.8525 83.4662 91.7502 83.1838C91.7018 83.05 91.6534 82.9162 91.5977 82.7871L90.9476 83.1741C90.8959 83.3628 90.8347 83.5509 90.7734 83.7388C90.6464 84.1289 90.5193 84.5192 90.4773 84.9156C90.285 86.7808 90.1039 88.6459 89.9226 90.5104L89.9224 90.5122C89.6472 93.3442 89.3722 96.1741 89.0593 98.9989C88.8992 99.9988 89.2254 101.015 89.9378 101.736C93.8355 106.074 97.7168 110.428 101.599 114.784C103.882 117.345 106.166 119.908 108.454 122.467C108.673 122.713 108.922 122.929 109.251 123.215C109.421 123.362 109.611 123.527 109.83 123.725C109.885 123.421 109.939 123.157 109.987 122.921ZM114.236 122.557L113.821 122.28C113.842 121.424 113.85 120.57 113.858 119.717C113.901 115.016 113.944 110.366 116.214 105.84C119.668 98.963 122.913 91.9769 126.16 84.9886C127.685 81.7045 129.212 78.4183 130.76 75.1443C130.905 74.8449 131.196 74.6121 131.487 74.3792C131.625 74.2681 131.764 74.1569 131.887 74.0386C131.931 74.1807 131.987 74.3235 132.042 74.4665C132.17 74.7963 132.298 75.1274 132.288 75.4552C132.095 83.9896 131.88 92.5239 131.631 101.058C131.6 101.574 131.412 102.069 131.092 102.475C125.87 108.884 120.629 115.279 115.37 121.658C115.164 121.907 114.891 122.095 114.618 122.282C114.488 122.371 114.358 122.461 114.236 122.557ZM92.1794 138.257C94.6456 138.266 97.1153 138.275 99.5797 138.209C100.339 138.173 101.06 137.866 101.613 137.345C102.8 136.102 103.948 134.822 105.097 133.542C106.191 132.322 107.285 131.103 108.412 129.916C109.277 129.018 109.083 128.465 108.35 127.663C104.446 123.434 100.578 119.172 96.7437 114.879C95.8169 113.842 95.2843 113.849 94.4544 114.983C91.1324 119.523 87.7886 124.044 84.4435 128.566L84.4418 128.568C82.4873 131.21 80.5317 133.854 78.5807 136.502C78.4047 136.742 78.3031 137.035 78.2013 137.329C78.1509 137.475 78.1005 137.62 78.0411 137.759C78.1821 137.81 78.3231 137.873 78.4642 137.935C78.7871 138.079 79.111 138.223 79.4383 138.223C82.1492 138.256 84.8512 138.253 87.5585 138.251C88.2359 138.251 88.9137 138.25 89.592 138.25C90.4535 138.25 91.317 138.253 92.1794 138.257ZM91.4485 109.014C91.9739 109.617 92.5037 110.225 93.0365 110.843L84.3907 122.425C83.5048 123.612 82.6191 124.799 81.7331 125.987L81.7281 125.994C79.2049 129.376 76.6799 132.762 74.1471 136.135C72.8537 137.863 72.5354 137.829 71.6917 135.894C70.9747 134.231 70.2606 132.568 69.5467 130.905C68.0496 127.418 66.5529 123.932 65.0309 120.456C64.5813 119.419 64.4706 118.493 65.2938 117.65C65.5066 117.433 65.7158 117.208 65.9255 116.982C66.5875 116.271 67.2534 115.556 68.0465 115.052C71.2125 113.046 74.4012 111.075 77.5899 109.104C80.2112 107.484 82.8333 105.863 85.4419 104.223C86.4103 103.622 86.9636 103.712 87.683 104.589C88.8966 106.087 90.1593 107.535 91.4485 109.014ZM133.118 105.398C132.97 105.638 132.847 105.847 132.738 106.032C132.517 106.407 132.354 106.685 132.15 106.925C126.672 113.601 121.187 120.276 115.668 126.924C114.768 128.009 115.232 128.437 116.249 128.9C118.97 130.146 121.686 131.4 124.403 132.654C128.018 134.323 131.633 135.993 135.263 137.642C136.077 138.008 136.957 138.206 137.849 138.223C143.078 138.271 148.314 138.257 153.55 138.229C153.886 138.229 154.225 138.123 154.565 138.016C154.715 137.969 154.866 137.922 155.017 137.884C154.964 137.729 154.92 137.567 154.877 137.404C154.776 137.03 154.675 136.653 154.463 136.35C149.638 129.31 144.799 122.28 139.945 115.259C138.11 112.598 136.265 109.936 134.188 106.941L134.187 106.939L133.118 105.398Z" fill="white"/>
</g>
<defs>
<clipPath id="clip0_4_3798">
<rect width="220" height="220" fill="white" transform="translate(0 0.5)"/>
</clipPath>
</defs>
</svg>
