<svg width="220" height="221" viewBox="0 0 220 221" fill="none" xmlns="http://www.w3.org/2000/svg">
<g clip-path="url(#clip0_4_3801)">
<path d="M110 220.5C170.751 220.5 220 171.251 220 110.5C220 49.7487 170.751 0.5 110 0.5C49.2487 0.5 0 49.7487 0 110.5C0 171.251 49.2487 220.5 110 220.5Z" fill="#1EB5FA"/>
<path fill-rule="evenodd" clip-rule="evenodd" d="M62.4106 61.22L38.2639 50.2827C37.5419 49.8898 36.6651 49.9074 35.9596 50.3293C35.2541 50.7511 34.8259 51.5138 34.8341 52.3335V166.765C34.8347 167.609 35.2937 168.388 36.0338 168.799C36.7741 169.21 37.6798 169.191 38.4012 168.747L62.6848 155.964C64.0488 155.136 64.881 153.659 64.8801 152.068V65.2532C64.8267 63.5692 63.8888 62.0375 62.4106 61.22ZM181.668 50.3511L156.767 61.3568C155.288 62.1633 154.367 63.7095 154.366 65.3899V154.119C154.361 155.819 155.316 157.379 156.836 158.152L181.737 168.884C182.459 169.277 183.336 169.259 184.042 168.837C184.747 168.416 185.175 167.653 185.167 166.833V52.4019C185.14 51.5816 184.694 50.8322 183.985 50.4162C183.275 50.0002 182.401 49.9756 181.668 50.3511ZM112.144 76.669L138.143 91.5026C139.597 92.326 140.489 93.8693 140.475 95.5358V125.613C140.472 127.275 139.584 128.811 138.143 129.646L112.144 144.685C110.724 145.505 108.968 145.505 107.548 144.685L81.0691 129.51C79.6287 128.676 78.7369 127.138 78.7369 125.477V95.399C78.7399 93.7371 79.6277 92.2017 81.0691 91.3659L107.548 76.669C108.969 75.848 110.723 75.848 112.144 76.669Z" fill="white"/>
</g>
<defs>
<clipPath id="clip0_4_3801">
<rect width="220" height="220" fill="white" transform="translate(0 0.5)"/>
</clipPath>
</defs>
</svg>
