<svg width="220" height="221" viewBox="0 0 220 221" fill="none" xmlns="http://www.w3.org/2000/svg">
<g clip-path="url(#clip0_4_3804)">
<path d="M110 220.5C170.751 220.5 220 171.251 220 110.5C220 49.7487 170.751 0.5 110 0.5C49.2487 0.5 0 49.7487 0 110.5C0 171.251 49.2487 220.5 110 220.5Z" fill="black"/>
<path d="M195.283 122.292C189.698 129.787 179.097 131.338 171.6 125.757C164.105 120.173 162.554 109.572 168.135 102.074C173.719 94.5796 184.319 93.0286 191.818 98.6091C193.134 99.5899 194.302 100.757 195.283 102.074L200.046 98.6641C192.58 88.5129 178.301 86.3316 168.146 93.7911C157.994 101.256 155.813 115.536 163.273 125.691C170.738 135.842 185.018 138.024 195.173 130.564C197.034 129.196 198.678 127.553 200.046 125.691L195.283 122.292Z" fill="white"/>
<path fill-rule="evenodd" clip-rule="evenodd" d="M134.883 92.7571L138.183 85.8931L141.384 92.7571L160.964 134.986H154.551L150.019 125.207H126.215L121.694 134.986H115.314L134.883 92.7571ZM138.184 99.5991L128.998 119.399H147.346L138.184 99.5991Z" fill="white"/>
<path d="M43.1619 112.227L26.6729 95.7381L26.2219 95.2871L20.3809 89.4351V89.4461V97.7291V134.975H26.2219V103.57L39.0259 116.374L43.1619 120.51L47.2869 116.374L60.0909 103.57V134.975H65.9319V97.7291V89.4461L60.0909 95.2871L43.1619 112.227Z" fill="white"/>
<path fill-rule="evenodd" clip-rule="evenodd" d="M71.7227 112.271C71.7227 99.665 81.9418 89.446 94.5477 89.446C107.154 89.446 117.373 99.665 117.373 112.271C117.373 124.877 107.154 135.096 94.5477 135.096C88.4942 135.096 82.6886 132.691 78.4079 128.411C74.1274 124.13 71.7227 118.325 71.7227 112.271ZM82.5589 124.206C85.7403 127.381 90.0531 129.162 94.5477 129.156V129.2C99.0481 129.194 103.361 127.398 106.535 124.207C109.709 121.017 111.483 116.694 111.466 112.194C111.463 107.701 109.675 103.394 106.496 100.219C103.317 97.0441 99.0074 95.2621 94.5147 95.265C90.0201 95.268 85.7108 97.0569 82.5357 100.238C79.3605 103.42 77.5798 107.732 77.5857 112.227C77.5886 116.722 79.3777 121.031 82.5589 124.206Z" fill="white"/>
<path d="M104.193 104.131C105.068 104.131 105.777 103.422 105.777 102.547C105.777 101.672 105.068 100.963 104.193 100.963C103.319 100.963 102.609 101.672 102.609 102.547C102.609 103.422 103.319 104.131 104.193 104.131Z" fill="white"/>
<path d="M104.193 123.414C105.068 123.414 105.777 122.705 105.777 121.83C105.777 120.955 105.068 120.246 104.193 120.246C103.319 120.246 102.609 120.955 102.609 121.83C102.609 122.705 103.319 123.414 104.193 123.414Z" fill="white"/>
<path d="M84.9004 104.131C85.7752 104.131 86.4844 103.422 86.4844 102.547C86.4844 101.672 85.7752 100.963 84.9004 100.963C84.0256 100.963 83.3164 101.672 83.3164 102.547C83.3164 103.422 84.0256 104.131 84.9004 104.131Z" fill="white"/>
<path d="M80.8831 112.997C81.3266 112.997 81.6861 112.638 81.6861 112.194C81.6861 111.751 81.3266 111.391 80.8831 111.391C80.4396 111.391 80.0801 111.751 80.0801 112.194C80.0801 112.638 80.4396 112.997 80.8831 112.997Z" fill="white"/>
<path d="M94.5471 126.681C94.9906 126.681 95.3501 126.321 95.3501 125.878C95.3501 125.434 94.9906 125.075 94.5471 125.075C94.1037 125.075 93.7441 125.434 93.7441 125.878C93.7441 126.321 94.1037 126.681 94.5471 126.681Z" fill="white"/>
<path d="M108.196 112.997C108.639 112.997 108.999 112.638 108.999 112.194C108.999 111.751 108.639 111.391 108.196 111.391C107.752 111.391 107.393 111.751 107.393 112.194C107.393 112.638 107.752 112.997 108.196 112.997Z" fill="white"/>
<path d="M94.5471 99.368C94.9906 99.368 95.3501 99.0085 95.3501 98.565C95.3501 98.1215 94.9906 97.762 94.5471 97.762C94.1037 97.762 93.7441 98.1215 93.7441 98.565C93.7441 99.0085 94.1037 99.368 94.5471 99.368Z" fill="white"/>
<path d="M94.5471 103.35C94.9906 103.35 95.3501 102.991 95.3501 102.547C95.3501 102.104 94.9906 101.744 94.5471 101.744C94.1037 101.744 93.7441 102.104 93.7441 102.547C93.7441 102.991 94.1037 103.35 94.5471 103.35Z" fill="white"/>
<path d="M84.9004 123.414C85.7752 123.414 86.4844 122.705 86.4844 121.83C86.4844 120.955 85.7752 120.246 84.9004 120.246C84.0256 120.246 83.3164 120.955 83.3164 121.83C83.3164 122.705 84.0256 123.414 84.9004 123.414Z" fill="white"/>
<path d="M94.5469 123.414C95.4217 123.414 96.1309 122.705 96.1309 121.83C96.1309 120.955 95.4217 120.246 94.5469 120.246C93.6721 120.246 92.9629 120.955 92.9629 121.83C92.9629 122.705 93.6721 123.414 94.5469 123.414Z" fill="white"/>
<path d="M104.474 102.547H103.891V121.841H104.474V102.547Z" fill="white"/>
<path d="M104.192 102.448H84.8984V102.646H104.192V102.448Z" fill="white"/>
<path d="M94.4805 102.593L94.6577 102.505L104.288 121.794L104.111 121.883L94.4805 102.593Z" fill="white"/>
<path d="M84.8203 121.792L94.4688 102.499L94.6459 102.588L84.9974 121.881L84.8203 121.792Z" fill="white"/>
<path d="M85.1807 102.547H84.5977V121.841H85.1807V102.547Z" fill="white"/>
<path d="M104.192 121.731H84.8984V121.929H104.192V121.731Z" fill="white"/>
<path d="M84.6484 102.685L85.1698 102.424L94.8183 121.717L94.2969 121.978L84.6484 102.685Z" fill="white"/>
<path d="M94.2871 121.709L103.936 102.416L104.457 102.677L94.8085 121.97L94.2871 121.709Z" fill="white"/>
<path d="M80.8027 112.176L84.7999 102.52L84.9829 102.596L80.9855 112.251L80.8027 112.176Z" fill="white"/>
<path d="M84.8067 121.885L80.8027 112.249L80.9787 112.161L84.9937 121.797L84.8067 121.885Z" fill="white"/>
<path d="M94.6433 121.83H94.4453V125.856H94.6433V121.83Z" fill="white"/>
<path d="M94.6433 98.532H94.4453V102.558H94.6433V98.532Z" fill="white"/>
<path d="M84.8711 102.455L94.5161 98.4614L94.5918 98.6444L84.9468 102.638L84.8711 102.455Z" fill="white"/>
<path d="M94.4961 98.652L94.5718 98.469L104.227 102.466L104.151 102.649L94.4961 98.652Z" fill="white"/>
<path d="M104.105 102.583L104.288 102.507L108.289 112.161L108.106 112.237L104.105 102.583Z" fill="white"/>
<path d="M104.092 121.839L108.098 112.163L108.28 112.239L104.275 121.915L104.092 121.839Z" fill="white"/>
<path d="M94.4961 125.795L104.174 121.766L104.25 121.949L94.5722 125.977L94.4961 125.795Z" fill="white"/>
<path d="M94.503 125.955L84.834 121.929L84.9 121.753L94.58 125.779L94.503 125.955Z" fill="white"/>
</g>
<defs>
<clipPath id="clip0_4_3804">
<rect width="220" height="220" fill="white" transform="translate(0 0.5)"/>
</clipPath>
</defs>
</svg>
