<svg width="220" height="221" viewBox="0 0 220 221" fill="none" xmlns="http://www.w3.org/2000/svg">
<g clip-path="url(#clip0_4_3838)">
<path d="M110 220.5C170.751 220.5 220 171.251 220 110.5C220 49.7487 170.751 0.5 110 0.5C49.2487 0.5 0 49.7487 0 110.5C0 171.251 49.2487 220.5 110 220.5Z" fill="#01A64F"/>
<path fill-rule="evenodd" clip-rule="evenodd" d="M155.833 89.6367C155.833 76.5192 151.542 65.2992 143.139 56.3617C134.543 47.0392 123.901 42.6667 111.013 42.6667C97.9392 42.6667 87.2835 47.0392 78.701 55.9767C70.1116 64.7287 66 75.9485 66 89.451C66 102.761 70.2982 113.988 78.8876 122.925C85.6113 129.959 93.641 134.145 102.797 135.665V143.654H83.9322V152.213H102.977V156.778H83.9252V164.767H102.79V180.167H119.043V164.76H138.088V156.778H118.85V152.213H138.088V143.654H119.043V135.857C128.379 134.331 136.409 130.151 143.132 123.118C151.542 114.18 155.833 102.954 155.833 89.6367ZM130.998 89.451C130.998 96.6767 129.125 102.575 125.58 107.14C122.028 111.705 116.991 113.988 111.007 113.988C105.223 113.988 100.372 111.705 96.6332 107.14C92.8946 102.575 91.0221 96.6767 91.0221 89.2655C91.0221 82.033 92.8878 76.3337 96.6332 71.7685C100.372 67.2035 105.223 64.9212 111.013 64.9212C116.618 64.9212 121.476 67.2035 125.207 71.9542C129.132 76.5262 130.998 82.418 130.998 89.451Z" fill="white"/>
</g>
<defs>
<clipPath id="clip0_4_3838">
<rect width="220" height="220" fill="white" transform="translate(0 0.5)"/>
</clipPath>
</defs>
</svg>
