<svg width="220" height="221" viewBox="0 0 220 221" fill="none" xmlns="http://www.w3.org/2000/svg">
<g clip-path="url(#clip0_4_3841)">
<path d="M110 220.5C170.751 220.5 220 171.251 220 110.5C220 49.7487 170.751 0.5 110 0.5C49.2487 0.5 0 49.7487 0 110.5C0 171.251 49.2487 220.5 110 220.5Z" fill="#EDF0F4"/>
<path fill-rule="evenodd" clip-rule="evenodd" d="M106.471 45.3072C100.752 41.2044 92.2491 41.9682 87.3293 47.0014L87.3306 47.0038C82.0086 52.0365 81.349 61.0407 85.8801 66.8011C88.816 70.7744 93.7357 72.9702 98.6417 72.8797C99.1802 75.7145 99.75 78.5439 100.32 81.3737C100.932 84.4113 101.544 87.4495 102.116 90.4949C94.2798 93.1105 88.4236 100.922 88.629 109.25C88.3716 116.203 92.3521 122.85 98.2028 126.458C96.5697 131.096 94.9204 135.727 93.2711 140.358L93.27 140.361L93.2693 140.363C91.4378 145.506 89.6065 150.647 87.7979 155.798C85.5814 155.116 83.2437 154.452 80.9082 154.921C78.6765 155.238 76.6523 156.327 74.8859 157.682C74.2514 157.244 73.6224 156.798 72.9936 156.353C72.2529 155.828 71.5108 155.302 70.7613 154.79C71.3575 153.081 71.9088 151.3 71.7639 149.467C71.642 145.36 68.6962 141.574 64.8022 140.322C61.3257 139.133 57.2388 140.011 54.5823 142.564C51.7133 145.202 50.5658 149.557 51.8671 153.244C53.165 157.291 57.2128 160.31 61.4896 160.212C63.5908 160.329 65.5783 159.511 67.3902 158.527C68.202 159.106 69.0108 159.689 69.8202 160.273C70.4927 160.758 71.1655 161.242 71.8402 161.726C71.1445 163.88 70.5387 166.176 71.0044 168.452C71.6638 172.925 75.1067 176.829 79.4757 178.012C82.8912 179.056 86.7313 178.315 89.6133 176.241C92.8123 173.991 94.6916 170.066 94.5649 166.171C94.4881 163.569 93.3452 161.174 91.9539 159.032C93.8109 153.969 95.6083 148.885 97.4055 143.801L97.4062 143.799C99.2117 138.692 101.017 133.586 102.882 128.501C109.709 130.583 117.412 128.546 122.513 123.617C127.6 128.352 132.663 133.115 137.727 137.878C140.079 140.09 142.431 142.302 144.786 144.512C143.603 147.309 143.063 150.453 143.839 153.435C144.946 158.265 149.044 162.227 153.905 163.184C156.824 163.718 159.95 163.403 162.584 161.983C166.84 159.801 169.691 155.163 169.641 150.372C169.705 144.981 166.045 139.835 160.958 138.068C156.535 136.455 151.464 137.549 147.856 140.498C140.475 133.534 133.078 126.584 125.664 119.649C129.59 113.017 129.36 104.166 124.815 97.8955C120.875 92.263 113.94 88.9947 107.086 89.4827C106.542 86.6958 105.982 83.911 105.423 81.1251C104.798 78.013 104.172 74.9 103.567 71.7819C107.366 70.11 110.578 67.0289 112.019 63.0941C114.491 56.8048 112.137 49.0386 106.471 45.3072ZM89.0862 59.5319C87.9547 54.7474 91.5463 49.5065 96.4212 48.8558L96.4236 48.8566C98.5447 48.5607 100.801 48.8648 102.626 50.0396C106.087 52.0548 107.79 56.5588 106.557 60.3677C105.468 64.1671 101.611 66.9639 97.648 66.7059C93.5588 66.7426 89.8588 63.4987 89.0862 59.5319ZM105.545 98.2834C99.8798 99.6394 96.0171 105.792 97.2192 111.485C98.091 116.775 103.106 120.968 108.478 120.85C113.727 120.995 118.67 117.02 119.727 111.887C120.807 107.346 118.76 102.241 114.798 99.7605C112.106 97.9859 108.653 97.4487 105.545 98.2834ZM149.739 152.032C148.791 148.643 150.982 144.852 154.28 143.759C158.422 142.136 163.437 145.512 163.528 149.944C163.885 153.586 160.88 157.06 157.266 157.371C153.886 157.782 150.485 155.338 149.739 152.032ZM59.8652 145.134C56.1386 146.236 55.1668 151.7 58.293 154.021C61.1796 156.654 66.3846 154.576 66.714 150.695C67.3605 147.068 63.2943 143.701 59.8652 145.134ZM77.3721 164.39C78.0541 162.804 79.459 161.535 81.1218 161.065C84.6503 159.944 88.6544 162.921 88.477 166.64C88.626 170.044 85.2193 172.947 81.8761 172.351C78.2483 171.971 75.8673 167.702 77.3721 164.39Z" fill="#6EA8F2"/>
</g>
<defs>
<clipPath id="clip0_4_3841">
<rect width="220" height="220" fill="white" transform="translate(0 0.5)"/>
</clipPath>
</defs>
</svg>
