<svg width="220" height="221" viewBox="0 0 220 221" fill="none" xmlns="http://www.w3.org/2000/svg">
<g clip-path="url(#clip0_4_3844)">
<path d="M110 220.5C170.751 220.5 220 171.251 220 110.5C220 49.7487 170.751 0.5 110 0.5C49.2487 0.5 0 49.7487 0 110.5C0 171.251 49.2487 220.5 110 220.5Z" fill="#DEC799"/>
<path fill-rule="evenodd" clip-rule="evenodd" d="M160.889 91.941L151.089 48.1665L131.854 78.2913C116.9 74.708 101.302 74.708 86.3485 78.2913L67.1683 48.1665L57.3341 91.941C46.7778 100.322 40.334 111.276 40.334 123.301C40.334 149.645 71.1157 171 109.084 171C147.052 171 177.834 149.638 177.834 123.301C177.827 111.276 171.438 100.322 160.882 91.941H160.889ZM70.8819 111.979H66.3017L77.4907 99.1753H85.6333L70.8819 111.979ZM89.7113 110.013L108.733 143.264L128.505 110.061L123.856 107.317L119.427 114.756H98.6514L94.4083 107.351L89.7113 110.013ZM147.334 111.979L132.576 99.1753H140.774L151.949 111.979H147.334ZM101.719 120.134L108.823 132.556L116.215 120.134H101.719Z" fill="white"/>
</g>
<defs>
<clipPath id="clip0_4_3844">
<rect width="220" height="220" fill="white" transform="translate(0 0.5)"/>
</clipPath>
</defs>
</svg>
