<svg width="220" height="221" viewBox="0 0 220 221" fill="none" xmlns="http://www.w3.org/2000/svg">
<g clip-path="url(#clip0_4_3852)">
<path d="M110 220.5C170.751 220.5 220 171.251 220 110.5C220 49.7487 170.751 0.5 110 0.5C49.2487 0.5 0 49.7487 0 110.5C0 171.251 49.2487 220.5 110 220.5Z" fill="#EDF0F4"/>
<path fill-rule="evenodd" clip-rule="evenodd" d="M45.834 137.123C45.8452 144.356 49.2333 151.169 54.9944 155.544L54.9763 155.552L71.3344 168.03V82.8047C71.3347 75.5902 67.9752 68.7872 62.2465 64.4019L45.834 51.8335V137.123ZM165.075 155.544L148.717 168.021V82.7956C148.716 75.5812 152.076 68.7781 157.805 64.3927L174.167 51.8335V137.113C174.167 144.345 170.79 151.161 165.039 155.544H165.075ZM114.647 147.982L131.714 134.755C137.04 130.622 140.155 124.257 140.152 117.516V77.9836L123.339 90.6338C117.866 94.7548 114.647 101.208 114.647 108.06V147.982ZM79.8315 117.538C79.8319 124.282 82.952 130.647 88.2832 134.778H88.2694L105.327 148.005V108.092C105.327 101.245 102.112 94.7956 96.6439 90.6747L79.8315 78.0063V117.538Z" fill="#0072FF"/>
</g>
<defs>
<clipPath id="clip0_4_3852">
<rect width="220" height="220" fill="white" transform="translate(0 0.5)"/>
</clipPath>
</defs>
</svg>
