<svg width="220" height="221" viewBox="0 0 220 221" fill="none" xmlns="http://www.w3.org/2000/svg">
<g clip-path="url(#clip0_4_3847)">
<path d="M110 220.5C170.751 220.5 220 171.251 220 110.5C220 49.7487 170.751 0.5 110 0.5C49.2487 0.5 0 49.7487 0 110.5C0 171.251 49.2487 220.5 110 220.5Z" fill="white"/>
<path d="M220.001 110.489C220.001 171.232 170.762 220.478 110.015 220.478C49.2675 220.478 0.0292969 171.232 0.0292969 110.489C0.0292969 49.7459 49.2687 0.5 110.015 0.5C170.761 0.5 220.001 49.7411 220.001 110.489Z" fill="white"/>
<path d="M110.017 0.5C49.2913 0.5 -0.0342469 49.8156 0.0430595 110.486C0.0582864 122.624 1.99387 134.3 5.62667 145.222H38.5333V52.6963L110.017 124.179L181.497 52.6963V145.224H214.411C218.048 134.302 219.975 122.626 219.995 110.487C220.1 49.754 170.749 0.514641 110.017 0.514641V0.5Z" fill="#F26822"/>
<path d="M93.5723 140.613L62.3763 109.415V167.637H38.5255L16.0195 167.641C35.3243 199.314 70.2129 220.5 110.012 220.5C149.81 220.5 184.7 199.309 204.009 167.637H157.64V109.415L126.442 140.613L110.008 157.047L93.5723 140.613Z" fill="#4D4D4D"/>
</g>
<defs>
<clipPath id="clip0_4_3847">
<rect width="220" height="220" fill="white" transform="translate(0 0.5)"/>
</clipPath>
</defs>
</svg>
