<svg width="220" height="221" viewBox="0 0 220 221" fill="none" xmlns="http://www.w3.org/2000/svg">
<g clip-path="url(#clip0_4_3855)">
<path d="M216.71 137.112C202.014 196.038 142.344 231.902 83.3901 217.207C24.4652 202.511 -11.3711 142.813 3.32435 83.8877C17.9912 24.9627 77.6896 -10.9022 136.586 3.79329C195.54 18.4887 231.404 78.1871 216.71 137.112Z" fill="#0007BC"/>
<path fill-rule="evenodd" clip-rule="evenodd" d="M176.057 117.203L174.682 114.998L152.567 79.9633C150.819 77.2419 148.528 74.9216 145.835 73.1455C140.822 69.9658 134.692 68.9631 128.934 70.3955C123.233 71.7705 118.363 75.4086 115.413 80.479C113.923 82.9425 112.061 86.0076 110.171 89.0154L104.155 79.7341L103.926 79.419V79.333C101.892 76.6118 99.3424 74.3199 96.4204 72.6012C92.0376 70.2237 86.9672 69.4214 82.0115 70.2809C77.2562 71.2262 72.902 73.6324 69.5503 77.1847C68.6051 78.2445 67.7744 79.3904 67.0869 80.6222L50.7585 106.518L43.9121 117.318C40.7897 122.302 39.7011 128.318 40.9043 134.076C42.0216 139.834 45.4877 144.875 50.4433 148.026C53.8236 150.146 57.7195 151.263 61.7013 151.235C69.5217 151.206 76.7693 147.224 80.9229 140.607L86.1365 132.357L91.1782 140.206C92.5246 142.154 94.1287 143.959 95.8761 145.534C96.3632 145.964 96.8501 146.394 97.3657 146.766H97.4231C97.7668 147.024 98.1106 147.253 98.5115 147.511C101.892 149.688 105.845 150.862 109.884 150.862C114.152 150.834 118.335 149.602 121.887 147.253L122.316 146.966L122.718 146.709C124.665 145.334 126.413 143.644 127.845 141.724L133.775 132.5L138.845 140.521C143.056 147.11 150.304 151.091 158.124 151.091C162.077 151.12 165.973 150.003 169.353 147.912C179.523 141.552 182.559 127.516 176.057 117.203ZM70.2664 82.5127C70.8681 81.4815 71.5556 80.5362 72.3291 79.6481C75.0791 76.6976 78.7172 74.6639 82.6702 73.8044C86.7954 73.0595 91.0062 73.747 94.6731 75.7237C97.1653 77.2133 99.3424 79.1898 101.061 81.5103L101.204 81.7106L108.137 92.3671C106.852 94.2886 105.648 96.0746 104.664 97.5356L104.658 97.5435C103.166 99.7587 102.178 101.224 102.178 101.276C99.6287 105.172 95.7329 108.008 91.2354 109.182H91.0062C86.3083 110.557 81.2952 110.013 76.9697 107.693L76.2822 107.292L75.6806 106.891L75.1077 106.49L74.6208 106.088L74.1625 105.716L73.7899 105.401L73.5322 105.172L73.389 105.029L72.9878 104.57L72.5009 104.141L72.3577 103.997L72.1286 103.768L71.9854 103.625L71.842 103.482L71.1831 102.938L71.0399 102.823L70.8394 102.68L70.4956 102.422L70.3238 102.307H70.2378L69.7509 101.992L69.5789 101.906H69.4358L68.9774 101.648L68.7483 101.505L68.1467 101.219L67.8602 101.018L67.5452 100.875L66.9723 100.646H66.9435L66.2274 100.417L65.9409 100.359L65.368 100.216H65.0816L64.5373 100.016H64.2221H63.993H63.7066H63.3055H62.4176H62.131H61.1284H60.9852L60.0111 100.159H59.9253L58.8941 100.388L70.2664 82.5127ZM66.428 147.052C71.2119 145.849 75.3655 142.87 78.0297 138.688L84.2744 129.063L70.1233 106.318L69.9515 106.117L69.8369 105.974L69.7509 105.888L69.4358 105.573H69.3786L68.8628 105.115H68.7769L68.5477 104.971L68.3473 104.828H68.2613H68.1467L67.803 104.599L67.5738 104.456H67.4592L67.2301 104.313L67.0009 104.198H66.8577L66.5998 104.055L66.428 103.997L65.8263 103.768H65.6545L65.2822 103.625H65.1102H64.9956L64.6805 103.568H64.5087H64.1075H63.8784H63.42H63.1909H62.5034C59.9253 103.568 57.4331 104.57 55.571 106.346C54.9409 106.977 54.3966 107.635 53.9096 108.38L47.0918 119.18C41.649 127.888 44.1413 139.662 52.5346 144.933C56.6596 147.539 61.7013 148.284 66.428 147.052ZM125.066 139.547C123.835 141.209 122.402 142.67 120.684 143.873L120.369 144.102L119.968 144.36C114.124 148.284 106.504 148.37 100.545 144.618L99.6287 143.987H99.5142C99.4267 143.919 99.338 143.85 99.2483 143.781C98.9271 143.532 98.596 143.276 98.2823 142.985C96.7642 141.61 95.3892 140.063 94.2147 138.373L87.7121 128.117L77.6859 112.162L78.0297 112.305L78.975 112.62L79.5193 112.792L80.4645 113.021L81.0948 113.193L82.0973 113.365L82.6416 113.451L83.9594 113.594H84.1312H85.6208H86.2223H87.3395H87.9125L89.0011 113.451H89.488C90.0037 113.365 90.5193 113.279 90.9776 113.135C92.7537 112.677 94.4725 112.018 96.1053 111.159H96.2772C96.5064 111.044 96.7213 110.93 96.9361 110.815C97.1508 110.701 97.3657 110.586 97.5948 110.471C100.631 108.724 103.21 106.289 105.1 103.338C105.1 103.338 108.194 98.6692 111.574 93.3983C113.98 89.6457 116.559 85.5493 118.392 82.3981C120.827 78.1872 124.923 75.1222 129.65 74.005C134.491 72.8303 139.561 73.6324 143.772 76.2966C146.007 77.7862 147.926 79.7627 149.416 82.0258L166.432 109.01C165.944 108.781 165.458 108.609 164.942 108.438L164.684 108.352C164.287 108.211 163.87 108.09 163.466 107.972L163.194 107.893H163.051C162.601 107.761 162.125 107.677 161.671 107.597L161.562 107.578H161.333C160.955 107.512 160.543 107.462 160.163 107.417C160.053 107.403 159.946 107.391 159.843 107.378H159.556C159.041 107.378 158.525 107.378 158.067 107.32H158.01H156.52H156.205C155.718 107.32 155.202 107.378 154.715 107.492H154.4C153.884 107.578 153.369 107.664 152.825 107.807C152.108 107.979 151.421 108.18 150.705 108.409C145.95 110.042 141.882 113.279 139.275 117.576L133.087 127.287L125.066 139.547ZM142.054 138.545C147.496 147.224 159.184 150.089 167.577 144.818C175.971 139.547 178.434 127.774 172.934 118.979L171.645 116.917L171.502 116.774C171.416 116.678 171.33 116.579 171.244 116.481C171.072 116.283 170.9 116.086 170.728 115.914L170.585 115.771C169.984 115.169 169.296 114.596 168.58 114.081L168.351 113.938C168.236 113.861 168.137 113.794 168.039 113.727C167.842 113.594 167.644 113.46 167.319 113.25C166.833 112.935 166.317 112.677 165.83 112.448H165.687L165.171 112.219L164.856 112.076L164.483 111.932L163.997 111.732H163.796L163.108 111.503C155.517 109.182 147.239 112.047 142.712 118.607L142.226 119.38L136.038 129.091L142.054 138.545Z" fill="white"/>
</g>
<defs>
<clipPath id="clip0_4_3855">
<rect width="220" height="220" fill="white" transform="translate(0 0.5)"/>
</clipPath>
</defs>
</svg>
