<svg width="220" height="221" viewBox="0 0 220 221" fill="none" xmlns="http://www.w3.org/2000/svg">
<g clip-path="url(#clip0_4_3858)">
<path fill-rule="evenodd" clip-rule="evenodd" d="M110 220.5C49.5 220.5 0 171.001 0 109.952C0.55 49.4535 49.5 -0.0454497 110.55 0.504539C171.05 1.05453 220 50.0035 220 111.602C219.45 171.551 170.5 220.5 110 220.5Z" fill="#EDF0F4"/>
<path fill-rule="evenodd" clip-rule="evenodd" d="M138.544 165.768V70.1248C138.544 68.5205 137.705 67.0619 136.32 66.2598L100.622 45.111C99.2732 44.3089 97.5958 44.3089 96.2102 45.038L84.8701 51.1639C83.4115 51.9297 82.5 53.4611 82.5 55.1019V153.152C82.5 154.756 83.3751 156.215 84.7607 157.017L119.146 176.889C120.531 177.691 122.245 177.691 123.631 176.889L136.283 169.67C137.669 168.867 138.544 167.372 138.544 165.768ZM88.8446 60.1704C88.1883 59.8057 87.386 60.0244 87.0214 60.6808C86.9121 60.8997 86.8391 61.1184 86.8391 61.3373L86.6932 151.912C86.6932 152.568 87.0214 153.152 87.6049 153.48L119.255 171.639C119.911 172.003 120.713 171.784 121.078 171.128C121.188 170.909 121.261 170.69 121.261 170.472V81.3555C121.261 79.7511 120.385 78.2562 119 77.4539L88.8446 60.1704ZM90.1573 63.525L117.432 79.1677C118.562 79.7876 119.255 80.991 119.255 82.3037V134.008C119.255 134.154 119.182 134.337 119.036 134.41L89.4645 151.183C89.2458 151.292 88.9906 151.219 88.8446 151C88.8081 150.928 88.7716 150.855 88.7716 150.782L88.8081 64.3273C88.8081 63.8532 89.2093 63.452 89.6832 63.452C89.8656 63.4156 90.0114 63.452 90.1573 63.525Z" fill="black"/>
</g>
<defs>
<clipPath id="clip0_4_3858">
<rect width="220" height="220" fill="white" transform="translate(0 0.5)"/>
</clipPath>
</defs>
</svg>
