<svg width="220" height="221" viewBox="0 0 220 221" fill="none" xmlns="http://www.w3.org/2000/svg">
<g clip-path="url(#clip0_4_3865)">
<path opacity="0.98" d="M110 220.5C170.751 220.5 220 171.251 220 110.5C220 49.7487 170.751 0.5 110 0.5C49.2487 0.5 0 49.7487 0 110.5C0 171.251 49.2487 220.5 110 220.5Z" fill="#002D3E"/>
<path d="M116.937 144.279C116.225 147.061 113.681 149.129 110.663 149.129C107.644 149.129 105.135 147.061 104.389 144.279L85.9726 71.2263C83.1916 60.0343 73.0509 51.7251 61.011 51.7251C46.8006 51.7251 35.2695 63.2562 35.2695 77.4667V83.2661C35.2695 88.6587 39.6446 92.9998 45.0031 92.9998C50.3956 92.9998 54.7368 88.6248 54.7368 83.2661V77.4667C54.7368 74.0074 57.5517 71.2263 60.9771 71.2263C63.8939 71.2263 66.3696 73.2613 67.048 75.9744L85.7691 150.147C88.6857 161.169 98.7247 169.275 110.663 169.275C122.567 169.275 132.64 161.135 135.557 150.147L154.278 75.9744C154.956 73.2613 157.398 71.2263 160.348 71.2263C163.808 71.2263 166.589 74.0413 166.589 77.4667V159.541C166.589 164.934 170.964 169.275 176.323 169.275C181.715 169.275 186.055 164.9 186.055 159.541V77.4667C186.055 63.2562 174.525 51.7251 160.315 51.7251C148.275 51.7251 138.134 60.0343 135.353 71.2263L116.937 144.279Z" fill="white"/>
<path d="M54.7661 159.541C54.7661 164.934 50.391 169.275 45.0325 169.275C39.64 169.275 35.2988 164.9 35.2988 159.541V137.734C35.2988 132.341 39.6739 128 45.0325 128C50.4249 128 54.7661 132.375 54.7661 137.734V159.541Z" fill="white"/>
<path d="M38.3543 103.853C39.5753 102.632 40.5928 101.648 41.4744 100.868L41.5762 100.8C43.5434 99.0365 46.5278 99.0365 48.495 100.766L48.5968 100.868C49.4784 101.682 50.5298 102.665 51.7169 103.886C52.904 105.073 53.9213 106.125 54.7014 107.007L54.8031 107.108C56.5668 109.075 56.5668 112.06 54.8031 114.027L54.7353 114.129C53.9213 115.011 52.9379 116.062 51.7508 117.249L51.7169 117.283C50.5298 118.47 49.4784 119.453 48.6307 120.267L48.5289 120.335C46.5618 122.099 43.5773 122.099 41.6101 120.335L41.5084 120.234C40.6267 119.42 39.6092 118.436 38.3882 117.249V117.215C37.1672 115.994 36.1838 114.977 35.3698 114.095L35.2681 113.993C33.5044 112.026 33.5044 109.041 35.2681 107.074L35.3359 106.973C36.1838 106.091 37.1672 105.073 38.3543 103.853Z" fill="#F5C117"/>
</g>
<defs>
<clipPath id="clip0_4_3865">
<rect width="220" height="220" fill="white" transform="translate(0 0.5)"/>
</clipPath>
</defs>
</svg>
