<svg width="220" height="221" viewBox="0 0 220 221" fill="none" xmlns="http://www.w3.org/2000/svg">
<g clip-path="url(#clip0_4_3870)">
<path d="M110 220.5C170.751 220.5 220 171.251 220 110.5C220 49.7487 170.751 0.5 110 0.5C49.2487 0.5 0 49.7487 0 110.5C0 171.251 49.2487 220.5 110 220.5Z" fill="#EDF0F4"/>
<path d="M165.624 127.183L139.014 81.7512C134.198 73.6383 122.413 73.6383 117.598 81.7512L90.9874 127.183C86.1719 135.295 92.1279 145.405 101.758 145.405H154.98C164.484 145.405 170.313 135.295 165.624 127.183Z" fill="#00B897"/>
<path d="M130.141 128.06L128.62 125.439C127.226 122.943 124.058 117.7 124.058 117.7L102.896 81.7546C98.0812 73.6417 86.2964 73.6417 81.4809 81.7546L54.8701 127.186C50.0549 135.299 56.0106 145.409 65.6411 145.409H118.356H140.278H154.978C141.799 145.409 136.223 138.419 130.141 128.06Z" fill="#76FCB2"/>
<path d="M130.144 128.057L128.623 125.436C127.229 122.94 124.061 117.698 124.061 117.698L110.249 94.2329L90.9874 127.183C86.1719 135.296 92.1279 145.406 101.758 145.406H118.358H140.281H154.98C141.801 145.406 136.226 138.417 130.144 128.057Z" fill="url(#paint0_linear_4_3870)"/>
</g>
<defs>
<linearGradient id="paint0_linear_4_3870" x1="69.2204" y1="136.093" x2="123.936" y2="169.418" gradientUnits="userSpaceOnUse">
<stop stop-color="#53E57A" stop-opacity="0.01"/>
<stop offset="1" stop-color="#00A977"/>
</linearGradient>
<clipPath id="clip0_4_3870">
<rect width="220" height="220" fill="white" transform="translate(0 0.5)"/>
</clipPath>
</defs>
</svg>
