<svg width="220" height="221" viewBox="0 0 220 221" fill="none" xmlns="http://www.w3.org/2000/svg">
<g clip-path="url(#clip0_4_3875)">
<path d="M110 220.5C170.753 220.5 220 171.253 220 110.5C220 49.747 170.753 0.5 110 0.5C49.247 0.5 0 49.747 0 110.5C0 171.253 49.247 220.5 110 220.5Z" fill="#EDF0F4"/>
<path d="M111.358 179.93C149.571 179.93 180.55 148.952 180.55 110.738C180.55 72.5246 149.571 41.5464 111.358 41.5464C73.1443 41.5464 42.166 72.5246 42.166 110.738C42.166 148.952 73.1443 179.93 111.358 179.93Z" fill="#09006E"/>
<path d="M111.56 127.179C106.193 124.081 104.354 117.218 107.452 111.851L153.429 32.2178C156.527 26.8509 163.39 25.0121 168.757 28.1106C174.124 31.2093 175.963 38.072 172.864 43.4391L126.888 123.072C123.789 128.439 116.927 130.278 111.56 127.179Z" fill="url(#paint0_linear_4_3875)"/>
<path d="M133.542 148.081L133.32 113.046L116.628 141.162H105.204L88.5117 114.253V148.081H64.8965V71.2021H86.204L111.245 112.167L135.628 71.2021H156.935L157.153 148.081H133.542Z" fill="#00FFD9"/>
<path d="M110.043 107.358L142.591 50.9876C144.077 48.4094 146.528 46.5277 149.402 45.7568C152.277 44.986 155.34 45.3892 157.917 46.8775C160.494 48.3649 162.375 50.8151 163.146 53.6892C163.917 56.5635 163.514 59.6263 162.027 62.2036L129.479 118.577C126.381 123.945 119.518 125.785 114.15 122.687C108.785 119.587 106.947 112.725 110.043 107.358Z" fill="url(#paint1_linear_4_3875)"/>
</g>
<defs>
<linearGradient id="paint0_linear_4_3875" x1="151.416" y1="67.7301" x2="171.955" y2="32.1548" gradientUnits="userSpaceOnUse">
<stop stop-color="#00FFD9"/>
<stop offset="0.85" stop-color="#09006E"/>
</linearGradient>
<linearGradient id="paint1_linear_4_3875" x1="141.037" y1="154.554" x2="203.49" y2="101.9" gradientUnits="userSpaceOnUse">
<stop offset="0.08" stop-color="#00FFD9"/>
<stop offset="0.68" stop-color="#064E8F"/>
<stop offset="1" stop-color="#09006E"/>
</linearGradient>
<clipPath id="clip0_4_3875">
<rect width="220" height="220" fill="white" transform="translate(0 0.5)"/>
</clipPath>
</defs>
</svg>
