<svg width="220" height="221" viewBox="0 0 220 221" fill="none" xmlns="http://www.w3.org/2000/svg">
<g clip-path="url(#clip0_4_3881)">
<path d="M110 220.5C170.751 220.5 220 171.251 220 110.5C220 49.7487 170.751 0.5 110 0.5C49.2487 0.5 0 49.7487 0 110.5C0 171.251 49.2487 220.5 110 220.5Z" fill="#E7EFF3"/>
<path d="M136.173 156.735C129.463 153.515 124.162 148.46 122.351 146.335C121.747 148.057 120.204 152.092 118.862 154.454C117.184 157.406 114.165 161.365 111.414 163.781C108.663 166.196 99.8054 174.517 90.1432 172.906C80.4808 171.296 73.6366 166.398 70.4158 160.359C67.1951 154.32 66.7925 148.281 68.3357 142.041C69.5704 137.048 72.6077 131.416 73.9721 129.225C72.4288 129.582 67.9331 129.788 62.2968 127.748C55.2513 125.199 51.024 121.374 48.6084 116.476C46.1928 111.577 45.3205 102.922 46.1257 95.0039C46.9309 87.0861 51.7621 77.625 62.9007 78.4302C71.8115 79.0744 81.1965 84.1561 84.7752 86.6164C83.7239 79.8393 82.2521 64.4602 84.7752 57.1597C87.9289 48.0343 95.6452 46.0884 105.106 46.3568C114.567 46.6252 119.935 51.4562 123.424 57.0926C126.216 61.6017 126.6 71.1836 126.444 75.4107C128.994 72.9056 136.16 67.7615 144.427 67.2247C154.76 66.5537 159.725 68.3654 163.886 71.5191C168.046 74.6726 172.743 80.6445 173.816 86.8177C174.89 92.9909 173.414 96.8827 170.595 101.781C168.341 105.7 162.678 109.81 160.128 111.376C161.671 112.584 165.388 115.724 167.911 118.623C171.065 122.246 174.017 128.755 174.085 136.74C174.152 144.725 171.736 148.348 169.656 151.837C167.576 155.326 163.282 160.694 156.035 161.298C148.788 161.902 144.561 160.761 136.173 156.735Z" fill="#DC8898"/>
<path d="M90.3447 151.166C86.748 155.3 83.1202 156.064 81.7559 155.93C82.315 155.55 83.7555 154.575 85.0438 153.716C86.6542 152.642 92.3577 145.262 94.3036 142.309C95.8602 139.947 100.902 131.663 103.228 127.816L104.57 128.554C101.327 134.369 93.9411 147.033 90.3447 151.166Z" fill="#C57180"/>
<path d="M76.5239 102.586C81.516 103.713 89.7426 107.619 93.2318 109.43L92.0911 111.712C90.7491 111.041 87.6355 109.457 85.9179 108.491C83.7707 107.283 75.6516 104.331 69.9482 103.928C64.2447 103.526 62.5001 104.398 60.1516 105.27C57.8031 106.142 55.6559 108.29 56.1256 106.746C56.5953 105.203 57.8702 103.593 61.8291 102.251C65.788 100.909 70.2837 101.177 76.5239 102.586Z" fill="#C57180"/>
<path d="M106.712 76.6187C107.195 80.5909 107.719 90.4413 107.92 94.8697H106.309C106.287 93.9079 106.256 91.4879 106.309 89.5019C106.377 87.0192 105.102 77.4239 104.296 72.123C103.652 67.8823 101.523 60.0226 100.539 56.623C101.523 58.0769 103.652 61.5615 104.296 63.8698C105.102 66.755 106.108 71.6533 106.712 76.6187Z" fill="#C57180"/>
<path d="M134.968 92.1856C130.674 95.2455 125.708 101.826 123.762 104.733L122.555 102.855C123.74 101.244 126.688 97.3927 128.996 94.8696C131.882 91.7161 136.646 88.0256 144.094 84.5364C150.052 81.745 157.223 82.7918 160.063 83.6641C159.057 83.597 156.722 83.503 155.434 83.6641C153.823 83.8654 151.877 83.9996 147.918 84.939C143.959 85.8784 140.336 88.3611 134.968 92.1856Z" fill="#C57180"/>
<path d="M140.197 130.164C135.795 127.212 124.138 122.984 118.859 121.24L120 119.562C121.61 120.099 125.395 121.387 127.649 122.246C130.467 123.32 135.835 126.272 137.848 127.346C139.861 128.419 146.706 132.714 148.719 133.989C150.732 135.264 157.844 140.497 159.253 141.705C160.662 142.913 160.729 144.725 160.327 145.194C159.924 145.664 158.582 143.852 156.838 142.041C155.093 140.229 145.699 133.854 140.197 130.164Z" fill="#C57180"/>
<path d="M108.464 128.956C118.432 128.956 126.514 120.785 126.514 110.705C126.514 100.625 118.432 92.454 108.464 92.454C98.4952 92.454 90.4141 100.625 90.4141 110.705C90.4141 120.785 98.4952 128.956 108.464 128.956Z" fill="#FBECB3"/>
</g>
<defs>
<clipPath id="clip0_4_3881">
<rect width="220" height="220" fill="white" transform="translate(0 0.5)"/>
</clipPath>
</defs>
</svg>
