<svg width="220" height="221" viewBox="0 0 220 221" fill="none" xmlns="http://www.w3.org/2000/svg">
<g clip-path="url(#clip0_4_3890)">
<path fill-rule="evenodd" clip-rule="evenodd" d="M110 220.5C49.5 220.5 0 171.001 0 109.952C0.55 49.4535 49.5 -0.0454497 110.55 0.504539C171.05 1.05453 220 50.0035 220 111.602C219.45 171.551 170.5 220.5 110 220.5Z" fill="#EDF0F4"/>
<path d="M192.456 108.836C192.473 109.396 192.478 109.946 192.478 110.502C192.5 123.709 189.334 136.726 183.25 148.447L138.273 166.598L138.365 166.393L192.456 108.836Z" fill="#0F6089"/>
<path d="M192.455 108.816L138.373 166.393L188.611 85.4789C191.012 93.0317 192.307 100.892 192.455 108.816Z" fill="#078FA4"/>
<path d="M188.612 85.479L138.375 166.393L138.238 166.611L132.215 61.9005L182.724 80.7998L188.612 85.479Z" fill="#00AAA6"/>
<path d="M188.615 85.4789L182.725 80.7997L187.651 82.6381C187.995 83.5786 188.322 84.5289 188.615 85.4789Z" fill="#00AAA6"/>
<path fill-rule="evenodd" clip-rule="evenodd" d="M138.97 33.2422H138.964L136.426 44.0227L182.724 80.7994L187.65 82.6381C179.454 59.8301 161.656 41.771 138.97 33.2422Z" fill="#1EAAE2"/>
<path d="M138.273 166.598L183.243 148.434C171.856 170.401 151.216 186.101 127.008 191.214L137.801 167.643L138.273 166.598Z" fill="#0C7392"/>
<path d="M182.724 80.7997L132.215 61.9004L136.425 44.0228L182.724 80.7997Z" fill="#1EAAE2"/>
<path d="M138.965 33.2423L136.424 44.0228L116.574 28.2637C124.236 28.8579 131.774 30.5339 138.965 33.2423Z" fill="#ABCF3A"/>
<path d="M138.238 166.611L138.375 166.393L138.284 166.598L138.238 166.611Z" fill="#CD1685"/>
<path d="M138.282 166.598L137.8 167.643L79.4785 125.097L80.2335 124.426L132.213 61.9005L138.236 166.611L138.282 166.598Z" fill="#8F9990"/>
<path d="M137.797 167.643L127.004 191.214C121.411 192.393 115.71 192.984 109.995 192.978C107.717 192.978 105.488 192.888 103.275 192.709L51.9629 148.096L53.4565 148.421L137.797 167.643Z" fill="#CD1685"/>
<path d="M137.802 167.643L53.4609 148.434L79.48 125.096L137.802 167.643Z" fill="#EC1076"/>
<path d="M136.427 44.0228L132.216 61.9004L116.574 28.2637L136.427 44.0228Z" fill="#ABCF3A"/>
<path d="M116.574 28.2636L132.213 61.9003L74.7734 35.8682C85.7844 30.6672 97.814 27.9798 109.992 28.0001C112.208 28.0001 114.397 28.0912 116.574 28.2636Z" fill="#E0E224"/>
<path d="M132.217 61.9005L80.237 124.426L57.6348 96.5525L132.217 61.9005Z" fill="#F9A516"/>
<path d="M132.217 61.9003L57.6348 96.5523L74.7737 35.8812L132.217 61.9003Z" fill="#FDCD11"/>
<path d="M103.588 192.978L103.031 192.685L103.272 192.709L103.588 192.978Z" fill="#CD1685"/>
<path fill-rule="evenodd" clip-rule="evenodd" d="M103.268 192.708L51.9651 148.096L51.6039 147.777L45.9551 162.491C60.0723 179.909 80.6846 190.815 103.027 192.685L103.268 192.708Z" fill="#B9204A"/>
<path d="M57.6281 96.5521L80.2305 124.426L79.4756 125.096L39.4805 124.253L57.6281 96.5521Z" fill="#F05B28"/>
<path d="M79.4756 125.096L53.4565 148.434L39.4805 124.254L79.4756 125.096Z" fill="#F05B28"/>
<path d="M74.771 35.8781L57.6321 96.5524L39.4845 124.254L39.5528 123.671L27.6367 105.976C29.293 74.9392 48.1108 48.4743 74.771 35.8781Z" fill="#FDCD11"/>
<path fill-rule="evenodd" clip-rule="evenodd" d="M53.4626 148.434L39.4865 124.254L51.969 148.095L39.4865 124.26L36.7305 148.434C39.3191 153.422 42.4114 158.132 45.9587 162.491L51.6078 147.77L51.969 148.095L53.4626 148.434Z" fill="#AB1F25"/>
<path d="M27.6211 105.976L39.5535 123.671L39.4851 124.253L36.7291 148.427L27.6211 105.976Z" fill="#CB0010"/>
<path d="M27.6368 105.976L36.7479 148.427C30.6581 136.71 27.4857 123.695 27.5 110.489C27.5 108.976 27.536 107.476 27.6368 105.976Z" fill="#CB0010"/>
<path d="M156.32 124.426L160.075 108.605C161.624 104.32 162.395 99.7935 162.353 95.2375C162.352 92.2138 161.209 89.3019 159.151 87.0863L158.591 86.4842C154.745 82.3387 147.853 79.9763 142.185 79.9763H140.203C135.068 79.973 130.123 81.9134 126.36 85.4072L121.678 89.7709L120.877 87.9355C120.46 86.9692 119.87 86.087 119.136 85.3324C115.28 81.4208 110.016 79.2206 104.523 79.2246C100.469 79.2239 96.5066 80.4229 93.1336 82.6705L88.5195 86.0059V85.6805C88.5177 82.5261 85.96 79.9697 82.8054 79.9697H32.7719L28.252 96.5522L69.6853 97.3072L63.597 130.029C62.5622 134.484 65.3836 138.874 69.939 139.424C73.5815 139.877 77.0194 137.636 78.0741 134.12L89.4077 99.1066C90.6313 95.0228 96.1436 92.4261 100.374 92.9792C102.881 93.3063 105.123 94.7082 106.513 96.8202C107.904 98.9322 108.307 101.545 107.617 103.978L101.649 129.987C100.858 132.776 101.42 135.776 103.169 138.089C104.917 140.402 107.649 141.761 110.549 141.76C114.496 141.76 116.504 139.258 117.789 135.525L129.162 101.72C130.483 97.8896 135.169 95.6086 139.152 96.3666C141.419 96.7999 143.397 98.1738 144.594 100.148C145.791 102.121 146.096 104.51 145.432 106.721L139.399 128.917C138.479 131.927 139.041 135.196 140.914 137.727C142.787 140.258 145.749 141.751 148.898 141.75L187.855 140.999L192.374 124.426H156.32Z" fill="white"/>
</g>
<defs>
<clipPath id="clip0_4_3890">
<rect width="220" height="220" fill="white" transform="translate(0 0.5)"/>
</clipPath>
</defs>
</svg>
