<svg width="220" height="221" viewBox="0 0 220 221" fill="none" xmlns="http://www.w3.org/2000/svg">
<g clip-path="url(#clip0_4_3917)">
<path fill-rule="evenodd" clip-rule="evenodd" d="M110 220.5C49.5 220.5 0 171.001 0 109.952C0.55 49.4535 49.5 -0.0454497 110.55 0.504539C171.05 1.05453 220 50.0035 220 111.602C219.45 171.551 170.5 220.5 110 220.5Z" fill="#EDF0F4"/>
<path fill-rule="evenodd" clip-rule="evenodd" d="M182.901 121.817L135.342 74.258C134.776 73.6918 133.698 73.6918 133.132 74.258L109.784 97.5252L86.894 74.6355C86.2738 74.0154 85.3033 74.0154 84.6832 74.6355L77.5385 81.6452L51.2788 107.393L45.536 113.028L37.0974 121.251C36.7738 121.574 36.666 121.952 36.666 122.383C36.666 122.814 36.8547 123.192 37.0974 123.515L60.8229 147.241C61.443 147.861 62.4674 147.861 63.0338 147.241L85.8155 124.486L108.894 147.564C109.514 148.184 110.539 148.184 111.105 147.564L133.94 124.729L156.911 147.699C157.235 148.023 157.612 148.13 158.044 148.13C158.475 148.13 158.852 147.996 159.176 147.699L182.901 123.974C183.225 123.65 183.333 123.273 183.333 122.841C183.333 122.383 183.198 122.059 182.901 121.817ZM178.642 123.785L164.999 118.77L158.744 105.29L162.357 105.802L179.504 122.949L178.642 123.785ZM166.887 122.841L170.931 131.496L176.188 126.265L166.887 122.841ZM77.0263 100.302L57.8032 105.479L77.0263 86.5791V100.302ZM66.6463 106.368L53.166 109.981L49.3646 113.755L65.7566 121.547L66.6463 106.368ZM69.8816 105.505L72.2813 104.885L78.671 114.699L68.6685 125.78L69.8816 105.505ZM75.4357 103.969L80.8008 112.192L86.1391 106.314L78.4821 103.16L75.4357 103.969ZM80.1807 100.437V94.6943L98.4063 96.2041L102.963 109.873L80.1807 100.437ZM102.127 122.194L95.6024 118.204L93.9846 128.26L103.205 137.427L102.127 122.194ZM104.472 119.93L96.1955 114.807L96.8155 110.817L104.607 114.052C104.796 114.187 104.985 114.295 105.227 114.295L113.073 117.584L116.362 127.317L104.472 119.93ZM124.828 112.704L116.281 117.126L118.573 123.839L124.828 112.704ZM128.117 107.528L120.217 111.626L122.105 98.2261L133.105 104.939L128.117 107.528ZM121.646 94.236L136.394 103.214L141.301 100.68L139.71 94.236L122.94 88.7899L119.058 92.6452L121.646 94.236ZM144.428 100.113L140.519 83.856L158.744 102.082L144.428 100.113ZM147.906 103.726L144.563 103.295L141.894 128.126L151.519 137.751L147.906 103.726ZM151.088 104.238L155.078 104.805L160.767 117.072L153.811 129.986L151.088 104.238ZM136.151 79.5693L134.183 77.6011L125.475 86.3365L138.82 90.6502L136.151 79.5693ZM110.862 100.949L116.82 94.9908L119.166 96.4468L116.767 113.405L114.313 114.672L106.737 111.572L100.536 92.9149L108.624 101.003C109.271 101.515 110.215 101.515 110.862 100.949ZM95.5483 87.8463L85.7346 78.0594L80.1807 83.4785V91.5129L97.2469 92.9688L95.5483 87.8463ZM46.911 116.128L65.5141 124.917L65.0018 133.275L48.3671 130.363L40.4674 122.464L46.911 116.128ZM52.2224 134.273L61.9013 143.952L64.4088 141.363L64.7321 136.484L52.2224 134.273ZM84.6563 121.17L67.8327 137.993L68.2641 130.795L68.318 130.741L89.1857 107.662L93.796 109.55L92.8524 115.373L91.2077 125.483L86.894 121.17C86.3008 120.55 85.3032 120.55 84.6563 121.17ZM106.602 140.851L110.026 144.275L119.112 135.216L117.98 131.927L105.47 124.216L106.602 140.851ZM133.994 120.981C133.617 120.981 133.186 121.116 132.862 121.412L121.539 132.736L119.894 127.856L129.95 110.008L141.274 104.184L139.009 125.241L135.154 121.385C134.83 121.116 134.372 120.981 133.994 120.981ZM154.997 141.337L158.044 144.383L168.558 133.868L162.411 120.577L154.377 135.513L154.997 141.337Z" fill="url(#paint0_linear_4_3917)"/>
</g>
<defs>
<linearGradient id="paint0_linear_4_3917" x1="36.6633" y1="148.127" x2="183.332" y2="148.127" gradientUnits="userSpaceOnUse">
<stop stop-color="#C51F5D"/>
<stop offset="1" stop-color="#2F2361"/>
</linearGradient>
<clipPath id="clip0_4_3917">
<rect width="220" height="220" fill="white" transform="translate(0 0.5)"/>
</clipPath>
</defs>
</svg>
