<svg width="220" height="221" viewBox="0 0 220 221" fill="none" xmlns="http://www.w3.org/2000/svg">
<g clip-path="url(#clip0_4_3920)">
<path d="M110 220.5C170.751 220.5 220 171.251 220 110.5C220 49.7487 170.751 0.5 110 0.5C49.2487 0.5 0 49.7487 0 110.5C0 171.251 49.2487 220.5 110 220.5Z" fill="#F80000"/>
<path fill-rule="evenodd" clip-rule="evenodd" d="M108.702 65.3541L90.7723 80.1629L138.258 74.6079L115 64.8866C115 64.8866 117.42 47.2936 101.429 42.6666L99.971 48.2216C99.971 48.2216 109.665 50.5384 108.702 65.3541ZM95.131 180.167L141.166 117.205L123.236 118.127L139.227 77.3922L90.5248 84.1022L86.166 129.01H96.829L95.131 180.167ZM103.367 149.848V161.879C103.367 162.773 102.618 163.502 101.676 163.502C100.734 163.502 99.978 162.773 99.978 161.879V149.841C99.978 148.947 100.741 148.225 101.676 148.225C102.611 148.225 103.367 148.954 103.367 149.848ZM90.7723 125.538H100.466L100.019 144.052C100.012 144.54 100.205 145.015 100.562 145.358C100.92 145.702 101.408 145.909 101.917 145.909H101.999C103.006 145.928 103.845 145.141 103.89 144.135L104.337 122.293H94.6428L97.8948 86.4122C97.9292 85.9997 97.7848 85.5873 97.4891 85.2779C97.1935 84.9684 96.781 84.7966 96.341 84.7966H96.066C95.2766 84.7807 94.6041 85.3668 94.5123 86.1511L90.7723 125.538Z" fill="white"/>
</g>
<defs>
<clipPath id="clip0_4_3920">
<rect width="220" height="220" fill="white" transform="translate(0 0.5)"/>
</clipPath>
</defs>
</svg>
