<svg width="220" height="221" viewBox="0 0 220 221" fill="none" xmlns="http://www.w3.org/2000/svg">
<g clip-path="url(#clip0_4_3926)">
<path d="M216.683 137.11C201.993 196.038 142.307 231.902 83.3712 217.207C24.4598 202.515 -11.4034 142.826 3.29433 83.9016C17.9792 24.966 77.6648 -10.8997 136.583 3.79159C195.514 18.4829 231.376 78.1776 216.683 137.11Z" fill="#4A90E2"/>
<path d="M55.0695 138.028C60.1702 138.028 64.3051 133.893 64.3051 128.792C64.3051 123.691 60.1702 119.557 55.0695 119.557C49.9689 119.557 45.834 123.691 45.834 128.792C45.834 133.893 49.9689 138.028 55.0695 138.028Z" fill="white"/>
<path fill-rule="evenodd" clip-rule="evenodd" d="M110.094 101.471H110.866C115.48 101.857 119.137 105.707 119.33 110.321C119.33 115.514 115.287 119.556 110.094 119.556C104.902 119.556 100.859 115.321 100.859 110.321C100.859 103.778 98.7445 101.278 91.6231 101.278C84.5017 101.278 82.3875 103.778 82.3875 110.514V111.092C82.1947 115.706 78.1518 119.556 73.3448 119.556C68.1522 119.556 64.1094 115.321 64.1094 110.321C64.1094 105.514 67.7665 101.664 72.3805 101.278H73.1519C81.2303 101.278 82.3875 99.5499 82.3875 92.2356C82.3875 87.0429 86.6233 83 91.6231 83C96.8159 83 100.859 87.2357 100.859 92.2356C100.859 99.5499 102.016 101.471 110.094 101.471ZM155.886 92.2356C155.886 87.0429 160.122 83 165.122 83C170.122 83 174.164 87.0429 174.164 91.8499C174.164 97.0424 169.929 101.085 164.929 101.085C157.808 101.085 155.693 103.585 155.693 110.321V110.899C155.5 115.706 151.458 119.556 146.651 119.556H146.458C139.529 119.749 137.415 122.249 137.415 128.792V129.564C137.222 134.178 133.179 138.028 128.372 138.028C123.18 138.028 119.137 133.792 119.137 128.792C119.137 124.178 122.794 120.328 127.408 119.749C127.601 119.556 127.987 119.556 128.372 119.556C136.258 119.556 137.608 117.828 137.608 110.707V110.514C137.608 105.707 141.265 101.857 145.879 101.471H146.651C154.729 101.471 155.886 99.5499 155.886 92.2356Z" fill="white"/>
</g>
<defs>
<clipPath id="clip0_4_3926">
<rect width="220" height="220" fill="white" transform="translate(0 0.5)"/>
</clipPath>
</defs>
</svg>
