<svg width="220" height="221" viewBox="0 0 220 221" fill="none" xmlns="http://www.w3.org/2000/svg">
<g clip-path="url(#clip0_4_3933)">
<path d="M110 220.5C170.751 220.5 220 171.251 220 110.5C220 49.7487 170.751 0.5 110 0.5C49.2487 0.5 0 49.7487 0 110.5C0 171.251 49.2487 220.5 110 220.5Z" fill="black"/>
<path d="M143.261 61.1232L120.279 95.2296C118.69 97.5523 121.746 100.364 123.946 98.4079L146.561 78.7265C147.173 78.2375 148.028 78.6042 148.028 79.46V140.949C148.028 141.805 146.928 142.172 146.439 141.56L77.9821 59.6564C75.7816 56.9669 72.6033 55.5 69.0582 55.5H66.6132C60.2565 55.5 55 60.7565 55 67.2355V153.785C55 160.264 60.2565 165.52 66.7355 165.52C70.7696 165.52 74.5591 163.442 76.7596 159.897L99.7416 125.791C101.331 123.468 98.2747 120.656 96.0742 122.612L73.4589 142.172C72.8477 142.661 71.9921 142.294 71.9921 141.438V80.0713C71.9921 79.2155 73.0923 78.8488 73.5812 79.46L142.038 161.364C144.239 164.054 147.539 165.52 150.962 165.52H153.407C159.886 165.52 165.143 160.264 165.143 153.785V67.2355C165.143 60.7565 159.886 55.5 153.407 55.5C149.251 55.5 145.461 57.5781 143.261 61.1232Z" fill="white"/>
</g>
<defs>
<clipPath id="clip0_4_3933">
<rect width="220" height="220" fill="white" transform="translate(0 0.5)"/>
</clipPath>
</defs>
</svg>
