<svg width="220" height="221" viewBox="0 0 220 221" fill="none" xmlns="http://www.w3.org/2000/svg">
<g clip-path="url(#clip0_4_3936)">
<path d="M110 220.5C170.751 220.5 220 171.251 220 110.5C220 49.7487 170.751 0.5 110 0.5C49.2487 0.5 0 49.7487 0 110.5C0 171.251 49.2487 220.5 110 220.5Z" fill="#50479E"/>
<path fill-rule="evenodd" clip-rule="evenodd" d="M108.626 74.06L108.8 74.156L111.294 72.781L113.98 74.0528L143.671 57.6775L113.98 74.0598L143.671 90.4351L146.453 91.9681V92.2156L173.404 77.3458C171.557 74.1791 168.885 71.5769 165.676 69.8182L143.671 57.6775L121.242 45.3032C118.189 43.627 114.774 42.7233 111.294 42.6704C108.058 42.611 104.849 43.2854 101.909 44.6434L78.6017 57.5057L78.6525 57.5337L54.8976 70.5812V70.5742C52.3491 72.2105 50.198 74.4103 48.6085 77.0226C46.7932 79.9857 45.834 83.4092 45.834 86.8946L45.8829 104.58L45.834 104.542V135.931C45.8411 139.531 46.8674 143.055 48.7935 146.092C50.6243 148.988 53.1585 151.371 56.1582 153.015V153.008L100.593 177.536C103.871 179.332 107.56 180.237 111.294 180.162V180.156C114.773 180.104 118.188 179.203 121.242 177.529L143.315 165.348L143.671 165.148L165.676 153.015C168.876 151.248 171.459 148.739 173.24 145.783C175.041 142.819 176.001 139.41 176.001 135.924V86.9083C176.001 83.5055 175.076 80.2399 173.404 77.3526L146.453 92.2224V131.263L143.671 132.796V132.79L113.98 149.165L111.486 150.54L111.294 150.437L108.8 149.062L78.5469 132.37L76.1901 130.975L76.1423 129.613V128.293V94.938L66.0619 100.493L76.1423 94.931V92.1881L108.725 74.156L108.626 74.06ZM51.1595 108.715L66.0619 100.493L51.1519 108.709L45.8829 104.58L45.9025 111.602L51.1519 108.709L51.1595 108.715ZM45.9088 111.612L51.1595 108.715L76.1423 128.293L45.9088 111.612ZM45.9088 111.612L45.9025 111.616V111.609L45.9088 111.612ZM108.626 74.06L78.6525 57.5337L86.9393 52.9821L108.626 74.06ZM140.787 128.218V95.3297L140.78 95.3435L111.281 111.616V144.49L140.787 128.218Z" fill="white"/>
</g>
<defs>
<clipPath id="clip0_4_3936">
<rect width="220" height="220" fill="white" transform="translate(0 0.5)"/>
</clipPath>
</defs>
</svg>
