<svg width="220" height="221" viewBox="0 0 220 221" fill="none" xmlns="http://www.w3.org/2000/svg">
<g clip-path="url(#clip0_4_3939)">
<path d="M110 220.5C170.751 220.5 220 171.251 220 110.5C220 49.7487 170.751 0.5 110 0.5C49.2487 0.5 0 49.7487 0 110.5C0 171.251 49.2487 220.5 110 220.5Z" fill="#222222"/>
<path fill-rule="evenodd" clip-rule="evenodd" d="M44.3715 106.705C41.2479 108.254 38.0805 109.825 34.834 111.43C35.1893 111.567 35.4826 111.682 35.7389 111.783C36.1459 111.944 36.4592 112.067 36.7775 112.178C39.8837 113.233 42.9896 114.29 46.0954 115.347C57.0912 119.09 68.0875 122.832 79.1007 126.516C80.5108 126.938 81.661 127.964 82.2409 129.317C89.8916 144.945 97.5879 160.551 105.283 176.154C106.055 177.718 106.826 179.282 107.597 180.846C108.253 182.176 108.918 183.502 109.627 184.919C110.04 185.744 110.467 186.598 110.917 187.5C111.024 187.223 111.113 186.998 111.19 186.805C111.335 186.439 111.433 186.191 111.519 185.936C112.617 182.71 113.718 179.484 114.818 176.258C118.505 165.447 122.192 154.636 125.809 143.801C126.306 142.055 127.556 140.622 129.219 139.893C143.882 132.717 158.523 125.487 173.164 118.258C176.699 116.512 180.235 114.766 183.77 113.021C184.346 112.738 184.918 112.445 185.56 112.116C186 111.891 186.473 111.649 187.001 111.382C186.663 111.262 186.379 111.161 186.13 111.072C185.66 110.904 185.316 110.78 184.967 110.663C182.147 109.704 179.326 108.746 176.506 107.789C165.222 103.957 153.938 100.126 142.672 96.2415C141.641 95.8887 140.438 95.1279 139.981 94.2149C131.647 77.4725 123.383 60.6972 115.118 43.9183C114.082 41.8153 113.046 39.7121 112.01 37.6089C111.809 37.2015 111.597 36.7967 111.353 36.3311C111.195 36.0297 111.025 35.703 110.834 35.3334C110.721 35.6287 110.621 35.883 110.532 36.1107C110.36 36.5494 110.227 36.8895 110.108 37.2355C109.286 39.6564 108.464 42.0771 107.642 44.4978C103.647 56.255 99.6537 68.0114 95.7076 79.7868C95.3331 81.0666 94.4113 82.1149 93.1899 82.6502C82.2942 87.9775 71.4152 93.3433 60.5381 98.7084C59.2555 99.3409 57.973 99.9734 56.6906 100.606C52.6072 102.62 48.5282 104.643 44.3715 106.705ZM121.862 69.5109L121.851 69.4886C118.496 62.6885 115.129 55.8629 111.727 48.9593L87.6565 119.973L135.174 96.5113C130.723 87.4754 126.304 78.5157 121.862 69.5109ZM48.5083 110.628L81.4593 121.812L92.6504 88.82L48.5083 110.628ZM88.2999 129.78L110.06 173.923L121.237 140.909L88.3068 129.78H88.2999ZM90.7261 124.912C90.5937 124.834 90.4329 124.74 90.2227 124.628C91.1696 124.156 92.0897 123.697 92.9923 123.247L93.0178 123.235L93.0253 123.231L93.0275 123.23C94.9077 122.292 96.7121 121.392 98.5227 120.498C101.037 119.257 103.552 118.015 106.067 116.772L106.105 116.754C116.484 111.626 126.864 106.498 137.277 101.436C138.318 100.981 139.486 100.907 140.576 101.229C149.469 104.155 158.336 107.169 167.2 110.182L167.257 110.201C168.66 110.678 170.063 111.155 171.466 111.631C171.762 111.731 172.05 111.844 172.449 112L172.451 112.001C172.657 112.081 172.892 112.173 173.174 112.281C172.164 112.785 171.177 113.279 170.207 113.764L170.169 113.783C167.533 115.1 165.021 116.356 162.502 117.6L157.466 120.087L157.464 120.088C146.997 125.257 136.527 130.429 126.03 135.549C125.18 135.964 123.948 136.199 123.084 135.923C114.534 133.097 106.011 130.195 97.4856 127.293C95.3899 126.579 93.2942 125.866 91.198 125.153C91.0541 125.104 90.9201 125.025 90.7261 124.912Z" fill="white"/>
</g>
<defs>
<clipPath id="clip0_4_3939">
<rect width="220" height="220" fill="white" transform="translate(0 0.5)"/>
</clipPath>
</defs>
</svg>
