<svg width="220" height="221" viewBox="0 0 220 221" fill="none" xmlns="http://www.w3.org/2000/svg">
<g clip-path="url(#clip0_4_3942)">
<mask id="mask0_4_3942" style="mask-type:luminance" maskUnits="userSpaceOnUse" x="0" y="0" width="220" height="221">
<path d="M220 0.5H0V220.5H220V0.5Z" fill="white"/>
</mask>
<g mask="url(#mask0_4_3942)">
<path d="M110 220.5C170.751 220.5 220 171.251 220 110.5C220 49.7487 170.751 0.5 110 0.5C49.2487 0.5 0 49.7487 0 110.5C0 171.251 49.2487 220.5 110 220.5Z" fill="#EDF0F4"/>
<path d="M110.038 183.541L109.198 183.121C76.4357 163.945 51.6542 132.31 41.5738 94.5137C39.9663 88.5679 38.7732 82.479 37.9335 76.3197C37.1628 70.142 36.7419 63.9257 36.6729 57.7004C36.6729 56.6503 36.5329 56.7903 37.5133 56.3005C54.3171 46.7327 72.8534 40.596 92.0471 38.2465C99.1784 37.4067 106.359 37.056 113.538 37.1971C117.599 37.2705 121.589 37.5469 125.579 37.9671C145.672 40.1367 164.527 46.1557 182.142 56.024C182.423 56.1641 182.632 56.3041 182.912 56.4442C183.193 56.5843 183.333 56.794 183.333 57.1438V58.1939C183.259 61.8335 183.123 65.4026 182.843 69.0421C182.423 74.2098 181.722 79.3508 180.743 84.4421C178.642 95.4304 175.353 105.999 170.802 116.147C163.591 132.314 153.744 146.708 141.26 159.329C132.318 168.424 122.221 176.307 111.228 182.774C110.808 183.055 110.458 183.264 110.038 183.544V183.541Z" fill="black"/>
<path d="M43.3966 61.2721C52.2888 56.1175 61.7581 52.0301 71.6081 49.0944C85.0486 45.1051 98.6996 43.2153 112.701 43.4954C119.212 43.6355 130.062 44.6849 131.882 45.3852C131.956 45.5253 131.809 45.5949 131.673 45.5949C131.043 45.8751 130.342 46.0848 129.712 46.3649C118.162 51.1939 109.971 61.3425 107.591 73.6596C107.242 75.6719 107.032 77.7054 106.961 79.7463C106.887 82.8263 106.611 85.9063 105.701 88.9129C102.621 99.7611 93.7298 108.23 82.7393 110.749C68.3183 114.043 53.7558 106.907 47.4565 93.5366C47.1067 92.7666 46.8266 91.9966 46.6865 91.2273C45.6497 86.7003 44.8552 82.1213 44.3059 77.5096C43.676 72.4005 43.3262 67.2913 43.3262 62.1829C43.3854 61.8834 43.4101 61.5779 43.3995 61.2729L43.3966 61.2721Z" fill="#F7A800"/>
<path d="M146.653 145.118C146.793 143.788 146.933 142.598 147.002 141.338C147.352 134.409 145.883 127.83 142.592 121.742C139.439 115.933 135.032 111.314 129.361 107.814C128.872 107.464 128.311 107.184 127.821 106.834C120.048 101.935 115.29 95.0065 113.61 85.9784C110.603 69.7417 120.82 54.0643 136.852 50.2151C142.522 48.8855 148.053 49.0256 153.583 50.7746C158.129 52.1745 162.474 54.0643 166.814 56.0935C169.82 57.4934 172.694 59.0327 175.564 60.6401C175.914 60.8499 176.194 60.9899 176.615 61.2701C176.615 61.5502 176.688 61.7599 176.688 62.0401C176.688 65.7493 176.478 69.529 176.198 73.2382C175.7 78.6937 174.882 84.1154 173.748 89.475C170.317 105.292 164.227 119.919 155.406 133.497C152.956 137.277 150.296 140.916 147.496 144.415C147.213 144.628 147.073 144.908 146.653 145.118Z" fill="#67B2E8"/>
<path d="M110.041 176.402C108.991 175.982 105.771 174.022 102.341 171.713C94.7082 166.6 87.6236 160.713 81.1994 154.146C74.7591 147.585 69.0331 140.36 64.1179 132.59C59.5096 125.416 55.6396 117.794 52.5672 109.841C52.4777 109.614 52.4075 109.38 52.3574 109.141C52.7072 109.351 52.8473 109.421 53.0578 109.561C55.5078 111.451 58.098 113.061 60.8986 114.25C64.4692 115.79 68.1791 116.84 72.0995 117.19C80.01 117.96 87.4306 116.35 94.431 112.43C98.0472 110.401 102.013 109.071 106.122 108.511C120.753 106.692 135.314 115.37 139.864 130.487C142.174 138.256 141.477 145.814 137.904 153.163C137.414 154.143 136.994 155.053 136.504 155.962C136.224 156.523 135.874 157.082 135.384 157.502C127.964 164.501 119.843 170.66 111.023 175.836C110.673 176.045 110.322 176.256 110.043 176.396L110.041 176.402Z" fill="#00C4B3"/>
</g>
</g>
<defs>
<clipPath id="clip0_4_3942">
<rect width="220" height="220" fill="white" transform="translate(0 0.5)"/>
</clipPath>
</defs>
</svg>
