<svg width="220" height="221" viewBox="0 0 220 221" fill="none" xmlns="http://www.w3.org/2000/svg">
<g clip-path="url(#clip0_4_3956)">
<path fill-rule="evenodd" clip-rule="evenodd" d="M110 220.5C49.5 220.5 0 171.001 0 109.952C0.55 49.4535 49.5 -0.0454497 110.55 0.504539C171.05 1.05453 220 50.0035 220 111.602C219.45 171.551 170.5 220.5 110 220.5Z" fill="#EDF0F4"/>
<path d="M44 55.5V77.7499V99.9996V122.298H66.2499V99.9996V77.7499V55.5H44Z" fill="#424242"/>
<path d="M154.373 99.9995V122.298V144.548V166.798H176.623V144.548V122.298V99.9995H154.373Z" fill="#424242"/>
<path d="M109.82 55.5V77.7499V99.0705L132.07 121.32V99.9996V77.7499L109.82 55.5Z" fill="#424242"/>
<path d="M88.5508 100.978V122.299V144.548L110.801 166.798V144.548V123.228L88.5508 100.978Z" fill="#424242"/>
<path d="M109.82 55.5H132.07L176.619 99.9996H154.369L109.82 55.5Z" fill="black"/>
<path d="M44 122.298H66.2499L110.798 166.798H88.5485L44 122.298Z" fill="black"/>
<path d="M132.07 77.7499V99.9996V121.027L66.25 55.5V77.7499V79.119V99.9996V122.298L88.5488 144.548V122.298V101.271L154.369 166.798V144.548V143.179V122.298V99.9996L132.07 77.7499Z" fill="#3CC68A"/>
</g>
<defs>
<clipPath id="clip0_4_3956">
<rect width="220" height="220" fill="white" transform="translate(0 0.5)"/>
</clipPath>
</defs>
</svg>
