<svg width="220" height="221" viewBox="0 0 220 221" fill="none" xmlns="http://www.w3.org/2000/svg">
<g clip-path="url(#clip0_4_3965)">
<path d="M110 0.5C170.742 0.5 220 49.758 220 110.5C220 171.242 170.742 220.5 110 220.5C49.258 220.5 0 171.242 0 110.5C0 49.758 49.258 0.5 110 0.5Z" fill="black"/>
<path d="M157.191 95.6061C162.207 71.8021 151.141 59.6801 130.263 59.6801C117.723 59.6801 107.295 64.2781 97.8789 72.8361L99.9689 63.2221C99.9689 63.2221 96.6249 61.7701 89.9369 61.7701C82.6329 61.7701 79.0689 63.2221 79.0689 63.2221L58.9609 157.668C58.9609 157.668 61.8869 159.12 69.1909 159.12C75.8789 159.12 79.8389 157.668 79.8389 157.668L94.3149 89.9741C101.619 81.6141 111.651 76.5981 120.847 76.5981C134.223 76.5981 138.799 83.2861 136.313 94.9901L122.871 157.668C122.871 157.668 125.995 159.12 133.101 159.12C139.987 159.12 143.749 157.668 143.749 157.668L157.191 95.6061Z" fill="white"/>
</g>
<defs>
<clipPath id="clip0_4_3965">
<rect width="220" height="220" fill="white" transform="translate(0 0.5)"/>
</clipPath>
</defs>
</svg>
