<svg width="220" height="221" viewBox="0 0 220 221" fill="none" xmlns="http://www.w3.org/2000/svg">
<g clip-path="url(#clip0_4_3968)">
<path d="M110 220.5C170.751 220.5 220 171.251 220 110.5C220 49.7487 170.751 0.5 110 0.5C49.2487 0.5 0 49.7487 0 110.5C0 171.251 49.2487 220.5 110 220.5Z" fill="#B3BA00"/>
<path fill-rule="evenodd" clip-rule="evenodd" d="M89.375 74.3582L90.2687 73.815L110.027 62.375L130.625 74.303V138L89.375 74.3582ZM110.935 158.625L89.375 146.009V83L130.625 147.13L110.935 158.625ZM68.75 85.4475V135.553L82.5 144.875V76.125L68.75 85.4475ZM151.25 135.339L137.5 144.875V76.125L151.25 85.6607V135.339Z" fill="white"/>
<path fill-rule="evenodd" clip-rule="evenodd" d="M27.5 110.5C27.5 64.953 64.453 28 110 28C155.547 28 192.5 64.953 192.5 110.5C192.5 156.047 155.547 193 110 193C64.453 193 27.5 156.047 27.5 110.5ZM65.1338 136.488L109.656 162.887L109.663 162.881L154.186 136.494V83.77L109.663 57.4388L65.1338 83.77V136.488Z" fill="white"/>
</g>
<defs>
<clipPath id="clip0_4_3968">
<rect width="220" height="220" fill="white" transform="translate(0 0.5)"/>
</clipPath>
</defs>
</svg>
