<svg width="220" height="221" viewBox="0 0 220 221" fill="none" xmlns="http://www.w3.org/2000/svg">
<g clip-path="url(#clip0_4_3972)">
<path d="M110 220.5C170.751 220.5 220 171.251 220 110.5C220 49.7487 170.751 0.5 110 0.5C49.2487 0.5 0 49.7487 0 110.5C0 171.251 49.2487 220.5 110 220.5Z" fill="#EDF0F4"/>
<path d="M72.7322 96.0178C80.7356 94.6885 88.2384 95.1345 95.7068 97.1156C98.8292 97.9439 101.927 99.0333 105.158 100.403L105.413 100.511L105.589 100.587L105.765 100.663L105.942 100.739L106.206 100.855L106.471 100.971L106.735 101.088L107.001 101.207L107.267 101.327L107.535 101.448L107.713 101.53L107.982 101.653L108.162 101.737L108.434 101.863L108.707 101.99L108.981 102.12L109.165 102.207L109.35 102.295L109.63 102.429L109.911 102.564L110.195 102.702L110.386 102.794L110.674 102.935L110.965 103.078L111.161 103.175L111.457 103.322L111.657 103.421L112.06 103.622L112.366 103.776L112.781 103.986L113.096 104.146L113.523 104.363L114.132 104.675L114.479 104.852L114.821 105.026C114.878 105.055 114.935 105.083 114.991 105.112L115.329 105.281C115.553 105.393 115.775 105.504 115.995 105.613L116.323 105.774C121.006 108.072 124.757 109.559 128.521 110.568C133.34 111.86 138.294 112.371 144.23 112.139C149.85 111.918 154.418 110.991 158.239 109.446C161.276 108.218 163.75 106.66 166.273 104.547L166.352 104.48L170.485 109.389C167.448 111.946 164.39 113.881 160.644 115.395C156.112 117.227 150.818 118.302 144.482 118.55C137.918 118.808 132.321 118.23 126.859 116.765C122.025 115.469 117.321 113.514 111.214 110.39L110.718 110.136L110.209 109.876L109.711 109.624L109.417 109.476L109.127 109.33L108.841 109.187L108.464 109L108.186 108.862L107.91 108.727L107.637 108.593L107.367 108.462L107.189 108.375L106.923 108.247L106.747 108.163L106.485 108.038L106.225 107.914L106.053 107.833L105.882 107.753L105.711 107.673L105.541 107.594L105.288 107.477L105.036 107.361L104.869 107.285L104.619 107.172L104.37 107.06L104.205 106.986L104.04 106.912L103.793 106.803L103.628 106.731L103.3 106.588L103.054 106.482L102.809 106.377C99.7858 105.088 96.9216 104.077 94.0616 103.318C87.4489 101.564 80.862 101.172 73.7836 102.348C68.2664 103.264 63.7318 104.946 60.0756 107.157C58.1283 108.335 56.5657 109.581 55.3544 110.809L55.2683 110.897C55.2541 110.911 55.2402 110.926 55.2263 110.94L55.1436 111.026L55.0635 111.111C55.0503 111.125 55.0373 111.139 55.0242 111.153L54.9474 111.235C54.9348 111.249 54.9223 111.263 54.9098 111.276L54.8365 111.357L54.7656 111.437C54.7538 111.45 54.7423 111.463 54.7309 111.476L54.6631 111.553L54.5978 111.63L54.5346 111.704C54.5243 111.717 54.514 111.729 54.5039 111.741L54.444 111.814C54.4343 111.826 54.4246 111.837 54.415 111.849L54.3586 111.92L54.3217 111.966L54.2709 112.031L54.2399 112.072L54.2113 112.11L54.1849 112.145L54.149 112.195L48.7773 108.684L48.8142 108.629L48.8551 108.568L48.8848 108.526L48.933 108.457L48.9675 108.409L49.0038 108.359L49.0621 108.281L49.1033 108.226L49.1688 108.14L49.2388 108.049L49.2879 107.987L49.3389 107.922C49.7367 107.423 50.218 106.878 50.787 106.302C52.3637 104.704 54.3424 103.125 56.7547 101.666C61.106 99.0347 66.4103 97.068 72.7322 96.0178Z" fill="#00F5FF"/>
<path fill-rule="evenodd" clip-rule="evenodd" d="M45.834 110.5L110.001 46.3334L174.167 110.5L110.001 174.667L45.834 110.5ZM110.001 52.75L52.2507 110.5L110.001 168.25L167.751 110.5L110.001 52.75Z" fill="#00F5FF"/>
<path fill-rule="evenodd" clip-rule="evenodd" d="M131.387 120.703C131.387 124.985 129.773 128.614 126.543 131.59C123.314 134.566 118.579 136.22 112.339 136.552V146.146H108.232V136.636C104.236 136.413 100.471 135.621 96.9388 134.258C93.4063 132.896 90.6297 131.158 88.6094 129.044L90.9905 124.289C92.9065 126.179 95.4109 127.765 98.5031 129.044C101.601 130.325 104.888 131.086 108.233 131.297V109.352C104.456 108.406 101.309 107.392 98.7906 106.309C96.2727 105.226 94.179 103.641 92.5094 101.553C90.8411 99.4677 90.0069 96.7007 90.0069 93.252C90.0069 88.969 91.5396 85.3676 94.6051 82.4476C97.6706 79.5275 102.214 77.8164 108.235 77.3143V67.7219H112.341V77.2327C115.421 77.3372 118.473 77.8566 121.414 78.7766C124.343 79.6941 126.874 80.904 129.009 82.4058L126.955 87.3281C124.729 85.8901 122.329 84.7406 119.812 83.9073C117.294 83.0732 114.804 82.6005 112.341 82.4892V104.597C116.391 105.598 119.703 106.613 122.276 107.642C124.802 108.639 127.034 110.263 128.76 112.361C130.512 114.472 131.387 117.253 131.387 120.703ZM95.9994 93.0852C95.9994 95.9769 97.053 98.174 99.1602 99.6764C101.267 101.179 104.292 102.458 108.233 103.514V82.6561C104.183 82.9897 101.131 84.1161 99.0781 86.0351C97.0253 87.954 95.999 90.3042 95.9994 93.0852ZM122.11 128.043C119.92 129.878 116.663 130.963 112.339 131.297L112.338 110.439C116.554 111.496 119.783 112.775 122.027 114.277C124.272 115.778 125.394 118.031 125.394 121.035C125.394 123.872 124.299 126.208 122.11 128.043Z" fill="#00F5FF"/>
<path d="M110.357 171.491L49.8438 110.843C49.8438 110.843 62.8509 100.956 78.0347 97.2303C93.2186 93.5048 104.652 100.962 114.816 108.666C124.979 116.371 132.618 118.325 144.618 117.63C156.618 116.935 170.869 110.843 170.869 110.843L110.357 171.491Z" fill="#00F5FF"/>
<path fill-rule="evenodd" clip-rule="evenodd" d="M131.387 120.408C131.388 124.691 129.773 128.321 126.543 131.296C123.314 134.272 118.581 135.927 112.343 136.26V145.856H108.237V136.346C104.238 136.123 100.473 135.331 96.9433 133.968C93.4133 132.606 90.6354 130.868 88.6094 128.754L90.9905 123.998C92.9065 125.889 95.4109 127.475 98.5031 128.754C101.601 130.034 104.888 130.795 108.233 131.006V109.061C104.457 108.116 101.309 107.101 98.7893 106.016C96.2701 104.931 94.1765 103.346 92.5081 101.261C91.4067 99.884 90.6684 98.2108 90.2937 96.2408C92.8693 96.6038 95.3958 97.2556 97.8255 98.1838C98.2217 98.6343 98.6692 99.0369 99.1589 99.383C101.046 100.728 103.668 101.894 107.026 102.883C109.724 104.587 112.311 106.473 114.813 108.373C120.659 112.804 125.691 115.989 131.195 117.763C131.326 118.638 131.39 119.523 131.387 120.408ZM112.339 131.004C116.663 130.67 119.92 129.586 122.11 127.75C124.299 125.915 125.394 123.579 125.394 120.742C125.395 117.738 124.273 115.485 122.028 113.983C119.783 112.482 116.553 111.203 112.339 110.146V131.004Z" fill="black"/>
</g>
<defs>
<clipPath id="clip0_4_3972">
<rect width="220" height="220" fill="white" transform="translate(0 0.5)"/>
</clipPath>
</defs>
</svg>
