<svg width="220" height="221" viewBox="0 0 220 221" fill="none" xmlns="http://www.w3.org/2000/svg">
<g clip-path="url(#clip0_4_3979)">
<path d="M110 220.5C170.751 220.5 220 171.251 220 110.5C220 49.7487 170.751 0.5 110 0.5C49.2487 0.5 0 49.7487 0 110.5C0 171.251 49.2487 220.5 110 220.5Z" fill="#EDF0F4"/>
<path d="M73.3055 134.907L99.4241 150.036V162.583L63.8505 141.989V82.8902L70.8998 78.8125L68.3095 74.3159L58.666 79.8968V144.985L104.596 171.579V147.04L75.8971 130.411L73.3055 134.907Z" fill="url(#paint0_linear_4_3979)"/>
<path d="M110.009 56.2766L139.827 74.3159L142.422 69.6117L110.009 50L77.5801 69.6051L80.1753 74.3091L110.009 56.2766Z" fill="url(#paint1_linear_4_3979)"/>
<path d="M110.009 75.1849L139.827 93.2282L142.422 88.5232L110.009 68.9124L77.5801 88.5164L80.1753 93.2214L110.009 75.1849Z" fill="url(#paint2_linear_4_3979)"/>
<path d="M151.703 74.3158L149.112 78.8124L156.162 82.8903V141.99L120.584 162.583V150.036L146.987 134.747L144.397 130.25L115.406 147.04V171.579L161.336 144.984V79.8943L151.703 74.3158Z" fill="url(#paint3_linear_4_3979)"/>
<path fill-rule="evenodd" clip-rule="evenodd" d="M124.528 120.771C125.258 117.988 124.773 115.029 123.192 112.621C123.159 112.571 123.127 112.521 123.096 112.471C123.073 112.436 123.05 112.4 123.028 112.365L122.209 111.362C122.092 111.24 121.986 111.107 121.893 110.965C121.859 110.908 121.854 110.839 121.879 110.778C122.007 110.536 122.149 110.302 122.293 110.071C122.859 109.171 123.255 108.175 123.461 107.134C123.713 105.894 123.745 104.62 123.553 103.369C122.95 99.3219 119.782 96.1265 115.719 95.4671C115.687 95.4618 115.657 95.4566 115.628 95.4517C115.264 95.3895 115.076 95.3576 114.978 95.2462C114.875 95.1276 114.874 94.9186 114.873 94.4868C114.873 94.4676 114.873 94.4478 114.873 94.4274V92.4822C114.872 92.346 114.855 92.2105 114.822 92.0785C114.798 92.0151 114.748 91.9652 114.684 91.942C114.552 91.9022 114.416 91.8805 114.278 91.878H109.13C108.992 91.8732 108.855 91.8904 108.723 91.9291C108.632 91.9649 108.559 92.0371 108.523 92.1284C108.488 92.2963 108.473 92.4678 108.479 92.6394C108.479 93.2869 108.479 93.9344 108.472 94.582C108.476 94.7539 108.458 94.9257 108.418 95.0929C108.396 95.1734 108.295 95.2462 108.215 95.2997C108.154 95.3325 108.085 95.3476 108.017 95.3432C107.857 95.3432 107.698 95.3444 107.538 95.3455C107.218 95.3477 106.897 95.3501 106.576 95.3432C106.3 95.3432 106.154 95.1798 106.152 94.8782C106.146 94.5161 106.144 94.1553 106.143 93.7942C106.141 93.5415 106.14 93.2885 106.138 93.0352C106.138 92.8166 106.127 92.5974 106.116 92.3766L106.108 92.2177C106.088 92.0426 105.942 91.908 105.765 91.9011L105.719 91.8976C105.597 91.8884 105.477 91.8793 105.354 91.8793H100.411C100.304 91.8793 100.199 91.8877 100.093 91.8963L99.9996 91.9036C99.8219 91.9238 99.6886 92.0745 99.691 92.2523C99.6824 92.733 99.6784 93.2167 99.6743 93.6999L99.6718 93.9905C99.6718 94.3317 99.6641 94.6727 99.65 95.0124C99.6269 95.1868 99.4809 95.3193 99.3042 95.3267C99.0318 95.3406 98.7555 95.3509 98.4818 95.3509H96.0102C95.8053 95.3479 95.6007 95.3668 95.3997 95.4071C95.3046 95.4381 95.2259 95.5058 95.1812 95.5949C95.1466 95.6913 95.1339 95.7943 95.144 95.8963V101.217C95.1422 101.32 95.1568 101.423 95.1876 101.521C95.2124 101.585 95.2619 101.637 95.3253 101.664C95.4566 101.699 95.5917 101.718 95.7275 101.721C96.0192 101.724 96.3113 101.724 96.6033 101.724C96.8954 101.724 97.1874 101.724 97.4793 101.728C97.652 101.724 97.8247 101.741 97.9934 101.779C98.085 101.817 98.1534 101.895 98.1771 101.991C98.2095 102.261 98.2258 102.533 98.226 102.805V107.513V115.905V116.827L98.204 118.143C98.2069 118.19 98.2102 118.237 98.2135 118.284C98.2223 118.408 98.2311 118.531 98.2311 118.654V121.008C98.2311 121.145 98.2311 121.283 98.2207 121.417C98.2282 121.519 98.1926 121.62 98.1224 121.695C98.0524 121.771 97.9539 121.814 97.8507 121.814C97.5552 121.821 97.2593 121.823 96.9641 121.825C96.7791 121.827 96.594 121.828 96.4099 121.831C96.1015 121.831 95.7904 121.838 95.4821 121.853C95.3042 121.863 95.1649 122.009 95.1632 122.186L95.1605 122.248C95.1535 122.397 95.1466 122.547 95.1466 122.697V127.303C95.1466 127.49 95.1585 127.677 95.1704 127.865L95.1735 127.916C95.2104 128.047 95.3196 128.147 95.4551 128.171L95.4947 128.174C95.6848 128.19 95.8771 128.206 96.0693 128.208H98.4379C98.7142 128.208 98.9868 128.208 99.2606 128.227C99.3645 128.219 99.4674 128.254 99.5438 128.324C99.6203 128.395 99.6635 128.494 99.6628 128.598C99.6681 128.814 99.6701 129.03 99.672 129.244C99.6736 129.438 99.6753 129.632 99.6795 129.825C99.6795 130.075 99.6907 130.325 99.7017 130.574L99.709 130.744C99.7326 130.879 99.8437 130.984 99.9814 130.999C100.152 131.016 100.325 131.031 100.496 131.031H105.336C105.492 131.031 105.646 131.017 105.804 131.003L105.85 130.999C105.984 130.967 106.086 130.858 106.107 130.722C106.123 130.552 106.136 130.383 106.139 130.211V128.881C106.136 128.745 106.152 128.609 106.188 128.478C106.228 128.398 106.293 128.333 106.374 128.293C106.469 128.252 106.572 128.232 106.675 128.236C107.018 128.229 107.361 128.229 107.703 128.229C108.42 128.229 108.463 128.356 108.465 128.995V130.427C108.473 130.986 108.536 131.04 109.141 131.053H109.347H113.981C114.116 131.053 114.254 131.053 114.393 131.043C114.711 131.028 114.844 130.915 114.853 130.626C114.856 130.437 114.856 130.248 114.857 130.059C114.857 129.839 114.857 129.618 114.863 129.399C114.863 129.124 114.871 128.853 114.882 128.579C114.902 128.405 115.038 128.267 115.212 128.243L115.238 128.24C115.469 128.214 115.699 128.188 115.93 128.17C120.104 127.81 123.572 124.825 124.528 120.771ZM104.671 102.595C104.671 102.391 104.687 102.187 104.72 101.985C104.732 101.879 104.814 101.794 104.921 101.778C105.091 101.754 105.263 101.739 105.435 101.735H114.076C114.946 101.701 115.788 102.04 116.39 102.664C116.884 103.15 117.174 103.804 117.201 104.495C117.211 104.833 117.211 105.174 117.201 105.517C117.095 106.854 116.082 107.946 114.749 108.158C114.507 108.189 114.264 108.198 114.02 108.207C113.921 108.21 113.82 108.214 113.72 108.219H113.515H109.698H105.48C105.276 108.215 105.072 108.194 104.872 108.155C104.806 108.133 104.755 108.082 104.734 108.016C104.696 107.848 104.677 107.677 104.675 107.505C104.67 106.914 104.672 106.325 104.673 105.734C104.674 105.439 104.675 105.143 104.675 104.847C104.669 104.095 104.666 103.345 104.671 102.595ZM113.633 121.837C114.148 121.838 114.661 121.838 115.178 121.83C116.591 121.767 117.811 120.826 118.224 119.482C118.386 118.924 118.435 118.34 118.366 117.763C118.301 116.429 117.428 115.267 116.16 114.825C115.706 114.665 115.226 114.596 114.746 114.621H105.582C105.397 114.621 105.212 114.63 105.027 114.639C105.007 114.64 104.986 114.642 104.966 114.642C104.833 114.677 104.73 114.781 104.698 114.913C104.696 114.938 104.693 114.963 104.691 114.988C104.68 115.099 104.669 115.21 104.669 115.32V118.082C104.669 118.413 104.668 118.744 104.667 119.074C104.665 119.734 104.664 120.393 104.669 121.052C104.675 121.254 104.703 121.454 104.75 121.651C104.772 121.712 104.822 121.759 104.884 121.779C105.085 121.814 105.289 121.834 105.492 121.837H110.23H113.323C113.427 121.837 113.53 121.837 113.633 121.837Z" fill="url(#paint4_linear_4_3979)"/>
</g>
<defs>
<linearGradient id="paint0_linear_4_3979" x1="1.52664" y1="651.92" x2="428.596" y2="579.404" gradientUnits="userSpaceOnUse">
<stop offset="0.13" stop-color="#13AAE6"/>
<stop offset="1" stop-color="#023B90"/>
</linearGradient>
<linearGradient id="paint1_linear_4_3979" x1="3277.8" y1="1556.47" x2="3290.08" y2="-858.274" gradientUnits="userSpaceOnUse">
<stop offset="0.13" stop-color="#13AAE6"/>
<stop offset="1" stop-color="#023B90"/>
</linearGradient>
<linearGradient id="paint2_linear_4_3979" x1="3284.53" y1="1436.56" x2="3296.81" y2="-979.44" gradientUnits="userSpaceOnUse">
<stop offset="0.13" stop-color="#13AAE6"/>
<stop offset="1" stop-color="#023B90"/>
</linearGradient>
<linearGradient id="paint3_linear_4_3979" x1="62.5564" y1="668.702" x2="489.398" y2="596.207" gradientUnits="userSpaceOnUse">
<stop offset="0.13" stop-color="#13AAE6"/>
<stop offset="1" stop-color="#023B90"/>
</linearGradient>
<linearGradient id="paint4_linear_4_3979" x1="149.913" y1="346.593" x2="365.946" y2="108.576" gradientUnits="userSpaceOnUse">
<stop offset="0.13" stop-color="#13AAE6"/>
<stop offset="1" stop-color="#023B90"/>
</linearGradient>
<clipPath id="clip0_4_3979">
<rect width="220" height="220" fill="white" transform="translate(0 0.5)"/>
</clipPath>
</defs>
</svg>
