<svg width="220" height="221" viewBox="0 0 220 221" fill="none" xmlns="http://www.w3.org/2000/svg">
<g clip-path="url(#clip0_4_3986)">
<path d="M110 220.5C170.753 220.5 220 171.253 220 110.5C220 49.747 170.753 0.5 110 0.5C49.247 0.5 0 49.747 0 110.5C0 171.253 49.247 220.5 110 220.5Z" fill="#EDF0F4"/>
<path fill-rule="evenodd" clip-rule="evenodd" d="M172.555 115.431C174.474 116.71 173.834 117.776 170.636 118.629C169.357 119.055 169.357 119.268 169.357 119.908C169.357 121.614 169.144 122.253 165.52 122.893C164.608 122.818 163.75 123.332 163.388 124.172C163.601 125.664 161.895 126.517 158.058 126.944C157.036 126.955 156.053 127.333 155.286 128.009C154.647 129.502 152.515 130.141 148.464 130.141C147.334 130.071 146.212 130.371 145.266 130.994C143.987 132.273 141.216 132.913 137.165 132.7C135.923 132.623 134.681 132.842 133.541 133.339C130.818 134.626 127.752 135 124.8 134.405C123.447 134.251 122.078 134.323 120.749 134.618C117.796 135.626 114.616 135.774 111.582 135.045C110.24 134.831 108.873 134.831 107.531 135.045C104.516 135.837 101.339 135.763 98.3641 134.832C97.0518 134.43 95.6606 134.357 94.3133 134.618C91.3671 135.338 88.2596 134.959 85.5725 133.552C84.4254 133.078 83.1885 132.86 81.9482 132.913C77.8976 133.126 75.3392 132.7 73.8469 131.207C72.8136 130.881 71.7316 130.737 70.649 130.781C66.5984 130.781 64.2532 129.928 63.827 128.649C63.0607 127.973 62.0771 127.595 61.0554 127.583C57.218 127.157 55.2992 126.304 55.5125 125.025C55.5125 124.385 54.8728 123.959 53.3805 123.746C49.7562 123.106 48.477 122.04 49.5431 120.761C49.9694 120.335 49.5431 119.695 48.2638 119.482C45.0659 118.629 44.4265 117.563 46.3452 116.284C46.9847 115.858 46.7715 115.218 45.9188 114.791C43.3604 113.726 43.3604 112.66 45.9188 111.594C46.7715 111.167 46.9847 110.528 46.3452 110.101C44.4265 108.822 45.0659 107.756 48.2638 106.903C49.5431 106.477 49.9694 106.051 49.5431 105.624C48.477 104.345 49.7562 103.279 53.3805 102.64C54.292 102.715 55.1496 102.2 55.5125 101.36C55.2992 99.8681 57.0048 99.0152 60.8421 98.5888C61.8639 98.5771 62.8474 98.1989 63.6138 97.5229C64.2532 96.0306 66.3852 95.3909 70.4358 95.1779C71.566 95.2477 72.6884 94.9484 73.6337 94.325C74.913 93.0459 77.6844 92.4063 81.735 92.6195C82.9767 92.6959 84.2188 92.4767 85.3593 91.98C88.0822 90.6926 91.1479 90.3188 94.1003 90.9139C95.4529 91.0683 96.8219 90.9962 98.1508 90.7007C101.105 89.6935 104.284 89.5457 107.318 90.2745C108.66 90.4877 110.027 90.4877 111.369 90.2745C114.384 89.4826 117.561 89.5565 120.536 90.4877C121.848 90.8894 123.239 90.9625 124.587 90.7007C127.533 89.9815 130.64 90.3604 133.328 91.7668C134.475 92.2413 135.712 92.4594 136.952 92.4063C141.002 92.193 143.561 92.6195 145.053 94.1118C145.998 94.7353 147.121 95.0345 148.251 94.9647C152.302 94.9647 154.647 95.8174 155.073 97.0965C155.811 97.8179 156.813 98.2034 157.845 98.1626C160.829 98.3758 162.535 99.2285 163.388 100.721C163.75 101.56 164.608 102.075 165.52 102C168.291 102 170.423 103.705 169.357 104.985C168.931 105.411 169.357 106.264 170.636 106.264C173.194 106.264 174.474 108.182 172.555 109.462C171.915 109.888 171.915 110.528 172.981 110.954C175.54 112.02 175.54 113.086 172.981 114.152C172.235 114.365 172.022 115.005 172.555 115.431Z" stroke="black" stroke-width="1.5"/>
<path d="M105.077 65.3311C107.764 64.3864 109.502 61.7788 109.341 58.9353C109.128 55.7375 105.93 54.6716 101.879 56.1639C93.7778 58.9353 91.6459 68.1027 90.3667 77.27C89.9403 79.8282 89.7271 82.5998 89.5139 84.9448C86.9459 104.306 85.8058 123.831 86.1028 143.36C86.316 146.771 87.3821 150.608 84.6104 154.232C79.9202 154.659 81.1995 151.887 76.9356 153.38C70.2201 155.703 71.8189 164.679 76.6158 164.231C78.2244 164.195 79.7847 163.675 81.0928 162.739C89.4073 158.475 90.4733 147.389 91.9656 136.303C94.5152 116.295 95.7261 96.1388 95.5899 75.9694V75.7776C95.5899 72.1533 94.9503 66.184 97.2955 64.9049C99.6405 63.6257 101.346 66.8236 104.97 65.3311" fill="black"/>
<path d="M136.316 56.6545C128.215 59.4259 126.083 68.5933 124.804 77.7605C124.377 80.3188 124.164 83.0902 123.951 85.4354C121.383 104.797 120.243 124.321 120.54 143.85C120.753 147.261 121.819 151.099 119.047 154.723C114.357 155.362 115.636 152.378 111.373 153.87C104.764 156.215 106.256 165.169 111.159 164.743C112.768 164.707 114.328 164.187 115.636 163.251C123.951 158.987 125.017 147.901 126.509 136.815C129.059 116.807 130.27 96.6506 130.133 76.4814V76.2682C130.133 72.6439 129.494 66.6745 131.839 65.3954C134.184 64.1161 135.89 67.1008 139.514 65.6085C142.201 64.6637 143.939 62.0562 143.778 59.2127C143.565 56.228 140.367 55.1621 136.316 56.6545Z" fill="black"/>
</g>
<defs>
<clipPath id="clip0_4_3986">
<rect width="220" height="220" fill="white" transform="translate(0 0.5)"/>
</clipPath>
</defs>
</svg>
