<svg width="220" height="221" viewBox="0 0 220 221" fill="none" xmlns="http://www.w3.org/2000/svg">
<g clip-path="url(#clip0_4_3991)">
<path d="M110 220.5C170.751 220.5 220 171.251 220 110.5C220 49.7487 170.751 0.5 110 0.5C49.2487 0.5 0 49.7487 0 110.5C0 171.251 49.2487 220.5 110 220.5Z" fill="#EDF0F4"/>
<path d="M169.108 79.3334L130.193 118.672L125.634 114.113L109.198 131.715H90.0059L142.918 79.3334H169.108Z" fill="#9B0707"/>
<path d="M109.412 139.879H143.343L126.378 122.808L109.412 139.879Z" fill="#000102"/>
<path d="M128.178 87.392L76.2208 139.88H49.5L88.8391 101.177L91.9142 104.252L109.41 87.392H128.178Z" fill="#000102"/>
<path d="M109.408 79.3334H75.0527L92.2305 97.0414L109.408 79.3334Z" fill="#990707"/>
</g>
<defs>
<clipPath id="clip0_4_3991">
<rect width="220" height="220" fill="white" transform="translate(0 0.5)"/>
</clipPath>
</defs>
</svg>
