<svg width="220" height="221" viewBox="0 0 220 221" fill="none" xmlns="http://www.w3.org/2000/svg">
<g clip-path="url(#clip0_4_3997)">
<path d="M110 220.5C170.751 220.5 220 171.251 220 110.5C220 49.7487 170.751 0.5 110 0.5C49.2487 0.5 0 49.7487 0 110.5C0 171.251 49.2487 220.5 110 220.5Z" fill="#EDF0F4"/>
<path d="M78.889 56.2207L141.343 92.262V129.024L45.834 73.881L76.4433 56.2207C77.2065 55.8088 78.1258 55.8088 78.889 56.2207Z" fill="#3CA9E5"/>
<path d="M141.343 55.5L109.498 73.881L141.343 92.262V55.5Z" fill="#2853C3"/>
<path d="M141.346 55.5L171.981 73.1601C172.73 73.6157 173.195 74.4207 173.217 75.2969V147.379L141.346 129.024V55.5Z" fill="#1A4199"/>
<path d="M173.185 147.405L142.575 165.065C141.779 165.525 140.797 165.525 140.001 165.065L77.5723 129.024V92.2106L173.185 147.405Z" fill="#2853C3"/>
<path d="M45.834 73.881V145.963C45.8289 146.867 46.2979 147.707 47.0697 148.177L77.679 165.838V92.2105L45.834 73.881Z" fill="#60BEFF"/>
<path d="M77.6797 165.786L109.499 147.405L77.6797 129.024V165.786Z" fill="#3CA9E5"/>
</g>
<defs>
<clipPath id="clip0_4_3997">
<rect width="220" height="220" fill="white" transform="translate(0 0.5)"/>
</clipPath>
</defs>
</svg>
