<svg width="220" height="221" viewBox="0 0 220 221" fill="none" xmlns="http://www.w3.org/2000/svg">
<g clip-path="url(#clip0_4_4005)">
<path d="M110 220.5C170.751 220.5 220 171.251 220 110.5C220 49.7487 170.751 0.5 110 0.5C49.2487 0.5 0 49.7487 0 110.5C0 171.251 49.2487 220.5 110 220.5Z" fill="#EDF0F4"/>
<path d="M110 39L55 94L110 146.696L165 94L110 39Z" fill="url(#paint0_linear_4_4005)"/>
<path d="M82.3251 140.802C83.5364 139.181 84.6841 137.641 86.0583 136.145C69.5281 140.128 58.1445 148.471 58.1445 158.126C58.1445 158.486 58.164 158.844 58.1948 159.199C59.8163 158.584 61.527 157.847 63.3446 156.954C74.2636 151.59 78.5466 145.859 82.3251 140.802Z" fill="black"/>
<path d="M99.5364 158.549C102.842 154.125 105.696 150.306 113.765 146.344C121.834 142.382 126.603 142.455 132.124 142.541C135.823 142.599 139.811 142.66 144.677 141.617C138.744 138.43 131.115 136.018 122.492 134.725L109.998 146.692L101.265 138.325C95.0411 142.516 91.8523 146.778 88.957 150.645C85.6513 155.069 82.797 158.889 74.7283 162.85C69.0688 165.63 65.0338 166.423 61.2227 166.618C64.2288 170.605 69.2902 174.106 75.7724 176.797C77.2821 176.211 78.8698 175.518 80.5467 174.694C91.4717 169.337 95.755 163.605 99.5364 158.549Z" fill="black"/>
<path d="M127.889 180.538C140.932 177.73 151.054 172.254 155.398 165.516C151.668 166.197 147.424 167.504 142.373 169.988C135.332 173.449 131.055 177.058 127.889 180.538Z" fill="black"/>
<path opacity="0.5" d="M110 94H55L110 39V94Z" fill="url(#paint1_linear_4_4005)"/>
<path fill-rule="evenodd" clip-rule="evenodd" d="M89.4609 179.473C89.4609 179.473 94.8086 180.599 100.84 181.283C106.871 181.966 110.449 181.082 110.449 181.082C110.449 181.082 119.415 166.888 128.462 163.109C128.462 163.109 137.267 158.485 145.269 159.088L154.758 159.49C154.758 159.49 155.103 155.993 153.514 151.583C151.924 147.172 149.41 146.383 149.41 146.383C149.41 146.383 131.679 145.659 121.104 151.971C121.104 151.971 108.479 160.415 103.051 169.301C103.051 169.301 99.3519 173.925 96.5374 175.573" fill="black"/>
</g>
<defs>
<linearGradient id="paint0_linear_4_4005" x1="110.438" y1="42.5011" x2="60.4916" y2="94.6074" gradientUnits="userSpaceOnUse">
<stop offset="0.09" stop-color="#FF6D41"/>
<stop offset="0.5" stop-color="#FA297F"/>
<stop offset="1" stop-color="#FA297F"/>
</linearGradient>
<linearGradient id="paint1_linear_4_4005" x1="96.7389" y1="28.5025" x2="45.4795" y2="79.7611" gradientUnits="userSpaceOnUse">
<stop stop-color="#652CB4"/>
<stop offset="0.07" stop-color="#652CB4" stop-opacity="0.82"/>
<stop offset="0.19" stop-color="#652CB4" stop-opacity="0.53"/>
<stop offset="0.3" stop-color="#652CB4" stop-opacity="0.3"/>
<stop offset="0.4" stop-color="#652CB4" stop-opacity="0.14"/>
<stop offset="0.49" stop-color="#652CB4" stop-opacity="0.04"/>
<stop offset="0.55" stop-color="#652CB4" stop-opacity="0.01"/>
</linearGradient>
<clipPath id="clip0_4_4005">
<rect width="220" height="220" fill="white" transform="translate(0 0.5)"/>
</clipPath>
</defs>
</svg>
