<svg width="220" height="221" viewBox="0 0 220 221" fill="none" xmlns="http://www.w3.org/2000/svg">
<g clip-path="url(#clip0_4_4013)">
<path d="M110 220.5C170.751 220.5 220 171.251 220 110.5C220 49.7487 170.751 0.5 110 0.5C49.2487 0.5 0 49.7487 0 110.5C0 171.251 49.2487 220.5 110 220.5Z" fill="#EDF0F4"/>
<path d="M171.142 107.567L146.758 65.7667C144.925 62.8333 141.625 61 138.142 61H89.375C85.8917 61 82.5917 62.8333 80.9417 65.7667L56.375 107.567C54.5417 110.5 54.5417 114.167 56.375 117.283L80.7583 158.9C82.5917 161.833 85.7083 163.667 89.1917 163.667H138.142C141.625 163.667 144.925 161.833 146.758 158.9L171.142 117.1C172.792 114.167 172.792 110.5 171.142 107.567Z" fill="url(#paint0_radial_4_4013)"/>
</g>
<defs>
<radialGradient id="paint0_radial_4_4013" cx="0" cy="0" r="1" gradientUnits="userSpaceOnUse" gradientTransform="translate(139.43 155.638) scale(109.028 95.3625)">
<stop stop-color="#EC991C"/>
<stop offset="1" stop-color="#E9B213"/>
</radialGradient>
<clipPath id="clip0_4_4013">
<rect width="220" height="220" fill="white" transform="translate(0 0.5)"/>
</clipPath>
</defs>
</svg>
