<svg width="220" height="221" viewBox="0 0 220 221" fill="none" xmlns="http://www.w3.org/2000/svg">
<g clip-path="url(#clip0_4_4016)">
<path d="M110 220.5C170.751 220.5 220 171.251 220 110.5C220 49.7487 170.751 0.5 110 0.5C49.2487 0.5 0 49.7487 0 110.5C0 171.251 49.2487 220.5 110 220.5Z" fill="#EDF0F4"/>
<path fill-rule="evenodd" clip-rule="evenodd" d="M125.614 47.6592C133.097 51.4332 138.126 57.8623 139.896 65.9163C140.163 67.1307 140.228 68.1724 140.221 71.1199C140.212 75.2397 139.974 76.7797 138.785 80.4086C138.213 82.1554 136.423 86.2197 136.227 86.2197C135.872 86.2197 131.258 83.6292 129.893 82.6642C127.63 81.0628 124.151 77.5792 122.763 75.5239C117.564 67.8268 116.814 58.6218 120.666 49.818C121.012 49.0271 121.574 47.9194 121.916 47.3567L122.536 46.3334L123.283 46.5966C123.694 46.7417 124.743 47.2198 125.614 47.6592ZM96.7859 50.1968C98.7178 50.5416 100.895 51.3347 102.642 52.3302C108.086 55.4331 111.389 60.8878 112.13 68.0032C112.315 69.7698 112.308 70.0908 112.086 70.2312C111.685 70.485 108.244 70.4281 106.344 70.1363C103.043 69.629 100.281 68.5988 97.8743 66.9767C96.4049 65.9863 94.221 63.8027 93.2308 62.3336C91.1087 59.1845 89.821 55.0344 89.81 51.3092L89.8063 50.104L90.3906 50.0059C92.0265 49.7311 94.6079 49.8081 96.7859 50.1968ZM101.136 73.6449C111.724 74.9537 121.733 81.1163 128.763 90.6551C129.385 91.4986 129.893 92.2606 129.893 92.348C129.893 92.5741 127.505 94.443 125.683 95.6427C113.177 103.879 99.2894 105.255 87.1022 99.4648C81.1316 96.6283 75.5586 91.7784 71.627 85.9974L70.3721 84.1525L71.2361 83.3817C76.9096 78.3184 84.3733 74.8263 91.8546 73.7342C93.8668 73.4405 99.0766 73.3904 101.136 73.6449ZM154.251 97.5624C155.715 97.7245 158.075 98.1388 158.88 98.3755C159.279 98.4926 159.295 99.7162 158.932 102.398C157.563 112.526 152.733 121.346 145.257 127.371C140.106 131.522 133.935 134.105 126.478 135.232C122.695 135.803 114.167 135.569 111.692 134.826C111.274 134.7 111.284 133.983 111.743 131.173C113.256 121.895 117.18 113.851 123.061 107.97C131.099 99.932 142.197 96.2286 154.251 97.5624ZM79.628 105.263C82.209 105.781 84.9288 106.686 87.3205 107.822C88.391 108.33 89.2672 108.782 89.2672 108.826C89.2672 108.871 88.8655 109.709 88.3745 110.69C85.4331 116.565 80.9306 121.323 75.8523 123.923C70.0311 126.903 63.7343 127.592 57.3593 125.945C53.7355 125.009 49.3938 122.967 49.502 122.249C49.5308 122.058 49.9961 120.986 50.5365 119.865C54.335 111.983 61.2496 106.593 69.4932 105.087C72.0831 104.614 76.804 104.696 79.628 105.263ZM96.2329 116.015C99.2689 119.679 102.264 125.09 103.894 129.855C105.436 134.365 106.016 137.761 106.021 142.305C106.031 150.879 103.23 158.677 97.6578 165.591C95.3558 168.448 90.7271 172.536 87.8876 174.221L87.1372 174.667L85.6724 172.912C80.7814 167.054 77.5753 159.718 76.6725 152.32C76.3966 150.059 76.5479 144.199 76.9356 142.127C77.611 138.521 78.4483 135.941 79.9997 132.688C82.4367 127.578 86.0092 122.856 90.3153 119.052C92.1219 117.456 95.1095 115.161 95.3808 115.161C95.4602 115.161 95.8437 115.546 96.2329 116.015ZM158.317 129.986C162.057 130.641 165.551 132.398 168.335 135.025C169.355 135.986 169.581 136.292 169.45 136.536C169.07 137.247 166.727 139.574 165.401 140.559C160.638 144.095 154.824 145.239 149.308 143.724C146.501 142.953 142.724 140.84 140.572 138.837C139.33 137.681 139.307 137.754 141.563 135.608C146.432 130.974 152.443 128.957 158.317 129.986ZM73.3791 133.247C73.5707 134.01 73.3252 138.512 73.0147 139.939C72.4095 142.717 71.414 145.113 69.9767 147.249C69.0301 148.656 66.8255 150.85 65.3808 151.824C62.2359 153.943 58.0814 155.234 54.3676 155.245C53.2271 155.248 53.1685 155.227 53.0553 154.776C52.8287 153.873 52.9376 149.783 53.2286 148.262C53.8176 145.182 55.2161 142.189 57.1979 139.766C60.5025 135.727 66.5225 132.987 72.501 132.802C73.1793 132.781 73.2743 132.829 73.3791 133.247ZM128.096 141.528C134.891 142.63 141.152 146.735 145.117 152.687C146.877 155.329 148.859 159.874 148.994 161.58C149.036 162.104 148.976 162.157 147.779 162.653C144.495 164.015 141.118 164.658 137.263 164.655C134.05 164.653 132.04 164.346 129.174 163.419C121.278 160.867 114.896 154.232 111.847 145.406L111.21 143.564L111.863 143.291C113 142.816 115.359 142.146 117.248 141.761C120.833 141.031 124.539 140.951 128.096 141.528Z" fill="#283A79"/>
</g>
<defs>
<clipPath id="clip0_4_4016">
<rect width="220" height="220" fill="white" transform="translate(0 0.5)"/>
</clipPath>
</defs>
</svg>
