<svg width="220" height="221" viewBox="0 0 220 221" fill="none" xmlns="http://www.w3.org/2000/svg">
<g clip-path="url(#clip0_4_4019)">
<path d="M110 220.5C170.751 220.5 220 171.251 220 110.5C220 49.7487 170.751 0.5 110 0.5C49.2487 0.5 0 49.7487 0 110.5C0 171.251 49.2487 220.5 110 220.5Z" fill="#F28F01"/>
<path fill-rule="evenodd" clip-rule="evenodd" d="M125.795 94.7567L112.37 68.4188C115.164 62.345 116.561 58.8941 116.561 58.1004C116.561 55.2498 114.68 53.1655 110.924 51.8334H152.065C146.995 54.1111 142.485 59.8051 138.543 68.9226L125.795 94.7567ZM105.626 135.672L99.3664 148.371H136.281C152.998 148.371 164.176 145.244 169.813 138.984L150.086 169.167H49.2068C60.1006 167.075 71.0911 153.982 82.1716 129.867C85.9066 122.454 89.3304 115.608 92.4568 109.34L105.626 135.672ZM72.8757 68.9226C72.8757 83.4305 43.0026 134.995 34.834 139.833H66.6782L91.4746 89.7113L116.554 139.833H145.86C145.293 139.454 145.016 138.501 145.016 136.983C145.016 129.266 172.911 62.9386 187.001 59.2391H153.752L126.694 113.916L98.7994 59.2391H66.6782C70.8076 62.276 72.8757 65.5062 72.8757 68.9226Z" fill="white"/>
</g>
<defs>
<clipPath id="clip0_4_4019">
<rect width="220" height="220" fill="white" transform="translate(0 0.5)"/>
</clipPath>
</defs>
</svg>
