<svg width="220" height="221" viewBox="0 0 220 221" fill="none" xmlns="http://www.w3.org/2000/svg">
<g clip-path="url(#clip0_4_4022)">
<path d="M110 220.5C170.751 220.5 220 171.251 220 110.5C220 49.7487 170.751 0.5 110 0.5C49.2487 0.5 0 49.7487 0 110.5C0 171.251 49.2487 220.5 110 220.5Z" fill="#36A9CF"/>
<path fill-rule="evenodd" clip-rule="evenodd" d="M181.198 131.061C181.853 129.571 181.405 127.938 180.191 127.412C178.984 126.886 177.467 127.658 176.812 129.148C176.358 130.084 176.413 131.184 176.957 132.072L161.439 159.242C160.871 159.174 160.296 159.254 159.77 159.475L149.493 149.101C149.899 147.3 148.963 145.466 147.259 144.721V77.7937C147.894 77.5141 148.442 77.0705 148.845 76.5089L174.15 89.9368L174.232 90.2785C174.694 91.8365 176.094 92.7796 177.357 92.3696C178.612 91.9733 179.26 90.381 178.791 88.8161C178.363 87.3879 177.163 86.4859 175.991 86.643L163.694 62.8625L163.749 62.7941C164.646 61.4958 164.08 59.5414 162.508 58.4207C161.604 57.7383 160.432 57.511 159.335 57.8056L150.949 52.2158C150.782 50.9917 150.054 49.9124 148.976 49.2911C147.999 48.6934 146.808 48.5486 145.714 48.8947L126.223 37.8791C125.955 36.6902 124.816 35.6582 123.299 35.3986C121.63 35.1047 120.085 35.8291 119.54 37.0591L77.3455 44.6581C76.3929 44.019 75.1928 43.8595 74.104 44.2274C72.373 44.7673 71.2695 46.2912 71.5247 47.7263L42.1993 78.1696C40.8888 78.1012 39.5578 79.1057 39.006 80.6979C38.5531 81.8784 38.735 83.2057 39.4889 84.224L37.8405 123.086C36.9645 123.797 36.4956 125.129 36.7231 126.544C36.999 128.116 38.0543 129.305 39.2751 129.544L50.448 155.217C49.9928 156.393 50.4203 157.944 51.6066 159.01C52.4476 159.815 53.6279 160.171 54.779 159.967L81.9457 179.388C81.8768 180.802 83.0769 182.176 84.8149 182.551C85.8964 182.814 87.0398 182.578 87.9253 181.909L123.085 184.349C123.761 185.34 125.168 185.872 126.644 185.592C127.921 185.403 128.998 184.554 129.472 183.365L159.397 165.611C160.505 165.682 161.588 165.265 162.356 164.47C163.324 163.589 163.749 162.265 163.473 160.992L178.819 132.954C179.895 132.786 180.8 132.066 181.198 131.061ZM179.812 129.195C180.295 129.407 180.481 130.056 180.219 130.658C179.95 131.252 179.35 131.56 178.867 131.355C178.377 131.136 178.198 130.487 178.46 129.892C178.722 129.298 179.329 128.99 179.812 129.195ZM161.839 163.404C162.39 162.857 162.487 162.051 162.053 161.6C161.618 161.149 160.818 161.224 160.259 161.764C159.707 162.311 159.611 163.124 160.046 163.575C160.48 164.026 161.287 163.951 161.839 163.404ZM157.576 161.532L157.501 161.695L130.1 171.085C129.755 170.695 129.299 170.381 128.789 170.162L127.499 151.664C128.19 151.272 128.744 150.681 129.086 149.969H142.314C142.934 151.3 144.276 152.153 145.755 152.156C146.45 152.155 147.131 151.96 147.721 151.596L157.576 161.532ZM128.755 180.734L152.666 166.547L130.872 174.01C130.579 175.104 129.777 175.995 128.713 176.408L128.051 180.262C128.307 180.386 128.544 180.545 128.755 180.734ZM127.679 183.03C127.789 183.658 127.272 184.273 126.513 184.411C125.755 184.554 125.044 184.163 124.927 183.542C124.816 182.921 125.341 182.305 126.092 182.169C126.851 182.018 127.568 182.415 127.679 183.03ZM123.037 181.69C123.495 180.943 124.21 180.384 125.051 180.119L125.679 176.463C125.119 176.257 124.617 175.925 124.21 175.492L96.7739 179.88L123.037 181.69ZM88.4495 178.144L97.374 152.06C97.7975 151.962 98.201 151.794 98.5671 151.562L123.044 172.609L88.4495 178.144ZM85.8907 176.354L94.4014 151.486C93.8408 151.101 93.3933 150.575 93.1049 149.962H77.5456C77.4499 150.152 77.3415 150.334 77.2214 150.509L85.8907 176.354ZM86.4356 180.556C86.3115 181.171 85.5943 181.54 84.8354 181.376C84.0768 181.212 83.5734 180.583 83.7045 179.955C83.8355 179.34 84.5527 178.978 85.3114 179.135C86.07 179.306 86.5734 179.941 86.4356 180.556ZM56.6481 158.06L82.8906 176.825L74.6007 152.115C73.3877 152.271 72.1732 151.839 71.3384 150.953L56.6963 157.274C56.7174 157.537 56.7035 157.801 56.6551 158.06H56.6481ZM55.2275 154.609C54.9142 154.351 54.566 154.137 54.1929 153.974L47.6892 122.212L70.9729 146.054C70.5519 146.664 70.3131 147.379 70.2832 148.117L55.2275 154.609ZM54.0342 158.135C54.4481 157.671 54.3101 156.864 53.7377 156.345C53.1584 155.832 52.3583 155.791 51.9445 156.263C51.5307 156.741 51.6549 157.548 52.2342 158.06C52.8135 158.573 53.6204 158.607 54.0274 158.135H54.0342ZM49.7031 146.928L41.6889 128.526C42.3685 127.544 42.5612 126.31 42.213 125.17L44.3303 120.701L49.7031 146.928ZM41.4958 98.8683L40.5302 121.774L42.4475 117.742C41.8031 116.531 41.8638 115.071 42.6063 113.916L41.4958 98.8683ZM40.7234 82.4678C40.1371 82.2561 39.8544 81.4906 40.1164 80.7525H40.1094C40.3716 80.0146 41.0476 79.5909 41.6406 79.7959C42.2337 80.0078 42.5027 80.7731 42.2475 81.5112C41.9923 82.2491 41.3165 82.6728 40.7234 82.4678ZM45.9374 115.966C45.9374 115.187 45.3649 114.558 44.6752 114.558C43.9787 114.558 43.4061 115.187 43.4061 115.966C43.4061 116.752 43.9787 117.38 44.6752 117.38C45.3649 117.38 45.9374 116.752 45.9374 115.966ZM43.4061 84.1284C43.834 83.6875 44.1569 83.1575 44.351 82.5771C44.4409 82.3127 44.5056 82.0405 44.5443 81.764L57.6827 72.9282L45.4063 111.394L43.4061 84.1284ZM65.221 58.079L48.4341 75.5044L57.0344 69.7234C57.1499 68.9451 57.49 68.2166 58.0138 67.6255C58.553 66.9906 59.2826 66.5429 60.0966 66.3475L65.221 58.079ZM62.9242 67.4752L73.8695 49.831V49.8378C74.4993 49.9406 75.1446 49.8939 75.7524 49.7012C76.6161 49.4464 77.3657 48.9061 77.8767 48.1704L100.415 53.118C100.516 53.7611 100.777 54.3694 101.174 54.8877L93.8014 70.4272C92.6183 70.6745 91.6217 71.4594 91.1117 72.5456H77.5456C77.0275 71.4073 75.9693 70.6012 74.7257 70.3979C73.4823 70.1946 72.2188 70.6212 71.3592 71.5342L63.2553 69.0672C63.3037 68.516 63.1887 67.9627 62.9242 67.4752ZM74.2696 45.3687C73.5317 45.5942 73.0832 46.2707 73.2627 46.872C73.4488 47.4803 74.1937 47.781 74.9248 47.5555C75.6627 47.33 76.1179 46.6535 75.9317 46.0521C75.7524 45.4438 75.0145 45.1364 74.2696 45.3687ZM83.3459 46.2844L117.361 40.1479L105.45 48.8674C103.877 48.3161 102.125 48.852 101.14 50.1863L83.3459 46.2844ZM121.534 40.8108L108.85 50.1043L143.645 51.061L143.721 50.8014L125.279 40.3871C124.43 41.0033 123.359 41.2387 122.327 41.0363C122.055 40.9879 121.79 40.9124 121.534 40.8108ZM121.603 37.4692C121.706 36.8405 122.416 36.4442 123.175 36.5808C123.934 36.7175 124.465 37.3324 124.354 37.9475C124.244 38.5762 123.541 38.9725 122.782 38.8358C122.016 38.6992 121.499 38.0841 121.603 37.4692ZM145.473 55.2021C145.002 54.9139 144.592 54.5381 144.266 54.0951L107.968 53.0974C107.94 53.311 107.891 53.5217 107.823 53.7261L122.472 70.4613C124.215 70.086 125.988 70.9534 126.748 72.5524H142.314C142.694 71.7505 143.342 71.1035 144.148 70.7211L145.473 55.2021ZM144.231 74.2334C144.231 73.3792 144.914 72.6822 145.748 72.6822H145.755C146.597 72.6822 147.286 73.3792 147.286 74.2334C147.286 75.0875 146.597 75.7778 145.748 75.7778C144.914 75.7778 144.231 75.0875 144.231 74.2334ZM146.431 50.8149C146.052 51.4711 146.335 52.3593 147.066 52.783C147.79 53.2205 148.693 53.0358 149.066 52.3731C149.452 51.7169 149.169 50.8355 148.438 50.405C147.707 49.9745 146.811 50.159 146.431 50.8149ZM148.417 55.8102L173.432 87.1556L149.569 73.9122C149.455 72.4547 148.521 71.1857 147.155 70.6322L148.417 55.8102ZM157.618 59.8421L152.004 56.1109L170.122 79.4815L161.308 63.8534C160.571 63.7966 159.864 63.5388 159.266 63.1085C158.094 62.2817 157.473 60.9901 157.611 59.8421H157.618ZM160.735 61.2019C160.101 60.7509 159.88 59.9719 160.239 59.4525L160.246 59.4595C160.597 58.9331 161.397 58.8785 162.039 59.3227C162.666 59.7669 162.887 60.5527 162.528 61.0653C162.17 61.5915 161.363 61.6461 160.735 61.2019ZM121.823 74.2334C121.823 75.0672 122.479 75.7437 123.313 75.7437C124.146 75.7323 124.813 75.0584 124.81 74.2334C124.817 73.4058 124.148 72.7277 123.313 72.7165C122.478 72.7277 121.809 73.4058 121.816 74.2334H121.823ZM121.556 107.308C121.843 107.018 122.234 106.853 122.644 106.85C123.053 106.853 123.444 107.018 123.73 107.308C124.016 107.598 124.174 107.989 124.168 108.394C124.174 108.8 124.016 109.192 123.73 109.483C123.445 109.773 123.054 109.94 122.644 109.945C121.803 109.945 121.113 109.248 121.113 108.394C121.109 107.988 121.269 107.597 121.556 107.308ZM102.664 52.0176C102.664 52.8719 103.347 53.562 104.188 53.562C104.598 53.5585 104.989 53.3937 105.276 53.104C105.563 52.8144 105.723 52.4237 105.719 52.0176C105.719 51.1635 105.029 50.4664 104.188 50.4664C103.778 50.4719 103.387 50.6384 103.102 50.9293C102.816 51.2201 102.658 51.6117 102.664 52.0176ZM96.7877 71.0969L103.781 56.3707C104.487 56.4416 105.199 56.3162 105.836 56.0084L120.044 72.2312C119.455 73.1856 119.313 74.3456 119.652 75.412C119.992 76.4787 120.781 77.3471 121.816 77.7937V104.622C121.59 104.671 121.368 104.739 121.154 104.827L97.8429 76.1947C98.8632 74.4789 98.4072 72.2763 96.7877 71.0969ZM93.022 74.2334C93.022 75.0875 93.7117 75.7778 94.5532 75.7778C95.3877 75.7778 96.0774 75.0875 96.0774 74.2334C96.0774 73.3792 95.3877 72.6822 94.5532 72.6822C93.6989 72.6936 93.0143 73.3869 93.022 74.2334ZM74.0971 75.7437C73.2695 75.7437 72.6075 75.0672 72.6075 74.2334C72.6075 73.3998 73.2695 72.7165 74.0971 72.7165C74.9248 72.7165 75.5938 73.393 75.5938 74.2334C75.5938 75.0672 74.9248 75.7437 74.0971 75.7437ZM74.0971 146.737C73.6891 146.742 73.3001 146.908 73.0156 147.198C72.731 147.488 72.5743 147.877 72.5798 148.281C72.5798 149.136 73.2557 149.826 74.0971 149.826C74.5068 149.822 74.8984 149.657 75.1855 149.368C75.4726 149.078 75.6319 148.687 75.6283 148.281C75.6338 147.875 75.4752 147.483 75.1875 147.193C74.9001 146.903 74.5075 146.739 74.0971 146.737ZM58.8828 70.2426C58.4068 69.8259 58.4483 69.0126 58.9517 68.425C59.4689 67.8373 60.2552 67.7007 60.7242 68.1244C61.1931 68.5411 61.1587 69.3543 60.6483 69.9351C60.1379 70.5297 59.3448 70.6527 58.8828 70.2426ZM47.7444 113.929C48.1308 114.539 48.3343 115.246 48.3305 115.966C48.3305 116.717 48.1237 117.414 47.7651 117.982L72.6075 143.416V77.7937C71.2306 77.1928 70.3259 75.8601 70.2832 74.3702L61.8553 71.8075C61.5934 72.0429 61.3011 72.2429 60.9863 72.4021L47.7444 113.929ZM129.224 146.935C128.686 145.466 127.286 144.407 125.637 144.407C125.304 144.412 124.973 144.458 124.651 144.543L100.629 114.954C101.091 113.779 100.938 112.454 100.221 111.412C99.5045 110.37 98.3156 109.745 97.0429 109.74C96.0162 109.749 95.0354 110.163 94.3171 110.89C93.5988 111.617 93.2022 112.598 93.2152 113.615C93.2129 114.953 93.9062 116.197 95.0497 116.909V144.721C94.0776 145.146 93.3229 145.946 92.96 146.935H77.6834C77.3111 145.937 76.5592 145.131 75.5938 144.721V77.7937C76.5658 77.3688 77.3206 76.5691 77.6834 75.5796H90.9668C91.6202 77.3902 93.5377 78.4297 95.429 77.9987L119.071 107.028C118.906 107.458 118.823 107.916 118.823 108.394C118.81 109.41 119.206 110.39 119.923 111.117C120.639 111.843 121.618 112.258 122.644 112.269C124.778 112.242 126.488 110.509 126.465 108.394C126.472 107.124 125.854 105.931 124.81 105.196V77.7937C125.779 77.3673 126.531 76.5678 126.892 75.5796H142.176C142.533 76.5703 143.286 77.3713 144.259 77.7937V144.721C143.287 145.144 142.534 145.945 142.176 146.935H129.224ZM127.293 174.816C128.141 174.816 128.83 174.201 128.83 173.449C128.83 172.698 128.141 172.062 127.299 172.062H127.293C126.465 172.062 125.775 172.677 125.775 173.442C125.775 174.208 126.465 174.816 127.293 174.816ZM125.63 149.826C124.796 149.826 124.113 149.136 124.113 148.281C124.105 147.439 124.787 146.748 125.637 146.737C126.047 146.741 126.439 146.905 126.726 147.195C127.013 147.485 127.172 147.875 127.168 148.281C127.172 148.689 127.012 149.08 126.723 149.37C126.435 149.66 126.041 149.824 125.63 149.826ZM95.5119 113.615C95.5119 114.469 96.2016 115.159 97.0429 115.159C97.8844 115.159 98.5671 114.469 98.5671 113.615C98.5671 112.754 97.8844 112.071 97.0429 112.071C96.2016 112.071 95.5119 112.754 95.5119 113.615ZM95.458 147.195C95.7451 146.905 96.1367 146.741 96.5464 146.737C96.9554 146.741 97.3463 146.906 97.6323 147.195C97.9183 147.485 98.0761 147.876 98.0706 148.281C98.0706 149.136 97.3877 149.826 96.5464 149.826C95.7049 149.826 95.0152 149.136 95.0152 148.281C95.0115 147.875 95.1709 147.485 95.458 147.195ZM98.036 144.721C99.7337 145.459 100.673 147.278 100.284 149.074L125.065 170.374C125.29 170.244 125.528 170.137 125.775 170.053L124.506 151.985C122.893 151.46 121.806 149.964 121.816 148.281C121.816 147.598 121.989 146.962 122.299 146.416L98.5534 117.168C98.386 117.241 98.2131 117.301 98.036 117.346V144.721ZM146.839 147.193C147.125 147.481 147.283 147.87 147.28 148.275L147.286 148.281C147.286 149.136 146.597 149.826 145.755 149.826C144.914 149.826 144.224 149.136 144.224 148.281C144.221 147.875 144.38 147.485 144.667 147.195C144.954 146.905 145.346 146.741 145.755 146.737C146.163 146.741 146.553 146.905 146.839 147.193ZM38.9302 127.631C39.5508 127.528 39.9441 126.817 39.813 126.052C39.6749 125.28 39.0751 124.74 38.4611 124.849C37.8405 124.952 37.4542 125.669 37.5853 126.435C37.7094 127.207 38.3163 127.747 38.9302 127.631ZM176.101 90.0052C175.915 89.3833 176.177 88.7409 176.674 88.5838H176.681C177.177 88.4267 177.743 88.7957 177.922 89.4244C178.102 90.0463 177.853 90.6885 177.343 90.8458C176.846 91.0029 176.288 90.6271 176.101 90.0052Z" fill="white"/>
</g>
<defs>
<clipPath id="clip0_4_4022">
<rect width="220" height="220" fill="white" transform="translate(0 0.5)"/>
</clipPath>
</defs>
</svg>
