<svg width="220" height="221" viewBox="0 0 220 221" fill="none" xmlns="http://www.w3.org/2000/svg">
<g clip-path="url(#clip0_4_4025)">
<path d="M110 220.5C170.751 220.5 220 171.251 220 110.5C220 49.7487 170.751 0.5 110 0.5C49.2487 0.5 0 49.7487 0 110.5C0 171.251 49.2487 220.5 110 220.5Z" fill="#EDF0F4"/>
<path d="M148.809 62.8863L136.575 68.6866C136.524 68.712 136.448 68.7626 136.423 68.8132C136.372 68.864 136.347 68.9146 136.321 68.9905C136.296 69.0666 136.296 69.1172 136.296 69.1933C136.296 69.2692 136.321 69.3198 136.347 69.3959L154.939 108.58C161.853 123.17 160.004 134.214 149.493 139.229C140.982 143.256 133.662 140.445 127.937 130.617L105.901 84.1881C96.9851 65.3684 84.827 60.3786 70.3893 67.2428C61.0175 71.7007 55.5717 79.6543 55.6729 89.7605C55.6729 89.8872 55.6476 89.9886 55.5717 90.0898C55.4956 90.1912 55.3944 90.2418 55.2678 90.2673C55.1411 90.2926 55.0397 90.2926 54.9132 90.2418C54.8118 90.1912 54.7104 90.1153 54.6598 89.9886L49.8473 79.8569C49.8218 79.8063 49.7713 79.7302 49.7207 79.7049C49.6699 79.6543 49.6193 79.6288 49.5434 79.6035C49.4926 79.5529 49.442 79.5529 49.3661 79.5529C49.29 79.5529 49.2394 79.5782 49.1633 79.6035L36.9546 85.404C36.8279 85.4546 36.7267 85.556 36.7014 85.708C36.6506 85.8346 36.6506 85.9866 36.7267 86.1131L70.4907 157.314C70.5413 157.441 70.6679 157.542 70.7946 157.592C70.9213 157.643 71.0731 157.643 71.1998 157.567L83.434 151.767C83.4846 151.742 83.5605 151.691 83.5858 151.64C83.6366 151.59 83.6619 151.539 83.6872 151.463C83.7125 151.387 83.7125 151.336 83.7125 151.26C83.7125 151.184 83.6872 151.134 83.6619 151.057L65.5768 112.962C58.2059 97.4101 59.599 86.1639 70.8705 80.8194C79.5332 76.716 86.2707 79.4768 92.3246 90.0139C92.3246 90.0139 92.3499 90.0392 92.3499 90.0645L114.158 136.012C122.568 153.742 135.638 159.822 149.417 153.286C160.08 148.221 164.513 140.622 164.234 130.591C164.234 130.465 164.26 130.364 164.336 130.262C164.412 130.161 164.513 130.11 164.64 130.085C164.766 130.06 164.868 130.06 164.994 130.11C165.096 130.161 165.197 130.237 165.248 130.364L170.111 140.596C170.136 140.647 170.187 140.723 170.237 140.748C170.288 140.799 170.339 140.825 170.415 140.85C170.491 140.875 170.541 140.875 170.617 140.875C170.693 140.875 170.744 140.85 170.82 140.825L183.054 135.024C183.105 134.999 183.181 134.948 183.206 134.897C183.257 134.847 183.282 134.796 183.307 134.72C183.333 134.644 183.333 134.593 183.333 134.518C183.333 134.441 183.307 134.391 183.282 134.315L149.493 63.1394C149.442 63.0129 149.315 62.9116 149.189 62.861C149.062 62.8102 148.91 62.8355 148.809 62.8863Z" fill="#1E65F3"/>
</g>
<defs>
<clipPath id="clip0_4_4025">
<rect width="220" height="220" fill="white" transform="translate(0 0.5)"/>
</clipPath>
</defs>
</svg>
