<svg width="220" height="221" viewBox="0 0 220 221" fill="none" xmlns="http://www.w3.org/2000/svg">
<g clip-path="url(#clip0_4_4028)">
<path d="M110 220.5C170.751 220.5 220 171.251 220 110.5C220 49.7487 170.751 0.5 110 0.5C49.2487 0.5 0 49.7487 0 110.5C0 171.251 49.2487 220.5 110 220.5Z" fill="#82BD39"/>
<path d="M99.9365 134.517L110.916 148.982V180.167L69.666 161.858V81.2973C69.666 80.1079 70.1953 78.9734 71.1235 78.1829L75.8192 74.1609C76.7333 73.3702 77.9343 72.9933 79.1365 73.1196C80.3386 73.2459 81.4349 73.8643 82.1648 74.8279L119.737 124.08L140.492 136.772V68.8466L122.15 59.6959L121.256 102.294L111.549 89.4166L111.109 42.6666L152.166 61.7723V141.962L142.837 149.648L113.453 133.238L80.838 90.4547L80.391 155.451L99.813 165.399L99.9365 134.517Z" fill="white"/>
</g>
<defs>
<clipPath id="clip0_4_4028">
<rect width="220" height="220" fill="white" transform="translate(0 0.5)"/>
</clipPath>
</defs>
</svg>
