<svg width="220" height="221" viewBox="0 0 220 221" fill="none" xmlns="http://www.w3.org/2000/svg">
<g clip-path="url(#clip0_4_4031)">
<path d="M110 220.5C170.751 220.5 220 171.251 220 110.5C220 49.7487 170.751 0.5 110 0.5C49.2487 0.5 0 49.7487 0 110.5C0 171.251 49.2487 220.5 110 220.5Z" fill="#EDF0F4"/>
<path d="M178.477 136.883C178.481 119.184 178.481 101.485 178.477 83.786C178.549 81.9763 177.64 80.1754 176.187 79.1086C155.096 63.6981 134.005 48.2853 112.914 32.8703C111.623 31.861 109.959 31.4593 108.35 31.7686C107.368 31.9615 106.482 32.4532 105.693 33.0448C84.7516 48.3509 63.8096 63.6562 42.8665 78.9606C41.2774 80.0652 40.3338 81.8813 40.3433 83.8166C40.3309 101.511 40.3309 119.205 40.3433 136.898C40.3158 138.815 41.3104 140.675 42.8864 141.754C63.8272 157.053 84.7641 172.354 105.697 187.66C107.7 189.372 110.842 189.508 112.91 187.837C133.934 172.486 154.95 157.128 175.958 141.762C177.54 140.696 178.563 138.803 178.475 136.884" fill="#050708"/>
<path d="M102.118 44.4365C102.674 43.8072 103.237 42.8259 104.213 42.9567C107.534 42.9763 110.863 42.9048 114.184 42.992C114.759 43.3492 115.199 43.8851 115.691 44.3452C115.679 47.7725 115.679 51.2004 115.691 54.6293C114.703 54.6411 113.712 54.6852 112.723 54.6176C112.663 54.3752 112.545 53.8991 112.487 53.6576C112.487 51.0983 112.709 48.5357 112.495 45.9802C110.055 45.9839 107.616 45.9839 105.178 45.9802C105.166 46.8409 105.162 47.7065 105.154 48.5672C104.127 48.5672 103.095 48.5672 102.064 48.5593C102.071 47.1895 101.92 45.7969 102.118 44.4365Z" fill="white"/>
<path d="M93.8347 48.6184C94.9575 48.5751 96.0802 48.5751 97.207 48.6026C97.2226 53.3438 97.2424 58.0809 97.1951 62.8181C96.1235 62.8417 95.0526 62.8417 93.9851 62.8339C93.6287 58.1132 93.9134 53.3555 93.8347 48.6184Z" fill="white"/>
<path d="M122.397 53.7126C125.387 53.6732 128.372 53.6851 131.36 53.7047C131.376 54.8 131.376 55.8912 131.36 56.9857C128.371 57.017 125.381 57.0289 122.391 56.9778C122.38 55.8904 122.38 54.7959 122.391 53.7126" fill="white"/>
<path d="M104.264 55.3273C105.47 55.2998 106.676 55.3037 107.883 55.3037C109.037 57.5491 110.485 59.6444 111.423 61.9968C110.316 62.0489 109.205 62.0488 108.098 62.0527C106.783 59.8316 105.513 57.5845 104.264 55.3273Z" fill="white"/>
<path d="M116.58 59.2754C117.623 59.2517 118.666 59.2558 119.714 59.2714C122.555 63.6774 125.316 68.1353 128.177 72.5311C128.177 73.8685 128.177 75.2061 128.153 76.5436C127.843 76.4878 127.233 76.3808 126.928 76.3296C124.5 72.7104 122.266 68.9622 119.865 65.3272C119.826 69.4185 119.877 73.5098 119.838 77.601C118.751 77.621 117.661 77.621 116.569 77.601C116.556 71.4949 116.536 65.3848 116.58 59.2754Z" fill="white"/>
<path d="M129.545 61.7545C130.656 61.7309 131.771 61.7309 132.882 61.7624C132.889 62.8096 132.889 63.8616 132.882 64.9095C131.771 64.937 130.656 64.937 129.549 64.9174C129.541 63.8652 129.541 62.8109 129.549 61.7545" fill="white"/>
<path d="M74.6218 62.7899C75.4983 62.7742 76.3755 62.7782 77.252 62.7861C79.5927 62.6286 81.9294 62.675 84.271 62.8096C84.2788 63.8254 84.271 64.8451 84.2631 65.8608C80.8012 67.9394 77.4746 70.2446 73.9632 72.2336C72.9279 71.8404 72.138 71.0119 71.293 70.3211C73.5903 68.9206 75.8398 67.4446 78.1608 66.0833C76.986 66.0236 75.8083 66.0315 74.6337 66.0197C74.6131 64.9403 74.6093 63.8637 74.6218 62.7899Z" fill="white"/>
<path d="M102.32 63.996C103.395 63.9645 104.474 63.9683 105.545 63.996C105.573 65.0755 105.573 66.1501 105.545 67.2296C104.47 67.261 103.395 67.2624 102.32 67.2335C102.295 66.154 102.295 65.0749 102.32 63.996Z" fill="white"/>
<path d="M86.5352 67.1541C88.2575 69.7648 89.9278 72.4114 91.6728 75.0063C93.4148 72.38 95.0969 69.7136 96.8545 67.0991C96.8545 68.83 96.9695 70.579 96.8191 72.3084C95.2243 75.0417 93.3794 77.6247 91.6611 80.2832C89.9711 77.6687 88.181 75.1093 86.5785 72.4437C86.3966 70.6892 86.5273 68.9158 86.5352 67.1541Z" fill="white"/>
<path d="M134.21 67.5948C139.379 67.5712 144.549 67.5725 149.719 67.5987C149.719 68.6459 149.719 69.6978 149.714 70.7458C144.548 70.7579 139.38 70.7592 134.21 70.7498C134.205 69.6978 134.202 68.6435 134.21 67.5948Z" fill="white"/>
<path d="M106.846 71.6892C107.886 71.6694 108.929 71.6694 109.973 71.6814C110.025 76.2674 109.973 80.8583 110.001 85.4499C109.517 85.9102 109.037 86.3785 108.565 86.8465C104.982 86.8859 101.4 86.8465 97.8205 86.8661C97.3485 86.4138 96.8646 85.981 96.4397 85.4933C96.2573 84.0888 96.3918 82.6561 96.3878 81.2446C97.3844 81.2367 98.3841 81.2367 99.3869 81.2446C99.4146 82.0542 99.4106 82.863 99.3989 83.6726C101.863 83.9504 104.346 83.7513 106.822 83.8111C106.835 79.7709 106.795 75.7246 106.846 71.6892Z" fill="white"/>
<path d="M156.825 85.2462C156.793 81.7843 156.793 78.3206 156.825 74.8552C157.909 74.8316 158.991 74.8275 160.079 74.8552C160.114 78.3169 160.114 81.7819 160.079 85.25C158.994 85.2682 157.912 85.2641 156.828 85.25" fill="white"/>
<path d="M141.388 77.4703C143.434 77.4507 145.49 77.1328 147.525 77.4624C148.858 81.8071 150.001 86.2186 151.326 90.571C150.279 90.5788 149.227 90.5788 148.179 90.5788C147.179 87.2028 146.326 83.7865 145.294 80.4176C144.719 80.4255 144.144 80.4334 143.568 80.4372C142.711 83.8377 141.68 87.1863 140.795 90.5743C139.739 90.5779 138.684 90.5765 137.629 90.5702C138.928 86.2186 140.147 81.837 141.388 77.4703Z" fill="white"/>
<path d="M53.9335 79.129C58.647 79.1015 63.3645 79.0897 68.0775 79.129C68.105 80.2125 68.105 81.2912 68.0813 82.3745C63.3607 82.4178 58.6462 82.4061 53.9287 82.3784C53.9137 81.2951 53.9137 80.2053 53.9335 79.1251" fill="white"/>
<path d="M70.2986 79.133C71.3701 79.1251 72.441 79.1211 73.5164 79.133C73.5401 80.2202 73.5401 81.3108 73.5164 82.398C72.441 82.4099 71.3701 82.4059 70.2986 82.398C70.2859 81.3108 70.2859 80.2273 70.2986 79.1409" fill="white"/>
<path d="M82.1469 79.2667C83.1979 79.2588 84.2538 79.2627 85.305 79.2746C85.3365 81.7921 85.3208 84.317 85.3208 86.8371C84.253 86.845 83.1862 86.8488 82.1232 86.8371C82.1122 84.3194 82.0792 81.7883 82.1469 79.2627" fill="white"/>
<path d="M164.542 81.5285C165.752 81.505 166.966 81.5089 168.176 81.505C169.374 83.7268 170.83 85.8322 171.723 88.206C170.621 88.2453 169.513 88.2493 168.41 88.2539C167.105 86.0203 165.864 83.7496 164.542 81.5285Z" fill="white"/>
<path d="M116.833 84.2233C117.882 84.2154 118.931 84.2154 119.98 84.2233C120.003 87.6749 119.987 91.1266 119.987 94.5789C118.932 94.5868 117.88 94.5906 116.825 94.5906C116.825 91.1359 116.82 87.6764 116.833 84.2193" fill="white"/>
<path d="M127.898 88.4208C127.886 87.3414 127.886 86.2597 127.898 85.1755C128.957 85.1597 130.022 85.1597 131.084 85.1872C131.084 86.2667 131.092 87.3454 131.076 88.4249C130.018 88.4287 128.952 88.4249 127.894 88.4249" fill="white"/>
<path d="M68.0195 93.2051C70.5625 91.3483 73.2768 89.7339 75.8875 87.9801C77.6135 87.9999 79.335 87.9801 81.0613 88.0038C78.4979 89.8369 75.7725 91.42 73.1934 93.2288C75.8442 94.8953 78.4429 96.641 81.0771 98.3232C79.3037 98.3546 77.5301 98.335 75.7567 98.339C73.1974 96.6017 70.5389 95.0007 68.0195 93.2051Z" fill="white"/>
<path d="M156.828 90.1943C157.915 90.1706 159.002 90.1668 160.094 90.1943C160.12 91.2816 160.117 92.3642 160.086 93.4515C159.002 93.475 157.916 93.4712 156.832 93.4515C156.809 92.3679 156.809 91.2847 156.832 90.2021" fill="white"/>
<path d="M45.2173 90.6387C50.646 90.6074 56.0842 90.5954 61.5202 90.6466C61.532 91.6742 61.532 92.7056 61.536 93.737C59.108 95.328 56.6799 96.9267 54.1842 98.4027C53.1293 98.0179 52.3314 97.1439 51.4305 96.5026C52.7751 95.6536 54.1402 94.8323 55.4431 93.9235C52.0348 93.9077 48.6272 93.9433 45.215 93.9039C45.1992 92.8165 45.1992 91.7283 45.215 90.6387" fill="white"/>
<path d="M91.704 93.7891C96.4058 93.8088 101.107 93.7655 105.805 93.8088C105.919 94.878 105.904 95.9571 105.761 97.0228C101.075 97.0424 96.3941 97.0266 91.7127 97.0307C91.7042 95.9464 91.7015 94.8659 91.704 93.7891Z" fill="white"/>
<path d="M108.869 93.8085C109.999 93.785 111.126 93.785 112.257 93.8243C112.261 94.8795 112.26 95.9324 112.253 96.9824C111.126 97.0139 109.995 97.0139 108.87 96.9943C108.859 95.9313 108.858 94.87 108.869 93.8085Z" fill="white"/>
<path d="M123.656 98.3557C123.508 97.2409 124.652 96.6696 125.239 95.904C126.619 95.904 127.999 95.8961 129.381 95.9238C129.412 96.9631 129.412 98.0024 129.396 99.0465C128.524 99.0623 127.646 99.0623 126.774 99.074V106.478C130.833 106.505 134.892 106.462 138.951 106.501C138.962 107.552 138.962 108.604 138.935 109.648C134.364 109.68 129.789 109.652 125.219 109.664C124.636 108.903 123.517 108.326 123.66 107.22C123.639 104.267 123.639 101.312 123.66 98.3557" fill="white"/>
<path d="M139.052 97.3711C140.171 97.3319 141.297 97.3319 142.42 97.3711C142.432 98.4423 142.432 99.5135 142.42 100.585C141.297 100.625 140.178 100.625 139.056 100.585C139.044 99.5097 139.044 98.4388 139.056 97.3634" fill="white"/>
<path d="M149.741 97.3711C154.47 97.3073 159.196 97.3515 163.925 97.3475C163.933 98.4389 163.933 99.5341 163.92 100.625C159.195 100.625 154.47 100.664 149.744 100.605C149.728 99.5253 149.728 98.4475 149.744 97.3711" fill="white"/>
<path d="M84.2306 101.144C86.8812 101.141 89.5273 101.144 92.177 101.141C92.2007 102.242 92.2007 103.344 92.177 104.445C89.5304 104.449 86.8853 104.449 84.2416 104.445C84.1954 103.344 84.193 102.243 84.2345 101.144" fill="white"/>
<path d="M101.708 101.145C105.866 101.141 110.024 101.145 114.181 101.137C115.692 100.901 117.205 102.47 117.013 103.961C117.005 107.016 117.003 110.073 117.009 113.135C116.477 113.71 115.942 114.277 115.406 114.848C114.029 114.848 112.657 114.848 111.28 114.832C111.269 113.783 111.267 112.736 111.276 111.69C112.137 111.678 112.999 111.67 113.859 111.659C113.859 109.254 113.859 106.846 113.867 104.441C109.828 104.08 105.758 104.381 101.707 104.275C101.697 103.226 101.697 102.182 101.708 101.145Z" fill="white"/>
<path d="M72.399 102.112C74.4306 102.101 76.458 102.089 78.4896 102.12C79.7194 106.512 81.0403 110.88 82.2032 115.293C81.1803 115.293 80.1575 115.293 79.1402 115.3C78.097 111.912 77.2913 108.46 76.2159 105.088C75.6367 105.123 75.0577 105.167 74.4779 105.211C73.7084 108.607 72.6091 111.916 71.7682 115.297C70.717 115.297 69.665 115.297 68.6211 115.285C69.872 110.894 71.119 106.496 72.399 102.112Z" fill="white"/>
<path d="M161.026 106.08C164.567 106.045 168.112 106.009 171.648 106.092C172.541 106.643 173.548 107.537 173.354 108.711C173.354 111.228 173.338 113.753 173.354 116.273C173.322 117.483 173.377 118.693 173.342 119.903C173.398 120.891 173.128 121.863 173.185 122.855C172.177 122.855 171.169 122.855 170.161 122.843C170.173 118.297 170.161 113.746 170.169 109.199C167.696 109.132 165.226 109.183 162.753 109.164C162.749 110.009 162.749 110.854 162.734 111.703C161.694 111.718 160.654 111.724 159.614 111.718C159.595 110.326 159.599 108.929 159.602 107.537C160.082 107.057 160.554 106.572 161.026 106.08Z" fill="white"/>
<path d="M60.2716 106.207H63.5603C63.5681 109.662 63.5603 113.114 63.5603 116.566H60.2559C60.2716 113.115 60.2597 109.659 60.2676 106.207" fill="white"/>
<path d="M49.9554 109.096C51.0349 109.08 52.1136 109.112 53.189 109.183C53.2011 110.207 53.2011 111.232 53.189 112.258C52.1017 112.27 51.0153 112.274 49.9279 112.258C49.916 111.202 49.92 110.151 49.9554 109.1" fill="white"/>
<path d="M88.5945 128.033C88.5663 121.923 88.5648 115.812 88.5907 109.701C89.6623 109.685 90.7331 109.685 91.8047 109.709C94.3222 113.768 96.9188 117.783 99.4898 121.813C100.601 123.245 99.9344 125.166 100.113 126.832C99.7401 126.832 99.3672 126.84 98.9981 126.848C96.685 123.174 94.2689 119.563 92.0548 115.833C91.6544 119.888 91.9833 123.978 91.8525 128.049C90.763 128.06 89.6771 128.06 88.5945 128.033Z" fill="white"/>
<path d="M102.883 112.051C103.973 112.027 105.064 112.025 106.156 112.043C106.171 114.713 106.167 117.384 106.156 120.053C105.061 120.073 103.969 120.073 102.875 120.045C102.857 117.38 102.852 114.713 102.875 112.051" fill="white"/>
<path d="M122.664 115.622C123.732 115.614 124.802 115.61 125.874 115.622C125.894 116.71 125.894 117.797 125.874 118.884C124.802 118.888 123.732 118.888 122.664 118.884C122.651 117.8 122.651 116.715 122.664 115.626" fill="white"/>
<path d="M133.068 115.765C136.393 115.721 139.718 115.745 143.047 115.753C143.181 116.724 143.265 117.713 143.169 118.697C142.855 119.336 142.102 119.082 141.539 119.141C138.706 119.058 135.865 119.304 133.052 118.984C133.033 117.907 133.033 116.836 133.068 115.765Z" fill="white"/>
<path d="M146.482 116.225C147.554 116.209 148.636 116.137 149.708 116.304C149.811 120.056 149.751 123.822 149.732 127.58C148.648 127.6 147.567 127.6 146.486 127.58C146.45 123.796 146.45 120.013 146.486 116.229" fill="white"/>
<path d="M116.83 118.448C117.877 118.448 118.929 118.44 119.977 118.448C119.989 119.528 119.992 120.61 119.977 121.698C118.928 121.713 117.879 121.713 116.83 121.698C116.822 120.615 116.822 119.528 116.83 118.444" fill="white"/>
<path d="M66.3879 120.756C70.1252 120.352 73.8985 120.673 77.6516 120.554C78.6186 120.541 79.5855 120.585 80.5477 120.684C80.5634 121.776 80.5594 122.871 80.5477 123.961C75.827 123.953 71.1165 123.985 66.4037 123.945C66.3753 122.882 66.3753 121.821 66.3841 120.756" fill="white"/>
<path d="M45.222 123.169C45.7342 122.669 46.2496 122.165 46.7657 121.665C48.1308 121.657 49.4949 121.654 50.8569 121.681C50.8727 122.713 50.8727 123.748 50.8648 124.779C50.0158 124.799 49.1708 124.803 48.322 124.811C48.3416 127.271 48.3101 129.731 48.3416 132.191C52.3604 132.203 56.38 132.163 60.399 132.21C60.4187 133.226 60.4187 134.238 60.4108 135.254C59.4147 135.258 58.4147 135.262 57.421 135.262C53.8546 135.226 50.2833 135.321 46.7207 135.218C46.126 134.881 45.5265 134.325 45.2566 133.695C45.163 130.188 45.2456 126.677 45.2258 123.169" fill="white"/>
<path d="M128.599 125.215C129.135 124.711 129.675 124.207 130.226 123.715C133.702 123.743 137.178 123.715 140.653 123.727C141.177 124.226 141.7 124.731 142.227 125.226C142.231 128.666 142.231 132.105 142.227 135.542C141.167 135.55 140.108 135.542 139.053 135.514C139.053 132.622 139.029 129.734 139.064 126.842C136.625 126.838 134.197 126.842 131.764 126.838C131.768 127.718 131.764 128.599 131.744 129.48C130.701 129.495 129.658 129.495 128.618 129.492C128.584 128.066 128.591 126.642 128.596 125.215" fill="white"/>
<path d="M150.915 131.286C154.771 128.775 158.664 126.329 162.552 123.875C163.48 124.494 164.393 125.145 165.298 125.795C162.5 127.579 159.704 129.358 156.911 131.132C161.017 131.175 165.124 131.132 169.234 131.156C169.242 132.247 169.242 133.342 169.234 134.433C163.131 134.453 157.028 134.453 150.927 134.433C150.911 133.381 150.911 132.33 150.919 131.285" fill="white"/>
<path d="M107.279 131.908C111.148 129.333 115.139 126.945 119.007 124.37C119.927 125.005 120.836 125.652 121.773 126.259C119.098 128.139 116.258 129.778 113.532 131.591C117.615 131.662 121.697 131.583 125.78 131.634C125.807 132.757 125.807 133.883 125.78 135.006C119.67 135.041 113.559 135.018 107.448 135.018C107.29 133.988 107.29 132.945 107.283 131.904" fill="white"/>
<path d="M67.1191 129.131C68.8169 131.728 70.5195 134.324 72.1978 136.927C73.9986 134.356 75.61 131.656 77.3951 129.071C77.4306 130.821 77.403 132.575 77.4187 134.325C75.6415 136.927 74.0144 139.633 72.1899 142.2C70.4999 139.621 68.8609 137.008 67.0995 134.476C67.082 132.694 67.0639 130.909 67.1191 129.131Z" fill="white"/>
<path d="M85.73 135.793C85.6905 134.682 85.6867 133.571 85.7496 132.464C86.8173 132.452 87.892 132.456 88.9596 132.543C88.9832 133.625 88.9832 134.709 88.9596 135.792C87.8865 135.801 86.8109 135.805 85.7338 135.792" fill="white"/>
<path d="M100.858 137.396C101.942 137.384 103.028 137.38 104.112 137.396C104.139 141.431 104.112 145.466 104.127 149.501C103.358 149.532 102.588 149.568 101.818 149.639C101.572 149.591 101.08 149.505 100.834 149.461C100.858 145.442 100.814 141.419 100.858 137.4" fill="white"/>
<path d="M123.27 139.927C125.315 139.888 127.355 139.916 129.399 139.904C130.653 144.296 131.908 148.688 133.165 153.08C132.11 153.08 131.054 153.08 130.003 153.056C129.106 149.7 128.134 146.363 127.222 143.011C126.65 142.975 126.079 142.951 125.508 142.923C124.564 146.311 123.622 149.698 122.683 153.085C121.628 153.085 120.576 153.085 119.525 153.069C120.81 148.697 122.088 144.325 123.27 139.93" fill="white"/>
<path d="M76.952 147.204C80.8444 144.704 84.7286 142.189 88.6751 139.772C89.5839 140.411 90.5005 141.031 91.4005 141.685C88.5761 143.443 85.8065 145.292 82.9536 147.001C87.0881 147.08 91.2258 146.99 95.3644 147.049C95.384 148.137 95.388 149.223 95.3565 150.311C89.2267 150.33 83.0968 150.359 76.967 150.299C76.9364 149.267 76.9403 148.235 76.952 147.204Z" fill="white"/>
<path d="M109.098 140.57C110.237 140.583 111.376 140.514 112.506 140.364C113.843 142.567 115.422 144.752 116.109 147.259C115.041 147.267 113.974 147.267 112.911 147.275C111.655 145.03 110.384 142.795 109.098 140.57Z" fill="white"/>
<path d="M154.154 141.915C155.269 141.88 156.388 141.88 157.506 141.903C157.51 142.97 157.51 144.039 157.506 145.109C156.388 145.137 155.272 145.137 154.157 145.09C154.138 144.03 154.138 142.975 154.157 141.915" fill="white"/>
<path d="M145.941 150.453C147.291 148.283 148.734 146.176 150.091 144.01C150.131 145.617 150.155 147.228 150.115 148.838C150.154 149.442 149.715 149.91 149.433 150.398C147.938 152.608 146.505 154.861 145.037 157.085C143.272 154.451 141.562 151.789 139.816 149.139C139.808 147.377 139.792 145.616 139.836 143.858C141.549 146.425 143.168 149.059 144.922 151.602C145.417 151.393 145.64 150.862 145.945 150.453" fill="white"/>
<path d="M62.9038 147.331C65.7647 147.236 68.6293 147.283 71.4939 147.304C71.5096 148.363 71.5773 149.428 71.442 150.485C68.6009 150.624 65.7489 150.557 62.9078 150.505C62.8961 149.446 62.8961 148.39 62.9038 147.331Z" fill="white"/>
<path d="M97.785 154.247C102.371 154.179 106.954 154.247 111.54 154.211C112.065 154.736 112.589 155.264 113.114 155.794C113.094 159.298 113.102 162.805 113.106 166.316C112.646 166.796 112.191 167.281 111.741 167.772C110.273 167.804 108.805 167.808 107.335 167.764C107.355 166.772 107.228 165.761 107.466 164.789C108.295 164.701 109.128 164.733 109.965 164.725C109.973 162.27 109.965 159.817 109.965 157.366C105.902 157.342 101.835 157.417 97.7771 157.326C97.7644 156.299 97.7644 155.272 97.7771 154.247" fill="white"/>
<path d="M75.7473 155.413C76.8183 155.397 77.891 155.4 78.9651 155.421C78.9809 156.491 78.9822 157.565 78.9692 158.643C77.8897 158.658 76.8145 158.66 75.7434 158.647C75.7288 157.567 75.7288 156.489 75.7434 155.413" fill="white"/>
<path d="M132.494 157.146C133.708 156.123 134.811 157.828 135.851 158.326C135.851 158.421 135.851 158.616 135.851 158.711C133.137 160.461 130.36 162.115 127.705 163.956L129.245 163.945C130.062 163.945 130.882 163.954 131.705 163.972C131.713 165.044 131.713 166.118 131.697 167.19C128.357 167.238 125.016 167.226 121.675 167.198C121.608 166.186 121.597 165.17 121.588 164.163C125.154 161.724 128.876 159.521 132.49 157.146" fill="white"/>
<path d="M81.7789 160.122C86.1157 160.106 90.4563 160.082 94.7923 160.133C94.8002 161.2 94.8002 162.269 94.7923 163.34C90.4517 163.403 86.115 163.375 81.7751 163.355C81.7553 162.277 81.7593 161.197 81.7751 160.122" fill="white"/>
<path d="M93.3359 168.358C94.5577 168.347 95.7796 168.343 97.0022 168.366C98.1329 170.616 99.6364 172.687 100.506 175.063C99.4107 175.123 98.3193 175.123 97.225 175.131C95.8874 172.897 94.6372 170.61 93.3359 168.358Z" fill="white"/>
<path d="M114.994 171.779C116.062 171.771 117.129 171.787 118.192 171.857C118.212 172.925 118.204 173.996 118.069 175.06C117.05 175.064 116.032 175.064 115.018 175.06C114.979 173.958 114.979 172.87 114.994 171.779Z" fill="white"/>
<path d="M107.553 182.396C107.553 179.905 107.497 177.409 107.593 174.917C108.668 174.917 109.747 174.977 110.819 175.074C110.831 177.515 110.831 179.956 110.819 182.399C109.73 182.415 108.641 182.415 107.553 182.399" fill="white"/>
</g>
<defs>
<clipPath id="clip0_4_4031">
<rect width="220" height="220" fill="white" transform="translate(0 0.5)"/>
</clipPath>
</defs>
</svg>
