<svg width="220" height="221" viewBox="0 0 220 221" fill="none" xmlns="http://www.w3.org/2000/svg">
<g clip-path="url(#clip0_4_4094)">
<path d="M110 220.5C170.751 220.5 220 171.251 220 110.5C220 49.7487 170.751 0.5 110 0.5C49.2487 0.5 0 49.7487 0 110.5C0 171.251 49.2487 220.5 110 220.5Z" fill="#EDF0F4"/>
<path fill-rule="evenodd" clip-rule="evenodd" d="M143.161 126.179C147.993 131.174 153.732 133.142 160.377 133.293C173.062 133.142 183.481 122.849 183.331 109.982C183.331 96.9643 173.062 86.6712 160.226 86.6712C152.675 86.6712 146.785 89.85 141.651 95.148C136.818 100.295 129.721 100.295 124.888 95.9048C120.206 91.5151 119.753 84.8547 123.831 79.4053C124.435 78.7243 125.039 78.005 125.643 77.286C126.247 76.5672 126.851 75.8481 127.455 75.167C134.553 66.6903 134.704 54.732 128.059 46.1039C121.566 37.4757 109.635 34.751 99.5175 39.4436C89.7014 43.9846 84.7179 54.732 86.9832 65.4793C88.0558 70.7216 91.1531 74.4121 94.3713 78.2469C94.7772 78.7305 95.1851 79.2165 95.591 79.708C99.8194 85.0062 99.5175 91.8177 94.9869 96.2075C90.3055 100.749 83.2078 100.749 78.0732 96.0562C77.6201 95.6776 77.1671 95.2235 76.7141 94.7694C76.2609 94.3153 75.8079 93.8612 75.3549 93.4828C67.8041 87.1253 57.384 86.0657 48.6251 90.7581C40.6213 95.148 35.6377 104.836 36.8459 113.918C38.2051 123.606 45.0007 131.174 54.5146 133.445C63.5757 135.564 71.4284 132.991 77.7712 126.179C82.9056 120.881 89.7014 120.275 94.8359 124.665C100.272 129.206 100.424 136.018 95.591 142.073C95.0777 142.759 94.5213 143.423 93.9625 144.09C93.0418 145.19 92.1145 146.297 91.3626 147.522C86.0769 155.999 85.775 164.627 91.0605 173.104C96.044 181.278 105.709 185.214 115.374 183.397C124.133 181.883 131.231 174.769 133.345 165.838C135.61 156.302 131.231 149.036 125.492 142.073C120.206 135.715 120.509 128.752 125.794 124.211C130.778 119.821 137.573 120.578 143.161 126.179ZM110.088 74.2588C117.639 74.1074 123.68 68.0526 123.68 60.4841C123.68 52.9155 117.035 46.5581 109.484 46.7093C101.632 47.012 95.44 53.2182 95.7421 60.7867C95.893 68.5067 102.236 74.4101 110.088 74.2588ZM60.5553 124.816C68.106 124.816 74.1467 118.762 74.1467 111.193C74.1467 103.473 67.9552 97.2671 60.2533 97.4184C52.2496 97.5698 46.2089 103.625 46.36 111.193C46.36 119.064 52.5515 124.816 60.5553 124.816ZM173.968 110.739C173.666 118.308 167.323 124.06 159.773 123.757C151.769 123.606 146.03 117.551 146.181 109.68C146.332 101.96 152.675 96.2075 160.679 96.3589C168.23 96.5102 174.27 103.019 173.968 110.739ZM110.844 174.466C118.394 174.466 124.435 168.411 124.586 160.994C124.737 153.577 118.545 147.219 111.146 147.068C103.142 146.917 96.6481 153.123 96.6481 160.843C96.6481 168.26 103.142 174.315 110.844 174.466Z" fill="#191F27"/>
<path fill-rule="evenodd" clip-rule="evenodd" d="M96.8008 160.843C96.8008 168.411 103.143 174.466 110.996 174.466C118.396 174.466 124.588 168.411 124.739 160.994C124.739 153.425 118.698 147.219 111.298 147.068C103.294 146.917 96.8008 153.123 96.8008 160.843ZM120.057 160.843C119.906 165.989 115.98 169.925 110.845 169.925C105.862 170.076 101.18 165.535 101.18 160.54C101.331 155.999 105.862 151.609 110.694 151.458C115.829 151.306 120.057 155.696 120.057 160.843Z" fill="white"/>
<path fill-rule="evenodd" clip-rule="evenodd" d="M146.183 109.68C146.032 117.551 151.77 123.454 159.774 123.757C167.325 124.06 173.667 118.308 173.97 110.739C174.423 103.171 168.382 96.5104 160.68 96.359C152.676 96.2076 146.334 101.96 146.183 109.68ZM169.59 110.285C169.439 115.432 165.362 119.367 160.227 119.216C154.79 119.216 150.713 115.129 150.713 109.831C150.713 104.987 155.243 100.597 160.378 100.597C165.513 100.749 169.741 105.138 169.59 110.285Z" fill="white"/>
<path fill-rule="evenodd" clip-rule="evenodd" d="M95.7449 60.7868C95.896 68.5068 102.239 74.4103 110.091 74.2589C117.642 74.1074 123.683 68.0527 123.683 60.4841C123.683 52.9156 117.038 46.4067 109.487 46.7094C101.786 47.0122 95.5938 53.2184 95.7449 60.7868ZM109.94 51.402C115.075 51.402 119.152 55.4888 119.152 60.6356C119.152 65.6307 115.075 69.8691 110.091 70.0204C105.259 70.1718 100.275 65.4794 100.275 60.6356C100.275 55.6403 104.655 51.402 109.94 51.402Z" fill="white"/>
<path fill-rule="evenodd" clip-rule="evenodd" d="M46.3582 111.345C46.3582 119.064 52.5499 124.817 60.5537 124.817C68.1044 124.817 74.1451 118.762 74.1451 111.345C74.1451 103.473 67.9536 97.4185 60.2517 97.5699C52.3988 97.7214 46.2073 103.776 46.3582 111.345ZM50.7376 111.042C50.7376 106.047 55.2682 101.808 60.4028 101.808C65.6883 101.808 69.7656 106.047 69.6147 111.345C69.6147 116.189 65.6883 120.427 61.0067 120.427C55.8723 120.427 50.7376 115.734 50.7376 111.042Z" fill="white"/>
<path d="M110.843 169.925C105.859 169.925 101.178 165.384 101.178 160.54C101.178 155.847 105.708 151.458 110.692 151.458C115.826 151.306 120.206 155.696 120.055 160.843C120.055 166.141 116.128 169.925 110.843 169.925Z" fill="#378241"/>
<path d="M160.227 119.216C154.941 119.064 150.713 115.129 150.713 109.982C150.713 105.138 155.243 100.749 160.378 100.749C165.512 100.749 169.741 105.29 169.59 110.436C169.439 115.432 165.361 119.367 160.227 119.216Z" fill="#378241"/>
<path d="M119.152 60.6356C119.152 65.7822 115.075 69.8692 110.091 70.0205C105.259 70.1719 100.275 65.4795 100.275 60.6356C100.275 55.6403 104.655 51.4019 109.94 51.4019C115.075 51.4019 119.152 55.4889 119.152 60.6356Z" fill="#378241"/>
<path d="M60.4033 101.808C65.6889 101.808 69.7663 105.895 69.6154 111.345C69.6154 116.34 65.6889 120.427 61.0073 120.427C55.8729 120.427 50.7383 115.734 50.7383 111.042C50.7383 106.198 55.2688 101.808 60.4033 101.808Z" fill="#378241"/>
</g>
<defs>
<clipPath id="clip0_4_4094">
<rect width="220" height="220" fill="white" transform="translate(0 0.5)"/>
</clipPath>
</defs>
</svg>
