<svg width="220" height="221" viewBox="0 0 220 221" fill="none" xmlns="http://www.w3.org/2000/svg">
<g clip-path="url(#clip0_4_4105)">
<path d="M110 220.5C170.751 220.5 220 171.251 220 110.5C220 49.7487 170.751 0.5 110 0.5C49.2487 0.5 0 49.7487 0 110.5C0 171.251 49.2487 220.5 110 220.5Z" fill="#008FBB"/>
<path fill-rule="evenodd" clip-rule="evenodd" d="M104.485 115.387C107.992 115.387 110.834 117.985 110.834 121.19C110.834 124.394 107.992 127 104.485 127H91.7927C90.7815 127.002 89.7821 126.779 88.8669 126.345L51.849 103.773H41.1836C37.6768 103.773 34.834 101.175 34.834 97.9699C34.834 94.7652 37.6698 92.1667 41.1836 92.1667H53.8755C55.1766 92.1619 56.4517 92.5343 57.5483 93.2395L93.7362 115.394H104.485V115.387ZM161.879 115.387H149.187V115.394H144.346L108.158 93.2395C107.12 92.5638 105.854 92.1667 104.485 92.1667H91.7927C88.2791 92.1667 85.4432 94.7652 85.4432 97.9699C85.4432 101.175 88.2859 103.773 91.7927 103.773H102.458L139.476 126.345C140.391 126.779 141.391 127.003 142.402 127H161.879C165.393 127 168.229 124.394 168.229 121.19C168.229 117.985 165.386 115.387 161.879 115.387ZM174.302 109.583C174.302 112.788 177.144 115.387 180.651 115.387C184.164 115.387 187.001 112.788 187.001 109.583V97.9699C187.001 94.7652 184.157 92.1667 180.651 92.1667H142.402C138.895 92.1667 136.053 94.7652 136.053 97.9699C136.053 101.175 138.895 103.773 142.402 103.773H174.302V109.583ZM53.8755 115.387H41.1836C37.6698 115.387 34.834 117.992 34.834 121.197C34.834 124.401 37.6768 127 41.1836 127H53.8755C57.3823 127 60.2251 124.401 60.2251 121.197C60.2251 117.985 57.3823 115.387 53.8755 115.387Z" fill="white"/>
</g>
<defs>
<clipPath id="clip0_4_4105">
<rect width="220" height="220" fill="white" transform="translate(0 0.5)"/>
</clipPath>
</defs>
</svg>
