<svg width="220" height="221" viewBox="0 0 220 221" fill="none" xmlns="http://www.w3.org/2000/svg">
<g clip-path="url(#clip0_4_4108)">
<path d="M110 220.5C170.751 220.5 220 171.251 220 110.5C220 49.7487 170.751 0.5 110 0.5C49.2487 0.5 0 49.7487 0 110.5C0 171.251 49.2487 220.5 110 220.5Z" fill="#EDF0F4"/>
<path fill-rule="evenodd" clip-rule="evenodd" d="M161.133 71.7995C151.408 59.3673 137.171 51.4467 121.43 51.4467C90.9512 51.4467 68.5932 79.8203 68.5932 110.5C68.5932 131.855 82.8301 147.897 98.5709 147.897C100.075 147.897 101.479 147.797 102.982 147.496C92.3548 139.776 85.6373 125.74 85.6373 110.5C85.6373 86.237 102.08 67.2878 121.43 67.2878C142.585 67.2878 157.223 88.2423 157.223 110.5C157.123 126.943 151.308 143.285 140.981 155.316C131.958 165.844 120.327 172.461 107.494 174.566C107.494 174.566 108.597 174.667 110.001 174.667C145.393 174.667 174.167 145.892 174.167 110.5C174.167 95.9623 169.355 82.5274 161.133 71.7995ZM151.408 110.5C151.408 89.1446 137.171 73.103 121.43 73.103C119.926 73.103 118.523 73.2031 117.019 73.5039C127.646 81.2239 134.364 95.2605 134.364 110.5C134.364 134.763 117.921 153.712 98.5709 153.712C77.4161 153.712 62.778 132.758 62.778 110.5C62.8783 94.0572 68.6935 77.7149 79.0203 65.6837C88.0436 55.1563 99.6738 48.5391 112.507 46.4337C112.507 46.4337 111.404 46.3334 110.001 46.3334C74.6087 46.3334 45.834 75.1081 45.834 110.5C45.834 125.038 50.6465 138.473 58.8679 149.201C68.5932 161.633 82.8301 169.453 98.5709 169.453C129.05 169.553 151.408 141.18 151.408 110.5Z" fill="#0089DB"/>
</g>
<defs>
<clipPath id="clip0_4_4108">
<rect width="220" height="220" fill="white" transform="translate(0 0.5)"/>
</clipPath>
</defs>
</svg>
