<svg width="220" height="221" viewBox="0 0 220 221" fill="none" xmlns="http://www.w3.org/2000/svg">
<g clip-path="url(#clip0_4_4111)">
<path d="M110 220.5C170.751 220.5 220 171.251 220 110.5C220 49.7487 170.751 0.5 110 0.5C49.2487 0.5 0 49.7487 0 110.5C0 171.251 49.2487 220.5 110 220.5Z" fill="#164B79"/>
<path fill-rule="evenodd" clip-rule="evenodd" d="M95.8776 128.841L91.5687 137.985H82.0104L107.967 83L125.279 119.664H115.492L107.746 103.748L99.9859 119.932L95.8776 128.841ZM133.599 137.779L153.864 110.623L133.454 83.2613H144.623L159.431 103.267L154.043 110.623L159.431 117.979L144.63 137.985H124.138L119.808 128.841H129.366L133.599 137.779ZM159.431 103.033L164.902 110.506L159.438 117.986L174.239 137.992H185.167L164.902 110.506L185.167 83.0275H174.239L159.431 103.033ZM84.9291 110.513C85.1425 103.265 82.442 96.2315 77.4249 90.968H77.4181C72.7143 85.8024 65.9943 82.91 58.9862 83.0343C53.5395 82.9483 48.2302 84.7358 43.9572 88.0943L50.3202 94.8316C52.889 93.1809 55.9007 92.3419 58.9585 92.4254C63.6406 92.3306 68.133 94.2623 71.2695 97.7191C74.5083 101.296 76.293 105.942 76.2769 110.754C76.414 115.584 74.6153 120.27 71.2765 123.782C68.0535 127.336 63.6131 129.35 58.9654 129.35C54.2518 129.319 49.7746 127.294 46.6544 123.782C41.0734 117.603 40.0669 108.579 44.1508 101.335L37.7879 94.5978C34.568 99.2796 32.8975 104.843 33.0087 110.513C32.8256 117.755 35.5248 124.776 40.5197 130.051C45.26 135.18 51.9665 138.068 58.9724 137.999C66.2551 137.999 72.4315 135.613 77.4249 130.051C82.3397 124.727 85.0239 117.739 84.9291 110.513Z" fill="white"/>
</g>
<defs>
<clipPath id="clip0_4_4111">
<rect width="220" height="220" fill="white" transform="translate(0 0.5)"/>
</clipPath>
</defs>
</svg>
