<svg width="220" height="221" viewBox="0 0 220 221" fill="none" xmlns="http://www.w3.org/2000/svg">
<g clip-path="url(#clip0_4_4114)">
<path fill-rule="evenodd" clip-rule="evenodd" d="M110 220.5C49.5 220.5 0 171.001 0 109.952C0.55 49.4535 49.5 -0.0454497 110.55 0.504539C171.05 1.05453 220 50.0035 220 111.602C219.45 171.551 170.5 220.5 110 220.5Z" fill="#EDF0F4"/>
<path fill-rule="evenodd" clip-rule="evenodd" d="M90.4494 63.1256C90.458 68.9105 85.7755 73.607 79.9908 73.6156C74.2061 73.6242 69.5094 68.9417 69.5008 63.157C69.4922 57.3722 74.1747 52.6756 79.9594 52.667C85.7443 52.667 90.4338 57.3565 90.4338 63.1414L90.4494 63.1256ZM52.9938 88.314C56.9073 86.6878 59.4552 82.8638 59.449 78.6259C59.4404 72.8472 54.7533 68.1673 48.9746 68.1673C44.7367 68.1673 40.9164 70.7209 39.2961 74.6367C37.6758 78.5527 38.5749 83.0591 41.5738 86.0535C44.5726 89.0478 49.0804 89.9401 52.9938 88.314ZM69.4852 93.7232C69.4852 99.5081 74.1747 104.198 79.9594 104.198C85.7443 104.198 90.4338 99.5081 90.4338 93.7232C90.4338 90.9453 89.3301 88.2811 87.3659 86.3169C85.4017 84.3525 82.7375 83.249 79.9594 83.249C74.1747 83.249 69.4852 87.9385 69.4852 93.7232ZM152.036 63.1414C152.036 67.3778 149.484 71.197 145.57 72.8183C141.656 74.4395 137.151 73.5433 134.155 70.5477C131.159 67.5522 130.263 63.047 131.885 59.133C133.506 55.219 137.325 52.667 141.561 52.667C147.346 52.667 152.036 57.3565 152.036 63.1414ZM145.57 103.4C149.484 101.779 152.036 97.9597 152.036 93.7232C152.036 87.9385 147.346 83.249 141.561 83.249C137.325 83.249 133.506 85.801 131.885 89.715C130.263 93.629 131.159 98.134 134.155 101.13C137.151 104.125 141.656 105.021 145.57 103.4Z" fill="#141414"/>
</g>
<defs>
<clipPath id="clip0_4_4114">
<rect width="220" height="220" fill="white" transform="translate(0 0.5)"/>
</clipPath>
</defs>
</svg>
