<svg width="220" height="221" viewBox="0 0 220 221" fill="none" xmlns="http://www.w3.org/2000/svg">
<g clip-path="url(#clip0_4_4117)">
<path d="M110 220.5C170.751 220.5 220 171.251 220 110.5C220 49.7487 170.751 0.5 110 0.5C49.2487 0.5 0 49.7487 0 110.5C0 171.251 49.2487 220.5 110 220.5Z" fill="#EDF0F4"/>
<path d="M177.256 125.198L151.834 150.605V148.528C151.85 147.457 151.425 146.425 150.66 145.674L147.645 142.74L171.188 119.196C175.962 114.406 175.962 106.657 171.188 101.867L118.599 49.2631C113.81 44.4851 106.058 44.4851 101.269 49.2631L48.7169 101.845C43.9429 106.635 43.9429 114.384 48.7169 119.174L101.314 171.771C106.098 176.552 113.851 176.552 118.636 171.771L138.239 152.168L139.252 152.901L139.134 163.657L124.857 177.743C116.691 185.855 103.507 185.855 95.3415 177.743L42.7302 125.198C34.6446 117.086 34.6446 103.963 42.7302 95.8511L95.2975 43.2397C103.404 35.1423 116.538 35.1423 124.644 43.2397L177.256 95.8511C185.337 103.964 185.337 117.085 177.256 125.198Z" fill="#1EB3DE"/>
<path d="M150.711 145.674L147.695 142.74L119.552 115.139C121.771 110.531 120.402 104.995 116.29 101.953C112.178 98.9103 106.484 99.2198 102.727 102.69C98.9689 106.16 98.2079 111.812 100.914 116.152C103.62 120.493 109.029 122.297 113.8 120.451L128.935 135.3L142.581 147.824L143.902 149.042C144.314 149.416 144.537 149.954 144.511 150.509L144.496 158.147V173.979L144.276 177.185C144.129 179.369 145.763 181.265 147.945 181.441H148.011C150.197 181.306 151.906 179.501 151.921 177.31V150.759V148.616C151.933 147.512 151.496 146.45 150.711 145.674Z" fill="#1EB3DE"/>
<path d="M109.695 116.394C106.498 116.23 104.022 113.534 104.13 110.334C104.238 107.135 106.89 104.612 110.091 104.664C113.292 104.716 115.861 107.323 115.866 110.525C115.866 110.827 115.844 111.128 115.8 111.427C115.356 114.279 112.905 116.385 110.018 116.394H109.695Z" fill="#1EB3DE"/>
</g>
<defs>
<clipPath id="clip0_4_4117">
<rect width="220" height="220" fill="white" transform="translate(0 0.5)"/>
</clipPath>
</defs>
</svg>
