<svg width="220" height="221" viewBox="0 0 220 221" fill="none" xmlns="http://www.w3.org/2000/svg">
<g clip-path="url(#clip0_4_4122)">
<path d="M110 220.5C170.751 220.5 220 171.251 220 110.5C220 49.7487 170.751 0.5 110 0.5C49.2487 0.5 0 49.7487 0 110.5C0 171.251 49.2487 220.5 110 220.5Z" fill="#E7EFF3"/>
<path d="M110.001 103.582C128.341 103.582 143.208 88.7142 143.208 70.3742C143.208 52.0341 128.341 37.1666 110.001 37.1666C91.6605 37.1666 76.793 52.0341 76.793 70.3742C76.793 88.7142 91.6605 103.582 110.001 103.582Z" fill="#88BDF3"/>
<path d="M110.001 183.833C128.341 183.833 143.208 168.966 143.208 150.626C143.208 132.286 128.341 117.418 110.001 117.418C91.6605 117.418 76.793 132.286 76.793 150.626C76.793 168.966 91.6605 183.833 110.001 183.833Z" fill="#3075EE"/>
<path d="M150.126 143.708C168.466 143.708 183.333 128.84 183.333 110.5C183.333 92.16 168.466 77.2925 150.126 77.2925C131.785 77.2925 116.918 92.16 116.918 110.5C116.918 128.84 131.785 143.708 150.126 143.708Z" fill="#5795F1"/>
<path d="M69.8736 143.708C88.2136 143.708 103.081 128.84 103.081 110.5C103.081 92.16 88.2136 77.2925 69.8736 77.2925C51.5335 77.2925 36.666 92.16 36.666 110.5C36.666 128.84 51.5335 143.708 69.8736 143.708Z" fill="#205FEC"/>
<path d="M102.181 102.682C90.115 99.7483 80.6938 90.3273 77.7598 78.2609C89.8015 81.2387 99.2034 90.6406 102.181 102.682Z" fill="#134BEF"/>
<path d="M77.6953 142.808C80.6294 130.742 90.0505 121.321 102.117 118.387C99.1389 130.428 89.737 139.83 77.6953 142.808Z" fill="#0932E8"/>
<path d="M117.82 118.318C129.887 121.252 139.308 130.673 142.242 142.739C130.2 139.761 120.798 130.359 117.82 118.318Z" fill="#164BEA"/>
<path d="M142.306 78.1918C139.372 90.258 129.951 99.6792 117.885 102.613C120.862 90.5715 130.265 81.1697 142.306 78.1918Z" fill="#3170F1"/>
</g>
<defs>
<clipPath id="clip0_4_4122">
<rect width="220" height="220" fill="white" transform="translate(0 0.5)"/>
</clipPath>
</defs>
</svg>
