<svg width="220" height="221" viewBox="0 0 220 221" fill="none" xmlns="http://www.w3.org/2000/svg">
<g clip-path="url(#clip0_4_4132)">
<path d="M110 220.5C170.751 220.5 220 171.251 220 110.5C220 49.7487 170.751 0.5 110 0.5C49.2487 0.5 0 49.7487 0 110.5C0 171.251 49.2487 220.5 110 220.5Z" fill="black"/>
<path fill-rule="evenodd" clip-rule="evenodd" d="M116.027 90.5589C116.199 94.0195 114.877 97.3087 113.52 100.405C112.002 104.04 110.478 107.671 108.953 111.302L108.952 111.306C106.796 116.44 104.641 121.572 102.508 126.711C102.278 127.249 102.054 127.79 101.829 128.333C100.76 130.915 99.6823 133.517 98.0035 135.775C96.5574 137.807 94.5464 139.373 92.2186 140.266C89.2842 141.181 86.177 141.404 83.1414 140.918C78.9027 140.39 74.7541 139.366 70.6082 138.343C69.6347 138.103 68.6614 137.863 67.6871 137.629C64.3796 136.803 61.0615 135.989 57.7426 135.176C54.082 134.278 50.4192 133.38 46.7714 132.465C42.1501 131.36 37.4876 130.172 33.1902 128.071C31.3358 127.174 29.7602 125.793 28.6309 124.074C27.7588 122.656 27.3745 120.992 27.536 119.337C27.9009 116.295 29.0304 113.404 30.2563 110.616L41.482 83.7336C41.696 83.2413 41.9035 82.7454 42.1114 82.2489C42.7734 80.6671 43.4373 79.0808 44.3127 77.6016C45.2966 75.8044 46.604 74.203 48.1693 72.8775C50.0151 71.4768 52.1845 70.5772 54.4778 70.2545C55.877 70.1293 57.2764 70.1645 58.6756 70.1997C58.9636 70.2071 59.2516 70.2144 59.5398 70.2203C64.7577 70.9892 69.9253 72.0668 75.0148 73.4475C78.6147 74.3135 82.2095 75.2025 85.8032 76.0911C89.3322 76.9636 92.8605 77.8361 96.392 78.6866C99.6702 79.49 102.935 80.314 106.137 81.4058L106.174 81.4192C108.304 82.1976 110.48 82.9929 112.349 84.3446C114.484 85.7248 115.848 88.025 116.027 90.5589ZM192.5 102.225V102.665C186.701 106.283 180.876 109.876 175.048 113.471C171.277 115.798 167.502 118.126 163.733 120.463C163.551 120.594 163.408 120.772 163.32 120.978C163.907 121.135 164.499 121.283 165.092 121.432C167.085 121.931 169.09 122.434 170.964 123.292C173.209 124.287 175.51 125.585 176.777 127.762C177.989 129.973 178.292 132.568 177.617 134.992C177.31 136.516 176.721 137.963 176.132 139.409C176.02 139.683 175.908 139.957 175.799 140.231C174.962 142.233 174.123 144.233 173.284 146.233L173.283 146.236C171.239 151.109 169.196 155.982 167.17 160.879C167.031 161.221 166.845 161.542 166.619 161.833C165.948 161.819 165.299 161.641 164.648 161.463C164.383 161.391 164.117 161.318 163.85 161.257C161.99 160.798 160.125 160.343 158.259 159.888C155.456 159.204 152.651 158.52 149.856 157.823C149.222 157.645 148.581 157.498 147.94 157.352C147.049 157.148 146.159 156.944 145.29 156.656C145.319 155.997 145.591 155.406 145.86 154.821C145.975 154.57 146.09 154.32 146.185 154.067L152.576 138.817C153.058 137.759 153.34 136.441 152.652 135.411C151.791 133.942 150.062 133.385 148.533 132.966C144.957 132.049 141.363 131.175 137.771 130.302C135.719 129.804 133.667 129.305 131.619 128.799C131.387 128.749 131.158 128.684 130.928 128.619C130.357 128.457 129.785 128.295 129.181 128.373C128.852 128.947 128.614 129.57 128.374 130.197C128.253 130.514 128.131 130.833 127.996 131.147C126.719 134.134 125.468 137.131 124.219 140.127C123.124 142.75 122.029 145.375 120.916 147.99C120.811 148.23 120.719 148.476 120.627 148.723C120.417 149.285 120.206 149.848 119.842 150.325C119.18 150.325 118.545 150.143 117.91 149.961C117.648 149.886 117.386 149.811 117.122 149.748C115.329 149.309 113.537 148.865 111.743 148.421C108.72 147.673 105.694 146.924 102.659 146.191C102.148 146.054 101.629 145.937 101.108 145.819C100.245 145.624 99.378 145.428 98.5409 145.141C98.5572 144.761 98.6411 144.386 98.7887 144.035L123.12 85.8758C123.205 85.6809 123.337 85.5108 123.506 85.3816C124.062 85.4175 124.601 85.5779 125.139 85.7383C125.42 85.8221 125.702 85.9061 125.985 85.9721C128.335 86.5311 130.687 87.115 133.039 87.6991C134.79 88.1338 136.541 88.5684 138.292 88.9932C139.102 89.2024 139.92 89.3934 140.739 89.5848C142.072 89.8963 143.408 90.2087 144.718 90.6C144.818 90.962 144.668 91.3296 144.526 91.6772L144.484 91.781C143.511 93.9867 142.587 96.2114 141.663 98.4327C141.017 99.987 140.372 101.54 139.711 103.083L134.746 114.976C134.563 115.434 134.361 115.885 134.159 116.337C133.746 117.263 133.331 118.191 133.072 119.179C133.781 118.934 134.389 118.521 135.009 118.1L135.028 118.087L167.438 97.8304C167.603 97.727 167.764 97.6139 167.925 97.501C168.341 97.2089 168.756 96.9174 169.243 96.7937C169.974 96.738 170.675 96.9286 171.372 97.118C171.62 97.1853 171.867 97.2528 172.114 97.3087C173.974 97.7065 175.817 98.1784 177.657 98.6496C179.087 99.0159 180.515 99.3816 181.949 99.712C183.599 100.079 185.236 100.486 186.866 100.891C188.747 101.359 190.619 101.824 192.5 102.225ZM89.6635 94.3629C90.5105 94.8023 91.2337 95.6675 91.0959 96.6769L91.1028 96.6837C90.9503 97.8889 90.4406 98.9909 89.9378 100.078C89.8047 100.366 89.6719 100.653 89.5463 100.941L81.9362 119.144C81.3647 120.538 80.5725 122.124 79.023 122.626C77.2207 123.014 75.3725 122.585 73.6064 122.175C73.5639 122.165 73.5214 122.155 73.479 122.145L57.9488 118.341L57.899 118.328C56.6129 117.988 55.2885 117.639 54.0715 117.016C53.252 116.617 52.584 115.78 52.584 114.818C52.6527 113.981 52.9627 113.198 53.2726 112.415C54.8762 108.643 56.4534 104.86 58.0317 101.075C59.2459 98.1621 60.4607 95.2484 61.6885 92.3372C62.2601 90.8473 63.1073 89.1443 64.7945 88.6636C66.2524 88.4304 67.744 88.5243 69.161 88.9384C74.1608 90.1468 79.1332 91.369 84.1057 92.6051C84.4742 92.6997 84.8462 92.789 85.2193 92.8784C86.7419 93.2436 88.2804 93.6129 89.6635 94.3629Z" fill="white"/>
</g>
<defs>
<clipPath id="clip0_4_4132">
<rect width="220" height="220" fill="white" transform="translate(0 0.5)"/>
</clipPath>
</defs>
</svg>
