<svg width="220" height="221" viewBox="0 0 220 221" fill="none" xmlns="http://www.w3.org/2000/svg">
<g clip-path="url(#clip0_4_4135)">
<path d="M110 220.5C170.751 220.5 220 171.251 220 110.5C220 49.7487 170.751 0.5 110 0.5C49.2487 0.5 0 49.7487 0 110.5C0 171.251 49.2487 220.5 110 220.5Z" fill="#E7EFF3"/>
<path fill-rule="evenodd" clip-rule="evenodd" d="M37.9772 96.412C43.7982 65.6604 69.2581 41.847 100.892 37.5548C106.36 36.7903 117.943 37.2019 123.999 38.378C138.464 41.1414 153.046 49.1969 163.101 59.7805C180.211 77.9494 186.972 102.703 181.446 127.046C178.27 141.099 171.097 153.564 160.278 163.854C150.047 173.497 138.464 179.494 124.117 182.552C117.179 184.022 102.832 184.022 95.8938 182.552C85.8393 180.376 77.137 176.731 68.6113 171.145C63.0255 167.441 53.3237 157.68 49.4429 151.918C38.3301 135.278 34.3318 115.816 37.9772 96.412ZM162.101 67.6008C151.341 54.3122 134.818 45.3749 117.355 43.3759C102.891 41.7882 89.132 44.7281 75.9023 52.3132C63.7898 59.1926 52.8532 71.8343 47.6202 84.9463C37.3304 110.406 43.0339 138.629 62.3787 158.033C96.6582 192.547 155.163 180.259 172.861 134.807C176.213 126.34 177.271 120.049 177.271 109.818C177.212 102.645 176.977 100.293 175.683 95.1186C173.037 84.2409 169.039 76.2442 162.101 67.6008Z" fill="black"/>
<path fill-rule="evenodd" clip-rule="evenodd" d="M51.7944 114.169C50.0306 105.349 54.9107 95.8828 62.5546 93.1192C65.4357 92.1197 71.1981 91.9433 74.1967 92.7665C81.8992 94.9421 87.1323 103.409 86.3091 112.464C85.6623 119.05 82.7813 123.694 77.5482 126.634C74.726 128.163 73.9615 128.34 68.8461 128.34C62.4369 128.34 60.0851 127.458 56.4396 123.518C53.676 120.637 52.6765 118.579 51.7944 114.169ZM79.4297 113.934C80.6645 108.818 78.9006 102.997 75.4314 100.469C71.9035 97.9995 65.8473 97.9407 62.4369 100.41C58.3211 103.291 56.91 111.582 59.6147 116.874C64.0833 125.752 77.0778 123.812 79.4297 113.934Z" fill="black"/>
<path d="M142.109 93.3543C131.054 97.7642 127.938 114.052 136.288 123.93C140.815 129.339 151.516 130.339 156.279 125.752L157.573 124.518L157.749 126.164C157.925 127.634 158.102 127.751 160.865 127.751H163.805L163.982 118.461L164.158 109.23H155.867H147.636V112.17V115.11H152.634C158.043 115.11 158.219 115.227 156.69 118.403C155.632 120.578 151.869 122.754 149.047 122.754C142.285 122.754 138.228 117.991 138.228 110.288C138.287 101.763 143.755 96.8824 151.222 98.6462C154.103 99.3519 157.043 101.88 157.043 103.703C157.043 104.291 157.925 104.526 160.571 104.526H164.04L163.217 101.88C161.394 95.7063 156.867 92.59 149.4 92.3548C146.107 92.2373 144.284 92.4725 142.109 93.3543Z" fill="black"/>
<path d="M91.1875 110.406V128.045H94.1274H97.0674L97.1851 116.168L97.3614 104.232L101.712 116.168L106.064 128.104L109.003 127.928L111.943 127.752L116.236 115.992L120.528 104.232L120.704 115.992L120.881 127.752L123.997 127.928L127.055 128.104L126.937 110.582L126.761 93.0605H122.704H118.588L113.884 106.114C111.297 113.346 109.003 119.049 108.827 118.755C108.592 118.52 106.475 112.934 104.123 106.29C101.771 99.6459 99.5369 93.8837 99.243 93.4721C98.8903 93.0605 97.2437 92.7665 94.9506 92.7665H91.1875V110.406Z" fill="black"/>
</g>
<defs>
<clipPath id="clip0_4_4135">
<rect width="220" height="220" fill="white" transform="translate(0 0.5)"/>
</clipPath>
</defs>
</svg>
