<svg width="220" height="221" viewBox="0 0 220 221" fill="none" xmlns="http://www.w3.org/2000/svg">
<g clip-path="url(#clip0_4_4141)">
<path d="M110 220.5C170.751 220.5 220 171.251 220 110.5C220 49.7487 170.751 0.5 110 0.5C49.2487 0.5 0 49.7487 0 110.5C0 171.251 49.2487 220.5 110 220.5Z" fill="#EDF0F4"/>
<path fill-rule="evenodd" clip-rule="evenodd" d="M110.003 174.627C145.421 174.613 174.134 145.915 174.167 110.497C174.09 74.5001 144.854 46.372 110.081 46.3333C74.998 46.2946 46.0672 74.6115 45.8353 110.081C45.6078 145.773 74.5387 174.627 110.003 174.627ZM110.115 63.338C136.087 63.4561 157.089 84.5251 157.124 110.497C157.085 123.068 152.042 135.105 143.107 143.949C134.173 152.792 122.085 157.712 109.514 157.622C84.1379 157.352 62.8531 136.612 62.8916 110.424C62.8916 84.3225 84.2453 63.265 110.115 63.338Z" fill="#1C347A"/>
<path fill-rule="evenodd" clip-rule="evenodd" d="M72.4871 51.6439C63.9265 57.1417 56.621 64.3826 51.0477 72.8944V51.6824C51.5027 51.5323 70.9931 51.485 72.4871 51.6439ZM168.84 51.5493C161.731 51.5493 154.622 51.5493 147.512 51.6225C156.025 57.1745 163.288 64.438 168.84 72.9502V51.5493ZM168.84 169.544V148.014C163.318 156.606 156.052 163.941 147.512 169.544H168.84ZM51.1808 169.419H72.3927C63.8919 163.847 56.6528 156.555 51.1421 148.014C50.9918 148.894 51.0305 168.921 51.1808 169.419Z" fill="#1C347A"/>
</g>
<defs>
<clipPath id="clip0_4_4141">
<rect width="220" height="220" fill="white" transform="translate(0 0.5)"/>
</clipPath>
</defs>
</svg>
