<svg width="220" height="221" viewBox="0 0 220 221" fill="none" xmlns="http://www.w3.org/2000/svg">
<g clip-path="url(#clip0_4_4145)">
<path d="M110 220.5C170.751 220.5 220 171.251 220 110.5C220 49.7487 170.751 0.5 110 0.5C49.2487 0.5 0 49.7487 0 110.5C0 171.251 49.2487 220.5 110 220.5Z" fill="black"/>
<path d="M109.84 182C149.183 182 178.985 155.531 185.167 120.9H151.602C146.585 139.289 131.012 152.751 110.237 152.751C89.6129 152.751 73.8413 139.193 68.6115 120.9H34.834C40.7903 155.655 70.3389 182 109.84 182Z" fill="white"/>
<path d="M110.033 70.116C119.599 70.116 127.354 62.3297 127.354 52.7247C127.354 43.1197 119.599 35.3334 110.033 35.3334C100.468 35.3334 92.7129 43.1197 92.7129 52.7247C92.7129 62.3297 100.468 70.116 110.033 70.116Z" fill="white"/>
<path d="M66.7383 120.9V120.556C66.7383 95.828 84.381 75.6425 109.817 75.6425C135.26 75.6425 153.273 96.1721 153.314 120.9H66.7383Z" fill="white"/>
</g>
<defs>
<clipPath id="clip0_4_4145">
<rect width="220" height="220" fill="white" transform="translate(0 0.5)"/>
</clipPath>
</defs>
</svg>
