<svg width="220" height="221" viewBox="0 0 220 221" fill="none" xmlns="http://www.w3.org/2000/svg">
<g clip-path="url(#clip0_4_4150)">
<path d="M110 220.5C170.751 220.5 220 171.251 220 110.5C220 49.7487 170.751 0.5 110 0.5C49.2487 0.5 0 49.7487 0 110.5C0 171.251 49.2487 220.5 110 220.5Z" fill="#2DA7BF"/>
<path fill-rule="evenodd" clip-rule="evenodd" d="M165 162.204L164.877 117.783H164.837C165.695 90.2796 148.98 66.3318 125.441 59.3437C98.4697 51.3748 75.8707 69.5603 73.9908 71.1541L165 162.204ZM55.0288 59.6297V104.378C54.2115 131.718 70.8441 155.584 94.2605 162.613C121.232 170.664 143.872 152.56 145.752 151.007L55.0288 59.6297Z" fill="white"/>
</g>
<defs>
<clipPath id="clip0_4_4150">
<rect width="220" height="220" fill="white" transform="translate(0 0.5)"/>
</clipPath>
</defs>
</svg>
