<svg width="220" height="221" viewBox="0 0 220 221" fill="none" xmlns="http://www.w3.org/2000/svg">
<g clip-path="url(#clip0_4_4153)">
<path d="M110 220.5C170.753 220.5 220 171.253 220 110.5C220 49.747 170.753 0.5 110 0.5C49.247 0.5 0 49.747 0 110.5C0 171.253 49.247 220.5 110 220.5Z" fill="#EDF0F4"/>
<path fill-rule="evenodd" clip-rule="evenodd" d="M69.0867 52.4692C67.2093 50.848 63.9242 52.5546 64.1801 55.0292V99.8711C64.5215 108.362 67.2521 116.724 71.9879 123.807C77.4065 131.956 85.5132 138.313 94.7717 141.598C102.067 144.158 110.046 144.798 117.64 143.433C125.832 142.11 133.512 138.185 139.827 132.852C141.508 134.416 143.092 136.079 144.675 137.742C146.546 139.708 148.417 141.673 150.451 143.476C152.2 145.012 155.357 143.646 155.4 141.3C155.449 132.84 155.442 124.38 155.435 115.92C155.43 109.575 155.424 103.23 155.443 96.8844C155.229 85.1513 150.365 73.5888 142.045 65.3117C134.195 57.3332 123.315 52.5119 112.179 51.9146C102.793 51.4025 93.2782 53.9626 85.385 58.9971C84.0854 59.799 82.8931 60.7265 81.704 61.6516C81.0583 62.1538 80.4137 62.6554 79.7532 63.1357C78.0588 61.54 76.4464 59.8621 74.836 58.1866C72.959 56.2337 71.0846 54.2834 69.0867 52.4692ZM84.3184 67.7436C89.1824 63.0504 95.6676 60.2344 102.238 58.8264C105.761 58.0071 109.402 58.0926 112.972 58.1762L113.417 58.1864C122.248 59.0824 130.824 63.0077 137.139 69.2796C144.051 75.9355 148.36 85.194 149.085 94.7084C149.114 103.242 149.104 111.775 149.095 120.308C149.09 124.575 149.085 128.841 149.085 133.108C146.526 130.662 144.064 128.131 141.601 125.599C139.467 123.405 137.333 121.21 135.134 119.071C126.643 110.537 118.184 101.972 109.726 93.4071L109.725 93.4057C101.266 84.8411 92.8085 76.2763 84.3184 67.7436ZM70.5374 62.7943C70.4886 69.3769 70.4956 75.9454 70.5026 82.516C70.5077 87.4442 70.513 92.3739 70.4947 97.311C70.0253 109.727 76.084 122.015 85.8543 129.609C92.6809 134.942 101.342 137.972 110.046 137.801C119.262 137.886 128.392 134.345 135.347 128.329C131.127 123.911 126.805 119.584 122.48 115.254C118.41 111.179 114.337 107.101 110.345 102.943C97.0756 89.546 83.8065 76.1489 70.5374 62.7943ZM69.4708 133.15C68.6601 132.212 67.3375 132.297 66.2281 132.468C65.0761 132.809 64.1801 134.004 64.2228 135.284C64.2014 137.844 64.2014 140.414 64.2014 142.985C64.2014 145.556 64.2014 148.126 64.1801 150.686C64.1876 150.845 64.1913 151.007 64.1948 151.17C64.2113 151.924 64.2283 152.7 64.6495 153.331C65.6308 154.91 68.0628 155.209 69.3853 153.971C70.324 153.161 70.4947 151.838 70.4947 150.686C70.4947 149.123 70.4899 147.561 70.4851 145.996C70.4758 142.863 70.4663 139.723 70.4947 136.564C70.4947 135.369 70.4094 134.004 69.4708 133.15ZM151.603 147.401C153.352 146.761 155.571 147.87 155.741 149.79C155.839 151.57 155.825 153.35 155.811 155.129C155.8 156.464 155.79 157.799 155.826 159.134C155.816 159.432 155.821 159.736 155.826 160.041C155.843 160.955 155.859 161.875 155.443 162.675C154.419 164.681 151.048 164.681 149.981 162.675C149.489 161.723 149.502 160.644 149.514 159.594C149.518 159.28 149.522 158.969 149.512 158.665C149.551 157.344 149.536 156.024 149.521 154.707C149.503 153.174 149.486 151.647 149.555 150.132C149.597 148.98 150.408 147.785 151.603 147.401ZM112.393 149.534C111.539 148.339 109.833 148.425 108.553 148.766C107.443 149.364 106.761 150.643 106.846 151.838C106.846 153.602 106.841 155.365 106.836 157.129C106.827 160.656 106.818 164.183 106.846 167.71C106.803 169.374 108.297 170.995 110.003 170.867C111.71 170.995 113.075 169.331 113.118 167.71C113.167 164.956 113.16 162.187 113.153 159.413C113.148 157.331 113.142 155.246 113.161 153.161C113.161 153.102 113.161 153.043 113.161 152.984C113.163 151.795 113.165 150.51 112.393 149.534Z" fill="#169BB3"/>
</g>
<defs>
<clipPath id="clip0_4_4153">
<rect width="220" height="220" fill="white" transform="translate(0 0.5)"/>
</clipPath>
</defs>
</svg>
