<svg width="220" height="221" viewBox="0 0 220 221" fill="none" xmlns="http://www.w3.org/2000/svg">
<g clip-path="url(#clip0_4_4156)">
<path d="M110 220.5C170.751 220.5 220 171.251 220 110.5C220 49.7487 170.751 0.5 110 0.5C49.2487 0.5 0 49.7487 0 110.5C0 171.251 49.2487 220.5 110 220.5Z" fill="#EDF0F4"/>
<path fill-rule="evenodd" clip-rule="evenodd" d="M110.001 46.3334C145.439 46.3334 174.167 75.0617 174.167 110.5C174.167 113.582 171.669 116.08 168.588 116.08C165.558 116.08 163.093 113.666 163.01 110.656L163.008 110.5C163.008 81.225 139.276 57.4929 110.001 57.4929C106.919 57.4929 104.421 54.9946 104.421 51.9131C104.421 48.8315 106.919 46.3334 110.001 46.3334ZM70.9428 110.5C70.9428 88.9289 88.4295 71.4422 110.001 71.4422C131.572 71.4422 149.059 88.9289 149.059 110.5C149.059 132.071 131.572 149.558 110.001 149.558C88.4295 149.558 70.9428 132.071 70.9428 110.5ZM132.319 110.5C132.319 98.1736 122.327 88.1812 110.001 88.1812C97.6742 88.1812 87.6818 98.1736 87.6818 110.5C87.6818 122.826 97.6742 132.819 110.001 132.819C122.327 132.819 132.319 122.826 132.319 110.5ZM56.9935 110.5C56.9935 107.418 54.4952 104.92 51.4137 104.92C48.3321 104.92 45.834 107.418 45.834 110.5C45.834 145.938 74.5623 174.667 110.001 174.667C113.082 174.667 115.58 172.169 115.58 169.087C115.58 166.005 113.082 163.507 110.001 163.507L109.124 163.5C80.2534 163.032 56.9935 139.482 56.9935 110.5ZM60.6895 91.6699C60.6895 95.1483 57.8696 97.9681 54.3913 97.9681C50.9129 97.9681 48.0932 95.1483 48.0932 91.6699C48.0932 88.1915 50.9129 85.3718 54.3913 85.3718C57.8696 85.3718 60.6895 88.1915 60.6895 91.6699ZM165.597 135.577C169.076 135.577 171.896 132.757 171.896 129.278C171.896 125.8 169.076 122.98 165.597 122.98C162.119 122.98 159.299 125.8 159.299 129.278C159.299 132.757 162.119 135.577 165.597 135.577Z" fill="url(#paint0_linear_4_4156)"/>
</g>
<defs>
<linearGradient id="paint0_linear_4_4156" x1="12.2535" y1="95.0328" x2="94.8645" y2="210.948" gradientUnits="userSpaceOnUse">
<stop stop-color="#126AB2"/>
<stop offset="1" stop-color="#14B088"/>
</linearGradient>
<clipPath id="clip0_4_4156">
<rect width="220" height="220" fill="white" transform="translate(0 0.5)"/>
</clipPath>
</defs>
</svg>
