<svg width="220" height="221" viewBox="0 0 220 221" fill="none" xmlns="http://www.w3.org/2000/svg">
<g clip-path="url(#clip0_4_4159)">
<path d="M110 220.5C170.751 220.5 220 171.251 220 110.5C220 49.7487 170.751 0.5 110 0.5C49.2487 0.5 0 49.7487 0 110.5C0 171.251 49.2487 220.5 110 220.5Z" fill="#EDF0F4"/>
<path d="M82.7264 127.929C82.6802 128.53 82.2664 129.039 81.6878 129.207C81.109 129.376 80.4866 129.168 80.1252 128.685L59.316 109.305C58.7852 108.962 58.5133 108.333 58.6272 107.712C58.741 107.09 59.2184 106.599 59.8363 106.467L88.9692 94.8516C90.3217 94.3124 91.1351 95.0219 90.7758 96.4407L82.7264 127.929Z" fill="#404A72"/>
<path d="M65.5106 146.345C64.4038 147.291 63.2877 146.903 63.0323 145.465L57.3572 113.968C57.0923 112.53 57.7543 112.171 58.8232 113.164L78.592 131.608C79.1015 132.062 79.3873 132.715 79.3745 133.397C79.3618 134.079 79.0518 134.721 78.5258 135.155L65.5106 146.345Z" fill="#556195"/>
<path d="M89.3446 88.5805C89.8067 89.0203 89.9981 89.6741 89.8456 90.2938C89.6931 90.9134 89.2203 91.4038 88.6066 91.5789L59.6535 103.166C58.2916 103.705 57.6009 103.033 58.1117 101.662L70.0108 69.682C70.1133 69.0867 70.5767 68.6188 71.1711 68.511C71.7655 68.403 72.3637 68.6782 72.6687 69.1996L89.3446 88.5805Z" fill="#556195"/>
<path d="M59.0013 140.992C59.2662 142.429 58.8217 142.6 58.0555 141.379L46.7807 124.023C45.9905 122.66 46.0494 120.966 46.9319 119.662L51.9452 112.937C52.8248 111.764 53.7518 111.991 54.0071 113.419L59.0013 140.992Z" fill="#556195"/>
<path d="M55.4656 99.6945C54.9548 101.066 54.1604 101.057 53.6968 99.6945L49.866 88.1454C49.4449 86.6127 49.8741 84.9719 50.9917 83.8416L64.6784 71.4413C65.7568 70.4953 66.2296 70.7791 65.7188 72.1507L55.4656 99.6945Z" fill="#556195"/>
<path d="M51.852 104.14C52.2808 105.718 52.0084 107.403 51.1049 108.765L47.1794 114.053C46.2997 115.226 45.7132 114.999 45.8551 113.542L47.7281 95.2584C47.87 93.8018 48.3807 93.7449 48.8347 95.1353L51.852 104.14Z" fill="#556195"/>
<path d="M67.2988 62.9663C67.7907 63.5243 67.2988 64.7919 66.2111 65.8039L60.025 71.3561C58.9373 72.302 58.767 72.1791 59.6373 71.0062L64.7543 64.073C65.7003 62.9001 66.8164 62.4177 67.2988 62.9663Z" fill="#556195"/>
<path d="M106.144 160.278C105.911 160.842 105.37 161.219 104.759 161.242C104.148 161.264 103.581 160.928 103.307 160.382L87.227 136.962C86.8041 136.533 86.6913 135.887 86.9438 135.339C87.1962 134.793 87.7611 134.459 88.3621 134.503L120.702 131.164C122.149 131.012 122.735 131.92 121.997 133.188L106.144 160.278Z" fill="#556195"/>
<path d="M99.3995 160.297C100.232 161.507 99.7777 162.103 98.3873 161.64L68.1194 151.33C66.7385 150.857 66.5115 149.693 67.6181 148.738L80.5671 137.558C81.0737 137.101 81.7544 136.888 82.4309 136.976C83.1072 137.063 83.7119 137.441 84.0859 138.012L99.3995 160.297Z" fill="#556195"/>
<path d="M121.353 125.725C122.299 126.832 121.893 127.853 120.408 128.005L87.5857 131.391C86.9686 131.52 86.3299 131.303 85.9187 130.825C85.5075 130.347 85.3888 129.683 85.6088 129.092L93.8191 97.1407C94.1879 95.7313 95.2663 95.4759 96.2121 96.5827L121.353 125.725Z" fill="#6ECCE0"/>
<path d="M144.931 153.099C145.406 153.476 145.593 154.112 145.398 154.686C145.203 155.261 144.668 155.652 144.061 155.662L110.671 162.68C109.243 162.983 108.676 162.198 109.413 160.93L125.162 134.001C125.431 133.426 125.985 133.036 126.618 132.977C127.25 132.919 127.867 133.201 128.236 133.717L144.931 153.099Z" fill="#556195"/>
<path d="M91.2379 171.07C89.8167 171.745 88.1352 171.55 86.9058 170.569L71.3745 156.882C70.2868 155.936 70.5233 155.511 71.9043 155.936L98.3887 164.95C99.7791 165.423 99.8548 166.379 98.5683 167.069L91.2379 171.07Z" fill="#556195"/>
<path d="M127.237 172.375C125.955 173.312 124.271 173.492 122.82 172.848L112.046 167.353C110.741 166.681 110.845 165.896 112.273 165.593L141.037 159.54C142.466 159.237 142.711 159.748 141.586 160.675L127.237 172.375Z" fill="#556195"/>
<path d="M97.109 173.085C95.6429 173.018 95.5106 172.394 96.7968 171.704L102.586 168.563C104.079 167.857 105.805 167.837 107.315 168.507L115.771 172.81C117.076 173.473 116.944 173.955 115.487 173.889L97.109 173.085Z" fill="#556195"/>
<path d="M150.31 159.341C150.792 159.899 150.139 160.93 148.853 161.621L141.229 165.688C139.933 166.379 139.801 166.18 140.936 165.253L147.368 159.994C148.503 159.067 149.827 158.774 150.31 159.341Z" fill="#556195"/>
<path d="M131.038 125.385C129.676 125.924 128.863 125.214 129.231 123.796L137.319 92.317C137.367 91.7154 137.781 91.206 138.361 91.0358C138.94 90.8659 139.564 91.0707 139.929 91.5508L160.739 110.941C161.278 111.278 161.558 111.911 161.443 112.537C161.328 113.163 160.843 113.655 160.218 113.779L131.038 125.385Z" fill="#404A72"/>
<path d="M162.667 106.268C162.923 107.706 162.27 108.075 161.201 107.072L141.423 88.6277C140.915 88.1729 140.631 87.5188 140.645 86.8368C140.66 86.1549 140.972 85.5135 141.499 85.0808L154.486 73.891C155.592 72.9452 156.718 73.333 156.973 74.7707L162.667 106.268Z" fill="#556195"/>
<path d="M149.997 150.564C149.887 151.156 149.421 151.618 148.827 151.723C148.234 151.829 147.637 151.555 147.33 151.037L130.645 131.656C130.167 131.219 129.964 130.557 130.116 129.928C130.267 129.298 130.749 128.801 131.373 128.629L160.355 117.042C161.707 116.503 162.407 117.175 161.896 118.546L149.997 150.564Z" fill="#556195"/>
<path d="M173.21 96.2138C173.999 97.5752 173.944 99.2668 173.068 100.574L168.046 107.299C167.176 108.472 166.249 108.245 165.984 106.817L160.999 79.2448C160.744 77.8071 161.179 77.6368 161.945 78.8569L173.21 96.2138Z" fill="#556195"/>
<path d="M170.139 132.091C170.56 133.623 170.131 135.264 169.013 136.394L155.326 148.795C154.238 149.741 153.775 149.457 154.286 148.095L164.539 120.542C165.04 119.17 165.835 119.18 166.298 120.542L170.139 132.091Z" fill="#556195"/>
<path d="M172.26 124.978C172.109 126.434 171.608 126.482 171.144 125.101L168.146 116.096C167.711 114.513 167.984 112.819 168.893 111.452L172.828 106.183C173.698 105.01 174.294 105.237 174.143 106.694L172.26 124.978Z" fill="#556195"/>
<path d="M155.179 156.163C154.299 157.346 153.193 157.837 152.701 157.27C152.209 156.702 152.701 155.444 153.788 154.432L159.946 148.852C161.024 147.906 161.204 148.029 160.334 149.202L155.179 156.163Z" fill="#556195"/>
<path d="M132.802 83.2742C133.225 83.7032 133.337 84.3495 133.085 84.8965C132.833 85.4436 132.268 85.7769 131.667 85.7334L99.3274 89.0725C97.8707 89.2237 97.2842 88.3157 98.0221 87.0577L113.865 59.9584C114.099 59.3936 114.64 59.0168 115.251 58.9945C115.862 58.9721 116.429 59.3081 116.703 59.8545L132.802 83.2742Z" fill="#404A72"/>
<path d="M139.476 82.6783C138.97 83.1351 138.289 83.3478 137.612 83.2605C136.936 83.1733 136.331 82.7947 135.957 82.2243L120.559 59.9396C119.736 58.7289 120.19 58.1329 121.571 58.6059L151.839 68.8969C153.22 69.3699 153.447 70.5334 152.34 71.4887L139.476 82.6783Z" fill="#556195"/>
<path d="M126.139 123.095C125.779 124.514 124.701 124.76 123.746 123.653L98.6516 94.5207C97.7056 93.4139 98.1029 92.383 99.5974 92.2316L132.41 88.8454C133.028 88.7119 133.671 88.9266 134.084 89.4055C134.498 89.8845 134.618 90.5509 134.396 91.1438L126.139 123.095Z" fill="#556195"/>
<path d="M94.8324 86.2348C94.5678 86.8153 94.0127 87.2096 93.3776 87.2683C92.7424 87.3268 92.1246 87.0408 91.7583 86.5184L75.0731 67.1471C74.599 66.7705 74.4114 66.1375 74.6041 65.5634C74.7968 64.9894 75.3285 64.5978 75.9338 64.5837L109.323 57.556C110.761 57.2533 111.328 58.0383 110.591 59.3057L94.8324 86.2348Z" fill="#556195"/>
<path d="M121.564 55.2479C120.183 54.7749 120.107 53.8291 121.394 53.1291L128.791 49.1754C130.212 48.5005 131.893 48.6952 133.123 49.6768L148.616 63.3635C149.713 64.3093 149.477 64.735 148.096 64.3093L121.564 55.2479Z" fill="#556195"/>
<path d="M79.0053 60.6961C77.5769 60.9988 77.3311 60.526 78.4661 59.58L92.7582 47.8608C94.0435 46.9243 95.7306 46.7441 97.1848 47.3878L108.006 52.8927C109.311 53.5549 109.207 54.34 107.779 54.6426L79.0053 60.6961Z" fill="#556195"/>
<path d="M117.421 51.6726C115.928 52.3788 114.202 52.3995 112.692 51.7294L104.179 47.4256C102.949 46.7634 103.072 46.2811 104.539 46.3379L122.898 47.1891C124.345 47.2837 124.496 47.8796 123.21 48.5702L117.421 51.6726Z" fill="#556195"/>
<path d="M72.6376 60.2423C71.5026 61.1881 70.1784 61.4624 69.696 60.9043C69.2137 60.3463 69.8663 59.3059 71.1526 58.6248L78.7763 54.5482C80.0628 53.8576 80.1952 54.0563 79.0697 54.9832L72.6376 60.2423Z" fill="#556195"/>
<path d="M62.8621 152.824C63.4201 152.332 64.6877 152.824 65.6997 153.903L71.2804 160.06C72.2264 161.148 72.1033 161.318 70.9304 160.448L63.9877 155.293C62.777 154.423 62.2851 153.307 62.8621 152.824Z" fill="#556195"/>
<path d="M159.216 69.8145C159.784 69.3226 160.815 69.9848 161.496 71.2711L165.572 78.8948C166.253 80.1908 166.064 80.3136 165.137 79.1882L159.878 72.7561C158.951 71.6211 158.658 70.2969 159.216 69.8145Z" fill="#556195"/>
<path d="M156.047 64.9431C157.219 65.8132 157.721 66.9294 157.153 67.4119C156.586 67.8942 155.328 67.4119 154.316 66.3335L148.735 60.1759C147.789 59.0882 147.912 58.9179 149.085 59.7882L156.047 64.9431Z" fill="#556195"/>
<path d="M60.1259 147.48C61.0717 148.615 61.346 149.939 60.7785 150.422C60.2109 150.904 59.1894 150.251 58.499 148.965L54.4317 141.341C53.7411 140.045 53.9398 139.923 54.8668 141.048L60.1259 147.48Z" fill="#556195"/>
</g>
<defs>
<clipPath id="clip0_4_4159">
<rect width="220" height="220" fill="white" transform="translate(0 0.5)"/>
</clipPath>
</defs>
</svg>
