<svg width="220" height="221" viewBox="0 0 220 221" fill="none" xmlns="http://www.w3.org/2000/svg">
<g clip-path="url(#clip0_4_4195)">
<path d="M110 220.5C170.751 220.5 220 171.251 220 110.5C220 49.7487 170.751 0.5 110 0.5C49.2487 0.5 0 49.7487 0 110.5C0 171.251 49.2487 220.5 110 220.5Z" fill="#EDF0F4"/>
<path d="M75.876 58.8665C73.5367 62.8043 68.4475 64.1023 64.5097 61.7629C60.5719 59.4236 59.2739 54.3345 61.6132 50.3966C63.9523 46.4588 69.0415 45.1608 72.9795 47.5002C76.9173 49.8393 78.2153 54.9285 75.876 58.8665Z" fill="#5F45BA"/>
<path d="M47.5623 55.1853C45.9123 57.9645 42.3118 58.8812 39.5326 57.2312C36.7533 55.5812 35.8366 51.988 37.4866 49.2015C39.1366 46.4149 42.7371 45.5055 45.5163 47.1555C48.3029 48.8129 49.2196 52.406 47.5623 55.1853Z" fill="#5F45BA"/>
<path d="M126.38 175.228C156.768 171.657 181.209 146.812 183.204 115.192C185.448 79.6118 158.418 48.952 122.838 46.7155C118.665 46.4515 114.478 46.5982 110.335 47.1409C101.785 47.8375 94.5616 51.1007 94.5616 51.1007C88.7098 53.9607 84.9331 58.7418 84.9331 65.1363C84.9331 73.452 91.6722 80.1985 99.9881 80.1985C101.381 80.1985 106.192 78.6731 107.336 78.2771C111.706 76.752 116.341 76.1213 120.961 76.422C133.251 77.1991 143.642 84.2683 149.208 94.2926C152.434 100.1 153.923 106.708 153.498 113.337C152.288 132.513 135.766 147.084 116.583 145.874C105.253 145.155 95.5369 139.09 89.7218 130.298C82.7699 121.205 84.3759 106.664 84.3686 106.48C84.0826 98.3919 77.4608 91.9241 69.3063 91.9241C62.34 91.9241 56.4955 96.6539 54.7575 103.07C54.4202 104.332 54.2442 108.028 54.2955 108.519C52.8582 143.483 79.6166 173.351 114.713 175.558C118.607 175.8 122.508 175.69 126.38 175.228Z" fill="#5F45BA"/>
<path d="M67.2349 81.8924C64.1989 87.0036 57.5991 88.6827 52.4953 85.6469C47.3915 82.6111 45.7048 76.0112 48.7408 70.9074C51.7766 65.8036 58.3764 64.1169 63.4802 67.1528C68.5841 70.1888 70.2634 76.7886 67.2349 81.8924Z" fill="#5F45BA"/>
</g>
<defs>
<clipPath id="clip0_4_4195">
<rect width="220" height="220" fill="white" transform="translate(0 0.5)"/>
</clipPath>
</defs>
</svg>
