<svg width="220" height="221" viewBox="0 0 220 221" fill="none" xmlns="http://www.w3.org/2000/svg">
<g clip-path="url(#clip0_4_4207)">
<path d="M110 220.5C170.751 220.5 220 171.251 220 110.5C220 49.7487 170.751 0.5 110 0.5C49.2487 0.5 0 49.7487 0 110.5C0 171.251 49.2487 220.5 110 220.5Z" fill="#EDF0F4"/>
<path fill-rule="evenodd" clip-rule="evenodd" d="M133.174 128.956L155.801 148.213V147.732C157.727 145.324 159.653 142.436 161.579 139.547L136.062 124.623C135.1 126.067 134.137 127.511 133.174 128.956Z" fill="url(#paint0_linear_4_4207)"/>
<path fill-rule="evenodd" clip-rule="evenodd" d="M139.92 109.698H169.287V110.18C169.287 113.068 168.806 115.957 168.325 118.845V119.808V120.771C167.843 123.66 166.88 126.548 165.917 129.437V129.919L137.994 119.808C139.438 116.92 139.92 113.55 139.92 109.698Z" fill="url(#paint1_linear_4_4207)"/>
<path fill-rule="evenodd" clip-rule="evenodd" d="M162.067 79.849C163.511 82.7376 164.955 85.6262 165.918 88.5148L166.4 88.9962V89.4777C167.363 92.3663 168.325 95.2551 168.807 98.1437V98.6251L139.921 103.921C138.958 98.6251 137.032 93.8106 133.662 89.9591L156.29 70.7018V71.1832C158.215 74.0718 160.141 76.9604 162.067 79.849Z" fill="url(#paint2_linear_4_4207)"/>
<path fill-rule="evenodd" clip-rule="evenodd" d="M115.847 80.3305C113.921 79.849 112.477 79.849 110.551 79.849V50C113.921 50 117.291 50.4814 120.661 50.9629C124.031 51.4443 126.92 52.4072 130.29 53.37C133.178 54.3329 136.548 55.7772 139.437 57.7029C142.326 59.1472 144.733 61.073 147.622 63.4801H148.103L129.327 86.1077C126.92 83.7005 123.55 82.2562 120.661 80.8119C119.217 80.8119 117.291 80.3305 115.847 80.3305Z" fill="url(#paint3_linear_4_4207)"/>
<path fill-rule="evenodd" clip-rule="evenodd" d="M110.551 79.849V50C77.3316 50 51.334 76.479 51.334 109.698C51.334 142.917 77.813 169.396 110.551 169.396C127.882 169.396 144.733 161.693 155.806 148.213L133.178 128.956C127.882 135.696 119.216 139.547 110.551 139.547C94.1817 139.547 80.7016 126.067 80.7016 109.698C80.7016 93.3292 94.1817 79.849 110.551 79.849ZM166.397 129.918L138.474 119.808C138.188 120.954 137.731 121.929 137.306 122.835C137.017 123.452 136.743 124.038 136.548 124.623L162.064 139.547C162.607 138.281 163.217 137.084 163.819 135.903C164.819 133.939 165.796 132.023 166.397 129.918ZM168.804 99.1066C169.286 102.477 169.767 105.847 169.767 109.698H140.4C140.4 107.772 140.4 106.328 139.918 104.402L168.804 99.1066ZM151.098 66.3689C150.242 65.5665 149.387 64.764 148.584 63.9616L129.327 86.5891C129.827 87.0898 130.328 87.5327 130.809 87.9579C131.715 88.7591 132.549 89.4971 133.178 90.4406L155.806 71.1833C154.522 69.5784 152.81 67.9736 151.098 66.3689Z" fill="#1D2667"/>
</g>
<defs>
<linearGradient id="paint0_linear_4_4207" x1="145.339" y1="128.114" x2="138.42" y2="138.109" gradientUnits="userSpaceOnUse">
<stop stop-color="white" stop-opacity="0.01"/>
<stop offset="1" stop-opacity="0.1"/>
</linearGradient>
<linearGradient id="paint1_linear_4_4207" x1="150.822" y1="114.63" x2="148.169" y2="122.446" gradientUnits="userSpaceOnUse">
<stop stop-color="white" stop-opacity="0.01"/>
<stop offset="1" stop-opacity="0.1"/>
</linearGradient>
<linearGradient id="paint2_linear_4_4207" x1="134.967" y1="88.9178" x2="146.208" y2="108.503" gradientUnits="userSpaceOnUse">
<stop stop-color="white" stop-opacity="0.01"/>
<stop offset="1" stop-opacity="0.1"/>
</linearGradient>
<linearGradient id="paint3_linear_4_4207" x1="98.253" y1="73.6793" x2="129.931" y2="97.964" gradientUnits="userSpaceOnUse">
<stop stop-color="white" stop-opacity="0.01"/>
<stop offset="1" stop-opacity="0.1"/>
</linearGradient>
<clipPath id="clip0_4_4207">
<rect width="220" height="220" fill="white" transform="translate(0 0.5)"/>
</clipPath>
</defs>
</svg>
