<svg width="220" height="221" viewBox="0 0 220 221" fill="none" xmlns="http://www.w3.org/2000/svg">
<g clip-path="url(#clip0_4_4201)">
<path d="M110 0.5C170.751 0.5 220 49.7487 220 110.5C220 171.251 170.751 220.5 110 220.5C49.2487 220.5 0 171.251 0 110.5C0 49.7487 49.2487 0.5 110 0.5Z" fill="#1A82FF"/>
<path d="M150.217 155.795C140.694 167.461 127.301 173.294 110.038 173.294C92.7757 173.294 79.3809 167.461 69.8538 155.795C60.3246 144.122 55.5622 129.035 55.5664 110.531C55.5706 92.0285 60.3311 76.9428 69.8475 65.2743C79.3704 53.6019 92.7653 47.7665 110.032 47.7686C127.299 47.7708 140.692 53.6059 150.21 65.2743C159.733 76.9406 164.496 92.0263 164.498 110.531C164.5 129.037 159.74 144.124 150.217 155.795Z" fill="white"/>
<path d="M109.836 148.899C114.38 148.899 118.244 147.661 121.426 145.184C124.609 142.708 126.914 139.349 128.341 135.108C129.765 130.866 130.771 126.799 131.358 122.908C131.944 119.017 132.236 114.892 132.232 110.531C132.232 105.163 131.907 100.359 131.257 96.1182L92.1035 136.919C95.724 144.902 101.635 148.895 109.836 148.899Z" fill="#1A82FF"/>
<path d="M110.224 72.1633C105.68 72.1633 101.816 73.4016 98.6333 75.8782C95.4506 78.3549 93.1459 81.7135 91.7191 85.9542C90.2859 90.1971 89.2802 94.264 88.7019 98.1549C88.1153 102.046 87.824 106.171 87.8282 110.531C87.8282 113.404 87.9204 116.115 88.1048 118.665L125.448 79.7564C121.821 74.6964 116.747 72.1655 110.224 72.1633Z" fill="#1A82FF"/>
<path fill-rule="evenodd" clip-rule="evenodd" d="M122.5 105.151L127.308 109.765L163.772 71.7549L158.963 67.1411L122.5 105.151ZM53.7969 144.814L58.6055 149.428L95.0689 111.418L90.2604 106.804L53.7969 144.814Z" fill="#1A82FF"/>
</g>
<defs>
<clipPath id="clip0_4_4201">
<rect width="220" height="220" fill="white" transform="translate(0 0.5)"/>
</clipPath>
</defs>
</svg>
