<svg width="220" height="221" viewBox="0 0 220 221" fill="none" xmlns="http://www.w3.org/2000/svg">
<g clip-path="url(#clip0_4_4214)">
<path d="M110 220.5C170.751 220.5 220 171.251 220 110.5C220 49.7487 170.751 0.5 110 0.5C49.2487 0.5 0 49.7487 0 110.5C0 171.251 49.2487 220.5 110 220.5Z" fill="#EDF0F4"/>
<path d="M110.358 34.9633C116.468 34.2716 122.001 31.4471 127.938 29.8333C128.745 31.4471 129.725 33.407 131.858 33.407C133.99 33.7527 135.201 31.6778 136.181 30.1215C141.311 32.1389 146.037 34.9633 151.283 36.6925C153.992 37.6148 157.277 37.4418 159.352 39.7474C161.831 42.4565 161.888 46.3762 161.485 49.777C160.966 52.4861 159.41 55.3681 156.528 56.0598C153.761 56.7515 150.994 57.2126 148.401 58.3654C144.193 60.0371 140.331 62.6309 135.892 63.8412C135.316 62.8037 134.682 61.8238 134.048 60.7863C132.722 60.7863 131.281 60.671 130.071 61.3627C129.264 62.0544 128.745 63.0344 128.169 63.899C121.713 63.553 115.949 59.7489 109.435 59.864C102.691 59.9793 96.0051 61.5934 89.8952 64.4176C76.6378 69.663 65.9167 80.4419 59.9796 93.3533C56.7518 100.558 54.7343 108.34 54.4461 116.237C54.2156 129.782 58.308 143.558 66.6084 154.337C70.5854 160.101 75.9461 164.828 81.7101 168.747C93.93 177.336 109.551 180.506 124.307 178.719C142.291 176.586 159.122 166.269 169.209 151.225C175.953 141.829 179.699 130.532 180.564 119.061C181.601 109.954 180.045 100.731 177.221 92.0852C175.03 84.9955 171.169 78.5396 166.73 72.6603C164.482 69.5476 161.658 67.0116 159.006 64.3025C164.309 68.1644 168.69 73.1214 172.379 78.5396C179.065 87.9928 182.985 99.2326 184.425 110.703C184.772 117.908 185.003 125.229 183.331 132.261C180.506 146.729 172.898 160.159 162.177 170.246C156.931 175.607 150.475 179.469 143.904 182.985C137.564 186.097 130.705 188.345 123.673 189.21C109.32 191.63 94.2182 189.729 80.9608 183.619C78.1941 182.235 75.5426 180.621 72.8335 179.18C62.1699 172.552 53.0051 163.329 46.78 152.435C41.1887 141.945 37.0386 130.474 36.6928 118.6C36.7504 112.836 36.347 107.072 37.4421 101.365C40.3818 84.0156 49.0278 67.588 62.1699 55.8292C69.2598 49.1428 77.7331 44.1281 86.725 40.4968C94.2182 37.2689 102.288 35.8279 110.358 34.9633Z" fill="black"/>
<path d="M105.168 91.1631C108.568 90.7018 112.084 90.7018 115.543 91.1631C122.863 92.777 129.261 98.0799 132.143 105.054C135.544 112.029 134.564 120.502 130.645 127.073C127.302 132.03 122.402 136.065 116.523 137.506C113.986 137.967 111.393 138.89 108.741 138.428C105.168 137.852 101.479 137.103 98.3659 135.143C90.6996 130.877 85.7425 122.058 86.3189 113.239C86.3189 108.225 88.6247 103.498 91.5642 99.5209C94.7922 95.1979 99.8645 92.3735 105.168 91.1631Z" fill="black"/>
</g>
<defs>
<clipPath id="clip0_4_4214">
<rect width="220" height="220" fill="white" transform="translate(0 0.5)"/>
</clipPath>
</defs>
</svg>
