<svg width="220" height="221" viewBox="0 0 220 221" fill="none" xmlns="http://www.w3.org/2000/svg">
<g clip-path="url(#clip0_4_4221)">
<path d="M110 220.5C170.751 220.5 220 171.251 220 110.5C220 49.7487 170.751 0.5 110 0.5C49.2487 0.5 0 49.7487 0 110.5C0 171.251 49.2487 220.5 110 220.5Z" fill="#EDF0F4"/>
<path d="M110.536 183.833C116.492 183.833 121.321 179.005 121.321 173.049C121.321 167.093 116.492 162.265 110.536 162.265C104.58 162.265 99.752 167.093 99.752 173.049C99.752 179.005 104.58 183.833 110.536 183.833Z" fill="#2261F6"/>
<path d="M110.536 58.7353C116.492 58.7353 121.321 53.907 121.321 47.951C121.321 41.9949 116.492 37.1666 110.536 37.1666C104.58 37.1666 99.752 41.9949 99.752 47.951C99.752 53.907 104.58 58.7353 110.536 58.7353Z" fill="#2261F6"/>
<path d="M110.542 88.2122C115.306 88.2122 119.169 84.3496 119.169 79.5848C119.169 74.8199 115.306 70.9573 110.542 70.9573C105.777 70.9573 101.914 74.8199 101.914 79.5848C101.914 84.3496 105.777 88.2122 110.542 88.2122Z" fill="#2261F6"/>
<path d="M80.3423 72.3956C85.1072 72.3956 88.9698 68.5329 88.9698 63.7681C88.9698 59.0033 85.1072 55.1406 80.3423 55.1406C75.5775 55.1406 71.7148 59.0033 71.7148 63.7681C71.7148 68.5329 75.5775 72.3956 80.3423 72.3956Z" fill="#2261F6"/>
<path d="M80.3423 166.579C85.1072 166.579 88.9698 162.716 88.9698 157.952C88.9698 153.187 85.1072 149.324 80.3423 149.324C75.5775 149.324 71.7148 153.187 71.7148 157.952C71.7148 162.716 75.5775 166.579 80.3423 166.579Z" fill="#2261F6"/>
<path d="M137.499 104.389C142.263 104.389 146.126 100.526 146.126 95.7613C146.126 90.9964 142.263 87.1338 137.499 87.1338C132.734 87.1338 128.871 90.9964 128.871 95.7613C128.871 100.526 132.734 104.389 137.499 104.389Z" fill="#2261F6"/>
<path d="M137.499 134.226C142.263 134.226 146.126 130.363 146.126 125.599C146.126 120.834 142.263 116.971 137.499 116.971C132.734 116.971 128.871 120.834 128.871 125.599C128.871 130.363 132.734 134.226 137.499 134.226Z" fill="#2261F6"/>
<path d="M110.542 150.043C115.306 150.043 119.169 146.18 119.169 141.416C119.169 136.651 115.306 132.788 110.542 132.788C105.777 132.788 101.914 136.651 101.914 141.416C101.914 146.18 105.777 150.043 110.542 150.043Z" fill="#2261F6"/>
<path d="M110.543 117.33C114.315 117.33 117.373 114.272 117.373 110.5C117.373 106.727 114.315 103.67 110.543 103.67C106.771 103.67 103.713 106.727 103.713 110.5C103.713 114.272 106.771 117.33 110.543 117.33Z" fill="#2261F6"/>
<path d="M80.3418 132.788C84.114 132.788 87.1719 129.73 87.1719 125.958C87.1719 122.186 84.114 119.128 80.3418 119.128C76.5697 119.128 73.5117 122.186 73.5117 125.958C73.5117 129.73 76.5697 132.788 80.3418 132.788Z" fill="#2261F6"/>
<path d="M80.3418 102.591C84.114 102.591 87.1719 99.5335 87.1719 95.7614C87.1719 91.9892 84.114 88.9313 80.3418 88.9313C76.5697 88.9313 73.5117 91.9892 73.5117 95.7614C73.5117 99.5335 76.5697 102.591 80.3418 102.591Z" fill="#2261F6"/>
<path d="M50.8667 84.6178C53.6462 84.6178 55.8994 82.3646 55.8994 79.5851C55.8994 76.8056 53.6462 74.5524 50.8667 74.5524C48.0872 74.5524 45.834 76.8056 45.834 79.5851C45.834 82.3646 48.0872 84.6178 50.8667 84.6178Z" fill="#2261F6"/>
<path d="M50.8667 115.532C53.6462 115.532 55.8994 113.279 55.8994 110.5C55.8994 107.72 53.6462 105.467 50.8667 105.467C48.0872 105.467 45.834 107.72 45.834 110.5C45.834 113.279 48.0872 115.532 50.8667 115.532Z" fill="#2261F6"/>
<path d="M50.8667 146.447C53.6462 146.447 55.8994 144.194 55.8994 141.414C55.8994 138.635 53.6462 136.382 50.8667 136.382C48.0872 136.382 45.834 138.635 45.834 141.414C45.834 144.194 48.0872 146.447 50.8667 146.447Z" fill="#2261F6"/>
<path d="M137.499 74.5537C143.455 74.5537 148.284 69.7254 148.284 63.7693C148.284 57.8133 143.455 52.985 137.499 52.985C131.543 52.985 126.715 57.8133 126.715 63.7693C126.715 69.7254 131.543 74.5537 137.499 74.5537Z" fill="#2261F6"/>
<path d="M137.499 168.376C143.455 168.376 148.284 163.548 148.284 157.592C148.284 151.636 143.455 146.807 137.499 146.807C131.543 146.807 126.715 151.636 126.715 157.592C126.715 163.548 131.543 168.376 137.499 168.376Z" fill="#2261F6"/>
<path d="M164.462 90.3689C170.418 90.3689 175.246 85.5405 175.246 79.5845C175.246 73.6285 170.418 68.8002 164.462 68.8002C158.506 68.8002 153.678 73.6285 153.678 79.5845C153.678 85.5405 158.506 90.3689 164.462 90.3689Z" fill="#2261F6"/>
<path d="M164.462 152.2C170.418 152.2 175.246 147.371 175.246 141.415C175.246 135.459 170.418 130.631 164.462 130.631C158.506 130.631 153.678 135.459 153.678 141.415C153.678 147.371 158.506 152.2 164.462 152.2Z" fill="#2261F6"/>
<path d="M164.462 121.284C170.418 121.284 175.246 116.455 175.246 110.499C175.246 104.543 170.418 99.7148 164.462 99.7148C158.506 99.7148 153.678 104.543 153.678 110.499C153.678 116.455 158.506 121.284 164.462 121.284Z" fill="#2261F6"/>
</g>
<defs>
<clipPath id="clip0_4_4221">
<rect width="220" height="220" fill="white" transform="translate(0 0.5)"/>
</clipPath>
</defs>
</svg>
