<svg width="220" height="221" viewBox="0 0 220 221" fill="none" xmlns="http://www.w3.org/2000/svg">
<g clip-path="url(#clip0_4_4242)">
<path d="M110 220.5C170.751 220.5 220 171.251 220 110.5C220 49.7487 170.751 0.5 110 0.5C49.2487 0.5 0 49.7487 0 110.5C0 171.251 49.2487 220.5 110 220.5Z" fill="url(#paint0_linear_4_4242)"/>
<path d="M159.949 109.473L110.515 37.7756L61.0234 109.473L102.809 170.038V109.187L96.0157 135.731L77.8632 109.473L110.515 62.2646L143.11 109.473L125.014 135.731L110.515 78.9901V181.227L159.949 109.473Z" fill="white"/>
</g>
<defs>
<linearGradient id="paint0_linear_4_4242" x1="-40.2681" y1="70.242" x2="69.7275" y2="260.76" gradientUnits="userSpaceOnUse">
<stop stop-color="#05C1DA"/>
<stop offset="0.4329" stop-color="#00BED6"/>
<stop offset="1" stop-color="#00B3CC"/>
</linearGradient>
<clipPath id="clip0_4_4242">
<rect width="220" height="220" fill="white" transform="translate(0 0.5)"/>
</clipPath>
</defs>
</svg>
