<svg width="220" height="221" viewBox="0 0 220 221" fill="none" xmlns="http://www.w3.org/2000/svg">
<g clip-path="url(#clip0_4_4245)">
<path fill-rule="evenodd" clip-rule="evenodd" d="M110 220.5C49.5 220.5 0 171.001 0 109.952C0.55 49.4535 49.5 -0.0454497 110.55 0.504539C171.05 1.05453 220 50.0035 220 111.602C219.45 171.551 170.5 220.5 110 220.5Z" fill="#EDF0F4"/>
<path fill-rule="evenodd" clip-rule="evenodd" d="M68.6175 66.3853C66.619 55.9583 74.6133 46.3333 85.0057 46.3333C94.1992 46.3333 101.794 53.953 101.794 63.177V84.0312C104.192 84.0312 106.59 83.6302 108.988 83.6302C111.387 83.6302 113.385 83.6302 115.784 84.0312V63.177C115.784 53.953 123.378 46.3333 132.572 46.3333C142.964 46.3333 150.958 55.9583 149.36 66.3853L144.963 90.8488C160.552 97.6666 172.543 109.698 172.543 124.536V133.76C172.543 146.193 164.549 156.62 152.957 163.437C141.365 170.656 126.176 174.667 108.988 174.667C91.801 174.667 76.6118 170.656 65.0202 163.437C53.8282 156.62 45.834 146.193 45.834 133.76V124.536C45.834 109.698 57.4256 97.6666 73.0144 90.8488L68.6175 66.3853ZM138.967 94.0571L144.163 65.1821C145.362 57.9636 140.166 51.1458 132.572 51.1458C126.176 51.1458 120.98 56.3594 120.98 62.7761V89.2446C119.381 88.8437 117.383 88.8437 115.784 88.8437C113.385 88.8437 111.387 88.4427 108.988 88.4427C106.59 88.4427 104.192 88.4427 101.794 88.8437C100.195 88.8437 98.1964 89.2446 96.5975 89.2446V63.177C96.5975 56.7603 91.4013 51.5469 85.0059 51.5469C77.811 51.5469 72.2149 58.3645 73.8138 65.5833L79.0102 94.4582C62.2222 100.875 51.0302 112.104 51.0302 124.937V134.161C51.0302 153.812 77.0116 169.854 108.988 169.854C140.965 169.854 166.947 153.812 166.947 134.161V124.937C167.347 111.703 156.155 100.474 138.967 94.0571Z" fill="#633001"/>
<path d="M167.263 133.649C167.263 153.549 141.138 169.794 108.983 169.794C76.8287 169.794 50.7031 153.549 50.7031 133.649V124.308H167.665V133.649H167.263Z" fill="#FEDC90"/>
<path fill-rule="evenodd" clip-rule="evenodd" d="M73.2889 65.2119C71.6755 58.0091 77.322 51.2067 84.5818 51.2067C91.0348 51.2067 96.278 56.4086 96.278 62.8109V89.2205C100.311 88.8204 104.344 88.4202 108.781 88.4202C112.814 88.4202 116.847 88.8204 120.88 89.2205V62.8109C120.88 56.4086 126.124 51.2067 132.576 51.2067C139.836 51.2067 145.483 58.0091 144.273 65.2119L139.03 94.0223C155.969 100.425 167.665 111.629 167.665 124.433C167.665 144.04 141.449 160.046 109.184 160.046C76.9187 160.046 50.7031 144.04 50.7031 124.433C50.7031 111.629 61.9961 100.425 78.9354 94.0223L73.2889 65.2119Z" fill="#D1884F"/>
<path d="M92.9391 122.684C92.9391 127.963 90.0964 132.43 86.4412 132.43C82.7863 132.43 79.9434 127.963 79.9434 122.684C79.9434 117.404 82.7863 112.937 86.4412 112.937C90.0964 112.937 92.9391 117.404 92.9391 122.684Z" fill="#633001"/>
<path d="M138.429 122.684C138.429 127.963 135.587 132.43 131.931 132.43C128.276 132.43 125.434 127.963 125.434 122.684C125.434 117.404 128.276 112.937 131.931 112.937C135.587 112.937 138.429 117.404 138.429 122.684Z" fill="#633001"/>
</g>
<defs>
<clipPath id="clip0_4_4245">
<rect width="220" height="220" fill="white" transform="translate(0 0.5)"/>
</clipPath>
</defs>
</svg>
