<svg width="220" height="221" viewBox="0 0 220 221" fill="none" xmlns="http://www.w3.org/2000/svg">
<g clip-path="url(#clip0_4_4252)">
<path d="M110 220.5C170.753 220.5 220 171.253 220 110.5C220 49.747 170.753 0.5 110 0.5C49.247 0.5 0 49.747 0 110.5C0 171.253 49.247 220.5 110 220.5Z" fill="#EDF0F4"/>
<path d="M70.1187 136.505V151.849H85.4622V147.938H106.823V181.934C71.3221 179.828 42.1391 150.645 40.334 115.144H74.3306V136.204L70.1187 136.505Z" fill="#005CC7"/>
<path d="M135.708 147.938V151.849H151.052V136.505H147.141V115.445H181.137C179.332 150.946 149.849 179.828 114.348 181.934V147.938H135.708Z" fill="#005CC7"/>
<path d="M106.823 75.4316H136.006V70.9188H151.65V88.0674H136.307V83.2538H107.124V115.144L140.218 115.445V136.505H136.307V140.115H85.4622V136.204H81.852V86.2623H85.7631V70.9188H70.4195V86.2623H74.3306V107.322H40.334C42.1391 71.5205 71.6229 42.6384 106.823 40.8333V75.4316Z" fill="#005CC7"/>
</g>
<defs>
<clipPath id="clip0_4_4252">
<rect width="220" height="220" fill="white" transform="translate(0 0.5)"/>
</clipPath>
</defs>
</svg>
