<svg width="220" height="221" viewBox="0 0 220 221" fill="none" xmlns="http://www.w3.org/2000/svg">
<g clip-path="url(#clip0_4_4257)">
<path d="M110 220.5C170.751 220.5 220 171.251 220 110.5C220 49.7487 170.751 0.5 110 0.5C49.2487 0.5 0 49.7487 0 110.5C0 171.251 49.2487 220.5 110 220.5Z" fill="#03E8B0"/>
<path fill-rule="evenodd" clip-rule="evenodd" d="M140.978 54.5862C144.274 54.5862 146.945 51.9187 146.945 48.6282H146.952C146.952 45.3357 144.279 42.6667 140.981 42.6667C137.684 42.6667 135.011 45.3357 135.011 48.6282C135.011 51.9187 137.682 54.5862 140.978 54.5862ZM81.4558 49.1017C81.4558 52.3922 78.7841 55.0597 75.4885 55.0597C72.1927 55.0597 69.521 52.3922 69.521 49.1017C69.6303 45.8918 72.2681 43.346 75.485 43.346C78.7018 43.346 81.3398 45.8918 81.4488 49.1017H81.4558ZM114.531 47.8169C112.004 45.2015 109.066 42.1611 105.126 43.8714C100.932 45.4844 100.231 51.5454 103.655 54.339C107.249 57.503 110.66 60.871 114.071 64.2399C115.892 66.0381 117.714 67.8371 119.563 69.6047C121.584 71.6089 124.808 72.6934 127.448 71.2521C130.879 69.7212 131.903 64.69 129.38 61.9375C124.98 57.2975 120.333 52.8977 115.452 48.7585C115.152 48.459 114.846 48.1431 114.535 47.8208L114.534 47.8193L114.531 47.8169ZM162.132 61.2238C161.3 57.6475 156.488 56.3364 153.483 57.9496V57.9564C149.256 61.5127 145.551 65.6107 141.848 69.7079C139.775 72.0004 137.703 74.2925 135.54 76.4892C132.859 79.1937 133.821 84.5201 137.376 85.9892C139.837 87.1216 142.91 86.5588 144.649 84.4585C149.427 79.4751 154.205 74.4987 159.121 69.6595C161.362 67.5385 163.404 64.4017 162.132 61.2238ZM57.4556 58.9379C60.5839 57.0503 64.4544 58.2996 66.7712 60.8598C69.9903 64.1037 73.2724 67.2792 76.5511 70.4516C78.5795 72.4142 80.6077 74.3766 82.6176 76.352C86.1031 79.5644 83.6694 86.3734 78.809 86.4009C75.8234 86.8541 73.8664 84.8142 71.9608 82.8279C71.2687 82.1063 70.5834 81.3921 69.858 80.8067C65.0867 76.8599 60.7144 72.467 56.3833 68.0397C53.9358 65.5205 54.6646 60.8941 57.4626 58.9379H57.4556ZM68.593 99.0925C71.8655 94.5416 66.7437 87.9385 61.4981 89.9634L61.5049 89.9565C56.8809 93.0878 53.1572 97.3149 49.4343 101.541C47.2568 104.013 45.0797 106.485 42.723 108.736C39.1892 112.011 41.6299 118.758 46.4903 118.943C49.8402 119.347 51.9949 116.87 54.0103 114.553C54.4974 113.993 54.9762 113.442 55.4621 112.944C57.2091 110.975 59.0963 109.127 60.9828 107.279C63.6543 104.661 66.3244 102.045 68.593 99.0925ZM167.893 104.563C171.502 102.209 176.947 104.886 177.064 109.231C177.45 112.207 175.393 114.16 173.384 116.065C172.642 116.77 171.906 117.468 171.303 118.209C167.37 122.931 163.053 127.338 158.598 131.58C155.34 134.648 149.262 132.493 148.678 128.045C148.065 124.356 150.73 121.792 153.214 119.404C153.822 118.819 154.419 118.244 154.955 117.667C157.006 115.765 158.912 113.71 160.816 111.658C163.097 109.2 165.375 106.744 167.893 104.563ZM84.0888 141.498C84.0063 137.25 78.6921 134.765 75.186 136.858C72.3003 139.373 69.6655 142.153 67.0286 144.935C64.9223 147.157 62.8147 149.381 60.5769 151.472L60.4742 151.572C57.8896 154.076 54.5865 157.277 55.9571 161.239C56.7683 165.392 62.8869 166.786 65.7537 163.889C70.1672 159.599 74.5397 155.254 78.4583 150.518C79.0474 149.791 79.766 149.104 80.492 148.411C82.5026 146.489 84.5686 144.514 84.0888 141.498ZM137.486 136.701C139.424 136.035 141.885 135.98 143.522 137.38C145.586 139.338 147.696 141.249 149.805 143.16C153.9 146.868 157.995 150.577 161.761 154.636C163.521 156.421 163.679 159.407 162.51 161.548C160.86 165.399 155.209 165.495 152.466 162.77C149.825 160.284 147.235 157.737 144.643 155.19C141.797 152.392 138.95 149.593 136.035 146.873C132.666 144.265 133.457 138.211 137.479 136.701H137.486ZM99.0965 153.538C97.0204 151.342 93.6242 149.866 90.7367 151.424C87.2719 152.934 86.2269 158.027 88.7981 160.759C93.017 165.247 97.4933 169.487 102.204 173.457C102.949 174.061 103.649 174.801 104.355 175.547C106.235 177.535 108.162 179.573 111.121 179.223C116.16 179.168 118.58 172.284 115.005 168.893C109.602 163.879 104.299 158.759 99.0965 153.538ZM92.8714 70.8984C96.1652 70.8984 98.8353 68.2326 98.8353 64.9439C98.8353 61.6553 96.1652 58.9895 92.8714 58.9895C89.5777 58.9895 86.9074 61.6553 86.9074 64.9439C86.9074 68.2326 89.5777 70.8984 92.8714 70.8984ZM52.2653 79.4957C52.3392 81.6713 51.219 83.714 49.3433 84.8237C47.4676 85.9332 45.1351 85.9332 43.2594 84.8237C41.3837 83.714 40.2634 81.6713 40.3374 79.4957C40.4465 76.2857 43.0845 73.7399 46.3013 73.7399C49.5182 73.7399 52.156 76.2857 52.2653 79.4957ZM177.834 78.0063C177.834 81.2949 175.164 83.9607 171.87 83.9607C168.576 83.9607 165.906 81.2949 165.906 78.0063C165.906 74.7176 168.576 72.0516 171.87 72.0516C175.164 72.0516 177.834 74.7176 177.834 78.0063ZM155.57 101.066C158.864 101.066 161.534 98.4001 161.534 95.1115C161.534 91.8228 158.864 89.1568 155.57 89.1568C152.276 89.1568 149.606 91.8228 149.606 95.1115C149.606 98.4001 152.276 101.066 155.57 101.066ZM177.806 143.201C177.806 146.489 175.136 149.155 171.843 149.155C168.549 149.155 165.879 146.489 165.879 143.201C165.879 139.912 168.549 137.246 171.843 137.246C175.136 137.246 177.806 139.912 177.806 143.201ZM128.369 163.053C130.245 161.943 131.365 159.901 131.291 157.725C131.182 154.515 128.544 151.969 125.327 151.969C122.111 151.969 119.473 154.515 119.364 157.725C119.29 159.901 120.41 161.943 122.285 163.053C124.161 164.163 126.494 164.163 128.369 163.053ZM148.451 174.007C148.525 176.182 147.405 178.225 145.529 179.335C143.653 180.444 141.321 180.444 139.445 179.335C137.569 178.225 136.449 176.182 136.523 174.007C136.632 170.797 139.27 168.251 142.487 168.251C145.704 168.251 148.342 170.797 148.451 174.007ZM77.1728 179.965C80.4684 179.965 83.1401 177.297 83.1401 174.007H83.1331C83.024 170.797 80.3861 168.251 77.1693 168.251C73.9525 168.251 71.3145 170.797 71.2055 174.007C71.2055 177.297 73.877 179.965 77.1728 179.965ZM68.586 127.372C68.6601 129.548 67.5399 131.591 65.6642 132.7C63.7883 133.81 61.456 133.81 59.5803 132.7C57.7044 131.591 56.5843 129.548 56.6583 127.372C56.7674 124.162 59.4054 121.616 62.6222 121.616C65.8389 121.616 68.4769 124.162 68.586 127.372ZM49.3433 150.005C51.219 148.895 52.3392 146.852 52.2653 144.677C52.156 141.467 49.5182 138.921 46.3013 138.921C43.0845 138.921 40.4465 141.467 40.3374 144.677C40.2634 146.852 41.3837 148.895 43.2594 150.005C45.1351 151.114 47.4676 151.114 49.3433 150.005Z" fill="white"/>
</g>
<defs>
<clipPath id="clip0_4_4257">
<rect width="220" height="220" fill="white" transform="translate(0 0.5)"/>
</clipPath>
</defs>
</svg>
