<svg width="220" height="221" viewBox="0 0 220 221" fill="none" xmlns="http://www.w3.org/2000/svg">
<g clip-path="url(#clip0_4_4260)">
<path d="M110 220.5C170.751 220.5 220 171.251 220 110.5C220 49.7487 170.751 0.5 110 0.5C49.2487 0.5 0 49.7487 0 110.5C0 171.251 49.2487 220.5 110 220.5Z" fill="#EDF0F4"/>
<path fill-rule="evenodd" clip-rule="evenodd" d="M27.5 110.5C27.5 156.063 64.4365 193 110 193C155.563 193 192.5 156.063 192.5 110.5C192.5 88.6197 183.808 67.6354 168.336 52.1637C152.865 36.692 131.88 28 110 28C64.4365 28 27.5 64.9365 27.5 110.5ZM144.805 62.1601L143.6 67.961H151.25C159.793 67.961 166.719 74.8866 166.719 83.4297V106.633C166.719 115.176 159.793 122.102 151.25 122.102H132.095L130.864 127.902C130.516 129.364 129.239 130.417 127.738 130.48H123.87C123.221 130.508 122.598 130.221 122.196 129.711C121.794 129.2 121.661 128.527 121.84 127.902L123.071 122.102H114.048L112.817 127.902C112.469 129.364 111.192 130.417 109.691 130.48H105.823C105.174 130.508 104.551 130.221 104.149 129.711C103.747 129.2 103.615 128.527 103.793 127.902L105.024 122.102H95.3563L86.8613 162.063H66.2363L81.3054 91.164H101.93L98.6434 106.633H138.359C142.631 106.633 146.094 103.17 146.094 98.8985V91.164C146.094 86.8925 142.631 83.4297 138.359 83.4297H53.2813L66.172 67.961H116.503L117.734 62.1601C118.082 60.6981 119.359 59.6452 120.86 59.5821H124.728C125.377 59.555 126 59.8413 126.402 60.3519C126.804 60.8625 126.936 61.5353 126.758 62.1601L125.527 67.961H134.55L135.781 62.1601C136.129 60.6981 137.406 59.6452 138.907 59.5821H142.775C143.424 59.555 144.047 59.8413 144.449 60.3519C144.851 60.8625 144.983 61.5353 144.805 62.1601Z" fill="#F7931E"/>
</g>
<defs>
<clipPath id="clip0_4_4260">
<rect width="220" height="220" fill="white" transform="translate(0 0.5)"/>
</clipPath>
</defs>
</svg>
