<svg width="220" height="221" viewBox="0 0 220 221" fill="none" xmlns="http://www.w3.org/2000/svg">
<g clip-path="url(#clip0_4_4263)">
<path d="M110 220.5C170.751 220.5 220 171.251 220 110.5C220 49.7487 170.751 0.5 110 0.5C49.2487 0.5 0 49.7487 0 110.5C0 171.251 49.2487 220.5 110 220.5Z" fill="#EDF0F4"/>
<path d="M82.2009 71.1302V80.9366C82.2009 87.1613 77.1699 92.1498 70.9877 92.1498H49.2861C42.3365 92.1071 36.666 97.8203 36.666 104.77V123.274C36.666 130.223 42.3365 135.894 49.2861 135.894H70.9877C77.2126 135.894 82.2009 140.968 82.2009 147.107V168.809C82.2009 175.758 87.8714 181.429 94.821 181.429H113.325C120.275 181.429 125.945 175.758 125.945 168.809V147.107C125.945 140.882 130.976 135.894 137.158 135.894H146.964C111.321 135.894 82.2009 106.774 82.2009 71.1302Z" fill="black"/>
<path d="M171.478 123.274V104.77C171.478 97.8202 165.808 92.1497 158.858 92.1497H137.157C130.932 92.1497 125.943 87.1187 125.943 80.9365V59.235C125.943 52.2854 120.273 46.6149 113.323 46.6149H94.8193C87.8697 46.6149 82.1992 52.2854 82.1992 59.235V71.1304C82.1992 106.774 111.362 135.894 146.963 135.894H158.858C165.808 135.894 171.478 130.223 171.478 123.274Z" fill="#42B34F"/>
<path d="M139.118 75.8204C139.118 75.8204 134.897 31.7779 183.332 42.5219C182.436 55.4832 183.63 87.3748 139.118 75.8204Z" fill="#42B34F"/>
</g>
<defs>
<clipPath id="clip0_4_4263">
<rect width="220" height="220" fill="white" transform="translate(0 0.5)"/>
</clipPath>
</defs>
</svg>
