<svg width="220" height="221" viewBox="0 0 220 221" fill="none" xmlns="http://www.w3.org/2000/svg">
<g clip-path="url(#clip0_4_4268)">
<path d="M110 220.5C170.751 220.5 220 171.251 220 110.5C220 49.7487 170.751 0.5 110 0.5C49.2487 0.5 0 49.7487 0 110.5C0 171.251 49.2487 220.5 110 220.5Z" fill="#E7EFF3"/>
<path d="M80.7452 64.3512C83.2569 61.4912 85.5669 59.0712 87.7669 57.0179C50.6236 55.8262 61.4402 82.6845 49.2669 109.946C35.3336 141.37 50.9169 153.341 74.1269 157.081C70.8857 153.219 68.241 148.893 66.2802 144.248C51.3019 125.31 57.3702 90.7879 80.7452 64.3512Z" fill="#EFE812"/>
<path d="M170.119 97.828C165.733 109.303 159.387 119.929 151.364 129.233C144.933 137.049 137.228 143.725 128.576 148.978C118.527 155.345 106.848 158.663 94.9526 158.53C88.0075 158.592 81.0684 158.108 74.1992 157.081C78.0129 161.637 82.7413 165.341 88.0776 167.953C121.664 184.196 123.773 154.038 159.303 138.73C179.249 130.131 179.323 113.338 170.101 97.828" fill="#EDE70A"/>
<path d="M128.577 66.4778C133.439 67.3288 138.124 68.9897 142.437 71.3912C153.735 77.7435 163.254 86.8344 170.12 97.8278C176.17 80.7778 173.347 67.3945 160.128 64.9745C145.572 62.3161 134.205 61.4545 123.278 53.8278C109.822 44.4778 98.0152 47.5212 87.7852 57.0362L90.0035 57.1278C104.193 57.9711 117.76 60.7945 128.503 66.4411" fill="#EDE70A"/>
<path d="M80.7472 64.3511C57.3722 90.7878 51.3039 125.309 66.3555 144.248C59.2961 127.58 60.4984 108.561 69.6005 92.9144C82.2689 71.7944 107.697 62.6278 128.579 66.4778C117.762 60.7578 104.196 58.0078 90.0789 57.1644L87.8605 57.0544C85.5872 59.1444 83.2772 61.4911 80.7472 64.3511Z" fill="#DEC21C"/>
<path d="M142.436 71.3544C138.121 68.9658 133.436 67.3174 128.576 66.4778C142.803 73.9578 152.245 86.6444 152.245 106.701C152.077 123.906 143.156 139.841 128.576 148.978C137.233 143.73 144.938 137.054 151.365 129.233C159.387 119.929 165.733 109.303 170.12 97.8278C163.258 86.821 153.738 77.717 142.436 71.3544Z" fill="#E5CB22"/>
<path fill-rule="evenodd" clip-rule="evenodd" d="M69.6021 92.8229C82.2705 71.7946 107.699 62.6279 128.58 66.4779C142.807 73.9579 152.249 86.6446 152.249 106.701C152.085 123.907 143.163 139.844 128.58 148.978C118.532 155.345 106.853 158.663 94.9571 158.53C88.0119 158.592 81.0727 158.108 74.2038 157.081C70.9562 153.224 68.3107 148.897 66.3571 144.248C59.2579 127.556 60.461 108.491 69.6021 92.8229ZM78.3471 129.141C88.755 145.167 110.156 149.772 126.234 139.445C142.312 129.16 144.494 109.121 136.555 91.7779C128.415 73.9763 106.085 69.0996 88.6688 81.4746C73.1038 92.4746 67.9705 113.136 78.3471 129.141Z" fill="#CCA727"/>
</g>
<defs>
<clipPath id="clip0_4_4268">
<rect width="220" height="220" fill="white" transform="translate(0 0.5)"/>
</clipPath>
</defs>
</svg>
