<svg width="220" height="221" viewBox="0 0 220 221" fill="none" xmlns="http://www.w3.org/2000/svg">
<g clip-path="url(#clip0_4_4276)">
<path d="M110 220.5C170.751 220.5 220 171.251 220 110.5C220 49.7487 170.751 0.5 110 0.5C49.2487 0.5 0 49.7487 0 110.5C0 171.251 49.2487 220.5 110 220.5Z" fill="#EDF0F4"/>
<path d="M70.0039 161.872C72.6705 164.97 77.3372 169.598 84.3567 173.323C92.5136 177.637 100.043 178.656 104.357 178.931C106.906 178.813 111.063 178.343 115.729 176.264C120.396 174.186 123.533 171.441 125.337 169.598C127.298 167.833 130.161 165.323 133.69 162.343C141.494 155.676 145.494 152.303 150.082 149.205C152.435 147.598 155.612 145.637 159.533 143.598C161.612 142.539 163.729 141.598 165.886 140.735C168.788 139.558 173.651 137.009 177.651 131.833C182.475 125.519 183.18 118.97 183.337 116.539C183.141 113.441 182.553 109.245 180.867 104.578C179.533 100.852 177.925 97.8328 176.435 95.5583C170.671 105.872 158.161 124.892 135.063 140.264C108.278 158.107 81.9646 161.205 70.0039 161.872Z" fill="#0293D6"/>
<path d="M85.0215 50.5386C86.5509 48.97 88.5116 47.2447 91.0607 45.6759C97.6489 41.5974 104.237 40.9701 107.767 40.8916C109.414 40.7739 111.727 40.7739 114.433 41.4799C118.394 42.4994 121.1 44.4994 122.59 45.7151C126.08 48.1465 130.629 50.8525 136.316 53.1269C144.316 56.3426 151.492 57.4407 156.708 57.8329C157.766 57.8719 159.296 57.9504 161.1 58.2641C164.316 58.8524 171.492 60.1073 176.119 65.9505C179.727 70.4994 180.119 75.7545 180.159 78.2249C180.041 80.7739 179.688 83.7544 178.982 87.0485C178.276 90.3427 177.374 93.2054 176.433 95.5975C145.963 80.578 115.492 65.5584 85.0215 50.5386Z" fill="#EBE638"/>
<path d="M69.9993 161.872C66.6267 161.441 61.8032 160.499 56.4306 158.186C50.9013 155.794 43.9209 152.813 39.8032 145.558C37.1759 140.931 36.666 136.264 36.666 133.127C36.7052 130.225 36.9405 126.774 37.7248 122.931C38.8622 117.166 40.7837 112.46 42.5092 109.009C43.9601 105.558 45.372 101.637 46.6269 97.3622C48.4307 91.2055 49.4896 85.5582 50.1562 80.578C50.6268 77.2446 51.2542 74.5386 51.8033 72.6171C52.9405 68.4994 53.9993 64.7739 56.7837 60.9309C58.3523 58.7347 59.9994 57.1661 61.0974 56.2249C63.7249 54.5388 67.9993 52.2249 73.7641 51.0485C78.3523 50.1073 82.3131 50.225 85.0581 50.5386C78.823 59.4015 67.8033 77.5583 64.0778 103.284C60.1561 130.186 66.313 151.597 69.9993 161.872Z" fill="#BAD147"/>
<path d="M85.0205 50.5389C84.3931 50.4996 106.079 51.9115 119.373 56.5388C123.334 57.9114 126.942 59.48 130.236 61.0879C125.962 60.8134 98.6676 59.5977 77.8048 80.578C51.6479 106.892 60.1577 143.559 60.6283 145.598C58.0793 142.343 54.2362 136.46 52.7069 128.225C52.0009 124.5 51.9616 121.205 52.1186 118.5C52.393 111.049 53.6872 101.088 57.6871 90.0291C65.0989 69.6761 77.8048 56.8133 85.0205 50.5389Z" fill="#78B650"/>
<path d="M137.413 147.558C140.981 141.166 147.766 126.852 147.295 107.715C146.668 83.2839 134.628 66.578 130.275 61.0879C132.746 61.48 136.315 62.2643 140.432 63.7937C149.452 67.2054 155.177 72.225 160.354 76.8525C164.785 80.8133 170.746 86.8917 176.432 95.5976C173.805 102.5 169.883 110.813 163.962 119.519C155.021 132.735 144.981 141.794 137.413 147.558Z" fill="#2F8260"/>
<path fill-rule="evenodd" clip-rule="evenodd" d="M130.9 61.0877C134.743 62.97 143.566 67.9504 150.115 78.3425C157.292 89.7543 157.448 100.931 157.292 105.127C156.39 130.578 138.978 146.735 137.331 148.146C125.539 158.26 112.152 160.83 106.192 161.975L106.115 161.99C100.939 162.97 96.5466 163.245 93.3701 163.284C89.5662 163.519 85.2133 163.558 80.429 163.166C76.8602 162.892 73.6053 162.421 70.6251 161.872C67.7623 158.225 64.429 153.166 61.723 146.695C57.4485 136.46 56.6642 127.205 56.625 121.323C56.7427 116.774 57.723 94.5385 75.723 77.2838C98.1936 55.7544 127.762 60.5387 130.9 61.0877ZM107.056 148.029C109.448 148.029 125.096 147.911 135.998 135.205C144.675 125.127 144.781 113.465 144.82 109.11L144.821 109.009L144.821 109C144.78 107.429 144.159 83.8139 126.115 73.9896C117.762 69.4406 109.488 69.9112 107.096 70.0681C97.4486 70.7347 90.8603 75.1268 88.076 77.0093C84.7819 79.2837 69.9191 90.1072 69.3702 109.048C68.9388 123.127 76.7035 132.735 78.1152 134.421C89.0955 147.597 104.821 147.99 107.056 148.029Z" fill="#085229"/>
</g>
<defs>
<clipPath id="clip0_4_4276">
<rect width="220" height="220" fill="white" transform="translate(0 0.5)"/>
</clipPath>
</defs>
</svg>
