<svg width="220" height="221" viewBox="0 0 220 221" fill="none" xmlns="http://www.w3.org/2000/svg">
<g clip-path="url(#clip0_4_4284)">
<path d="M110 220.5C170.751 220.5 220 171.251 220 110.5C220 49.7487 170.751 0.5 110 0.5C49.2487 0.5 0 49.7487 0 110.5C0 171.251 49.2487 220.5 110 220.5Z" fill="#663300"/>
<path d="M81.1465 69.3077L89.7126 48.1666L148.386 48.3806C156.952 49.0294 167.232 49.0294 173.015 56.3662C179.868 64.3451 178.367 75.7748 174.941 84.8304C168.225 104.648 151.757 119.52 131.467 124.089C117.336 126.25 102.986 125.601 88.6366 125.601C91.4944 118.581 94.352 111.535 97.2026 104.46C108.983 104.46 120.975 105.109 132.967 103.169C143.891 100.367 153.958 89.3651 152.244 77.2864C151.168 72.11 145.392 69.7356 140.458 69.7356C120.763 68.8728 101.054 69.7356 81.359 69.3007H81.1465V69.3077Z" fill="white"/>
<path fill-rule="evenodd" clip-rule="evenodd" d="M125.469 75.126H55.8716V75.1328V75.3399L46.4421 99.0691H116.266L125.469 75.126ZM91.2048 104.46H67.2198L42.166 169.166H65.9453L91.2048 104.46Z" fill="white"/>
</g>
<defs>
<clipPath id="clip0_4_4284">
<rect width="220" height="220" fill="white" transform="translate(0 0.5)"/>
</clipPath>
</defs>
</svg>
