<svg width="220" height="221" viewBox="0 0 220 221" fill="none" xmlns="http://www.w3.org/2000/svg">
<g clip-path="url(#clip0_4_4288)">
<path d="M110 220.5C170.751 220.5 220 171.251 220 110.5C220 49.7487 170.751 0.5 110 0.5C49.2487 0.5 0 49.7487 0 110.5C0 171.251 49.2487 220.5 110 220.5Z" fill="#348F8D"/>
<path fill-rule="evenodd" clip-rule="evenodd" d="M161.001 62.5387C164.403 58.9972 164.403 53.3898 161.001 49.8483H161.008C159.389 48.1725 157.162 47.2267 154.836 47.2267C152.51 47.2267 150.283 48.1725 148.664 49.8483L132.723 66.2508L112.282 45.2632C111.871 44.83 111.405 44.4519 110.912 44.1152C107.741 41.8633 103.405 42.2752 100.712 45.0844L100.54 45.2632L100.534 45.27H100.527L48.2999 99.0281C48.2696 99.0642 48.2377 99.0985 48.204 99.1313L48.0943 99.2343C45.0805 102.363 45.0805 107.325 48.0943 110.453L63.8911 126.629C65.3222 128.088 67.2796 128.906 69.32 128.897C71.3601 128.888 73.3102 128.053 74.7285 126.581C77.717 123.482 77.7381 118.569 74.7763 115.444L64.8433 105.249L105.98 62.9097L127.339 84.8668C129.917 87.5536 133.98 88.1503 137.217 86.3172C138.087 85.8779 138.879 85.2971 139.56 84.5986L161.001 62.5387ZM173.736 123.604C176.758 120.492 176.755 115.528 173.729 112.419L173.538 112.22L173.517 112.206L173.503 112.193L157.932 96.2095C156.501 94.7503 154.544 93.9325 152.504 93.9417C150.464 93.9506 148.513 94.7857 147.095 96.2577C144.107 99.3568 144.086 104.27 147.047 107.394L156.98 117.589L115.919 159.826L94.5054 137.841C92.4981 135.779 89.6072 134.913 86.8398 135.531C85.1271 135.875 83.5585 136.741 82.3392 138.02L60.9044 160.073C58.678 162.335 57.8081 165.648 58.6096 168.749C59.4179 171.856 61.7813 174.276 64.8022 175.108C67.8232 175.939 71.0429 175.039 73.2488 172.756L89.0935 156.409L109.076 176.922C110.444 178.807 112.573 179.988 114.891 180.148C117.208 180.308 119.478 179.432 121.091 177.754L173.524 123.811C173.556 123.774 173.591 123.74 173.627 123.707L173.736 123.604Z" fill="white"/>
</g>
<defs>
<clipPath id="clip0_4_4288">
<rect width="220" height="220" fill="white" transform="translate(0 0.5)"/>
</clipPath>
</defs>
</svg>
