<svg width="220" height="221" viewBox="0 0 220 221" fill="none" xmlns="http://www.w3.org/2000/svg">
<g clip-path="url(#clip0_4_4291)">
<path d="M110 220.5C170.751 220.5 220 171.251 220 110.5C220 49.7487 170.751 0.5 110 0.5C49.2487 0.5 0 49.7487 0 110.5C0 171.251 49.2487 220.5 110 220.5Z" fill="#EDF0F4"/>
<path d="M110 100.832C104.672 100.832 100.332 105.172 100.332 110.5C100.332 112.283 101.771 113.723 103.555 113.723C105.338 113.723 106.777 112.283 106.777 110.5C106.777 108.717 108.217 107.277 110 107.277C111.783 107.277 113.223 105.838 113.223 104.055C113.223 102.272 111.783 100.832 110 100.832Z" fill="black"/>
<path fill-rule="evenodd" clip-rule="evenodd" d="M157.223 116.215C162.014 112.627 165 106.977 165 100.832C165 92.539 159.586 85.2345 151.787 82.5703C150.713 71.0116 141.045 61.9453 129.336 61.9453C128.24 61.9453 127.123 62.0312 125.963 62.2461C121.709 57.9277 115.994 55.5 110 55.5C104.006 55.5 98.291 57.9277 94.0372 62.2461C92.8554 62.0527 91.7383 61.9453 90.664 61.9453C78.8476 61.9453 69.0723 71.1622 67.998 82.5703C60.328 85.2345 55 92.539 55 100.832C55 107.02 57.9649 112.691 62.6914 116.258C57.578 119.223 55 122.703 55 126.613V126.893C55.2149 148.205 79.7929 165.5 110 165.5C140.207 165.5 164.785 148.205 165 126.871V126.592C165 122.682 162.379 119.18 157.223 116.215ZM158.555 100.832C158.555 106.225 155.031 111.08 149.896 112.949C145.02 111.23 139.111 109.834 132.516 108.867C132.344 106.482 131.785 104.205 130.926 102.078L149.059 88.4786C154.623 90.047 158.555 95.0958 158.555 100.832ZM129.336 68.3905C128.305 68.3905 127.209 68.5196 126.006 68.7774L118.852 89.7676C122.31 91.25 125.318 93.5703 127.639 96.4708L145.363 83.172C144.59 74.8789 137.715 68.3905 129.336 68.3905ZM126.113 110.5C126.113 119.395 118.895 126.613 110 126.613C101.105 126.613 93.8866 119.395 93.8866 110.5C93.8866 101.605 101.105 94.3866 110 94.3866C118.895 94.3866 126.113 101.605 126.113 110.5ZM120.248 65.7265C117.369 63.2988 113.76 61.9453 110 61.9453C106.24 61.9453 102.631 63.2988 99.752 65.7265L107.4 88.0917C108.26 87.9845 109.119 87.9414 110 87.9414C110.881 87.9414 111.74 87.9845 112.6 88.0917L120.248 65.7265ZM90.664 68.3905C91.6953 68.3905 92.7696 68.5196 93.9941 68.7774L101.148 89.7461C97.6895 91.2285 94.6601 93.5488 92.3399 96.4708L74.422 83.1503C75.2383 75.0078 82.3497 68.3905 90.664 68.3905ZM70.748 88.4571C65.2911 90.0253 61.4453 95.0742 61.4453 100.832C61.4453 106.289 64.9258 111.166 70.0176 112.992C74.916 111.252 80.8458 109.855 87.5059 108.867C87.6777 106.482 88.2149 104.205 89.0741 102.078L70.748 88.4571ZM110 159.055C89.2676 159.055 71.5215 150.139 64.5821 138C76.7851 144.102 96.164 145.949 110 145.949C123.836 145.949 143.215 144.08 155.418 138C148.307 150.44 130.303 159.055 110 159.055ZM61.4453 126.613C61.4453 131.598 79.8789 139.504 110 139.504C140.379 139.504 158.555 131.533 158.555 126.592C158.555 123.412 150.09 118.041 132.043 115.291C131.807 116.408 131.484 117.482 131.076 118.535C135.352 121.328 138.059 124.315 138.188 124.465C139.369 125.797 139.262 127.838 137.93 129.02C136.598 130.201 134.557 130.094 133.375 128.762C133.375 128.762 133.371 128.758 133.366 128.752C133.213 128.588 131.118 126.347 127.918 124.185C123.793 129.578 117.305 133.059 110 133.059C102.695 133.059 96.2071 129.578 92.0821 124.185C88.8657 126.343 86.7918 128.582 86.6345 128.752C86.6288 128.758 86.625 128.762 86.625 128.762C85.4434 130.094 83.4024 130.223 82.0703 129.02C80.7383 127.816 80.6309 125.797 81.8125 124.465C81.9414 124.315 84.6485 121.307 88.9238 118.535C88.5155 117.482 88.1934 116.408 87.9571 115.291C80.2441 116.473 73.498 118.256 68.6855 120.426C63.3574 122.854 61.4453 125.217 61.4453 126.613Z" fill="black"/>
<path d="M158.555 100.832C158.555 106.225 155.031 111.08 149.896 112.949C145.02 111.23 139.111 109.834 132.515 108.867C132.344 106.482 131.785 104.205 130.926 102.078L149.059 88.4785C154.623 90.0469 158.555 95.0957 158.555 100.832Z" fill="#8A67AC"/>
<path d="M126.006 68.7773C127.209 68.5196 128.305 68.3905 129.336 68.3905C137.715 68.3905 144.59 74.8789 145.363 83.1719L127.639 96.4707C125.318 93.5702 122.311 91.25 118.852 89.7675L126.006 68.7773Z" fill="#8A67AC"/>
<path d="M110 126.613C118.899 126.613 126.113 119.399 126.113 110.5C126.113 101.601 118.899 94.3867 110 94.3867C101.101 94.3867 93.8867 101.601 93.8867 110.5C93.8867 119.399 101.101 126.613 110 126.613Z" fill="black"/>
<path d="M110 61.9453C113.76 61.9453 117.369 63.2989 120.248 65.7266L112.6 88.0918C111.74 87.9845 110.881 87.9414 110 87.9414C109.119 87.9414 108.26 87.9845 107.4 88.0918L99.752 65.7266C102.631 63.2989 106.24 61.9453 110 61.9453Z" fill="#8A67AC"/>
<path d="M90.6639 68.3905C91.6952 68.3905 92.7695 68.5196 93.994 68.7773L101.148 89.7461C97.6894 91.2285 94.66 93.5488 92.3398 96.4707L74.4219 83.1503C75.2383 75.0077 82.3496 68.3905 90.6639 68.3905Z" fill="#8A67AC"/>
<path d="M61.4453 100.832C61.4453 95.0742 65.2911 90.0254 70.748 88.4572L89.0742 102.078C88.2149 104.205 87.6777 106.482 87.506 108.867C80.8458 109.855 74.9161 111.252 70.0176 112.992C64.9259 111.166 61.4453 106.289 61.4453 100.832Z" fill="#8A67AC"/>
<path d="M110 159.055C89.2675 159.055 71.5214 150.139 64.582 138C76.7851 144.102 96.1639 145.949 110 145.949C123.836 145.949 143.215 144.08 155.418 138C148.307 150.44 130.303 159.055 110 159.055Z" fill="#8C69AF"/>
<path d="M110 139.504C79.8789 139.504 61.4453 131.598 61.4453 126.613C61.4453 125.217 63.3575 122.854 68.6855 120.426C73.498 118.256 80.2441 116.473 87.9572 115.291C88.1935 116.408 88.5156 117.482 88.9239 118.535C84.6485 121.307 81.9414 124.315 81.8125 124.465C80.631 125.797 80.7384 127.816 82.0703 129.02C83.4024 130.223 85.4435 130.094 86.625 128.762C86.6465 128.74 88.7521 126.42 92.0822 124.185C96.2072 129.578 102.695 133.059 110 133.059C117.305 133.059 123.793 129.578 127.918 124.185C131.227 126.42 133.354 128.74 133.375 128.762C134.557 130.094 136.598 130.201 137.93 129.02C139.262 127.838 139.369 125.797 138.188 124.465C138.059 124.315 135.352 121.328 131.076 118.535C131.485 117.482 131.807 116.408 132.043 115.291C150.09 118.041 158.555 123.412 158.555 126.592C158.555 131.533 140.379 139.504 110 139.504Z" fill="#B49AC9"/>
<path d="M109.979 126.635C118.878 126.635 126.092 119.421 126.092 110.521C126.092 101.622 118.878 94.4082 109.979 94.4082C101.079 94.4082 93.8652 101.622 93.8652 110.521C93.8652 119.421 101.079 126.635 109.979 126.635Z" fill="#E5E5E5"/>
<path d="M105.918 114.281C110.249 114.281 113.76 110.77 113.76 106.44C113.76 102.109 110.249 98.5978 105.918 98.5978C101.587 98.5978 98.0762 102.109 98.0762 106.44C98.0762 110.77 101.587 114.281 105.918 114.281Z" fill="url(#paint0_linear_4_4291)"/>
</g>
<defs>
<linearGradient id="paint0_linear_4_4291" x1="98.0698" y1="114.279" x2="113.753" y2="114.279" gradientUnits="userSpaceOnUse">
<stop offset="0.00558659" stop-color="#F2F2F2"/>
<stop offset="1" stop-color="white"/>
</linearGradient>
<clipPath id="clip0_4_4291">
<rect width="220" height="220" fill="white" transform="translate(0 0.5)"/>
</clipPath>
</defs>
</svg>
