<svg width="220" height="221" viewBox="0 0 220 221" fill="none" xmlns="http://www.w3.org/2000/svg">
<g clip-path="url(#clip0_4_4305)">
<path d="M110 220.5C170.751 220.5 220 171.251 220 110.5C220 49.7487 170.751 0.5 110 0.5C49.2487 0.5 0 49.7487 0 110.5C0 171.251 49.2487 220.5 110 220.5Z" fill="#3CB054"/>
<path d="M62.334 51.8333C145.105 54.9292 177.021 105.205 160.998 150.064C156.46 162.551 151.634 169.387 141.491 176.5C141.901 174.699 142.326 172.899 142.654 171.049C148.65 136.053 137.281 93.9359 81.656 70.6719C125.913 97.3227 143.77 144.745 123.134 175.357C88.0008 180.946 62.334 150.59 62.334 115.614V51.8333Z" fill="white"/>
</g>
<defs>
<clipPath id="clip0_4_4305">
<rect width="220" height="220" fill="white" transform="translate(0 0.5)"/>
</clipPath>
</defs>
</svg>
