<svg width="220" height="221" viewBox="0 0 220 221" fill="none" xmlns="http://www.w3.org/2000/svg">
<g clip-path="url(#clip0_4_4308)">
<path d="M110 220.5C170.751 220.5 220 171.251 220 110.5C220 49.7487 170.751 0.5 110 0.5C49.2487 0.5 0 49.7487 0 110.5C0 171.251 49.2487 220.5 110 220.5Z" fill="#303642"/>
<path fill-rule="evenodd" clip-rule="evenodd" d="M113.648 33.8648C112.918 33.8648 112.279 33.7737 111.641 33.6824C111.002 33.5913 110.363 33.5 109.634 33.5C67.3028 33.5 33 67.8026 33 110.134C33 121.811 35.5544 132.759 40.2985 142.612C40.2985 142.977 40.6633 143.341 40.6633 143.341L41.0282 143.706C52.3407 167.061 75.3307 183.848 102.335 186.402H103.065C103.795 186.402 104.616 186.494 105.437 186.585C106.258 186.675 107.079 186.767 107.809 186.767H109.269H109.634C151.964 186.767 186.267 152.464 186.267 110.134C186.267 69.6273 154.154 36.0544 113.648 33.8648ZM144.666 73.2764C144.666 92.6173 128.974 108.309 109.634 108.309C87.7382 108.309 70.222 125.825 70.222 147.72C70.222 157.938 74.2361 167.426 80.4399 174.36C77.8853 172.535 76.0608 171.075 74.2361 169.251C66.5727 161.587 61.8288 151.005 61.8288 141.152C61.8288 120.716 74.6011 109.039 100.875 105.39C123.866 102.105 135.178 90.7926 135.178 71.8169C135.178 61.964 130.799 52.8407 122.406 46.2723C118.027 42.623 112.553 40.0686 107.079 38.6089H109.634C128.974 38.2439 144.666 53.9356 144.666 73.2764ZM44.6774 109.769C38.4738 121.446 43.2177 137.503 44.3126 141.152C45.4687 143.753 46.8539 146.126 48.1054 148.269C48.4337 148.832 48.7531 149.379 49.0565 149.91C47.232 145.531 46.1371 141.152 45.7723 137.138C43.5827 106.484 69.4923 99.5508 90.2928 94.0768C91.7669 93.4872 93.2411 93.1358 94.5228 92.8302L94.5265 92.8292C94.8299 92.7568 95.1223 92.6872 95.4015 92.6173C108.904 88.9681 114.742 81.6697 114.742 69.6273C114.742 60.8691 111.093 54.3005 103.795 50.6514C97.5911 47.367 89.5627 46.6371 81.5346 48.0968C83.7241 48.4618 86.2785 49.1917 88.1032 49.9215C96.8614 53.5706 101.97 60.8691 101.605 69.2623C101.24 86.0488 89.1981 89.6979 67.3028 95.9017L67.2696 95.9111L67.2366 95.9206L67.2036 95.93C64.6822 96.6503 62.1606 97.3706 59.6392 98.0913C52.7058 99.9158 47.5968 103.93 44.6774 109.769ZM49.0565 71.4518C57.4497 60.5043 67.3028 58.3147 73.5062 59.7744C77.5203 60.8691 80.0749 63.4235 80.8045 66.7077C81.5346 69.9921 81.1696 72.9117 79.3452 74.7361C75.6958 79.4802 66.9378 80.9397 59.2744 81.3047C50.8811 82.0346 44.3126 85.3188 39.9335 91.1576C42.123 84.2239 45.0424 77.6555 49.0565 71.4518ZM119.851 49.5565C111.093 42.2582 98.3208 39.7036 86.2785 42.2582C85.7311 42.4406 85.2749 42.5317 84.8188 42.623C84.3627 42.7143 83.9065 42.8054 83.3591 42.9879C91.3875 42.2582 99.4156 43.3529 105.619 46.6371C114.378 51.0162 119.121 59.4094 119.121 69.6273C119.121 83.8593 111.823 92.6173 96.4964 96.9964C94.6719 97.7263 93.212 98.0913 91.3874 98.4559L90.9295 98.5822C69.9074 104.38 48.3399 110.328 50.1514 137.138C50.5162 146.261 55.99 155.749 64.0184 163.777C59.6393 156.478 57.0849 148.45 57.0849 140.787C57.0849 118.162 71.6817 104.66 100.146 100.645C120.946 97.7263 130.799 88.2384 130.799 71.4518C130.799 63.0588 126.785 55.0303 119.851 49.5565ZM38.1089 114.877C38.1089 108.309 38.8388 99.9158 43.5827 94.0768C47.232 89.3331 52.7058 86.4135 59.6392 86.0488C68.3974 85.3188 78.2503 83.8593 82.6294 77.6555C84.819 74.3711 85.9137 70.7222 84.819 65.9781C83.7241 60.8691 79.7099 56.855 73.8712 55.3953C71.3167 54.6655 68.3975 54.6655 65.1132 55.3953C73.1412 51.381 80.8045 51.7461 86.2785 53.9356C93.212 56.855 97.2261 62.6938 96.8614 69.2623C96.4984 82.69 87.4737 85.2902 66.1984 91.4201L65.8429 91.5226L58.1796 93.7122C49.7864 96.2664 43.9476 101.01 40.6633 107.944C39.5687 110.134 38.8388 112.323 38.1089 114.877ZM74.6011 147.72C74.6011 167.061 90.2928 182.388 109.634 182.753C149.41 182.753 181.888 150.275 181.888 110.498C181.888 79.4802 162.182 53.2058 134.813 42.9879C143.571 50.2864 149.045 61.2339 149.045 73.2764C149.045 95.1717 131.529 112.688 109.634 112.688C90.2928 112.688 74.6011 128.38 74.6011 147.72Z" fill="url(#paint0_linear_4_4308)"/>
</g>
<defs>
<linearGradient id="paint0_linear_4_4308" x1="32.9745" y1="187.038" x2="186.241" y2="187.038" gradientUnits="userSpaceOnUse">
<stop stop-color="#45DCA3"/>
<stop offset="1" stop-color="#128D89"/>
</linearGradient>
<clipPath id="clip0_4_4308">
<rect width="220" height="220" fill="white" transform="translate(0 0.5)"/>
</clipPath>
</defs>
</svg>
