<svg width="220" height="221" viewBox="0 0 220 221" fill="none" xmlns="http://www.w3.org/2000/svg">
<g clip-path="url(#clip0_4_4311)">
<path d="M110 220.5C170.751 220.5 220 171.251 220 110.5C220 49.7487 170.751 0.5 110 0.5C49.2487 0.5 0 49.7487 0 110.5C0 171.251 49.2487 220.5 110 220.5Z" fill="#EDF0F4"/>
<path d="M105.264 32.125V35.6355C106.493 35.1392 107.649 34.4805 108.703 33.6767C107.531 33.6767 106.359 32.125 105.188 32.125H105.264Z" fill="black"/>
<path fill-rule="evenodd" clip-rule="evenodd" d="M109.415 32.3795C108.167 32.3795 106.867 32.176 105.67 32.1505H105.288C72.0673 33.9362 43.6548 56.6094 34.5811 88.5746C25.5076 120.54 37.7788 154.731 65.1193 173.662C60.0861 169.109 57.225 162.637 57.2486 155.855C57.332 142.6 68.0715 131.874 81.3449 131.791L86.159 131.638V130.595C86.1528 120.26 92.8034 111.093 102.639 107.879C105.045 107.079 107.566 106.675 110.102 106.684C119.53 106.675 128.086 112.191 131.957 120.776C148.781 109.25 156.617 88.465 151.582 68.7198C146.547 48.9746 129.71 34.4645 109.415 32.3795Z" fill="#B4E1FF"/>
<path fill-rule="evenodd" clip-rule="evenodd" d="M111.965 32.125C154.045 37.2125 167.061 68.0688 167.086 95.9233C167.086 124.414 143.117 145.197 122.154 150.691C114.338 152.609 106.409 154.036 98.4143 154.965L95.2304 155.346C94.4717 155.449 93.7223 155.611 92.9889 155.83C88.4324 157.166 84.7307 160.498 82.9276 164.886C82.1488 166.765 81.7504 168.779 81.7559 170.813C81.7508 177.467 85.9609 183.396 92.2503 185.592C93.3455 185.846 94.4662 186.05 95.6124 186.279C100.179 187.086 104.806 187.495 109.444 187.5C151.824 187.361 186.3 153.378 186.993 111.06C187.688 68.7413 154.343 33.6498 111.991 32.125H111.965Z" fill="#90D595"/>
<path fill-rule="evenodd" clip-rule="evenodd" d="M111.964 32.125C111.123 32.125 110.308 32.125 109.417 32.125C108.169 32.125 106.869 32.125 105.672 32.125C106.946 32.125 108.22 32.2522 109.417 32.3795C129.759 34.4123 146.655 48.935 151.698 68.7207C156.741 88.5064 148.853 109.329 131.959 120.827C127.377 110.455 116.132 104.722 105.032 107.099C93.9331 109.476 86.0305 119.31 86.1101 130.646V131.664L81.2704 131.842C71.3365 131.862 62.4355 137.975 58.8612 147.231C55.2868 156.487 57.7733 166.986 65.1213 173.662C66.6496 174.73 68.2034 175.697 69.8081 176.663C76.7656 180.806 84.3415 183.812 92.2486 185.566C85.9632 183.38 81.7524 177.46 81.7544 170.813C81.7462 168.771 82.1446 166.747 82.9261 164.86C84.7446 160.483 88.4401 157.157 92.9875 155.804C93.7245 155.606 94.473 155.453 95.2289 155.346L98.4128 154.99C106.406 154.039 114.334 152.603 122.152 150.691C143.116 145.171 167.11 124.414 167.085 95.9234C167.085 67.9416 154.043 37.1108 111.964 32.125Z" fill="white"/>
<path fill-rule="evenodd" clip-rule="evenodd" d="M109.26 28.013C107.935 28.013 106.712 28.013 105.31 28.013H105.157C70.2238 29.7705 40.2778 53.5631 30.6583 87.2033C21.0386 120.843 33.8765 156.879 62.5959 176.851C64.0935 178.188 65.7246 179.367 67.4636 180.369C67.9006 180.598 68.3756 180.745 68.8653 180.803C75.7979 184.763 83.2782 187.676 91.0633 189.445C92.3261 189.887 93.6338 190.186 94.9626 190.338C99.691 191.176 104.483 191.603 109.286 191.612C138.844 192.129 166.38 176.65 181.308 151.124C196.235 125.598 196.231 94.0004 181.295 68.4791C166.359 42.9578 138.818 27.4865 109.26 28.013ZM78.6773 177.131C74.6 175.294 70.701 173.084 67.0303 170.528C61.1169 164.786 59.2814 156.027 62.3913 148.392C65.5012 140.758 72.9337 135.777 81.1749 135.805C82.755 135.805 84.5645 135.805 86.068 135.652C88.156 135.557 89.8031 133.842 89.8145 131.751V130.731C89.808 121.253 96.4244 113.06 105.688 111.074C114.953 109.087 124.344 113.848 128.222 122.496C129.092 124.441 131.369 125.318 133.319 124.459C133.515 124.347 133.703 124.219 133.879 124.077C155.92 109.088 163.203 79.9367 150.802 56.3377C161.2 69.8244 162.933 86.4723 162.933 95.8799C162.933 121.884 141.27 141.617 120.882 146.869C112.154 148.959 103.3 150.483 94.3765 151.433C84.7314 152.812 77.5588 161.062 77.5304 170.809C77.5702 172.9 77.9313 174.972 78.6009 176.953L78.6773 177.131ZM35.3516 109.826C35.3199 70.1201 66.6442 37.4791 106.304 35.8909C124.76 36.6781 140.831 48.7407 146.747 66.2468C152.663 83.7528 147.205 103.096 133.013 114.924C126.427 105.219 114.472 100.679 103.107 103.567C91.7426 106.454 83.4024 116.152 82.2453 127.825H81.022C65.5391 127.825 52.9877 140.381 52.9877 155.869C52.9877 156.557 52.9877 157.22 53.1406 157.909C41.6235 144.539 35.2922 127.474 35.3007 109.826H35.3516ZM109.26 183.76C103.788 183.742 98.3349 183.118 93.0002 181.899C88.0018 180.004 84.9118 174.973 85.481 169.657C86.0503 164.34 90.1353 160.078 95.4213 159.285C104.699 158.285 113.901 156.684 122.971 154.492C146.163 148.399 170.833 125.76 170.808 95.8544C171.154 81.9559 167.529 68.2472 160.359 56.3377C182.243 77.1874 189.233 109.265 178.01 137.335C166.786 165.405 139.609 183.811 109.387 183.811L109.26 183.76Z" fill="#41474E"/>
</g>
<defs>
<clipPath id="clip0_4_4311">
<rect width="220" height="220" fill="white" transform="translate(0 0.5)"/>
</clipPath>
</defs>
</svg>
