<svg width="220" height="221" viewBox="0 0 220 221" fill="none" xmlns="http://www.w3.org/2000/svg">
<g clip-path="url(#clip0_4_4319)">
<path d="M110 220.5C170.751 220.5 220 171.251 220 110.5C220 49.7487 170.751 0.5 110 0.5C49.2487 0.5 0 49.7487 0 110.5C0 171.251 49.2487 220.5 110 220.5Z" fill="#EDF0F4"/>
<path d="M135.455 125.606C139.776 121.281 146.785 121.277 151.111 125.598C155.393 129.875 155.44 136.788 151.248 141.123L151.119 141.253L117.824 174.585C113.503 178.911 106.494 178.915 102.169 174.594C97.8863 170.316 97.8397 163.404 102.032 159.069L102.16 158.938L135.455 125.606Z" fill="#2E5B70"/>
<path fill-rule="evenodd" clip-rule="evenodd" d="M88.1244 78.2548L117.098 49.318C121.422 44.9994 128.427 45.0018 132.749 49.323L180.091 96.6655C184.417 100.991 184.413 108.004 180.086 112.326L151.112 141.263C146.788 145.581 139.783 145.579 135.462 141.258L88.1194 93.9155C83.7942 89.5903 83.7964 82.5771 88.1244 78.2548ZM156.603 104.488L124.916 72.8015L111.608 86.0925L143.295 117.779L156.603 104.488Z" fill="#2E5B70"/>
<path d="M68.8893 125.596C73.1718 121.318 80.0843 121.279 84.4147 125.476L84.545 125.605L117.84 158.937C122.161 163.262 122.157 170.272 117.831 174.593C113.549 178.87 106.636 178.909 102.306 174.712L102.175 174.584L68.8807 141.252C64.5599 136.926 64.5637 129.917 68.8893 125.596Z" fill="#74E1AC"/>
<path fill-rule="evenodd" clip-rule="evenodd" d="M39.9084 96.6641L88.8297 47.7425C93.151 43.4211 100.156 43.4189 104.48 47.7373L133.454 76.6738C137.782 80.9962 137.785 88.0094 133.459 92.3346L84.538 141.256C80.2167 145.577 73.2113 145.579 68.8874 141.261L39.9136 112.325C35.5854 108.002 35.5832 100.989 39.9084 96.6641ZM109.971 84.5118L96.6628 71.2211L63.3971 104.487L76.7049 117.777L109.971 84.5118Z" fill="#74E1AC"/>
<path fill-rule="evenodd" clip-rule="evenodd" d="M109.156 83.639L116.983 91.4668L151.117 125.601L135.462 141.257L101.328 107.123L93.5 99.295L109.156 83.639Z" fill="#2E5B70"/>
<path d="M135.459 141.257C139.782 145.58 146.792 145.58 151.115 141.257C155.438 136.934 155.438 129.924 151.115 125.601L135.459 141.257Z" fill="#2E5B70"/>
<path d="M135.455 125.606C139.776 121.281 146.785 121.277 151.111 125.598C155.393 129.875 155.44 136.788 151.248 141.123L151.119 141.253L117.824 174.585C113.503 178.911 106.494 178.915 102.169 174.594C97.8863 170.316 97.8397 163.404 102.032 159.069L102.16 158.938L135.455 125.606Z" fill="#2E5B70"/>
</g>
<defs>
<clipPath id="clip0_4_4319">
<rect width="220" height="220" fill="white" transform="translate(0 0.5)"/>
</clipPath>
</defs>
</svg>
