<svg width="220" height="221" viewBox="0 0 220 221" fill="none" xmlns="http://www.w3.org/2000/svg">
<g clip-path="url(#clip0_4_4328)">
<path fill-rule="evenodd" clip-rule="evenodd" d="M110 220.5C49.5 220.5 0 171.001 0 109.952C0.55 49.4535 49.5 -0.0454497 110.55 0.504539C171.05 1.05453 220 50.0035 220 111.602C219.45 171.551 170.5 220.5 110 220.5Z" fill="black"/>
<path fill-rule="evenodd" clip-rule="evenodd" d="M66.386 57.855C66.0532 57.9067 65.6803 58.1372 65.5571 58.3665C65.314 58.8208 65.2189 183.846 65.4614 184.477C65.7205 185.153 66.4569 185.19 80.6029 185.252C93.2238 185.307 94.9354 185.276 95.3979 184.972L95.921 184.631V162.625V140.62L96.4297 140.111L96.9385 139.603L108.805 139.483C121.123 139.36 125.604 139.058 129.471 138.09C130.197 137.909 131.571 137.616 132.525 137.44C133.479 137.263 134.58 136.921 134.972 136.68C135.363 136.438 135.845 136.24 136.044 136.24C136.871 136.24 144.106 132.821 145.385 131.826C145.707 131.575 146.703 130.835 147.597 130.181C150.819 127.824 157.301 120.613 157.301 119.385C157.301 119.315 157.486 118.995 157.712 118.674C157.938 118.353 158.194 117.842 158.281 117.54C158.367 117.237 158.666 116.495 158.946 115.89C160.306 112.949 160.601 112.213 160.602 111.76C160.603 111.49 160.847 110.577 161.146 109.73C162.876 104.827 162.736 93.0248 160.867 86.2999C159.941 82.968 157.705 77.7958 156.583 76.39C156.313 76.0512 155.546 75.0079 154.881 74.0718C154.215 73.1357 153.077 71.7299 152.351 70.9483C148.522 66.8255 141.66 62.5394 136.592 61.1066C136.032 60.9482 135.258 60.6551 134.872 60.4554C134.486 60.2563 133.41 59.9489 132.481 59.7729C131.552 59.5963 130.344 59.3054 129.797 59.1255C129.25 58.9457 127.716 58.6949 126.387 58.5684C125.058 58.4413 123.08 58.2268 121.991 58.0915C120.079 57.8534 67.8237 57.6312 66.386 57.855ZM119.752 83.1204C129.378 85.3149 134.164 96.2263 129.885 106.222C126.729 113.591 122.608 115.12 105.899 115.12H96.8329L96.3725 114.535C95.7846 113.787 95.7466 83.6302 96.3329 82.9235C96.9126 82.2255 116.55 82.3905 119.752 83.1204Z" fill="#F8F8F8"/>
<path fill-rule="evenodd" clip-rule="evenodd" d="M66.751 25.5745C66.4991 25.6757 66.0288 26.0723 65.706 26.4562L65.1191 27.1536V35.3728C65.1191 44.3301 65.1488 44.571 66.3209 45.0605C67.3829 45.5043 159.804 45.5137 161.039 45.0698C162.346 44.6001 162.353 44.5578 162.356 35.414C162.36 26.2692 162.332 26.0635 161.05 25.6169C160.239 25.3342 67.4522 25.2924 66.751 25.5745Z" fill="#DE0B14"/>
</g>
<defs>
<clipPath id="clip0_4_4328">
<rect width="220" height="220" fill="white" transform="translate(0 0.5)"/>
</clipPath>
</defs>
</svg>
