<svg width="220" height="221" viewBox="0 0 220 221" fill="none" xmlns="http://www.w3.org/2000/svg">
<g clip-path="url(#clip0_4_4335)">
<path d="M110 220.5C170.751 220.5 220 171.251 220 110.5C220 49.7487 170.751 0.5 110 0.5C49.2487 0.5 0 49.7487 0 110.5C0 171.251 49.2487 220.5 110 220.5Z" fill="#EDF0F4"/>
<path d="M148.567 55.5H69.5897C58.5404 55.5 49.5 64.7915 49.5 76.343V145.652C49.5 151.679 56.657 154.567 60.5493 150.047C65.3206 144.522 73.6076 144.648 78.2533 150.172L84.4058 157.329C86.9169 160.217 91.3116 160.217 93.8229 157.329L100.226 150.047C104.998 144.648 113.159 144.648 117.93 150.047L124.334 157.455C126.845 160.343 131.24 160.343 133.751 157.455L140.154 150.047C144.926 144.648 153.087 144.648 157.858 150.047L157.984 150.172C161.876 154.693 169.033 151.805 169.033 145.778V76.343C168.657 64.7915 159.742 55.5 148.567 55.5Z" fill="#88C6DE"/>
<path d="M148.567 59.6433H69.5897C58.5404 59.6433 49.5 68.9348 49.5 80.4863V149.796C49.5 155.823 56.657 158.71 60.5493 154.19C65.3206 148.666 73.6076 148.791 78.2533 154.316L84.4058 161.473C86.9169 164.361 91.3116 164.361 93.8229 161.473L100.226 154.19C104.998 148.791 113.159 148.791 117.93 154.19L124.334 161.598C126.845 164.486 131.24 164.486 133.751 161.598L140.154 154.19C144.926 148.791 153.087 148.791 157.858 154.19L157.984 154.316C161.876 158.836 169.033 155.948 169.033 149.921V80.4863C168.657 68.9348 159.742 59.6433 148.567 59.6433Z" fill="#6CA2CB"/>
<path d="M86.4157 106.729C93.1421 106.729 98.595 101.276 98.595 94.5492C98.595 87.8228 93.1421 82.3699 86.4157 82.3699C79.6892 82.3699 74.2363 87.8228 74.2363 94.5492C74.2363 101.276 79.6892 106.729 86.4157 106.729Z" fill="white"/>
<path d="M131.869 106.728C138.595 106.728 144.048 101.276 144.048 94.5491C144.048 87.8226 138.595 82.3698 131.869 82.3698C125.142 82.3698 119.689 87.8226 119.689 94.5491C119.689 101.276 125.142 106.728 131.869 106.728Z" fill="white"/>
<path opacity="0.5" d="M131.863 104.218C137.203 104.218 141.532 99.8891 141.532 94.5495C141.532 89.2099 137.203 84.8813 131.863 84.8813C126.524 84.8813 122.195 89.2099 122.195 94.5495C122.195 99.8891 126.524 104.218 131.863 104.218Z" fill="url(#paint0_linear_4_4335)"/>
<path opacity="0.5" d="M131.868 102.208C136.098 102.208 139.527 98.7794 139.527 94.5493C139.527 90.3193 136.098 86.8901 131.868 86.8901C127.638 86.8901 124.209 90.3193 124.209 94.5493C124.209 98.7794 127.638 102.208 131.868 102.208Z" fill="url(#paint1_linear_4_4335)"/>
<path opacity="0.5" d="M131.865 99.3204C134.5 99.3204 136.636 97.1842 136.636 94.5491C136.636 91.914 134.5 89.7778 131.865 89.7778C129.23 89.7778 127.094 91.914 127.094 94.5491C127.094 97.1842 129.23 99.3204 131.865 99.3204Z" fill="url(#paint2_linear_4_4335)"/>
<path opacity="0.5" d="M86.4181 104.218C91.7577 104.218 96.0863 99.8891 96.0863 94.5495C96.0863 89.2099 91.7577 84.8813 86.4181 84.8813C81.0786 84.8813 76.75 89.2099 76.75 94.5495C76.75 99.8891 81.0786 104.218 86.4181 104.218Z" fill="url(#paint3_linear_4_4335)"/>
<path opacity="0.5" d="M86.4131 102.208C90.6431 102.208 94.0723 98.7794 94.0723 94.5493C94.0723 90.3193 90.6431 86.8901 86.4131 86.8901C82.183 86.8901 78.7539 90.3193 78.7539 94.5493C78.7539 98.7794 82.183 102.208 86.4131 102.208Z" fill="url(#paint4_linear_4_4335)"/>
<path opacity="0.5" d="M86.4119 99.3203C89.047 99.3203 91.1832 97.1841 91.1832 94.549C91.1832 91.9139 89.047 89.7777 86.4119 89.7777C83.7768 89.7777 81.6406 91.9139 81.6406 94.549C81.6406 97.1841 83.7768 99.3203 86.4119 99.3203Z" fill="url(#paint5_linear_4_4335)"/>
<path opacity="0.5" d="M92.4381 90.9081C93.9637 90.9081 95.2004 89.6713 95.2004 88.1457C95.2004 86.6202 93.9637 85.3834 92.4381 85.3834C90.9125 85.3834 89.6758 86.6202 89.6758 88.1457C89.6758 89.6713 90.9125 90.9081 92.4381 90.9081Z" fill="white"/>
<path opacity="0.5" d="M137.891 90.9081C139.417 90.9081 140.654 89.6713 140.654 88.1457C140.654 86.6202 139.417 85.3834 137.891 85.3834C136.366 85.3834 135.129 86.6202 135.129 88.1457C135.129 89.6713 136.366 90.9081 137.891 90.9081Z" fill="white"/>
</g>
<defs>
<linearGradient id="paint0_linear_4_4335" x1="122.148" y1="104.208" x2="141.465" y2="104.208" gradientUnits="userSpaceOnUse">
<stop stop-color="#1EAACC"/>
<stop offset="1" stop-color="#0584B9"/>
</linearGradient>
<linearGradient id="paint1_linear_4_4335" x1="124.139" y1="102.221" x2="139.483" y2="102.221" gradientUnits="userSpaceOnUse">
<stop stop-color="#1EAACC"/>
<stop offset="1" stop-color="#0584B9"/>
</linearGradient>
<linearGradient id="paint2_linear_4_4335" x1="126.99" y1="99.3673" x2="136.626" y2="99.3673" gradientUnits="userSpaceOnUse">
<stop stop-color="#1EAACC"/>
<stop offset="1" stop-color="#0584B9"/>
</linearGradient>
<linearGradient id="paint3_linear_4_4335" x1="76.7288" y1="104.208" x2="96.0453" y2="104.208" gradientUnits="userSpaceOnUse">
<stop stop-color="#1EAACC"/>
<stop offset="1" stop-color="#0584B9"/>
</linearGradient>
<linearGradient id="paint4_linear_4_4335" x1="78.7094" y1="102.221" x2="94.054" y2="102.221" gradientUnits="userSpaceOnUse">
<stop stop-color="#1EAACC"/>
<stop offset="1" stop-color="#0584B9"/>
</linearGradient>
<linearGradient id="paint5_linear_4_4335" x1="81.5626" y1="99.3672" x2="91.1989" y2="99.3672" gradientUnits="userSpaceOnUse">
<stop stop-color="#1EAACC"/>
<stop offset="1" stop-color="#0584B9"/>
</linearGradient>
<clipPath id="clip0_4_4335">
<rect width="220" height="220" fill="white" transform="translate(0 0.5)"/>
</clipPath>
</defs>
</svg>
