<svg width="220" height="221" viewBox="0 0 220 221" fill="none" xmlns="http://www.w3.org/2000/svg">
<g clip-path="url(#clip0_4_4349)">
<path d="M110 220.5C170.751 220.5 220 171.251 220 110.5C220 49.7487 170.751 0.5 110 0.5C49.2487 0.5 0 49.7487 0 110.5C0 171.251 49.2487 220.5 110 220.5Z" fill="#00FF24"/>
<path d="M134.028 90.9431V133.432H99.9708H65.9141V146.149V158.838L78.6306 171.554C85.6068 178.531 91.4022 184.244 91.5391 184.244C91.6495 184.244 91.7312 178.558 91.7312 171.61V158.976H125.651H159.571V116.46V73.9696L146.799 61.1978L134.028 48.4263V90.9431Z" fill="black"/>
<path d="M65.9141 82.3468V99.3755H83.0799H100.246V82.3468V65.3179H83.0799H65.9141V82.3468Z" fill="black"/>
</g>
<defs>
<clipPath id="clip0_4_4349">
<rect width="220" height="220" fill="white" transform="translate(0 0.5)"/>
</clipPath>
</defs>
</svg>
