<svg width="220" height="221" viewBox="0 0 220 221" fill="none" xmlns="http://www.w3.org/2000/svg">
<g clip-path="url(#clip0_4_4353)">
<path d="M110 220.5C170.751 220.5 220 171.251 220 110.5C220 49.7487 170.751 0.5 110 0.5C49.2487 0.5 0 49.7487 0 110.5C0 171.251 49.2487 220.5 110 220.5Z" fill="#ED79AA"/>
<path opacity="0.5" fill-rule="evenodd" clip-rule="evenodd" d="M148.39 73.9159L161.333 60.9704C148.495 48.0729 130.99 40.8206 112.731 40.8334C74.773 40.8334 44.0001 71.6129 44.0001 109.583C43.9659 126.888 50.5006 143.569 62.3005 156.299V107.335H62.3558C63.5187 80.5229 85.6327 59.1416 112.731 59.1416C126.128 59.1323 138.97 64.4531 148.39 73.9159ZM113.852 178.333C131.722 178.052 148.769 170.823 161.333 158.196L148.39 145.258C139.243 154.445 126.857 159.739 113.852 160.018V178.333Z" fill="white"/>
<path fill-rule="evenodd" clip-rule="evenodd" d="M79.8574 107.342V169.973V169.98C85.1479 172.866 90.8017 175.039 96.6696 176.443V138.555C101.874 141.611 107.81 143.219 113.856 143.209C132.62 143.209 147.84 127.988 147.84 109.212C147.84 90.4296 132.62 75.2084 113.849 75.2084C95.7007 75.2084 80.8749 89.4327 79.9058 107.342H79.8574ZM126.027 121.342C122.803 124.566 118.423 126.385 113.849 126.4C104.36 126.4 96.6696 118.7 96.6696 109.212C96.6531 104.67 98.4538 100.308 101.676 97.0843C104.897 93.8611 109.276 92.0409 113.849 92.0246C123.338 92.0246 131.035 99.7177 131.035 109.212C131.051 113.755 129.25 118.119 126.027 121.342Z" fill="white"/>
</g>
<defs>
<clipPath id="clip0_4_4353">
<rect width="220" height="220" fill="white" transform="translate(0 0.5)"/>
</clipPath>
</defs>
</svg>
