<svg width="220" height="221" viewBox="0 0 220 221" fill="none" xmlns="http://www.w3.org/2000/svg">
<g clip-path="url(#clip0_4_4357)">
<path d="M110 220.5C170.751 220.5 220 171.251 220 110.5C220 49.7487 170.751 0.5 110 0.5C49.2487 0.5 0 49.7487 0 110.5C0 171.251 49.2487 220.5 110 220.5Z" fill="white"/>
<path fill-rule="evenodd" clip-rule="evenodd" d="M110 0.5C49.236 0.5 0 49.736 0 110.5C0 171.264 49.236 220.5 110 220.5C170.764 220.5 220 171.264 220 110.5C220 49.736 170.764 0.5 110 0.5ZM60.346 82.065C60.346 68.469 71.368 57.524 85.052 57.524H141.416C147.862 57.524 154.055 60.054 158.653 64.575L129.811 79.084H90.101C85.624 79.084 82.06 82.318 82.06 86.212V103.867L60.423 115.142V82.065H60.346ZM141.328 143.335C154.847 143.335 165.869 132.39 165.869 118.794L165.858 80.822L144.309 91.679V113.25C144.309 117.232 140.58 120.466 136.103 120.466H88.605L60.335 135.217V171.693H68.794L76.175 171.528C79.332 170.78 81.983 167.876 81.983 164.312V143.335H141.328Z" fill="url(#paint0_linear_4_4357)"/>
</g>
<defs>
<linearGradient id="paint0_linear_4_4357" x1="0" y1="220.5" x2="220" y2="220.5" gradientUnits="userSpaceOnUse">
<stop stop-color="#B38C30"/>
<stop offset="1" stop-color="#F2DE98"/>
</linearGradient>
<clipPath id="clip0_4_4357">
<rect width="220" height="220" fill="white" transform="translate(0 0.5)"/>
</clipPath>
</defs>
</svg>
