<svg width="220" height="221" viewBox="0 0 220 221" fill="none" xmlns="http://www.w3.org/2000/svg">
<g clip-path="url(#clip0_4_4360)">
<path d="M110 220.5C170.751 220.5 220 171.251 220 110.5C220 49.7487 170.751 0.5 110 0.5C49.2487 0.5 0 49.7487 0 110.5C0 171.251 49.2487 220.5 110 220.5Z" fill="#96B73D"/>
<path fill-rule="evenodd" clip-rule="evenodd" d="M83.2136 115.241C82.0861 113.743 81.2131 112.079 80.6218 110.305C81.2553 112.054 82.1651 113.691 83.3168 115.152L83.5231 115.42L83.2136 115.056C83.61 115.623 84.0394 116.167 84.4993 116.685L85.1317 117.318C85.2318 117.418 85.324 117.515 85.4114 117.608C85.5405 117.745 85.6591 117.871 85.7779 117.978L99.5004 131.796C101.895 134.216 105.405 135.164 108.692 134.278C111.979 133.365 114.537 130.779 115.413 127.482C116.29 124.185 115.354 120.671 112.955 118.246L86.1699 91.2477C86.1862 91.2298 86.2023 91.2114 86.2179 91.1927L86.6304 90.849L113.738 63.7342L113.903 63.9129L113.958 63.9817L164.627 115.131C168.511 117.629 173.613 117.07 176.864 113.791C180.163 110.459 180.6 105.243 177.902 101.409L120.545 43.6386C118.771 41.8469 116.356 40.8371 113.835 40.8333C111.315 40.8294 108.897 41.8319 107.118 43.6181L89.6074 61.1422L88.9817 61.6922C88.5692 62.0634 88.1429 62.4209 87.6961 62.7509L66.0743 84.3865C62.3571 88.1358 62.3571 94.1809 66.0743 97.9302L83.2136 115.241ZM109.806 100.983L136.625 127.994C136.611 128.008 136.597 128.022 136.584 128.036L136.185 128.359L109.132 155.405L108.96 155.199L58.1958 103.946C54.5755 100.582 48.9816 100.552 45.3258 103.877C41.6619 107.216 41.1128 112.784 44.054 116.775L102.333 175.535C104.109 177.326 106.527 178.333 109.05 178.333C111.572 178.333 113.99 177.326 115.766 175.535L133.806 157.495C134.224 157.127 134.66 156.78 135.113 156.457L156.748 134.814C160.471 131.062 160.471 125.009 156.748 121.257L138.805 103.196C139.006 103.466 139.203 103.739 139.396 104.015L139.245 103.829C138.942 103.396 138.612 102.97 138.255 102.571L137.629 101.938C137.505 101.821 137.395 101.704 137.291 101.595C137.182 101.48 137.082 101.374 136.983 101.285L123.253 87.4665C121.478 85.6709 119.06 84.6582 116.535 84.653C114.011 84.6479 111.588 85.6507 109.806 87.439C106.088 91.1883 106.088 97.2334 109.806 100.983Z" fill="white"/>
</g>
<defs>
<clipPath id="clip0_4_4360">
<rect width="220" height="220" fill="white" transform="translate(0 0.5)"/>
</clipPath>
</defs>
</svg>
