<svg width="220" height="221" viewBox="0 0 220 221" fill="none" xmlns="http://www.w3.org/2000/svg">
<g clip-path="url(#clip0_4_4363)">
<path d="M110 220.5C170.751 220.5 220 171.251 220 110.5C220 49.7487 170.751 0.5 110 0.5C49.2487 0.5 0 49.7487 0 110.5C0 171.251 49.2487 220.5 110 220.5Z" fill="#EDF0F4"/>
<path fill-rule="evenodd" clip-rule="evenodd" d="M47.666 46.5233L109.971 33.5L172.402 46.5233V132.882C172.402 159.814 113.572 184.849 111.045 185.797L110.034 186.18L109.023 185.797C97.1433 180.297 85.6406 173.975 74.6479 166.768C60.6198 157.474 47.666 145.526 47.666 132.882V46.5233ZM109.971 178.274C126.843 171.636 167.348 151.721 167.348 132.882L167.352 132.883L167.288 51.1387L110.224 41.9735H109.718L52.6525 51.1387V133.691C52.6525 133.736 52.6444 133.765 52.6371 133.792C52.6235 133.842 52.6116 133.885 52.6525 134.007C52.7181 134.191 52.7607 134.382 52.7792 134.576C52.7792 134.634 52.792 134.679 52.8063 134.728C52.8235 134.787 52.8424 134.853 52.8424 134.958C52.8424 135.062 52.8617 135.167 52.8789 135.26C52.893 135.337 52.9059 135.407 52.9059 135.464C52.9004 135.594 52.9218 135.724 52.9693 135.845C53.001 135.94 53.0168 136.019 53.0325 136.098C53.0485 136.177 53.0643 136.256 53.096 136.351C53.1237 136.435 53.1392 136.506 53.1534 136.57C53.1715 136.652 53.1871 136.723 53.2227 136.794C53.2938 136.932 53.3369 137.083 53.3493 137.237C53.3493 137.3 53.3811 137.379 53.4128 137.458C53.4445 137.537 53.4762 137.616 53.4762 137.68C53.4887 137.834 53.5318 137.985 53.6029 138.122C53.6773 138.265 53.7408 138.413 53.7921 138.565C53.8238 138.661 53.8555 138.725 53.8874 138.789C53.9188 138.851 53.9501 138.914 53.9815 139.008C54.0341 139.18 54.0973 139.35 54.1709 139.514C54.2466 139.635 54.31 139.763 54.3601 139.896C54.392 139.991 54.4393 140.071 54.4867 140.15C54.534 140.229 54.5812 140.308 54.6129 140.402L54.8021 140.784C54.8606 140.964 54.9456 141.135 55.0549 141.29L55.3075 141.672C55.384 141.747 55.4371 141.847 55.4951 141.956C55.5332 142.027 55.5734 142.103 55.6236 142.178L55.8128 142.559L56.1945 143.128L56.3839 143.444L56.7656 144.013L57.0182 144.329L57.4602 144.898L57.7129 145.214L58.1549 145.782L58.4075 146.035L58.913 146.667L59.1023 146.92L59.671 147.552L59.8603 147.804L60.429 148.437L60.6183 148.689L61.2505 149.321L61.4397 149.511L62.1352 150.143L62.3244 150.332L63.02 151.027L63.2092 151.217L63.9048 151.912L64.094 152.039L64.852 152.734L64.9787 152.861L65.8002 153.557L65.9269 153.683L66.8117 154.379L66.9384 154.442L67.8866 155.138L68.0133 155.201L69.024 155.96L69.0874 156.023L70.0996 156.776L70.163 156.839L71.1737 157.598L71.237 157.661L72.3111 158.42L73.4486 159.242L74.586 160.001C84.191 166.449 95.1226 171.95 103.527 175.68H103.59L104.538 176.061H104.6L105.421 176.377L105.548 176.441L106.306 176.757L106.495 176.82L107.191 177.136L107.38 177.199L107.949 177.452L108.265 177.579L108.834 177.832L109.15 177.958L109.971 178.274Z" fill="#5E4778"/>
<path fill-rule="evenodd" clip-rule="evenodd" d="M109.975 48.2937L66.7547 55.2481L57.8438 56.639V130.67C57.8438 147.802 94.6831 165.946 109.975 171.953C118.885 168.475 135.062 160.889 147.005 151.786C147.299 151.554 147.601 151.322 147.903 151.091C148.506 150.627 149.111 150.163 149.659 149.699C153.766 146.349 157.178 142.808 159.391 139.205C161.097 136.423 162.107 133.578 162.107 130.732V56.639L109.975 48.2937ZM84.8255 87.5529H115.22V93.8753H84.8255V87.5529ZM119.264 115.182C133.672 115.182 144.098 105.508 144.098 90.5249C144.098 75.5418 133.67 66.185 119.199 66.185H90.0074V73.3922L109.975 73.3288H118.318C128.935 73.3288 135.949 79.6512 135.949 90.5249C135.949 101.525 128.935 108.037 118.192 108.037H91.3976V146.792H99.2963V115.182H119.264Z" fill="#5E4778"/>
<path d="M109.974 33.5V41.9735H110.226L167.291 51.1387V132.816C167.291 151.656 126.786 171.57 109.914 178.209V186.11L110.925 185.729C113.452 184.781 172.283 159.746 172.283 132.814V46.5233L109.974 33.5Z" fill="#5E4778"/>
<path fill-rule="evenodd" clip-rule="evenodd" d="M99.2934 115.117H119.196C133.667 115.117 144.03 105.444 144.03 90.4607C144.03 75.6052 133.604 66.185 119.196 66.185H90.0047V73.3922L109.972 73.3288H118.317C128.933 73.3288 135.947 79.6512 135.947 90.5249C135.947 101.525 128.933 108.037 118.191 108.037H91.3963V111.577C74.7774 93.9388 68.7741 71.496 66.752 55.2481L110.036 48.2937L162.167 56.639V130.667C162.167 133.514 161.157 136.359 159.45 139.141C138.787 138.193 122.61 133.325 110.036 126.118C106.269 123.981 102.677 121.549 99.2934 118.846V115.117ZM115.15 87.5529H109.972H84.8228V93.8753H115.15V87.5529Z" fill="#5E4778"/>
<path d="M109.213 177.958L108.897 177.832L108.328 177.642L108.012 177.515L107.443 177.263L107.254 177.199L106.559 176.883L106.37 176.82L105.611 176.504L105.485 176.441L104.663 176.059H104.538L103.59 175.677H103.527C95.1858 171.947 84.2535 166.447 74.6486 159.935L73.5111 159.177L72.3737 158.292L71.2997 157.533L71.2363 157.47L70.2255 156.711L70.1621 156.648L69.1514 155.889L69.0881 155.825L68.0774 155.067L67.9507 155.003L67.0025 154.308L66.8759 154.244L65.9911 153.549L65.8651 153.428L65.0436 152.732L64.9169 152.605L64.1589 151.91L63.9697 151.783L63.2741 151.088L63.0849 150.899L62.3893 150.203L62.2001 150.014L61.5046 149.382L61.3154 149.192L60.6832 148.56L60.4939 148.308L59.9251 147.676L59.7359 147.423L59.1672 146.791L58.9779 146.538L58.4092 146.032L58.1563 145.779L57.7145 145.21L57.4617 144.895L57.0197 144.326L56.767 144.01L56.3854 143.441L56.1961 143.125L55.8144 142.556L55.6251 142.24C55.4984 142.051 55.4357 141.859 55.309 141.734L55.0564 141.352L54.8037 140.846L54.6144 140.465C54.5509 140.275 54.425 140.149 54.3617 139.959C54.3117 139.825 54.2482 139.697 54.1723 139.577C54.0988 139.412 54.0356 139.243 53.983 139.071C53.9197 138.881 53.8563 138.818 53.7937 138.628C53.7422 138.476 53.679 138.328 53.6044 138.185C53.5252 138.051 53.4815 137.898 53.4777 137.742C53.4777 137.553 53.351 137.361 53.351 137.236C53.3384 137.082 53.2953 136.931 53.2241 136.793C53.1609 136.667 53.1609 136.541 53.0975 136.351C53.0342 136.161 53.0342 136.035 52.9708 135.845C52.9235 135.723 52.9018 135.593 52.9073 135.463C52.9073 135.336 52.8441 135.147 52.8441 134.957C52.8441 134.767 52.7807 134.704 52.7807 134.575C52.7623 134.381 52.7196 134.19 52.654 134.006C52.5905 133.817 52.654 133.817 52.654 133.69V51.1387L109.718 41.9735H109.971V33.5L47.666 46.5233V132.882C47.666 145.526 60.6198 157.474 74.6479 166.768C85.6406 173.975 97.1433 180.297 109.023 185.797L110.034 186.18V178.274L109.213 177.958Z" fill="#3D3144"/>
<path d="M109.975 126.118C106.208 123.981 102.616 121.549 99.2329 118.846V146.786H91.3356V111.577C74.7154 93.8752 68.7754 71.4317 66.7547 55.2479L57.8438 56.6389V130.67C57.8438 147.802 94.6831 165.946 109.975 171.953C118.885 168.476 135.062 160.889 147.005 151.786C147.89 151.09 148.837 150.395 149.659 149.699C153.766 146.349 157.178 142.808 159.391 139.205C138.727 138.13 122.613 133.261 109.975 126.118Z" fill="#3D3144"/>
</g>
<defs>
<clipPath id="clip0_4_4363">
<rect width="220" height="220" fill="white" transform="translate(0 0.5)"/>
</clipPath>
</defs>
</svg>
