<svg width="220" height="221" viewBox="0 0 220 221" fill="none" xmlns="http://www.w3.org/2000/svg">
<g clip-path="url(#clip0_4_4371)">
<path d="M110 220.5C170.751 220.5 220 171.251 220 110.5C220 49.7487 170.751 0.5 110 0.5C49.2487 0.5 0 49.7487 0 110.5C0 171.251 49.2487 220.5 110 220.5Z" fill="#303642"/>
<path fill-rule="evenodd" clip-rule="evenodd" d="M143.137 114.022H97.7311V68.3334H119.417C123.824 68.3334 127.55 69.3481 130.942 71.0405C134.284 72.7119 137.274 75.0102 139.748 77.8102C142.122 80.5173 144.155 83.5616 145.51 87.2871C146.866 91.009 147.54 94.3904 147.54 98.1159C147.54 102.175 146.866 105.56 145.51 109.285C144.833 110.974 144.155 112.329 143.137 114.022ZM121.791 91.009C120.095 89.6536 118.74 88.9796 117.384 88.9796H105.863V107.252H118.062C119.417 107.252 120.773 106.574 122.128 105.223C123.143 103.871 123.824 101.501 123.824 98.1159C123.824 94.731 123.147 92.3609 121.791 91.009ZM90.617 120.791V153.955H82.4847V127.558H73.334V120.791H90.617ZM90.617 114.022V68.3334H82.4847V107.256H73.334V114.022H90.617ZM97.7311 153.959V120.791H137.378C135.515 122.635 133.333 124.126 130.938 125.191C127.55 126.883 123.824 127.558 119.758 127.558H105.863V153.959H97.7311Z" fill="url(#paint0_linear_4_4371)"/>
</g>
<defs>
<linearGradient id="paint0_linear_4_4371" x1="73.334" y1="68.3334" x2="73.334" y2="153.959" gradientUnits="userSpaceOnUse">
<stop stop-color="#F0F0F0"/>
<stop offset="1" stop-color="#999797"/>
</linearGradient>
<clipPath id="clip0_4_4371">
<rect width="220" height="220" fill="white" transform="translate(0 0.5)"/>
</clipPath>
</defs>
</svg>
