<svg width="220" height="221" viewBox="0 0 220 221" fill="none" xmlns="http://www.w3.org/2000/svg">
<g clip-path="url(#clip0_4_4374)">
<path d="M110 220.5C170.751 220.5 220 171.251 220 110.5C220 49.7487 170.751 0.5 110 0.5C49.2487 0.5 0 49.7487 0 110.5C0 171.251 49.2487 220.5 110 220.5Z" fill="#EDF0F4"/>
<mask id="mask0_4_4374" style="mask-type:luminance" maskUnits="userSpaceOnUse" x="66" y="50" width="88" height="112">
<path fill-rule="evenodd" clip-rule="evenodd" d="M109.995 50L92.2154 67.7665L115.736 91.287L115.817 91.3497L116.308 91.8174L120.956 87.1714L101.566 67.7665L101.652 67.6831L109.997 59.3188L118.431 67.7694L118.347 67.8528L112.155 74.0718L116.803 78.7193L117.385 78.1638L117.394 78.1712L127.781 67.7665L109.998 50H109.995ZM112.137 100.286L116.806 104.938L136.212 85.5342L144.649 93.9877L144.567 94.0711L138.361 100.265L143.042 104.944L153.995 93.9787L136.212 76.2124L112.137 100.286ZM66 93.9787L90.0718 118.037L94.7223 113.388L94.1772 112.815L94.1831 112.809L75.3516 93.9787L75.4365 93.8953L83.7843 85.5342L90.0898 91.8233L94.7432 87.1714L83.7991 76.2124L66 93.9787ZM85.9426 100.29L90.5933 104.954L107.129 88.4197L107.834 87.6853L103.182 83.0317L85.9426 100.29ZM125.271 100.806L144.645 120.196L144.56 120.279L136.212 128.64L129.92 122.351L125.286 127.019L125.855 127.588L125.841 127.605L136.212 137.977L153.995 120.194L129.922 96.1357L125.271 100.806ZM99.0555 100.806L116.305 118.037L120.954 113.385L103.722 96.1373L99.0555 100.806ZM128.824 109.816L111.518 127.121V154.988H108.486V127.116L103.708 122.339L99.0288 127.019L101.865 129.872V152.812L101.829 152.845L99.6886 154.988H83.7843V161.577H136.212V154.988H120.299L120.264 154.954L118.121 152.81V129.866L118.157 129.832L134.07 113.904L129.397 109.231L128.824 109.816ZM83.7857 128.654L83.7038 128.569L75.3531 120.194L75.438 120.109L80.9138 114.634L81.6198 113.898L76.9679 109.244L66.0163 120.194L83.7843 137.977L107.834 113.898L103.182 109.244L83.7857 128.654Z" fill="white"/>
</mask>
<g mask="url(#mask0_4_4374)">
<path fill-rule="evenodd" clip-rule="evenodd" d="M92.2154 67.7665L109.995 50H109.998L127.781 67.7665L117.394 78.1712L117.385 78.1638L116.803 78.7193L112.155 74.0718L118.347 67.8528L118.431 67.7694L109.997 59.3188L101.652 67.6831L101.566 67.7665L120.956 87.1714L116.308 91.8174L115.817 91.3497L115.736 91.287L92.2154 67.7665ZM116.806 104.938L112.137 100.286L136.212 76.2124L153.995 93.9787L143.042 104.944L138.361 100.265L144.567 94.0711L144.649 93.9877L136.212 85.5342L116.806 104.938ZM66 93.9787L90.0718 118.037L94.7223 113.388L94.1772 112.815L94.1831 112.809L75.3516 93.9787L75.4365 93.8953L83.7843 85.5342L90.0898 91.8233L94.7432 87.1714L83.7991 76.2124L66 93.9787ZM90.5933 104.954L85.9426 100.29L103.182 83.0317L107.834 87.6853L107.129 88.4197L90.5933 104.954ZM125.271 100.806L144.645 120.196L144.56 120.279L136.212 128.64L129.92 122.351L125.286 127.019L125.855 127.588L125.841 127.605L136.212 137.977L153.995 120.194L129.922 96.1357L125.271 100.806ZM116.305 118.037L99.0555 100.806L103.722 96.1373L120.954 113.385L116.305 118.037ZM128.824 109.816L111.518 127.121V154.988H108.486V127.116L103.708 122.339L99.0288 127.019L101.865 129.872V152.812L101.829 152.845L99.6886 154.988H83.7843V161.577H136.212V154.988H120.299L120.264 154.954L118.121 152.81V129.866L118.157 129.832L134.07 113.904L129.397 109.231L128.824 109.816ZM83.7038 128.569L83.7857 128.654L103.182 109.244L107.834 113.898L83.7843 137.977L66.0163 120.194L76.9679 109.244L81.6198 113.898L80.9138 114.634L75.438 120.109L75.3531 120.194L83.7038 128.569Z" fill="url(#paint0_linear_4_4374)"/>
</g>
</g>
<defs>
<linearGradient id="paint0_linear_4_4374" x1="165.909" y1="105.466" x2="87.0553" y2="56.4216" gradientUnits="userSpaceOnUse">
<stop stop-color="#24B1C6"/>
<stop offset="1" stop-color="#D852D8"/>
</linearGradient>
<clipPath id="clip0_4_4374">
<rect width="220" height="220" fill="white" transform="translate(0 0.5)"/>
</clipPath>
</defs>
</svg>
