<svg width="220" height="221" viewBox="0 0 220 221" fill="none" xmlns="http://www.w3.org/2000/svg">
<g clip-path="url(#clip0_4_4381)">
<path d="M110 220.5C170.751 220.5 220 171.251 220 110.5C220 49.7487 170.751 0.5 110 0.5C49.2487 0.5 0 49.7487 0 110.5C0 171.251 49.2487 220.5 110 220.5Z" fill="black"/>
<path fill-rule="evenodd" clip-rule="evenodd" d="M103.456 122.321C102.946 121.662 102.414 120.965 101.89 120.23C101.305 119.405 101.102 118.611 101.282 117.779C101.672 115.965 103.838 114.376 104.64 113.918L103.651 112.134C103.501 112.217 99.9781 114.248 99.311 117.329C99.0035 118.738 99.3183 120.117 100.248 121.422C100.788 122.179 101.335 122.891 101.859 123.573C104.476 126.984 105.66 128.723 104.048 130.889C103.359 131.811 102.564 132.411 101.717 133.041C99.6182 134.615 97.4444 136.241 98.1791 142.298L100.18 142.051C99.5882 137.171 100.982 136.129 102.916 134.682C103.801 134.022 104.798 133.273 105.667 132.111C108.283 128.603 105.937 125.552 103.456 122.321Z" fill="#DEC685"/>
<path fill-rule="evenodd" clip-rule="evenodd" d="M103.526 112.629C102.619 113.206 100.19 114.96 99.6581 117.404C99.3732 118.708 99.6654 119.99 100.543 121.212C101.082 121.969 101.622 122.673 102.139 123.348C104.793 126.811 106.097 128.723 104.335 131.091C103.616 132.058 102.799 132.665 101.929 133.318C99.8603 134.869 97.904 136.331 98.4886 141.893L99.7855 141.728C99.2832 136.946 100.79 135.814 102.694 134.39C103.563 133.737 104.538 133.01 105.377 131.893C107.836 128.595 105.677 125.784 103.174 122.523C102.664 121.856 102.124 121.159 101.599 120.417C100.947 119.503 100.73 118.61 100.932 117.681C101.315 115.934 103.181 114.413 104.163 113.776L103.526 112.629ZM97.8664 142.695L97.8215 142.343C97.057 136.076 99.4181 134.315 101.495 132.755C102.319 132.141 103.106 131.549 103.758 130.672C105.16 128.79 104.32 127.373 101.57 123.79C101.015 123.078 100.475 122.358 99.9503 121.631C98.9609 120.245 98.6236 118.768 98.9534 117.254C99.6356 114.113 103.069 112.051 103.466 111.827L103.781 111.647L105.115 114.053L104.815 114.225C104.103 114.63 101.989 116.167 101.629 117.853C101.472 118.573 101.652 119.285 102.177 120.027C102.701 120.762 103.226 121.452 103.736 122.111C106.187 125.304 108.721 128.61 105.947 132.336C105.048 133.535 104.028 134.3 103.129 134.974C101.225 136.399 99.9654 137.343 100.535 142.013L100.58 142.365L97.8664 142.695ZM79.2764 79.5865C68.8346 79.1741 66.3833 83.1171 66.166 86.5053C66.0685 88.0345 66.1811 89.736 66.3085 91.5425C66.5784 95.5003 66.8556 99.6008 64.7866 101.67C63.5724 102.884 61.5935 103.364 58.7376 103.139L58.5801 105.178C59.0822 105.215 59.562 105.238 60.0268 105.238C62.7553 105.238 64.7868 104.541 66.2034 103.124C68.932 100.395 68.6097 95.6202 68.3248 91.4076C68.2049 89.676 68.1 88.042 68.1823 86.6402C68.4148 83.0346 72.1178 81.3404 79.2014 81.6328L79.2764 79.5865Z" fill="#DEC685"/>
<path fill-rule="evenodd" clip-rule="evenodd" d="M58.9505 104.856C62.1363 105.051 64.415 104.406 65.9441 102.877C68.5528 100.261 68.238 95.5681 67.9606 91.4305C67.8407 89.6914 67.7357 88.0498 67.8182 86.618C68.058 82.84 71.7686 81.041 78.8523 81.2659L78.9047 79.9316C71.0714 79.6841 66.7987 81.9705 66.5139 86.5279C66.4164 88.0498 66.5288 89.7288 66.6564 91.5128C66.9263 95.5533 67.211 99.736 65.0297 101.917C63.7929 103.154 61.8439 103.679 59.0629 103.514L58.9505 104.856ZM60.0223 105.59C59.5502 105.59 59.0629 105.575 58.5457 105.53L58.1934 105.5L58.4033 102.757L58.7556 102.787C61.499 103.004 63.3881 102.554 64.52 101.415C66.4764 99.4586 66.199 95.4407 65.9441 91.5579C65.8242 89.7513 65.7043 88.0423 65.8017 86.4755C66.0266 82.93 68.5453 78.8072 79.2796 79.2269L79.6318 79.2419L79.5269 81.993L79.1746 81.978C72.3307 81.7006 68.7402 83.2747 68.5227 86.6555C68.4329 88.0348 68.5453 89.6613 68.6652 91.3778C68.9576 95.6656 69.2799 100.531 66.4465 103.371C64.9547 104.871 62.8484 105.59 60.0223 105.59Z" fill="#DEC685"/>
<path fill-rule="evenodd" clip-rule="evenodd" d="M94.7122 113.94C94.2024 113.273 93.6701 112.584 93.1454 111.842C92.4933 110.927 92.2685 110.073 92.4559 109.218C92.7782 107.764 94.195 106.662 94.8471 106.227C96.2564 106.789 97.9654 107.164 100.049 107.247V107.262C100.192 107.262 100.342 107.262 100.484 107.254C100.627 107.262 100.769 107.262 100.919 107.262V107.247C106.713 107.022 109.644 104.503 111.128 102.029C112.515 102.592 116.488 104.631 116.308 109.555C116.218 111.984 114.187 114.3 112.215 116.542C109.419 119.735 106.241 123.356 108.887 127.651L110.604 126.571C108.879 123.768 110.634 121.422 113.729 117.898C115.933 115.387 118.212 112.786 118.324 109.63C118.482 105.23 115.971 102.457 113.602 100.995C115.581 100.792 118.092 100.118 118.699 98.8585C118.917 98.4088 119.486 97.2169 114.029 84.234C113.64 82.375 112.538 77.0453 112.215 74.4517C116.271 68.8747 114.457 63.1553 110.791 59.902C106.998 56.5439 100.724 55.3145 95.8815 59.13C94.4948 55.9591 90.9867 53.7253 86.3241 53.1482C78.0336 52.1287 71.9844 56.5512 69.878 61.0939C67.157 66.9633 68.6561 71.0934 70.0953 73.2973C65.6053 73.3424 62.4795 74.4442 60.5904 76.6255C57.5621 80.1187 58.5741 85.3883 59.3837 89.631C59.7584 91.6026 60.2307 94.0537 59.7509 94.6534C58.1768 96.6323 56.3928 96.0627 55.6956 95.7254C54.5037 95.148 53.7541 94.0013 53.964 93.0568L51.9926 92.6219C51.5878 94.4959 52.7797 96.5799 54.8335 97.5693C56.6476 98.4464 59.3087 98.4763 61.3325 95.9277C62.397 94.5934 61.9472 92.2321 61.3701 89.2412C60.6505 85.4407 59.7434 80.7184 62.1196 77.9673C63.8512 75.9659 67.2619 75.1113 72.2618 75.3962L72.9437 73.5746C72.8913 73.5372 68.154 69.6317 71.7145 61.9634C74.2931 56.4015 80.9721 54.5424 86.0919 55.172C89.6374 55.6069 93.6776 57.3984 94.4123 61.1313L96.1215 61.6486C99.1723 58.5153 104.884 57.3759 109.464 61.4387C112.238 63.8974 114.134 68.4774 110.506 73.3499C101.219 71.9105 94.2698 73.1475 89.8773 77.0604C87.2087 79.429 86.0543 82.2775 85.5521 84.4289C85.3347 84.2564 85.1022 84.1139 84.8549 83.994C84.1654 83.6792 82.7711 83.3419 81.1219 84.5787C79.4878 85.8081 78.8207 87.6521 79.2405 89.7584C79.7351 92.2697 81.6691 94.8107 83.5881 96.2425C82.6736 97.1345 81.7366 98.3338 81.4218 99.7807C81.1144 101.19 81.4293 102.569 82.3588 103.873C82.8986 104.631 83.4456 105.343 83.9703 106.025C86.5865 109.435 87.7708 111.174 86.1593 113.341C85.4696 114.263 84.6675 114.863 83.8205 115.492C81.7216 117.066 79.5478 118.693 80.2824 124.75L82.2838 124.502C81.6917 119.622 83.0859 118.581 85.0199 117.141C85.9043 116.482 86.9013 115.732 87.7708 114.57C90.387 111.062 88.0407 108.011 85.5596 104.773C85.0274 104.083 84.5026 103.386 83.9929 102.682C83.4082 101.857 83.2134 101.055 83.3857 100.23C83.6332 99.0759 84.6001 98.0115 85.4772 97.2769C85.5371 97.2994 85.7169 97.082 85.7169 97.082C86.1293 96.7597 86.4965 96.5124 86.744 96.3775L86.2492 95.4854L85.7545 94.5934C85.5745 94.6983 85.4022 94.8034 85.2298 94.9233C83.6781 93.9413 81.6466 91.5875 81.2044 89.3686C80.9345 88.0195 81.3019 86.9924 82.3137 86.2204C82.936 85.7482 83.4983 85.6283 84.0004 85.8605C84.6001 86.1304 85.0949 86.9175 85.1473 87.6822L86.0992 87.6072L87.1636 87.5622C87.1561 87.5096 87.0287 82.27 91.2041 78.582C95.1544 75.0888 101.578 74.0319 110.289 75.3962C110.791 78.8519 112.118 85.0434 112.178 85.3359L112.268 85.3133C114.464 90.5456 116.72 96.6398 116.81 98.019C116.173 98.5738 113.49 99.0759 112.335 99.0684C112.628 97.9217 112.635 97.1121 112.635 97.082H110.611C110.611 97.4118 110.491 105.013 100.469 105.223C90.5144 105.005 90.3421 97.4043 90.3346 97.0745L89.3301 97.082H88.3181C88.3181 97.157 88.3931 102.232 92.8532 105.193C91.9386 105.972 90.8367 107.187 90.4843 108.768C90.162 110.208 90.4994 111.647 91.5039 113.049C92.0436 113.805 92.5908 114.518 93.1155 115.2C95.7315 118.61 96.916 120.342 95.3044 122.508C94.6147 123.431 93.8126 124.03 92.9731 124.667C90.8743 126.241 88.7003 127.861 89.4349 133.925L91.4364 133.677C90.8442 128.798 92.2385 127.756 94.1725 126.309C95.057 125.649 96.054 124.9 96.9234 123.738C99.532 120.222 97.1859 117.171 94.7122 113.94Z" fill="#DEC685"/>
<path fill-rule="evenodd" clip-rule="evenodd" d="M88.6888 97.4347C88.7937 98.619 89.4234 102.494 93.0514 104.893L93.4412 105.156L93.0813 105.463C92.2343 106.182 91.1623 107.344 90.8325 108.844C90.5328 110.185 90.8551 111.527 91.7921 112.839C92.3318 113.596 92.8716 114.308 93.3963 114.983C96.0423 118.438 97.3465 120.35 95.5851 122.719C94.8655 123.678 94.0559 124.293 93.1939 124.937C91.1099 126.496 89.1536 127.958 89.7382 133.528L91.0424 133.363C90.5403 128.58 92.0469 127.441 93.9508 126.024C94.8204 125.372 95.795 124.645 96.627 123.528C99.0781 120.237 96.9269 117.426 94.4306 114.166L94.708 113.941L94.4231 114.158C93.9134 113.491 93.3812 112.794 92.849 112.052C92.1369 111.055 91.8894 110.095 92.1069 109.143C92.4592 107.547 94.0035 106.362 94.6481 105.928L94.8054 105.823L94.9779 105.89C96.4396 106.475 98.1561 106.812 100.06 106.887L100.39 106.902H100.48H100.742L100.907 106.887C105.592 106.7 108.928 105.006 110.832 101.842L110.989 101.587L111.267 101.7C112.578 102.232 116.859 104.368 116.671 109.571C116.574 112.119 114.497 114.488 112.496 116.774C109.842 119.795 106.851 123.206 109.018 127.156L110.135 126.452C108.591 123.581 110.465 121.085 113.47 117.659C115.637 115.193 117.871 112.644 117.983 109.616C118.155 104.938 115.202 102.389 113.425 101.295L112.541 100.748L113.575 100.643C115.614 100.433 117.886 99.7509 118.388 98.709C118.868 97.7121 117.293 92.892 113.71 84.3766C113.35 82.6751 112.204 77.143 111.874 74.4969L111.851 74.362L111.934 74.2421C115.862 68.8449 114.07 63.283 110.554 60.1647C106.949 56.9714 100.832 55.682 96.1023 59.4075L95.7424 59.6924L95.5625 59.2726C94.2207 56.2067 90.7502 54.0479 86.2901 53.5007C78.1719 52.5037 72.2651 56.8139 70.2112 61.2441C67.6251 66.8211 68.8844 70.7714 70.3986 73.1102L70.7509 73.6499L70.1061 73.6574C65.7135 73.7024 62.6927 74.7518 60.8711 76.8583C57.9552 80.2239 58.9446 85.4036 59.7392 89.5638C60.2566 92.2474 60.5789 94.1963 60.0391 94.8709C58.3075 97.0449 56.3211 96.4152 55.5489 96.0404C54.3347 95.4558 53.555 94.3538 53.5775 93.3269L52.2808 93.042C52.1233 94.661 53.2103 96.3853 54.9793 97.2473C56.666 98.0642 59.147 98.0868 61.0436 95.7106C62.003 94.4962 61.5683 92.2099 61.0135 89.309C60.2714 85.4335 59.3569 80.6137 61.8382 77.7427C63.6072 75.6963 67.0254 74.7818 72.0102 75.0367L72.5199 73.6798C71.6278 72.8178 68.1197 68.8449 71.388 61.8137C74.0416 56.0868 80.8854 54.1829 86.1251 54.8275C89.7232 55.2698 93.8309 57.0837 94.708 60.8542L96.0122 61.2515C99.2131 58.1108 105.023 57.0313 109.692 61.1767C112.556 63.7177 114.557 68.4852 110.779 73.5674L110.652 73.7398L110.442 73.7099C101.252 72.2856 94.4081 73.5 90.1054 77.3303C87.4594 79.6842 86.35 82.5326 85.8928 84.5115L85.7654 85.0512L85.3305 84.7064C85.1056 84.5341 84.9033 84.4066 84.7083 84.3091C84.0937 84.0244 82.8344 83.7245 81.3426 84.8564C79.821 86.0033 79.1987 87.7198 79.5887 89.6837C80.0908 92.2249 82.0697 94.661 83.8013 95.9504L84.1387 96.1977L83.8389 96.4901C82.7145 97.5696 82.0248 98.7015 81.77 99.8483C81.4851 101.153 81.7775 102.434 82.6544 103.656C83.1642 104.368 83.6814 105.043 84.1761 105.688L84.2586 105.8C86.9121 109.256 88.2165 111.167 86.4549 113.536C85.7353 114.503 84.9107 115.118 84.0413 115.762C81.9724 117.314 80.0159 118.776 80.6005 124.345L81.9049 124.188C81.4026 119.398 82.9167 118.266 84.8208 116.849C85.6979 116.189 86.6723 115.462 87.4968 114.353C89.9555 111.055 87.7967 108.244 85.2931 104.983C84.7684 104.301 84.2435 103.611 83.7188 102.884C83.0667 101.977 82.8493 101.078 83.0517 100.156C83.3366 98.8513 84.416 97.7194 85.263 96.9998L85.413 96.8724L85.4356 96.8799L85.4654 96.85C85.7654 96.6025 86.0426 96.4001 86.2901 96.2428L85.6453 95.0809C85.5778 95.1258 85.5179 95.1634 85.4504 95.2083L85.2405 95.3357L85.0456 95.2158C83.3441 94.1438 81.3052 91.6852 80.8629 89.4364C80.5706 87.9596 80.9903 86.7828 82.1073 85.9358C82.8419 85.3811 83.5315 85.2386 84.1537 85.531C84.7757 85.8159 85.2931 86.528 85.4579 87.2925L86.8223 87.2177C86.8672 85.9433 87.3019 81.5582 90.9825 78.3125C95.0078 74.7518 101.522 73.6574 110.352 75.0442L110.614 75.0891L110.652 75.3439C111.079 78.2598 112.076 83.0874 112.459 84.9163L112.488 84.9088L112.601 85.1787C114.745 90.2984 117.076 96.5351 117.174 97.9968L117.188 98.1768L117.054 98.2892C116.296 98.9413 113.515 99.4211 112.376 99.4211H112.346H111.896L112.001 98.9862C112.129 98.4766 112.219 97.9594 112.271 97.4422H110.967C110.839 99.0462 109.745 105.388 100.487 105.583C91.2674 105.388 90.1355 99.0388 89.993 97.4422L88.6888 97.4347ZM89.116 134.307L89.0711 133.955C88.3064 127.688 90.6677 125.927 92.7515 124.375C93.5836 123.753 94.3556 123.168 95.0153 122.291C96.417 120.41 95.5851 118.993 92.834 115.41C92.3093 114.728 91.762 114.008 91.215 113.244C90.1579 111.759 89.7982 110.23 90.143 108.679C90.4803 107.194 91.4322 106.018 92.2867 105.216C88.0217 102.112 87.969 97.1197 87.969 97.0673V96.7151L90.6901 96.7076L90.6976 97.0598C90.6976 97.3747 90.8701 104.646 100.502 104.856C110.172 104.653 110.285 97.3822 110.285 97.0673V96.7151H113.013V97.0673C113.013 97.0748 113.006 97.7121 112.803 98.6865C113.988 98.604 115.809 98.2067 116.454 97.8395C116.214 96.3477 114.362 91.2056 112.076 85.7109L111.926 85.7485L111.851 85.4036C111.522 83.8594 110.472 78.8372 110 75.6963C101.522 74.4069 95.2851 75.464 91.4623 78.8372C87.4145 82.4052 87.5344 87.4874 87.5419 87.54L87.5494 87.8922L84.8432 88.0497L84.8133 87.6973C84.7609 87.0602 84.3486 86.3931 83.8688 86.1681C83.4941 85.9958 83.0592 86.1006 82.542 86.4904C81.6351 87.1801 81.3201 88.0647 81.5676 89.2864C81.9574 91.243 83.7339 93.4468 85.2405 94.4812C85.4429 94.3538 85.5703 94.2788 85.5929 94.2637L85.9003 94.0989L87.2271 96.4901L86.9196 96.6625C86.6498 96.82 86.275 97.0748 85.9377 97.3447C85.8627 97.4497 85.7579 97.5395 85.6378 97.592C85.0007 98.1392 83.9738 99.1663 83.7263 100.291C83.569 101.018 83.7489 101.73 84.2736 102.464C84.7908 103.192 85.3155 103.874 85.8178 104.526C88.284 107.742 90.8177 111.047 88.044 114.773C87.1596 115.965 86.1401 116.722 85.248 117.396C83.3215 118.836 82.0697 119.773 82.632 124.45L82.6769 124.802L79.9709 125.14L79.9258 124.787C79.1689 118.521 81.5225 116.759 83.6064 115.2C84.4311 114.586 85.2106 114.001 85.8702 113.116C87.272 111.235 86.4325 109.818 83.6814 106.235L83.5989 106.122C83.0968 105.47 82.5796 104.788 82.0697 104.076C81.0728 102.689 80.743 101.213 81.0728 99.6985C81.3276 98.5215 81.9948 97.3747 83.0517 96.2727C81.2902 94.8486 79.3936 92.3899 78.884 89.8262C78.4418 87.5774 79.1538 85.6135 80.9004 84.2943C82.692 82.9374 84.2287 83.3197 84.9932 83.6645C85.1056 83.7169 85.2181 83.7769 85.323 83.8368C86.0351 81.1158 87.5344 78.6646 89.6256 76.7908C94.0709 72.8478 101.035 71.566 110.33 72.9677C113.65 68.3428 111.821 64.0176 109.213 61.7014C104.798 57.7885 99.2956 58.8753 96.3571 61.8962L96.2071 62.0462L94.0858 61.4089L94.0484 61.199C93.3512 57.6535 89.4458 55.9443 86.0277 55.5247C81.0429 54.91 74.5214 56.709 72.0178 62.1137C68.5995 69.4822 73.1046 73.2602 73.1495 73.3051L73.3445 73.4626L72.4898 75.7713L72.2275 75.7562C67.3402 75.464 64.027 76.296 62.3704 78.2074C60.1066 80.8236 60.9912 85.456 61.7032 89.1816C62.2954 92.2625 62.7602 94.6911 61.5909 96.1528C59.4319 98.8588 56.5985 98.8289 54.6645 97.8844C52.4682 96.8275 51.1938 94.5787 51.636 92.5397L51.711 92.195L54.3796 92.7797L54.3046 93.1245C54.1398 93.904 54.8145 94.9085 55.8489 95.4032C56.6134 95.7706 58.1051 96.1378 59.4693 94.4287C59.8442 93.9565 59.312 91.183 59.0271 89.6987C58.2027 85.3886 57.1756 80.0215 60.3165 76.4008C62.1904 74.2271 65.1888 73.1102 69.4615 72.9677C68.0149 70.4341 67.0104 66.4238 69.5516 60.9517C71.7103 56.2967 77.8945 51.7616 86.3575 52.8036C90.8776 53.3582 94.4457 55.5096 96.0047 58.5906C100.982 54.9624 107.279 56.3343 111.012 59.6475C114.737 62.9532 116.649 68.8374 112.571 74.5569C112.923 77.2255 114.033 82.5775 114.362 84.1817C119.864 97.2398 119.287 98.4465 119.01 99.0313C118.44 100.216 116.476 100.92 114.565 101.243C116.439 102.629 118.83 105.268 118.673 109.668C118.553 112.951 116.236 115.597 113.988 118.154C110.727 121.872 109.355 123.903 110.899 126.414L111.079 126.714L108.77 128.168L108.583 127.861C105.802 123.341 109.063 119.615 111.949 116.332C113.875 114.136 115.862 111.864 115.952 109.571C116.109 105.216 112.923 103.229 111.267 102.502C109.835 104.728 106.964 107.292 101.267 107.607V107.622L100.915 107.637H99.6928V107.607C97.9163 107.509 96.3047 107.179 94.8879 106.647C94.2508 107.097 93.0664 108.079 92.7966 109.316C92.6316 110.065 92.834 110.83 93.4261 111.662C93.9508 112.397 94.4831 113.086 94.9854 113.746L94.708 113.963L94.9929 113.753C97.4441 116.947 99.9702 120.252 97.1966 123.97C96.3047 125.17 95.2776 125.934 94.3782 126.609C92.4668 128.041 91.215 128.978 91.7771 133.655L91.822 134.007L89.116 134.307Z" fill="#DEC685"/>
<path fill-rule="evenodd" clip-rule="evenodd" d="M77.9248 69.3622C76.4555 71.2586 76.433 73.6723 77.8646 75.5163C78.7642 76.6707 80.016 77.3003 81.2603 77.3003C81.7777 77.3003 82.2949 77.1879 82.782 76.9632C84.8659 76.0036 85.3608 75.2241 86.6951 73.1176C87.3622 72.0757 88.2692 70.644 89.7384 68.6125C90.8703 67.0534 92.0772 66.2288 93.3438 66.1764C95.3979 66.1014 97.122 68.0354 97.1368 68.0579L97.9015 67.3908L98.666 66.7236C98.5762 66.6186 96.4247 64.13 93.4863 64.13C93.4188 64.13 93.3513 64.13 93.2764 64.1375C91.3649 64.2125 89.6258 65.3143 88.1117 67.4056C87.0249 68.9049 85.9903 70.4491 85.0009 72.0157C83.7491 73.9871 83.4867 74.3994 81.9425 75.1115C81.013 75.5388 80.0236 74.9916 79.4539 74.2495C78.7868 73.3949 78.457 71.9932 79.5214 70.6215L77.9248 69.3622Z" fill="#DEC685"/>
<path fill-rule="evenodd" clip-rule="evenodd" d="M77.9955 69.8641C76.8411 71.5809 76.886 73.6722 78.1453 75.2914C79.2923 76.7681 81.1287 77.3302 82.628 76.6405C84.6144 75.726 85.0641 75.0215 86.3909 72.9225C87.0581 71.8806 87.9652 70.449 89.4493 68.3951C90.6411 66.7385 91.9456 65.8765 93.3173 65.8163C95.0787 65.7489 96.563 67.0082 97.1401 67.5629L98.1446 66.6859C97.5226 66.0488 95.7459 64.4672 93.4672 64.4672C93.4073 64.4672 93.3473 64.4672 93.2799 64.4747C91.4733 64.5422 89.8315 65.5916 88.3849 67.6005C86.8782 69.6918 85.9562 71.1385 85.2891 72.1881C84.0147 74.1893 83.715 74.6616 82.0808 75.4113C80.9789 75.9134 79.817 75.2914 79.1648 74.4517C78.2878 73.3649 78.2353 71.8282 79.0224 70.6737L77.9955 69.8641ZM81.2563 77.6525C79.8769 77.6525 78.5353 76.948 77.5832 75.726C76.0465 73.7547 76.0766 71.1686 77.6432 69.137L77.8606 68.8523L80.0043 70.5538L79.7946 70.8312C78.8576 72.0381 79.1423 73.2749 79.7271 74.0245C80.2067 74.6468 81.0389 75.1188 81.7885 74.7742C83.2352 74.107 83.4525 73.7547 84.6894 71.8132C85.3641 70.7487 86.2936 69.2945 87.8152 67.1882C89.3969 64.9994 91.2258 63.8525 93.2498 63.77C93.3173 63.7624 93.3922 63.7625 93.4672 63.7625C96.5855 63.7625 98.8268 66.3711 98.9168 66.4835L99.1416 66.7533L97.0802 68.5449L96.8479 68.2825C96.8329 68.2677 95.2663 66.5211 93.4372 66.5211H93.3398C92.1929 66.5735 91.076 67.3382 90.0116 68.8072C88.9547 70.2689 87.9427 71.7682 86.9831 73.2974C85.6415 75.4037 85.0867 76.2733 82.9129 77.2778C82.4031 77.5251 81.8334 77.6525 81.2563 77.6525ZM138.908 152.215C143.87 150.746 146.269 144.652 144.74 137.141L142.761 137.553C143.863 142.942 142.836 149.254 137.993 150.356C133.361 151.413 128.886 147.328 127.117 140.416C126.06 136.279 126.345 132.418 127.911 129.825C128.856 128.258 130.205 127.261 131.914 126.871C133.031 126.601 134.193 126.631 135.295 126.954L135.864 124.99C134.433 124.57 132.919 124.532 131.472 124.87C130.617 125.065 129.8 125.394 129.043 125.852L129.006 125.777C123.459 128.655 117.274 130.087 111.03 129.952L110.993 131.991C111.263 131.998 111.525 131.998 111.795 131.998C116.622 131.998 121.405 131.106 125.85 129.42C124.321 132.441 124.058 136.571 125.168 140.919C126.502 146.121 129.26 149.914 132.596 151.593C128.443 152.372 123.631 152.98 120.31 152.98C115.415 152.98 110.588 152.283 105.97 150.896L105.401 152.852C110.243 154.299 115.266 155.026 120.318 155.019C125.73 155.019 134.47 153.542 138.923 152.223L138.908 152.215Z" fill="#DEC685"/>
<path fill-rule="evenodd" clip-rule="evenodd" d="M105.831 152.635C110.501 153.999 115.366 154.689 120.306 154.689C125.568 154.689 133.979 153.287 138.499 151.998L138.806 151.878C143.566 150.468 145.815 144.741 144.458 137.56L143.176 137.83C144.196 143.302 143.041 149.569 138.071 150.708C133.236 151.803 128.596 147.612 126.775 140.506C125.696 136.286 125.995 132.328 127.607 129.652C128.604 127.995 130.028 126.946 131.835 126.534C132.892 126.286 133.994 126.286 135.051 126.534L135.425 125.252C134.158 124.937 132.824 124.93 131.557 125.229C130.74 125.417 129.953 125.732 129.234 126.166L128.904 126.369L128.851 126.271C123.439 129.015 117.442 130.409 111.378 130.327L111.356 131.661C116.296 131.713 121.13 130.859 125.725 129.105L126.58 128.775L126.168 129.592C124.676 132.538 124.436 136.638 125.508 140.844C126.782 145.806 129.421 149.614 132.757 151.293L133.694 151.765L132.659 151.96C128.004 152.83 123.387 153.354 120.306 153.354C115.531 153.362 110.786 152.687 106.198 151.353L105.831 152.635ZM120.306 155.401C115.224 155.408 110.164 154.674 105.291 153.219L104.954 153.122L105.726 150.483L106.071 150.581C110.651 151.953 115.449 152.65 120.306 152.65C123.087 152.65 127.33 152.193 131.572 151.443C128.462 149.486 126.033 145.761 124.826 141.031C123.784 136.961 123.911 133.108 125.171 130.072C120.621 131.691 115.816 132.471 110.981 132.373L110.629 132.366L110.681 129.615L111.033 129.622C111.288 129.629 111.536 129.629 111.79 129.629C117.757 129.629 123.657 128.198 128.844 125.492L129.159 125.327L129.196 125.394C129.886 125.012 130.628 124.735 131.4 124.562C132.907 124.21 134.481 124.247 135.965 124.682L136.302 124.78L135.538 127.418L135.193 127.313C134.151 127.014 133.049 126.983 131.992 127.231C130.373 127.606 129.106 128.543 128.214 130.027C126.7 132.545 126.423 136.301 127.457 140.341C129.174 147.058 133.484 151.038 137.906 150.026C142.524 148.977 143.476 142.867 142.412 137.635L142.344 137.29L145.013 136.728L145.088 137.081C146.624 144.636 144.315 150.753 139.338 152.455L139.346 152.485L139.016 152.582C134.541 153.917 125.756 155.401 120.306 155.401ZM110.006 84.6162L105.276 82.5997L104.482 82.6072L96.5586 86.0779L97.3607 87.952L104.894 84.6611L109.227 86.5053L110.006 84.6162Z" fill="#DEC685"/>
<path fill-rule="evenodd" clip-rule="evenodd" d="M97.0213 86.258L97.546 87.4797L104.884 84.2716L109.03 86.033L109.539 84.8038L105.199 82.9521L104.555 82.9596L97.0213 86.258ZM97.1713 88.4167L96.0918 85.8906L104.48 82.2551L105.349 82.2476L105.417 82.2776L110.469 84.4289L109.412 86.9625L104.892 85.0436L97.1713 88.4167Z" fill="#DEC685"/>
<path fill-rule="evenodd" clip-rule="evenodd" d="M103.869 88.5067C103.869 89.4362 104.664 90.1934 105.638 90.1934C106.613 90.1934 107.407 89.4362 107.407 88.5067C107.407 87.5772 106.613 86.8201 105.638 86.8201C104.664 86.8201 103.869 87.5848 103.869 88.5067Z" fill="#DEC685"/>
<path fill-rule="evenodd" clip-rule="evenodd" d="M105.641 87.18C104.861 87.18 104.224 87.7796 104.224 88.5143C104.224 89.2489 104.854 89.8486 105.641 89.8486C106.428 89.8486 107.058 89.2489 107.058 88.5143C107.058 87.7796 106.421 87.18 105.641 87.18ZM105.641 90.5458C104.472 90.5458 103.52 89.6311 103.52 88.5067C103.52 87.3824 104.472 86.4679 105.641 86.4679C106.81 86.4679 107.77 87.3824 107.77 88.5067C107.77 89.6311 106.81 90.5458 105.641 90.5458Z" fill="#DEC685"/>
<path fill-rule="evenodd" clip-rule="evenodd" d="M142.359 109.638L125.073 116.579L132.037 94.6534C132.067 94.6534 132.097 94.6609 132.127 94.6609C132.187 94.6609 132.239 94.6459 132.299 94.6459L142.613 108.318C142.434 108.641 142.336 109.001 142.336 109.368C142.336 109.458 142.351 109.548 142.359 109.638ZM88.8748 141.9C89.3095 142.403 89.9467 142.733 90.6738 142.733C90.7263 142.733 90.7787 142.718 90.8311 142.718L100.284 158.692C96.8879 158.024 93.5672 157.005 90.3814 155.641C84.5122 153.129 79.1825 149.524 74.6699 145.011L88.8748 141.9ZM66.0195 115.792C66.162 116.579 66.7167 117.231 67.4737 117.516L71.1393 141.136C68.0059 137.313 65.4572 133.078 63.5383 128.483L62.1816 127.958L61.432 128.31C59.8128 123.565 58.8833 118.61 58.6809 113.596L66.0195 115.792ZM160.851 160.078C154.315 166.712 146.556 172.004 137.996 175.662C129.151 179.455 119.623 181.397 109.998 181.382C100.291 181.382 90.8762 179.455 82.0009 175.662C73.4405 172.004 65.6747 166.705 59.1456 160.078C52.9915 153.864 48.0142 146.585 44.4461 138.595L62.0916 130.252C64.7003 136.166 68.3658 141.556 72.9158 146.143C77.6832 150.978 83.3427 154.846 89.5868 157.515C96.0334 160.273 102.982 161.697 109.991 161.682C114.204 161.682 118.386 161.18 122.412 160.191L121.932 158.212C115.695 159.733 109.226 160.048 102.877 159.134L92.5928 141.743C92.8551 141.368 93.0051 140.926 93.0051 140.469C93.0051 139.217 91.9557 138.197 90.6588 138.197C89.5645 138.197 88.6498 138.932 88.395 139.914L73.4929 143.175L69.4977 117.366C70.1948 116.976 70.6745 116.249 70.6745 115.41C70.6745 114.158 69.6251 113.146 68.3282 113.146C67.6686 113.146 67.0689 113.416 66.6418 113.843L58.6284 111.452C58.6284 111.414 58.2612 111.347 58.2612 111.347H56.6046C56.6046 117.479 57.6166 123.468 59.5955 129.18L52.5117 132.53C50.0681 125.739 48.8238 118.566 48.8313 111.347C48.8313 109.825 48.8837 108.303 48.9886 106.812L46.9723 106.662C46.8597 108.199 46.8073 109.78 46.8073 111.347C46.8073 118.94 48.1042 126.354 50.6677 133.4L43.614 136.736C40.5782 128.618 39.0264 120.02 39.0415 111.347C39.0415 101.655 40.923 92.2546 44.6185 83.4018C48.1717 74.8864 53.3288 67.1431 59.8203 60.5842C66.2668 54.0401 73.9278 48.8155 82.3758 45.2023C91.1085 41.4693 100.501 39.5503 109.998 39.5654C119.578 39.5654 128.873 41.4618 137.621 45.2098C146.069 48.823 153.73 54.0476 160.177 60.5915C166.668 67.1431 171.833 74.8939 175.378 83.4018C179.081 92.2546 180.97 101.752 180.955 111.347C180.955 119.847 179.486 128.153 176.623 136.061L169.329 133.392C171.893 126.324 173.197 118.865 173.19 111.347C173.19 76.1008 144.847 47.4287 110.006 47.4287C105.081 47.4287 100.179 47.9983 95.4262 49.1378L95.8909 51.1242C100.494 50.0297 105.239 49.4676 110.006 49.4676C125.508 49.4676 139.667 55.3443 150.454 64.9842L152.433 81.3106C151.646 81.6778 151.136 82.4648 151.129 83.3344V83.3494L133.371 90.4781C132.996 90.2457 132.569 90.1258 132.127 90.1258C132.044 90.1258 131.969 90.1408 131.894 90.1483L124.151 73.5671C124.503 73.1698 124.698 72.6526 124.706 72.1204C124.706 71.5132 124.451 70.9286 124.008 70.5087L126.932 62.2707C127.959 62.6305 128.986 63.0278 129.99 63.455C136.107 66.0712 141.654 69.8566 146.324 74.6017L147.748 73.1548C142.898 68.2299 137.134 64.2947 130.777 61.5736C126.977 59.9469 122.996 58.7776 118.926 58.0804L118.596 60.0969C120.77 60.4641 122.914 60.989 125.02 61.6486L122.097 69.8867C120.935 70.0216 120.028 70.966 120.028 72.1279C120.028 73.3572 121.048 74.3542 122.307 74.3842L130.155 91.1977C129.923 91.5499 129.795 91.9697 129.788 92.3971C129.788 92.8842 129.953 93.3341 130.222 93.7088L123.109 116.099C121.984 116.264 121.115 117.194 121.115 118.333C121.115 119.585 122.164 120.597 123.461 120.597C124.698 120.597 125.695 119.667 125.785 118.491L143.228 111.489L139.975 128.063C138.963 128.31 138.243 129.202 138.228 130.244C138.228 131.496 139.278 132.508 140.575 132.508C141.849 132.508 142.876 131.526 142.913 130.297L165.664 119.975C166.061 120.29 166.563 120.477 167.118 120.477C168.407 120.477 169.464 119.457 169.464 118.213C169.464 116.961 168.414 115.942 167.118 115.942C165.851 115.942 164.817 116.924 164.779 118.138L142.021 128.468L141.969 128.423L145.282 111.557C146.294 111.309 147.014 110.41 147.028 109.375C147.028 108.124 145.979 107.112 144.682 107.112C144.54 107.112 144.405 107.127 144.27 107.149L134.083 93.6489C134.33 93.289 134.473 92.8694 134.473 92.4046C134.473 92.352 134.458 92.3071 134.458 92.2546L152.096 85.1708C152.486 85.4407 152.958 85.6132 153.475 85.6132C154.764 85.6132 155.821 84.5937 155.821 83.3494C155.821 82.4425 155.259 81.6627 154.464 81.303L152.748 67.1506C164.554 78.8218 171.188 94.7432 171.166 111.347C171.166 118.693 169.914 125.867 167.433 132.695L159.165 129.667L157.283 128.977L156.016 129.517C154.067 133.917 151.496 138.025 148.393 141.706L149.93 143.032C152.958 139.449 155.491 135.476 157.47 131.219L158.475 131.586L175.836 137.95C172.253 146.188 167.17 153.692 160.851 160.078ZM182.979 111.347C182.979 101.385 181.045 91.7149 177.245 82.6073C173.594 73.852 168.28 65.8838 161.608 59.1448C154.974 52.4136 147.096 47.0463 138.416 43.3283C129.435 39.4829 119.773 37.504 110.006 37.519C100.164 37.519 90.5988 39.4754 81.5963 43.3283C72.9083 47.0463 65.0301 52.4136 58.4037 59.1448C51.7322 65.8838 46.4175 73.852 42.767 82.6073C38.9516 91.7074 37.0026 101.482 37.0177 111.347C37.0177 120.552 38.7192 129.555 41.9875 138.07L42.2049 138.512C45.8928 147.088 51.155 154.891 57.7215 161.525C64.4379 168.339 72.4212 173.781 81.2138 177.544C90.3064 181.442 100.104 183.443 109.998 183.428C119.976 183.428 129.66 181.449 138.783 177.544C147.583 173.781 155.559 168.339 162.275 161.525C169.037 154.696 174.419 146.623 178.114 137.755L178.174 137.628C181.36 129.232 182.987 120.327 182.979 111.347Z" fill="#DEC685"/>
<path fill-rule="evenodd" clip-rule="evenodd" d="M132.247 95.1631L125.636 115.972L141.977 109.406V109.368C141.977 109.023 142.052 108.686 142.194 108.356L132.247 95.1631ZM124.511 117.186L131.79 94.2862L132.187 94.3011L132.472 94.2787L143.042 108.289L142.929 108.491C142.779 108.761 142.697 109.061 142.689 109.375C142.689 109.428 142.697 109.473 142.704 109.518L142.742 109.788L142.494 109.968L124.511 117.186ZM62.1673 127.576L63.8089 128.213L63.8688 128.348C65.5929 132.471 67.8494 136.346 70.5928 139.877L67.1597 117.771C66.4551 117.441 65.9302 116.819 65.7278 116.07L59.0565 114.083C59.2963 118.776 60.1659 123.393 61.6426 127.823L62.1673 127.576ZM71.6948 142.365L70.8701 141.361C67.7443 137.545 65.1808 133.303 63.2691 128.76L62.1974 128.34L61.2228 128.798L61.0954 128.423C59.4688 123.64 58.5318 118.656 58.3219 113.611L58.2993 113.109L66.335 115.5L66.3726 115.717C66.485 116.369 66.9573 116.932 67.6019 117.179L67.7967 117.254L71.6948 142.365ZM75.3827 145.214C79.7679 149.479 84.8951 152.905 90.5171 155.311C93.4181 156.555 96.4615 157.515 99.5647 158.182L90.6296 143.077C89.9249 143.07 89.2502 142.785 88.7481 142.283L75.3827 145.214ZM100.989 159.194L100.209 159.036C96.7913 158.362 93.448 157.335 90.2397 155.963C84.3329 153.437 78.9583 149.801 74.4158 145.259L73.9586 144.802L89.0029 141.511L89.1454 141.668C89.5276 142.118 90.0899 142.373 90.6746 142.373L91.0269 142.35L100.989 159.194ZM44.9191 138.775C48.4571 146.601 53.3596 153.729 59.4014 159.831C65.9003 166.427 73.6288 171.697 82.144 175.34C90.9444 179.111 100.427 181.052 109.999 181.03C119.654 181.03 129.031 179.111 137.854 175.34C146.37 171.697 154.098 166.427 160.597 159.831C166.804 153.564 171.803 146.218 175.357 138.153L157.644 131.661C155.672 135.836 153.168 139.734 150.193 143.257L149.96 143.535L147.891 141.743L148.116 141.473C151.197 137.815 153.746 133.745 155.687 129.375L155.747 129.247L157.269 128.595L167.216 132.238C169.607 125.529 170.821 118.468 170.806 111.347C170.806 95.0432 164.57 79.7365 153.221 68.1326L154.788 81.0558C155.635 81.5205 156.174 82.3901 156.174 83.3344C156.174 84.7813 154.96 85.9581 153.476 85.9581C152.974 85.9581 152.486 85.8232 152.059 85.5608L134.833 92.4797C134.818 92.8845 134.713 93.2742 134.519 93.6264L144.428 106.767C144.511 106.759 144.593 106.752 144.683 106.752C146.167 106.752 147.382 107.929 147.382 109.368C147.382 110.477 146.654 111.459 145.59 111.827L142.434 127.891L164.442 117.898C164.615 116.557 165.769 115.567 167.119 115.582C168.61 115.582 169.817 116.759 169.817 118.206C169.817 119.653 168.603 120.822 167.119 120.822C166.586 120.822 166.077 120.672 165.627 120.38L143.259 130.529C143.109 131.833 141.955 132.853 140.583 132.853C139.099 132.853 137.884 131.676 137.884 130.229C137.884 129.12 138.611 128.138 139.676 127.771L142.764 112.044L126.115 118.731C125.913 119.982 124.781 120.934 123.462 120.934C121.978 120.934 120.763 119.757 120.763 118.318C120.763 117.111 121.64 116.054 122.832 115.777L129.833 93.754C129.339 92.9743 129.301 91.9848 129.751 91.1677L122.075 74.7216C120.733 74.5792 119.669 73.4548 119.669 72.1205C119.669 70.8687 120.584 69.8118 121.828 69.5645L124.556 61.8734C122.577 61.2739 120.569 60.7942 118.53 60.4418L118.185 60.3818L118.635 57.6683L118.987 57.7283C123.087 58.4253 127.09 59.6098 130.92 61.2439C137.322 63.9799 143.124 67.9377 148.004 72.9L148.251 73.1475L146.325 75.0964L146.07 74.8415C141.43 70.1341 135.92 66.3712 129.848 63.7775C128.957 63.4026 128.057 63.0504 127.142 62.7206L124.414 70.419C125.209 71.3184 125.276 72.6452 124.564 73.6123L132.105 89.7661C132.554 89.796 132.997 89.871 133.394 90.0809L150.785 83.1022C150.86 82.2775 151.325 81.5504 152.052 81.1157L150.118 65.1643C139.001 55.2696 124.759 49.82 109.999 49.82C105.254 49.82 100.532 50.3748 95.9666 51.4616L95.6218 51.5441L94.9922 48.868L95.3371 48.7856C100.142 47.6387 105.059 47.0614 109.999 47.0614C145.035 47.0614 173.535 75.8984 173.535 111.332C173.535 118.835 172.268 126.174 169.772 133.16L176.398 135.589C179.179 127.801 180.604 119.6 180.596 111.332C180.596 101.692 178.73 92.3372 175.049 83.522C171.511 75.0514 166.376 67.3381 159.922 60.8165C153.506 54.3025 145.882 49.1079 137.479 45.5098C128.799 41.8142 119.444 39.9028 109.999 39.9178C100.472 39.9178 91.2293 41.8069 82.5114 45.5324C74.1084 49.1303 66.485 54.3251 60.0685 60.8316C46.7932 74.2869 39.357 92.4421 39.3946 111.347C39.3946 119.892 40.8862 128.273 43.8171 136.249L50.2338 133.213C47.7227 126.196 46.4483 118.798 46.4558 111.34C46.4558 109.765 46.5083 108.184 46.6206 106.632L46.6432 106.28L49.3642 106.482L49.3417 106.834C49.2368 108.334 49.1844 109.84 49.1844 111.347C49.1844 118.461 50.3687 125.424 52.7148 132.043L59.1614 128.993C57.2349 123.311 56.2455 117.344 56.253 111.347V110.995H58.2695C58.4418 111.017 58.6143 111.062 58.7716 111.13L66.5525 113.453C67.0473 113.034 67.6693 112.801 68.3365 112.801C69.8207 112.801 71.0351 113.978 71.0351 115.425C71.0351 116.272 70.6003 117.066 69.8882 117.554L73.8011 142.755L88.1334 139.614C88.5231 138.542 89.5426 137.838 90.6821 137.845C92.1737 137.845 93.3805 139.022 93.3805 140.469C93.3805 140.919 93.2607 141.361 93.0282 141.758L103.118 158.819C109.497 159.704 115.854 159.351 121.865 157.874L122.21 157.792L122.855 160.461L122.51 160.543C118.417 161.548 114.219 162.05 109.999 162.042C102.87 162.042 95.9591 160.633 89.4526 157.852C83.1636 155.161 77.4667 151.278 72.6692 146.406C68.1717 141.871 64.536 136.563 61.92 130.739L44.9191 138.775ZM109.999 181.742C100.247 181.742 90.7794 179.808 81.8668 175.992C73.2689 172.312 65.4655 166.99 58.899 160.326C52.7148 154.081 47.7151 146.773 44.1321 138.745L43.9896 138.43L62.2797 129.78L62.4222 130.109C65.0083 135.986 68.6588 141.331 73.1713 145.896C77.9013 150.701 83.5308 154.539 89.73 157.192C96.1317 159.936 103.028 161.345 109.999 161.33C114.062 161.33 118.102 160.858 121.993 159.928L121.678 158.632C115.509 160.093 109.115 160.378 102.841 159.479L102.676 159.456L92.1812 141.721L92.3161 141.533C92.5411 141.218 92.661 140.844 92.661 140.461C92.661 139.404 91.7689 138.542 90.667 138.542C89.7676 138.535 88.9804 139.127 88.7406 139.997L88.6881 140.206L73.2014 143.595L69.1012 117.171L69.3184 117.051C69.9256 116.729 70.308 116.099 70.3154 115.41C70.3154 114.353 69.4235 113.498 68.329 113.498C67.7892 113.498 67.272 113.708 66.8898 114.09L66.7398 114.24L58.2695 111.707L58.1945 111.692L56.9577 111.699C56.9876 117.614 57.9921 123.475 59.9261 129.06L60.0309 129.36L52.31 133.01L52.1753 132.643C49.7166 125.807 48.4646 118.603 48.4796 111.34C48.4796 109.938 48.5246 108.521 48.6146 107.127L47.3103 107.029C47.2128 108.461 47.1679 109.9 47.1679 111.332C47.1679 118.873 48.4646 126.256 51.0133 133.265L51.1257 133.565L43.4273 137.208L43.2924 136.848C40.2341 128.708 38.675 120.065 38.69 111.347C38.69 101.61 40.5789 92.1647 44.2969 83.267C47.8649 74.7141 53.0522 66.9257 59.5737 60.3369C66.0503 53.763 73.7487 48.5158 82.2341 44.8876C91.0044 41.1322 100.449 39.1982 109.999 39.2133C119.624 39.2133 128.964 41.1172 137.764 44.8876C146.25 48.5158 153.956 53.763 160.432 60.3444C166.954 66.9333 172.141 74.7141 175.716 83.2745C179.434 92.1722 181.338 101.715 181.316 111.355C181.323 119.825 179.847 128.228 176.961 136.189L176.841 136.526L168.88 133.61L169 133.28C171.549 126.256 172.845 118.835 172.838 111.362C172.838 76.3108 144.653 47.796 110.007 47.796C105.224 47.796 100.464 48.3433 95.8543 49.4152L96.154 50.7121C100.697 49.655 105.344 49.1303 110.007 49.1303C124.991 49.1303 139.436 54.6774 150.695 64.7369L150.792 64.8269L152.816 81.5354L152.591 81.648C151.924 81.9552 151.497 82.6149 151.489 83.3495V83.5895L151.265 83.6943L133.342 90.8905L133.192 90.8005C132.832 90.5831 132.412 90.4481 132.015 90.5081L131.76 90.5457L131.58 90.3207L123.739 73.5298L123.889 73.3574C124.189 73.0201 124.354 72.5928 124.362 72.143C124.362 71.6259 124.144 71.1386 123.777 70.7862L123.612 70.6289L126.73 61.836L127.067 61.9559C128.184 62.3532 129.196 62.7357 130.141 63.1478C136.19 65.7339 141.685 69.4594 146.332 74.1144L147.262 73.1774C142.494 68.395 136.857 64.5796 130.651 61.9261C126.985 60.3593 123.155 59.2125 119.227 58.5153L119.009 59.8346C121.003 60.187 123.057 60.6966 125.126 61.3339L125.478 61.4463L122.36 70.2391L122.135 70.2615C121.138 70.3814 120.381 71.191 120.381 72.1506C120.381 73.1774 121.251 74.0319 122.315 74.0545L122.532 74.062L130.553 91.2502L130.448 91.4152C130.253 91.715 130.141 92.0673 130.141 92.4197C130.141 92.8095 130.268 93.1917 130.508 93.514L130.613 93.664L123.372 116.437L123.155 116.467C122.195 116.609 121.468 117.419 121.468 118.348C121.468 119.405 122.36 120.26 123.462 120.26C124.489 120.26 125.358 119.48 125.433 118.483L125.448 118.266L125.651 118.183L143.701 110.935L140.275 128.37L140.058 128.423C139.203 128.625 138.596 129.382 138.581 130.259C138.581 131.316 139.473 132.171 140.575 132.171C141.64 132.171 142.532 131.331 142.554 130.304L142.562 130.08L165.702 119.578L165.874 119.705C166.226 119.982 166.661 120.132 167.103 120.132C168.198 120.132 169.097 119.278 169.097 118.221C169.097 117.164 168.205 116.309 167.103 116.309C166.024 116.309 165.155 117.119 165.125 118.161L165.117 118.378L164.915 118.468L141.962 128.888L141.587 128.618L141.61 128.363L144.968 111.272L145.185 111.22C146.04 111.017 146.647 110.26 146.662 109.383C146.662 108.334 145.77 107.472 144.676 107.472C144.556 107.472 144.443 107.487 144.323 107.502L144.113 107.539L133.649 93.664L133.791 93.4541C134.001 93.1468 134.121 92.7794 134.121 92.4047C134.114 92.3598 134.106 92.3147 134.106 92.2697L134.091 92.0149L134.324 91.9174L152.141 84.7663L152.299 84.8787C152.644 85.126 153.049 85.2536 153.476 85.2536C154.57 85.2536 155.47 84.3914 155.47 83.342C155.455 82.5925 155.005 81.9178 154.323 81.6179L154.143 81.5354L152.269 66.1763L152.996 66.8959C164.945 78.717 171.519 94.511 171.519 111.347C171.519 118.73 170.252 125.957 167.763 132.815L167.643 133.153L159.375 130.117L159.15 130.739L158.483 130.499L158.708 129.87L157.291 129.345L156.287 129.78C154.375 134.06 151.887 138.055 148.888 141.653L149.885 142.515C152.786 139.022 155.23 135.169 157.141 131.054L157.284 130.761L176.309 137.733L176.159 138.078C172.561 146.361 167.456 153.902 161.099 160.318C154.533 166.982 146.737 172.304 138.131 175.985C129.241 179.8 119.669 181.757 109.999 181.742ZM109.999 37.879C100.202 37.879 90.6896 39.8205 81.7319 43.6584C73.089 47.3538 65.2482 52.706 58.6517 59.3999C52.0028 66.1013 46.7182 74.0319 43.09 82.7423C39.297 91.805 37.3557 101.527 37.3706 111.347C37.3706 120.447 39.0347 129.39 42.318 137.943L42.5204 138.355C46.1935 146.893 51.4331 154.666 57.9695 161.278C64.6561 168.062 72.5942 173.481 81.3495 177.222C90.3972 181.097 100.142 183.091 109.992 183.076C119.924 183.076 129.556 181.104 138.634 177.222C147.389 173.474 155.335 168.062 162.014 161.278C168.745 154.479 174.097 146.451 177.778 137.62L177.845 137.478C181.001 129.127 182.62 120.275 182.613 111.355C182.628 101.535 180.686 91.8125 176.901 82.7498C173.265 74.0394 167.981 66.1088 161.339 59.3999C154.743 52.706 146.902 47.3538 138.259 43.6584C129.339 39.8278 119.722 37.8639 109.999 37.879ZM109.999 183.781C99.9771 183.781 90.2397 181.794 81.0796 177.866C72.2419 174.088 64.2212 168.616 57.4674 161.773C50.8709 155.109 45.5788 147.26 41.8758 138.647L41.6659 138.22C38.36 129.652 36.666 120.537 36.666 111.347C36.666 101.332 38.6075 91.6176 42.4379 82.4649C46.1035 73.6722 51.4331 65.6664 58.142 58.8976C64.8058 52.1362 72.7216 46.7391 81.447 43.0062C90.4721 39.1383 100.187 37.1519 109.999 37.1667C119.886 37.1667 129.496 39.1308 138.551 42.9987C147.277 46.7316 155.192 52.1287 161.856 58.8901C168.565 65.6664 173.895 73.6647 177.568 82.4649C181.391 91.6101 183.355 101.43 183.332 111.347C183.332 120.402 181.713 129.285 178.512 137.748L178.438 137.905C174.727 146.811 169.322 154.914 162.531 161.773C155.785 168.624 147.764 174.088 138.919 177.866C129.781 181.787 119.939 183.803 109.999 183.781Z" fill="#DEC685"/>
<path fill-rule="evenodd" clip-rule="evenodd" d="M157.344 91.1229C160.02 97.5246 161.392 104.406 161.377 111.347H163.401C163.401 104.054 161.991 96.9848 159.21 90.3284L157.344 91.1229Z" fill="#DEC685"/>
<path fill-rule="evenodd" clip-rule="evenodd" d="M161.725 110.995H163.037C163.007 104.061 161.643 97.202 159.012 90.793L157.805 91.3102C160.361 97.5544 161.695 104.241 161.725 110.995ZM163.742 111.699H161.013V111.347C161.028 104.451 159.664 97.6218 157.011 91.2578L156.876 90.9353L159.387 89.8635L159.522 90.1933C162.325 96.8947 163.757 104.091 163.742 111.354V111.699ZM62.5387 144.914L63.3332 145.873C63.4157 145.971 64.1052 146.855 63.2808 147.552C63.1009 147.725 62.861 147.822 62.6136 147.83C62.0739 147.83 61.6392 147.313 61.6317 147.313L60.8371 146.353L62.5387 144.914ZM62.7411 141.593L54.7129 148.384L56.2421 150.236L59.098 147.822L59.8926 148.782C59.945 148.842 61.1143 150.236 62.7411 150.236C63.4682 150.236 64.1654 149.959 64.81 149.411C66.8563 147.68 65.8669 145.379 65.0648 144.412L62.7411 141.593Z" fill="#DEC685"/>
<path fill-rule="evenodd" clip-rule="evenodd" d="M61.3339 146.398L61.9037 147.088C61.9936 147.193 62.3085 147.478 62.6083 147.478C62.6983 147.478 62.8407 147.455 63.0507 147.283C63.5678 146.84 63.2305 146.308 63.058 146.091L62.4959 145.409L61.3339 146.398ZM62.6158 148.19C61.9112 148.19 61.3865 147.568 61.364 147.545L60.3445 146.316L62.5857 144.419L63.6052 145.656C64.1076 146.271 64.2724 147.185 63.5079 147.83C63.2604 148.047 62.9456 148.182 62.6158 148.19ZM59.1451 147.313L60.1646 148.55C60.1797 148.565 61.2589 149.876 62.7357 149.876C63.373 149.876 63.995 149.629 64.5723 149.134C66.4088 147.583 65.5092 145.506 64.7821 144.622L62.6833 142.08L55.2023 148.415L56.2816 149.719L59.1451 147.313ZM56.1993 150.738L54.2129 148.34L62.7808 141.091L65.3368 144.187C66.2214 145.251 67.2934 147.77 65.0371 149.681C64.3248 150.289 63.5528 150.588 62.7432 150.588C60.9218 150.588 59.6324 149.014 59.6249 149.007L59.0628 148.325L56.1993 150.738ZM75.2315 154.044L69.3397 162.814L74.1445 166.113L75.4114 164.216L72.593 162.275L77.2104 155.401L75.2315 154.044Z" fill="#DEC685"/>
<path fill-rule="evenodd" clip-rule="evenodd" d="M69.8394 162.717L74.0597 165.618L74.9366 164.313L72.1107 162.372L76.7281 155.498L75.3339 154.539L69.8394 162.717ZM74.2471 166.607L68.8574 162.904L75.139 153.549L77.7027 155.303L73.0851 162.185L75.9037 164.126L74.2471 166.607ZM91.1654 170.055C91.1579 170.063 90.9106 170.82 90.1459 170.82C89.9736 170.82 89.8012 170.79 89.6362 170.73C88.5269 170.363 88.7517 169.448 88.8043 169.276L91.0155 162.454L88.7441 161.697L86.5405 168.519C86.533 168.549 85.536 171.772 88.9392 172.896C89.4188 173.054 89.876 173.136 90.3109 173.136C92.1849 173.136 93.1744 171.607 93.4367 170.798L95.6406 163.976L93.3693 163.227L91.1654 170.055Z" fill="#DEC685"/>
<path fill-rule="evenodd" clip-rule="evenodd" d="M88.9678 162.155L86.8765 168.631C86.8389 168.751 86.007 171.555 89.0503 172.566C89.4925 172.709 89.9198 172.791 90.3096 172.791C91.9737 172.791 92.8583 171.42 93.0981 170.7L95.1969 164.216L93.6003 163.684L91.5015 170.175C91.2166 170.955 90.3545 171.36 89.5675 171.075C89.56 171.067 89.5451 171.067 89.5376 171.06C88.3531 170.67 88.3157 169.681 88.4732 169.163L90.572 162.672L88.9678 162.155ZM90.3096 173.496C89.8373 173.496 89.3352 173.406 88.8253 173.241C85.0775 172.004 86.1868 168.451 86.2018 168.414L88.5181 161.255L91.4641 162.23L89.1478 169.381C89.0804 169.598 88.9979 170.138 89.7548 170.393C89.8823 170.438 90.0172 170.46 90.1521 170.468C90.6244 170.468 90.8044 170.01 90.8343 169.943L93.1505 162.792L96.0965 163.766L93.7803 170.917C93.4804 171.809 92.386 173.496 90.3096 173.496ZM105.122 167.972L107.543 168.046L107.288 176.337L109.679 176.412L109.934 168.114L112.37 168.189L112.445 165.903L105.189 165.678L105.122 167.972Z" fill="#DEC685"/>
<path fill-rule="evenodd" clip-rule="evenodd" d="M107.651 176L109.331 176.052L109.585 167.754L112.021 167.829L112.074 166.255L105.53 166.045L105.485 167.627L107.906 167.702L107.651 176ZM110.02 176.787L106.924 176.689L107.179 168.399L104.758 168.324L104.848 165.333L112.816 165.58L112.719 168.571L110.282 168.496L110.02 176.787ZM127.508 171.982C127.366 172.019 127.216 172.042 127.073 172.049C126.286 172.049 126.054 171.307 126.031 171.225L125.072 167.574C125.072 167.567 125.005 167.289 125.08 166.982C125.177 166.57 125.477 166.3 125.987 166.165C126.129 166.128 126.279 166.105 126.429 166.105C127.216 166.105 127.448 166.847 127.471 166.93L128.43 170.58C128.46 170.753 128.633 171.682 127.508 171.982ZM129.772 166.3C129.547 165.43 128.58 163.781 126.571 163.781C126.174 163.789 125.784 163.841 125.402 163.946C123.595 164.426 122.973 165.565 122.763 166.427C122.538 167.349 122.748 168.151 122.756 168.181L123.715 171.839C123.94 172.709 124.907 174.358 126.916 174.358C127.283 174.358 127.673 174.306 128.085 174.193C131.556 173.264 130.739 169.988 130.731 169.958L129.772 166.3Z" fill="#DEC685"/>
<path fill-rule="evenodd" clip-rule="evenodd" d="M126.422 166.45C126.302 166.45 126.189 166.465 126.069 166.503C125.575 166.638 125.462 166.87 125.417 167.057C125.365 167.275 125.41 167.485 125.41 167.485L126.369 171.135C126.399 171.24 126.617 171.847 127.419 171.645C128.153 171.45 128.146 170.948 128.078 170.663L127.127 167.012C127.104 166.952 126.954 166.45 126.422 166.45ZM127.066 172.402C126.264 172.402 125.822 171.817 125.68 171.315L124.72 167.657C124.713 167.635 124.63 167.282 124.728 166.892C124.863 166.353 125.252 165.993 125.89 165.82C126.062 165.776 126.242 165.745 126.422 165.745C127.284 165.745 127.696 166.428 127.809 166.832L128.761 170.483C128.925 171.15 128.716 172.027 127.599 172.319C127.426 172.372 127.246 172.394 127.066 172.402ZM126.572 164.134C126.234 164.134 125.867 164.186 125.492 164.284C123.858 164.726 123.296 165.73 123.109 166.503C122.906 167.342 123.094 168.077 123.094 168.084L124.053 171.742C124.256 172.522 125.118 173.999 126.909 173.999C127.246 173.999 127.614 173.946 127.989 173.841C131.084 173.009 130.417 170.153 130.38 170.033L129.42 166.383C129.225 165.611 128.363 164.134 126.572 164.134ZM126.909 174.711C124.69 174.711 123.626 172.889 123.371 171.93L122.412 168.272C122.262 167.635 122.269 166.975 122.419 166.345C122.651 165.386 123.334 164.134 125.312 163.609C125.747 163.489 126.174 163.429 126.579 163.429C128.805 163.429 129.87 165.251 130.117 166.21L131.077 169.868C131.392 171.128 131.197 173.729 128.176 174.538C127.741 174.651 127.314 174.711 126.909 174.711ZM142.995 156.256L145.664 160.663L140.754 157.642L138.843 158.827L144.315 167.859L146.354 166.6L143.685 162.192L148.595 165.213L150.506 164.029L145.034 154.989L142.995 156.256Z" fill="#DEC685"/>
<path fill-rule="evenodd" clip-rule="evenodd" d="M139.334 158.939L144.439 167.372L145.878 166.487L142.632 161.128L148.599 164.801L150.023 163.916L144.919 155.483L143.479 156.368L146.725 161.727L140.758 158.054L139.334 158.939ZM144.207 168.354L138.367 158.707L140.758 157.222L144.604 159.591L142.512 156.135L145.151 154.501L150.99 164.149L148.599 165.633L144.754 163.264L146.845 166.72L144.207 168.354ZM155.42 145.461C153.981 147.103 153.899 148.999 155.211 150.176C155.608 150.536 156.148 150.716 156.8 150.716C157.699 150.716 158.719 150.386 159.618 150.086C160.338 149.854 161.013 149.629 161.455 149.629C161.56 149.629 161.71 149.644 161.785 149.704C162.279 150.146 161.612 150.941 161.59 150.971L159.716 153.107L161.395 154.614L163.269 152.47C164.056 151.57 164.461 150.558 164.401 149.621C164.356 148.902 164.026 148.227 163.479 147.755C163.081 147.395 162.549 147.215 161.897 147.215C160.997 147.215 159.97 147.553 159.071 147.845C158.351 148.085 157.669 148.302 157.227 148.302C157.122 148.302 156.972 148.287 156.897 148.22C156.41 147.777 157.085 146.99 157.114 146.953L158.973 144.824L157.279 143.31L155.42 145.461Z" fill="#DEC685"/>
<path fill-rule="evenodd" clip-rule="evenodd" d="M160.207 153.092L161.362 154.126L162.996 152.252C163.723 151.42 164.098 150.506 164.045 149.659C164.008 149.029 163.715 148.445 163.243 148.032C162.913 147.732 162.456 147.583 161.894 147.583C161.054 147.583 160.057 147.912 159.18 148.197C158.063 148.564 157.044 148.849 156.654 148.504C156.115 148.017 156.392 147.275 156.834 146.743L158.476 144.869L157.306 143.827L155.68 145.686C154.383 147.17 154.278 148.864 155.432 149.899C155.77 150.198 156.219 150.348 156.789 150.348C157.629 150.348 158.618 150.026 159.488 149.741C160.605 149.374 161.617 149.089 162.006 149.434C162.554 149.921 162.261 150.686 161.849 151.188L160.207 153.092ZM161.429 155.131L159.218 153.152L161.324 150.746C161.437 150.611 161.729 150.169 161.564 149.989C161.564 149.996 161.527 149.989 161.459 149.989C161.069 149.989 160.387 150.206 159.728 150.423C158.798 150.731 157.756 151.068 156.804 151.068C156.062 151.068 155.447 150.858 154.975 150.438C153.506 149.119 153.581 147.028 155.155 145.229L157.254 142.83L159.473 144.816L157.381 147.208C157.261 147.35 156.962 147.792 157.119 147.972C157.126 147.965 157.164 147.972 157.224 147.972C157.621 147.972 158.296 147.747 158.963 147.53C159.893 147.223 160.942 146.878 161.901 146.878C162.643 146.878 163.258 147.088 163.723 147.508C164.353 148.07 164.712 148.804 164.757 149.614C164.817 150.641 164.383 151.743 163.536 152.71L161.429 155.131Z" fill="#DEC685"/>
</g>
<defs>
<clipPath id="clip0_4_4381">
<rect width="220" height="220" fill="white" transform="translate(0 0.5)"/>
</clipPath>
</defs>
</svg>
