<svg width="220" height="221" viewBox="0 0 220 221" fill="none" xmlns="http://www.w3.org/2000/svg">
<g clip-path="url(#clip0_4_4405)">
<path d="M110 220.5C170.751 220.5 220 171.251 220 110.5C220 49.7487 170.751 0.5 110 0.5C49.2487 0.5 0 49.7487 0 110.5C0 171.251 49.2487 220.5 110 220.5Z" fill="#EDF0F4"/>
<path d="M140.893 37.6815H81.6758V96.8987H140.893V37.6815Z" fill="white"/>
<path fill-rule="evenodd" clip-rule="evenodd" d="M51.7344 168.721L168.308 52.1476C183.281 67.0365 192.502 87.678 192.502 110.35C192.502 133.191 183.281 153.832 168.308 168.721C136.161 136.574 83.9655 136.574 51.7344 168.721ZM115.943 192.747C117.973 192.577 119.918 192.324 121.864 192.071L121.865 192.069C119.919 192.324 117.889 192.577 115.943 192.747Z" fill="#D95E59"/>
<path fill-rule="evenodd" clip-rule="evenodd" d="M166.855 50.7154C166.977 50.8281 167.096 50.9379 167.206 51.0477C167.316 51.1576 167.434 51.2674 167.556 51.3801C167.81 51.6146 168.077 51.8617 168.306 52.1476L51.5629 168.89C40.7347 158.062 32.8671 144.273 29.3988 128.792C29.3564 128.538 29.293 128.263 29.2296 127.988C29.1661 127.713 29.1027 127.438 29.0604 127.184C29.018 126.888 28.9546 126.571 28.8911 126.254C28.8277 125.936 28.7643 125.619 28.7219 125.323V125.069C28.6796 124.816 28.6374 124.541 28.595 124.266C28.5527 123.991 28.5105 123.716 28.4682 123.462C28.4682 123.377 28.4469 123.293 28.4258 123.208C28.4048 123.124 28.3835 123.039 28.3835 122.954C28.3413 122.785 28.32 122.595 28.299 122.405C28.2779 122.214 28.2566 122.024 28.2145 121.855C28.1721 121.643 28.1508 121.432 28.1298 121.22C28.1087 121.009 28.0874 120.797 28.0452 120.586V120.416C28.0044 120.09 27.9833 119.784 27.9629 119.487C27.9409 119.169 27.9198 118.862 27.876 118.555C27.7913 117.963 27.7068 117.286 27.7068 116.694C27.7068 116.345 27.6843 116.018 27.6624 115.701C27.6419 115.406 27.6223 115.119 27.6223 114.833C27.5376 114.326 27.5376 113.903 27.5376 113.395C27.5376 112.894 27.5284 112.383 27.5191 111.866C27.5002 110.814 27.4809 109.736 27.5376 108.658V107.389C27.579 106.934 27.6001 106.479 27.6208 106.035C27.6425 105.569 27.6635 105.114 27.7068 104.682C27.7492 104.174 27.7913 103.688 27.8337 103.201C27.876 102.715 27.9184 102.228 27.9605 101.721C28.0452 100.706 28.1297 99.7752 28.299 98.7599C28.3413 98.4216 28.4048 98.1043 28.4682 97.7871C28.5316 97.4698 28.5951 97.1526 28.6374 96.8142C28.7219 96.1375 28.8066 95.5453 28.9757 94.8684C29.018 94.5724 29.0814 94.2975 29.1449 94.0225C29.2083 93.7475 29.2717 93.4727 29.3141 93.1766C29.3511 93.0654 29.372 92.9704 29.3909 92.8844C29.4149 92.7744 29.4358 92.6794 29.4833 92.5845C29.5257 92.3729 29.5678 92.1826 29.6102 91.9923C29.6525 91.8018 29.6949 91.6115 29.737 91.4001C29.737 91.1462 29.8217 90.8925 29.9063 90.6388C29.991 90.3848 30.0544 90.1311 30.1178 89.8774C30.1813 89.6236 30.2447 89.3697 30.3292 89.116C30.4139 89.0313 30.4139 88.9468 30.4139 88.8623C30.4984 88.3546 30.6676 87.7624 30.8369 87.2548C30.8792 87.1703 30.9003 87.0858 30.9214 87.0011C30.9426 86.9165 30.9637 86.8318 31.0061 86.7473C31.0906 86.5358 31.154 86.3244 31.2175 86.1128C31.2811 85.9012 31.3445 85.6899 31.429 85.4783C31.4714 85.3514 31.5135 85.2035 31.5559 85.0553C31.5982 84.9074 31.6406 84.7593 31.6828 84.6324C31.7251 84.4632 31.7885 84.294 31.852 84.1247C31.9154 83.9555 31.9788 83.7865 32.0212 83.6173L32.5288 82.0945C32.7826 81.4176 33.0363 80.8255 33.3747 80.1488C33.5863 79.6835 33.7766 79.2182 33.9669 78.7529C34.1572 78.2876 34.3475 77.8225 34.5591 77.3572C34.7706 76.8919 34.982 76.4477 35.1936 76.0036C35.405 75.5594 35.6165 75.1154 35.8281 74.6501L36.5893 73.1273L37.3507 71.6045C45.049 57.2233 56.8924 45.3798 71.2738 37.6815L72.7965 36.9203L74.3193 36.1589C75.1652 35.7359 76.0956 35.313 77.0262 34.89C77.9566 34.4671 78.8874 34.044 79.818 33.7055C80.4102 33.4518 81.0024 33.1979 81.679 33.0288C81.9751 32.9441 82.2501 32.8383 82.5251 32.7327C82.7999 32.627 83.0749 32.5212 83.371 32.4367C83.4163 32.4139 83.4555 32.3912 83.492 32.3703C83.5916 32.3127 83.6702 32.2674 83.794 32.2674C84.2169 32.0982 84.7246 31.929 85.232 31.7598C85.3589 31.7175 85.4649 31.6753 85.5705 31.6329C85.6763 31.5906 85.782 31.5484 85.9089 31.5061C86.0525 31.4701 86.1962 31.419 86.3462 31.3654C86.5498 31.293 86.7653 31.2164 87.0087 31.1676L88.0238 30.9139C88.2776 30.8292 88.5313 30.7447 88.7005 30.7447C89.1237 30.5755 89.4619 30.491 89.8849 30.4063C90.308 30.3217 90.6462 30.237 90.9847 30.1525C91.1416 30.1003 91.2984 30.0803 91.5151 30.0526C91.6491 30.0356 91.806 30.0156 91.9998 29.9833C92.2801 29.9833 92.5025 29.9252 92.7628 29.8572C92.8167 29.8432 92.8723 29.8286 92.9304 29.8141C93.438 29.6449 93.9455 29.5604 94.4532 29.4757C94.7916 29.4335 95.1088 29.3701 95.4259 29.3066C95.7433 29.2432 96.0604 29.1796 96.3989 29.1374C96.695 29.0951 96.9698 29.0527 97.2448 29.0105C97.5198 28.9682 97.7946 28.9258 98.0907 28.8835C98.2177 28.8835 98.3446 28.8624 98.4715 28.8413C98.5983 28.8201 98.7252 28.799 98.8521 28.799C99.106 28.7566 99.3386 28.7355 99.5713 28.7145C99.8037 28.6932 100.036 28.6721 100.29 28.6298C100.691 28.5154 101.129 28.4783 101.581 28.4402C101.797 28.422 102.017 28.4033 102.236 28.376C102.828 28.2913 103.505 28.2068 104.097 28.2068C104.393 28.2068 104.689 28.1857 104.985 28.1645C105.281 28.1434 105.577 28.1223 105.874 28.1223C106.381 28.0376 106.804 28.0376 107.312 28.0376C107.813 28.0376 108.324 28.0284 108.841 28.0191C109.893 28.0002 110.971 27.9809 112.049 28.0376H113.318C113.773 28.079 114.227 28.1001 114.672 28.1208C115.138 28.1425 115.593 28.1635 116.025 28.2068C116.533 28.2491 117.019 28.2913 117.505 28.3337C117.992 28.376 118.478 28.4184 118.986 28.4605C120.001 28.5452 120.932 28.6297 121.947 28.799C122.37 28.8835 122.793 28.9682 123.3 29.0527C126.938 29.6449 130.491 30.4909 133.959 31.5061C134.213 31.5906 134.446 31.654 134.679 31.7175C134.911 31.7811 135.144 31.8445 135.398 31.929C135.821 32.0559 136.223 32.204 136.624 32.352C137.026 32.5001 137.428 32.6481 137.851 32.7749C139.543 33.3671 141.319 34.044 143.011 34.8053C144.196 35.3128 145.465 35.905 146.649 36.4971C146.945 36.6663 147.241 36.8145 147.537 36.9624C147.833 37.1106 148.129 37.2585 148.425 37.4277C150.202 38.3583 151.978 39.3735 153.755 40.4733C153.951 40.6036 154.159 40.734 154.374 40.8691C154.719 41.0849 155.083 41.3129 155.447 41.5729C155.763 41.792 156.087 42.0111 156.413 42.232C157.221 42.7794 158.047 43.3391 158.831 43.9417C159.677 44.5339 160.438 45.1261 161.284 45.8028L162.807 47.0718C162.891 47.1563 162.997 47.2408 163.103 47.3255C163.209 47.41 163.314 47.4947 163.399 47.5793C164.33 48.3406 165.26 49.102 166.106 49.9479C166.334 50.2337 166.602 50.4807 166.855 50.7154ZM95.3838 81.2486C103.505 89.3697 116.533 89.3697 124.485 81.2486C132.521 73.2965 132.437 60.1842 124.485 52.1476C116.533 44.1108 103.42 44.1955 95.3838 52.1476C87.347 60.0995 87.347 73.2118 95.3838 81.2486Z" fill="#FF6666"/>
<path d="M168.308 168.805C161.794 175.319 154.18 180.734 145.805 184.794C144.029 185.641 142.168 186.486 140.307 187.163C139.714 187.417 139.038 187.67 138.445 187.839C137.938 188.01 137.43 188.178 137.007 188.347C136.669 188.431 136.331 188.602 135.992 188.686C135.738 188.77 135.4 188.855 135.146 188.939C134.723 189.108 134.3 189.194 133.877 189.363C133.708 189.447 133.539 189.447 133.37 189.531C132.862 189.7 132.27 189.87 131.762 189.955C131.678 189.955 131.593 189.955 131.509 190.039C131.001 190.208 130.493 190.292 129.986 190.463C129.732 190.547 129.478 190.631 129.224 190.631C128.801 190.716 128.463 190.8 128.04 190.884C127.871 190.97 127.702 190.97 127.448 191.055C126.856 191.139 126.348 191.308 125.756 191.392C125.079 191.563 124.487 191.647 123.81 191.731C123.134 191.816 122.541 191.984 121.865 192.069C119.919 192.323 117.973 192.576 115.943 192.747C115.097 192.831 114.166 192.831 113.236 192.916C112.813 192.916 112.39 192.916 111.967 192.916C110.36 193 108.752 192.916 107.23 192.916C106.722 192.916 106.299 192.916 105.791 192.831C105.199 192.831 104.607 192.747 103.93 192.747C103.338 192.747 102.661 192.661 102.069 192.576C101.477 192.492 100.885 192.492 100.208 192.408C100.123 192.408 100.123 192.408 100.039 192.408C99.6159 192.323 99.1928 192.323 98.7698 192.239C98.4314 192.155 98.0084 192.155 97.6702 192.069C97.501 192.069 97.3318 191.984 97.1625 191.984C96.6549 191.9 96.0627 191.816 95.5553 191.731C95.4706 191.731 95.386 191.731 95.3013 191.731C94.7092 191.647 94.0325 191.476 93.4403 191.392C77.3671 188.094 62.901 180.141 51.7344 168.89C83.9655 136.574 136.077 136.574 168.308 168.805Z" fill="#FFF4C7"/>
<path d="M102.741 59.4228C98.6802 63.4835 98.6802 69.9973 102.741 74.0579C106.801 78.1186 113.315 78.1186 117.376 74.0579C121.437 69.9973 121.437 63.4835 117.376 59.4228C113.231 55.3622 106.717 55.3622 102.741 59.4228Z" fill="#016273"/>
</g>
<defs>
<clipPath id="clip0_4_4405">
<rect width="220" height="220" fill="white" transform="translate(0 0.5)"/>
</clipPath>
</defs>
</svg>
