<svg width="220" height="221" viewBox="0 0 220 221" fill="none" xmlns="http://www.w3.org/2000/svg">
<g clip-path="url(#clip0_4_4412)">
<path d="M110 220.5C170.751 220.5 220 171.251 220 110.5C220 49.7487 170.751 0.5 110 0.5C49.2487 0.5 0 49.7487 0 110.5C0 171.251 49.2487 220.5 110 220.5Z" fill="#EDF0F4"/>
<path d="M192.5 110.5C192.5 156.07 155.57 193 110 193C64.4303 193 27.5 156.07 27.5 110.5C27.5 64.9303 64.4303 28 110 28C155.57 28 192.5 64.9303 192.5 110.5Z" fill="#393534"/>
<path d="M182.906 111.208C182.906 151.077 150.579 183.404 110.71 183.404C70.841 183.404 38.5137 151.077 38.5137 111.208C38.5137 71.3388 70.841 39.0115 110.71 39.0115C150.579 39.0115 182.906 71.3388 182.906 111.208Z" fill="#F2F2F2"/>
<path d="M138.019 90.4184L86.182 143.424L85.0488 122.073L116.314 90.4184L129.273 76.9636L137.665 74.2017L143.755 75.795L149.455 80.5397L142.587 88.4357L138.019 90.4184Z" fill="white"/>
<path d="M142.726 91.9012L132.352 102.595H148.073L149.843 100.789C151.082 99.514 152.074 97.956 152.746 96.2919C153.419 94.5924 153.738 92.7865 153.738 90.9807C153.738 87.369 152.392 83.9347 149.985 81.3145L142.832 88.7501C143.222 89.1749 143.399 89.7768 143.399 90.3434C143.363 90.9099 143.115 91.4764 142.726 91.9012Z" fill="#E1DED9"/>
<path d="M100.101 136.903L91.6387 145.684H107.36L115.893 136.903H100.101Z" fill="#E1DED9"/>
<path d="M104.35 132.449H120.071L129.454 122.712H113.733L104.35 132.449Z" fill="#E1DED9"/>
<path d="M143.791 107.841H128.07L118.014 118.215H133.735L143.791 107.841Z" fill="#E1DED9"/>
<path fill-rule="evenodd" clip-rule="evenodd" d="M143.287 73.4992C145.411 74.4197 147.359 75.7652 148.987 77.4648C150.616 79.1643 151.926 81.1471 152.74 83.4487C153.626 85.6439 154.086 88.0162 154.051 90.4239C154.086 95.2394 152.245 99.8779 148.952 103.312L148.881 103.383L108.41 145.306C108.233 145.518 107.985 145.731 107.737 145.837C107.454 145.979 107.171 146.014 106.888 146.014H86.0678L77.747 154.618H71.5859L82.8103 142.898V121.229C82.7748 120.627 83.0226 120.025 83.4122 119.565L124.131 77.5002C125.76 75.8005 127.707 74.4197 129.832 73.4992C131.956 72.5785 134.258 72.1183 136.559 72.1183C138.861 72.1183 141.162 72.5785 143.287 73.4992ZM127.105 80.5452L125.335 82.351V98.8864L135.78 88.0516C136.17 87.6622 136.736 87.4143 137.303 87.4143C137.869 87.4143 138.436 87.6268 138.825 88.0516C138.825 88.1226 138.825 88.1226 138.896 88.1933C139.286 88.6183 139.463 89.1848 139.463 89.7513C139.463 90.3178 139.215 90.8843 138.825 91.2739L128.522 101.967H144.243L146.013 100.161C148.492 97.5763 149.873 94.1064 149.908 90.4593C149.908 86.8125 148.562 83.3071 146.155 80.6869C146.111 80.6869 146.094 80.6598 146.071 80.6224C146.057 80.5993 146.04 80.5723 146.013 80.5452C143.499 77.9604 140.1 76.5088 136.559 76.5088C133.018 76.5088 129.619 77.9604 127.105 80.5452ZM90.3521 141.517L98.8146 132.736H114.536L106.073 141.517H90.3521ZM125.087 105.472L115.031 115.918H130.752L140.808 105.472H125.087ZM127.318 119.458L117.935 129.195H102.214L111.597 119.458H127.318ZM121.9 85.8564L111.845 96.3016V112.837L121.9 102.392V85.8564ZM99.0271 109.58L108.41 99.8425V116.378L99.0271 126.115V109.58ZM95.6633 113.156L87.0593 122.008V138.543L95.6633 129.691V113.156Z" fill="#393534"/>
</g>
<defs>
<clipPath id="clip0_4_4412">
<rect width="220" height="220" fill="white" transform="translate(0 0.5)"/>
</clipPath>
</defs>
</svg>
