<svg width="220" height="221" viewBox="0 0 220 221" fill="none" xmlns="http://www.w3.org/2000/svg">
<g clip-path="url(#clip0_4_4422)">
<path d="M110 220.5C170.751 220.5 220 171.251 220 110.5C220 49.7487 170.751 0.5 110 0.5C49.2487 0.5 0 49.7487 0 110.5C0 171.251 49.2487 220.5 110 220.5Z" fill="#2C3E50"/>
<path fill-rule="evenodd" clip-rule="evenodd" d="M175.534 157.238V150.369C175.534 149.009 174.619 148.102 173.228 148.102H168.649V141.206C168.649 139.839 167.733 138.912 166.37 138.912H161.784V88.46H166.342C167.713 88.46 168.649 87.5535 168.649 86.1658V79.297H173.228C174.344 79.3438 175.32 78.5549 175.507 77.4562C175.741 76.3159 175.28 75.4093 174.371 74.9284L110.213 42.837C109.548 42.6098 108.826 42.6098 108.161 42.837L41.7042 74.9284C40.8079 75.4151 40.3421 76.4343 40.5611 77.4287C40.5611 78.5963 41.4769 79.297 42.613 79.297H49.4983V86.1658C49.4983 87.526 50.414 88.4325 51.7775 88.4325H56.363V138.912H51.805C50.428 138.912 49.4983 139.819 49.4983 141.179V148.075H44.9197C43.5425 148.075 42.6337 148.982 42.6337 150.349V157.238C41.2705 157.238 40.334 158.152 40.334 159.539C40.334 160.927 41.2428 161.833 42.613 161.833H175.534C176.898 161.833 177.834 160.927 177.834 159.567C177.834 158.193 176.925 157.238 175.562 157.238H175.534ZM54.0565 83.8648V79.297H164.043V83.8648H54.0565ZM147.993 138.912V88.467V88.46H138.849V138.912H147.993ZM125.079 88.467V138.912H115.914V88.46H125.072L125.079 88.467ZM102.164 138.912V88.467V88.46H93.0205V138.912H102.164ZM79.2498 88.467V138.912H70.113V88.46H79.2498V88.467ZM54.084 148.075H164.043H164.063V143.48H54.084V148.075Z" fill="white"/>
</g>
<defs>
<clipPath id="clip0_4_4422">
<rect width="220" height="220" fill="white" transform="translate(0 0.5)"/>
</clipPath>
</defs>
</svg>
