<svg width="220" height="221" viewBox="0 0 220 221" fill="none" xmlns="http://www.w3.org/2000/svg">
<g clip-path="url(#clip0_4_4429)">
<path d="M110 0.5C170.742 0.5 220 49.758 220 110.5C220 171.242 170.742 220.5 110 220.5C49.258 220.5 0 171.242 0 110.5C0 49.758 49.258 0.5 110 0.5Z" fill="#FFCCD5"/>
<path fill-rule="evenodd" clip-rule="evenodd" d="M129.976 55.786C141.548 55.786 151.14 59.592 158.664 67.204C166.232 74.816 170.038 84.452 170.038 96.112C170.038 107.816 166.232 117.43 158.708 125.042C151.184 132.654 141.592 136.46 130.02 136.46H108.306V167.392H82.5V150.474C92.862 147.196 100.364 137.494 100.364 126.054C100.364 114.614 92.862 104.912 82.5 101.634V85.684V55.786H129.976ZM125.972 115.472C131.208 115.472 135.476 113.646 138.82 110.038C142.164 106.43 143.858 101.81 143.836 96.178C143.836 90.546 142.164 85.926 138.82 82.318C135.454 78.71 131.164 76.884 125.972 76.884H108.262V115.472H125.972Z" fill="black"/>
<path d="M69.1668 144.952C79.5068 144.952 87.8668 136.57 87.8668 126.252C87.8668 115.912 79.4848 107.552 69.1668 107.552C58.8488 107.552 50.4668 115.934 50.4668 126.252C50.4668 136.592 58.8488 144.952 69.1668 144.952Z" fill="#FF3465"/>
</g>
<defs>
<clipPath id="clip0_4_4429">
<rect width="220" height="220" fill="white" transform="translate(0 0.5)"/>
</clipPath>
</defs>
</svg>
