<svg width="220" height="221" viewBox="0 0 220 221" fill="none" xmlns="http://www.w3.org/2000/svg">
<g clip-path="url(#clip0_4_4425)">
<path d="M110 220.5C170.751 220.5 220 171.251 220 110.5C220 49.7487 170.751 0.5 110 0.5C49.2487 0.5 0 49.7487 0 110.5C0 171.251 49.2487 220.5 110 220.5Z" fill="#EDF0F4"/>
<path d="M110.473 37.1666C79.8875 37.2895 55.1228 62.0541 55 92.6398C55 98.7652 55.9887 104.85 57.9253 110.659C59.3703 114.614 63.6585 116.743 67.6836 115.521C71.5741 114.029 73.6393 109.776 72.3991 105.797C70.7551 101.269 70.0238 96.466 70.2401 91.657C70.9071 69.566 89.3534 52.1963 111.444 52.8633C133.535 53.53 150.905 71.9763 150.238 94.0672C149.612 114.748 133.325 131.545 112.667 132.803C112.667 132.803 104.88 133.277 101.007 133.75C99.5799 133.955 98.164 134.236 96.7657 134.593C96.5668 134.798 96.2451 134.798 96.0403 134.599L96.0346 134.593C95.8941 134.412 95.8941 134.154 96.0346 133.973L97.2396 127.397L104.553 94.5061C105.43 90.3991 102.815 86.3566 98.7081 85.479C94.6011 84.6014 90.5586 87.2166 89.681 91.3235C89.681 91.3235 72.2878 171.83 72.2878 172.562C71.2932 176.476 73.6569 180.454 77.5707 181.448C77.6116 181.46 77.6585 181.472 77.6994 181.478H78.1031C82.0112 182.49 86.0011 180.138 87.0074 176.23C87.0248 176.166 87.0424 176.101 87.0542 176.031C87.0424 175.908 87.0424 175.785 87.0542 175.668C87.2707 174.721 89.4645 164.009 89.4645 164.009C91.126 155.923 97.6433 149.728 105.799 148.476C107.478 148.218 114.533 147.744 114.533 147.744C145.002 144.708 167.239 117.545 164.197 87.0762C161.424 59.2869 138.403 37.8921 110.473 37.1666Z" fill="#1E1E1E"/>
<path d="M113.837 165.073C108.835 164.032 103.944 167.244 102.902 172.24C102.891 172.287 102.885 172.334 102.873 172.381C101.791 177.348 104.938 182.256 109.911 183.338C109.917 183.338 109.923 183.338 109.929 183.344H110.186C115.054 184.521 119.95 181.525 121.121 176.663C121.132 176.628 121.138 176.587 121.15 176.552V176.043C122.01 171.023 118.804 166.208 113.837 165.073Z" fill="#E6007A"/>
</g>
<defs>
<clipPath id="clip0_4_4425">
<rect width="220" height="220" fill="white" transform="translate(0 0.5)"/>
</clipPath>
</defs>
</svg>
