<svg width="220" height="221" viewBox="0 0 220 221" fill="none" xmlns="http://www.w3.org/2000/svg">
<g clip-path="url(#clip0_4_4496)">
<path d="M110 220.5C170.751 220.5 220 171.251 220 110.5C220 49.7487 170.751 0.5 110 0.5C49.2487 0.5 0 49.7487 0 110.5C0 171.251 49.2487 220.5 110 220.5Z" fill="#EDF0F4"/>
<path d="M66.9853 85.4084H121.998C130.23 85.4084 136.928 92.1063 136.928 100.339C136.928 108.572 130.23 115.27 121.998 115.27H92.2309C89.8831 115.27 87.9799 117.173 87.9799 119.521C87.9799 121.869 89.8831 123.772 92.2309 123.772H121.997C134.917 123.772 145.429 113.261 145.429 100.339C145.429 87.417 134.917 76.9065 121.997 76.9065H66.9853C64.6376 76.9065 62.7344 78.8097 62.7344 81.1574C62.7344 83.5052 64.6376 85.4084 66.9853 85.4084Z" fill="#8500FF"/>
<path d="M121.993 57.3334H100.655C98.3071 57.3334 96.4039 59.2366 96.4039 61.5843C96.4039 63.9321 98.3071 65.8353 100.655 65.8353H121.993C141.018 65.8353 156.495 81.3136 156.495 100.339C156.495 119.365 141.017 134.844 121.991 134.844H67.7929C66.263 134.826 64.8418 135.632 64.0716 136.955C63.3016 138.277 63.3016 139.911 64.0716 141.233C64.8418 142.555 66.263 143.361 67.7929 143.344H121.991C145.705 143.344 164.997 124.052 164.997 100.338C164.997 76.6243 145.706 57.3334 121.993 57.3334Z" fill="#8500FF"/>
<path fill-rule="evenodd" clip-rule="evenodd" d="M93.0986 96.088C95.4453 96.0908 97.3468 97.9925 97.3496 100.339C97.3496 102.842 95.2666 104.59 92.2826 104.59H81.9237C80.3678 104.59 78.4877 102.694 78.4877 100.339C78.4905 97.9925 80.392 96.0908 82.7387 96.088H93.0986ZM59.2993 154.418H83.8937C85.4239 154.4 86.8453 155.207 87.6155 156.529C88.3857 157.851 88.3857 159.486 87.6155 160.808C86.8453 162.13 85.4239 162.936 83.8937 162.919H59.2993C57.7692 162.936 56.3476 162.13 55.5776 160.808C54.8075 159.486 54.8075 157.851 55.5776 156.529C56.3476 155.207 57.7692 154.4 59.2993 154.418Z" fill="#8500FF"/>
</g>
<defs>
<clipPath id="clip0_4_4496">
<rect width="220" height="220" fill="white" transform="translate(0 0.5)"/>
</clipPath>
</defs>
</svg>
