<svg width="220" height="221" viewBox="0 0 220 221" fill="none" xmlns="http://www.w3.org/2000/svg">
<g clip-path="url(#clip0_4_4442)">
<path d="M110 220.5C170.751 220.5 220 171.251 220 110.5C220 49.7487 170.751 0.5 110 0.5C49.2487 0.5 0 49.7487 0 110.5C0 171.251 49.2487 220.5 110 220.5Z" fill="#EDF0F4"/>
<path d="M161.35 79.1025L155.318 74.719L169.425 67.6L161.35 79.1025Z" fill="#3F4B80"/>
<path d="M125.49 64.6666L143.057 73.6973L145.166 88.2651L125.49 64.6666Z" fill="#313A62"/>
<path d="M145.166 88.2651L142.365 100.658L125.49 64.6666L145.166 88.2651Z" fill="#3F4B80"/>
<path d="M142.365 100.658L115.471 66.71L125.523 64.7324L142.365 100.658Z" fill="#4B5897"/>
<path d="M142.362 100.658L113.193 89.2542L115.467 66.7102L142.362 100.658Z" fill="#5161A4"/>
<path d="M115.469 66.7102L113.195 89.2542L83.1367 93.4728L115.469 66.7102Z" fill="#4B5897"/>
<path d="M142.369 100.658L110.201 109.392L113.201 89.2542L142.369 100.658Z" fill="#4B5897"/>
<path d="M110.201 109.392L142.369 100.658L127.867 107.414L110.201 109.392Z" fill="#3F4B80"/>
<path d="M92.4336 112.424L110.198 109.392L110.495 115.456L92.4336 112.424Z" fill="#3F4B80"/>
<path d="M110.498 115.456L110.201 109.392L127.867 107.414L110.498 115.456Z" fill="#313A62"/>
<path d="M83.1367 93.4728L113.195 89.2542L110.196 109.392L83.1367 93.4728Z" fill="#3F4B80"/>
<path d="M83.1367 93.4725L110.196 109.392L92.431 112.424L83.1367 93.4725Z" fill="#4B5897"/>
<path d="M83.1367 93.4725L92.431 112.424L83.4662 118.983L83.1367 93.4725Z" fill="#313A62"/>
<path d="M67.8771 98.5813L71.4696 120.169L61.582 105.305L67.8771 98.5813Z" fill="#5161A4"/>
<path d="M50.1797 105.437L61.5836 105.305L61.6494 112.259L50.1797 105.437Z" fill="#313A62"/>
<path d="M51.1026 110.15L50.1797 105.437L61.6494 112.259L51.1026 110.15Z" fill="#3F4B80"/>
<path d="M51.1058 110.15L44.5801 115.918L50.1831 105.437L51.1058 110.15Z" fill="#4B5897"/>
<path d="M44.5761 115.918L44.1147 119.411L36.666 118.192L44.5761 115.918Z" fill="#313A62"/>
<path d="M44.5767 115.918L51.1024 110.15L44.1152 119.411L44.5767 115.918Z" fill="#5161A4"/>
<path d="M61.582 105.305L71.4696 120.169L61.6478 122.114L61.582 105.305Z" fill="#3F4B80"/>
<path d="M64.4821 133.188L57.3299 147.986L56.2754 136.583L64.4821 133.188Z" fill="#3F4B80"/>
<path d="M56.2741 136.583L57.3287 147.986L53.209 149.964L56.2741 136.583Z" fill="#1F243E"/>
<path d="M57.3318 147.987L58.4194 153.557L49.916 155.303L57.3318 147.987Z" fill="#3F4B80"/>
<path d="M53.212 149.964L57.3318 147.987L49.916 155.303L53.212 149.964Z" fill="#313A62"/>
<path d="M61.6476 122.114L71.4693 120.169L56.2754 136.583L61.6476 122.114Z" fill="#313A62"/>
<path d="M71.4693 120.169L78.1599 127.783L56.2754 136.583L71.4693 120.169Z" fill="#4B5897"/>
<path d="M67.877 98.5813L83.1369 93.4725L71.4694 120.169L67.877 98.5813Z" fill="#4B5897"/>
<path d="M71.4707 120.169L83.138 93.4725L83.4677 118.983L71.4707 120.169Z" fill="#3F4B80"/>
<path d="M78.1613 127.783L71.4707 120.169L83.4677 118.983L78.1613 127.783Z" fill="#313A62"/>
<path d="M127.861 107.414L142.001 107.315L132.97 121.092L127.861 107.414Z" fill="#4B5897"/>
<path d="M127.861 107.414L142.363 100.658L142.001 107.315L127.861 107.414Z" fill="#5161A4"/>
<path d="M125.096 119.609L127.864 107.414L132.973 121.092L125.096 119.609Z" fill="#3F4B80"/>
<path d="M121.701 126.003L125.096 119.609L132.973 121.092L121.701 126.003Z" fill="#4B5897"/>
<path d="M114.848 130.584L116.99 120.103L125.098 119.609L114.848 130.584Z" fill="#3F4B80"/>
<path d="M114.848 130.584L125.098 119.609L121.703 126.003L114.848 130.584Z" fill="#313A62"/>
<path d="M155.318 74.7191L168.765 65.293L169.425 67.6L155.318 74.7191Z" fill="#495692"/>
<path d="M168.768 65.2929L179.776 64.7324L169.427 67.5999L168.768 65.2929Z" fill="#5D6CAC"/>
<path d="M161.712 86.815L155.582 82.4973L176.313 82.5303L161.712 86.815Z" fill="#4F60A3"/>
<path d="M155.582 82.4973L173.413 80.1902L176.313 82.5303L155.582 82.4973Z" fill="#495692"/>
<path d="M173.414 80.1902L181.588 73.0382L176.315 82.5303L173.414 80.1902Z" fill="#3F4B80"/>
<path d="M176.314 82.5303L181.588 73.0382L183.335 73.8621L176.314 82.5303Z" fill="#4F60A3"/>
<path d="M181.586 73.0382L183.036 68.9183L183.333 73.8621L181.586 73.0382Z" fill="#313A62"/>
<path d="M145.165 88.2651L147.142 105.602L142.363 100.658L145.165 88.2651Z" fill="#313A62"/>
<path d="M147.148 105.601L145.17 88.2651L161.715 86.8149L147.148 105.601Z" fill="#3F4B80"/>
<path d="M161.711 86.8149L145.166 88.2651L143.057 73.6973L161.711 86.8149Z" fill="#4B5897"/>
<path d="M161.35 79.1025L164.02 81.5086L155.582 82.4973L161.35 79.1025Z" fill="#313A62"/>
<path d="M143.057 73.6973L161.349 79.1027L155.581 82.4973L143.057 73.6973Z" fill="#3F4B80"/>
<path d="M143.057 73.6973L155.317 74.719L161.349 79.1027L143.057 73.6973Z" fill="#313A62"/>
<path d="M160.955 114.237L161.713 86.8149L168.305 92.1872L160.955 114.237Z" fill="#3F4B80"/>
<path d="M160.956 114.237L161.714 86.8149L147.146 105.601L160.956 114.237Z" fill="#495692"/>
<path d="M168.305 92.1872L166.195 85.3318L161.713 86.815L168.305 92.1872Z" fill="#313A62"/>
<path d="M169.195 110.447L160.955 114.237L168.305 92.1873L169.195 110.447Z" fill="#313A62"/>
</g>
<defs>
<clipPath id="clip0_4_4442">
<rect width="220" height="220" fill="white" transform="translate(0 0.5)"/>
</clipPath>
</defs>
</svg>
