<svg width="220" height="221" viewBox="0 0 220 221" fill="none" xmlns="http://www.w3.org/2000/svg">
<g clip-path="url(#clip0_4_4433)">
<path d="M110 220.5C170.751 220.5 220 171.251 220 110.5C220 49.7487 170.751 0.5 110 0.5C49.2487 0.5 0 49.7487 0 110.5C0 171.251 49.2487 220.5 110 220.5Z" fill="#EDF0F4"/>
<path d="M148.398 44.5H104.422V88.4762H148.398V44.5Z" fill="#069DD8"/>
<path d="M148.398 132.579H104.422V176.555H148.398V132.579Z" fill="#069DD8"/>
<path d="M192.498 88.4764H148.521V132.453H192.498V88.4764Z" fill="#1F7995"/>
<path d="M27.5 110.573L58.5959 79.4777L89.6916 110.573L58.5959 141.669L27.5 110.573Z" fill="#A4BE39"/>
</g>
<defs>
<clipPath id="clip0_4_4433">
<rect width="220" height="220" fill="white" transform="translate(0 0.5)"/>
</clipPath>
</defs>
</svg>
