<svg width="220" height="221" viewBox="0 0 220 221" fill="none" xmlns="http://www.w3.org/2000/svg">
<g clip-path="url(#clip0_4_4439)">
<path d="M110 220.5C170.751 220.5 220 171.251 220 110.5C220 49.7487 170.751 0.5 110 0.5C49.2487 0.5 0 49.7487 0 110.5C0 171.251 49.2487 220.5 110 220.5Z" fill="#EDF0F4"/>
<path d="M143.005 88.4076C140.66 87.0583 137.644 87.0583 134.964 88.4076L116.2 99.5381L103.467 106.621L85.0376 117.752C82.6921 119.101 79.6764 119.101 76.9959 117.752L62.5877 108.982C60.2422 107.633 58.5669 104.935 58.5669 101.899V85.0346C58.5669 82.3363 59.907 79.638 62.5877 77.9516L76.9959 69.5193C79.3414 68.1702 82.3571 68.1702 85.0376 69.5193L99.4458 78.2889C101.791 79.638 103.467 82.3363 103.467 85.372V96.5025L116.2 89.0821V77.6142C116.2 74.9159 114.859 72.2176 112.179 70.5311L85.3728 54.6785C83.0272 53.3293 80.0115 53.3293 77.331 54.6785L49.8548 70.8685C47.1743 72.2176 45.834 74.9159 45.834 77.6142V109.32C45.834 112.018 47.1743 114.716 49.8548 116.403L76.9959 132.255C79.3414 133.604 82.3571 133.604 85.0376 132.255L103.467 121.462L116.2 114.042L134.629 103.248C136.974 101.899 139.99 101.899 142.67 103.248L157.079 111.68C159.424 113.03 161.099 115.728 161.099 118.764V135.628C161.099 138.326 159.759 141.025 157.079 142.711L143.005 151.143C140.66 152.492 137.644 152.492 134.964 151.143L120.556 142.711C118.21 141.362 116.535 138.664 116.535 135.628V124.835L103.802 132.255V143.386C103.802 146.084 105.142 148.782 107.823 150.469L134.964 166.322C137.309 167.671 140.325 167.671 143.005 166.322L170.146 150.469C172.492 149.12 174.167 146.421 174.167 143.386V111.343C174.167 108.645 172.827 105.947 170.146 104.26L143.005 88.4076Z" fill="#8247E5"/>
</g>
<defs>
<clipPath id="clip0_4_4439">
<rect width="220" height="220" fill="white" transform="translate(0 0.5)"/>
</clipPath>
</defs>
</svg>
