<svg width="220" height="221" viewBox="0 0 220 221" fill="none" xmlns="http://www.w3.org/2000/svg">
<g clip-path="url(#clip0_4_4501)">
<path d="M110 220.5C170.751 220.5 220 171.251 220 110.5C220 49.7487 170.751 0.5 110 0.5C49.2487 0.5 0 49.7487 0 110.5C0 171.251 49.2487 220.5 110 220.5Z" fill="#152743"/>
<path fill-rule="evenodd" clip-rule="evenodd" d="M111.248 57.7847C102.33 57.7847 95.0999 52.7612 95.0999 46.5591C95.0999 40.3569 102.33 35.3334 111.248 35.3334C120.166 35.3334 127.39 40.3569 127.39 46.5591C127.39 52.7612 120.166 57.7847 111.248 57.7847ZM102.893 183.09V63.185H138.889C140.224 63.185 141.166 64.1924 141.166 65.5427V132.074C141.166 133.417 140.217 134.569 138.889 134.569H119.048V183.09C119.048 184.44 118.031 185.667 116.696 185.667H105.393C104.019 185.614 102.924 184.488 102.893 183.097V183.09ZM83.2004 134.562H96.821V63.185H83.1936C81.8654 63.185 80.666 64.1924 80.666 65.5427V132.067C80.7166 133.45 81.8326 134.548 83.2004 134.562Z" fill="white"/>
</g>
<defs>
<clipPath id="clip0_4_4501">
<rect width="220" height="220" fill="white" transform="translate(0 0.5)"/>
</clipPath>
</defs>
</svg>
