<svg width="220" height="221" viewBox="0 0 220 221" fill="none" xmlns="http://www.w3.org/2000/svg">
<g clip-path="url(#clip0_4_4504)">
<path d="M110 220.5C170.751 220.5 220 171.251 220 110.5C220 49.7487 170.751 0.5 110 0.5C49.2487 0.5 0 49.7487 0 110.5C0 171.251 49.2487 220.5 110 220.5Z" fill="#EDF0F4"/>
<path d="M96.7373 92.4311L96.6289 171.085L109.786 180.501L123.052 171.353L122.941 92.4276L109.929 40.8334L96.7373 92.4311Z" fill="#90CFBE"/>
<path fill-rule="evenodd" clip-rule="evenodd" d="M73.9856 154.078V92.0958L51.334 74.804L55.8609 85.4019V140.399L73.9856 154.078ZM145.706 154.078V92.0958L168.354 74.804L163.827 85.4019V140.399L145.706 154.078Z" fill="#216C8A"/>
</g>
<defs>
<clipPath id="clip0_4_4504">
<rect width="220" height="220" fill="white" transform="translate(0 0.5)"/>
</clipPath>
</defs>
</svg>
