<svg width="220" height="221" viewBox="0 0 220 221" fill="none" xmlns="http://www.w3.org/2000/svg">
<g clip-path="url(#clip0_4_4508)">
<path d="M110 220.5C170.751 220.5 220 171.251 220 110.5C220 49.7487 170.751 0.5 110 0.5C49.2487 0.5 0 49.7487 0 110.5C0 171.251 49.2487 220.5 110 220.5Z" fill="#105B2F"/>
<path fill-rule="evenodd" clip-rule="evenodd" d="M80.0459 139.148L82.7272 125.488V125.494H84.5973C86.9262 125.496 89.2551 125.499 91.584 125.501C98.5708 125.509 105.558 125.517 112.544 125.501C119.708 125.488 126.817 124.889 133.747 122.971C142.486 120.551 150.309 116.571 156.016 109.476C163.743 99.8373 166.294 88.7756 164.403 76.7375C163.186 68.9895 158.807 63.3934 151.533 60.1622C149.003 59.0347 146.232 58.3059 143.503 57.7422C135.576 56.1129 127.498 55.7004 119.44 55.5974C110.565 55.4824 101.688 55.4952 92.8109 55.5083C87.8794 55.5154 82.9481 55.5226 78.0179 55.5079C76.7529 55.5079 76.5397 56.1747 76.3472 57.1441C75.7321 60.2617 75.1069 63.3771 74.4817 66.493C73.4718 71.5263 72.4616 76.5604 71.4934 81.605C71.2321 82.925 70.7164 83.31 69.3759 83.2688C67.6815 83.2107 65.9822 83.2251 64.2809 83.2398C63.1655 83.2493 62.0494 83.2591 60.9332 83.2481C59.9707 83.2413 59.51 83.5025 59.3312 84.5338C58.8876 87.1054 58.3842 89.6671 57.8811 92.2281C57.6593 93.3574 57.4374 94.4864 57.2207 95.6161C57.184 95.808 57.1778 96.0062 57.1698 96.2671C57.1657 96.3984 57.1611 96.5458 57.152 96.7161H68.6814L55 165.053C55.1346 165.103 55.2405 165.148 55.3278 165.184C55.4899 165.252 55.5867 165.293 55.6807 165.293C57.7016 165.316 59.7227 165.337 61.7437 165.357C65.7866 165.399 69.8293 165.44 73.8721 165.499C74.8346 165.513 75.0272 165.004 75.1647 164.248L80.0459 139.148ZM88.4886 106.664H86.5429L88.5366 96.6541H116.745L119.33 83.3306H91.2111L92.8886 74.7507C93.0468 74.7374 93.192 74.7225 93.3284 74.7086C93.6129 74.6796 93.8591 74.6545 94.1055 74.6545C96.9716 74.6622 99.8373 74.6618 102.702 74.6613C109.961 74.6602 117.217 74.6589 124.473 74.792C128.094 74.8917 131.701 75.2826 135.26 75.9607C140.12 76.8407 142.981 79.9688 143.792 84.7606C144.432 88.1299 143.875 91.617 142.217 94.6193C138.354 101.542 132.31 105.358 124.356 106.307C122.273 106.561 120.148 106.65 118.051 106.65C110.881 106.675 103.715 106.671 96.549 106.667C93.8621 106.666 91.1753 106.664 88.4886 106.664Z" fill="white"/>
</g>
<defs>
<clipPath id="clip0_4_4508">
<rect width="220" height="220" fill="white" transform="translate(0 0.5)"/>
</clipPath>
</defs>
</svg>
