<svg width="220" height="221" viewBox="0 0 220 221" fill="none" xmlns="http://www.w3.org/2000/svg">
<g clip-path="url(#clip0_4_4511)">
<path d="M110 220.5C170.751 220.5 220 171.251 220 110.5C220 49.7487 170.751 0.5 110 0.5C49.2487 0.5 0 49.7487 0 110.5C0 171.251 49.2487 220.5 110 220.5Z" fill="#EDF0F4"/>
<path d="M181.651 108.939C177.561 104.996 173.694 100.836 169.604 96.8921C168.403 95.9665 167.981 94.3434 168.585 92.9488C170.266 87.2534 171.725 81.5579 173.331 75.8625C173.77 74.4739 173.548 73.8939 172.018 73.5246C166.176 72.0657 160.411 70.3137 154.493 68.8489C152.811 68.4855 152.155 67.6066 151.791 66.0714C150.333 60.376 148.727 54.8272 147.338 49.1318C146.899 47.45 146.389 47.0867 144.707 47.5965C139.012 49.202 133.246 50.6609 127.551 52.126C126.602 52.4189 125.723 52.6356 124.85 51.7626C120.174 46.9519 115.281 42.3523 110.758 37.3132C110.242 37.3249 109.726 37.278 109.222 37.1667C109.252 37.5533 109.053 37.9284 108.713 38.116C104.33 42.4227 99.9529 46.7294 95.6403 51.1121C94.8141 52.126 93.4194 52.4833 92.2067 51.9912C86.5112 50.3856 80.8158 48.9266 75.1204 47.3153C73.5149 46.8758 72.8586 47.1688 72.4192 48.8505C70.9602 54.5458 69.2785 60.2412 67.8195 65.9366C67.6672 67.132 66.7472 68.0871 65.5577 68.2745C59.7921 69.7337 54.167 71.3391 48.4012 72.7277C46.5028 73.1673 45.9931 73.8235 46.5732 75.7923C48.2547 81.4173 49.5674 87.1831 51.1728 92.8784C51.6884 94.0913 51.3311 95.4918 50.2939 96.312C45.9873 100.472 41.8212 104.785 37.5143 108.945C36.3483 110.041 36.4187 110.697 37.5143 111.793C41.7508 115.953 45.8408 120.189 50.0712 124.35C51.1142 125.123 51.5069 126.506 51.0205 127.707C49.415 133.332 48.0263 138.951 46.3446 144.577C45.7586 146.545 46.0516 147.354 48.1728 147.864C53.8682 149.252 59.4172 150.928 65.1124 152.317C66.7941 152.68 67.4505 153.559 67.8136 155.094C69.2726 160.86 70.8782 166.485 72.3431 172.251C72.7063 173.71 73.222 174.079 74.6809 173.639C80.306 172.034 85.9955 170.721 91.6208 169.11C93.1149 168.548 94.8023 169.022 95.7809 170.276C99.7947 174.436 103.884 178.456 107.904 182.616C109.146 183.929 109.873 184.006 111.191 182.686C115.205 178.45 119.441 174.436 123.531 170.2C124.451 168.987 126.063 168.542 127.475 169.104C133.1 170.786 138.719 172.169 144.344 173.78C145.95 174.22 146.606 173.927 147.045 172.245C148.434 166.62 150.186 161 151.575 155.375C151.938 153.694 152.741 153.038 154.352 152.674C160.048 151.286 165.596 149.68 171.292 148.291C172.973 147.928 173.483 147.272 172.973 145.514C171.368 139.819 169.909 133.977 168.298 128.211C167.782 126.998 168.139 125.598 169.176 124.777C173.337 120.764 177.427 116.527 181.663 112.514C183.186 111.06 183.04 110.328 181.651 108.939Z" fill="#05BCA9"/>
<path d="M73.372 105.658C73.372 105.664 73.372 105.67 73.372 105.675C73.3488 108.154 71.3213 110.14 68.8428 110.117H64.3133C62.4149 110.117 60.5165 110.117 58.5477 110.187C57.5282 110.187 57.2352 109.824 57.4519 108.799C57.9618 106.683 58.4714 105.002 61.2489 104.562C64.8291 104.052 68.2568 102.81 71.7607 101.785C73.003 101.492 73.5128 101.638 73.3663 102.951C73.3018 103.83 73.372 104.779 73.372 105.658Z" fill="#EDF0F4"/>
<path d="M73.1544 145.496C70.1426 142.66 67.4472 140.041 64.6816 137.422C67.0195 136.109 69.2813 134.867 71.4727 133.555C72.7149 132.822 73.1544 132.969 73.1544 134.504C73.084 138.067 73.1544 141.711 73.1544 145.496Z" fill="#EDF0F4"/>
<path d="M65.048 135.887C64.1691 136.397 63.9522 136.18 63.7353 135.301C63.0791 132.67 62.2763 130.045 61.6202 127.414C61.4737 126.828 61.4033 126.102 61.9834 125.732C62.5693 125.369 63.0029 125.879 63.4423 126.096C66.4365 127.777 69.4307 129.529 72.8644 131.428C70.0871 132.963 67.5264 134.352 65.048 135.887Z" fill="#EDF0F4"/>
<path d="M59.4973 96.7456C58.7649 98.5738 56.2101 98.8609 54.5343 100.033C52.8526 95.7261 52.8526 95.7261 55.7766 92.7319C57.8215 90.687 59.8664 88.7182 61.9114 86.6733C62.0988 86.5561 62.2922 86.4623 62.4974 86.3803C61.4661 90.0307 60.8098 93.5347 59.4973 96.7456Z" fill="#EDF0F4"/>
<path d="M63.875 85.5775C64.0215 84.9213 64.5313 85.0678 64.8945 85.2845C67.379 86.7435 69.7871 88.2026 72.5587 89.814C68.6152 92.0757 65.0351 94.1206 60.9512 96.312C61.9766 92.4389 62.9257 89.0053 63.875 85.5775Z" fill="#EDF0F4"/>
<path d="M56.213 104.779C55.4101 104.779 55.4101 103.976 55.2637 103.466C54.461 101.058 54.6075 100.912 58.9903 99.0836C58.5802 100.765 58.1876 102.148 57.8536 103.466C57.7423 104.269 57.0215 104.849 56.213 104.779Z" fill="#EDF0F4"/>
<path d="M51.8264 106.021C49.049 106.754 46.2774 107.41 43.5001 108.066L43.2832 107.773L53.3616 101.861C55.0433 105.002 54.967 105.219 51.8264 106.021Z" fill="#EDF0F4"/>
<path d="M53.9533 106.607C55.8517 106.168 55.2658 108.142 55.635 108.945C55.9982 109.748 55.4885 110.111 54.6155 110.111H42.7091C42.7091 109.965 42.6387 109.748 42.6387 109.601C46.3594 108.652 50.0802 107.556 53.9533 106.607Z" fill="#EDF0F4"/>
<path d="M56.8119 113.515C57.5384 116.275 58.2652 119.035 59.0913 122.012C53.5541 119.316 54.2689 120.834 56.8119 113.515Z" fill="#EDF0F4"/>
<path d="M54.9263 121.355C56.7545 121.285 60.0358 124.35 60.0358 126.031C59.567 127.274 58.5767 128.44 57.6276 129.758C57.5572 129.758 57.4811 129.828 57.4107 129.828C56.6783 129.975 53.104 125.592 53.2505 124.789C53.3209 124.643 53.3209 124.496 53.397 124.35C53.9009 123.324 53.3209 121.426 54.9263 121.355Z" fill="#EDF0F4"/>
<path d="M56.5313 133.403C57.2638 132.307 57.7736 131.867 58.7931 133.109C59.7366 134.188 60.7326 135.207 61.7873 136.174C62.1505 136.613 62.8829 136.977 61.9338 137.563C57.7736 139.901 53.5372 142.309 49.377 144.647C49.2598 144.541 49.1659 144.418 49.084 144.284C51.5333 140.633 54.0177 137.053 56.5313 133.403Z" fill="#EDF0F4"/>
<path d="M60.5924 127.854C61.2487 130.191 61.8346 132.529 62.4908 135.008C57.7447 131.65 57.5982 131.211 60.5924 127.854Z" fill="#EDF0F4"/>
<path d="M62.3499 122.815C61.5471 124.057 60.6682 123.547 60.3811 122.521C59.3615 119.017 58.4122 115.513 57.5333 112.01C57.1702 110.844 58.1897 111.131 58.7756 111.131H70.3832C67.5296 115.297 64.9748 119.094 62.3499 122.815Z" fill="#EDF0F4"/>
<path d="M72.7151 100.472C68.2619 101.638 63.8087 102.81 59.1328 104.052C59.4258 99.8161 60.8849 97.0445 64.758 95.5094C67.676 94.3432 70.3068 92.4448 73.4475 90.6929V99.4527C73.512 99.9274 73.1956 100.379 72.7151 100.472Z" fill="#EDF0F4"/>
<path d="M73.3659 78.054V88.935C70.6647 87.3998 68.2564 85.9408 65.9186 84.5521C65.1158 84.1126 64.899 83.6732 65.7019 82.8703C67.6705 80.9719 69.5691 79.0735 71.4675 77.1047C71.8248 76.5833 72.5046 76.4016 73.073 76.6652C73.6589 76.888 73.3659 77.5441 73.3659 78.054Z" fill="#EDF0F4"/>
<path d="M65.2617 81.0482C65.9941 75.8624 66.3573 75.4992 70.1543 76.6652C68.4726 78.2005 66.7968 79.6594 65.2617 81.0482Z" fill="#EDF0F4"/>
<path d="M72.7873 52.9403C72.9337 53.0107 73.1506 53.0107 73.2971 53.0868V62.7959C73.2971 66.8097 73.2971 66.8097 68.8438 67.3956C70.1564 62.503 71.4689 57.6864 72.7873 52.9403Z" fill="#EDF0F4"/>
<path d="M67.9633 70.3897C68.2562 68.4913 69.7152 68.708 70.9575 68.1983C73.0726 67.3194 73.5122 68.2686 73.2953 70.0968V70.9757C73.2953 74.9192 71.3265 76.3781 67.6703 75.0656C67.2309 74.9192 66.9379 74.7727 67.014 74.3332C67.3069 73.0149 67.7464 71.7022 67.9633 70.3897Z" fill="#EDF0F4"/>
<path d="M51.1757 73.3839C56.3906 72.0715 61.6172 70.6827 67.096 69.2939C66.6565 71.0461 66.2932 72.4346 65.9298 73.8938C65.6368 75.0598 64.7638 74.8429 63.9612 74.7727C59.7247 74.4093 55.418 74.1163 51.1113 73.7532C51.1641 73.6358 51.1874 73.507 51.1757 73.3839Z" fill="#EDF0F4"/>
<path d="M64.0256 75.8624C65.0451 75.9328 65.2679 76.3021 65.0451 77.3216C63.7327 83.31 63.8031 83.31 58.6175 80.2395C55.9162 78.6341 53.1387 77.0286 50.1445 75.2765C55.0491 74.8429 59.5724 75.6457 64.0256 75.8624Z" fill="#EDF0F4"/>
<path d="M48.1777 76.2317C48.1075 76.0148 48.1075 75.8683 48.0312 75.6458C48.2481 75.6458 48.3946 75.716 48.6172 75.716C53.0001 78.2707 57.4533 80.9017 61.9769 83.4563C62.4163 83.7495 63.0725 83.8959 62.3401 84.6986C59.3459 87.7632 56.4279 90.9038 53.5039 94.0444C53.2227 93.9507 52.9532 93.8335 52.7013 93.6812C51.1719 87.8392 49.713 82.0736 48.1777 76.2317Z" fill="#EDF0F4"/>
<path d="M51.9767 96.5289C52.1934 96.7456 52.4162 96.8219 52.4162 96.8921C53.4357 100.619 53.4357 100.619 50.0781 102.517C47.5938 103.976 45.039 105.365 42.2676 106.9C45.625 103.244 48.7656 99.8863 51.9767 96.5289Z" fill="#EDF0F4"/>
<path d="M40.1524 111.131C44.8283 111.131 49.428 111.131 54.0979 111.06C55.3401 111.06 55.85 111.277 55.3401 112.742C54.6077 114.711 54.684 117.852 53.3713 118.508C51.8363 119.31 49.721 116.902 47.8928 115.953C45.2619 114.564 42.7072 112.959 40.082 111.5C40.1055 111.377 40.1348 111.254 40.1524 111.131Z" fill="#EDF0F4"/>
<path d="M41.9727 114.347L42.0431 114.277C45.7697 115.666 48.9806 118.004 52.4084 119.902C53.3577 120.412 53.1408 121.73 51.7522 124.502C48.4005 121.133 45.0373 117.922 41.9727 114.347Z" fill="#EDF0F4"/>
<path d="M52.4843 127.268C52.7012 127.338 52.9238 127.338 52.9942 127.414C56.791 131.064 56.791 131.064 53.797 135.371C52.1914 137.709 50.5098 139.971 48.9042 142.233L48.541 141.94L52.4843 127.268Z" fill="#EDF0F4"/>
<path d="M48.0312 146.762C53.1407 143.844 57.7404 141.213 62.4163 138.582C63.0023 138.219 63.2952 138.289 63.5119 139.022C64.6077 143.182 65.7035 147.272 66.9456 151.872C60.4475 150.049 54.5293 148.444 48.0312 146.762Z" fill="#EDF0F4"/>
<path d="M72.9649 168.085C72.8184 168.085 72.672 168.155 72.5255 168.155C71.213 163.409 69.9707 158.663 68.6582 153.77H68.6289C69.1388 153.7 69.2852 153.623 69.4611 153.7C72.9649 154.502 72.9649 154.502 72.9649 158.153V168.085Z" fill="#EDF0F4"/>
<path d="M73.0782 153.19C72.5686 153.26 72.4923 153.336 72.4923 153.336C69.2814 153.119 67.5293 151.508 67.0898 148.227C66.6504 145.45 65.7773 142.824 65.4844 139.901C67.8222 142.238 70.3009 144.43 72.4219 146.985C73.9513 148.807 72.4923 151.075 73.0782 153.19Z" fill="#EDF0F4"/>
<path d="M73.3678 118.144L73.1509 128.369C73.1509 129.682 72.9342 130.268 71.5455 129.389C69.0611 127.93 66.5824 126.471 64.022 125.152C62.9262 124.566 62.9262 124.057 63.5824 123.107C66.1371 119.457 68.6919 115.807 71.1764 112.08C71.4635 111.435 72.1607 111.072 72.8579 111.201C73.8775 111.347 73.3678 112.15 73.3678 112.66C73.4439 114.488 73.3678 116.316 73.3678 118.144Z" fill="#EDF0F4"/>
<path d="M136.167 83.6791C133.976 82.2201 131.275 81.6342 130.326 78.7864C129.945 77.9719 129.974 77.0228 130.396 76.2317C132.294 73.091 134.123 69.9503 135.874 66.8096C136.607 65.5676 137.04 65.7901 137.99 66.5929C139.595 67.9815 140.181 69.3703 139.449 71.4856C138.213 75.4993 137.263 79.5891 136.167 83.6791Z" fill="#EDF0F4"/>
<path d="M145.294 138.735C145.294 144.793 145.294 144.793 139.236 144.284C136.318 144.067 133.324 143.774 130.4 143.551C129.667 143.481 129.087 143.405 128.864 142.531C128.648 141.653 129.45 141.582 129.96 141.289C134.56 138.735 139.089 136.18 143.613 133.549C145.001 132.746 145.441 133.11 145.294 134.645C145.218 136.033 145.294 137.346 145.294 138.735Z" fill="#EDF0F4"/>
<path d="M118.932 157.204C116.447 155.375 113.6 153.993 110.752 152.311C113.383 150.852 115.791 149.463 118.276 148.004C118.703 147.676 119.313 147.74 119.664 148.151C122.875 151.362 126.162 154.579 129.52 157.936C129.08 158.299 129.01 158.375 129.01 158.375C125.43 159.981 122.149 159.688 118.932 157.204Z" fill="#EDF0F4"/>
<path d="M121.922 160.274C118.125 161.223 114.768 162.173 111.41 163.051C110.607 163.268 110.314 163.051 110.314 162.173V153.412C114.328 155.745 117.908 157.86 121.922 160.274Z" fill="#EDF0F4"/>
<path d="M84.8331 156.694C83.8134 156.401 84.3233 155.815 84.6162 155.305C86.5146 152.018 88.4835 148.731 90.5284 145.157C92.6437 149.61 94.6183 153.7 96.5168 157.79C97.2492 159.249 96.5168 159.758 95.3508 159.471C91.841 158.668 88.337 157.643 84.8331 156.694Z" fill="#EDF0F4"/>
<path d="M94.4786 160.42C89.6622 163.631 89.5158 163.561 85.2793 157.936C88.4141 158.809 91.3381 159.541 94.4786 160.42Z" fill="#EDF0F4"/>
<path d="M83.4043 138.512C83.4746 138.149 83.6973 137.779 84.1368 138.072C85.6718 139.022 87.4941 139.461 88.5899 141.067C89.6857 142.672 90.1252 144.278 88.7364 146.176C87.0723 148.619 85.584 151.186 84.2832 153.84C83.1875 155.956 82.3144 155.809 81.0722 154.133C80.5625 153.401 79.5371 153.038 79.7597 151.872C80.9609 147.424 82.1327 142.965 83.4043 138.512Z" fill="#EDF0F4"/>
<path d="M74.3932 68.7081C74.3815 68.6496 74.37 68.585 74.37 68.5266C74.3054 67.7237 74.909 67.0207 75.7118 66.9561C77.3172 66.6632 78.9227 66.2237 80.5281 65.7901C80.7215 65.7549 80.9208 65.7549 81.1141 65.7901C80.9793 65.8779 80.8739 66.007 80.8211 66.1535C78.7762 68.1221 76.7313 70.1672 74.3932 72.4347C74.3932 71.0461 74.4636 69.8801 74.3932 68.7081Z" fill="#EDF0F4"/>
<path d="M74.9065 73.8235C77.5374 71.0461 80.2386 68.3449 83.1567 65.3507C85.4183 69.294 87.393 72.7981 89.7309 76.7416C84.5453 76.3782 79.7992 76.0852 75.1291 75.5754C73.7405 75.4289 74.3206 74.4035 74.9065 73.8235Z" fill="#EDF0F4"/>
<path d="M99.801 63.5284C102.502 65.6437 105.713 67.1789 109 69.0774C106.37 70.6126 104.037 71.9251 101.699 73.3138C101.114 73.677 100.68 73.8998 100.094 73.3138C96.8829 70.0267 93.5958 66.8156 90.1621 63.3819C93.672 61.9934 96.59 61.0441 99.801 63.5284Z" fill="#EDF0F4"/>
<path d="M97.832 61.1905C101.559 60.171 104.84 59.2921 108.198 58.4132C109 58.1963 109.44 58.2667 109.44 59.2921V67.9816C105.496 65.7141 101.846 63.5284 97.832 61.1905Z" fill="#EDF0F4"/>
<path d="M106.7 91.7828C105.967 90.9039 104.801 91.853 103.922 92.0758C100.272 92.9547 100.342 93.0249 98.4435 89.7377C96.8381 86.8198 95.2326 83.896 93.4805 81.0483C92.8244 79.8823 92.8946 79.2961 94.1369 78.7865C94.8693 78.4935 95.5256 78.1301 96.1818 77.8372C97.717 77.181 99.0999 75.4289 100.565 75.7219C102.246 76.0853 103.266 78.0599 104.578 79.302C108.639 83.392 112.653 87.5522 116.819 91.4957C118.389 92.9371 119.356 94.9176 119.52 97.0445C114.803 96.2418 110.174 95.5094 105.604 94.6364C105.604 94.4899 105.533 94.3434 105.604 94.1969C105.821 93.3178 107.502 92.8023 106.7 91.7828Z" fill="#EDF0F4"/>
<path d="M74.4652 82.5072L74.4945 81.7748C74.4945 76.5892 74.4945 76.5892 79.5336 76.9582C82.7447 77.1751 86.0319 77.5442 89.2428 77.761C89.9752 77.8313 90.6022 77.8313 90.8191 78.7102C91.0358 79.5891 90.2332 79.6595 89.7996 79.9524L76.0004 87.8392C74.5415 88.7181 74.395 88.0561 74.4652 86.8197C74.5415 85.3549 74.4652 83.972 74.4652 82.5072Z" fill="#EDF0F4"/>
<path d="M79.0658 87.3998C82.9331 85.5014 86.5132 83.31 90.1637 81.1185C91.5523 80.2396 92.0622 80.679 92.7183 81.9213C94.4704 85.2787 96.3688 88.5658 98.3435 91.7769C99.1462 93.0894 98.9295 93.4585 97.4646 93.8218C90.5269 95.5738 83.5894 97.4724 76.6576 99.3708C75.1223 99.8102 74.5423 99.6637 74.7592 97.982C74.8294 96.9625 74.7592 95.8667 74.7592 94.1852C73.5169 90.7633 75.7845 88.9351 79.0658 87.3998Z" fill="#EDF0F4"/>
<path d="M74.5382 108.576C74.6084 107.627 74.7549 106.607 74.7549 105.658C74.8253 101.058 74.8253 101.058 79.1378 99.8921C84.7629 98.4331 90.382 96.9742 96.0073 95.3629C98.2689 94.7065 100.46 94.4136 102.869 95.5796C99.8041 99.2301 96.8099 102.88 93.8861 106.531C92.8666 105.799 93.3002 103.9 92.0579 104.046C90.9621 104.193 91.2551 105.799 90.8919 106.748C90.6283 107.457 90.4348 108.189 90.306 108.939C90.306 108.957 90.3001 108.98 90.3001 108.998C90.1653 109.824 89.386 110.386 88.554 110.252C84.3936 110.181 80.2276 110.105 76.0674 110.181C74.7549 110.181 74.3917 109.672 74.5382 108.576Z" fill="#EDF0F4"/>
<path d="M90.0925 62.0635C89.3484 62.333 88.5223 61.9816 88.1941 61.2607C87.6842 60.4581 88.4871 60.1651 88.8504 59.8017C90.6024 57.9033 90.6784 57.9033 94.6922 60.8213C93.0106 61.2607 91.4813 61.5537 90.0925 62.0635Z" fill="#EDF0F4"/>
<path d="M88.4417 58.4893C87.4924 59.878 86.6135 59.9482 85.3771 58.5595C83.5489 56.5146 81.5098 54.6162 79.5352 52.6474C79.6056 52.5009 79.6816 52.2842 79.752 52.1377C83.1564 53.4502 86.0041 55.788 89.0978 57.3233C89.1741 57.9736 88.6642 58.12 88.4417 58.4893Z" fill="#EDF0F4"/>
<path d="M91.1856 66.007C93.9631 68.708 96.6643 71.4093 99.6585 74.3333C98.2932 75.2356 96.881 76.0676 95.422 76.8176C93.383 77.7376 90.9806 76.9054 89.9435 74.9192C88.0449 71.5616 86.1465 68.2745 84.248 64.9171C88.4082 63.2354 88.4082 63.3058 91.1856 66.007Z" fill="#EDF0F4"/>
<path d="M74.3159 113.029C74.3159 111.64 74.5326 111.06 76.1441 111.131C80.0874 111.277 84.0309 111.201 87.9743 111.201C88.9938 111.201 89.5797 111.347 89.2165 112.59C87.1012 120.254 85.0563 127.924 82.9352 135.811C81.6227 135.008 80.5269 134.422 79.5015 133.842C74.099 130.777 74.099 130.777 74.2455 124.642C74.392 120.769 74.392 116.902 74.3159 113.029Z" fill="#EDF0F4"/>
<path d="M91.773 144.94C91.4099 144.284 91.1871 143.697 91.8434 143.111C92.3531 142.602 92.7926 143.111 93.2322 143.328C98.2713 146.246 103.234 149.241 108.49 152.311C105.349 154.139 102.502 155.815 99.7303 157.497C98.781 158.153 98.1248 158.375 97.5389 156.987C95.7165 152.973 93.7419 148.953 91.773 144.94Z" fill="#EDF0F4"/>
<path d="M90.3831 140.194C89.7971 139.83 89.2875 139.391 88.7015 139.028C87.1663 137.932 84.6115 137.715 84.2482 135.963C83.885 134.358 84.9806 132.383 85.4904 130.561C86.9494 125.305 88.4846 120.119 89.7269 114.787C90.1546 112.543 91.4378 110.557 93.307 109.238C94.766 113.252 96.1548 117.195 97.7602 120.922C98.1997 122.234 98.1234 122.75 96.5942 122.457C96.0844 122.387 95.428 122.164 95.1351 122.75C94.8421 123.336 95.4984 123.629 95.7914 124.062C96.8109 125.451 99.1488 126.254 99.0023 128.076C98.8558 129.611 97.4672 131.07 96.5942 132.606C95.2055 134.944 93.8167 137.282 92.5042 139.69C91.9183 140.78 91.3324 140.92 90.3831 140.194Z" fill="#EDF0F4"/>
<path d="M98.9984 121.795C97.4633 117.635 95.934 113.398 94.3987 109.238C93.9945 108.488 94.1468 107.562 94.7621 106.976C97.7563 103.543 100.674 100.039 103.522 96.5348C103.95 95.8843 104.747 95.5855 105.491 95.8024C109.874 96.605 114.327 97.4078 118.704 98.1402C119.688 98.2339 120.509 98.9372 120.749 99.8922C122.208 103.906 123.667 107.996 125.202 112.015C125.653 112.894 125.472 113.961 124.763 114.646C121.915 117.933 119.137 121.361 116.29 124.725C115.78 125.311 115.411 126.037 114.608 125.674C109.792 124.871 105.186 124.068 100.516 123.266C99.5845 123.107 99.2913 122.521 98.9984 121.795Z" fill="#EDF0F4"/>
<path d="M114.188 126.758C114.188 128 112.219 128.586 113.022 129.535C113.824 130.484 115.213 129.606 116.162 129.172C118.717 128.006 120.029 128.955 121.201 131.287C122.66 134.352 124.489 137.276 126.241 140.194C126.973 141.436 126.827 142.092 125.508 142.602C124.658 142.947 123.832 143.334 123.024 143.768C119.01 145.959 119.01 145.959 115.869 142.819C111.709 138.658 107.619 134.492 103.459 130.408C101.853 128.803 100.318 127.197 100.318 124.35C104.988 125.152 109.588 125.955 114.188 126.758Z" fill="#EDF0F4"/>
<path d="M129.598 159.395C130.348 159.114 131.186 159.424 131.566 160.127C132.006 160.86 131.203 161.147 130.834 161.586C129.082 163.485 129.082 163.485 125.068 160.567C126.75 160.127 128.209 159.834 129.598 159.395Z" fill="#EDF0F4"/>
<path d="M128.644 155.821C126.306 153.12 123.681 150.711 121.12 148.227C120.101 147.207 120.171 146.768 121.484 146.182C123.089 145.45 124.331 143.991 126.376 144.43C128.128 143.991 129.007 145.016 129.81 146.545C131.415 149.539 133.097 152.458 134.849 155.381C135.359 156.331 135.289 156.694 134.193 157.133C132.001 158.006 130.32 157.79 128.644 155.821Z" fill="#EDF0F4"/>
<path d="M140.648 133.988C136.851 135.887 133.201 138.149 129.55 140.27C128.384 140.926 127.799 141.002 127.066 139.684C125.238 136.18 123.269 132.746 121.224 129.389C120.492 128.223 120.931 127.854 122.027 127.561C129.181 125.732 136.265 123.91 143.349 121.935C144.738 121.572 145.178 121.789 145.031 123.178C144.961 124.273 145.031 125.439 145.031 127.191H145.002C146.244 130.625 144.006 132.453 140.648 133.988Z" fill="#EDF0F4"/>
<path d="M145.219 113.105C145.149 113.984 145.002 114.933 145.002 115.807C144.932 120.406 144.932 120.336 140.403 121.572C134.924 123.031 129.451 124.49 123.973 126.025C121.635 126.682 119.297 127.191 116.889 125.808L125.941 115.004C126.961 115.66 126.451 117.635 127.693 117.412C128.936 117.195 128.713 115.514 129.006 114.494C129.955 111.207 129.955 111.207 133.313 111.207C136.67 111.207 140.104 111.277 143.537 111.207C145.002 111.207 145.366 111.787 145.219 113.105Z" fill="#EDF0F4"/>
<path d="M129.882 107.48C129.373 109.525 128.277 110.838 126.525 112.226C124.843 107.697 123.314 103.39 121.708 99.0836C122.728 98.3512 124.292 99.6696 124.626 98.4273C124.99 97.478 123.531 96.8218 122.798 96.0894C120.39 93.6049 120.39 93.6811 122.142 90.6109C123.824 87.7631 125.576 85.0619 127.035 82.1379C127.914 80.386 128.787 80.5325 130.099 81.552C130.521 81.8919 130.961 82.2083 131.412 82.5013C132.724 83.5208 135.138 83.8138 135.502 85.349C135.865 86.8842 134.845 88.7064 134.406 90.3881C132.953 96.0894 131.271 101.785 129.882 107.48Z" fill="#EDF0F4"/>
<path d="M134.925 64.7647C135.874 64.9814 135.434 65.6436 135.141 66.1535C133.243 69.4406 131.344 72.7276 129.229 76.3021C127.038 71.8487 125.139 67.6885 123.241 63.6689C122.585 62.2804 123.171 61.7001 124.407 61.9874C127.917 62.7959 131.421 63.8154 134.925 64.7647Z" fill="#EDF0F4"/>
<path d="M125.361 60.9678C130.617 57.7569 128.572 57.0245 134.707 63.5225C131.273 62.6495 128.426 61.8467 125.361 60.9678Z" fill="#EDF0F4"/>
<path d="M127.983 76.3021C128.276 76.8881 128.639 77.5442 128.053 78.2005C127.32 79.0032 126.811 78.2006 126.301 77.9076C121.338 75.0599 116.445 72.1417 111.26 69.0715C114.547 67.173 117.611 65.4209 120.535 63.669C121.484 63.0831 121.848 63.4523 122.217 64.2549C124.115 68.2686 126.084 72.2882 127.983 76.3021Z" fill="#EDF0F4"/>
<path d="M138.427 64.5479C137.408 64.5479 137.841 63.7452 138.134 63.2354C139.962 60.0947 141.785 57.0303 143.613 53.8896C143.812 53.9013 144.011 53.9539 144.199 54.0361C143.279 57.4697 142.447 61.044 141.281 64.4776C140.765 66.1535 139.453 64.5479 138.427 64.5479Z" fill="#EDF0F4"/>
<path d="M142.076 54.2527C140.324 57.3173 138.496 60.3876 136.744 63.4522C134.776 61.4071 133.018 59.5087 131.119 57.5399C135.279 55.1316 139.516 52.2841 144.045 50.0925C143.975 51.7684 142.809 52.9402 142.076 54.2527Z" fill="#EDF0F4"/>
<path d="M129.041 53.0868C132.908 51.9912 136.781 51.0419 140.724 50.0224L140.941 50.4619H140.912C137.437 52.4307 133.974 54.6981 130.429 56.5205C128.97 57.2529 128.021 55.3545 127.435 54.1826C126.849 53.0107 128.455 53.2274 129.041 53.0868Z" fill="#EDF0F4"/>
<path d="M124.918 54.036C126.524 54.5457 127.326 56.0809 128.498 57.0302C128.557 57.2352 128.498 57.4579 128.352 57.6161C126.805 58.6591 125.164 59.5615 123.459 60.3174C122.217 60.7568 119.223 57.1063 119.592 55.7879C119.592 55.5712 119.955 55.3485 120.178 55.2783C121.707 54.8386 123.236 54.4696 124.918 54.036Z" fill="#EDF0F4"/>
<path d="M123.971 52.9403C123.93 52.9755 123.901 53.0283 123.901 53.0868C119.084 54.7685 119.008 54.7685 116.816 50.1689C115.65 47.6843 114.479 45.2762 113.236 42.575C115.065 43.3016 122.805 50.8954 123.971 52.9403Z" fill="#EDF0F4"/>
<path d="M110.609 41.2567C110.826 41.2567 110.973 41.1863 111.195 41.1863C113.164 45.3465 115.139 49.5125 117.108 53.5263C117.471 54.2587 117.547 54.6923 116.598 55.0615C110.902 57.3233 110.609 57.1768 110.609 51.1943V41.2567Z" fill="#EDF0F4"/>
<path d="M111.923 58.4893C114.478 59.2921 117.033 59.9482 119.587 60.6046C120.173 60.7511 120.753 60.8975 120.9 61.6241C120.97 62.0635 120.683 62.2804 120.314 62.503C117.103 64.3312 113.962 66.2296 110.458 68.2686V59.5851C110.388 58.4132 110.828 58.12 111.923 58.4893Z" fill="#EDF0F4"/>
<path d="M111.736 70.6067C116.412 73.4544 121.082 76.2317 125.829 78.9329C126.995 79.5893 127.071 80.0989 126.414 81.1947C124.299 84.5521 122.401 87.9858 120.426 91.4194C119.916 92.3687 119.547 92.8082 118.528 91.7828C112.902 86.2338 107.283 80.7553 101.371 74.9894H101.342C104.26 73.3079 106.674 71.9952 109.035 70.5363C109.856 69.9738 110.945 70.0031 111.736 70.6067Z" fill="#EDF0F4"/>
<path d="M96.5488 52.1376C100.68 47.9011 104.77 43.6647 108.86 39.4343C109.076 39.5807 109.223 39.7272 109.446 39.8737L109.475 55.2783C109.475 56.3739 109.035 56.6669 108.086 56.3739C104.143 55.2783 100.129 54.1825 95.9629 53.0165C96.1328 52.7001 96.3263 52.4071 96.5488 52.1376Z" fill="#EDF0F4"/>
<path d="M95.6408 54.2529C99.2911 55.2022 103.018 56.1515 106.668 57.171V57.6806C103.75 58.4835 100.756 59.2863 97.7619 60.1652C95.2774 60.7511 93.8184 58.6299 91.92 57.7569C91.7735 57.6865 91.7031 57.3175 91.7031 57.171C91.7735 56.3682 94.8379 54.0362 95.6408 54.2529Z" fill="#EDF0F4"/>
<path d="M93.0842 53.3739C90.8928 56.954 90.6759 57.0244 87.5353 55.126C84.834 53.4443 81.8398 52.0614 79.3555 50.0165C84.1309 50.6024 88.5137 52.5008 93.0842 53.3739Z" fill="#EDF0F4"/>
<path d="M78.1153 52.6473C80.5997 55.1317 83.1544 57.6104 85.4925 60.2412C86.7346 61.7002 84.6897 61.9931 84.2502 62.7959C83.8868 63.4523 83.3713 63.5284 82.9377 62.7257C81.1095 59.5146 79.2872 56.374 77.459 53.1631C77.6817 53.0107 77.8984 52.7938 78.1153 52.6473Z" fill="#EDF0F4"/>
<path d="M74.3908 59.9482C74.2444 56.8838 74.3204 53.8896 74.3204 50.8191C74.4728 50.8017 74.6251 50.7547 74.7599 50.6726C77.0979 54.7626 79.4358 58.8526 81.7678 63.0128C82.2777 63.8154 82.1312 64.2549 81.1819 64.4013C81.1117 64.4013 81.0354 64.4717 80.9652 64.4717C78.9201 64.9814 76.3655 66.5166 74.9768 65.7842C73.3655 64.9112 74.4611 61.9933 74.3908 59.9482Z" fill="#EDF0F4"/>
<path d="M74.1019 144.207C74.4651 140.411 74.1721 136.543 74.1721 132.231C77.0198 133.912 79.4281 135.295 81.8364 136.684C82.6392 137.194 82.4223 137.779 82.1997 138.436C81.0336 142.672 79.938 146.909 78.6957 151.579C76.5863 149.246 73.7385 148.004 74.1019 144.207Z" fill="#EDF0F4"/>
<path d="M74.3958 149.03C75.5618 150.196 76.6574 151.291 77.7532 152.317C78.4095 152.903 78.1926 153.483 77.9701 154.145C77.6771 155.165 76.9505 154.438 76.5109 154.362C73.7395 153.776 73.4465 153.19 74.3958 149.03Z" fill="#EDF0F4"/>
<path d="M74.1719 168.161C74.1015 168.161 74.0254 168.091 73.955 168.091C73.955 163.784 73.955 159.547 73.8848 155.311C74.1015 155.241 74.2479 155.094 74.3242 155.094C77.5351 155.751 77.4649 155.827 76.6621 158.891C75.8536 161.95 74.9804 165.09 74.1719 168.161Z" fill="#EDF0F4"/>
<path d="M75.4883 167.575C76.4376 164.141 77.3165 160.637 78.336 157.209C78.9219 155.094 80.3809 156.846 81.2539 156.917C82.7131 157.133 81.6936 158.083 81.4004 158.598C79.8654 161.299 78.336 163.93 76.7247 166.632C76.4376 167.065 76.3613 167.645 75.4883 167.575Z" fill="#EDF0F4"/>
<path d="M75.5605 171.149C78.0451 166.766 80.5236 162.313 83.0079 157.86C85.2697 159.688 86.9514 161.727 88.9202 163.772C84.3908 166.327 80.2306 169.104 75.707 171.296L75.5605 171.149Z" fill="#EDF0F4"/>
<path d="M78.8477 171.296C81.9883 168.741 85.5626 166.913 89.0725 165.09C90.9709 164.212 91.4104 166.772 93.3088 167.792C87.9767 169.034 83.5938 170.715 78.8477 171.296Z" fill="#EDF0F4"/>
<path d="M94.9864 167.352C94.254 167.282 91.2598 164.721 91.2598 164.211C91.2129 164.065 91.2363 163.901 91.33 163.772C91.623 163.186 96.2228 160.995 96.879 161.071C99.2872 161.364 99.1408 163.772 100.166 165.231C100.459 165.67 100.096 166.034 99.7267 166.11C98.1271 166.549 96.5217 166.989 94.9864 167.352Z" fill="#EDF0F4"/>
<path d="M100.096 161.95C102.58 162.606 104.695 163.192 107.033 163.778C102.287 166.186 101.414 165.969 100.096 161.95Z" fill="#EDF0F4"/>
<path d="M96.4416 169.62C95.4221 168.741 95.4923 168.378 96.881 168.014C100.895 166.919 100.895 166.848 102.647 170.569C104.035 173.563 105.494 176.557 106.883 179.552C103.379 176.118 99.8752 172.831 96.4416 169.62Z" fill="#EDF0F4"/>
<path d="M109 175.315V180.278C108.854 180.278 108.783 180.348 108.637 180.348C106.668 176.258 104.693 172.098 102.648 168.008C102.139 166.913 102.285 166.549 103.527 166.18C109.076 164.575 109.076 164.499 109.076 170.34C109.076 172.028 109 173.634 109 175.315Z" fill="#EDF0F4"/>
<path d="M109.29 158.153C109.29 163.338 109.29 163.338 104.327 162.02C102.868 161.657 101.409 161.217 99.9441 160.854C99.3582 160.707 98.9246 160.414 98.8483 159.834C98.7781 159.248 99.2878 159.102 99.6512 158.885C102.352 157.28 105.13 155.745 107.831 154.069C109.22 153.19 109.366 153.852 109.29 155.018V158.153Z" fill="#EDF0F4"/>
<path d="M108.16 150.782C103.414 147.934 98.6676 145.157 93.8511 142.385C92.9722 141.875 92.6851 141.436 93.2651 140.487C95.603 136.619 97.7944 132.746 100.203 128.656C106.045 134.498 111.635 140.117 117.359 145.742C118.015 146.399 118.092 146.692 117.213 147.201C115.021 148.367 112.906 149.686 110.715 150.928C109.912 151.391 108.904 151.338 108.16 150.782Z" fill="#EDF0F4"/>
<path d="M122.877 169.544C118.934 173.704 114.92 177.794 110.977 181.954L110.32 181.515C110.32 176.329 110.32 171.149 110.25 165.887C110.25 164.868 110.76 164.792 111.562 165.008C115.289 166.028 119.01 167.124 122.736 168.073C124.266 168.448 123.387 169.034 122.877 169.544Z" fill="#EDF0F4"/>
<path d="M123.826 167.212C120.246 166.262 116.596 165.243 113.021 164.294C113.08 164.129 113.104 163.954 113.092 163.784C116.086 162.981 119.18 162.032 122.221 161.376C124.559 160.866 125.947 162.911 127.846 163.784C127.94 163.966 127.987 164.165 127.992 164.37C127.84 165.313 124.776 167.428 123.826 167.212Z" fill="#EDF0F4"/>
<path d="M139.668 171.442C135.361 170.276 131.055 169.18 126.742 168.008C128.277 164.721 129.15 164.428 132.074 166.18L139.961 170.78C139.832 170.991 139.739 171.214 139.668 171.442Z" fill="#EDF0F4"/>
<path d="M140.287 169.766C137 167.798 133.789 165.823 130.139 163.708C130.766 163.198 131.205 162.975 131.451 162.612C132.4 161.299 133.133 161.446 134.229 162.612C135.834 164.44 137.662 166.046 139.338 167.798C139.848 168.301 140.651 168.671 140.287 169.766Z" fill="#EDF0F4"/>
<path d="M141.567 168.594C139.083 166.186 136.751 163.778 134.483 161.364C133.095 159.758 135.069 159.395 135.649 158.663C136.452 157.42 136.815 158.733 137.108 159.249L141.269 166.479C141.802 167.059 141.919 167.897 141.567 168.594Z" fill="#EDF0F4"/>
<path d="M145.362 170.569C145.216 170.639 145.145 170.639 144.999 170.716C142.661 166.702 140.352 162.612 137.991 158.522C137.481 157.643 137.552 157.21 138.647 156.987C140.839 156.477 143.03 155.821 145.362 155.235V170.569Z" fill="#EDF0F4"/>
<path d="M139.812 155.305C141.641 153.553 143.61 151.655 145.361 149.903C145.584 154.725 145.068 155.235 139.812 155.305Z" fill="#EDF0F4"/>
<path d="M144.78 147.787C142.225 150.565 139.594 153.412 136.746 156.477C134.338 152.241 132.363 148.666 130.031 144.723C135.141 145.162 139.817 145.455 144.416 145.889C146.022 146.036 145.442 147.055 144.78 147.787Z" fill="#EDF0F4"/>
<path d="M145.466 92.439C145.395 97.6949 145.395 102.881 145.395 108.137C145.466 109.672 145.102 110.398 143.28 110.328C139.413 110.111 135.54 110.258 131.672 110.258C130.723 110.258 130.213 110.187 130.506 109.015C132.622 101.281 134.737 93.5465 136.852 85.6655C139.471 87.1186 141.874 88.5015 144.229 90.0307C145.091 90.5053 145.583 91.4605 145.466 92.439Z" fill="#EDF0F4"/>
<path d="M145.659 78.2766C145.219 81.7103 145.588 85.2143 145.588 89.1577C142.741 87.5522 140.362 86.0932 137.924 84.7749C137.924 84.7749 137.918 84.7749 137.918 84.769C137.414 84.5463 137.192 83.9603 137.414 83.4565C138.657 79.0736 139.823 74.6204 141.065 69.9504C143.831 72.2122 146.168 74.2571 145.659 78.2766Z" fill="#EDF0F4"/>
<path d="M145.217 72.9445C144.004 71.4856 143.102 70.3137 142.076 69.2179C141.59 68.7374 141.473 67.9991 141.783 67.3897C142.147 66.5108 142.803 66.9503 143.318 67.0265C146.02 67.5421 146.242 68.1984 145.217 72.9445Z" fill="#EDF0F4"/>
<path d="M144.74 66.2296C143.937 65.8664 142.039 66.593 142.549 64.5479C143.498 60.8975 144.517 57.3174 145.467 53.6669H145.801C145.801 57.4639 145.801 61.1905 145.759 64.9815C145.759 65.6437 146.052 66.8859 144.74 66.2296Z" fill="#EDF0F4"/>
<path d="M177.349 106.9C177.279 106.971 177.279 107.117 177.203 107.193C173.845 105.295 170.412 103.613 167.271 101.498C165.665 100.332 167.634 98.6501 167.634 97.2614C170.927 100.472 174.138 103.683 177.349 106.9Z" fill="#EDF0F4"/>
<path d="M146.754 114.125C147.773 112.01 149.238 110.474 152.156 111.424C154.963 111.424 157.922 111.494 160.992 111.424C162.158 111.424 162.381 111.863 162.158 112.959C161.719 115.004 161.063 116.393 158.578 116.826C155.074 117.482 151.57 118.578 148.066 119.603C146.824 119.967 146.168 119.75 146.385 118.361C146.607 116.973 146.021 115.514 146.754 114.125Z" fill="#EDF0F4"/>
<path d="M146.609 75.8625C149.604 78.7806 152.305 81.3412 155.082 84.0425C152.674 85.431 150.336 86.7435 147.998 88.0562C147.049 88.5658 146.609 88.4956 146.609 87.3238V75.8625Z" fill="#EDF0F4"/>
<path d="M154.707 85.5775C155.586 85.0678 155.803 85.3608 156.02 86.2339C156.676 88.8647 157.479 91.4898 158.135 94.1207C158.393 94.7007 158.24 95.3805 157.772 95.8024C157.186 96.1656 156.822 95.5855 156.383 95.3629C153.318 93.6812 150.248 91.9293 146.961 90.0307C149.744 88.4252 152.229 87.0365 154.707 85.5775Z" fill="#EDF0F4"/>
<path d="M162.187 81.4172C164.742 79.9583 167.297 78.5695 169.851 77.1106C169.998 77.0403 170.144 77.1106 170.801 77.1106H170.771C167.994 81.1243 165.439 84.8509 162.99 88.5014C162.48 89.3041 162.187 89.3041 161.455 88.6479C156.861 84.4056 156.785 84.4818 162.187 81.4172Z" fill="#EDF0F4"/>
<path d="M159.313 98.9372C160.332 102.371 161.211 105.799 162.09 109.232C162.453 110.398 161.58 110.252 160.924 110.252H149.316C152.235 106.092 154.795 102.365 157.203 98.568C158.147 97.2613 158.949 97.7712 159.313 98.9372Z" fill="#EDF0F4"/>
<path d="M160.995 122.228C160.925 120.547 161.651 119.088 162.014 117.629C162.161 116.973 162.747 116.75 163.403 116.68C164.282 116.609 164.282 117.336 164.423 117.846C165.302 120.33 164.862 120.916 160.995 122.228Z" fill="#EDF0F4"/>
<path d="M146.608 121.795C147.85 119.533 151.717 119.967 154.418 119.094C156.463 118.437 158.508 117.998 160.846 117.412C160.336 119.31 159.897 120.846 159.533 122.451C159.358 123.195 158.842 123.816 158.145 124.133C156.463 125.012 154.858 125.961 153.182 126.91C151.067 128.152 148.875 129.318 146.537 130.637L146.608 121.795Z" fill="#EDF0F4"/>
<path d="M158.797 125.076C157.777 128.943 156.828 132.377 155.879 135.811C155.586 136.83 154.93 136.25 154.49 135.957C152.152 134.645 149.891 133.256 147.189 131.651C151.133 129.389 154.707 127.344 158.797 125.076Z" fill="#EDF0F4"/>
<path d="M159.822 125.662C160.115 124.496 163.912 121.572 164.932 121.648C165.131 121.689 165.307 121.789 165.442 121.941C166.537 123.183 166.391 126.324 165.225 127.49C163.18 129.535 161.135 131.58 159.09 133.549C158.65 133.912 158.287 134.498 157.408 134.281C158.211 131.287 159.014 128.439 159.822 125.662Z" fill="#EDF0F4"/>
<path d="M165.77 118.508C165.699 117.705 164.674 116.463 165.987 116.023C169.338 115.004 172.684 113.984 176.323 113.832C173.112 115.584 169.971 117.406 166.789 119.158C166.063 119.603 165.84 119.017 165.77 118.508Z" fill="#EDF0F4"/>
<path d="M165.807 114.781C163.979 115.22 164.495 113.322 164.202 112.443C163.762 111.201 164.934 111.424 165.59 111.424H177.344C177.362 111.535 177.415 111.635 177.491 111.717C173.624 112.736 169.751 113.832 165.807 114.781Z" fill="#EDF0F4"/>
<path d="M163.109 108.576C162.23 105.219 161.504 102.441 160.625 99.2301C165.594 101.785 165.594 101.785 163.109 108.576Z" fill="#EDF0F4"/>
<path d="M164.708 100.179C163.279 99.4879 161.913 98.6851 160.619 97.7712C160.56 97.7301 160.507 97.6891 160.455 97.6421C159.529 96.863 159.406 95.4859 160.185 94.5542C160.624 93.8981 161.064 93.312 161.427 92.6558C162.083 91.2671 162.74 91.56 163.542 92.5093C164.562 93.7514 165.951 94.7007 166.753 95.943C166.39 97.3316 166.097 98.4977 165.734 99.8102C165.587 100.326 165.224 100.472 164.708 100.179Z" fill="#EDF0F4"/>
<path d="M167.196 94.1911C166.979 94.1207 166.756 94.1207 166.686 94.0446C162.819 90.5406 162.819 90.5406 165.737 86.3041C167.342 84.0425 168.877 81.7748 170.483 79.5131C170.7 79.5835 170.922 79.7299 171.139 79.806C169.827 84.5522 168.584 89.3746 167.196 94.1911Z" fill="#EDF0F4"/>
<path d="M171.727 74.6965C166.395 77.6907 161.502 80.4623 156.469 83.3098C155.227 78.7806 154.06 74.3274 152.818 69.5813C159.164 71.2628 165.152 72.9445 171.727 74.6965Z" fill="#EDF0F4"/>
<path d="M152.006 71.1926C152.885 74.4797 153.758 77.8371 154.636 81.1947C154.525 81.2825 154.402 81.3588 154.273 81.4114C151.935 79.0735 149.597 76.7356 147.265 74.4739C146.756 73.8879 146.463 69.1418 146.902 68.5616C147.013 68.3859 147.207 68.2744 147.412 68.2686C149.088 67.9054 151.566 69.5109 152.006 71.1926Z" fill="#EDF0F4"/>
<path d="M146.71 63.962C147.003 60.3116 146.78 56.6611 146.78 53.0107H147.191C148.433 57.54 149.599 62.0636 150.8 66.593C151.093 67.6886 150.73 67.8351 149.634 67.6125C147.519 67.2491 146.493 66.4465 146.71 63.962Z" fill="#EDF0F4"/>
<path d="M146.393 108.576V102.88L146.54 92.8784C146.54 91.6363 146.833 91.1968 148.075 91.9292C150.56 93.4643 153.114 94.9234 155.739 96.312C156.759 96.8219 156.759 97.3315 156.179 98.2106C153.624 101.861 151.069 105.511 148.585 109.238C148.146 109.971 147.565 110.404 146.757 110.117C145.954 109.818 146.393 109.086 146.393 108.576Z" fill="#EDF0F4"/>
<path d="M146.311 143.334V132.453C149.118 134.059 151.421 135.518 153.835 136.906C154.714 137.416 154.784 137.856 154.052 138.588C152.153 140.416 150.255 142.315 148.427 144.213C148.046 144.705 147.436 144.957 146.821 144.869C145.948 144.577 146.311 143.844 146.311 143.334Z" fill="#EDF0F4"/>
<path d="M154.567 139.608C153.254 146.399 153.688 145.596 149.604 144.864C150.992 142.895 152.744 141.506 154.567 139.608Z" fill="#EDF0F4"/>
<path d="M146.968 168.448C146.822 168.448 146.605 168.378 146.458 168.378C146.458 164.651 146.529 160.854 146.388 157.133C146.318 155.452 146.751 154.578 148.503 154.432C149.318 154.291 150.126 154.098 150.912 153.846C149.523 158.885 148.287 163.702 146.968 168.448Z" fill="#EDF0F4"/>
<path d="M149.746 152.973C145.879 153.922 146.535 154.069 146.459 150.489C146.459 147.055 147.045 146.036 149.307 146.252C150.473 146.323 152.155 145.596 152.741 147.055C153.321 148.514 151.059 152.604 149.746 152.973Z" fill="#EDF0F4"/>
<path d="M168.658 148.004C163.403 149.393 158.217 150.782 152.668 152.311C153.107 150.559 153.471 149.024 153.834 147.565C154.127 146.399 155.076 146.686 155.879 146.762C160.115 147.055 164.276 147.348 168.512 147.711C168.588 147.787 168.588 147.934 168.658 148.004Z" fill="#EDF0F4"/>
<path d="M156.169 145.666C155.003 145.596 154.487 145.303 154.856 143.838C156.315 138.289 156.245 138.289 161.208 141.207L169.968 146.686C165.151 146.328 160.628 145.959 156.169 145.666Z" fill="#EDF0F4"/>
<path d="M172.022 146.328C166.766 143.188 161.943 140.34 157.344 137.639C160.631 134.352 163.772 131.141 167.129 127.93C168.658 133.842 170.264 139.83 172.022 146.328Z" fill="#EDF0F4"/>
<path d="M167.558 124.566C167.47 124.478 167.4 124.379 167.341 124.273C166.246 120.693 166.175 120.693 169.533 118.871C172.088 117.482 174.718 116.094 177.273 114.711L177.566 114.928C174.203 118.144 170.922 121.355 167.558 124.566Z" fill="#EDF0F4"/>
<path d="M179.32 110.258H165.591C164.572 110.258 163.986 110.187 164.425 108.869C165.011 107.041 165.445 105.219 165.884 103.39C166.101 102.511 166.394 102.224 167.273 102.734C171.363 105.142 175.453 107.41 179.537 109.742C179.478 109.918 179.402 110.094 179.32 110.258Z" fill="#EDF0F4"/>
</g>
<defs>
<clipPath id="clip0_4_4511">
<rect width="220" height="220" fill="white" transform="translate(0 0.5)"/>
</clipPath>
</defs>
</svg>
