<svg width="220" height="221" viewBox="0 0 220 221" fill="none" xmlns="http://www.w3.org/2000/svg">
<g clip-path="url(#clip0_4_4639)">
<path d="M110 220.5C170.751 220.5 220 171.251 220 110.5C220 49.7487 170.751 0.5 110 0.5C49.2487 0.5 0 49.7487 0 110.5C0 171.251 49.2487 220.5 110 220.5Z" fill="#EDF0F4"/>
<path d="M158.761 60.3958H60.3281V158.828H158.761V60.3958Z" fill="white"/>
<path fill-rule="evenodd" clip-rule="evenodd" d="M104.21 123.071H93.6866L93.8656 143.616H75.9688V76.3599H103.673C106.71 76.3318 109.707 77.0444 112.407 78.4359C115.033 79.7492 117.38 81.5605 119.315 83.7691C121.233 85.9682 122.769 88.4725 123.861 91.1785C124.98 93.8535 125.553 96.7258 125.543 99.6258C125.546 102.608 125.013 105.566 123.968 108.359C123.007 111.117 121.552 113.676 119.673 115.912C117.782 118.071 115.483 119.835 112.908 121.102C110.19 122.394 107.219 123.066 104.21 123.071ZM102.635 92.6102H93.6866V106.928H103.029C104.215 106.874 105.316 106.297 106.035 105.353C107.239 103.796 107.791 101.832 107.575 99.8764C107.777 97.8324 107.174 95.7903 105.892 94.1852C105.054 93.2551 103.885 92.6899 102.635 92.6102Z" fill="#2D8EFF"/>
<path fill-rule="evenodd" clip-rule="evenodd" d="M53.166 159.938V60.1453C53.166 56.5672 56.0665 53.6667 59.6446 53.6667H159.437C161.156 53.6667 162.804 54.3492 164.019 55.5642C165.233 56.7791 165.916 58.4271 165.916 60.1453V159.938C165.916 163.516 163.016 166.417 159.437 166.417H59.6446C56.0665 166.417 53.166 163.516 53.166 159.938ZM72.7809 153.209H146.23V153.137C149.78 153.137 152.669 150.28 152.708 146.73V73.2815C152.708 69.7036 149.808 66.8029 146.23 66.8029H72.7809C69.2029 66.8029 66.3022 69.7036 66.3022 73.2815V146.73C66.3022 150.308 69.2029 153.209 72.7809 153.209Z" fill="#2D8EFF"/>
<path d="M143.077 130.981H101.592V143.723H143.077V130.981Z" fill="#2D8EFF"/>
</g>
<defs>
<clipPath id="clip0_4_4639">
<rect width="220" height="220" fill="white" transform="translate(0 0.5)"/>
</clipPath>
</defs>
</svg>
