<svg width="220" height="221" viewBox="0 0 220 221" fill="none" xmlns="http://www.w3.org/2000/svg">
<g clip-path="url(#clip0_4_4645)">
<path d="M110 220.5C170.751 220.5 220 171.251 220 110.5C220 49.7487 170.751 0.5 110 0.5C49.2487 0.5 0 49.7487 0 110.5C0 171.251 49.2487 220.5 110 220.5Z" fill="#FFD81B"/>
<path d="M165 107.874C165 138.507 141.446 148.924 121.619 148.924V156.909H136.916V167.728H121.626V180.167H97.7007V167.728H83.0775V156.909H97.6732V148.82C91.3275 148.82 55 147.303 55 105.651V55.5H78.7532V107.569C78.7532 129.31 97.7695 129.109 97.7695 129.109V55.5H121.626V129.109C121.626 129.109 141.247 130.217 141.247 107.271V55.5H165V107.874Z" fill="white"/>
</g>
<defs>
<clipPath id="clip0_4_4645">
<rect width="220" height="220" fill="white" transform="translate(0 0.5)"/>
</clipPath>
</defs>
</svg>
