<svg width="220" height="221" viewBox="0 0 220 221" fill="none" xmlns="http://www.w3.org/2000/svg">
<g clip-path="url(#clip0_4_4648)">
<path d="M110 220.5C170.751 220.5 220 171.251 220 110.5C220 49.7487 170.751 0.5 110 0.5C49.2487 0.5 0 49.7487 0 110.5C0 171.251 49.2487 220.5 110 220.5Z" fill="#EDF0F4"/>
<path fill-rule="evenodd" clip-rule="evenodd" d="M102.823 183.833H116.715C104.232 163.801 91.8507 143.668 79.3684 123.637C77.4557 120.617 76.9525 117.798 78.3617 114.174C79.0663 112.463 80.4756 110.852 81.7842 109.644C81.3816 109.141 80.979 108.537 80.5764 107.933C78.563 104.812 77.1538 101.39 76.2477 97.7661C63.6648 103.906 60.8463 116.288 68.094 128.569L102.823 183.833ZM97.4878 139.743C105.642 140.649 113.191 140.649 121.244 139.743C131.109 138.635 139.968 136.32 145.404 132.696C151.141 128.972 154.967 123.032 154.967 116.087C154.967 108.034 150.034 101.793 143.29 98.1687C142.686 101.189 141.679 104.007 140.37 106.524C139.666 107.933 138.86 109.242 137.854 110.45C139.364 112.06 140.773 114.074 140.773 115.986C140.773 119.207 137.149 122.731 134.431 124.24C131.311 125.952 126.781 127.059 123.258 127.462C118.627 127.965 113.997 128.166 109.366 128.267C106.95 128.267 104.333 128.166 101.917 127.965C97.7898 127.764 93.3606 127.462 89.3341 126.355L97.4878 139.743Z" fill="#020202"/>
<path fill-rule="evenodd" clip-rule="evenodd" d="M109.87 37.1667C122.352 57.6014 118.023 69.7817 116.312 77.432C113.695 89.3103 128.694 93.2363 129.801 79.4454C130.103 76.2242 129.902 72.4996 129.7 68.9763C145.102 93.7395 135.035 116.087 109.87 116.087C88.7303 116.087 76.8519 96.7594 85.207 77.5327C84.3009 87.6998 91.448 91.0216 90.2402 86.2905C89.9381 85.0825 89.3342 83.0693 88.8309 78.9419C86.9182 59.212 111.178 54.1787 109.87 37.1667Z" fill="#EA7437"/>
</g>
<defs>
<clipPath id="clip0_4_4648">
<rect width="220" height="220" fill="white" transform="translate(0 0.5)"/>
</clipPath>
</defs>
</svg>
