<svg width="220" height="221" viewBox="0 0 220 221" fill="none" xmlns="http://www.w3.org/2000/svg">
<g clip-path="url(#clip0_4_4652)">
<path d="M110 220.5C170.751 220.5 220 171.251 220 110.5C220 49.7487 170.751 0.5 110 0.5C49.2487 0.5 0 49.7487 0 110.5C0 171.251 49.2487 220.5 110 220.5Z" fill="#EDF0F4"/>
<path fill-rule="evenodd" clip-rule="evenodd" d="M162.447 101.184V144.799C162.56 148.451 161.673 152.065 159.88 155.249C158.287 157.637 156.067 159.54 153.464 160.749C150.623 162.214 147.492 163.028 144.297 163.133H77.0138C73.8354 162.923 70.7251 162.115 67.8471 160.749C65.2964 159.534 63.1371 157.629 61.6138 155.249C59.5553 152.096 58.5301 148.379 58.6805 144.616V100.983C58.717 93.6031 62.4298 86.7274 68.5805 82.6493L99.3805 62.4826C106.247 58.0614 115.064 58.0614 121.93 62.4826L129.63 67.616V63.0326C129.605 62.004 130.002 61.0099 130.73 60.2823C131.458 59.5546 132.452 59.1573 133.48 59.1826H139.53C141.66 59.1927 143.38 60.9217 143.38 63.051V76.801L152.547 82.851C158.632 86.9884 162.325 93.8268 162.447 101.184ZM129.264 92.9343C129.334 96.7757 127.728 100.457 124.864 103.018C123.319 104.357 121.59 105.468 119.73 106.318L97.1805 113.834C83.7971 118.234 77.1971 125.934 74.0805 131.618C73.5156 132.682 73.0256 133.785 72.6138 134.918C72.6138 135.009 72.568 135.055 72.5221 135.101C72.4763 135.147 72.4305 135.193 72.4305 135.284V101.184C72.522 98.4735 73.8794 95.9624 76.0971 94.401L106.897 74.2343C109.086 72.872 111.859 72.872 114.047 74.2343L129.264 84.3176V92.9343ZM148.514 145.551C148.425 147.61 146.724 149.229 144.664 149.218H88.1971C86.0679 149.208 84.3471 147.479 84.3471 145.349V144.066C84.5543 142.006 85.178 140.01 86.1805 138.199C88.9305 133.066 94.0638 129.399 101.397 126.833L123.947 119.316C127.442 118.013 130.672 116.088 133.48 113.633C139.566 108.539 143.117 101.035 143.197 93.0993L144.847 94.1993C147.09 95.7388 148.454 98.2633 148.514 100.983V145.533V145.551Z" fill="#38A6FA"/>
</g>
<defs>
<clipPath id="clip0_4_4652">
<rect width="220" height="220" fill="white" transform="translate(0 0.5)"/>
</clipPath>
</defs>
</svg>
