<svg width="220" height="221" viewBox="0 0 220 221" fill="none" xmlns="http://www.w3.org/2000/svg">
<g clip-path="url(#clip0_4_4655)">
<path d="M110 220.5C170.751 220.5 220 171.251 220 110.5C220 49.7487 170.751 0.5 110 0.5C49.2487 0.5 0 49.7487 0 110.5C0 171.251 49.2487 220.5 110 220.5Z" fill="#EDF0F4"/>
<path fill-rule="evenodd" clip-rule="evenodd" d="M86.5861 92.1507C86.3916 93.7836 86.1972 95.4943 86.0806 97.205C83.1258 99.2657 80.3654 101.365 77.7993 103.465C76.4774 104.553 75.1945 105.642 73.9892 106.769C64.5028 97.0884 60.4594 88.3795 63.0642 83.9084C65.3581 79.9427 73.0561 78.8152 83.8645 80.9536C84.2922 79.0875 84.7197 77.299 85.2252 75.5884C72.1231 72.9445 62.1312 74.6941 58.3599 81.1868C57.349 82.8975 56.8435 84.8416 56.8435 86.902V87.0966C56.9215 96.3109 65.9801 108.635 81.104 120.26C82.6593 121.466 84.3311 122.671 86.0418 123.876C86.3527 127.647 86.8193 131.263 87.4025 134.645C87.6745 136.162 87.9468 137.639 88.2577 139.078C75.1556 142.46 65.6303 141.605 63.0254 137.134C60.7315 133.168 63.6085 125.898 70.8401 117.616L67.0688 113.651C58.1267 123.759 54.5497 133.362 58.321 139.894C60.9649 144.482 66.6799 146.659 74.3781 146.659C82.1149 146.659 91.8347 144.443 102.487 140.127C102.76 140.011 103.032 139.894 103.343 139.777C105.209 139 107.075 138.183 108.98 137.289C109.058 137.25 109.136 137.211 109.214 137.173C112.596 138.728 115.94 140.127 119.244 141.333C120.683 141.877 122.121 142.344 123.521 142.81C119.905 155.873 114.384 163.727 109.214 163.727C104.626 163.727 99.7659 157.584 96.2279 147.087C94.4395 147.709 92.69 148.253 90.9404 148.72C95.217 161.394 101.71 169.17 109.214 169.17C120.138 169.17 128.847 152.763 131.841 128.853C132.036 127.22 132.191 125.509 132.346 123.837C135.418 121.699 138.295 119.483 140.978 117.228C141.133 117.111 141.289 116.994 141.444 116.839C142.455 115.983 143.427 115.128 144.399 114.234C153.924 123.876 157.968 132.624 155.363 137.095C153.224 140.788 146.187 142.032 136.546 140.438C135.884 140.322 135.262 140.205 134.601 140.089C134.174 141.916 133.746 143.665 133.241 145.376C134.057 145.531 134.874 145.687 135.651 145.804C138.723 146.309 141.561 146.581 144.166 146.581C151.98 146.581 157.54 144.287 160.106 139.855C163.527 133.946 161.039 125.353 153.069 115.711C148.948 110.696 143.583 105.642 137.362 100.821C135.768 99.5766 134.096 98.3714 132.424 97.1661C132.113 93.395 131.647 89.7791 131.025 86.3577C130.753 84.8416 130.48 83.3641 130.169 81.9256C132.385 81.3425 134.524 80.8759 136.584 80.5259C146.226 78.932 153.263 80.1761 155.402 83.8695C157.657 87.7575 154.896 94.8723 147.898 102.998C149.259 104.32 150.503 105.642 151.669 106.925C152.175 106.38 152.641 105.797 153.069 105.253C161 95.6109 163.527 87.0188 160.106 81.1091C156.685 75.1995 148.015 73.0613 135.69 75.1218C129.975 76.0549 123.715 77.8822 117.223 80.3704C116.95 80.487 116.717 80.5648 116.445 80.6815C114.268 81.5368 112.09 82.47 109.913 83.4807C109.719 83.5586 109.525 83.6752 109.33 83.7529C105.909 82.1588 102.526 80.7204 99.2605 79.5152C97.822 78.9709 96.3834 78.5043 94.9838 78.0377C98.5995 65.0133 104.12 57.1597 109.291 57.1597C113.879 57.1597 118.778 63.3415 122.316 73.8388C124.104 73.2556 125.854 72.7113 127.603 72.2059C123.21 59.6479 116.717 51.8333 109.175 51.8333C98.2886 51.8333 89.5409 68.2402 86.5861 92.1507ZM121.344 90.1679C121.266 90.0902 121.149 90.0513 121.072 90.0125C119.244 88.9627 117.378 87.9518 115.59 86.9798C115.745 86.902 115.901 86.8243 116.056 86.7854C118.272 85.8525 120.488 84.997 122.627 84.2584C123.366 83.9861 124.104 83.7529 124.804 83.5197C125.115 84.9582 125.387 86.3966 125.659 87.9129C125.97 89.6625 126.204 91.4509 126.437 93.2782C124.765 92.2284 123.054 91.1788 121.344 90.1679ZM92.69 88.1073C92.9622 86.5134 93.2343 84.997 93.5843 83.5197C95.0227 83.9861 96.4613 84.4527 97.9386 85.0359C99.5327 85.6191 101.166 86.28 102.837 86.9798C101.01 87.9518 99.1439 88.9627 97.3166 90.0125C97.2388 90.0513 97.1611 90.0902 97.0834 90.1679C95.3338 91.1788 93.6231 92.2284 91.9513 93.2782C92.1845 91.4898 92.4179 89.7791 92.69 88.1073ZM100.038 126.364C98.7161 125.626 97.4332 124.848 96.1891 124.07C94.4784 123.021 92.8454 121.971 91.2515 120.882C91.0182 117.578 90.9016 114.117 90.9016 110.54C90.9016 108.674 90.9404 106.847 91.0182 105.059C91.0959 103.387 91.1736 101.793 91.2904 100.199C94.0507 98.3325 96.9666 96.5052 100.038 94.7168C101.205 94.017 102.41 93.3559 103.576 92.7339C105.442 91.7232 107.308 90.79 109.175 89.8568C112.168 91.2954 115.201 92.9284 118.311 94.7168C119.633 95.4943 120.916 96.233 122.16 97.0107C123.871 98.0604 125.504 99.11 127.098 100.199C127.331 103.503 127.448 106.964 127.448 110.54C127.448 112.407 127.409 114.234 127.331 116.022C127.253 117.655 127.176 119.288 127.059 120.882C124.298 122.748 121.383 124.576 118.311 126.364C117.495 126.831 116.717 127.297 115.901 127.725C113.84 128.891 111.78 129.941 109.758 130.952C109.563 131.03 109.369 131.146 109.175 131.224C106.142 129.747 103.071 128.114 100.038 126.364ZM80.832 113.029C79.8211 112.212 78.8879 111.357 77.9549 110.54C79.2379 109.413 80.5597 108.247 81.9595 107.119C83.1258 106.186 84.3311 105.214 85.614 104.281C85.5363 105.836 85.4974 107.43 85.4974 109.024C85.4974 109.53 85.4974 110.035 85.4974 110.54C85.4974 112.679 85.5363 114.739 85.614 116.8C83.9422 115.556 82.3093 114.312 80.832 113.029ZM132.891 112.096C132.891 111.59 132.891 111.085 132.891 110.54C132.891 108.402 132.852 106.342 132.774 104.281C134.446 105.525 136.04 106.808 137.556 108.052C138.528 108.869 139.5 109.724 140.394 110.54C139.384 111.435 138.334 112.368 137.245 113.262C137.09 113.379 136.934 113.534 136.779 113.651C135.496 114.701 134.135 115.789 132.735 116.839C132.813 115.284 132.891 113.69 132.891 112.096ZM92.7288 133.168C92.4179 131.418 92.1845 129.63 91.9513 127.803C93.6231 128.853 95.295 129.863 97.0445 130.874C97.1222 130.952 97.2388 130.991 97.3166 131.03C99.1439 132.079 100.971 133.09 102.837 134.062C102.837 134.062 102.798 134.062 102.798 134.101C100.855 134.918 98.9495 135.656 97.0834 136.356C96.8111 136.473 96.5391 136.551 96.2668 136.667C95.3727 136.978 94.4784 137.289 93.5843 137.561C93.2732 136.162 93.0011 134.684 92.7288 133.168ZM120.45 136.045C118.817 135.423 117.184 134.801 115.512 134.101C115.745 133.984 115.978 133.868 116.212 133.751C117.806 132.896 119.4 132.002 121.033 131.107C121.499 130.835 121.966 130.563 122.393 130.291C123.754 129.475 125.076 128.658 126.398 127.842C126.165 129.591 125.931 131.341 125.659 132.974C125.387 134.568 125.076 136.084 124.765 137.6C123.365 137.095 121.927 136.589 120.45 136.045ZM102.176 110.54C102.176 106.691 105.326 103.542 109.175 103.542C113.024 103.542 116.173 106.691 116.173 110.54C116.173 114.39 113.024 117.539 109.175 117.539C105.326 117.539 102.176 114.39 102.176 110.54Z" fill="url(#paint0_linear_4_4655)"/>
</g>
<defs>
<linearGradient id="paint0_linear_4_4655" x1="64.4231" y1="160.233" x2="156.555" y2="163.454" gradientUnits="userSpaceOnUse">
<stop stop-color="#6B57A5"/>
<stop offset="1" stop-color="#59499E"/>
</linearGradient>
<clipPath id="clip0_4_4655">
<rect width="220" height="220" fill="white" transform="translate(0 0.5)"/>
</clipPath>
</defs>
</svg>
