<svg width="220" height="221" viewBox="0 0 220 221" fill="none" xmlns="http://www.w3.org/2000/svg">
<g clip-path="url(#clip0_4_4658)">
<path d="M32.2494 32.7494C-10.7498 75.7486 -10.7498 145.361 32.2494 188.25L187.75 32.7494C144.861 -10.2498 75.1388 -10.2498 32.2494 32.7494Z" fill="#FF6666"/>
<path d="M187.748 188.25C144.86 145.251 75.1372 145.251 32.248 188.25L187.748 32.7494C230.749 75.6386 230.749 145.361 187.748 188.25Z" fill="#DA5F5A"/>
<path d="M109.997 180.992C148.807 180.992 180.269 149.432 180.269 110.5C180.269 71.568 148.807 40.0074 109.997 40.0074C71.1866 40.0074 39.7246 71.568 39.7246 110.5C39.7246 149.432 71.1866 180.992 109.997 180.992Z" fill="#FFF4C7"/>
<path d="M187.748 188.25C144.86 231.251 75.1372 231.251 32.248 188.25C75.1372 145.361 144.86 145.361 187.748 188.25Z" fill="#FFF4C7"/>
<path d="M110.004 170.545C143.166 170.545 170.049 143.662 170.049 110.5C170.049 77.3382 143.166 50.4552 110.004 50.4552C76.842 50.4552 49.959 77.3382 49.959 110.5C49.959 143.662 76.842 170.545 110.004 170.545Z" fill="#F7931A"/>
<path fill-rule="evenodd" clip-rule="evenodd" d="M125.396 87.8455C133.644 90.7048 139.802 94.9937 138.593 103.022C137.713 108.85 134.523 111.71 130.345 112.589C136.283 115.669 139.252 120.397 136.393 128.535C132.764 138.763 124.296 139.533 113.079 137.443L110.33 148.33L103.731 146.681L106.48 135.904C105.307 135.684 104.135 135.366 102.961 135.048C102.375 134.889 101.788 134.73 101.202 134.584L98.4525 145.471L91.8541 143.822L94.6036 132.824C93.7261 132.574 92.8489 132.359 91.9513 132.139C91.2737 131.973 90.5844 131.804 89.8747 131.614L81.2969 129.525L84.596 121.937C84.596 121.937 89.5447 123.257 89.4349 123.147C91.1943 123.587 92.0741 122.377 92.4041 121.607L96.693 104.341C96.913 104.451 97.1328 104.561 97.3528 104.561C97.1328 104.451 96.9128 104.341 96.693 104.341L99.7723 92.0244C99.8821 90.5948 99.3323 88.8353 96.693 88.1755C96.803 88.0655 91.8541 86.9657 91.8541 86.9657L93.6138 79.9275L102.741 82.237C104.061 82.5668 105.491 82.8968 106.92 83.2266L109.67 72.4493L116.268 74.099L113.629 84.7662C115.388 85.0962 117.148 85.536 118.907 85.976L121.547 75.4186L128.145 77.0682L125.396 87.8455ZM125.616 102.912C123.93 109.655 114.465 107.188 109.879 105.993C109.38 105.863 108.937 105.748 108.57 105.661L111.869 92.4644C112.303 92.5826 112.856 92.7104 113.49 92.8569C118.165 93.9364 127.262 96.0368 125.616 102.912ZM123.526 124.137C121.616 131.577 109.96 128.537 104.531 127.121C104.022 126.989 103.568 126.87 103.181 126.776L106.81 112.259C107.332 112.399 107.986 112.552 108.731 112.727C114.43 114.062 125.471 116.648 123.526 124.137Z" fill="white"/>
</g>
<defs>
<clipPath id="clip0_4_4658">
<rect width="220" height="220" fill="white" transform="translate(0 0.5)"/>
</clipPath>
</defs>
</svg>
