<svg width="220" height="221" viewBox="0 0 220 221" fill="none" xmlns="http://www.w3.org/2000/svg">
<g clip-path="url(#clip0_4_4665)">
<path d="M110 220.5C170.751 220.5 220 171.251 220 110.5C220 49.7487 170.751 0.5 110 0.5C49.2487 0.5 0 49.7487 0 110.5C0 171.251 49.2487 220.5 110 220.5Z" fill="#EDF0F4"/>
<path d="M66.2867 112.508L55 149.805H79.2444L90.5311 112.508H66.2867Z" fill="#1E69FF"/>
<path d="M140.188 70.1667H110.111L102.513 94.9787H129.531C134.323 94.9787 137.098 98.9196 135.616 103.743C134.134 108.567 128.995 112.508 124.172 112.508H97.1212L96.6169 114.116L89.5547 137.32H119.632C138.138 137.32 157.811 122.25 163.455 103.775C169.129 85.2052 158.694 70.1667 140.188 70.1667Z" fill="#1E69FF"/>
<path d="M103.485 70.1667H79.2091L71.6426 94.9787H95.9187L103.485 70.1667Z" fill="#1E69FF"/>
</g>
<defs>
<clipPath id="clip0_4_4665">
<rect width="220" height="220" fill="white" transform="translate(0 0.5)"/>
</clipPath>
</defs>
</svg>
