<svg width="220" height="221" viewBox="0 0 220 221" fill="none" xmlns="http://www.w3.org/2000/svg">
<g clip-path="url(#clip0_4_4670)">
<path d="M110 220.5C170.751 220.5 220 171.251 220 110.5C220 49.7487 170.751 0.5 110 0.5C49.2487 0.5 0 49.7487 0 110.5C0 171.251 49.2487 220.5 110 220.5Z" fill="#181818"/>
<path fill-rule="evenodd" clip-rule="evenodd" d="M115.015 97.3L158.751 53.476L167.639 62.452L123.903 106.188L115.015 97.3ZM52.2715 159.956L96.0955 116.132L104.983 125.108L61.2475 168.844L52.2715 159.956ZM123.903 116.132L115.015 125.108L158.751 168.844L167.727 159.956L123.903 116.132ZM52.2715 62.452L61.2475 53.476L104.983 97.212L96.0955 106.188L52.2715 62.452ZM109.999 102.14L101.023 111.116L109.999 120.092L118.975 111.116L109.999 102.14Z" fill="#F6D30C"/>
</g>
<defs>
<clipPath id="clip0_4_4670">
<rect width="220" height="220" fill="white" transform="translate(0 0.5)"/>
</clipPath>
</defs>
</svg>
