<svg width="220" height="221" viewBox="0 0 220 221" fill="none" xmlns="http://www.w3.org/2000/svg">
<g clip-path="url(#clip0_4_4673)">
<path d="M110 220.5C170.751 220.5 220 171.251 220 110.5C220 49.7487 170.751 0.5 110 0.5C49.2487 0.5 0 49.7487 0 110.5C0 171.251 49.2487 220.5 110 220.5Z" fill="#EDF0F4"/>
<path d="M110 193C155.563 193 192.5 156.063 192.5 110.5C192.5 64.9365 155.563 28 110 28C64.4365 28 27.5 64.9365 27.5 110.5C27.5 156.063 64.4365 193 110 193Z" fill="#1347E8"/>
<path fill-rule="evenodd" clip-rule="evenodd" d="M110.688 54.125C79.1734 54.125 53.625 79.6734 53.625 111.188C53.625 142.702 79.1734 168.25 110.688 168.25C142.202 168.25 167.75 142.702 167.75 111.188C167.75 79.6734 142.202 54.125 110.688 54.125ZM164.845 108.853L160.228 108.9L160.207 106.965L164.829 106.923L164.85 108.853H164.845ZM163.393 96.9634L163.661 98.8776L159.082 99.5156L158.817 97.5963L163.393 96.9634ZM159.72 86.7284L160.519 88.4921L156.312 90.4012L155.513 88.6426L159.714 86.7284H159.72ZM155.227 79.3881L153.951 77.9356L150.481 80.9859L151.752 82.4384L155.227 79.3881ZM147.181 70.7095L148.644 71.9752L145.63 75.4716L144.163 74.211L147.181 70.7095ZM140.733 65.2315L139.115 64.1784L136.599 68.0587L138.218 69.1064L140.733 65.2315ZM129.933 59.6498L131.806 60.1425L130.633 64.6089L128.761 64.1161L129.938 59.6549L129.933 59.6498ZM121.768 57.3256L119.843 57.17L119.46 61.7715L121.384 61.9322L121.768 57.3256ZM109.396 55.951H111.326V60.573H109.396V55.951ZM101.2 61.7715L100.816 57.17L98.886 57.3309L99.2699 61.9374L101.2 61.7715ZM90.7209 59.6498L91.8933 64.1161L90.0257 64.6089L88.8481 60.1477L90.7157 59.6498H90.7209ZM84.06 68.0587L81.5441 64.1784L79.9205 65.2315L82.4364 69.1064L84.06 68.0587ZM73.4776 70.7147L76.4914 74.211L75.0286 75.4716L72.0146 71.9752L73.4776 70.7095V70.7147ZM70.1886 80.9754L66.713 77.9253V77.9305L65.437 79.383L68.9073 82.428L70.1886 80.9754ZM60.9497 86.7233L65.1517 88.6375L64.3579 90.4012L60.1509 88.4819L60.9497 86.7233ZM61.8525 97.5911L57.2719 96.9583V96.9529L57.0073 98.8725L61.5826 99.5104L61.8525 97.5911ZM55.84 106.918L60.4569 106.96L60.4413 108.895L55.8244 108.848L55.84 106.918ZM60.8615 117.303L56.2654 117.77L56.4573 119.69L61.0535 119.223L60.8615 117.303ZM58.3559 127.596L62.8588 126.548L63.2997 128.431L58.797 129.479L58.3559 127.596ZM62.4386 137.654L63.393 139.335L67.4082 137.042L66.4484 135.361L62.4386 137.654ZM69.9396 147.567L68.5338 146.239L71.7138 142.883L73.1144 144.211L69.9396 147.567ZM75.7601 153.02L77.3318 154.14L80.0138 150.379L78.4419 149.253L75.7601 153.02ZM85.9639 159.903L84.2519 159.006L86.3997 154.918L88.1115 155.816L85.9639 159.903ZM93.6051 163.254L95.5141 163.576L96.2766 159.021L94.3675 158.7L93.6051 163.254ZM103.861 165.143L103.824 160.521L105.759 160.5L105.796 165.122L103.861 165.143ZM110.688 63.1512C84.2001 63.1512 62.6512 84.7001 62.6512 111.188C62.6512 137.675 84.2001 159.224 110.688 159.224C137.175 159.224 158.724 137.675 158.724 111.188C158.724 84.7001 137.175 63.1512 110.688 63.1512ZM114.454 165.558L114.391 165.563L113.971 160.967L115.896 160.79L115.958 160.78L116.378 165.381L114.454 165.558ZM123.947 158.84L124.751 163.389L126.655 163.057L125.851 158.503L123.947 158.84ZM134.576 159.997L132.994 155.655L134.809 154.996L136.392 159.338L134.576 159.997ZM140.443 151.022L143.296 154.654V154.648L144.816 153.45L141.958 149.819L140.443 151.022ZM150.735 147.407L147.415 144.201L148.753 142.805L152.073 146.022L150.735 147.407ZM153.08 136.876L156.815 139.599L157.956 138.033L154.221 135.315L153.08 136.876ZM161.753 130.314L157.385 128.789L158.023 126.963L162.386 128.488L161.753 130.309V130.314ZM159.86 119.576L164.477 119.783L164.565 117.854L159.948 117.641L159.86 119.576ZM129.031 135.735H129.025C129.798 136.565 129.819 137.83 129.056 138.588C128.294 139.34 127.033 139.304 126.209 138.515V138.52L124.766 137.068L121.488 133.743C119.36 134.757 117.016 135.233 114.661 135.128H105.645C97.4802 135.429 89.9375 131.351 90.5496 118.092C90.5645 117.693 90.5394 113.9 90.524 111.584C90.5179 110.675 90.5133 109.993 90.5133 109.834L90.5289 104.48C90.5133 91.252 93.7451 85.2552 102.657 83.1335C103.669 82.8896 109.183 82.7705 110.236 82.7705H110.708C111.766 82.7705 116.632 82.8896 117.644 83.1335C126.556 85.2552 129.788 91.252 129.772 104.48L129.788 109.839C129.788 109.986 129.784 110.582 129.779 111.391C129.764 113.68 129.738 117.683 129.757 118.097C130.089 125.256 128.034 128.369 124.792 131.45L127.594 134.277L129.031 135.735ZM118.277 130.485C117.291 130.776 116.269 130.921 115.237 130.921C115.097 130.921 114.957 130.921 114.817 130.91H105.567L105.49 130.916L105.069 130.926C103.129 130.926 100.344 130.428 98.0975 128.073C95.68 125.541 94.5232 123.425 94.7568 118.289C94.7775 117.931 94.7775 117.921 94.7412 111.478C94.7397 109.723 94.7397 107.968 94.7412 106.213C94.7448 104.61 94.7487 104.582 94.7505 104.568C94.7511 104.563 94.7514 104.56 94.7514 104.475C94.7412 98.613 95.4052 93.5189 96.8317 91.2209C97.6772 89.8514 99.1401 88.3158 103.57 87.2471C104.442 87.1175 108.903 86.9825 110.236 86.9825H110.713C112.725 86.9945 114.736 87.0827 116.741 87.2471C121.166 88.3158 122.629 89.8514 123.475 91.2209C124.901 93.5189 125.565 98.613 125.56 104.475C125.56 104.558 125.56 104.561 125.561 104.566C125.563 104.579 125.567 104.606 125.57 106.213L125.576 109.834L125.565 111.478C125.529 117.821 125.534 117.924 125.549 118.272L125.55 118.289C125.783 123.425 124.631 125.541 122.214 128.073C122.091 128.204 121.963 128.331 121.83 128.451L119.242 125.827L117.805 124.374C116.98 123.591 115.719 123.554 114.957 124.312C114.194 125.064 114.21 126.325 114.988 127.155L116.43 128.618L118.277 130.485Z" fill="white"/>
</g>
<defs>
<clipPath id="clip0_4_4673">
<rect width="220" height="220" fill="white" transform="translate(0 0.5)"/>
</clipPath>
</defs>
</svg>
