<svg width="220" height="221" viewBox="0 0 220 221" fill="none" xmlns="http://www.w3.org/2000/svg">
<g clip-path="url(#clip0_4_4677)">
<path d="M110 220.5C170.751 220.5 220 171.251 220 110.5C220 49.7487 170.751 0.5 110 0.5C49.2487 0.5 0 49.7487 0 110.5C0 171.251 49.2487 220.5 110 220.5Z" fill="#610089"/>
<path fill-rule="evenodd" clip-rule="evenodd" d="M183.722 95.9512C176.673 61.5656 147.955 37.2387 112.473 35.3528C112.092 35.3528 111.712 35.3478 111.331 35.3431C110.515 35.3326 109.699 35.3224 108.883 35.3596C105.411 35.5304 102.921 37.9767 102.824 41.2636C102.727 44.5845 105.01 47.2018 108.454 47.5844C110.034 47.7612 111.626 47.8778 113.217 47.9942C116.182 48.2114 119.144 48.4285 122.025 49.0331C151.614 55.2857 172.108 80.0089 172.779 109.987C172.869 114.06 175.269 116.684 178.935 116.684C182.677 116.69 185.381 113.923 185.154 109.823L185.143 109.625C184.89 105.049 184.635 100.424 183.722 95.9512ZM34.7091 126.134C41.1693 159.153 71.7962 184.655 105.847 185.667C106.398 185.63 106.957 185.619 107.515 185.606C108.757 185.579 110.002 185.551 111.18 185.263C113.829 184.614 115.572 181.56 115.191 178.827C114.79 175.936 112.383 173.92 109.381 173.613C108.045 173.472 106.701 173.354 105.357 173.236L105.354 173.236C101.412 172.891 97.462 172.544 93.6666 171.617C65.4466 164.743 45.7827 140.02 45.2778 111.292C45.2501 109.946 44.9527 108.47 44.3301 107.301C43.0851 104.999 40.2355 103.967 37.7869 104.595C34.8336 105.347 32.8071 107.602 33.0146 110.746C33.3534 115.891 33.7268 121.078 34.7091 126.134ZM108.973 83.1454C124.031 83.0976 136.674 95.2951 136.778 109.967C136.813 115.023 132.123 118.208 127.786 116.028C125.435 114.852 124.425 112.884 124.328 110.267C124.179 102.956 118.731 96.8094 111.415 95.6984C103.447 94.359 95.7001 99.7028 94.1508 107.609C92.567 115.686 97.6853 123.551 105.653 125.253C106.746 125.485 107.866 125.615 108.973 125.676C112.68 125.868 115.281 128.389 115.254 131.826C115.226 135.311 112.438 137.894 108.662 137.929C96.793 138.031 85.6017 129.476 82.3648 117.832C77.5301 100.441 90.7547 83.2 108.973 83.1454ZM161.137 109.92C161.163 109.535 161.187 109.164 161.228 108.819C161.16 108.181 161.098 107.57 161.039 106.977C160.917 105.772 160.803 104.64 160.654 103.509C157.438 78.5192 135.256 59.1124 109.872 59.0646C105.653 59.0508 102.873 61.4494 102.838 65.1258C102.811 68.8021 105.57 71.2075 109.727 71.4124C126.728 72.2052 138.715 80.3983 145.721 95.6709C147.838 100.297 148.675 105.245 148.723 110.342C148.758 113.691 150.909 116.137 153.931 116.629C156.836 117.094 159.811 115.495 160.71 112.734C161.011 111.821 161.077 110.831 161.137 109.92ZM57.0567 111.969C56.704 109.187 57.4234 106.447 60.6396 104.985C64.8726 103.051 69.3062 106.044 69.3892 110.957C69.4723 115.665 70.2883 120.196 72.0037 124.583C77.7122 139.429 91.9555 149.378 108.026 149.744C113.393 149.88 116.512 153.721 114.804 158.08C113.849 160.54 111.747 161.968 108.87 161.941C93.6389 161.805 80.7947 156.167 70.5235 145.117C62.0632 136.081 57.2689 124.283 57.0567 111.975V111.969ZM133.195 137.3C135.519 136.227 136.578 134.293 136.834 131.239V131.232C136.749 131.034 136.671 130.779 136.583 130.496C136.353 129.753 136.061 128.81 135.45 128.157C132.248 124.747 128.962 121.399 125.49 118.269C123.145 116.144 119.314 116.615 117.169 118.891C115.067 121.125 114.859 124.699 117.003 126.968C120.115 130.265 123.347 133.45 126.694 136.514C128.54 138.202 130.885 138.366 133.195 137.3Z" fill="white"/>
</g>
<defs>
<clipPath id="clip0_4_4677">
<rect width="220" height="220" fill="white" transform="translate(0 0.5)"/>
</clipPath>
</defs>
</svg>
