<svg width="220" height="221" viewBox="0 0 220 221" fill="none" xmlns="http://www.w3.org/2000/svg">
<g clip-path="url(#clip0_4_4680)">
<path d="M110 220.5C170.751 220.5 220 171.251 220 110.5C220 49.7487 170.751 0.5 110 0.5C49.2487 0.5 0 49.7487 0 110.5C0 171.251 49.2487 220.5 110 220.5Z" fill="#EDF0F4"/>
<path fill-rule="evenodd" clip-rule="evenodd" d="M182.971 170.601L182.92 170.528L157.648 147.684L169.668 110.539L169.705 110.429V109.468L157.406 71.2236C157.392 71.1209 157.355 71.0182 157.296 70.9229V70.8276L156.966 70.4976C156.871 70.3069 156.717 70.1676 156.519 70.0942L124.134 46.4726L123.943 46.3333H83.0217C82.7797 46.3333 82.7283 46.37 82.215 46.7366C81.973 46.9126 81.6137 47.1693 81.159 47.492C80.301 48.108 79.0468 49.0102 77.4261 50.1762C75.4903 51.5706 73.0155 53.3566 70.0384 55.5051L70.0224 55.5167L70.014 55.5227L70.0074 55.5275L66.1325 58.3237C58.0214 64.1834 49.8152 70.1162 49.7346 70.1749L49.6906 70.2116L49.067 70.8349V71.2676L36.7027 109.358L36.666 109.468V110.436L49.0744 148.637V148.644C49.067 148.908 49.1624 149.158 49.3457 149.341L49.6906 149.686L81.9877 173.051C82.1197 173.278 82.3543 173.425 82.611 173.447C82.7577 173.527 82.9263 173.571 83.095 173.571H123.694L123.84 173.425C123.928 173.403 124.016 173.373 124.09 173.322H124.119L155.529 150.558L180.39 173.124C180.551 173.278 180.749 173.395 180.962 173.469C181.394 173.601 181.849 173.601 182.282 173.469C182.568 173.366 182.81 173.168 182.957 172.897C183.213 172.589 183.346 172.2 183.331 171.797C183.338 171.371 183.213 170.953 182.971 170.601ZM155.126 108.244L156.805 81.0506L165.517 108.244H155.126ZM156.812 138.854L165.525 111.661H155.133L156.812 138.854ZM68.4645 142.477L78.9148 166.641L54.2006 148.681L68.4645 142.477ZM122.865 51.5768L106.401 74.1276L134.144 77.6184L122.865 51.5768ZM137.899 77.4277L127.449 53.2562L152.163 71.2162L137.899 77.4277ZM153.681 74.3624L139.52 80.5739L151.899 103.587L151.914 103.271L153.681 74.3624ZM54.4719 103.587L54.4572 103.286L52.6899 74.3697L61.0576 78.0657L66.8511 80.5813L54.4719 103.587ZM103.24 72.4849L119.756 49.8755H86.6225L103.24 72.4849ZM150.432 111.661L137.195 136.221L129.942 120.703L125.865 111.661H150.432ZM137.202 83.6906L125.879 108.244H150.432L137.202 83.6906ZM106.453 77.6844L134.481 81.1899L122.953 106.168L106.453 77.6844ZM122.953 113.736L109.892 136.361L106.46 142.213L134.481 138.707L122.953 113.736ZM86.3218 108.244L103.24 78.9824L111.586 93.6056L120.049 108.244H86.3218ZM103.24 140.929L120.049 111.661H86.3218L94.7774 126.299L103.24 140.929ZM96.8382 83.0599L83.535 106.161L72.0066 81.1899L99.9255 77.6844L96.8382 83.0599ZM71.9993 138.715L99.9182 142.22L83.5203 113.736L80.675 119.838L71.9993 138.715ZM56.0561 108.244L69.2858 83.6979L76.5388 99.5678L80.6017 108.244H56.0561ZM69.2858 136.214L80.609 111.661H56.0561L69.2858 136.214ZM151.906 116.296V116.369L153.681 145.535L145.313 141.839L139.52 139.323L151.906 116.296ZM78.9148 53.2635L54.2006 71.2236L68.4645 77.4277L78.9148 53.2635ZM66.8511 139.331L52.6899 145.542L54.4572 116.384L54.4646 116.296L66.8511 139.331ZM119.756 170.036L103.24 147.42L86.6225 170.036H119.756ZM152.163 148.681L127.449 166.641L137.899 142.477L152.163 148.681ZM83.5057 51.5842L72.2266 77.6257L99.9696 74.1276L83.5057 51.5842ZM40.8462 108.244L49.5586 81.0506L51.2379 108.244H40.8462ZM49.5659 138.854L51.2452 111.661H40.8462L49.5659 138.854ZM99.9696 145.777L83.5057 168.32L72.2266 142.279L99.9696 145.777ZM122.865 168.32L134.144 142.279L106.401 145.777L122.865 168.32Z" fill="#2E9AD0"/>
</g>
<defs>
<clipPath id="clip0_4_4680">
<rect width="220" height="220" fill="white" transform="translate(0 0.5)"/>
</clipPath>
</defs>
</svg>
