<svg width="220" height="221" viewBox="0 0 220 221" fill="none" xmlns="http://www.w3.org/2000/svg">
<g clip-path="url(#clip0_4_4695)">
<path d="M110 220.5C170.751 220.5 220 171.251 220 110.5C220 49.7487 170.751 0.5 110 0.5C49.2487 0.5 0 49.7487 0 110.5C0 171.251 49.2487 220.5 110 220.5Z" fill="#252525"/>
<path fill-rule="evenodd" clip-rule="evenodd" d="M177.112 146.083C178.542 146.115 179.681 147.291 179.666 148.723V161.833H136.498L136.333 150.421C136.338 149.668 136.672 148.954 137.247 148.468C137.418 148.249 137.611 148.048 137.825 147.87C156.848 134.602 164.156 109.336 155.301 87.4803C146.439 65.6246 123.868 53.2563 101.353 57.9176C78.844 62.5721 62.6398 82.9701 62.6328 106.661C62.619 122.852 70.3328 138.012 83.2646 147.19C83.5462 147.347 83.7757 147.584 83.9246 147.87C84.8836 148.318 85.4972 149.28 85.499 150.338L85.334 161.751H42.166V148.633C42.166 147.176 43.314 145.993 44.7235 145.993C46.1328 145.993 47.281 147.176 47.281 148.633V156.553H80.2948L80.3773 151.617H80.2948C61.3128 137.853 53.166 112.993 60.151 90.1683C67.1566 67.3433 87.6783 51.8333 110.882 51.8333C134.085 51.8333 154.606 67.3433 161.598 90.1683C168.59 112.993 160.443 137.853 141.455 151.617L141.544 156.636H174.558V148.723C174.542 147.291 175.681 146.115 177.112 146.083ZM177.112 146.083L177.108 146.083H177.115L177.112 146.083ZM143.022 110.498C148.715 117.737 150.447 124.206 147.972 128.462C146.075 131.783 142.032 133.57 136.168 133.57C132.485 133.48 128.828 132.938 125.278 131.955C122.06 143.195 116.856 150.435 110.916 150.435C104.976 150.435 99.7783 143.195 96.6365 131.955C93.0865 132.938 89.4292 133.48 85.7465 133.57C79.8823 133.57 75.8398 131.783 73.9423 128.462C70.8898 123.182 74.3548 114.925 82.2748 106.496C81.077 105.252 79.9479 103.944 78.8923 102.578C73.1998 95.3383 71.4673 88.9515 73.9423 84.5238C75.8398 81.2033 79.8823 79.4158 85.7465 79.4158C89.4293 79.5078 93.0868 80.0527 96.6365 81.0383C99.854 69.7976 105.058 62.5583 110.998 62.5583C116.938 62.5583 122.136 69.7976 125.278 81.1208C128.828 80.1376 132.485 79.5949 136.168 79.5053C142.032 79.5053 146.075 81.2928 147.972 84.6133C150.447 89.0408 148.715 95.4278 143.022 102.667C141.965 104.033 140.836 105.341 139.64 106.586C140.836 107.823 141.963 109.13 143.022 110.498ZM126.103 84.0978C129.422 83.2458 132.825 82.7616 136.25 82.654C139.475 82.654 143.682 83.2521 145.25 86.1465C146.982 89.2953 145.25 94.4858 140.547 100.536C139.557 101.725 138.485 103.004 137.33 104.2C134.373 101.388 131.259 98.7688 128 96.3626C127.615 92.2376 126.99 88.1403 126.103 84.0978ZM118.1 119.353C120.493 117.909 122.803 116.376 124.948 114.843C125.195 112.113 125.278 109.391 125.278 106.496C125.278 103.602 125.113 100.79 124.948 98.1503C122.72 96.5883 120.433 95.1113 118.093 93.7228C115.737 92.3802 113.343 91.1033 110.916 89.8933C108.455 91.0346 106.062 92.3133 103.738 93.7228C101.263 95.1663 99.029 96.6171 96.884 98.1503C96.6365 100.79 96.554 103.602 96.554 106.496C96.554 109.384 96.719 112.203 96.884 114.843C101.344 117.973 106.034 120.761 110.916 123.182C113.377 122.041 115.77 120.762 118.093 119.353H118.1ZM122.036 120.723L122.037 120.722L122.039 120.721C122.892 120.179 123.743 119.638 124.618 119.098C124.205 122.33 123.71 125.313 123.133 128.125C120.293 127.245 117.509 126.193 114.8 124.97C116.45 124.124 118.1 123.182 119.75 122.165C120.525 121.684 121.281 121.203 122.036 120.723ZM107.203 124.97L102.253 122.165C100.603 121.14 98.9533 120.116 97.379 119.098C97.6746 122.137 98.1696 125.148 98.864 128.125C101.697 127.231 104.481 126.18 107.203 124.97ZM93.5015 106.496C93.5129 108.455 93.5679 110.412 93.6665 112.368C91.2808 110.546 88.9915 108.58 86.819 106.496C88.9778 104.393 91.2671 102.433 93.6665 100.618L93.6572 100.838C93.578 102.719 93.5015 104.531 93.5015 106.496ZM97.379 94.0663C98.9299 92.9772 100.526 91.9542 102.164 91.0001C103.903 89.9758 105.553 89.0408 107.203 88.1883C104.488 86.9646 101.703 85.9196 98.864 85.0396C98.2865 87.8446 97.7915 90.8283 97.379 94.0663ZM119.661 91.0001C118.011 89.9758 116.361 89.0408 114.711 88.1883C117.433 86.9783 120.218 85.9333 123.05 85.0396C123.747 88.0119 124.243 91.0276 124.535 94.0663C122.961 93.0421 121.311 92.0176 119.661 91.0001ZM128.33 100.708C130.714 102.512 132.974 104.473 135.095 106.579C133.033 108.538 130.723 110.498 128.33 112.457C128.413 110.58 128.495 108.621 128.495 106.579C128.495 104.625 128.42 102.829 128.341 100.955L128.33 100.708ZM99.689 81.884C102.501 71.7571 106.791 65.7965 110.998 65.7965C115.123 65.7965 119.496 71.7571 122.308 81.8908C118.443 83.1069 114.665 84.5814 110.998 86.3046C107.327 84.5789 103.553 83.1008 99.689 81.884ZM76.7473 86.1465C74.9323 89.2953 76.6648 94.5753 81.4498 100.447C82.4398 101.718 83.5123 102.908 84.6671 104.187C87.6096 101.368 90.7171 98.7553 93.9965 96.3626C94.3746 92.2376 95.0071 88.1403 95.894 84.1046C92.5803 83.2108 89.1703 82.7296 85.7465 82.654C82.5223 82.654 78.3973 83.2521 76.7473 86.1465ZM95.894 128.882C92.5871 129.837 89.1771 130.353 85.7465 130.421C82.5223 130.421 78.3148 129.823 76.7473 126.929C74.6848 123.182 77.4898 116.376 84.5846 108.793C87.534 111.646 90.6758 114.265 93.9965 116.63C94.3755 120.749 95.0093 124.841 95.894 128.882ZM110.998 147.279C115.123 147.279 119.496 141.318 122.308 131.192C118.443 129.971 114.665 128.492 110.998 126.764C107.331 128.488 103.553 129.967 99.689 131.192C102.501 141.318 106.873 147.279 110.998 147.279ZM140.547 112.54C145.25 118.59 146.982 123.863 145.25 126.929C143.6 129.823 139.475 130.421 136.25 130.421C132.826 130.353 129.416 129.865 126.103 128.978C126.989 124.935 127.622 120.841 128 116.72C131.28 114.313 134.387 111.701 137.33 108.882C138.448 110.06 139.522 111.28 140.547 112.54ZM110.998 94.0663C117.667 94.0663 123.085 99.6146 123.133 106.496C123.133 113.351 117.75 118.913 111.108 118.926C104.467 118.94 99.0633 113.406 99.029 106.551C99.0015 99.6971 104.357 94.1076 110.998 94.0663ZM119.915 106.579C119.874 111.646 115.907 115.737 110.998 115.778C106.076 115.778 102.082 111.66 102.082 106.579C102.082 101.498 106.069 97.3871 110.998 97.3871C115.928 97.3871 119.915 101.498 119.915 106.579Z" fill="white"/>
</g>
<defs>
<clipPath id="clip0_4_4695">
<rect width="220" height="220" fill="white" transform="translate(0 0.5)"/>
</clipPath>
</defs>
</svg>
