<svg width="220" height="221" viewBox="0 0 220 221" fill="none" xmlns="http://www.w3.org/2000/svg">
<g clip-path="url(#clip0_4_4692)">
<path d="M110 220.5C170.751 220.5 220 171.251 220 110.5C220 49.7487 170.751 0.5 110 0.5C49.2487 0.5 0 49.7487 0 110.5C0 171.251 49.2487 220.5 110 220.5Z" fill="#454545"/>
<path fill-rule="evenodd" clip-rule="evenodd" d="M152.476 82.9487C157.818 91.1441 160.657 100.718 160.649 110.5C160.656 120.283 157.814 129.857 152.469 138.051L172.333 157.915L157.414 172.833L137.551 152.97C129.614 158.13 120.167 161.149 109.999 161.149C99.832 161.149 90.3851 158.13 82.448 152.97L62.5844 172.833L47.666 157.915L67.5296 138.051C62.3767 130.114 59.35 120.667 59.35 110.5C59.35 100.333 62.3697 90.8857 67.5296 82.9487L47.666 63.0851L62.5844 48.1667L82.448 68.0233C90.3851 62.8704 99.832 59.8507 109.999 59.8507C120.167 59.8507 129.614 62.8704 137.551 68.0303L157.414 48.1667L172.333 63.0851L152.476 82.9487ZM109.999 79.3334C92.8161 79.3334 78.8327 93.3167 78.8327 110.5C78.8517 127.705 92.7944 141.648 109.999 141.667C114.379 141.666 118.708 140.736 122.701 138.938L102.131 118.368L117.867 102.625L138.437 123.195C140.176 119.31 141.166 115.023 141.166 110.5C141.166 93.3167 127.183 79.3334 109.999 79.3334Z" fill="white"/>
</g>
<defs>
<clipPath id="clip0_4_4692">
<rect width="220" height="220" fill="white" transform="translate(0 0.5)"/>
</clipPath>
</defs>
</svg>
