<svg width="220" height="221" viewBox="0 0 220 221" fill="none" xmlns="http://www.w3.org/2000/svg">
<g clip-path="url(#clip0_4_4683)">
<path d="M110 220.5C170.751 220.5 220 171.251 220 110.5C220 49.7487 170.751 0.5 110 0.5C49.2487 0.5 0 49.7487 0 110.5C0 171.251 49.2487 220.5 110 220.5Z" fill="#EDF0F4"/>
<path d="M139.334 93.4566V127.282L168.667 110.4V76.5128L139.334 93.4566Z" fill="#9290B0"/>
<path d="M168.667 144.226L139.334 127.282V161.169L168.667 178.051V144.226Z" fill="#A2EEE3"/>
<path d="M110.001 76.4922V42.6667L51.334 76.4922L80.6363 93.4359L110.001 76.4922Z" fill="#46DDC8"/>
<path d="M110.001 144.226L80.6363 127.282L51.334 144.226L80.6363 161.169L110.001 178.051V144.226Z" fill="#262261"/>
<path d="M51.334 76.5128V110.39V144.205L80.6673 127.267V93.4515L51.334 76.5128Z" fill="#9290B0"/>
<path d="M139.333 127.282L110 144.226V178.051L139.333 161.169V127.282Z" fill="#46DDC8"/>
<path d="M139.333 93.4359L168.667 76.4922L139.333 59.6105L110 42.6667V76.4922L139.333 93.4359Z" fill="#262261"/>
</g>
<defs>
<clipPath id="clip0_4_4683">
<rect width="220" height="220" fill="white" transform="translate(0 0.5)"/>
</clipPath>
</defs>
</svg>
