<svg width="220" height="221" viewBox="0 0 220 221" fill="none" xmlns="http://www.w3.org/2000/svg">
<g clip-path="url(#clip0_4_4698)">
<path d="M110 0.5C170.72 0.5 220 49.78 220 110.5C220 171.22 170.72 220.5 110 220.5C49.28 220.5 0 171.22 0 110.5C0 49.78 49.28 0.5 110 0.5Z" fill="#071630"/>
<path opacity="0.9" d="M181.058 159.761C181.058 162.851 178.403 165.059 174.42 165.059C170.88 165.059 168.225 162.851 168.225 159.761V78.9666C168.225 78.5252 168.225 78.5252 167.782 78.5252C167.34 78.5252 167.34 78.5252 166.897 78.5252L116.006 143.425C113.794 145.633 109.811 146.516 107.156 144.75C106.271 144.308 105.828 143.867 105.386 143.425L54.4948 78.5252C54.0525 78.5252 54.0525 78.5252 53.6099 78.5252L53.1673 78.9666V160.202C53.1673 163.292 50.0695 165.5 46.5294 165.5C42.9892 165.5 40.334 163.292 40.334 160.202V63.0727C40.334 61.3067 41.6615 59.5408 42.9892 58.6577C46.0868 56.8918 49.6272 57.7748 51.8398 59.9823L108.041 131.063C109.369 132.388 111.139 132.388 112.466 131.505C112.466 131.505 112.909 131.505 112.909 131.063L169.11 59.9823C170.437 58.2162 172.65 57.3333 174.863 57.3333C178.403 57.3333 181.501 59.5408 181.501 62.6313L181.058 159.761Z" fill="url(#paint0_linear_4_4698)"/>
<path d="M181.499 158.25C181.499 160.871 178.862 163.492 174.906 163.492C172.709 163.492 170.511 162.618 169.192 160.871L113.811 90.5352C112.492 89.2245 110.734 89.2245 109.415 90.0983C109.415 90.0983 108.976 90.5352 108.536 91.4089L53.5939 161.308C51.3963 163.929 47.88 164.366 44.8033 162.618C43.0451 161.744 42.166 159.997 42.166 158.25V62.5757C42.166 59.5177 44.8033 57.3333 48.3196 57.3333C51.8357 57.3333 54.9126 59.5177 54.9126 62.5757V142.959C54.9126 143.396 54.9126 143.396 55.3521 143.396C55.7917 143.396 55.7917 143.396 56.2312 143.396L105.459 80.9241C105.899 80.0503 107.657 78.303 108.536 77.8661C111.613 76.1186 115.129 76.5555 117.327 79.1766L167.434 143.396C167.434 143.396 167.874 143.396 168.313 143.396C168.753 143.396 168.753 142.959 168.753 142.959V62.5757C168.753 59.5177 171.39 57.3333 174.906 57.3333C178.423 57.3333 181.499 59.5177 181.499 62.5757V158.25Z" fill="url(#paint1_linear_4_4698)"/>
</g>
<defs>
<linearGradient id="paint0_linear_4_4698" x1="180.956" y1="165.148" x2="180.956" y2="57.8168" gradientUnits="userSpaceOnUse">
<stop stop-color="#3F5CAA"/>
<stop offset="0.2" stop-color="#3F5FAC"/>
<stop offset="0.33" stop-color="#4168B2"/>
<stop offset="0.46" stop-color="#4378BD"/>
<stop offset="0.57" stop-color="#468ECC"/>
<stop offset="0.64" stop-color="#48A0D9"/>
<stop offset="0.8" stop-color="#3ABBEC"/>
<stop offset="0.9" stop-color="#35C6F4"/>
</linearGradient>
<linearGradient id="paint1_linear_4_4698" x1="181.5" y1="163.667" x2="181.5" y2="57.3333" gradientUnits="userSpaceOnUse">
<stop stop-color="#4068B1"/>
<stop offset="0.13" stop-color="#3D7FC1"/>
<stop offset="0.39" stop-color="#39A5DD"/>
<stop offset="0.59" stop-color="#36BDEE"/>
<stop offset="0.72" stop-color="#35C6F4"/>
</linearGradient>
<clipPath id="clip0_4_4698">
<rect width="220" height="220" fill="white" transform="translate(0 0.5)"/>
</clipPath>
</defs>
</svg>
