<svg width="220" height="221" viewBox="0 0 220 221" fill="none" xmlns="http://www.w3.org/2000/svg">
<g clip-path="url(#clip0_4_4702)">
<path d="M110 220.5C170.751 220.5 220 171.251 220 110.5C220 49.7487 170.751 0.5 110 0.5C49.2487 0.5 0 49.7487 0 110.5C0 171.251 49.2487 220.5 110 220.5Z" fill="#EDF0F4"/>
<path fill-rule="evenodd" clip-rule="evenodd" d="M128.285 36.5844L168.485 61.9368H168.489C177.325 67.0548 179.051 78.5151 170.398 83.9398L137.649 103.927C135.071 105.539 133.154 108.026 131.663 110.685L113.801 141.249C113.043 142.601 111.621 143.435 110.083 143.431C108.544 143.426 107.127 142.585 106.376 141.228L91.1803 115.117C90.8527 114.524 90.4994 113.842 90.1214 113.114C88.4723 109.935 86.3559 105.855 83.8672 104.284L48.557 82.7584C40.9939 77.9833 41.1551 68.3832 48.7522 63.6607L90.7466 37.1727C102.208 30.0482 116.61 29.8225 128.285 36.5844ZM129.419 95.34L156.865 78.136C163.219 74.1538 163.023 66.1863 156.537 62.4293L123.623 41.9245C115.052 36.9601 104.479 37.1256 96.0642 42.3557L62.8179 63.0231C57.24 66.4897 57.2116 74.6682 62.7635 78.1723L90.9314 95.9651C93.1767 97.384 95.0311 99.3517 96.3232 101.686L107.355 122.369C107.905 123.368 108.946 123.989 110.078 123.992C111.21 123.995 112.255 123.379 112.809 122.383L124.874 100.126C125.968 98.1714 127.531 96.5258 129.419 95.34Z" fill="#000300"/>
<path d="M42.166 94.436V147.785C42.1647 148.746 42.6706 149.635 43.4935 150.119L106.568 187.267C108.362 188.318 110.582 188.331 112.382 187.529L176.169 150.366C176.997 149.638 177.507 148.746 177.507 147.781V94.8034C177.506 92.1517 175.376 90.0028 172.749 90.0039C170.123 90.005 167.995 92.1555 167.996 94.8071V142.375C167.996 143.334 167.492 144.222 166.671 144.705L112.875 176.67C111.071 177.732 108.841 177.732 107.038 176.67L52.2732 144.216C51.4506 143.733 50.9446 142.844 50.9444 141.883V94.436C50.9444 91.9887 48.9792 90.0046 46.5552 90.0046C44.1312 90.0046 42.166 91.9887 42.166 94.436Z" fill="#000300"/>
</g>
<defs>
<clipPath id="clip0_4_4702">
<rect width="220" height="220" fill="white" transform="translate(0 0.5)"/>
</clipPath>
</defs>
</svg>
