<svg width="220" height="221" viewBox="0 0 220 221" fill="none" xmlns="http://www.w3.org/2000/svg">
<g clip-path="url(#clip0_4_4706)">
<path d="M110 220.5C170.751 220.5 220 171.251 220 110.5C220 49.7487 170.751 0.5 110 0.5C49.2487 0.5 0 49.7487 0 110.5C0 171.251 49.2487 220.5 110 220.5Z" fill="#0D1E9D"/>
<path d="M99.1808 144.024C98.4667 144.023 97.7631 143.855 97.128 143.532C96.4929 143.209 95.9444 142.741 95.5278 142.167L77.6549 117.639H66V108.711H79.9619C80.6755 108.711 81.3787 108.878 82.014 109.2C82.6491 109.522 83.1978 109.989 83.6147 110.563L98.2194 130.596L120.502 80.1724C120.853 79.3773 121.43 78.701 122.163 78.2264C122.896 77.7515 123.753 77.4993 124.629 77.5H152.511V86.4278H127.579L103.314 141.345C102.994 142.07 102.486 142.697 101.841 143.162C101.196 143.628 100.437 143.915 99.6431 143.994C99.4831 144.003 99.3227 144.003 99.1626 143.994" fill="#00C389"/>
</g>
<defs>
<clipPath id="clip0_4_4706">
<rect width="220" height="220" fill="white" transform="translate(0 0.5)"/>
</clipPath>
</defs>
</svg>
