<svg width="220" height="221" viewBox="0 0 220 221" fill="none" xmlns="http://www.w3.org/2000/svg">
<g clip-path="url(#clip0_4_4709)">
<path d="M110 220.5C170.751 220.5 220 171.251 220 110.5C220 49.7487 170.751 0.5 110 0.5C49.2487 0.5 0 49.7487 0 110.5C0 171.251 49.2487 220.5 110 220.5Z" fill="#2A2A2A"/>
<path fill-rule="evenodd" clip-rule="evenodd" d="M123.881 42.7078H67.834C68.199 42.9091 68.5834 43.0713 68.9681 43.2336C69.1879 43.3263 69.4075 43.4191 69.6237 43.519C80.3342 48.2078 90.6165 54.0103 99.7514 61.3597C108.14 68.1042 115.52 76.2235 120.806 85.6354C125.747 94.4217 128.884 104.342 129.181 114.455C129.221 115.887 129.17 117.32 129.029 118.745H157.602C158.017 108.02 156.441 97.2267 153.111 87.0242C149.923 77.3682 145.332 68.2285 139.484 59.8953C135.368 53.9366 130.629 48.4287 125.346 43.464C125.239 43.3804 125.137 43.2805 125.034 43.1802C124.716 42.868 124.394 42.5517 123.881 42.7078ZM117.289 144.87C107.734 127.599 98.1641 110.335 88.578 93.081H88.564V180.167C94.1124 176.627 99.6548 173.073 105.197 169.519C111.528 165.461 117.858 161.402 124.199 157.362C122.765 154.737 121.311 152.12 119.857 149.503C119 147.959 118.143 146.416 117.289 144.87Z" fill="white"/>
</g>
<defs>
<clipPath id="clip0_4_4709">
<rect width="220" height="220" fill="white" transform="translate(0 0.5)"/>
</clipPath>
</defs>
</svg>
