<svg width="220" height="221" viewBox="0 0 220 221" fill="none" xmlns="http://www.w3.org/2000/svg">
<g clip-path="url(#clip0_4_4712)">
<path d="M110 220.5C170.751 220.5 220 171.251 220 110.5C220 49.7487 170.751 0.5 110 0.5C49.2487 0.5 0 49.7487 0 110.5C0 171.251 49.2487 220.5 110 220.5Z" fill="url(#paint0_linear_4_4712)"/>
<path fill-rule="evenodd" clip-rule="evenodd" d="M110.912 181.998L110.916 182H110.912V181.998ZM153.129 84.0827L110.768 59.4347L68.5534 83.9273V132.934L89.5887 145.135H89.6141V96.1503H89.5887L110.768 83.855L132.091 96.2524L110.912 108.514V181.998L47.666 145.306V71.9085L110.984 35.3333L174.166 71.9085L153.129 84.0827ZM153.129 84.0827L134.443 94.8956L132.091 96.2566L110.916 108.518V182L110.92 181.996L174.166 145.314V71.9085L136.741 93.5985L153.139 84.089L153.129 84.0827Z" fill="white"/>
</g>
<defs>
<linearGradient id="paint0_linear_4_4712" x1="0" y1="0.5" x2="0" y2="220.5" gradientUnits="userSpaceOnUse">
<stop stop-color="#FF4400"/>
<stop offset="1" stop-color="#FFCD05"/>
</linearGradient>
<clipPath id="clip0_4_4712">
<rect width="220" height="220" fill="white" transform="translate(0 0.5)"/>
</clipPath>
</defs>
</svg>
