<svg width="220" height="221" viewBox="0 0 220 221" fill="none" xmlns="http://www.w3.org/2000/svg">
<g clip-path="url(#clip0_4_4715)">
<path d="M110 220.5C170.751 220.5 220 171.251 220 110.5C220 49.7487 170.751 0.5 110 0.5C49.2487 0.5 0 49.7487 0 110.5C0 171.251 49.2487 220.5 110 220.5Z" fill="#EDF0F4"/>
<path d="M129.59 121.597L110.692 132.649L91.7949 121.597V99.4479L110.692 88.3507L129.59 99.4479V121.597Z" fill="#00B5D1"/>
<path fill-rule="evenodd" clip-rule="evenodd" d="M49.5 74.7725L110.917 39L172.333 74.7725V146.227L110.917 182L49.5 146.227V74.7725ZM80.9958 92.9972V127.822L110.692 145.19L140.388 127.822V92.9972L110.692 75.6296L80.9958 92.9972ZM80.9958 147.897V135.807L121.175 159.354L110.917 165.354L80.9958 147.897ZM128.014 155.385L157.935 137.927V83.0728L110.962 55.6908L63.943 83.0728V137.927L74.2916 143.972V131.702V90.6514V89.1176L110.737 67.7804L147.182 89.1176V131.702L117.396 149.16L128.014 155.385Z" fill="#0D285A"/>
</g>
<defs>
<clipPath id="clip0_4_4715">
<rect width="220" height="220" fill="white" transform="translate(0 0.5)"/>
</clipPath>
</defs>
</svg>
