<svg width="220" height="221" viewBox="0 0 220 221" fill="none" xmlns="http://www.w3.org/2000/svg">
<g clip-path="url(#clip0_4_4719)">
<path d="M220 110.5C220 49.7487 170.751 0.5 110 0.5C49.2487 0.5 0 49.7487 0 110.5C0 171.251 49.2487 220.5 110 220.5C170.751 220.5 220 171.251 220 110.5Z" fill="#FEDA03"/>
<path fill-rule="evenodd" clip-rule="evenodd" d="M165.635 91.7479C165.635 102.264 159.464 107.491 152.534 109.311C160.833 111.786 166.834 118.557 166.834 129.294V149H135.187V130.282C135.187 124.561 131.804 122.247 126.018 122.247H88.481V149H56.834V70.1666H132.024C150.9 70.1666 165.635 74.2397 165.635 91.7479ZM88.481 100.999H126.563C130.71 100.999 133.218 100.444 133.218 97.1417C133.218 93.8399 130.715 93.285 126.563 93.285H88.481V100.999Z" fill="black"/>
</g>
<defs>
<clipPath id="clip0_4_4719">
<rect width="220" height="220" fill="white" transform="translate(0 0.5)"/>
</clipPath>
</defs>
</svg>
