<svg width="220" height="221" viewBox="0 0 220 221" fill="none" xmlns="http://www.w3.org/2000/svg">
<g clip-path="url(#clip0_4_4722)">
<path d="M110 220.5C170.751 220.5 220 171.251 220 110.5C220 49.7487 170.751 0.5 110 0.5C49.2487 0.5 0 49.7487 0 110.5C0 171.251 49.2487 220.5 110 220.5Z" fill="#EDF0F4"/>
<path fill-rule="evenodd" clip-rule="evenodd" d="M121.11 57.3535L95.0655 74.8941L133.121 62.5776L121.11 57.3535ZM105.437 151.158L71.5 175.524L93.0446 76.3813L105.437 151.158ZM106.124 150.929L126.791 151.196L93.8454 76.7627L106.124 150.929ZM144.561 90.6426L128.736 149.29L138.574 83.3214L144.561 90.6426ZM101.662 57.8874L117.83 57.3535L99.2981 64.6366L101.662 57.8874Z" fill="#384182"/>
<path fill-rule="evenodd" clip-rule="evenodd" d="M127.55 59.0311L129.838 52.8156L117.827 47.5915L127.55 59.0311ZM137.426 81.0713L95.748 75.3515L133.308 63.5307L137.426 81.0713ZM133.728 61.9672L131.02 52.2054L149.743 57.7346L133.728 61.9672Z" fill="#F79534"/>
<path fill-rule="evenodd" clip-rule="evenodd" d="M125.38 46.3333H116.61L130.185 51.5955L125.38 46.3333ZM107.916 50.6041L116.076 46.829L126.524 58.8025L107.916 50.6041ZM107.077 51.2523L101.929 56.934L119.012 56.5145L107.077 51.2523ZM99.2599 65.3992L119.851 57.3535L94.3027 74.5509L99.2599 65.3992ZM94.3027 76.0762L127.706 150.815L137.85 82.1774L94.3027 76.0762ZM128.355 59.565L130.452 53.3115L132.549 61.5861L128.355 59.565Z" fill="#F0513A"/>
</g>
<defs>
<clipPath id="clip0_4_4722">
<rect width="220" height="220" fill="white" transform="translate(0 0.5)"/>
</clipPath>
</defs>
</svg>
