<svg width="220" height="221" viewBox="0 0 220 221" fill="none" xmlns="http://www.w3.org/2000/svg">
<g clip-path="url(#clip0_4_4733)">
<path d="M110 220.5C170.751 220.5 220 171.251 220 110.5C220 49.7487 170.751 0.5 110 0.5C49.2487 0.5 0 49.7487 0 110.5C0 171.251 49.2487 220.5 110 220.5Z" fill="#CC1E46"/>
<path fill-rule="evenodd" clip-rule="evenodd" d="M81.8275 63.4513C93.2886 54.7441 106.939 49.4672 121.223 48.2218C122.674 47.9243 124.249 48.8518 124.201 50.4717C124.298 53.2177 124.279 55.9634 124.259 58.7094C124.251 59.84 124.242 60.9706 124.242 62.1014C124.338 63.3059 123.708 64.8703 122.339 64.905C109.698 66.3172 97.687 71.5367 87.2511 78.7499C86.3469 79.264 86.456 80.3948 86.5436 81.3049C86.5517 81.3876 86.5594 81.4682 86.5663 81.5465C87.0292 85.8834 86.9963 90.2402 86.9633 94.5967C86.9446 97.0688 86.9259 99.5409 86.9977 102.009C105.244 102.061 123.495 102.054 141.747 102.046C157.566 102.039 173.387 102.033 189.207 102.065C190.83 101.926 192.542 102.861 192.412 104.695C192.522 112.149 192.504 119.604 192.487 127.056C192.478 131.196 192.469 135.335 192.48 139.474C192.507 145.773 191.18 152.294 187.407 157.444C181.448 165.537 170.972 170.389 161.015 168.603C153.962 167.537 147.867 163.114 143.594 157.5C131.963 166.343 118.084 171.661 103.576 172.833C102.104 172.854 101.001 171.393 101.227 169.967C101.246 168.393 101.238 166.817 101.23 165.24C101.217 162.754 101.203 160.266 101.296 157.783C101.557 156.149 103.136 156 104.561 155.866C105.007 155.824 105.438 155.784 105.808 155.7C117.751 153.817 129.173 148.757 138.924 141.578C138.421 134.046 138.246 126.496 138.397 118.949C118.403 118.819 98.4053 118.836 78.4078 118.854H78.4052C64.2129 118.866 50.0208 118.878 35.8314 118.838C34.3248 119.011 32.8731 117.869 33.0169 116.256C32.9895 104.051 32.9963 91.8403 33.0306 79.636C33.099 73.2534 35.0918 66.8017 39.2757 61.9352C44.7881 55.5942 53.1014 51.5446 61.5377 52.043C69.6181 52.3685 77.0341 57.0134 81.8275 63.4513ZM46.7945 81.7403C46.7808 88.8912 46.774 96.0491 46.8083 103.214C49.3172 103.212 51.8248 103.221 54.3319 103.231C60.2684 103.253 66.2018 103.276 72.138 103.145C72.1415 101.439 72.1492 99.733 72.1571 98.0274C72.1813 92.7577 72.2056 87.4896 72.0969 82.2181C71.9669 75.531 65.9888 69.6192 59.3465 69.7576C52.8616 69.4876 46.952 75.2263 46.7945 81.7335V81.7403ZM154.331 130.601C154.328 126.52 154.325 122.439 154.366 118.36V118.353C155.772 118.351 157.179 118.348 158.585 118.345C165.615 118.331 172.645 118.316 179.675 118.374C179.72 123.403 179.714 128.424 179.707 133.449C179.705 135.244 179.702 137.04 179.702 138.837C179.757 144.029 176.532 149.193 171.65 151.02C166.363 153.09 159.899 151.041 156.653 146.354C155.099 144.139 154.284 141.481 154.325 138.761C154.336 136.041 154.333 133.321 154.331 130.601Z" fill="white"/>
</g>
<defs>
<clipPath id="clip0_4_4733">
<rect width="220" height="220" fill="white" transform="translate(0 0.5)"/>
</clipPath>
</defs>
</svg>
