<svg width="220" height="221" viewBox="0 0 220 221" fill="none" xmlns="http://www.w3.org/2000/svg">
<g clip-path="url(#clip0_4_4736)">
<path d="M110 220.5C170.753 220.5 220 171.253 220 110.5C220 49.747 170.753 0.5 110 0.5C49.247 0.5 0 49.747 0 110.5C0 171.253 49.247 220.5 110 220.5Z" fill="#EDF0F4"/>
<path d="M113.52 47.3306C111.209 47.0963 108.888 46.9792 106.565 46.9796C86.4629 46.9796 68.397 55.7009 55.9375 69.5556L66.8764 99.0974L116.179 82.0386L113.52 47.3306Z" fill="#0089CE"/>
<path d="M89.9105 159.976L120.373 135.194L116.177 82.0386L83.0879 142.882L89.9105 159.976Z" fill="#E30613"/>
<path d="M120.029 135.414L89.9121 159.975L98.3227 182.606C106.887 183.645 115.571 183.055 123.916 180.869L120.375 135.19L120.03 135.469L120.029 135.414Z" fill="#E9453F"/>
<path d="M116.193 82.2881L116.175 82.0386L66.873 99.0974L83.0863 142.882L116.193 82.2881Z" fill="#CA1416"/>
<path d="M55.9362 69.5556C46.4326 80.1261 40.1945 93.6874 38.8008 108.657L66.875 99.0981L55.9362 69.5556Z" fill="#0156A3"/>
<path d="M66.875 99.0974L38.8007 108.656C38.605 110.759 38.5 112.889 38.5 115.042C38.5 138.498 50.3655 159.182 68.4218 171.421L83.0889 142.881" fill="#149F39"/>
<path d="M83.087 142.882L68.4199 171.422C70.1407 172.59 71.9163 173.677 73.7469 174.684L89.9088 159.975L83.087 142.882Z" fill="#28A737"/>
<path d="M73.748 174.683C81.3536 178.879 89.6966 181.569 98.3206 182.607L89.91 159.974" fill="#82BB2B"/>
<path d="M123.916 180.871C153.104 173.199 174.63 146.637 174.63 115.043C174.636 107.882 173.51 100.765 171.295 93.9546L120.377 135.191L123.916 180.871Z" fill="#FECC00"/>
<path d="M131.51 51.6957L116.18 82.0386L116.198 82.2881L120.376 135.191L171.294 93.9546C165.003 74.6314 150.303 59.1022 131.51 51.6957Z" fill="#EF7900"/>
<path d="M116.175 82.0386L131.506 51.6957C125.737 49.4233 119.684 47.9544 113.516 47.3307L116.158 81.8241L116.175 82.0386Z" fill="#23A9E1"/>
<path d="M118.328 66.5216L119.891 59.5165C140.279 68.0153 152.954 81.1192 159.819 97.7869L153.704 102.081C145.612 85.4317 134.201 73.083 118.328 66.5216Z" fill="black"/>
<path d="M183.004 65.8481C183.004 50.0094 170.161 37.1667 154.322 37.1667C138.483 37.1667 125.641 50.0094 125.641 65.8481C125.641 67.3567 125.76 68.8632 125.995 70.3533C135.543 75.9719 143.216 84.03 149.346 94.0902C150.99 94.3802 152.656 94.5267 154.326 94.528C170.161 94.5295 183.004 81.6885 183.004 65.8481Z" fill="#E30613"/>
</g>
<defs>
<clipPath id="clip0_4_4736">
<rect width="220" height="220" fill="white" transform="translate(0 0.5)"/>
</clipPath>
</defs>
</svg>
