<svg width="220" height="221" viewBox="0 0 220 221" fill="none" xmlns="http://www.w3.org/2000/svg">
<g clip-path="url(#clip0_4_4751)">
<path fill-rule="evenodd" clip-rule="evenodd" d="M110 220.5C49.5 220.5 0 171.001 0 109.952C0.55 49.4535 49.5 -0.0454497 110.55 0.504539C171.05 1.05453 220 50.0035 220 111.602C219.45 171.551 170.5 220.5 110 220.5Z" fill="#EDF0F4"/>
<path d="M58.666 48.1667V99.6234L83.9266 74.3628L58.666 48.1667Z" fill="url(#paint0_linear_4_4751)"/>
<path d="M137.723 74.3628L162.983 99.6234V48.1667L137.723 74.3628Z" fill="url(#paint1_linear_4_4751)"/>
<path d="M62.2539 104.925L109.345 174.157L86.7348 80.4439L62.2539 104.925Z" fill="url(#paint2_linear_4_4751)"/>
<path d="M112.621 174.157L159.712 104.925L135.231 80.4439L112.621 174.157Z" fill="url(#paint3_linear_4_4751)"/>
<path d="M129.459 79.3526H110.903H92.3477L101.548 120.05L110.903 160.592L120.259 120.05L129.459 79.3526Z" fill="url(#paint4_linear_4_4751)"/>
</g>
<defs>
<linearGradient id="paint0_linear_4_4751" x1="58.666" y1="99.5997" x2="83.911" y2="99.5997" gradientUnits="userSpaceOnUse">
<stop stop-color="#A71E22"/>
<stop offset="0.1551" stop-color="#B81F24"/>
<stop offset="0.4908" stop-color="#DA2126"/>
<stop offset="0.6826" stop-color="#EC2227"/>
</linearGradient>
<linearGradient id="paint1_linear_4_4751" x1="137.723" y1="99.5997" x2="162.968" y2="99.5997" gradientUnits="userSpaceOnUse">
<stop stop-color="#A71E22"/>
<stop offset="0.1551" stop-color="#B81F24"/>
<stop offset="0.4908" stop-color="#DA2126"/>
<stop offset="0.6826" stop-color="#EC2227"/>
</linearGradient>
<linearGradient id="paint2_linear_4_4751" x1="62.1916" y1="174.149" x2="109.313" y2="174.149" gradientUnits="userSpaceOnUse">
<stop stop-color="#A71E22"/>
<stop offset="0.1551" stop-color="#B81F24"/>
<stop offset="0.4908" stop-color="#DA2126"/>
<stop offset="0.6826" stop-color="#EC2227"/>
</linearGradient>
<linearGradient id="paint3_linear_4_4751" x1="112.574" y1="174.134" x2="159.681" y2="174.134" gradientUnits="userSpaceOnUse">
<stop stop-color="#A71E22"/>
<stop offset="0.1551" stop-color="#B81F24"/>
<stop offset="0.4908" stop-color="#DA2126"/>
<stop offset="0.6826" stop-color="#EC2227"/>
</linearGradient>
<linearGradient id="paint4_linear_4_4751" x1="92.2853" y1="160.736" x2="129.521" y2="160.736" gradientUnits="userSpaceOnUse">
<stop stop-color="#A71E22"/>
<stop offset="0.1551" stop-color="#B81F24"/>
<stop offset="0.4908" stop-color="#DA2126"/>
<stop offset="0.6826" stop-color="#EC2227"/>
</linearGradient>
<clipPath id="clip0_4_4751">
<rect width="220" height="220" fill="white" transform="translate(0 0.5)"/>
</clipPath>
</defs>
</svg>
