<svg width="220" height="221" viewBox="0 0 220 221" fill="none" xmlns="http://www.w3.org/2000/svg">
<g clip-path="url(#clip0_4_4758)">
<path d="M110 220.5C170.751 220.5 220 171.251 220 110.5C220 49.7487 170.751 0.5 110 0.5C49.2487 0.5 0 49.7487 0 110.5C0 171.251 49.2487 220.5 110 220.5Z" fill="#EDF0F4"/>
<path d="M154.074 78.4537C151.543 64.2461 139.315 54.4807 121.207 52.2063C118.272 51.8376 112.22 51.7166 108.905 51.9602C92.8896 53.1374 77.5666 59.8452 67.4389 70.1126C59.984 77.6702 56.7624 86.6927 59.8058 91.4911C61.1465 93.6055 63.1131 94.4945 66.4512 94.4945C68.6402 94.4945 70.2376 93.9742 71.901 92.7194C74.1239 91.0425 75.4632 89.1705 79.8348 81.6296C84.7639 73.1264 89.8855 68.8285 98.378 66.0679C103.59 64.3737 109.6 63.6974 115.66 64.1233C121.094 64.505 124.038 65.2068 127.545 66.956C129.818 68.0899 130.98 68.9186 132.613 70.5708C137.205 75.2157 138.452 82.5545 135.925 90.0563C134.205 95.1624 131.114 99.9076 126.795 104.074C120.211 110.425 111.779 114.057 104.191 113.809L101.869 113.733L104.152 108.834C109.097 98.2255 111.815 91.1059 112.056 88.1334C112.177 86.6489 112.118 86.2656 111.594 85.1217C111.102 84.0469 110.803 83.7187 109.933 83.2974C107.585 82.1607 105.489 82.9353 102.316 86.1121C99.8001 88.6304 98.2669 90.5605 95.4669 94.7335C91.6159 100.473 88.637 105.612 80.1591 121.142C77.8628 125.348 73.3371 133.629 70.102 139.544C62.8557 152.792 62.0599 154.371 61.5951 156.414C60.8418 159.726 61.2382 162.997 62.6258 164.913C64.861 167.998 69.8092 168.734 73.456 166.522C75.1099 165.52 77.6802 162.812 79.3689 160.294C82.186 156.094 85.764 147.582 91.0544 132.494C91.9857 129.838 93.2408 126.685 93.455 126.463C93.5485 126.367 94.2466 128.141 95.0065 130.407C100.205 145.9 106.682 156.789 113.922 162.206C117.741 165.064 121.24 166.25 125.798 166.235C135.547 166.202 146.107 161.109 155.838 151.749C159.272 148.446 161.037 145.081 160.832 142.23C160.553 138.342 156.239 137.399 153.102 140.539C152.584 141.057 151.337 142.397 150.331 143.517C148.002 146.109 145.015 148.358 141.526 150.147C136.551 152.697 133.61 153.378 128.166 153.24C125.157 153.163 124.528 153.078 123.596 152.62C118.605 150.169 113.03 141.242 110.068 130.955C109.611 129.37 109.176 127.626 109.101 127.08L108.965 126.087L110.368 125.814C119.446 124.047 131.098 118.573 138.777 112.467C141.258 110.495 145.196 106.586 146.892 104.413C150.629 99.6203 153.119 94.4254 154.063 89.4499C154.543 86.9204 154.549 81.1177 154.074 78.4537Z" fill="#681BFF"/>
</g>
<defs>
<clipPath id="clip0_4_4758">
<rect width="220" height="220" fill="white" transform="translate(0 0.5)"/>
</clipPath>
</defs>
</svg>
