<svg width="220" height="221" viewBox="0 0 220 221" fill="none" xmlns="http://www.w3.org/2000/svg">
<g clip-path="url(#clip0_4_4761)">
<path d="M110 220.5C170.751 220.5 220 171.251 220 110.5C220 49.7487 170.751 0.5 110 0.5C49.2487 0.5 0 49.7487 0 110.5C0 171.251 49.2487 220.5 110 220.5Z" fill="#EDF0F4"/>
<path d="M130.595 100.091L98.1165 123.028V114.037C97.6274 113.67 95.8778 113.156 92.7951 114.037C88.9418 115.138 75.1797 120.275 70.5923 136.974C66.9224 150.332 73.2224 163.458 76.8312 168.351H160.321C156.713 159.91 149.055 142.258 147.293 139.175C145.532 136.093 146.559 133.732 147.293 132.937C153.104 128.288 163.477 112.862 158.486 88.3473C153.495 63.8323 131.084 55.0124 120.503 53.6667H60.5V101.192C63.2524 98.8677 70.5555 93.6686 77.7485 91.4667C84.9416 89.2647 94.6913 88.9589 98.6671 89.0812V79.1726L130.595 100.091Z" fill="url(#paint0_linear_4_4761)"/>
</g>
<defs>
<linearGradient id="paint0_linear_4_4761" x1="60.5" y1="53.6667" x2="60.5" y2="168.351" gradientUnits="userSpaceOnUse">
<stop stop-color="#E34D67"/>
<stop offset="1" stop-color="#7746F4"/>
</linearGradient>
<clipPath id="clip0_4_4761">
<rect width="220" height="220" fill="white" transform="translate(0 0.5)"/>
</clipPath>
</defs>
</svg>
