<svg width="220" height="221" viewBox="0 0 220 221" fill="none" xmlns="http://www.w3.org/2000/svg">
<g clip-path="url(#clip0_4_4764)">
<path d="M110 220.5C170.751 220.5 220 171.251 220 110.5C220 49.7487 170.751 0.5 110 0.5C49.2487 0.5 0 49.7487 0 110.5C0 171.251 49.2487 220.5 110 220.5Z" fill="url(#paint0_linear_4_4764)"/>
<path fill-rule="evenodd" clip-rule="evenodd" d="M62.1903 64.571L73.8013 58.4015L75.1673 61.1436L117.514 36.4653L114.782 34.4088L111.367 32.3522L110.001 31.6667L40.334 72.1117V73.4826L60.1411 62.5145L62.1903 64.571ZM62.1903 90.6203L95.6576 70.7405L97.0236 73.4826L140.053 48.8043L136.638 46.7479L133.223 45.3769L131.857 44.6912L40.334 97.4755V98.8464L60.1411 87.8783L62.1903 90.6203ZM106.586 77.5957L62.1903 102.96L60.1411 100.217L40.334 111.871V109.815L142.785 50.861L144.151 51.5464L147.566 53.6029L150.981 54.9739L107.952 79.6522L106.586 77.5957ZM62.1903 115.299L117.514 83.7653L118.88 85.8217L161.909 61.8291L158.494 59.7724L155.079 57.716L153.713 57.0305L40.334 122.839V124.21L60.1411 113.242L62.1903 115.299ZM128.442 89.9348L62.1903 128.323L60.1411 125.581L40.334 137.235V135.178L164.641 63.2L166.69 64.571L169.422 65.9421L172.837 67.9986L129.808 92.6769L128.442 89.9348ZM176.935 70.7405L175.569 69.3696L40.334 148.203V149.574L60.1411 138.606L62.1903 141.348L128.442 102.274L129.808 105.016L179.667 76.9102V72.1117L176.935 70.7405ZM60.1411 150.945L49.213 157.8L47.1641 156.429L179.667 80.3377V89.2493L129.808 118.041L128.442 115.299L61.5071 153.687L60.1411 150.945ZM128.442 128.323L129.808 131.065L179.667 101.588V92.6769L58.0922 163.284L60.1411 163.97L71.0693 157.115L73.1184 159.856L128.442 128.323ZM82.6803 163.97L71.0693 170.139L69.0203 169.454L179.667 105.701V114.613L129.808 143.404L128.442 140.662L84.0463 166.712L82.6803 163.97ZM81.9974 176.309L93.6084 170.139L94.9745 172.881L128.442 153.687L129.808 156.429L179.667 127.638V118.041L79.9483 175.623L81.9974 176.309ZM92.9255 183.164L90.8764 181.793L179.667 131.065V139.977L129.808 168.768L128.442 166.026L105.903 179.051L104.537 176.309L92.9255 183.164ZM103.854 189.333L114.782 182.478L116.831 185.221L128.442 179.051L129.808 181.793L179.667 153.001V143.404L102.488 188.648L103.854 189.333ZM125.71 40.5783L129.125 42.6348L86.0954 67.3131L84.7294 64.571L62.1903 77.5957L60.1411 74.8536L40.334 86.5072V84.4507L120.929 37.8362L122.295 39.2072L125.71 40.5783Z" fill="white"/>
</g>
<defs>
<linearGradient id="paint0_linear_4_4764" x1="0" y1="220.5" x2="220" y2="220.5" gradientUnits="userSpaceOnUse">
<stop stop-color="#001C3A"/>
<stop offset="0.6" stop-color="#001E3D"/>
<stop offset="0.7" stop-color="#001F3F"/>
<stop offset="1" stop-color="#002042"/>
</linearGradient>
<clipPath id="clip0_4_4764">
<rect width="220" height="220" fill="white" transform="translate(0 0.5)"/>
</clipPath>
</defs>
</svg>
