<svg width="220" height="221" viewBox="0 0 220 221" fill="none" xmlns="http://www.w3.org/2000/svg">
<g clip-path="url(#clip0_4_4774)">
<path d="M110 220.5C170.751 220.5 220 171.251 220 110.5C220 49.7487 170.751 0.5 110 0.5C49.2487 0.5 0 49.7487 0 110.5C0 171.251 49.2487 220.5 110 220.5Z" fill="#EDF0F4"/>
<path d="M129.625 117.524L159.78 87.4618C162.043 85.2074 163.312 82.1424 163.305 78.948L163.356 54.6497C163.353 53.4032 162.872 52.2053 162.011 51.3037L104.16 109.027C101.889 111.278 100.611 114.343 100.611 117.541C100.611 120.738 101.889 123.804 104.16 126.055L144.949 166.716C147.991 169.743 152.416 170.917 156.558 169.796C160.7 168.675 163.929 165.429 165.029 161.282C166.129 157.135 164.933 152.715 161.892 149.689L129.625 117.524Z" fill="#008C62"/>
<path d="M158.639 50.0011H67.7716C60.4244 50.0011 55.001 55.5521 55.001 63.1294V157.93C54.9594 161.184 56.2345 164.317 58.5366 166.618C60.8387 168.918 63.9726 170.191 67.2268 170.147C70.4839 170.203 73.624 168.934 75.9274 166.631C78.2308 164.327 79.5 161.187 79.4441 157.93V73.3884H139.892L162.028 51.3633C161.132 50.4651 159.907 49.9729 158.639 50.0011Z" fill="#00E6A0"/>
</g>
<defs>
<clipPath id="clip0_4_4774">
<rect width="220" height="220" fill="white" transform="translate(0 0.5)"/>
</clipPath>
</defs>
</svg>
