<svg width="220" height="221" viewBox="0 0 220 221" fill="none" xmlns="http://www.w3.org/2000/svg">
<g clip-path="url(#clip0_4_4778)">
<path d="M110 0.5C170.751 0.5 220 49.7487 220 110.5C220 171.251 170.751 220.5 110 220.5C49.2487 220.5 0 171.251 0 110.5C0 49.7487 49.2487 0.5 110 0.5Z" fill="black"/>
<path d="M57.1699 90.2978C57.1699 91.1213 57.9933 91.9447 58.8166 91.9447H78.8242V102.115H58.8166C57.9933 102.115 57.1699 102.938 57.1699 103.762V120.532C57.1699 121.356 57.9933 122.179 58.8166 122.179H78.8242V162.32C78.8242 163.143 79.371 163.696 80.1944 163.696H99.3846C100.208 163.696 100.755 163.149 100.755 162.32V124.392C100.755 123.568 101.302 123.015 102.125 123.015H117.481C118.028 123.015 118.575 123.292 118.852 123.838L135.848 163.156C136.125 163.702 136.672 163.979 137.218 163.979H157.779C158.873 163.979 159.426 162.879 159.149 162.056L142.153 123.562C141.876 122.738 142.153 121.915 142.976 121.638C151.198 118.615 156.409 111.192 156.409 101.292V76.5447C156.409 63.8978 145.993 53.4509 133.378 53.4509H80.1944C79.371 53.4509 78.8242 54.004 78.8242 54.8276V71.8745H58.8166C57.9933 71.8745 57.1699 72.6978 57.1699 73.5213V90.2978Z" fill="white"/>
<path d="M100.754 75.7211C100.754 74.8976 101.301 74.3445 102.124 74.3445H127.896C131.46 74.3445 134.477 77.368 134.477 80.9445V95.7914C134.477 99.368 131.46 102.391 127.896 102.391H102.124C101.301 102.391 100.754 101.838 100.754 101.015V75.7211Z" fill="black"/>
</g>
<defs>
<clipPath id="clip0_4_4778">
<rect width="220" height="220" fill="white" transform="translate(0 0.5)"/>
</clipPath>
</defs>
</svg>
