<svg width="220" height="221" viewBox="0 0 220 221" fill="none" xmlns="http://www.w3.org/2000/svg">
<g clip-path="url(#clip0_4_4782)">
<path d="M110 220.5C170.588 220.5 220 171.088 220 110.5C220 49.923 170.588 0.5 110 0.5C49.423 0.5 1.83583e-06 49.923 1.83583e-06 110.5C-0.0109982 171.088 49.412 220.5 110 220.5Z" fill="black"/>
<path fill-rule="evenodd" clip-rule="evenodd" d="M81.7877 53.4869H97.6277C98.2327 53.4869 98.7167 53.9819 98.7167 54.5869V77.7309C98.7167 78.3469 99.2117 78.8309 99.8167 78.8309H120.156C120.761 78.8309 121.256 78.3469 121.256 77.7309V54.5869C121.256 53.9819 121.74 53.4869 122.356 53.4869H138.185C138.79 53.4869 139.285 53.9819 139.285 54.5869V77.7309C139.285 78.3469 139.769 78.8309 140.385 78.8309H159.745C160.361 78.8309 160.845 79.3259 160.845 79.9309V95.7269C160.845 96.3429 160.361 96.8269 159.745 96.8269H140.385C139.769 96.8269 139.285 97.3219 139.285 97.9269V122.512C139.285 123.117 139.769 123.612 140.385 123.612H159.745C160.361 123.612 160.845 124.096 160.845 124.712V140.508C160.845 141.113 160.361 141.608 159.745 141.608H140.385C139.769 141.608 139.285 142.103 139.285 142.708V165.852C139.285 166.457 138.79 166.952 138.185 166.952H122.356C121.74 166.952 121.256 166.457 121.256 165.852V142.708C121.256 142.092 120.761 141.608 120.156 141.608H99.8277C99.2227 141.608 98.7277 142.103 98.7277 142.708V165.852C98.7277 166.457 98.2437 166.952 97.6387 166.952H81.7987C81.1937 166.952 80.6987 166.457 80.6987 165.852V142.708C80.6987 142.092 80.2147 141.608 79.5987 141.608H60.2387C59.6227 141.608 59.1387 141.113 59.1387 140.508V124.712C59.1387 124.096 59.6227 123.612 60.2387 123.612H79.5987C80.2147 123.612 80.6987 123.117 80.6987 122.512V97.9269C80.6987 97.3219 80.2147 96.8269 79.5987 96.8269H60.2387C59.6227 96.8269 59.1387 96.3429 59.1387 95.7269V79.9309C59.1387 79.3259 59.6227 78.8309 60.2387 78.8309H79.5987C80.2147 78.8309 80.6987 78.3469 80.6987 77.7309V54.5869C80.6767 53.9819 81.1827 53.4869 81.7877 53.4869ZM121.267 122.523V97.9269C121.267 97.3219 120.772 96.8269 120.167 96.8269H99.8277C99.2227 96.8269 98.7277 97.3219 98.7277 97.9269V122.512C98.7277 123.117 99.2227 123.612 99.8277 123.612H120.167C120.772 123.623 121.267 123.117 121.267 122.523Z" fill="white"/>
</g>
<defs>
<clipPath id="clip0_4_4782">
<rect width="220" height="220" fill="white" transform="translate(0 0.5)"/>
</clipPath>
</defs>
</svg>
