<svg width="220" height="221" viewBox="0 0 220 221" fill="none" xmlns="http://www.w3.org/2000/svg">
<g clip-path="url(#clip0_4_4788)">
<path d="M110 220.5C170.751 220.5 220 171.251 220 110.5C220 49.7487 170.751 0.5 110 0.5C49.2487 0.5 0 49.7487 0 110.5C0 171.251 49.2487 220.5 110 220.5Z" fill="#EDF0F4"/>
<path d="M47.0756 136.293C46.9198 136.646 46.7375 136.987 46.5304 137.314C45.4509 139.084 44.8012 141.071 44.6309 143.123C46.3588 146.524 48.3523 149.791 50.5936 152.895C50.7144 151.682 50.9894 150.488 51.4122 149.341C51.8956 147.877 51.8773 146.299 51.3603 144.845C49.7332 142.093 48.3016 139.236 47.0756 136.293Z" fill="black"/>
<path d="M41.6644 91.8396C43.0597 91.2194 44.2039 90.1645 44.9169 88.8408C45.8761 85.7531 47.0536 82.7338 48.4409 79.8047C48.0618 79.9312 47.6731 80.0285 47.2784 80.0958C45.2478 80.4718 43.3397 81.3179 41.7148 82.5631C40.3046 86.1816 39.1841 89.901 38.3633 93.6882C39.3742 92.9314 40.4844 92.3097 41.6644 91.8396Z" fill="black"/>
<path d="M91.6486 40.5513C92.8722 41.4607 94.3816 41.9278 95.919 41.873C99.0481 41.1835 102.224 40.7119 105.422 40.4624C105.084 40.1707 104.772 39.8516 104.49 39.5084C103.285 38.0747 101.77 36.9175 100.054 36.1191C96.185 36.6843 92.3691 37.5549 88.6445 38.7226C89.7198 39.2084 90.7288 39.8226 91.6486 40.5513Z" fill="black"/>
<path d="M77.7665 46.0786C79.1358 46.7022 80.6831 46.8486 82.15 46.4937C85.0783 45.1475 88.103 44.0103 91.2002 43.0905C90.8209 42.8804 90.4603 42.6395 90.1222 42.3707C88.6183 41.2036 86.8638 40.3817 84.9893 39.9661C81.3239 41.3281 77.7782 42.9779 74.3867 44.8993C75.5602 45.1502 76.6962 45.5466 77.7665 46.0786Z" fill="black"/>
<path d="M46.8613 77.7785C48.3454 77.4643 49.6782 76.6737 50.6464 75.5332C52.2383 72.7092 54.0307 69.9969 56.0104 67.4161C55.5935 67.4655 55.1731 67.4814 54.7534 67.4636C52.7391 67.4086 50.7403 67.8208 48.9212 68.6659C46.7625 71.9283 44.8701 75.3512 43.2617 78.9027C44.4046 78.3727 45.6152 77.9945 46.8613 77.7785Z" fill="black"/>
<path d="M65.3221 54.3888C66.8266 54.7157 68.401 54.5219 69.7749 53.8404C72.3398 51.9286 75.0401 50.1956 77.8555 48.6547C77.4441 48.5285 77.0441 48.3692 76.6598 48.1784C74.9253 47.3381 73.0157 46.8985 71.079 46.8934C67.785 48.9986 64.6671 51.3542 61.7539 53.9385C62.9582 53.9378 64.1576 54.0892 65.3221 54.3888Z" fill="black"/>
<path d="M54.8707 65.1111C56.4465 65.1153 57.9733 64.5772 59.182 63.5918C60.0954 62.5616 61.0412 61.5533 62.0196 60.567C63.2985 59.2836 64.6189 58.0584 65.9805 56.8913C65.548 56.853 65.1198 56.7793 64.7 56.6708C62.8052 56.2069 60.8257 56.1792 58.918 56.5895C58.7185 56.7857 58.5174 56.9771 58.321 57.1762C55.7448 59.762 53.3641 62.5259 51.1973 65.4466C52.401 65.1769 53.6363 65.0641 54.8707 65.1111Z" fill="black"/>
<path d="M39.4879 106.677C40.7624 105.746 41.6798 104.426 42.0929 102.927C42.3922 99.7525 42.9098 96.6017 43.6422 93.4953C43.2992 93.6959 42.941 93.8704 42.5706 94.0174C40.6504 94.8155 38.9533 96.0482 37.6197 97.6135C37.0059 101.43 36.6871 105.286 36.666 109.149C37.4917 108.209 38.4405 107.377 39.4879 106.677Z" fill="black"/>
<path d="M156.511 164.775C155.006 164.447 153.432 164.641 152.058 165.322C149.494 167.233 146.795 168.965 143.98 170.506C144.391 170.633 144.79 170.793 145.173 170.984C146.908 171.824 148.817 172.263 150.754 172.269C154.048 170.164 157.166 167.808 160.079 165.224C158.875 165.224 157.675 165.073 156.511 164.775Z" fill="black"/>
<path d="M182.344 112.488C181.071 113.416 180.155 114.734 179.741 116.23C179.441 119.404 178.924 122.555 178.191 125.662C178.534 125.461 178.892 125.287 179.262 125.14C181.183 124.338 182.881 123.103 184.216 121.535C184.828 117.721 185.147 113.867 185.168 110.007C184.343 110.951 183.393 111.785 182.344 112.488Z" fill="black"/>
<path d="M130.183 178.614C128.96 177.706 127.453 177.238 125.916 177.291C122.786 177.981 119.609 178.453 116.41 178.703C116.748 178.994 117.059 179.313 117.342 179.655C118.547 181.089 120.061 182.247 121.777 183.046C125.647 182.481 129.464 181.61 133.189 180.443C132.113 179.957 131.103 179.343 130.183 178.614Z" fill="black"/>
<path d="M100.531 180.521C99.7809 179.183 98.5848 178.135 97.1407 177.549C94.0244 176.92 90.9581 176.075 87.9648 175.021C88.1394 175.403 88.2833 175.798 88.3953 176.202C88.9259 178.034 89.8587 179.732 91.1292 181.178C94.8466 182.197 98.6416 182.925 102.478 183.354C101.716 182.488 101.062 181.537 100.531 180.521Z" fill="black"/>
<path fill-rule="evenodd" clip-rule="evenodd" d="M174.767 129.575C174.749 129.597 174.592 129.618 174.592 129.618C166.089 156.794 140.761 176.562 110.913 176.56C81.5839 176.56 56.6238 157.463 47.7026 131.004C47.6995 130.984 47.712 130.963 47.712 130.963H47.7811C46.4052 126.496 45.4243 121.922 44.8492 117.292V117.194H44.6292C44.3218 114.653 44.1738 112.096 44.1863 109.537C44.1799 102.773 45.2034 96.0466 47.2234 89.576C47.2327 89.5562 47.2437 89.5425 47.2437 89.5425C55.7486 62.3666 81.081 42.6005 110.92 42.6005C140.255 42.6005 165.237 61.6974 174.155 88.1609C174.159 88.1823 174.192 88.2069 174.192 88.2069H174.21C175.646 92.6689 176.687 97.2423 177.321 101.878V101.975H177.185C177.542 104.514 177.748 107.071 177.802 109.633C177.802 110.702 177.77 111.752 177.739 112.797C177.708 113.829 177.677 114.854 177.677 115.885C177.677 120.294 176.332 124.581 175.04 128.702C174.949 128.994 174.857 129.285 174.767 129.575ZM110.915 53.0135C79.9702 53.0135 54.7949 78.3898 54.7949 109.583C54.7949 140.776 79.9702 166.152 110.915 166.152C141.86 166.152 167.035 140.774 167.035 109.583C167.035 78.3912 141.86 53.0135 110.915 53.0135Z" fill="black"/>
<path d="M86.0574 176.814C85.6051 175.368 84.6742 174.108 83.4099 173.232C80.4716 171.953 77.6305 170.472 74.9082 168.8C74.9986 169.203 75.0569 169.613 75.0827 170.025C75.2261 171.96 75.8008 173.842 76.767 175.538C80.1827 177.314 83.7394 178.818 87.4024 180.038C86.8238 179.02 86.3722 177.937 86.0574 176.814Z" fill="black"/>
<path d="M72.6636 170.172C72.5138 168.623 71.8375 167.168 70.7421 166.037C68.1637 164.183 65.7185 162.159 63.4234 159.979C63.4285 160.397 63.4001 160.813 63.3385 161.226C63.0751 163.18 63.2547 165.167 63.8649 167.046C66.8349 169.487 69.9968 171.697 73.3219 173.655C72.9598 172.524 72.7387 171.354 72.6636 170.172Z" fill="black"/>
<path d="M135.773 42.3508C136.223 43.7977 137.154 45.0576 138.419 45.9332C141.357 47.2119 144.198 48.6931 146.92 50.3654C146.83 49.9619 146.772 49.5523 146.746 49.1402C146.603 47.2046 146.027 45.3228 145.06 43.6266C141.643 41.847 138.085 40.3382 134.42 39.1148C135.002 40.1367 135.456 41.2231 135.773 42.3508Z" fill="black"/>
<path d="M180.169 127.326C178.774 127.944 177.63 128.998 176.918 130.321C175.959 133.409 174.781 136.428 173.393 139.357C173.772 139.232 174.161 139.135 174.555 139.068C176.588 138.687 178.498 137.838 180.125 136.59C181.533 132.974 182.653 129.258 183.473 125.474C182.462 126.232 181.35 126.855 180.169 127.326Z" fill="black"/>
<path d="M166.963 154.054C165.388 154.047 163.861 154.585 162.654 155.572C161.739 156.603 160.793 157.612 159.814 158.598C158.535 159.882 157.215 161.107 155.854 162.274C156.285 162.312 156.713 162.385 157.132 162.493C159.027 162.958 161.007 162.985 162.914 162.574C163.114 162.379 163.315 162.186 163.513 161.989C166.09 159.403 168.471 156.639 170.638 153.719C169.434 153.988 168.198 154.101 166.963 154.054Z" fill="black"/>
<path d="M160.882 58.285C160.707 59.8652 161.082 61.4567 161.945 62.8045C164.068 65.129 166.029 67.5895 167.814 70.1698C167.895 69.7774 168.005 69.3913 168.145 69.015C168.818 67.1145 169.048 65.092 168.819 63.094C167.159 61.0317 165.388 59.0559 163.515 57.1747C162.677 56.3354 161.824 55.5185 160.956 54.7241C161.079 55.9097 161.054 57.1054 160.882 58.285Z" fill="black"/>
<path d="M174.964 141.385C173.477 141.698 172.142 142.49 171.173 143.632C169.58 146.456 167.788 149.168 165.809 151.749C166.225 151.7 166.646 151.685 167.066 151.703C169.078 151.759 171.076 151.349 172.895 150.505C175.057 147.243 176.953 143.821 178.565 140.269C177.421 140.796 176.21 141.172 174.964 141.385Z" fill="black"/>
<path d="M106.381 38.035C107.425 39.2175 108.865 40.0023 110.445 40.2511C110.602 40.2511 110.759 40.2511 110.916 40.2511C113.902 40.2517 116.886 40.4431 119.847 40.824C119.583 40.4737 119.349 40.1028 119.147 39.715C118.27 38.068 117.037 36.6255 115.534 35.4865C114.003 35.3931 112.465 35.3334 110.919 35.3334C108.555 35.3334 106.21 35.4432 103.885 35.6626C104.812 36.3523 105.65 37.1489 106.381 38.035Z" fill="black"/>
<path d="M115.455 181.129C114.41 179.946 112.971 179.161 111.39 178.914C111.233 178.914 111.076 178.914 110.919 178.914C107.931 178.914 104.948 178.722 101.986 178.341C102.251 178.692 102.485 179.063 102.687 179.451C103.564 181.099 104.797 182.541 106.301 183.68C107.831 183.774 109.371 183.833 110.917 183.833C113.28 183.833 115.624 183.723 117.95 183.504C117.023 182.813 116.185 182.016 115.455 181.129Z" fill="black"/>
<path d="M40.4395 121.639C41.4961 120.464 42.1214 118.98 42.2166 117.421C41.9245 114.818 41.7777 112.201 41.7766 109.583C41.7766 109.015 41.7834 108.448 41.7971 107.883C41.5027 108.153 41.1875 108.402 40.8542 108.625C39.1391 109.813 37.7341 111.376 36.752 113.189C36.9346 117.044 37.4162 120.879 38.1928 124.662C38.8038 123.564 39.5592 122.547 40.4395 121.639Z" fill="black"/>
<path d="M60.9511 160.88C61.1254 159.299 60.7503 157.707 59.8859 156.359C57.7629 154.035 55.8023 151.575 54.0174 148.995C53.9371 149.388 53.8267 149.775 53.6876 150.152C53.0129 152.048 52.781 154.068 53.0087 156.063C54.6712 158.129 56.4438 160.108 58.3193 161.992C59.1573 162.831 60.01 163.648 60.8774 164.442C60.7542 163.256 60.7789 162.06 60.9511 160.88Z" fill="black"/>
<path d="M149.166 48.9947C149.317 50.543 149.994 51.9979 151.088 53.1298C153.666 54.9844 156.111 57.0088 158.406 59.1886C158.402 58.7715 158.43 58.3548 158.491 57.942C158.755 55.9878 158.576 54.001 157.965 52.122C154.995 49.6811 151.833 47.4714 148.508 45.5134C148.87 46.6437 149.092 47.8126 149.166 48.9947Z" fill="black"/>
<path d="M121.305 38.6445C122.055 39.9814 123.25 41.0293 124.694 41.6156C127.811 42.2448 130.878 43.0898 133.872 44.1443C133.698 43.7623 133.554 43.3674 133.442 42.9635C132.912 41.1307 131.979 39.4325 130.708 37.986C126.991 36.9668 123.196 36.2392 119.359 35.8096C120.121 36.6755 120.775 37.6272 121.305 38.6445Z" fill="black"/>
<path d="M44.4733 136.074C45.2422 134.75 45.5524 133.22 45.3579 131.71C44.3362 128.654 43.5305 125.532 42.9462 122.368C42.7168 122.687 42.4633 122.989 42.1874 123.272C40.7504 124.791 39.6966 126.617 39.1094 128.603C40.0864 132.317 41.355 135.952 42.9038 139.477C43.2754 138.282 43.8029 137.138 44.4733 136.074Z" fill="black"/>
<path d="M180.983 110.541C182.699 109.354 184.105 107.79 185.088 105.976C184.905 102.121 184.422 98.2854 183.645 94.5014C183.033 95.6005 182.275 96.6167 181.393 97.5248C180.335 98.6994 179.711 100.184 179.617 101.744C179.908 104.347 180.054 106.964 180.056 109.583C180.056 110.15 180.049 110.717 180.035 111.283C180.331 111.012 180.648 110.765 180.983 110.541Z" fill="black"/>
<path d="M174.755 82.8725C174.911 82.5201 175.093 82.1791 175.3 81.8526C176.381 80.0854 177.032 78.1003 177.203 76.0495C175.473 72.6434 173.477 69.3721 171.232 66.2645C171.111 67.4778 170.836 68.6718 170.414 69.8191C169.929 71.283 169.946 72.861 170.464 74.3143C172.094 77.0677 173.527 79.9272 174.755 82.8725Z" fill="black"/>
<path d="M177.357 83.0915C176.588 84.4148 176.278 85.9444 176.472 87.4534C177.494 90.5101 178.3 93.6315 178.884 96.7957C179.114 96.4769 179.367 96.1753 179.643 95.8937C181.081 94.3733 182.135 92.5475 182.723 90.5609C181.746 86.8465 180.478 83.2112 178.928 79.6868C178.556 80.8825 178.028 82.0269 177.357 83.0915Z" fill="black"/>
<path d="M144.071 173.082C142.701 172.458 141.154 172.312 139.687 172.667C136.759 174.012 133.735 175.149 130.639 176.068C131.017 176.28 131.376 176.521 131.713 176.79C133.217 177.957 134.972 178.779 136.847 179.194C140.512 177.832 144.059 176.183 147.451 174.261C146.277 174.01 145.141 173.614 144.071 173.082Z" fill="black"/>
<path d="M138.969 132.595L125.892 115.31C128.044 114.48 130.033 113.294 131.77 111.803C134.941 109.066 138.723 103.911 138.723 94.8875C138.941 89.3693 136.713 84.0264 132.607 80.2214C126.142 74.4366 117.621 74.6205 114.888 74.6205H88.9046C84.753 74.65 81.4066 77.9447 81.418 81.9918C81.418 82.1449 81.4415 82.3792 81.4415 82.537V89.1594H118.05C121.38 89.2599 124.032 91.9109 124.051 95.1584V96.5492C124.013 99.7504 121.335 102.323 118.05 102.314H112.275C109.448 102.316 106.863 103.868 105.589 106.327C104.315 108.786 104.568 111.735 106.244 113.954L126.902 141.261C128.49 143.361 131.106 144.475 133.766 144.185C136.425 143.894 138.724 142.243 139.795 139.853C140.867 137.463 140.549 134.697 138.961 132.597L138.969 132.595Z" fill="#FF0000"/>
<path d="M81.4395 102.312V136.584H81.5289C82.0142 141.018 85.875 144.369 90.4501 144.326C94.9946 144.326 98.824 141.019 99.3715 136.622L99.4688 102.315L81.4395 102.312Z" fill="black"/>
</g>
<defs>
<clipPath id="clip0_4_4788">
<rect width="220" height="220" fill="white" transform="translate(0 0.5)"/>
</clipPath>
</defs>
</svg>
