<svg width="220" height="221" viewBox="0 0 220 221" fill="none" xmlns="http://www.w3.org/2000/svg">
<g clip-path="url(#clip0_4_4823)">
<path d="M110 220.5C170.751 220.5 220 171.251 220 110.5C220 49.7487 170.751 0.5 110 0.5C49.2487 0.5 0 49.7487 0 110.5C0 171.251 49.2487 220.5 110 220.5Z" fill="#3555F9"/>
<path fill-rule="evenodd" clip-rule="evenodd" d="M116.425 46.5385C110.548 46.2439 104.603 46.1207 98.7949 47.2031C96.9374 47.5164 95.1053 47.9522 93.2767 48.3871C92.9863 48.4562 92.6959 48.5253 92.4057 48.5939C69.5479 54.5198 50.6879 73.538 45.4262 96.3104C43.4282 104.409 43.0564 112.825 44.3328 121.07C44.4694 122.036 44.572 123.132 43.8339 123.906C40.3968 128.373 37.3285 133.155 35.0873 138.32C34.0417 140.821 36.406 143.629 39.0095 143.629C40.5622 143.522 41.9423 142.6 42.6381 141.204L42.7713 140.951C44.1823 138.268 45.5943 135.582 47.2507 133.024C47.7158 134.035 48.1546 135.059 48.5935 136.083C49.6306 138.505 50.6688 140.929 52.0614 143.177C61.1225 158.976 77.058 170.882 95.0707 174.794C107.494 177.74 120.723 176.788 132.736 172.575C143.165 168.825 152.503 162.54 159.913 154.283C172.766 140.156 178.8 120.199 175.63 101.449C175.619 101.333 175.604 101.215 175.589 101.096C175.515 100.507 175.438 99.888 175.876 99.4207C178.725 95.5294 181.479 91.5421 183.611 87.2261C183.756 86.9217 183.917 86.6178 184.078 86.312C184.674 85.1852 185.283 84.0318 185.149 82.7388C184.889 80.6182 183.009 79.0785 180.884 79.2448C179.347 79.1763 178.028 80.1971 177.399 81.5193C175.937 84.3281 174.434 87.1232 172.753 89.8089L172.649 89.5582C170.873 85.2767 169.086 80.9715 166.452 77.1209C159.225 65.7013 148.675 56.7815 136.228 51.5672C129.996 48.7583 123.204 47.3333 116.425 46.5385ZM55.7308 90.6515C60.7875 78.039 70.5388 67.3584 82.6544 60.9735C95.1528 54.4308 110.138 52.4371 123.88 55.938C144.51 60.6926 161.847 77.5184 166.562 97.9615C154.248 112.355 136.379 121.09 118.031 125.338C117.503 125.448 116.975 125.56 116.448 125.672C113.404 126.318 110.362 126.963 107.275 127.29C105.98 127.414 104.688 127.564 103.395 127.714C99.6797 128.144 95.9659 128.574 92.2143 128.386C94.2436 126.334 96.3181 124.323 98.3925 122.313C101.033 119.754 103.674 117.195 106.223 114.547C104.916 112.964 103.428 111.546 101.941 110.129C101.492 109.701 101.043 109.273 100.599 108.841C97.5792 111.694 94.6285 114.62 91.6781 117.544C89.6275 119.577 87.5773 121.61 85.504 123.618C84.1594 125 82.7395 126.309 81.3194 127.617C79.6289 129.174 77.9382 130.732 76.3745 132.415C77.1374 133.399 77.9833 134.316 78.9029 135.155C81.6981 137.888 84.4837 140.631 87.2689 143.374C91.1017 147.148 94.9333 150.921 98.7881 154.666C99.3421 155.198 99.8837 155.74 100.425 156.282C101.617 157.476 102.806 158.666 104.118 159.736C104.623 159.241 105.136 158.752 105.649 158.263C107.065 156.911 108.484 155.557 109.749 154.064C106.682 151.162 103.675 148.203 100.669 145.243C99.2877 143.884 97.9066 142.524 96.5194 141.17C96.1655 140.815 95.8066 140.466 95.448 140.116C94.2898 138.987 93.1337 137.86 92.1529 136.573C106.879 136.155 121.584 133.497 135.388 128.359C146.009 124.564 155.841 118.837 164.389 111.465C164.735 111.151 165.078 110.833 165.421 110.515C166.32 109.681 167.22 108.846 168.195 108.087C169.295 124.934 162.147 142.095 149.403 153.358C140.496 161.384 129.353 166.488 117.471 167.985C108.97 169.17 100.25 168.197 92.0777 165.676C78.1033 161.236 65.9399 151.405 58.9016 138.683C56.7696 134.669 54.822 130.517 53.7902 126.078C53.6535 125.433 53.5783 124.673 54.0977 124.159C62.824 114.225 74.2698 106.799 86.6793 102.14C87.1571 101.98 87.6347 101.818 88.1126 101.657C93.5618 99.8163 99.0329 97.9685 104.706 96.9543C112.346 95.4335 120.108 94.3236 127.912 94.214C125.458 96.9985 122.746 99.5413 120.034 102.084C117.935 104.052 115.835 106.02 113.856 108.101C114.894 109.633 116.257 110.896 117.617 112.156C118.209 112.704 118.8 113.252 119.363 113.821C120.043 113.303 120.696 112.75 121.318 112.163C125.008 108.474 128.746 104.831 132.483 101.188C136.221 97.5452 139.959 93.9023 143.649 90.2131C139.488 85.9336 135.207 81.7631 130.926 77.5913C128.086 74.8241 125.245 72.0565 122.438 69.2561C121.529 68.393 120.641 67.508 119.753 66.6232C118.519 65.3944 117.286 64.1655 115.994 62.9943C114.04 64.8304 112.086 66.6665 110.282 68.6533C113.142 71.6266 116.123 74.4851 119.104 77.3437C122.085 80.2022 125.066 83.0607 127.926 86.034C111.006 86.8561 93.9774 89.891 78.5135 96.9407C70.1903 100.695 62.2294 105.408 55.4301 111.492C54.2739 112.607 53.0507 113.65 51.7675 114.616C51.3165 106.463 52.8063 98.2697 55.7308 90.6515Z" fill="white"/>
</g>
<defs>
<clipPath id="clip0_4_4823">
<rect width="220" height="220" fill="white" transform="translate(0 0.5)"/>
</clipPath>
</defs>
</svg>
