<svg width="220" height="221" viewBox="0 0 220 221" fill="none" xmlns="http://www.w3.org/2000/svg">
<g clip-path="url(#clip0_4_4826)">
<path d="M110 220.5C170.751 220.5 220 171.251 220 110.5C220 49.7487 170.751 0.5 110 0.5C49.2487 0.5 0 49.7487 0 110.5C0 171.251 49.2487 220.5 110 220.5Z" fill="#EDF0F4"/>
<path d="M85.219 61.2022C91.3601 61.2022 96.3385 56.2239 96.3385 50.0828C96.3385 43.9417 91.3601 38.9633 85.219 38.9633C79.0779 38.9633 74.0996 43.9417 74.0996 50.0828C74.0996 56.2239 79.0779 61.2022 85.219 61.2022Z" fill="#8352A1"/>
<path d="M135.063 182.365C141.204 182.365 146.182 177.387 146.182 171.246C146.182 165.105 141.204 160.127 135.063 160.127C128.922 160.127 123.943 165.105 123.943 171.246C123.943 177.387 128.922 182.365 135.063 182.365Z" fill="#3E99D3"/>
<path d="M76.7481 95.9282C73.2628 91.4171 74.0944 84.9346 78.6055 81.4493L130.126 41.6441C134.637 38.1588 141.12 38.9904 144.605 43.5015C148.09 48.0126 147.259 54.4951 142.748 57.9802L91.2271 97.7856C86.716 101.271 80.2335 100.439 76.7481 95.9282Z" fill="#E53C54"/>
<path d="M76.7403 136.572C73.255 132.061 74.0866 125.578 78.5977 122.093L130.118 82.2878C134.629 78.8025 141.112 79.6341 144.597 84.1452C148.082 88.6563 147.251 95.1386 142.74 98.6239L91.2193 138.429C86.7082 141.914 80.2257 141.083 76.7403 136.572Z" fill="#F49352"/>
<path d="M75.9747 178.753C72.4894 174.242 73.321 167.759 77.8321 164.274L129.353 124.469C133.864 120.983 140.346 121.815 143.832 126.326C147.317 130.837 146.485 137.32 141.974 140.805L90.4536 180.61C85.9425 184.096 79.4601 183.264 75.9747 178.753Z" fill="#3EBB90"/>
</g>
<defs>
<clipPath id="clip0_4_4826">
<rect width="220" height="220" fill="white" transform="translate(0 0.5)"/>
</clipPath>
</defs>
</svg>
