<svg width="220" height="221" viewBox="0 0 220 221" fill="none" xmlns="http://www.w3.org/2000/svg">
<g clip-path="url(#clip0_4_4833)">
<path d="M110 220.5C170.751 220.5 220 171.251 220 110.5C220 49.7487 170.751 0.5 110 0.5C49.2487 0.5 0 49.7487 0 110.5C0 171.251 49.2487 220.5 110 220.5Z" fill="#FFD800"/>
<path fill-rule="evenodd" clip-rule="evenodd" d="M96.5917 56.421C96.5917 44.777 87.2813 35.3333 75.7994 35.3333C64.3172 35.3333 55 44.777 55 56.421C55 68.0649 64.3104 77.5018 75.7994 77.5018C87.2746 77.5018 96.5917 68.0649 96.5917 56.421ZM118.165 62.2771C118.932 61.8877 119.323 61.8877 120.474 61.8877C132.031 61.8877 141.273 71.6456 141.273 83.3648C140.889 94.2981 133.189 103.277 122.783 104.446H120.474C116.624 104.446 112.773 103.277 109.307 101.323C108.182 100.533 106.832 100.123 105.457 100.154C103.915 100.154 102.374 100.544 101.223 101.323C98.5237 102.888 97.3658 105.621 97.3658 108.744V112.256C96.5985 122.404 88.5144 130.214 78.4986 131.39H76.5734C65.0228 131.39 55.7742 121.631 55.7742 109.912C55.7742 99.3753 63.4814 90.779 73.8742 89.221H76.1899C80.04 89.221 83.8902 90.3894 87.3567 92.3437C88.4818 93.1341 89.8313 93.5435 91.2069 93.5123C92.7483 93.5123 94.2898 93.1227 95.4408 92.3437C98.14 90.779 99.2909 88.0457 99.2909 84.9228C98.5237 73.5999 106.998 63.4456 118.165 62.2771ZM162.442 89.221C162.833 88.8314 163.607 88.8314 164.367 88.8314C175.925 88.8314 185.167 98.5895 185.167 110.309C185.167 121.242 177.083 129.832 166.683 131.779H164.367C160.517 131.779 156.667 130.611 153.2 128.656C152.075 127.866 150.726 127.456 149.35 127.488C147.809 127.488 146.267 127.877 145.116 128.656C142.417 130.221 141.266 132.954 141.266 136.077V139.589C140.429 149.533 132.707 157.524 122.776 158.723H120.467C116.617 158.723 112.767 157.554 109.3 155.6C107.759 154.821 106.608 154.431 105.066 154.431C103.525 154.431 101.983 154.821 100.825 155.6C98.1332 157.165 96.9753 159.898 96.9753 163.021V166.533C96.208 176.688 88.1172 184.499 78.1081 185.667H76.1829C64.6255 185.667 55.3837 175.902 55.3837 164.19C55.7672 153.256 63.4676 144.277 73.8674 143.102H76.1829C80.0331 143.102 83.8833 144.277 87.3499 146.231C88.4748 147.022 89.8243 147.431 91.2001 147.4C92.7415 147.4 94.283 147.01 95.4338 146.231C98.1332 144.667 99.284 141.933 99.284 138.81C98.5167 127.488 106.608 117.333 117.775 116.165H120.083C123.934 116.165 127.784 117.333 131.25 119.288C132.792 120.067 133.95 120.456 135.491 120.456C137.026 120.456 138.574 120.067 139.725 119.288C142.417 117.723 143.575 114.989 143.575 111.867C142.808 100.544 151.275 90.3894 162.442 89.221Z" fill="white"/>
</g>
<defs>
<clipPath id="clip0_4_4833">
<rect width="220" height="220" fill="white" transform="translate(0 0.5)"/>
</clipPath>
</defs>
</svg>
