<svg width="220" height="221" viewBox="0 0 220 221" fill="none" xmlns="http://www.w3.org/2000/svg">
<g clip-path="url(#clip0_4_4836)">
<path d="M110 220.5C170.751 220.5 220 171.251 220 110.5C220 49.7487 170.751 0.5 110 0.5C49.2487 0.5 0 49.7487 0 110.5C0 171.251 49.2487 220.5 110 220.5Z" fill="#149DD9"/>
<path fill-rule="evenodd" clip-rule="evenodd" d="M93.5841 48.6246H104.299C104.498 48.6097 104.656 48.4517 104.67 48.253V37.5382C104.656 37.3395 104.498 37.1815 104.299 37.1666H93.5841C93.3853 37.1815 93.2273 37.3395 93.2124 37.5382V48.253C93.209 48.3525 93.2471 48.4491 93.3175 48.5195C93.3879 48.5901 93.4845 48.6281 93.5841 48.6246ZM104.299 68.3199H93.5841C93.3853 68.3051 93.2273 68.147 93.2124 67.9483V57.2336C93.2273 57.0346 93.3853 56.8766 93.5841 56.8619H104.299C104.498 56.8766 104.656 57.0346 104.67 57.2336V67.9483C104.656 68.147 104.498 68.3051 104.299 68.3199ZM104.299 87.9533H71.1637C71.0641 87.9567 70.9675 87.9186 70.8971 87.8482C70.8267 87.7778 70.7886 87.6812 70.7921 87.5816V76.8669C70.8069 76.668 70.9649 76.51 71.1637 76.4953H104.299C104.498 76.51 104.656 76.668 104.67 76.8669V87.5816C104.656 87.7804 104.498 87.9384 104.299 87.9533ZM47.7524 115.824H37.0376C36.8389 115.839 36.6809 115.997 36.666 116.195V126.91C36.6809 127.109 36.8389 127.267 37.0376 127.282H47.7524C47.9511 127.267 48.1091 127.109 48.124 126.91V116.195C48.1091 115.997 47.9511 115.839 47.7524 115.824ZM76.3663 115.824H87.081C87.2798 115.839 87.4378 115.997 87.4527 116.195V149.331C87.4378 149.529 87.2798 149.687 87.081 149.702H76.3663C76.1674 149.687 76.0094 149.529 75.9947 149.331V116.195C76.0094 115.997 76.1674 115.839 76.3663 115.824ZM152.608 105.109H163.323C163.522 105.094 163.68 104.936 163.694 104.737V94.0229C163.68 93.824 163.522 93.6659 163.323 93.6513H152.608C152.409 93.6659 152.251 93.824 152.236 94.0229V104.737C152.222 104.84 152.256 104.943 152.329 105.016C152.402 105.089 152.506 105.124 152.608 105.109ZM143.627 105.109H132.913C132.813 105.113 132.717 105.075 132.646 105.004C132.576 104.934 132.538 104.837 132.541 104.737V71.6023C132.556 71.4036 132.714 71.2455 132.913 71.2307H143.627C143.826 71.2455 143.984 71.4036 143.999 71.6023V104.737C143.984 104.936 143.826 105.094 143.627 105.109ZM56.733 115.824H67.4477C67.6373 115.857 67.7857 116.006 67.8193 116.195V126.91C67.8044 127.109 67.6464 127.267 67.4477 127.282H56.733C56.534 127.267 56.376 127.109 56.3613 126.91V116.195C56.376 115.997 56.534 115.839 56.733 115.824ZM148.892 133.042H115.757C115.558 133.057 115.4 133.215 115.385 133.413V144.128C115.4 144.327 115.558 144.485 115.757 144.5H148.892C149.091 144.485 149.249 144.327 149.263 144.128V133.413C149.251 133.213 149.092 133.054 148.892 133.042ZM124.551 113.532H171.498C171.598 113.529 171.694 113.567 171.765 113.637C171.835 113.708 171.873 113.804 171.87 113.904V124.309C171.855 124.508 171.697 124.666 171.498 124.681H124.551C124.353 124.666 124.195 124.508 124.18 124.309V113.904C124.195 113.705 124.353 113.547 124.551 113.532ZM126.41 152.675H115.695C115.496 152.69 115.338 152.848 115.323 153.047V163.761C115.338 163.96 115.496 164.118 115.695 164.133H126.41C126.608 164.118 126.766 163.96 126.781 163.761V153.047C126.785 152.947 126.747 152.85 126.676 152.78C126.606 152.71 126.509 152.672 126.41 152.675ZM95.4421 96.3144C95.6409 96.3292 95.7989 96.4872 95.8138 96.686V107.091C95.7989 107.29 95.6409 107.448 95.4421 107.463H48.4956C48.2969 107.448 48.1388 107.29 48.124 107.091V96.686C48.1388 96.4872 48.2969 96.3292 48.4956 96.3144H95.4421ZM182.956 93.713H172.241C172.043 93.7279 171.884 93.8859 171.87 94.0847V104.799C171.884 104.998 172.043 105.156 172.241 105.171H182.956C183.155 105.156 183.313 104.998 183.328 104.799V94.0847C183.342 93.9824 183.308 93.879 183.235 93.806C183.162 93.7328 183.058 93.6984 182.956 93.713ZM96.1854 124.681H106.59C106.789 124.695 106.947 124.853 106.962 125.052V171.999C106.947 172.197 106.789 172.356 106.59 172.37H96.1854C95.9866 172.356 95.8286 172.197 95.8138 171.999V125.052C95.8286 124.853 95.9866 124.695 96.1854 124.681ZM124.18 96.0047V48.9962C124.165 48.7975 124.007 48.6394 123.808 48.6246H113.403C113.204 48.6394 113.046 48.7975 113.032 48.9962V96.0047C113.046 96.2034 113.204 96.3615 113.403 96.3763H123.808C124.007 96.3615 124.165 96.2034 124.18 96.0047ZM115.695 172.37H126.41C126.512 172.356 126.615 172.39 126.688 172.463C126.762 172.536 126.796 172.64 126.781 172.742V183.457C126.766 183.655 126.608 183.813 126.41 183.828H115.695C115.496 183.813 115.338 183.655 115.323 183.457V172.742C115.338 172.543 115.496 172.385 115.695 172.37Z" fill="white"/>
</g>
<defs>
<clipPath id="clip0_4_4836">
<rect width="220" height="220" fill="white" transform="translate(0 0.5)"/>
</clipPath>
</defs>
</svg>
