<svg width="220" height="221" viewBox="0 0 220 221" fill="none" xmlns="http://www.w3.org/2000/svg">
<g clip-path="url(#clip0_4_4839)">
<path d="M110 220.5C170.753 220.5 220 171.253 220 110.5C220 49.747 170.753 0.5 110 0.5C49.247 0.5 0 49.747 0 110.5C0 171.253 49.247 220.5 110 220.5Z" fill="#EDF0F4"/>
<path d="M96.6068 94.4834V45.6509C96.6068 45.6509 80.7812 53.5183 80.7812 70.248C80.7812 86.9776 96.6068 94.4834 96.6068 94.4834Z" fill="#006E3C"/>
<path d="M96.6074 45.651C96.6074 45.651 112.433 53.5184 112.433 70.2481C112.433 86.9776 96.6074 94.4835 96.6074 94.4835V45.651Z" fill="#00B43C"/>
<path d="M133.41 117.362L155.113 105.064C155.113 105.064 147.608 99.9998 140.192 104.25C132.777 108.5 133.41 117.362 133.41 117.362Z" fill="#006E3C"/>
<path d="M155.114 105.064C155.114 105.064 155.566 114.107 148.15 118.267C140.735 122.517 133.41 117.362 133.41 117.362L155.114 105.064Z" fill="#00B43C"/>
<path fill-rule="evenodd" clip-rule="evenodd" d="M156.163 103.055L156.201 103.074L157.467 103.888V105.245C157.467 105.606 157.015 116.006 149.328 120.437C146.977 121.793 144.536 122.246 142.275 122.246C138.567 122.246 135.221 120.979 133.593 120.166L130.7 121.793C130.79 122.336 130.88 122.969 130.88 123.602C130.88 127.219 128.439 130.204 125.183 131.198V146.933C128.439 147.837 130.88 150.912 130.88 154.529C130.88 158.96 127.263 162.487 122.923 162.487C120.571 162.487 118.491 161.492 117.044 159.865L104.294 167.19C104.475 167.823 104.565 168.456 104.565 169.089C104.565 173.429 100.948 176.956 96.6072 176.956C92.1761 176.956 88.6493 173.429 88.6493 169.089C88.6493 168.456 88.7397 167.823 88.9206 167.19L76.1698 159.865C74.7229 161.492 72.643 162.487 70.2919 162.487C65.8608 162.487 62.334 158.87 62.334 154.529C62.334 150.912 64.7756 147.928 68.0311 146.933V131.198C64.7756 130.294 62.334 127.219 62.334 123.602C62.334 119.171 65.9511 115.644 70.2919 115.644C72.4622 115.644 74.3612 116.548 75.8081 117.905L88.9206 110.309C88.7397 109.676 88.6493 109.043 88.6493 108.41C88.6493 104.792 91.0005 101.718 94.3464 100.814V96.111C90.5484 93.579 78.4306 84.7169 78.4306 70.5192C78.4306 54.061 94.7081 43.8422 95.4315 43.3901L96.6072 42.6666L97.7828 43.3901C98.5062 43.8422 114.784 54.061 114.784 70.5192C114.784 84.7169 102.666 93.6696 98.8679 96.111V100.814C102.124 101.718 104.565 104.792 104.565 108.41C104.565 109.043 104.475 109.676 104.294 110.309L117.316 117.905C118.763 116.458 120.662 115.644 122.832 115.644C125.002 115.644 126.901 116.548 128.348 117.905L131.242 116.277C131.513 113.293 132.689 106.149 138.929 102.532C146.528 98.1134 155.423 102.675 156.163 103.055ZM122.923 127.038C123.736 127.038 124.46 126.767 125.093 126.315C125.726 125.772 126.178 125.049 126.268 123.964C126.359 123.783 126.359 123.602 126.359 123.421C126.359 121.974 125.455 120.708 124.188 120.166C123.827 119.985 123.284 119.894 122.832 119.894C122.38 119.894 121.928 119.985 121.566 120.166C120.391 120.618 119.577 121.703 119.396 122.969V123.421V123.964C119.577 124.868 120.029 125.682 120.752 126.224C121.023 126.496 121.295 126.677 121.656 126.767C122.109 126.948 122.47 127.038 122.923 127.038ZM126.359 154.529C126.359 156.519 124.731 158.056 122.832 158.056C122.199 158.056 121.476 157.875 121.023 157.514C120.029 156.881 119.305 155.795 119.305 154.529V154.439C119.305 154.077 119.396 153.715 119.486 153.354C119.667 152.721 120.119 152.178 120.662 151.726C121.114 151.364 121.656 151.093 122.199 151.003C122.28 151.003 122.362 150.984 122.451 150.964C122.561 150.939 122.683 150.912 122.832 150.912C123.646 150.912 124.46 151.183 125.002 151.636C125.907 152.359 126.359 153.354 126.359 154.529ZM117.768 148.47C118.582 147.747 119.577 147.204 120.662 146.933V131.198C119.396 130.837 118.311 130.204 117.406 129.299L104.203 136.986C104.475 137.619 104.565 138.433 104.565 139.156C104.565 139.63 104.496 140.035 104.419 140.491L104.384 140.693L117.768 148.47ZM96.6072 172.616C94.7986 172.616 93.3518 171.349 93.0805 169.631V169.089C93.0805 167.642 93.9847 166.376 95.2508 165.833C95.7029 165.652 96.1549 165.562 96.6072 165.562C97.0593 165.562 97.5114 165.652 97.9637 165.833C99.2296 166.376 100.134 167.642 100.134 169.089V169.631C99.8627 171.259 98.3254 172.616 96.6072 172.616ZM75.4463 148.47L88.8302 140.693C88.7397 140.241 88.6493 139.699 88.6493 139.156C88.6493 138.342 88.8302 137.619 89.011 136.895L75.8081 129.299C74.9039 130.204 73.8187 130.837 72.5526 131.198V146.933C73.6378 147.204 74.6325 147.747 75.4463 148.47ZM73.9091 154.529C73.9091 155.795 73.276 156.881 72.1909 157.514C71.6484 157.875 71.0154 158.056 70.3823 158.056C68.3928 158.056 66.8555 156.428 66.8555 154.529C66.8555 153.444 67.398 152.359 68.212 151.726C68.8451 151.274 69.5685 151.003 70.3823 151.003C70.5631 151.003 70.8344 151.003 71.0154 151.093C71.6484 151.183 72.1005 151.455 72.5526 151.816C73.0953 152.178 73.457 152.811 73.7283 153.444C73.8187 153.806 73.9091 154.168 73.9091 154.529ZM70.2919 120.075C68.3928 120.075 66.7652 121.613 66.7652 123.602C66.7652 124.687 67.3076 125.682 68.0311 126.586C68.5737 127.038 69.3876 127.31 70.2014 127.31C70.6537 127.31 71.1057 127.219 71.4675 127.038C71.8292 126.858 72.1005 126.677 72.3719 126.496C73.0953 125.953 73.6378 125.139 73.7283 124.235V123.692V123.15C73.5474 121.884 72.7336 120.799 71.5579 120.347C71.1961 120.166 70.744 120.075 70.2919 120.075ZM94.4369 105.606C95.0698 105.154 95.7932 104.883 96.6072 104.883C97.421 104.883 98.2349 105.154 98.7775 105.606C99.501 106.149 99.9531 106.963 100.044 107.867V108.41C100.044 109.495 99.501 110.58 98.6871 111.213C98.4158 111.394 98.1445 111.575 97.7828 111.756C97.4211 111.937 96.9689 112.027 96.5168 112.027C96.0646 112.027 95.6125 111.937 95.2508 111.756C94.889 111.665 94.6177 111.484 94.3464 111.213C93.5325 110.58 92.9899 109.585 92.9899 108.41V107.867C93.2612 106.963 93.7135 106.149 94.4369 105.606ZM98.7775 141.869C99.5913 141.236 100.134 140.332 100.134 139.247C100.134 139.247 100.134 139.156 99.9531 139.066C99.9531 138.704 99.9531 138.342 99.8627 138.071C99.6819 137.347 99.2296 136.714 98.6871 136.262C98.3254 135.991 97.8732 135.72 97.4211 135.629C97.1497 135.539 96.8786 135.539 96.5168 135.539C96.1549 135.539 95.8838 135.539 95.6125 135.629C95.0698 135.72 94.6177 135.991 94.256 136.262C93.7135 136.805 93.2612 137.438 93.0805 138.161C92.9899 138.433 92.9899 138.704 92.9899 139.066V139.156C92.9899 140.241 93.5325 141.236 94.3464 141.869C94.5273 142.05 94.7081 142.14 94.889 142.231C95.3411 142.502 95.8838 142.683 96.5168 142.683C97.1497 142.683 97.6924 142.502 98.2349 142.231C98.3254 142.185 98.4158 142.118 98.5062 142.05C98.5968 141.982 98.6871 141.914 98.7775 141.869ZM115.146 121.703C114.965 122.336 114.874 122.969 114.874 123.602C114.874 124.235 114.965 124.959 115.146 125.592L101.852 133.278C100.948 132.464 99.9531 131.922 98.7775 131.56V116.006C100.044 115.644 101.129 115.011 102.033 114.107L115.146 121.703ZM96.6072 48.002C93.0804 50.534 82.8618 58.9441 82.8618 70.6097C82.8618 80.3763 90.0058 87.4298 94.4369 90.7757V72.3279C94.4369 71.1522 95.3411 70.1575 96.6072 70.1575C97.7828 70.1575 98.7775 71.1522 98.7775 72.3279V90.7757C103.118 87.4298 110.353 80.3763 110.353 70.6097C110.353 58.9441 100.134 50.534 96.6072 48.002ZM91.0909 114.107C91.9953 115.011 93.1708 115.644 94.3464 116.006V131.56C93.1708 131.922 92.1761 132.464 91.2719 133.188L77.888 125.501C78.0689 124.868 78.1593 124.235 78.1593 123.602C78.1593 122.969 78.0689 122.336 77.888 121.703L91.0909 114.107ZM78.2497 154.529C78.2497 154.981 78.2497 155.434 78.1593 155.886L91.0909 163.391C92.0857 162.487 93.1708 161.854 94.4369 161.492V146.752C93.0805 146.3 91.8144 145.577 90.9102 144.582L77.888 152.088C78.1593 152.902 78.2497 153.715 78.2497 154.529ZM102.124 163.391C101.219 162.487 100.044 161.854 98.7775 161.492V146.752C100.134 146.391 101.4 145.577 102.304 144.582L115.326 152.088C115.055 152.811 114.965 153.625 114.965 154.529C114.965 154.981 114.965 155.434 115.055 155.886L102.124 163.391ZM138.296 117.272C140.828 117.905 144.083 118.176 146.977 116.548C151.227 114.107 152.403 108.862 152.765 106.42C150.413 105.425 145.259 103.888 141.099 106.33C138.205 108.048 136.758 111.032 136.125 113.474L140.466 110.942C141.551 110.309 142.817 110.67 143.45 111.756C144.083 112.841 143.722 114.107 142.636 114.74L138.296 117.272Z" fill="black"/>
</g>
<defs>
<clipPath id="clip0_4_4839">
<rect width="220" height="220" fill="white" transform="translate(0 0.5)"/>
</clipPath>
</defs>
</svg>
