<svg width="220" height="221" viewBox="0 0 220 221" fill="none" xmlns="http://www.w3.org/2000/svg">
<g clip-path="url(#clip0_4_4846)">
<path d="M110 220.5C170.751 220.5 220 171.251 220 110.5C220 49.7487 170.751 0.5 110 0.5C49.2487 0.5 0 49.7487 0 110.5C0 171.251 49.2487 220.5 110 220.5Z" fill="#EDF0F4"/>
<path d="M111.46 126.742C112.465 133.948 111.61 141.882 117.892 148.348C121.565 152.125 120.121 157.945 116.264 161.247C112.353 164.712 106.491 164.781 102.499 161.409C98.365 157.945 96.7253 151.986 100.513 148.071C106.726 141.581 106.16 133.764 106.899 126.027C107.084 124.133 108.054 121.615 104.924 120.841C102.072 120.137 99.9124 116.511 96.194 119.606C90.1198 124.652 82.4867 127.689 79.9232 136.593C78.3527 142.009 71.9667 143.729 66.8973 141.697C62.1904 139.984 59.3746 135.159 60.1994 130.218C61.2157 124.675 66.2621 120.022 71.8281 121.442C80.1311 123.555 86.3206 119.41 93.0992 116.442C94.5427 115.807 97.4066 115.287 96.4712 113.324C94.9008 110.102 97.7531 105.402 93.5034 103.462C86.8404 100.425 80.7315 95.8405 72.3478 98.2079C66.5739 99.8245 61.5391 95.6097 60.3842 90.0204C59.2285 84.4828 62.4821 78.9768 67.8905 77.318C73.2717 75.8051 79.4383 78.4033 80.8008 84.1196C82.9256 92.6881 90.7435 94.8012 96.2633 99.5244C96.6445 99.8476 97.5914 100.125 97.7993 99.9285C100.317 97.5151 103.481 96.06 106.229 94.0622C108.019 92.7574 106.656 89.7203 106.449 87.48C105.952 81.7985 105.455 76.3364 100.952 71.6594C96.8984 67.4561 97.9608 61.3704 102.107 57.7328C106.18 54.072 112.386 54.1677 116.345 57.9523C120.352 61.6938 121.126 67.6525 117.13 71.9597C113.562 75.8051 112.419 80.0432 111.853 84.928C110.779 93.785 111.726 95.6559 119.809 99.3512C120.571 99.709 121.23 100.009 121.888 99.4667C127.35 94.9282 134.983 92.9074 137.235 84.697C138.56 79.1255 144.142 75.6759 149.718 76.983C150.07 77.0639 150.417 77.1642 150.757 77.2833C155.804 78.9462 158.841 84.7663 157.582 90.3438C156.485 95.8115 151.17 99.3601 145.7 98.2772C145.376 98.2079 145.053 98.127 144.741 98.0346C136.253 95.4711 130.202 100.598 123.851 103.912C120.675 105.552 122.581 110.576 121.322 113.959C120.618 115.865 123.909 116.269 125.514 117.008C132.223 120.183 138.563 123.763 146.82 121.627C152.12 120.241 156.982 125.091 157.721 130.438C158.585 135.403 155.688 140.253 150.907 141.847C145.746 143.672 139.695 141.697 138.136 136.073C135.572 126.835 127.581 123.832 121.091 119.086C117.638 116.627 111.264 121.604 111.46 126.742Z" fill="#09CBCD"/>
<path d="M116.129 29.8334L175.023 63.7609C165.011 71.4863 163.06 71.6249 153.082 65.851C143.451 60.2695 133.828 54.7112 124.213 49.176C115.194 43.9794 113.97 41.1271 116.129 29.8334Z" fill="#09CBCD"/>
<path d="M43.1484 155.485C50.5736 148.845 57.3175 147.806 65.4473 153.36C74.316 159.411 83.9238 164.284 93.289 169.7C102.966 175.313 103.844 177.264 101.938 189.447L43.1484 155.485Z" fill="#09CBCD"/>
<path d="M43.3555 63.7146L102.018 29.8333C104.201 41.2541 103.081 43.8638 93.9347 49.1412C84.4656 54.638 74.6384 59.6151 65.5966 65.747C57.5708 71.2091 50.7922 70.4816 43.3555 63.7146Z" fill="#09CBCD"/>
<path d="M174.859 155.162L116.346 189.355C113.956 178.442 115.284 175.336 124.234 170.151C133.876 164.573 143.865 159.469 153.103 153.268C160.875 148.002 167.492 148.522 174.859 155.162Z" fill="#09CBCD"/>
<path d="M36.666 75.4586C46.2622 78.207 50.0152 83.8538 49.3686 93.5424C48.5834 104.432 49.1954 115.483 49.1838 126.373C49.1838 136.904 47.5903 139.075 36.7007 142.84L36.666 75.4586Z" fill="#08CBCD"/>
<path d="M181.462 143.002C170.099 138.383 169.117 137.008 169.117 125.611V88.727C169.109 82.5497 173.516 77.249 179.591 76.1283C182.894 75.4701 181.901 77.9644 181.901 79.3271C181.993 88.9233 181.901 98.5196 181.901 108.116V141.547C181.806 142.046 181.658 142.533 181.462 143.002Z" fill="#08CBCD"/>
</g>
<defs>
<clipPath id="clip0_4_4846">
<rect width="220" height="220" fill="white" transform="translate(0 0.5)"/>
</clipPath>
</defs>
</svg>
