<svg width="220" height="221" viewBox="0 0 220 221" fill="none" xmlns="http://www.w3.org/2000/svg">
<g clip-path="url(#clip0_4_4855)">
<path d="M110 220.5C170.751 220.5 220 171.251 220 110.5C220 49.7487 170.751 0.5 110 0.5C49.2487 0.5 0 49.7487 0 110.5C0 171.251 49.2487 220.5 110 220.5Z" fill="#3D58B0"/>
<path fill-rule="evenodd" clip-rule="evenodd" d="M27.5 110.507C27.5 65.0062 64.5062 28 110.007 28C155.501 28 192.507 65.0062 192.5 110.507C192.5 156.001 155.508 193 110.007 193C64.5062 193 27.5 156.008 27.5 110.507ZM160.428 60.0835C147.058 46.7119 128.916 39.2103 110.007 39.2341C91.0969 39.2103 72.9546 46.7117 59.5832 60.0832C46.2117 73.4546 38.7103 91.5969 38.7341 110.507C38.7103 129.416 46.2119 147.558 59.5835 160.928C72.9551 174.299 91.0974 181.799 110.007 181.773C128.915 181.797 147.056 174.296 160.426 160.926C173.796 147.556 181.297 129.415 181.273 110.507C181.299 91.5974 173.799 73.4551 160.428 60.0835Z" fill="white"/>
<path fill-rule="evenodd" clip-rule="evenodd" d="M79.3555 140.96V80.04H140.654V140.96H79.3555ZM130.666 90.0213H89.3435V130.979H130.666V90.0213Z" fill="white"/>
</g>
<defs>
<clipPath id="clip0_4_4855">
<rect width="220" height="220" fill="white" transform="translate(0 0.5)"/>
</clipPath>
</defs>
</svg>
