<svg width="220" height="221" viewBox="0 0 220 221" fill="none" xmlns="http://www.w3.org/2000/svg">
<g clip-path="url(#clip0_4_4865)">
<path d="M110 220.5C170.751 220.5 220 171.251 220 110.5C220 49.7487 170.751 0.5 110 0.5C49.2487 0.5 0 49.7487 0 110.5C0 171.251 49.2487 220.5 110 220.5Z" fill="#EDF0F4"/>
<path fill-rule="evenodd" clip-rule="evenodd" d="M157.666 119.164V126.704C157.666 147.817 126.902 159.882 117.552 162.898L114.234 164.104V151.135L116.043 150.532C130.823 145.103 145.602 135.753 145.602 126.704V119.164H157.666ZM110.916 57.3334L123.584 61.2543V74.5253L110.916 70.6043L110.011 70.9059V100.766H123.282V113.132H110.011V163.803L106.392 162.596C104.884 161.993 102.169 161.088 98.8516 159.58L97.3435 158.977V61.2543L110.916 57.3334ZM93.7241 62.7624V76.0334L76.5322 81.1608V100.766H93.7241V157.771L89.8032 155.961C78.0401 149.929 64.166 139.975 64.166 125.8V119.164H76.5322V125.8C76.5322 128.816 78.0401 131.832 81.0563 134.848V113.132H64.166V71.5093L93.7241 62.7624ZM127.203 62.4608L157.364 71.8108V113.433H139.569V131.53C139.569 131.53 135.648 136.657 127.203 140.88C127.203 138.467 127.203 101.972 127.203 79.6527V62.4608ZM139.871 79.3512V100.766H145.3V81.1608L139.871 79.3512Z" fill="#050101"/>
</g>
<defs>
<clipPath id="clip0_4_4865">
<rect width="220" height="220" fill="white" transform="translate(0 0.5)"/>
</clipPath>
</defs>
</svg>
