<svg width="220" height="221" viewBox="0 0 220 221" fill="none" xmlns="http://www.w3.org/2000/svg">
<g clip-path="url(#clip0_4_4859)">
<path d="M110 220.5C170.751 220.5 220 171.251 220 110.5C220 49.7487 170.751 0.5 110 0.5C49.2487 0.5 0 49.7487 0 110.5C0 171.251 49.2487 220.5 110 220.5Z" fill="#030000"/>
<path d="M104.938 125.106L105.994 130.301L107.944 127.704L109.857 137.456L111.76 127.704L113.71 130.301L114.766 125.106H104.938Z" fill="url(#paint0_linear_4_4859)"/>
<path d="M115.034 116.848V102.214C115.034 99.3596 109.896 92.1381 109.896 92.1381C109.896 92.1381 104.71 99.3596 104.71 102.214V116.848C101.341 117.941 98.4058 120.077 96.3281 122.946H123.378C121.31 120.084 118.389 117.949 115.034 116.848Z" fill="white"/>
<path fill-rule="evenodd" clip-rule="evenodd" d="M164.526 124.041C168.762 124.041 172.195 127.474 172.195 131.709C172.19 135.943 168.759 139.373 164.526 139.378C160.291 139.378 156.857 135.945 156.857 131.709C156.857 127.474 160.291 124.041 164.526 124.041ZM162.801 127.554C161.123 128.252 160.031 129.892 160.035 131.709C160.046 134.184 162.052 136.186 164.526 136.191C166.344 136.191 167.982 135.096 168.676 133.416C169.371 131.737 168.985 129.805 167.698 128.521C166.412 127.237 164.479 126.856 162.801 127.554Z" fill="url(#paint1_linear_4_4859)"/>
<path fill-rule="evenodd" clip-rule="evenodd" d="M27.5 110.349C27.5578 64.8891 64.3986 28.0524 109.859 28C154.996 28.4825 191.334 65.209 191.336 110.349C191.339 155.489 155.006 192.219 109.868 192.709C84.5115 192.709 66.8048 186.2 54.1409 172.223C54.1409 172.223 75.8533 186.275 109.706 182.118C152.037 176.951 181.637 147.551 181.637 110.349C181.619 106.159 181.234 101.979 180.486 97.8564H179.791C173.524 97.8595 167.923 93.9487 165.767 88.0646C163.61 82.1805 165.358 75.5761 170.143 71.5294C159.734 55.3275 143.241 43.9979 124.383 40.0956C105.526 36.1934 85.8908 40.047 69.9067 50.7876L70.0128 50.9603C70.2339 51.3195 70.4534 51.6757 70.6583 52.053C74.0885 58.5015 73.8899 66.2756 70.1353 72.5406C66.3804 78.8059 59.6182 82.6462 52.3142 82.6616C49.5996 82.6551 46.9119 82.1253 44.398 81.101C40.2637 90.2972 38.1297 100.266 38.1374 110.349V111.919C41.2713 112.96 43.554 115.674 44.0424 118.939C44.5308 122.205 43.1418 125.468 40.4494 127.38C45.4161 144.782 57.8802 157.275 73.2462 158.55C97.8322 160.596 122.561 141.833 122.808 141.643L123.836 140.853C132.075 133.593 141.495 120.739 142.246 99.8069L110.211 77.8186L78.1655 99.8069C79.0979 125.706 93.1509 139.321 102.846 145.62C99.0501 147.304 95.168 148.75 91.267 150.158C90.0873 149.188 88.9454 148.179 87.8608 147.152C78.5745 138.351 67.509 122.518 67.509 97.0476V94.2503L110.211 64.9642L152.903 94.2503V97.0571C152.903 122.528 141.837 138.36 132.551 147.161C131.837 147.837 131.095 148.503 130.296 149.197L129.23 150.082C124.33 154.198 118.822 157.533 112.903 159.968C102.989 164.858 87.9369 170.405 72.371 169.121C46.7861 166.999 27.5 141.747 27.5 110.349ZM39.5551 123.926C40.1841 123.218 40.6201 122.359 40.8204 121.434C41.3136 119.134 40.308 116.773 38.3086 115.535C38.5359 118.357 38.9525 121.16 39.5551 123.926ZM67.842 53.5468C71.3209 60.0826 70.3483 68.0952 65.4067 73.6087C60.465 79.1225 52.6062 80.9634 45.7299 78.2181C50.8182 68.1192 58.2063 59.3557 67.2997 52.6334C67.3787 52.7773 67.4711 52.9234 67.5651 53.0719C67.6636 53.2278 67.7638 53.386 67.8515 53.5468H67.842ZM168.833 87.195C170.593 91.7107 174.945 94.6825 179.791 94.6785L179.858 94.669C178.248 87.4975 175.542 80.617 171.837 74.2697C168.266 77.5462 167.073 82.6792 168.833 87.195Z" fill="url(#paint2_linear_4_4859)"/>
</g>
<defs>
<linearGradient id="paint0_linear_4_4859" x1="114.771" y1="137.456" x2="114.771" y2="125.106" gradientUnits="userSpaceOnUse">
<stop stop-color="#B5E0DA"/>
<stop offset="0.63" stop-color="#3CBAB2"/>
<stop offset="0.97" stop-color="#00A89E"/>
<stop offset="1" stop-color="#00A69C"/>
</linearGradient>
<linearGradient id="paint1_linear_4_4859" x1="172.195" y1="139.407" x2="172.195" y2="124.069" gradientUnits="userSpaceOnUse">
<stop stop-color="#B5E0DA"/>
<stop offset="0.63" stop-color="#3CBAB2"/>
<stop offset="0.97" stop-color="#00A89E"/>
<stop offset="1" stop-color="#00A69C"/>
</linearGradient>
<linearGradient id="paint2_linear_4_4859" x1="191.778" y1="192.709" x2="191.778" y2="28" gradientUnits="userSpaceOnUse">
<stop stop-color="#B5E0DA"/>
<stop offset="0.63" stop-color="#3CBAB2"/>
<stop offset="0.97" stop-color="#00A89E"/>
<stop offset="1" stop-color="#00A69C"/>
</linearGradient>
<clipPath id="clip0_4_4859">
<rect width="220" height="220" fill="white" transform="translate(0 0.5)"/>
</clipPath>
</defs>
</svg>
