<svg width="220" height="221" viewBox="0 0 220 221" fill="none" xmlns="http://www.w3.org/2000/svg">
<g clip-path="url(#clip0_4_4871)">
<path d="M110 220.5C170.751 220.5 220 171.251 220 110.5C220 49.7487 170.751 0.5 110 0.5C49.2487 0.5 0 49.7487 0 110.5C0 171.251 49.2487 220.5 110 220.5Z" fill="#8E9495"/>
<path d="M51.9809 142.28C50.3946 138.852 49.2181 135.248 48.4763 131.543C48.049 129.592 47.778 127.61 47.666 125.616H53.8577C53.9993 127.219 54.2304 128.814 54.5504 130.391C55.2223 133.646 56.2334 136.88 57.6186 139.83C61.3309 147.714 66.9686 152.212 75.155 152.212C81.5546 152.212 86.5136 149.644 90.0043 145.119C92.9684 141.295 94.6446 136.221 94.6446 131.96C94.6446 126.497 92.5807 122.472 88.4597 119.064C85.1076 116.288 81.2497 114.345 73.285 111.027L71.879 110.444C63.5957 107.009 59.7726 105.121 56.0533 102.178C50.9143 98.1111 48.1854 93.0654 48.1854 86.6038C48.1854 78.8651 50.9627 72.3065 55.9356 67.6702C60.6513 63.3447 66.8229 60.9624 73.2157 61.0006C82.081 61.0006 88.8476 64.6997 93.3494 71.1822V62.3679H113.351V150.838H119.294V126.012C119.284 125.808 119.284 125.604 119.294 125.401L125.486 125.609V125.921C125.608 127.427 125.816 128.924 126.109 130.405C126.753 133.632 127.75 136.873 129.136 139.823C132.827 147.701 138.472 152.205 146.651 152.205C153.051 152.205 158.01 149.637 161.501 145.112C164.465 141.288 166.141 136.214 166.141 131.953C166.141 126.491 164.077 122.465 159.956 119.057C156.604 116.281 152.746 114.338 144.781 111.02L143.375 110.437C135.092 107.002 131.269 105.114 127.55 102.171C122.411 98.1041 119.682 93.0584 119.682 86.5968C119.682 78.8583 122.459 72.2996 127.432 67.6633C132.149 63.3403 138.32 60.9606 144.712 61.0006C153.577 61.0006 160.344 64.6997 164.846 71.1822V62.7426H171.044V93.4331H164.846C164.846 87.0201 163.377 80.5239 160.489 75.7281C157.082 70.0578 151.957 66.9624 144.712 66.9624C139.916 66.9275 135.284 68.707 131.74 71.9456C128 75.4436 125.874 80.4476 125.874 86.5968C125.874 91.1776 127.716 94.5784 131.484 97.5627C134.6 100.027 138.091 101.748 145.827 104.961L147.233 105.544C155.773 109.091 160.005 111.235 163.994 114.532C169.445 119.043 172.333 124.693 172.333 131.953C172.333 137.477 170.241 143.793 166.473 148.679C161.84 154.669 155.073 158.167 146.651 158.167C140.813 158.167 135.805 156.39 131.691 153.1C129.229 151.105 127.13 148.698 125.486 145.986V156.799H107.16V68.3297H99.5413V93.4331H93.3494C93.3494 87.0201 91.8811 80.5239 88.993 75.7281C85.5854 70.0578 80.4603 66.9624 73.2157 66.9624C68.4197 66.9275 63.7873 68.707 60.2434 71.9456C56.5034 75.4436 54.3773 80.4476 54.3773 86.5968C54.3773 91.1776 56.2196 94.5784 59.9873 97.5627C63.104 100.027 66.5946 101.748 74.3307 104.961L75.7367 105.544C84.2764 109.091 88.5083 111.235 92.4976 114.532C97.9483 119.043 100.836 124.693 100.836 131.953C100.836 137.477 98.7447 143.793 94.977 148.679C90.3436 154.669 83.577 158.167 75.155 158.167C69.3164 158.167 64.309 156.39 60.195 153.1C57.6711 151.056 55.5261 148.582 53.8577 145.792V156.425H47.666V125.609H53.8577V145.792C53.1693 144.656 52.5429 143.484 51.9809 142.28Z" fill="white"/>
</g>
<defs>
<clipPath id="clip0_4_4871">
<rect width="220" height="220" fill="white" transform="translate(0 0.5)"/>
</clipPath>
</defs>
</svg>
