<svg width="220" height="221" viewBox="0 0 220 221" fill="none" xmlns="http://www.w3.org/2000/svg">
<g clip-path="url(#clip0_4_4874)">
<path d="M110 220.5C170.751 220.5 220 171.251 220 110.5C220 49.7487 170.751 0.5 110 0.5C49.2487 0.5 0 49.7487 0 110.5C0 171.251 49.2487 220.5 110 220.5Z" fill="#2B77B3"/>
<path fill-rule="evenodd" clip-rule="evenodd" d="M185.165 110.77C184.84 152.508 150.603 185.978 108.551 185.665C66.4643 185.357 32.6635 151.381 33.0025 109.731C33.3483 68.4772 67.6817 35.0616 109.429 35.335C151.482 35.6151 185.469 69.4749 185.165 110.776V110.77ZM38.508 110.53C38.5841 148.935 70.0333 179.938 108.98 180.027C147.968 180.095 179.777 148.88 179.645 110.435C179.5 70.3907 145.928 40.1867 107.285 40.8427C69.9226 41.4715 38.4319 72.8507 38.508 110.53ZM127.625 77.8997L127.627 77.8938V77.9006L127.625 77.8997ZM102.139 74.6206C110.819 72.5845 119.236 73.5066 127.625 77.8997L124.812 86.791C123.257 86.5378 121.737 86.2701 120.238 86.0063C116.684 85.3806 113.255 84.7769 109.796 84.4403C106.877 84.1601 103.848 84.9118 102.72 88.1577C101.558 91.4856 101.42 95.0322 104.207 97.6016C106.175 99.4091 108.377 100.959 110.581 102.509C111.585 103.215 112.59 103.922 113.572 104.654C114.447 105.304 115.348 105.929 116.249 106.555C118.321 107.993 120.394 109.432 122.149 111.18C128.975 117.986 130.186 126.241 127.385 135.138C125.724 140.413 121.768 143.748 116.706 145.771C108.959 148.873 95.7694 147.342 88.3619 142.422L91.6125 133.102C93.0585 133.478 94.4669 133.879 95.8525 134.272C98.9873 135.163 102.007 136.021 105.086 136.505C109.319 137.167 113.752 136.525 115.924 132.254C118.11 127.949 117.418 123.418 113.994 119.961C111.982 117.931 109.581 116.27 107.185 114.613C106.435 114.094 105.685 113.575 104.947 113.045C104.019 112.381 103.042 111.78 102.066 111.179C100.873 110.446 99.6799 109.712 98.5774 108.863C90.5701 102.814 87.8337 92.1133 91.9722 83.0326C93.7702 78.7584 97.5648 75.6188 102.139 74.6206ZM71.7416 109.259C71.7418 114.018 67.8637 117.889 63.0476 117.938C58.2061 117.959 54.0701 113.79 54.1806 109.027C54.37 104.279 58.321 100.526 63.1306 100.526C67.9721 100.595 71.7762 104.455 71.7486 109.259H71.7416ZM163.869 109.075C163.807 104.278 160.21 100.759 155.382 100.766C150.05 100.766 146.384 104.203 146.384 109.205C146.364 113.967 150.224 117.859 155.043 117.938C157.414 117.953 159.69 117.02 161.353 115.35C163.016 113.68 163.923 111.417 163.869 109.075Z" fill="white"/>
</g>
<defs>
<clipPath id="clip0_4_4874">
<rect width="220" height="220" fill="white" transform="translate(0 0.5)"/>
</clipPath>
</defs>
</svg>
