<svg width="220" height="221" viewBox="0 0 220 221" fill="none" xmlns="http://www.w3.org/2000/svg">
<g clip-path="url(#clip0_4_4877)">
<path d="M110 220.5C170.753 220.5 220 171.253 220 110.5C220 49.747 170.753 0.5 110 0.5C49.247 0.5 0 49.747 0 110.5C0 171.253 49.247 220.5 110 220.5Z" fill="#EDF0F4"/>
<path d="M152.116 59.2107C151.651 59.2107 151.229 59.2107 150.764 59.2545H138.731V61.8921C142.996 61.8921 147.218 61.9361 151.482 61.8921C152.538 61.9361 153.678 61.8481 154.649 62.1998C155.493 62.5954 156.211 63.4307 156.886 64.0899C163.726 71.475 170.735 78.6402 177.574 86.0252C155.071 109.675 132.525 133.324 110.022 156.974C87.4337 133.28 64.9301 109.631 42.3843 85.9372C49.1396 78.904 55.7682 71.8266 62.5234 64.7934C63.7479 63.6065 64.8455 61.9361 66.7456 61.9799C72.1919 61.8921 77.6807 62.0239 83.1693 61.9361C83.2537 61.9361 83.3804 61.9361 83.4649 61.9361H92.9645L94.3578 59.2107H75.2741H69.2787C67.7165 59.2107 66.1544 59.1227 64.6345 59.3865C63.6634 59.6063 62.8613 60.3976 62.1857 61.0569C55.6838 67.8704 49.2241 74.684 42.7643 81.5414C41.4132 82.9921 40.0622 84.6185 38.5 85.8054V85.9812C42.0887 89.4539 45.4241 93.1904 48.8862 96.7949C69.2787 118.203 89.6713 139.566 110.064 160.93C132.652 137.237 155.198 113.587 177.743 89.8935C179.01 88.5748 180.15 87.2559 181.543 86.0692V85.8494C180.277 84.7065 179.137 83.3876 177.954 82.1569C171.199 75.0357 164.402 67.9583 157.688 60.793C157.055 60.1778 156.337 59.4305 155.409 59.2985C154.311 59.2545 153.213 59.2107 152.116 59.2107Z" fill="#6666FF"/>
<path fill-rule="evenodd" clip-rule="evenodd" d="M138.731 64.0901V66.7715H147.048C147.541 66.784 148.03 66.7895 148.517 66.7948C149.74 66.8082 150.949 66.8216 152.157 66.9474C152.854 66.9855 153.328 67.4557 153.801 67.9247C153.872 67.9951 153.943 68.0653 154.014 68.1343C156.399 70.6353 158.775 73.1525 161.153 75.6718L161.155 75.6735L161.157 75.6753C164.337 79.0442 167.522 82.4172 170.734 85.7616L113.356 146.16C112.654 146.92 111.933 147.661 111.206 148.408C110.84 148.784 110.472 149.162 110.105 149.545C89.9237 128.269 69.7422 107.037 49.5187 85.8054C54.9228 80.0029 60.3693 74.2884 65.8158 68.5739C66.3647 67.9584 66.9979 67.4308 67.6735 67.0354C68.5179 66.8594 69.3623 66.7715 70.2068 66.8155C77.2152 66.8594 84.2239 66.8594 91.2325 66.8594C91.2325 66.7719 91.2349 66.685 91.2393 66.5988C91.2494 66.4749 91.2597 66.3512 91.2721 66.2281C91.3361 65.7128 91.474 65.22 91.6548 64.7494V64.7056C91.6548 64.6927 91.6548 64.6837 91.6568 64.6751C91.6617 64.6542 91.6791 64.6361 91.7391 64.5736C91.7604 64.5077 91.7919 64.4527 91.8236 64.3977C91.8553 64.3427 91.8869 64.2879 91.9081 64.2219H75.9064H68.9401H68.8978C68.7898 64.2258 68.6825 64.2291 68.5758 64.2322C67.4734 64.265 66.4442 64.2956 65.5202 65.0572C64.5735 65.8202 63.7595 66.7442 62.9501 67.6629C62.6404 68.0144 62.3313 68.3651 62.016 68.7057C56.5695 74.3324 51.0809 80.0469 45.7188 85.8054C67.1667 108.4 88.6149 130.951 110.105 153.501L110.725 152.849C130.868 131.659 150.97 110.513 171.114 89.3661C171.429 89.0247 171.763 88.6872 172.101 88.3466C172.892 87.5471 173.701 86.7301 174.323 85.8054C173.985 85.2779 173.605 84.7505 173.14 84.3109C171.074 82.1417 169.021 79.9726 166.971 77.8064C163.911 74.5727 160.856 71.3457 157.772 68.1343C157.468 67.8175 157.17 67.4906 156.872 67.163C156.093 66.3084 155.31 65.4486 154.394 64.7494C153.477 64.0848 152.144 64.0875 151.038 64.0897L150.848 64.0901H138.731ZM91.3937 65.4603C91.421 65.3566 91.4516 65.2517 91.4859 65.145C91.4498 65.2482 91.4195 65.3536 91.3937 65.4603ZM91.3937 65.4603C91.2863 65.8699 91.2325 66.2628 91.2325 66.6835C91.2347 66.6553 91.2371 66.6271 91.2393 66.5988C91.2459 66.474 91.2569 66.3504 91.2721 66.2281C91.2984 65.9673 91.3337 65.7095 91.3937 65.4603Z" fill="#6666FF"/>
<path d="M73.1238 69.1891C72.5327 69.2331 71.9417 69.2331 71.3506 69.2331C71.2239 69.2331 71.1394 69.2331 71.0127 69.2331C70.2528 69.2331 69.4929 69.321 68.7328 69.4968C67.8885 69.8046 67.1708 70.5519 66.5795 71.1233C61.9353 76.0027 57.3755 80.882 52.7734 85.7614C71.815 105.894 90.983 125.895 110.025 146.028C112.009 144.05 113.951 141.94 115.893 139.918C132.993 121.851 150.134 103.828 167.318 85.8054C163.138 81.1898 158.747 76.75 154.483 72.1782C153.681 71.2551 152.836 70.4639 151.865 69.7606C151.063 69.2771 150.007 69.2771 149.079 69.2771H138.735V72.0024C141.774 72.0024 144.772 72.0024 147.812 71.9586C148.91 72.0024 150.176 71.8706 151.021 72.6618C152.118 73.6729 153.174 74.7278 154.187 75.8707C157.227 79.1676 160.478 82.3327 163.391 85.7174C162.547 86.9483 161.365 88.0472 160.309 89.1463C143.505 106.73 126.828 124.445 109.982 141.984C93.4318 124.577 76.8814 107.169 60.331 89.7615C59.1065 88.4428 57.7134 87.2121 56.6577 85.7614C57.4178 84.5745 58.5578 83.5636 59.4866 82.5525C62.1887 79.6952 64.9752 76.794 67.6773 73.9366C68.2684 73.2773 68.944 72.6618 69.7461 72.2222C70.5483 72.0024 71.3506 71.9146 72.1527 71.9586C78.6124 72.0024 85.03 72.0024 91.4898 72.0024V71.9586H94.1074C94.0652 71.9586 94.0229 71.9586 93.9807 71.9146C92.9253 71.2991 92.0808 70.332 91.6165 69.1891H73.1238Z" fill="#6666FF"/>
<path d="M75.5686 74.2883C73.5421 74.2883 71.5155 74.5081 69.7421 75.563C68.1378 76.4861 66.9556 78.2005 65.7312 79.5632C63.8313 81.6732 61.8469 83.6953 59.8203 85.7175C62.8602 89.1022 66.069 92.3111 69.1932 95.652C82.7883 109.982 96.3834 124.269 110.021 138.555C126.74 120.972 143.459 103.389 160.179 85.8493C157.645 83.0359 154.943 80.4425 152.452 77.673C151.692 76.7499 150.848 75.8707 149.877 75.1674C148.906 74.5081 147.597 74.552 146.499 74.5081H138.688V77.1456C141.433 77.1896 144.177 77.2334 146.921 77.2334C148.357 77.1896 149.117 78.2005 150.046 79.1237C152.114 81.3655 154.225 83.6073 156.337 85.8053C140.968 102.158 125.389 118.335 110.021 134.643C95.5811 119.521 81.2261 104.4 66.829 89.234C65.7735 88.1351 64.5912 87.0362 63.7469 85.7613C64.8867 84.2228 66.3646 82.9481 67.6312 81.4974C68.8977 80.2226 69.9955 78.7719 71.3888 77.673C71.9799 77.1896 72.6976 77.2334 73.4154 77.1896C79.4108 77.0138 85.4483 77.1016 91.4858 77.1016V77.0576H97.0166C96.3834 76.3103 95.9612 75.4312 95.7078 74.4641V74.4201H85.9127C85.7438 74.4201 85.5748 74.4201 85.4483 74.4201C82.1551 74.3321 78.8619 74.2883 75.5686 74.2883Z" fill="#6666FF"/>
<path d="M75.4824 79.5192C74.5958 79.5632 73.5404 79.4754 72.6959 79.871C71.6826 80.4424 70.8804 81.4533 70.0783 82.2886C69.065 83.3875 67.8827 84.4426 66.9961 85.6735C67.545 86.7724 68.6004 87.6515 69.4449 88.5747C82.9554 102.729 96.3817 116.972 109.892 131.082C124.205 115.961 138.56 100.883 152.915 85.8053C151.226 84.003 149.58 82.0688 147.722 80.4424C146.835 79.5192 145.822 79.6512 144.64 79.6072H138.644V82.2446H142.106C143.542 82.2886 145.104 82.2446 146.371 83.0799C147.426 83.7831 148.271 84.926 149.115 85.8931C136.027 99.6521 122.938 113.367 109.892 127.17C96.7615 113.411 83.7155 99.5643 70.5848 85.8493C71.556 84.7942 72.4004 83.7393 73.7092 83.0799C75.3981 82.2008 77.3825 82.1568 79.2402 82.2008C83.2933 82.3326 87.3465 82.2446 91.3996 82.2446H100.393C100.055 81.4095 99.9704 80.4862 100.097 79.6072H89.7531C85.0244 79.5192 80.2535 79.5632 75.4824 79.5192Z" fill="#6666FF"/>
<path fill-rule="evenodd" clip-rule="evenodd" d="M133.778 70.8701C133.797 72.4241 133.816 73.9817 133.83 75.5191C133.845 76.8939 133.861 78.2918 133.876 79.6898C133.903 82.1362 133.93 84.5826 133.956 86.9043C133.999 87.9154 133.661 88.8825 132.985 89.5857C132.31 90.2452 131.423 90.5968 130.537 90.5528H130.241C127.666 90.421 125.639 88.355 125.428 85.7176C125.343 84.7943 125.343 83.8712 125.343 83.036V82.3327C125.301 81.4536 125.217 80.5743 125.048 79.6953C125.006 79.2556 124.668 78.948 124.288 78.904H124.161C124.119 78.904 123.992 78.904 123.824 79.2116C122.641 81.4096 121.459 83.6954 120.15 86.3328C119.653 87.3678 119.108 88.4364 118.524 89.5806C118.165 90.2831 117.792 91.0144 117.406 91.7837C116.984 92.575 116.435 93.6301 115.844 94.8168C114.915 96.7509 113.691 99.0807 112.466 101.411C111.706 102.905 110.186 103.828 108.582 103.828C107.104 103.828 105.669 103.081 104.782 101.85C103.684 100.356 103.6 98.3335 104.487 96.7509C105.118 95.5129 105.749 94.28 106.379 93.0505C107.56 90.7446 108.734 88.4509 109.891 86.157L110.271 85.4098H109.933C109.089 85.4098 108.287 85.1899 107.569 84.7505C105.246 83.3878 104.36 80.7062 105.458 78.4204L105.5 78.3325H105.162C103.769 78.2885 102.46 77.6291 101.616 76.4862C100.56 75.2115 100.307 73.4531 100.94 71.9146H100.644C100.096 71.9146 99.589 71.8266 99.1246 71.6508C96.7602 70.7717 95.5359 68.0463 96.3803 65.5846C96.6335 64.9252 96.9292 64.2219 97.3091 63.4747C97.3512 63.3647 97.4357 63.1888 97.536 62.98C97.6363 62.7712 97.7524 62.5296 97.858 62.2878C98.0057 61.9581 98.1641 61.6283 98.3013 61.3427C98.4386 61.0569 98.5546 60.815 98.6179 60.6612L99.3356 59.1667H133.703V61.8921C133.703 64.7512 133.74 67.8037 133.778 70.8701ZM128.088 85.4538C128.13 86.7725 129.143 87.7836 130.41 87.8276C131.043 87.8276 131.339 87.6517 131.423 86.8165C131.405 83.3201 131.354 79.6032 131.302 75.8594C131.236 71.0837 131.17 66.2643 131.17 61.8041H101.024C100.898 62.0679 100.634 62.6284 100.37 63.1888C100.106 63.7493 99.8424 64.3097 99.7157 64.5736C99.4201 65.189 99.1246 65.8045 98.8712 66.4637C98.5757 67.3868 98.9979 68.3979 99.8424 68.8375C99.8424 68.8375 99.8845 68.8815 99.9267 68.8815C100.729 69.321 101.658 68.9693 102.038 68.1781C102.164 67.9583 102.281 67.7276 102.397 67.4968C102.513 67.266 102.629 67.0352 102.756 66.8154C103.304 65.7605 104.233 65.4526 105.078 65.9803C105.922 66.5077 106.133 67.4748 105.627 68.4859L103.473 72.7059C103.136 73.3213 103.22 74.0686 103.684 74.596C104.655 75.7829 106.007 75.6949 106.724 74.4202C106.914 74.0686 107.094 73.7059 107.273 73.3433C107.453 72.9805 107.632 72.6179 107.822 72.2662C108.075 71.7388 108.624 71.431 109.215 71.475C109.469 71.475 109.722 71.563 109.933 71.6948C110.735 72.1344 111.031 73.1893 110.566 74.0246C110.123 74.9477 109.659 75.8599 109.194 76.772C108.73 77.6841 108.265 78.5962 107.822 79.5194C107.358 80.5303 107.78 81.5854 108.878 82.2447C109.849 82.8601 110.82 82.6403 111.369 81.6294C111.643 81.1238 111.907 80.6073 112.171 80.0909C112.435 79.5743 112.698 79.0578 112.973 78.5524C113.522 77.4973 114.366 77.2335 115.253 77.7611C116.139 78.2885 116.351 79.2556 115.844 80.2667C115.548 80.8382 115.263 81.3986 114.978 81.9591C114.693 82.5195 114.408 83.08 114.113 83.6514C113.496 84.8689 112.878 86.0894 112.261 87.3113C110.469 90.8537 108.672 94.4079 106.851 97.9378C106.429 98.5973 106.429 99.5204 106.935 100.136C107.695 101.147 109.469 101.455 110.229 100.004C111.408 97.7606 112.557 95.4848 113.523 93.5708C114.147 92.3344 114.695 91.2491 115.126 90.421C116.105 88.511 116.961 86.8027 117.75 85.2295C119.14 82.4575 120.32 80.1045 121.586 77.8049C122.177 76.5742 123.486 75.9147 124.795 76.1786C126.23 76.4424 127.37 77.5853 127.666 79.0798C127.877 80.1347 128.003 81.1898 128.003 82.2447C128.003 83.3438 128.003 84.3987 128.088 85.4538Z" fill="#6666FF"/>
<path d="M119.521 93.8936L117.917 97.0587C118.17 97.9818 118.297 98.9929 118.297 99.96C118.297 105.718 113.779 110.422 108.248 110.422C102.717 110.422 98.1997 105.718 98.1997 99.96C98.1997 95.608 100.775 91.7397 104.702 90.2011L106.348 86.9482C99.4242 88.0473 94.6533 94.7289 95.7088 101.938C96.7642 109.147 103.182 114.115 110.106 113.015C117.03 111.917 121.801 105.235 120.745 98.0258C120.577 96.5751 120.154 95.1685 119.521 93.8936Z" fill="#6666FF"/>
</g>
<defs>
<clipPath id="clip0_4_4877">
<rect width="220" height="220" fill="white" transform="translate(0 0.5)"/>
</clipPath>
</defs>
</svg>
