<svg width="220" height="221" viewBox="0 0 220 221" fill="none" xmlns="http://www.w3.org/2000/svg">
<g clip-path="url(#clip0_4_4886)">
<path d="M110 220.5C170.753 220.5 220 171.253 220 110.5C220 49.747 170.753 0.5 110 0.5C49.247 0.5 0 49.747 0 110.5C0 171.253 49.247 220.5 110 220.5Z" fill="#EDF0F4"/>
<path d="M110 193C155.563 193 192.5 156.063 192.5 110.5C192.5 64.9365 155.563 28 110 28C64.4365 28 27.5 64.9365 27.5 110.5C27.5 156.063 64.4365 193 110 193Z" fill="#1B1B1B" stroke="white" stroke-width="4"/>
<path fill-rule="evenodd" clip-rule="evenodd" d="M134.975 86.9015C136.102 88.0191 137.932 87.8794 138.778 86.6221C139.623 85.6442 139.482 84.1073 138.496 83.2691C129.201 74.468 120.892 69.9976 107.09 70.6961C92.5843 71.3946 79.7686 78.9384 80.6136 94.8644C81.3177 108.974 95.1193 114.143 107.231 118.753C116.526 122.246 124.694 125.319 125.117 131.885C125.539 139.15 118.075 143.481 111.597 143.9C99.3444 144.598 92.1619 140.267 84.1343 132.584C83.1485 131.606 81.5993 131.606 80.6136 132.444C79.4868 133.422 79.4868 135.099 80.4728 136.216C89.486 145.157 98.781 149.628 112.301 148.929C125.821 147.951 142.439 140.407 141.594 124.481C140.89 110.651 127.652 105.482 115.681 101.011C105.823 97.2393 96.6684 93.7468 96.246 85.7839C95.9642 80.056 102.865 75.865 107.794 75.5856C119.765 75.0268 127.229 79.2178 134.975 86.9015ZM136.524 124.761C136.524 130.907 133.144 136.216 128.074 139.29L127.793 139.15C129.623 136.635 129.905 133.422 129.905 130.349C129.905 121.268 119.906 117.776 109.343 114.003C97.6542 109.812 85.4019 105.482 85.4019 93.188C85.4019 87.6 87.9368 81.5927 92.8659 78.7987L93.0069 79.0781C91.7393 81.7324 91.1759 84.6661 91.1759 87.6C91.1759 97.6584 102.302 101.71 113.568 105.901C125.117 110.092 136.524 114.283 136.524 124.761Z" fill="white"/>
<path fill-rule="evenodd" clip-rule="evenodd" d="M109.313 176.5C146.096 176.5 176 146.596 176 109.813C176 73.0291 146.096 43.125 109.313 43.125C72.5291 43.125 42.625 73.0291 42.625 109.813C42.625 146.596 72.5291 176.5 109.313 176.5Z" stroke="white" stroke-width="2" stroke-linecap="round"/>
</g>
<defs>
<clipPath id="clip0_4_4886">
<rect width="220" height="220" fill="white" transform="translate(0 0.5)"/>
</clipPath>
</defs>
</svg>
