<svg width="220" height="221" viewBox="0 0 220 221" fill="none" xmlns="http://www.w3.org/2000/svg">
<g clip-path="url(#clip0_4_4891)">
<path d="M110 220.5C170.751 220.5 220 171.251 220 110.5C220 49.7487 170.751 0.5 110 0.5C49.2487 0.5 0 49.7487 0 110.5C0 171.251 49.2487 220.5 110 220.5Z" fill="#EDF0F4"/>
<path d="M110.026 128.098C119.931 128.098 127.961 120.068 127.961 110.162C127.961 100.256 119.931 92.2262 110.026 92.2262C100.12 92.2262 92.0898 100.256 92.0898 110.162C92.0898 120.068 100.12 128.098 110.026 128.098Z" fill="black"/>
<path d="M47.3484 138.349C51.3463 135.672 53.1769 130.732 51.8897 126.096C43.1812 94.2491 61.6898 61.3181 93.4215 52.2005C99.1606 50.3659 102.395 44.2945 100.715 38.5081C99.0348 32.7219 93.0523 29.326 87.223 30.8499C43.8223 43.3734 18.5297 88.436 30.4458 132.007C31.3863 135.457 33.9277 138.245 37.2761 139.5C40.6245 140.755 44.372 140.324 47.3484 138.342V138.349Z" fill="black"/>
<path d="M116.459 40.9656C116.446 46.0385 119.88 50.472 124.796 51.7271C156.538 59.7623 176.057 91.6732 168.752 123.592C167.613 128.734 170.238 133.969 175.041 136.131C179.843 138.293 185.503 136.786 188.596 132.524C189.479 131.305 190.108 129.922 190.447 128.456C200.311 84.8602 173.718 41.3242 130.427 30.1972C127.56 29.4466 124.512 29.8672 121.954 31.3665C119.397 32.8658 117.542 35.3204 116.796 38.1892C116.57 39.0973 116.457 40.0299 116.459 40.9656Z" fill="black"/>
<path d="M168.221 150.058C163.758 146.861 157.614 147.475 153.872 151.493C142.902 163.117 127.762 169.907 111.785 170.369C95.8077 170.83 80.3014 164.925 68.678 153.953C68.3766 153.666 68.0754 153.38 67.7812 153.085C64.1293 149.53 58.4838 149.023 54.2578 151.873L53.7842 152.189C51.3893 153.773 49.7223 156.244 49.1505 159.057C48.5785 161.871 49.1486 164.797 50.735 167.19C51.1294 167.798 51.5888 168.361 52.1054 168.869C84.5325 200.88 136.77 200.542 168.781 168.116C169.261 167.628 169.735 167.133 170.216 166.63C174.324 162.262 174.119 155.392 169.756 151.277C169.415 150.955 169.053 150.656 168.673 150.381L168.221 150.058Z" fill="black"/>
</g>
<defs>
<clipPath id="clip0_4_4891">
<rect width="220" height="220" fill="white" transform="translate(0 0.5)"/>
</clipPath>
</defs>
</svg>
