<svg width="220" height="221" viewBox="0 0 220 221" fill="none" xmlns="http://www.w3.org/2000/svg">
<g clip-path="url(#clip0_4_4897)">
<path d="M110 220.5C170.751 220.5 220 171.251 220 110.5C220 49.7487 170.751 0.5 110 0.5C49.2487 0.5 0 49.7487 0 110.5C0 171.251 49.2487 220.5 110 220.5Z" fill="#EDF0F4"/>
<path d="M109.999 40.8333L172.333 75.463V144.722L109.999 179.352L47.666 144.722V75.463L109.999 40.8333Z" fill="#303642"/>
<path d="M128.348 75.9057C131.271 75.9057 133.64 73.5266 133.64 70.5918C133.64 67.6568 131.271 65.2777 128.348 65.2777V75.9057Z" fill="white"/>
<path d="M112.12 127.097V71.6545H101.535V127.097H112.12Z" fill="white"/>
<path d="M107.881 75.9057H128.345V65.2777H107.881V75.9057Z" fill="white"/>
<path d="M112.12 71.6546C112.12 74.0024 110.224 75.9057 107.886 75.9057V65.2777C104.379 65.2777 101.535 68.1328 101.535 71.6546H112.12Z" fill="white"/>
<path fill-rule="evenodd" clip-rule="evenodd" d="M121.294 92.202H106.828V81.574H121.294C124.217 81.574 126.586 83.9533 126.586 86.8881C126.586 89.8229 124.217 92.202 121.294 92.202Z" fill="white"/>
<path fill-rule="evenodd" clip-rule="evenodd" d="M90.5918 137.548C90.5918 128.744 97.7002 121.606 106.469 121.606C115.238 121.606 122.346 128.744 122.346 137.548C122.346 146.353 115.238 153.49 106.469 153.49C97.7002 153.49 90.5918 146.353 90.5918 137.548ZM111.761 137.548C111.761 134.613 109.392 132.234 106.469 132.234C103.546 132.234 101.177 134.613 101.177 137.548C101.177 140.483 103.546 142.862 106.469 142.862C109.392 142.862 111.761 140.483 111.761 137.548Z" fill="white"/>
</g>
<defs>
<clipPath id="clip0_4_4897">
<rect width="220" height="220" fill="white" transform="translate(0 0.5)"/>
</clipPath>
</defs>
</svg>
