<svg width="220" height="221" viewBox="0 0 220 221" fill="none" xmlns="http://www.w3.org/2000/svg">
<g clip-path="url(#clip0_4_4906)">
<path d="M110 220.5C170.751 220.5 220 171.251 220 110.5C220 49.7487 170.751 0.5 110 0.5C49.2487 0.5 0 49.7487 0 110.5C0 171.251 49.2487 220.5 110 220.5Z" fill="#49A0E5"/>
<path d="M71.6797 126.667V71.5726H150.352V126.667L136.345 147.443L110.199 158.882L84.9864 147.443L71.6797 126.667Z" fill="#49A0E5"/>
<path fill-rule="evenodd" clip-rule="evenodd" d="M64.2448 90.8659C64.3286 118.72 64.3066 118.028 65.2954 123.827C67.0026 133.837 71.1653 141.484 79.3801 149.699C82.6693 152.988 85.2426 155.117 88.6883 157.398C95.2975 161.774 102.614 164.664 109.171 165.49C110.834 165.699 111.298 165.679 113.512 165.304C123.386 163.63 133.186 158.406 141.32 150.48C145.341 146.562 148.27 142.952 150.848 138.735C154.725 132.394 156.68 125.092 157.25 114.82C157.357 112.883 157.447 100.806 157.449 87.9825L157.452 64.6667H110.809H64.166L64.2448 90.8659ZM145.322 94.2963C145.322 103.811 145.277 111.597 145.222 111.597C145.167 111.597 136.41 105.063 125.762 97.0762L106.402 82.556L102.017 82.6095L97.6313 82.6632L105.89 88.8276C110.432 92.2182 121.051 100.152 129.487 106.459L144.825 117.926L144.795 119.385C144.76 121.148 143.913 125.386 143.202 127.361C140.892 133.782 136.154 139.966 129.572 145.154C124.924 148.817 118.568 151.725 113.122 152.678C110.602 153.119 108.635 152.925 104.99 151.875C95.1152 149.033 85.5139 141.198 80.2431 131.681C77.28 126.331 75.925 118.922 75.9223 108.054L75.9212 104.61L76.5676 105.067C76.9229 105.319 88.027 113.602 101.243 123.475C114.459 133.348 125.367 141.425 125.482 141.425C125.738 141.425 128.07 139.528 129.005 138.557C129.626 137.913 129.659 137.823 129.356 137.598C129.173 137.461 117.124 128.445 102.581 117.562L76.139 97.7763L76.0799 87.3859L76.0207 76.9959H110.671H145.322V94.2963Z" fill="#1A2D4E"/>
</g>
<defs>
<clipPath id="clip0_4_4906">
<rect width="220" height="220" fill="white" transform="translate(0 0.5)"/>
</clipPath>
</defs>
</svg>
