<svg width="220" height="221" viewBox="0 0 220 221" fill="none" xmlns="http://www.w3.org/2000/svg">
<g clip-path="url(#clip0_4_4910)">
<path d="M110 220.5C170.751 220.5 220 171.251 220 110.5C220 49.7487 170.751 0.5 110 0.5C49.2487 0.5 0 49.7487 0 110.5C0 171.251 49.2487 220.5 110 220.5Z" fill="#EDF0F4"/>
<path fill-rule="evenodd" clip-rule="evenodd" d="M70.3184 117.652C70.3184 139.919 88.4005 158.001 110.668 158.001C132.935 158.001 151.017 139.919 151.017 117.601C151.017 95.9536 113.871 57.7226 112.269 56.121L110.306 54.1577L108.394 56.1725C106.845 57.7741 70.3184 96.0053 70.3184 117.652ZM93.7737 81.6943C100.438 72.9116 107.154 65.4204 110.358 61.9589C113.613 65.4204 120.484 72.9633 127.252 81.6943C139.289 97.2969 145.644 109.696 145.644 117.601C145.644 136.871 129.938 152.577 110.668 152.577C91.3971 152.577 75.6913 136.871 75.6913 117.601C75.6913 109.696 81.9426 97.2969 93.7737 81.6943Z" fill="url(#paint0_linear_4_4910)"/>
<path d="M110.672 170.918C81.275 170.918 57.4062 146.997 57.4062 117.652C57.4062 88.9274 97.4972 48.8364 99.2022 47.1831C100.235 46.1498 101.992 46.1498 103.025 47.1831C104.059 48.2164 104.059 49.9729 103.025 51.0061C102.612 51.4196 62.8311 91.2005 62.8311 117.652C62.8311 144.052 84.3231 165.545 110.723 165.545C137.123 165.545 158.615 144.052 158.615 117.652C158.615 106.803 151.589 91.8205 138.26 74.2031C128.03 60.7189 117.749 50.4895 117.646 50.3863C116.561 49.353 116.561 47.648 117.646 46.5632C118.679 45.4783 120.384 45.4783 121.469 46.5632C123.226 48.2681 164.04 88.8757 164.04 117.652C163.937 146.997 140.068 170.918 110.672 170.918Z" fill="url(#paint1_linear_4_4910)"/>
<path d="M110.672 183.833C74.9206 183.833 45.834 154.747 45.834 118.996C45.834 104.22 53.2735 86.0342 67.8943 65.007C78.6921 49.508 89.2831 38.4519 89.748 37.9869C90.7813 36.902 92.4863 36.902 93.5712 37.9352C94.656 38.9685 94.656 40.6735 93.6228 41.7585C93.5195 41.8617 82.8252 53.021 72.2857 68.1585C58.4915 87.9456 51.2069 105.511 51.2069 118.996C51.2069 151.75 77.8654 178.46 110.672 178.46C143.478 178.46 170.137 151.802 170.137 118.996C170.137 105.511 162.8 87.9456 148.903 68.1585C138.26 53.021 127.462 41.8617 127.359 41.7585C126.326 40.6735 126.326 38.9685 127.411 37.9352C128.496 36.902 130.201 36.902 131.234 37.9869C133.042 39.8468 175.51 83.9677 175.51 118.996C175.51 154.747 146.423 183.833 110.672 183.833Z" fill="url(#paint2_linear_4_4910)"/>
</g>
<defs>
<linearGradient id="paint0_linear_4_4910" x1="151.017" y1="157.995" x2="151.017" y2="54.1514" gradientUnits="userSpaceOnUse">
<stop stop-color="#05AAC5"/>
<stop offset="1" stop-color="#71E0EC"/>
</linearGradient>
<linearGradient id="paint1_linear_4_4910" x1="164.04" y1="170.911" x2="164.04" y2="45.7432" gradientUnits="userSpaceOnUse">
<stop stop-color="#05AAC5"/>
<stop offset="1" stop-color="#71E0EC"/>
</linearGradient>
<linearGradient id="paint2_linear_4_4910" x1="175.51" y1="183.827" x2="175.51" y2="37.1603" gradientUnits="userSpaceOnUse">
<stop stop-color="#05AAC5"/>
<stop offset="1" stop-color="#71E0EC"/>
</linearGradient>
<clipPath id="clip0_4_4910">
<rect width="220" height="220" fill="white" transform="translate(0 0.5)"/>
</clipPath>
</defs>
</svg>
