<svg width="220" height="221" viewBox="0 0 220 221" fill="none" xmlns="http://www.w3.org/2000/svg">
<g clip-path="url(#clip0_4_4915)">
<path fill-rule="evenodd" clip-rule="evenodd" d="M110 220.5C49.5 220.5 0 171.001 0 109.952C0.55 49.4535 49.5 -0.0454497 110.55 0.504539C171.05 1.05453 220 50.0035 220 111.602C219.45 171.551 170.5 220.5 110 220.5Z" fill="#EDF0F4"/>
<path fill-rule="evenodd" clip-rule="evenodd" d="M181.812 96.5098C175.544 62.126 145.471 36.7848 110.125 36.7848C74.7781 36.7848 44.7054 62.126 38.4378 96.5098L37.7402 100.337L103.159 143.417L131.056 114.032L131.182 113.894C133.288 111.533 133.151 107.91 130.84 105.716L130.703 105.59C128.342 103.484 124.718 103.622 122.525 105.932L101.405 128.177L50.8187 94.8648L50.9468 94.3553C57.7971 67.7305 81.9683 48.5486 110.125 48.5486C139.763 48.5486 164.986 69.8027 170.239 98.6194C170.821 101.815 173.884 103.934 177.08 103.351C180.276 102.769 182.394 99.7057 181.812 96.5098ZM117.145 76.6281L88.2935 105.849L88.1619 105.987C86.013 108.307 86.0803 111.93 88.3465 114.168L88.4841 114.299C90.8037 116.448 94.4271 116.381 96.6647 114.115L118.79 91.7056L169.422 124.478L169.303 124.955C162.453 151.58 138.282 170.762 110.125 170.762C80.0409 170.762 54.5598 148.875 49.806 119.499L49.7759 119.328C49.1791 116.215 46.2095 114.123 43.06 114.632C39.8532 115.151 37.6742 118.172 38.1933 121.378C43.8656 156.43 74.2468 182.526 110.125 182.526C145.472 182.526 175.544 157.185 181.812 122.801L182.515 118.94L117.145 76.6281Z" fill="url(#paint0_linear_4_4915)"/>
</g>
<defs>
<linearGradient id="paint0_linear_4_4915" x1="-4.98433" y1="71.6196" x2="43.6058" y2="206.491" gradientUnits="userSpaceOnUse">
<stop offset="0.119792" stop-color="#053F92"/>
<stop offset="1" stop-color="#4CDADF"/>
</linearGradient>
<clipPath id="clip0_4_4915">
<rect width="220" height="220" fill="white" transform="translate(0 0.5)"/>
</clipPath>
</defs>
</svg>
