<svg width="220" height="221" viewBox="0 0 220 221" fill="none" xmlns="http://www.w3.org/2000/svg">
<g clip-path="url(#clip0_4_4918)">
<path fill-rule="evenodd" clip-rule="evenodd" d="M110 220.5C49.5 220.5 0 171.001 0 109.952C0.55 49.4535 49.5 -0.0454497 110.55 0.504539C171.05 1.05453 220 50.0035 220 111.602C219.45 171.551 170.5 220.5 110 220.5Z" fill="#E42D04"/>
<path fill-rule="evenodd" clip-rule="evenodd" d="M112.142 191.167C120.126 191.167 140.607 187.568 158.658 173.17C179.414 156.615 181.37 147.382 182.631 141.428C182.741 140.91 182.845 140.417 182.957 139.946C183.167 139.053 183.29 137.842 183.333 136.402C178.973 135.696 172.862 135.292 165.73 136.139C154.067 137.523 144.902 145.483 141.778 149.29C140.043 140.638 131.573 123.333 111.578 123.333C91.583 123.333 80.7987 140.638 77.9061 149.29C76.0546 146.06 69.1584 138.907 56.3839 136.139C48.4853 134.427 41.5955 135.273 36.666 136.713C37.0552 143.147 39.17 150.009 44.7985 157.25C54.4834 169.709 69.5107 177.403 76.2152 180.835C76.9603 181.217 77.6025 181.545 78.1232 181.822C83.33 184.59 97.5626 191.167 112.142 191.167Z" fill="white"/>
<path fill-rule="evenodd" clip-rule="evenodd" d="M183.316 136.149C178.959 135.445 172.851 135.042 165.724 135.886C154.067 137.267 144.908 145.204 141.786 149C140.051 140.373 131.586 123.118 111.603 123.118C91.6196 123.118 80.8418 140.373 77.9507 149C76.1003 145.779 69.2081 138.647 56.4411 135.886C48.5471 134.179 41.6613 135.023 36.7346 136.46C36.38 130.609 37.4593 125.114 38.6176 120.012C40.5604 111.453 45.4405 100.111 47.6378 95.5098C45.6719 90.7935 41.1155 77.4267 38.6176 61.6903C36.1197 45.9537 40.3523 35.3477 42.7807 32.0117C46.7127 33.047 56.1028 36.2911 62.2089 40.9844C68.3149 45.6778 77.705 56.0535 81.637 60.655C86.7252 59.2745 99.8161 56.5137 111.473 56.5137C123.13 56.5137 134.371 59.2745 138.534 60.655C142.003 56.5137 150.537 46.782 156.921 40.9844C163.304 35.1867 173.689 32.3569 178.084 31.6667C179.24 33.1621 181.692 37.5334 182.247 43.055C182.941 49.9569 180.859 64.4511 178.084 74.1137C175.863 81.8439 172.995 90.9085 171.839 94.4745C172.417 95.7399 174.406 99.8581 177.737 106.208C181.269 112.941 183.551 128.118 183.316 136.149Z" fill="#FFAA35"/>
<path d="M126.385 166.86C125.56 167.964 124.666 170.08 124.322 171V170.655L123.291 162.376C121.343 162.605 116.279 163.066 111.604 163.066C106.929 163.066 101.406 162.605 99.2285 162.376L98.8848 170.655C98.6556 170.31 98.0598 169.344 97.5098 168.24C96.8223 166.86 94.416 164.791 94.416 163.756C94.416 162.928 93.2702 161.111 92.6973 160.306L91.666 158.926H97.8535L99.2285 159.961C100.374 159.846 103.285 159.754 105.76 160.306C108.235 160.858 109.77 158.696 110.229 157.546V152.026C109.197 151.337 106.654 149.75 104.729 148.922C102.322 147.887 99.916 143.747 100.604 139.607C101.291 135.468 103.354 134.088 104.729 134.433C106.104 134.778 115.041 134.088 116.416 134.433C117.791 134.778 120.197 135.468 121.229 137.193C122.26 138.918 121.572 145.817 119.51 148.232C117.86 150.164 114.697 151.566 113.322 152.026V157.546C113.322 158.236 115.729 159.961 116.072 160.306C116.416 160.651 121.572 160.306 122.604 160.306C123.429 160.306 124.093 159.616 124.322 159.271H130.166V160.651C130.166 161.341 129.135 164.445 128.791 164.791C128.447 165.136 127.416 165.48 126.385 166.86Z" fill="black"/>
<path d="M115.325 164.583L111.833 167.333L109.04 164.583L106.595 165.806L104.5 163.667H119.167L117.071 166.111L115.325 164.583Z" fill="black"/>
<path d="M77.7433 108.173C73.652 106.481 69.2199 105.353 67.5153 105C67.0606 105.235 66.1515 105.987 66.1515 107.115C66.1515 108.526 65.8107 109.936 66.1515 112.756C66.4925 115.577 69.2199 117.34 73.993 119.455C78.7659 121.571 86.9483 123.333 92.7442 123.333C98.5401 123.333 93.0852 117.34 91.0395 115.929C88.9939 114.519 82.8572 110.288 77.7433 108.173Z" fill="black"/>
<path d="M83.3427 98.8165C80.2855 99.3632 76.0468 99.5 74.3095 99.5C72.5724 99.2725 68.8896 98.2015 68.0558 95.7411C67.0136 92.6657 69.7931 89.2486 73.2673 87.5399C76.7416 85.8314 81.2582 86.5149 84.0376 90.6153C86.8171 94.7159 87.1645 98.1331 83.3427 98.8165Z" fill="white"/>
<path d="M145.924 106.34C150.015 104.647 154.447 103.519 156.152 103.167C156.607 103.402 157.516 104.154 157.516 105.282C157.516 106.692 157.857 108.103 157.516 110.923C157.175 113.744 154.447 115.506 149.674 117.622C144.902 119.737 136.719 121.5 130.923 121.5C125.127 121.5 130.582 115.506 132.628 114.096C134.674 112.686 140.81 108.455 145.924 106.34Z" fill="black"/>
<path d="M134.825 98.8165C137.882 99.3632 142.121 99.5 143.858 99.5C145.595 99.2721 149.278 98.2015 150.111 95.7411C151.154 92.6657 148.374 89.2486 144.9 87.5399C141.426 85.8314 136.909 86.5149 134.13 90.6153C131.35 94.7159 131.003 98.1331 134.825 98.8165Z" fill="white"/>
<path d="M59.4537 73.2364C56.9552 75.9651 52.1667 82.1046 50.0848 84.8333C48.6968 81.8772 45.6434 73.9868 44.5329 66.0735C43.4227 58.1605 44.3016 45.9496 44.88 40.8333C46.3837 40.947 50.7787 42.1977 56.3306 46.2906C61.8825 50.3837 69.979 58.0014 73.3333 61.2984C69.7477 64.1408 61.952 70.5076 59.4537 73.2364Z" fill="#FF8C30"/>
<path fill-rule="evenodd" clip-rule="evenodd" d="M44 47.3305C49.4569 49.6076 56.6397 53.0886 59.6499 56.2346C62.7035 59.4261 65.3899 63.6508 66.9847 66.5C69.3788 64.5148 71.758 62.6078 73.3333 61.3685C69.9417 58.06 61.7551 50.4163 56.1414 46.3093C50.5278 42.2023 46.0836 40.9473 44.5632 40.8333C44.3817 42.427 44.1709 44.7068 44 47.3305Z" fill="#FF9A32"/>
<path d="M158.714 73.2364C161.212 75.9651 166.001 82.1046 168.082 84.8333C169.471 81.8772 172.524 73.9868 173.634 66.0735C174.745 58.1605 173.866 45.9496 173.287 40.8333C171.784 40.947 167.389 42.1977 161.837 46.2906C156.285 50.3837 148.188 58.0014 144.834 61.2984C148.42 64.1408 156.215 70.5076 158.714 73.2364Z" fill="#FF8C30"/>
<path fill-rule="evenodd" clip-rule="evenodd" d="M174.167 47.3305C168.71 49.6076 161.528 53.0886 158.517 56.2346C155.463 59.4261 152.777 63.6508 151.183 66.5C148.789 64.5148 146.409 62.6078 144.834 61.3685C148.225 58.06 156.412 50.4163 162.026 46.3093C167.639 42.2023 172.083 40.9473 173.604 40.8333C173.786 42.427 173.996 44.7068 174.167 47.3305Z" fill="#FF9A32"/>
</g>
<defs>
<clipPath id="clip0_4_4918">
<rect width="220" height="220" fill="white" transform="translate(0 0.5)"/>
</clipPath>
</defs>
</svg>
