<svg width="220" height="221" viewBox="0 0 220 221" fill="none" xmlns="http://www.w3.org/2000/svg">
<g clip-path="url(#clip0_4_4938)">
<path d="M216.629 137.217C201.881 196.109 142.213 231.909 83.3259 217.195C24.4385 202.48 -11.3878 142.819 3.28827 83.909C17.9644 24.9988 77.5903 -10.8714 136.495 3.77327C164.879 10.7301 189.31 28.7385 204.356 53.7965C219.404 78.8545 223.821 108.886 216.629 137.217Z" fill="#EC672F"/>
<path fill-rule="evenodd" clip-rule="evenodd" d="M105.661 101.667H66.4978C65.8818 101.73 65.2691 101.519 64.8212 101.09C64.3733 100.66 64.135 100.055 64.1693 99.4345V94.332C64.1806 93.0452 65.2165 92.005 66.4978 91.9934H105.132V37.7797H66.6037C65.3224 37.7682 64.2866 36.7279 64.2751 35.4411V30.3386C64.2844 29.0918 65.2581 28.0673 66.4978 28H153.504C154.785 28.0115 155.821 29.0518 155.833 30.3386V35.3348C155.821 36.6216 154.785 37.6618 153.504 37.6734H113.706V91.8871H153.504C154.785 91.8986 155.821 92.9389 155.833 94.2257V99.3282C155.821 100.615 154.785 101.655 153.504 101.667H114.764V132.707C120.817 134.809 124.891 140.519 124.925 146.951C124.925 155.17 118.291 161.833 110.107 161.833C101.923 161.833 95.2883 155.17 95.2883 146.951C95.3473 140.461 99.5201 134.73 105.661 132.707V101.667ZM110.213 154.286C114.071 154.286 117.198 151.145 117.198 147.27C117.216 145.404 116.485 143.61 115.171 142.29C113.857 140.971 112.071 140.237 110.213 140.254C106.354 140.254 103.227 143.395 103.227 147.27C103.227 151.145 106.354 154.286 110.213 154.286Z" fill="white"/>
<path d="M144.104 114.806L143.892 114.594C143.297 114.035 142.369 114.035 141.774 114.594L137.961 118.405C137.586 118.725 137.357 119.183 137.326 119.675C137.294 119.974 137.369 120.274 137.537 120.522C137.537 120.639 137.632 120.734 137.749 120.734L137.961 120.946C144.272 128.083 147.806 137.25 147.917 146.774C147.917 167.704 130.941 184.671 110.001 184.671C89.0604 184.671 72.0848 167.704 72.0848 146.774C72.0848 137.036 76.1094 128.567 82.0404 120.946L82.2523 120.734C82.2523 120.617 82.3471 120.522 82.4641 120.522C82.6758 120.31 82.6758 120.099 82.6758 119.675C82.6901 119.172 82.4516 118.695 82.0404 118.405L78.2276 114.594C77.6367 114.024 76.7004 114.024 76.1094 114.594L75.8976 114.806C67.0441 123.144 62.1216 134.829 62.341 146.986C62.2943 173.348 83.6255 194.764 110.001 194.833C136.376 194.764 157.707 173.348 157.66 146.986C157.88 134.829 152.957 123.144 144.104 114.806Z" fill="white"/>
</g>
<defs>
<clipPath id="clip0_4_4938">
<rect width="220" height="220" fill="white" transform="translate(0 0.5)"/>
</clipPath>
</defs>
</svg>
