<svg width="220" height="221" viewBox="0 0 220 221" fill="none" xmlns="http://www.w3.org/2000/svg">
<g clip-path="url(#clip0_4_4942)">
<path d="M110 220.5C170.751 220.5 220 171.251 220 110.5C220 49.7487 170.751 0.5 110 0.5C49.2487 0.5 0 49.7487 0 110.5C0 171.251 49.2487 220.5 110 220.5Z" fill="#EDF0F4"/>
<path d="M182.757 35.3333H32.9434V185.147H182.757V35.3333Z" fill="white" fill-opacity="0.01"/>
<path d="M173.103 106.115H163.418V115.8H173.103V106.115Z" fill="#BCBEC0"/>
<path d="M134.272 125.485H124.586H114.843H105.157H95.4429H85.7578V135.199V144.885V154.57H95.4429V164.255H105.157H114.843H124.586H134.272H143.986V154.57V144.885V135.199V125.485H134.272Z" fill="white"/>
<path d="M134.27 115.8H124.584H114.841V106.115H105.155V115.8H95.4408H85.7555H76.041V125.485V135.199V144.885V154.57V164.255H85.7555H95.4408V154.57H85.7555V144.885V135.199V125.485H95.4408H105.155H114.841H124.584H134.27H143.984V115.8H134.27Z" fill="#BCBEC0"/>
<path d="M105.156 173.94H114.841H124.585V164.255H114.841H105.156H95.4414V173.94H105.156Z" fill="#BCBEC0"/>
<path d="M173.07 96.4293V86.744H163.414V96.4293H153.67V106.114H163.414H173.07H182.813V96.4293H173.07Z" fill="white"/>
<path d="M124.588 57.6883V67.3736H134.273V77.0587H143.987V67.3736V57.6883H134.273H124.588Z" fill="white"/>
<path d="M114.841 86.744H105.156V96.4293H95.4414V106.114H105.156H114.841H124.585V96.4293H114.841V86.744Z" fill="white"/>
<path d="M105.156 48.0325H95.4414V57.6884H105.156V48.0325Z" fill="white"/>
<path d="M95.4443 67.3736H85.759V57.6883H76.0445V67.3736H66.3301V77.0587H76.0445V86.7441H85.759V77.0587H95.4443V67.3736Z" fill="white"/>
<path d="M182.785 86.744H173.07V96.4292H182.785V86.744Z" fill="#ED1C24"/>
<path d="M163.418 77.0589V67.3736H153.674H143.989V77.0589H134.275V67.3736H124.589V57.6883V48.0325H114.846H105.16V57.6883H95.4459H85.7607V67.3736H95.4459V77.0589H85.7607V86.744H76.0461V77.0589H66.3316V67.3736H56.6465V77.0589V86.744H66.3316V96.4294H76.0461V106.114H85.7607H95.4459V96.4294H105.16V86.744H114.846V96.4294H124.589V106.114H134.275H143.989H153.674V96.4294H163.418V86.744H173.074V77.0589H163.418Z" fill="#ED1C24"/>
<path d="M56.6149 106.115H46.9004V115.8H56.6149V106.115Z" fill="#BCBEC0"/>
<path d="M46.8962 96.4292H37.2109V106.114H46.8962V96.4292Z" fill="#BCBEC0"/>
<path d="M153.671 106.115H143.985H134.271H124.586H114.842V115.8H124.586H134.271H143.985H153.671H163.414V106.115H153.671Z" fill="#BE1E2D"/>
<path d="M85.7541 106.114H76.0397V96.4291H66.3252V86.7438H56.6401V77.0587H46.8963V86.7438H37.2109V96.4291H46.8963V106.114H56.6401V115.8H66.3252H76.0397H85.7541H95.4394H105.154V106.114H95.4394H85.7541Z" fill="#BE1E2D"/>
<path d="M182.818 86.744V96.4293V106.114H192.503V96.4293V86.744H182.818Z" fill="#231F20"/>
<path d="M182.785 106.115H173.07V115.8H182.785V106.115Z" fill="#231F20"/>
<path d="M182.785 77.0587H173.07V86.7439H182.785V77.0587Z" fill="#231F20"/>
<path d="M173.103 67.3738H163.418V77.059H173.103V67.3738Z" fill="#231F20"/>
<path d="M153.673 115.8H143.988V125.485V135.2V144.885V154.57V164.255H153.673V154.57V144.885V135.2V125.485H163.417H173.073V115.8H163.417H153.673Z" fill="#231F20"/>
<path d="M153.673 67.3736H163.417V57.6883H153.673H143.988V67.3736H153.673Z" fill="#231F20"/>
<path d="M124.588 164.255V173.94H134.273H143.987V164.255H134.273H124.588Z" fill="#231F20"/>
<path d="M134.273 57.6883H143.987V48.0325H134.273H124.588V57.6883H134.273Z" fill="#231F20"/>
<path d="M105.156 173.94H95.4414V183.625H105.156H114.841H124.585V173.94H114.841H105.156Z" fill="#231F20"/>
<path d="M114.841 48.0323H124.585V38.347H114.841H105.156H95.4414V48.0323H105.156H114.841Z" fill="#231F20"/>
<path d="M85.7555 164.255H76.041V173.94H85.7555H95.4408V164.255H85.7555Z" fill="#231F20"/>
<path d="M95.4408 57.6883V48.0325H85.7555H76.041V57.6883H85.7555H95.4408Z" fill="#231F20"/>
<path d="M76.044 144.885V135.2V125.485V115.8H66.3295H56.6442H46.9004V125.485H56.6442H66.3295V135.2V144.885V154.57V164.255H76.044V154.57V144.885Z" fill="#231F20"/>
<path d="M76.0461 67.3736V57.6883H66.3316H56.6465V67.3736H66.3316H76.0461Z" fill="#231F20"/>
<path d="M56.6149 67.3738H46.9004V77.059H56.6149V67.3738Z" fill="#231F20"/>
<path d="M46.8962 106.115H37.2109V115.8H46.8962V106.115Z" fill="#231F20"/>
<path d="M46.8962 77.0587H37.2109V86.7439H46.8962V77.0587Z" fill="#231F20"/>
<path d="M37.2145 86.744H27.5V96.4293V106.114H37.2145V96.4293V86.744Z" fill="#231F20"/>
<path d="M90.9941 125.163V134.877H100.679V125.163V115.478H90.9941V125.163Z" fill="#231F20"/>
<path d="M120.691 115.478V125.163V134.877H130.377V125.163V115.478H120.691Z" fill="#231F20"/>
</g>
<defs>
<clipPath id="clip0_4_4942">
<rect width="220" height="220" fill="white" transform="translate(0 0.5)"/>
</clipPath>
</defs>
</svg>
