<svg width="220" height="221" viewBox="0 0 220 221" fill="none" xmlns="http://www.w3.org/2000/svg">
<g clip-path="url(#clip0_4_4980)">
<path d="M110 220.5C170.751 220.5 220 171.251 220 110.5C220 49.7487 170.751 0.5 110 0.5C49.2487 0.5 0 49.7487 0 110.5C0 171.251 49.2487 220.5 110 220.5Z" fill="#EDF0F4"/>
<path d="M140.767 105.38L127.655 92.2588V90.7487C127.655 80.7429 119.542 72.5306 109.449 72.5306C99.3552 72.5306 91.2427 80.6485 91.2427 90.7487V106.795C91.2427 107.834 91.6202 108.778 92.3748 109.438L105.487 122.465V129.639C105.487 131.715 107.185 133.414 109.26 133.414C111.335 133.414 113.033 131.715 113.033 129.639V120.954C113.033 119.916 112.656 118.972 111.901 118.311L98.7893 105.191V90.7487C98.7893 84.8961 103.6 80.0821 109.449 80.0821C115.297 80.0821 120.108 84.8961 120.108 90.7487V93.5804C120.108 93.9579 120.108 94.3356 120.202 94.7131C120.202 94.7131 120.202 94.7131 120.202 94.8075C120.202 94.9963 120.297 95.185 120.391 95.3738C120.58 95.9401 121.051 96.5066 121.523 96.8841L134.446 109.816V129.733C134.446 143.42 123.315 154.653 109.543 154.653C96.3366 154.464 85.4886 144.27 84.6396 131.243C84.5454 129.167 82.6587 127.562 80.5834 127.751C78.5082 127.845 76.9044 129.733 77.0932 131.81C78.2251 148.8 92.469 162.11 109.449 162.11C127.371 162.11 141.898 147.573 141.898 129.639V108.117C141.898 107.079 141.427 106.135 140.767 105.38Z" fill="#80225F"/>
<path d="M91.2439 126.618V129.639C91.2439 139.644 99.3564 147.856 109.45 147.856C119.543 147.856 127.656 139.739 127.656 129.639V113.875C127.656 112.837 127.278 111.893 126.524 111.232L113.129 97.828V90.6542C113.129 88.5774 111.431 86.8784 109.356 86.8784C107.28 86.8784 105.582 88.5774 105.582 90.6542V99.4327C105.582 100.471 105.96 101.415 106.714 102.076L120.109 115.385V129.544C120.109 135.396 115.298 140.21 109.45 140.21C103.601 140.21 98.7905 135.396 98.7905 129.544V126.052C99.0735 124.824 98.7905 123.503 97.8472 122.465H97.7528L97.6586 122.37L84.5465 109.249V89.8046C84.5465 76.0233 95.6775 64.8848 109.45 64.8848C122.09 64.8848 132.938 74.7016 134.165 87.2559V87.6336C134.353 89.7102 136.146 91.2205 138.221 91.1261C140.296 90.9372 141.805 89.1439 141.711 87.0673L141.617 86.5008C140.013 69.8876 126.146 57.3333 109.45 57.3333C91.527 57.3333 77 71.8698 77 89.8046V110.854C77 111.893 77.3773 112.837 78.1319 113.497L91.2439 126.618Z" fill="#80225F"/>
</g>
<defs>
<clipPath id="clip0_4_4980">
<rect width="220" height="220" fill="white" transform="translate(0 0.5)"/>
</clipPath>
</defs>
</svg>
