<svg width="220" height="221" viewBox="0 0 220 221" fill="none" xmlns="http://www.w3.org/2000/svg">
<g clip-path="url(#clip0_4_4984)">
<path d="M110 220.5C170.751 220.5 220 171.251 220 110.5C220 49.7487 170.751 0.5 110 0.5C49.2487 0.5 0 49.7487 0 110.5C0 171.251 49.2487 220.5 110 220.5Z" fill="#E7EFF3"/>
<path fill-rule="evenodd" clip-rule="evenodd" d="M73.9827 88.8082C81.7297 76.2656 95.5794 68.8087 110.315 69.2463C133.062 69.4097 151.234 88.2356 151.234 110.982V151.738H107.865C93.1294 151.3 79.7466 143.034 72.7577 130.054C65.7689 117.073 66.236 101.351 73.9827 88.8082ZM134.756 135.239V110.492H134.736C134.736 96.8242 123.656 85.7445 109.989 85.7445C96.3208 85.7445 85.2411 96.8242 85.2411 110.492C85.2411 124.159 96.3208 135.239 109.989 135.239H134.756Z" fill="#20EE82"/>
<path d="M168.325 52.1642C140.61 24.4477 97.2184 20.0607 64.5167 41.669C65.4449 42.6953 66.2406 43.8341 66.8852 45.0586C97.9558 24.6642 139.071 28.8576 165.385 55.1045C195.93 85.6099 195.93 135.309 165.385 165.855C134.838 196.401 85.1395 196.401 54.5932 165.855C28.3595 139.531 24.1832 98.4169 44.5882 67.3556C43.3628 66.7125 42.2237 65.9166 41.1985 64.9871C16.0633 102.966 26.4972 154.163 64.4758 179.299C102.454 204.434 153.652 193.999 178.787 156.021C200.431 123.317 196.057 79.8949 168.325 52.1642Z" fill="#7F8C8D"/>
<path d="M46.467 46.937C49.6806 43.7082 54.9034 43.6957 58.1325 46.9092C61.3615 50.1226 61.3744 55.3454 58.1611 58.5749C54.9478 61.8041 49.725 61.8173 46.4956 58.6042L46.467 58.5756C43.2636 55.3572 43.2636 50.1553 46.467 46.937Z" fill="#20EE82"/>
</g>
<defs>
<clipPath id="clip0_4_4984">
<rect width="220" height="220" fill="white" transform="translate(0 0.5)"/>
</clipPath>
</defs>
</svg>
