<svg width="220" height="221" viewBox="0 0 220 221" fill="none" xmlns="http://www.w3.org/2000/svg">
<g clip-path="url(#clip0_4_4989)">
<path d="M110 220.5C170.751 220.5 220 171.251 220 110.5C220 49.7487 170.751 0.5 110 0.5C49.2487 0.5 0 49.7487 0 110.5C0 171.251 49.2487 220.5 110 220.5Z" fill="#EDF0F4"/>
<path d="M110 193C155.563 193 192.5 156.063 192.5 110.5C192.5 64.9365 155.563 28 110 28C64.4365 28 27.5 64.9365 27.5 110.5C27.5 156.063 64.4365 193 110 193Z" fill="#057BC1"/>
<path fill-rule="evenodd" clip-rule="evenodd" d="M48.125 110.5C48.125 76.3296 75.8296 48.625 110 48.625C144.173 48.625 171.875 76.3274 171.875 110.5C171.875 144.67 144.17 172.375 110 172.375C75.8296 172.375 48.125 144.67 48.125 110.5ZM129.016 133.842H131.533V128.614H129.315V81.0216H120.663C120.59 91.0091 120.62 99.2237 120.645 105.669C120.654 108.315 120.663 110.662 120.663 112.712C114.956 116.141 108.141 117.224 101.652 115.734C96.7175 114.223 93.5 109.19 93.2989 104.163V81.0216H84.7447V103.359C84.6201 107.648 85.6645 111.89 87.7663 115.63C89.9784 119.456 94.2013 121.766 98.4293 122.772C106.069 124.218 113.974 122.937 120.766 119.152V128.609H107.685V133.842H120.56V147.929H129.016V133.842Z" fill="white"/>
</g>
<defs>
<clipPath id="clip0_4_4989">
<rect width="220" height="220" fill="white" transform="translate(0 0.5)"/>
</clipPath>
</defs>
</svg>
