<svg width="220" height="221" viewBox="0 0 220 221" fill="none" xmlns="http://www.w3.org/2000/svg">
<g clip-path="url(#clip0_4_4996)">
<path d="M110 220.5C170.751 220.5 220 171.251 220 110.5C220 49.7487 170.751 0.5 110 0.5C49.2487 0.5 0 49.7487 0 110.5C0 171.251 49.2487 220.5 110 220.5Z" fill="#6916FF"/>
<path fill-rule="evenodd" clip-rule="evenodd" d="M118.026 41.2317C117.55 42.087 117.786 43.1542 118.583 43.7401C122.025 47.0676 125.135 50.7075 127.871 54.6105C134.397 65.9808 134.069 79.9191 127.015 90.9846C126.077 92.5814 126.248 94.5784 127.443 96.0017C128.913 98.0044 131.719 98.5527 133.864 97.2558C141.036 91.3571 142.216 79.6063 142.689 74.9044C142.752 74.2741 142.803 73.7705 142.853 73.4247C142.847 70.4538 142.415 67.4985 141.569 64.6447C140.689 61.8965 139.542 59.2367 138.145 56.701C136.821 54.2103 135.085 51.9501 133.008 50.0116C129.389 46.2564 125.018 43.2678 120.166 41.2317C119.519 40.809 118.674 40.809 118.026 41.2317ZM106.383 174.017C106.811 173.599 106.811 172.763 105.955 171.927C102.468 168.605 99.3149 164.965 96.5381 161.057C90.0124 149.686 90.3403 135.748 97.3943 124.683C98.6831 123.247 98.6831 121.101 97.3943 119.666C95.925 117.663 93.1182 117.114 90.9734 118.411C83.8018 124.31 82.6213 136.061 82.1488 140.763C82.0856 141.393 82.035 141.897 81.9844 142.242C81.9906 145.213 82.4229 148.169 83.2686 151.022C84.149 153.771 85.2957 156.43 86.6929 158.966C88.0168 161.457 89.7522 163.717 91.8296 165.655C95.4487 169.411 99.8198 172.399 104.671 174.436C105.099 174.854 105.955 174.436 106.383 174.017Z" fill="white" fill-opacity="0.5"/>
<path d="M142.894 137.434C142.293 129.449 139.15 121.847 133.905 115.694C128.646 110.364 122.583 105.853 115.927 102.315C110.128 99.0831 104.678 95.2872 99.6609 90.9845C95.4963 87.0231 92.6604 81.9205 91.5281 76.3514C90.5073 70.5735 91.2362 64.6302 93.6254 59.2514C96.4616 53.3174 100.562 48.0433 105.654 43.7821C106.237 43.2453 106.409 42.4063 106.082 41.6917C105.846 41.2473 105.41 40.9373 104.905 40.855C104.399 40.7727 103.884 40.9278 103.514 41.2735C96.6442 44.3137 90.8397 49.2564 86.8195 55.4886C82.2509 62.1308 80.1233 70.0897 80.784 78.0656C81.1217 82.1013 82.1339 86.0558 83.7802 89.7722C85.5547 93.4225 87.8618 96.8024 90.6292 99.8064C96.0447 105.027 102.253 109.398 109.035 112.767C114.846 115.802 120.3 119.447 125.301 123.637C129.725 127.576 132.602 132.899 133.434 138.689C134.64 144.753 133.892 151.034 131.294 156.667C128.41 162.558 124.159 167.711 118.881 171.718C118.53 171.932 118.285 172.277 118.204 172.673C118.123 173.069 118.213 173.48 118.452 173.808C118.688 174.253 119.124 174.563 119.629 174.645C120.135 174.727 120.65 174.572 121.021 174.226C127.418 170.497 132.956 165.514 137.287 159.593C141.528 152.98 143.492 145.216 142.894 137.434Z" fill="white"/>
</g>
<defs>
<clipPath id="clip0_4_4996">
<rect width="220" height="220" fill="white" transform="translate(0 0.5)"/>
</clipPath>
</defs>
</svg>
