<svg width="220" height="221" viewBox="0 0 220 221" fill="none" xmlns="http://www.w3.org/2000/svg">
<g clip-path="url(#clip0_4_4993)">
<path d="M110 220.5C170.751 220.5 220 171.251 220 110.5C220 49.7487 170.751 0.5 110 0.5C49.2487 0.5 0 49.7487 0 110.5C0 171.251 49.2487 220.5 110 220.5Z" fill="#B30D23"/>
<path fill-rule="evenodd" clip-rule="evenodd" d="M110.001 158.167L116.38 146.143H116.373C154.912 143.116 185.167 114.04 185.167 114.04C185.167 114.04 155.767 85.725 118.023 82.0818L115.135 76.991L110.001 68.3333L106.975 73.4241L101.978 82.0818C64.2271 85.7943 34.834 113.97 34.834 114.04C34.834 114.04 65.0827 143.116 103.621 146.143L110.001 158.167ZM99.5413 138.441C70.2782 134.181 41.1452 114.04 41.2136 114.04C41.2136 114.04 68.9639 94.8677 97.5014 89.9848L92.9699 97.8876L96.5157 104.897L106.119 88.9528C107.434 88.8835 108.748 88.8142 110.001 88.8142C111.273 88.8261 112.544 88.8723 113.813 88.9528L123.219 104.897L126.833 97.5482L122.493 89.9155C151.037 94.7293 178.781 113.486 178.781 113.97C178.781 114.524 149.655 134.181 120.392 138.371L134.657 111.29L130.783 104.488L123.349 118.507L113.156 139.064C112.04 139.133 110.986 139.133 109.871 139.133C108.748 139.133 107.632 139.133 106.516 139.064L92.6414 111.428L92.7097 111.359L89.1503 104.627L85.276 111.428L99.5413 138.441Z" fill="white"/>
</g>
<defs>
<clipPath id="clip0_4_4993">
<rect width="220" height="220" fill="white" transform="translate(0 0.5)"/>
</clipPath>
</defs>
</svg>
