<svg width="220" height="221" viewBox="0 0 220 221" fill="none" xmlns="http://www.w3.org/2000/svg">
<g clip-path="url(#clip0_4_5000)">
<path d="M110 220.5C170.751 220.5 220 171.251 220 110.5C220 49.7487 170.751 0.5 110 0.5C49.2487 0.5 0 49.7487 0 110.5C0 171.251 49.2487 220.5 110 220.5Z" fill="#1C1C1C"/>
<path fill-rule="evenodd" clip-rule="evenodd" d="M127.706 77.7812C129.308 76.5507 129.759 73.7518 130.16 71.2595L130.213 70.9268C130.213 70.4937 130.213 68.3487 132.304 68.3487C133.356 68.1344 134.936 70.1958 136.673 72.4618C138.391 74.702 140.261 77.1421 141.926 77.7812C143.176 83.3568 142.336 88.9325 138.161 89.3655C132.304 90.218 129.38 82.5043 127.706 77.7812ZM90.4907 70.9268C90.4907 73.498 90.9144 76.4955 92.9985 77.7812C91.3313 82.9305 87.9829 89.7918 82.5434 89.3655C78.7851 88.9325 77.9515 82.5043 78.7851 77.7812C80.718 77.12 82.5423 74.6444 84.1996 72.3953C85.7651 70.271 87.1816 68.3487 88.3996 68.3487C90.4907 68.3487 90.4907 70.4937 90.4907 70.9268ZM70.8378 77.7812C69.5872 76.4955 70.0041 73.9243 70.8378 71.353C70.8378 71.353 71.6783 69.208 70.4278 68.7818C69.2583 68.7818 66.923 71.3136 64.6506 73.7772C62.8468 75.7328 61.0826 77.6454 59.9727 78.2143C59.549 79.0668 56.2076 88.9325 60.3828 89.7918C64.1479 90.2248 68.3299 82.9305 70.8378 77.7812ZM49.4827 76.1067C48.6773 76.9979 48.078 77.6612 47.8434 77.7812C43.6613 84.2162 43.6613 89.785 45.3355 89.785C47.1925 89.785 52.0138 81.3368 53.9504 77.9437C54.1944 77.516 54.3926 77.1687 54.5334 76.9287C54.3293 75.8793 55.3257 74.3168 56.2008 72.9443C57.1147 71.511 57.8964 70.2851 57.0412 70.0675C54.9395 70.0675 51.5394 73.8306 49.4827 76.1067ZM69.5872 100.084C72.9289 100.084 75.4436 96.2268 77.9447 89.3655H77.9515C76.6942 87.6468 75.0199 84.6425 75.8603 78.2143H72.9289L72.9124 78.248C70.8247 82.5312 68.3281 87.6536 64.9885 90.218C64.9885 91.0773 65.4052 100.084 69.5872 100.084ZM74.1862 100.943C75.8604 100.084 79.202 95.3673 80.8762 91.0773C82.5504 91.9368 84.2246 91.9368 86.3087 91.5036C87.1491 96.2268 88.3996 99.2243 91.3313 100.943C90.0738 108.657 87.566 116.377 82.1335 116.377C77.1109 116.377 74.6031 106.086 74.1862 100.943ZM52.8592 100.943C55.6699 99.8639 57.5945 94.5509 58.3867 92.3639C58.5383 91.9456 58.6485 91.6416 58.7154 91.5036C59.668 92.363 61.111 92.363 62.0638 91.5036C62.0638 97.0793 63.731 99.6573 64.9885 100.51C63.731 107.797 62.0568 116.377 58.2917 116.377C54.9501 116.377 53.2759 108.657 52.8592 100.943ZM108.053 91.9368L108.059 91.9393C106.384 98.3655 102.62 100.943 101.363 101.802C101.363 103.941 104.294 116.377 110.144 116.377C114.326 116.377 118.091 112.521 119.341 101.796C117.257 100.084 115.166 96.2268 113.909 91.9368C112.236 92.3627 110.148 92.7953 108.059 91.9393L108.059 91.9368H108.053ZM101.779 129.674C104.294 127.529 105.961 124.098 108.053 118.522C109.727 119.382 112.235 118.949 113.909 118.522C115.166 124.524 116.417 128.388 119.341 130.1C118.508 136.961 114.326 141.677 110.56 141.677C105.128 141.677 102.62 133.104 101.779 129.674ZM69.1705 130.959C70.0041 137.394 70.0041 140.818 68.3299 142.963H68.3367C70.421 146.394 74.6031 151.969 79.202 149.824C80.4593 149.398 80.8762 145.967 80.4593 142.963C77.1109 140.818 75.02 136.961 72.5189 130.959C71.6783 131.385 70.421 131.385 69.1705 130.959ZM50.7681 131.385C51.6086 131.385 52.0254 131.385 52.8592 131.819C55.7907 139.532 60.8063 143.822 60.8063 143.822C62.4805 147.253 63.3143 150.684 62.0568 150.684C58.2985 151.11 55.367 148.539 52.4423 142.963C52.7428 142.036 52.6102 141.331 51.886 137.48C51.6054 135.986 51.2357 134.02 50.7681 131.385ZM51.1917 147.679C51.6086 148.539 43.6613 149.398 39.4793 131.385C39.4793 130.911 39.8783 131.721 40.5707 133.125C41.7549 135.528 43.7974 139.672 46.1692 142.11C47.8434 143.396 49.5175 144.682 51.1917 147.679ZM90.4907 142.963C93.4222 140.818 93.8391 136.102 94.256 130.107C95.93 130.526 98.0144 130.526 99.2717 130.107C100.112 133.957 101.363 139.532 105.128 142.11C104.711 146.827 103.454 149.398 100.529 149.824C98.438 150.684 92.5818 150.684 90.4907 142.963ZM54.535 129.671L54.5334 129.674V129.667L54.535 129.671ZM64.9885 142.11C61.2314 142.11 56.2111 133.962 54.535 129.671C56.2078 127.526 56.6245 124.096 57.0412 119.382C58.2985 119.808 59.9727 119.808 60.7995 119.382C62.0568 124.95 64.1479 128.388 66.6627 130.107C67.4963 139.106 66.6627 142.11 64.9885 142.11ZM41.5704 129.674C41.5704 128.814 41.9871 123.239 42.4108 119.382H44.0782C46.1691 127.529 49.1008 130.107 49.1008 130.107C51.1918 139.965 51.1918 142.537 49.5108 141.677C45.7524 140.392 42.8277 133.104 41.5704 129.674ZM79.202 119.382C78.3682 124.957 77.1109 127.955 75.02 129.674C75.4436 131.385 79.6187 139.965 84.6413 141.244C90.4907 142.537 90.9144 134.816 90.9144 130.107C87.9897 128.388 85.8918 124.95 84.6413 119.382C83.384 119.808 81.2929 120.234 79.202 119.382ZM71.2614 128.388C66.239 128.388 63.3143 120.234 63.3143 117.663C65.8221 115.092 67.0726 110.376 68.3299 102.229C69.1705 102.655 70.421 102.655 71.6783 102.229C72.0952 111.235 74.6031 115.092 76.6942 117.237C75.8604 124.524 73.7694 128.388 71.2614 128.388ZM47.7893 106.971C46.1538 115.658 46.0559 116.178 45.3355 117.663C47.4266 126.243 49.5175 128.388 51.185 128.388C54.1456 128.388 54.2628 124.409 54.3803 120.416C54.4122 119.331 54.4443 118.244 54.5334 117.237C53.2759 115.518 50.7681 111.235 50.7681 102.229H48.6839C48.342 104.035 48.0465 105.604 47.7893 106.971ZM36.9715 102.655C37.5704 102.861 37.6933 105.499 37.8388 108.622C37.9987 112.054 38.1859 116.073 39.0624 118.096C39.0624 118.096 39.0624 128.814 38.2288 127.955C31.9557 120.234 36.1377 102.229 36.9715 102.655ZM94.256 102.229C91.748 110.802 90.0738 115.518 87.1491 117.663C87.172 117.733 87.2012 117.828 87.2367 117.944C87.8531 119.954 90.4403 128.388 96.7638 128.388C100.946 128.388 104.294 123.665 105.128 116.804C101.779 113.38 100.112 108.657 99.2717 102.229C98.0144 102.655 95.93 102.655 94.256 102.229ZM39.4793 100.943C38.6457 105.659 39.4793 116.804 42.404 116.804H42.4108C44.5019 116.804 46.5861 100.943 46.5861 100.943C45.7524 99.6573 44.9186 97.0793 45.3355 91.5036C45.0448 91.8059 44.5478 91.6863 44.1323 91.5864C43.9521 91.5431 43.7875 91.5036 43.6613 91.5036C41.9871 97.0793 39.4793 100.943 39.4793 100.943ZM57.4581 78.6405C55.367 84.6425 56.2076 87.6468 57.048 89.7918C53.6996 98.3648 52.0254 100.517 49.5175 100.517C47.0097 100.084 47.0097 94.9343 47.8434 90.6511C50.3514 88.9325 55.7907 79.0737 55.7907 78.6405H57.4581ZM44.6009 81.4404C45.3447 79.9404 45.8656 78.89 45.3355 79.0737C39.0624 83.3568 35.721 98.798 37.3882 99.2243C37.8051 99.6573 42.8209 92.363 42.4108 88.08C42.1668 86.349 43.5898 83.4794 44.6009 81.4404ZM104.711 89.3655C103.454 94.0818 101.779 100.084 94.6727 100.084C90.9144 99.6573 88.8233 94.5148 87.9829 90.218C92.1649 87.2205 94.256 82.0712 95.5133 78.2143C96.7638 78.6405 98.8617 78.6405 100.112 78.2143C100.946 84.6425 103.037 87.6468 104.711 89.3655ZM150.707 130.959C150.283 137.387 150.283 140.818 151.54 142.963C149.866 146.4 145.267 151.543 140.675 149.824C138.994 149.398 138.994 145.967 139.411 142.963C143.176 140.818 145.684 136.535 147.358 130.959C148.192 131.385 149.449 131.385 150.707 130.959ZM169.519 130.526C168.686 131.385 167.845 131.385 167.428 130.959C164.503 138.68 159.488 142.963 159.488 142.963C157.397 146.827 156.556 149.824 158.23 149.824C161.995 149.824 164.92 147.679 167.845 142.11C167.545 141.18 167.677 140.477 168.399 136.635L168.4 136.632L168.401 136.626L168.402 136.62L168.402 136.616C168.683 135.124 169.052 133.159 169.519 130.526ZM172.867 143.287C171.632 144.389 170.461 145.435 169.519 147.679C169.102 148.539 177.05 149.398 181.225 131.385C180.827 130.772 180.047 132.304 178.933 134.493C177.71 136.895 176.084 140.089 174.118 142.11H174.125C173.703 142.54 173.281 142.917 172.867 143.287ZM129.796 143.822C127.289 140.818 126.031 136.102 126.031 130.959C124.364 131.385 122.69 131.385 121.016 130.959C120.182 134.816 118.508 139.965 115.166 142.963C116 147.253 116.834 149.824 119.765 150.684C121.856 151.11 127.706 151.11 129.796 143.822ZM163.663 118.949C163.663 124.098 164.087 127.529 166.178 129.24C164.503 133.53 159.071 141.684 155.723 141.684C154.048 141.684 153.215 138.68 154.048 129.674C156.556 127.955 158.647 123.665 159.905 118.949C161.072 119.607 162.496 119.607 163.663 118.949ZM179.557 130.1C178.717 128.814 178.717 123.245 178.717 119.808H177.05C174.958 127.529 172.027 130.526 172.027 130.526C169.936 139.965 169.519 142.537 171.61 142.11C174.478 141.009 177.035 135.505 178.762 131.788L178.763 131.786L178.765 131.782C179.053 131.161 179.318 130.591 179.557 130.1ZM141.502 118.949C142.343 124.957 143.176 127.955 145.684 129.24C145.274 131.385 140.669 139.965 136.07 140.818C130.213 142.11 129.796 133.957 129.796 129.674C132.721 127.955 134.812 124.098 136.07 118.949C137.327 119.382 139.418 119.808 141.502 118.949ZM149.449 128.388C153.631 128.388 156.973 120.234 157.397 117.663C155.306 115.092 154.048 109.949 152.381 102.229C151.306 102.658 150.108 102.658 149.033 102.229C148.616 111.235 146.108 115.518 144.017 117.237C144.851 124.098 146.942 128.388 149.449 128.388ZM172.027 102.229C174.028 114.948 174.496 115.89 175.269 117.449L175.301 117.513L175.375 117.663C173.284 125.81 171.193 128.388 169.519 128.388C166.579 128.388 166.449 124.189 166.329 120.307C166.296 119.226 166.263 118.171 166.171 117.237C167.845 115.518 169.936 111.235 169.936 102.229C170.479 102.504 170.845 102.424 171.261 102.332C171.489 102.282 171.732 102.229 172.027 102.229ZM182.412 106.858C182.271 110.606 182.084 115.57 180.808 117.663C180.808 117.663 180.808 128.388 181.648 127.529C187.916 120.667 184.157 101.796 182.899 102.229C182.574 102.564 182.502 104.462 182.412 106.858ZM127.289 102.229C128.546 110.802 130.637 115.518 134.395 117.663C133.978 118.949 130.637 128.388 124.781 128.388C120.182 128.814 117.674 123.239 116.417 116.804C119.341 113.38 121.432 108.657 122.273 102.229C123.107 102.655 125.198 102.655 127.289 102.229ZM167.428 101.796C164.503 99.6573 161.995 92.363 161.995 91.5036H161.989C160.887 92.273 159.476 92.4356 158.23 91.9368C158.23 97.0793 156.556 100.084 155.299 101.369C156.556 109.09 158.23 117.237 161.995 117.237C165.337 117.237 167.428 109.083 167.428 101.796ZM180.808 100.943C181.225 105.659 180.391 116.804 178.3 116.377C176.209 116.377 174.118 100.51 174.118 100.51C174.958 99.2243 175.792 96.2268 175.375 91.5036C175.851 91.9349 176.574 91.9349 177.05 91.5036C178.717 97.0793 180.808 100.943 180.808 100.943ZM146.942 101.369C144.434 100.084 141.502 95.3673 139.835 91.5036C138.154 92.363 136.07 92.363 134.395 91.9368C133.978 96.2268 132.304 99.6505 129.796 101.369C131.054 109.516 132.721 117.237 138.994 116.804C143.593 116.804 146.525 106.519 146.942 101.369ZM150.29 99.6573C147.358 100.084 144.851 96.2198 141.926 89.3655C143.593 87.6468 144.851 84.2162 144.017 78.2143C145.267 78.6405 146.108 78.6405 146.942 78.2143C149.449 82.9305 151.957 87.6468 154.882 89.7918C154.882 91.0773 154.472 99.6573 150.283 99.6573H150.29ZM163.664 89.3615L163.663 89.3655V89.3586L163.664 89.3615ZM170.353 100.084C168.269 100.084 166.595 97.9391 163.664 89.3615L163.691 89.2533C164.121 87.5166 164.866 84.5048 162.412 78.2143H164.087C164.087 78.6405 169.936 88.9393 172.027 90.218C172.868 94.9343 172.868 99.6573 170.353 100.084ZM177.876 88.073C178.204 85.7568 175.781 81.3881 174.855 79.7185C174.583 79.2281 174.44 78.97 174.535 79.0668C181.232 83.3568 183.739 98.798 182.482 99.2243C182.065 99.6573 177.466 91.9368 177.883 88.073H177.876ZM115.583 89.3655C116.834 94.0818 118.508 100.084 124.781 99.6573H124.774C128.963 99.2243 131.054 94.9343 131.471 89.7918C128.129 87.2205 126.031 82.0712 124.781 78.2143C123.53 78.6405 121.432 78.6405 120.182 78.2143C119.765 84.2162 117.674 88.073 115.583 89.3655ZM172.09 77.3916L172.095 77.3964L172.098 77.3997C172.277 77.5997 172.397 77.7334 172.444 77.7812C177.05 84.6425 177.05 89.7918 175.375 89.7918C173.243 89.7918 168.993 82.041 166.998 78.4038L166.997 78.4022L166.994 78.3967L166.993 78.3939C166.644 77.7576 166.364 77.2474 166.178 76.9287C166.384 75.8467 165.319 74.1107 164.425 72.6558C163.548 71.226 162.836 70.0675 163.663 70.0675C165.517 70.0675 170.657 75.7946 172.09 77.3916ZM149.873 71.353C150.707 73.9312 150.707 76.4955 149.873 77.7812H149.866C150.025 78.0797 150.188 78.3901 150.357 78.7096C152.852 83.4466 156.404 90.1911 160.321 89.7918C164.497 88.9393 161.155 79.0737 160.738 78.2143C159.628 77.6448 157.86 75.7297 156.054 73.7725C153.782 71.3105 151.448 68.7818 150.283 68.7818C149.306 68.7818 149.606 70.0922 149.783 70.8683C149.833 71.085 149.873 71.2601 149.873 71.353ZM114.54 73.412C113.505 70.8758 112.473 68.3487 110.144 68.3487C107.803 68.3487 107.089 70.354 106.287 72.6045C105.515 74.77 104.663 77.1625 102.203 78.2143C102.62 82.0712 103.871 89.7918 109.727 89.7918C116.417 89.7918 117.674 80.3593 117.674 78.2143C116.191 77.4529 115.364 75.4294 114.54 73.412Z" fill="white"/>
</g>
<defs>
<clipPath id="clip0_4_5000">
<rect width="220" height="220" fill="white" transform="translate(0 0.5)"/>
</clipPath>
</defs>
</svg>
