<svg width="220" height="221" viewBox="0 0 220 221" fill="none" xmlns="http://www.w3.org/2000/svg">
<g clip-path="url(#clip0_4_5003)">
<path d="M110 220.5C170.751 220.5 220 171.251 220 110.5C220 49.7487 170.751 0.5 110 0.5C49.2487 0.5 0 49.7487 0 110.5C0 171.251 49.2487 220.5 110 220.5Z" fill="black"/>
<path fill-rule="evenodd" clip-rule="evenodd" d="M144.537 125.709C145.032 129.289 146.008 131.964 147.46 133.736C150.119 136.962 154.672 138.574 161.123 138.574C164.986 138.574 168.123 138.15 170.533 137.299C175.105 135.668 177.39 132.638 177.39 128.208C177.39 125.62 176.256 123.617 173.989 122.2C171.72 120.818 168.159 119.596 163.302 118.532L155.009 116.672C146.857 114.828 141.223 112.825 138.103 110.663C132.823 107.049 130.182 101.396 130.182 93.7043C130.182 86.6866 132.734 80.8566 137.837 76.2143C142.942 71.5721 150.437 69.25 160.325 69.25C168.584 69.25 175.627 71.4379 181.457 75.8155C187.288 80.1933 190.344 86.5458 190.628 94.8749H174.891C174.608 90.1603 172.552 86.8122 168.725 84.8271C166.174 83.5157 163.001 82.859 159.21 82.859C154.992 82.859 151.625 83.7099 149.108 85.4114C146.592 87.1129 145.334 89.4865 145.334 92.5357C145.334 95.3354 146.573 97.4272 149.055 98.809C150.65 99.7303 154.052 100.811 159.263 102.052L172.765 105.294C178.685 106.712 183.15 108.608 186.162 110.983C190.841 114.67 193.18 120.003 193.18 126.985C193.18 134.145 190.443 140.09 184.967 144.822C179.491 149.553 171.756 151.918 161.76 151.918C151.554 151.918 143.526 149.588 137.679 144.927C131.83 140.267 128.906 133.861 128.906 125.709H144.537Z" fill="white"/>
<path fill-rule="evenodd" clip-rule="evenodd" d="M48.125 45.1875V175.813H161.563V163.781H61.875V57.2188H161.563V45.1875H48.125Z" fill="white"/>
</g>
<defs>
<clipPath id="clip0_4_5003">
<rect width="220" height="220" fill="white" transform="translate(0 0.5)"/>
</clipPath>
</defs>
</svg>
