<svg width="220" height="221" viewBox="0 0 220 221" fill="none" xmlns="http://www.w3.org/2000/svg">
<g clip-path="url(#clip0_4_5007)">
<path d="M110 220.5C170.751 220.5 220 171.251 220 110.5C220 49.7487 170.751 0.5 110 0.5C49.2487 0.5 0 49.7487 0 110.5C0 171.251 49.2487 220.5 110 220.5Z" fill="#EDF0F4"/>
<path fill-rule="evenodd" clip-rule="evenodd" d="M110.133 55.5C115.329 55.5205 120.259 56.6297 124.736 58.6218L75.1966 165.793H73.3275C68.7268 165.793 64.3316 164.909 60.2854 163.349L110.133 55.5ZM107.381 55.6232L58.0262 162.404C45.4359 156.591 36.666 143.857 36.666 129.028C36.666 108.716 53.0764 92.2642 73.3275 92.2642C73.3275 72.8347 88.3618 56.9788 107.381 55.6232ZM163.513 96.3925L131.431 165.793H118.615L152.381 92.7367C156.345 93.3734 160.083 94.6056 163.513 96.3925ZM112.68 165.793L146.671 92.2642C146.671 85.3837 144.761 78.9757 141.475 73.4713L98.7955 165.793H112.68ZM159.302 163.513L181.073 116.438C182.511 120.382 183.333 124.613 183.333 129.049C183.333 144.864 173.33 158.337 159.302 163.513ZM176.822 108.141C174.645 104.957 171.954 102.184 168.915 99.843L138.435 165.793H146.671C147.862 165.793 149.074 165.731 150.245 165.608L176.822 108.141ZM93.9483 165.793L138.579 69.2403C135.621 65.5639 131.965 62.4626 127.817 60.1418L78.9757 165.793H93.9483Z" fill="#0072FF"/>
</g>
<defs>
<clipPath id="clip0_4_5007">
<rect width="220" height="220" fill="white" transform="translate(0 0.5)"/>
</clipPath>
</defs>
</svg>
