<svg width="220" height="221" viewBox="0 0 220 221" fill="none" xmlns="http://www.w3.org/2000/svg">
<g clip-path="url(#clip0_4_5010)">
<path d="M110 220.5C170.751 220.5 220 171.251 220 110.5C220 49.7487 170.751 0.5 110 0.5C49.2487 0.5 0 49.7487 0 110.5C0 171.251 49.2487 220.5 110 220.5Z" fill="#EDF0F4"/>
<path fill-rule="evenodd" clip-rule="evenodd" d="M102.099 49.1919C98.2113 50.1295 94.5061 51.6123 93.7387 52.5374C93.359 52.9946 93.3365 52.7883 94.5566 59.9937C95.4688 65.3819 95.9174 66.4106 98.3813 68.7701C100.353 70.6584 100.221 70.979 97.691 70.4525C96.1462 70.1309 95.0912 69.6853 93.916 68.8586C93.5105 68.573 93.1453 68.6731 91.6456 69.4807C82.4535 74.4301 71.988 86.2164 65.5584 98.8611C62.2188 105.429 60.1876 111.388 58.8898 118.428C58.1904 122.22 58.1904 131.042 58.8898 134.789C61.5318 148.948 69.6487 160.275 81.7502 166.69C88.7814 170.417 98.2218 172.603 107.266 172.597C113.001 172.594 119.738 171.66 124.785 170.168C143.548 164.622 155.628 152.95 159.139 136.974C160.966 128.656 160.177 118.098 157.069 109.285C154.914 103.175 152.616 98.7088 148.404 92.4419C141.596 82.3135 132.285 73.7899 122.364 68.6054C121.26 68.0283 120.112 67.5559 119.814 67.5559C119.516 67.5559 118.663 67.9751 117.917 68.4877C116.775 69.2737 114.298 70.0307 112.87 70.0307C112.345 70.0307 112.837 69.2222 114.083 68.0338C114.881 67.2726 115.795 66.0296 116.214 65.1349C116.925 63.618 116.951 63.387 117.032 57.8329C117.107 52.7546 117.064 52.0382 116.652 51.5828C116.107 50.9807 114.004 50.174 111.861 49.7454C111.029 49.5791 109.689 49.3109 108.884 49.1497C107.136 48.8003 103.632 48.8219 102.099 49.1919Z" fill="#81B797"/>
<path d="M105.276 71.3398C99.7766 71.6698 96.5683 69.2775 95.6518 68.04C95.1018 67.0777 93.9193 64.7954 93.5895 63.3654C93.2595 61.9354 92.352 55.7117 91.9395 52.7784C93.452 51.2661 98.2366 48.1588 105.276 47.8288C112.316 47.4988 116.734 50.0744 118.063 51.4036C118.154 55.0701 118.2 62.8704 117.65 64.7404C116.963 67.0777 116.138 67.6277 115.313 68.4525C114.488 69.2775 112.151 70.9275 105.276 71.3398Z" fill="#D28B52"/>
<path d="M104.726 55.3101C95.2668 56.1901 92.2603 52.6519 91.9395 50.7727C93.0395 49.4438 97.0816 46.6206 104.451 45.9606C111.821 45.3006 116.688 48.6188 118.2 50.3604C117.65 51.6436 114.186 54.4301 104.726 55.3101Z" fill="#E4B85D"/>
<path d="M98.2615 81.2104C97.1617 80.3304 95.9702 73.2358 95.5117 69.7985C96.6117 70.0277 100.269 70.4585 106.099 70.3485C111.928 70.2385 115.311 68.8362 116.273 68.1487C116.227 71.0818 116.081 77.3606 115.861 79.0104C115.586 81.0729 112.973 81.8978 107.748 82.7228C102.524 83.5478 99.6365 82.3103 98.2615 81.2104Z" fill="#95B77A"/>
<path fill-rule="evenodd" clip-rule="evenodd" d="M109.853 44.704C110.579 44.8395 112.039 45.0975 113.098 45.2771C117.107 45.9566 120.958 47.4551 121.826 48.6741C122.559 49.7037 122.594 51.2162 122.041 57.8718C121.816 60.5794 121.768 62.4439 121.92 62.588C122.059 62.7193 123.472 63.4966 125.06 64.3157C133.851 68.8499 141.872 75.5964 148.691 84.1894C156.443 93.9589 162.033 105.712 164.389 117.19C167.396 131.849 163.709 146.51 154.155 157.888C147.858 165.388 140.318 169.942 126.861 174.374C124.477 175.159 121.222 176.033 118.71 176.563C110.628 178.265 99.7934 177.77 90.8242 175.287C75.9095 171.159 65.0314 162.396 58.4886 149.239C55.8887 144.011 54.5891 140.379 53.6563 135.737C52.9972 132.457 53.0038 124.343 53.6689 120.078C56.3023 103.189 63.9213 87.9782 75.9652 75.5647C80.2033 71.1962 84.1923 68.0328 89.691 64.6797C90.4531 64.2149 90.4764 64.1381 90.3112 62.645C90.2168 61.7918 90.0205 60.4749 89.8753 59.7187C89.2734 56.5868 88.9918 54.9426 88.7465 53.1306C88.604 52.0782 88.4234 51.0145 88.3448 50.7669C87.8648 49.2553 94.9034 45.9307 100.999 44.79C102.83 44.4474 108.202 44.3951 109.853 44.704ZM102.099 49.1917C98.2109 50.1294 94.5057 51.612 93.7383 52.5371C93.3586 52.9944 93.3361 52.7883 94.5561 59.9937C95.4684 65.3816 95.917 66.4103 98.3808 68.77C100.352 70.6583 100.221 70.979 97.6906 70.4523C96.1458 70.1309 95.0907 69.6852 93.9156 68.8586C93.51 68.5727 93.1448 68.673 91.6452 69.4806C82.453 74.4301 71.9876 86.2164 65.5579 98.8611C62.2183 105.429 60.1872 111.388 58.8894 118.428C58.1901 122.22 58.1901 131.042 58.8894 134.789C61.5314 148.948 69.6483 160.275 81.7497 166.69C88.7809 170.417 98.2213 172.602 107.266 172.597C113.001 172.594 119.738 171.66 124.785 170.168C143.548 164.622 155.628 152.95 159.138 136.973C160.966 128.655 160.177 118.098 157.068 109.285C154.913 103.175 152.615 98.7087 148.403 92.4418C141.595 82.3132 132.284 73.7899 122.364 68.6054C121.259 68.0281 120.112 67.5556 119.814 67.5556C119.516 67.5556 118.662 67.9751 117.917 68.4875C116.775 69.2734 114.298 70.0304 112.869 70.0304C112.345 70.0304 112.836 69.2221 114.082 68.0336C114.88 67.2725 115.794 66.0295 116.213 65.1347C116.925 63.618 116.95 63.387 117.032 57.8327C117.107 52.7544 117.063 52.0381 116.651 51.5827C116.106 50.9804 114.003 50.174 111.861 49.7453C111.029 49.5789 109.689 49.3108 108.884 49.1497C107.136 48.8001 103.632 48.8219 102.099 49.1917Z" fill="#1A4432"/>
<mask id="mask0_4_5010" style="mask-type:luminance" maskUnits="userSpaceOnUse" x="67" y="99" width="85" height="67">
<path fill-rule="evenodd" clip-rule="evenodd" d="M147.349 144.869C137.587 162.056 117.789 164.943 108.714 165.493C105.918 165.493 98.2373 164.695 89.8777 161.506C79.4284 157.518 74.8911 151.331 69.529 140.744C64.1668 130.157 69.6665 109.671 72.1413 107.196C74.6163 104.722 87.2654 100.459 108.714 99.6342C125.873 98.9742 140.979 101.743 146.387 103.209C149.962 111.367 155.159 131.12 147.349 144.869Z" fill="white"/>
</mask>
<g mask="url(#mask0_4_5010)">
<path d="M147.349 144.869C137.587 162.056 117.789 164.943 108.714 165.493C105.918 165.493 98.2373 164.695 89.8777 161.506C79.4284 157.518 74.8911 151.331 69.529 140.744C64.1668 130.157 69.6665 109.671 72.1413 107.196C74.6163 104.722 87.2654 100.459 108.714 99.6342C125.873 98.9742 140.979 101.743 146.387 103.209C149.962 111.367 155.159 131.12 147.349 144.869Z" fill="#F3B3BD"/>
<path d="M108.168 112.284C76.7094 112.504 69.8531 107.7 70.3573 105.271C76.3152 102.201 92.8235 96.0594 111.192 96.0594C134.153 96.0594 149.553 101.009 149.69 101.972C149.828 102.934 147.49 112.009 108.168 112.284Z" fill="#F8D5DA"/>
</g>
<path d="M81.3513 122.183C81.4888 124.658 79.4265 127.545 75.1642 131.12C74.4767 130.524 73.0469 128.893 72.8269 127.133C72.5519 124.933 74.2017 121.496 76.4015 118.883C78.6015 116.271 81.2138 119.708 81.3513 122.183Z" fill="#F098A2"/>
<path d="M93.043 152.156C92.3555 145.969 103.905 131.395 113.392 126.445C124.803 119.983 140.89 117.646 144.877 125.758C148.865 133.87 145.84 143.907 139.928 149.131C134.015 154.356 126.728 159.443 114.629 161.643C102.53 163.843 93.7303 158.343 93.043 152.156Z" fill="#F098A2"/>
<path d="M93.042 93.0348C92.0795 97.4344 90.0172 101.284 83.0051 106.784C72.9681 113.796 72.1433 104.034 73.7931 99.7719C75.4431 95.5096 77.5054 89.46 85.6174 85.0602C93.7295 80.6605 94.0045 88.635 93.042 93.0348Z" fill="white"/>
<path d="M145.558 148.032C147.07 150.644 145.558 154.219 140.058 157.518C138.408 158.893 137.445 159.856 134.833 158.481C132.221 157.106 133.733 154.219 135.933 150.919C138.133 147.619 144.045 145.419 145.558 148.032Z" fill="white"/>
<path d="M63.8936 135.795L61.9688 119.433L64.8561 128.233C67.7892 125.941 74.1505 120.973 76.1303 119.433C78.6051 117.508 77.7803 116.408 81.7675 119.433C85.7548 122.458 97.1667 132.632 98.954 132.22C100.741 131.807 118.478 114.483 119.853 115.583C120.953 116.463 133.419 122.733 139.514 125.758L151.476 110.909L158.626 122.183L151.476 115.583C148.222 120.35 141.521 130.02 140.751 130.57C139.789 131.257 123.565 119.433 120.54 119.433C118.12 119.433 105.691 132.999 99.779 139.782L79.2926 122.183L63.8936 135.795Z" fill="#BDF5E8"/>
</g>
<defs>
<clipPath id="clip0_4_5010">
<rect width="220" height="220" fill="white" transform="translate(0 0.5)"/>
</clipPath>
</defs>
</svg>
