<svg width="220" height="221" viewBox="0 0 220 221" fill="none" xmlns="http://www.w3.org/2000/svg">
<g clip-path="url(#clip0_4_5028)">
<path d="M110 220.5C170.751 220.5 220 171.251 220 110.5C220 49.7487 170.751 0.5 110 0.5C49.2487 0.5 0 49.7487 0 110.5C0 171.251 49.2487 220.5 110 220.5Z" fill="#FEC60D"/>
<path fill-rule="evenodd" clip-rule="evenodd" d="M159.392 56.5683L182.891 70.1522C183.204 70.3434 183.514 70.5185 183.818 70.691C184.276 70.9517 184.727 71.2069 185.167 71.5044V158.781C184.835 158.854 184.544 159.032 184.254 159.207C184.137 159.279 184.021 159.349 183.902 159.412C183.506 159.632 183.13 159.858 182.754 160.085L156.965 175.09C155.008 176.27 153.02 177.393 151.032 178.515C149.09 179.612 147.148 180.708 145.236 181.858L132.283 189.388L132.175 189.454C131.826 189.671 131.495 189.874 131.142 190.067L128.839 191.392C128.018 191.852 127.259 192.29 126.48 192.743L112.359 200.925C111.913 201.171 111.561 201.408 111.265 201.607C110.488 202.132 110.086 202.403 109.345 201.901L102.899 198.153C99.9685 196.386 96.9979 194.694 94.0264 193.002C91.5018 191.563 88.9763 190.125 86.4738 188.64L78.2238 183.835C77.0811 183.143 75.9148 182.486 74.7475 181.828C73.5617 181.159 72.375 180.49 71.211 179.785C71.1516 179.75 71.0938 179.715 71.0374 179.681C70.7094 179.485 70.4192 179.312 70.0694 179.119L64.1501 175.694C63.9195 175.554 63.6884 175.412 63.4567 175.27C62.5424 174.708 61.6186 174.141 60.6642 173.648C60.3963 173.516 60.1846 173.388 59.9648 173.256C59.8087 173.161 59.6485 173.065 59.4611 172.962C59.2842 172.864 59.1174 172.765 58.9531 172.668C58.7366 172.539 58.5245 172.413 58.2992 172.296L53.6513 169.605C53.3882 169.452 53.1242 169.302 52.8599 169.151C52.3412 168.855 51.8205 168.558 51.2999 168.24L41.8947 162.776L41.7893 162.713C40.7806 162.111 35.2531 158.813 34.834 158.774V71.5044C35.1766 71.413 37.5121 70.0251 39.4404 68.8791C40.5509 68.2193 41.5262 67.6396 41.9085 67.4341C43.4373 66.6001 44.9549 65.7096 46.4665 64.8225C47.3069 64.3293 48.1453 63.8374 48.9829 63.3567L53.6513 60.5906C54.0088 60.3849 54.3583 60.1917 54.7086 59.9979C55.1418 59.7581 55.5765 59.5177 56.0299 59.2521L61.9356 55.8201C62.0843 55.735 62.2253 55.6501 62.365 55.566C62.598 55.4256 62.8275 55.2871 63.0838 55.1542L67.807 52.4429C68.1308 52.255 68.4491 52.0751 68.7671 51.8953C69.2277 51.6351 69.688 51.3748 70.1651 51.0906L72.4617 49.7591C72.8659 49.529 73.2671 49.2933 73.6647 49.052L76.0024 47.6792C76.3801 47.4465 76.763 47.2223 77.1506 47.0065C77.4146 46.8619 77.6295 46.7337 77.8513 46.6015C78.0086 46.5077 78.1694 46.4118 78.3536 46.3064L108.852 28.6659C108.871 28.6536 108.898 28.6369 108.93 28.6164C109.205 28.4407 109.897 28 110.001 28C110.288 28 117 31.9606 118.298 32.75L140.622 45.6955C143.912 47.675 147.237 49.5653 150.566 51.4586C151.947 52.2438 153.329 53.0298 154.71 53.8225C155.081 54.0383 155.446 54.2585 155.808 54.4776C156.219 54.7256 156.627 54.9722 157.04 55.209C157.258 55.3341 157.471 55.4558 157.682 55.5768C158.249 55.9009 158.804 56.2181 159.392 56.5683ZM114.505 155.568H136.48V139.239C136.48 139.115 136.138 139.13 135.854 139.143C135.775 139.146 135.701 139.15 135.639 139.15H106.248L108.244 136.939C108.265 136.918 108.285 136.9 108.305 136.881C108.343 136.846 108.379 136.813 108.415 136.768L109.085 136.026C109.133 135.961 109.186 135.9 109.242 135.841C109.416 135.67 109.579 135.481 109.741 135.292C109.903 135.103 110.066 134.914 110.24 134.743C110.301 134.687 110.358 134.628 110.411 134.565C110.458 134.501 110.511 134.441 110.568 134.386L111.375 133.494L111.388 133.473L111.45 133.404L111.491 133.356L113.247 131.441L113.316 131.359C113.582 131.04 113.865 130.736 114.146 130.435C114.348 130.217 114.55 130.001 114.744 129.78C114.79 129.724 114.832 129.683 114.878 129.638C114.894 129.622 114.911 129.606 114.929 129.588C115.099 129.406 115.261 129.219 115.423 129.033C115.64 128.785 115.856 128.537 116.091 128.298L116.911 127.405C117.117 127.159 117.335 126.928 117.552 126.697C117.795 126.439 118.037 126.181 118.264 125.902L120.267 123.706C120.386 123.554 120.651 123.274 120.916 122.995C121.154 122.744 121.392 122.492 121.525 122.333L122.933 120.761C123.111 120.59 123.316 120.356 123.51 120.134C123.666 119.955 123.816 119.785 123.938 119.663C124.006 119.597 124.057 119.537 124.109 119.477C124.16 119.417 124.211 119.357 124.279 119.292L126.296 117.075C126.352 117.017 126.405 116.955 126.453 116.89L127.294 115.977C127.35 115.918 127.402 115.856 127.451 115.791C127.476 115.763 127.499 115.742 127.52 115.722C127.56 115.682 127.595 115.649 127.635 115.585C127.533 115.431 127.407 115.3 127.282 115.168C127.24 115.125 127.198 115.081 127.157 115.036L123.138 110.623C122.988 110.472 122.851 110.31 122.714 110.149C122.577 109.988 122.441 109.826 122.29 109.675L122.12 109.511L119.884 107.04L119.843 106.985L113.603 100.1C113.409 99.8965 113.224 99.6846 113.038 99.4721C112.785 99.183 112.532 98.8933 112.256 98.6242L109.809 95.9266C109.663 95.7481 109.506 95.5823 109.349 95.4162C109.204 95.2632 109.058 95.1097 108.921 94.9451C108.873 94.8886 108.826 94.8391 108.781 94.7907C108.715 94.7218 108.653 94.6552 108.593 94.5744L106.911 92.7213C106.834 92.6312 106.749 92.544 106.663 92.4562C106.513 92.3029 106.361 92.1476 106.248 91.9731H136.48V75.4237H114.567C114.491 75.4237 114.471 75.3962 114.471 75.3207V68.7999C112.687 68.7999 110.913 68.7829 109.139 68.7656C107.366 68.7484 105.592 68.7313 103.808 68.7313V75.5405H83.5211V91.9386C83.5211 91.9998 83.6826 92.169 83.7766 92.2677C83.7986 92.2908 83.817 92.31 83.8287 92.323C83.8522 92.3494 83.8755 92.3722 83.8989 92.3949C83.9303 92.4252 83.9614 92.4554 83.9928 92.4947C84.2588 92.7543 84.5082 93.0289 84.7569 93.303C84.9555 93.5215 85.1535 93.7397 85.3597 93.9498C85.4048 93.995 85.4292 94.028 85.4547 94.062C85.4754 94.09 85.4969 94.1186 85.5306 94.1558C85.6538 94.2944 85.783 94.427 85.9128 94.5601C86.0208 94.6706 86.1292 94.7817 86.2346 94.897L86.7404 95.4531L86.7542 95.4668L86.9045 95.6315C87.1643 95.8924 87.4156 96.1677 87.6668 96.4427C87.8716 96.6671 88.0764 96.8913 88.2852 97.1073L88.9688 97.8623C88.9897 97.8835 89.0101 97.9022 89.0297 97.9204C89.0676 97.9556 89.1036 97.9888 89.1397 98.0339L91.7164 100.821L91.7302 100.834L92.8922 102.091C92.9534 102.156 93.0104 102.224 93.063 102.297L100.923 110.767C100.983 110.824 101.038 110.886 101.088 110.952L101.942 111.879C102.21 112.151 102.465 112.43 102.72 112.708C102.973 112.984 103.224 113.259 103.487 113.526C103.54 113.579 103.567 113.615 103.598 113.656C103.615 113.679 103.633 113.703 103.657 113.732L103.835 113.904L104.505 114.645C104.813 114.943 105.103 115.26 105.373 115.592C105.322 115.666 105.26 115.724 105.197 115.784C105.143 115.834 105.089 115.886 105.038 115.949C104.921 116.106 104.531 116.52 104.185 116.888C103.986 117.099 103.802 117.295 103.692 117.418C103.64 117.479 103.585 117.532 103.532 117.584C103.465 117.649 103.4 117.713 103.343 117.789L102.83 118.345C102.785 118.401 102.743 118.442 102.697 118.487C102.68 118.503 102.664 118.519 102.646 118.537L101.969 119.271C101.917 119.332 101.863 119.385 101.809 119.438C101.743 119.502 101.677 119.566 101.621 119.642C101.551 119.736 101.471 119.81 101.386 119.89C101.347 119.927 101.306 119.965 101.265 120.006L100.595 120.747L100.425 120.919L98.8866 122.58C98.6474 122.82 98.4252 123.071 98.2031 123.321C97.9809 123.572 97.7587 123.822 97.5195 124.062L96.8428 124.797C96.7884 124.862 96.7288 124.918 96.6685 124.976C96.6076 125.033 96.5458 125.092 96.4875 125.161L96.4464 125.216C96.2772 125.421 96.0528 125.65 95.827 125.881C95.5692 126.144 95.3094 126.409 95.1272 126.643L94.8606 126.918L94.8197 126.966L94.806 126.98L93.063 128.847C93.0148 128.914 92.9622 128.978 92.9057 129.039L92.7349 129.21L91.6959 130.323C91.6244 130.415 91.5606 130.48 91.4935 130.548C91.4515 130.59 91.4083 130.633 91.3611 130.686L90.4999 131.606L90.4588 131.661L90.4452 131.675C90.2371 131.922 90.0204 132.143 89.8019 132.366C89.7476 132.421 89.6932 132.477 89.6385 132.533L88.3604 133.919L88.3195 133.967L87.9367 134.372L87.7794 134.565L87.4241 134.928L87.4103 134.949L86.2142 136.226C86.157 136.283 86.1044 136.345 86.0569 136.411C86.0038 136.474 85.9468 136.534 85.8861 136.589L83.8287 138.82C83.8117 138.836 83.7917 138.854 83.7702 138.872C83.6635 138.965 83.5211 139.089 83.5211 139.232V155.568H103.815V161.437H114.409C114.478 161.437 114.505 161.417 114.505 161.348V155.568Z" fill="white"/>
</g>
<defs>
<clipPath id="clip0_4_5028">
<rect width="220" height="220" fill="white" transform="translate(0 0.5)"/>
</clipPath>
</defs>
</svg>
