<svg width="220" height="221" viewBox="0 0 220 221" fill="none" xmlns="http://www.w3.org/2000/svg">
<g clip-path="url(#clip0_4_5031)">
<path fill-rule="evenodd" clip-rule="evenodd" d="M110 220.5C170.5 220.5 220 171 220 110.5C220 50 170.5 0.5 110 0.5C49.5 0.5 0 50 0 110.5C0 171 49.5 220.5 110 220.5Z" fill="url(#paint0_linear_4_5031)"/>
<path fill-rule="evenodd" clip-rule="evenodd" d="M162.617 140.75L175.451 148.083C178.201 149.917 178.201 152.667 174.534 155.417C173.617 158.167 170.867 158.167 168.117 157.25L155.283 149.917L158.033 160C158.95 163.667 156.2 166.417 153.45 166.417C151.616 166.417 149.783 164.583 148.866 162.75L146.116 150.833C145.199 146.25 141.532 141.667 136.948 138.917C132.365 136.167 126.865 136.167 122.281 138.917L121.364 139.833C116.78 142.583 114.03 147.167 114.03 152.667C114.03 158.167 116.78 163.667 120.447 167.333L128.698 175.583C131.448 178.333 129.615 183.833 125.031 183.833C123.198 183.833 122.281 182.917 121.364 182L114.03 174.667V190.25C114.03 193 112.197 194.833 109.447 194.833C106.696 194.833 104.863 193 104.863 190.25V174.667L97.5292 182C95.6957 183.833 92.9457 183.833 91.1122 182C89.2786 179.25 89.2786 176.5 91.1122 174.667L98.4459 167.333C103.03 163.667 104.863 158.167 104.863 152.667C104.863 147.167 102.113 142.583 97.5292 139.833L96.6125 138.917C92.0288 136.167 86.5285 136.167 81.9449 138.917C77.3612 141.667 73.6944 145.333 72.7775 150.833L70.0274 162.75C70.0274 165.5 67.2772 167.333 64.527 166.417C61.7768 165.5 59.9435 162.75 60.8601 160L63.6103 149.917C51.0322 156.992 49.9146 157.999 48.6951 158.143C48.4925 158.167 48.2871 158.167 48.0261 158.167C42.5257 158.167 40.6922 151.75 45.2759 149L58.11 141.667L48.0261 138.917C45.2759 138 43.4424 135.25 44.359 132.5C44.359 129.75 47.1092 127.917 49.8594 128.833L60.8601 130.667C66.3605 132.5 71.8609 131.583 76.4446 128.833C81.0281 126.083 83.7783 121.5 83.7783 116V114.167C83.7783 108.667 81.0281 104.083 76.4446 101.333C71.8609 98.5834 66.3605 97.6667 60.8601 99.5C49.5114 102.742 48.9147 103.118 48.2948 103.161C48.2136 103.167 48.132 103.167 48.0261 103.167C46.1926 103.167 44.359 101.333 43.4424 99.5C42.5257 96.75 44.359 94 47.1092 93.0834L57.1933 90.3334L44.359 83C42.5257 82.0834 41.6089 78.4167 42.5257 76.5834C44.359 73.8334 47.1092 72.9167 49.8594 74.75L62.6937 82.0834L59.9435 72C59.0268 69.25 60.8601 66.5 62.6937 65.5834C65.4438 64.6667 68.194 66.5 69.1107 69.25L73.6944 81.1667C74.6111 85.75 78.2779 90.3334 82.8616 93.0834C87.4453 95.8334 92.9457 95.8334 97.5292 93.0834L98.4459 92.1667C103.03 89.4167 105.78 84.8334 105.78 79.3334C105.78 73.8334 103.03 68.3334 99.3627 64.6667L94.779 57.3334C92.9457 54.5834 92.9457 51.8334 94.779 50C96.6125 48.1667 99.3627 48.1667 101.196 50L108.53 57.3334V41.75C108.53 39 110.363 37.1667 113.114 37.1667C115.864 37.1667 117.697 39 117.697 41.75V56.4167L125.031 49.0834C126.865 47.25 129.615 47.25 131.448 49.0834C133.282 51.8334 133.282 54.5834 131.448 56.4167L123.198 64.6667C118.614 68.3334 116.78 73.8334 116.78 79.3334C116.78 84.8334 119.531 89.4167 124.114 92.1667L125.031 93.0834C129.615 95.8334 135.115 95.8334 139.699 93.0834C144.282 90.3334 147.949 86.6667 148.866 81.1667L151.616 69.25C151.616 66.5 154.366 64.6667 157.116 65.5834C159.867 66.5 161.7 69.25 160.783 72L158.033 82.0834L170.867 74.75C172.701 73.8334 176.368 73.8334 177.284 76.5834C178.201 78.4167 178.201 82.0834 175.451 83L163.534 90.3334L173.617 93.0834C176.368 94 178.201 96.75 177.284 99.5C176.368 101.333 174.534 103.167 172.701 103.167C172.595 103.167 172.513 103.167 172.432 103.161C171.812 103.118 171.215 102.742 159.867 99.5C154.366 97.6667 148.866 98.5834 144.282 101.333C139.699 104.083 136.948 108.667 136.948 114.167V116C136.948 121.5 139.699 126.083 144.282 128.833C148.866 131.583 154.366 132.5 159.867 130.667L170.867 127.917C172.701 127 175.451 128.833 176.368 131.583C177.284 134.333 175.451 137.083 172.701 138L162.617 140.75ZM117.697 129.75C123.198 127 125.948 121.5 125.948 116C125.948 109.583 123.198 104.083 117.697 102.25C112.197 99.5 106.696 99.5 101.196 102.25C95.6957 105 92.9457 110.5 92.9457 116C92.9457 121.5 96.6125 127 101.196 129.75C106.696 132.5 112.197 132.5 117.697 129.75Z" fill="white"/>
</g>
<defs>
<linearGradient id="paint0_linear_4_5031" x1="214.966" y1="-21.0136" x2="-23.0157" y2="4.32295" gradientUnits="userSpaceOnUse">
<stop stop-color="#1ADBC5"/>
<stop offset="1" stop-color="#04D3DD"/>
</linearGradient>
<clipPath id="clip0_4_5031">
<rect width="220" height="220" fill="white" transform="translate(0 0.5)"/>
</clipPath>
</defs>
</svg>
