<svg width="220" height="221" viewBox="0 0 220 221" fill="none" xmlns="http://www.w3.org/2000/svg">
<g clip-path="url(#clip0_4_5039)">
<path d="M110 220.5C170.751 220.5 220 171.251 220 110.5C220 49.7487 170.751 0.5 110 0.5C49.2487 0.5 0 49.7487 0 110.5C0 171.251 49.2487 220.5 110 220.5Z" fill="#FDA616"/>
<path fill-rule="evenodd" clip-rule="evenodd" d="M82.7896 152.667C83.5891 155.169 93.4843 165.482 103.783 165.482C119.049 165.482 127.967 156.214 127.967 142.808C127.967 130.392 121.789 123.297 106.181 116.394C87.3135 108.708 75.6484 97.4674 75.6484 78.7399C75.6484 58.0462 90.5732 42.6667 113.042 42.6667C124.878 42.6667 136.871 50.1604 140.848 55.1654L131.302 65.1687C130.48 64.6535 129.623 63.9687 128.676 63.2123C125.275 60.4955 120.719 56.8567 112.53 56.8567C96.7508 56.8567 90.744 67.6987 90.744 76.7667C90.744 89.1899 97.7826 95.3017 113.725 102.397C133.283 111.073 143.233 121.915 143.233 141.426C143.233 161.934 129.949 180.167 102.676 180.167C91.523 180.167 79.612 172.673 72.4503 163.502L82.7896 152.667ZM95.5138 81.8337C93.1288 76.8354 94.7211 71.8374 94.7211 71.8374C155.158 61.8342 144.026 120.994 144.026 120.994C139.256 111.836 134.486 110.165 134.486 110.165C135.279 75.9967 95.5138 81.8337 95.5138 81.8337ZM122.186 147.909C122.186 147.909 124.946 141.839 122.555 136.002C122.555 136.002 78.8261 145.166 80.1245 105.525C80.1245 105.525 75.587 103.249 71.9377 93.5279C71.9377 93.5279 71.9329 93.5468 71.9227 93.5839C71.3422 95.6933 54.5594 156.679 122.186 147.909Z" fill="white"/>
</g>
<defs>
<clipPath id="clip0_4_5039">
<rect width="220" height="220" fill="white" transform="translate(0 0.5)"/>
</clipPath>
</defs>
</svg>
