<svg width="220" height="221" viewBox="0 0 220 221" fill="none" xmlns="http://www.w3.org/2000/svg">
<g clip-path="url(#clip0_4_5042)">
<path fill-rule="evenodd" clip-rule="evenodd" d="M110 220.5C49.5 220.5 0 171.001 0 109.952C0.55 49.4535 49.5 -0.0454497 110.55 0.504539C171.05 1.05453 220 50.0035 220 111.602C219.45 171.551 170.5 220.5 110 220.5Z" fill="white"/>
<path fill-rule="evenodd" clip-rule="evenodd" d="M0 110.5C0 49.7349 49.2591 0.5 110 0.5C170.765 0.5 220 49.7349 220 110.5C220 171.241 170.741 220.5 110 220.5C49.2591 220.5 0 171.241 0 110.5ZM108.182 168.621C122.039 168.622 133.45 165.202 142.415 158.36L142.421 158.357C151.415 151.529 156.572 142.469 157.892 131.176H134.256C133.061 136.234 130.263 140.58 125.863 144.213C121.429 147.866 115.625 149.68 108.397 149.68C101.321 149.68 96.1653 148.173 92.9269 145.222C89.6951 142.241 88.0792 138.818 88.0792 134.955C88.0792 129.31 90.31 125.474 94.82 123.48C99.2999 121.471 105.518 119.65 113.473 118.016C119.74 116.668 125.905 114.883 131.923 112.676C138.032 110.449 143.121 107.287 147.189 103.191C151.23 99.1168 153.251 93.5802 153.251 86.5805C153.251 76.9434 149.568 68.8529 142.214 62.4047C134.852 55.944 124.539 52.7137 111.273 52.7137C99.0418 52.7137 89.1462 55.6837 81.5518 61.6237C73.9574 67.5637 69.5244 75.9523 68.178 86.8137H90.7181C91.4694 82.0496 93.6254 78.3426 97.2488 75.6696C100.851 72.9937 105.671 71.6557 111.709 71.6557C117.621 71.6557 122.184 72.8855 125.42 75.3385C128.656 77.7915 130.26 80.932 130.26 84.7897C130.26 88.6771 128.035 91.7109 123.525 93.9395C119.043 96.1681 113.108 98.1888 105.747 99.9488C98.3899 101.598 91.575 103.499 85.3028 105.65C79.0475 107.797 74.0029 110.951 70.169 115.11C66.3351 119.27 64.4182 125.368 64.4182 133.404C64.2686 143.513 68.138 151.91 76.0265 158.594C83.915 165.279 94.6334 168.621 108.182 168.621Z" fill="#D81D3C"/>
</g>
<defs>
<clipPath id="clip0_4_5042">
<rect width="220" height="220" fill="white" transform="translate(0 0.5)"/>
</clipPath>
</defs>
</svg>
