<svg width="220" height="221" viewBox="0 0 220 221" fill="none" xmlns="http://www.w3.org/2000/svg">
<g clip-path="url(#clip0_4_5045)">
<path d="M110 220.5C170.751 220.5 220 171.251 220 110.5C220 49.7487 170.751 0.5 110 0.5C49.2487 0.5 0 49.7487 0 110.5C0 171.251 49.2487 220.5 110 220.5Z" fill="#0B1C26"/>
<path fill-rule="evenodd" clip-rule="evenodd" d="M110.917 187.5C68.947 187.375 34.834 153.311 34.834 111.417C34.834 69.5224 68.947 35.4578 110.917 35.3333C152.888 35.4578 187.001 69.5224 187.001 111.417C187.001 153.311 152.888 187.417 110.917 187.5ZM178.389 123.521C176.719 127.373 172.273 129.181 168.388 127.588C171.079 130.396 172.759 134.166 172.759 138.309C172.759 139.526 172.593 140.66 172.344 141.795C175.194 136.012 177.234 129.863 178.389 123.528V123.521ZM175.159 120.471C175.155 122.579 173.443 124.286 171.334 124.282H171.327C169.219 124.276 167.514 122.562 167.52 120.453C167.526 118.345 169.24 116.64 171.348 116.646C173.457 116.65 175.163 118.362 175.159 120.471ZM173.05 82.5948C176.884 93.3249 174.707 105.286 167.337 113.976C168.53 113.251 169.896 112.859 171.293 112.842C175.284 112.842 178.555 115.899 178.894 119.841C179.233 117.074 179.441 114.308 179.441 111.458C179.488 101.481 177.304 91.6196 173.05 82.5948ZM142.679 66.8802C157.271 66.8725 169.114 78.6817 169.149 93.2742C169.099 107.86 157.265 119.661 142.679 119.668C128.086 119.676 116.243 107.867 116.209 93.2742C116.243 78.6817 128.086 66.8725 142.679 66.8802ZM141.627 138.322C141.627 132.582 144.809 127.304 149.907 124.627C143.449 126.128 136.686 125.599 130.54 123.113C135.766 127.119 139.636 132.634 141.627 138.91C141.656 138.735 141.645 138.602 141.636 138.482C141.632 138.427 141.627 138.375 141.627 138.322ZM142.215 156.085C142.823 153.617 143.134 151.086 143.142 148.545C143.135 147.141 143.024 145.744 142.803 144.361C144.239 147.705 146.795 150.444 150.031 152.107C149.645 152.022 149.251 151.981 148.855 151.983C146.04 151.983 143.474 153.574 142.215 156.085ZM157.169 148.082C162.575 148.09 166.97 143.728 167.004 138.322C167.004 132.921 162.592 128.563 157.169 128.563C151.746 128.563 147.382 132.962 147.382 138.315C147.382 143.724 151.795 148.082 157.176 148.082H157.169ZM164.604 116.826C163.982 117.96 163.65 119.226 163.636 120.519L163.643 120.512C163.638 122.127 164.153 123.7 165.109 125.001C162.709 123.569 159.964 122.816 157.169 122.822C156.514 122.822 155.894 122.892 155.272 122.963L155.108 122.981C158.601 121.485 161.813 119.404 164.604 116.826ZM110.91 116.369C115.06 116.369 119.169 117.164 123.015 118.714C116.557 113.767 112.228 106.544 110.91 98.5171C109.587 106.541 105.263 113.761 98.8131 118.714C102.665 117.179 106.771 116.381 110.917 116.362L110.91 116.369ZM102.638 71.2861C105.113 72.8506 107.982 73.6782 110.91 73.6723L110.917 73.6656C113.848 73.6727 116.719 72.845 119.197 71.2793C114.858 75.9006 111.978 81.6987 110.917 87.9483C109.882 81.6924 106.999 75.8896 102.638 71.2861ZM126.625 58.0061C126.625 61.5129 125.442 64.9228 123.264 67.6894C126.53 65.2179 130.239 63.396 134.192 62.3222C134.098 62.3222 134.019 62.3343 133.946 62.3455C133.884 62.3548 133.827 62.3636 133.77 62.3636C130.533 62.3636 127.752 60.3578 126.625 57.5012C126.602 57.6122 126.61 57.7262 126.617 57.8391C126.621 57.8952 126.625 57.9511 126.625 58.0061ZM141.413 54.6585C141.413 52.2652 140.285 50.1765 138.556 48.7517L138.563 48.7447C150.105 53.8927 160.022 62.093 167.247 72.462C159.768 63.6838 148.175 59.5627 136.834 61.6512C139.614 60.4339 141.413 57.6881 141.413 54.6585ZM133.729 50.889C132.364 50.8851 131.102 51.6095 130.417 52.7888C129.732 53.9684 129.728 55.4237 130.406 56.6069C131.085 57.79 132.344 58.5211 133.708 58.525C135.818 58.5307 137.534 56.8244 137.54 54.7138C137.545 52.6033 135.839 50.8877 133.729 50.882V50.889ZM126.086 54.0705C124.741 48.8474 120.803 44.6839 115.662 43.0524C122.078 43.5158 128.398 44.8683 134.441 47.0709C134.195 47.023 133.945 46.9953 133.694 46.9878C129.696 46.9951 126.379 50.083 126.086 54.0705ZM100.999 58.0061C101.141 63.38 105.538 67.6627 110.914 67.6627C116.29 67.6627 120.687 63.38 120.829 58.0061C120.63 52.6761 116.251 48.458 110.917 48.458C105.584 48.458 101.205 52.6761 101.006 58.0061H100.999ZM88.1061 46.9878C87.8531 46.995 87.6008 47.0226 87.3522 47.0709C93.266 44.8921 99.5739 43.5503 106.131 43.0524C100.993 44.6859 97.0573 48.849 95.7144 54.0705C95.4378 50.0751 92.1112 46.9783 88.1061 46.9878ZM95.2027 58.0061C95.1954 57.8367 95.2093 57.6672 95.2442 57.5012C94.0853 60.4311 91.2568 62.3577 88.1061 62.3636C88.0126 62.3636 87.9332 62.3515 87.8604 62.3403C87.7984 62.331 87.7414 62.3222 87.6842 62.3222C91.6268 63.4011 95.341 65.2271 98.6125 67.6825C96.405 64.9407 95.2018 61.5261 95.2027 58.0061ZM86.1932 57.9979C85.0114 57.3168 84.2825 56.0571 84.2812 54.6931C84.2794 52.5844 85.9871 50.8736 88.0958 50.8715C90.2043 50.8697 91.9154 52.5775 91.9172 54.6862C91.9185 56.0502 91.1919 57.3113 90.0113 57.9944C88.8306 58.6775 87.3751 58.6788 86.1932 57.9979ZM54.581 72.5034C62.043 63.7021 73.6506 59.576 84.9936 61.6928C82.5525 60.6282 80.8457 58.3647 80.4935 55.7251C80.1413 53.0853 81.1949 50.4535 83.2714 48.7863C71.7106 53.9057 61.7838 62.1119 54.581 72.5034ZM79.1559 119.675C64.5635 119.683 52.7202 107.874 52.6859 93.2811C52.6859 78.7422 64.5756 66.9286 79.1559 66.8872C93.7485 66.8795 105.592 78.6887 105.626 93.2811C105.592 107.874 93.7485 119.683 79.1559 119.675ZM80.2073 138.322C80.2073 138.406 80.1969 138.501 80.1866 138.596C80.1762 138.691 80.1659 138.786 80.1659 138.869C82.1685 132.598 86.0364 127.087 91.2532 123.071C85.1067 125.555 78.3436 126.081 71.8866 124.579C76.9942 127.263 80.1973 132.553 80.2073 138.322ZM56.6769 124.994C57.666 123.714 58.1985 122.137 58.1916 120.512C58.1916 119.219 57.8458 117.939 57.1818 116.832C59.9516 119.438 63.1685 121.524 66.6782 122.988C66.0005 122.871 65.3088 122.815 64.6172 122.822C61.8227 122.815 59.0785 123.565 56.6769 124.994ZM54.8302 138.322C54.8302 143.728 59.2118 148.11 64.6172 148.11C70.0224 148.11 74.4043 143.728 74.4043 138.322C74.4043 132.914 69.9982 128.556 64.6172 128.556C62.0223 128.547 59.5306 129.572 57.6938 131.405C55.857 133.238 54.8263 135.728 54.8302 138.322ZM72.1482 152.054C72.0186 152.074 71.8904 152.093 71.7621 152.107C75.006 150.434 77.5444 147.674 78.9486 144.312C78.7618 145.71 78.665 147.127 78.651 148.545C78.6591 151.086 78.9704 153.617 79.578 156.085C78.319 153.567 75.7531 151.983 72.938 151.976C72.6628 151.976 72.4028 152.015 72.1482 152.054ZM42.8988 119.807C43.2424 115.856 46.5422 112.821 50.5072 112.807C51.8974 112.814 53.2669 113.208 54.4497 113.941C47.0795 105.251 44.9021 93.2905 48.7365 82.5603C43.3053 94.1707 41.2809 107.084 42.8988 119.8V119.807ZM47.1973 118.604C47.8815 117.424 49.1432 116.698 50.5072 116.701C52.6159 116.705 54.3221 118.417 54.3183 120.526C54.3144 122.634 52.6019 124.341 50.4934 124.337C49.1292 124.334 47.8701 123.604 47.1903 122.422C46.5105 121.239 46.5131 119.784 47.1973 118.604ZM49.0823 138.322C49.0823 134.311 50.6456 130.465 53.4467 127.602C49.5617 129.191 45.1186 127.384 43.4452 123.535C44.6211 129.981 46.6476 136.102 49.4974 141.795C49.2293 140.656 49.0902 139.492 49.0823 138.322ZM54.0761 149.673C58.0115 153.33 63.5574 154.692 68.7395 153.276V153.283C66.6922 154.667 65.4609 156.97 65.4609 159.439C65.4741 161.155 66.083 162.812 67.1832 164.129C62.1549 159.951 57.742 155.088 54.0761 149.673ZM69.3274 159.432C69.3274 161.426 70.9439 163.043 72.938 163.043C74.9319 163.043 76.5484 161.426 76.5484 159.432C76.5484 157.438 74.9319 155.822 72.938 155.822C70.9439 155.822 69.3274 157.438 69.3274 159.432ZM80.3802 158.768C83.7292 168.654 91.645 176.315 101.635 179.338C90.0558 177.732 79.0795 173.192 69.7493 166.148C72.0607 167.267 74.7847 167.118 76.9611 165.756C79.1374 164.393 80.4603 162.007 80.4633 159.439C80.4633 159.304 80.4402 159.183 80.4185 159.068C80.3989 158.965 80.3802 158.866 80.3802 158.768ZM137.346 148.545C137.346 133.951 125.515 122.12 110.921 122.12C96.3266 122.12 84.4957 133.951 84.4957 148.545C84.5261 163.119 96.3432 174.921 110.917 174.932C125.488 174.906 137.297 163.109 137.339 148.538L137.346 148.545ZM152.114 166.151L152.134 166.141H152.127L152.114 166.151ZM152.114 166.151C149.805 167.267 147.083 167.121 144.906 165.761C142.728 164.399 141.41 162.008 141.42 159.439C141.427 159.213 141.454 158.989 141.503 158.768C138.153 168.656 130.234 176.317 120.241 179.338C131.811 177.714 142.779 173.176 152.114 166.151ZM152.514 159.432C152.514 157.439 150.899 155.823 148.906 155.822C146.913 155.82 145.296 157.434 145.293 159.428C145.291 161.421 146.904 163.039 148.897 163.043C150.882 163.028 152.488 161.424 152.507 159.439L152.514 159.432ZM167.746 149.691C167.75 149.687 167.754 149.684 167.759 149.68V149.673C167.754 149.679 167.75 149.685 167.746 149.691ZM167.746 149.691C163.811 153.339 158.27 154.696 153.095 153.276C155.142 154.66 156.374 156.97 156.374 159.432C156.374 161.237 155.703 162.828 154.651 164.129C159.676 159.958 164.084 155.097 167.746 149.691Z" fill="white"/>
</g>
<defs>
<clipPath id="clip0_4_5045">
<rect width="220" height="220" fill="white" transform="translate(0 0.5)"/>
</clipPath>
</defs>
</svg>
