<svg width="220" height="221" viewBox="0 0 220 221" fill="none" xmlns="http://www.w3.org/2000/svg">
<g clip-path="url(#clip0_4_5048)">
<path d="M110 220.5C170.751 220.5 220 171.251 220 110.5C220 49.7487 170.751 0.5 110 0.5C49.2487 0.5 0 49.7487 0 110.5C0 171.251 49.2487 220.5 110 220.5Z" fill="#00B098"/>
<path fill-rule="evenodd" clip-rule="evenodd" d="M42.166 75.6667V78.0993H100.033V75.6667H42.166ZM42.166 82.7391V85.1718H100.033V82.7391H42.166ZM66.5723 150.806V90.0373H68.896V150.806H66.5723ZM73.3098 90.0373V150.806H75.6267V90.0373H73.3098ZM178.03 145.831L151.919 118.409L153.555 116.694L179.666 144.109L178.03 145.831ZM140.595 103.089L114.484 75.6667L112.848 77.3887L138.959 104.804L140.595 103.089ZM173.265 150.833L147.154 123.411L148.79 121.689L174.902 149.111L173.265 150.833ZM135.838 108.084L109.727 80.6688L108.084 82.3906L134.195 109.806L135.838 108.084ZM146.996 113.25L148.639 111.528L178.03 80.6688L179.666 82.3906L150.275 113.25L148.639 114.972L145.518 118.252L143.875 119.974L114.491 150.833L112.855 149.111L142.245 118.252L143.882 116.53L146.996 113.25ZM173.272 75.6667L143.875 106.526L142.245 108.248L139.117 111.528L137.481 113.25L108.09 144.109L109.734 145.831L139.117 114.972L140.76 113.25L143.882 109.97L145.518 108.248L174.909 77.3887L173.272 75.6667Z" fill="white"/>
</g>
<defs>
<clipPath id="clip0_4_5048">
<rect width="220" height="220" fill="white" transform="translate(0 0.5)"/>
</clipPath>
</defs>
</svg>
