<svg width="220" height="221" viewBox="0 0 220 221" fill="none" xmlns="http://www.w3.org/2000/svg">
<g clip-path="url(#clip0_4_5051)">
<path d="M110 220.5C170.751 220.5 220 171.251 220 110.5C220 49.7487 170.751 0.5 110 0.5C49.2487 0.5 0 49.7487 0 110.5C0 171.251 49.2487 220.5 110 220.5Z" fill="#EDF0F4"/>
<path d="M59.5368 110.067V96.5469H103.177V82.663H59.5368V69.2153H160.39V82.7358H116.75V96.6197H160.39V110.14H116.75L160.609 175.125C180.021 160.078 192.5 136.599 192.5 110.213C192.5 64.7813 155.574 28 110.036 28C64.4261 28 27.5 64.7813 27.5 110.213C27.5 136.599 39.979 160.078 59.3908 175.125L103.25 110.14C103.25 110.067 59.5368 110.067 59.5368 110.067Z" fill="#E3242D"/>
<path d="M70.125 183.032C81.7793 189.408 95.1089 193 109.313 193C123.516 193 136.846 189.408 148.5 183.032L109.313 124.25L70.125 183.032Z" fill="#E3242D"/>
</g>
<defs>
<clipPath id="clip0_4_5051">
<rect width="220" height="220" fill="white" transform="translate(0 0.5)"/>
</clipPath>
</defs>
</svg>
