<svg width="220" height="221" viewBox="0 0 220 221" fill="none" xmlns="http://www.w3.org/2000/svg">
<g clip-path="url(#clip0_4_5055)">
<path d="M110 220.5C170.751 220.5 220 171.251 220 110.5C220 49.7487 170.751 0.5 110 0.5C49.2487 0.5 0 49.7487 0 110.5C0 171.251 49.2487 220.5 110 220.5Z" fill="#FF3B81"/>
<path fill-rule="evenodd" clip-rule="evenodd" d="M58.4715 153.892V154.867H48.3783V136.42L48.0639 137.444L38.4216 134.498L43.8681 116.722L43.1984 117.718L34.834 112.094L45.2895 96.6428L44.2918 97.4451L37.9365 89.6292L52.9774 77.4835L51.0639 78.2237L47.442 68.8308L65.4078 61.9556L63.3029 62.094L62.6059 52.0647L81.412 50.7506L79.7105 50.3632L81.9792 40.5624L99.9518 44.6986L98.8173 44.0483L103.854 35.3334L119.523 44.3526L118.908 43.7025L126.289 36.8413L138.494 49.886L138.234 49.3604L147.302 44.9476L155.133 60.9527L155.065 60.5032L165.022 58.9262L167.96 77.4144L168.165 76.1003L178.136 77.6704L175.156 96.4283L175.887 94.9204L184.955 99.3332L176.564 116.494L177.794 115.179L185.167 122.048L172.122 135.992L173.701 135.086L178.744 143.801L162.35 153.235L163.997 152.854L166.272 162.655L148.149 166.826L149.55 166.923L148.846 176.959L130.71 175.693L131.633 176.046L128.011 185.439L110.653 178.799L111.753 179.684L105.405 187.5L91.0748 175.928L91.7856 176.973L83.4212 182.603L73.1706 167.455L73.4783 168.452L63.8291 171.398L58.4715 153.892ZM58.4715 141.94L64.7721 140.017L69.6651 155.995L75.1184 152.329L84.4256 166.093L88.5875 160.975L101.489 171.391L103.799 165.394L119.352 171.343L119.803 164.848L136.45 166.01L134.947 159.543L151.266 155.787L147.883 149.95L162.446 141.566L157.457 136.932L168.958 124.634L162.821 121.647L170.222 106.527L163.511 105.461L166.149 88.8614L159.726 89.8714L157.095 73.2713L151.314 76.0794L143.967 61.0703L139.252 65.4486L127.895 53.296L124.642 58.9122L110.257 50.6331L108.767 57.0518L92.5851 53.3237L93.0566 60.0258L76.444 61.181L78.8972 67.565L63.2483 73.5549L67.4646 78.7355L54.3304 89.3388L59.8724 93.0669L50.4148 107.059L56.7905 109.01L51.8497 125.132H58.4783L58.4715 141.94ZM105.357 117.254C107.127 118.603 108.016 120.547 108.016 123.092C108.099 125.255 107.099 127.314 105.357 128.57C103.587 129.864 101.12 130.507 97.9632 130.507C89.469 130.507 85.2184 126.896 85.2184 119.682H71.8928C71.8928 123.901 72.9589 127.615 75.0841 130.818C77.2368 134.02 80.3529 136.552 84.4189 138.413C88.6927 140.281 93.3083 141.214 97.9632 141.152C105.104 141.152 110.783 139.547 115.006 136.344C119.223 133.107 121.334 128.667 121.334 123.002C121.334 117.918 119.612 113.665 116.154 110.248C112.703 106.838 107.202 103.974 99.6443 101.671C95.5441 100.412 92.428 99.0635 90.3095 97.6319C88.2117 96.1931 87.1661 94.4087 87.1661 92.2851C87.1131 90.1192 88.1242 88.0676 89.8653 86.8071C91.6626 85.3962 94.1911 84.6977 97.437 84.6977C100.799 84.6977 103.41 85.5346 105.268 87.2085C107.127 88.8546 108.056 91.1785 108.056 94.1735H121.334C121.392 90.4437 120.345 86.782 118.327 83.66C116.346 80.5753 113.557 78.196 109.956 76.5221C106.362 74.8137 102.262 73.963 97.6557 73.963C93.0839 73.963 88.9496 74.7376 85.2594 76.2939C81.6034 77.8502 78.788 80.022 76.8061 82.8094C74.8586 85.5621 73.8882 88.7092 73.8882 92.2437C73.8882 99.0428 77.551 104.438 84.8631 108.449C87.5487 109.923 91.191 111.424 95.7969 112.945C100.403 114.439 103.581 115.878 105.357 117.254ZM148.539 82.9892L135.74 130.382L125.195 129.635L133.17 80.7758L148.539 82.9892ZM134.045 152.066L137.373 135.321L123.241 131.862L120.022 147.923L134.045 152.066Z" fill="white"/>
</g>
<defs>
<clipPath id="clip0_4_5055">
<rect width="220" height="220" fill="white" transform="translate(0 0.5)"/>
</clipPath>
</defs>
</svg>
