<svg width="220" height="221" viewBox="0 0 220 221" fill="none" xmlns="http://www.w3.org/2000/svg">
<g clip-path="url(#clip0_4_5061)">
<path d="M110 220.5C170.751 220.5 220 171.251 220 110.5C220 49.7487 170.751 0.5 110 0.5C49.2487 0.5 0 49.7487 0 110.5C0 171.251 49.2487 220.5 110 220.5Z" fill="#01AEF0"/>
<path d="M143.934 131.285C143.844 145.543 135.608 157.685 122.47 162.669C119.39 163.838 116.187 164.697 112.997 165.495C111.092 165.976 110.054 166.918 109.903 169.001C109.71 171.627 109.442 174.246 109.078 176.838C108.638 179.905 107.586 180.606 104.767 179.932C99.9137 178.777 99.3912 177.993 100.037 172.899C100.092 172.466 100.154 172.033 100.202 171.593C100.684 167.42 100.092 166.821 96.0979 167.021C94.3037 167.11 93.5544 167.997 93.3824 169.757C93.1487 172.287 92.9012 174.824 92.4887 177.32C92.0762 179.877 91.0037 180.51 88.5424 179.973C83.2901 178.839 82.9051 178.255 83.5926 172.7C84.4589 165.804 84.4381 165.88 78.0719 163.961C75.2533 163.109 72.5171 161.926 69.7601 160.833C68.0826 160.173 67.5328 158.922 67.9864 157.059C68.5639 154.687 68.9626 152.26 69.4576 149.861C70.3101 145.77 72.2901 144.533 76.0714 146.018C82.7676 148.651 89.6424 150.273 96.7992 150.445C103.255 150.603 109.642 150.177 115.533 147.008C119.425 144.911 122.285 141.838 123.722 137.431C125.853 130.886 123.942 125.592 117.809 122.959C112.756 120.793 107.332 119.59 102.237 117.514C97.7137 115.671 93.0112 113.829 89.1062 110.934C80.3269 104.444 78.7939 94.8468 80.7189 84.5963C82.9051 73.0393 89.9794 65.5456 100.477 61.5649C103.275 60.5131 104.54 59.0418 104.588 55.8999C104.63 52.4968 105.173 49.0936 105.585 45.7043C105.902 43.0986 106.919 42.3699 109.353 42.7686C114.523 43.6143 115.142 44.4324 114.633 49.8018C114.433 51.8986 114.262 53.9956 114.014 56.0786C113.808 57.8318 114.365 58.6361 116.2 58.6911C120.387 58.8149 120.566 58.7393 121.061 54.4081C121.377 51.6236 121.611 48.8324 121.989 46.0549C122.402 42.9749 123.398 42.2736 126.238 42.8511C131.016 43.8343 131.545 44.5631 131.078 49.5406C130.871 51.7199 130.768 53.9199 130.39 56.0718C129.957 58.5468 130.713 59.6949 133.175 60.2656C137.856 61.3518 142.49 62.7268 147.089 64.1568C150.547 65.2293 150.685 65.6211 150.018 69.2168C149.626 71.3688 149.234 73.5276 148.726 75.6518C147.777 79.6531 145.783 80.8426 141.974 79.5638C135.457 77.3638 128.912 75.3768 122.003 75.0813C115.953 74.8268 109.985 74.9163 104.733 78.7181C97.3355 84.0668 97.2942 94.9431 105.159 99.5218C110.164 102.437 115.946 103.922 121.37 106.067C124.677 107.373 128.073 108.501 131.25 110.082C139.761 114.331 144.03 121.433 143.934 131.291" fill="white"/>
</g>
<defs>
<clipPath id="clip0_4_5061">
<rect width="220" height="220" fill="white" transform="translate(0 0.5)"/>
</clipPath>
</defs>
</svg>
