<svg width="220" height="221" viewBox="0 0 220 221" fill="none" xmlns="http://www.w3.org/2000/svg">
<g clip-path="url(#clip0_4_5064)">
<path d="M110 220.5C49.2316 220.5 0 171.268 0 110.5C0 49.7316 49.2316 0.5 110 0.5C170.768 0.5 220 49.7316 220 110.5C220 171.268 170.768 220.5 110 220.5Z" fill="#2468E4"/>
<path fill-rule="evenodd" clip-rule="evenodd" d="M137.386 50H88.8027C73.2194 50 62.334 60.9287 62.334 76.297V89.5025H88.8027V76.297H159.386C159.501 60.8148 148.615 50 137.386 50ZM159.501 124.565H88.8027C73.2194 124.565 62.334 112.726 62.334 98.2682H137.386C148.615 98.1543 159.501 109.994 159.501 124.565ZM132.917 146.536V133.331H159.501V146.536C159.501 161.905 148.615 172.833 137.386 172.833H88.8027C73.2194 172.833 62.334 162.018 62.334 146.536H132.917Z" fill="white"/>
</g>
<defs>
<clipPath id="clip0_4_5064">
<rect width="220" height="220" fill="white" transform="translate(0 0.5)"/>
</clipPath>
</defs>
</svg>
