<svg width="220" height="221" viewBox="0 0 220 221" fill="none" xmlns="http://www.w3.org/2000/svg">
<g clip-path="url(#clip0_4_5067)">
<path d="M110 220.5C170.751 220.5 220 171.251 220 110.5C220 49.7487 170.751 0.5 110 0.5C49.2487 0.5 0 49.7487 0 110.5C0 171.251 49.2487 220.5 110 220.5Z" fill="#5B6DEE"/>
<path fill-rule="evenodd" clip-rule="evenodd" d="M79.9975 105.703C83.7727 105.029 87.602 104.7 91.4375 104.719V104.726C99.172 104.726 104.868 105.468 110.564 106.209C116.26 106.951 121.956 107.692 129.69 107.692C150.638 107.692 165 99.1905 165 81.5926C165 64.0017 153.037 55.5 135.575 55.5C107.057 55.5 83.105 77.1368 79.9975 105.703ZM55 141.241C55 123.65 69.3618 115.141 90.31 115.141C98.0401 115.141 103.736 115.884 109.432 116.627C115.129 117.371 120.827 118.114 128.563 118.114C132.398 118.134 136.227 117.804 140.002 117.13C136.895 145.703 112.943 167.333 84.425 167.333C66.9625 167.333 55 158.832 55 141.241Z" fill="white"/>
</g>
<defs>
<clipPath id="clip0_4_5067">
<rect width="220" height="220" fill="white" transform="translate(0 0.5)"/>
</clipPath>
</defs>
</svg>
