<svg width="220" height="221" viewBox="0 0 220 221" fill="none" xmlns="http://www.w3.org/2000/svg">
<g clip-path="url(#clip0_4_5070)">
<path d="M110 220.5C170.751 220.5 220 171.251 220 110.5C220 49.7487 170.751 0.5 110 0.5C49.2487 0.5 0 49.7487 0 110.5C0 171.251 49.2487 220.5 110 220.5Z" fill="white"/>
<path fill-rule="evenodd" clip-rule="evenodd" d="M0 110.5C0 49.7487 49.2487 0.5 110 0.5C170.751 0.5 220 49.7487 220 110.5C220 171.251 170.751 220.5 110 220.5C49.2487 220.5 0 171.251 0 110.5ZM81.4484 149.549L82.4907 148.507C86.5854 144.412 88.5584 138.717 87.9628 132.984L87.7395 130.937C87.5904 129.596 87.2927 128.294 86.8833 127.028L85.5059 122.933L72.7749 92.9671C71.9187 90.9569 71.0998 88.9096 70.4297 86.8249L69.8342 85.0381C68.1591 79.8637 67.8984 74.3173 69.0897 69.0313L70.1692 64.1548C70.2808 63.7082 70.0947 63.2986 69.7226 63.0753C69.3502 62.852 68.9036 62.8893 68.5685 63.1498L65.8139 65.3089C63.4315 67.2073 61.1235 69.2546 58.9644 71.4137L57.9222 72.456C53.8274 76.5507 51.8546 82.2089 52.4872 87.9788L52.7107 90.0263C52.8596 91.3664 53.1573 92.6692 53.5669 93.9349L54.9441 98.0297L67.6379 127.996C68.4941 130.006 69.313 132.053 69.9831 134.138L70.5788 135.925C72.2539 141.099 72.5144 146.645 71.3233 151.932L70.2436 156.808C70.132 157.255 70.3181 157.664 70.6904 157.887C70.8393 157.999 71.0254 158.036 71.2114 158.036C71.4349 158.036 71.6582 157.962 71.8443 157.813L74.5991 155.654C76.9813 153.755 79.2893 151.708 81.4484 149.549ZM125.448 158.334L124.108 159.674C121.391 162.392 118.487 164.997 115.472 167.343L111.898 170.172C111.712 170.321 111.452 170.395 111.229 170.395C111.042 170.395 110.819 170.321 110.633 170.209C110.223 169.948 110.037 169.502 110.149 169.055L111.563 162.764C113.052 156.063 112.717 149.065 110.596 142.551L109.851 140.28C108.995 137.637 107.99 135.031 106.873 132.5L90.829 94.7167L89.1167 89.5795C88.5957 88.016 88.2233 86.3409 88.0372 84.703L87.7395 82.0973C86.9205 74.8756 89.4146 67.803 94.5144 62.6286L95.8546 61.2886C98.5719 58.571 101.476 55.9653 104.491 53.6201L108.064 50.7911C108.437 50.4932 108.921 50.456 109.33 50.7167C109.739 50.9772 109.926 51.4238 109.814 51.8706L108.399 58.1616C106.91 64.8621 107.245 71.8605 109.367 78.3749L110.112 80.6454C110.968 83.2513 111.973 85.8943 113.09 88.4256L129.134 126.246L130.846 131.383C131.367 132.947 131.739 134.622 131.926 136.26L132.223 138.866C133.042 146.087 130.548 153.197 125.448 158.334ZM161.036 149.549L162.078 148.507C166.173 144.412 168.145 138.717 167.513 132.984L167.289 130.937C167.14 129.596 166.843 128.294 166.433 127.028L165.056 122.933L152.325 92.9671C151.469 90.9569 150.65 88.9096 149.98 86.8249L149.384 85.0381C147.709 79.8637 147.448 74.3173 148.64 69.0313L149.719 64.1548C149.831 63.7082 149.645 63.2986 149.272 63.0753C148.9 62.852 148.453 62.8893 148.118 63.1498L145.364 65.3089C142.981 67.2073 140.674 69.2546 138.514 71.4137L137.472 72.456C133.377 76.5507 131.404 82.2089 132.037 87.9788L132.261 90.0263C132.41 91.3664 132.707 92.6692 133.117 93.9349L134.494 98.0297L147.225 127.996C148.081 130.006 148.9 132.053 149.57 134.138L150.166 135.925C151.841 141.099 152.102 146.645 150.91 151.932L149.831 156.808C149.719 157.255 149.905 157.664 150.277 157.887C150.426 157.999 150.613 158.036 150.799 158.036C151.022 158.036 151.245 157.962 151.432 157.813L154.186 155.654C156.569 153.755 158.876 151.708 161.036 149.549Z" fill="#171FC9"/>
</g>
<defs>
<clipPath id="clip0_4_5070">
<rect width="220" height="220" fill="white" transform="translate(0 0.5)"/>
</clipPath>
</defs>
</svg>
