<svg width="220" height="221" viewBox="0 0 220 221" fill="none" xmlns="http://www.w3.org/2000/svg">
<g clip-path="url(#clip0_4_5073)">
<path d="M110 220.5C170.751 220.5 220 171.251 220 110.5C220 49.7487 170.751 0.5 110 0.5C49.2487 0.5 0 49.7487 0 110.5C0 171.251 49.2487 220.5 110 220.5Z" fill="#EDF0F4"/>
<path fill-rule="evenodd" clip-rule="evenodd" d="M132.612 80.4431C134.844 73.7563 140.335 68.2628 145.655 63.7993L145.654 63.7955C146.86 62.9312 147.715 63.2825 147.535 64.3086C147.449 65.2548 147.278 66.1553 147.107 67.0555C146.936 67.956 146.765 68.8564 146.68 69.802C146.337 72.3775 146.337 74.781 146.508 77.3555C146.685 80.6139 147.371 83.7014 148.569 86.6179C149.764 89.3631 151.143 92.1084 152.511 94.6829C155.95 101.893 159.379 109.094 162.638 116.304C163.007 117.165 163.376 118.016 163.743 118.862C164.913 121.56 166.06 124.203 167.101 126.944C168.469 130.714 169.153 134.325 167.956 138.267C165.553 146.161 159.036 151.993 153.033 157.143C152.878 157.272 152.68 157.452 152.458 157.654C151.208 158.79 149.193 160.622 149.774 157.998C150.157 155.925 150.679 153.888 151.2 151.855C151.843 149.342 152.486 146.834 152.864 144.271C153.62 138.498 150.89 132.465 148.468 127.111C148.152 126.413 147.841 125.726 147.544 125.053C145.549 120.534 143.358 116.146 141.172 111.768C139.787 108.996 138.405 106.228 137.075 103.432C133.638 96.402 130.037 88.337 132.612 80.4431ZM54.0401 80.4431C56.2727 73.7455 61.7632 68.2551 67.0832 63.7993C68.2803 62.9351 69.1367 63.2854 68.9563 64.3022C68.8707 65.2467 68.6998 66.1462 68.5289 67.0456C68.3579 67.9463 68.1868 68.8469 68.1014 69.7927C67.7595 72.3681 67.7595 74.7716 67.9302 77.3462C68.0999 80.6044 68.7935 83.6915 69.9903 86.608C71.186 89.3538 72.5648 92.099 73.9327 94.6736C77.3715 101.884 80.8011 109.085 84.0593 116.295C84.4274 117.154 84.7957 118.003 85.1617 118.846C86.3332 121.546 87.4803 124.191 88.5227 126.934C89.8908 130.704 90.5744 134.315 89.3776 138.258C86.9743 146.152 80.4572 151.983 74.4537 157.134C74.2988 157.263 74.101 157.443 73.8788 157.644C72.6294 158.78 70.6144 160.612 71.1953 157.988C71.5785 155.911 72.1008 153.87 72.6224 151.832C73.2644 149.323 73.9052 146.82 74.2825 144.262C75.0387 138.488 72.3085 132.454 69.8862 127.101C69.5703 126.403 69.2597 125.716 68.9627 125.043C66.9537 120.499 64.7499 116.08 62.5514 111.672C61.1839 108.931 59.8186 106.193 58.5035 103.432C55.0662 96.402 51.4661 88.337 54.0401 80.4431Z" fill="#165098"/>
<path d="M105.166 50.7564C99.1624 55.7369 92.6453 61.7379 89.0358 68.7675C86.4613 73.7455 86.1194 78.8946 87.4874 84.034C89.2065 90.2087 91.6007 96.3833 94.1752 102.387C99.1527 113.882 105.67 124.692 110.476 136.358C112.193 140.471 114.077 145.107 114.419 149.743C114.762 155.405 112.87 161.409 111.331 166.729C110.988 168.277 109.964 170.329 110.135 171.879C110.305 173.075 110.989 172.562 111.683 172.05C114.641 169.773 117.45 167.307 120.09 164.668C127.12 157.981 135.185 149.051 134.501 138.592C134.158 134.298 132.098 130.184 130.388 126.242C128.497 121.616 126.445 117.16 124.384 112.695C120.612 104.288 116.661 96.0522 112.547 87.8162C111.179 84.8997 109.457 82.1545 108.434 79.238C106.886 75.2954 106.201 71.1724 106.031 67.0592C105.86 63.972 106.031 60.7138 106.374 57.6261C106.545 55.5662 107.229 53.6835 107.229 51.6221C107.742 49.7318 106.716 49.562 105.169 50.7579L105.166 50.7564Z" fill="#5C9DD5"/>
</g>
<defs>
<clipPath id="clip0_4_5073">
<rect width="220" height="220" fill="white" transform="translate(0 0.5)"/>
</clipPath>
</defs>
</svg>
