<svg width="220" height="221" viewBox="0 0 220 221" fill="none" xmlns="http://www.w3.org/2000/svg">
<g clip-path="url(#clip0_4_5077)">
<path d="M110 220.5C170.751 220.5 220 171.251 220 110.5C220 49.7487 170.751 0.5 110 0.5C49.2487 0.5 0 49.7487 0 110.5C0 171.251 49.2487 220.5 110 220.5Z" fill="black"/>
<path d="M166.118 61.6616L147.455 71.17L57.3351 117.073C57.0302 114.749 56.877 112.407 56.8761 110.063C56.9012 91.0316 66.9995 73.4362 83.4191 63.8141C99.8386 54.1923 120.125 53.982 136.74 63.2616L147.423 57.8188L149.016 57.0057C129.063 42.5237 102.674 40.4569 80.7096 51.6562C58.7455 62.8555 44.9191 85.4279 44.9216 110.083C44.9216 111.753 44.985 113.416 45.1117 115.073C45.4749 119.871 42.92 124.417 38.6329 126.601L33 129.473V142.87L49.584 134.417L54.9547 131.676L60.2466 128.981L155.252 80.5736L165.928 75.1374L187.994 63.8911V50.5007L166.118 61.6616Z" fill="white"/>
<path d="M187.994 77.2945L65.6434 139.591L54.9677 145.041L33 156.234V169.618L54.817 158.503L73.4796 148.995L163.692 103.026C163.997 105.366 164.15 107.723 164.151 110.082C164.139 129.136 154.029 146.756 137.585 156.382C121.141 166.007 100.827 166.196 84.2079 156.877L83.5521 157.225L71.9715 163.126C91.9197 177.609 118.304 179.68 140.269 168.489C162.232 157.297 176.065 134.733 176.072 110.082C176.072 108.397 176.007 106.712 175.882 105.046C175.52 100.25 178.071 95.7056 182.355 93.5178L187.994 90.6457V77.2945Z" fill="white"/>
</g>
<defs>
<clipPath id="clip0_4_5077">
<rect width="220" height="220" fill="white" transform="translate(0 0.5)"/>
</clipPath>
</defs>
</svg>
