<svg width="220" height="221" viewBox="0 0 220 221" fill="none" xmlns="http://www.w3.org/2000/svg">
<g clip-path="url(#clip0_4_5081)">
<path d="M110 220.5C170.751 220.5 220 171.251 220 110.5C220 49.7487 170.751 0.5 110 0.5C49.2487 0.5 0 49.7487 0 110.5C0 171.251 49.2487 220.5 110 220.5Z" fill="#EDF0F4"/>
<path fill-rule="evenodd" clip-rule="evenodd" d="M110.854 127.72L68.8383 103.715C62.4462 111.987 58.666 122.226 58.666 133.312C58.666 160.798 81.9059 183.079 110.574 183.079C110.667 183.079 110.761 183.079 110.854 183.078V127.72Z" fill="#47A2F8"/>
<path fill-rule="evenodd" clip-rule="evenodd" d="M110.852 127.72L152.868 103.715C159.26 111.987 163.04 122.226 163.04 133.311C163.04 160.798 139.8 183.079 111.132 183.079C111.039 183.079 110.945 183.079 110.852 183.079V127.72Z" fill="#7EC6F9"/>
<path d="M110.857 39L74.5215 94.6958L110.857 74.0728V39Z" fill="#47A2F8"/>
<path d="M110.852 39L147.187 94.6958L110.852 74.0728V39Z" fill="#7EC6F9"/>
<path d="M110.857 115.74L74.5215 94.6958L110.857 74.073V115.74Z" fill="#7EC6F9"/>
<path d="M110.852 115.74L147.187 94.6958L110.852 74.073V115.74Z" fill="#D2ECFD"/>
<path d="M110.852 127.804L152.939 103.674L110.852 183.079V127.804Z" fill="#D2ECFD"/>
<path d="M110.851 127.804L68.7637 103.674L110.851 183.079V127.804Z" fill="#7EC6F9"/>
</g>
<defs>
<clipPath id="clip0_4_5081">
<rect width="220" height="220" fill="white" transform="translate(0 0.5)"/>
</clipPath>
</defs>
</svg>
