<svg width="220" height="221" viewBox="0 0 220 221" fill="none" xmlns="http://www.w3.org/2000/svg">
<g clip-path="url(#clip0_4_5094)">
<path fill-rule="evenodd" clip-rule="evenodd" d="M110 220.5C49.5 220.5 0 171.001 0 109.952C0.55 49.4535 49.5 -0.0454497 110.55 0.504539C171.05 1.05453 220 50.0035 220 111.602C219.45 171.551 170.5 220.5 110 220.5Z" fill="#EDF0F4"/>
<path fill-rule="evenodd" clip-rule="evenodd" d="M109.619 45.6396C111.834 45.6396 113.63 47.4351 113.63 49.6502C113.617 51.8599 111.829 53.6483 109.619 53.6608C107.404 53.6608 105.608 51.865 105.608 49.6502C105.608 47.4351 107.404 45.6396 109.619 45.6396ZM52.9576 140.917C52.9576 138.702 54.7532 136.907 56.9682 136.907C58.4046 136.912 59.7316 137.675 60.4611 138.912C60.7845 139.559 60.9788 140.206 60.9788 140.917C60.9788 143.132 59.1832 144.928 56.9682 144.928C54.7532 144.928 52.9576 143.132 52.9576 140.917ZM162.533 84.4494C164.748 84.4494 166.544 82.6538 166.544 80.4388C166.544 78.2239 164.748 76.4284 162.533 76.4284C160.318 76.4284 158.522 78.2239 158.522 80.4388C158.525 81.1195 158.703 81.7879 159.04 82.3792C159.742 83.6528 161.079 84.4454 162.533 84.4494ZM53.4071 78.2397C54.5064 76.2993 56.9 75.6518 58.8404 76.7518C60.7808 77.851 61.4283 80.309 60.3283 82.1849C59.2291 84.1253 56.8355 84.7721 54.8951 83.6728C52.9547 82.5735 52.3079 80.1799 53.4071 78.2397ZM164.146 137.682C163.564 137.294 162.853 137.165 162.141 137.1C160.696 137.081 159.351 137.841 158.623 139.09C157.894 140.338 157.894 141.883 158.623 143.131C159.351 144.38 160.696 145.14 162.141 145.121C163.564 145.121 164.855 144.345 165.634 143.116C166.734 141.24 166.087 138.782 164.146 137.682ZM108.196 175.326C106.514 174.68 105.414 172.934 105.608 171.122C105.615 171.073 105.638 171.027 105.673 170.992C106.012 168.83 108.03 167.346 110.196 167.665C112.361 167.985 113.864 169.989 113.564 172.157C113.184 174.144 111.448 175.582 109.425 175.585C109.037 175.585 108.584 175.456 108.196 175.326Z" fill="#2683FF"/>
<path fill-rule="evenodd" clip-rule="evenodd" d="M166.608 129.597C167.122 129.795 167.619 130.033 168.096 130.309C173.788 133.802 175.728 141.175 172.496 147.192C169.131 153.207 161.497 155.342 155.483 151.978C154.904 151.655 154.389 151.27 153.874 150.884L153.866 150.878L121.654 169.441C121.732 170.042 121.775 170.647 121.783 171.253C121.783 171.965 121.783 172.612 121.654 173.323C120.555 180.115 114.152 184.772 107.359 183.672C100.567 182.572 95.9099 176.169 97.0099 169.378L64.6041 150.684C64.0864 151.072 63.5694 151.396 63.0518 151.719C62.905 151.792 62.7581 151.871 62.6096 151.95C62.2354 152.15 61.8517 152.356 61.4348 152.495C55.0306 155.082 47.786 151.975 45.1988 145.574C42.6116 139.173 45.7173 131.926 52.1215 129.339V91.9522C51.5326 91.76 50.9683 91.4997 50.44 91.1763C49.923 90.8529 49.4698 90.5295 49.0173 90.2061C45.4124 87.5111 43.534 83.0867 44.0992 78.6213C44.6642 74.156 47.5856 70.339 51.7482 68.627C55.911 66.9152 60.6725 67.5725 64.2154 70.3483L96.9447 51.3961C96.9388 51.3435 96.9329 51.2914 96.9272 51.2397C96.8689 50.7203 96.8156 50.2442 96.8156 49.7147C96.8156 42.8588 102.572 37.1667 109.429 37.1667C116.285 37.1667 121.91 42.729 121.911 49.6495C121.911 50.1776 121.858 50.6532 121.8 51.1724C121.794 51.2247 121.788 51.2775 121.782 51.3308L154.77 70.4121C155.222 70.0887 155.675 69.7653 156.192 69.5065C162.209 66.1441 169.843 68.3405 173.206 74.3575C176.568 80.3743 174.368 88.0068 168.355 91.3706C168.159 91.4573 167.964 91.5514 167.768 91.6454C167.381 91.8313 166.995 92.0174 166.608 92.1465V129.597ZM157.294 149.39C161.822 152.042 167.708 150.489 170.36 145.962C173.073 141.37 171.524 135.548 167.061 132.896C163.451 130.768 158.872 131.268 155.807 134.125L140.993 125.522C144.681 117.955 142.222 108.899 135.301 104.177C134.914 102.751 134.331 101.396 133.684 100.038L156.064 87.3615C158.395 89.5624 161.669 90.4596 164.797 89.7551C169.972 88.5913 173.14 83.4169 171.977 78.2418C170.813 73.0668 165.638 69.8981 160.463 71.0619C155.288 72.2257 152.119 77.4006 153.283 82.575L130.645 95.4465C126.246 90.2076 112.275 86.7147 112.275 86.7147V58.1882C115.134 57.3339 117.371 55.0968 118.226 52.2372C119.648 47.5155 116.997 42.5347 112.275 41.112C107.553 39.6893 102.569 42.2765 101.146 46.9985C99.7233 51.7202 102.375 56.701 107.097 58.1237V87.2302C107.097 87.2302 99.4703 89.7529 96.4937 92.2096C93.3288 92.2833 90.2259 93.1033 87.4379 94.6032L66.1573 82.3785C66.8694 79.2736 66.029 76.0396 63.829 73.7114C60.2072 69.8306 54.2562 69.637 50.3754 73.2589C48.5151 74.9872 47.4212 77.3863 47.3363 79.9242C47.2512 82.4621 48.1824 84.9288 49.923 86.7778C53.5449 90.6586 59.5634 90.8522 63.3765 87.2302L82.5898 98.2266C75.6034 105.212 74.6977 116.208 80.3898 124.229L63.5078 133.996C61.1114 131.797 57.8129 130.892 54.708 131.668C49.5484 132.901 46.3657 138.084 47.5987 143.244C48.8318 148.403 54.0137 151.587 59.1736 150.355C64.3335 149.122 67.5178 143.941 66.2864 138.781L84.333 128.368C88.973 132.119 95.0406 133.612 100.891 132.443C102.696 133.277 104.555 133.99 106.455 134.578V161.744C103.87 162.586 101.67 164.396 100.441 166.854C97.9831 171.77 99.9235 177.85 104.904 180.308C105.292 180.502 105.681 180.696 106.133 180.826C106.166 180.826 106.199 180.842 106.231 180.858C106.263 180.874 106.295 180.89 106.328 180.89C111.632 182.503 117.263 179.594 118.876 174.29C120.49 168.987 117.58 163.359 112.276 161.742V135.093C112.276 135.093 117.126 134.64 119.39 133.929C125.702 136.462 132.919 134.959 137.695 130.115L152.831 138.977C151.861 143.051 153.672 147.255 157.294 149.39Z" fill="#2683FF"/>
<path d="M128.637 109.223C128.572 108.705 128.508 108.253 128.442 107.735C128.379 107.385 128.293 107.039 128.184 106.7C128.184 106.571 128.119 106.441 128.119 106.312C127.99 105.924 127.86 105.471 127.731 105.083V105.019C126.909 102.849 125.654 100.868 124.044 99.1973C123.656 98.8094 123.333 98.486 122.879 98.0973L122.815 98.0328C122.427 97.7094 122.039 97.3862 121.586 97.1273L121.521 97.0628C121.133 96.8039 120.68 96.4805 120.292 96.2869L120.228 96.2224C119.81 95.9809 119.378 95.765 118.934 95.5756L118.805 95.511C118.353 95.3167 117.899 95.1231 117.382 94.9288L117.318 94.8642C116.8 94.7352 116.348 94.5408 115.83 94.4763H115.765C115.254 94.3586 114.735 94.2721 114.213 94.2174H114.148C111.394 93.826 108.584 94.1604 105.998 95.1876L105.675 95.4465C105.287 95.5756 104.64 95.899 104.252 96.0933C104.05 96.2266 103.833 96.3351 103.605 96.4167C103.411 96.4812 103.088 96.7401 102.894 96.8692C102.7 96.9982 102.247 97.3216 101.988 97.516L101.794 97.6449C101.406 97.9037 101.083 98.2271 100.694 98.5505L100.371 98.8739C99.9827 99.2619 99.6593 99.5853 99.3359 99.9739C98.5664 99.845 97.7876 99.7801 97.0075 99.7796C96.7487 99.7796 96.5551 99.7796 96.3608 99.8441C93.3856 99.9732 90.5395 101.202 88.3403 103.208C87.2405 104.178 86.3355 105.408 85.6271 106.701L85.5582 106.833C85.3587 107.208 85.1857 107.598 85.0405 107.997C84.9759 108.126 84.9759 108.192 84.9114 108.321C84.7743 108.656 84.6661 109.002 84.588 109.355C84.5235 109.485 84.5235 109.679 84.4589 109.808C84.3944 110.131 84.3299 110.455 84.2646 110.843C84.2646 110.972 84.2001 111.102 84.2001 111.295C84.1462 111.789 84.1247 112.286 84.1355 112.783C84.1247 113.194 84.1463 113.605 84.2001 114.012C84.2001 114.141 84.2646 114.271 84.2646 114.465C84.3291 114.723 84.3291 114.982 84.3937 115.24C84.4582 115.499 84.4582 115.564 84.5227 115.758C84.5962 115.944 84.6399 116.141 84.6518 116.34C84.6518 116.535 84.7809 116.728 84.8461 116.923C84.8989 117.078 84.9638 117.23 85.0405 117.375C85.1378 117.586 85.2242 117.802 85.2993 118.022C85.3639 118.151 85.4284 118.216 85.4284 118.345C86.3374 120.476 87.8717 122.28 89.8282 123.52C90.7984 124.102 91.7686 124.62 92.8033 124.942C93.2045 125.08 93.6153 125.188 94.0324 125.266L94.1615 125.33L95.326 125.525L95.5849 125.589C96.0373 125.654 96.4905 125.654 97.0075 125.654C98.7543 125.654 100.436 125.33 101.988 124.619C102.376 124.878 102.7 125.137 103.088 125.395L103.217 125.459C103.541 125.654 103.929 125.847 104.317 126.042H104.38C108.077 127.926 112.344 128.364 116.347 127.271H116.411C116.993 127.145 117.558 126.95 118.093 126.688L119.84 125.912C121.503 127.21 123.551 127.916 125.661 127.917C126.113 127.917 126.502 127.853 126.954 127.853L127.278 127.788C127.692 127.727 128.103 127.64 128.507 127.529C128.906 127.407 129.295 127.256 129.672 127.077L129.866 127.012C130.254 126.818 130.577 126.625 130.966 126.43C132.583 125.395 133.812 123.843 134.523 122.096C134.782 121.514 134.911 120.932 135.041 120.35V120.156C135.106 119.897 135.106 119.638 135.17 119.38C135.17 119.057 135.235 118.733 135.235 118.41C135.235 114.141 132.583 110.454 128.635 109.225" fill="#2683FF"/>
</g>
<defs>
<clipPath id="clip0_4_5094">
<rect width="220" height="220" fill="white" transform="translate(0 0.5)"/>
</clipPath>
</defs>
</svg>
