<svg width="220" height="221" viewBox="0 0 220 221" fill="none" xmlns="http://www.w3.org/2000/svg">
<g clip-path="url(#clip0_4_5099)">
<path d="M110 220.5C170.751 220.5 220 171.251 220 110.5C220 49.7487 170.751 0.5 110 0.5C49.2487 0.5 0 49.7487 0 110.5C0 171.251 49.2487 220.5 110 220.5Z" fill="#FD2E53"/>
<path fill-rule="evenodd" clip-rule="evenodd" d="M55.0028 61.4052C55.1405 61.6281 63.3044 71.2098 73.145 82.6986C92.1018 104.83 92.4061 105.256 92.4061 109.661C92.4061 114.065 92.1018 114.491 73.145 136.623C63.3044 148.112 55.1405 157.693 55.0028 157.916C54.8529 158.159 60.6715 158.311 69.4874 158.296L84.2223 158.27L100.59 139.095C119.772 116.623 119.612 116.87 119.612 109.661C119.612 102.451 119.772 102.698 100.59 80.2263L84.2223 61.0508L69.4874 61.0257C60.6715 61.0101 54.8529 61.1628 55.0028 61.4052ZM120.804 70.8091C116.364 76.2042 112.887 80.7584 113.075 80.9296C113.264 81.1009 117.287 82.1847 122.015 83.3379C131.478 85.6462 133.27 85.7223 136.723 83.9643C138.193 83.2167 161.627 64.6375 164.939 61.5949C165.482 61.0955 162.635 61 147.231 61H128.875L120.804 70.8091ZM121.381 136.126C116.281 137.426 113.018 138.465 113.082 138.769C113.14 139.045 116.719 143.557 121.034 148.796L128.881 158.321H147.234C162.635 158.321 165.482 158.226 164.939 157.726C161.568 154.63 138.179 136.098 136.675 135.332C133.271 133.6 130.793 133.728 121.381 136.126Z" fill="white"/>
</g>
<defs>
<clipPath id="clip0_4_5099">
<rect width="220" height="220" fill="white" transform="translate(0 0.5)"/>
</clipPath>
</defs>
</svg>
