<svg width="220" height="221" viewBox="0 0 220 221" fill="none" xmlns="http://www.w3.org/2000/svg">
<g clip-path="url(#clip0_4_5091)">
<path d="M110 220.5C170.751 220.5 220 171.251 220 110.5C220 49.7487 170.751 0.5 110 0.5C49.2487 0.5 0 49.7487 0 110.5C0 171.251 49.2487 220.5 110 220.5Z" fill="#2DC4E7"/>
<path fill-rule="evenodd" clip-rule="evenodd" d="M35.1111 63.0106C37.3065 63.0106 39.524 62.9666 41.7504 62.9224C46.9757 62.8188 52.251 62.7143 57.4083 63.1747C59.339 65.3382 60.3849 68.0158 61.4405 70.7183C62.1702 72.5866 62.9048 74.4671 63.9396 76.1978C85.9452 76.3072 108.021 76.2707 130.074 76.2342C141.091 76.2161 152.103 76.1978 163.097 76.1978L163.437 76.2201C165.819 76.3745 168.621 76.556 169.793 78.8858C171.261 81.5738 170.204 84.7475 168.812 87.1893C164.351 94.7306 160.033 102.345 155.717 109.957C153.554 113.771 151.391 117.585 149.211 121.389C148.529 122.522 147.911 123.694 147.294 124.862C145.692 127.893 144.101 130.905 141.451 133.201C138.432 135.725 134.261 135.882 130.426 135.882H84.6793C82.2302 135.882 79.6162 135.643 78.1481 133.687C74.4719 129.575 72.1195 124.581 69.7998 119.656C69.1325 118.239 68.4675 116.828 67.7747 115.445C62.4045 104.726 57.1489 93.9503 52.009 83.1197C51.2102 81.2854 50.2757 79.59 49.3396 77.8916C49.0298 77.3291 48.7196 76.7661 48.414 76.1978C44.0917 76.1978 39.7559 76.1978 35.5159 76.0337C34.6928 71.7246 34.6928 67.3264 35.1043 63.0106H35.1111ZM86.6483 144.678C89.9718 143.891 93.4274 143.835 96.7747 144.514C100.527 145.335 103.8 148.18 104.699 151.928C105.673 156.237 105.673 160.889 103.958 165.034C102.325 168.782 98.2429 170.574 94.4077 170.902C89.9964 171.224 84.9332 170.902 81.6607 167.639C78.1549 163.734 78.1549 158.036 78.8889 153.146C79.376 149.076 82.6418 145.574 86.6415 144.678H86.6483ZM139.901 145.328C135.977 143.864 131.565 143.789 127.483 144.678C123.483 145.581 120.382 148.912 119.559 152.9C118.565 157.206 119.086 161.721 121.034 165.69C123.079 169.349 127.318 170.82 131.243 170.977C135.242 171.059 139.654 170.656 142.672 167.804C145.938 164.384 146.432 159.254 145.938 154.774C145.616 150.95 143.653 146.881 139.901 145.328Z" fill="white"/>
</g>
<defs>
<clipPath id="clip0_4_5091">
<rect width="220" height="220" fill="white" transform="translate(0 0.5)"/>
</clipPath>
</defs>
</svg>
