<svg width="220" height="221" viewBox="0 0 220 221" fill="none" xmlns="http://www.w3.org/2000/svg">
<g clip-path="url(#clip0_4_5102)">
<path d="M110 220.5C170.751 220.5 220 171.251 220 110.5C220 49.7487 170.751 0.5 110 0.5C49.2487 0.5 0 49.7487 0 110.5C0 171.251 49.2487 220.5 110 220.5Z" fill="#F2941B"/>
<path fill-rule="evenodd" clip-rule="evenodd" d="M114.336 35.3333H114.26C115.116 42.274 115.642 49.2855 116.165 56.2709C116.406 59.482 116.646 62.6874 116.918 65.8778C117.414 68.9438 117.675 72.0431 117.698 75.1486L144.121 101.405C138.733 109.096 133.278 116.771 127.818 124.453C121.551 133.268 115.279 142.092 109.096 150.959C109.488 155.384 109.863 159.81 110.238 164.237C110.986 173.056 111.734 181.877 112.617 190.699L192.5 77.874H157.012C152.496 73.3706 147.988 68.861 143.481 64.3515C133.79 54.657 124.1 44.9631 114.336 35.3333ZM77.2799 78.6264C60.7396 101.981 44.2029 125.33 27.5759 148.619H27.5V148.936C33.964 148.808 40.4281 148.82 46.891 148.831C52.3085 148.84 57.7251 148.85 63.1402 148.777L105.581 191.167H105.747C104.877 182.47 104.143 173.738 103.411 165.039C103.022 160.411 102.633 155.792 102.226 151.193C96.4126 145.503 90.6712 139.746 84.9523 134.013C81.977 131.03 79.0077 128.053 76.0375 125.095C81.1171 117.891 86.2112 110.716 91.3072 103.539C97.8963 94.2583 104.488 84.9736 111.056 75.6166L107.694 35.7257C97.5403 50.0192 87.4095 64.3236 77.2799 78.6264Z" fill="white"/>
</g>
<defs>
<clipPath id="clip0_4_5102">
<rect width="220" height="220" fill="white" transform="translate(0 0.5)"/>
</clipPath>
</defs>
</svg>
