<svg width="220" height="221" viewBox="0 0 220 221" fill="none" xmlns="http://www.w3.org/2000/svg">
<g clip-path="url(#clip0_4_5105)">
<path d="M110 220.5C170.753 220.5 220 171.253 220 110.5C220 49.747 170.753 0.5 110 0.5C49.247 0.5 0 49.747 0 110.5C0 171.253 49.247 220.5 110 220.5Z" fill="#EDF0F4"/>
<path fill-rule="evenodd" clip-rule="evenodd" d="M109.332 174.896C110.02 175.342 110.823 175.579 111.643 175.578L111.644 175.574C112.449 175.567 113.236 175.338 113.919 174.913L176.605 134.635C179.592 132.719 181.393 129.411 181.382 125.863V113.829C181.419 112.573 180.92 111.361 180.01 110.495C178.585 109.21 176.477 109.037 174.861 110.072L110.995 150.816C110.955 150.844 110.901 150.844 110.86 150.816L48.245 111.017C46.7078 110.041 45.7792 108.344 45.786 106.523V95.1818C45.7838 95.1594 45.7887 95.1368 45.8001 95.1176C45.8362 95.0597 45.9119 95.0408 45.9708 95.0752L109.442 135.035C110.834 135.902 112.599 135.902 113.991 135.035L179.421 93.723C180.658 92.9379 181.408 91.5741 181.408 90.1086C181.408 88.6428 180.658 87.2792 179.421 86.494L114.545 45.1677C113.21 44.3174 111.513 44.2763 110.138 45.0612L110.067 45.1035L42.9602 88.8381L41.7447 89.6697L41.5332 89.8405C40.7615 90.6367 40.3312 91.7028 40.334 92.8116V106.53C40.3329 110.225 42.2344 113.66 45.3663 115.621L108.627 155.868C110.026 156.756 111.813 156.756 113.212 155.868L175.813 115.999C175.831 115.991 175.851 115.986 175.87 115.985C175.94 115.983 175.999 116.036 176.005 116.105V125.91C176.009 127.595 175.151 129.165 173.73 130.072L111.748 169.899C111.707 169.927 111.653 169.927 111.613 169.899L46.2113 127.776C46.1625 127.733 46.0896 127.733 46.0406 127.776L43.2261 132.154C43.1834 132.203 43.1834 132.276 43.2261 132.325L109.332 174.896ZM111.642 129.973L49.9154 91.0769C49.9067 91.069 49.8996 91.0593 49.8943 91.0489C49.8715 91.0219 49.8609 90.9867 49.8649 90.9519C49.869 90.9169 49.8871 90.885 49.9154 90.8639L112.22 50.2268C112.261 50.1985 112.315 50.1985 112.355 50.2268L174.747 89.9899C174.762 89.998 174.775 90.0103 174.783 90.0253C174.802 90.0521 174.809 90.0858 174.802 90.1183C174.796 90.1507 174.776 90.179 174.747 90.196L111.777 129.973C111.736 130.001 111.682 130.001 111.642 129.973Z" fill="url(#paint0_linear_4_5105)"/>
</g>
<defs>
<linearGradient id="paint0_linear_4_5105" x1="40.334" y1="104.396" x2="181.413" y2="104.396" gradientUnits="userSpaceOnUse">
<stop stop-color="#21BBC0"/>
<stop offset="0.34" stop-color="#20B9C0"/>
<stop offset="1" stop-color="#1387C9"/>
</linearGradient>
<clipPath id="clip0_4_5105">
<rect width="220" height="220" fill="white" transform="translate(0 0.5)"/>
</clipPath>
</defs>
</svg>
