<svg width="220" height="221" viewBox="0 0 220 221" fill="none" xmlns="http://www.w3.org/2000/svg">
<g clip-path="url(#clip0_4_5108)">
<path d="M110 220.5C170.751 220.5 220 171.251 220 110.5C220 49.7487 170.751 0.5 110 0.5C49.2487 0.5 0 49.7487 0 110.5C0 171.251 49.2487 220.5 110 220.5Z" fill="#EDF0F4"/>
<path fill-rule="evenodd" clip-rule="evenodd" d="M128.369 39.7168V43.9448C128.369 45.1339 127.797 46.1116 126.007 46.3397C102.555 47.5514 83.8049 66.2772 82.563 89.7274C82.4944 91.0831 81.377 92.1485 80.0194 92.152H75.7252C74.8763 92.152 73.4328 91.6861 73.3701 89.8992C74.5392 61.4183 97.2544 38.54 125.726 37.1666H125.828C127.234 37.1703 128.37 38.3114 128.369 39.7168ZM93.8136 92.1718H89.721L89.7111 92.1487H89.5426C88.1345 92.0533 87.0698 90.8351 87.1643 89.4267C88.5299 68.7718 104.979 52.32 125.633 50.9509C125.69 50.9476 125.746 50.9476 125.802 50.9509C127.213 50.9491 128.358 52.0903 128.362 53.5011V57.7027C128.428 58.9657 127.467 60.0474 126.205 60.1306C110.25 61.2051 97.5165 73.8531 96.334 89.8C96.244 91.1284 95.1449 92.1628 93.8136 92.1718ZM128.359 67.3019V71.52C128.359 73.2376 126.866 73.8588 126.139 73.9446C117.783 74.9657 111.192 81.5392 110.148 89.8926C109.996 91.1808 108.908 92.1542 107.611 92.1619H103.518C102.115 92.1674 100.972 91.0351 100.965 89.6317C100.96 89.5503 100.96 89.4685 100.965 89.3871C102.283 76.3769 112.571 66.0884 125.581 64.7684C126.251 64.7059 126.918 64.9123 127.436 65.3422C127.954 65.7723 128.28 66.3905 128.342 67.0608C128.347 67.1433 128.347 67.226 128.342 67.3085L128.359 67.3019ZM174.148 126.38C174.379 128.167 175.357 128.742 176.546 128.742L180.784 128.722H180.886C182.291 128.666 183.384 127.484 183.331 126.079C181.951 97.608 159.069 74.897 130.588 73.7299C128.805 73.7926 128.339 75.2362 128.339 76.0852V80.3792C128.339 81.737 129.404 82.8559 130.76 82.9228C154.213 84.1698 172.938 102.925 174.148 126.38ZM128.319 90.094C128.319 89.4166 128.589 88.7669 129.068 88.2886C129.548 87.8101 130.198 87.5422 130.876 87.5439C130.933 87.5408 130.99 87.5408 131.047 87.5439C151.712 88.9022 168.174 105.359 169.54 126.023C169.632 127.43 168.571 128.646 167.165 128.745H166.996H162.811C161.548 128.811 160.467 127.85 160.383 126.588C159.307 110.632 146.656 97.8995 130.707 96.7203C129.378 96.6335 128.343 95.5321 128.339 94.2L128.319 90.094ZM148.977 128.742H153.169L153.186 128.709C153.266 128.714 153.346 128.714 153.427 128.709C154.821 128.58 155.847 127.345 155.719 125.95C154.399 112.942 144.112 102.657 131.104 101.338C131.022 101.333 130.941 101.333 130.859 101.338C130.185 101.342 129.541 101.613 129.067 102.092C128.593 102.57 128.329 103.218 128.332 103.892V107.997C128.337 109.295 129.312 110.384 130.602 110.531C138.954 111.574 145.527 118.164 146.549 126.519C146.639 127.249 147.256 128.742 148.977 128.742ZM43.4495 92.1454C44.6386 92.1454 45.6163 92.7168 45.8477 94.5038C47.0594 117.96 65.7902 136.714 89.2453 137.954C90.5997 138.025 91.6631 139.141 91.6666 140.498V144.792C91.6666 145.644 91.2007 147.088 89.4171 147.147C60.9342 145.985 38.0485 123.274 36.668 94.8011C36.6413 94.127 36.8833 93.4698 37.3412 92.9742C37.799 92.4787 38.435 92.1851 39.1091 92.1586H39.2147L43.4495 92.1454ZM90.9239 132.597C91.404 132.119 91.6746 131.47 91.6765 130.793L91.6666 126.7C91.6625 125.368 90.6274 124.267 89.2981 124.18C73.3503 122.999 60.6999 110.267 59.6221 94.3122C59.5423 93.0475 58.4596 92.0828 57.1942 92.1487H52.8307C52.1555 92.196 51.5268 92.5098 51.0833 93.021C50.6397 93.5321 50.4175 94.1987 50.4655 94.8737C51.8367 115.53 68.2916 131.977 88.9481 133.34H89.1164C89.7936 133.341 90.4439 133.074 90.9239 132.597ZM66.8264 92.1454H71.0214C72.7423 92.1454 73.3602 93.6384 73.4493 94.3652C74.4726 102.72 81.045 109.31 89.3973 110.356C90.6859 110.502 91.6614 111.589 91.6666 112.886V116.992C91.6684 118.394 90.5376 119.533 89.1364 119.542H88.8951C75.8854 118.223 65.5977 107.936 64.2764 94.9267C64.214 94.2533 64.4232 93.5829 64.8574 93.0644C65.2915 92.5459 65.9146 92.2222 66.5886 92.1652H66.8297L66.8264 92.1454ZM94.0482 174.643C92.2611 174.871 91.6897 175.849 91.6897 177.038H91.693V181.385C91.7502 182.788 92.9317 183.881 94.3355 183.829C122.806 182.453 145.519 159.574 146.688 131.094C146.625 129.306 145.182 128.841 144.333 128.841H140.039C138.681 128.843 137.562 129.909 137.495 131.265C136.244 154.711 117.496 173.429 94.0482 174.643ZM130.337 128.811C131.014 128.811 131.664 129.081 132.142 129.56C132.62 130.04 132.887 130.69 132.884 131.368V131.539C131.529 152.206 115.074 168.671 94.4081 170.038C93.0007 170.133 91.7819 169.071 91.6831 167.663V167.495V163.31C91.6171 162.047 92.5781 160.965 93.84 160.882C109.794 159.806 122.527 147.159 123.711 131.212C123.796 129.882 124.898 128.845 126.231 128.841L130.337 128.811ZM91.6897 149.476V153.658L91.7128 153.668C91.708 153.748 91.708 153.829 91.7128 153.909C91.7707 154.582 92.0946 155.205 92.6129 155.639C93.1312 156.073 93.8011 156.282 94.4743 156.221C107.482 154.901 117.769 144.616 119.093 131.609V131.361C119.086 129.96 117.945 128.829 116.543 128.834H112.437C111.14 128.841 110.052 129.815 109.904 131.103C108.857 139.455 102.267 146.027 93.9127 147.051C93.186 147.137 91.6897 147.758 91.6897 149.476Z" fill="#FF5C00"/>
</g>
<defs>
<clipPath id="clip0_4_5108">
<rect width="220" height="220" fill="white" transform="translate(0 0.5)"/>
</clipPath>
</defs>
</svg>
