<svg width="220" height="221" viewBox="0 0 220 221" fill="none" xmlns="http://www.w3.org/2000/svg">
<g clip-path="url(#clip0_4_5111)">
<path d="M110 220.5C170.751 220.5 220 171.251 220 110.5C220 49.7487 170.751 0.5 110 0.5C49.2487 0.5 0 49.7487 0 110.5C0 171.251 49.2487 220.5 110 220.5Z" fill="#2980E4"/>
<path fill-rule="evenodd" clip-rule="evenodd" d="M129.035 98.0555H148.437L129.218 136.361L110 174.667L109.795 148.805L109.59 122.944H90.5454C80.0703 122.944 71.5 122.701 71.5 122.403C71.5 122.106 79.987 104.868 90.3611 84.0976L109.222 46.3333L109.427 72.1945L109.632 98.0555H129.035Z" fill="white"/>
</g>
<defs>
<clipPath id="clip0_4_5111">
<rect width="220" height="220" fill="white" transform="translate(0 0.5)"/>
</clipPath>
</defs>
</svg>
