<svg width="220" height="221" viewBox="0 0 220 221" fill="none" xmlns="http://www.w3.org/2000/svg">
<g clip-path="url(#clip0_4_5114)">
<path d="M110 220.5C170.751 220.5 220 171.251 220 110.5C220 49.7487 170.751 0.5 110 0.5C49.2487 0.5 0 49.7487 0 110.5C0 171.251 49.2487 220.5 110 220.5Z" fill="#EDF0F4"/>
<path d="M58.0928 62.8334H128.227C128.437 62.8334 128.617 62.892 128.767 63.0096L157.3 83.5555C157.72 83.8491 157.78 84.4066 157.48 84.8176C157.3 85.0525 157.03 85.1698 156.731 85.1698H82.6699C82.1604 85.1698 81.7407 85.5806 81.7407 86.0797V112.408C81.7407 112.907 82.1604 113.318 82.6699 113.318H129.876C130.385 113.318 130.805 113.729 130.805 114.228V133.423C130.805 133.923 130.385 134.333 129.876 134.333H57.7631C57.2536 134.333 56.834 133.923 56.834 133.423L57.1636 63.7726C57.1636 63.2442 57.5534 62.8627 58.0928 62.8334Z" fill="#0E67AE"/>
<path d="M160.089 161.833H87.9219C87.7144 161.833 87.5365 161.774 87.3884 161.654L60.863 141.899C60.4481 141.601 60.3889 141.034 60.6852 140.616C60.863 140.377 61.1298 140.258 61.4262 140.258H135.816C136.32 140.258 136.734 139.84 136.734 139.333V110.297C136.734 109.79 136.32 109.372 135.816 109.372H89.8187C89.3149 109.372 88.9 108.954 88.9 108.477V91.2584C88.9 90.7512 89.3149 90.3333 89.789 90.3333H160.415C160.918 90.3333 161.333 90.7512 161.333 91.2584L161.007 160.938C160.978 161.445 160.592 161.833 160.089 161.833Z" fill="#0E67AE"/>
<path fill-rule="evenodd" clip-rule="evenodd" d="M25.666 110.5C25.666 63.9239 63.4233 26.1666 109.999 26.1666C156.575 26.1666 194.333 63.9239 194.333 110.5C194.333 157.076 156.575 194.833 109.999 194.833C63.4233 194.833 25.666 157.076 25.666 110.5ZM186.547 110.5C186.547 68.2242 152.275 33.9532 109.999 33.9532C67.7236 33.9532 33.4525 68.2242 33.4525 110.5C33.4525 152.776 67.7236 187.047 109.999 187.047C152.275 187.047 186.547 152.776 186.547 110.5Z" fill="#0E67AE"/>
</g>
<defs>
<clipPath id="clip0_4_5114">
<rect width="220" height="220" fill="white" transform="translate(0 0.5)"/>
</clipPath>
</defs>
</svg>
