<svg width="220" height="221" viewBox="0 0 220 221" fill="none" xmlns="http://www.w3.org/2000/svg">
<g clip-path="url(#clip0_4_5119)">
<path d="M110 220.5C170.751 220.5 220 171.251 220 110.5C220 49.7487 170.751 0.5 110 0.5C49.2487 0.5 0 49.7487 0 110.5C0 171.251 49.2487 220.5 110 220.5Z" fill="#E53431"/>
<path fill-rule="evenodd" clip-rule="evenodd" d="M112.455 37.5089C111.84 37.0475 110.991 37.0531 110.383 37.5227L74.5315 64.2838C73.7648 64.8553 73.6086 65.9373 74.1828 66.7007C74.7568 67.4639 75.844 67.6194 76.6108 67.0479L111.426 41.0568L161.714 78.5994H139.755L103.786 51.7557C103.29 51.3861 102.633 51.3079 102.064 51.5506C101.494 51.7933 101.098 52.3202 101.024 52.9327C100.95 53.5453 101.211 54.1503 101.707 54.5199L138.131 81.7074C138.431 81.9284 138.794 82.0488 139.167 82.0512H166.916C167.662 82.0517 168.323 81.5743 168.553 80.8685C168.799 80.1685 168.558 79.3908 167.959 78.9501L112.455 37.5089ZM83.6705 37.1787C83.2961 37.1736 82.9309 37.2948 82.6344 37.5227V37.5294L54.8928 58.2536C54.4526 58.5748 54.1926 59.0856 54.1926 59.6288C54.1926 60.172 54.4526 60.6828 54.8928 61.004L164.042 142.498L157.874 147.104C157.107 147.674 156.949 148.755 157.521 149.518C158.094 150.281 159.179 150.438 159.946 149.869L167.966 143.887C168.404 143.559 168.661 143.046 168.661 142.501C168.661 141.956 168.404 141.443 167.966 141.116L58.8233 59.6081L83.6705 41.0637L91.3105 46.7502C91.804 47.1198 92.4583 47.1994 93.0267 46.9586C93.5952 46.7181 93.9916 46.1938 94.0664 45.5834C94.1412 44.9731 93.8834 44.3694 93.3897 43.9996L84.7066 37.5227C84.4078 37.2994 84.0441 37.1787 83.6705 37.1787ZM62.5536 73.2431C63.3201 72.782 64.313 72.9753 64.8487 73.6899C65.3844 74.4044 65.288 75.4068 64.6258 76.0072L58.8163 80.339L167.966 161.846C168.406 162.171 168.666 162.684 168.666 163.229C168.666 163.774 168.406 164.286 167.966 164.611L140.217 185.327C139.601 185.78 138.761 185.78 138.145 185.327L130.111 179.332C129.615 178.96 129.356 178.353 129.432 177.739C129.508 177.125 129.907 176.598 130.479 176.357C131.051 176.115 131.708 176.196 132.204 176.568L139.181 181.773L164.049 163.208L54.8721 81.7212C54.4394 81.3921 54.1857 80.881 54.1857 80.339C54.1857 79.7971 54.4394 79.2862 54.8721 78.9571L62.5396 73.2499L62.5536 73.2431ZM55.929 140.772V140.758C55.3253 140.315 54.5038 140.308 53.8931 140.742C53.2824 141.176 53.0211 141.951 53.2455 142.663C53.4698 143.376 54.129 143.864 54.879 143.873L110.397 185.3C110.697 185.527 111.063 185.648 111.44 185.645C111.813 185.645 112.177 185.524 112.476 185.3L148.265 158.594C148.761 158.223 149.021 157.617 148.946 157.004C148.871 156.391 148.474 155.864 147.903 155.622C147.332 155.38 146.675 155.459 146.179 155.83L111.433 181.766L61.1373 144.224H83.1109L118.658 170.772C119.154 171.14 119.81 171.217 120.379 170.974C120.947 170.73 121.343 170.204 121.415 169.592C121.488 168.98 121.227 168.376 120.731 168.007L84.6997 141.116C84.4032 140.888 84.038 140.767 83.6637 140.772H55.929Z" fill="white"/>
</g>
<defs>
<clipPath id="clip0_4_5119">
<rect width="220" height="220" fill="white" transform="translate(0 0.5)"/>
</clipPath>
</defs>
</svg>
