<svg width="220" height="221" viewBox="0 0 220 221" fill="none" xmlns="http://www.w3.org/2000/svg">
<g clip-path="url(#clip0_4_5122)">
<path d="M110 220.5C170.751 220.5 220 171.251 220 110.5C220 49.7487 170.751 0.5 110 0.5C49.2487 0.5 0 49.7487 0 110.5C0 171.251 49.2487 220.5 110 220.5Z" fill="#2D9CDB"/>
<path fill-rule="evenodd" clip-rule="evenodd" d="M97.8097 60.4523C104.251 52.5804 106.883 48.7509 110.346 42.6666C113.739 48.9366 116.364 52.8072 122.535 60.4523H97.8097ZM124.274 63.8691C147.85 88.3854 153.834 92.7166 159.561 94.2772C139.649 91.8023 128.415 90.3997 109.653 80.6236L97.8097 94.3047L172.333 110.729C149.02 130.405 138.922 140.89 124.274 158.95H96.0783C83.6877 140.952 75.4251 135.108 59.5093 127.827C80.6887 129.766 92.463 131.059 109.653 141.165L122.542 126.796L47.666 110.729C65.0777 96.4841 75.2104 86.9829 96.0713 63.8691H124.274ZM109.999 180.167C113.448 174.082 116.087 170.253 122.535 162.381H97.8097C103.974 170.026 106.606 173.897 109.999 180.167Z" fill="white"/>
</g>
<defs>
<clipPath id="clip0_4_5122">
<rect width="220" height="220" fill="white" transform="translate(0 0.5)"/>
</clipPath>
</defs>
</svg>
