<svg width="220" height="221" viewBox="0 0 220 221" fill="none" xmlns="http://www.w3.org/2000/svg">
<g clip-path="url(#clip0_4_5125)">
<path d="M110 220.5C170.751 220.5 220 171.251 220 110.5C220 49.7487 170.751 0.5 110 0.5C49.2487 0.5 0 49.7487 0 110.5C0 171.251 49.2487 220.5 110 220.5Z" fill="#7012FE"/>
<path d="M93.7819 163.474C81.3517 164.894 72.3251 173.24 69.3655 177.236C67.8858 171.908 66.1693 158.857 71.1413 149.268C76.1133 139.679 108.728 132.25 124.413 129.735C105.62 125.591 68.0338 112.599 68.0338 93.7763C68.0338 70.2481 99.5528 60.9254 120.418 57.8179C137.11 55.3319 148.089 47.9034 151.493 44.5C151.197 50.8629 147.498 66.075 135.067 76.0192C122.637 85.9632 102.364 89.9291 93.7819 90.6688C112.427 93.6284 149.628 105.052 149.273 127.071C148.829 154.595 109.32 161.698 93.7819 163.474Z" fill="white"/>
<path d="M130.63 95.9962C127.078 93.8653 120.567 91.5567 117.756 90.6689C121.455 89.3371 130.097 86.052 135.07 83.566C140.042 81.08 145.724 74.5394 147.943 71.5798C148.387 74.8355 149.009 82.8557 147.943 88.8933C146.877 94.9306 142.172 100.583 139.952 102.655C138.325 101.323 134.182 98.127 130.63 95.9962Z" fill="white"/>
</g>
<defs>
<clipPath id="clip0_4_5125">
<rect width="220" height="220" fill="white" transform="translate(0 0.5)"/>
</clipPath>
</defs>
</svg>
