<svg width="220" height="221" viewBox="0 0 220 221" fill="none" xmlns="http://www.w3.org/2000/svg">
<g clip-path="url(#clip0_4_5129)">
<path d="M110 220.5C170.751 220.5 220 171.251 220 110.5C220 49.7487 170.751 0.5 110 0.5C49.2487 0.5 0 49.7487 0 110.5C0 171.251 49.2487 220.5 110 220.5Z" fill="#EDF0F4"/>
<path fill-rule="evenodd" clip-rule="evenodd" d="M110 28C112.785 28 115.537 28.138 118.251 28.4075V131.351L56.8938 61.7066V173.636C38.9204 158.503 27.5 135.835 27.5 110.5C27.5 64.9363 64.4365 28 110 28ZM192.5 110.5C192.5 72.2809 166.511 40.1319 131.242 30.7606V165.165L70.7784 96.1925V183.098C82.4437 189.414 95.803 193 110 193C155.563 193 192.5 156.063 192.5 110.5ZM142.875 105.569C142.444 108.41 143.285 110.87 145.127 112.46C146.892 113.985 149.27 114.441 151.447 114.006C153.572 113.579 155.057 112.271 156.12 110.927C157.068 109.729 157.839 108.295 158.48 107.102C158.536 106.998 158.591 106.895 158.645 106.794C159.382 105.429 159.963 104.419 160.601 103.725C161.164 103.112 161.594 102.938 162.076 102.938C164.239 102.938 165.125 103.62 165.529 104.154C166.007 104.784 166.236 105.767 166.111 106.947C165.93 108.675 164.181 110.034 162.393 110.034V114.984C166.162 114.984 170.533 112.226 171.034 107.466C171.24 105.509 170.958 103.121 169.475 101.163C167.917 99.1093 165.39 97.9882 162.076 97.9882C159.82 97.9882 158.157 99.0699 156.958 100.374C155.832 101.597 154.979 103.166 154.289 104.445L154.175 104.655C153.474 105.956 152.903 107.016 152.24 107.854C151.575 108.694 151.019 109.042 150.474 109.152C149.571 109.333 148.808 109.099 148.362 108.714C147.993 108.396 147.554 107.728 147.77 106.311C147.964 105.023 148.591 104.385 149.283 103.992C150.079 103.54 151.012 103.408 151.512 103.408V98.4581C150.415 98.4581 148.577 98.7007 146.838 99.6879C144.996 100.734 143.325 102.6 142.875 105.569ZM145.592 76.2088C143.731 78.6699 143.097 81.5634 142.883 83.9944C142.73 85.7383 142.787 87.5324 142.825 88.7655C142.84 89.1886 142.85 89.5461 142.85 89.8125V92.2875H145.325H168.339H170.409L170.775 90.2499C171.18 87.9934 171.168 84.8843 170.519 81.9191C169.882 79.0066 168.525 75.7611 165.831 73.7919C162.937 71.6775 158.731 71.217 155.14 71.6447C151.592 72.0673 147.657 73.4788 145.592 76.2088ZM166.093 87.3375H147.74C147.719 86.4413 147.721 85.4855 147.814 84.428C147.99 82.435 148.476 80.6016 149.54 79.1944C150.401 78.0562 152.691 76.9214 155.725 76.5601C158.717 76.2037 161.45 76.7216 162.91 77.7884C164.184 78.7192 165.156 80.5635 165.684 82.9765C166.011 84.4749 166.126 86.0101 166.093 87.3375ZM165.681 122.387C168.245 123.884 170.126 126.622 170.126 130.804C170.126 134.98 168.254 137.741 165.731 139.294C163.424 140.715 160.775 141.015 158.977 140.889H144.123V135.939H159.071H159.17L159.269 135.947C160.331 136.033 161.914 135.832 163.135 135.079C164.188 134.431 165.176 133.27 165.176 130.804C165.176 128.342 164.196 127.251 163.185 126.661C161.986 125.961 160.417 125.806 159.348 125.927L159.209 125.942H159.071H144.123V120.992H158.941C160.731 120.817 163.37 121.036 165.681 122.387Z" fill="url(#paint0_radial_4_5129)"/>
</g>
<defs>
<radialGradient id="paint0_radial_4_5129" cx="0" cy="0" r="1" gradientUnits="userSpaceOnUse" gradientTransform="translate(110 110.5) scale(82.4998 82.5)">
<stop stop-color="#6573AB"/>
<stop offset="1" stop-color="#57628F"/>
</radialGradient>
<clipPath id="clip0_4_5129">
<rect width="220" height="220" fill="white" transform="translate(0 0.5)"/>
</clipPath>
</defs>
</svg>
