<svg width="220" height="221" viewBox="0 0 220 221" fill="none" xmlns="http://www.w3.org/2000/svg">
<g clip-path="url(#clip0_4_5132)">
<path d="M110 220.5C170.751 220.5 220 171.251 220 110.5C220 49.7487 170.751 0.5 110 0.5C49.2487 0.5 0 49.7487 0 110.5C0 171.251 49.2487 220.5 110 220.5Z" fill="#EDF0F4"/>
<path d="M66.4899 53.6667L179.667 130.084L151.677 171L38.5 93.9811L66.4899 53.6667Z" fill="url(#paint0_linear_4_5132)"/>
<path d="M180.896 130.239C171.222 144.36 138.573 138.835 107.737 116.731C76.2974 95.241 59.3683 66.3832 68.4376 52.2614C78.1113 38.1396 110.76 43.6655 141.596 65.7692C173.036 86.645 189.964 116.117 180.896 130.239Z" fill="url(#paint1_linear_4_5132)"/>
<path d="M151.55 170.623C141.845 184.653 109.092 179.162 78.1576 157.203C47.2234 135.243 29.6333 107.184 39.3383 92.5442C49.043 78.5144 81.7968 84.0043 112.731 105.964C143.665 127.923 160.649 156.593 151.55 170.623Z" fill="url(#paint2_linear_4_5132)"/>
<path d="M179.217 129.602L151.212 170.825C141.471 184.768 108.596 178.706 77.5465 157.488C71.4586 153.245 65.9793 149.001 60.5 144.151C64.7616 143.545 70.2409 141.12 75.7201 135.058C85.461 124.752 90.3314 122.327 94.593 122.933C98.8548 122.933 103.725 127.177 111.64 137.483C119.554 147.789 130.513 150.82 137.209 145.364C137.818 144.757 138.427 144.757 139.036 144.151C144.515 139.908 146.341 138.089 156.691 118.69C159.126 113.84 167.65 105.959 179.217 109.596C182.261 117.477 182.261 124.146 179.217 129.602Z" fill="#0E0F23"/>
<path fill-rule="evenodd" clip-rule="evenodd" d="M174.074 128.079C165.604 140.252 135.96 134.166 107.526 114.079C78.4871 93.9926 61.5478 68.4281 70.0174 56.2546C78.4871 44.0811 108.131 50.1677 136.565 70.2543C164.999 90.3406 181.938 115.905 174.074 128.079ZM147.454 109.818C143.22 115.905 128.7 112.862 114.181 103.123C100.266 93.384 91.7965 80.6018 96.0315 74.5149C100.266 68.4281 114.786 71.4716 129.305 81.2105C143.22 90.9493 151.689 103.731 147.454 109.818Z" fill="white"/>
<path d="M63.9598 65.385C63.9598 64.8772 63.4098 64.3692 62.8598 64.8772C62.3098 65.385 61.7598 65.385 61.7598 65.893C62.3098 67.4167 62.8598 68.4326 62.8598 69.4484C62.8598 69.9562 63.4098 70.4643 63.9598 69.9562C64.5098 69.9562 65.0598 69.4484 64.5098 68.9404C64.5098 67.9245 64.5098 66.9089 63.9598 65.385Z" fill="white"/>
<path d="M67.7941 74.6992C67.7941 74.0869 67.1961 73.4747 66.598 74.0869C66 74.6992 66 74.6992 66 75.3116C72.5782 90.6181 86.3328 107.149 104.273 119.395C104.871 120.007 105.469 119.395 106.068 119.395C106.666 118.782 106.068 118.17 106.068 117.558C87.5288 105.312 74.3723 89.3936 67.7941 74.6992Z" fill="white"/>
<path d="M140.462 135.433C139.898 135.433 139.334 135.433 139.334 135.983C139.334 136.533 139.334 137.083 139.898 137.083C141.59 137.633 143.847 138.183 145.539 138.733C146.103 138.733 146.667 138.733 146.667 138.183C146.667 137.633 146.667 137.083 146.103 137.083C144.411 136.533 142.155 135.983 140.462 135.433Z" fill="white"/>
<path d="M151.513 137.428C150.923 137.428 150.334 137.978 150.334 138.528C150.334 139.078 150.923 139.628 151.513 139.628C156.227 140.178 161.53 140.728 165.655 140.178C166.245 140.178 166.834 139.628 166.834 139.078C166.834 138.528 166.245 137.978 165.655 137.978C160.941 138.528 156.227 137.978 151.513 137.428Z" fill="white"/>
</g>
<defs>
<linearGradient id="paint0_linear_4_5132" x1="42.8168" y1="52.1291" x2="58.5979" y2="129.698" gradientUnits="userSpaceOnUse">
<stop stop-color="#03B8FF"/>
<stop offset="1" stop-color="#FA52A0"/>
</linearGradient>
<linearGradient id="paint1_linear_4_5132" x1="60.0396" y1="44.6287" x2="74.4632" y2="123.834" gradientUnits="userSpaceOnUse">
<stop stop-color="#03B8FF"/>
<stop offset="1" stop-color="#FA52A0"/>
</linearGradient>
<linearGradient id="paint2_linear_4_5132" x1="21.8908" y1="55.5638" x2="36.3655" y2="134.279" gradientUnits="userSpaceOnUse">
<stop stop-color="#03B8FF"/>
<stop offset="1" stop-color="#FA52A0"/>
</linearGradient>
<clipPath id="clip0_4_5132">
<rect width="220" height="220" fill="white" transform="translate(0 0.5)"/>
</clipPath>
</defs>
</svg>
