<svg width="220" height="221" viewBox="0 0 220 221" fill="none" xmlns="http://www.w3.org/2000/svg">
<g clip-path="url(#clip0_4_5143)">
<path d="M110 220.5C170.751 220.5 220 171.251 220 110.5C220 49.7487 170.751 0.5 110 0.5C49.2487 0.5 0 49.7487 0 110.5C0 171.251 49.2487 220.5 110 220.5Z" fill="#EDF0F4"/>
<path fill-rule="evenodd" clip-rule="evenodd" d="M77.4355 97.8394C76.2541 96.6664 75.5898 95.0703 75.5898 93.4057C75.5898 91.7408 76.2541 90.1449 77.4355 88.9719L112.681 53.6517C115.154 51.2273 119.112 51.2273 121.586 53.6517C124.01 56.1248 124.01 60.0832 121.586 62.5565L86.3029 97.8394C85.13 99.0206 83.5339 99.685 81.8692 99.685C80.2043 99.685 78.6084 99.0206 77.4355 97.8394Z" fill="#242328"/>
<path fill-rule="evenodd" clip-rule="evenodd" d="M141.116 121.823C142.299 123.002 142.965 124.604 142.965 126.275C142.965 127.946 142.299 129.548 141.116 130.728L105.87 166.01C104.302 167.674 101.953 168.354 99.7386 167.787C97.5237 167.22 95.7914 165.495 95.215 163.282C94.6384 161.07 95.3089 158.719 96.9655 157.143L132.248 121.823C134.701 119.383 138.664 119.383 141.116 121.823ZM75.1523 129.306C72.7279 126.832 72.7279 122.874 75.1523 120.401L97.6016 97.9516C98.7746 96.7702 100.371 96.106 102.035 96.106C103.7 96.106 105.296 96.7702 106.469 97.9516C108.893 100.425 108.893 104.383 106.469 106.856L84.0198 129.306C81.5675 131.746 77.6044 131.746 75.1523 129.306Z" fill="#242328"/>
<path fill-rule="evenodd" clip-rule="evenodd" d="M143.397 90.3191C145.837 92.7713 145.837 96.7343 143.397 99.1865L120.948 121.636C119.372 123.292 117.021 123.963 114.809 123.387C112.596 122.81 110.871 121.078 110.304 118.863C109.737 116.648 110.417 114.3 112.08 112.731L134.53 90.2817C135.703 89.1004 137.299 88.436 138.963 88.436C140.628 88.436 142.224 89.1004 143.397 90.2817" fill="#A573FF"/>
</g>
<defs>
<clipPath id="clip0_4_5143">
<rect width="220" height="220" fill="white" transform="translate(0 0.5)"/>
</clipPath>
</defs>
</svg>
