<svg width="220" height="221" viewBox="0 0 220 221" fill="none" xmlns="http://www.w3.org/2000/svg">
<g clip-path="url(#clip0_4_5148)">
<path d="M110 220.5C170.751 220.5 220 171.251 220 110.5C220 49.7487 170.751 0.5 110 0.5C49.2487 0.5 0 49.7487 0 110.5C0 171.251 49.2487 220.5 110 220.5Z" fill="url(#paint0_linear_4_5148)"/>
<path fill-rule="evenodd" clip-rule="evenodd" d="M106.019 40.183C99.6322 40.9191 93.6938 43.8332 89.2038 48.4349C85.8327 51.7726 82.6394 55.1995 79.2237 58.5708C77.5139 60.3249 75.7858 62.031 74.0575 63.763C72.3293 65.4949 70.423 67.3343 68.6279 69.1517C66.8329 70.9689 65.3421 72.5637 63.6805 74.2511C61.0845 76.8473 58.4883 79.4433 55.8923 82.0653C53.9008 84.1236 51.9536 86.2488 49.9844 88.3034C48.8235 89.531 47.5736 90.6695 46.4796 91.9602C41.9645 97.4688 39.4968 104.371 39.4961 111.494C39.4961 111.913 39.4961 112.343 39.5221 112.759C39.6143 116.848 40.6879 120.856 42.6522 124.445C43.7705 126.613 45.0654 128.686 46.5242 130.642C47.4883 131.999 48.1894 131.977 49.4577 130.928C49.7001 130.726 49.9268 130.506 50.1364 130.271C51.3862 128.955 52.6101 127.642 53.8821 126.329C55.6771 124.445 57.5167 122.564 59.3117 120.658C61.1067 118.752 63.0537 116.653 64.9378 114.683C65.8352 113.719 66.7922 112.829 67.697 111.88C69.6218 109.843 71.5059 107.744 73.4307 105.731C75.3555 103.717 77.3062 101.833 79.1903 99.8633C81.0743 97.8942 83.3923 95.4835 85.5137 93.2952C87.635 91.1072 89.4337 89.2676 91.4031 87.2539C93.9657 84.6021 96.4618 81.8873 98.9984 79.2393C100.575 77.6186 102.195 76.0647 103.772 74.4662C105.96 72.2781 107.996 70.09 110.143 67.9019C112.29 65.7137 113.885 64.2452 115.725 62.361C119.836 58.2073 123.942 54.0289 128.041 49.8256C128.306 49.5647 128.554 49.2872 128.783 48.9949C129.792 47.7228 129.877 47.441 128.631 46.5434C126.728 45.0443 124.691 43.7247 122.545 42.6012C118.752 40.8273 114.616 39.9082 110.429 39.9086H110.221C108.822 39.9089 107.425 39.9968 106.038 40.1718L106.015 40.1497L106.019 40.183ZM142.249 67.1305H141.986C138.35 67.1317 134.899 68.7339 132.551 71.5105C132.344 71.7402 132.125 71.9593 131.895 72.1668L125.197 78.7349C123.009 80.9268 120.642 83.3115 118.343 85.6108C116.441 87.5135 114.534 89.3752 112.654 91.2815C110.774 93.1878 108.756 95.3092 106.72 97.3007C104.684 99.2923 102.518 101.38 100.415 103.431L92.9497 110.96L79.0717 124.841C72.9399 130.998 66.8168 137.142 60.7024 143.274C59.5231 144.435 59.5009 144.587 60.7024 145.833C63.636 148.8 66.6142 151.744 69.4586 154.734C71.2186 156.599 73.5413 157.837 76.0713 158.257C78.4583 158.737 80.9241 158.655 83.2735 158.016C85.0337 157.58 86.6584 156.715 88.0022 155.498L95.2712 148.477C96.9773 146.838 98.7093 145.217 100.393 143.552C103.764 140.214 107.091 136.854 110.462 133.538C113.199 130.846 116.003 128.176 118.781 125.483L130.178 114.375C133.723 110.893 137.291 107.392 140.881 103.91C141.368 103.185 142.219 102.791 143.087 102.888C143.955 102.986 144.698 103.558 145.012 104.373C146.837 107.038 147.813 110.193 147.812 113.422C147.812 113.975 147.783 114.527 147.727 115.077C147.433 118.333 146.09 121.405 143.9 123.833C141.27 126.659 138.47 129.329 135.741 132.044C133.793 133.969 131.802 135.853 129.851 137.8C127.333 140.296 124.859 142.836 122.341 145.332C121.97 145.747 121.622 146.185 121.228 146.578L118.755 149.141C116.9 150.995 115.013 152.798 113.192 154.656C111.371 156.514 109.279 158.687 107.332 160.716C107.158 160.912 106.961 161.042 106.787 161.216C104.595 163.252 102.581 165.296 100.5 167.347C99.5178 168.311 98.5756 169.294 97.6115 170.258C95.9499 171.946 94.2402 173.596 92.6419 175.317C91.659 176.344 91.659 176.978 92.8199 177.791C94.7256 179.254 96.7544 180.549 98.8834 181.662C104.18 184.057 110.049 184.893 115.803 184.07C121.514 183.391 126.871 180.951 131.131 177.086C134.368 174.241 137.261 171.045 140.28 167.981C142.468 165.789 144.66 163.449 147 161.194L153.327 154.823C155.256 152.875 157.158 150.925 159.109 149C161.06 147.075 163.485 144.776 165.673 142.606C167.862 140.437 170.053 138.23 172.242 135.908C173.986 134.132 175.598 132.229 177.063 130.215C179.794 126.088 181.499 121.368 182.036 116.449C182.333 114.005 182.333 111.534 182.036 109.091C181.385 104.742 179.809 100.584 177.415 96.8965C175.693 94.2871 173.633 91.9177 171.288 89.8499C165.225 83.8307 159.18 77.7669 153.249 71.6142C150.635 68.7033 146.907 67.0397 142.995 67.0377H142.913L142.257 67.1268L142.249 67.1305Z" fill="white"/>
</g>
<defs>
<linearGradient id="paint0_linear_4_5148" x1="-45.4076" y1="134.926" x2="131.136" y2="255.72" gradientUnits="userSpaceOnUse">
<stop stop-color="#FF3B3B"/>
<stop offset="1" stop-color="#FF9914"/>
</linearGradient>
<clipPath id="clip0_4_5148">
<rect width="220" height="220" fill="white" transform="translate(0 0.5)"/>
</clipPath>
</defs>
</svg>
