<svg width="220" height="221" viewBox="0 0 220 221" fill="none" xmlns="http://www.w3.org/2000/svg">
<g clip-path="url(#clip0_4_5151)">
<path d="M110 220.5C170.751 220.5 220 171.251 220 110.5C220 49.7487 170.751 0.5 110 0.5C49.2487 0.5 0 49.7487 0 110.5C0 171.251 49.2487 220.5 110 220.5Z" fill="#279457"/>
<path fill-rule="evenodd" clip-rule="evenodd" d="M123.97 53.7205L114.58 59.1173V104.314L119.706 107.228V72.7707L137.326 82.7545L140.726 84.6973L143.587 83.0782V80.3799L119.733 66.8884V62.0853L123.997 59.6569L148.713 73.6881V86.1813L136.841 92.8732L136.436 92.6844C135.75 92.3373 134.993 92.1525 134.224 92.1446C132.828 92.1439 131.492 92.7091 130.521 93.7108C129.549 94.7128 129.026 96.0656 129.07 97.4604C129.063 98.8271 129.599 100.141 130.56 101.113C131.522 102.084 132.83 102.634 134.196 102.641C136.837 102.624 139.033 100.603 139.269 97.973V97.5143L151.25 90.7416L162.367 97.0556V124.929L151.25 131.243L106.08 105.555V59.0632L96.6899 53.6666L66.8735 70.693V86.1544L53.166 93.9255V127.924L66.8735 135.722V151.211L96.6899 168.156L106.08 162.76V117.482L100.953 114.568V149.133L79.9332 137.206L77.073 138.826V141.524L100.926 155.015V159.792L96.663 162.22L71.9463 148.189V135.669L83.819 128.977L84.2236 129.165C84.9098 129.513 85.667 129.698 86.4362 129.705C87.8266 129.713 89.1613 129.158 90.1368 128.167C91.1124 127.177 91.6462 125.834 91.6171 124.444C91.6242 123.077 91.0882 121.763 90.1266 120.791C89.1652 119.82 87.8571 119.27 86.4901 119.263C83.8494 119.28 81.6536 121.3 81.4173 123.931V124.389L69.4368 131.162L58.3468 124.848V96.9745L69.4638 90.6605L114.607 116.348V162.841L123.997 168.237L153.84 151.292V135.749L167.548 127.978V93.9794L153.84 86.1813V70.693L123.97 53.7205ZM72.0002 73.715L96.7169 59.6838L100.98 62.1124V66.8074L72.0002 83.2401V73.715ZM101.007 72.7707L74.6985 87.6924L101.007 102.641V72.7707ZM119.761 119.263L146.069 134.211L119.761 149.133V119.263ZM119.761 155.096V159.737L119.706 159.792L123.97 162.22L148.74 148.189V138.664L119.761 155.096Z" fill="black"/>
<path fill-rule="evenodd" clip-rule="evenodd" d="M123.97 53.7205L114.58 59.1173V104.314L119.706 107.228V72.7707L137.326 82.7545L140.726 84.6973L143.587 83.0782V80.3799L119.733 66.8884V62.0853L123.997 59.6569L148.713 73.6881V86.1813L136.841 92.8732L136.436 92.6844C135.75 92.3373 134.993 92.1525 134.224 92.1446C132.828 92.1439 131.492 92.7091 130.521 93.7108C129.549 94.7128 129.026 96.0656 129.07 97.4604C129.063 98.8271 129.599 100.141 130.56 101.113C131.522 102.084 132.83 102.634 134.196 102.641C136.837 102.624 139.033 100.603 139.269 97.973V97.5143L151.25 90.7416L162.367 97.0556V124.929L151.25 131.243L106.08 105.555V59.0632L96.6899 53.6666L66.8735 70.693V86.1544L53.166 93.9255V127.924L66.8735 135.722V151.211L96.6899 168.156L106.08 162.76V117.482L100.953 114.568V149.133L79.9332 137.206L77.073 138.826V141.524L100.926 155.015V159.792L96.663 162.22L71.9463 148.189V135.669L83.819 128.977L84.2236 129.165C84.9098 129.513 85.667 129.698 86.4362 129.705C87.8266 129.713 89.1613 129.158 90.1368 128.167C91.1124 127.177 91.6462 125.834 91.6171 124.444C91.6242 123.077 91.0882 121.763 90.1266 120.791C89.1652 119.82 87.8571 119.27 86.4901 119.263C83.8494 119.28 81.6536 121.3 81.4173 123.931V124.389L69.4368 131.162L58.3468 124.848V96.9745L69.4638 90.6605L114.607 116.348V162.841L123.997 168.237L153.84 151.292V135.749L167.548 127.978V93.9794L153.84 86.1813V70.693L123.97 53.7205ZM72.0002 73.715L96.7169 59.6838L100.98 62.1124V66.8074L72.0002 83.2401V73.715ZM74.6985 87.6924L101.007 72.7707V102.641L74.6985 87.6924ZM119.761 119.263L146.069 134.211L119.761 149.133V119.263ZM119.761 159.737V155.096L148.74 138.664V148.189L123.97 162.22L119.706 159.792L119.761 159.737Z" fill="white"/>
</g>
<defs>
<clipPath id="clip0_4_5151">
<rect width="220" height="220" fill="white" transform="translate(0 0.5)"/>
</clipPath>
</defs>
</svg>
