<svg width="220" height="221" viewBox="0 0 220 221" fill="none" xmlns="http://www.w3.org/2000/svg">
<g clip-path="url(#clip0_4_5159)">
<path d="M110 220.5C170.751 220.5 220 171.251 220 110.5C220 49.7487 170.751 0.5 110 0.5C49.2487 0.5 0 49.7487 0 110.5C0 171.251 49.2487 220.5 110 220.5Z" fill="#EDF0F4"/>
<path d="M127.235 162.241L93.2422 161.694V108.956L109.828 86.7403L127.235 108.956V162.241Z" fill="url(#paint0_linear_4_5159)"/>
<path d="M125.983 109.647L98.4551 106.494L108.994 80.3191L109.311 80.1321L155.138 53.6694L171.652 83.2708L125.983 109.647Z" fill="url(#paint1_linear_4_5159)"/>
<path d="M93.2886 110.453L47.1445 83.8034L64.6232 55.1522L110.436 81.8597L121.234 106.465L93.2886 110.453Z" fill="url(#paint2_linear_4_5159)"/>
<path d="M109.83 166.963C103.538 166.963 98.7295 165.97 95.7925 165.135C93.8055 164.574 92.4234 162.716 92.4234 160.643L92.4091 109.345C92.3226 101.843 89.2416 95.4653 83.5114 90.8869C75.6359 84.6239 63.3693 82.3348 51.5201 84.9262C49.8211 85.3006 48.1222 84.7392 46.9833 83.4289C45.8474 82.1188 45.5306 80.3623 46.1354 78.7354C47.4888 75.1073 49.2165 70.8024 51.7648 66.3967C54.9178 60.94 58.1861 57.283 60.3745 55.1666C61.8575 53.7269 64.1611 53.4532 65.9607 54.49L109.254 79.484L109.269 79.4552L110.42 80.1464V80.1607C117.043 83.8321 124.055 84.3361 130.85 81.6581C140.209 77.9724 148.315 68.4986 152.015 56.9375C152.548 55.2818 153.872 54.0868 155.585 53.7557C157.284 53.4244 158.969 54.0292 160.077 55.3681C162.539 58.3484 165.405 62.0053 167.953 66.411C171.106 71.8678 172.647 76.5325 173.381 79.484C173.885 81.4852 172.978 83.6161 171.178 84.6527L127.625 109.805L126.445 110.496C120.124 114.34 116.237 120.2 115.2 127.414C113.775 137.319 117.936 149.01 126.056 157.936C127.222 159.232 127.582 160.974 127.021 162.615C126.459 164.257 125.091 165.409 123.378 165.696C119.505 166.301 114.912 166.963 109.83 166.963Z" fill="#44004E"/>
</g>
<defs>
<linearGradient id="paint0_linear_4_5159" x1="141.32" y1="117.991" x2="87.8269" y2="101.294" gradientUnits="userSpaceOnUse">
<stop stop-color="#44004E"/>
<stop offset="0.1" stop-color="#4C0056"/>
<stop offset="0.3" stop-color="#83008A"/>
<stop offset="0.5" stop-color="#EA00EB"/>
<stop offset="0.6" stop-color="#FF00FF"/>
<stop offset="1" stop-color="#FF00FF"/>
</linearGradient>
<linearGradient id="paint1_linear_4_5159" x1="111.747" y1="41.1147" x2="92.2155" y2="109.59" gradientUnits="userSpaceOnUse">
<stop stop-color="#44004E"/>
<stop offset="0.1" stop-color="#4C0056"/>
<stop offset="0.3" stop-color="#83008A"/>
<stop offset="0.5" stop-color="#EA00EB"/>
<stop offset="0.6" stop-color="#FF00FF"/>
<stop offset="1" stop-color="#FF00FF"/>
</linearGradient>
<linearGradient id="paint2_linear_4_5159" x1="50.1682" y1="111.778" x2="122.215" y2="103.868" gradientUnits="userSpaceOnUse">
<stop stop-color="#44004E"/>
<stop offset="0.1" stop-color="#4C0056"/>
<stop offset="0.3" stop-color="#83008A"/>
<stop offset="0.5" stop-color="#EA00EB"/>
<stop offset="0.6" stop-color="#FF00FF"/>
<stop offset="1" stop-color="#FF00FF"/>
</linearGradient>
<clipPath id="clip0_4_5159">
<rect width="220" height="220" fill="white" transform="translate(0 0.5)"/>
</clipPath>
</defs>
</svg>
