<svg width="220" height="221" viewBox="0 0 220 221" fill="none" xmlns="http://www.w3.org/2000/svg">
<g clip-path="url(#clip0_4_5165)">
<path d="M110 220.5C170.751 220.5 220 171.251 220 110.5C220 49.7487 170.751 0.5 110 0.5C49.2487 0.5 0 49.7487 0 110.5C0 171.251 49.2487 220.5 110 220.5Z" fill="url(#paint0_linear_4_5165)"/>
<path fill-rule="evenodd" clip-rule="evenodd" d="M148.412 60.0784C140.498 60.0784 133.707 63.2619 128.037 69.5989L95.0186 109.954L73.7646 135.908C72.8549 136.969 71.521 137.606 70.1262 137.606H40.7465C40.5342 137.576 40.3219 137.667 40.1702 137.849C40.0491 138 39.9884 138.182 39.9884 138.394V158.193C39.9581 158.405 40.0186 158.648 40.1702 158.83C40.2916 158.981 40.5342 159.103 40.7465 159.072H71.7331C79.6467 159.072 86.4383 155.858 92.108 149.461L110.118 127.479L128.128 149.461C133.767 155.858 140.498 159.072 148.412 159.072H179.338C179.55 159.103 179.762 159.012 179.914 158.83C180.035 158.678 180.096 158.496 180.096 158.284V138.485C180.126 138.273 180.035 138.03 179.914 137.849C179.793 137.697 179.55 137.576 179.338 137.606H149.958C148.624 137.636 147.32 137.03 146.441 136.029L124.702 109.5L146.35 83.1518C147.26 82.0602 148.594 81.4235 149.988 81.4539H179.368C179.58 81.4842 179.793 81.3932 179.944 81.2114C180.065 81.0598 180.126 80.8777 180.126 80.6656V60.8667C180.157 60.6241 180.096 60.412 179.944 60.2604C179.793 60.139 179.58 60.0481 179.368 60.0784H148.412ZM70.1262 81.4539C71.5512 81.4539 72.8853 82.0602 73.7646 83.1518L84.9223 96.8259L99.6273 78.9071L92.0778 69.6898C86.3776 63.2924 79.6162 60.0784 71.7938 60.0784H40.7465C40.5039 60.0481 40.2916 60.139 40.1097 60.3211C39.9581 60.4725 39.8672 60.6546 39.8672 60.8667V80.6656C39.8672 80.8777 39.9581 81.0598 40.1097 81.2114C40.2916 81.3628 40.5039 81.4539 40.7465 81.4539H70.1262Z" fill="#00D1FF"/>
</g>
<defs>
<linearGradient id="paint0_linear_4_5165" x1="80.9081" y1="0.499363" x2="80.9081" y2="58.7133" gradientUnits="userSpaceOnUse">
<stop stop-color="#090220"/>
<stop offset="1" stop-color="#170659"/>
</linearGradient>
<clipPath id="clip0_4_5165">
<rect width="220" height="220" fill="white" transform="translate(0 0.5)"/>
</clipPath>
</defs>
</svg>
