<svg width="220" height="221" viewBox="0 0 220 221" fill="none" xmlns="http://www.w3.org/2000/svg">
<g clip-path="url(#clip0_4_5168)">
<path d="M110 220.5C170.751 220.5 220 171.251 220 110.5C220 49.7487 170.751 0.5 110 0.5C49.2487 0.5 0 49.7487 0 110.5C0 171.251 49.2487 220.5 110 220.5Z" fill="#EDF0F4"/>
<path fill-rule="evenodd" clip-rule="evenodd" d="M162.468 92.3216C155.845 88.7891 147.897 88.7891 141.715 92.3216L110.365 110.425L141.715 128.529C148.338 132.061 156.286 132.061 162.468 128.529C169.091 124.996 173.065 117.931 173.065 110.425C173.065 102.919 169.091 95.8541 162.468 92.3216Z" fill="#050505"/>
<path fill-rule="evenodd" clip-rule="evenodd" d="M58.2632 92.3216C51.6399 95.8541 47.666 102.919 47.666 110.425C47.666 117.931 51.6399 124.555 58.2632 128.529C64.8865 132.061 72.8344 132.061 79.016 128.529L110.366 110.425L79.016 92.3216C72.3927 88.7891 64.4449 88.7891 58.2632 92.3216Z" fill="#050505"/>
<path fill-rule="evenodd" clip-rule="evenodd" d="M92.2605 162.086C95.793 168.71 102.858 172.242 110.364 172.242C117.871 172.242 124.935 168.268 128.468 162.086C132 155.463 132 147.957 128.468 141.334L110.364 110.425L92.2605 141.334C88.7283 147.957 88.7283 155.463 92.2605 162.086Z" fill="#050505"/>
<path fill-rule="evenodd" clip-rule="evenodd" d="M128.468 58.3222C124.935 52.1406 117.871 48.1667 110.364 48.1667C102.858 48.1667 95.793 52.1406 92.2605 58.3222C88.7283 64.9455 88.7283 72.4519 92.2605 79.0752L110.364 109.984L128.468 79.0752C132 72.8934 132 64.9455 128.468 58.3222Z" fill="#050505"/>
</g>
<defs>
<clipPath id="clip0_4_5168">
<rect width="220" height="220" fill="white" transform="translate(0 0.5)"/>
</clipPath>
</defs>
</svg>
