<svg width="220" height="221" viewBox="0 0 220 221" fill="none" xmlns="http://www.w3.org/2000/svg">
<g clip-path="url(#clip0_4_5174)">
<path d="M110 220.5C170.751 220.5 220 171.251 220 110.5C220 49.7487 170.751 0.5 110 0.5C49.2487 0.5 0 49.7487 0 110.5C0 171.251 49.2487 220.5 110 220.5Z" fill="#E7EFF3"/>
<path fill-rule="evenodd" clip-rule="evenodd" d="M154.776 97.1339C149.324 91.9753 141.624 87.678 131.634 84.9494H131.576C107.804 78.482 99.3348 93.7798 118.583 103.423C140.436 114.357 143.472 132.263 131.139 143.461C127.996 146.31 117.785 151.641 108.391 152.922C93.4736 154.991 76.9197 151.82 63.4648 147.546C70.7828 153.231 79.1457 157.423 88.0792 159.885C109.055 165.659 134.392 161.405 151.181 146.81C168.091 132.09 169.708 111.224 154.776 97.1339Z" fill="#008DD0"/>
<path fill-rule="evenodd" clip-rule="evenodd" d="M85.9384 62.621C109.499 53.0177 136.389 56.6629 156.543 72.1923C131.423 64.2041 111.934 64.8971 99.1477 70.0413L98.9602 70.1183C83.1713 76.5762 77.6999 89.7953 84.5716 101.749C88.2722 108.192 94.7976 113.009 101.414 116.315C118.911 125.078 113.531 138.499 94.5858 136.045C92.4832 135.765 90.4025 135.339 88.3589 134.77C51.156 124.612 45.7134 93.0195 68.8215 72.9286C73.9225 68.5764 79.7056 65.0938 85.9384 62.621Z" fill="#008DD0"/>
</g>
<defs>
<clipPath id="clip0_4_5174">
<rect width="220" height="220" fill="white" transform="translate(0 0.5)"/>
</clipPath>
</defs>
</svg>
