<svg width="220" height="221" viewBox="0 0 220 221" fill="none" xmlns="http://www.w3.org/2000/svg">
<g clip-path="url(#clip0_4_5178)">
<path d="M110 220.5C170.751 220.5 220 171.251 220 110.5C220 49.7487 170.751 0.5 110 0.5C49.2487 0.5 0 49.7487 0 110.5C0 171.251 49.2487 220.5 110 220.5Z" fill="#14C8FF"/>
<path fill-rule="evenodd" clip-rule="evenodd" d="M177.642 94.6723C178.604 89.3167 175.861 82.0223 171.509 78.4955L129.888 44.6842C125.536 41.1642 117.65 39.803 112.336 41.673L61.3233 59.5892C56.009 61.4592 50.8528 67.3855 49.8833 72.7755L40.5333 124.503C39.5503 129.893 42.3003 137.153 46.652 140.68L88.301 174.484C92.646 178.011 100.538 179.359 105.846 177.495L156.852 159.586C162.159 157.723 167.315 151.79 168.292 146.4L177.642 94.6723ZM130.197 91.2005L128.121 101.719L108.672 101.692L105.048 119.993C103.914 125.665 103.605 128.862 109.448 128.862H122.607L119.857 140.48H104.127C94.8322 140.48 88.7822 131.804 91.1885 119.567C92.1578 114.761 95.0385 101.74 95.0385 101.74H86.5272L88.294 92.6717C96.0399 89.6799 102.649 84.3288 107.187 77.3748H113.477L110.727 91.2348L130.197 91.2005Z" fill="white"/>
</g>
<defs>
<clipPath id="clip0_4_5178">
<rect width="220" height="220" fill="white" transform="translate(0 0.5)"/>
</clipPath>
</defs>
</svg>
