<svg width="220" height="221" viewBox="0 0 220 221" fill="none" xmlns="http://www.w3.org/2000/svg">
<g clip-path="url(#clip0_4_5181)">
<path d="M110 220.5C170.751 220.5 220 171.251 220 110.5C220 49.7487 170.751 0.5 110 0.5C49.2487 0.5 0 49.7487 0 110.5C0 171.251 49.2487 220.5 110 220.5Z" fill="black"/>
<path d="M181.281 85.75C186.121 104.67 90.7506 151.42 47.5206 162.53C4.29064 173.64 131.121 118.86 126.171 99.94C121.221 81.02 20.1306 96.53 63.3606 85.42C106.591 74.31 176.441 66.83 181.281 85.75Z" fill="url(#paint0_linear_4_5181)"/>
</g>
<defs>
<linearGradient id="paint0_linear_4_5181" x1="43.0331" y1="82.1673" x2="50.1301" y2="151.691" gradientUnits="userSpaceOnUse">
<stop stop-color="#00FF8F"/>
<stop offset="0.43" stop-color="#53FDB2"/>
<stop offset="1" stop-color="#68FCBB"/>
</linearGradient>
<clipPath id="clip0_4_5181">
<rect width="220" height="220" fill="white" transform="translate(0 0.5)"/>
</clipPath>
</defs>
</svg>
