<svg width="220" height="221" viewBox="0 0 220 221" fill="none" xmlns="http://www.w3.org/2000/svg">
<g clip-path="url(#clip0_4_5184)">
<path d="M110 0.5C108.199 0.5 106.4 0.544508 104.603 0.633524C102.804 0.722539 101.009 0.85372 99.2174 1.03175C97.4277 1.20744 95.6404 1.42764 93.8601 1.69234C92.0797 1.9547 90.3065 2.26392 88.5401 2.6153C86.7739 2.96668 85.0194 3.36022 83.2718 3.79826C81.5267 4.23397 79.7909 4.71419 78.0692 5.23658C76.3473 5.75895 74.6374 6.32351 72.9414 6.93022C71.2477 7.53692 69.568 8.18581 67.905 8.8745C66.2418 9.56321 64.5973 10.2917 62.9693 11.0624C61.3411 11.8308 59.7342 12.6413 58.146 13.4893C56.5602 14.3373 54.993 15.2251 53.4492 16.1504C51.9055 17.0757 50.3853 18.0384 48.8884 19.0387C47.3915 20.0389 45.9204 21.0766 44.4726 22.1473C43.0274 23.2201 41.6079 24.328 40.2164 25.4689C38.8249 26.612 37.464 27.7881 36.1286 28.9968C34.7957 30.2055 33.491 31.447 32.219 32.719C30.947 33.991 29.7055 35.2957 28.4968 36.6286C27.2881 37.964 26.112 39.3249 24.9689 40.7164C23.828 42.1079 22.7201 43.5274 21.6473 44.9726C20.5766 46.4204 19.5389 47.8915 18.5387 49.3884C17.5384 50.8853 16.5757 52.4055 15.6504 53.9492C14.7251 55.493 13.8373 57.0602 12.9893 58.646C12.1413 60.2342 11.3308 61.8411 10.5624 63.4693C9.79172 65.0973 9.06321 66.7418 8.3745 68.405C7.68581 70.068 7.03692 71.7477 6.43022 73.4414C5.82351 75.1374 5.25895 76.8473 4.73658 78.5692C4.21419 80.2909 3.73397 82.0267 3.29826 83.7718C2.86022 85.5194 2.46668 87.2739 2.1153 89.0401C1.76392 90.8065 1.4547 92.5797 1.19234 94.3601C0.927637 96.1404 0.707441 97.9277 0.531753 99.7174C0.35372 101.509 0.222539 103.304 0.133524 105.103C0.044508 106.9 0 108.699 0 110.5C0 112.299 0.044508 114.1 0.133524 115.897C0.222539 117.696 0.35372 119.491 0.531753 121.283C0.707441 123.072 0.927637 124.86 1.19234 126.64C1.4547 128.42 1.76392 130.193 2.1153 131.96C2.46668 133.726 2.86022 135.481 3.29826 137.228C3.73397 138.973 4.21419 140.709 4.73658 142.431C5.25895 144.153 5.82351 145.863 6.43022 147.559C7.03692 149.252 7.68581 150.932 8.3745 152.595C9.06321 154.258 9.79172 155.903 10.5624 157.531C11.3308 159.159 12.1413 160.766 12.9893 162.354C13.8373 163.94 14.7251 165.507 15.6504 167.051C16.5757 168.594 17.5384 170.115 18.5387 171.612C19.5389 173.109 20.5766 174.58 21.6473 176.027C22.7201 177.473 23.828 178.892 24.9689 180.284C26.112 181.675 27.2881 183.036 28.4968 184.371C29.7055 185.703 30.947 187.009 32.219 188.281C33.491 189.553 34.7957 190.795 36.1286 192.003C37.464 193.213 38.8249 194.388 40.2164 195.532C41.6079 196.672 43.0274 197.78 44.4726 198.852C45.9204 199.923 47.3915 200.96 48.8884 201.961C50.3853 202.962 51.9055 203.925 53.4492 204.849C54.993 205.775 56.5602 206.662 58.146 207.511C59.7342 208.358 61.3411 209.17 62.9693 209.938C64.5973 210.708 66.2418 211.436 67.905 212.125C69.568 212.815 71.2477 213.464 72.9414 214.07C74.6374 214.677 76.3473 215.238 78.0692 215.763C79.7909 216.285 81.5267 216.765 83.2718 217.202C85.0194 217.64 86.7739 218.034 88.5401 218.384C90.3065 218.736 92.0797 219.046 93.8601 219.308C95.6404 219.572 97.4277 219.792 99.2174 219.968C101.009 220.146 102.804 220.278 104.603 220.366C106.4 220.456 108.199 220.5 110 220.5C111.799 220.5 113.6 220.456 115.397 220.366C117.196 220.278 118.991 220.146 120.783 219.968C122.572 219.792 124.36 219.572 126.14 219.308C127.92 219.046 129.693 218.736 131.46 218.384C133.226 218.034 134.981 217.64 136.728 217.202C138.473 216.765 140.209 216.285 141.931 215.763C143.653 215.238 145.363 214.674 147.059 214.07C148.752 213.464 150.432 212.815 152.095 212.125C153.758 211.436 155.403 210.708 157.031 209.938C158.659 209.17 160.266 208.358 161.854 207.511C163.44 206.662 165.007 205.775 166.551 204.849C168.094 203.925 169.615 202.962 171.112 201.961C172.609 200.96 174.08 199.923 175.527 198.852C176.973 197.78 178.392 196.672 179.784 195.532C181.175 194.388 182.536 193.213 183.871 192.003C185.203 190.795 186.509 189.553 187.781 188.281C189.053 187.009 190.295 185.703 191.503 184.371C192.713 183.036 193.888 181.675 195.032 180.284C196.172 178.892 197.28 177.473 198.352 176.027C199.423 174.58 200.46 173.109 201.461 171.612C202.462 170.115 203.425 168.594 204.349 167.051C205.275 165.507 206.162 163.94 207.011 162.354C207.858 160.766 208.67 159.159 209.438 157.531C210.208 155.903 210.936 154.258 211.625 152.595C212.315 150.932 212.964 149.252 213.57 147.559C214.177 145.863 214.738 144.153 215.263 142.431C215.785 140.709 216.265 138.973 216.702 137.228C217.14 135.481 217.534 133.726 217.884 131.96C218.236 130.193 218.546 128.42 218.808 126.64C219.072 124.86 219.292 123.072 219.468 121.283C219.646 119.491 219.778 117.696 219.866 115.897C219.956 114.1 220 112.299 220 110.5C220 108.699 219.956 106.9 219.866 105.103C219.778 103.304 219.646 101.509 219.468 99.7174C219.292 97.9277 219.072 96.1404 218.808 94.3601C218.546 92.5797 218.236 90.8065 217.884 89.0401C217.534 87.2739 217.14 85.5194 216.702 83.7718C216.265 82.0267 215.785 80.2909 215.263 78.5692C214.738 76.8473 214.174 75.1374 213.57 73.4414C212.964 71.7477 212.315 70.068 211.625 68.405C210.936 66.7418 210.208 65.0973 209.438 63.4693C208.67 61.8411 207.858 60.2342 207.011 58.646C206.162 57.0602 205.275 55.493 204.349 53.9492C203.425 52.4055 202.462 50.8853 201.461 49.3884C200.46 47.8915 199.423 46.4204 198.352 44.9726C197.28 43.5274 196.172 42.1079 195.032 40.7164C193.888 39.3249 192.713 37.964 191.503 36.6286C190.295 35.2957 189.053 33.991 187.781 32.719C186.509 31.447 185.203 30.2055 183.871 28.9968C182.536 27.7881 181.175 26.612 179.784 25.4689C178.392 24.328 176.973 23.2201 175.527 22.1473C174.08 21.0766 172.609 20.0389 171.112 19.0387C169.615 18.0384 168.094 17.0757 166.551 16.1504C165.007 15.2251 163.44 14.3373 161.854 13.4893C160.266 12.6413 158.659 11.8308 157.031 11.0624C155.403 10.2917 153.758 9.56321 152.095 8.8745C150.432 8.18581 148.752 7.53692 147.059 6.93022C145.363 6.32351 143.653 5.75895 141.931 5.23658C140.209 4.71419 138.473 4.23397 136.728 3.79826C134.981 3.36022 133.226 2.96668 131.46 2.6153C129.693 2.26392 127.92 1.9547 126.14 1.69234C124.36 1.42764 122.572 1.20744 120.783 1.03175C118.991 0.85372 117.196 0.722539 115.397 0.633524C113.6 0.544508 111.799 0.5 110 0.5Z" fill="#571AFF"/>
<mask id="mask0_4_5184" style="mask-type:luminance" maskUnits="userSpaceOnUse" x="6" y="7" width="206" height="206">
<path fill-rule="evenodd" clip-rule="evenodd" d="M6.86133 7.83215H211.504V212.474H6.86133V7.83215Z" fill="white"/>
</mask>
<g mask="url(#mask0_4_5184)">
<path fill-rule="evenodd" clip-rule="evenodd" d="M73.6083 8.53957C53.6266 15.5039 35.4509 28.6595 23.3823 44.8907C22.9139 45.521 22.4735 46.0831 22.4031 46.1394C22.0916 46.3876 17.8704 52.8248 16.5094 55.1253C13.3165 60.5248 9.77464 68.2292 7.50006 74.7181L6.85352 76.5639L6.9074 111.079L6.96128 145.596L7.94044 148.053C8.47922 149.405 9.06719 150.927 9.24757 151.433C11.0607 156.575 15.5677 165.13 19.8779 171.612C23.6822 177.332 27.2427 181.668 32.5533 187.047C43.425 198.062 56.0699 206.297 70.5186 211.779L72.9008 212.683H146.475L149.34 211.577C160.406 207.309 169.748 201.82 179.856 193.644C182.306 191.662 190.001 184.079 191.611 182.059C192.238 181.27 193.222 180.073 193.791 179.396C195.705 177.131 199.443 171.993 200.75 169.836C200.864 169.649 201.676 168.311 202.558 166.866C203.438 165.42 205.19 162.162 206.45 159.627C208.749 155.01 209.011 154.439 209.865 152.15C210.117 151.475 210.458 150.616 210.623 150.246C211.796 147.587 211.706 150.84 211.712 110.678C211.713 70.4758 211.805 73.7624 210.623 71.0896C210.458 70.7194 210.023 69.6301 209.656 68.672C208.353 65.2708 204.769 58.14 202.239 53.9235C189.994 33.5039 170.724 17.6894 147.683 9.15097L144.134 7.83447L109.861 7.84384L75.5853 7.85086L73.6083 8.53957ZM54.6808 17.837C54.3317 18.1439 52.9496 18.9287 52.9496 18.8185C52.9496 18.76 53.3408 18.4765 53.8209 18.1908C54.7042 17.659 55.032 17.5255 54.6808 17.837ZM46.5991 23.0795C46.5991 23.1289 46.2991 23.3654 45.9337 23.609L45.2684 24.0494L45.8822 23.5199C46.5124 22.9789 46.5991 22.925 46.5991 23.0795ZM43.5257 25.3213C43.5257 25.3635 43.0899 25.7406 42.5534 26.1577L41.5814 26.9167L42.5019 26.0803C43.4155 25.2535 43.5257 25.1714 43.5257 25.3213ZM37.5849 30.2196C37.5849 30.2501 37.0556 30.7794 36.409 31.3955L35.2307 32.5153L36.3505 31.3393C37.3906 30.2429 37.5849 30.0673 37.5849 30.2196ZM184.875 32.9253C185.488 33.546 185.942 34.0519 185.885 34.0519C185.829 34.0519 185.282 33.546 184.672 32.9253C184.058 32.3067 183.603 31.7985 183.66 31.7985C183.717 31.7985 184.265 32.3067 184.875 32.9253ZM187.436 35.4855C187.992 36.0502 188.399 36.5116 188.342 36.5116C188.287 36.5116 187.785 36.0502 187.233 35.4855C186.677 34.9234 186.269 34.462 186.325 34.462C186.382 34.462 186.881 34.9234 187.436 35.4855ZM31.6444 36.1578C31.6444 36.1906 31.0236 36.8114 30.2622 37.5423L28.8803 38.8658L30.2061 37.4837C31.4359 36.2 31.6444 36.008 31.6444 36.1578ZM164.149 36.6966C166.239 37.6384 166.791 39.5381 165.73 42.1196C165.456 42.7802 163.043 47.3903 160.366 52.361C155.081 62.1691 154.568 63.2398 154.563 64.4742C154.554 66.4747 153.397 64.657 171.385 90.9002C185.631 111.683 184.604 109.872 184.408 113.824C184.219 117.678 180.148 141.246 179.425 142.684C178.085 145.347 177.974 145.38 163.06 147.444C153.858 148.718 153.591 148.859 152.727 152.843C151.853 156.868 152.6 156.266 126.903 173.664C119.688 178.548 123.506 177.342 94.2083 183.991C69.3262 189.641 69.2512 189.656 67.8199 189.335C64.8332 188.666 64.5474 188.195 60.6706 177.449C59.1455 173.226 55.7302 163.76 53.0784 156.416C50.4267 149.072 48.1053 142.527 47.9178 141.871C47.5243 140.496 47.112 118.542 47.2855 108.312C47.4072 101.177 47.6087 100.399 50.1785 97.2507C53.0667 93.7089 53.0715 93.7604 48.9719 84.8752C45.0669 76.407 43.7528 72.6778 44.0106 70.7897C44.3127 68.5876 44.7063 68.1755 54.9151 59.3159C65.5711 50.0677 66.035 49.7234 69.6846 48.3366L70.8746 47.8845L95.97 47.7791L121.063 47.6761L122.237 47.0997C123.703 46.3783 124.179 45.8044 126.088 42.4241C129.772 35.9048 128.962 36.1298 148.515 36.1719L163.06 36.2024L164.149 36.6966ZM136.13 43.2908C133.811 43.6913 133.104 44.3825 130.777 48.4983C128.695 52.1877 127.292 53.5979 124.956 54.3593C124.307 54.5702 118.699 54.6497 98.1203 54.7364L72.1044 54.8441L70.7716 55.4766C69.2418 56.2027 68.9045 56.4746 60.633 63.6497C49.8318 73.0151 50.2956 70.942 56.1518 83.6782C61.3897 95.0699 61.4084 95.454 56.9482 100.423C56.1892 101.268 55.325 102.421 55.0275 102.985L54.4863 104.009V121.524C54.4863 137.915 54.5097 139.126 54.8634 140.369C55.1937 141.531 61.8207 160.042 66.9696 174.188C69.9117 182.265 70.0665 182.352 78.2488 180.436C80.5023 179.909 84.7423 178.934 87.6727 178.271C119.472 171.085 117.184 171.705 120.859 169.279C125.802 166.013 143.003 154.143 143.771 153.467C145.036 152.354 145.664 150.962 146.168 148.161C147.145 142.717 147.468 142.52 157.826 141.082C175.182 138.669 173.044 140.608 175.677 124.904C177.935 111.463 178.361 113.494 171.015 102.779C168.312 98.8367 162.055 89.7102 157.11 82.4999C144.261 63.7621 144.882 66.3576 150.665 55.5633C156.161 45.3078 156.29 44.7642 153.533 43.504C152.692 43.1199 138.145 42.9419 136.13 43.2908ZM189.996 183.24C189.996 183.268 188.36 184.906 186.36 186.875L182.725 190.457L186.307 186.822C189.636 183.444 189.996 183.092 189.996 183.24ZM33.591 187.284C35.3924 189.084 36.819 190.56 36.7629 190.56C36.7066 190.56 35.1862 189.084 33.3871 187.284C31.5859 185.48 30.1592 184.006 30.2155 184.006C30.2718 184.006 31.792 185.48 33.591 187.284ZM57.0467 205.014C57.0467 205.071 56.7702 204.972 56.4329 204.798C56.0955 204.623 55.8169 204.433 55.8169 204.376C55.8169 204.321 56.0955 204.418 56.4329 204.592C56.7702 204.768 57.0467 204.957 57.0467 205.014ZM59.8273 206.49C59.7358 206.583 57.6627 205.549 57.6627 205.412C57.6627 205.359 58.1665 205.562 58.7825 205.865C59.3985 206.167 59.8695 206.449 59.8273 206.49Z" fill="#541BFC"/>
</g>
<path fill-rule="evenodd" clip-rule="evenodd" d="M53.8237 18.1907C53.3433 18.4765 52.9523 18.76 52.9523 18.8185C52.9523 18.9287 54.3342 18.1439 54.6833 17.837C55.0348 17.5255 54.7068 17.659 53.8237 18.1907ZM45.8848 23.5199L45.271 24.0494L45.9363 23.609C46.3019 23.3654 46.6016 23.1287 46.6016 23.0796C46.6016 22.925 46.5149 22.9789 45.8848 23.5199ZM42.5045 26.0804L41.584 26.9166L42.5562 26.1576C43.4087 25.4924 43.6617 25.2418 43.4791 25.244C43.4508 25.244 43.0129 25.6211 42.5045 26.0804ZM36.3531 31.3393L35.2333 32.5152L36.4116 31.3956C37.5057 30.3555 37.6813 30.161 37.529 30.161C37.4986 30.161 36.9691 30.6905 36.3531 31.3393ZM184.674 32.9251C185.287 33.5459 185.831 34.0519 185.888 34.0519C185.945 34.0519 185.49 33.5459 184.878 32.9251C184.267 32.3067 183.719 31.7984 183.662 31.7984C183.606 31.7984 184.06 32.3067 184.674 32.9251ZM187.236 35.4856C187.787 36.05 188.29 36.5115 188.345 36.5115C188.402 36.5115 187.995 36.05 187.439 35.4856C186.884 34.9233 186.385 34.4618 186.328 34.4618C186.271 34.4618 186.68 34.9233 187.236 35.4856ZM30.2087 37.4837L28.8828 38.8658L30.265 37.5424C31.0262 36.8114 31.6469 36.1906 31.6469 36.1578C31.6469 36.0079 31.4385 36.2 30.2087 37.4837ZM132.846 36.3289C130.047 36.7973 128.461 38.2286 126.09 42.4242C124.181 45.8043 123.706 46.3783 122.239 47.0997L121.066 47.6759L95.9725 47.7791L70.8771 47.8846L69.6871 48.3367C66.0375 49.7234 65.5737 50.0677 54.9176 59.316C44.7089 68.1753 44.3153 68.5877 44.0131 70.7897C43.7555 72.6776 45.0697 76.407 48.9747 84.8752C53.074 93.7604 53.0692 93.7089 50.181 97.2507C47.6112 100.399 47.4097 101.177 47.288 108.312C47.1146 118.542 47.5269 140.496 47.9205 141.871C48.1079 142.527 50.4292 149.072 53.081 156.416C55.7327 163.759 59.1482 173.226 60.6732 177.449C64.5499 188.195 64.8358 188.666 67.8224 189.335C69.2537 189.656 69.3287 189.641 94.2109 183.991C123.509 177.342 119.691 178.548 126.905 173.664C152.603 156.266 151.856 156.868 152.729 152.843C153.594 148.859 153.861 148.718 163.062 147.444C177.977 145.38 178.087 145.347 179.427 142.684C180.151 141.246 184.222 117.678 184.41 113.824C184.607 109.872 185.633 111.683 171.388 90.9002C153.399 64.657 154.557 66.4747 154.566 64.4742C154.571 63.2396 155.084 62.1692 160.368 52.361C163.046 47.3903 165.459 42.7802 165.733 42.1196C166.794 39.5381 166.241 37.6383 164.152 36.6967L163.062 36.2024L148.518 36.1719C140.457 36.1554 133.469 36.2258 132.846 36.3289ZM153.535 43.504C156.292 44.7642 156.164 45.3078 150.668 55.5633C144.884 66.3576 144.264 63.7621 157.112 82.4999C162.057 89.7102 168.314 98.8366 171.017 102.779C178.364 113.494 177.937 111.463 175.679 124.904C173.552 137.594 173.517 137.708 171.357 138.781C170.151 139.381 170.563 139.313 157.829 141.082C147.471 142.52 147.147 142.717 146.17 148.161C145.667 150.962 145.039 152.354 143.774 153.467C143.006 154.143 125.805 166.013 120.862 169.279C117.186 171.705 119.475 171.085 87.6754 178.271C84.7449 178.934 80.5049 179.909 78.2514 180.436C70.069 182.352 69.9145 182.266 66.9721 174.188C61.8232 160.042 55.1963 141.531 54.8661 140.369C54.5123 139.126 54.4888 137.915 54.4888 121.524V104.009L55.03 102.985C55.3275 102.421 56.192 101.268 56.9508 100.423C61.4111 95.4541 61.3922 95.0698 56.1544 83.6782C50.2982 70.9418 49.8343 73.015 60.6356 63.6496C68.907 56.4745 69.2444 56.2028 70.7741 55.4766L72.1069 54.8441L98.1231 54.7363C118.702 54.6497 124.31 54.57 124.959 54.3592C127.294 53.598 128.698 52.1878 130.78 48.4982C133.926 42.9302 133.53 43.0776 145.034 43.1362C151.673 43.1714 152.924 43.2251 153.535 43.504ZM186.31 186.822L182.728 190.457L186.363 186.875C188.363 184.906 189.998 183.268 189.998 183.24C189.998 183.092 189.639 183.444 186.31 186.822ZM33.3899 187.284C35.1889 189.084 36.7091 190.56 36.7654 190.56C36.8217 190.56 35.395 189.084 33.5936 187.284C31.7945 185.48 30.2743 184.006 30.218 184.006C30.1617 184.006 31.5884 185.48 33.3899 187.284ZM55.8194 204.376C55.8194 204.433 56.0983 204.622 56.4354 204.798C56.7728 204.972 57.0492 205.071 57.0492 205.014C57.0492 204.957 56.7728 204.768 56.4354 204.592C56.0983 204.418 55.8194 204.321 55.8194 204.376ZM57.6654 205.412C57.6654 205.549 59.7385 206.583 59.8298 206.49C59.872 206.449 59.4012 206.167 58.785 205.865C58.169 205.562 57.6654 205.359 57.6654 205.412Z" fill="#F7F5FC"/>
<path d="M41.346 31.166C40.8797 31.166 40.4137 31.1893 39.9475 31.2363C39.4837 31.2808 39.0222 31.3486 38.5653 31.4401C38.1063 31.5314 37.6542 31.6438 37.209 31.7797C36.7617 31.9155 36.3212 32.0726 35.8901 32.2528C35.4591 32.4309 35.0375 32.6301 34.6275 32.8503C34.2154 33.0705 33.8148 33.3094 33.426 33.5694C33.0393 33.8295 32.6646 34.1058 32.3038 34.4033C31.9432 34.6985 31.5963 35.0124 31.2661 35.3427C30.9357 35.6707 30.6243 36.0174 30.3267 36.378C30.0315 36.7388 29.7529 37.1136 29.4951 37.5024C29.2351 37.8891 28.9939 38.2896 28.7759 38.7018C28.5557 39.1141 28.3566 39.5334 28.1762 39.9668C27.9982 40.3978 27.8413 40.836 27.7054 41.2833C27.5696 41.7308 27.4572 42.1829 27.3659 42.6396C27.2744 43.0988 27.2066 43.5579 27.1596 44.0241C27.1151 44.488 27.0918 44.954 27.0918 45.4202C27.0918 45.8864 27.1151 46.3525 27.1596 46.8187C27.2066 47.2825 27.2744 47.744 27.3659 48.2008C27.4572 48.6599 27.5696 49.112 27.7054 49.5595C27.8413 50.0045 27.9982 50.4448 28.1762 50.876C28.3566 51.307 28.5557 51.7285 28.7759 52.1408C28.9939 52.5508 29.2351 52.9514 29.4951 53.3402C29.7529 53.7269 30.0315 54.1016 30.3267 54.4624C30.6243 54.823 30.9357 55.1697 31.2661 55.5001C31.5963 55.8304 31.9432 56.1419 32.3038 56.4395C32.6646 56.7346 33.0393 57.0133 33.426 57.2734C33.8148 57.531 34.2154 57.7723 34.6275 57.9925C35.0375 58.2103 35.4591 58.4118 35.8901 58.5898C36.3212 58.7678 36.7617 58.9249 37.209 59.0608C37.6542 59.1966 38.1063 59.309 38.5653 59.4003C39.0222 59.4918 39.4837 59.5596 39.9475 59.6065C40.4137 59.6511 40.8797 59.6744 41.346 59.6744C41.8122 59.6744 42.2782 59.6511 42.742 59.6065C43.2083 59.5596 43.6697 59.4918 44.1266 59.4003C44.5833 59.309 45.0377 59.1966 45.4829 59.0608C45.9302 58.9249 46.3684 58.7678 46.7994 58.5898C47.2326 58.4118 47.6543 58.2103 48.0642 57.9925C48.4765 57.7723 48.8771 57.531 49.2636 57.2734C49.6524 57.0133 50.0273 56.7346 50.3881 56.4395C50.7488 56.1419 51.0954 55.8304 51.4258 55.5001C51.7538 55.1697 52.0677 54.823 52.3652 54.4624C52.6604 54.1016 52.939 53.7269 53.1968 53.3402C53.4568 52.9514 53.6957 52.5508 53.9158 52.1408C54.136 51.7285 54.3351 51.307 54.5155 50.876C54.6935 50.4448 54.8505 50.0045 54.9865 49.5595C55.1224 49.112 55.2347 48.6599 55.326 48.2008C55.4175 47.744 55.4854 47.2825 55.5299 46.8187C55.5767 46.3525 55.6001 45.8864 55.6001 45.4202C55.6001 44.954 55.5767 44.488 55.5299 44.0241C55.4854 43.5579 55.4175 43.0988 55.326 42.6396C55.2347 42.1829 55.1224 41.7308 54.9865 41.2833C54.8505 40.836 54.6935 40.3978 54.5155 39.9668C54.3351 39.5334 54.136 39.1141 53.9158 38.7018C53.6957 38.2896 53.4568 37.8891 53.1968 37.5024C52.939 37.1136 52.6604 36.7388 52.3652 36.378C52.0677 36.0174 51.7538 35.6707 51.4258 35.3427C51.0954 35.0124 50.7488 34.6985 50.3881 34.4033C50.0273 34.1058 49.6524 33.8295 49.2636 33.5694C48.8771 33.3094 48.4765 33.0705 48.0642 32.8503C47.6543 32.6301 47.2326 32.4309 46.7994 32.2528C46.3684 32.0726 45.9302 31.9155 45.4829 31.7797C45.0377 31.6438 44.5833 31.5314 44.1266 31.4401C43.6697 31.3486 43.2083 31.2808 42.742 31.2363C42.2782 31.1893 41.8122 31.166 41.346 31.166Z" fill="#571AFF"/>
<path d="M47.6059 23.8032C47.1397 23.8032 46.6735 23.8243 46.2096 23.8712C45.746 23.9158 45.2844 23.986 44.8253 24.0751C44.3684 24.1664 43.9163 24.2812 43.469 24.417C43.0215 24.5505 42.5835 24.7074 42.1525 24.8878C41.7215 25.0658 41.2998 25.2649 40.8875 25.4853C40.4752 25.7055 40.0748 25.9444 39.6881 26.2043C39.2993 26.4643 38.9245 26.7408 38.5637 27.0383C38.2029 27.3335 37.8586 27.6474 37.5283 27.9777C37.1981 28.3079 36.8842 28.6524 36.589 29.013C36.2915 29.3738 36.015 29.7485 35.7551 30.1374C35.4951 30.5262 35.256 30.9246 35.0358 31.3368C34.8157 31.7491 34.6166 32.1707 34.4385 32.6018C34.2581 33.0328 34.1012 33.4709 33.9654 33.9183C33.8319 34.3658 33.7171 34.8179 33.6256 35.2746C33.5367 35.7338 33.4665 36.1953 33.422 36.6591C33.375 37.1229 33.3516 37.589 33.3516 38.0552C33.3516 38.5236 33.375 38.9898 33.422 39.4537C33.4665 39.9175 33.5367 40.3789 33.6256 40.838C33.7171 41.2949 33.8319 41.747 33.9654 42.1945C34.1012 42.6394 34.2581 43.0798 34.4385 43.5108C34.6166 43.9418 34.8157 44.3635 35.0358 44.7758C35.256 45.1881 35.4951 45.5863 35.7551 45.9752C36.015 46.364 36.2915 46.739 36.589 47.0996C36.8842 47.4604 37.1981 47.8047 37.5283 48.135C37.8586 48.4654 38.2029 48.7793 38.5637 49.0744C38.9245 49.3696 39.2993 49.6483 39.6881 49.9082C40.0748 50.1684 40.4752 50.4073 40.8875 50.6275C41.2998 50.8476 41.7215 51.0467 42.1525 51.2248C42.5835 51.4028 43.0215 51.5597 43.469 51.6957C43.9163 51.8316 44.3684 51.944 44.8253 52.0353C45.2844 52.1268 45.746 52.1946 46.2096 52.2415C46.6735 52.2883 47.1397 52.3094 47.6059 52.3094C48.0743 52.3094 48.5382 52.2883 49.0044 52.2415C49.4682 52.1946 49.9297 52.1268 50.3865 52.0353C50.8456 51.944 51.2977 51.8316 51.745 51.6957C52.1902 51.5597 52.6305 51.4028 53.0615 51.2248C53.4926 51.0467 53.9142 50.8476 54.3265 50.6275C54.7365 50.4073 55.1371 50.1684 55.5259 49.9082C55.9148 49.6483 56.2873 49.3696 56.6503 49.0744C57.0111 48.7793 57.3554 48.4654 57.6858 48.135C58.0159 47.8047 58.33 47.4604 58.6252 47.0996C58.9201 46.739 59.199 46.364 59.459 45.9752C59.7167 45.5863 59.958 45.1881 60.1782 44.7758C60.3984 44.3635 60.5975 43.9418 60.7755 43.5108C60.9535 43.0798 61.1104 42.6394 61.2463 42.1945C61.3823 41.747 61.4947 41.2949 61.586 40.838C61.6773 40.3789 61.7453 39.9175 61.7922 39.4537C61.8366 38.9898 61.8601 38.5236 61.8601 38.0552C61.8601 37.589 61.8366 37.1229 61.7922 36.6591C61.7453 36.1953 61.6773 35.7338 61.586 35.2746C61.4947 34.8179 61.3823 34.3658 61.2463 33.9183C61.1104 33.4709 60.9535 33.0328 60.7755 32.6018C60.5975 32.1707 60.3984 31.7491 60.1782 31.3368C59.958 30.9246 59.7167 30.5262 59.459 30.1374C59.199 29.7485 58.9201 29.3738 58.6252 29.013C58.33 28.6524 58.0159 28.3079 57.6858 27.9777C57.3554 27.6474 57.0111 27.3335 56.6503 27.0383C56.2873 26.7408 55.9148 26.4643 55.5259 26.2043C55.1371 25.9444 54.7365 25.7055 54.3265 25.4853C53.9142 25.2649 53.4926 25.0658 53.0615 24.8878C52.6305 24.7074 52.1902 24.5505 51.745 24.417C51.2977 24.2812 50.8456 24.1664 50.3865 24.0751C49.9297 23.986 49.4682 23.9158 49.0044 23.8712C48.5382 23.8243 48.0743 23.8032 47.6059 23.8032Z" fill="#571AFF"/>
<path d="M55.1467 20.0974C54.6783 20.0974 54.2145 20.1209 53.7483 20.1654C53.2844 20.2124 52.823 20.2802 52.3661 20.3715C51.9071 20.463 51.455 20.5754 51.0076 20.7112C50.5625 20.8471 50.1221 21.004 49.6911 21.182C49.2601 21.36 48.8384 21.5615 48.4261 21.7795C48.0162 21.9997 47.6156 22.2409 47.2267 22.4985C46.8379 22.7587 46.4654 23.0373 46.1046 23.3325C45.7439 23.6301 45.3973 23.9415 45.0669 24.2719C44.7365 24.6021 44.425 24.9488 44.1275 25.3096C43.8323 25.6704 43.5537 26.0451 43.2937 26.4316C43.0359 26.8206 42.7947 27.221 42.5745 27.6309C42.3543 28.0433 42.1552 28.4649 41.9772 28.8959C41.7992 29.327 41.6422 29.7673 41.5062 30.2148C41.3703 30.66 41.258 31.1121 41.1667 31.5711C41.0752 32.028 41.0073 32.4895 40.9604 32.9533C40.916 33.4193 40.8926 33.8855 40.8926 34.3518C40.8926 34.8178 40.916 35.284 40.9604 35.7478C41.0073 36.2141 41.0752 36.6731 41.1667 37.1324C41.258 37.5891 41.3703 38.0412 41.5062 38.4887C41.6422 38.936 41.7992 39.374 41.9772 39.8052C42.1552 40.2384 42.3543 40.6577 42.5745 41.07C42.7947 41.4823 43.0359 41.8829 43.2937 42.2694C43.5537 42.6582 43.8323 43.0331 44.1275 43.3938C44.425 43.7546 44.7365 44.1012 45.0669 44.4292C45.3973 44.7596 45.7439 45.0735 46.1046 45.3686C46.4654 45.6662 46.8379 45.9425 47.2267 46.2026C47.6156 46.4626 48.0162 46.7015 48.4261 46.9216C48.8384 47.1418 49.2601 47.3409 49.6911 47.5213C50.1221 47.6993 50.5625 47.8563 51.0076 47.9921C51.455 48.1282 51.9071 48.2405 52.3661 48.3318C52.823 48.4231 53.2844 48.4912 53.7483 48.5357C54.2145 48.5825 54.6783 48.6059 55.1467 48.6059C55.613 48.6059 56.0792 48.5825 56.5428 48.5357C57.009 48.4912 57.4683 48.4231 57.9274 48.3318C58.384 48.2405 58.8363 48.1282 59.2837 47.9921C59.731 47.8563 60.1692 47.6993 60.6002 47.5213C61.0312 47.3409 61.4529 47.1418 61.8652 46.9216C62.2773 46.7015 62.6779 46.4626 63.0645 46.2026C63.4534 45.9425 63.8281 45.6662 64.1889 45.3686C64.5497 45.0735 64.894 44.7596 65.2242 44.4292C65.5546 44.1012 65.8684 43.7546 66.1636 43.3938C66.4612 43.0331 66.7376 42.6582 66.9976 42.2694C67.2576 41.8829 67.4964 41.4823 67.7168 41.07C67.937 40.6577 68.1361 40.2384 68.3141 39.8052C68.4945 39.374 68.6514 38.936 68.7873 38.4887C68.9208 38.0412 69.0355 37.5891 69.127 37.1324C69.2183 36.6731 69.2861 36.2141 69.3307 35.7478C69.3776 35.284 69.4009 34.8178 69.4009 34.3518C69.4009 33.8855 69.3776 33.4193 69.3307 32.9533C69.2861 32.4895 69.2183 32.028 69.127 31.5711C69.0355 31.1121 68.9208 30.66 68.7873 30.2148C68.6514 29.7673 68.4945 29.327 68.3141 28.8959C68.1361 28.4649 67.937 28.0433 67.7168 27.6309C67.4964 27.221 67.2576 26.8206 66.9976 26.4316C66.7376 26.0451 66.4612 25.6704 66.1636 25.3096C65.8684 24.9488 65.5546 24.6021 65.2242 24.2719C64.894 23.9415 64.5497 23.6301 64.1889 23.3325C63.8281 23.0373 63.4534 22.7587 63.0645 22.4985C62.6779 22.2409 62.2773 21.9997 61.8652 21.7795C61.4529 21.5615 61.0312 21.36 60.6002 21.182C60.1692 21.004 59.731 20.8471 59.2837 20.7112C58.8363 20.5754 58.384 20.463 57.9274 20.3715C57.4683 20.2802 57.009 20.2124 56.5428 20.1654C56.0792 20.1209 55.613 20.0974 55.1467 20.0974Z" fill="#571AFF"/>
<path d="M61.8635 13.8125C61.3973 13.8125 60.9313 13.8359 60.4675 13.8804C60.0012 13.9273 59.5422 13.9952 59.0829 14.0866C58.6262 14.1779 58.1741 14.2904 57.7266 14.4262C57.2793 14.5621 56.8411 14.719 56.4101 14.8971C55.9767 15.0751 55.5574 15.2742 55.1453 15.4944C54.733 15.7146 54.3324 15.9559 53.9457 16.2136C53.5569 16.4736 53.1822 16.7523 52.8214 17.0475C52.4607 17.3427 52.1141 17.6566 51.7861 17.9869C51.4557 18.3171 51.1418 18.6615 50.8467 19.0245C50.5491 19.3853 50.2728 19.7578 50.0127 20.1467C49.7527 20.5355 49.5138 20.9361 49.2937 21.3461C49.0735 21.7584 48.8742 22.18 48.6962 22.6111C48.516 23.0421 48.3588 23.4824 48.223 23.9276C48.0871 24.3749 47.9748 24.827 47.8835 25.2861C47.792 25.7429 47.7241 26.2044 47.6796 26.6682C47.6327 27.1344 47.6094 27.5983 47.6094 28.0667C47.6094 28.5329 47.6327 28.9991 47.6796 29.4628C47.7241 29.9266 47.792 30.3882 47.8835 30.8473C47.9748 31.304 48.0871 31.7563 48.223 32.2036C48.3588 32.6509 48.516 33.0891 48.6962 33.5201C48.8742 33.9511 49.0735 34.3728 49.2937 34.7851C49.5138 35.1973 49.7527 35.5978 50.0127 35.9845C50.2728 36.3733 50.5491 36.7481 50.8467 37.1089C51.1418 37.4697 51.4557 37.814 51.7861 38.1441C52.1141 38.4745 52.4607 38.7884 52.8214 39.0836C53.1822 39.3811 53.5569 39.6576 53.9457 39.9175C54.3324 40.1775 54.733 40.4164 55.1453 40.6368C55.5574 40.8569 55.9767 41.056 56.4101 41.234C56.8411 41.4144 57.2793 41.5714 57.7266 41.7072C58.1741 41.8407 58.6262 41.9555 59.0829 42.047C59.5422 42.1383 60.0012 42.2061 60.4675 42.2506C60.9313 42.2976 61.3973 42.3209 61.8635 42.3209C62.3298 42.3209 62.7958 42.2976 63.262 42.2506C63.7258 42.2061 64.1873 42.1383 64.6442 42.047C65.1032 41.9555 65.5553 41.8407 66.0028 41.7072C66.4478 41.5714 66.8882 41.4144 67.3194 41.234C67.7504 41.056 68.1719 40.8569 68.5842 40.6368C68.9941 40.4164 69.3947 40.1775 69.7835 39.9175C70.1702 39.6576 70.5449 39.3811 70.9057 39.0836C71.2663 38.7884 71.613 38.4745 71.9434 38.1441C72.2738 37.814 72.5852 37.4697 72.8828 37.1089C73.178 36.7481 73.4566 36.3733 73.7168 35.9845C73.9744 35.5978 74.2156 35.1973 74.4358 34.7851C74.6536 34.3728 74.8551 33.9511 75.0331 33.5201C75.2111 33.0891 75.3682 32.6509 75.5041 32.2036C75.6399 31.7563 75.7523 31.304 75.8436 30.8473C75.9351 30.3882 76.0029 29.9266 76.0499 29.4628C76.0944 28.9991 76.1177 28.5329 76.1177 28.0667C76.1177 27.5983 76.0944 27.1344 76.0499 26.6682C76.0029 26.2044 75.9351 25.7429 75.8436 25.2861C75.7523 24.827 75.6399 24.3749 75.5041 23.9276C75.3682 23.4824 75.2111 23.0421 75.0331 22.6111C74.8551 22.18 74.6536 21.7584 74.4358 21.3461C74.2156 20.9361 73.9744 20.5355 73.7168 20.1467C73.4566 19.7578 73.178 19.3853 72.8828 19.0245C72.5852 18.6615 72.2738 18.3171 71.9434 17.9869C71.613 17.6566 71.2663 17.3427 70.9057 17.0475C70.5449 16.7523 70.1702 16.4736 69.7835 16.2136C69.3947 15.9559 68.9941 15.7146 68.5842 15.4944C68.1719 15.2742 67.7504 15.0751 67.3194 14.8971C66.8882 14.719 66.4478 14.5621 66.0028 14.4262C65.5553 14.2904 65.1032 14.1779 64.6442 14.0866C64.1873 13.9952 63.7258 13.9273 63.262 13.8804C62.7958 13.8359 62.3298 13.8125 61.8635 13.8125Z" fill="#571AFF"/>
<path d="M182.375 31.166C181.837 31.166 181.305 31.2199 180.778 31.323C180.251 31.4284 179.74 31.5829 179.244 31.789C178.747 31.9953 178.276 32.2459 177.831 32.5458C177.383 32.8432 176.971 33.1829 176.589 33.5624C176.21 33.9419 175.873 34.3564 175.573 34.8015C175.275 35.2491 175.022 35.7199 174.816 36.2165C174.612 36.7132 174.455 37.2237 174.352 37.7508C174.247 38.2779 174.195 38.8096 174.195 39.346C174.195 39.8824 174.247 40.4167 174.352 40.9414C174.455 41.4685 174.612 41.9814 174.816 42.4757C175.022 42.9723 175.275 43.4455 175.573 43.8905C175.873 44.338 176.21 44.7503 176.589 45.1298C176.971 45.5093 177.383 45.8488 177.831 46.1488C178.276 46.4461 178.747 46.6991 179.244 46.903C179.74 47.1093 180.251 47.2638 180.778 47.3692C181.305 47.4746 181.837 47.5262 182.375 47.5262C182.912 47.5262 183.444 47.4746 183.97 47.3692C184.498 47.2638 185.008 47.1093 185.505 46.903C186.002 46.6991 186.473 46.4461 186.918 46.1488C187.366 45.8488 187.78 45.5093 188.16 45.1298C188.539 44.7503 188.878 44.338 189.175 43.8905C189.474 43.4455 189.727 42.9723 189.932 42.4757C190.136 41.9814 190.294 41.4685 190.396 40.9414C190.501 40.4167 190.554 39.8824 190.554 39.346C190.554 38.8096 190.501 38.2779 190.396 37.7508C190.294 37.2237 190.136 36.7132 189.932 36.2165C189.727 35.7199 189.474 35.2491 189.175 34.8015C188.878 34.3564 188.539 33.9419 188.16 33.5624C187.78 33.1829 187.366 32.8432 186.918 32.5458C186.473 32.2459 186.002 31.9953 185.505 31.789C185.008 31.5829 184.498 31.4284 183.97 31.323C183.444 31.2199 182.912 31.166 182.375 31.166Z" fill="#571AFF"/>
<path d="M176.748 162.855C176.28 162.855 175.814 162.876 175.35 162.923C174.886 162.968 174.425 163.038 173.965 163.127C173.509 163.218 173.057 163.333 172.609 163.469C172.162 163.602 171.724 163.759 171.293 163.94C170.862 164.118 170.44 164.317 170.028 164.537C169.615 164.757 169.217 164.996 168.828 165.256C168.439 165.516 168.065 165.793 167.704 166.09C167.343 166.385 166.999 166.699 166.668 167.03C166.338 167.36 166.024 167.704 165.729 168.065C165.432 168.426 165.155 168.801 164.895 169.189C164.635 169.578 164.396 169.977 164.176 170.389C163.956 170.801 163.757 171.223 163.579 171.654C163.401 172.085 163.244 172.523 163.108 172.97C162.972 173.418 162.857 173.87 162.768 174.327C162.677 174.786 162.609 175.247 162.562 175.711C162.515 176.175 162.494 176.641 162.494 177.107C162.494 177.576 162.515 178.042 162.562 178.506C162.609 178.969 162.677 179.431 162.768 179.89C162.857 180.347 162.972 180.799 163.108 181.246C163.244 181.691 163.401 182.132 163.579 182.563C163.757 182.994 163.956 183.416 164.176 183.828C164.396 184.24 164.635 184.638 164.895 185.027C165.155 185.415 165.432 185.791 165.729 186.152C166.024 186.512 166.338 186.856 166.668 187.186C166.999 187.516 167.343 187.832 167.704 188.127C168.065 188.422 168.439 188.701 168.828 188.961C169.217 189.22 169.615 189.46 170.028 189.68C170.44 189.9 170.862 190.1 171.293 190.277C171.724 190.455 172.162 190.611 172.609 190.747C173.057 190.884 173.509 190.996 173.965 191.088C174.425 191.179 174.886 191.247 175.35 191.293C175.814 191.341 176.28 191.361 176.748 191.361C177.215 191.361 177.681 191.341 178.145 191.293C178.608 191.247 179.07 191.179 179.529 191.088C179.986 190.996 180.438 190.884 180.885 190.747C181.333 190.611 181.771 190.455 182.202 190.277C182.633 190.1 183.054 189.9 183.467 189.68C183.88 189.46 184.278 189.22 184.666 188.961C185.055 188.701 185.429 188.422 185.79 188.127C186.151 187.832 186.496 187.516 186.826 187.186C187.156 186.856 187.469 186.512 187.765 186.152C188.063 185.791 188.338 185.415 188.599 185.027C188.859 184.638 189.097 184.24 189.317 183.828C189.539 183.416 189.737 182.994 189.915 182.563C190.093 182.132 190.252 181.691 190.386 181.246C190.522 180.799 190.637 180.347 190.725 179.89C190.817 179.431 190.889 178.969 190.933 178.506C190.978 178.042 191 177.576 191 177.107C191 176.641 190.978 176.175 190.933 175.711C190.889 175.247 190.817 174.786 190.725 174.327C190.637 173.87 190.522 173.418 190.386 172.97C190.252 172.523 190.093 172.085 189.915 171.654C189.737 171.223 189.539 170.801 189.317 170.389C189.097 169.977 188.859 169.578 188.599 169.189C188.338 168.801 188.063 168.426 187.765 168.065C187.469 167.704 187.156 167.36 186.826 167.03C186.496 166.699 186.151 166.385 185.79 166.09C185.429 165.793 185.055 165.516 184.666 165.256C184.278 164.996 183.88 164.757 183.467 164.537C183.054 164.317 182.633 164.118 182.202 163.94C181.771 163.759 181.333 163.602 180.885 163.469C180.438 163.333 179.986 163.218 179.529 163.127C179.07 163.038 178.608 162.968 178.145 162.923C177.681 162.876 177.215 162.855 176.748 162.855Z" fill="#571AFF"/>
<path d="M179.899 159.168C179.43 159.168 178.964 159.191 178.5 159.236C178.036 159.283 177.575 159.351 177.116 159.442C176.659 159.534 176.207 159.646 175.76 159.782C175.312 159.918 174.874 160.075 174.443 160.253C174.012 160.431 173.59 160.63 173.178 160.85C172.766 161.07 172.368 161.312 171.979 161.569C171.59 161.829 171.215 162.108 170.854 162.403C170.494 162.698 170.149 163.012 169.819 163.343C169.488 163.673 169.175 164.017 168.879 164.378C168.582 164.739 168.306 165.114 168.046 165.502C167.785 165.891 167.547 166.289 167.326 166.702C167.106 167.114 166.907 167.536 166.729 167.967C166.551 168.398 166.394 168.838 166.258 169.283C166.122 169.731 166.008 170.183 165.919 170.642C165.827 171.099 165.759 171.56 165.712 172.024C165.666 172.49 165.645 172.954 165.645 173.422C165.645 173.889 165.666 174.355 165.712 174.818C165.759 175.282 165.827 175.744 165.919 176.203C166.008 176.66 166.122 177.112 166.258 177.559C166.394 178.007 166.551 178.445 166.729 178.876C166.907 179.307 167.106 179.728 167.326 180.141C167.547 180.553 167.785 180.951 168.046 181.34C168.306 181.729 168.582 182.104 168.879 182.465C169.175 182.825 169.488 183.17 169.819 183.5C170.149 183.83 170.494 184.145 170.854 184.438C171.215 184.737 171.59 185.014 171.979 185.272C172.368 185.533 172.766 185.773 173.178 185.993C173.59 186.213 174.012 186.411 174.443 186.589C174.874 186.77 175.312 186.926 175.76 187.06C176.207 187.196 176.659 187.311 177.116 187.403C177.575 187.491 178.036 187.562 178.5 187.606C178.964 187.654 179.43 187.674 179.899 187.674C180.365 187.674 180.831 187.654 181.295 187.606C181.759 187.562 182.22 187.491 182.679 187.403C183.136 187.311 183.588 187.196 184.036 187.06C184.483 186.926 184.921 186.77 185.352 186.589C185.783 186.411 186.205 186.213 186.617 185.993C187.03 185.773 187.427 185.533 187.816 185.272C188.205 185.014 188.581 184.737 188.94 184.438C189.301 184.145 189.646 183.83 189.976 183.5C190.306 183.17 190.621 182.825 190.916 182.465C191.213 182.104 191.49 181.729 191.749 181.34C192.009 180.951 192.249 180.553 192.469 180.141C192.689 179.728 192.887 179.307 193.067 178.876C193.245 178.445 193.404 178.007 193.536 177.559C193.674 177.112 193.787 176.66 193.877 176.203C193.969 175.744 194.038 175.282 194.082 174.818C194.13 174.355 194.15 173.889 194.15 173.422C194.15 172.954 194.13 172.49 194.082 172.024C194.038 171.56 193.969 171.099 193.877 170.642C193.787 170.183 193.674 169.731 193.536 169.283C193.404 168.838 193.245 168.398 193.067 167.967C192.887 167.536 192.689 167.114 192.469 166.702C192.249 166.289 192.009 165.891 191.749 165.502C191.49 165.114 191.213 164.739 190.916 164.378C190.621 164.017 190.306 163.673 189.976 163.343C189.646 163.012 189.301 162.698 188.94 162.403C188.581 162.108 188.205 161.829 187.816 161.569C187.427 161.312 187.03 161.07 186.617 160.85C186.205 160.63 185.783 160.431 185.352 160.253C184.921 160.075 184.483 159.918 184.036 159.782C183.588 159.646 183.136 159.534 182.679 159.442C182.22 159.351 181.759 159.283 181.295 159.236C180.831 159.191 180.365 159.168 179.899 159.168Z" fill="#571AFF"/>
<path d="M41.3422 171.056C41.0025 171.056 40.663 171.073 40.3257 171.106C39.9859 171.141 39.651 171.19 39.3184 171.255C38.9833 171.323 38.6555 171.405 38.3297 171.504C38.0041 171.602 37.6857 171.717 37.3718 171.846C37.0577 171.977 36.751 172.122 36.4511 172.281C36.1513 172.443 35.8584 172.616 35.5773 172.806C35.2939 172.994 35.0222 173.197 34.7598 173.413C34.4951 173.628 34.2445 173.856 34.0032 174.097C33.7642 174.336 33.5346 174.589 33.3192 174.851C33.1036 175.114 32.9021 175.385 32.7124 175.669C32.525 175.952 32.3494 176.243 32.1901 176.542C32.0307 176.842 31.8855 177.149 31.7543 177.463C31.6256 177.777 31.5108 178.096 31.4124 178.421C31.3115 178.747 31.2296 179.077 31.1639 179.41C31.0985 179.742 31.047 180.08 31.0142 180.417C30.9813 180.754 30.9648 181.094 30.9648 181.434C30.9648 181.773 30.9813 182.113 31.0142 182.45C31.047 182.79 31.0985 183.125 31.1639 183.458C31.2296 183.793 31.3115 184.121 31.4124 184.446C31.5108 184.772 31.6256 185.091 31.7543 185.406C31.8855 185.72 32.0307 186.028 32.1901 186.327C32.3494 186.625 32.525 186.917 32.7124 187.199C32.9021 187.482 33.1036 187.753 33.3192 188.019C33.5346 188.281 33.7642 188.532 34.0032 188.772C34.2445 189.012 34.4951 189.242 34.7598 189.456C35.0222 189.672 35.2939 189.874 35.5773 190.063C35.8584 190.252 36.1513 190.426 36.4511 190.585C36.751 190.747 37.0577 190.893 37.3718 191.022C37.6857 191.152 38.0041 191.266 38.3297 191.366C38.6555 191.464 38.9833 191.546 39.3184 191.612C39.651 191.678 39.9859 191.729 40.3257 191.762C40.663 191.795 41.0025 191.812 41.3422 191.812C41.682 191.812 42.0217 191.795 42.359 191.762C42.6985 191.729 43.0335 191.678 43.3662 191.612C43.6988 191.546 44.0292 191.464 44.3548 191.366C44.6804 191.266 44.999 191.152 45.3129 191.022C45.6267 190.893 45.9336 190.747 46.2334 190.585C46.5333 190.426 46.8237 190.252 47.1072 190.063C47.3906 189.874 47.6625 189.672 47.9248 189.456C48.1872 189.242 48.4402 189.012 48.6791 188.772C48.9203 188.532 49.1475 188.281 49.3631 188.019C49.5785 187.753 49.7824 187.482 49.9697 187.199C50.1595 186.917 50.3329 186.625 50.4944 186.327C50.6537 186.028 50.7989 185.72 50.9302 185.406C51.0591 185.091 51.1739 184.772 51.2721 184.446C51.3706 184.121 51.4549 183.793 51.5205 183.458C51.5862 183.125 51.6353 182.79 51.6705 182.45C51.7033 182.113 51.7196 181.773 51.7196 181.434C51.7196 181.094 51.7033 180.754 51.6705 180.417C51.6353 180.08 51.5862 179.742 51.5205 179.41C51.4549 179.077 51.3706 178.747 51.2721 178.421C51.1739 178.096 51.0591 177.777 50.9302 177.463C50.7989 177.149 50.6537 176.842 50.4944 176.542C50.3329 176.243 50.1595 175.952 49.9697 175.669C49.7824 175.385 49.5785 175.114 49.3631 174.851C49.1475 174.589 48.9203 174.336 48.6791 174.097C48.4402 173.856 48.1872 173.628 47.9248 173.413C47.6625 173.197 47.3906 172.994 47.1072 172.806C46.8237 172.616 46.5333 172.443 46.2334 172.281C45.9336 172.122 45.6267 171.977 45.3129 171.846C44.999 171.717 44.6804 171.602 44.3548 171.504C44.0292 171.405 43.6988 171.323 43.3662 171.255C43.0335 171.19 42.6985 171.141 42.359 171.106C42.0217 171.073 41.682 171.056 41.3422 171.056Z" fill="#571AFF"/>
<path d="M40.8948 160.517C40.4286 160.517 39.9624 160.541 39.4963 160.585C39.0325 160.632 38.571 160.7 38.1142 160.791C37.6551 160.883 37.203 160.995 36.7579 161.131C36.3105 161.267 35.87 161.424 35.439 161.602C35.008 161.78 34.5863 161.979 34.1764 162.199C33.7642 162.419 33.3636 162.661 32.9748 162.918C32.5881 163.178 32.2134 163.457 31.8526 163.752C31.492 164.048 31.1451 164.361 30.8149 164.692C30.4846 165.022 30.1731 165.366 29.8755 165.727C29.5804 166.088 29.3017 166.463 29.0439 166.852C28.784 167.24 28.5427 167.639 28.3247 168.051C28.1045 168.463 27.9054 168.885 27.725 169.316C27.547 169.747 27.3901 170.187 27.2542 170.632C27.1184 171.08 27.006 171.532 26.9147 171.991C26.8232 172.448 26.7554 172.909 26.7085 173.373C26.6639 173.839 26.6406 174.303 26.6406 174.772C26.6406 175.238 26.6639 175.704 26.7085 176.168C26.7554 176.632 26.8232 177.093 26.9147 177.552C27.006 178.009 27.1184 178.461 27.2542 178.908C27.3901 179.356 27.547 179.794 27.725 180.225C27.9054 180.656 28.1045 181.078 28.3247 181.49C28.5427 181.902 28.784 182.3 29.0439 182.689C29.3017 183.078 29.5804 183.453 29.8755 183.814C30.1731 184.174 30.4846 184.519 30.8149 184.849C31.1451 185.179 31.492 185.492 31.8526 185.788C32.2134 186.086 32.5881 186.363 32.9748 186.622C33.3636 186.882 33.7642 187.12 34.1764 187.342C34.5863 187.562 35.008 187.76 35.439 187.938C35.87 188.12 36.3105 188.275 36.7579 188.409C37.203 188.545 37.6551 188.66 38.1142 188.752C38.571 188.84 39.0325 188.912 39.4963 188.956C39.9624 189.003 40.4286 189.023 40.8948 189.023C41.361 189.023 41.827 189.003 42.2909 188.956C42.7571 188.912 43.2185 188.84 43.6754 188.752C44.1321 188.66 44.5866 188.545 45.0317 188.409C45.479 188.275 45.9172 188.12 46.3482 187.938C46.7814 187.76 47.2031 187.562 47.613 187.342C48.0254 187.12 48.4259 186.882 48.8124 186.622C49.2013 186.363 49.5762 186.086 49.937 185.788C50.2976 185.492 50.6443 185.179 50.9746 184.849C51.3026 184.519 51.6165 184.174 51.914 183.814C52.2092 183.453 52.4879 183.078 52.7456 182.689C53.0056 182.3 53.2445 181.902 53.4647 181.49C53.6849 181.078 53.884 180.656 54.0644 180.225C54.2424 179.794 54.3993 179.356 54.5353 178.908C54.6712 178.461 54.7836 178.009 54.8749 177.552C54.9664 177.093 55.0342 176.632 55.0787 176.168C55.1255 175.704 55.149 175.238 55.149 174.772C55.149 174.303 55.1255 173.839 55.0787 173.373C55.0342 172.909 54.9664 172.448 54.8749 171.991C54.7836 171.532 54.6712 171.08 54.5353 170.632C54.3993 170.187 54.2424 169.747 54.0644 169.316C53.884 168.885 53.6849 168.463 53.4647 168.051C53.2445 167.639 53.0056 167.24 52.7456 166.852C52.4879 166.463 52.2092 166.088 51.914 165.727C51.6165 165.366 51.3026 165.022 50.9746 164.692C50.6443 164.361 50.2976 164.048 49.937 163.752C49.5762 163.457 49.2013 163.178 48.8124 162.918C48.4259 162.661 48.0254 162.419 47.613 162.199C47.2031 161.979 46.7814 161.78 46.3482 161.602C45.9172 161.424 45.479 161.267 45.0317 161.131C44.5866 160.995 44.1321 160.883 43.6754 160.791C43.2185 160.7 42.7571 160.632 42.2909 160.585C41.827 160.541 41.361 160.517 40.8948 160.517Z" fill="#571AFF"/>
<path d="M68.5024 196.177C67.5654 196.177 66.6377 196.218 65.7218 196.295C64.8035 196.372 63.911 196.487 63.0466 196.639C62.1822 196.793 61.3601 196.978 60.5822 197.202C59.8045 197.424 59.0831 197.675 58.4225 197.956C57.7596 198.24 57.1693 198.546 56.6492 198.876C56.1292 199.21 55.6911 199.558 55.3326 199.928C54.9742 200.297 54.7049 200.676 54.5221 201.067C54.3395 201.457 54.248 201.853 54.248 202.251C54.248 202.651 54.3395 203.047 54.5221 203.437C54.7049 203.828 54.9742 204.207 55.3326 204.576C55.6911 204.946 56.1292 205.294 56.6492 205.628C57.1693 205.958 57.7596 206.264 58.4225 206.548C59.0831 206.829 59.8045 207.08 60.5822 207.302C61.3601 207.526 62.1822 207.711 63.0466 207.865C63.911 208.017 64.8035 208.132 65.7218 208.209C66.6377 208.286 67.5654 208.327 68.5024 208.327C69.437 208.327 70.3647 208.286 71.283 208.209C72.2011 208.132 73.0914 208.017 73.9556 207.865C74.8201 207.711 75.6423 207.526 76.42 207.302C77.1977 207.08 77.9193 206.829 78.5799 206.548C79.2428 206.264 79.8331 205.958 80.3532 205.628C80.8732 205.294 81.3112 204.946 81.6696 204.576C82.028 204.207 82.2999 203.828 82.4825 203.437C82.6629 203.047 82.7542 202.651 82.7542 202.251C82.7542 201.853 82.6629 201.457 82.4825 201.067C82.2999 200.676 82.028 200.297 81.6696 199.928C81.3112 199.558 80.8732 199.21 80.3532 198.876C79.8331 198.546 79.2428 198.24 78.5799 197.956C77.9193 197.675 77.1977 197.424 76.42 197.202C75.6423 196.978 74.8201 196.793 73.9556 196.639C73.0914 196.487 72.2011 196.372 71.283 196.295C70.3647 196.218 69.437 196.177 68.5024 196.177Z" fill="#571AFF"/>
</g>
<defs>
<clipPath id="clip0_4_5184">
<rect width="220" height="220" fill="white" transform="translate(0 0.5)"/>
</clipPath>
</defs>
</svg>
