<svg width="220" height="221" viewBox="0 0 220 221" fill="none" xmlns="http://www.w3.org/2000/svg">
<g clip-path="url(#clip0_4_5202)">
<path d="M110 220.5C170.751 220.5 220 171.251 220 110.5C220 49.7487 170.751 0.5 110 0.5C49.2487 0.5 0 49.7487 0 110.5C0 171.251 49.2487 220.5 110 220.5Z" fill="#302C2C"/>
<path fill-rule="evenodd" clip-rule="evenodd" d="M184.543 109.307C184.164 108.536 183.661 107.833 183.057 107.225C169.902 92.2748 143.129 62.8333 143.129 62.8333L109.121 100.159L74.6773 63.1873C74.6773 63.1873 47.5928 92.8855 34.3202 107.995C32.5912 109.702 32.5912 112.784 34.1403 114.602C41.036 122.487 74.9056 159.965 74.9056 159.965L109.072 122.39L143.004 160L183.929 114.568C183.929 114.568 184.793 113.665 184.98 113.062C185.381 111.812 185.09 110.452 184.543 109.307ZM53.1881 113.464C52.0815 112.152 52.455 110.091 53.4855 108.849C57.8151 103.9 75.1406 85.2512 75.1406 85.2512L99.2788 110.965L75.0992 137.506C75.0992 137.506 60.2981 121.654 53.1881 113.464ZM161.997 116.802C162.665 116.04 163.258 115.215 163.767 114.339L163.76 114.332C164.514 112.798 164.881 110.952 164.307 109.293C164.088 108.606 163.633 108.061 163.184 107.524C163.08 107.399 162.976 107.274 162.875 107.148C156.588 99.4791 142.866 85.2163 142.866 85.2163L119.046 111.417L143.253 137.242L161.997 116.802Z" fill="white"/>
</g>
<defs>
<clipPath id="clip0_4_5202">
<rect width="220" height="220" fill="white" transform="translate(0 0.5)"/>
</clipPath>
</defs>
</svg>
