<svg width="220" height="221" viewBox="0 0 220 221" fill="none" xmlns="http://www.w3.org/2000/svg">
<g clip-path="url(#clip0_4_5205)">
<path d="M110 220.5C170.751 220.5 220 171.251 220 110.5C220 49.7487 170.751 0.5 110 0.5C49.2487 0.5 0 49.7487 0 110.5C0 171.251 49.2487 220.5 110 220.5Z" fill="#EDF0F4"/>
<path d="M183.201 168.921V168.848C183.204 168.815 183.204 168.783 183.201 168.751L111.632 50.995L111.534 50.8491C111.266 50.4342 110.843 50.1432 110.359 50.0406C109.876 49.9379 109.371 50.0319 108.957 50.302C108.738 50.4384 108.548 50.6159 108.398 50.8249L108.3 50.9829C103.502 58.9095 98.6719 66.8157 93.8089 74.7016C92.8257 76.1159 92.8257 77.9923 93.8089 79.4065C100.236 89.8618 106.643 100.321 113.03 110.785C114.098 112.314 114.098 114.348 113.03 115.878C102.501 133.19 91.3774 151.39 80.7519 168.775C80.2665 169.688 80.6084 170.823 81.5179 171.316C81.7869 171.46 82.0877 171.536 82.3931 171.534H113.261C113.952 171.539 114.589 171.16 114.914 170.55L115.972 168.775L130.281 145.263C130.517 144.825 130.919 144.5 131.396 144.361C131.874 144.222 132.387 144.279 132.822 144.521C133.082 144.658 133.304 144.859 133.466 145.105L147.641 168.203L148.954 170.355C149.285 170.953 149.913 171.325 150.596 171.328H151.459C151.604 171.34 151.751 171.34 151.896 171.328H181.463C182.492 171.328 183.328 170.497 183.335 169.468C183.318 169.28 183.273 169.095 183.201 168.921Z" fill="black"/>
<path d="M100.918 117.046L101.952 115.344C102.825 114.091 102.825 112.427 101.952 111.174L95.6057 100.889L88.3114 89.1324C88.0525 88.7074 87.6342 88.404 87.1498 88.2898C86.6654 88.1754 86.1554 88.2601 85.7339 88.5246C85.4534 88.692 85.2226 88.9312 85.0653 89.2176L36.886 168.787C36.4015 169.697 36.7439 170.828 37.6518 171.316C37.9215 171.471 38.2282 171.551 38.5393 171.547H66.8416C67.5252 171.546 68.1543 171.174 68.4828 170.574L69.5648 168.775C69.6136 168.709 69.6583 168.64 69.6985 168.568L70.9142 166.623C80.9925 149.907 90.6456 133.944 100.748 117.313C100.811 117.228 100.868 117.138 100.918 117.046Z" fill="black"/>
</g>
<defs>
<clipPath id="clip0_4_5205">
<rect width="220" height="220" fill="white" transform="translate(0 0.5)"/>
</clipPath>
</defs>
</svg>
