<svg width="220" height="221" viewBox="0 0 220 221" fill="none" xmlns="http://www.w3.org/2000/svg">
<g clip-path="url(#clip0_4_5209)">
<path d="M110 220.5C170.751 220.5 220 171.251 220 110.5C220 49.7487 170.751 0.5 110 0.5C49.2487 0.5 0 49.7487 0 110.5C0 171.251 49.2487 220.5 110 220.5Z" fill="#1B2D45"/>
<path fill-rule="evenodd" clip-rule="evenodd" d="M172.262 101.579V74.573L110.004 38.5494L77.8382 57.164L103.301 72.0653L96.9832 76.1163L71.2797 60.9737L47.7461 74.6212L47.8425 146.62L80.1048 165.09V135.866L86.2774 139.435V168.611L110.39 182.548L172.31 146.379V108.861L147.233 123.569V116.432L172.262 101.579ZM79.9117 93.1395L83.3357 91.2587L108.702 105.919L135.708 90.8247L139.758 93.1395V97.1903L114.199 112.043V142.425L110.004 145.27L106.725 142.955V113.876L79.9117 98.203V93.1395ZM93.5593 128.317L93.6075 128.343H93.5593V128.317ZM93.5593 120.965V128.317L67.0841 113.731V142.811L60.188 138.904L60.0434 82.0961L70.6527 75.7786L77.163 79.8295L66.7948 86.0986L66.843 105.292L93.5593 120.965ZM159.772 131.333V139.194L109.811 167.936L99.298 161.715V154.24L110.004 160.268L127.172 150.334V119.422L133.634 115.274L133.827 146.379L159.772 131.333ZM108.895 91.1623L135.563 75.7304L152.634 85.9539V98.2512L159.579 94.1522V82.1925L110.004 53.4508L103.397 57.3087L129.004 72.1136L102.963 87.4972L108.895 91.1623Z" fill="#719CD0"/>
</g>
<defs>
<clipPath id="clip0_4_5209">
<rect width="220" height="220" fill="white" transform="translate(0 0.5)"/>
</clipPath>
</defs>
</svg>
