<svg width="220" height="221" viewBox="0 0 220 221" fill="none" xmlns="http://www.w3.org/2000/svg">
<g clip-path="url(#clip0_4_5229)">
<path d="M110 220.5C170.753 220.5 220 171.253 220 110.5C220 49.747 170.753 0.5 110 0.5C49.247 0.5 0 49.747 0 110.5C0 171.253 49.247 220.5 110 220.5Z" fill="#EDF0F4"/>
<path d="M103.977 150.662C97.7561 141.538 102.076 132.69 105.014 129.406C107.917 126.088 115.21 121.803 118.494 120.074C131.973 123.185 159.035 130.236 159.45 133.554C159.968 137.701 156.858 141.203 151.155 146.515C145.452 151.826 129.381 164.141 123.678 165.178C117.975 166.215 111.754 162.067 103.977 150.662Z" fill="#2D46A9"/>
<path d="M86.3571 90.0052C78.8916 86.2725 74.9516 76.0075 73.9147 71.3416C72.1866 71.8599 69.5598 71.4452 72.8777 65.6387C77.0253 58.3807 110.205 48.5304 130.943 56.8253C147.533 63.4614 152.717 71.6872 153.235 74.9705C134.053 81.5374 93.8227 93.738 86.3571 90.0052Z" fill="#2D46A9"/>
<path d="M71.2824 116.397C66.3055 109.762 56.7663 96.3513 52.6187 90.4756C51.5818 93.2406 49.5081 100.326 49.5081 106.547C49.5081 114.324 48.9896 129.358 56.2478 142.319C62.0543 152.688 77.3308 162.193 84.2434 165.649C84.9345 163.402 86.0059 156.939 84.7616 149.059C83.2064 139.209 77.5037 124.692 71.2824 116.397Z" fill="#6294F1"/>
<path d="M84.2434 102.918C78.0221 89.4389 90.9831 78.5518 100.315 73.3675C106.191 70.2569 120.949 64.0356 132.976 64.0356C148.011 64.0356 157.343 73.3673 163.046 86.8467C168.748 100.326 171.859 121.063 164.601 129.877C157.343 138.69 137.642 131.951 129.347 128.321C121.052 124.692 90.4646 116.397 84.2434 102.918Z" fill="#6294F1"/>
<path d="M76.4678 78.0331C69.0025 81.7658 59.5324 84.0815 55.7305 84.7728C57.8043 80.9709 62.9886 72.3304 67.136 68.1828C72.3205 62.9985 82.1706 57.2957 88.3919 57.2957C94.6131 57.2957 93.0579 62.9985 90.9842 66.1091C88.9103 69.2197 85.7997 73.3673 76.4678 78.0331Z" fill="#6294F1"/>
<path d="M129.348 163.575C126.445 160.257 131.94 153.897 135.051 151.132C139.613 147.814 154.233 142.492 160.972 140.245C158.38 144.22 151.952 153.206 146.975 157.353C140.753 162.538 132.977 167.722 129.348 163.575Z" fill="#6294F1"/>
</g>
<defs>
<clipPath id="clip0_4_5229">
<rect width="220" height="220" fill="white" transform="translate(0 0.5)"/>
</clipPath>
</defs>
</svg>
