<svg width="220" height="221" viewBox="0 0 220 221" fill="none" xmlns="http://www.w3.org/2000/svg">
<g clip-path="url(#clip0_4_5212)">
<path d="M110 220.5C170.751 220.5 220 171.251 220 110.5C220 49.7487 170.751 0.5 110 0.5C49.2487 0.5 0 49.7487 0 110.5C0 171.251 49.2487 220.5 110 220.5Z" fill="#172852"/>
<path d="M88.6068 49.6592C101.488 44.8412 115.986 44.8302 129.109 48.7902C146.192 54.0922 160.613 66.9842 168.148 83.1652C170.227 87.7742 172.218 92.5812 172.416 97.7072C162.813 92.1412 152.286 88.5332 141.737 85.2442C124.863 79.1612 107.197 74.9372 91.2248 66.5772C87.5068 64.3552 82.7658 62.0782 81.7538 57.4472C81.3468 53.4432 85.5818 51.2102 88.6068 49.6592Z" fill="#FFD83D"/>
<path d="M49.7175 88.5992C53.4465 78.4792 59.5625 69.0852 67.8675 62.1222C69.9795 79.4912 77.3714 96.2772 89.5814 108.905C104.222 124.118 125.078 133.457 146.297 133.105C154.723 133.369 162.962 131.422 171.179 129.849C163.094 159.065 131.073 178.458 101.406 173.794C83.4984 171.506 66.9655 160.902 56.9885 145.931C45.7355 129.387 42.8975 107.42 49.7175 88.5992Z" fill="#FFD83D"/>
<path d="M141.732 85.2442C152.281 88.5332 162.808 92.1412 172.411 97.7072L173.06 98.0482C173.951 104.747 174.6 111.578 173.412 118.288C168.583 116.242 164.667 112.645 160.575 109.466C152.699 102.91 144.658 95.4082 141.732 85.2442Z" fill="#FF6F03"/>
</g>
<defs>
<clipPath id="clip0_4_5212">
<rect width="220" height="220" fill="white" transform="translate(0 0.5)"/>
</clipPath>
</defs>
</svg>
