<svg width="220" height="221" viewBox="0 0 220 221" fill="none" xmlns="http://www.w3.org/2000/svg">
<g clip-path="url(#clip0_4_5217)">
<path d="M110 220.5C170.751 220.5 220 171.251 220 110.5C220 49.7487 170.751 0.5 110 0.5C49.2487 0.5 0 49.7487 0 110.5C0 171.251 49.2487 220.5 110 220.5Z" fill="#EDF0F4"/>
<path d="M147.583 70.4024C144.822 71.9969 134.735 72.4875 134.015 72.7328C133.054 72.9781 114.923 72.9781 114.563 72.7328C114.323 72.6101 111.681 70.7704 110.48 69.9118C110.12 69.6665 110 69.5439 110 69.5439C110 69.5439 111.801 69.0533 114.443 68.3174C121.167 66.6003 133.535 63.4114 135.816 63.7793C137.257 64.0246 139.298 64.3926 141.339 65.1285C142.18 65.7417 143.021 66.355 143.861 66.9682C144.942 67.8268 145.902 68.6853 146.863 69.5439C147.103 69.9118 147.343 70.1571 147.583 70.4024Z" fill="url(#paint0_linear_4_5217)"/>
<path d="M56.9543 96.8175C72.9567 93.6806 88.9591 89.82 105.082 87.0453C121.325 84.2703 140.095 80.7716 157.18 82.5813C157.421 82.5813 157.661 82.5813 157.902 82.7019C158.263 83.4259 158.744 84.1497 159.105 84.8737C161.872 90.1819 163.797 95.8522 164.64 102.005C164.76 102.97 164.88 104.056 165.001 105.021C164.399 105.745 163.677 106.469 163.075 107.193C160.549 107.072 158.143 107.072 155.616 107.193C155.375 107.193 155.014 107.193 154.774 107.313C152.247 101.281 138.651 102.85 132.755 103.815C125.656 104.78 118.558 105.987 111.459 107.313C110.857 107.434 110.135 107.555 109.534 107.676C105.924 108.279 102.194 109.003 98.5847 109.606C83.0635 112.26 71.5129 114.673 62.1281 116C62.0076 115.397 61.7671 114.914 61.6467 114.311C61.4061 113.467 61.1654 112.501 60.8044 111.657C60.4436 110.692 60.2029 109.727 59.8419 108.761C59.12 106.831 58.5185 104.78 57.9169 102.85C57.4355 101.402 57.0747 99.9543 56.834 98.5065" fill="url(#paint1_linear_4_5217)"/>
<path d="M143.916 66.795C134.758 64.6549 124.756 66.2006 115.357 68.4597C113.791 68.8162 112.104 69.2918 110.537 69.6486C108.609 70.1241 106.681 70.5997 104.874 71.1943C98.6078 72.8587 92.3416 74.761 86.0756 76.3067C82.2196 77.2578 77.8815 78.8035 73.7846 78.3279C71.4951 78.0901 68.603 77.4956 66.916 76.3067C72.9411 68.6974 81.0145 62.7527 90.4137 59.1857C96.5592 56.8079 103.307 55.5 110.296 55.5C121.864 55.5 132.589 59.0669 141.506 65.0117C142.349 65.6061 143.073 66.2006 143.916 66.795Z" fill="url(#paint2_linear_4_5217)"/>
<path d="M154.001 143.811C152.205 146.22 150.29 148.389 148.136 150.438C145.982 152.486 143.708 154.294 141.314 155.981C136.287 159.475 130.662 162.006 124.677 163.693C123.959 163.934 123.241 164.054 122.523 164.174C118.693 165.018 114.623 165.5 110.434 165.5C104.929 165.5 99.6625 164.656 94.6355 163.211C93.5584 162.849 92.4811 162.488 91.5238 162.126C87.4543 160.56 83.6243 158.632 80.0337 156.222C78.7172 155.258 77.4005 154.294 76.084 153.33C76.3234 153.45 76.5627 153.45 76.8021 153.571C86.0181 155.86 96.0719 154.294 105.647 152.004C109.237 151.161 112.828 150.076 116.179 149.233C122.403 147.546 128.627 145.497 134.97 143.811C138.8 142.726 143.229 141.28 147.178 141.762C148.136 141.883 149.093 142.003 150.171 142.244C151.607 142.606 153.043 143.087 154.001 143.811Z" fill="#61C0E2"/>
<path d="M110.917 107.761C110.434 107.884 109.951 108.13 109.467 108.253C109.347 108.253 109.226 108.253 109.226 108.375C100.047 111.322 90.748 114.023 81.3279 115.987C74.927 117.338 68.2847 118.811 61.7632 116.969C59.4686 116.355 57.1738 115.251 55.1208 113.654C55.1208 112.795 55 111.813 55 110.954C55 106.779 55.4831 102.605 56.3284 98.6763C56.4492 98.1853 56.5701 97.6942 56.6907 97.203C57.4154 96.9575 58.0193 96.8347 58.7438 96.5892C68.4055 94.5021 78.9125 97.0804 88.0911 100.15C95.5788 102.605 103.187 105.306 110.917 107.761Z" fill="url(#paint3_linear_4_5217)"/>
<path d="M164.76 104.783C164.88 106.591 164.999 108.279 164.999 110.087C164.999 112.377 164.88 114.547 164.64 116.717C163.324 116.958 161.888 116.958 160.452 116.837C143.701 115.753 127.428 111.895 111.395 107.073C111.275 107.073 111.036 106.953 110.916 106.953C111.395 106.832 111.754 106.712 112.232 106.471C123.36 102.613 134.488 97.9121 146.214 96.9478C151.359 96.4656 157.102 96.7067 161.769 99.4793C162.487 99.9614 163.563 100.685 164.401 101.649C164.521 102.854 164.64 103.819 164.76 104.783Z" fill="url(#paint4_linear_4_5217)"/>
<path d="M163.166 124.108C161.364 131.458 158 138.086 153.556 143.87C151.754 146.28 149.832 148.449 147.669 150.498C148.51 149.172 149.111 147.967 149.591 146.762C149.952 145.677 150.312 144.593 150.072 143.508C149.952 143.026 149.832 142.665 149.712 142.303C147.429 137.122 138.179 138.568 134.095 139.411C125.806 141.098 117.637 143.147 109.468 145.075C93.0102 149.051 82.679 152.305 74.5102 152.667C69.2244 148.208 64.7796 142.665 61.416 136.399C64.7796 135.917 68.8641 135.194 73.6693 133.868C87.244 130.374 100.578 126.036 114.153 122.782C126.767 119.769 141.543 115.913 154.517 118.926C158.121 119.769 161.004 121.577 163.166 124.108Z" fill="url(#paint5_linear_4_5217)"/>
<path d="M141.166 156.127C136.156 159.734 130.55 162.345 124.586 164.086C123.871 164.335 123.155 164.459 122.439 164.583L94.7673 163.589C93.6937 163.216 92.6203 162.842 91.666 162.469C96.4371 161.972 102.282 161.102 108.842 159.609C110.631 159.236 112.539 158.739 114.567 158.117C129 154.138 137.349 153.392 141.166 156.127Z" fill="url(#paint6_linear_4_5217)"/>
<path d="M124.667 163.617C123.944 163.868 123.222 163.994 122.499 164.119C118.646 164.998 114.551 165.5 110.337 165.5C104.797 165.5 99.4989 164.621 94.4412 163.115C93.3576 162.739 92.2737 162.362 91.3103 161.985C87.2161 160.354 83.3626 158.345 79.75 155.835C84.5667 154.956 93.2371 155.207 108.651 159.098C113.347 160.228 118.646 161.734 124.667 163.617Z" fill="url(#paint7_linear_4_5217)"/>
<path d="M157.384 83.0902C157.744 83.8114 158.224 84.5328 158.584 85.254C157.984 84.4125 157.264 83.6911 156.664 82.9699C140.344 66.1393 108.184 77.5601 102.544 78.8825C96.4239 80.3251 73.264 87.5382 59.584 88.5C61.504 84.172 63.9041 80.2049 66.784 76.4781C72.784 68.7841 80.8241 62.7732 90.184 59.1666C96.4239 61.2104 102.544 63.7349 108.184 66.1393C110.104 66.9808 112.144 67.7021 114.064 68.3032C114.424 68.4235 114.664 68.5438 115.024 68.5438C120.784 70.347 126.784 71.4289 133.024 71.4289C136.984 71.4289 142.744 71.5491 146.584 69.5053C146.824 69.7459 147.064 69.9862 147.424 70.2268C151.264 74.0736 154.744 78.4016 157.384 83.0902Z" fill="url(#paint8_linear_4_5217)"/>
</g>
<defs>
<linearGradient id="paint0_linear_4_5217" x1="109.97" y1="72.9764" x2="147.604" y2="72.9764" gradientUnits="userSpaceOnUse">
<stop offset="0.211" stop-color="#61BFE1"/>
<stop offset="0.9997" stop-color="#736C94"/>
</linearGradient>
<linearGradient id="paint1_linear_4_5217" x1="30.9548" y1="119.936" x2="165.073" y2="119.936" gradientUnits="userSpaceOnUse">
<stop offset="0.3795" stop-color="#078B7B"/>
<stop offset="0.9091" stop-color="#4DB0B7"/>
</linearGradient>
<linearGradient id="paint2_linear_4_5217" x1="66.9285" y1="78.3367" x2="143.935" y2="78.3367" gradientUnits="userSpaceOnUse">
<stop stop-color="#F1E931"/>
<stop offset="0.1119" stop-color="#ECE735"/>
<stop offset="0.2515" stop-color="#DCE242"/>
<stop offset="0.4059" stop-color="#C3D957"/>
<stop offset="0.571" stop-color="#9FCD74"/>
<stop offset="0.7427" stop-color="#72BD99"/>
<stop offset="0.8663" stop-color="#4DB0B7"/>
</linearGradient>
<linearGradient id="paint3_linear_4_5217" x1="56.6632" y1="128.894" x2="168.302" y2="123.657" gradientUnits="userSpaceOnUse">
<stop stop-color="#61BFE1"/>
<stop offset="0.0931388" stop-color="#63B4D7"/>
<stop offset="0.2566" stop-color="#6A97BC"/>
<stop offset="0.4519" stop-color="#736C94"/>
</linearGradient>
<linearGradient id="paint4_linear_4_5217" x1="153.397" y1="94.1925" x2="103.773" y2="125.5" gradientUnits="userSpaceOnUse">
<stop stop-color="#804C88"/>
<stop offset="0.2619" stop-color="#6C5F8B"/>
<stop offset="0.658" stop-color="#51788F"/>
<stop offset="0.8911" stop-color="#61C1E3"/>
</linearGradient>
<linearGradient id="paint5_linear_4_5217" x1="61.3889" y1="152.677" x2="163.136" y2="152.677" gradientUnits="userSpaceOnUse">
<stop stop-color="#F1E931"/>
<stop offset="0.1373" stop-color="#EDE834"/>
<stop offset="0.2777" stop-color="#E1E33E"/>
<stop offset="0.4194" stop-color="#CCDC4F"/>
<stop offset="0.5622" stop-color="#AFD267"/>
<stop offset="0.7058" stop-color="#8AC585"/>
<stop offset="0.8481" stop-color="#5EB6A9"/>
<stop offset="0.8963" stop-color="#4DB0B7"/>
</linearGradient>
<linearGradient id="paint6_linear_4_5217" x1="91.5687" y1="164.609" x2="141.126" y2="164.609" gradientUnits="userSpaceOnUse">
<stop offset="0.2004" stop-color="#F1E931"/>
<stop offset="0.9285" stop-color="#4DB0B7"/>
</linearGradient>
<linearGradient id="paint7_linear_4_5217" x1="79.807" y1="165.532" x2="124.609" y2="165.532" gradientUnits="userSpaceOnUse">
<stop stop-color="#804C88"/>
<stop offset="0.2619" stop-color="#6C5F8B"/>
<stop offset="0.658" stop-color="#51788F"/>
<stop offset="0.8911" stop-color="#61C1E3"/>
</linearGradient>
<linearGradient id="paint8_linear_4_5217" x1="44.399" y1="57.9288" x2="44.399" y2="96.2759" gradientUnits="userSpaceOnUse">
<stop offset="0.1684" stop-color="#44518C"/>
<stop offset="0.9831" stop-color="#008181"/>
</linearGradient>
<clipPath id="clip0_4_5217">
<rect width="220" height="220" fill="white" transform="translate(0 0.5)"/>
</clipPath>
</defs>
</svg>
