<svg width="220" height="221" viewBox="0 0 220 221" fill="none" xmlns="http://www.w3.org/2000/svg">
<g clip-path="url(#clip0_4_5237)">
<path d="M216.683 137.11C201.993 196.038 142.307 231.902 83.3712 217.207C24.4598 202.515 -11.4034 142.826 3.29433 83.9016C17.9792 24.966 77.6648 -10.8997 136.583 3.79159C195.514 18.4829 231.376 78.1776 216.683 137.11Z" fill="#50AF95"/>
<path fill-rule="evenodd" clip-rule="evenodd" d="M123.92 122.971C123.142 123.029 119.123 123.269 110.159 123.269C103.029 123.269 97.9672 123.055 96.1913 122.971C68.6377 121.759 48.0714 116.962 48.0714 111.22C48.0714 105.477 68.6377 100.687 96.1913 99.4553V118.194C97.9931 118.323 103.153 118.628 110.282 118.628C118.838 118.628 123.123 118.272 123.894 118.2V99.4683C151.389 100.693 171.91 105.49 171.91 111.22C171.91 116.949 151.396 121.746 123.894 122.964L123.92 122.971ZM123.92 97.5303V80.7622H162.291V55.192H57.8198V80.7622H96.1847V97.5239C65.0015 98.9562 41.5508 105.133 41.5508 112.535C41.5508 119.937 65.0015 126.108 96.1847 127.547V181.28H123.913V127.527C155.025 126.095 178.437 119.924 178.437 112.529C178.437 105.133 155.045 98.9627 123.913 97.5239L123.92 97.5303Z" fill="white"/>
</g>
<defs>
<clipPath id="clip0_4_5237">
<rect width="220" height="220" fill="white" transform="translate(0 0.5)"/>
</clipPath>
</defs>
</svg>
