<svg width="220" height="221" viewBox="0 0 220 221" fill="none" xmlns="http://www.w3.org/2000/svg">
<g clip-path="url(#clip0_4_5240)">
<path d="M216.683 137.11C201.993 196.038 142.307 231.902 83.3712 217.207C24.4598 202.515 -11.4034 142.826 3.29433 83.9016C17.9792 24.966 77.6648 -10.8997 136.583 3.79159C195.514 18.4829 231.376 78.1776 216.683 137.11Z" fill="#2C7DF7"/>
<path d="M126.409 183.833C115.943 183.833 108.304 181.312 103.492 176.27C99.0342 172.003 96.4472 166.144 96.2967 159.974C96.2426 158.1 96.6769 156.244 97.5571 154.588C98.3782 153.158 99.5642 151.971 100.994 151.148C104.364 149.468 108.327 149.468 111.696 151.148C113.124 151.967 114.304 153.156 115.114 154.588C116.019 156.236 116.47 158.095 116.419 159.974C116.513 162.219 115.869 164.432 114.586 166.276C113.517 167.782 111.989 168.9 110.231 169.464C111.95 171.653 114.383 173.17 117.105 173.75C120.151 174.634 123.306 175.089 126.478 175.101C130.677 175.138 134.79 173.908 138.28 171.572C141.901 169.014 144.601 165.358 145.98 161.145C147.729 156.131 148.582 150.849 148.501 145.54C148.642 140.004 147.708 134.494 145.751 129.314C144.279 125.171 141.484 121.628 137.799 119.231C134.373 117.063 130.396 115.926 126.343 115.954C122.81 116.253 119.404 117.41 116.419 119.323L109.061 123.012V119.323L142.13 74.9612H96.2967V120.996C96.1672 124.318 97.0459 127.601 98.8177 130.415C100.561 132.908 103.482 134.307 106.517 134.104C109.275 134.048 111.942 133.108 114.125 131.423C116.6 129.609 118.754 127.393 120.496 124.868C120.653 124.425 120.942 124.042 121.325 123.769C121.632 123.503 122.024 123.357 122.43 123.356C123.226 123.429 123.979 123.749 124.584 124.273C125.35 125.128 125.767 126.241 125.752 127.389C125.664 128.161 125.526 128.926 125.34 129.681C123.712 133.622 120.983 137.01 117.479 139.44C114.225 141.642 110.382 142.809 106.453 142.79C96.5297 142.79 89.6552 140.834 85.8294 136.923C81.857 132.556 79.8086 126.774 80.1459 120.881V74.9612H56.834V66.4079H80.2546V46.9057L74.8925 41.5399V37.1666H90.4522L96.2967 40.192V66.4079L156.842 66.2237L162.869 72.2737L125.744 109.579C127.987 108.677 130.349 108.106 132.756 107.883C137.52 108.092 142.169 109.419 146.325 111.757C151.139 114.044 155.195 117.664 158.014 122.187C160.539 126.016 162.327 130.283 163.284 134.768C164.072 138.306 164.494 141.916 164.545 145.54C164.569 152.457 163.001 159.287 159.962 165.5C157.079 171.517 152.228 176.368 146.211 179.251C140.052 182.286 133.275 183.853 126.409 183.833Z" fill="white"/>
</g>
<defs>
<clipPath id="clip0_4_5240">
<rect width="220" height="220" fill="white" transform="translate(0 0.5)"/>
</clipPath>
</defs>
</svg>
