<svg width="220" height="221" viewBox="0 0 220 221" fill="none" xmlns="http://www.w3.org/2000/svg">
<g clip-path="url(#clip0_4_5249)">
<path d="M110 220.5C170.751 220.5 220 171.251 220 110.5C220 49.7487 170.751 0.5 110 0.5C49.2487 0.5 0 49.7487 0 110.5C0 171.251 49.2487 220.5 110 220.5Z" fill="#EDF0F4"/>
<path d="M88.8594 164.305H160.824L171.235 145.656H99.3851L88.8594 164.305Z" fill="#5569FF"/>
<path d="M158.536 123.117H137.599L127.188 141.651H148.01L158.536 123.117Z" fill="#5569FF"/>
<path d="M158.534 119.112L122.609 55.5H101.672L137.711 119.112H158.534Z" fill="#5C00E9"/>
<path d="M49.5 143.711L59.9113 162.131L95.9508 98.5186L85.4251 80.0984L49.5 143.711Z" fill="#00BFE9"/>
<path d="M85.4271 162.131L95.9528 143.711L85.4271 125.176L75.0156 143.711L85.4271 162.131Z" fill="#00BFE9"/>
<path d="M88.9746 78.0391L99.3861 96.5737H120.323L109.797 78.0391H88.9746Z" fill="#5C00E9"/>
<path d="M171.232 141.651L161.965 125.291L152.697 141.651H171.232Z" fill="#243269"/>
<path d="M123.756 139.592L134.168 121.172L123.756 102.637L113.23 121.172L123.756 139.592Z" fill="#243269"/>
<path d="M88.8594 123.117L99.3851 141.651H101.673H120.322L109.797 123.117H88.8594Z" fill="#243269"/>
<path d="M99.3851 100.578L88.8594 119.112H109.797L120.208 100.578H99.3851Z" fill="#243269"/>
<path d="M63.3438 164.305H81.9928L72.7255 147.83L63.3438 164.305Z" fill="#243269"/>
<path d="M98.2409 57.5594L88.8594 74.0346H107.508L98.2409 57.5594Z" fill="#243269"/>
</g>
<defs>
<clipPath id="clip0_4_5249">
<rect width="220" height="220" fill="white" transform="translate(0 0.5)"/>
</clipPath>
</defs>
</svg>
