<svg width="220" height="221" viewBox="0 0 220 221" fill="none" xmlns="http://www.w3.org/2000/svg">
<g clip-path="url(#clip0_4_5243)">
<path d="M111.804 220.5C171.56 220.5 220.001 171.251 220.001 110.5C220.001 49.7487 171.56 0.5 111.804 0.5C52.0487 0.5 3.60742 49.7487 3.60742 110.5C3.60742 171.251 52.0487 220.5 111.804 220.5Z" fill="#6747ED"/>
<path fill-rule="evenodd" clip-rule="evenodd" d="M106.297 125.071C90.3291 125.071 77.5094 112.026 77.5094 95.7762C77.5094 79.5264 90.3291 66.481 106.297 66.481C122.266 66.481 135.086 79.5264 135.086 95.7762C135.086 112.026 122.266 125.071 106.297 125.071ZM106.297 51.8334C130.138 51.8334 149.48 71.516 149.48 95.7762C149.48 120.036 130.138 139.719 106.297 139.719C82.4574 139.719 63.1152 120.036 63.1152 95.7762C63.1152 71.516 82.4574 51.8334 106.297 51.8334ZM147.456 142.008C150.38 144.983 150.38 149.56 147.456 152.307L118.667 181.602C115.744 184.578 111.245 184.578 108.547 181.602C105.623 178.627 105.623 174.049 108.547 171.303L137.335 142.008C140.034 139.032 144.757 139.032 147.456 142.008ZM164.099 59.1572C164.099 63.2769 160.95 66.481 156.902 66.481C152.853 66.481 149.705 63.2769 149.705 59.1572C149.705 55.0375 152.853 51.8334 156.902 51.8334C160.725 51.8334 164.099 55.0375 164.099 59.1572Z" fill="white"/>
</g>
<defs>
<clipPath id="clip0_4_5243">
<rect width="220" height="220" fill="white" transform="translate(0 0.5)"/>
</clipPath>
</defs>
</svg>
