<svg width="220" height="221" viewBox="0 0 220 221" fill="none" xmlns="http://www.w3.org/2000/svg">
<g clip-path="url(#clip0_4_5267)">
<path d="M110 0.5C170.742 0.5 220 49.758 220 110.5C220 171.242 170.742 220.5 110 220.5C49.258 220.5 0 171.242 0 110.5C0 49.758 49.258 0.5 110 0.5Z" fill="url(#paint0_linear_4_5267)"/>
<path d="M152.238 76.84C150.852 78.49 150.94 82.142 148.718 81.02C148.718 81.02 133.252 75.102 142.778 57.7C145.352 53.674 148.014 53.41 147.618 43.62C149.994 47.228 157.782 54.466 158.398 65.84C159.014 73.43 154.482 74.442 152.238 76.84Z" fill="white"/>
<path d="M139.922 103.9C143.728 102.624 149.888 100.6 150.262 87.6201C156.136 96.6181 176.068 109.246 166.542 147.9C162.67 162.97 148.238 170.296 134.642 175.84C126.15 179.448 117.482 185.476 113.962 194.54C113.962 194.54 49.7001 186.422 51.7021 122.6C53.3081 89.49 84.3281 76.8401 97.4621 52.6401C104.458 37.3721 102.082 22.0601 102.082 22.0601C102.082 22.0601 143.002 47.5141 124.522 86.7401C118.516 100.6 132.86 105.286 139.922 103.9Z" fill="white"/>
<path d="M76.7773 115.34V136.68H99.4373V159.34H120.777V136.68H143.437V115.34H76.7773Z" fill="url(#paint1_linear_4_5267)"/>
</g>
<defs>
<linearGradient id="paint0_linear_4_5267" x1="0" y1="220.5" x2="220" y2="220.5" gradientUnits="userSpaceOnUse">
<stop stop-color="#FFA50D"/>
<stop offset="1" stop-color="#FE5413"/>
</linearGradient>
<linearGradient id="paint1_linear_4_5267" x1="76.7773" y1="159.34" x2="143.437" y2="159.34" gradientUnits="userSpaceOnUse">
<stop stop-color="#FFA50D"/>
<stop offset="1" stop-color="#FE5413"/>
</linearGradient>
<clipPath id="clip0_4_5267">
<rect width="220" height="220" fill="white" transform="translate(0 0.5)"/>
</clipPath>
</defs>
</svg>
