<svg width="220" height="221" viewBox="0 0 220 221" fill="none" xmlns="http://www.w3.org/2000/svg">
<g clip-path="url(#clip0_4_5263)">
<path d="M110 0.5C170.757 0.5 220 49.753 220 110.5C220 171.257 170.757 220.5 110 220.5C49.253 220.5 0 171.252 0 110.5C0 49.753 49.253 0.5 110 0.5Z" fill="#29BCE1"/>
<path fill-rule="evenodd" clip-rule="evenodd" d="M69.9617 35.3334H150.04L157.667 42.8915V179.942L150.04 187.5H69.9617L62.334 179.942V42.8915L69.9617 35.3334ZM142.412 172.384V50.4494H77.5895V172.384H142.412Z" fill="white"/>
<path fill-rule="evenodd" clip-rule="evenodd" d="M117.409 91.068H133.833V105.912H86.166V91.068H102.59V73.8334H117.409V91.068ZM117.409 133.599H133.833V118.755H86.166V133.599H102.59V150.833H117.409V133.599Z" fill="white"/>
</g>
<defs>
<clipPath id="clip0_4_5263">
<rect width="220" height="220" fill="white" transform="translate(0 0.5)"/>
</clipPath>
</defs>
</svg>
