<svg width="220" height="221" viewBox="0 0 220 221" fill="none" xmlns="http://www.w3.org/2000/svg">
<g clip-path="url(#clip0_4_5275)">
<path d="M110 220.5C170.751 220.5 220 171.251 220 110.5C220 49.7487 170.751 0.5 110 0.5C49.2487 0.5 0 49.7487 0 110.5C0 171.251 49.2487 220.5 110 220.5Z" fill="#EDF0F4"/>
<path d="M81.3948 155.957C106.098 155.957 126.124 135.932 126.124 111.229C126.124 86.5257 106.098 66.5 81.3948 66.5C56.6918 66.5 36.666 86.5257 36.666 111.229C36.666 135.932 56.6918 155.957 81.3948 155.957Z" fill="url(#paint0_linear_4_5275)"/>
<path d="M76.2191 126.361C78.0703 126.361 79.571 124.86 79.571 123.009C79.571 121.157 78.0703 119.657 76.2191 119.657C74.3679 119.657 72.8672 121.157 72.8672 123.009C72.8672 124.86 74.3679 126.361 76.2191 126.361Z" fill="black"/>
<path d="M86.1175 126.361C87.9687 126.361 89.4694 124.86 89.4694 123.009C89.4694 121.157 87.9687 119.657 86.1175 119.657C84.2663 119.657 82.7656 121.157 82.7656 123.009C82.7656 124.86 84.2663 126.361 86.1175 126.361Z" fill="black"/>
<path d="M96.014 126.361C97.8652 126.361 99.3659 124.86 99.3659 123.009C99.3659 121.157 97.8652 119.657 96.014 119.657C94.1628 119.657 92.6621 121.157 92.6621 123.009C92.6621 124.86 94.1628 126.361 96.014 126.361Z" fill="black"/>
<path d="M105.918 126.361C107.77 126.361 109.27 124.86 109.27 123.009C109.27 121.157 107.77 119.657 105.918 119.657C104.067 119.657 102.566 121.157 102.566 123.009C102.566 124.86 104.067 126.361 105.918 126.361Z" fill="black"/>
<path d="M115.823 126.361C117.674 126.361 119.175 124.86 119.175 123.009C119.175 121.157 117.674 119.657 115.823 119.657C113.971 119.657 112.471 121.157 112.471 123.009C112.471 124.86 113.971 126.361 115.823 126.361Z" fill="black"/>
<path d="M125.719 126.361C127.57 126.361 129.071 124.86 129.071 123.009C129.071 121.157 127.57 119.657 125.719 119.657C123.868 119.657 122.367 121.157 122.367 123.009C122.367 124.86 123.868 126.361 125.719 126.361Z" fill="black"/>
<path d="M135.623 126.361C137.475 126.361 138.975 124.86 138.975 123.009C138.975 121.157 137.475 119.657 135.623 119.657C133.772 119.657 132.271 121.157 132.271 123.009C132.271 124.86 133.772 126.361 135.623 126.361Z" fill="black"/>
<path d="M145.522 126.361C147.373 126.361 148.874 124.86 148.874 123.009C148.874 121.157 147.373 119.657 145.522 119.657C143.671 119.657 142.17 121.157 142.17 123.009C142.17 124.86 143.671 126.361 145.522 126.361Z" fill="black"/>
<path d="M155.418 126.361C157.27 126.361 158.77 124.86 158.77 123.009C158.77 121.157 157.27 119.657 155.418 119.657C153.567 119.657 152.066 121.157 152.066 123.009C152.066 124.86 153.567 126.361 155.418 126.361Z" fill="black"/>
<path d="M160.935 135.351C162.209 135.351 163.243 134.318 163.243 133.043C163.243 131.769 162.209 130.736 160.935 130.736C159.66 130.736 158.627 131.769 158.627 133.043C158.627 134.318 159.66 135.351 160.935 135.351Z" fill="black"/>
<path d="M150.7 135.351C151.975 135.351 153.008 134.318 153.008 133.043C153.008 131.769 151.975 130.736 150.7 130.736C149.426 130.736 148.393 131.769 148.393 133.043C148.393 134.318 149.426 135.351 150.7 135.351Z" fill="black"/>
<path d="M140.474 135.351C141.748 135.351 142.782 134.318 142.782 133.043C142.782 131.769 141.748 130.736 140.474 130.736C139.199 130.736 138.166 131.769 138.166 133.043C138.166 134.318 139.199 135.351 140.474 135.351Z" fill="black"/>
<path d="M130.247 135.351C131.522 135.351 132.555 134.318 132.555 133.043C132.555 131.769 131.522 130.736 130.247 130.736C128.973 130.736 127.939 131.769 127.939 133.043C127.939 134.318 128.973 135.351 130.247 135.351Z" fill="black"/>
<path d="M120.013 135.351C121.288 135.351 122.321 134.318 122.321 133.043C122.321 131.769 121.288 130.736 120.013 130.736C118.738 130.736 117.705 131.769 117.705 133.043C117.705 134.318 118.738 135.351 120.013 135.351Z" fill="black"/>
<path d="M109.781 135.351C111.055 135.351 112.088 134.318 112.088 133.043C112.088 131.769 111.055 130.736 109.781 130.736C108.506 130.736 107.473 131.769 107.473 133.043C107.473 134.318 108.506 135.351 109.781 135.351Z" fill="black"/>
<path d="M99.5462 135.351C100.821 135.351 101.854 134.318 101.854 133.043C101.854 131.769 100.821 130.736 99.5462 130.736C98.2715 130.736 97.2383 131.769 97.2383 133.043C97.2383 134.318 98.2715 135.351 99.5462 135.351Z" fill="black"/>
<path d="M89.3118 135.351C90.5864 135.351 91.6196 134.318 91.6196 133.043C91.6196 131.769 90.5864 130.736 89.3118 130.736C88.0372 130.736 87.0039 131.769 87.0039 133.043C87.0039 134.318 88.0372 135.351 89.3118 135.351Z" fill="black"/>
<path d="M79.0852 135.351C80.3598 135.351 81.3931 134.318 81.3931 133.043C81.3931 131.769 80.3598 130.736 79.0852 130.736C77.8106 130.736 76.7773 131.769 76.7773 133.043C76.7773 134.318 77.8106 135.351 79.0852 135.351Z" fill="black"/>
<path d="M166.366 142.337C167.603 142.337 168.605 141.334 168.605 140.098C168.605 138.861 167.603 137.858 166.366 137.858C165.129 137.858 164.127 138.861 164.127 140.098C164.127 141.334 165.129 142.337 166.366 142.337Z" fill="black"/>
<path d="M155.989 142.337C157.226 142.337 158.228 141.334 158.228 140.098C158.228 138.861 157.226 137.858 155.989 137.858C154.753 137.858 153.75 138.861 153.75 140.098C153.75 141.334 154.753 142.337 155.989 142.337Z" fill="black"/>
<path d="M145.612 142.337C146.849 142.337 147.851 141.334 147.851 140.098C147.851 138.861 146.849 137.858 145.612 137.858C144.376 137.858 143.373 138.861 143.373 140.098C143.373 141.334 144.376 142.337 145.612 142.337Z" fill="black"/>
<path d="M135.241 142.337C136.478 142.337 137.48 141.334 137.48 140.098C137.48 138.861 136.478 137.858 135.241 137.858C134.004 137.858 133.002 138.861 133.002 140.098C133.002 141.334 134.004 142.337 135.241 142.337Z" fill="black"/>
<path d="M124.858 142.337C126.095 142.337 127.097 141.334 127.097 140.098C127.097 138.861 126.095 137.858 124.858 137.858C123.622 137.858 122.619 138.861 122.619 140.098C122.619 141.334 123.622 142.337 124.858 142.337Z" fill="black"/>
<path d="M114.481 142.337C115.718 142.337 116.721 141.334 116.721 140.098C116.721 138.861 115.718 137.858 114.481 137.858C113.245 137.858 112.242 138.861 112.242 140.098C112.242 141.334 113.245 142.337 114.481 142.337Z" fill="black"/>
<path d="M104.11 142.337C105.347 142.337 106.349 141.334 106.349 140.098C106.349 138.861 105.347 137.858 104.11 137.858C102.874 137.858 101.871 138.861 101.871 140.098C101.871 141.334 102.874 142.337 104.11 142.337Z" fill="black"/>
<path d="M93.7333 142.337C94.97 142.337 95.9725 141.334 95.9725 140.098C95.9725 138.861 94.97 137.858 93.7333 137.858C92.4967 137.858 91.4941 138.861 91.4941 140.098C91.4941 141.334 92.4967 142.337 93.7333 142.337Z" fill="black"/>
<path d="M83.3505 142.337C84.5872 142.337 85.5897 141.334 85.5897 140.098C85.5897 138.861 84.5872 137.858 83.3505 137.858C82.1138 137.858 81.1113 138.861 81.1113 140.098C81.1113 141.334 82.1138 142.337 83.3505 142.337Z" fill="black"/>
<path d="M173.599 148.924C174.544 148.924 175.309 148.158 175.309 147.214C175.309 146.269 174.544 145.503 173.599 145.503C172.654 145.503 171.889 146.269 171.889 147.214C171.889 148.158 172.654 148.924 173.599 148.924Z" fill="black"/>
<path d="M163.087 148.924C164.032 148.924 164.798 148.158 164.798 147.214C164.798 146.269 164.032 145.503 163.087 145.503C162.143 145.503 161.377 146.269 161.377 147.214C161.377 148.158 162.143 148.924 163.087 148.924Z" fill="black"/>
<path d="M152.566 148.924C153.51 148.924 154.276 148.158 154.276 147.214C154.276 146.269 153.51 145.503 152.566 145.503C151.621 145.503 150.855 146.269 150.855 147.214C150.855 148.158 151.621 148.924 152.566 148.924Z" fill="black"/>
<path d="M142.06 148.924C143.004 148.924 143.77 148.158 143.77 147.214C143.77 146.269 143.004 145.503 142.06 145.503C141.115 145.503 140.35 146.269 140.35 147.214C140.35 148.158 141.115 148.924 142.06 148.924Z" fill="black"/>
<path d="M131.54 148.924C132.485 148.924 133.251 148.158 133.251 147.214C133.251 146.269 132.485 145.503 131.54 145.503C130.596 145.503 129.83 146.269 129.83 147.214C129.83 148.158 130.596 148.924 131.54 148.924Z" fill="black"/>
<path d="M121.027 148.924C121.971 148.924 122.737 148.158 122.737 147.214C122.737 146.269 121.971 145.503 121.027 145.503C120.082 145.503 119.316 146.269 119.316 147.214C119.316 148.158 120.082 148.924 121.027 148.924Z" fill="black"/>
<path d="M110.515 148.924C111.46 148.924 112.225 148.158 112.225 147.214C112.225 146.269 111.46 145.503 110.515 145.503C109.57 145.503 108.805 146.269 108.805 147.214C108.805 148.158 109.57 148.924 110.515 148.924Z" fill="black"/>
<path d="M100.001 148.924C100.946 148.924 101.712 148.158 101.712 147.214C101.712 146.269 100.946 145.503 100.001 145.503C99.0567 145.503 98.291 146.269 98.291 147.214C98.291 148.158 99.0567 148.924 100.001 148.924Z" fill="black"/>
<path d="M89.4876 148.924C90.4322 148.924 91.1979 148.158 91.1979 147.214C91.1979 146.269 90.4322 145.503 89.4876 145.503C88.5431 145.503 87.7773 146.269 87.7773 147.214C87.7773 148.158 88.5431 148.924 89.4876 148.924Z" fill="black"/>
<path d="M182.025 154.865C182.749 154.865 183.337 154.278 183.337 153.553C183.337 152.829 182.749 152.241 182.025 152.241C181.3 152.241 180.713 152.829 180.713 153.553C180.713 154.278 181.3 154.865 182.025 154.865Z" fill="black"/>
<path d="M171.425 154.865C172.15 154.865 172.737 154.278 172.737 153.553C172.737 152.829 172.15 152.242 171.425 152.242C170.701 152.242 170.113 152.829 170.113 153.553C170.113 154.278 170.701 154.865 171.425 154.865Z" fill="black"/>
<path d="M160.82 154.865C161.544 154.865 162.132 154.278 162.132 153.553C162.132 152.829 161.544 152.241 160.82 152.241C160.095 152.241 159.508 152.829 159.508 153.553C159.508 154.278 160.095 154.865 160.82 154.865Z" fill="black"/>
<path d="M150.22 154.865C150.945 154.865 151.532 154.278 151.532 153.553C151.532 152.829 150.945 152.242 150.22 152.242C149.496 152.242 148.908 152.829 148.908 153.553C148.908 154.278 149.496 154.865 150.22 154.865Z" fill="black"/>
<path d="M139.621 154.865C140.345 154.865 140.932 154.278 140.932 153.553C140.932 152.829 140.345 152.241 139.621 152.241C138.896 152.241 138.309 152.829 138.309 153.553C138.309 154.278 138.896 154.865 139.621 154.865Z" fill="black"/>
<path d="M129.015 154.865C129.74 154.865 130.327 154.278 130.327 153.553C130.327 152.829 129.74 152.242 129.015 152.242C128.29 152.242 127.703 152.829 127.703 153.553C127.703 154.278 128.29 154.865 129.015 154.865Z" fill="black"/>
<path d="M118.415 154.865C119.14 154.865 119.727 154.278 119.727 153.553C119.727 152.829 119.14 152.241 118.415 152.241C117.691 152.241 117.104 152.829 117.104 153.553C117.104 154.278 117.691 154.865 118.415 154.865Z" fill="black"/>
<path d="M107.818 154.865C108.542 154.865 109.13 154.278 109.13 153.553C109.13 152.829 108.542 152.241 107.818 152.241C107.093 152.241 106.506 152.829 106.506 153.553C106.506 154.278 107.093 154.865 107.818 154.865Z" fill="black"/>
<path d="M97.2103 154.865C97.9349 154.865 98.5223 154.278 98.5223 153.553C98.5223 152.829 97.9349 152.241 97.2103 152.241C96.4858 152.241 95.8984 152.829 95.8984 153.553C95.8984 154.278 96.4858 154.865 97.2103 154.865Z" fill="black"/>
<path d="M71.3938 115.844C72.6684 115.844 73.7017 114.811 73.7017 113.537C73.7017 112.262 72.6684 111.229 71.3938 111.229C70.1192 111.229 69.0859 112.262 69.0859 113.537C69.0859 114.811 70.1192 115.844 71.3938 115.844Z" fill="black"/>
<path d="M81.6204 115.844C82.895 115.844 83.9282 114.811 83.9282 113.537C83.9282 112.262 82.895 111.229 81.6204 111.229C80.3458 111.229 79.3125 112.262 79.3125 113.537C79.3125 114.811 80.3458 115.844 81.6204 115.844Z" fill="black"/>
<path d="M91.8547 115.844C93.1293 115.844 94.1626 114.811 94.1626 113.537C94.1626 112.262 93.1293 111.229 91.8547 111.229C90.5801 111.229 89.5469 112.262 89.5469 113.537C89.5469 114.811 90.5801 115.844 91.8547 115.844Z" fill="black"/>
<path d="M102.081 115.844C103.356 115.844 104.389 114.811 104.389 113.537C104.389 112.262 103.356 111.229 102.081 111.229C100.807 111.229 99.7734 112.262 99.7734 113.537C99.7734 114.811 100.807 115.844 102.081 115.844Z" fill="black"/>
<path d="M112.316 115.844C113.59 115.844 114.624 114.811 114.624 113.537C114.624 112.262 113.59 111.229 112.316 111.229C111.041 111.229 110.008 112.262 110.008 113.537C110.008 114.811 111.041 115.844 112.316 115.844Z" fill="black"/>
<path d="M122.556 115.844C123.831 115.844 124.864 114.811 124.864 113.537C124.864 112.262 123.831 111.229 122.556 111.229C121.281 111.229 120.248 112.262 120.248 113.537C120.248 114.811 121.281 115.844 122.556 115.844Z" fill="black"/>
<path d="M132.782 115.844C134.057 115.844 135.09 114.811 135.09 113.537C135.09 112.262 134.057 111.229 132.782 111.229C131.508 111.229 130.475 112.262 130.475 113.537C130.475 114.811 131.508 115.844 132.782 115.844Z" fill="black"/>
<path d="M143.017 115.844C144.291 115.844 145.325 114.811 145.325 113.537C145.325 112.262 144.291 111.229 143.017 111.229C141.742 111.229 140.709 112.262 140.709 113.537C140.709 114.811 141.742 115.844 143.017 115.844Z" fill="black"/>
<path d="M153.243 115.844C154.518 115.844 155.551 114.811 155.551 113.537C155.551 112.262 154.518 111.229 153.243 111.229C151.969 111.229 150.936 112.262 150.936 113.537C150.936 114.811 151.969 115.844 153.243 115.844Z" fill="black"/>
<path d="M65.9618 108.721C67.1985 108.721 68.201 107.719 68.201 106.482C68.201 105.246 67.1985 104.243 65.9618 104.243C64.7252 104.243 63.7227 105.246 63.7227 106.482C63.7227 107.719 64.7252 108.721 65.9618 108.721Z" fill="black"/>
<path d="M76.3388 108.721C77.5754 108.721 78.578 107.719 78.578 106.482C78.578 105.246 77.5754 104.243 76.3388 104.243C75.1021 104.243 74.0996 105.246 74.0996 106.482C74.0996 107.719 75.1021 108.721 76.3388 108.721Z" fill="black"/>
<path d="M86.7157 108.721C87.9524 108.721 88.9549 107.719 88.9549 106.482C88.9549 105.246 87.9524 104.243 86.7157 104.243C85.4791 104.243 84.4766 105.246 84.4766 106.482C84.4766 107.719 85.4791 108.721 86.7157 108.721Z" fill="black"/>
<path d="M97.0927 108.721C98.3294 108.721 99.3319 107.719 99.3319 106.482C99.3319 105.246 98.3294 104.243 97.0927 104.243C95.856 104.243 94.8535 105.246 94.8535 106.482C94.8535 107.719 95.856 108.721 97.0927 108.721Z" fill="black"/>
<path d="M107.47 108.721C108.706 108.721 109.709 107.719 109.709 106.482C109.709 105.246 108.706 104.243 107.47 104.243C106.233 104.243 105.23 105.246 105.23 106.482C105.23 107.719 106.233 108.721 107.47 108.721Z" fill="black"/>
<path d="M117.839 108.721C119.075 108.721 120.078 107.719 120.078 106.482C120.078 105.246 119.075 104.243 117.839 104.243C116.602 104.243 115.6 105.246 115.6 106.482C115.6 107.719 116.602 108.721 117.839 108.721Z" fill="black"/>
<path d="M128.216 108.721C129.452 108.721 130.455 107.719 130.455 106.482C130.455 105.246 129.452 104.243 128.216 104.243C126.979 104.243 125.977 105.246 125.977 106.482C125.977 107.719 126.979 108.721 128.216 108.721Z" fill="black"/>
<path d="M138.601 108.721C139.837 108.721 140.84 107.719 140.84 106.482C140.84 105.246 139.837 104.243 138.601 104.243C137.364 104.243 136.361 105.246 136.361 106.482C136.361 107.719 137.364 108.721 138.601 108.721Z" fill="black"/>
<path d="M148.97 108.721C150.206 108.721 151.209 107.719 151.209 106.482C151.209 105.246 150.206 104.243 148.97 104.243C147.733 104.243 146.73 105.246 146.73 106.482C146.73 107.719 147.733 108.721 148.97 108.721Z" fill="black"/>
<path d="M58.7298 101.077C59.6744 101.077 60.4401 100.311 60.4401 99.3667C60.4401 98.4222 59.6744 97.6564 58.7298 97.6564C57.7853 97.6564 57.0195 98.4222 57.0195 99.3667C57.0195 100.311 57.7853 101.077 58.7298 101.077Z" fill="black"/>
<path d="M69.2435 101.077C70.1881 101.077 70.9538 100.311 70.9538 99.3667C70.9538 98.4221 70.1881 97.6564 69.2435 97.6564C68.2989 97.6564 67.5332 98.4221 67.5332 99.3667C67.5332 100.311 68.2989 101.077 69.2435 101.077Z" fill="black"/>
<path d="M79.763 101.077C80.7076 101.077 81.4733 100.311 81.4733 99.3667C81.4733 98.4222 80.7076 97.6564 79.763 97.6564C78.8185 97.6564 78.0527 98.4222 78.0527 99.3667C78.0527 100.311 78.8185 101.077 79.763 101.077Z" fill="black"/>
<path d="M90.2689 101.077C91.2135 101.077 91.9792 100.311 91.9792 99.3667C91.9792 98.4222 91.2135 97.6564 90.2689 97.6564C89.3243 97.6564 88.5586 98.4222 88.5586 99.3667C88.5586 100.311 89.3243 101.077 90.2689 101.077Z" fill="black"/>
<path d="M100.788 101.077C101.733 101.077 102.499 100.311 102.499 99.3667C102.499 98.4221 101.733 97.6564 100.788 97.6564C99.8438 97.6564 99.0781 98.4221 99.0781 99.3667C99.0781 100.311 99.8438 101.077 100.788 101.077Z" fill="black"/>
<path d="M111.302 101.077C112.247 101.077 113.012 100.311 113.012 99.3667C113.012 98.4221 112.247 97.6564 111.302 97.6564C110.358 97.6564 109.592 98.4221 109.592 99.3667C109.592 100.311 110.358 101.077 111.302 101.077Z" fill="black"/>
<path d="M121.816 101.077C122.76 101.077 123.526 100.311 123.526 99.3667C123.526 98.4221 122.76 97.6564 121.816 97.6564C120.871 97.6564 120.105 98.4221 120.105 99.3667C120.105 100.311 120.871 101.077 121.816 101.077Z" fill="black"/>
<path d="M132.327 101.077C133.272 101.077 134.038 100.311 134.038 99.3667C134.038 98.4221 133.272 97.6564 132.327 97.6564C131.383 97.6564 130.617 98.4221 130.617 99.3667C130.617 100.311 131.383 101.077 132.327 101.077Z" fill="black"/>
<path d="M142.841 101.077C143.786 101.077 144.551 100.311 144.551 99.3667C144.551 98.4222 143.786 97.6564 142.841 97.6564C141.897 97.6564 141.131 98.4222 141.131 99.3667C141.131 100.311 141.897 101.077 142.841 101.077Z" fill="black"/>
<path d="M50.31 94.339C51.0345 94.339 51.6219 93.7517 51.6219 93.0271C51.6219 92.3026 51.0345 91.7152 50.31 91.7152C49.5854 91.7152 48.998 92.3026 48.998 93.0271C48.998 93.7517 49.5854 94.339 50.31 94.339Z" fill="black"/>
<path d="M60.9096 94.339C61.6341 94.339 62.2215 93.7516 62.2215 93.0271C62.2215 92.3025 61.6341 91.7151 60.9096 91.7151C60.185 91.7151 59.5977 92.3025 59.5977 93.0271C59.5977 93.7516 60.185 94.339 60.9096 94.339Z" fill="black"/>
<path d="M71.5014 94.339C72.2259 94.339 72.8133 93.7516 72.8133 93.0271C72.8133 92.3025 72.2259 91.7151 71.5014 91.7151C70.7768 91.7151 70.1895 92.3025 70.1895 93.0271C70.1895 93.7516 70.7768 94.339 71.5014 94.339Z" fill="black"/>
<path d="M82.1068 94.339C82.8314 94.339 83.4188 93.7517 83.4188 93.0271C83.4188 92.3026 82.8314 91.7152 82.1068 91.7152C81.3823 91.7152 80.7949 92.3026 80.7949 93.0271C80.7949 93.7517 81.3823 94.339 82.1068 94.339Z" fill="black"/>
<path d="M92.7064 94.339C93.431 94.339 94.0184 93.7516 94.0184 93.0271C94.0184 92.3025 93.431 91.7151 92.7064 91.7151C91.9819 91.7151 91.3945 92.3025 91.3945 93.0271C91.3945 93.7516 91.9819 94.339 92.7064 94.339Z" fill="black"/>
<path d="M103.312 94.339C104.036 94.339 104.624 93.7517 104.624 93.0271C104.624 92.3026 104.036 91.7152 103.312 91.7152C102.587 91.7152 102 92.3026 102 93.0271C102 93.7517 102.587 94.339 103.312 94.339Z" fill="black"/>
<path d="M113.912 94.3389C114.636 94.3389 115.223 93.7515 115.223 93.027C115.223 92.3024 114.636 91.7151 113.912 91.7151C113.187 91.7151 112.6 92.3024 112.6 93.027C112.6 93.7515 113.187 94.3389 113.912 94.3389Z" fill="black"/>
<path d="M124.509 94.3389C125.234 94.3389 125.821 93.7515 125.821 93.027C125.821 92.3024 125.234 91.7151 124.509 91.7151C123.785 91.7151 123.197 92.3024 123.197 93.027C123.197 93.7515 123.785 94.3389 124.509 94.3389Z" fill="black"/>
<path d="M135.117 94.339C135.841 94.339 136.429 93.7516 136.429 93.0271C136.429 92.3025 135.841 91.7151 135.117 91.7151C134.392 91.7151 133.805 92.3025 133.805 93.0271C133.805 93.7516 134.392 94.339 135.117 94.339Z" fill="black"/>
</g>
<defs>
<linearGradient id="paint0_linear_4_5275" x1="15.5655" y1="156.085" x2="105.277" y2="156.085" gradientUnits="userSpaceOnUse">
<stop stop-color="#3B007F"/>
<stop offset="1" stop-color="#AA003D"/>
</linearGradient>
<clipPath id="clip0_4_5275">
<rect width="220" height="220" fill="white" transform="translate(0 0.5)"/>
</clipPath>
</defs>
</svg>
