<svg width="220" height="221" viewBox="0 0 220 221" fill="none" xmlns="http://www.w3.org/2000/svg">
<g clip-path="url(#clip0_4_5359)">
<path d="M110 0.5C170.751 0.5 220 49.7487 220 110.5C220 171.251 170.751 220.5 110 220.5C49.2487 220.5 0 171.251 0 110.5C0 49.7487 49.2487 0.5 110 0.5Z" fill="#FFE81C"/>
<path d="M181.483 60.1702L168.541 102.209H136.006L130.984 106.037L113.352 179.008H64.3552L73.5197 151.759L74.2112 149.101L54.1661 164.318L81.9175 123.983L88.4484 102.209H44.1152L56.9381 60.1702H112.466H116.772L139.52 45.6L130.242 60.1702H181.483Z" fill="#3F3F3F"/>
<path d="M164.017 95.9171L173.225 67.6127H132.268L120.979 86.08L146.744 95.7978L164.017 95.9171Z" fill="#FFE81C"/>
<path d="M74.543 142.909L132.893 98.6891L107.128 87.8527L108.706 85.2943L124.093 61.176L124.213 60.9371L79.999 89.2669L103.137 101.348L74.543 142.909Z" fill="#FFE81C"/>
<path d="M107.27 170.805L120.332 120.916L81.5303 151.137L75.2383 170.78H107.27V170.805Z" fill="#FFE81C"/>
<path d="M63.6126 90.0527L98.6115 67.7069L61.0795 67.6127L52.3926 95.7727L77.391 95.9171L63.6126 90.0527Z" fill="#FFE81C"/>
</g>
<defs>
<clipPath id="clip0_4_5359">
<rect width="220" height="220" fill="white" transform="translate(0 0.5)"/>
</clipPath>
</defs>
</svg>
