<svg width="220" height="221" viewBox="0 0 220 221" fill="none" xmlns="http://www.w3.org/2000/svg">
<g clip-path="url(#clip0_4_5366)">
<path d="M110 220.5C170.751 220.5 220 171.251 220 110.5C220 49.7487 170.751 0.5 110 0.5C49.2487 0.5 0 49.7487 0 110.5C0 171.251 49.2487 220.5 110 220.5Z" fill="#EDF0F4"/>
<path fill-rule="evenodd" clip-rule="evenodd" d="M36.666 57.9477C106.562 40.7602 183.333 56.8019 183.333 56.8019L178.749 89.4581L173.02 77.4269C114.01 67.6873 48.1243 77.4269 48.1243 77.4269L41.8223 89.4581L36.666 57.9477ZM76.7702 100.344L77.916 127.844C77.916 127.844 118.02 124.406 141.51 127.844L143.801 100.344C121.49 98.6429 99.0815 98.6429 76.7702 100.344ZM94.5306 147.323L95.6764 172.531C95.6764 172.531 109.426 170.239 123.749 172.531L124.895 147.323H94.5306Z" fill="#FF4081"/>
</g>
<defs>
<clipPath id="clip0_4_5366">
<rect width="220" height="220" fill="white" transform="translate(0 0.5)"/>
</clipPath>
</defs>
</svg>
