<svg width="220" height="221" viewBox="0 0 220 221" fill="none" xmlns="http://www.w3.org/2000/svg">
<g clip-path="url(#clip0_4_5369)">
<path d="M110 220.5C170.751 220.5 220 171.251 220 110.5C220 49.7487 170.751 0.5 110 0.5C49.2487 0.5 0 49.7487 0 110.5C0 171.251 49.2487 220.5 110 220.5Z" fill="#EDF0F4"/>
<path fill-rule="evenodd" clip-rule="evenodd" d="M95.6644 100.489C93.9055 110.538 90.159 118.007 85.5224 123.58C88.125 126.847 95.5322 133.897 111.015 133.636C111.015 133.636 123.17 134.734 134.753 124.109C130.134 118.546 126.409 111.086 124.621 101.033C124.621 101.033 119.659 71.2857 141.942 56.9824C133.437 51.9075 123.853 48.915 113.972 48.2488V72.2009H106.747V48.1666C96.7486 48.603 86.9997 51.4219 78.3117 56.3889C100.648 70.6888 95.6644 100.489 95.6644 100.489ZM56.4296 48.9423C45.1328 49.3356 36.2955 58.8914 36.678 70.2918C36.9154 77.572 40.9685 84.1892 47.3456 87.7091C54.1773 66.0092 68.2626 58.5697 73.0601 56.6071C69.0414 51.5649 62.8736 48.7223 56.4296 48.9423ZM89.7979 87.0404H51.2423C55.6814 76.3998 62.9379 67.1708 72.2307 60.3464C72.817 60.711 73.5749 61.2152 74.4578 61.8658C82.6829 67.9135 88.1941 76.9582 89.7979 87.0404ZM130.599 87.0404H168.01C163.713 76.7446 156.777 67.764 147.901 61.0042C147.344 61.3617 146.647 61.8264 145.856 62.4092C137.782 68.3421 132.314 77.1681 130.599 87.0404ZM90.2626 91.5699C90.7105 101.071 87.7304 110.418 81.8652 117.906H81.8724C75.7914 125.685 65.9603 133.075 50.4487 133.618C49.8123 131.957 49.2557 130.265 48.7793 128.542C55.7074 128.163 65.7064 126.007 72.2916 117.57L68.3162 112.959C68.3162 112.959 62.4248 122.743 47.478 122.968C45.526 112.494 46.2377 101.697 49.5478 91.5699H90.2626ZM146.883 56.2459C151.603 50.7058 158.889 48.0566 166.066 49.2712C177.316 51.1553 184.92 61.7228 183.05 72.8693C181.983 79.2281 177.97 84.7064 172.229 87.641C170.305 81.3349 165.054 66.2094 146.883 56.2459ZM148.355 116.426L152.645 111.858C152.645 111.858 157.968 120.967 172.007 121.603C172.562 118.201 172.841 114.761 172.84 111.314C172.845 104.607 171.782 97.9424 169.691 91.5699H130.073C129.484 101.252 132.461 110.814 138.442 118.45C144.355 126.018 153.814 133.221 168.607 134.09C169.486 131.819 170.231 129.499 170.838 127.141C163.981 126.647 154.651 124.37 148.355 116.426ZM106.546 141.791V146.302C106.582 152.652 104.271 158.79 100.058 163.54C97.087 166.834 93.4429 169.45 89.3726 171.212C73.5872 165.854 60.5472 154.494 53.0762 139.592C58.8426 139.084 70.529 137.018 80.3637 128.763C89.3868 137.368 98.3599 140.997 106.546 141.791ZM99.4539 173.711C106.637 174.87 113.965 174.793 121.121 173.482C116.541 168.554 112.864 162.858 110.257 156.655C107.69 162.933 104.033 168.708 99.4539 173.711ZM114.018 146.424V141.776C126.902 140.482 136.926 133.064 140.673 129.915C149.671 137.129 160.035 139.345 165.969 140.017C158.667 154.314 146.214 165.31 131.124 170.787C126.967 169.011 123.249 166.348 120.231 162.983C116.191 158.417 113.979 152.52 114.018 146.424Z" fill="url(#paint0_linear_4_5369)"/>
</g>
<defs>
<linearGradient id="paint0_linear_4_5369" x1="13.4582" y1="110.135" x2="110.302" y2="218.111" gradientUnits="userSpaceOnUse">
<stop stop-color="#EA3570"/>
<stop offset="0.88" stop-color="#138FC9"/>
</linearGradient>
<clipPath id="clip0_4_5369">
<rect width="220" height="220" fill="white" transform="translate(0 0.5)"/>
</clipPath>
</defs>
</svg>
