<svg width="220" height="221" viewBox="0 0 220 221" fill="none" xmlns="http://www.w3.org/2000/svg">
<g clip-path="url(#clip0_4_5372)">
<path d="M110 220.5C170.751 220.5 220 171.251 220 110.5C220 49.7487 170.751 0.5 110 0.5C49.2487 0.5 0 49.7487 0 110.5C0 171.251 49.2487 220.5 110 220.5Z" fill="#FFC04E"/>
<path fill-rule="evenodd" clip-rule="evenodd" d="M50.9013 91.2044H34.834L37.8496 79.3334H53.9172L50.9013 91.2044ZM108.158 81.806H108.137L108.656 79.3334H57.9356L42.8711 141.667H59.4436L70.8284 91.2044H91.108L79.0247 141.667H94.0959L105.944 91.2044H106.152L107.95 82.7063L108.158 81.806ZM161.886 79.3334H136.779L121.707 141.175H153.309C157.109 141.193 160.888 140.626 164.515 139.492C170.511 137.587 177.808 133.584 178.963 125.342H183.486L184.995 119.407H179.468C179.468 119.407 179.966 110.5 168.416 109.018C168.416 109.018 178.466 106.047 179.966 100.603H184.995L187.001 94.6674H181.474C181.474 94.6674 183.486 80.3237 161.886 79.3334ZM106.65 104.066L119.708 134.741L125.228 109.51L112.176 80.3237L106.65 104.066ZM158.124 104.066C159.922 104.066 161.651 103.373 162.917 102.113C164.183 100.852 164.902 99.1623 164.902 97.3893C164.902 95.6163 164.189 93.9194 162.917 92.6657C161.644 91.4121 159.922 90.7127 158.124 90.7127H148.337L145.328 104.066H158.124ZM162.896 122.129C162.896 126.36 159.244 129.796 154.741 129.796H139.345L142.969 114.455H154.741C159.265 114.455 162.896 117.89 162.896 122.129Z" fill="white"/>
</g>
<defs>
<clipPath id="clip0_4_5372">
<rect width="220" height="220" fill="white" transform="translate(0 0.5)"/>
</clipPath>
</defs>
</svg>
