<svg width="220" height="221" viewBox="0 0 220 221" fill="none" xmlns="http://www.w3.org/2000/svg">
<g clip-path="url(#clip0_4_5375)">
<path fill-rule="evenodd" clip-rule="evenodd" d="M110 0.5C170.742 0.5 220 49.758 220 110.5C220 171.242 170.742 220.5 110 220.5C49.258 220.5 0 171.242 0 110.5C0 49.758 49.258 0.5 110 0.5Z" fill="#070510"/>
<path fill-rule="evenodd" clip-rule="evenodd" d="M193.601 79.26C191.467 87.4 182.689 98.598 170.875 105.814C170.919 106.826 170.941 107.838 170.941 108.85C170.941 142.444 143.705 169.68 110.111 169.68C92.7526 169.68 77.1106 162.42 66.0226 150.76C59.4666 152.344 17.9967 161.408 25.0806 134.04C28.8866 122.644 41.7126 113.954 49.2806 109.686C49.2806 109.4 49.2806 109.114 49.2806 108.85C49.2806 75.256 76.5166 48.02 110.111 48.02C127.161 48.02 142.583 55.038 153.627 66.368C163.505 64.388 196.791 59.174 193.601 79.26ZM110.331 63.64C85.3606 63.64 65.1206 83.88 65.1206 108.85C65.1206 112.018 65.4506 115.098 66.0666 118.09L66.0006 118.2C66.0006 118.2 55.5066 124.668 48.3566 130.542C46.3326 132.302 44.3966 134.172 42.7246 136.13C42.5926 136.328 42.4826 136.504 42.3726 136.68C44.0446 136.702 45.8706 136.702 47.8946 136.592C57.7946 135.624 76.7806 132.038 105.205 120.488C105.183 120.136 105.183 119.784 105.183 119.41C105.183 108.784 113.807 100.16 124.433 100.16C129.625 100.16 134.355 102.228 137.809 105.572C142.869 103.02 148.127 100.27 153.583 97.3C153.737 97.234 153.891 97.19 154.023 97.146C148.853 77.852 131.253 63.64 110.331 63.64ZM114.841 119.41C114.841 124.69 119.131 128.98 124.411 128.98C129.691 128.98 133.981 124.69 133.981 119.41C133.981 114.13 129.691 109.84 124.411 109.84C119.131 109.84 114.841 114.13 114.841 119.41ZM143.529 121.632C142.429 131.224 134.289 138.66 124.411 138.66C120.187 138.66 116.293 137.296 113.125 135.008C102.477 139.342 91.7626 143.258 83.5566 145.282C91.0586 150.804 100.321 154.082 110.331 154.082C132.793 154.082 151.449 137.692 154.947 116.198C153.275 116.99 149.139 119.014 143.529 121.632ZM164.561 80.8C164.561 80.8 166.827 84.32 167.641 87.84C171.799 83.858 175.341 80.36 175.341 80.36L164.561 80.8Z" fill="url(#paint0_linear_4_5375)"/>
</g>
<defs>
<linearGradient id="paint0_linear_4_5375" x1="24.2671" y1="169.681" x2="193.815" y2="169.681" gradientUnits="userSpaceOnUse">
<stop stop-color="#06D6FE"/>
<stop offset="1" stop-color="#7A61FB"/>
</linearGradient>
<clipPath id="clip0_4_5375">
<rect width="220" height="220" fill="white" transform="translate(0 0.5)"/>
</clipPath>
</defs>
</svg>
