<svg width="220" height="221" viewBox="0 0 220 221" fill="none" xmlns="http://www.w3.org/2000/svg">
<g clip-path="url(#clip0_4_5393)">
<path d="M110 220.5C170.751 220.5 220 171.251 220 110.5C220 49.7487 170.751 0.5 110 0.5C49.2487 0.5 0 49.7487 0 110.5C0 171.251 49.2487 220.5 110 220.5Z" fill="#895AF8"/>
<path fill-rule="evenodd" clip-rule="evenodd" d="M102.3 98.4002C99.2326 95.8581 97.3843 92.1366 97.2125 88.1564V87.6064C97.2125 79.6314 110.069 66.9814 110.481 66.9814L110.561 67.0597C111.722 68.1951 123.75 79.9591 123.75 87.6064V88.2252C123.627 91.756 122.15 95.1042 119.625 97.5752L151.25 80.5939L110 60.3814L68.75 80.3877L102.3 98.4002ZM122.169 98.4689C123.268 98.4029 124.37 98.4029 125.469 98.4689C130.918 98.8371 134.789 102.971 138.203 106.616C141.163 109.777 143.78 112.57 146.781 112.219C140.724 117.17 133.699 120.8 126.156 122.875C119.692 123.819 113.456 120.083 111.237 113.938V141.438L151.25 118.613V83.0002L122.169 98.4689ZM94.1188 123.219C100.602 124.154 106.845 120.385 109.037 114.213L109.106 141.988L68.75 118.681V83.0002L98.1063 98.8127C97.0072 98.7467 95.9053 98.7467 94.8063 98.8127C89.2219 99.0001 85.3129 103.213 81.8651 106.928C78.9886 110.028 76.4331 112.782 73.4938 112.563C79.5505 117.514 86.5759 121.144 94.1188 123.219Z" fill="white"/>
<path fill-rule="evenodd" clip-rule="evenodd" d="M110 28C64.4395 28 27.5 64.9395 27.5 110.5C27.5 156.061 64.4395 193 110 193C155.561 193 192.5 156.061 192.5 110.5C192.5 64.9365 155.563 28 110 28ZM63.9375 77.4313L110 55.0875L156.131 77.4313V121.363L110 147.969L63.9375 121.363V77.4313ZM110.344 165.844L156.269 139.306V136.762L110.344 163.3L63.8688 136.488V139.031L110.344 165.844ZM156.269 134.15L110.344 160.688L63.8688 133.875V131.125L110.344 158.006L156.269 131.469V134.15ZM110.344 155.531L156.269 128.994V126.519L110.344 153.056L63.8688 126.175V128.719L110.344 155.531Z" fill="white"/>
</g>
<defs>
<clipPath id="clip0_4_5393">
<rect width="220" height="220" fill="white" transform="translate(0 0.5)"/>
</clipPath>
</defs>
</svg>
