<svg width="220" height="221" viewBox="0 0 220 221" fill="none" xmlns="http://www.w3.org/2000/svg">
<g clip-path="url(#clip0_4_5381)">
<path d="M110 220.5C170.751 220.5 220 171.251 220 110.5C220 49.7487 170.751 0.5 110 0.5C49.2487 0.5 0 49.7487 0 110.5C0 171.251 49.2487 220.5 110 220.5Z" fill="#EDF0F4"/>
<path d="M147.074 130.632C151.494 124.003 153.949 116.146 153.949 107.716C153.949 84.0631 134.061 64.8298 109.426 64.8298C98.4586 64.8298 88.392 68.6763 80.6986 74.9784C80.4531 75.1422 80.2074 75.3059 79.9619 75.5514C79.8802 75.6331 79.7982 75.7151 79.6345 75.7968C79.5527 75.8788 79.389 76.0423 79.3072 76.1243C78.9798 76.3698 78.7343 76.6152 78.4069 76.9427C77.9977 77.3519 77.5885 77.7611 77.2611 78.1703C72.5142 83.1628 69.2404 89.6284 67.5217 96.5852C67.5217 96.6671 67.4399 96.7489 67.4399 96.9126C64.0842 108.207 63.7569 122.53 71.0409 137.998C83.072 163.779 112.7 177.774 145.601 176.874C145.683 176.874 145.683 176.874 145.764 176.874C149.529 176.792 150.921 181.785 147.647 183.504C136.353 189.396 123.421 192.67 109.835 192.67C64.3298 192.67 27.5 155.84 27.5 110.335C27.5 67.858 59.7465 32.8288 101.078 28.4912C103.942 28.1637 106.889 28 109.835 28C127.922 28 144.701 33.8109 158.287 43.7141C161.97 46.4149 165.407 49.3613 168.599 52.6351C176.21 61.2286 180.794 72.2776 180.794 84.3904C180.794 105.752 166.717 123.921 147.074 130.632Z" fill="url(#paint0_linear_4_5381)"/>
<path d="M191.186 109.926C191.186 110.089 191.186 110.253 191.186 110.417C191.023 137.098 173.099 159.769 148.137 165.007C145.109 165.661 141.753 166.071 139.216 166.316C109.015 168.772 86.0171 154.613 75.7868 131.614C74.3135 128.341 73.2494 125.067 72.513 121.957C71.8581 119.338 71.3671 116.801 71.1217 114.263C71.1217 114.182 71.1217 114.1 71.1217 114.018C70.4668 107.88 71.0397 102.151 72.2673 96.9944C72.2673 96.9126 72.2673 96.8308 72.2673 96.7489C72.3493 96.5034 72.431 96.2579 72.431 96.0122C72.8402 94.2935 73.6588 92.7385 74.559 91.3471C77.4236 87.1732 83.8074 88.4827 84.8713 93.3933C85.9354 98.6313 87.5722 104.688 89.6183 108.289C97.9664 123.021 113.68 133.006 131.768 133.006C137.497 133.006 143.062 132.024 148.219 130.141C166.961 123.348 180.301 105.261 180.301 83.9812C180.301 71.8683 175.882 60.8194 168.68 52.2258C180.465 64.8298 188.568 81.444 190.614 99.9409C191.023 103.296 191.186 106.57 191.186 109.926Z" fill="url(#paint1_linear_4_5381)"/>
</g>
<defs>
<linearGradient id="paint0_linear_4_5381" x1="27.5" y1="192.699" x2="180.768" y2="192.699" gradientUnits="userSpaceOnUse">
<stop stop-color="#2D2D4C"/>
<stop offset="1" stop-color="#1E1E3A"/>
</linearGradient>
<linearGradient id="paint1_linear_4_5381" x1="70.8305" y1="166.618" x2="191.186" y2="166.618" gradientUnits="userSpaceOnUse">
<stop stop-color="#8592B9"/>
<stop offset="1" stop-color="#6D5D91"/>
</linearGradient>
<clipPath id="clip0_4_5381">
<rect width="220" height="220" fill="white" transform="translate(0 0.5)"/>
</clipPath>
</defs>
</svg>
