<svg width="220" height="221" viewBox="0 0 220 221" fill="none" xmlns="http://www.w3.org/2000/svg">
<g clip-path="url(#clip0_4_5385)">
<path d="M110 220.5C170.751 220.5 220 171.251 220 110.5C220 49.7487 170.751 0.5 110 0.5C49.2487 0.5 0 49.7487 0 110.5C0 171.251 49.2487 220.5 110 220.5Z" fill="#0899CD"/>
<path fill-rule="evenodd" clip-rule="evenodd" d="M57.0641 57.5635C42.5114 72.1577 35.1106 89.7192 34.834 110.241L34.841 110.248C34.8617 108.664 34.9308 107.101 35.0346 105.551C35.3182 105.564 35.6003 105.599 35.8784 105.655L68.3244 49.3811C68.1031 49.1321 67.9165 48.8555 67.7573 48.5788C71.0289 46.2756 74.432 44.2766 77.9663 42.575C78.1535 42.8871 78.3109 43.216 78.4367 43.5573H143.398C143.524 43.216 143.681 42.8873 143.868 42.575C147.435 44.2997 150.852 46.3171 154.084 48.6065C153.925 48.8698 153.745 49.1195 153.545 49.3534L185.956 105.655C186.232 105.599 186.511 105.565 186.793 105.551C186.865 106.527 186.918 107.504 186.951 108.482C186.982 109.36 186.997 110.244 187.001 111.133C186.999 110.249 186.982 109.365 186.951 108.482C186.286 88.7169 178.866 71.7425 164.694 57.5704C149.872 42.7481 131.944 35.3334 110.917 35.3334C89.8906 35.3334 71.9419 42.7481 57.0641 57.5635ZM67.7918 174.255C63.9646 171.548 60.3776 168.517 57.071 165.194C43.6734 151.796 36.3349 135.867 35.0415 117.414C35.3226 117.403 35.6023 117.37 35.8784 117.317L68.3244 173.514C68.1262 173.746 67.9482 173.993 67.7918 174.255ZM164.694 165.194C178.134 151.796 185.499 135.874 186.793 117.414C186.502 117.4 186.225 117.365 185.95 117.317L153.51 173.514C153.702 173.738 153.88 173.974 154.043 174.22C157.757 171.599 161.305 168.59 164.694 165.194ZM110.917 187.5C125.657 187.5 138.881 183.848 150.57 176.537C148.378 177.9 146.137 179.145 143.834 180.251C143.661 179.966 143.515 179.665 143.398 179.352H78.4367C78.3168 179.665 78.1685 179.966 77.994 180.251C76.2303 179.408 74.5011 178.488 72.7996 177.485C84.1222 184.16 96.8282 187.5 110.917 187.5ZM182.477 107.668L182.475 107.671L151.006 53.1231V105.883C151.82 106.194 152.556 106.678 153.164 107.301C153.787 107.907 154.271 108.641 154.582 109.452H181.398C181.646 108.798 182.011 108.194 182.475 107.671L182.477 107.675V107.668ZM182.477 115.283C182.013 114.758 181.647 114.154 181.398 113.499H154.582C154.271 114.312 153.788 115.048 153.164 115.657C152.556 116.278 151.82 116.759 151.006 117.068V169.773L182.477 115.283ZM40.4365 109.459C40.1877 108.804 39.8221 108.2 39.3576 107.675L70.8284 53.1231V105.89C70.0147 106.201 69.2783 106.685 68.6704 107.308C68.0478 107.914 67.5639 108.648 67.2525 109.459H40.4365ZM78.4435 47.5965C78.4253 47.6449 78.402 47.6913 78.3744 47.735L120.656 84.3587C121.856 83.6578 123.27 83.4191 124.633 83.6877L144.484 49.3811C144.022 48.8544 143.657 48.2503 143.405 47.5965H78.4435ZM78.4435 109.459C78.1322 108.648 77.6484 107.914 77.0256 107.308C76.4175 106.685 75.6812 106.201 74.8676 105.89V53.1231L106.373 107.606C105.918 108.155 105.566 108.783 105.336 109.459H78.4435ZM129.158 91.6297L129.157 91.635V91.6281L129.158 91.6297ZM146.102 106.291L129.158 91.6297C129.406 90.9512 129.529 90.2338 129.523 89.5117C129.539 88.1176 129.048 86.7655 128.14 85.7075L146.981 53.1299V105.883C146.677 105.994 146.383 106.131 146.102 106.291ZM118.069 87.3951C117.795 88.0668 117.656 88.786 117.661 89.5117C117.661 90.964 118.131 92.2367 119.079 93.3226L111.969 105.586C111.279 105.449 110.569 105.449 109.88 105.586L80.5947 54.9766L118.062 87.3951H118.069ZM115.475 107.613C115.94 108.159 116.303 108.785 116.547 109.459V109.466H143.405C143.432 109.422 143.455 109.376 143.474 109.328L126.528 94.6714C125.329 95.3723 123.914 95.611 122.551 95.3424L115.475 107.613ZM144.823 115.664C145.431 116.287 146.167 116.771 146.981 117.082V169.773L115.475 115.193C115.907 114.693 116.248 114.122 116.485 113.506H143.405C143.716 114.319 144.2 115.055 144.823 115.664ZM111.969 117.247C111.301 117.36 110.62 117.372 109.949 117.282L102.804 129.649C103.712 130.707 104.204 132.059 104.187 133.453C104.192 134.178 104.066 134.897 103.814 135.577L141.247 167.954L111.969 117.247ZM143.474 175.168C143.455 175.215 143.431 175.262 143.405 175.306H78.4435C78.205 174.651 77.8513 174.045 77.3992 173.514L97.2086 139.277C98.5717 139.546 99.9863 139.308 101.186 138.606L143.474 175.168ZM95.3202 128.293C96.5194 127.591 97.9342 127.353 99.2973 127.622L106.408 115.256C105.944 114.716 105.598 114.128 105.363 113.506H78.4435C78.4248 113.554 78.4017 113.6 78.3744 113.644L95.3202 128.293ZM92.7264 131.33L92.7244 131.335L75.7461 116.673C75.4654 116.832 75.1715 116.966 74.8676 117.075V169.807L93.7432 137.257C92.7957 136.171 92.3253 134.906 92.3253 133.453C92.3172 132.728 92.4529 132.008 92.7244 131.335L92.7264 131.337V131.33ZM70.8284 117.082C70.0149 116.771 69.2787 116.287 68.6704 115.664C68.047 115.055 67.5634 114.319 67.2525 113.506H40.4365C40.1875 114.161 39.8219 114.765 39.3576 115.29L70.8284 169.773V117.082Z" fill="white"/>
</g>
<defs>
<clipPath id="clip0_4_5385">
<rect width="220" height="220" fill="white" transform="translate(0 0.5)"/>
</clipPath>
</defs>
</svg>
