<svg width="220" height="221" viewBox="0 0 220 221" fill="none" xmlns="http://www.w3.org/2000/svg">
<g clip-path="url(#clip0_4_5378)">
<path d="M110 220.5C170.751 220.5 220 171.251 220 110.5C220 49.7487 170.751 0.5 110 0.5C49.2487 0.5 0 49.7487 0 110.5C0 171.251 49.2487 220.5 110 220.5Z" fill="#5244D4"/>
<path fill-rule="evenodd" clip-rule="evenodd" d="M108.167 189.333C63.6139 189.333 27.5 153.219 27.5 108.667C27.5 64.1139 63.6139 28 108.167 28C152.719 28 188.833 64.1139 188.833 108.667C188.833 153.219 152.719 189.333 108.167 189.333ZM128.092 136.245L108.167 108.667L88.2413 136.245L72.039 108.667L90.1028 77.7788H126.23L144.294 108.667L128.092 136.245ZM82.3119 64.5413H134.021L159.807 108.667L134.021 152.792H82.3808L56.5262 108.667L82.3119 64.5413Z" fill="white"/>
</g>
<defs>
<clipPath id="clip0_4_5378">
<rect width="220" height="220" fill="white" transform="translate(0 0.5)"/>
</clipPath>
</defs>
</svg>
