<svg width="220" height="221" viewBox="0 0 220 221" fill="none" xmlns="http://www.w3.org/2000/svg">
<g clip-path="url(#clip0_4_5388)">
<path d="M110 220.5C170.751 220.5 220 171.251 220 110.5C220 49.7487 170.751 0.5 110 0.5C49.2487 0.5 0 49.7487 0 110.5C0 171.251 49.2487 220.5 110 220.5Z" fill="#3058A6"/>
<path fill-rule="evenodd" clip-rule="evenodd" d="M27.5 110.5C27.5 65.0067 64.5067 28 110 28C155.493 28 192.5 65.0067 192.5 110.5C192.5 155.993 155.493 193 110 193C64.5067 193 27.5 155.993 27.5 110.5ZM32.4412 110.5C32.4412 153.333 67.1675 188.059 110 188.059C152.833 188.059 187.559 153.333 187.559 110.5C187.559 67.6675 152.833 32.9412 110 32.9412C67.1675 32.9412 32.4412 67.6675 32.4412 110.5Z" fill="white"/>
<path fill-rule="evenodd" clip-rule="evenodd" d="M128.168 52.9751L131.568 60.0448L129.405 69.8856H124.457L127.684 55.1865L128.168 52.9751ZM134.747 158.661L139.052 140.009L139.578 137.735L142.936 144.86L138.631 163.512L137.587 168.024H132.957L109.157 168.011H109.06C96.4826 167.803 87.471 163.47 83.2278 155.986C88.1413 160.464 95.6325 163 105.176 163.159H105.273L129.08 163.173H133.71L134.747 158.661ZM148.755 77.0521L144.47 95.1926L143.406 99.6707H117.608L111.057 129.58C110.919 130.437 110.836 131.308 110.836 131.792C110.836 132.213 110.884 132.483 110.926 132.614C111.418 132.799 111.941 132.888 112.467 132.877H115.287L121.492 104.529H147.29L148.347 100.044L152.632 81.9033L149.301 74.7439L148.748 77.0521H148.755ZM66.7734 99.6707H84.7482L83.6909 104.529H72.9653L66.7734 99.6707Z" fill="white"/>
<path d="M113.032 138.703H112.376C107.372 138.571 105.009 135.966 105.009 131.792C105.009 130.797 105.175 129.477 105.34 128.489L112.928 93.8522H138.802L143.087 75.7116H117.213L121.995 53.9427H100.89L96.101 75.7116H73.1988L69.0801 93.8522H91.9823L83.0673 134.591C82.5837 136.567 82.4108 138.875 82.4108 140.029C82.4108 151.653 91.5813 157.113 105.272 157.341L129.072 157.348L133.377 138.703H113.032Z" fill="white"/>
</g>
<defs>
<clipPath id="clip0_4_5388">
<rect width="220" height="220" fill="white" transform="translate(0 0.5)"/>
</clipPath>
</defs>
</svg>
