<svg width="220" height="221" viewBox="0 0 220 221" fill="none" xmlns="http://www.w3.org/2000/svg">
<g clip-path="url(#clip0_4_5397)">
<path fill-rule="evenodd" clip-rule="evenodd" d="M110 220.5C49.5 220.5 0 171.001 0 109.952C0.55 49.4535 49.5 -0.0454497 110.55 0.504539C171.05 1.05453 220 50.0035 220 111.602C219.45 171.551 170.5 220.5 110 220.5Z" fill="#EDF0F4"/>
<path d="M110.197 116.256L107.539 116.363C101.581 116.363 97.0042 120.942 96.2309 127C95.8492 130.022 95.8348 130.994 95.7477 132.029C95.6173 134.446 94.989 135.462 92.5437 134.054C89.0468 132.082 85.6986 129.857 82.5257 127.397C64.0651 110.097 65.8047 81.7491 88.4697 66.1803C93.7856 62.5492 96.9461 58.4878 95.6171 51.7283C93.7374 42.2905 85.5848 38.021 77.2534 42.8126C55.4776 55.3596 44.8747 74.6174 44 95.8335C44.0094 101.941 44.7689 108.024 46.2618 113.946C46.2845 114.272 46.3379 114.596 46.4211 114.912C50.2244 134.223 61.1558 148.637 79.6745 157.901C83.6653 159.788 87.8066 161.337 92.0555 162.533C93.0915 162.726 94.0238 163.285 94.6834 164.107C95.3431 164.929 95.6863 165.961 95.6511 167.015C95.7017 168.355 95.847 169.689 96.0859 171.008C97.1636 177.038 101.885 180.814 108.168 180.867H110.101V180.751L110.197 116.256Z" fill="#17A84B"/>
<path d="M143.032 42.8369C134.715 38.0454 126.563 42.3147 124.702 51.7527C123.369 58.5218 126.549 62.5687 131.831 66.2045C154.442 81.7734 156.249 110.121 137.789 127.421C134.614 129.881 131.262 132.105 127.761 134.074C125.311 135.486 124.702 134.446 124.552 132.053C124.552 130.367 124.402 128.684 124.103 127.024C123.33 120.995 118.787 116.44 112.795 116.387L110.137 116.281V180.746V180.867H112.157C118.464 180.867 123.17 177.033 124.263 171.004C124.499 169.686 124.64 168.353 124.688 167.015C124.654 165.959 124.998 164.927 125.66 164.104C126.321 163.28 127.255 162.721 128.293 162.528C132.539 161.334 136.678 159.785 140.664 157.896C159.164 148.584 170.085 134.205 173.918 114.912C173.981 114.564 174.024 114.246 174.062 113.946C175.56 108.025 176.32 101.941 176.324 95.8336C175.43 74.6417 164.803 55.3838 143.032 42.8369Z" fill="#077FA2"/>
<path d="M109.613 84.9015C101.794 84.9836 96.4974 90.4763 96.5651 98.4396C96.5651 106.901 101.881 112.374 109.947 112.384H110.212V84.9305L109.613 84.9015Z" fill="#17A84B"/>
<path d="M123.841 98.517C123.804 94.9134 122.352 91.4687 119.799 88.9268C117.246 86.3847 113.795 84.9494 110.193 84.9305V112.398C111.998 112.386 113.783 112.019 115.446 111.317C117.109 110.614 118.617 109.591 119.885 108.306C121.153 107.021 122.155 105.498 122.835 103.825C123.514 102.152 123.858 100.361 123.846 98.5557L123.841 98.517Z" fill="#077FA2"/>
</g>
<defs>
<clipPath id="clip0_4_5397">
<rect width="220" height="220" fill="white" transform="translate(0 0.5)"/>
</clipPath>
</defs>
</svg>
