<svg width="220" height="221" viewBox="0 0 220 221" fill="none" xmlns="http://www.w3.org/2000/svg">
<g clip-path="url(#clip0_4_5403)">
<path d="M216.683 137.11C201.993 196.038 142.307 231.902 83.3712 217.207C24.4598 202.515 -11.4034 142.826 3.29433 83.9016C17.9792 24.966 77.6648 -10.8997 136.583 3.79159C195.514 18.4829 231.376 78.1776 216.683 137.11Z" fill="#EDF0F4"/>
<path d="M84.962 37.1667V86.038L60.5 110.5V61.6286L84.962 37.1667Z" fill="#242828"/>
<path d="M158.295 134.962C158.295 161.938 136.4 183.833 109.424 183.833C82.3953 183.833 60.5 161.938 60.5 134.962V110.5H84.962V134.962C84.962 148.476 95.9095 159.424 109.424 159.424C122.938 159.424 133.886 148.476 133.886 134.962H158.295Z" fill="#242828"/>
<path d="M158.295 86.038L133.833 110.5H60.5L84.962 86.038H158.295Z" fill="#00E8B5"/>
</g>
<defs>
<clipPath id="clip0_4_5403">
<rect width="220" height="220" fill="white" transform="translate(0 0.5)"/>
</clipPath>
</defs>
</svg>
