<svg width="220" height="221" viewBox="0 0 220 221" fill="none" xmlns="http://www.w3.org/2000/svg">
<g clip-path="url(#clip0_4_5408)">
<path d="M220 110.5C220 49.7487 170.751 0.5 110 0.5C49.2487 0.5 0 49.7487 0 110.5C0 171.251 49.2487 220.5 110 220.5C170.751 220.5 220 171.251 220 110.5Z" fill="black"/>
<path d="M220 110.5C220 49.7487 170.751 0.5 110 0.5C49.2487 0.5 0 49.7487 0 110.5C0 171.251 49.2487 220.5 110 220.5C170.751 220.5 220 171.251 220 110.5Z" fill="#2CC981"/>
<path fill-rule="evenodd" clip-rule="evenodd" d="M149.559 33.5L184.937 70.368H113.135L149.559 33.5ZM74.4926 108.683L36.666 70.6969L73.3505 33.8289L185.166 146.768L148.123 183.57L111.536 146.768L74.6886 183.833L37.5799 146.505L74.4926 108.683Z" fill="white"/>
</g>
<defs>
<clipPath id="clip0_4_5408">
<rect width="220" height="220" fill="white" transform="translate(0 0.5)"/>
</clipPath>
</defs>
</svg>
