<svg width="220" height="221" viewBox="0 0 220 221" fill="none" xmlns="http://www.w3.org/2000/svg">
<g clip-path="url(#clip0_4_5412)">
<path d="M110 220.5C170.751 220.5 220 171.251 220 110.5C220 49.7487 170.751 0.5 110 0.5C49.2487 0.5 0 49.7487 0 110.5C0 171.251 49.2487 220.5 110 220.5Z" fill="black"/>
<path fill-rule="evenodd" clip-rule="evenodd" d="M140.26 73.9546C158.567 75.5604 173.02 90.3347 173.984 108.642C173.02 78.4511 147.969 54.3627 117.457 55.3263C99.4707 55.9685 82.7694 64.9616 73.1341 80.0569C74.74 61.7498 89.5142 47.2969 107.821 46.3333C77.3094 47.6181 53.8634 73.6334 55.1482 104.145C55.7904 121.489 64.7835 137.548 79.2364 147.183C60.9293 145.577 46.7976 130.803 45.834 112.496C46.4764 142.687 71.8494 166.775 102.04 166.133C120.026 165.811 136.406 156.497 146.363 141.723C144.757 159.709 129.983 173.841 111.997 174.804C142.187 173.841 165.955 148.468 164.991 117.956C164.349 100.291 155.356 83.5899 140.26 73.9546ZM109.748 133.694C103.646 133.694 97.8649 131.445 93.6895 126.949C84.6964 117.956 85.0176 103.503 93.6895 94.8312C102.361 86.1593 117.135 86.1593 125.807 94.8312C134.479 103.503 134.479 118.277 125.807 126.949C121.632 131.445 115.851 133.694 109.748 133.694Z" fill="#94FEBF"/>
</g>
<defs>
<clipPath id="clip0_4_5412">
<rect width="220" height="220" fill="white" transform="translate(0 0.5)"/>
</clipPath>
</defs>
</svg>
