<svg width="220" height="221" viewBox="0 0 220 221" fill="none" xmlns="http://www.w3.org/2000/svg">
<g clip-path="url(#clip0_4_5415)">
<path d="M110 220.5C170.751 220.5 220 171.251 220 110.5C220 49.7487 170.751 0.5 110 0.5C49.2487 0.5 0 49.7487 0 110.5C0 171.251 49.2487 220.5 110 220.5Z" fill="#EDF0F4"/>
<path d="M110 220.5C170.751 220.5 220 171.251 220 110.5C220 49.7487 170.751 0.5 110 0.5C49.2487 0.5 0 49.7487 0 110.5C0 171.251 49.2487 220.5 110 220.5Z" fill="url(#paint0_linear_4_5415)"/>
<path d="M148.433 59.3118H66.5941C64.4159 59.3118 62.5488 61.1788 62.5488 63.357V81.5607C62.5488 83.7389 64.4159 85.606 66.5941 85.606H94.1329V159.199C94.1329 161.377 97.2447 169.312 104.246 169.312H121.361C123.539 169.312 125.406 167.445 125.406 165.267V85.606H153.256C155.434 85.606 157.301 83.7389 157.301 81.5607V68.0247C157.457 65.8465 154.034 59.3118 148.433 59.3118Z" fill="white"/>
</g>
<defs>
<linearGradient id="paint0_linear_4_5415" x1="0" y1="220.5" x2="220" y2="220.5" gradientUnits="userSpaceOnUse">
<stop stop-color="#2E2D4F"/>
<stop offset="0.0241829" stop-color="#2F2E50"/>
<stop offset="1" stop-color="#544E75"/>
</linearGradient>
<clipPath id="clip0_4_5415">
<rect width="220" height="220" fill="white" transform="translate(0 0.5)"/>
</clipPath>
</defs>
</svg>
