<svg width="220" height="221" viewBox="0 0 220 221" fill="none" xmlns="http://www.w3.org/2000/svg">
<g clip-path="url(#clip0_4_5419)">
<path d="M110 220.5C170.751 220.5 220 171.251 220 110.5C220 49.7487 170.751 0.5 110 0.5C49.2487 0.5 0 49.7487 0 110.5C0 171.251 49.2487 220.5 110 220.5Z" fill="#374851"/>
<path fill-rule="evenodd" clip-rule="evenodd" d="M132.229 156.095V176.787C159.763 167.816 179.666 141.934 179.666 111.411C179.666 73.4436 148.887 42.6667 110.916 42.6667C72.9453 42.6667 42.166 73.4436 42.166 111.411C42.166 141.934 62.069 167.816 89.6035 176.787V156.095C68.7284 146.138 57.5319 123.053 62.6368 100.497C67.7418 77.9406 87.7874 61.9257 110.916 61.9257C134.045 61.9257 154.09 77.9406 159.195 100.497C164.3 123.053 153.104 146.138 132.229 156.095ZM122.604 159.518V107.286H146.666V88.0381H75.166V107.286H99.2285V179.166C108.358 180.739 117.711 180.456 126.729 178.334V158.329C125.381 158.783 124.006 159.175 122.604 159.518Z" fill="white"/>
</g>
<defs>
<clipPath id="clip0_4_5419">
<rect width="220" height="220" fill="white" transform="translate(0 0.5)"/>
</clipPath>
</defs>
</svg>
