<svg width="220" height="221" viewBox="0 0 220 221" fill="none" xmlns="http://www.w3.org/2000/svg">
<g clip-path="url(#clip0_4_5425)">
<path d="M110 220.5C170.751 220.5 220 171.251 220 110.5C220 49.7487 170.751 0.5 110 0.5C49.2487 0.5 0 49.7487 0 110.5C0 171.251 49.2487 220.5 110 220.5Z" fill="#FF439B"/>
<path fill-rule="evenodd" clip-rule="evenodd" d="M42.166 135.088L120.273 135.461L107.692 113.961H79.0435L108.627 66.2136L95.8392 44.5L42.166 135.088ZM86.6885 110.483L126.062 44.7761L179.666 135.378H153.926L125.601 85.9601L111.844 110.49L86.6885 110.483ZM126.22 94.9119L164.947 161.833H57.6003L70.4635 140.417L128.296 140.43L113.639 116.412L126.22 94.9119Z" fill="white"/>
</g>
<defs>
<clipPath id="clip0_4_5425">
<rect width="220" height="220" fill="white" transform="translate(0 0.5)"/>
</clipPath>
</defs>
</svg>
