<svg width="220" height="221" viewBox="0 0 220 221" fill="none" xmlns="http://www.w3.org/2000/svg">
<g clip-path="url(#clip0_4_5428)">
<path fill-rule="evenodd" clip-rule="evenodd" d="M110 220.5C49.5 220.5 0 171.001 0 109.952C0.55 49.4535 49.5 -0.0454497 110.55 0.504539C171.05 1.05453 220 50.0035 220 111.602C219.45 171.551 170.5 220.5 110 220.5Z" fill="#FC070C"/>
<path fill-rule="evenodd" clip-rule="evenodd" d="M188.375 87.2277C185.372 84.4559 181.892 81.0765 178.265 77.555C173.171 72.6089 167.787 67.3818 163.037 63.1654L162.556 62.8284C161.755 62.1854 160.852 61.6811 159.885 61.3366L156.218 60.6526C130.919 55.9319 48.9113 40.6302 47.2243 40.8354C46.7254 40.9052 46.2486 41.0862 45.8287 41.3648L45.3715 41.7256C44.8087 42.2974 44.381 42.9881 44.1203 43.7469L44 44.0598V45.7681V46.0329C49.5677 61.5361 64.0306 96.1584 77.3848 128.127C88.6749 155.153 99.1729 180.284 102.833 190.36L102.834 190.364C103.316 191.856 104.23 194.69 105.937 194.835H106.322C107.236 194.835 111.134 189.685 111.134 189.685C111.134 189.685 180.819 105.178 187.869 96.1789C188.782 95.0705 189.587 93.8781 190.276 92.6177C190.632 90.6118 189.911 88.5656 188.375 87.2277ZM129.013 97.0692L158.754 72.4054L176.199 88.4789L129.013 97.0692ZM66.2578 53.4921L117.463 95.4571L149.105 68.7719L66.2578 53.4921ZM122.083 106.454L174.491 98.0077L114.575 170.195L122.083 106.454ZM113.18 103.398L59.3038 57.6791L105.383 170.243L113.18 103.398Z" fill="white"/>
</g>
<defs>
<clipPath id="clip0_4_5428">
<rect width="220" height="220" fill="white" transform="translate(0 0.5)"/>
</clipPath>
</defs>
</svg>
