<svg width="220" height="221" viewBox="0 0 220 221" fill="none" xmlns="http://www.w3.org/2000/svg">
<g clip-path="url(#clip0_4_5431)">
<path d="M110 220.5C170.751 220.5 220 171.251 220 110.5C220 49.7487 170.751 0.5 110 0.5C49.2487 0.5 0 49.7487 0 110.5C0 171.251 49.2487 220.5 110 220.5Z" fill="#2B2E7F"/>
<path d="M117.563 130.914V90.5689H123.032C140.125 90.5689 144.91 74.1575 144.91 74.1575H99.1032C77.2251 74.1575 73.8066 90.5689 73.8066 90.5689H100.471V151.429C99.7868 151.429 117.563 145.958 117.563 130.914Z" fill="white"/>
<path d="M167.477 162.37C182.519 146.642 188.671 124.076 183.202 102.878C180.468 91.937 174.314 81.6796 166.11 73.4738C165.426 72.79 164.743 72.1062 164.059 71.4223L163.375 70.7387C162.692 70.0548 162.008 70.0548 162.008 69.371L161.324 68.6872L159.957 67.3195H157.906C157.222 66.6357 156.538 66.6357 155.855 65.9518L154.487 65.268C153.804 65.268 153.804 64.5842 153.12 64.5842L151.753 63.9003C152.436 63.2167 151.753 62.5329 151.069 62.5329L149.702 61.849C149.018 61.849 149.018 61.1652 148.334 61.1652H147.65C149.702 62.5329 151.069 63.2167 152.436 64.5842C175.682 87.834 176.365 125.444 153.12 149.377C153.12 149.377 153.12 149.377 152.436 150.061C122.354 180.149 73.8118 180.149 43.7294 150.061C42.3619 148.694 41.6783 148.01 40.311 146.642L39.6273 145.958C38.9435 145.274 38.2598 144.591 37.5762 143.907C41.6783 151.429 46.4642 158.267 52.6174 164.421C84.0671 195.193 134.66 195.193 166.11 164.421C166.794 163.054 166.794 163.054 167.477 162.37Z" fill="white"/>
<path d="M71.758 154.164C70.3907 152.796 69.0232 152.112 67.6559 150.745C44.4104 127.495 43.7267 89.2014 66.9721 65.9518C66.9721 65.9518 66.9721 65.9518 67.6559 65.268C97.7384 35.1801 146.28 35.1801 176.363 65.268C178.414 67.3193 180.465 69.3708 182.516 72.1061C178.414 64.5842 173.628 57.746 167.475 51.5917C136.025 20.1361 85.4319 20.1361 53.982 51.5917C53.2984 52.2755 53.2984 52.2755 52.6147 52.9592C32.1039 74.8413 28.6855 106.981 45.7779 131.598C51.9311 141.171 61.5027 149.377 71.758 154.164Z" fill="white"/>
</g>
<defs>
<clipPath id="clip0_4_5431">
<rect width="220" height="220" fill="white" transform="translate(0 0.5)"/>
</clipPath>
</defs>
</svg>
