<svg width="220" height="221" viewBox="0 0 220 221" fill="none" xmlns="http://www.w3.org/2000/svg">
<g clip-path="url(#clip0_4_5439)">
<path d="M110 220.5C170.753 220.5 220 171.253 220 110.5C220 49.747 170.753 0.5 110 0.5C49.247 0.5 0 49.747 0 110.5C0 171.253 49.247 220.5 110 220.5Z" fill="#071377"/>
<path fill-rule="evenodd" clip-rule="evenodd" d="M73.3398 64.5521V68.1038L72.0171 68.3309C69.5879 68.7484 66.5519 69.5857 63.7176 70.62C50.0411 75.6113 39.6556 88.6281 37.1823 103.878C33.7413 125.094 47.8549 146.044 68.9657 151.058C80.1679 153.719 92.7921 151.529 102.414 145.258C107.96 141.642 110.186 138.884 115.974 128.455C119.379 122.321 129.217 103.057 128.946 103.057C128.697 103.057 93.3554 126.086 91.3914 127.528C88.9906 129.29 86.2801 130.429 82.8211 131.13C75.8357 132.545 68.8161 130.282 63.4382 124.88C60.7454 122.175 58.4462 117.93 57.8407 114.545C57.3143 111.602 57.3823 107.109 57.9881 104.821C59.5323 98.9834 64.008 93.4826 69.4138 90.7766C71.0359 89.9646 72.5775 89.3004 72.8397 89.3004C73.2029 89.3004 73.3398 90.1777 73.4159 92.9964L73.5162 96.6924L86.9204 88.0217C94.2926 83.253 100.448 79.236 100.599 79.0954C100.75 78.9546 95.0359 75.0567 87.9005 70.4342C80.765 65.8114 74.5698 61.7975 74.1335 61.5146L73.3398 61V64.5521ZM137.186 67.9441C136.895 68.0147 135.466 68.2622 134.011 68.4943C130.385 69.0729 124.527 71.003 121.16 72.7287C113.235 76.7905 110.077 80.4152 102.884 93.7098C99.3369 100.264 90.8823 116.84 91.0256 116.959C91.1529 117.065 111.251 104.063 124.664 95.1979C132.785 89.8303 134.832 88.9549 139.911 88.6775C144.094 88.4489 146.838 88.9882 150.544 90.7667C156.152 93.4575 160.836 99.278 162.066 105.083C162.734 108.234 162.716 112.494 162.024 115.176C160.348 121.673 154.814 127.842 148.514 130.235L146.71 130.921V127.189C146.71 124.657 146.586 123.499 146.326 123.585C145.702 123.793 119.222 140.961 119.228 141.153C119.234 141.337 145.774 158.525 146.37 158.732C146.573 158.802 146.71 157.436 146.71 155.338V151.826L148.478 151.592C149.451 151.463 151.618 150.96 153.293 150.475C174.815 144.238 187.731 121.027 181.954 98.97C180.091 91.8568 176.385 85.6774 170.55 79.9528C162.523 72.0779 153.622 68.2481 142.653 67.9502C139.937 67.8759 137.477 67.8735 137.186 67.9441Z" fill="white"/>
</g>
<defs>
<clipPath id="clip0_4_5439">
<rect width="220" height="220" fill="white" transform="translate(0 0.5)"/>
</clipPath>
</defs>
</svg>
