<svg width="220" height="221" viewBox="0 0 220 221" fill="none" xmlns="http://www.w3.org/2000/svg">
<g clip-path="url(#clip0_4_5436)">
<path d="M110 220.5C170.751 220.5 220 171.251 220 110.5C220 49.7487 170.751 0.5 110 0.5C49.2487 0.5 0 49.7487 0 110.5C0 171.251 49.2487 220.5 110 220.5Z" fill="#EDF0F4"/>
<path fill-rule="evenodd" clip-rule="evenodd" d="M50.2054 68.2302C45.834 76.8124 45.834 88.0416 45.834 110.5C45.834 132.958 45.834 144.187 50.2054 152.77C54.0554 160.309 60.1914 166.445 67.731 170.295C76.3132 174.667 87.5423 174.667 110.001 174.667C132.459 174.667 143.688 174.667 152.271 170.295C159.81 166.445 165.946 160.309 169.796 152.77C174.167 144.187 174.167 132.958 174.167 110.5C174.167 88.0416 174.167 76.8124 169.796 68.2302C165.946 60.6906 159.81 54.5547 152.271 50.7047C143.688 46.3333 132.459 46.3333 110.001 46.3333C87.5423 46.3333 76.3132 46.3333 67.731 50.7047C60.1914 54.5547 54.0554 60.6906 50.2054 68.2302ZM142.024 80.9431C143.147 80.9431 144.21 81.4044 144.992 82.1865C145.774 82.9886 146.215 84.0713 146.195 85.1741C145.994 97.1252 145.533 106.269 144.671 113.508C143.829 120.747 142.565 126.12 140.661 130.472C139.377 133.379 137.793 135.786 135.928 137.831C133.421 140.538 130.554 142.503 127.426 144.368C126.089 145.168 124.698 145.957 123.24 146.786C120.127 148.553 116.706 150.496 112.828 153.091C111.424 154.033 109.6 154.033 108.196 153.091C104.259 150.466 100.792 148.499 97.6517 146.717C96.9532 146.321 96.271 145.934 95.6033 145.551C91.9341 143.425 88.6255 141.4 85.738 138.473C83.813 136.548 82.1487 134.201 80.8252 131.414C79.0204 127.684 77.7972 123.173 76.8949 117.338C75.6916 109.537 75.0901 99.3309 74.8696 85.1741C74.8494 84.0713 75.2705 82.9886 76.0526 82.1865C76.8347 81.4044 77.9175 80.9431 79.0404 80.9431H80.765C86.0786 80.9633 97.809 80.4419 107.955 72.5413C109.459 71.3782 111.565 71.3782 113.069 72.5413C123.215 80.4419 134.946 80.9633 140.28 80.9431H142.024ZM132.7 127.805C134.003 125.118 135.086 121.408 135.908 116.074C136.891 109.698 137.492 101.035 137.773 89.2448C131.517 89.0642 120.769 87.8612 110.522 80.9633C100.276 87.841 89.5278 89.0442 83.2914 89.2448C83.5119 98.9901 83.953 106.57 84.6548 112.525C85.4569 119.303 86.6002 123.895 88.0236 127.123C88.9661 129.269 90.0091 130.813 91.2523 132.176C92.9164 134.001 95.0218 135.505 97.8893 137.229C99.0787 137.943 100.39 138.685 101.818 139.494C104.361 140.933 107.273 142.581 110.522 144.649C113.711 142.615 116.581 140.983 119.095 139.555C119.853 139.124 120.578 138.712 121.27 138.312C124.799 136.287 127.406 134.603 129.351 132.637C130.655 131.294 131.717 129.83 132.7 127.805Z" fill="#3375BB"/>
</g>
<defs>
<clipPath id="clip0_4_5436">
<rect width="220" height="220" fill="white" transform="translate(0 0.5)"/>
</clipPath>
</defs>
</svg>
