<svg width="220" height="221" viewBox="0 0 220 221" fill="none" xmlns="http://www.w3.org/2000/svg">
<g clip-path="url(#clip0_4_5442)">
<path d="M110 220.5C170.751 220.5 220 171.251 220 110.5C220 49.7487 170.751 0.5 110 0.5C49.2487 0.5 0 49.7487 0 110.5C0 171.251 49.2487 220.5 110 220.5Z" fill="#00843D"/>
<path fill-rule="evenodd" clip-rule="evenodd" d="M96.9673 31.513C100.932 29.2232 105.427 28.0163 110.004 28.0137L109.997 28C114.579 28.0004 119.079 29.2071 123.048 31.4993L172.124 59.8709C180.185 64.546 185.153 73.1601 185.167 82.4859V140.354C185.153 149.68 180.185 158.294 172.124 162.969L123.041 191.334C114.973 195.999 105.028 195.999 96.9537 191.334L47.8776 162.969C39.8166 158.294 34.8483 149.68 34.834 140.354V82.4859C34.8483 73.1601 39.8166 64.546 47.8776 59.8709L96.9673 31.513ZM117.708 40.7827C115.371 39.431 112.718 38.7243 110.018 38.7243L110.011 38.7175H109.997C107.303 38.7175 104.644 39.431 102.3 40.7827L53.2238 69.1473C48.4602 71.9058 45.5265 76.99 45.5265 82.4927V140.361C45.5293 145.864 48.463 150.948 53.2238 153.7L102.314 182.071C107.075 184.823 112.94 184.823 117.701 182.071L166.784 153.7C171.548 150.948 174.475 145.864 174.475 140.361V82.4927C174.477 76.9883 171.546 71.9008 166.784 69.1473L117.708 40.7827Z" fill="white"/>
<path fill-rule="evenodd" clip-rule="evenodd" d="M111.553 66.0184C110.596 65.4962 109.44 65.4962 108.483 66.0184L93.9107 73.9776L101.217 86.6436C101.79 87.6365 102.848 88.2485 103.993 88.2492H116.043C117.189 88.2499 118.247 87.6376 118.819 86.6436L126.125 73.9844L111.553 66.0253V66.0184ZM87.8926 104.38C89.0397 104.379 90.0995 103.768 90.6754 102.775L96.5769 92.5306C97.15 91.5371 97.15 90.313 96.5769 89.3195L89.2155 76.5505L74.8422 84.3999C73.7919 84.9761 73.1496 86.0899 73.1766 87.2885C73.2932 93.0384 73.9649 98.7608 75.1713 104.38H87.8926ZM103.993 120.511C102.845 120.513 101.784 119.901 101.21 118.906L95.309 108.662C94.7359 107.668 94.7359 106.444 95.309 105.451L101.21 95.2065C101.784 94.2116 102.845 93.5992 103.993 93.601H116.043C117.187 93.6045 118.244 94.2158 118.819 95.2065L124.727 105.451C125.3 106.444 125.3 107.668 124.727 108.662L118.819 118.906C118.246 119.899 117.188 120.51 116.043 120.511H103.993ZM129.361 102.775C129.933 103.767 130.991 104.379 132.137 104.38H144.865C146.07 98.7571 146.736 93.0316 146.853 87.2817C146.876 86.084 146.231 84.973 145.18 84.3999L130.814 76.5505L123.452 89.3195C122.879 90.313 122.879 91.5371 123.452 92.5306L129.361 102.775ZM89.4896 137.088C83.6422 128.772 79.2501 119.522 76.501 109.732H87.8995C89.0448 109.733 90.1028 110.345 90.6754 111.338L96.5837 121.582C97.1568 122.575 97.1568 123.799 96.5837 124.793L89.4896 137.088ZM143.521 109.732C140.774 119.521 136.385 128.772 130.54 137.088L123.445 124.793C122.872 123.799 122.872 122.575 123.445 121.582L129.361 111.338C129.933 110.345 130.991 109.733 132.137 109.732H143.521ZM101.21 127.469C101.784 126.473 102.845 125.861 103.993 125.863H116.05C117.195 125.864 118.253 126.476 118.826 127.469L127.051 141.733C122.624 147.245 117.567 152.219 111.985 156.554C110.827 157.445 109.216 157.445 108.058 156.554C102.473 152.221 97.4149 147.25 92.9852 141.74L101.21 127.469Z" fill="white"/>
</g>
<defs>
<clipPath id="clip0_4_5442">
<rect width="220" height="220" fill="white" transform="translate(0 0.5)"/>
</clipPath>
</defs>
</svg>
