<svg width="220" height="221" viewBox="0 0 220 221" fill="none" xmlns="http://www.w3.org/2000/svg">
<g clip-path="url(#clip0_4_5446)">
<path d="M110 220.5C170.751 220.5 220 171.251 220 110.5C220 49.7487 170.751 0.5 110 0.5C49.2487 0.5 0 49.7487 0 110.5C0 171.251 49.2487 220.5 110 220.5Z" fill="#EDF0F4"/>
<path d="M124.76 48.5337L126.758 112.258L179.851 78.7105L124.76 48.5337Z" fill="#333333"/>
<path d="M179.475 145.435V78.4609L103.396 126.692V190.043H105.957" fill="#494949"/>
<path d="M93.5909 173.175L91.5922 109.449L38.5 142.998L93.5909 173.175Z" fill="#0CA579"/>
<path d="M38.873 76.2739V143.248L114.951 95.0794V31.6667H112.39" fill="#00EA90"/>
</g>
<defs>
<clipPath id="clip0_4_5446">
<rect width="220" height="220" fill="white" transform="translate(0 0.5)"/>
</clipPath>
</defs>
</svg>
