<svg width="220" height="221" viewBox="0 0 220 221" fill="none" xmlns="http://www.w3.org/2000/svg">
<g clip-path="url(#clip0_4_5457)">
<path d="M110 220.5C170.751 220.5 220 171.251 220 110.5C220 49.7487 170.751 0.5 110 0.5C49.2487 0.5 0 49.7487 0 110.5C0 171.251 49.2487 220.5 110 220.5Z" fill="#AD7DE2"/>
<path d="M101.454 72.5056H118.265V106.127C118.265 109.539 117.38 111.562 116.116 112.826C114.852 114.469 112.704 115.354 109.797 115.354C106.89 115.354 105.12 114.469 103.477 112.826C102.213 111.183 101.328 109.034 101.328 106.127V72.5056H101.454Z" fill="white"/>
<path d="M152.013 107.012C152.013 119.272 148.221 130.142 140.259 138.105C132.296 145.689 122.184 149.48 109.924 149.48C97.6632 149.48 87.678 146.068 79.5888 138.105C71.4994 130.142 67.834 119.145 67.834 107.012V72.5056H84.6446V107.012C84.6446 115.859 87.1725 121.8 91.3435 125.592C95.5146 129.763 101.455 131.911 109.924 131.911C118.771 131.911 124.206 129.384 128.504 125.592C132.675 121.421 135.203 115.48 135.203 106.632V72H152.013V107.012Z" fill="white"/>
</g>
<defs>
<clipPath id="clip0_4_5457">
<rect width="220" height="220" fill="white" transform="translate(0 0.5)"/>
</clipPath>
</defs>
</svg>
