<svg width="220" height="221" viewBox="0 0 220 221" fill="none" xmlns="http://www.w3.org/2000/svg">
<g clip-path="url(#clip0_4_5461)">
<path d="M110 220.5C170.751 220.5 220 171.251 220 110.5C220 49.7487 170.751 0.5 110 0.5C49.2487 0.5 0 49.7487 0 110.5C0 171.251 49.2487 220.5 110 220.5Z" fill="#EDF0F4"/>
<path d="M130.631 128.833H124.424C123.275 128.833 122.298 127.914 122.298 126.707V110.385L111.436 117.166C110.516 117.741 109.367 117.741 108.447 117.166L97.6426 110.385V126.707C97.6426 127.856 96.723 128.833 95.5161 128.833H89.3667C88.2172 128.833 87.2402 127.914 87.2402 126.707V95.2125C87.2402 93.6607 88.5045 92.3965 90.0562 92.3965C90.631 92.3965 91.1482 92.5688 91.608 92.9137L108.734 104.695C109.424 105.213 110.401 105.213 111.091 104.695L128.217 92.9137C129.482 92.0516 131.263 92.3965 132.125 93.6607C132.47 94.1205 132.585 94.6953 132.643 95.2125V126.707C132.7 127.856 131.781 128.833 130.631 128.833Z" fill="#FF4A4A"/>
<path d="M77.9879 128.776H39.4822C37.9305 128.776 36.666 127.512 36.666 125.96V94.2932C36.7234 93.0863 37.643 92.1667 38.8499 92.1667H45.0568C46.2063 92.1667 47.1833 93.0863 47.1833 94.2932V118.374H70.5165V94.2932C70.5165 93.1437 71.4361 92.1667 72.643 92.1667H78.6776C79.8269 92.1667 80.8039 93.0863 80.8039 94.2932V125.96C80.8039 127.512 79.5396 128.776 77.9879 128.776Z" fill="#FF4A4A"/>
<path d="M142.013 92.1667H180.519C182.071 92.1667 183.335 93.4311 183.335 94.9829V126.649C183.335 127.799 182.416 128.776 181.266 128.776H175.059C173.91 128.776 172.933 127.856 172.933 126.649V103.948C172.933 103.201 172.301 102.569 171.554 102.569H151.036C150.289 102.569 149.657 103.201 149.657 103.948V126.649C149.657 127.799 148.738 128.776 147.531 128.776H141.324C140.174 128.776 139.197 127.856 139.197 126.649V94.9829C139.197 93.4311 140.462 92.1667 142.013 92.1667Z" fill="#FF4A4A"/>
<path d="M158.162 109.236H164.311C165.461 109.236 166.437 110.155 166.437 111.362V117.626C166.437 118.776 165.518 119.753 164.311 119.753H158.162C157.012 119.753 156.035 118.833 156.035 117.626V111.305C156.035 110.155 157.012 109.236 158.162 109.236Z" fill="#FF4A4A"/>
</g>
<defs>
<clipPath id="clip0_4_5461">
<rect width="220" height="220" fill="white" transform="translate(0 0.5)"/>
</clipPath>
</defs>
</svg>
