<svg width="220" height="221" viewBox="0 0 220 221" fill="none" xmlns="http://www.w3.org/2000/svg">
<g clip-path="url(#clip0_4_5467)">
<path d="M110 220.5C170.751 220.5 220 171.251 220 110.5C220 49.7487 170.751 0.5 110 0.5C49.2487 0.5 0 49.7487 0 110.5C0 171.251 49.2487 220.5 110 220.5Z" fill="#EDF0F4"/>
<path d="M171.143 79.3884C165.708 73.2398 158.371 70.1667 149.127 70.1667C143.694 70.1667 138.877 71.2904 134.68 73.53C130.561 75.7322 127.272 78.5951 124.808 82.1311V70.8825H96.6373V113.917C96.6373 118.497 95.4462 122.09 93.0663 124.716C90.6813 127.338 87.4407 128.647 83.3441 128.647C79.3401 128.647 76.1245 127.338 73.6922 124.716C71.2623 122.09 70.0461 118.495 70.0461 113.917V70.8825H42.166V117.496C42.166 128.071 44.8586 136.44 50.2415 142.588C55.6293 148.732 62.9941 151.807 72.3308 151.807C77.7662 151.807 82.5833 150.686 86.7776 148.446C90.9666 146.212 94.26 143.279 96.6373 139.655V151.092H124.808V105.519C125.18 102.128 126.327 99.3782 128.251 97.261C130.631 94.6434 133.919 93.3271 138.111 93.3271C142.115 93.3271 145.31 94.6434 147.695 97.261C150.073 99.8836 151.266 103.48 151.266 108.059V151.094H179.294V104.338C179.294 93.8527 176.574 85.5345 171.141 79.3858L171.143 79.3884Z" fill="#042751"/>
</g>
<defs>
<clipPath id="clip0_4_5467">
<rect width="220" height="220" fill="white" transform="translate(0 0.5)"/>
</clipPath>
</defs>
</svg>
