<svg width="220" height="221" viewBox="0 0 220 221" fill="none" xmlns="http://www.w3.org/2000/svg">
<path d="M213.124 136.223L212.995 136.739C198.574 193.396 141.056 227.811 84.2567 213.649C27.3104 199.448 -7.35715 141.749 6.85048 84.7891C21.0457 27.8184 78.7416 -6.85199 135.694 7.34925C192.66 21.5506 227.326 79.2561 213.124 136.223Z" fill="url(#paint0_linear_4_5473)" stroke="#FFD9EC" stroke-width="4"/>
<path d="M92.6385 68.4392C91.1493 68.2265 91.0783 68.1556 91.7875 68.0846C93.1348 67.8719 96.2551 68.1556 98.4533 68.652C103.559 69.8574 108.168 72.9776 113.061 78.438L114.338 79.927L116.182 79.6434C124.053 78.367 132.137 79.3598 138.874 82.4799C140.717 83.331 143.625 85.0329 143.979 85.4584C144.121 85.6001 144.334 86.5221 144.476 87.4439C144.972 90.7767 144.759 93.2587 143.696 95.1734C143.128 96.2371 143.128 96.5207 143.483 97.4425C143.767 98.1516 144.618 98.6481 145.398 98.6481C147.099 98.6481 148.872 95.9535 149.723 92.195L150.078 90.7059L150.716 91.4151C154.333 95.457 157.169 101.059 157.595 105.03L157.736 106.094L157.098 105.172C156.035 103.541 155.042 102.477 153.694 101.556C151.283 99.9245 148.731 99.4282 141.994 99.0736C135.895 98.7191 132.421 98.2226 129.017 97.0879C123.202 95.1734 120.224 92.6914 113.345 83.5436C110.296 79.5017 108.381 77.3033 106.466 75.4596C102.283 71.4176 98.0987 69.2902 92.6385 68.4392Z" fill="#FF007A"/>
<path d="M145.466 77.4452C145.608 74.7505 145.963 72.9777 146.742 71.3466C147.026 70.7084 147.31 70.1412 147.381 70.1412C147.452 70.1412 147.31 70.6375 147.097 71.2049C146.53 72.7649 146.459 74.9632 146.813 77.4452C147.31 80.6363 147.523 81.0618 150.926 84.5365C152.486 86.1674 154.33 88.2239 155.039 89.0749L156.245 90.6349L155.039 89.5004C153.55 88.0822 150.146 85.3874 149.366 85.0328C148.87 84.7492 148.799 84.7492 148.444 85.1037C148.161 85.3874 148.09 85.8129 148.09 87.8693C148.019 91.0604 147.593 93.0459 146.53 95.1024C145.963 96.1661 145.892 95.9534 146.388 94.748C146.742 93.826 146.813 93.4005 146.813 90.3513C146.813 84.1819 146.104 82.6927 141.779 80.2108C140.715 79.5726 138.871 78.6508 137.808 78.1543C136.673 77.6578 135.822 77.2325 135.893 77.2325C136.035 77.0906 140.219 78.2962 141.849 79.0053C144.331 79.9981 144.757 80.0689 145.041 79.9981C145.253 79.7852 145.395 79.218 145.466 77.4452Z" fill="#FF007A"/>
<path d="M95.548 88.0113C92.5697 83.8984 90.655 77.5162 91.0805 72.7651L91.2224 71.2759L91.9315 71.4176C93.2079 71.6304 95.4063 72.4813 96.47 73.1197C99.3065 74.8215 100.583 77.1616 101.788 82.9764C102.143 84.6785 102.639 86.664 102.852 87.3021C103.207 88.3658 104.554 90.8478 105.689 92.4078C106.469 93.5424 105.972 94.1099 104.199 93.968C101.505 93.6843 97.8882 91.2024 95.548 88.0113Z" fill="#FF007A"/>
<path d="M141.852 118.859C127.812 113.185 122.848 108.292 122.848 99.9957C122.848 98.7901 122.919 97.7974 122.919 97.7974C122.99 97.7974 123.486 98.2229 124.124 98.7192C126.961 100.988 130.152 101.981 139.016 103.258C144.192 104.038 147.171 104.605 149.866 105.527C158.446 108.363 163.764 114.178 165.041 122.05C165.395 124.319 165.183 128.644 164.615 130.914C164.119 132.686 162.701 135.948 162.346 136.019C162.275 136.019 162.133 135.665 162.133 135.097C161.992 132.119 160.502 129.283 158.021 127.084C155.042 124.531 151.213 122.617 141.852 118.859Z" fill="#FF007A"/>
<path d="M131.924 121.199C131.782 120.135 131.428 118.788 131.215 118.22L130.86 117.157L131.498 117.937C132.42 119 133.129 120.277 133.768 122.05C134.264 123.397 134.264 123.823 134.264 126.021C134.264 128.148 134.193 128.645 133.768 129.85C133.058 131.765 132.207 133.112 130.789 134.601C128.236 137.225 124.903 138.643 120.152 139.281C119.301 139.352 116.89 139.565 114.763 139.707C109.444 139.991 105.899 140.558 102.708 141.692C102.282 141.834 101.857 141.976 101.786 141.905C101.644 141.763 103.842 140.487 105.615 139.636C108.097 138.431 110.65 137.792 116.252 136.799C119.018 136.374 121.854 135.807 122.563 135.523C129.584 133.325 133.058 127.865 131.924 121.199Z" fill="#FF007A"/>
<path d="M138.382 132.615C136.538 128.573 136.112 124.744 137.105 121.127C137.247 120.773 137.389 120.418 137.531 120.418C137.672 120.418 138.098 120.631 138.523 120.915C139.374 121.482 141.147 122.475 145.686 124.957C151.43 128.077 154.692 130.488 156.961 133.253C158.946 135.665 160.152 138.43 160.719 141.834C161.074 143.748 160.861 148.358 160.365 150.273C158.805 156.3 155.259 161.122 150.082 163.888C149.302 164.313 148.664 164.597 148.593 164.597C148.522 164.597 148.806 163.888 149.231 163.037C150.933 159.42 151.146 155.946 149.869 152.045C149.09 149.634 147.458 146.727 144.197 141.834C140.296 136.161 139.374 134.672 138.382 132.615Z" fill="#FF007A"/>
<path d="M85.5498 154.315C90.7973 149.918 97.2503 146.798 103.207 145.805C105.76 145.38 110.015 145.522 112.355 146.16C116.113 147.153 119.517 149.28 121.29 151.904C122.992 154.457 123.772 156.655 124.552 161.548C124.835 163.463 125.19 165.448 125.261 165.874C125.828 168.426 126.963 170.412 128.381 171.476C130.579 173.107 134.409 173.178 138.167 171.759C138.805 171.547 139.373 171.334 139.373 171.405C139.514 171.547 137.6 172.823 136.323 173.461C134.551 174.383 133.132 174.667 131.218 174.667C127.814 174.667 124.906 172.894 122.566 169.348C122.07 168.639 121.077 166.583 120.226 164.668C117.744 158.924 116.468 157.222 113.56 155.308C111.007 153.677 107.745 153.322 105.263 154.527C102.002 156.088 101.151 160.272 103.42 162.824C104.342 163.888 106.043 164.739 107.462 164.952C110.086 165.306 112.355 163.25 112.355 160.626C112.355 158.924 111.717 157.931 110.015 157.151C107.745 156.159 105.263 157.293 105.334 159.491C105.334 160.413 105.76 160.981 106.682 161.406C107.249 161.69 107.249 161.69 106.824 161.619C104.767 161.193 104.271 158.64 105.902 157.009C107.887 155.024 112.071 155.875 113.489 158.64C114.057 159.775 114.128 162.044 113.631 163.463C112.426 166.583 109.022 168.214 105.547 167.292C103.207 166.654 102.214 166.015 99.3777 163.108C94.4137 158.002 92.4992 157.009 85.4079 155.946L84.0605 155.733L85.5498 154.315Z" fill="#FF007A"/>
<path fill-rule="evenodd" clip-rule="evenodd" d="M48.2482 40.2159C64.7709 60.2843 90.2286 91.486 91.5051 93.1879C92.5688 94.6062 92.1433 95.9535 90.3705 96.9462C89.3777 97.5137 87.3213 98.0809 86.3283 98.0809C85.1939 98.0809 83.8465 97.5137 82.9246 96.5917C82.2864 95.9535 79.5208 91.9115 73.2805 82.1963C68.5292 74.7506 64.4873 68.5811 64.4163 68.5101C64.1327 68.3684 64.1327 68.3684 72.784 83.8275C78.2444 93.5425 80.0173 97.0172 80.0173 97.4427C80.0173 98.3645 79.7335 98.861 78.599 100.137C76.6843 102.265 75.8332 104.676 75.195 109.711C74.4859 115.313 72.5714 119.284 67.111 126.021C63.92 129.992 63.4236 130.701 62.6435 132.332C61.6507 134.317 61.3671 135.452 61.2252 138.005C61.0835 140.699 61.3671 142.401 62.1472 144.954C62.8563 147.223 63.6362 148.713 65.551 151.62C67.1819 154.173 68.1747 156.088 68.1747 156.797C68.1747 157.364 68.3166 157.364 70.8695 156.797C76.9679 155.378 82.0028 152.967 84.7683 149.989C86.4702 148.145 86.8957 147.153 86.8957 144.6C86.8957 142.969 86.8248 142.614 86.3993 141.621C85.6901 140.061 84.3428 138.785 81.4353 136.799C77.6061 134.176 75.9751 132.048 75.5496 129.212C75.195 126.801 75.6206 125.169 77.748 120.702C79.9463 116.093 80.5135 114.178 80.8681 109.498C81.0808 106.52 81.4353 105.314 82.2864 104.392C83.2082 103.399 83.9883 103.045 86.1866 102.761C89.8032 102.265 92.1433 101.343 93.9871 99.5701C95.618 98.0809 96.3271 96.5917 96.3981 94.3933L96.4689 92.7624L95.5471 91.7696C92.2142 87.9404 46.05 37.1667 45.8371 37.1667C45.7662 37.1667 46.9008 38.5141 48.2482 40.2159ZM70.0184 141.054C70.7985 139.707 70.373 138.005 69.0966 137.154C67.891 136.374 66.0473 136.728 66.0473 137.792C66.0473 138.076 66.1892 138.359 66.6147 138.501C67.2529 138.856 67.3238 139.21 66.8273 139.99C66.3311 140.77 66.3311 141.48 66.9692 141.976C67.962 142.756 69.3093 142.33 70.0184 141.054Z" fill="#FF007A"/>
<path fill-rule="evenodd" clip-rule="evenodd" d="M98.7337 103.754C97.0318 104.25 95.4007 106.094 94.9044 107.938C94.6206 109.073 94.7625 111.129 95.259 111.767C96.0389 112.76 96.748 113.044 98.7337 113.044C102.634 113.044 105.967 111.342 106.321 109.285C106.676 107.583 105.187 105.243 103.13 104.18C102.067 103.612 99.8682 103.4 98.7337 103.754ZM103.272 107.3C103.839 106.449 103.627 105.527 102.563 104.889C100.648 103.683 97.7409 104.676 97.7409 106.52C97.7409 107.442 99.23 108.434 100.648 108.434C101.57 108.434 102.847 107.867 103.272 107.3Z" fill="#FF007A"/>
<defs>
<linearGradient id="paint0_linear_4_5473" x1="-0.00150637" y1="0.499937" x2="-0.00150637" y2="220.5" gradientUnits="userSpaceOnUse">
<stop stop-color="#FEF3F9"/>
<stop offset="1" stop-color="#FDE5F2"/>
</linearGradient>
</defs>
</svg>
