<svg width="220" height="221" viewBox="0 0 220 221" fill="none" xmlns="http://www.w3.org/2000/svg">
<g clip-path="url(#clip0_4_5484)">
<path fill-rule="evenodd" clip-rule="evenodd" d="M110 220.5C49.5 220.5 0 171.001 0 109.952C0.55 49.4535 49.5 -0.0454497 110.55 0.504539C171.05 1.05453 220 50.0035 220 111.602C219.45 171.551 170.5 220.5 110 220.5Z" fill="black"/>
<path d="M74.4291 100.005H74.4951L75.6171 100.401L76.6733 100.797L77.7953 101.127L78.8515 101.589L79.9737 101.985L81.0297 102.381L82.1518 102.777L83.2078 103.173L84.264 103.569L85.3202 103.965L86.4422 104.361L87.4984 104.823L88.6204 105.154L89.6766 105.55L90.7988 105.946L91.8548 106.408L92.9769 106.804L94.0329 107.134L95.0891 107.53L96.2111 107.992L97.3333 108.388V106.672V106.408V105.022V104.031V103.305V101.589V99.9391V98.2229V96.5727V94.7905V93.1403V92.9423H96.0131H94.7591H94.6271H93.2409H92.1848H91.7888H90.4026H89.6766H88.9506H87.4984H87.1024H86.1122H84.726H84.66H84.594H83.2738H82.0859H81.8878H80.4357H79.5115H77.0033H74.4951H74.4291H72.9769L71.9207 93.4703L69.4126 94.7905L66.8382 96.1767L64.264 97.4307L61.8218 98.7509L59.2475 100.137L56.6733 101.391L54.1651 102.777L51.5907 104.097L49.0826 105.352L46.5742 106.738L44.264 107.926L44 145.748L46.5742 147.53L49.0826 149.312L51.5907 151.028L54.1651 152.876L56.6733 154.659L59.2475 156.441L60.3697 157.299L61.8218 155.451L64.264 152.15L64.528 151.82L64.264 151.622L61.8218 149.84L59.2475 148.058L56.6733 146.276L54.1651 144.493L51.5907 142.645L50.9307 142.249L51.1287 111.622L51.5907 111.358L54.1651 110.104L56.6733 108.85L59.2475 107.596L61.8218 106.342L64.264 105.022L66.8382 103.767L69.4126 102.579L71.9207 101.259L74.4291 100.005Z" fill="url(#paint0_linear_4_5484)"/>
<path d="M118.124 172.15L116.011 173.008L113.635 173.998L111.259 174.923L108.883 175.913L107.827 176.309L106.572 175.715L104.196 174.461L101.82 173.338L99.5097 172.084L97.1335 170.896L94.7573 169.774L92.381 168.52L90.0048 167.332L87.6286 166.144L85.2522 164.955L82.8761 163.701L80.6319 162.579L78.2557 161.391L77.9915 161.259V130.368H75.8793H73.5031H71.127V165.484L73.5031 166.606L75.8793 167.794L78.2557 169.048L80.6319 170.17L82.8761 171.424L85.2522 172.612L87.6286 173.8L90.0048 174.989L92.381 176.177L94.7573 177.365L97.1335 178.553L99.5097 179.807L101.82 180.929L104.196 182.183L106.572 183.305L107.496 183.833L108.883 183.173L111.259 182.315L113.635 181.325L116.011 180.335L118.322 179.411L120.698 178.487L118.322 172.546L118.124 172.15Z" fill="url(#paint1_linear_4_5484)"/>
<path d="M160.303 129.246L160.435 143.767L159.841 144.295L155.815 147.068L151.788 149.972L147.762 152.876L143.735 155.715L139.709 158.553L135.749 161.457L131.722 164.295L129.346 166.012L127.696 164.758L123.735 161.655L119.709 158.619L115.683 155.517L111.722 152.48L110.996 151.952V136.309L111.722 135.649L115.683 131.424L119.709 127.266L123.735 123.041L127.696 118.883L131.59 114.791H127.696H123.735H119.709H115.683H111.722H107.63H103.603H99.643H95.6166H91.5902H87.6299H83.6035L87.6299 119.015L91.5902 123.173L95.6166 127.332L99.643 131.556L103.603 135.715L104.198 136.309V155.253L107.63 157.959L111.722 161.061L115.683 164.097L119.709 167.2L123.735 170.236L127.696 173.338L129.148 174.461L131.722 172.612L135.749 169.84L139.709 166.936L143.735 164.031L147.762 161.259L151.788 158.355L155.815 155.451L159.841 152.678L163.867 149.774L167.168 147.332L167.828 129.51L163.867 129.378L160.303 129.246Z" fill="url(#paint2_linear_4_5484)"/>
<path d="M50.5316 95.4503H50.9936L51.0596 76.0445L53.6338 74.3943L56.8682 72.4801L60.0366 70.566L63.2049 68.5856L66.3731 66.6714L69.6075 64.6912L72.7098 62.777L75.9442 60.8629L79.1124 58.8827L82.3468 56.9025H82.4128L85.4491 58.6847L88.6835 60.4669L91.8517 62.315L95.02 64.0972L98.1884 65.8794L101.357 67.6616L104.525 69.5098L107.627 71.292L107.759 71.0279L110.928 65.2854L107.759 63.4372L104.525 61.655L101.357 59.8729L98.1884 58.0907L95.02 56.2425L91.8517 54.4603L88.6835 52.6781L85.4491 50.8299L82.3468 49.0478L82.2148 48.9818L79.1124 50.8299L75.9442 52.8101L72.7098 54.7903L69.6075 56.7705L66.3731 58.6847L63.2049 60.5989L60.0366 62.579L56.8682 64.4932L53.6338 66.4734L50.5316 68.3876L47.2973 70.3018L44.2609 72.216L44.1289 95.3843H47.2973L50.5316 95.4503Z" fill="url(#paint3_linear_4_5484)"/>
<path d="M174.624 77.6949L172.974 76.3747L171.324 75.0545L169.674 73.6683L168.023 72.3483L166.373 71.0281L164.657 69.7079L163.007 68.3879L161.357 67.0678L159.641 65.6816L158.386 64.7576L157.924 65.2856L156.274 67.3318L154.624 69.4439L154.162 69.9719L154.624 70.4341L156.274 71.8201L157.924 73.2063L159.641 74.5925L161.357 75.9787L163.007 77.4309L164.657 78.8169L166.373 80.203L167.165 80.863L167.231 112.084L166.373 112.678L164.657 113.734L163.007 114.791L161.357 115.847L159.641 116.903L157.924 117.959L156.274 119.015L154.624 120.071L152.974 121.127L151.324 122.183L149.674 123.239L147.957 124.295L146.307 125.352L144.657 126.408L143.007 127.464L141.291 128.52L139.641 129.576L141.291 132.216L143.007 134.857L143.271 135.319L144.657 134.461L146.307 133.47L147.957 132.414L149.674 131.424L151.324 130.302L152.974 129.312L154.624 128.256L156.274 127.266L157.924 126.21L159.641 125.22L161.357 124.097L163.007 123.107L164.657 122.051L166.373 121.061L168.023 120.005L169.674 119.015L171.324 117.893L172.974 116.903L174.624 115.847V77.6949Z" fill="url(#paint4_linear_4_5484)"/>
<path d="M120.169 96.3086V98.0247V99.7409V101.457V103.239V105.021V106.738V108.454V109.774L120.697 109.576L122.941 108.718L125.185 107.794L127.363 106.936L129.608 106.012L131.852 105.087L134.03 104.229L136.274 103.305L138.519 102.447L140.697 101.523L142.941 100.665L145.119 99.7409V98.0247V97.3647V92.8102V58.8829L142.611 57.2987L140.037 55.8465L137.462 54.3943L134.954 52.8103L132.38 51.3582L129.806 49.906L127.297 48.3878L124.723 46.8696L122.215 45.3514L119.641 43.8994L117.066 42.3812L114.558 40.8631L112.05 39.4109L109.476 37.9587L108.09 37.1667L106.901 37.8267L104.327 39.2129L101.753 40.5331L99.3106 41.9852L96.7364 43.3712L94.1621 44.6914L91.5879 46.1436L94.1621 47.5958L96.7364 49.0478L98.3206 50.038L99.3106 49.51L101.753 48.1898L104.327 46.8036L106.901 45.4836L107.892 44.9554L109.476 45.8796L112.05 47.3318L114.558 48.7838L117.066 50.302L119.641 51.8202L122.215 53.2723L124.723 54.7905L127.297 56.3085L129.806 57.7607L132.38 59.2129L134.954 60.7971L137.462 62.2493L138.32 62.7113V92.8102H137.726H137.462H136.274H134.954H134.822H133.304H132.38H131.852H130.4H129.806H128.948H127.496H127.297H126.043H124.723H124.591H123.073H122.215H121.621H120.499H120.301" fill="url(#paint5_linear_4_5484)"/>
<path d="M120.17 109.774L145.12 99.741L120.17 92.8103" fill="url(#paint6_linear_4_5484)"/>
<path d="M97.3325 109.774V93.0745L74.4941 99.8732L97.3325 109.708" fill="url(#paint7_linear_4_5484)"/>
</g>
<defs>
<linearGradient id="paint0_linear_4_5484" x1="44.0026" y1="92.9621" x2="44.0026" y2="157.272" gradientUnits="userSpaceOnUse">
<stop stop-color="#F6E93D"/>
<stop offset="0.13" stop-color="#F8E330"/>
<stop offset="0.35" stop-color="#F7C730"/>
<stop offset="0.64" stop-color="#F59C2E"/>
<stop offset="0.98" stop-color="#EB5E2C"/>
<stop offset="1" stop-color="#EB5C2C"/>
</linearGradient>
<linearGradient id="paint1_linear_4_5484" x1="71.1521" y1="130.395" x2="71.1521" y2="183.827" gradientUnits="userSpaceOnUse">
<stop stop-color="#F6E93D"/>
<stop offset="0.13" stop-color="#F8E330"/>
<stop offset="0.35" stop-color="#F7C730"/>
<stop offset="0.64" stop-color="#F59C2E"/>
<stop offset="0.98" stop-color="#EB5E2C"/>
<stop offset="1" stop-color="#EB5C2C"/>
</linearGradient>
<linearGradient id="paint2_linear_4_5484" x1="83.5815" y1="114.784" x2="83.5815" y2="174.48" gradientUnits="userSpaceOnUse">
<stop stop-color="#F6E93D"/>
<stop offset="0.13" stop-color="#F8E330"/>
<stop offset="0.35" stop-color="#F7C730"/>
<stop offset="0.64" stop-color="#F59C2E"/>
<stop offset="0.98" stop-color="#EB5E2C"/>
<stop offset="1" stop-color="#EB5C2C"/>
</linearGradient>
<linearGradient id="paint3_linear_4_5484" x1="44.1351" y1="49.0016" x2="44.1351" y2="95.4569" gradientUnits="userSpaceOnUse">
<stop stop-color="#F6E93D"/>
<stop offset="0.13" stop-color="#F8E330"/>
<stop offset="0.35" stop-color="#F7C730"/>
<stop offset="0.64" stop-color="#F59C2E"/>
<stop offset="0.98" stop-color="#EB5E2C"/>
<stop offset="1" stop-color="#EB5C2C"/>
</linearGradient>
<linearGradient id="paint4_linear_4_5484" x1="139.662" y1="64.7444" x2="139.662" y2="135.325" gradientUnits="userSpaceOnUse">
<stop stop-color="#F6E93D"/>
<stop offset="0.13" stop-color="#F8E330"/>
<stop offset="0.35" stop-color="#F7C730"/>
<stop offset="0.64" stop-color="#F59C2E"/>
<stop offset="0.98" stop-color="#EB5E2C"/>
<stop offset="1" stop-color="#EB5C2C"/>
</linearGradient>
<linearGradient id="paint5_linear_4_5484" x1="91.574" y1="37.1667" x2="91.574" y2="109.794" gradientUnits="userSpaceOnUse">
<stop stop-color="#F6E93D"/>
<stop offset="0.13" stop-color="#F8E330"/>
<stop offset="0.35" stop-color="#F7C730"/>
<stop offset="0.64" stop-color="#F59C2E"/>
<stop offset="0.98" stop-color="#EB5E2C"/>
<stop offset="1" stop-color="#EB5C2C"/>
</linearGradient>
<linearGradient id="paint6_linear_4_5484" x1="120.148" y1="92.8565" x2="120.148" y2="109.814" gradientUnits="userSpaceOnUse">
<stop stop-color="#F6E93D"/>
<stop offset="0.13" stop-color="#F8E330"/>
<stop offset="0.35" stop-color="#F7C730"/>
<stop offset="0.64" stop-color="#F59C2E"/>
<stop offset="0.98" stop-color="#EB5E2C"/>
<stop offset="1" stop-color="#EB5C2C"/>
</linearGradient>
<linearGradient id="paint7_linear_4_5484" x1="95.7573" y1="107.55" x2="98.7286" y2="92.2815" gradientUnits="userSpaceOnUse">
<stop stop-color="#F6E93D"/>
<stop offset="0.13" stop-color="#F8E330"/>
<stop offset="0.35" stop-color="#F7C730"/>
<stop offset="0.64" stop-color="#F59C2E"/>
<stop offset="0.98" stop-color="#EB5E2C"/>
<stop offset="1" stop-color="#EB5C2C"/>
</linearGradient>
<clipPath id="clip0_4_5484">
<rect width="220" height="220" fill="white" transform="translate(0 0.5)"/>
</clipPath>
</defs>
</svg>
