<svg width="220" height="221" viewBox="0 0 220 221" fill="none" xmlns="http://www.w3.org/2000/svg">
<g clip-path="url(#clip0_4_5494)">
<path d="M110 220.5C170.751 220.5 220 171.251 220 110.5C220 49.7487 170.751 0.5 110 0.5C49.2487 0.5 0 49.7487 0 110.5C0 171.251 49.2487 220.5 110 220.5Z" fill="#EDF0F4"/>
<path d="M91.4306 57.4768C91.5246 57.5144 91.5811 57.5898 91.5622 57.6838C91.5622 57.8719 91.5622 58.0413 91.5622 58.2294V124.67C91.5622 124.896 91.5433 125.103 91.5433 125.329C91.6376 125.517 91.8068 125.423 91.9197 125.423C103.849 125.423 115.779 125.423 127.727 125.442C128.104 125.442 128.273 125.348 128.217 124.952C128.217 124.821 128.217 124.708 128.217 124.576C128.217 102.448 128.217 80.3387 128.217 58.2107C128.217 57.9849 128.085 57.6838 128.367 57.5144C128.461 57.4393 128.612 57.458 128.687 57.552C128.687 57.552 128.687 57.5709 128.706 57.5709C128.8 57.7027 128.894 57.8343 128.969 57.9849C130.324 60.6756 131.716 63.3851 133.052 66.0759C134.163 68.3338 135.292 70.5918 136.402 72.831C137.644 75.3148 138.904 77.8173 140.146 80.3011C141.275 82.5403 142.385 84.7983 143.495 87.0373C144.493 89.0696 145.528 91.0641 146.506 93.0963C146.657 93.3973 146.882 93.6419 146.977 93.9618C147.033 94.3382 147.033 94.7333 147.014 95.1097V159.838C147.014 160.026 147.014 160.196 147.014 160.384C147.014 161.099 147.014 161.099 147.71 161.231C147.804 161.249 147.88 161.287 147.955 161.362C147.485 161.588 146.995 161.663 146.487 161.776C144.267 162.303 142.028 162.642 139.751 162.811C138.697 162.886 137.644 162.905 136.59 162.924C131.152 163.018 125.695 162.98 120.257 162.98C110.811 162.98 101.347 162.98 91.8821 162.962C91.694 162.962 91.487 163.018 91.2988 162.905C91.3552 162.867 91.4117 162.811 91.487 162.792C91.8257 162.717 92.1643 162.698 92.5218 162.717H127.125C127.426 162.736 127.746 162.717 128.047 162.679C128.33 162.548 128.217 162.303 128.235 162.096C128.235 154.419 128.235 146.723 128.235 139.046V127.022C128.217 126.778 128.235 126.533 128.254 126.288C127.972 127.173 127.502 128.001 127.088 128.847C125.563 132.027 124.077 135.226 122.553 138.425C121.725 140.175 120.897 141.906 120.069 143.656C119.956 143.901 119.843 144.164 119.58 144.296C119.316 144.371 119.034 144.39 118.771 144.371H100.971C100.726 144.39 100.5 144.371 100.255 144.315C99.8978 144.202 99.7851 143.882 99.6533 143.581C98.6183 141.379 97.5647 139.178 96.5298 136.957C95.4008 134.568 94.2719 132.197 93.1427 129.807C92.5971 128.678 92.0891 127.53 91.487 126.345C91.487 126.665 91.487 126.928 91.487 127.192C91.487 138.745 91.487 150.279 91.487 161.833C91.487 162.19 91.5811 162.566 91.3176 162.886C91.1294 162.886 90.9601 162.924 90.7719 162.924C88.0813 162.924 85.3905 162.924 82.6997 162.924C82.0036 162.924 81.3262 162.886 80.6299 162.867C80.4982 162.867 80.3664 162.886 80.2724 162.792C80.4042 162.679 80.5547 162.736 80.6863 162.736C83.9792 162.736 87.272 162.736 90.5649 162.736C90.6967 162.736 90.8096 162.717 90.8472 162.736C87.5731 162.736 84.2237 162.736 80.8557 162.736C80.6674 162.736 80.4606 162.66 80.2724 162.811C79.4444 162.849 78.5978 162.736 77.7699 162.642C76.1516 162.491 74.5711 162.152 72.9904 161.889C72.9341 161.87 72.8963 161.851 72.8398 161.814C73.0281 161.4 73.0092 160.967 73.0092 160.534C73.0092 138.82 73.0092 117.106 73.0092 95.3918C72.9904 95.0156 73.0093 94.6204 73.0468 94.2442C73.1411 93.8489 73.2916 93.4725 73.4797 93.1339C74.6086 90.8948 75.7376 88.6556 76.8479 86.3977C80.9498 77.9867 85.1835 69.6511 89.3419 61.2777C89.8688 60.2241 90.3957 59.2079 90.9037 58.1543C90.9788 57.9849 91.0353 57.6274 91.3741 57.9284C91.3741 78.7017 91.3741 99.475 91.3741 120.248C91.3741 121.867 91.3741 123.485 91.3741 125.122C91.3741 102.9 91.3741 80.6962 91.3741 58.4742C91.3552 58.1167 91.2423 57.7968 91.4306 57.4768Z" fill="#E85C50"/>
<path d="M73.1559 93.9992C73.1559 116.315 73.1559 138.632 73.1559 160.929C73.1559 161.117 73.1559 161.287 73.1559 161.475C73.1748 161.738 73.0054 161.776 72.8173 161.795C70.1265 161.174 67.5111 160.346 65.0649 159.085C63.7102 158.389 62.393 157.655 61.2264 156.696C57.99 154.043 55.7321 150.787 55.2428 146.516C55.2428 146.365 55.2428 146.234 55.2428 146.083C55.1863 145.895 55.1674 145.688 55.2052 145.481C55.2052 116.522 55.2052 87.5829 55.2052 58.6245C55.1863 58.4175 55.2052 58.2294 55.2428 58.0225C55.5062 58.0412 55.5627 58.267 55.6379 58.4364C56.6352 60.4685 57.6325 62.4819 58.6486 64.4952C59.8716 66.9226 61.0946 69.331 62.2989 71.7772C63.4279 74.0352 64.5757 76.2931 65.6858 78.5699C66.3821 79.9999 67.116 81.4112 67.8121 82.8223C68.4706 84.1207 69.1294 85.4191 69.769 86.7361C70.5218 88.3168 71.312 89.8785 72.1212 91.4216C72.4787 92.0801 72.742 92.7762 73.0808 93.4536C73.1937 93.6042 73.2124 93.8111 73.1559 93.9992Z" fill="#CF3339"/>
<path d="M147.952 161.362C147.689 161.343 147.444 161.381 147.2 161.456C146.993 161.494 146.842 161.438 146.842 161.174C146.842 161.042 146.842 160.929 146.842 160.798V93.7925C146.673 93.4914 146.899 93.2656 147.012 93.0399C148.818 89.5212 150.605 85.9837 152.374 82.4274C152.412 82.3521 152.468 82.258 152.525 82.1827C152.543 82.1451 152.562 82.1075 152.581 82.0698C152.619 82.0135 152.638 81.957 152.675 81.9005C152.713 81.8441 152.713 81.8252 152.732 81.7876C152.788 81.6747 152.845 81.543 152.901 81.4301C152.92 81.3925 152.957 81.3361 152.976 81.2983C153.917 79.5297 154.783 77.7233 155.686 75.9169C156.175 74.9761 156.627 74.0352 157.097 73.0756C157.53 72.2288 157.944 71.4009 158.358 70.5542C158.395 70.4978 158.414 70.4413 158.452 70.4037C159.844 67.694 161.161 64.947 162.554 62.2562C163.137 61.1459 163.702 60.017 164.285 58.9069C164.379 58.6999 164.454 58.4553 164.755 58.3989C164.868 58.6245 164.812 58.8504 164.812 59.0763C164.812 76.2744 164.812 93.4726 164.812 110.652C164.812 122.073 164.812 133.495 164.812 144.917C164.831 145.142 164.831 145.349 164.774 145.575C164.85 146.365 164.548 147.081 164.36 147.814C163.758 150.148 162.479 152.086 160.898 153.854C159.713 155.228 158.339 156.451 156.815 157.448C154.896 158.709 152.826 159.744 150.662 160.534C149.796 160.835 148.874 161.136 147.952 161.362Z" fill="#CF3339"/>
<path d="M73.1555 93.9992C73.1177 93.8111 73.0612 93.6417 72.9485 93.4912C72.4403 92.4187 71.8758 91.3838 71.3867 90.3113C70.8973 89.2764 70.2953 88.2979 69.8437 87.2441C69.4298 86.2657 68.8464 85.3815 68.4324 84.4217C67.9055 83.1987 67.1718 82.0884 66.6825 80.8467C66.4944 80.3574 66.1745 79.9246 65.9486 79.4543C65.5911 78.7391 65.309 77.9865 64.9137 77.2904C64.1422 75.9356 63.5213 74.4867 62.8063 73.1132C62.3359 72.2099 61.8467 71.3255 61.4328 70.3848C60.9812 69.3686 60.379 68.4279 59.9463 67.4117C59.4194 66.1698 58.6855 65.0408 58.1586 63.7989C57.914 63.1969 57.519 62.6513 57.2555 62.049C56.6534 60.7319 55.882 59.49 55.2233 58.1541V145.425C55.2233 145.65 55.2233 145.857 55.2233 146.083C55.0352 145.481 55.0916 144.86 55.0916 144.239C55.0727 136.524 55.0727 128.791 55.0916 121.076V59.1137C55.1105 58.5681 55.0916 58.0223 55.0352 57.4767C55.2046 57.4202 55.3927 57.4013 55.5621 57.4391C67.2846 57.4391 79.0262 57.4391 90.7487 57.4391H91.0686C91.4637 57.4391 91.3132 57.6461 91.2002 57.8153L84.0689 72.0218C82.5825 74.9947 81.0958 77.949 79.6282 80.9219C79.0824 82.0133 78.5744 83.1234 78.0288 84.2147C76.5235 87.2254 75.0181 90.236 73.513 93.2467L73.1555 93.9992Z" fill="#E33936"/>
<path d="M152.529 82.3145C152.51 82.465 152.454 82.5966 152.378 82.7096C151.193 85.0993 150.008 87.5078 148.784 89.8786C148.201 91.0076 147.637 92.1366 147.053 93.2844C146.959 93.4349 146.884 93.6043 146.846 93.7924C146.639 93.7924 146.583 93.6043 146.526 93.4725C146.282 93.0021 146.094 92.5129 145.849 92.0425C145.567 91.478 145.247 90.9135 144.965 90.3491C144.438 89.3141 143.892 88.2792 143.403 87.2254C142.895 86.1153 142.255 85.0804 141.766 83.9515C141.239 82.7471 140.543 81.6371 140.035 80.4327C139.753 79.7742 139.357 79.1533 139.038 78.4947C138.529 77.4787 137.984 76.4625 137.513 75.4276C136.968 74.2421 136.29 73.1132 135.782 71.909C135.5 71.2503 135.086 70.6294 134.785 69.9708C134.221 68.7102 133.506 67.5248 132.96 66.2453C132.678 65.5866 132.283 64.9656 131.963 64.3071C130.928 62.2186 129.874 60.1487 128.839 58.06C128.726 57.8908 128.651 57.7025 128.613 57.5144L128.707 57.458C135.839 57.4391 142.97 57.458 150.12 57.458C154.862 57.458 159.585 57.458 164.327 57.458C164.515 57.458 164.722 57.4015 164.91 57.5144C164.929 57.6649 165.098 57.7966 164.929 57.966C164.402 58.5869 164.157 59.3584 163.8 60.0547C161.994 63.5545 160.244 67.0919 158.475 70.6294C158.023 71.4573 157.591 72.3041 157.195 73.1509C156.706 74.0916 156.236 75.0325 155.765 75.992C154.824 77.7984 153.959 79.6613 152.999 81.449C152.905 81.5806 152.83 81.7311 152.773 81.8816C152.698 81.9381 152.717 82.051 152.661 82.1075C152.567 82.1451 152.585 82.258 152.529 82.3145Z" fill="#E33936"/>
<path d="M158.434 70.6107C158.716 69.6323 159.243 68.7479 159.732 67.8635C159.901 67.5624 160.014 67.2425 160.165 66.9226C160.823 65.6431 161.444 64.3636 162.084 63.0841C162.592 62.0868 163.062 61.0708 163.589 60.0734C163.947 59.4149 164.248 58.7564 164.586 58.079C164.662 57.9284 164.718 57.8155 164.906 57.9284C164.906 61.4659 164.906 65.0035 164.906 68.522C164.906 93.6984 164.906 118.875 164.906 144.051C164.906 144.54 164.944 145.03 164.812 145.519C164.812 145.331 164.793 145.161 164.793 144.973V58.474C164.624 58.4929 164.605 58.6246 164.568 58.7375C164.379 59.095 164.21 59.4525 164.022 59.81C162.234 63.2534 160.503 66.7156 158.772 70.1967C158.678 70.3473 158.622 70.5354 158.434 70.6107Z" fill="#E34C37"/>
<path d="M128.592 57.4956C128.366 57.5333 128.215 57.7403 128.253 57.966V57.9849C128.253 58.1354 128.253 58.267 128.253 58.4175C128.253 80.5081 128.253 102.617 128.253 124.708C128.253 125.573 128.347 125.498 127.463 125.498C115.721 125.498 103.961 125.498 92.2196 125.498C91.9939 125.498 91.7115 125.63 91.5234 125.348C91.7115 125.423 91.9185 125.442 92.1068 125.423H127.594C127.67 125.423 127.745 125.423 127.82 125.423C128.084 125.442 128.197 125.348 128.178 125.084C128.159 124.915 128.178 124.764 128.178 124.595V58.2106C128.178 58.0789 128.178 57.966 128.178 57.8344C128.14 57.5144 128.309 57.4015 128.592 57.4204V57.4956Z" fill="#E9654C"/>
<path d="M91.1839 57.8344C91.1839 57.6838 91.3156 57.4769 90.9959 57.5144C90.8453 57.5144 90.6946 57.5144 90.563 57.5144H55C55.1505 57.3075 55.3764 57.4204 55.5456 57.4204C58.0483 57.4017 60.5321 57.4204 63.0157 57.4204C72.2359 57.4204 81.4746 57.4204 90.6946 57.4204C90.9205 57.4204 91.1651 57.3452 91.3909 57.5144C91.3909 65.0975 91.3909 72.6805 91.3909 80.2447V125.272C91.2215 125.197 91.2969 125.065 91.278 124.971C91.278 124.84 91.278 124.727 91.278 124.595C91.278 102.599 91.278 80.5835 91.278 58.5682C91.2969 58.3048 91.3909 58.0413 91.1839 57.8344Z" fill="#E7563D"/>
<path d="M128.592 57.4956C128.592 57.4769 128.592 57.4391 128.592 57.4204C128.799 57.4015 128.987 57.3826 129.194 57.3826C140.898 57.3826 152.583 57.3826 164.287 57.3826C164.494 57.3826 164.719 57.2886 164.889 57.4769L128.592 57.4956Z" fill="#E85C50"/>
<path d="M128.251 162.868C128.007 162.868 127.781 162.868 127.536 162.868H92.0673C91.8415 162.868 91.6345 162.849 91.4086 162.849C91.371 162.623 91.4086 162.416 91.5216 162.209C92.4624 160.233 93.3844 158.257 94.3253 156.282C96.1881 152.387 98.0132 148.473 99.8761 144.597C99.9325 144.446 100.027 144.296 100.14 144.202H119.596C120.066 145.03 120.442 145.895 120.837 146.742C121.59 148.379 122.381 149.997 123.152 151.634C124.808 155.115 126.464 158.615 128.101 162.096C128.251 162.341 128.308 162.604 128.251 162.868Z" fill="#CF3339"/>
<path d="M100.157 144.201C100.082 144.521 99.9693 144.822 99.7999 145.123C98.8968 147.005 97.9749 148.887 97.0905 150.768C96.4884 152.048 95.8861 153.327 95.2841 154.607C94.588 156.094 93.8917 157.561 93.1767 159.029C92.6498 160.12 92.1417 161.23 91.6337 162.34C91.5584 162.51 91.5019 162.679 91.4267 162.849L91.2949 162.886C91.2949 162.642 91.2949 162.416 91.2949 162.171V125.855C91.4643 125.968 91.5961 126.138 91.6524 126.326C92.0101 127.116 92.3676 127.925 92.7438 128.697C93.3272 129.92 93.9292 131.124 94.4937 132.328C95.491 134.473 96.5071 136.6 97.5233 138.726C98.1254 139.987 98.7087 141.266 99.3297 142.527C99.593 143.091 99.7812 143.693 100.157 144.201Z" fill="#E33937"/>
<path d="M128.253 162.868C128.122 162.209 127.745 161.663 127.501 161.061C127.181 160.29 126.804 159.556 126.428 158.784C125.581 157.016 124.716 155.247 123.888 153.478C123.21 152.048 122.533 150.618 121.856 149.188C121.122 147.683 120.444 146.159 119.729 144.653C119.654 144.503 119.598 144.352 119.598 144.183C120.689 141.887 121.799 139.592 122.872 137.277C123.511 135.922 124.151 134.587 124.791 133.232C125.506 131.727 126.202 130.24 126.917 128.753C127.294 127.963 127.651 127.173 128.009 126.383C128.065 126.194 128.178 126.006 128.347 125.875V126.439C128.347 138.369 128.347 150.317 128.347 162.247C128.366 162.472 128.441 162.698 128.253 162.868Z" fill="#E33937"/>
<path d="M80.2305 162.792C80.3434 162.642 80.5315 162.66 80.6822 162.66H90.8994C90.9747 162.66 91.0499 162.679 91.1252 162.698C90.9183 162.773 90.7113 162.792 90.5043 162.755H80.7198C80.5693 162.773 80.3999 162.792 80.2305 162.792Z" fill="#E75840"/>
<path d="M152.955 81.4301C152.974 81.2983 153.012 81.1855 153.087 81.0726C153.896 79.4543 154.705 77.8362 155.514 76.2179C155.552 76.105 155.608 76.0298 155.702 75.9545C155.74 75.898 155.778 75.898 155.815 75.9545C154.987 77.6292 154.141 79.2849 153.313 80.9596C153.219 81.129 153.162 81.3547 152.955 81.4301Z" fill="#E04437"/>
<path d="M155.797 75.9731H155.684C155.909 75.2958 156.305 74.6749 156.606 74.0162C156.756 73.7151 156.85 73.3765 157.095 73.1319C157.132 73.0755 157.17 73.0755 157.208 73.1319L155.797 75.9731Z" fill="#E24837"/>
<path d="M157.228 73.1321H157.115C157.473 72.2477 157.849 71.3822 158.432 70.6107C158.451 70.7237 158.413 70.8364 158.376 70.9306C157.924 71.6268 157.604 72.3982 157.228 73.1321Z" fill="#E34C37"/>
<path d="M152.748 81.8628C152.711 81.6747 152.805 81.5053 152.974 81.4302C152.955 81.5994 152.88 81.7688 152.748 81.8628Z" fill="#E04437"/>
<path d="M152.636 82.1075C152.618 82.0134 152.674 81.9381 152.749 81.8816C152.749 81.9756 152.712 82.051 152.636 82.1075Z" fill="#E04437"/>
<path d="M152.529 82.3145C152.51 82.2204 152.567 82.1451 152.642 82.0886C152.642 82.1827 152.604 82.258 152.529 82.3145Z" fill="#E04437"/>
</g>
<defs>
<clipPath id="clip0_4_5494">
<rect width="220" height="220" fill="white" transform="translate(0 0.5)"/>
</clipPath>
</defs>
</svg>
