<svg width="220" height="221" viewBox="0 0 220 221" fill="none" xmlns="http://www.w3.org/2000/svg">
<g clip-path="url(#clip0_4_5515)">
<path d="M110 220.5C170.959 220.5 220 171.459 220 110.5C220 49.5413 170.959 0.5 110 0.5C49.0413 0.5 0 49.5413 0 110.5C0 171.459 49.0413 220.5 110 220.5Z" fill="#2775CA"/>
<path d="M140.25 127.916C140.25 111.875 130.625 106.375 111.375 104.084C97.6253 102.25 94.8753 98.5837 94.8753 92.1663C94.8753 85.7489 99.459 81.625 108.625 81.625C116.875 81.625 121.459 84.375 123.75 91.25C124.209 92.625 125.584 93.5413 126.959 93.5413H134.292C136.125 93.5413 137.5 92.1663 137.5 90.3337V89.875C135.667 79.7913 127.417 72 116.875 71.0837V60.0837C116.875 58.25 115.5 56.875 113.209 56.4163H106.334C104.5 56.4163 103.125 57.7913 102.667 60.0837V70.625C88.9166 72.4587 80.209 81.625 80.209 93.0837C80.209 108.209 89.3753 114.166 108.625 116.459C121.459 118.75 125.584 121.5 125.584 128.834C125.584 136.167 119.167 141.209 110.459 141.209C98.5416 141.209 94.4166 136.166 93.0416 129.291C92.584 127.459 91.209 126.541 89.834 126.541H82.0416C80.209 126.541 78.834 127.916 78.834 129.75V130.209C80.6666 141.666 88.0003 149.916 103.125 152.209V163.209C103.125 165.041 104.5 166.416 106.792 166.875H113.667C115.5 166.875 116.875 165.5 117.334 163.209V152.209C131.084 149.916 140.25 140.291 140.25 127.916Z" fill="white"/>
<path fill-rule="evenodd" clip-rule="evenodd" d="M45.8348 88.0413C32.5424 123.334 50.8761 163.209 86.6261 176.041C88.0011 176.959 89.3761 178.791 89.3761 180.166V186.583C89.3761 187.5 89.3761 187.958 88.9174 188.417C88.4598 190.25 86.6261 191.167 84.7924 190.25C59.1261 182 39.4174 162.291 31.1674 136.625C17.4174 93.0837 41.2511 46.7913 84.7924 33.0413C85.2511 32.5837 86.1674 32.5837 86.6261 32.5837C88.4598 33.0413 89.3761 34.4163 89.3761 36.25V42.6663C89.3761 44.9587 88.4598 46.3337 86.6261 47.25C67.8348 54.125 52.7098 68.7913 45.8348 88.0413ZM131.085 34.875C131.542 33.0413 133.376 32.125 135.21 33.0413C160.417 41.2913 180.585 61 188.834 87.125C202.584 130.666 178.751 176.959 135.21 190.708C134.751 191.167 133.835 191.167 133.376 191.167C131.542 190.708 130.626 189.333 130.626 187.5V181.084C130.626 178.791 131.542 177.416 133.376 176.5C152.167 169.625 167.292 154.959 174.167 135.709C187.459 100.416 169.126 60.5413 133.376 47.7087C132.001 46.7913 130.626 44.9587 130.626 43.125V36.7087C130.626 35.7913 130.626 35.3337 131.085 34.875Z" fill="white"/>
</g>
<defs>
<clipPath id="clip0_4_5515">
<rect width="220" height="220" fill="white" transform="translate(0 0.5)"/>
</clipPath>
</defs>
</svg>
