<svg width="220" height="221" viewBox="0 0 220 221" fill="none" xmlns="http://www.w3.org/2000/svg">
<g clip-path="url(#clip0_4_5522)">
<path d="M110 220.5C170.751 220.5 220 171.251 220 110.5C220 49.7487 170.751 0.5 110 0.5C49.2487 0.5 0 49.7487 0 110.5C0 171.251 49.2487 220.5 110 220.5Z" fill="#30367A"/>
<path fill-rule="evenodd" clip-rule="evenodd" d="M99.6628 63.4842V154.716H122.172V63.4842H148.501V42.6667H73.334V63.4842H99.6628ZM73.58 159.693C73.58 173.594 80.0101 180.167 93.6017 180.167H128.479C142.064 180.167 148.501 173.594 148.501 159.693V69.4517H128.739V158.772C128.739 160.965 128.014 161.7 125.869 161.7H96.2188C94.0732 161.7 93.3556 160.972 93.3556 158.772V69.4517H73.58V159.693Z" fill="white"/>
</g>
<defs>
<clipPath id="clip0_4_5522">
<rect width="220" height="220" fill="white" transform="translate(0 0.5)"/>
</clipPath>
</defs>
</svg>
