<svg width="220" height="221" viewBox="0 0 220 221" fill="none" xmlns="http://www.w3.org/2000/svg">
<g clip-path="url(#clip0_4_5519)">
<path d="M110 220.5C170.751 220.5 220 171.251 220 110.5C220 49.7487 170.751 0.5 110 0.5C49.2487 0.5 0 49.7487 0 110.5C0 171.251 49.2487 220.5 110 220.5Z" fill="#25AAE1"/>
<path fill-rule="evenodd" clip-rule="evenodd" d="M112.4 172.786C101.042 172.908 91.5049 170.888 82.5153 166.487C81.9613 166.214 81.5457 166.2 80.9916 166.507C75.5316 169.548 69.5372 171.544 63.3244 172.39L63.1205 172.416C60.5276 172.749 57.9094 173.086 55.3045 172.56C51.9529 171.912 49.2161 169.534 48.1442 166.339C47.0722 163.143 47.8316 159.626 50.131 157.138C53.3046 153.585 55.6874 149.417 57.1259 144.902C57.2977 144.445 57.2274 143.933 56.9389 143.537C52.0362 135.869 49.0086 127.183 48.0949 118.165C46.0588 98.2242 52.3541 81.1432 66.8634 67.1401C75.9947 58.2277 87.8116 52.4716 100.543 50.7347C118.113 48.2028 134.125 52.2019 148.191 62.9364C160.741 72.5176 168.553 85.1355 171.275 100.544C174.724 120.048 169.73 137.423 156.454 152.272C146.64 163.245 134.174 169.762 119.505 172.076C117.471 172.4 115.414 172.553 113.87 172.668L113.868 172.668C113.3 172.71 112.802 172.747 112.4 172.786ZM67.8676 156.489L67.8754 156.487L67.8745 156.489H67.8676ZM67.8754 156.487L68.1173 156.422C68.4227 156.339 68.6324 156.282 68.8372 156.216C72.7763 154.905 76.4965 153.026 79.8766 150.641C82.3146 148.949 84.7177 148.867 87.2871 150.313C92.8 153.425 98.7075 155.363 105.044 156.025C115.343 157.11 125.06 155.179 133.751 149.679C148.78 140.18 156.26 126.504 155.45 108.795C154.93 97.4531 150.421 87.6604 142.256 79.683C132.415 70.0745 120.44 65.6934 106.568 66.6352C97.2185 67.2765 88.7692 70.443 81.5735 76.3595C67.6321 87.8243 62.251 102.524 65.3398 120.151C66.3508 125.951 68.6986 131.274 72.009 136.187C73.2874 137.964 73.7195 140.2 73.1934 142.316C72.4017 145.709 71.2887 149.022 69.8692 152.211C69.4783 153.089 69.0682 153.956 68.6385 154.864C68.3906 155.388 68.1363 155.926 67.8754 156.487ZM110.055 85.442L110.052 85.4358H110.059C110.057 85.4378 110.056 85.44 110.055 85.442ZM113.999 93.3314L110.055 85.442C109.977 85.5748 109.913 85.6815 109.858 85.7728C109.768 85.9229 109.703 86.0316 109.643 86.1455C108.768 87.8927 107.892 89.6389 107.015 91.3853C105.262 94.8777 103.509 98.37 101.769 101.868C101.506 102.401 101.215 102.735 100.578 102.824C97.7344 103.207 94.8982 103.608 92.0615 104.009C90.9113 104.172 89.7608 104.334 88.6099 104.496L82.266 105.397L82.0513 105.724C82.1421 105.78 82.237 105.83 82.3316 105.881C82.5403 105.992 82.7482 106.104 82.91 106.263C87.051 110.24 91.1833 114.225 95.307 118.219C95.3303 118.242 95.3536 118.264 95.3769 118.286C95.7397 118.634 96.0752 118.956 95.9581 119.598C95.1991 123.673 94.4826 127.758 93.7667 131.84C93.666 132.413 93.5656 132.987 93.4647 133.56C93.2858 134.578 93.118 135.6 92.9393 136.689C92.876 137.075 92.8115 137.468 92.7446 137.873C92.8947 137.801 93.0196 137.744 93.1281 137.695C93.31 137.612 93.4455 137.55 93.5756 137.477C94.1794 137.165 94.7831 136.853 95.3866 136.541C99.9562 134.179 104.524 131.818 109.075 129.425C109.796 129.042 110.336 129.076 111.028 129.445C115.411 131.765 119.815 134.05 124.217 136.335C124.955 136.718 125.693 137.101 126.431 137.484C126.588 137.566 126.757 137.628 126.955 137.701C127.036 137.731 127.121 137.762 127.213 137.798C127.205 137.688 127.2 137.599 127.196 137.521C127.19 137.401 127.185 137.312 127.172 137.225C127.013 136.29 126.854 135.355 126.694 134.42C125.872 129.589 125.051 124.759 124.18 119.939C124.028 119.099 124.256 118.588 124.831 118.042C128.142 114.916 131.431 111.77 134.714 108.611C135.43 107.924 136.123 107.208 136.834 106.475C137.161 106.137 137.492 105.795 137.831 105.451C137.715 105.429 137.61 105.405 137.51 105.383C137.395 105.357 137.287 105.333 137.18 105.315C135.753 105.112 134.326 104.908 132.899 104.705C128.515 104.079 124.13 103.453 119.741 102.851C118.965 102.749 118.501 102.489 118.155 101.752C117.215 99.776 116.234 97.813 115.256 95.8541C114.836 95.0126 114.416 94.172 113.999 93.3314Z" fill="white"/>
</g>
<defs>
<clipPath id="clip0_4_5519">
<rect width="220" height="220" fill="white" transform="translate(0 0.5)"/>
</clipPath>
</defs>
</svg>
