<svg width="220" height="221" viewBox="0 0 220 221" fill="none" xmlns="http://www.w3.org/2000/svg">
<g clip-path="url(#clip0_4_5525)">
<path d="M110 220.5C170.751 220.5 220 171.251 220 110.5C220 49.7487 170.751 0.5 110 0.5C49.2487 0.5 0 49.7487 0 110.5C0 171.251 49.2487 220.5 110 220.5Z" fill="#EDF0F4"/>
<path fill-rule="evenodd" clip-rule="evenodd" d="M57.7699 68.3334H87.6899C87.8496 68.3303 88.0072 68.3683 88.1482 68.4434C88.2826 68.518 88.3961 68.6251 88.4782 68.7551L124.907 127C125.105 127.3 125.105 127.69 124.907 127.99L110.002 151.768C109.919 151.898 109.806 152.005 109.672 152.08C109.392 152.233 109.053 152.233 108.773 152.08C108.639 152.005 108.525 151.898 108.443 151.768L56.9815 69.7451C56.8926 69.6081 56.842 69.4499 56.8349 69.2868C56.8275 69.1208 56.8657 68.956 56.9449 68.8101C57.027 68.6644 57.1475 68.5439 57.2932 68.4618C57.4373 68.3761 57.6021 68.3318 57.7699 68.3334ZM120.488 68.3334H160.565C160.732 68.3318 160.897 68.3761 161.042 68.4618C161.167 68.5514 161.268 68.6711 161.335 68.8101C161.413 68.9564 161.451 69.1208 161.445 69.2868C161.449 69.4464 161.411 69.6045 161.335 69.7451L141.315 101.718C141.233 101.848 141.119 101.955 140.985 102.03C140.705 102.183 140.366 102.183 140.087 102.03C139.952 101.955 139.839 101.848 139.757 101.718L119.718 69.7451C119.629 69.6081 119.579 69.4499 119.572 69.2868C119.564 69.1208 119.602 68.956 119.682 68.8101C119.764 68.6644 119.884 68.5439 120.03 68.4618C120.169 68.3794 120.327 68.3351 120.488 68.3334Z" fill="#FF8836"/>
</g>
<defs>
<clipPath id="clip0_4_5525">
<rect width="220" height="220" fill="white" transform="translate(0 0.5)"/>
</clipPath>
</defs>
</svg>
