<svg width="220" height="221" viewBox="0 0 220 221" fill="none" xmlns="http://www.w3.org/2000/svg">
<g clip-path="url(#clip0_4_5531)">
<path d="M110 220.5C170.751 220.5 220 171.251 220 110.5C220 49.7487 170.751 0.5 110 0.5C49.2487 0.5 0 49.7487 0 110.5C0 171.251 49.2487 220.5 110 220.5Z" fill="#51CBFF"/>
<path d="M100.609 168.89L42.4643 50.4594C41.5194 48.5696 42.94 46.3333 45.0337 46.3333H65.1811C66.2618 46.3333 67.2748 46.945 67.7505 47.8899L110.214 133.809C114 141.517 124.951 141.517 128.737 133.809L171.064 47.9578C171.54 47.0131 172.553 46.4013 173.634 46.4013H176.135C177.624 46.4013 178.569 47.9578 177.896 49.2426L119.139 168.89C115.353 176.592 104.395 176.592 100.609 168.89Z" fill="white"/>
<path opacity="0.1" d="M100.611 168.891L67.7519 47.9581C67.2759 46.9451 66.1952 46.4014 65.3183 46.4014H45.1028C42.8733 46.4014 41.5885 48.6309 42.4654 50.5275L100.611 168.891Z" fill="white"/>
<path opacity="0.1" d="M110.213 133.87L42.4632 50.4594C41.6544 48.5015 42.8712 46.5371 44.7608 46.3333H65.2483C66.3969 46.4013 67.2737 47.1421 67.6817 47.8899L110.213 133.87Z" fill="white"/>
</g>
<defs>
<clipPath id="clip0_4_5531">
<rect width="220" height="220" fill="white" transform="translate(0 0.5)"/>
</clipPath>
</defs>
</svg>
