<svg width="220" height="221" viewBox="0 0 220 221" fill="none" xmlns="http://www.w3.org/2000/svg">
<g clip-path="url(#clip0_4_5546)">
<path d="M110 220.5C170.75 220.5 220 171.25 220 110.5C220 49.7499 170.75 0.5 110 0.5C49.2499 0.5 0 49.7499 0 110.5C0 171.25 49.2499 220.5 110 220.5Z" fill="url(#paint0_linear_4_5546)"/>
<path fill-rule="evenodd" clip-rule="evenodd" d="M166.135 103.95H53.87V103.948C50.1245 103.937 47.0909 100.903 47.0801 97.1577C47.0909 93.4122 50.1245 90.3785 53.87 90.3675H66.9875L52.99 53.4052C51.6735 49.8984 53.4361 45.9869 56.935 44.6501C60.4423 43.3354 64.353 45.0987 65.6901 48.5976L81.5075 90.3675H134.255L150.075 48.5976C151.411 45.0976 155.323 43.3339 158.83 44.6501C162.329 45.9869 164.091 49.8984 162.775 53.4052L148.78 90.3675H166.135C169.88 90.3785 172.914 93.4122 172.925 97.1577C172.915 100.904 169.882 103.939 166.135 103.95ZM166.133 116.625H53.87C50.1254 116.636 47.0924 119.668 47.0801 123.413C47.0896 127.159 50.1236 130.194 53.87 130.205H82.0749L101.187 180.678C102.239 183.43 104.942 185.194 107.885 185.051C110.828 185.194 113.531 183.43 114.582 180.678L133.695 130.203H166.135C169.88 130.192 172.914 127.158 172.925 123.413C172.914 119.667 169.88 116.634 166.135 116.623L166.133 116.625ZM107.883 160.015L96.5925 130.2H119.172L107.883 160.013V160.015Z" fill="white"/>
</g>
<defs>
<linearGradient id="paint0_linear_4_5546" x1="91.3612" y1="265.325" x2="262.662" y2="128.893" gradientUnits="userSpaceOnUse">
<stop stop-color="#F8B342"/>
<stop offset="1" stop-color="#F2C35E"/>
</linearGradient>
<clipPath id="clip0_4_5546">
<rect width="220" height="220" fill="white" transform="translate(0 0.5)"/>
</clipPath>
</defs>
</svg>
