<svg width="220" height="221" viewBox="0 0 220 221" fill="none" xmlns="http://www.w3.org/2000/svg">
<g clip-path="url(#clip0_4_5552)">
<path d="M110 220.5C170.751 220.5 220 171.251 220 110.5C220 49.7487 170.751 0.5 110 0.5C49.2487 0.5 0 49.7487 0 110.5C0 171.251 49.2487 220.5 110 220.5Z" fill="#F8D948"/>
<path d="M84.5533 53.6667H52.3187C51.5938 53.6667 51.1179 54.4245 51.4328 55.0775L110.338 177.198C110.699 177.946 111.766 177.938 112.116 177.186L127.519 144.079C127.643 143.814 127.642 143.508 127.517 143.243L85.4425 54.2299C85.2798 53.886 84.9337 53.6667 84.5533 53.6667Z" fill="black"/>
<path d="M132.233 130.733L116.606 98.1004C116.479 97.8344 116.478 97.5252 116.603 97.2579L136.794 54.2325C136.956 53.8872 137.303 53.6667 137.684 53.6667H168.945C169.667 53.6667 170.143 54.4187 169.834 55.0712L134.009 130.729C133.655 131.477 132.59 131.48 132.233 130.733Z" fill="black"/>
</g>
<defs>
<clipPath id="clip0_4_5552">
<rect width="220" height="220" fill="white" transform="translate(0 0.5)"/>
</clipPath>
</defs>
</svg>
