<svg width="220" height="221" viewBox="0 0 220 221" fill="none" xmlns="http://www.w3.org/2000/svg">
<g clip-path="url(#clip0_4_5566)">
<path d="M110 220.5C170.751 220.5 220 171.251 220 110.5C220 49.7487 170.751 0.5 110 0.5C49.2487 0.5 0 49.7487 0 110.5C0 171.251 49.2487 220.5 110 220.5Z" fill="#FF9933"/>
<path fill-rule="evenodd" clip-rule="evenodd" d="M42.166 55.5C49.756 55.5137 57.3528 55.5137 64.9358 55.5L79.3116 132.364C79.5383 133.498 79.8133 134.619 80.1091 135.733C80.8327 132.864 81.3836 129.956 81.9345 127.049C82.2418 125.426 82.5492 123.804 82.8866 122.189L95.9764 55.5L118.004 55.507L115.779 65.4126C108.442 98.0825 101.105 130.757 93.7558 163.425H66.4141C58.3223 127.476 50.244 91.5256 42.166 55.5688V55.5ZM126.824 89.408C131.616 83.3854 139.275 80.6561 146.659 80.1748C153.946 79.6661 161.797 80.3261 167.971 84.6711C173.437 88.4936 176.434 94.9563 177.857 101.384C179.583 109.442 179.672 117.72 179.665 125.929H139.309C139.314 126.816 139.311 127.707 139.307 128.601C139.285 133.821 139.262 139.113 140.994 144.079C141.977 146.939 143.812 149.785 146.727 150.823C149.835 151.834 153.575 151.174 155.844 148.671C158.769 145.36 159.457 140.762 160.096 136.489L160.161 136.056H178.476C178.064 143.343 176.716 151.043 171.945 156.77C167.16 162.724 159.446 165.158 152.145 165.454C144.211 165.756 135.597 164.677 129.272 159.335C123.394 154.433 120.829 146.664 119.812 139.218C118.794 130.645 118.739 121.969 119.214 113.354C119.853 104.953 121.373 96.0563 126.817 89.4011L126.824 89.408ZM139.309 113.553C139.254 108.253 139.337 102.464 142.458 97.9675V97.9745H142.472C145.868 92.8663 154.778 92.8868 157.597 98.5795C159.554 102.559 159.797 107.066 160.035 111.464C160.072 112.164 160.11 112.861 160.154 113.553H139.309Z" fill="white"/>
</g>
<defs>
<clipPath id="clip0_4_5566">
<rect width="220" height="220" fill="white" transform="translate(0 0.5)"/>
</clipPath>
</defs>
</svg>
