<svg width="220" height="221" viewBox="0 0 220 221" fill="none" xmlns="http://www.w3.org/2000/svg">
<g clip-path="url(#clip0_4_5563)">
<path d="M110 220.5C170.751 220.5 220 171.251 220 110.5C220 49.7487 170.751 0.5 110 0.5C49.2487 0.5 0 49.7487 0 110.5C0 171.251 49.2487 220.5 110 220.5Z" fill="#418BCA"/>
<path fill-rule="evenodd" clip-rule="evenodd" d="M139.538 55.5H172.333L109.999 180.167L47.666 55.5H80.2456L110.214 118.616L139.538 55.5ZM109.999 89.8457C104.542 89.8457 100.116 85.3023 100.116 79.6993C100.116 74.096 104.542 69.5457 109.999 69.5457C115.457 69.5457 119.883 74.096 119.883 79.6993C119.883 85.3023 115.45 89.8457 109.999 89.8457ZM164.652 127.98C164.659 122.377 160.233 117.826 154.775 117.826V117.833C149.318 117.833 144.892 122.377 144.892 127.98C144.892 133.583 149.318 138.126 154.775 138.126C160.233 138.126 164.652 133.59 164.652 127.98Z" fill="white"/>
</g>
<defs>
<clipPath id="clip0_4_5563">
<rect width="220" height="220" fill="white" transform="translate(0 0.5)"/>
</clipPath>
</defs>
</svg>
