<svg width="220" height="221" viewBox="0 0 220 221" fill="none" xmlns="http://www.w3.org/2000/svg">
<g clip-path="url(#clip0_4_5569)">
<path fill-rule="evenodd" clip-rule="evenodd" d="M110 220.5C49.5 220.5 0 171.001 0 109.952C0.55 49.4535 49.5 -0.0454497 110.55 0.504539C171.05 1.05453 220 50.0035 220 111.602C219.45 171.551 170.5 220.5 110 220.5Z" fill="#048657"/>
<path fill-rule="evenodd" clip-rule="evenodd" d="M167.866 51.6951C167.387 51.2395 166.903 50.7926 166.415 50.3544L108.888 130.062L86.9077 102.013H51.128L41.0729 113.467H59.7804L104.446 171.203C105.936 172.605 107.417 173.306 108.888 173.306C110.36 173.306 111.763 172.605 113.098 171.203L183.72 73.4955C183.311 72.6589 182.889 71.8304 182.453 71.0098C188.859 82.7388 192.5 96.1945 192.5 110.499C192.5 156.06 155.563 193 109.999 193C64.4356 193 27.5 156.063 27.5 110.499C27.5 64.9356 64.4415 28 110.001 28C132.544 28 152.976 37.0416 167.866 51.6951Z" fill="#048657"/>
<path fill-rule="evenodd" clip-rule="evenodd" d="M41.0703 113.467L51.1254 102.013H86.9051L108.886 130.062L166.412 50.3545C169.838 53.4277 173.034 56.9349 176.001 60.8756C178.975 64.8287 181.559 69.0552 183.718 73.4974L113.096 171.203C111.761 172.605 110.358 173.306 108.886 173.306C107.414 173.306 105.933 172.605 104.443 171.203L59.778 113.467H41.0703Z" fill="white"/>
</g>
<defs>
<clipPath id="clip0_4_5569">
<rect width="220" height="220" fill="white" transform="translate(0 0.5)"/>
</clipPath>
</defs>
</svg>
