<svg width="220" height="221" viewBox="0 0 220 221" fill="none" xmlns="http://www.w3.org/2000/svg">
<g clip-path="url(#clip0_4_5573)">
<path d="M110 220.5C170.751 220.5 220 171.251 220 110.5C220 49.7487 170.751 0.5 110 0.5C49.2487 0.5 0 49.7487 0 110.5C0 171.251 49.2487 220.5 110 220.5Z" fill="#EDF0F4"/>
<path fill-rule="evenodd" clip-rule="evenodd" d="M109.999 37.1667C150.473 37.1667 183.333 70.0263 183.333 110.5C183.333 150.974 150.473 183.833 109.999 183.833C69.5256 183.833 36.666 150.974 36.666 110.5C36.666 70.0263 69.5256 37.1667 109.999 37.1667ZM74.0462 63.6933C76.8155 61.3218 80.7012 59.3739 84.0793 60.7456C90.1535 63.2122 106.474 96.1147 106.474 96.1147C106.474 96.1147 129.302 63.6832 137.5 60.7258C140.298 59.7167 144.132 61.4914 147.057 63.6779C157.322 71.352 158.382 82.0583 157.495 85.0285C156.379 88.7628 99.6758 160.709 99.6758 160.709C97.9802 160.018 64.3829 97.6598 62.5622 86.99C60.8222 76.7933 66.742 69.8652 74.0462 63.6933Z" fill="#3165D4"/>
</g>
<defs>
<clipPath id="clip0_4_5573">
<rect width="220" height="220" fill="white" transform="translate(0 0.5)"/>
</clipPath>
</defs>
</svg>
