<svg width="220" height="221" viewBox="0 0 220 221" fill="none" xmlns="http://www.w3.org/2000/svg">
<g clip-path="url(#clip0_4_5576)">
<path d="M110 220.5C170.751 220.5 220 171.251 220 110.5C220 49.7487 170.751 0.5 110 0.5C49.2487 0.5 0 49.7487 0 110.5C0 171.251 49.2487 220.5 110 220.5Z" fill="#2A5284"/>
<path d="M138.623 35.3333H159.501L120.259 87.432H155.474L71.3562 185.667L98.5669 116.257H67.834L98.8223 35.3333H138.623Z" fill="white" fill-opacity="0.704"/>
<path d="M138.623 35.3333H139.88L104.61 95.1877H136.862L71.3562 185.659L98.5669 116.257H67.834L98.8223 35.3333H138.623Z" fill="white"/>
</g>
<defs>
<clipPath id="clip0_4_5576">
<rect width="220" height="220" fill="white" transform="translate(0 0.5)"/>
</clipPath>
</defs>
</svg>
