<svg width="220" height="221" viewBox="0 0 220 221" fill="none" xmlns="http://www.w3.org/2000/svg">
<g clip-path="url(#clip0_4_5580)">
<path d="M110 220.5C170.751 220.5 220 171.251 220 110.5C220 49.7487 170.751 0.5 110 0.5C49.2487 0.5 0 49.7487 0 110.5C0 171.251 49.2487 220.5 110 220.5Z" fill="#565656"/>
<path fill-rule="evenodd" clip-rule="evenodd" d="M55.0345 98.3267H76.5393L81.7025 111.802L55.0688 111.63L55 123.441L86.24 123.647L110 185.667L133.65 123.943L164.931 124.142L165 112.324L138.16 112.152L143.461 98.3337H164.966V86.5085H147.984L161.019 52.4772L150.26 48.1667L125.778 112.084L94.1463 111.877L69.74 48.1667L58.9875 52.4772L72.0155 86.5085H55.0345V98.3267ZM110 153.272L98.6768 123.723L121.261 123.867L110 153.272Z" fill="white"/>
</g>
<defs>
<clipPath id="clip0_4_5580">
<rect width="220" height="220" fill="white" transform="translate(0 0.5)"/>
</clipPath>
</defs>
</svg>
