<svg width="220" height="221" viewBox="0 0 220 221" fill="none" xmlns="http://www.w3.org/2000/svg">
<g clip-path="url(#clip0_4_5583)">
<path d="M110 220.5C170.751 220.5 220 171.251 220 110.5C220 49.7487 170.751 0.5 110 0.5C49.2487 0.5 0 49.7487 0 110.5C0 171.251 49.2487 220.5 110 220.5Z" fill="#338BE5"/>
<path fill-rule="evenodd" clip-rule="evenodd" d="M111.114 122.866L148.797 62.8333H72.9296L111.114 122.866ZM170.921 122.921C166.466 120.178 161.516 118.617 156.497 117.27H156.504C155.018 116.882 153.532 116.531 152.021 116.174C151.015 115.936 149.998 115.696 148.962 115.441C159.216 100.053 169.45 84.6534 179.666 69.2408C179.35 69.1995 179.04 69.1858 178.731 69.1858C172.186 69.1858 165.634 69.1858 159.089 69.1308C158.101 69.1308 157.77 69.6166 157.332 70.2606L157.329 70.2652C145.222 88.5182 133.114 106.785 121.014 125.073C118.968 128.179 116.902 131.284 114.801 134.44L114.798 134.444C113.511 136.377 112.21 138.33 110.894 140.314C110.603 139.981 110.345 139.619 110.124 139.235C95.1019 116.245 80.0591 93.2758 65.0026 70.3133C64.5997 69.5086 63.7558 69.0218 62.8574 69.0757C59.7499 69.1032 56.6424 69.1032 53.534 69.1032C50.4256 69.1032 47.3163 69.1033 44.2053 69.1308C43.9143 69.1308 43.5922 69.1621 43.1911 69.2012C43.0613 69.2138 42.9232 69.2274 42.7753 69.2408C51.5016 82.4881 60.0578 95.5753 68.6671 108.744L72.6546 114.843C72.4208 114.909 72.248 114.936 72.0989 114.958C72.0027 114.973 71.9159 114.986 71.8296 115.008C70.4845 115.351 69.1401 115.681 67.7974 116.011C64.5212 116.814 61.2555 117.615 58.0174 118.61C53.4523 120.013 49.0523 121.841 45.4771 125.073C40.9601 129.115 41.0771 133.316 45.7521 137.241C45.8324 137.322 45.9286 137.39 46.0265 137.459C46.1213 137.525 46.2176 137.593 46.3023 137.675C49.4923 140.205 53.1773 141.875 57.0274 143.223C69.1896 147.581 81.8948 149.252 94.7719 150.166C95.5669 150.179 96.2971 150.607 96.6969 151.294C101.361 158.506 106.076 165.686 110.839 172.833C111.136 172.343 111.467 171.875 111.829 171.431C113.994 168.2 116.146 164.969 118.298 161.739L118.299 161.737C120.63 158.239 122.96 154.741 125.304 151.246C125.643 150.721 126.178 150.352 126.789 150.221C129.237 149.916 131.691 149.647 134.144 149.378C138.147 148.94 142.148 148.501 146.109 147.904C153.974 146.722 161.674 144.728 168.934 141.229C171.801 139.881 174.496 138.266 176.476 135.736C178.731 132.828 178.896 129.926 176.421 127.176C174.75 125.568 172.901 124.138 170.921 122.921ZM66.5426 133.797C64.8719 132.841 63.3662 131.618 62.0874 130.195V130.188C60.7289 128.787 60.7535 126.553 62.1424 125.183C63.3365 123.79 64.7709 122.623 66.3776 121.738C68.8596 120.549 71.4171 119.524 74.0296 118.665C74.5308 118.581 75.042 118.742 75.4046 119.098C77.6015 122.417 79.7848 125.748 81.9688 129.079L81.9709 129.082L81.9723 129.084C84.2161 132.507 86.4612 135.932 88.7217 139.345C88.7492 139.397 88.763 139.464 88.7837 139.564C88.8042 139.665 88.8317 139.799 88.8867 139.984C81.0148 138.802 73.4176 137.461 66.5426 133.797ZM148.742 136.004C151.74 135.194 154.484 133.638 156.717 131.48C158.924 129.28 158.924 126.798 156.717 124.536C156.171 123.946 155.544 123.437 154.854 123.024C153.484 122.339 152.077 121.672 150.664 121.003C149.637 120.517 148.608 120.029 147.587 119.531C146.762 119.098 146.267 119.421 145.772 120.178C143.498 123.685 141.181 127.14 138.86 130.602L137.906 132.023C136.823 133.649 135.739 135.299 134.639 136.972C134.065 137.845 133.486 138.727 132.901 139.613C133.34 139.668 133.783 139.668 134.221 139.613C135.591 139.279 136.965 138.952 138.34 138.626L138.342 138.625C141.824 137.798 145.311 136.97 148.742 136.004Z" fill="white"/>
</g>
<defs>
<clipPath id="clip0_4_5583">
<rect width="220" height="220" fill="white" transform="translate(0 0.5)"/>
</clipPath>
</defs>
</svg>
