<svg width="220" height="221" viewBox="0 0 220 221" fill="none" xmlns="http://www.w3.org/2000/svg">
<g clip-path="url(#clip0_4_5590)">
<path d="M110 220.5C170.751 220.5 220 171.251 220 110.5C220 49.7487 170.751 0.5 110 0.5C49.2487 0.5 0 49.7487 0 110.5C0 171.251 49.2487 220.5 110 220.5Z" fill="url(#paint0_linear_4_5590)"/>
<mask id="mask0_4_5590" style="mask-type:luminance" maskUnits="userSpaceOnUse" x="0" y="0" width="220" height="221">
<path d="M110 220.5C170.751 220.5 220 171.251 220 110.5C220 49.7487 170.751 0.5 110 0.5C49.2487 0.5 0 49.7487 0 110.5C0 171.251 49.2487 220.5 110 220.5Z" fill="white"/>
</mask>
<g mask="url(#mask0_4_5590)">
<path d="M156.533 0.5H273.793L273.903 231.5L41.1426 230.07L156.533 0.5Z" fill="url(#paint1_linear_4_5590)"/>
</g>
<path fill-rule="evenodd" clip-rule="evenodd" d="M179.666 61L116.369 185.978L116.306 186.105L116.274 186.18C115.345 188.318 113.545 189.313 111.05 189.333H110.972H110.862C108.301 189.333 106.462 188.32 105.532 186.114L105.528 186.105L105.47 185.988L42.166 61.1105L73.5277 61.1107L73.8079 61.1118L74.0053 61.114L74.1313 61.1162L74.2528 61.1192L74.3702 61.1226L74.4838 61.1269L74.5937 61.132L74.7002 61.1379L74.7522 61.1412L74.8538 61.1485L74.9524 61.1566L75.0008 61.1611L75.0954 61.171L75.142 61.1762L75.2331 61.1877L75.3222 61.2004L75.4093 61.2143C75.4381 61.2191 75.4667 61.2242 75.4949 61.2295L75.5789 61.246C75.8568 61.3034 76.114 61.3841 76.3855 61.4968C77.0633 61.7781 77.6309 62.2366 78.0414 62.8533C78.264 63.1881 78.4152 63.5195 78.532 63.8836L78.5478 63.9342L110.86 127.393L143.1 63.9742L143.104 63.9621L143.115 63.9214C143.436 62.7589 144.275 61.9084 145.381 61.4547L145.432 61.4341C146.218 61.1228 147.128 61 148.256 61H179.666ZM51.4777 66.8579L110.547 183.381L110.646 183.581L110.704 183.583L110.78 183.585L110.862 183.586H110.972L111.054 183.585L111.13 183.583L111.188 183.581L111.281 183.393L170.358 66.7471L148.202 66.7475C148.167 66.7477 148.133 66.7481 148.1 66.7486L148.091 66.7488L110.864 139.978L73.6324 66.8582L51.4777 66.8579Z" fill="white"/>
<path d="M128.911 61C126.471 61 125.695 61.3322 124.586 63.5476L97.8614 115.939L71.1369 63.5476C70.5823 61.5538 69.2516 62.1077 66.812 62.1077H44.1905C43.0817 62.1077 41.9727 63.3261 42.1946 64.1015L93.4256 164.564C94.2018 166.336 95.6434 167.333 97.8614 167.333H97.9721C100.19 167.333 101.742 166.447 102.408 164.564L153.75 63.5476C154.083 62.7723 154.083 62.2184 153.75 61.7753C153.417 61.3324 152.641 61 151.754 61H128.911Z" fill="white"/>
</g>
<defs>
<linearGradient id="paint0_linear_4_5590" x1="-76.01" y1="46.48" x2="-76.01" y2="198.5" gradientUnits="userSpaceOnUse">
<stop stop-color="#5B62FE"/>
<stop offset="1" stop-color="#3831AB"/>
</linearGradient>
<linearGradient id="paint1_linear_4_5590" x1="-16061.3" y1="34.325" x2="-16061.3" y2="190.712" gradientUnits="userSpaceOnUse">
<stop stop-color="#1F1B55" stop-opacity="0.98"/>
<stop offset="1" stop-color="#493ED1"/>
</linearGradient>
<clipPath id="clip0_4_5590">
<rect width="220" height="220" fill="white" transform="translate(0 0.5)"/>
</clipPath>
</defs>
</svg>
