<svg width="220" height="221" viewBox="0 0 220 221" fill="none" xmlns="http://www.w3.org/2000/svg">
<g clip-path="url(#clip0_4_5599)">
<path d="M110 220.5C170.751 220.5 220 171.251 220 110.5C220 49.7487 170.751 0.5 110 0.5C49.2487 0.5 0 49.7487 0 110.5C0 171.251 49.2487 220.5 110 220.5Z" fill="#EDF0F4"/>
<path d="M135.351 119.179L105.848 172.59L75.8363 118.84C76.2322 119.123 78.5154 120.332 84.4838 122.909C90.4522 125.487 96.8049 126.583 99.2352 126.809C96.8614 125.792 90.6897 122.943 84.9926 119.688C77.8712 115.618 69.0541 109.175 62.95 103.75C58.0669 99.4089 44.864 85.7764 38.873 79.5029C45.8249 84.3635 61.9666 95.4073 70.9193 100.698C79.8719 105.988 102.005 115.562 111.952 119.688C110.709 118.501 107.51 115.245 104.661 111.719C101.812 108.192 99.1787 103.467 98.2179 101.545C101.213 103.41 108.256 107.683 112.461 109.854C116.666 112.024 129.473 116.975 135.351 119.179Z" fill="url(#paint0_linear_4_5599)"/>
<path d="M133.313 110.701C150.676 118.569 173.894 121.327 183.333 121.723C175.137 119.01 155.661 112.193 143.317 106.632C130.974 101.07 122.349 93.3499 119.579 90.185C121.275 91.4849 126.158 94.6274 132.127 96.7977C138.095 98.968 143.883 99.9626 146.03 100.189L174.007 50H129.074L106.184 94.0847L78.5465 50H36.666C40.6223 54.6345 50.7053 65.7689 59.3867 73.2293C68.0679 80.6898 81.8811 90.5807 87.7027 94.5935C85.555 91.8805 80.9203 85.7088 79.5638 82.7245C78.2075 79.7403 77.0771 74.5857 76.6814 72.3815C80.4684 76.0551 89.059 84.2166 93.1285 87.4721C98.2152 91.5415 111.61 100.867 133.313 110.701Z" fill="url(#paint1_linear_4_5599)"/>
</g>
<defs>
<linearGradient id="paint0_linear_4_5599" x1="19.7142" y1="78.9832" x2="84.3936" y2="188.039" gradientUnits="userSpaceOnUse">
<stop stop-color="#721951"/>
<stop offset="1" stop-color="#E4662E"/>
</linearGradient>
<linearGradient id="paint1_linear_4_5599" x1="-34.2378" y1="62.7664" x2="-16.7613" y2="177.479" gradientUnits="userSpaceOnUse">
<stop stop-color="#721951"/>
<stop offset="1" stop-color="#E4662E"/>
</linearGradient>
<clipPath id="clip0_4_5599">
<rect width="220" height="220" fill="white" transform="translate(0 0.5)"/>
</clipPath>
</defs>
</svg>
