<svg width="220" height="221" viewBox="0 0 220 221" fill="none" xmlns="http://www.w3.org/2000/svg">
<g clip-path="url(#clip0_4_5603)">
<path d="M110 220.5C170.751 220.5 220 171.251 220 110.5C220 49.7487 170.751 0.5 110 0.5C49.2487 0.5 0 49.7487 0 110.5C0 171.251 49.2487 220.5 110 220.5Z" fill="#B80000"/>
<path fill-rule="evenodd" clip-rule="evenodd" d="M178.93 78.3271C180.002 80.1487 179.858 82.0598 178.792 83.9296C177.671 85.7173 176.611 87.5288 175.552 89.3377C175.105 90.1024 174.658 90.8667 174.206 91.6287L174.196 91.6472C170.033 98.7627 165.87 105.878 161.694 112.994C153.351 127.164 145 141.329 136.641 155.49C135.685 157.268 133.766 158.312 131.753 158.15C129.643 158.054 128.144 157.009 127.147 155.188C126.146 153.407 125.105 151.647 124.058 149.874L123.985 149.75C120.881 144.445 117.767 139.15 114.657 133.861L113.445 131.801C112.788 130.666 112.117 129.55 111.386 128.336L110.956 127.622C110.579 128.261 110.211 128.87 109.852 129.464C109.373 130.257 108.909 131.024 108.461 131.801L97.9216 149.743C96.8449 151.545 95.7907 153.36 94.7591 155.188C93.7621 157.009 92.2703 158.054 90.1528 158.15C88.142 158.301 86.2293 157.26 85.2646 155.49C81.6348 149.382 78.0453 143.275 74.4435 137.146L74.4421 137.144L73.4396 135.438C69.0154 127.965 64.6062 120.484 60.2121 112.994C56.0528 105.872 51.8796 98.7503 47.6996 91.6287C47.3434 91.0246 46.9877 90.419 46.6319 89.8129C45.4772 87.8463 44.3191 85.8738 43.1209 83.9296C41.9796 82.0598 41.8146 80.1487 42.8803 78.3271C43.9253 76.5328 45.6096 75.6667 47.7753 75.6667C50.0292 75.6748 52.2835 75.684 54.5378 75.6931C65.8153 75.739 77.0962 75.7848 88.3721 75.6873C91.7891 75.6667 93.8309 76.9728 95.4259 79.8187C97.6194 83.7334 99.9038 87.5856 102.188 91.4374C103.462 93.585 104.735 95.7329 105.993 97.891C106.55 98.8542 107.104 99.8202 107.658 100.787L107.662 100.793C108.571 102.377 109.481 103.964 110.406 105.542C110.497 105.685 110.632 105.804 110.768 105.923C110.808 105.959 110.849 105.994 110.888 106.03C111.071 105.899 111.23 105.736 111.355 105.549C111.968 104.494 112.575 103.435 113.183 102.375C114.04 100.878 114.899 99.3798 115.776 97.891C116.871 96.0233 117.973 94.161 119.075 92.2995C121.531 88.1519 123.984 84.0082 126.343 79.8187C127.931 76.9728 129.973 75.6667 133.39 75.6942C144.605 75.7854 155.815 75.7397 167.029 75.6939C169.35 75.6845 171.672 75.675 173.993 75.6667C176.2 75.6667 177.885 76.5328 178.93 78.3271ZM104.384 117.888C104.652 117.322 104.659 116.667 104.405 116.094C103.95 115.168 103.4 114.274 102.847 113.376C102.563 112.915 102.278 112.452 102.005 111.983C100.591 109.569 99.1758 107.156 97.7612 104.744C94.3348 98.903 90.91 93.0644 87.4991 87.2017C87.0041 86.3562 86.4334 86.0537 85.4366 86.0537C79.1231 86.0874 72.8062 86.0975 66.4907 86.1076C63.7834 86.112 61.0762 86.1162 58.3696 86.1224C58.1007 86.1224 57.8317 86.1497 57.5145 86.182C57.329 86.2009 57.1268 86.2214 56.8984 86.2392C61.4987 94.0864 66.0823 101.91 70.6654 109.732L70.6696 109.739C77.0579 120.643 83.4458 131.546 89.8778 142.512C90.283 141.836 90.6618 141.219 91.0224 140.631C91.506 139.843 91.9568 139.108 92.3941 138.359C96.4228 131.554 100.417 124.728 104.384 117.888ZM133.063 140.616L131.953 142.512C131.652 142.016 131.364 141.549 131.089 141.1C130.495 140.133 129.953 139.251 129.436 138.359C125.421 131.547 121.427 124.721 117.44 117.888C117.179 117.318 117.179 116.664 117.44 116.094C117.96 115.054 118.567 114.069 119.172 113.088C119.398 112.72 119.625 112.352 119.846 111.983C124.687 103.724 129.523 95.4611 134.352 87.1947C134.847 86.3562 135.418 86.0537 136.415 86.0537C142.73 86.0874 149.045 86.0975 155.362 86.1076C158.068 86.112 160.774 86.1162 163.481 86.1224C163.743 86.1224 163.997 86.1483 164.303 86.1794C164.494 86.1991 164.706 86.2207 164.953 86.2392C154.282 104.396 143.72 122.424 133.063 140.616Z" fill="white"/>
</g>
<defs>
<clipPath id="clip0_4_5603">
<rect width="220" height="220" fill="white" transform="translate(0 0.5)"/>
</clipPath>
</defs>
</svg>
