<svg width="220" height="221" viewBox="0 0 220 221" fill="none" xmlns="http://www.w3.org/2000/svg">
<g clip-path="url(#clip0_4_5606)">
<path d="M110 220.5C170.751 220.5 220 171.251 220 110.5C220 49.7487 170.751 0.5 110 0.5C49.2487 0.5 0 49.7487 0 110.5C0 171.251 49.2487 220.5 110 220.5Z" fill="#EDF0F4"/>
<path d="M76.2467 127.43L41.3261 137.906L40.1621 71.5568L75.0827 63.4087L76.2467 127.43Z" fill="#8400FD"/>
<path fill-rule="evenodd" clip-rule="evenodd" d="M39.4596 138.954C40.74 139.768 42.1369 140.234 43.6501 140.234C44.2599 140.234 44.7809 140.145 45.3679 140.045C45.4534 140.031 45.5403 140.016 45.629 140.001L74.3802 132.668C77.5231 131.853 79.7349 129.176 79.7349 126.266V67.7155C79.7349 65.6202 78.6871 63.6413 76.8248 62.3609C74.9623 61.0805 72.6342 60.7313 70.4226 61.1969L41.904 67.5991C38.8776 68.2974 36.666 70.742 36.666 73.6521V133.948C36.666 135.927 37.7136 137.79 39.4596 138.954ZM67.9782 68.4139C68.3273 68.2974 68.793 68.2974 69.1422 68.2974C70.1898 68.2974 71.2374 68.6467 72.2851 69.3452C73.4491 70.2763 74.1474 71.6732 74.1474 73.1864V123.938C74.1474 126.149 72.6342 128.128 70.539 128.71L48.1898 135.112C46.793 135.578 45.3962 135.229 44.2322 134.414C43.0682 133.599 42.3697 132.202 42.3697 130.805V78.4244C42.3697 76.3293 43.8829 74.4668 45.8618 74.0011L67.9782 68.4139Z" fill="white"/>
<path d="M100.688 149.546L65.7677 160.022L64.6035 93.6731L99.5243 85.525L100.688 149.546Z" fill="#02FFDB"/>
<path fill-rule="evenodd" clip-rule="evenodd" d="M64.9526 159.79C66.1166 160.604 67.5134 161.07 68.9102 161.07C69.4923 161.07 70.0742 160.954 70.6563 160.837L97.8943 153.737C100.921 153.038 103.016 150.477 103.016 147.567V90.8795C103.016 88.9006 102.085 87.0381 100.339 85.7577C98.5928 84.5937 96.3811 84.1281 94.2859 84.5937L67.2806 90.7631C64.3705 91.345 62.2754 93.7895 62.2754 96.5832V154.901C62.2754 156.879 63.323 158.625 64.9526 159.79ZM92.4235 89.3663C92.7727 89.2498 93.2384 89.2498 93.5874 89.2498C94.6352 89.2498 95.6828 89.5991 96.7303 90.2974C97.8943 91.2286 98.5928 92.6254 98.5928 94.1386V144.89C98.5928 147.102 97.0796 149.08 94.9843 149.663L72.6352 156.065C71.2384 156.53 69.8414 156.181 68.6774 155.366C67.5134 154.551 66.8151 153.155 66.8151 151.758V99.3768C66.8151 97.2815 68.3281 95.4192 70.307 94.9535L92.4235 89.3663Z" fill="white"/>
<path d="M127.458 128.594L92.537 139.07L91.373 72.7207L126.294 64.5726L127.458 128.594Z" fill="#8400FD"/>
<path fill-rule="evenodd" clip-rule="evenodd" d="M91.7221 138.953C92.8861 139.768 94.2831 140.234 95.6799 140.234C96.2618 140.234 96.8439 140.117 97.4258 139.885L124.548 132.784C127.574 132.086 129.669 129.525 129.669 126.615V69.8106C129.669 67.8317 128.738 65.9694 126.992 64.6888C125.246 63.5248 123.034 63.0593 120.939 63.5248L94.0503 69.6942C91.1402 70.2762 89.0449 72.7206 89.0449 75.5143V134.065C89.0449 136.043 90.0925 137.789 91.7221 138.953ZM119.193 68.4138C119.542 68.2973 120.008 68.2973 120.357 68.2973C121.405 68.2973 122.452 68.6466 123.384 69.3449C124.548 70.2762 125.246 71.6731 125.246 73.1863V123.938C125.246 126.149 123.733 128.128 121.638 128.71L99.4047 135.112C98.0079 135.578 96.4947 135.228 95.3307 134.414C94.1667 133.599 93.4682 132.202 93.4682 130.805V78.4243C93.4682 76.3292 94.9814 74.4667 96.9603 74.001L119.193 68.4138Z" fill="white"/>
<path d="M154.235 149.546L119.314 160.022L118.15 93.6732L153.071 85.5251L154.235 149.546Z" fill="#02FFDB"/>
<path fill-rule="evenodd" clip-rule="evenodd" d="M117.448 159.906C118.728 160.721 120.125 161.186 121.638 161.186C122.337 161.186 122.919 161.07 123.617 160.837L152.369 153.504C155.511 152.689 157.723 150.012 157.723 147.102V88.5515C157.723 86.5726 156.675 84.5937 154.813 83.3133C152.951 82.0329 150.622 81.6837 148.411 82.1493L119.892 88.5515C116.866 89.2498 114.654 91.6942 114.654 94.6043V154.901C114.654 156.879 115.702 158.742 117.448 159.906ZM145.966 89.3663C146.316 89.2498 146.781 89.2498 147.131 89.2498C148.178 89.2498 149.226 89.5991 150.273 90.2974C151.437 91.2287 152.136 92.6255 152.136 94.1388V144.89C152.136 147.102 150.622 149.08 148.527 149.663L126.178 156.065C124.781 156.53 123.384 156.181 122.22 155.366C121.056 154.552 120.358 153.155 120.358 151.758V99.3768C120.358 97.2817 121.871 95.4192 123.85 94.9535L145.966 89.3663Z" fill="white"/>
<path d="M181.005 127.43L146.084 137.906L144.92 71.5568L179.841 63.4087L181.005 127.43Z" fill="#8400FD"/>
<path fill-rule="evenodd" clip-rule="evenodd" d="M143.057 138.954C144.338 139.768 145.735 140.234 147.248 140.234C147.946 140.234 148.528 140.118 149.227 139.885L177.978 132.551C181.121 131.737 183.333 129.059 183.333 126.149V67.5991C183.333 65.6202 182.285 63.6413 180.422 62.3609C178.56 61.0805 176.232 60.7313 174.02 61.1969L145.502 67.5991C142.475 68.2974 140.264 70.742 140.264 73.6521V133.948C140.264 135.927 141.311 137.79 143.057 138.954ZM171.576 68.4139C171.925 68.2974 172.391 68.2974 172.74 68.2974C173.787 68.2974 174.835 68.6467 175.883 69.3452C177.047 70.2763 177.745 71.6732 177.745 73.1864V123.938C177.745 126.149 176.232 128.128 174.137 128.71L151.787 135.112C150.391 135.578 148.994 135.229 147.83 134.414C146.666 133.599 145.967 132.202 145.967 130.805V78.4244C145.967 76.3293 147.481 74.4668 149.46 74.0011L171.576 68.4139Z" fill="white"/>
</g>
<defs>
<clipPath id="clip0_4_5606">
<rect width="220" height="220" fill="white" transform="translate(0 0.5)"/>
</clipPath>
</defs>
</svg>
