<svg width="220" height="221" viewBox="0 0 220 221" fill="none" xmlns="http://www.w3.org/2000/svg">
<g clip-path="url(#clip0_4_5618)">
<path d="M110 220.5C170.751 220.5 220 171.251 220 110.5C220 49.7487 170.751 0.5 110 0.5C49.2487 0.5 0 49.7487 0 110.5C0 171.251 49.2487 220.5 110 220.5Z" fill="#136AAD"/>
<path fill-rule="evenodd" clip-rule="evenodd" d="M49.7646 74.1807L109.999 39L170.657 74.1807L154.284 80.9258L109.999 55.4351L66.1374 80.9258L49.7646 74.1807ZM47.666 77.5532L66.1374 85.3467V129.162L109.999 103.044L154.284 129.162V85.3467L172.333 77.5532V160.136L109.999 123.479L47.666 160.136V77.5532ZM76.4224 147.915L62.7784 155.708L110.207 183.833L157.636 155.708L143.576 147.915L110.207 167.398L76.4224 147.915Z" fill="white"/>
</g>
<defs>
<clipPath id="clip0_4_5618">
<rect width="220" height="220" fill="white" transform="translate(0 0.5)"/>
</clipPath>
</defs>
</svg>
