<svg width="220" height="221" viewBox="0 0 220 221" fill="none" xmlns="http://www.w3.org/2000/svg">
<g clip-path="url(#clip0_4_5624)">
<path d="M110 220.5C170.751 220.5 220 171.251 220 110.5C220 49.7487 170.751 0.5 110 0.5C49.2487 0.5 0 49.7487 0 110.5C0 171.251 49.2487 220.5 110 220.5Z" fill="#F89022"/>
<path fill-rule="evenodd" clip-rule="evenodd" d="M176.248 131.093H192.5L141.041 86.6667H124.713L156.523 114.153L146.472 122.795L125.579 97.3022H111.76L86.6525 127.862L83.9162 131.203L96.2088 97.3574H85.037L76.897 120.217L68.75 97.3642H55L46.8325 120.265L38.6375 97.261H27.5L39.6893 131.038H54.2025L61.875 109.519L69.6095 131.203H83.9162L75.35 141.667H89.0793L118.676 105.635L127.153 116.002H116.023L110.296 123.077H132.928L139.494 131.052H153.23L164.718 121.22L176.248 131.093ZM168.713 104.088L176.378 110.66L191.833 97.5842L176.364 97.5704L168.713 104.088Z" fill="white"/>
</g>
<defs>
<clipPath id="clip0_4_5624">
<rect width="220" height="220" fill="white" transform="translate(0 0.5)"/>
</clipPath>
</defs>
</svg>
