<svg width="220" height="221" viewBox="0 0 220 221" fill="none" xmlns="http://www.w3.org/2000/svg">
<g clip-path="url(#clip0_4_5627)">
<path d="M110 220.5C170.751 220.5 220 171.251 220 110.5C220 49.7487 170.751 0.5 110 0.5C49.2487 0.5 0 49.7487 0 110.5C0 171.251 49.2487 220.5 110 220.5Z" fill="#EDF0F4"/>
<path d="M171.746 108.269H171.601L167.03 86.1915C167.929 85.8597 168.463 84.9322 168.297 83.9878C168.131 83.0435 167.314 82.3529 166.355 82.347C166.003 82.3472 165.658 82.444 165.357 82.6271L147.369 61.3551C148.151 60.609 148.181 59.37 147.435 58.5877C146.689 57.8054 145.45 57.7759 144.667 58.5221C144.509 58.6722 144.377 58.8484 144.278 59.0431L126.185 50.8461C126.256 50.6448 126.293 50.4332 126.294 50.2198C126.291 49.1882 125.497 48.3313 124.469 48.249C123.44 48.1669 122.52 48.8866 122.353 49.9047H111.349C110.562 49.2441 109.413 49.2441 108.626 49.9047H97.6C97.5116 49.1857 97.0375 48.5722 96.3639 48.3057C95.6904 48.0391 94.925 48.1617 94.3684 48.6256C93.812 49.0894 93.5533 49.8202 93.6941 50.5308C93.708 50.6382 93.7329 50.7438 93.7685 50.8461L75.7061 59.0431C75.2117 58.0819 74.0314 57.7035 73.0702 58.198C72.1088 58.6926 71.7305 59.8727 72.225 60.8341C72.3264 61.0273 72.458 61.2032 72.6148 61.3551L54.548 82.5659C54.2471 82.3827 53.9018 82.2858 53.5496 82.2856C52.5909 82.2914 51.7736 82.9822 51.6079 83.9264C51.4423 84.8708 51.9758 85.7984 52.8753 86.1303L48.3871 108.282H48.2424C46.8964 108.339 45.834 109.446 45.834 110.794C45.834 112.141 46.8964 113.249 48.2424 113.305H48.3871L52.9015 135.409C52.002 135.741 51.4685 136.668 51.6343 137.612C51.7998 138.557 52.6171 139.248 53.5758 139.253C53.9274 139.249 54.2717 139.152 54.5742 138.973L72.6192 160.232C72.0565 160.769 71.8649 161.588 72.1313 162.318C72.3975 163.049 73.0711 163.553 73.8471 163.602C74.6232 163.651 75.3547 163.236 75.7105 162.544L93.7905 170.746C93.7212 170.947 93.6842 171.158 93.681 171.372C93.6843 172.403 94.478 173.26 95.5063 173.342C96.5348 173.425 97.4546 172.705 97.6218 171.687H108.626C109.415 172.344 110.56 172.344 111.349 171.687H122.353C122.52 172.705 123.44 173.425 124.469 173.342C125.497 173.26 126.291 172.403 126.294 171.372C126.293 171.158 126.256 170.947 126.185 170.746L144.282 162.527C144.638 163.218 145.369 163.633 146.145 163.584C146.922 163.535 147.595 163.031 147.861 162.301C148.128 161.57 147.936 160.751 147.374 160.215L165.374 139.061C165.677 139.24 166.021 139.337 166.373 139.341C167.332 139.335 168.149 138.644 168.315 137.7C168.48 136.756 167.947 135.828 167.047 135.496L171.614 113.279H171.759C173.105 113.222 174.167 112.115 174.167 110.767C174.167 109.42 173.105 108.312 171.759 108.256L171.746 108.269Z" fill="#0432A9"/>
<path d="M166.195 86.3141L168.218 102.59L161.777 89.0772C162.618 88.4487 162.947 87.3437 162.587 86.3578L164.667 85.3945C165.003 85.9247 165.57 86.2654 166.195 86.3141Z" fill="#EDF0F4"/>
<path d="M157.381 128.582L156.943 112.319C157.582 112.271 158.125 111.834 158.309 111.22H161.559C161.559 111.299 161.594 111.378 161.615 111.461C161.637 111.544 161.668 111.641 161.699 111.728V111.781C161.951 112.415 162.455 112.917 163.091 113.165L161.401 124.724L158.336 130.316L157.381 128.582Z" fill="#EDF0F4"/>
<path d="M61.599 130.308L58.5339 124.716L56.8613 113.152C57.688 112.829 58.277 112.086 58.4026 111.208H61.7173C61.7622 111.306 61.8148 111.401 61.8749 111.492C62.108 111.929 62.536 112.229 63.0266 112.298L62.5887 128.574L61.599 130.308Z" fill="#EDF0F4"/>
<path d="M62.6005 92.9785L63.0383 109.254C62.5465 109.32 62.1171 109.621 61.8866 110.06C61.8249 110.149 61.7721 110.245 61.7292 110.345H58.4319C58.3089 109.465 57.7191 108.721 56.8906 108.401L58.5808 96.8232L61.6459 91.2315L62.6005 92.9785Z" fill="#EDF0F4"/>
<path d="M158.366 91.2578L161.431 96.8495L163.121 108.409C162.484 108.655 161.978 109.157 161.729 109.793V109.846C161.696 109.933 161.668 110.022 161.646 110.113C161.622 110.192 161.603 110.272 161.589 110.353H158.366C158.185 109.738 157.64 109.3 157 109.255L157.438 92.9918L158.366 91.2578Z" fill="#EDF0F4"/>
<path d="M158.676 90.7105L159.411 89.4275C159.691 89.536 159.987 89.594 160.287 89.5982H160.362L161.198 95.2907L158.676 90.7105Z" fill="#EDF0F4"/>
<path d="M167.689 110.415H166.511C166.39 109.68 165.946 109.038 165.302 108.663C165.253 108.633 165.201 108.605 165.149 108.58C165.094 108.549 165.037 108.521 164.978 108.497C164.669 108.356 164.333 108.283 163.993 108.282H163.857L162.465 98.7848L168.258 109.364C167.95 109.635 167.741 110.002 167.667 110.406L167.689 110.415Z" fill="#EDF0F4"/>
<path d="M168.266 112.232L162.486 122.811L163.879 113.313H164.014C164.354 113.311 164.69 113.238 165 113.099C165.057 113.099 165.113 113.042 165.166 113.016C165.219 112.991 165.27 112.963 165.319 112.932C165.962 112.556 166.404 111.915 166.528 111.181H167.706C167.773 111.581 167.968 111.948 168.262 112.228L168.266 112.232Z" fill="#EDF0F4"/>
<path d="M157.424 91.3452L157.454 90.1891C157.554 90.1805 157.652 90.1629 157.748 90.1367L157.927 90.4651L157.424 91.3452Z" fill="#EDF0F4"/>
<path d="M157.862 87.1547V87.1897C157.7 87.1285 157.528 87.0973 157.354 87.0979C157.23 87.0979 157.106 87.1155 156.986 87.1503V87.0715L156.514 86.0294L157.946 86.533C157.878 86.7327 157.837 86.9402 157.823 87.1503L157.862 87.1547Z" fill="#EDF0F4"/>
<path d="M156.926 90.1365L156.869 92.3261L150.446 103.501L144.088 96.3457C144.31 96.0721 144.433 95.7306 144.434 95.378C144.434 95.2295 144.412 95.082 144.368 94.9401L156.002 89.4492C156.203 89.7739 156.514 90.015 156.878 90.1279L156.926 90.1365Z" fill="#EDF0F4"/>
<path d="M135.863 143.628L136.712 143.33L135.95 145.519C135.874 145.505 135.796 145.498 135.718 145.497C135.617 145.497 135.515 145.507 135.416 145.528C135.828 144.99 135.988 144.301 135.854 143.636L135.863 143.628Z" fill="#EDF0F4"/>
<path d="M135.604 142.892C135.4 142.513 135.098 142.197 134.729 141.977L140.815 126.827L141.454 126.713C141.586 127.09 141.857 127.404 142.212 127.588L137.01 142.362L135.604 142.892Z" fill="#EDF0F4"/>
<path d="M134.157 147.065L130.654 147.709L132.112 146.106C132.769 146.54 133.596 146.627 134.328 146.338C134.223 146.541 134.165 146.763 134.157 146.991L134.131 147.052L134.157 147.065Z" fill="#EDF0F4"/>
<path d="M111.518 151.768L128.853 148.576L118.782 159.693L111.246 152.687C111.422 152.429 111.517 152.124 111.518 151.812C111.502 151.796 111.489 151.778 111.478 151.759L111.518 151.768Z" fill="#EDF0F4"/>
<path d="M111.418 151.26C111.332 151.008 111.181 150.783 110.98 150.607L114.746 144.451H131.075C131.144 144.86 131.317 145.245 131.578 145.567L129.468 147.919L111.418 151.26Z" fill="#EDF0F4"/>
<path d="M108.794 152.67L101.259 159.676L91.1875 148.558L108.523 151.75V151.777C108.507 152.083 108.582 152.388 108.737 152.652L108.794 152.67Z" fill="#EDF0F4"/>
<path d="M108.623 151.26L90.6128 147.936L88.4805 145.585C88.7412 145.262 88.9146 144.878 88.9841 144.469H105.312L109.021 150.599C108.821 150.773 108.67 150.996 108.583 151.247L108.623 151.26Z" fill="#EDF0F4"/>
<path d="M85.8506 146.986C85.8425 146.759 85.7842 146.536 85.6797 146.334C86.4119 146.622 87.2389 146.536 87.8955 146.102L89.3535 147.705L85.8506 147.061V146.986Z" fill="#EDF0F4"/>
<path d="M84.6048 145.519C84.4288 145.48 84.2463 145.48 84.0705 145.519L83.3086 143.33L84.158 143.628C84.1301 143.772 84.1154 143.919 84.1143 144.066C84.1046 144.581 84.2579 145.087 84.5521 145.511L84.6048 145.519Z" fill="#EDF0F4"/>
<path d="M84.4112 142.892L82.9708 142.388L77.7949 127.571C78.1497 127.386 78.4206 127.073 78.5525 126.695L79.1919 126.809L85.2784 141.959C84.8989 142.181 84.5871 142.502 84.3762 142.888L84.4112 142.892Z" fill="#EDF0F4"/>
<path d="M84.1523 77.9462L83.3027 78.2439L84.0647 76.0545C84.142 76.0589 84.2196 76.0589 84.2968 76.0545C84.3982 76.0509 84.499 76.0406 84.5989 76.0239C84.2159 76.5776 84.0449 77.2506 84.1173 77.92L84.1523 77.9462Z" fill="#EDF0F4"/>
<path d="M84.4163 78.6819C84.6224 79.0586 84.9245 79.3743 85.2919 79.5969L79.2054 94.7476L78.5661 94.8614C78.4371 94.4821 78.1654 94.1681 77.8086 93.9856L83.0019 79.1679L84.4163 78.6819Z" fill="#EDF0F4"/>
<path d="M85.8797 74.4913L89.3826 73.8477L87.9246 75.4504C87.2697 75.0118 86.4405 74.9249 85.709 75.2183C85.8124 75.0157 85.8707 74.7931 85.8797 74.5658L85.9059 74.5045L85.8797 74.4913Z" fill="#EDF0F4"/>
<path d="M108.515 69.8061L91.1797 72.9983L101.251 61.8806L108.787 68.8867C108.61 69.1443 108.515 69.4497 108.515 69.7623C108.515 69.7623 108.48 69.7931 108.48 69.8017L108.515 69.8061Z" fill="#EDF0F4"/>
<path d="M108.608 70.314C108.696 70.5651 108.847 70.7895 109.046 70.9664L105.275 77.1186H88.947C88.8793 76.7088 88.7057 76.3238 88.4434 76.0019L90.5759 73.6506L108.608 70.314Z" fill="#EDF0F4"/>
<path d="M111.238 68.904L118.774 61.8981L128.845 73.0158L111.514 69.8236V69.7974C111.515 69.4751 111.413 69.1609 111.225 68.8996L111.238 68.904Z" fill="#EDF0F4"/>
<path d="M111.408 70.314L129.418 73.6374L131.551 75.9889C131.286 76.3145 131.113 76.7042 131.047 77.1186H114.719L110.953 70.962C111.15 70.7886 111.3 70.569 111.391 70.3228L111.408 70.314Z" fill="#EDF0F4"/>
<path d="M134.179 74.5877C134.188 74.8149 134.246 75.0376 134.35 75.2402C133.618 74.9469 132.789 75.0338 132.134 75.4722L130.676 73.8696L134.179 74.5133V74.5877Z" fill="#EDF0F4"/>
<path d="M135.43 76.0547C135.53 76.0714 135.631 76.0816 135.732 76.0853C135.809 76.0899 135.887 76.0899 135.964 76.0853L136.726 78.2747L135.876 77.9769C136.011 77.3127 135.852 76.6226 135.438 76.0853L135.43 76.0547Z" fill="#EDF0F4"/>
<path d="M135.614 78.6819L137.055 79.1853L142.23 94.0031C141.874 94.1855 141.602 94.4997 141.473 94.8788L140.833 94.765L134.721 79.6145C135.09 79.3833 135.393 79.0586 135.596 78.6731L135.614 78.6819Z" fill="#EDF0F4"/>
<path d="M147.636 108.383C147.197 108.22 146.717 108.2 146.265 108.326L143.844 102.305L143.336 96.8712C143.491 96.8281 143.639 96.7617 143.774 96.6741L150.18 103.956L147.636 108.383Z" fill="#EDF0F4"/>
<path d="M150.753 104.6L155.482 109.96L155.333 110.314H149.268C149.169 109.708 148.843 109.162 148.357 108.786L150.753 104.6Z" fill="#EDF0F4"/>
<path d="M144.866 109.298C144.747 109.26 144.623 109.24 144.498 109.237L144.117 105.147L145.523 108.65C145.259 108.818 145.031 109.037 144.853 109.294L144.866 109.298Z" fill="#EDF0F4"/>
<path d="M145.517 112.92L144.111 116.423L144.492 112.333C144.617 112.326 144.74 112.305 144.86 112.271C145.032 112.526 145.251 112.746 145.504 112.92H145.517Z" fill="#EDF0F4"/>
<path d="M143.478 103.544L144.026 109.298C143.539 109.435 143.152 109.804 142.992 110.283H132.151C132.097 110.125 132.017 109.977 131.914 109.846L141.232 97.9747L143.478 103.544Z" fill="#EDF0F4"/>
<path d="M108.274 108.952C107.912 109.307 107.669 109.766 107.582 110.266L90.6891 110.288C90.5492 109.999 90.3226 109.76 90.041 109.605L96.2195 93.3772C96.5433 93.4633 96.8865 93.4402 97.196 93.3115L108.274 108.952Z" fill="#EDF0F4"/>
<path d="M97.8613 92.751C98.0098 92.5466 98.1061 92.3091 98.1415 92.0591H121.866C121.901 92.3091 121.997 92.5466 122.146 92.751L111.002 108.471C110.689 108.326 110.348 108.252 110.003 108.252H109.973C109.628 108.252 109.288 108.326 108.975 108.471L97.8613 92.751Z" fill="#EDF0F4"/>
<path d="M90.6813 111.295H107.575C107.663 111.794 107.904 112.254 108.266 112.609L97.1882 128.271C96.8798 128.138 96.5351 128.115 96.2115 128.206L90.0332 112.004C90.3174 111.841 90.5438 111.593 90.6813 111.295Z" fill="#EDF0F4"/>
<path d="M108.979 113.09C109.293 113.23 109.633 113.305 109.977 113.309H110.008C110.352 113.305 110.691 113.23 111.006 113.09L122.124 128.788C121.974 128.992 121.877 129.229 121.843 129.48H98.128C98.0941 129.229 97.9976 128.992 97.8477 128.788L108.979 113.09Z" fill="#EDF0F4"/>
<path d="M111.713 112.609C112.075 112.254 112.317 111.794 112.405 111.295H129.224C129.346 111.635 129.583 111.923 129.894 112.109L123.763 128.21C123.439 128.117 123.092 128.141 122.783 128.276L111.713 112.609Z" fill="#EDF0F4"/>
<path d="M129.225 110.261L112.389 110.24C112.302 109.74 112.06 109.28 111.697 108.926L122.771 93.2588C123.089 93.393 123.442 93.4146 123.774 93.32L129.904 109.421C129.584 109.61 129.342 109.908 129.225 110.261Z" fill="#EDF0F4"/>
<path d="M123.383 90.2901C123.194 90.2897 123.007 90.3255 122.831 90.3951L115.199 77.9156H131.028C131.114 78.4128 131.351 78.8715 131.707 79.2292L123.825 90.3513C123.683 90.3092 123.536 90.2899 123.387 90.2943L123.383 90.2901Z" fill="#EDF0F4"/>
<path d="M122.424 90.6315C122.118 90.8697 121.914 91.2158 121.855 91.5993H98.122C98.0626 91.2158 97.8589 90.8697 97.5527 90.6315L105.351 77.9331H114.621L122.424 90.6315Z" fill="#EDF0F4"/>
<path d="M97.1625 90.3994C96.8453 90.2713 96.493 90.2603 96.1685 90.3688L88.3086 79.2467C88.6659 78.8899 88.903 78.4309 88.9873 77.9331H104.817L97.1625 90.3994Z" fill="#EDF0F4"/>
<path d="M95.7998 93.1711L89.6214 109.412C89.5153 109.387 89.4064 109.375 89.2973 109.377C89.013 109.377 88.7339 109.456 88.4917 109.605L78.9766 97.4536L79.918 95.1066L95.1343 92.3306C95.2459 92.6776 95.4751 92.9748 95.7824 93.1711H95.7998Z" fill="#EDF0F4"/>
<path d="M89.2804 112.184C89.395 112.182 89.5093 112.17 89.6219 112.149L95.8046 128.39C95.4935 128.582 95.2607 128.878 95.1479 129.226L79.9317 126.45L78.9902 124.103L88.4834 111.952C88.7241 112.098 88.999 112.178 89.2804 112.184Z" fill="#EDF0F4"/>
<path d="M96.1475 131.196C96.4725 131.301 96.8234 131.29 97.1415 131.166L104.774 143.636H88.9443C88.862 143.138 88.6246 142.678 88.2656 142.323L96.1475 131.196Z" fill="#EDF0F4"/>
<path d="M97.5527 130.929C97.8573 130.69 98.0606 130.344 98.122 129.962H121.855C121.916 130.344 122.119 130.69 122.424 130.929L114.625 143.628H105.347L97.5527 130.929Z" fill="#EDF0F4"/>
<path d="M122.839 131.166C123.157 131.29 123.508 131.301 123.833 131.196L131.715 142.318C131.358 142.675 131.12 143.134 131.036 143.632H115.207L122.839 131.166Z" fill="#EDF0F4"/>
<path d="M124.211 128.394L130.341 112.289C130.772 112.395 131.228 112.307 131.589 112.048L141.03 124.107L140.084 126.45L124.854 129.226C124.741 128.877 124.507 128.58 124.193 128.39L124.211 128.394Z" fill="#EDF0F4"/>
<path d="M130.7 109.233C130.58 109.232 130.461 109.247 130.345 109.276L124.215 93.1713C124.525 92.9781 124.758 92.6822 124.872 92.335L140.088 95.1112L141.029 97.458L131.576 109.522C131.314 109.333 131 109.232 130.678 109.233H130.7Z" fill="#EDF0F4"/>
<path d="M141.806 96.4729L141.609 96.7224L141.031 95.2861L141.36 95.3476V95.387C141.361 95.7905 141.517 96.1781 141.797 96.4685L141.806 96.4729Z" fill="#EDF0F4"/>
<path d="M141.805 97.2304L142.177 96.7532C142.383 96.8604 142.61 96.9217 142.842 96.9327L143.197 100.703L141.805 97.2304Z" fill="#EDF0F4"/>
<path d="M139.871 94.555L124.952 91.8532C124.951 91.4685 124.806 91.0982 124.545 90.8155L132.392 79.7108C132.882 79.9513 133.439 80.0177 133.972 79.8991L139.871 94.555Z" fill="#EDF0F4"/>
<path d="M114.143 77.1187H105.867L109.488 71.2205C109.818 71.3616 110.192 71.3616 110.522 71.2205L114.143 77.1187Z" fill="#EDF0F4"/>
<path d="M86.0344 79.8992C86.5674 80.02 87.1255 79.9535 87.6151 79.7109L95.4618 90.8156C95.2011 91.0983 95.0557 91.4687 95.0546 91.8533L80.123 94.5551L86.0344 79.8992Z" fill="#EDF0F4"/>
<path d="M78.6282 95.3429L78.9566 95.2817L78.3785 96.7179L78.1816 96.4684C78.4653 96.1767 78.6227 95.7849 78.6194 95.3779C78.624 95.3667 78.627 95.355 78.6282 95.3429Z" fill="#EDF0F4"/>
<path d="M77.7976 96.7441L78.1742 97.2215L76.7773 100.685L77.1319 96.915C77.3636 96.9071 77.5908 96.8488 77.7976 96.7441Z" fill="#EDF0F4"/>
<path d="M78.7528 97.9617L88.1189 109.881C88.0179 109.992 87.9339 110.117 87.8692 110.253H76.8962C76.7489 109.813 76.4109 109.464 75.9766 109.303L76.5196 103.514L78.7528 97.9617Z" fill="#EDF0F4"/>
<path d="M76.1252 102.297L73.7038 108.317C73.2522 108.192 72.7726 108.211 72.3332 108.374L69.7891 103.947L76.1953 96.6655C76.3308 96.7522 76.4783 96.8186 76.6331 96.8624L76.1252 102.297Z" fill="#EDF0F4"/>
<path d="M75.4773 109.233H75.4159C75.304 109.229 75.192 109.241 75.0831 109.268C74.9141 109.024 74.702 108.813 74.457 108.646L75.8626 105.143L75.4773 109.233Z" fill="#EDF0F4"/>
<path d="M75.8568 116.414L74.4512 112.911C74.6957 112.742 74.909 112.531 75.0818 112.289C75.1913 112.312 75.3028 112.323 75.4146 112.324H75.4758L75.8568 116.414Z" fill="#EDF0F4"/>
<path d="M71.6108 108.768C71.1249 109.144 70.7995 109.69 70.7 110.296H64.7141C64.6747 110.159 64.6157 110.028 64.5391 109.907L69.2373 104.565L71.6108 108.768Z" fill="#EDF0F4"/>
<path d="M64.1853 109.574C63.999 109.42 63.7781 109.313 63.5416 109.263L63.1562 93.9768L68.9714 104.153L64.1853 109.574Z" fill="#EDF0F4"/>
<path d="M63.5416 112.298C63.7768 112.244 63.9968 112.137 64.1853 111.987L68.9714 117.403L63.1562 127.584L63.5416 112.298Z" fill="#EDF0F4"/>
<path d="M64.5254 111.623C64.6006 111.501 64.6596 111.371 64.7007 111.233L70.6951 111.26C70.7967 111.865 71.1217 112.411 71.6059 112.788L69.2239 116.965L64.5254 111.623Z" fill="#EDF0F4"/>
<path d="M72.3415 113.182C72.7816 113.341 73.26 113.361 73.7119 113.239L76.1421 119.264L76.6502 124.698C76.494 124.738 76.3458 124.805 76.2122 124.895L69.8105 117.613L72.3415 113.182Z" fill="#EDF0F4"/>
<path d="M76.504 117.999L75.9609 112.21C76.3936 112.046 76.7308 111.698 76.8805 111.26H87.8668C87.9337 111.394 88.0177 111.519 88.1165 111.632L78.7678 123.599L76.504 117.999Z" fill="#EDF0F4"/>
<path d="M78.1816 125.075L78.3787 124.825L78.9568 126.262L78.6282 126.2V126.161C78.6262 125.761 78.4693 125.378 78.1904 125.092L78.1816 125.075Z" fill="#EDF0F4"/>
<path d="M78.1784 124.317L77.7976 124.795C77.5921 124.685 77.3646 124.624 77.1319 124.615L76.7773 120.845L78.1784 124.317Z" fill="#EDF0F4"/>
<path d="M80.123 126.971L95.0458 129.664C95.0488 130.048 95.1938 130.418 95.4532 130.702L87.5975 141.846C87.1086 141.601 86.5496 141.534 86.0168 141.657L80.123 126.971Z" fill="#EDF0F4"/>
<path d="M105.846 144.425H114.139L110.518 150.323C110.189 150.179 109.814 150.179 109.485 150.323L105.846 144.425Z" fill="#EDF0F4"/>
<path d="M133.959 141.644C133.426 141.521 132.867 141.588 132.378 141.832L124.531 130.728C124.791 130.444 124.936 130.075 124.939 129.69L139.857 126.989L133.959 141.644Z" fill="#EDF0F4"/>
<path d="M141.344 126.2L141.016 126.262L141.598 124.847L141.795 125.097C141.51 125.388 141.353 125.78 141.357 126.187C141.356 126.205 141.356 126.222 141.357 126.24L141.344 126.2Z" fill="#EDF0F4"/>
<path d="M142.169 124.795L141.797 124.317L143.194 120.845L142.839 124.615C142.602 124.625 142.37 124.693 142.165 124.812L142.169 124.795Z" fill="#EDF0F4"/>
<path d="M141.214 123.577L131.9 111.711C132.002 111.578 132.082 111.431 132.137 111.273H142.965C143.128 111.751 143.514 112.119 143.999 112.258L143.478 118.008L141.214 123.577Z" fill="#EDF0F4"/>
<path d="M143.844 119.242L146.265 113.222C146.717 113.343 147.196 113.323 147.636 113.165L150.18 117.592L143.774 124.874C143.641 124.782 143.493 124.716 143.336 124.676L143.844 119.242Z" fill="#EDF0F4"/>
<path d="M148.363 112.771C148.848 112.393 149.173 111.848 149.274 111.242L155.33 111.216L155.479 111.571L150.754 116.965L148.363 112.771Z" fill="#EDF0F4"/>
<path d="M155.807 111.917C155.983 112.068 156.189 112.181 156.412 112.245L156.797 127.571L150.986 117.403L155.807 111.917Z" fill="#EDF0F4"/>
<path d="M156.413 109.289C156.189 109.35 155.982 109.463 155.809 109.618L150.992 104.149L156.807 93.9725L156.413 109.289Z" fill="#EDF0F4"/>
<path d="M156.18 87.6016L150.549 83.9233L155.444 85.6441L155.471 85.6967L156.272 87.5095C156.246 87.5489 156.211 87.5752 156.184 87.6102L156.18 87.6016Z" fill="#EDF0F4"/>
<path d="M155.888 88.0656C155.77 88.3576 155.747 88.6794 155.822 88.9852L144.192 94.5198C143.872 94.0017 143.267 93.7324 142.668 93.8411L137.637 79.3914L148.435 83.1702L155.888 88.0656Z" fill="#EDF0F4"/>
<path d="M137.309 78.4323L136.434 75.8619C136.582 75.7802 136.718 75.677 136.836 75.5554L145.769 81.4362L137.309 78.4323Z" fill="#EDF0F4"/>
<path d="M136.135 73.0157C135.731 72.8842 135.289 72.937 134.927 73.1601L123.643 59.2358C123.773 59.0886 123.877 58.9195 123.949 58.7366L143.216 61.3988C143.234 61.7988 143.388 62.1805 143.654 62.4804L142.984 63.4262L136.135 73.0157Z" fill="#EDF0F4"/>
<path d="M143.308 60.8165L124.041 58.1279C124.042 57.4415 123.626 56.8233 122.99 56.5648L123.24 55.527L123.336 55.2249L140.413 59.214L143.33 60.7771L143.308 60.8165Z" fill="#EDF0F4"/>
<path d="M123.166 59.5905L134.489 73.5149C134.37 73.6533 134.276 73.8121 134.213 73.9835L130.032 73.2127L119.26 61.3901L121.309 59.4767C121.84 59.898 122.573 59.9535 123.161 59.6167L123.166 59.5905Z" fill="#EDF0F4"/>
<path d="M122.461 56.4596H122.365C121.849 56.4636 121.364 56.7062 121.051 57.1165L113.266 52.8866L122.772 55.111L122.461 56.4596Z" fill="#EDF0F4"/>
<path d="M118.913 60.9829L116.588 58.4255H120.708C120.745 58.658 120.83 58.8802 120.958 59.078L118.913 60.9829Z" fill="#EDF0F4"/>
<path d="M118.388 61.4778L110.865 68.5319C110.354 68.1205 109.625 68.1205 109.114 68.5319L101.578 61.4734L104.337 58.4082H115.634L118.388 61.4778Z" fill="#EDF0F4"/>
<path d="M101.048 60.9827L99.0078 59.0868C99.1354 58.8888 99.2203 58.6668 99.2575 58.4343H103.369L101.048 60.9827Z" fill="#EDF0F4"/>
<path d="M97.595 59.8311C97.9701 59.8278 98.3336 59.7001 98.6284 59.4678L100.678 61.3812L89.9058 73.204L85.733 73.9746C85.6715 73.8024 85.5778 73.6433 85.457 73.5062L96.7848 59.6034C97.0331 59.7461 97.3132 59.8244 97.5994 59.8311H97.595Z" fill="#EDF0F4"/>
<path d="M97.1816 55.1109L106.697 52.8865L98.9156 57.1031C98.6028 56.6928 98.1179 56.4505 97.602 56.4463H97.5014L97.1816 55.1109Z" fill="#EDF0F4"/>
<path d="M95.9013 58.1411L76.6348 60.8297V60.7684L79.551 59.2051L96.6282 55.2248L96.7026 55.5401L96.9523 56.5778C96.315 56.839 95.9007 57.4613 95.9057 58.1499L95.9013 58.1411Z" fill="#EDF0F4"/>
<path d="M76.7462 61.4207L96.0127 58.7583C96.0866 58.9405 96.1902 59.1092 96.3193 59.2575L85.0351 73.1776C84.673 72.9545 84.2312 72.9017 83.8266 73.0332L77.0176 63.4438L76.3477 62.4979C76.6025 62.1962 76.7448 61.8156 76.7506 61.4207H76.7462Z" fill="#EDF0F4"/>
<path d="M82.6585 78.4629L74.1855 81.458L83.1489 75.5862C83.2673 75.7075 83.403 75.8109 83.5517 75.8925L82.6585 78.4629Z" fill="#EDF0F4"/>
<path d="M82.3309 79.4001L77.2997 93.8501C76.7006 93.7425 76.0967 94.0114 75.7758 94.5288L64.1459 88.994C64.173 88.8792 64.1877 88.7617 64.1895 88.6436C64.1888 88.4487 64.1518 88.2557 64.0801 88.0744L71.524 83.192L82.3309 79.4001Z" fill="#EDF0F4"/>
<path d="M63.7873 87.6277L63.6953 87.5358L64.4967 85.723L64.5229 85.6704L69.4184 83.9495L63.7873 87.6277Z" fill="#EDF0F4"/>
<path d="M63.9461 89.4844L75.611 94.9578C75.5672 95.0997 75.545 95.2473 75.5454 95.3958C75.5465 95.7483 75.6686 96.0899 75.8914 96.3634L69.5508 103.527L63.1271 92.3525L63.0703 90.1631C63.4379 90.0467 63.7497 89.7988 63.9461 89.4668V89.4844Z" fill="#EDF0F4"/>
<path d="M62.9964 87.0802V87.159C62.8769 87.1242 62.7532 87.1066 62.6287 87.1066C62.4552 87.106 62.2831 87.1372 62.1207 87.1984V87.1678C62.1197 86.9504 62.0904 86.734 62.0332 86.5241L63.465 86.0205L62.9964 87.0802Z" fill="#EDF0F4"/>
<path d="M62.5583 91.3586L62.0547 90.4828L62.2342 90.1543C62.3302 90.1807 62.4285 90.1983 62.5277 90.2069L62.5583 91.3586Z" fill="#EDF0F4"/>
<path d="M55.9939 108.26C54.7665 108.266 53.7328 109.18 53.5768 110.397H52.3158C52.252 109.985 52.0498 109.606 51.7422 109.324L57.5352 98.7454L56.1427 108.243C56.0962 108.248 56.0492 108.248 56.0027 108.243L55.9939 108.26Z" fill="#EDF0F4"/>
<path d="M57.5187 122.824L51.7344 112.228C52.0404 111.944 52.2424 111.567 52.308 111.155H53.5692C53.7191 112.382 54.759 113.305 55.995 113.309H56.1307L57.5187 122.824Z" fill="#EDF0F4"/>
<path d="M58.7891 95.3124L59.6254 89.6199H59.6999C59.9996 89.6162 60.2962 89.5583 60.5756 89.4492L61.3112 90.7322L58.7891 95.3124Z" fill="#EDF0F4"/>
<path d="M57.7461 97.1997L51.2436 109.022C51.1866 108.996 51.1298 108.979 51.0684 108.957L51.5063 104.797L58.8626 89.4711L57.7461 97.1997Z" fill="#EDF0F4"/>
<path d="M51.2509 112.543L57.7534 124.366L58.8919 132.107L51.5355 116.781L51.0977 112.622C51.1407 112.591 51.1879 112.566 51.2377 112.547L51.2509 112.543Z" fill="#EDF0F4"/>
<path d="M58.7949 126.257L61.3172 130.842L60.5815 132.125C60.3034 132.012 60.006 131.953 59.7057 131.954H59.6313L58.7949 126.257Z" fill="#EDF0F4"/>
<path d="M62.572 130.198L62.5414 131.354C62.4416 131.358 62.3428 131.376 62.2478 131.407L62.0684 131.078L62.572 130.198Z" fill="#EDF0F4"/>
<path d="M62.1295 134.401V134.371C62.293 134.428 62.4644 134.459 62.6375 134.463C62.7621 134.458 62.8857 134.437 63.0052 134.401V134.48L63.4781 135.523L62.0332 135.019C62.0913 134.818 62.1236 134.611 62.1295 134.401Z" fill="#EDF0F4"/>
<path d="M63.0703 131.415L63.1271 129.226L69.5508 118.051L75.8738 125.206C75.5612 125.598 75.4627 126.12 75.611 126.599L63.9591 132.103C63.7611 131.778 63.4487 131.539 63.0833 131.433L63.0703 131.415Z" fill="#EDF0F4"/>
<path d="M63.7844 133.964L69.4155 137.642L64.5287 135.921L64.5025 135.869L63.7012 134.043C63.7318 134.012 63.7844 133.964 63.7844 133.964Z" fill="#EDF0F4"/>
<path d="M64.0742 133.5C64.145 133.318 64.182 133.125 64.1837 132.93C64.1824 132.812 64.1677 132.695 64.1399 132.58L75.7786 127.037C76.102 127.551 76.7039 127.819 77.3025 127.715L82.3337 142.165L71.5399 138.378L64.0742 133.5Z" fill="#EDF0F4"/>
<path d="M82.6575 143.133L83.5333 145.703C83.3828 145.782 83.2465 145.886 83.1305 146.01L74.1934 140.094L82.6575 143.133Z" fill="#EDF0F4"/>
<path d="M83.8386 148.558C84.2436 148.685 84.6836 148.632 85.0472 148.414L96.3313 162.338C96.2004 162.485 96.0967 162.654 96.0248 162.837L76.7583 160.175C76.7442 159.774 76.5891 159.391 76.3203 159.093L76.999 158.126L83.8386 148.558Z" fill="#EDF0F4"/>
<path d="M76.6641 160.718L95.9306 163.407C95.9324 164.092 96.3473 164.709 96.9816 164.97L96.7319 166.008L96.6575 166.323L79.5803 162.334L76.6641 160.753V160.718Z" fill="#EDF0F4"/>
<path d="M96.8058 161.948L85.4648 148.055C85.5838 147.916 85.6773 147.757 85.7406 147.586L89.9224 148.357L100.694 160.179L98.6449 162.067C98.1158 161.642 97.3797 161.586 96.7926 161.926L96.8058 161.948Z" fill="#EDF0F4"/>
<path d="M97.532 165.106H97.6282C98.1432 165.098 98.6265 164.856 98.9418 164.449L106.701 168.666L97.1816 166.446L97.532 165.106Z" fill="#EDF0F4"/>
<path d="M101.079 160.582L103.404 163.14H99.2573C99.2218 162.907 99.1367 162.684 99.0078 162.487L101.079 160.582Z" fill="#EDF0F4"/>
<path d="M101.6 160.088L109.127 153.029C109.64 153.436 110.365 153.436 110.878 153.029L118.405 160.088L115.647 163.153H104.35L101.6 160.088Z" fill="#EDF0F4"/>
<path d="M118.943 160.582L120.979 162.496C120.85 162.693 120.765 162.915 120.729 163.148H116.596L118.943 160.582Z" fill="#EDF0F4"/>
<path d="M122.391 161.73C122.015 161.729 121.65 161.857 121.358 162.093L119.309 160.18L130.08 148.357L134.262 147.586C134.327 147.757 134.42 147.915 134.538 148.055L123.219 161.966C122.963 161.81 122.669 161.728 122.369 161.73H122.391Z" fill="#EDF0F4"/>
<path d="M122.803 166.45L113.266 168.674L121.034 164.458C121.349 164.865 121.832 165.106 122.347 165.114H122.461L122.803 166.45Z" fill="#EDF0F4"/>
<path d="M124.085 163.42L143.351 160.731V160.792L140.413 162.356L123.336 166.345L123.261 166.03L123.012 164.992C123.65 164.731 124.066 164.109 124.063 163.42H124.085Z" fill="#EDF0F4"/>
<path d="M143.245 160.14L123.978 162.802C123.908 162.618 123.804 162.449 123.672 162.303L134.956 148.379C135.32 148.597 135.76 148.65 136.165 148.523L142.991 158.126L143.661 159.072C143.395 159.366 143.24 159.744 143.223 160.14H143.245Z" fill="#EDF0F4"/>
<path d="M137.329 143.098L145.784 140.094L136.821 145.962C136.705 145.837 136.568 145.734 136.418 145.655L137.329 143.098Z" fill="#EDF0F4"/>
<path d="M137.658 142.161L142.689 127.711C143.288 127.816 143.891 127.548 144.213 127.032L155.856 132.571C155.782 132.877 155.805 133.199 155.922 133.491L148.478 138.373L137.658 142.161Z" fill="#EDF0F4"/>
<path d="M156.18 133.964L156.272 134.056L155.471 135.869L155.444 135.921L150.549 137.642L156.18 133.964Z" fill="#EDF0F4"/>
<path d="M156.018 132.107L144.384 126.599C144.532 126.113 144.427 125.585 144.104 125.193L150.422 118.029L156.846 129.226L156.903 131.415C156.536 131.527 156.224 131.77 156.027 132.098L156.018 132.107Z" fill="#EDF0F4"/>
<path d="M156.972 134.511V134.401C157.092 134.432 157.216 134.45 157.34 134.454C157.513 134.45 157.684 134.419 157.848 134.362V134.393C157.852 134.605 157.883 134.815 157.94 135.019L156.508 135.523L156.972 134.511Z" fill="#EDF0F4"/>
<path d="M157.408 130.233L157.912 131.109L157.732 131.437C157.637 131.407 157.539 131.389 157.439 131.385L157.408 130.233Z" fill="#EDF0F4"/>
<path d="M161.184 126.292L160.348 131.984H160.273C159.973 131.984 159.676 132.042 159.398 132.155L158.662 130.872L161.184 126.292Z" fill="#EDF0F4"/>
<path d="M162.228 124.401L168.73 112.578C168.787 112.604 168.844 112.622 168.906 112.644L168.468 116.803L161.111 132.129L162.228 124.401Z" fill="#EDF0F4"/>
<path d="M168.735 109.005L162.233 97.1821L161.09 89.4449L168.446 104.77L168.884 108.93C168.846 108.973 168.792 109 168.735 109.005Z" fill="#EDF0F4"/>
<path d="M164.621 83.0563L164.665 83.0957L164.739 83.1832C164.402 83.643 164.287 84.2283 164.424 84.7815L162.283 85.7229C161.828 85.0724 161.084 84.685 160.29 84.6852C160.069 84.6848 159.848 84.7202 159.638 84.7903L149.926 66.9336L162.707 80.4071L164.621 83.0563Z" fill="#EDF0F4"/>
<path d="M155.368 71.8027L148.866 64.9719L147.684 62.7825L155.368 71.8027Z" fill="#EDF0F4"/>
<path d="M146.548 62.0862L147.083 63.1065L146.373 62.3622C146.438 62.2749 146.497 62.1827 146.548 62.0862Z" fill="#EDF0F4"/>
<path d="M148.105 65.0069L158.863 85.1492C158.608 85.3336 158.391 85.5655 158.224 85.8323L156.976 85.3945L156.1 85.0792L146.029 62.7825L148.105 65.0069Z" fill="#EDF0F4"/>
<path d="M144.956 63.1065C145.127 63.1032 145.297 63.0751 145.46 63.0234L155.036 84.7158H154.975L147.899 82.2155L137.105 75.1658C137.368 74.5851 137.246 73.903 136.799 73.4492L144.243 62.9402C144.466 63.0454 144.709 63.1021 144.956 63.1065Z" fill="#EDF0F4"/>
<path d="M143.876 60.0416C143.779 60.1175 143.691 60.2043 143.613 60.3L142.562 59.7351L143.876 60.0416Z" fill="#EDF0F4"/>
<path d="M142.485 59.0386L140.335 58.535L135.387 55.8684L142.485 59.0386Z" fill="#EDF0F4"/>
<path d="M124.071 52.1598C124.702 52.261 125.34 52.025 125.753 51.5381L127.942 52.5189L138.158 58.0055L123.484 54.5682L124.071 52.1598Z" fill="#EDF0F4"/>
<path d="M122.398 50.7234C122.512 51.126 122.749 51.4829 123.077 51.7436L123.2 51.8531H123.235C123.317 51.9041 123.402 51.9508 123.488 51.9932L122.928 54.4278L114.236 52.4047L112.156 51.8531V51.7875L122.398 50.7234Z" fill="#EDF0F4"/>
<path d="M116.615 50.5308L112.061 50.9249C112.018 50.7909 111.961 50.6617 111.891 50.5396L116.615 50.5308Z" fill="#EDF0F4"/>
<path d="M111.851 52.7816L120.779 57.5981C120.748 57.6802 120.726 57.7653 120.713 57.852H116.09L111.676 53.0355C111.739 52.9621 111.798 52.8846 111.851 52.8034V52.7816Z" fill="#EDF0F4"/>
<path d="M108.815 53.4733C109.529 53.938 110.449 53.938 111.162 53.4733L115.134 57.852H104.844L108.815 53.4733Z" fill="#EDF0F4"/>
<path d="M108.298 53.0354L103.884 57.852H99.2514C99.2387 57.7638 99.2167 57.6772 99.1855 57.5936L108.114 52.7771C108.167 52.8557 108.224 52.9318 108.285 53.0048L108.298 53.0354Z" fill="#EDF0F4"/>
<path d="M108.086 50.557C108.016 50.6792 107.959 50.8083 107.915 50.9423L103.361 50.5483L108.086 50.557Z" fill="#EDF0F4"/>
<path d="M96.7412 51.8707H96.7762L96.8989 51.7612C97.2263 51.5005 97.4636 51.1436 97.5776 50.741L107.811 51.8006V51.8663L105.731 52.4179L97.039 54.4366L96.4785 52.0019C96.5627 51.961 96.6444 51.9158 96.7238 51.8663L96.7412 51.8707Z" fill="#EDF0F4"/>
<path d="M94.2264 51.5466C94.6413 52.0304 95.2787 52.2629 95.9077 52.1596L96.4858 54.5679L81.8125 57.9966L92.0282 52.5188L94.2264 51.5466Z" fill="#EDF0F4"/>
<path d="M84.5877 55.8511L79.6441 58.5133L77.4941 59.0169L84.5877 55.8511Z" fill="#EDF0F4"/>
<path d="M77.4192 59.7043L76.3682 60.2692C76.2908 60.1733 76.2026 60.0868 76.1055 60.0109L77.4192 59.7043Z" fill="#EDF0F4"/>
<path d="M75.0222 63.1065C75.2718 63.1035 75.5178 63.0483 75.7448 62.9446L83.1886 73.4536C82.7415 73.9074 82.6198 74.5895 82.8821 75.17L72.0709 82.2067L64.9948 84.707H64.9336L74.5142 63.0276C74.6772 63.0795 74.8468 63.1076 75.0178 63.1109L75.0222 63.1065Z" fill="#EDF0F4"/>
<path d="M73.4439 62.0818C73.4901 62.181 73.5444 62.2762 73.6058 62.3666L72.8965 63.1065L73.4439 62.0818Z" fill="#EDF0F4"/>
<path d="M73.9573 62.8002L63.8861 85.0968L63.0103 85.4121L61.7623 85.8499C61.5953 85.5832 61.3782 85.3511 61.123 85.1668L71.8818 65.0246L73.9573 62.8002Z" fill="#EDF0F4"/>
<path d="M72.2746 62.8L71.0923 64.9894L64.5898 71.8158L72.2746 62.8Z" fill="#EDF0F4"/>
<path d="M55.194 83.0299L55.2378 82.9905L57.2389 80.4115L70.0206 66.9336L60.3129 84.8033C60.1024 84.7334 59.8822 84.6979 59.6604 84.6982C58.8622 84.6938 58.1125 85.0818 57.6549 85.7361L55.4655 84.7202C55.4996 84.5765 55.5187 84.4298 55.5226 84.2822C55.5226 83.8701 55.3924 83.4686 55.1504 83.1351L55.194 83.0299Z" fill="#EDF0F4"/>
<path d="M53.7177 86.2353C54.3443 86.1856 54.9107 85.8431 55.2458 85.3113L57.4089 86.3491C57.0492 87.3349 57.3785 88.44 58.2191 89.0683L51.7559 102.59L53.7177 86.2353Z" fill="#EDF0F4"/>
<path d="M52.2695 91.8313L50.9559 104.302L49.1211 108.151L52.2695 91.8313Z" fill="#EDF0F4"/>
<path d="M50.7066 106.456L50.4571 108.817C50.2738 108.815 50.0917 108.845 49.9185 108.904C49.8327 108.821 49.7405 108.745 49.6426 108.676L50.7066 106.456Z" fill="#EDF0F4"/>
<path d="M49.9169 112.613C50.0912 112.668 50.2727 112.698 50.4555 112.7L50.7052 115.061L49.6367 112.849C49.7324 112.783 49.8245 112.711 49.9126 112.635L49.9169 112.613Z" fill="#EDF0F4"/>
<path d="M49.0996 113.37L50.9342 117.219L52.248 129.69L49.0996 113.37Z" fill="#EDF0F4"/>
<path d="M53.7161 135.264L51.75 118.962L58.1912 132.475C57.3506 133.103 57.0214 134.209 57.3811 135.194L55.2399 136.184C54.9063 135.655 54.3398 135.318 53.7161 135.278V135.264Z" fill="#EDF0F4"/>
<path d="M55.2901 138.518L55.2463 138.479L55.1719 138.391C55.4128 138.057 55.5429 137.656 55.544 137.244C55.5409 137.096 55.5217 136.949 55.4872 136.806L57.6766 135.834C58.1338 136.481 58.8761 136.868 59.6689 136.871C59.8903 136.868 60.11 136.832 60.3213 136.766L70.029 154.636L57.2474 141.176L55.2901 138.518Z" fill="#EDF0F4"/>
<path d="M64.6035 149.745L71.106 156.576L72.2881 158.765L64.6035 149.745Z" fill="#EDF0F4"/>
<path d="M73.4224 159.483L72.875 158.454L73.5845 159.199C73.5203 159.284 73.4659 159.377 73.4224 159.475V159.483Z" fill="#EDF0F4"/>
<path d="M71.8603 156.563L61.1016 136.42C61.3547 136.234 61.5714 136.002 61.7408 135.737L62.9888 136.175L63.8646 136.49L73.9358 158.787L71.8603 156.563Z" fill="#EDF0F4"/>
<path d="M75.0063 158.459C74.8349 158.458 74.6646 158.486 74.5027 158.542L64.9395 136.849H65.0007L72.0768 139.35L82.8706 146.4C82.6082 146.98 82.7299 147.662 83.1771 148.116L75.7332 158.625C75.511 158.515 75.2674 158.455 75.0193 158.45L75.0063 158.459Z" fill="#EDF0F4"/>
<path d="M76.084 161.55C76.179 161.472 76.2669 161.385 76.3467 161.292L77.3976 161.857L76.084 161.55Z" fill="#EDF0F4"/>
<path d="M77.4727 162.553L79.6226 163.056L84.5706 165.723L77.4727 162.553Z" fill="#EDF0F4"/>
<path d="M95.8859 169.41C95.2549 169.305 94.6156 169.542 94.2045 170.032L92.015 169.051L81.8125 163.564L96.4858 167.002L95.8859 169.41Z" fill="#EDF0F4"/>
<path d="M97.5629 170.846C97.4511 170.443 97.2133 170.085 96.8842 169.826L96.7616 169.717H96.7266C96.6468 169.661 96.5618 169.614 96.4727 169.577L97.0331 167.142L105.725 169.178L107.805 169.73V169.795L97.5629 170.846Z" fill="#EDF0F4"/>
<path d="M103.348 171.039L107.902 170.645C107.946 170.778 108.003 170.908 108.072 171.03L103.348 171.039Z" fill="#EDF0F4"/>
<path d="M108.092 168.775L99.1641 163.958C99.1941 163.874 99.2161 163.788 99.2297 163.7H103.849L108.285 168.556C108.22 168.624 108.16 168.697 108.105 168.775H108.092Z" fill="#EDF0F4"/>
<path d="M111.127 168.075C110.415 167.606 109.492 167.606 108.78 168.075L104.809 163.696H115.099L111.127 168.075Z" fill="#EDF0F4"/>
<path d="M111.641 168.539L116.054 163.691H120.709C120.723 163.779 120.745 163.866 120.775 163.949L111.846 168.766C111.8 168.693 111.749 168.622 111.693 168.556L111.641 168.539Z" fill="#EDF0F4"/>
<path d="M111.855 171.017C111.925 170.894 111.982 170.765 112.026 170.632L116.58 171.026L111.855 171.017Z" fill="#EDF0F4"/>
<path d="M123.204 169.703H123.169L123.047 169.813C122.717 170.072 122.48 170.429 122.368 170.833L112.135 169.773V169.708L114.215 169.156L122.902 167.12L123.463 169.554C123.379 169.595 123.298 169.642 123.222 169.694L123.204 169.703Z" fill="#EDF0F4"/>
<path d="M125.722 170.027C125.311 169.537 124.672 169.301 124.041 169.406L123.463 166.997L138.136 163.56L127.938 169.038L125.722 170.027Z" fill="#EDF0F4"/>
<path d="M135.352 165.723L140.3 163.056L142.449 162.553L135.352 165.723Z" fill="#EDF0F4"/>
<path d="M142.527 161.852L143.578 161.287C143.658 161.381 143.746 161.467 143.841 161.546L142.527 161.852Z" fill="#EDF0F4"/>
<path d="M144.922 158.454C144.672 158.453 144.425 158.508 144.2 158.616L136.756 148.107C137.203 147.653 137.325 146.971 137.062 146.391L147.86 139.341L154.954 136.854H155.015L145.452 158.533C145.289 158.479 145.12 158.451 144.948 158.45L144.922 158.454Z" fill="#EDF0F4"/>
<path d="M146.5 159.479C146.456 159.379 146.401 159.284 146.338 159.194L147.047 158.45L146.5 159.479Z" fill="#EDF0F4"/>
<path d="M145.965 158.765L156.036 136.468L156.912 136.153L158.16 135.715C158.329 135.98 158.546 136.212 158.799 136.398L148.04 156.541L145.965 158.765Z" fill="#EDF0F4"/>
<path d="M147.641 158.765L148.823 156.576L155.325 149.745L147.641 158.765Z" fill="#EDF0F4"/>
<path d="M164.625 138.588L164.581 138.627L162.659 141.154L149.926 154.623L159.633 136.753C159.845 136.819 160.064 136.854 160.286 136.858C161.079 136.855 161.821 136.468 162.278 135.821L164.424 136.893C164.288 137.446 164.403 138.032 164.739 138.492L164.625 138.588Z" fill="#EDF0F4"/>
<path d="M166.165 135.383C165.537 135.428 164.969 135.772 164.636 136.306L162.552 135.216C162.912 134.23 162.583 133.125 161.742 132.497L168.183 118.979L166.165 135.383Z" fill="#EDF0F4"/>
<path d="M167.672 129.73L168.985 117.259L170.82 113.41L167.672 129.73Z" fill="#EDF0F4"/>
<path d="M169.482 112.731C169.665 112.728 169.846 112.699 170.021 112.644C170.109 112.724 170.201 112.8 170.296 112.871L169.232 115.096L169.482 112.731Z" fill="#EDF0F4"/>
<path d="M169.232 106.483L170.296 108.707C170.199 108.776 170.106 108.852 170.021 108.935C169.847 108.875 169.665 108.846 169.482 108.847L169.232 106.483Z" fill="#EDF0F4"/>
<path d="M168.999 104.315L167.686 91.8444L170.851 108.164L168.999 104.315Z" fill="#EDF0F4"/>
</g>
<defs>
<clipPath id="clip0_4_5627">
<rect width="220" height="220" fill="white" transform="translate(0 0.5)"/>
</clipPath>
</defs>
</svg>
