<svg width="220" height="221" viewBox="0 0 220 221" fill="none" xmlns="http://www.w3.org/2000/svg">
<g clip-path="url(#clip0_4_5820)">
<path d="M110 220.5C170.751 220.5 220 171.251 220 110.5C220 49.7487 170.751 0.5 110 0.5C49.2487 0.5 0 49.7487 0 110.5C0 171.251 49.2487 220.5 110 220.5Z" fill="#EDF0F4"/>
<path fill-rule="evenodd" clip-rule="evenodd" d="M81.2622 139.275L136.106 99.1637L111.815 64.6667L94.0266 93.6151L66.16 139.275H81.2622ZM56.834 83.3191L80.149 100.507L61.1207 134.612L56.834 83.3191ZM159.419 157.928H61.4993V148.602H159.419V157.928ZM94.1383 139.275H159.408L164.084 83.3191L94.1383 139.275Z" fill="#3067F0"/>
</g>
<defs>
<clipPath id="clip0_4_5820">
<rect width="220" height="220" fill="white" transform="translate(0 0.5)"/>
</clipPath>
</defs>
</svg>
