<svg width="220" height="221" viewBox="0 0 220 221" fill="none" xmlns="http://www.w3.org/2000/svg">
<g clip-path="url(#clip0_4_5823)">
<path d="M110 220.5C170.751 220.5 220 171.251 220 110.5C220 49.7487 170.751 0.5 110 0.5C49.2487 0.5 0 49.7487 0 110.5C0 171.251 49.2487 220.5 110 220.5Z" fill="#FFE600"/>
<path d="M110 193C155.563 193 192.5 156.063 192.5 110.5C192.5 64.9365 155.563 28 110 28C64.4365 28 27.5 64.9365 27.5 110.5C27.5 156.063 64.4365 193 110 193Z" fill="#FFE600"/>
<path d="M48.125 55.5C52.2185 50.8809 56.817 46.7303 61.8354 43.125L84.8688 125.031L95.0765 81.6134H114.426L124.629 125.031L136.72 81.6134H156.116L156.297 82.3853L177.375 158.096C173.555 163.353 169.127 168.146 164.182 172.375L146.4 108.519L136.259 144.939L136.078 145.711H114.421L104.751 110.042L95.0765 145.711H73.4193L73.2382 144.939L48.125 55.5Z" fill="white"/>
</g>
<defs>
<clipPath id="clip0_4_5823">
<rect width="220" height="220" fill="white" transform="translate(0 0.5)"/>
</clipPath>
</defs>
</svg>
