<svg width="220" height="221" viewBox="0 0 220 221" fill="none" xmlns="http://www.w3.org/2000/svg">
<g clip-path="url(#clip0_4_5827)">
<path d="M110 220.5C170.751 220.5 220 171.251 220 110.5C220 49.7487 170.751 0.5 110 0.5C49.2487 0.5 0 49.7487 0 110.5C0 171.251 49.2487 220.5 110 220.5Z" fill="#EDF0F4"/>
<path d="M134.514 100.128V108.3H157.142C156.828 106.1 156.828 102.328 155.885 100.128H134.514Z" fill="#40506B"/>
<path d="M157.146 113.643H130.432V121.814H155.889C156.832 119.3 156.832 115.843 157.146 113.643Z" fill="#40506B"/>
<path d="M62.23 121.5H87.6871V113.328H60.9727C61.2871 115.843 61.2871 119.3 62.23 121.5Z" fill="#40506B"/>
<path d="M62.23 100.128C61.9155 102.328 61.2871 105.786 60.9727 108.3H83.6013V100.128H62.23Z" fill="#40506B"/>
<path d="M108.739 109.557C107.482 114.271 105.91 118.986 104.653 123.7C103.396 128.414 101.825 133.129 100.253 137.843H89.253C87.9959 135.014 86.7388 132.186 85.4817 128.414C84.2246 124.957 82.653 120.871 81.3959 116.471C80.1388 112.386 78.5673 107.671 76.9959 102.643C75.4246 97.6142 74.1673 93.2142 72.9102 87.8714H87.6817C87.9959 90.0714 88.9388 92.5858 89.253 95.1C89.8817 97.9287 90.5102 100.443 91.1388 103.271C91.7673 106.1 92.3959 108.929 93.0246 111.757C93.653 114.586 94.5959 117.414 95.2246 119.929C96.1673 117.1 96.7959 114.271 97.7388 111.443C98.6817 108.614 99.3102 105.786 99.9388 102.957C100.567 100.129 101.196 97.3 101.825 94.7858C102.453 91.9571 103.082 89.7571 103.71 87.5571H114.082C114.396 89.7571 115.339 92.2714 115.967 94.7858C116.596 97.6142 117.225 100.129 117.853 102.957C118.482 105.786 119.11 108.614 120.053 111.443C120.682 114.271 121.625 117.1 122.567 119.929C123.196 117.1 124.139 114.586 124.767 111.757C125.396 108.929 126.339 106.1 126.967 103.271C127.596 100.443 128.225 97.6142 128.853 95.1C129.482 92.2714 130.11 90.0714 130.425 87.8714H145.196C143.939 92.9 142.367 97.6142 141.11 102.643C139.539 107.671 138.282 112.071 136.71 116.471C135.453 120.557 133.882 124.643 132.625 128.414C131.367 131.871 130.11 135.329 128.853 137.843H117.853C116.282 133.129 114.71 128.414 113.139 123.7C111.567 118.986 110.31 114.586 108.739 109.557Z" fill="#40506B"/>
<path fill-rule="evenodd" clip-rule="evenodd" d="M44 110.5C44 146.957 73.5429 176.5 110 176.5C146.457 176.5 176 146.957 176 110.5C176 74.0429 146.457 44.5 110 44.5C73.5429 44.5 44 74.0429 44 110.5ZM53.4287 110.5C53.4287 79.3858 78.8858 53.9287 110 53.9287C141.114 53.9287 166.571 79.3858 166.571 110.5C166.571 141.614 141.114 167.071 110 167.071C78.8858 167.071 53.4287 141.614 53.4287 110.5Z" fill="#40506B"/>
</g>
<defs>
<clipPath id="clip0_4_5827">
<rect width="220" height="220" fill="white" transform="translate(0 0.5)"/>
</clipPath>
</defs>
</svg>
