<svg width="220" height="221" viewBox="0 0 220 221" fill="none" xmlns="http://www.w3.org/2000/svg">
<g clip-path="url(#clip0_4_5835)">
<path d="M110 220.5C170.751 220.5 220 171.251 220 110.5C220 49.7487 170.751 0.5 110 0.5C49.2487 0.5 0 49.7487 0 110.5C0 171.251 49.2487 220.5 110 220.5Z" fill="#EDF0F4"/>
<path fill-rule="evenodd" clip-rule="evenodd" d="M62.1937 61H36.666L68.7933 116.645L81.5572 94.5678L62.1937 61ZM132.579 94.5344L119.815 116.645L107.051 138.756L94.3211 160.833L81.5572 138.756L94.3211 116.645L107.085 94.5678L87.7212 61H113.215L119.849 72.4572L132.579 94.5344ZM163.936 61L170.569 72.4572L183.333 94.5678L170.569 116.645L157.805 138.756L145.041 160.833L132.277 138.756L145.041 116.645L157.805 94.5344L138.442 61H163.936Z" fill="black"/>
</g>
<defs>
<clipPath id="clip0_4_5835">
<rect width="220" height="220" fill="white" transform="translate(0 0.5)"/>
</clipPath>
</defs>
</svg>
