<svg width="220" height="221" viewBox="0 0 220 221" fill="none" xmlns="http://www.w3.org/2000/svg">
<g clip-path="url(#clip0_4_5838)">
<path d="M110 220.5C170.751 220.5 220 171.251 220 110.5C220 49.7487 170.751 0.5 110 0.5C49.2487 0.5 0 49.7487 0 110.5C0 171.251 49.2487 220.5 110 220.5Z" fill="#0DC9F7"/>
<path d="M130.878 108.98L109.943 125.168L101.37 95.5515L51.7051 82.3013L116.887 85.6361L130.878 108.98Z" fill="white" fill-opacity="0.305"/>
<path d="M57.7715 165.5L169.944 78.7881L179.665 100.331L166.912 96.818L166.465 119.169L57.7715 165.5Z" fill="white" fill-opacity="0.7"/>
<path d="M157.639 122.956L125.003 67.0719L42.166 62.8333L105.299 79.6853L122.418 137.822L157.639 122.956Z" fill="white"/>
</g>
<defs>
<clipPath id="clip0_4_5838">
<rect width="220" height="220" fill="white" transform="translate(0 0.5)"/>
</clipPath>
</defs>
</svg>
