<svg width="220" height="221" viewBox="0 0 220 221" fill="none" xmlns="http://www.w3.org/2000/svg">
<g clip-path="url(#clip0_4_5843)">
<path opacity="0.98" d="M110 220.5C170.751 220.5 220 171.251 220 110.5C220 49.7487 170.751 0.5 110 0.5C49.2487 0.5 0 49.7487 0 110.5C0 171.251 49.2487 220.5 110 220.5Z" fill="#0A142E"/>
<path fill-rule="evenodd" clip-rule="evenodd" d="M153.947 50.0004C155.349 50.0006 156.485 51.1292 156.485 52.5216C156.484 53.4223 156 54.2543 155.214 54.7038L155.216 54.7076L146.671 59.3636L155.216 64.0195L155.214 64.0234C155.999 64.4729 156.484 65.3049 156.485 66.2056C156.485 67.598 155.349 68.727 153.947 68.7271C153.502 68.7262 153.064 68.6087 152.679 68.3867L152.677 68.3889C152.677 68.3889 145.742 64.4364 142.798 62.8207C140.385 61.4963 140.209 59.9024 140.223 59.3639C140.209 58.8255 140.385 57.2316 142.798 55.9072C145.742 54.2915 152.677 50.339 152.677 50.339L152.679 50.341C153.064 50.1188 153.502 50.0013 153.947 50.0004ZM89.6718 53.8889C91.308 52.2631 93.5273 51.3497 95.8413 51.3499C100.66 51.3499 104.566 55.2312 104.566 60.0192C104.566 62.3185 103.647 64.5237 102.011 66.1496C100.375 67.7754 98.1553 68.689 95.8413 68.689C93.5273 68.689 91.3078 67.7756 89.6716 66.1496C88.0353 64.5238 87.1161 62.3185 87.1161 60.0192C87.1161 57.7198 88.0353 55.5147 89.6718 53.8889ZM185.502 80.2498C183.292 80.2529 181.213 81.2943 179.895 83.0583L179.883 83.0493L166.024 102.412L166.049 102.42C165.159 103.606 164.673 105.043 164.662 106.522C164.673 108.001 165.159 109.438 166.049 110.624L166.024 110.632L179.883 129.995L179.895 129.986C181.213 131.75 183.292 132.791 185.502 132.795C187.357 132.795 189.137 132.062 190.448 130.759C191.761 129.455 192.498 127.687 192.498 125.844C192.494 124.412 192.047 123.015 191.214 121.846L191.222 121.84L180.25 106.522L191.222 91.2049L191.214 91.1987C192.047 90.0294 192.494 88.6329 192.498 87.2007C192.498 85.3573 191.761 83.5892 190.45 82.2857C189.137 80.9821 187.357 80.2498 185.502 80.2498ZM83.2227 146.99C83.2228 144.968 84.7957 143.329 86.7357 143.329C87.4765 143.331 88.1981 143.577 88.7971 144.031L89.1036 144.233C89.1036 144.233 104.365 154.896 123.424 154.57C142.483 154.896 157.744 144.233 157.744 144.233L158.051 144.031C158.65 143.577 159.371 143.332 160.112 143.329C162.052 143.329 163.625 144.968 163.625 146.99C163.624 148.386 162.862 149.66 161.66 150.275C141.31 162.957 123.424 161.806 123.424 161.806C123.424 161.806 105.538 162.957 85.1876 150.275C83.9857 149.66 83.2234 148.386 83.2227 146.99Z" fill="white"/>
</g>
<defs>
<clipPath id="clip0_4_5843">
<rect width="220" height="220" fill="white" transform="translate(0 0.5)"/>
</clipPath>
</defs>
</svg>
