<svg width="220" height="221" viewBox="0 0 220 221" fill="none" xmlns="http://www.w3.org/2000/svg">
<g clip-path="url(#clip0_4_5846)">
<path fill-rule="evenodd" clip-rule="evenodd" d="M110 220.5C49.5 220.5 0 171.001 0 109.952C0.55 49.4535 49.5 -0.0454497 110.55 0.504539C171.05 1.05453 220 50.0035 220 111.602C219.45 171.551 170.5 220.5 110 220.5Z" fill="#EDF0F4"/>
<path fill-rule="evenodd" clip-rule="evenodd" d="M40.335 63.0245C40.3744 63.1308 46.5528 83.4077 54.0647 108.084C62.9341 137.22 67.888 153.262 68.1936 153.839C69.1469 155.638 71.4633 157.356 73.5123 157.783C74.0432 157.894 76.9478 157.953 81.8299 157.953C90.1023 157.953 90.288 157.936 92.0735 156.986C93.1656 156.406 94.5645 155.087 95.1288 154.105C95.3478 153.724 98.7296 145.427 102.644 135.666C106.558 125.906 109.811 117.975 109.872 118.043C109.934 118.11 113.187 126.027 117.101 135.635C121.014 145.243 124.398 153.451 124.621 153.874C125.532 155.607 127.603 157.184 129.677 157.724C130.973 158.062 145.095 158.062 146.391 157.724C148.601 157.148 150.625 155.547 151.548 153.643C151.952 152.812 164.97 110.561 164.97 110.084C164.97 109.981 161.102 109.943 153.546 109.969L142.121 110.008L140.014 116.935L137.906 123.861L137.645 123.245C137.501 122.906 134.757 116.361 131.548 108.7C128.05 100.352 125.426 94.296 124.999 93.5867C122.979 90.2348 119.696 87.5035 116.042 86.1349C108.022 83.1312 98.9302 86.3965 94.6176 93.8298C94.3063 94.3666 91.2265 101.326 87.774 109.295C84.3213 117.264 81.4735 123.762 81.4455 123.734C81.4176 123.706 77.3187 110.009 72.3369 93.2965L63.279 62.9099L51.7712 62.8705C42.5854 62.8389 40.2782 62.8701 40.335 63.0245ZM151.127 80.3412C148.212 89.9704 145.797 97.9359 145.762 98.0422C145.709 98.1966 148.023 98.2276 157.217 98.1961L168.737 98.1566L174.24 80.5334C177.266 70.8405 179.743 62.8925 179.744 62.8714C179.745 62.8503 174.499 62.8331 168.086 62.8333L156.427 62.8334L151.127 80.3412Z" fill="black"/>
</g>
<defs>
<clipPath id="clip0_4_5846">
<rect width="220" height="220" fill="white" transform="translate(0 0.5)"/>
</clipPath>
</defs>
</svg>
