<svg width="220" height="221" viewBox="0 0 220 221" fill="none" xmlns="http://www.w3.org/2000/svg">
<g clip-path="url(#clip0_4_5862)">
<path d="M110 220.5C170.751 220.5 220 171.251 220 110.5C220 49.7487 170.751 0.5 110 0.5C49.2487 0.5 0 49.7487 0 110.5C0 171.251 49.2487 220.5 110 220.5Z" fill="#EDF0F4"/>
<path fill-rule="evenodd" clip-rule="evenodd" d="M109.999 70.3134L81.5156 98.7972L64.9433 82.2227L109.999 37.1667L155.07 82.2363L138.497 98.8097L109.999 70.3134ZM53.2399 93.9238L36.666 110.5L53.2388 127.07L69.8127 110.497L53.2399 93.9238ZM81.5156 122.205L109.999 150.687L138.496 122.191L155.078 138.756L155.07 138.765L109.999 183.833L64.9433 138.777L64.9199 138.754L81.5156 122.205ZM166.76 93.9332L150.186 110.507L166.759 127.08L183.333 110.506L166.76 93.9332Z" fill="#F3BA2F"/>
</g>
<defs>
<clipPath id="clip0_4_5862">
<rect width="220" height="220" fill="white" transform="translate(0 0.5)"/>
</clipPath>
</defs>
</svg>
