<svg width="220" height="221" viewBox="0 0 220 221" fill="none" xmlns="http://www.w3.org/2000/svg">
<g clip-path="url(#clip0_4_5865)">
<path d="M110.916 207.667C164.074 207.667 207.166 164.574 207.166 111.417C207.166 58.2592 164.074 15.1667 110.916 15.1667C57.7585 15.1667 14.666 58.2592 14.666 111.417C14.666 164.574 57.7585 207.667 110.916 207.667Z" fill="white"/>
<path fill-rule="evenodd" clip-rule="evenodd" d="M0 110.5C0 49.7457 49.2457 0.5 110 0.5C170.754 0.5 220 49.7457 220 110.5C220 171.254 170.754 220.5 110 220.5C49.2457 220.5 0 171.254 0 110.5Z" fill="#252C35"/>
<path fill-rule="evenodd" clip-rule="evenodd" d="M60.5513 124.822C68.103 124.822 74.1455 118.771 74.1455 111.202C74.1607 109.376 73.8101 107.565 73.1153 105.876C72.4205 104.189 71.3951 102.657 70.0995 101.372C68.8046 100.088 67.2655 99.0769 65.5733 98.399C63.8819 97.7204 62.0713 97.389 60.2495 97.4242C52.2454 97.5754 46.2095 103.632 46.3604 111.202C46.3604 119.074 52.5471 124.822 60.5583 124.822H60.5513ZM110.086 74.2688C113.704 74.2253 117.159 72.7556 119.704 70.1766C122.248 67.5979 123.676 64.1184 123.68 60.4909C123.68 52.9284 117.027 46.562 109.482 46.7133C101.629 47.0158 95.4354 53.224 95.7372 60.7934C95.8881 68.5143 102.232 74.42 110.086 74.2688ZM146.177 109.682C146.026 117.554 151.767 123.605 159.771 123.756C161.558 123.843 163.343 123.574 165.026 122.966C166.708 122.357 168.254 121.422 169.574 120.212C170.893 119.002 171.961 117.542 172.716 115.917C173.47 114.292 173.896 112.533 173.969 110.741C174.264 103.02 168.228 96.5097 160.676 96.3585C152.672 96.2072 146.328 101.962 146.177 109.682ZM110.84 174.467C118.392 174.467 124.434 168.417 124.585 160.991C124.736 153.58 118.543 147.221 111.142 147.069C103.138 146.918 96.6425 153.119 96.6425 160.847C96.6425 168.258 103.138 174.322 110.84 174.467ZM160.375 133.292C153.728 133.14 147.988 131.174 143.159 126.183C137.569 120.58 130.779 119.823 125.792 124.21C120.511 128.747 120.202 135.718 125.491 142.071C131.231 149.036 135.607 156.303 133.344 165.838C131.231 174.776 124.133 181.885 115.374 183.397C105.703 185.212 96.0389 181.28 91.0594 173.105C85.7781 164.628 86.0729 156 91.3612 147.523C92.1156 146.299 93.0416 145.185 93.9607 144.085C94.5162 143.425 95.0786 142.759 95.5863 142.071C100.422 136.021 100.271 129.208 94.8317 124.663C89.7013 120.277 82.8974 120.882 77.767 126.176C71.4294 132.989 63.5691 135.567 54.5156 133.443C45.0024 131.174 38.2055 123.611 36.8474 113.918C35.6334 104.842 40.6198 95.1484 48.6238 90.7622C52.8339 88.461 57.639 87.4903 62.4086 87.9757C67.179 88.4617 71.6914 90.382 75.3527 93.4847C75.8054 93.8627 76.258 94.3097 76.7107 94.7702C77.1635 95.224 77.6161 95.6777 78.0688 96.056C83.206 100.752 90.3048 100.752 94.9826 96.2072C99.5094 91.821 99.8182 85.0008 95.5863 79.707L94.3653 78.2493C91.1485 74.4131 88.0551 70.7211 86.9784 65.4824C84.715 54.7297 89.7013 43.9838 99.5162 39.4465C109.633 34.7508 121.561 37.4733 128.056 46.1015C131.305 50.278 133.018 55.4487 132.909 60.7434C132.799 66.0379 130.871 71.1323 127.452 75.1693C126.849 75.85 126.245 76.5651 125.642 77.2868C125.038 78.0018 124.434 78.7306 123.831 79.4045C119.75 84.8565 120.202 91.5185 124.887 95.9047C129.716 100.298 136.821 100.298 141.65 95.1485C146.78 89.8545 152.672 86.6715 160.224 86.6715C163.273 86.6632 166.293 87.2613 169.11 88.4315C171.926 89.6015 174.484 91.3204 176.633 93.4882C178.782 95.6559 180.481 98.2299 181.631 101.06C182.78 103.891 183.358 106.922 183.331 109.978C183.481 122.848 173.057 133.147 160.375 133.292ZM110.84 169.929C105.861 169.929 101.176 165.392 101.176 160.545C101.176 155.849 105.703 151.456 110.689 151.456C111.925 151.436 113.152 151.666 114.297 152.131C115.442 152.596 116.482 153.287 117.355 154.163C118.229 155.04 118.918 156.083 119.381 157.231C119.844 158.379 120.072 159.609 120.052 160.847C120.052 166.141 116.128 169.922 110.84 169.922V169.929ZM150.711 109.978C150.711 115.134 154.936 119.067 160.224 119.218C161.416 119.267 162.606 119.078 163.724 118.661C164.842 118.245 165.867 117.609 166.738 116.793C167.609 115.976 168.31 114.994 168.799 113.902C169.288 112.812 169.555 111.634 169.586 110.439C169.737 105.289 165.505 100.745 160.375 100.745C155.237 100.745 150.704 105.145 150.704 109.985L150.711 109.978ZM119.146 60.6354C119.146 65.7849 115.072 69.8686 110.086 70.0199C105.25 70.1711 100.271 65.4824 100.271 60.6354C100.271 55.6372 104.647 51.4022 109.935 51.4022C115.072 51.4022 119.146 55.4859 119.146 60.6354ZM69.6118 111.346C69.6764 110.103 69.4842 108.859 69.0481 107.693C68.6119 106.527 67.9411 105.464 67.0769 104.569C66.2126 103.674 65.1735 102.967 64.0253 102.493C62.8765 102.019 61.6425 101.786 60.4004 101.81C55.27 101.81 50.7364 106.197 50.7364 111.044C50.7364 115.733 55.8735 120.428 61.0039 120.428C65.6887 120.428 69.6118 116.338 69.6118 111.346Z" fill="white"/>
</g>
<defs>
<clipPath id="clip0_4_5865">
<rect width="220" height="220" fill="white" transform="translate(0 0.5)"/>
</clipPath>
</defs>
</svg>
