<svg width="220" height="221" viewBox="0 0 220 221" fill="none" xmlns="http://www.w3.org/2000/svg">
<g clip-path="url(#clip0_4_5849)">
<mask id="mask0_4_5849" style="mask-type:luminance" maskUnits="userSpaceOnUse" x="0" y="0" width="220" height="221">
<path d="M220 0.5H0V220.5H220V0.5Z" fill="white"/>
</mask>
<g mask="url(#mask0_4_5849)">
<path d="M110 220.5C170.751 220.5 220 171.251 220 110.5C220 49.7487 170.751 0.5 110 0.5C49.2487 0.5 0 49.7487 0 110.5C0 171.251 49.2487 220.5 110 220.5Z" fill="#EDF0F4"/>
<path d="M110 193C155.563 193 192.5 156.063 192.5 110.5C192.5 64.9365 155.563 28 110 28C64.4365 28 27.5 64.9365 27.5 110.5C27.5 156.063 64.4365 193 110 193Z" fill="white"/>
<path d="M161.309 62.4813L156.75 67.0364C179.299 91.6737 179.299 129.433 156.75 154.07L161.309 158.625C186.397 131.437 186.397 89.5628 161.309 62.375V62.4813Z" fill="#5A5564"/>
<path d="M66.5364 63.75C91.1737 41.2006 128.933 41.2006 153.57 63.75L158.125 59.1907C130.937 34.1032 89.0628 34.1032 61.875 59.1907L66.5364 63.75Z" fill="#5A5564"/>
<path d="M63.25 153.918C40.7282 129.287 40.7282 91.5608 63.25 66.9301L58.6906 62.375C33.6031 89.5628 33.6031 131.437 58.6906 158.625L63.25 153.918Z" fill="#5A5564"/>
<path d="M153.464 157.25C128.826 179.799 91.0674 179.799 66.4301 157.25L61.875 161.809C89.0628 186.897 130.937 186.897 158.125 161.809L153.464 157.25Z" fill="#5A5564"/>
<path fill-rule="evenodd" clip-rule="evenodd" d="M138.337 95.8922C137.441 86.4269 129.37 83.2515 119.162 82.2839V69.25H111.271V82.0419H104.963V69.25H97.1318V82.3745H81.125V90.9176C81.125 90.9176 86.9539 90.8118 86.8643 90.9176C89.0487 90.6745 91.031 92.2253 91.3478 94.4255V130.352C91.3026 131.106 90.9575 131.809 90.3914 132.302C89.8357 132.805 89.1017 133.056 88.3588 132.998C88.4633 133.089 82.6195 132.998 82.6195 132.998L81.125 142.539H96.9824V155.875H104.874V142.735H111.181V155.815H119.087V142.63C132.419 141.813 141.715 138.487 142.881 125.861C143.822 115.7 139.1 111.164 131.552 109.334C136.14 107.051 138.98 102.817 138.337 95.8922ZM127.278 124.288C127.278 133.394 113.12 133.185 106.659 133.09C106.083 133.081 105.566 133.073 105.128 133.073V115.473C105.676 115.475 106.344 115.46 107.101 115.443C113.743 115.294 127.278 114.991 127.278 124.288ZM106.486 107.477C111.9 107.574 123.616 107.784 123.616 99.4908C123.616 90.9876 112.265 91.2863 106.746 91.4315C106.131 91.4476 105.589 91.4619 105.143 91.4619V107.459C105.525 107.459 105.978 107.467 106.486 107.477Z" fill="#F09242"/>
<path fill-rule="evenodd" clip-rule="evenodd" d="M27.5 110.495C27.4973 156.054 64.4253 192.991 109.985 193C131.871 193.004 152.861 184.312 168.336 168.836C183.812 153.361 192.504 132.371 192.5 110.485C192.491 64.9253 155.554 27.9973 109.995 28C64.4354 28.0028 27.5028 64.9354 27.5 110.495ZM34.0239 110.485C34.0072 68.5112 68.0112 34.4667 109.985 34.4334C130.163 34.4172 149.519 42.4237 163.79 56.6887C178.061 70.9537 186.074 90.3071 186.067 110.485C186.05 152.459 152.019 186.477 110.045 186.477C68.0717 186.475 34.0406 152.459 34.0239 110.485Z" fill="#282138"/>
</g>
</g>
<defs>
<clipPath id="clip0_4_5849">
<rect width="220" height="220" fill="white" transform="translate(0 0.5)"/>
</clipPath>
</defs>
</svg>
