<svg width="220" height="221" viewBox="0 0 220 221" fill="none" xmlns="http://www.w3.org/2000/svg">
<g clip-path="url(#clip0_4_5875)">
<path d="M110 220.5C170.752 220.5 220 171.252 220 110.5C220 49.7487 170.752 0.5 110 0.5C49.2487 0.5 0 49.7487 0 110.5C0 171.252 49.2487 220.5 110 220.5Z" fill="#1F5B35"/>
<path fill-rule="evenodd" clip-rule="evenodd" d="M82.8991 20.1682C81.5758 21.2805 79.0753 23.5454 76.9909 26.7493C74.9074 29.9532 73.2403 34.0964 72.1427 36.2786C71.0451 38.4608 70.5169 38.6817 69.8226 38.8337C69.1281 38.9855 68.267 39.0682 66.976 38.1156C65.685 37.163 63.9655 35.1751 60.7005 35.5214C57.4361 35.8665 52.6267 38.5444 48.597 41.3063C44.5672 44.0681 41.3161 46.9123 38.5515 50.5172C35.7866 54.1222 33.5083 58.4865 31.0773 63.5342C28.6463 68.5821 26.0624 74.3129 24.3323 78.4086C22.6024 82.5035 21.7271 84.9617 22.0755 90.1546C22.4225 95.3486 23.9919 103.277 26.1669 109.45C28.3407 115.623 31.12 120.041 33.342 123.231C35.5653 126.42 37.2326 128.381 39.0939 129.086C40.9555 129.79 43.0112 129.238 46.2905 128.216C49.5698 127.194 54.0703 125.702 55.6825 125.827C57.2934 125.951 56.0162 127.692 53.5569 130.799C51.0977 133.907 47.4578 138.381 44.3595 142.441C41.2611 146.502 38.7053 150.148 37.6077 153.172C36.51 156.196 36.8708 158.599 40.2332 162.619C43.5955 166.638 49.9585 172.272 53.9736 176.111C57.9885 179.951 59.6561 181.994 62.1006 182.575C64.545 183.156 67.7687 182.271 73.5195 182.106C79.2716 181.941 87.5511 182.492 96.0813 184.535C104.611 186.58 113.392 190.116 122.178 194.307C130.966 198.498 139.76 203.345 144.191 205.729C148.624 208.11 148.693 208.028 149.075 206.922C149.457 205.819 150.152 203.69 151.27 200.28C152.389 196.868 153.93 192.173 156.392 181.89C158.853 171.605 162.235 155.731 164.888 145.664C167.542 135.596 169.468 131.334 170.584 128.864C171.7 126.396 172.005 125.719 171.623 124.254C171.241 122.791 170.172 120.539 169.748 118.806C169.325 117.073 169.547 115.858 171.846 114.96C174.145 114.062 178.521 113.483 180.939 112.403C183.357 111.322 183.819 109.743 182.881 107.243C181.942 104.744 179.607 101.325 176.64 96.6105C173.673 91.8966 170.075 85.8891 168.004 82.4197C165.934 78.9498 165.392 78.0173 165.386 76.2152C165.379 74.4125 165.907 71.74 164.712 67.6383C163.517 63.5366 160.6 58.0052 157.626 53.997C154.654 49.989 151.625 47.5032 150.43 44.8921C149.236 42.2822 149.874 39.5472 150.309 36.6024C150.742 33.6575 150.972 30.5016 150.906 28.3027C150.84 26.1038 150.479 24.8608 149.287 23.3688C148.096 21.8768 146.074 20.137 143.154 19.4568C140.233 18.7767 136.412 19.1564 132.376 21.1276C128.34 23.0986 124.089 26.6622 120.446 29.998C116.803 33.3337 113.769 36.4405 110.774 38.6293C107.781 40.8183 104.827 42.0892 102.969 41.9093C101.111 41.7295 100.346 40.1002 100.45 37.9392C100.555 35.7783 101.527 33.0846 102.613 30.0761C103.698 27.0676 104.897 23.7419 105.454 21.7261C106.012 19.7104 105.928 19.0024 105.663 18.8605C105.397 18.7186 104.949 19.1441 103.462 19.8666C101.976 20.5904 99.4504 21.6121 97.4016 22.6083C95.3523 23.6044 93.7781 24.575 92.6132 25.5365C91.4484 26.4979 90.6913 27.4505 89.7328 28.7282C88.7749 30.0057 87.6138 31.6071 87.0032 31.9534C86.3919 32.2984 86.3292 31.3873 86.0069 29.0432C85.6828 26.6991 85.0998 22.9209 84.7351 21.0124C84.3698 19.1028 84.2251 19.0616 82.9013 20.1739L82.8991 20.1682Z" fill="#1F5B35"/>
<path fill-rule="evenodd" clip-rule="evenodd" d="M169.078 127.935C167.534 129.434 164.672 131.816 163.068 133.203C161.466 134.591 161.122 134.985 160.633 138.694C160.144 142.404 159.511 149.429 158.816 153.691C158.121 157.954 157.367 159.453 156.612 160.953C155.069 159.427 153.525 157.903 152.425 156.42C151.323 154.938 150.663 153.499 150.663 153.905C150.663 154.312 151.323 156.565 151.982 158.819C151.982 158.819 151.982 158.819 150.628 157.662C149.274 156.506 146.565 154.192 144.47 151.07C142.374 147.948 140.892 144.015 140.052 141.843C139.211 139.672 139.014 139.26 138.229 139.18C137.445 139.098 136.073 139.346 135.178 139.441C134.282 139.535 133.862 139.476 132.817 138.76C131.771 138.044 130.1 136.675 129.105 135.706C128.111 134.738 127.793 134.172 127.391 134.858C126.988 135.544 126.499 137.48 126.422 139.279C126.345 141.078 126.679 142.741 127.014 144.402C126.002 143.837 124.991 143.271 123.855 141.687C122.719 140.102 121.459 137.498 120.579 134.572C119.701 131.647 119.205 128.399 118.8 126.69C118.397 124.981 118.089 124.809 117.702 125.897C117.316 126.985 116.855 129.333 116.562 131.371C116.27 133.41 116.151 135.141 116.03 136.871C115.242 134.494 114.454 132.116 114.094 129.546C113.733 126.976 113.802 124.213 113.203 121.058C112.603 117.903 111.336 114.354 109.948 111.596C108.559 108.837 107.049 106.867 106.158 104.589C105.265 102.311 104.992 99.7232 105.431 97.2907C105.871 94.8573 107.025 92.578 107.693 91.414C108.362 90.2487 108.545 90.1974 108.757 91.3537C108.97 92.5099 109.209 94.8742 109.432 96.5539C109.654 98.2325 109.861 99.2265 111.207 100.589C112.553 101.951 115.039 103.681 115.665 103.064C116.29 102.446 115.056 99.4827 114.131 97.4354C113.205 95.3875 112.587 94.2566 112.4 93.4596C112.211 92.663 112.451 92.2003 113.343 90.5127C114.235 88.8249 115.778 85.912 120.244 81.663C124.71 77.4135 132.1 71.8272 137.388 68.3066C142.677 64.7852 145.867 63.3288 147.95 62.4468C150.032 61.564 151.007 61.2556 150.468 61.9063C149.928 62.5577 147.872 64.1686 149.158 64.4766C150.445 64.7852 155.073 63.791 155.047 64.4598C155.022 65.1286 150.341 67.4578 147.769 68.9923C145.198 70.5257 144.734 71.2625 141.665 75.5639C138.597 79.8651 132.921 87.729 130.315 91.5592C127.708 95.3886 128.172 95.1826 130.135 94.0782C132.097 92.9732 135.561 90.9681 137.387 89.7172C139.214 88.466 139.401 87.9693 141.047 84.9286C142.693 81.8871 145.796 76.3018 147.588 73.4658C149.38 70.6293 149.859 70.545 151.291 70.4328C152.722 70.3207 155.106 70.1845 156.794 70.5781C158.483 70.9716 159.478 71.8976 160.48 72.6001C161.483 73.3027 162.494 73.7823 163.361 73.9106C164.226 74.0395 164.946 73.8171 165.486 72.5488C166.027 71.2807 166.386 68.9676 166.515 67.4939C166.643 66.0196 166.541 65.3858 165.435 62.8323C164.329 60.2796 162.221 55.8072 161.072 53.4775C159.923 51.147 159.735 50.9591 159.332 50.7701C158.929 50.5822 158.313 50.3931 157.498 49.1943C156.683 47.9942 155.672 45.7845 154.719 44.2848C153.767 42.785 152.875 41.9978 152.241 41.6208C151.606 41.2439 151.23 41.2787 151.111 40.9275C150.991 40.5764 151.129 39.8394 151.565 37.3466C152.003 34.8538 152.74 30.604 152.858 28.137C152.978 25.6699 152.48 24.9844 151.104 23.1212C149.728 21.258 147.474 18.2162 146.167 16.6359C144.859 15.0557 144.5 14.935 140.985 15.4148C137.47 15.8945 130.801 16.9737 126.986 17.959C123.171 18.9443 122.211 19.8355 118.851 23.7073C115.49 27.5801 109.729 34.4332 106.823 37.813C103.917 41.1926 103.866 41.0987 103.604 40.8292C103.342 40.5595 102.871 40.1133 102.644 39.8227C102.417 39.5306 102.435 39.3942 103.042 38.0231C103.651 36.6521 104.85 34.0486 105.515 30.4542C106.18 26.8599 106.309 22.277 106.437 17.6928C101.902 19.2864 97.3677 20.8801 94.1273 22.8853C90.8863 24.8904 88.9402 27.3062 86.9947 29.7218C87.3456 27.9311 87.6972 26.1407 87.3626 23.8538C87.028 21.5667 86.0085 18.7821 84.9879 15.9974C81.0873 18.9185 77.1862 21.8408 74.598 25.4899C72.0099 29.1391 70.7319 33.5173 69.455 37.8946C68.4091 36.0101 67.3637 34.1245 66.0688 33.3116C64.7743 32.4974 63.231 32.7546 58.8512 34.7251C54.4702 36.6958 47.2528 40.3795 43.2836 42.4273C39.3144 44.475 38.595 44.8853 38.0456 45.5205C37.4972 46.1547 37.1201 47.0112 35.559 50.6012C33.9992 54.1911 31.2555 60.5142 28.5036 66.5111C25.752 72.5072 22.9914 78.1797 21.5423 81.3061C20.0932 84.4332 19.9566 85.0158 20.3675 88.9056C20.7793 92.7952 21.7392 99.9916 22.3044 103.83C22.8694 107.668 23.0418 108.148 24.944 112.192C26.8476 116.236 30.4822 123.844 32.6598 127.921C34.8373 131.998 35.5568 132.548 36.4834 132.805C37.4089 133.062 38.5402 133.028 40.9751 132.171C43.4101 131.314 47.1475 129.634 49.5133 128.675C51.8786 127.715 52.8734 127.476 52.2222 128.572C51.5712 129.669 49.2737 132.102 46.3071 135.649C43.3408 139.197 39.7062 143.856 37.7691 146.735C35.8322 149.614 35.5915 150.711 35.3521 152.544C35.1115 154.377 34.8721 156.948 34.8721 158.575C34.8721 160.203 35.1115 160.888 39.1579 165.463C43.2042 170.038 51.0562 178.502 55.8913 185.236C60.7269 191.97 62.5461 196.973 63.7458 199.87C64.9468 202.764 65.5274 203.555 66.1262 204.017C66.725 204.48 67.3423 204.616 67.754 204.376C68.1658 204.136 68.3708 203.52 67.5828 200.676C66.7943 197.833 65.0115 192.76 64.3086 189.607C63.6074 186.453 63.9852 185.221 64.7914 185.186C65.5967 185.152 66.8297 186.316 68.3207 186.847C69.811 187.379 71.5598 187.276 75.2289 186.882C78.8985 186.488 84.4878 185.802 91.3114 186.539C98.1353 187.276 106.193 189.434 114.183 192.657C122.173 195.877 130.093 200.161 135.425 203.863C140.757 207.562 143.501 210.683 145.828 213.423C146.286 213.962 146.727 214.489 147.156 215C149.092 214.318 151.002 213.585 152.887 212.802C152.665 211.691 152.475 210.596 152.338 209.526C151.978 206.715 151.978 204.077 152.355 201.857C152.732 199.639 153.487 197.838 154.354 196.648C155.219 195.457 156.197 194.874 157.833 194.584C159.471 194.293 161.768 194.293 163.332 194.172C164.896 194.052 165.725 193.812 167.062 192.844C168.4 191.876 170.245 190.18 172.325 188.133C174.405 186.085 176.719 183.686 178.297 181.725C179.874 179.763 180.714 178.238 181.794 175.822C182.873 173.407 184.194 170.1 184.777 167.572C185.36 165.044 185.206 163.297 184.847 161.695C184.486 160.094 183.921 158.636 183.355 157.497C182.79 156.357 182.224 155.535 179.943 153.582C177.662 151.628 173.668 148.543 171.576 146.881C169.485 145.22 169.296 144.979 169.202 143.968C169.108 142.957 169.108 141.176 169.167 140.139C169.228 139.102 169.347 138.812 170.582 137.775C171.816 136.738 174.165 134.957 174.328 133.928C174.491 132.9 172.468 132.626 171.456 132.377C170.445 132.129 170.445 131.906 171.465 131.127C172.486 130.347 174.526 129.011 175.512 128.171C176.497 127.331 176.429 126.989 175.477 125.661C174.526 124.334 172.691 122.02 171.791 120.324C170.891 118.628 170.925 117.549 171.32 116.898C171.715 116.247 172.469 116.024 174.423 115.861C176.378 115.698 179.532 115.595 181.384 115.295C183.236 114.996 183.786 114.499 184.222 113.821C184.66 113.145 184.985 112.287 184.821 111.105C184.66 109.923 184.007 108.415 183.15 106.727C182.293 105.04 181.23 103.172 179.009 99.3083C176.79 95.4444 173.413 89.5845 170.909 85.6602C168.406 81.7356 166.778 79.7485 165.997 79.2009C165.217 78.6525 165.285 79.5426 166.28 81.5736C167.275 83.6045 169.195 86.7738 171.921 91.4945C174.647 96.2149 178.178 102.485 179.841 106.067C181.504 109.647 181.298 110.538 180.355 111.378C179.413 112.218 177.732 113.006 175.751 113.298C173.772 113.589 171.491 113.384 170.257 113.298C169.023 113.212 168.833 113.246 168.456 114.681C168.079 116.116 167.513 118.952 166.125 121.017C164.736 123.081 162.524 124.375 160.314 125.669C161.393 124.127 162.474 122.584 163.116 121.591C163.759 120.597 163.964 120.152 163.957 118.404C163.948 116.656 163.725 113.606 163.554 111.868C163.383 110.129 163.262 109.7 163.771 108.619C164.28 107.54 165.418 105.809 165.987 104.747C166.555 103.684 166.555 103.291 165.926 102.262C165.297 101.234 164.039 99.5723 163.273 98.7143C162.507 97.8581 162.232 97.8064 161.092 98.4751C159.952 99.1428 157.946 100.532 156.746 101.303C155.546 102.074 155.151 102.228 152.854 101.414C150.557 100.6 146.356 98.8184 143.964 97.9106C141.574 97.0025 140.991 96.9677 139 97.0537C137.012 97.1398 133.617 97.3459 133.256 97.6363C132.897 97.9274 135.572 98.304 139.317 99.7874C143.064 101.269 147.881 103.857 150.436 105.296C152.991 106.735 153.281 107.027 154.328 109.991C155.374 112.956 157.173 118.592 157.765 122.816C158.357 127.04 157.739 129.85 157.688 131.229C157.637 132.609 158.151 132.558 158.811 131.786C159.471 131.016 160.276 129.524 160.74 128.676C161.203 127.828 161.323 127.622 162.48 127.117C163.637 126.611 165.831 125.806 167.435 125.438C169.037 125.071 170.05 125.139 170.444 125.481C170.838 125.824 170.615 126.44 169.072 127.94L169.078 127.935ZM103.102 100.504C103.102 103.502 103.513 106.724 103.547 108.745C103.581 110.767 103.238 111.59 102.732 111.932C102.226 112.276 101.558 112.138 100.4 110.622C99.2432 109.105 97.5974 106.21 96.508 102.611C95.4194 99.0133 94.8883 94.712 94.1672 91.1313C93.448 87.55 92.5383 84.6882 91.5465 83.1328C90.555 81.5758 89.4798 81.3253 87.759 81.7402C86.039 82.154 83.6721 83.2347 81.623 85.505C79.5744 87.7752 77.843 91.236 77.1147 94.9034C76.3865 98.5702 76.6602 102.442 78.4609 106.589C80.2616 110.735 83.5871 115.157 86.9131 119.577C84.2731 114.249 81.632 108.92 80.6464 104.25C79.6606 99.5813 80.3287 95.5722 81.084 93.0537C81.8382 90.5353 82.6785 89.5073 83.5612 89.0277C84.4443 88.5476 85.3698 88.6156 86.1589 91.4263C86.9474 94.2369 87.5986 99.7885 88.1302 103.961C88.6619 108.133 89.0737 110.926 89.5874 112.459C90.1022 113.993 90.7184 114.266 91.3785 114.241C92.0393 114.215 92.7416 113.89 93.5138 114.086C94.2849 114.283 95.1253 115.003 95.7686 116.34C96.4112 117.676 96.8573 119.63 97.1486 122.911C97.4392 126.192 97.5772 130.802 98.2886 134.58C99.0004 138.358 100.286 141.306 101.572 144.253C101.906 143.515 102.241 142.778 102.553 142.504C102.867 142.231 103.157 142.419 103.797 144.257C104.435 146.095 105.421 149.581 106.326 152.147C107.23 154.713 108.053 156.358 108.876 158.002C108.988 157.069 109.098 156.135 109.309 155.706C109.519 155.278 109.828 155.355 110.582 157.055C111.336 158.756 112.537 162.08 114.521 165.185C116.505 168.292 119.275 171.179 121.448 173.084C123.621 174.99 125.199 175.916 126.776 176.841C126.518 175.641 126.261 174.442 126.165 173.525C126.068 172.608 126.132 171.974 126.3 171.697C126.468 171.419 126.741 171.498 127.525 172.595C128.309 173.694 129.605 175.81 131.467 177.771C133.329 179.733 135.755 181.541 138.18 183.348C137.983 182.611 137.787 181.875 137.688 181.177C137.59 180.479 137.59 179.819 137.645 179.468C137.702 179.117 137.812 179.074 138.653 179.905C139.493 180.736 141.062 182.442 142.544 183.821C144.027 185.201 145.425 186.253 146.822 187.308C146.557 186.288 146.291 185.269 146.265 184.574C146.239 183.881 146.455 183.512 146.912 183.577C147.371 183.641 148.073 184.138 149.146 185.526C150.218 186.913 151.657 189.192 151.931 191.035C152.205 192.877 151.313 194.282 150.388 195.961C149.462 197.64 148.502 199.593 148.064 201.272C147.627 202.951 147.714 204.356 147.627 205.239C147.541 206.121 147.285 206.481 146.204 206.028C145.124 205.573 143.22 204.304 139.988 201.958C136.757 199.611 132.197 196.185 127.091 193.237C121.986 190.289 116.336 187.823 110.824 185.696C105.312 183.572 99.9384 181.791 94.1395 180.993C88.3409 180.197 82.1169 180.385 78.4304 180.488C74.7445 180.591 73.5956 180.607 73.2362 179.742C72.8756 178.877 73.3043 177.129 75.5336 173.933C77.7624 170.738 81.7908 166.094 84.6792 162.522C87.5687 158.95 89.3164 156.448 90.0459 153.466C90.7748 150.485 90.4835 147.024 89.4117 142.441C88.3398 137.858 86.489 132.151 84.1915 126.934C81.894 121.717 79.1504 116.987 76.8708 114.202C74.5902 111.418 72.7731 110.579 71.1877 110.159C69.6015 109.739 68.2468 109.739 67.2697 109.611C66.2929 109.482 65.693 109.225 65.2042 108.916C64.7153 108.608 64.3378 108.247 64.3728 108.034C64.4071 107.819 64.8526 107.751 65.4525 107.571C66.0523 107.391 66.8066 107.1 68.0677 105.12C69.3278 103.141 71.0936 99.4737 72.2939 96.3984C73.4936 93.3227 74.1283 90.8379 74.3339 89.3907C74.5401 87.9435 74.3159 87.5321 74.504 87.1724C74.6921 86.8121 75.2932 86.5047 76.5786 85.3647C77.8645 84.2255 79.8364 82.2546 81.414 79.8302C82.9905 77.4057 84.1745 74.527 85.0138 72.1627C85.8542 69.7984 86.351 67.9475 86.943 66.8341C87.535 65.7202 88.221 65.3429 89.9867 64.1958C91.7525 63.0474 94.5992 61.1284 96.4941 59.0467C98.3883 56.9645 99.3306 54.72 100.077 53.7527C100.822 52.7842 101.372 53.0929 102.863 55.7657C104.355 58.4387 106.79 63.4769 107.8 67.9825C108.812 72.4881 108.4 76.4639 107.517 80.3716C106.634 84.2777 105.279 88.1158 104.396 91.423C103.513 94.7301 103.102 97.5058 103.102 100.504ZM145.401 56.7922C145.333 57.3917 144.392 57.8715 140.698 59.9283C137.004 61.9835 130.558 65.6171 125.097 69.8661C119.636 74.1154 115.163 78.9812 112.924 80.7128C110.687 82.4427 110.687 81.0382 110.936 77.56C111.184 74.0816 111.681 68.5301 110.953 63.0294C110.224 57.5294 108.269 52.0807 107.429 48.5165C106.589 44.9524 106.862 43.2738 108.766 42.0223C110.669 40.772 114.201 39.949 117.887 40.6514C121.573 41.3535 125.414 43.5814 127.677 44.901C129.941 46.2207 130.626 46.631 131.415 44.5923C132.204 42.5536 133.094 38.0645 133.232 35.4253C133.37 32.7871 132.752 31.9986 132.975 31.879C133.197 31.7593 134.261 32.3073 135.084 33.1472C135.907 33.987 136.49 35.1176 137.107 36.917C137.725 38.7165 138.376 41.1836 139.241 40.3091C140.106 39.4357 141.185 35.2207 140.808 31.9137C140.431 28.6067 138.598 26.2078 137.51 24.7003C136.422 23.1927 136.079 22.5754 136.995 22.9703C137.912 23.3639 140.087 24.7696 141.399 25.8859C142.71 27.0018 143.158 27.8305 143.597 28.987C144.034 30.1432 144.463 31.6284 144.892 33.1136C146.744 31.0401 148.595 28.9668 148.201 26.663C147.806 24.3582 145.167 21.8228 145.057 21.5825C144.948 21.342 147.37 23.3986 148.581 24.7697C149.792 26.1407 149.792 26.8253 149.474 29.4812C149.153 32.1374 148.514 36.7629 148.196 39.4703C147.876 42.1778 147.876 42.9661 146.007 44.7478C144.138 46.5292 140.401 49.3051 138.136 51.3102C135.874 53.3142 135.085 54.5489 136.285 54.9941C137.485 55.439 140.673 55.0969 142.67 55.2859C144.666 55.475 145.471 56.1927 145.401 56.7922ZM70.7319 134.908C71.9058 139.286 73.3461 144.734 73.5002 149.035C73.6546 153.335 72.5225 156.487 70.4311 159.748C68.3392 163.009 65.288 166.378 64.0839 169.81C62.8796 173.242 63.5245 176.736 64.1689 180.23C63.4908 179.777 62.8115 179.321 61.2873 176.644C59.7631 173.967 57.3924 169.066 57.2554 164.028C57.1181 158.991 59.214 153.817 58.8569 149.858C58.4986 145.9 55.6879 143.158 54.8127 140.604C53.9391 138.051 55.0019 135.687 55.9956 133.593C56.9902 131.5 57.9156 129.678 59.4477 127.876C60.9797 126.075 63.1184 124.294 64.472 123.166C65.8259 122.038 66.3972 121.563 66.8122 121.796C67.2262 122.03 67.4847 122.972 68.0677 125.096C68.6507 127.221 69.558 130.529 70.7319 134.908ZM55.0448 122.086C51.3103 124.536 46.8579 126.321 44.4049 127.247C41.951 128.174 41.4967 128.242 40.7043 126.032C39.911 123.823 38.7797 119.332 38.4025 114.638C38.0254 109.943 38.4025 105.042 38.9173 102.027C39.4309 99.0109 40.0833 97.8801 40.4515 97.3234C40.8196 96.7668 40.9058 96.7831 41.4754 97.3657C42.0448 97.9482 43.1001 99.096 43.7425 100.223C44.3847 101.349 44.6164 102.456 44.848 103.561C44.6678 101.358 44.4877 99.1563 44.4844 96.282C44.4799 93.4077 44.6511 89.8608 45.299 86.1771C45.9458 82.4928 47.0693 78.6718 47.6691 76.7189C48.2688 74.7651 48.346 74.68 48.8731 75.3223C49.4002 75.9641 50.3771 77.3353 51.2522 78.8474C52.126 80.3593 52.8982 82.0121 53.6693 83.6659C54.2172 78.6367 54.7671 73.6077 55.6333 69.8767C56.499 66.1462 57.6819 63.7127 58.3331 62.4106C58.9846 61.1081 59.1042 60.937 59.713 61.9661C60.3219 62.9933 61.4186 65.2213 62.0786 67.2686C62.7388 69.3166 62.9613 71.1844 63.1843 73.052C63.2869 67.1403 63.39 61.2285 64.3334 55.7892C65.2768 50.3484 67.0596 45.3795 68.0193 42.8264C68.9796 40.2733 69.1171 40.1367 69.6139 40.7106C70.1106 41.2842 70.9679 42.5692 71.6202 43.957C72.2719 45.3449 72.718 46.8357 73.1635 48.3264C74.0039 43.7178 74.8432 39.1081 76.5588 34.619C78.2728 30.1299 80.8625 25.7605 82.2419 23.5764C83.6221 21.3911 83.7931 21.3911 84.197 22.9848C84.5998 24.5783 85.2347 27.7658 85.354 30.6612C85.4739 33.5565 85.0798 36.1612 84.6849 38.7658C87.0167 35.1847 89.3479 31.6039 91.6281 28.9477C93.9087 26.2918 96.1381 24.5617 98.3326 23.2767C100.527 21.9917 102.688 21.1518 104.847 20.312C104.796 21.3911 104.745 22.4715 103.749 25.1007C102.755 27.7311 100.818 31.9115 98.7093 35.1847C96.5999 38.457 94.3205 40.8224 92.0404 43.1865C95.1096 42.5525 98.1782 41.9184 99.1638 42.7326C100.15 43.5466 99.0518 45.808 97.6126 48.4472C96.1723 51.0865 94.3903 54.1016 91.681 56.7922C88.9717 59.4819 85.3372 61.8473 82.2161 63.7662C79.0958 65.6852 76.49 67.1584 73.884 68.6321C76.2163 67.8952 78.547 67.1584 80.4249 66.6359C82.3023 66.1136 83.7246 65.8051 84.2049 66.2504C84.6849 66.6951 84.223 67.8952 82.7388 70.6878C81.2563 73.4805 78.7533 77.8673 75.6665 81.5426C72.5805 85.2173 68.9114 88.1822 65.8767 90.1101C62.8418 92.0371 60.4412 92.9281 58.9329 94.2476C57.4245 95.5676 56.8072 97.3155 56.1905 99.0623C56.5159 98.702 56.8415 98.3434 58.4361 97.083C60.0307 95.8239 62.8942 93.6638 65.466 92.3534C68.0373 91.0429 70.3179 90.5796 71.4669 90.4344C72.6166 90.2892 72.6329 90.4603 72.3412 91.5575C72.0488 92.654 71.4489 94.6749 70.0695 97.1252C68.6896 99.5756 66.5312 102.454 63.3071 105.127C60.0835 107.8 55.7967 110.267 51.5094 112.735C54.3474 112.152 57.1863 111.57 59.4714 111.224C61.7565 110.877 63.4873 110.765 64.2855 111.167C65.0819 111.57 64.9455 112.487 63.3702 114.502C61.7942 116.519 58.778 119.635 55.0448 122.086ZM63.1799 37.379C64.9287 37.276 65.4858 38.0981 65.4858 39.0408C65.4858 39.9837 64.9287 41.0461 64.6498 42.0905C64.3717 43.1363 64.3717 44.164 64.0839 44.5923C63.7971 45.0206 63.222 44.8495 60.6203 44.987C58.0187 45.1236 53.3893 45.5698 49.7716 46.7081C46.1539 47.8466 43.5478 49.6763 42.2272 50.3798C40.9069 51.0821 40.8722 50.6571 41.6107 49.5186C42.3482 48.3801 43.8565 46.5292 46.3084 44.7478C48.7601 42.9661 52.1553 41.2518 55.3218 39.8819C58.4902 38.5108 61.4309 37.4819 63.1799 37.379ZM51.6145 69.9684C51.5028 71.5958 52.0341 73.3269 52.1034 74.1233C52.1722 74.9193 51.7778 74.7831 50.9891 74.1493C50.2002 73.5148 49.0175 72.3845 48.3662 71.4248C47.715 70.465 47.5941 69.6769 47.2607 70.0203C46.9261 70.3625 46.3777 71.8362 45.6827 73.6099C44.989 75.3837 44.1486 77.4559 43.634 79.4097C43.1192 81.3636 42.9311 83.1964 42.8451 84.781C42.7589 86.3657 42.7767 87.702 42.0281 87.5827C41.2796 87.4628 39.7643 85.8861 37.9728 83.5988C36.1813 81.3118 34.1133 78.3126 33.0705 75.8622C32.0275 73.4117 32.0106 71.5097 32.4303 69.7449C32.851 67.9803 33.7072 66.3518 34.3952 64.699C35.0824 63.0463 35.5994 61.3666 36.3032 59.6018C37.0059 57.8368 37.8945 55.9859 40.9628 54.3073C44.03 52.6287 49.2771 51.1201 53.3053 50.1785C57.3337 49.2356 60.1461 48.8588 61.5013 49.1753C62.8554 49.4906 62.7523 50.4995 62.487 51.6211C62.2207 52.7438 61.792 53.9797 61.5183 54.8117C61.2439 55.6438 61.1229 56.0721 59.949 56.5003C58.774 56.9288 56.5463 57.3571 55.3805 57.8022C54.2139 58.2473 54.1115 58.7101 53.9312 59.9615C53.751 61.2122 53.4936 63.2518 52.9878 65.0334C52.482 66.815 51.7265 68.3406 51.6145 69.9684ZM33.81 85.7673C34.976 89.2275 36.2104 92.0382 36.2618 95.1393C36.3133 98.2404 35.1819 101.634 34.8899 105.025C34.5978 108.419 35.1473 111.811 35.4382 113.542C35.7292 115.272 35.7638 115.341 34.8552 114.055C33.9466 112.77 32.0946 110.131 31.0663 106.55C30.038 102.969 29.8321 98.4454 30.1531 94.4012C30.4743 90.3572 31.3226 86.7929 31.4601 83.4874C31.5978 80.1804 31.0226 77.1316 31.2844 77.6629C31.5462 78.1944 32.6429 82.3054 33.8089 85.7651L33.81 85.7673ZM26.9706 81.8724C27.4273 83.6428 27.4273 87.8568 27.1934 91.764C26.9594 95.6706 26.4928 99.2694 26.4928 102.267C26.4928 105.266 26.9594 107.665 26.8566 108.11C26.7535 108.555 26.0811 107.047 25.3672 103.929C24.6533 100.81 23.899 96.0822 23.7793 92.0668C23.6596 88.0522 24.1731 84.7518 24.887 82.7647C25.6009 80.7775 26.5141 80.1021 26.9706 81.8724ZM49.8097 144.247C50.8247 145.026 52.7337 146.346 53.8225 148.153C54.9113 149.962 55.1799 152.257 54.9451 154.793C54.7097 157.329 53.9723 160.105 53.9723 162.914C53.9723 165.725 54.7097 168.568 55.4474 171.412C54.4871 170.316 53.5274 169.219 52.2673 167.257C51.0071 165.294 49.4473 162.467 48.5385 159.647C47.6299 156.829 47.3725 154.02 47.4843 151.244C47.5963 148.468 48.0763 145.728 48.3762 144.476C48.6762 143.226 48.7959 143.465 49.8108 144.245L49.8097 144.247ZM44.9118 147.228C44.9028 147.528 44.8513 148.008 44.8436 149.819C44.8346 151.631 44.8693 154.776 44.5649 156.674C44.2606 158.572 43.6171 159.222 42.8885 159.492C42.1601 159.762 41.3456 159.651 40.7289 159.248C40.1112 158.846 39.6916 158.152 39.6872 156.816C39.6828 155.479 40.0945 153.5 41.0244 151.705C41.9543 149.91 43.4033 148.3 44.1453 147.554C44.8872 146.809 44.9197 146.929 44.9118 147.228Z" fill="#B9F6D5"/>
<path fill-rule="evenodd" clip-rule="evenodd" d="M144.836 87.868C147.35 87.4819 149.865 87.0975 151.424 86.9138C152.983 86.7295 153.586 86.7466 153.846 87.0397C154.106 87.3323 154.023 87.9016 153.712 88.8394C153.402 89.7771 152.865 91.0828 152.421 91.6685C151.977 92.2537 151.624 92.1207 150.535 91.4508C149.445 90.7809 147.618 89.5758 146.544 88.8894C145.472 88.2035 145.153 88.0363 144.834 87.8691L144.836 87.868Z" fill="#B9F6D5"/>
<path fill-rule="evenodd" clip-rule="evenodd" d="M141.166 88.4999C143.053 86.2009 144.94 83.9017 146.413 81.9441C147.885 79.9863 148.945 78.3706 149.989 77.3078C151.033 76.2455 152.061 75.737 152.761 75.6732C153.46 75.6101 153.832 75.9913 154.35 76.9358C154.867 77.8796 155.531 79.3879 155.754 80.3044C155.978 81.221 155.761 81.5475 154.584 82.2922C153.407 83.0375 151.27 84.1993 148.873 85.3037C146.476 86.4079 143.821 87.4536 141.166 88.4999Z" fill="#B9F6D5"/>
<path fill-rule="evenodd" clip-rule="evenodd" d="M47.8349 75.566C47.2406 77.5311 46.1272 81.3733 45.4863 85.0782C44.844 88.784 44.6745 92.3514 44.6789 95.2424C44.6833 98.1332 44.8607 100.348 45.0393 102.563C44.8098 101.452 44.5802 100.34 43.9437 99.2061C43.3059 98.0738 42.2612 96.9183 41.6968 96.3322C41.1312 95.7462 41.047 95.7292 40.6822 96.2898C40.3172 96.8497 39.6707 97.9871 39.1616 101.021C38.6516 104.054 38.2778 108.982 38.6516 113.704C39.0252 118.426 40.1465 122.941 40.9326 125.165C41.7189 127.389 42.1692 127.319 44.6 126.387C47.0321 125.455 51.4437 123.66 55.1444 121.195C58.8448 118.731 61.8328 115.597 63.3943 113.569C64.9555 111.541 65.0917 110.619 64.3012 110.215C63.5114 109.81 61.7949 109.922 59.5303 110.271C57.2656 110.62 54.4535 111.206 51.64 111.792C55.8886 109.311 60.1383 106.828 63.3323 104.14C66.5258 101.452 68.6664 98.5562 70.0335 96.0916C71.4012 93.6271 71.9955 91.5934 72.2848 90.491C72.5745 89.3875 72.5565 89.2153 71.4189 89.362C70.2797 89.5081 68.0207 89.9734 65.4712 91.2921C62.9231 92.6101 60.0851 94.7815 58.5049 96.0491C56.9241 97.3157 56.6014 97.6775 56.2787 98.0399C56.89 96.2819 57.5023 94.5239 58.9972 93.1973C60.4921 91.8702 62.8707 90.975 65.8782 89.0359C68.8858 87.0962 72.5221 84.1157 75.581 80.4181C78.6393 76.7221 81.12 72.3093 82.5898 69.5011C84.059 66.6923 84.5179 65.4852 84.0422 65.0373C83.5666 64.59 82.156 64.8991 80.2961 65.4258C78.4351 65.9511 76.1253 66.6923 73.8142 67.4333C76.397 65.9511 78.98 64.4696 82.0717 62.5394C85.1649 60.6093 88.7663 58.2313 91.4514 55.5249C94.1363 52.8198 95.9031 49.786 97.3304 47.1315C98.7578 44.4769 99.8446 42.2026 98.8671 41.3837C97.8903 40.5649 94.8491 41.2027 91.8074 41.8404C94.0676 39.4625 96.3268 37.0836 98.4172 33.7922C100.508 30.501 102.427 26.2953 103.412 23.6498C104.398 21.0042 104.449 19.9186 104.5 18.8333C102.359 19.6781 100.218 20.5216 98.0432 21.8152C95.8685 23.1075 93.6597 24.8488 91.3993 27.5191C89.1392 30.1906 86.8294 33.7922 84.5179 37.394C84.9097 34.7743 85.2998 32.1545 85.181 29.2424C85.0626 26.3302 84.4336 23.1244 84.0345 21.5217C83.6354 19.9186 83.4656 19.9186 82.0968 22.1166C80.7299 24.3133 78.1638 28.7082 76.4646 33.2231C74.7655 37.7381 73.9326 42.3746 73.0997 47.0102C72.6588 45.5107 72.2161 44.0112 71.5707 42.6153C70.925 41.2196 70.076 39.9271 69.5825 39.35C69.0901 38.773 68.9533 38.9103 68.0022 41.4783C67.0505 44.0462 65.2826 49.0437 64.3487 54.516C63.4142 59.9882 63.3121 65.9331 63.21 71.8784C62.9895 70.0005 62.7685 68.1219 62.1142 66.0622C61.4601 64.003 60.372 61.7621 59.7698 60.7281C59.167 59.6948 59.048 59.867 58.4026 61.176C57.7569 62.4855 56.5853 64.9332 55.7267 68.6853C54.8682 72.4378 54.3249 77.4961 53.7803 82.5543C53.0159 80.892 52.2513 79.2286 51.3848 77.7079C50.5188 76.1871 49.5495 74.8079 49.0272 74.1618C48.5048 73.5152 48.4295 73.6008 47.8349 75.566Z" fill="#328849"/>
</g>
<defs>
<clipPath id="clip0_4_5875">
<rect width="220" height="220" fill="white" transform="translate(0 0.5)"/>
</clipPath>
</defs>
</svg>
