<svg width="220" height="221" viewBox="0 0 220 221" fill="none" xmlns="http://www.w3.org/2000/svg">
<g clip-path="url(#clip0_4_5882)">
<path fill-rule="evenodd" clip-rule="evenodd" d="M110 0.5C170.742 0.5 220 49.758 220 110.5C220 171.242 170.742 220.5 110 220.5C49.258 220.5 0 171.242 0 110.5C0 49.758 49.258 0.5 110 0.5Z" fill="#383B4A"/>
<path fill-rule="evenodd" clip-rule="evenodd" d="M171.667 117.21L167.179 121.698C116.183 70.9217 59.6213 99.1477 46.1133 107.09C46.5914 105.595 47.4214 104.237 48.5333 103.13L103.049 48.6137C104.915 46.7443 107.448 45.6936 110.089 45.6936C112.731 45.6936 115.263 46.7443 117.129 48.6137L171.645 103.13C173.523 104.99 174.58 107.522 174.585 110.165C174.589 112.808 173.539 115.344 171.667 117.21Z" fill="white"/>
<path fill-rule="evenodd" clip-rule="evenodd" d="M129.493 159.384L117.151 171.726C115.285 173.596 112.753 174.646 110.111 174.646C107.47 174.646 104.937 173.596 103.071 171.726L91.2793 159.934C110.243 146.514 126.457 157.118 129.493 159.384Z" fill="white"/>
<path fill-rule="evenodd" clip-rule="evenodd" d="M164.407 124.47L150.327 138.55C108.483 99.7422 66.5073 124.734 60.2153 128.87L57.1133 125.768C57.1549 125.746 57.1923 125.716 57.2233 125.68C112.047 81.7242 159.765 120.488 164.407 124.47Z" fill="white"/>
<path fill-rule="evenodd" clip-rule="evenodd" d="M78.5618 147.24L75.1738 143.852C107.712 114.196 143.462 139.43 146.916 141.982L132.528 156.37C106.766 131.576 82.8738 144.534 78.5618 147.24Z" fill="white"/>
</g>
<defs>
<clipPath id="clip0_4_5882">
<rect width="220" height="220" fill="white" transform="translate(0 0.5)"/>
</clipPath>
</defs>
</svg>
