<svg width="220" height="221" viewBox="0 0 220 221" fill="none" xmlns="http://www.w3.org/2000/svg">
<g clip-path="url(#clip0_4_5888)">
<mask id="mask0_4_5888" style="mask-type:luminance" maskUnits="userSpaceOnUse" x="0" y="0" width="220" height="221">
<path d="M220 0.5H0V220.5H220V0.5Z" fill="white"/>
</mask>
<g mask="url(#mask0_4_5888)">
<path d="M110 220.5C170.751 220.5 220 171.251 220 110.5C220 49.7487 170.751 0.5 110 0.5C49.2487 0.5 0 49.7487 0 110.5C0 171.251 49.2487 220.5 110 220.5Z" fill="#EDF0F4"/>
<path fill-rule="evenodd" clip-rule="evenodd" d="M36.7195 103.498C38.9951 24.7549 166.481 5.86112 183.333 103.498C174.724 107.821 170.999 109.596 170.999 109.596C170.999 109.596 175.342 112.174 183.308 117.057C176.647 198.986 51.358 212.886 36.666 117.167C44.7994 111.971 48.6993 109.636 48.6993 109.636C48.6993 109.636 44.0784 107.316 36.7195 103.498ZM108.648 117.03L120.606 137.589L130.855 137.378L114.84 107.59L129.36 82.8371L120.606 82.6277L109.5 100.458L98.3967 81.7879L89.0015 82.6277L104.589 107.801L87.2939 136.959L96.4756 137.589L108.648 117.03Z" fill="#B7B5B1"/>
<path fill-rule="evenodd" clip-rule="evenodd" d="M42.8247 99.748C49.9789 36.6139 154.429 13.1997 177.22 99.748C174.45 101.211 159.114 109.783 159.114 109.783C159.114 109.783 165.823 113.938 177.197 121.067C171.021 188.382 58.323 204.372 42.7754 121.168C55.0048 113.4 60.606 109.819 60.606 109.819C60.606 109.819 57.3174 107.902 42.8247 99.748ZM108.649 117.13L120.577 137.634L130.8 137.423L114.825 107.715L129.309 83.0271L120.577 82.8183L109.5 100.601L98.4249 81.9805L89.054 82.8183L104.601 107.924L87.3498 137.006L96.5086 137.634L108.649 117.13Z" fill="#244B81"/>
</g>
</g>
<defs>
<clipPath id="clip0_4_5888">
<rect width="220" height="220" fill="white" transform="translate(0 0.5)"/>
</clipPath>
</defs>
</svg>
