<svg width="220" height="221" viewBox="0 0 220 221" fill="none" xmlns="http://www.w3.org/2000/svg">
<g clip-path="url(#clip0_4_5896)">
<path d="M110 220.5C170.751 220.5 220 171.251 220 110.5C220 49.7487 170.751 0.5 110 0.5C49.2487 0.5 0 49.7487 0 110.5C0 171.251 49.2487 220.5 110 220.5Z" fill="#EDF0F4"/>
<path fill-rule="evenodd" clip-rule="evenodd" d="M110.457 63.5174L55 50V57.3066L110.457 70.8239V63.5174ZM109.8 91.5017L165.403 64.394V72.2121L55 126.026V118.208L99.8628 96.2876L55 85.3641V78.0575L109.8 91.5017ZM109.8 121.751H109.982L165.403 94.7167V102.535L120.76 124.272L165.33 135.232V142.539L110.932 129.094L55.2193 156.275V148.64L109.8 121.751ZM55 71.3354V64.0287L110.53 77.6192V84.9257L55 71.3354ZM165.403 79.5554L55 133.442V141.114L165.403 87.3734V79.5554ZM165.33 156.494L109.8 142.904V135.597L165.257 149.151L165.33 156.494ZM109.8 149.589V156.896L165.403 170.56V163.253L109.8 149.589Z" fill="#FF0033"/>
</g>
<defs>
<clipPath id="clip0_4_5896">
<rect width="220" height="220" fill="white" transform="translate(0 0.5)"/>
</clipPath>
</defs>
</svg>
