<svg width="220" height="221" viewBox="0 0 220 221" fill="none" xmlns="http://www.w3.org/2000/svg">
<g clip-path="url(#clip0_4_5899)">
<path d="M110 220.5C170.751 220.5 220 171.251 220 110.5C220 49.7487 170.751 0.5 110 0.5C49.2487 0.5 0 49.7487 0 110.5C0 171.251 49.2487 220.5 110 220.5Z" fill="#4FA784"/>
<path d="M174.932 89.0635L119.585 72.968L100.653 105.692L78.6645 79.8107L88.6283 78.5087L98.8994 90.7535L110.296 70.2601L60.1357 55.6674C58.764 55.2549 57.2798 55.6173 56.2432 56.6178C55.2066 57.6182 54.7756 59.1045 55.1128 60.5154L77.3337 151.077L101.199 110.298L123.188 136.18L113.224 137.482L102.96 125.237L80.3706 163.447L83.7146 177.091C84.0688 178.499 85.1331 179.61 86.5101 180.009C87.8869 180.409 89.3691 180.036 90.4028 179.03L176.597 95.8509C177.633 94.8549 178.061 93.3697 177.716 91.9642C177.371 90.5586 176.307 89.4504 174.932 89.0635Z" fill="white"/>
</g>
<defs>
<clipPath id="clip0_4_5899">
<rect width="220" height="220" fill="white" transform="translate(0 0.5)"/>
</clipPath>
</defs>
</svg>
