<svg width="220" height="221" viewBox="0 0 220 221" fill="none" xmlns="http://www.w3.org/2000/svg">
<g clip-path="url(#clip0_4_5902)">
<path d="M216.683 137.11C201.993 196.038 142.307 231.902 83.3712 217.207C24.4598 202.515 -11.4034 142.826 3.29433 83.9016C17.9792 24.966 77.6648 -10.8997 136.583 3.79159C195.514 18.4829 231.376 78.1776 216.683 137.11Z" fill="#23292F"/>
<path d="M164.085 46.3333H186.282L140.087 92.0728C123.357 108.628 96.2341 108.628 79.4927 92.0728L33.2793 46.3333H55.4951L90.5917 81.0788C101.232 91.5657 118.321 91.5657 128.961 81.0788L164.085 46.3333Z" fill="white"/>
<path d="M55.2129 173.521H33L79.4953 127.499C96.2247 110.944 123.348 110.944 140.089 127.499L186.586 173.521H164.387L128.991 138.493C118.35 128.007 101.261 128.007 90.6213 138.493L55.2129 173.521Z" fill="white"/>
</g>
<defs>
<clipPath id="clip0_4_5902">
<rect width="220" height="220" fill="white" transform="translate(0 0.5)"/>
</clipPath>
</defs>
</svg>
