<svg width="220" height="221" viewBox="0 0 220 221" fill="none" xmlns="http://www.w3.org/2000/svg">
<g clip-path="url(#clip0_4_5906)">
<path d="M110 220.5C170.751 220.5 220 171.251 220 110.5C220 49.7487 170.751 0.5 110 0.5C49.2487 0.5 0 49.7487 0 110.5C0 171.251 49.2487 220.5 110 220.5Z" fill="#56F4F1"/>
<path fill-rule="evenodd" clip-rule="evenodd" d="M62.2273 62.847C43.6098 62.8333 42.166 62.8402 42.166 62.9436C42.166 63.0127 52.2517 80.2675 64.5785 101.298C80.4735 128.416 87.0255 139.528 87.101 139.514C87.204 139.493 131.995 63.0402 131.995 62.9022C131.995 62.8609 122.604 62.8333 110.875 62.8333C92.766 62.8333 89.748 62.847 89.748 62.9368C89.748 62.9851 94.0998 70.377 99.4141 79.3635C104.729 88.3498 109.094 95.7487 109.108 95.7902C109.122 95.8316 108.31 97.2603 107.32 98.9719L105.505 102.078L105.313 101.753L93.708 82.1449L82.2955 62.8677L62.2273 62.847ZM159.529 62.8333C148.454 62.8333 139.379 62.854 139.379 62.8817H139.372C138.636 64.1102 90.8617 145.822 90.8273 145.898C90.786 146.071 110.792 180.194 110.923 180.167C111.005 180.146 131.129 145.912 131.19 145.671C128.196 140.428 125.148 135.217 122.047 130.038C121.539 129.18 121.041 128.338 120.555 127.517C116.209 120.169 112.854 114.498 112.848 114.467C112.82 114.384 116.43 108.234 116.485 108.269C116.512 108.282 120.442 114.912 125.304 123.115L125.677 123.743C132.73 135.663 134.834 139.176 134.924 139.162C135.02 139.148 142.493 126.456 157.336 101.146C169.58 80.247 179.618 63.0749 179.639 62.9851L179.666 62.8333H159.529Z" fill="white"/>
</g>
<defs>
<clipPath id="clip0_4_5906">
<rect width="220" height="220" fill="white" transform="translate(0 0.5)"/>
</clipPath>
</defs>
</svg>
