<svg width="220" height="221" viewBox="0 0 220 221" fill="none" xmlns="http://www.w3.org/2000/svg">
<g clip-path="url(#clip0_4_5909)">
<path d="M110 220.5C170.751 220.5 220 171.251 220 110.5C220 49.7487 170.751 0.5 110 0.5C49.2487 0.5 0 49.7487 0 110.5C0 171.251 49.2487 220.5 110 220.5Z" fill="#EDF0F4"/>
<path fill-rule="evenodd" clip-rule="evenodd" d="M77.9127 55.5L45.834 111.067L77.9127 166.633H142.083L143.143 164.825L174.167 111.091L142.083 55.5H77.9127ZM84.032 62.861H131.556L100.309 72.7421C100.88 73.6707 101.288 74.6902 101.515 75.7565L137.482 64.4164L144.663 99.3106C145.714 99.009 146.801 98.8508 147.894 98.8405L141.865 69.9569L164.696 109.463H160.102C160.162 109.999 160.193 110.539 160.193 111.079C160.194 111.619 160.164 112.158 160.102 112.694H164.696L141.124 153.539L147.707 123.317C146.631 123.291 145.563 123.125 144.53 122.823L136.765 158.392L101.576 146.618C101.387 147.669 101.042 148.685 100.551 149.632L129.187 159.23H84.032L86.4434 155.1C85.4311 154.719 84.474 154.204 83.5979 153.569L81.2285 157.657L58.7234 118.681L81.0296 138.371C81.6441 137.475 82.3738 136.664 83.2001 135.959L55.1182 111.163L84.2429 85.3181C83.4714 84.5543 82.8226 83.6758 82.3197 82.7136L58.5306 103.814L81.2285 64.4767L84.5806 70.3187C85.4004 69.5949 86.3279 69.003 87.3296 68.5641L84.032 62.861ZM99.4414 84.45C100.132 83.614 100.678 82.6685 101.057 81.6525L138.525 103.302C137.835 104.132 137.261 105.053 136.819 106.039L99.4414 84.45ZM88.9996 87.9887V133.403C89.4932 133.337 89.9907 133.305 90.4887 133.307C91.072 133.3 91.6548 133.342 92.2311 133.433V88.2178C91.972 88.2327 91.7122 88.2327 91.4534 88.2178C90.6271 88.2195 89.8037 88.1244 88.9996 87.9344V87.9887ZM99.4053 137.69L136.831 116.101V116.077C137.274 117.06 137.847 117.979 138.538 118.808L101.021 140.511C100.623 139.496 100.079 138.546 99.4053 137.69Z" fill="black"/>
<path fill-rule="evenodd" clip-rule="evenodd" d="M81.9445 74.0404C83.5457 70.1939 87.3093 67.6934 91.4758 67.7081C97.125 67.7345 101.698 72.3075 101.724 77.9568C101.739 82.1232 99.2387 85.8869 95.3921 87.4881C91.5456 89.0893 87.1132 88.2117 84.167 85.2655C81.2208 82.3194 80.3432 77.8869 81.9445 74.0404ZM97.9929 75.2951C96.9015 72.6586 94.3292 70.9393 91.4758 70.9393C89.6036 70.9314 87.8056 71.671 86.4812 72.9943C85.157 74.3176 84.4156 76.1148 84.422 77.987C84.4196 80.8404 86.1367 83.4142 88.7721 84.508C91.4077 85.6016 94.4426 84.9997 96.4611 82.9829C98.4798 80.966 99.0843 77.9317 97.9929 75.2951Z" fill="black"/>
<path fill-rule="evenodd" clip-rule="evenodd" d="M80.047 140.269C81.7993 136.048 85.9234 133.299 90.4939 133.307C96.7146 133.32 101.754 138.36 101.768 144.58C101.775 149.151 99.0264 153.275 94.8053 155.027C90.5841 156.78 85.723 155.815 82.4912 152.583C79.2594 149.351 78.2945 144.49 80.047 140.269ZM90.5029 136.508C93.7689 136.504 96.7162 138.468 97.9708 141.484C99.2266 144.503 98.5387 147.981 96.2285 150.294C93.9182 152.608 90.4411 153.301 87.4205 152.05C84.3997 150.799 82.4311 147.85 82.4334 144.58C82.4301 142.437 83.2804 140.381 84.7964 138.867C86.31 137.354 88.3632 136.505 90.5029 136.508Z" fill="black"/>
<path fill-rule="evenodd" clip-rule="evenodd" d="M136.662 106.371C138.562 101.798 143.03 98.821 147.981 98.8284H147.963C154.717 98.8416 160.188 104.313 160.202 111.067C160.202 116.018 157.218 120.482 152.642 122.375C148.067 124.268 142.802 123.218 139.303 119.714C135.804 116.21 134.762 110.943 136.662 106.371ZM156.988 111.067C156.988 106.092 152.956 102.06 147.981 102.06C145.59 102.05 143.293 102.996 141.602 104.687C139.911 106.378 138.965 108.675 138.974 111.067C138.974 116.041 143.007 120.074 147.981 120.074C152.956 120.074 156.988 116.041 156.988 111.067Z" fill="black"/>
</g>
<defs>
<clipPath id="clip0_4_5909">
<rect width="220" height="220" fill="white" transform="translate(0 0.5)"/>
</clipPath>
</defs>
</svg>
