<svg width="220" height="221" viewBox="0 0 220 221" fill="none" xmlns="http://www.w3.org/2000/svg">
<g clip-path="url(#clip0_4_5915)">
<path fill-rule="evenodd" clip-rule="evenodd" d="M110 0.5C170.742 0.5 220 49.758 220 110.5C220 171.242 170.742 220.5 110 220.5C49.258 220.5 0 171.242 0 110.5C0 49.758 49.258 0.5 110 0.5Z" fill="#006AE3"/>
<path d="M105.467 156.876V65.356H115.433V156.876H105.467Z" fill="white"/>
<path d="M156.203 95.8479L125.425 104.01L118.561 72.0659L127.713 69.998L131.321 85.134C131.321 85.134 139.637 71.4939 128.549 57.3699C122.015 50.1099 118.913 49.8019 111.587 48.6579C105.141 47.7339 90.1592 49.9119 85.6932 67.4019C83.8012 78.666 85.9352 87.0039 100.455 97.9159L99.6412 110.06C99.6412 110.06 83.4272 98.642 79.2472 90.634C76.0132 84.298 70.4692 71.7799 80.4792 54.3559C85.8692 45.6439 96.4952 37.2839 115.217 38.1639C124.633 38.5599 147.623 50.066 144.059 76.95C143.443 81.988 140.825 88.698 140.825 88.698L153.453 85.8819L156.203 95.8479Z" fill="white"/>
<path d="M138.618 167.458C132.986 176.016 122.14 184.09 103.462 182.726C94.0456 182.088 71.3856 169.966 75.6536 143.192C76.4016 138.176 79.1956 131.554 79.1956 131.554L66.5016 134.018L64.0156 124.008L95.0136 116.66L101.042 148.78L91.8236 150.606L88.6116 135.36C88.6116 135.36 79.9436 148.758 90.6356 163.19C96.9716 170.626 100.052 171 107.378 172.342C113.78 173.442 128.828 171.638 133.756 154.28C135.934 143.082 134.02 134.678 119.808 123.37L120.952 111.248C120.952 111.248 136.858 123.084 140.818 131.202C143.854 137.648 149.068 150.32 138.618 167.458Z" fill="white"/>
</g>
<defs>
<clipPath id="clip0_4_5915">
<rect width="220" height="220" fill="white" transform="translate(0 0.5)"/>
</clipPath>
</defs>
</svg>
