<svg width="220" height="221" viewBox="0 0 220 221" fill="none" xmlns="http://www.w3.org/2000/svg">
<g clip-path="url(#clip0_4_5920)">
<path d="M110 220.5C170.751 220.5 220 171.251 220 110.5C220 49.7487 170.751 0.5 110 0.5C49.2487 0.5 0 49.7487 0 110.5C0 171.251 49.2487 220.5 110 220.5Z" fill="#E954DD"/>
<path d="M122.996 183.833V136.025L170.117 62.5968H139.291L110.119 111.837L80.327 62.5968H49.5L96.6713 137.284V183.833H122.996Z" fill="white"/>
<path d="M109.806 63.4031C117.051 63.4031 122.924 57.5299 122.924 50.2849C122.924 43.04 117.051 37.1667 109.806 37.1667C102.561 37.1667 96.6875 43.04 96.6875 50.2849C96.6875 57.5299 102.561 63.4031 109.806 63.4031Z" fill="white"/>
</g>
<defs>
<clipPath id="clip0_4_5920">
<rect width="220" height="220" fill="white" transform="translate(0 0.5)"/>
</clipPath>
</defs>
</svg>
