<svg width="220" height="221" viewBox="0 0 220 221" fill="none" xmlns="http://www.w3.org/2000/svg">
<g clip-path="url(#clip0_4_5924)">
<path d="M110 220.5C170.751 220.5 220 171.251 220 110.5C220 49.7487 170.751 0.5 110 0.5C49.2487 0.5 0 49.7487 0 110.5C0 171.251 49.2487 220.5 110 220.5Z" fill="#21A5DE"/>
<path d="M148.66 114.453C150.997 116.956 152.414 120.29 152.414 123.947C152.414 131.709 146.034 138 138.169 138C130.31 138 123.937 131.709 123.937 123.947C123.937 120.29 125.354 116.956 127.677 114.453C126.148 115.625 124.09 115.838 122.354 115.003C120.618 114.167 119.5 112.426 119.462 110.5C119.46 109.376 119.841 108.285 120.541 107.406C118.004 109.703 114.629 111.105 110.916 111.105C107.204 111.105 103.828 109.703 101.291 107.406C101.992 108.285 102.372 109.376 102.37 110.5C102.37 113.271 100.102 115.519 97.2828 115.519C96.1509 115.52 95.0505 115.145 94.1548 114.453C96.4785 116.956 97.9017 120.29 97.9017 123.947C97.9017 131.709 91.5215 138 83.6635 138C75.7985 138 69.4185 131.709 69.4185 123.947C69.4185 120.29 70.8417 116.956 73.1655 114.453C71.6367 115.625 69.5782 115.838 67.842 115.003C66.106 114.167 64.9875 112.426 64.9498 110.5C64.9479 109.376 65.3285 108.285 66.0291 107.406C63.4923 109.703 60.1167 111.105 56.4042 111.105C48.5392 111.105 42.166 104.814 42.166 97.0525C42.166 89.2907 48.5392 83 56.4042 83C64.269 83 70.6423 89.2907 70.6423 97.0525C70.6437 100.578 69.3043 103.972 66.8955 106.547C68.4241 105.37 70.4853 105.155 72.2241 105.991C73.9626 106.827 75.0821 108.571 75.1178 110.5C75.1198 111.624 74.739 112.715 74.0385 113.594C76.5685 111.298 79.951 109.895 83.6635 109.895C87.376 109.895 90.7448 111.298 93.2885 113.594C92.5854 112.716 92.2024 111.625 92.2023 110.5C90.2954 109.033 89.6712 106.433 90.7035 104.26C91.7359 102.087 94.145 100.928 96.4873 101.479C98.8294 102.03 100.47 104.141 100.425 106.547C98.0171 103.972 96.6778 100.578 96.6778 97.0525C96.6778 89.2907 103.051 83 110.916 83C118.781 83 125.154 89.2907 125.154 97.0525C125.156 100.578 123.816 103.972 121.407 106.547C122.936 105.37 124.997 105.155 126.736 105.991C128.474 106.827 129.594 108.571 129.63 110.5C129.632 111.624 129.251 112.715 128.55 113.594C131.08 111.298 134.463 109.895 138.175 109.895C141.888 109.895 145.257 111.298 147.8 113.594C147.097 112.716 146.714 111.625 146.714 110.5C144.807 109.033 144.183 106.433 145.215 104.26C146.248 102.087 148.657 100.928 150.999 101.479C153.341 102.03 154.981 104.141 154.937 106.547C152.529 103.972 151.19 100.578 151.19 97.0525C151.19 89.2907 157.563 83 165.428 83C173.293 83 179.666 89.2907 179.666 97.0525C179.666 104.814 173.293 111.105 165.428 111.105C161.715 111.105 158.34 109.703 155.803 107.406C156.504 108.285 156.884 109.376 156.882 110.5C156.882 113.271 154.614 115.519 151.795 115.519C150.663 115.52 149.563 115.145 148.667 114.453H148.66Z" fill="white"/>
</g>
<defs>
<clipPath id="clip0_4_5924">
<rect width="220" height="220" fill="white" transform="translate(0 0.5)"/>
</clipPath>
</defs>
</svg>
