<svg width="220" height="221" viewBox="0 0 220 221" fill="none" xmlns="http://www.w3.org/2000/svg">
<g clip-path="url(#clip0_4_5927)">
<path d="M110 220.5C170.751 220.5 220 171.251 220 110.5C220 49.7487 170.751 0.5 110 0.5C49.2487 0.5 0 49.7487 0 110.5C0 171.251 49.2487 220.5 110 220.5Z" fill="#EDF0F4"/>
<path fill-rule="evenodd" clip-rule="evenodd" d="M36.666 110.5C36.666 150.939 69.5604 183.833 109.999 183.833C150.438 183.833 183.333 150.939 183.333 110.5C183.333 70.0611 150.438 37.1667 109.999 37.1667C69.5604 37.1667 36.666 70.0611 36.666 110.5ZM48.5402 110.5C48.5402 76.5966 76.0959 49.0409 109.999 49.0409C143.903 49.0409 171.459 76.5966 171.459 110.5C171.459 144.404 143.903 171.959 109.999 171.959C76.0959 171.959 48.5402 144.404 48.5402 110.5Z" fill="#E6201A"/>
<path d="M144.261 85.9187C141.651 79.8643 135.948 76.0627 129.36 76.0627L90.5227 75.7048H90.4054C83.9931 75.7048 78.3494 79.3246 75.7974 85.203C73.128 91.1987 74.2544 97.9688 78.7659 102.779L84.1104 108.541L92.1888 99.811L87.4955 94.707C85.6534 92.6888 86.3691 90.612 86.6624 89.955C86.9616 89.2451 88.0294 87.5203 90.4054 87.5203H90.464L129.296 87.8782C131.965 87.8782 133.097 89.955 133.39 90.612C133.748 91.3864 134.341 93.4046 132.681 95.1822L113.444 116.085C112.376 117.211 111.068 117.393 110.417 117.393C109.167 117.393 107.982 116.859 107.149 115.909L103.881 112.407L95.8027 121.136L98.4134 123.929C101.499 127.255 105.893 129.215 110.411 129.215C114.864 129.215 119.199 127.314 122.168 124.046L141.404 103.143C145.746 98.5027 146.813 91.8558 144.261 85.9187Z" fill="#E6201A"/>
<path d="M142.006 117.153L136.544 111.216L127.222 121.312L131.915 126.416C133.165 127.783 132.807 129.267 132.449 130.036C132.214 130.57 131.322 132.23 129.181 132.23L90.3497 132.588C88.3902 132.588 87.6158 131.28 87.3811 130.687C87.0819 130.095 86.6067 128.493 88.0323 126.944L107.627 105.748C108.337 104.974 109.229 104.563 110.238 104.563C110.772 104.563 111.781 104.68 112.614 105.572L116.65 109.966L125.972 99.8696L122.704 96.3086C119.495 92.8648 114.984 90.8467 110.296 90.8467C105.486 90.8467 100.916 92.8648 97.6478 96.4259L78.0531 117.622C73.3011 122.726 72.1161 129.854 74.9086 136.208C77.6425 142.385 83.5795 146.246 90.3497 146.246L129.304 145.888C136.192 145.829 142.246 141.851 144.98 135.439C147.767 129.144 146.64 122.139 142.006 117.153Z" fill="#E6201A"/>
</g>
<defs>
<clipPath id="clip0_4_5927">
<rect width="220" height="220" fill="white" transform="translate(0 0.5)"/>
</clipPath>
</defs>
</svg>
