<svg width="220" height="221" viewBox="0 0 220 221" fill="none" xmlns="http://www.w3.org/2000/svg">
<g clip-path="url(#clip0_4_5932)">
<mask id="mask0_4_5932" style="mask-type:luminance" maskUnits="userSpaceOnUse" x="0" y="0" width="220" height="221">
<path d="M220 0.5H0V220.5H220V0.5Z" fill="white"/>
</mask>
<g mask="url(#mask0_4_5932)">
<path d="M110 220.5C170.751 220.5 220 171.251 220 110.5C220 49.7487 170.751 0.5 110 0.5C49.2487 0.5 0 49.7487 0 110.5C0 171.251 49.2487 220.5 110 220.5Z" fill="#EDF0F4"/>
<path fill-rule="evenodd" clip-rule="evenodd" d="M81.4639 178.071C90.5059 181.892 100.107 183.833 110.007 183.833C119.91 183.833 129.506 181.892 138.551 178.04C156.127 170.589 170.119 156.596 177.57 139.019C181.391 129.977 183.333 120.376 183.333 110.476C183.358 80.9965 165.712 54.3733 138.551 42.9139C129.506 39.0932 119.877 37.1668 109.991 37.1668C80.5117 37.1409 53.8882 54.7873 42.4285 81.9485C38.6079 90.9934 36.666 100.59 36.666 110.492C36.666 120.394 38.6079 129.994 42.4447 139.052C49.8959 156.628 63.8875 170.62 81.4639 178.071ZM69.6675 70.1521C80.4445 59.3926 94.7724 53.4526 110.007 53.4526L110.006 53.4541C125.241 53.4541 139.566 59.3919 150.346 70.1536C161.105 80.9306 167.045 95.2585 167.045 110.494C167.045 125.729 161.108 140.053 150.346 150.833C139.569 161.593 125.241 167.533 110.006 167.533C94.7709 167.533 80.446 161.595 69.666 150.833C58.9058 140.053 52.968 125.727 52.968 110.492C52.968 95.257 58.8875 80.9321 69.6675 70.1521Z" fill="black"/>
<path d="M105.599 128.752H137.374V144.72H117.809C118.127 149.288 118.302 153.52 118.621 158.076H102.159V144.876H82.5935C82.5935 139.655 81.9409 134.449 82.9118 129.561C83.4053 126.95 86.3343 124.674 88.1331 122.397C94.3261 115.058 100.518 107.895 106.871 100.556C109.322 97.7857 111.757 95.1751 114.528 92.0863H84.058V76.1223H102.143V62.7654H117.95V75.8033H137.677C137.677 81.1838 138.33 86.3897 137.359 91.2928C136.865 93.9035 133.936 96.1797 131.978 98.4567C125.785 105.796 119.593 112.959 113.241 120.298C110.821 123.212 108.385 125.807 105.599 128.752Z" fill="black"/>
</g>
</g>
<defs>
<clipPath id="clip0_4_5932">
<rect width="220" height="220" fill="white" transform="translate(0 0.5)"/>
</clipPath>
</defs>
</svg>
