<svg width="220" height="221" viewBox="0 0 220 221" fill="none" xmlns="http://www.w3.org/2000/svg">
<g clip-path="url(#clip0_4_5940)">
<path d="M110 220.5C170.751 220.5 220 171.251 220 110.5C220 49.7487 170.751 0.5 110 0.5C49.2487 0.5 0 49.7487 0 110.5C0 171.251 49.2487 220.5 110 220.5Z" fill="#C87035"/>
<path fill-rule="evenodd" clip-rule="evenodd" d="M110.862 185.667C68.8432 185.639 34.834 151.568 34.834 109.487C34.834 67.4955 68.947 33.4723 111.021 33.5C152.971 33.5277 187.056 67.6268 187.001 109.597C186.918 151.111 153.552 185.612 110.862 185.667ZM79.8546 144.374L79.9554 144.182C80.1226 143.862 80.2609 143.598 80.394 143.378C87.2 131.371 94.0199 119.377 100.84 107.398C106.816 96.8981 112.778 86.3849 118.719 75.8715C118.889 75.4569 119.311 75.2034 119.757 75.2491C126.701 75.2837 133.673 75.2837 140.611 75.2837H141.6L138.499 80.7555C129.903 95.925 121.35 111.019 112.736 126.19C113.082 126.218 113.276 126.218 113.463 126.218C130.886 126.218 148.295 126.225 165.697 126.246C166.285 126.246 166.472 126.031 166.603 125.519C169.24 116.217 169.49 106.399 167.33 96.9742C164.729 85.5617 159.023 75.9268 150.605 67.869C146.828 64.2679 142.539 61.245 137.878 58.8981C126.3 52.9913 114.106 51.1167 101.324 53.3647C88.5972 55.6265 77.8764 61.6371 69.0852 71.1405C68.3072 71.9791 67.5793 72.8586 66.8509 73.7387C66.498 74.1652 66.1449 74.5918 65.786 75.0138C65.8008 75.0544 65.8232 75.0908 65.8454 75.1266C65.8646 75.1581 65.8837 75.1889 65.8967 75.2214H115.558C115.487 75.355 115.422 75.4791 115.36 75.5957C115.183 75.9312 115.04 76.2046 114.881 76.4664C113.696 78.5694 112.505 80.6684 111.315 82.7666C109.467 86.0234 107.62 89.2794 105.799 92.5476C105.556 93.0898 104.992 93.4137 104.402 93.3499C88.7563 93.3222 73.1109 93.3154 57.4791 93.3222H56.5385C48.612 118.243 59.81 149.499 87.8987 162.005C115.095 174.15 143.612 162.973 156.982 144.319C131.287 144.367 105.578 144.388 79.8614 144.367L79.8546 144.374ZM184.988 107.958C185.527 129.144 176.951 146.781 167.302 157.502L157.335 147.348C175.616 124.738 174.855 93.2461 157.148 71.9498C159.1 69.9784 161.06 68.007 163.041 66.0157C164.486 64.5626 165.942 63.0986 167.413 61.6162C178.583 75.173 184.559 90.5071 184.988 107.958Z" fill="white"/>
</g>
<defs>
<clipPath id="clip0_4_5940">
<rect width="220" height="220" fill="white" transform="translate(0 0.5)"/>
</clipPath>
</defs>
</svg>
