<svg width="220" height="221" viewBox="0 0 220 221" fill="none" xmlns="http://www.w3.org/2000/svg">
<g clip-path="url(#clip0_4_5943)">
<path d="M110 220.5C170.751 220.5 220 171.251 220 110.5C220 49.7487 170.751 0.5 110 0.5C49.2487 0.5 0 49.7487 0 110.5C0 171.251 49.2487 220.5 110 220.5Z" fill="#183C87"/>
<path fill-rule="evenodd" clip-rule="evenodd" d="M110.648 142.37L121.555 136.436V104.985L149.367 89.4484V77.6076L110.648 55.5L71.9212 77.6076V89.1336L100.279 104.985V136.737L110.648 142.37ZM34.834 107.62L65.9244 90.2492L97.0078 107.62V140.795L65.9244 158.167L34.834 140.795V107.62ZM124.82 107.62L155.91 90.2492L187.001 107.62V140.795L155.91 158.167L124.827 140.795V107.62H124.82Z" fill="white"/>
</g>
<defs>
<clipPath id="clip0_4_5943">
<rect width="220" height="220" fill="white" transform="translate(0 0.5)"/>
</clipPath>
</defs>
</svg>
