<svg width="220" height="221" viewBox="0 0 220 221" fill="none" xmlns="http://www.w3.org/2000/svg">
<g clip-path="url(#clip0_4_5946)">
<path d="M110 220.5C170.751 220.5 220 171.251 220 110.5C220 49.7487 170.751 0.5 110 0.5C49.2487 0.5 0 49.7487 0 110.5C0 171.251 49.2487 220.5 110 220.5Z" fill="#EDF0F4"/>
<path d="M110 183.833C149.488 183.833 181.5 151.411 181.5 111.417C181.5 71.422 149.488 39 110 39C70.5116 39 38.5 71.422 38.5 111.417C38.5 151.411 70.5116 183.833 110 183.833Z" fill="white"/>
<path fill-rule="evenodd" clip-rule="evenodd" d="M111.176 183.833C150.629 183.833 183.333 151.246 183.333 111.417C183.333 71.5875 150.629 39 110.657 39C71.2043 39 38.5 71.0703 38.5 111.417C38.5 151.246 71.2043 183.833 111.176 183.833ZM46.8059 111.417C46.8059 76.7601 75.8763 47.2762 110.657 47.2762C145.438 47.2762 175.027 76.2429 174.508 111.417C174.508 146.073 145.438 175.04 110.657 175.04C75.8763 175.04 46.8059 146.073 46.8059 111.417Z" fill="#F9C910"/>
<path d="M64.4536 137.28C55.1094 121.245 55.1094 98.485 66.011 81.9326L84.1801 100.037C84.1801 100.037 81.0652 107.278 82.6226 115.037L76.3933 122.279C72.7595 112.451 75.3549 101.589 75.3549 101.589L68.6064 95.8988C61.8579 115.037 70.1639 130.555 70.1639 130.555L64.4536 137.28Z" fill="#F9C910"/>
<path d="M157.377 84.519C166.721 100.554 166.721 123.314 155.819 139.866L137.65 121.762C137.65 121.762 140.765 114.52 139.208 106.761L145.437 99.5196C149.071 109.348 146.475 120.21 146.475 120.21L153.224 126.934C159.972 107.796 151.666 92.2779 151.666 92.2779L157.377 84.519Z" fill="#F9C910"/>
<path fill-rule="evenodd" clip-rule="evenodd" d="M103.388 138.832L153.223 77.7946C134.016 51.9316 90.4103 50.897 70.6839 75.7255L87.8147 93.3125C100.273 76.76 118.443 82.9671 118.443 82.9671L68.6074 144.004C94.0442 174.523 135.573 166.246 151.147 145.556L134.016 128.486C120.519 145.039 103.388 138.832 103.388 138.832ZM87.8147 81.9328L82.1044 76.2428C102.35 59.6904 128.825 64.863 142.322 78.8291L90.4103 141.935C90.4103 141.935 110.137 156.936 134.016 139.866L139.726 145.556C124.153 159.522 97.6779 160.557 79.5088 143.487L130.901 80.3809C130.901 80.3809 110.137 65.3803 87.8147 81.9328Z" fill="#ED1C24"/>
</g>
<defs>
<clipPath id="clip0_4_5946">
<rect width="220" height="220" fill="white" transform="translate(0 0.5)"/>
</clipPath>
</defs>
</svg>
