<svg width="220" height="221" viewBox="0 0 220 221" fill="none" xmlns="http://www.w3.org/2000/svg">
<g clip-path="url(#clip0_4_5953)">
<path fill-rule="evenodd" clip-rule="evenodd" d="M110 220.5C49.5 220.5 0 171.001 0 109.952C0.55 49.4535 49.5 -0.0454497 110.55 0.504539C171.05 1.05453 220 50.0035 220 111.602C219.45 171.551 170.5 220.5 110 220.5Z" fill="#01FF65"/>
<path fill-rule="evenodd" clip-rule="evenodd" d="M67.8342 52.6138V60.7274L94.4017 60.732C119.417 60.7364 120.957 60.7454 120.757 60.8863C120.64 60.9687 108.694 68.3634 94.2112 77.3192L67.8782 93.6024L67.8562 135.151L67.834 176.699H75.0657H82.2975V156.018C82.2975 144.644 82.3175 135.337 82.3421 135.337C82.3666 135.337 94.4351 144.644 109.161 156.019L135.935 176.7L143.268 176.678L150.602 176.655V136.263V95.8717L122.906 95.8277L95.2095 95.7835L122.01 78.7184C136.751 69.3327 149.224 61.3868 149.729 61.061L150.647 60.4689L150.624 52.5065L150.602 44.5442L109.218 44.5222L67.8342 44.5V52.6138ZM135.869 129.715C135.902 139.477 135.917 149.181 135.902 151.279L135.874 155.094L109.152 133.61C94.4547 121.794 82.3921 112.09 82.3461 112.046C82.296 111.999 93.0267 111.967 109.035 111.967H135.808L135.869 129.715Z" fill="black"/>
</g>
<defs>
<clipPath id="clip0_4_5953">
<rect width="220" height="220" fill="white" transform="translate(0 0.5)"/>
</clipPath>
</defs>
</svg>
