<svg width="220" height="221" viewBox="0 0 220 221" fill="none" xmlns="http://www.w3.org/2000/svg">
<g clip-path="url(#clip0_4_5956)">
<path d="M110 220.5C170.751 220.5 220 171.251 220 110.5C220 49.7487 170.751 0.5 110 0.5C49.2487 0.5 0 49.7487 0 110.5C0 171.251 49.2487 220.5 110 220.5Z" fill="#EDF0F4"/>
<path fill-rule="evenodd" clip-rule="evenodd" d="M110.74 48.1838C110.606 48.688 107.432 59.8255 103.683 72.9338L96.8687 96.4665H70.5842C56.1283 96.3015 45.011 95.6818 45.8819 96.4665C46.7527 97.2511 55.7158 104.617 65.7992 111.461C75.8825 118.303 84.8402 124.527 85.7055 125.292C86.5727 126.056 83.4084 137.137 78.6747 149.915C73.9429 162.694 70.3789 173.459 70.7584 173.837C71.136 174.214 80.2642 167.49 91.0405 158.89L110.635 143.255L126.45 155.762C150.103 174.467 151.049 175.138 151.049 173.182C151.049 172.189 147.339 161.599 142.803 149.653C138.267 137.707 134.555 127.428 134.553 126.81C134.551 126.19 143.659 119.66 154.795 112.299C165.93 104.936 175.4 97.1778 175.84 96.4665C176.28 95.7551 164.962 96.3455 150.692 96.4665H124.745L117.862 72.0172C114.076 58.4047 110.872 47.6797 110.74 48.1838Z" fill="black"/>
</g>
<defs>
<clipPath id="clip0_4_5956">
<rect width="220" height="220" fill="white" transform="translate(0 0.5)"/>
</clipPath>
</defs>
</svg>
