<svg width="220" height="221" viewBox="0 0 220 221" fill="none" xmlns="http://www.w3.org/2000/svg">
<g clip-path="url(#clip0_4_5959)">
<path d="M110 220.5C170.751 220.5 220 171.251 220 110.5C220 49.7487 170.751 0.5 110 0.5C49.2487 0.5 0 49.7487 0 110.5C0 171.251 49.2487 220.5 110 220.5Z" fill="#E7EFF3"/>
<path d="M160.944 97.747L140.47 106.875L86.157 134.521L140.47 160.634V117.471L160.944 108.244V172.012L140.47 181.14L60.5 142.867V122.524L115.857 95.3671L60.5 68.7647V48.1283L81.2994 39L160.944 77.3389V97.747Z" fill="#49C1BF"/>
<path d="M60.5 48.1283L140.47 86.467L160.944 77.3389L81.2994 39L60.5 48.1283Z" fill="#077A8F"/>
<path d="M140.473 86.3808L160.946 77.2524V97.6607L140.473 106.789V86.3808Z" fill="#298E97"/>
<path d="M60.5 48.1465V68.783L115.857 95.3854L60.5 122.542V142.885L140.47 181.159V160.685L86.157 134.539L140.47 106.893V86.4853L60.5 48.1465Z" fill="#49C1BF"/>
<path d="M140.473 181.006L160.946 171.878V108.111L140.473 117.337V181.006Z" fill="#298E97"/>
</g>
<defs>
<clipPath id="clip0_4_5959">
<rect width="220" height="220" fill="white" transform="translate(0 0.5)"/>
</clipPath>
</defs>
</svg>
