<svg width="220" height="221" viewBox="0 0 220 221" fill="none" xmlns="http://www.w3.org/2000/svg">
<g clip-path="url(#clip0_4_5966)">
<path d="M110 220.5C170.751 220.5 220 171.251 220 110.5C220 49.7487 170.751 0.5 110 0.5C49.2487 0.5 0 49.7487 0 110.5C0 171.251 49.2487 220.5 110 220.5Z" fill="#5A11A8"/>
<path fill-rule="evenodd" clip-rule="evenodd" d="M163.446 74.9866L139.419 97.715C136.172 91.2212 130.978 84.7275 123.834 81.4805L136.172 69.7917C117.99 57.4536 93.9629 58.7523 77.7284 73.0385L77.079 73.6879C77.079 73.6879 76.4295 73.6879 76.4295 74.3373C71.8839 78.2336 64.7407 77.5843 60.8445 73.0385C59.5458 71.0904 58.2468 68.493 58.2468 66.5449C58.2468 63.2979 59.5458 60.051 62.1432 58.1029C75.1307 46.414 92.0146 39.9203 108.899 39.9203C129.679 39.9203 149.16 48.3621 162.797 64.5966C164.096 65.8953 164.745 67.8436 164.745 69.7917C165.395 72.3892 164.745 73.6879 163.446 74.9866ZM68.6371 136.028L80.9752 124.34C84.222 130.833 89.4172 137.327 96.5604 140.574L84.222 152.263C103.054 163.952 127.731 160.056 143.316 145.12C147.212 140.574 154.355 139.275 159.55 143.172C162.148 145.12 163.446 148.367 163.446 151.614C163.446 154.86 162.148 158.107 159.55 160.055C132.276 187.978 86.8197 187.978 59.5457 160.705C58.8964 160.055 57.5975 158.757 56.9481 157.458C55.6494 156.159 55 154.211 55 152.912C55 150.315 56.2987 147.717 58.8964 145.769L68.6371 136.028ZM133.575 111.352C133.575 99.0138 123.185 87.9743 110.197 87.9743C96.5604 87.9743 86.8197 99.0138 86.8197 111.352C86.8197 123.69 97.8591 134.73 110.197 134.73C122.536 134.73 133.575 123.69 133.575 111.352Z" fill="white"/>
</g>
<defs>
<clipPath id="clip0_4_5966">
<rect width="220" height="220" fill="white" transform="translate(0 0.5)"/>
</clipPath>
</defs>
</svg>
